%TF.GenerationSoftware,KiCad,Pcbnew,(5.1.6-0-10_14)*%
%TF.CreationDate,2020-07-31T15:00:41-05:00*%
%TF.ProjectId,final_fingerprint_sensor,66696e61-6c5f-4666-996e-676572707269,rev?*%
%TF.SameCoordinates,Original*%
%TF.FileFunction,Paste,Bot*%
%TF.FilePolarity,Positive*%
%FSLAX46Y46*%
G04 Gerber Fmt 4.6, Leading zero omitted, Abs format (unit mm)*
G04 Created by KiCad (PCBNEW (5.1.6-0-10_14)) date 2020-07-31 15:00:41*
%MOMM*%
%LPD*%
G01*
G04 APERTURE LIST*
G04 APERTURE END LIST*
%TO.C,C1*%
G36*
G01*
X118525000Y-70162500D02*
X118525000Y-69687500D01*
G75*
G02*
X118762500Y-69450000I237500J0D01*
G01*
X119337500Y-69450000D01*
G75*
G02*
X119575000Y-69687500I0J-237500D01*
G01*
X119575000Y-70162500D01*
G75*
G02*
X119337500Y-70400000I-237500J0D01*
G01*
X118762500Y-70400000D01*
G75*
G02*
X118525000Y-70162500I0J237500D01*
G01*
G37*
G36*
G01*
X120275000Y-70162500D02*
X120275000Y-69687500D01*
G75*
G02*
X120512500Y-69450000I237500J0D01*
G01*
X121087500Y-69450000D01*
G75*
G02*
X121325000Y-69687500I0J-237500D01*
G01*
X121325000Y-70162500D01*
G75*
G02*
X121087500Y-70400000I-237500J0D01*
G01*
X120512500Y-70400000D01*
G75*
G02*
X120275000Y-70162500I0J237500D01*
G01*
G37*
%TD*%
%TO.C,C4*%
G36*
G01*
X121225000Y-57087500D02*
X121225000Y-57562500D01*
G75*
G02*
X120987500Y-57800000I-237500J0D01*
G01*
X120412500Y-57800000D01*
G75*
G02*
X120175000Y-57562500I0J237500D01*
G01*
X120175000Y-57087500D01*
G75*
G02*
X120412500Y-56850000I237500J0D01*
G01*
X120987500Y-56850000D01*
G75*
G02*
X121225000Y-57087500I0J-237500D01*
G01*
G37*
G36*
G01*
X119475000Y-57087500D02*
X119475000Y-57562500D01*
G75*
G02*
X119237500Y-57800000I-237500J0D01*
G01*
X118662500Y-57800000D01*
G75*
G02*
X118425000Y-57562500I0J237500D01*
G01*
X118425000Y-57087500D01*
G75*
G02*
X118662500Y-56850000I237500J0D01*
G01*
X119237500Y-56850000D01*
G75*
G02*
X119475000Y-57087500I0J-237500D01*
G01*
G37*
%TD*%
%TO.C,C6*%
G36*
G01*
X120125000Y-60912500D02*
X120125000Y-60437500D01*
G75*
G02*
X120362500Y-60200000I237500J0D01*
G01*
X120937500Y-60200000D01*
G75*
G02*
X121175000Y-60437500I0J-237500D01*
G01*
X121175000Y-60912500D01*
G75*
G02*
X120937500Y-61150000I-237500J0D01*
G01*
X120362500Y-61150000D01*
G75*
G02*
X120125000Y-60912500I0J237500D01*
G01*
G37*
G36*
G01*
X118375000Y-60912500D02*
X118375000Y-60437500D01*
G75*
G02*
X118612500Y-60200000I237500J0D01*
G01*
X119187500Y-60200000D01*
G75*
G02*
X119425000Y-60437500I0J-237500D01*
G01*
X119425000Y-60912500D01*
G75*
G02*
X119187500Y-61150000I-237500J0D01*
G01*
X118612500Y-61150000D01*
G75*
G02*
X118375000Y-60912500I0J237500D01*
G01*
G37*
%TD*%
%TO.C,C7*%
G36*
G01*
X118325000Y-65937500D02*
X118325000Y-65462500D01*
G75*
G02*
X118562500Y-65225000I237500J0D01*
G01*
X119137500Y-65225000D01*
G75*
G02*
X119375000Y-65462500I0J-237500D01*
G01*
X119375000Y-65937500D01*
G75*
G02*
X119137500Y-66175000I-237500J0D01*
G01*
X118562500Y-66175000D01*
G75*
G02*
X118325000Y-65937500I0J237500D01*
G01*
G37*
G36*
G01*
X120075000Y-65937500D02*
X120075000Y-65462500D01*
G75*
G02*
X120312500Y-65225000I237500J0D01*
G01*
X120887500Y-65225000D01*
G75*
G02*
X121125000Y-65462500I0J-237500D01*
G01*
X121125000Y-65937500D01*
G75*
G02*
X120887500Y-66175000I-237500J0D01*
G01*
X120312500Y-66175000D01*
G75*
G02*
X120075000Y-65937500I0J237500D01*
G01*
G37*
%TD*%
%TO.C,C8*%
G36*
G01*
X121125000Y-63812500D02*
X121125000Y-64287500D01*
G75*
G02*
X120887500Y-64525000I-237500J0D01*
G01*
X120312500Y-64525000D01*
G75*
G02*
X120075000Y-64287500I0J237500D01*
G01*
X120075000Y-63812500D01*
G75*
G02*
X120312500Y-63575000I237500J0D01*
G01*
X120887500Y-63575000D01*
G75*
G02*
X121125000Y-63812500I0J-237500D01*
G01*
G37*
G36*
G01*
X119375000Y-63812500D02*
X119375000Y-64287500D01*
G75*
G02*
X119137500Y-64525000I-237500J0D01*
G01*
X118562500Y-64525000D01*
G75*
G02*
X118325000Y-64287500I0J237500D01*
G01*
X118325000Y-63812500D01*
G75*
G02*
X118562500Y-63575000I237500J0D01*
G01*
X119137500Y-63575000D01*
G75*
G02*
X119375000Y-63812500I0J-237500D01*
G01*
G37*
%TD*%
%TO.C,C9*%
G36*
G01*
X115075000Y-73937500D02*
X115075000Y-73462500D01*
G75*
G02*
X115312500Y-73225000I237500J0D01*
G01*
X115887500Y-73225000D01*
G75*
G02*
X116125000Y-73462500I0J-237500D01*
G01*
X116125000Y-73937500D01*
G75*
G02*
X115887500Y-74175000I-237500J0D01*
G01*
X115312500Y-74175000D01*
G75*
G02*
X115075000Y-73937500I0J237500D01*
G01*
G37*
G36*
G01*
X116825000Y-73937500D02*
X116825000Y-73462500D01*
G75*
G02*
X117062500Y-73225000I237500J0D01*
G01*
X117637500Y-73225000D01*
G75*
G02*
X117875000Y-73462500I0J-237500D01*
G01*
X117875000Y-73937500D01*
G75*
G02*
X117637500Y-74175000I-237500J0D01*
G01*
X117062500Y-74175000D01*
G75*
G02*
X116825000Y-73937500I0J237500D01*
G01*
G37*
%TD*%
%TO.C,C10*%
G36*
G01*
X116175000Y-68387500D02*
X116175000Y-68862500D01*
G75*
G02*
X115937500Y-69100000I-237500J0D01*
G01*
X115362500Y-69100000D01*
G75*
G02*
X115125000Y-68862500I0J237500D01*
G01*
X115125000Y-68387500D01*
G75*
G02*
X115362500Y-68150000I237500J0D01*
G01*
X115937500Y-68150000D01*
G75*
G02*
X116175000Y-68387500I0J-237500D01*
G01*
G37*
G36*
G01*
X117925000Y-68387500D02*
X117925000Y-68862500D01*
G75*
G02*
X117687500Y-69100000I-237500J0D01*
G01*
X117112500Y-69100000D01*
G75*
G02*
X116875000Y-68862500I0J237500D01*
G01*
X116875000Y-68387500D01*
G75*
G02*
X117112500Y-68150000I237500J0D01*
G01*
X117687500Y-68150000D01*
G75*
G02*
X117925000Y-68387500I0J-237500D01*
G01*
G37*
%TD*%
%TO.C,C13*%
G36*
G01*
X120150000Y-59237500D02*
X120150000Y-58762500D01*
G75*
G02*
X120387500Y-58525000I237500J0D01*
G01*
X120962500Y-58525000D01*
G75*
G02*
X121200000Y-58762500I0J-237500D01*
G01*
X121200000Y-59237500D01*
G75*
G02*
X120962500Y-59475000I-237500J0D01*
G01*
X120387500Y-59475000D01*
G75*
G02*
X120150000Y-59237500I0J237500D01*
G01*
G37*
G36*
G01*
X118400000Y-59237500D02*
X118400000Y-58762500D01*
G75*
G02*
X118637500Y-58525000I237500J0D01*
G01*
X119212500Y-58525000D01*
G75*
G02*
X119450000Y-58762500I0J-237500D01*
G01*
X119450000Y-59237500D01*
G75*
G02*
X119212500Y-59475000I-237500J0D01*
G01*
X118637500Y-59475000D01*
G75*
G02*
X118400000Y-59237500I0J237500D01*
G01*
G37*
%TD*%
%TO.C,R1*%
G36*
G01*
X120100000Y-62612500D02*
X120100000Y-62137500D01*
G75*
G02*
X120337500Y-61900000I237500J0D01*
G01*
X120912500Y-61900000D01*
G75*
G02*
X121150000Y-62137500I0J-237500D01*
G01*
X121150000Y-62612500D01*
G75*
G02*
X120912500Y-62850000I-237500J0D01*
G01*
X120337500Y-62850000D01*
G75*
G02*
X120100000Y-62612500I0J237500D01*
G01*
G37*
G36*
G01*
X118350000Y-62612500D02*
X118350000Y-62137500D01*
G75*
G02*
X118587500Y-61900000I237500J0D01*
G01*
X119162500Y-61900000D01*
G75*
G02*
X119400000Y-62137500I0J-237500D01*
G01*
X119400000Y-62612500D01*
G75*
G02*
X119162500Y-62850000I-237500J0D01*
G01*
X118587500Y-62850000D01*
G75*
G02*
X118350000Y-62612500I0J237500D01*
G01*
G37*
%TD*%
%TO.C,R2*%
G36*
G01*
X121825000Y-64287500D02*
X121825000Y-63812500D01*
G75*
G02*
X122062500Y-63575000I237500J0D01*
G01*
X122637500Y-63575000D01*
G75*
G02*
X122875000Y-63812500I0J-237500D01*
G01*
X122875000Y-64287500D01*
G75*
G02*
X122637500Y-64525000I-237500J0D01*
G01*
X122062500Y-64525000D01*
G75*
G02*
X121825000Y-64287500I0J237500D01*
G01*
G37*
G36*
G01*
X123575000Y-64287500D02*
X123575000Y-63812500D01*
G75*
G02*
X123812500Y-63575000I237500J0D01*
G01*
X124387500Y-63575000D01*
G75*
G02*
X124625000Y-63812500I0J-237500D01*
G01*
X124625000Y-64287500D01*
G75*
G02*
X124387500Y-64525000I-237500J0D01*
G01*
X123812500Y-64525000D01*
G75*
G02*
X123575000Y-64287500I0J237500D01*
G01*
G37*
%TD*%
%TO.C,R3*%
G36*
G01*
X123675000Y-59237500D02*
X123675000Y-58762500D01*
G75*
G02*
X123912500Y-58525000I237500J0D01*
G01*
X124487500Y-58525000D01*
G75*
G02*
X124725000Y-58762500I0J-237500D01*
G01*
X124725000Y-59237500D01*
G75*
G02*
X124487500Y-59475000I-237500J0D01*
G01*
X123912500Y-59475000D01*
G75*
G02*
X123675000Y-59237500I0J237500D01*
G01*
G37*
G36*
G01*
X121925000Y-59237500D02*
X121925000Y-58762500D01*
G75*
G02*
X122162500Y-58525000I237500J0D01*
G01*
X122737500Y-58525000D01*
G75*
G02*
X122975000Y-58762500I0J-237500D01*
G01*
X122975000Y-59237500D01*
G75*
G02*
X122737500Y-59475000I-237500J0D01*
G01*
X122162500Y-59475000D01*
G75*
G02*
X121925000Y-59237500I0J237500D01*
G01*
G37*
%TD*%
%TO.C,R5*%
G36*
G01*
X121875000Y-62612500D02*
X121875000Y-62137500D01*
G75*
G02*
X122112500Y-61900000I237500J0D01*
G01*
X122687500Y-61900000D01*
G75*
G02*
X122925000Y-62137500I0J-237500D01*
G01*
X122925000Y-62612500D01*
G75*
G02*
X122687500Y-62850000I-237500J0D01*
G01*
X122112500Y-62850000D01*
G75*
G02*
X121875000Y-62612500I0J237500D01*
G01*
G37*
G36*
G01*
X123625000Y-62612500D02*
X123625000Y-62137500D01*
G75*
G02*
X123862500Y-61900000I237500J0D01*
G01*
X124437500Y-61900000D01*
G75*
G02*
X124675000Y-62137500I0J-237500D01*
G01*
X124675000Y-62612500D01*
G75*
G02*
X124437500Y-62850000I-237500J0D01*
G01*
X123862500Y-62850000D01*
G75*
G02*
X123625000Y-62612500I0J237500D01*
G01*
G37*
%TD*%
%TO.C,R6*%
G36*
G01*
X121925000Y-57562500D02*
X121925000Y-57087500D01*
G75*
G02*
X122162500Y-56850000I237500J0D01*
G01*
X122737500Y-56850000D01*
G75*
G02*
X122975000Y-57087500I0J-237500D01*
G01*
X122975000Y-57562500D01*
G75*
G02*
X122737500Y-57800000I-237500J0D01*
G01*
X122162500Y-57800000D01*
G75*
G02*
X121925000Y-57562500I0J237500D01*
G01*
G37*
G36*
G01*
X123675000Y-57562500D02*
X123675000Y-57087500D01*
G75*
G02*
X123912500Y-56850000I237500J0D01*
G01*
X124487500Y-56850000D01*
G75*
G02*
X124725000Y-57087500I0J-237500D01*
G01*
X124725000Y-57562500D01*
G75*
G02*
X124487500Y-57800000I-237500J0D01*
G01*
X123912500Y-57800000D01*
G75*
G02*
X123675000Y-57562500I0J237500D01*
G01*
G37*
%TD*%
%TO.C,R14*%
G36*
G01*
X132912500Y-61075000D02*
X132437500Y-61075000D01*
G75*
G02*
X132200000Y-60837500I0J237500D01*
G01*
X132200000Y-60262500D01*
G75*
G02*
X132437500Y-60025000I237500J0D01*
G01*
X132912500Y-60025000D01*
G75*
G02*
X133150000Y-60262500I0J-237500D01*
G01*
X133150000Y-60837500D01*
G75*
G02*
X132912500Y-61075000I-237500J0D01*
G01*
G37*
G36*
G01*
X132912500Y-59325000D02*
X132437500Y-59325000D01*
G75*
G02*
X132200000Y-59087500I0J237500D01*
G01*
X132200000Y-58512500D01*
G75*
G02*
X132437500Y-58275000I237500J0D01*
G01*
X132912500Y-58275000D01*
G75*
G02*
X133150000Y-58512500I0J-237500D01*
G01*
X133150000Y-59087500D01*
G75*
G02*
X132912500Y-59325000I-237500J0D01*
G01*
G37*
%TD*%
%TO.C,R17*%
G36*
G01*
X127512500Y-62775000D02*
X127987500Y-62775000D01*
G75*
G02*
X128225000Y-63012500I0J-237500D01*
G01*
X128225000Y-63587500D01*
G75*
G02*
X127987500Y-63825000I-237500J0D01*
G01*
X127512500Y-63825000D01*
G75*
G02*
X127275000Y-63587500I0J237500D01*
G01*
X127275000Y-63012500D01*
G75*
G02*
X127512500Y-62775000I237500J0D01*
G01*
G37*
G36*
G01*
X127512500Y-64525000D02*
X127987500Y-64525000D01*
G75*
G02*
X128225000Y-64762500I0J-237500D01*
G01*
X128225000Y-65337500D01*
G75*
G02*
X127987500Y-65575000I-237500J0D01*
G01*
X127512500Y-65575000D01*
G75*
G02*
X127275000Y-65337500I0J237500D01*
G01*
X127275000Y-64762500D01*
G75*
G02*
X127512500Y-64525000I237500J0D01*
G01*
G37*
%TD*%
%TO.C,R18*%
G36*
G01*
X129525000Y-67362500D02*
X129525000Y-66887500D01*
G75*
G02*
X129762500Y-66650000I237500J0D01*
G01*
X130337500Y-66650000D01*
G75*
G02*
X130575000Y-66887500I0J-237500D01*
G01*
X130575000Y-67362500D01*
G75*
G02*
X130337500Y-67600000I-237500J0D01*
G01*
X129762500Y-67600000D01*
G75*
G02*
X129525000Y-67362500I0J237500D01*
G01*
G37*
G36*
G01*
X131275000Y-67362500D02*
X131275000Y-66887500D01*
G75*
G02*
X131512500Y-66650000I237500J0D01*
G01*
X132087500Y-66650000D01*
G75*
G02*
X132325000Y-66887500I0J-237500D01*
G01*
X132325000Y-67362500D01*
G75*
G02*
X132087500Y-67600000I-237500J0D01*
G01*
X131512500Y-67600000D01*
G75*
G02*
X131275000Y-67362500I0J237500D01*
G01*
G37*
%TD*%
%TO.C,R19*%
G36*
G01*
X132612500Y-64625000D02*
X133087500Y-64625000D01*
G75*
G02*
X133325000Y-64862500I0J-237500D01*
G01*
X133325000Y-65437500D01*
G75*
G02*
X133087500Y-65675000I-237500J0D01*
G01*
X132612500Y-65675000D01*
G75*
G02*
X132375000Y-65437500I0J237500D01*
G01*
X132375000Y-64862500D01*
G75*
G02*
X132612500Y-64625000I237500J0D01*
G01*
G37*
G36*
G01*
X132612500Y-62875000D02*
X133087500Y-62875000D01*
G75*
G02*
X133325000Y-63112500I0J-237500D01*
G01*
X133325000Y-63687500D01*
G75*
G02*
X133087500Y-63925000I-237500J0D01*
G01*
X132612500Y-63925000D01*
G75*
G02*
X132375000Y-63687500I0J237500D01*
G01*
X132375000Y-63112500D01*
G75*
G02*
X132612500Y-62875000I237500J0D01*
G01*
G37*
%TD*%
%TO.C,R23*%
G36*
G01*
X123675000Y-66012500D02*
X123675000Y-65537500D01*
G75*
G02*
X123912500Y-65300000I237500J0D01*
G01*
X124487500Y-65300000D01*
G75*
G02*
X124725000Y-65537500I0J-237500D01*
G01*
X124725000Y-66012500D01*
G75*
G02*
X124487500Y-66250000I-237500J0D01*
G01*
X123912500Y-66250000D01*
G75*
G02*
X123675000Y-66012500I0J237500D01*
G01*
G37*
G36*
G01*
X121925000Y-66012500D02*
X121925000Y-65537500D01*
G75*
G02*
X122162500Y-65300000I237500J0D01*
G01*
X122737500Y-65300000D01*
G75*
G02*
X122975000Y-65537500I0J-237500D01*
G01*
X122975000Y-66012500D01*
G75*
G02*
X122737500Y-66250000I-237500J0D01*
G01*
X122162500Y-66250000D01*
G75*
G02*
X121925000Y-66012500I0J237500D01*
G01*
G37*
%TD*%
%TO.C,C3*%
G36*
G01*
X124700000Y-60437500D02*
X124700000Y-60912500D01*
G75*
G02*
X124462500Y-61150000I-237500J0D01*
G01*
X123887500Y-61150000D01*
G75*
G02*
X123650000Y-60912500I0J237500D01*
G01*
X123650000Y-60437500D01*
G75*
G02*
X123887500Y-60200000I237500J0D01*
G01*
X124462500Y-60200000D01*
G75*
G02*
X124700000Y-60437500I0J-237500D01*
G01*
G37*
G36*
G01*
X122950000Y-60437500D02*
X122950000Y-60912500D01*
G75*
G02*
X122712500Y-61150000I-237500J0D01*
G01*
X122137500Y-61150000D01*
G75*
G02*
X121900000Y-60912500I0J237500D01*
G01*
X121900000Y-60437500D01*
G75*
G02*
X122137500Y-60200000I237500J0D01*
G01*
X122712500Y-60200000D01*
G75*
G02*
X122950000Y-60437500I0J-237500D01*
G01*
G37*
%TD*%
%TO.C,C5*%
G36*
G01*
X145012500Y-60550000D02*
X144537500Y-60550000D01*
G75*
G02*
X144300000Y-60312500I0J237500D01*
G01*
X144300000Y-59737500D01*
G75*
G02*
X144537500Y-59500000I237500J0D01*
G01*
X145012500Y-59500000D01*
G75*
G02*
X145250000Y-59737500I0J-237500D01*
G01*
X145250000Y-60312500D01*
G75*
G02*
X145012500Y-60550000I-237500J0D01*
G01*
G37*
G36*
G01*
X145012500Y-58800000D02*
X144537500Y-58800000D01*
G75*
G02*
X144300000Y-58562500I0J237500D01*
G01*
X144300000Y-57987500D01*
G75*
G02*
X144537500Y-57750000I237500J0D01*
G01*
X145012500Y-57750000D01*
G75*
G02*
X145250000Y-57987500I0J-237500D01*
G01*
X145250000Y-58562500D01*
G75*
G02*
X145012500Y-58800000I-237500J0D01*
G01*
G37*
%TD*%
%TO.C,C16*%
G36*
G01*
X145062500Y-63775000D02*
X144587500Y-63775000D01*
G75*
G02*
X144350000Y-63537500I0J237500D01*
G01*
X144350000Y-62962500D01*
G75*
G02*
X144587500Y-62725000I237500J0D01*
G01*
X145062500Y-62725000D01*
G75*
G02*
X145300000Y-62962500I0J-237500D01*
G01*
X145300000Y-63537500D01*
G75*
G02*
X145062500Y-63775000I-237500J0D01*
G01*
G37*
G36*
G01*
X145062500Y-65525000D02*
X144587500Y-65525000D01*
G75*
G02*
X144350000Y-65287500I0J237500D01*
G01*
X144350000Y-64712500D01*
G75*
G02*
X144587500Y-64475000I237500J0D01*
G01*
X145062500Y-64475000D01*
G75*
G02*
X145300000Y-64712500I0J-237500D01*
G01*
X145300000Y-65287500D01*
G75*
G02*
X145062500Y-65525000I-237500J0D01*
G01*
G37*
%TD*%
%TO.C,R4*%
G36*
G01*
X111150000Y-74812500D02*
X111150000Y-75287500D01*
G75*
G02*
X110912500Y-75525000I-237500J0D01*
G01*
X110337500Y-75525000D01*
G75*
G02*
X110100000Y-75287500I0J237500D01*
G01*
X110100000Y-74812500D01*
G75*
G02*
X110337500Y-74575000I237500J0D01*
G01*
X110912500Y-74575000D01*
G75*
G02*
X111150000Y-74812500I0J-237500D01*
G01*
G37*
G36*
G01*
X112900000Y-74812500D02*
X112900000Y-75287500D01*
G75*
G02*
X112662500Y-75525000I-237500J0D01*
G01*
X112087500Y-75525000D01*
G75*
G02*
X111850000Y-75287500I0J237500D01*
G01*
X111850000Y-74812500D01*
G75*
G02*
X112087500Y-74575000I237500J0D01*
G01*
X112662500Y-74575000D01*
G75*
G02*
X112900000Y-74812500I0J-237500D01*
G01*
G37*
%TD*%
%TO.C,R20*%
G36*
G01*
X119162500Y-76750000D02*
X118687500Y-76750000D01*
G75*
G02*
X118450000Y-76512500I0J237500D01*
G01*
X118450000Y-75937500D01*
G75*
G02*
X118687500Y-75700000I237500J0D01*
G01*
X119162500Y-75700000D01*
G75*
G02*
X119400000Y-75937500I0J-237500D01*
G01*
X119400000Y-76512500D01*
G75*
G02*
X119162500Y-76750000I-237500J0D01*
G01*
G37*
G36*
G01*
X119162500Y-75000000D02*
X118687500Y-75000000D01*
G75*
G02*
X118450000Y-74762500I0J237500D01*
G01*
X118450000Y-74187500D01*
G75*
G02*
X118687500Y-73950000I237500J0D01*
G01*
X119162500Y-73950000D01*
G75*
G02*
X119400000Y-74187500I0J-237500D01*
G01*
X119400000Y-74762500D01*
G75*
G02*
X119162500Y-75000000I-237500J0D01*
G01*
G37*
%TD*%
M02*
