%TF.GenerationSoftware,KiCad,Pcbnew,(5.1.6-0-10_14)*%
%TF.CreationDate,2020-07-31T15:00:41-05:00*%
%TF.ProjectId,final_fingerprint_sensor,66696e61-6c5f-4666-996e-676572707269,rev?*%
%TF.SameCoordinates,Original*%
%TF.FileFunction,Legend,Bot*%
%TF.FilePolarity,Positive*%
%FSLAX46Y46*%
G04 Gerber Fmt 4.6, Leading zero omitted, Abs format (unit mm)*
G04 Created by KiCad (PCBNEW (5.1.6-0-10_14)) date 2020-07-31 15:00:41*
%MOMM*%
%LPD*%
G01*
G04 APERTURE LIST*
%ADD10C,0.150000*%
%ADD11C,0.120000*%
G04 APERTURE END LIST*
D10*
X158455952Y-70428571D02*
X158789285Y-70428571D01*
X158789285Y-70952380D02*
X158789285Y-69952380D01*
X158313095Y-69952380D01*
X157932142Y-70952380D02*
X157932142Y-70285714D01*
X157932142Y-69952380D02*
X157979761Y-70000000D01*
X157932142Y-70047619D01*
X157884523Y-70000000D01*
X157932142Y-69952380D01*
X157932142Y-70047619D01*
X157455952Y-70285714D02*
X157455952Y-70952380D01*
X157455952Y-70380952D02*
X157408333Y-70333333D01*
X157313095Y-70285714D01*
X157170238Y-70285714D01*
X157075000Y-70333333D01*
X157027380Y-70428571D01*
X157027380Y-70952380D01*
X156122619Y-70285714D02*
X156122619Y-71095238D01*
X156170238Y-71190476D01*
X156217857Y-71238095D01*
X156313095Y-71285714D01*
X156455952Y-71285714D01*
X156551190Y-71238095D01*
X156122619Y-70904761D02*
X156217857Y-70952380D01*
X156408333Y-70952380D01*
X156503571Y-70904761D01*
X156551190Y-70857142D01*
X156598809Y-70761904D01*
X156598809Y-70476190D01*
X156551190Y-70380952D01*
X156503571Y-70333333D01*
X156408333Y-70285714D01*
X156217857Y-70285714D01*
X156122619Y-70333333D01*
X155265476Y-70904761D02*
X155360714Y-70952380D01*
X155551190Y-70952380D01*
X155646428Y-70904761D01*
X155694047Y-70809523D01*
X155694047Y-70428571D01*
X155646428Y-70333333D01*
X155551190Y-70285714D01*
X155360714Y-70285714D01*
X155265476Y-70333333D01*
X155217857Y-70428571D01*
X155217857Y-70523809D01*
X155694047Y-70619047D01*
X154789285Y-70952380D02*
X154789285Y-70285714D01*
X154789285Y-70476190D02*
X154741666Y-70380952D01*
X154694047Y-70333333D01*
X154598809Y-70285714D01*
X154503571Y-70285714D01*
X154170238Y-70285714D02*
X154170238Y-71285714D01*
X154170238Y-70333333D02*
X154075000Y-70285714D01*
X153884523Y-70285714D01*
X153789285Y-70333333D01*
X153741666Y-70380952D01*
X153694047Y-70476190D01*
X153694047Y-70761904D01*
X153741666Y-70857142D01*
X153789285Y-70904761D01*
X153884523Y-70952380D01*
X154075000Y-70952380D01*
X154170238Y-70904761D01*
X153265476Y-70952380D02*
X153265476Y-70285714D01*
X153265476Y-70476190D02*
X153217857Y-70380952D01*
X153170238Y-70333333D01*
X153075000Y-70285714D01*
X152979761Y-70285714D01*
X152646428Y-70952380D02*
X152646428Y-70285714D01*
X152646428Y-69952380D02*
X152694047Y-70000000D01*
X152646428Y-70047619D01*
X152598809Y-70000000D01*
X152646428Y-69952380D01*
X152646428Y-70047619D01*
X152170238Y-70285714D02*
X152170238Y-70952380D01*
X152170238Y-70380952D02*
X152122619Y-70333333D01*
X152027380Y-70285714D01*
X151884523Y-70285714D01*
X151789285Y-70333333D01*
X151741666Y-70428571D01*
X151741666Y-70952380D01*
X151408333Y-70285714D02*
X151027380Y-70285714D01*
X151265476Y-69952380D02*
X151265476Y-70809523D01*
X151217857Y-70904761D01*
X151122619Y-70952380D01*
X151027380Y-70952380D01*
X149932142Y-70952380D02*
X149932142Y-69952380D01*
X149598809Y-70666666D01*
X149265476Y-69952380D01*
X149265476Y-70952380D01*
X148360714Y-70952380D02*
X148360714Y-70428571D01*
X148408333Y-70333333D01*
X148503571Y-70285714D01*
X148694047Y-70285714D01*
X148789285Y-70333333D01*
X148360714Y-70904761D02*
X148455952Y-70952380D01*
X148694047Y-70952380D01*
X148789285Y-70904761D01*
X148836904Y-70809523D01*
X148836904Y-70714285D01*
X148789285Y-70619047D01*
X148694047Y-70571428D01*
X148455952Y-70571428D01*
X148360714Y-70523809D01*
X147455952Y-70285714D02*
X147455952Y-71095238D01*
X147503571Y-71190476D01*
X147551190Y-71238095D01*
X147646428Y-71285714D01*
X147789285Y-71285714D01*
X147884523Y-71238095D01*
X147455952Y-70904761D02*
X147551190Y-70952380D01*
X147741666Y-70952380D01*
X147836904Y-70904761D01*
X147884523Y-70857142D01*
X147932142Y-70761904D01*
X147932142Y-70476190D01*
X147884523Y-70380952D01*
X147836904Y-70333333D01*
X147741666Y-70285714D01*
X147551190Y-70285714D01*
X147455952Y-70333333D01*
X146979761Y-70952380D02*
X146979761Y-70285714D01*
X146979761Y-69952380D02*
X147027380Y-70000000D01*
X146979761Y-70047619D01*
X146932142Y-70000000D01*
X146979761Y-69952380D01*
X146979761Y-70047619D01*
X146075000Y-70904761D02*
X146170238Y-70952380D01*
X146360714Y-70952380D01*
X146455952Y-70904761D01*
X146503571Y-70857142D01*
X146551190Y-70761904D01*
X146551190Y-70476190D01*
X146503571Y-70380952D01*
X146455952Y-70333333D01*
X146360714Y-70285714D01*
X146170238Y-70285714D01*
X146075000Y-70333333D01*
X157265476Y-71602380D02*
X157265476Y-72316666D01*
X157313095Y-72459523D01*
X157408333Y-72554761D01*
X157551190Y-72602380D01*
X157646428Y-72602380D01*
X156360714Y-71935714D02*
X156360714Y-72602380D01*
X156789285Y-71935714D02*
X156789285Y-72459523D01*
X156741666Y-72554761D01*
X156646428Y-72602380D01*
X156503571Y-72602380D01*
X156408333Y-72554761D01*
X156360714Y-72507142D01*
X155741666Y-72602380D02*
X155836904Y-72554761D01*
X155884523Y-72459523D01*
X155884523Y-71602380D01*
X155455952Y-71935714D02*
X155217857Y-72602380D01*
X154979761Y-71935714D02*
X155217857Y-72602380D01*
X155313095Y-72840476D01*
X155360714Y-72888095D01*
X155455952Y-72935714D01*
X153932142Y-71602380D02*
X153313095Y-71602380D01*
X153646428Y-71983333D01*
X153503571Y-71983333D01*
X153408333Y-72030952D01*
X153360714Y-72078571D01*
X153313095Y-72173809D01*
X153313095Y-72411904D01*
X153360714Y-72507142D01*
X153408333Y-72554761D01*
X153503571Y-72602380D01*
X153789285Y-72602380D01*
X153884523Y-72554761D01*
X153932142Y-72507142D01*
X152360714Y-72602380D02*
X152932142Y-72602380D01*
X152646428Y-72602380D02*
X152646428Y-71602380D01*
X152741666Y-71745238D01*
X152836904Y-71840476D01*
X152932142Y-71888095D01*
X151884523Y-72554761D02*
X151884523Y-72602380D01*
X151932142Y-72697619D01*
X151979761Y-72745238D01*
X150741666Y-71697619D02*
X150694047Y-71650000D01*
X150598809Y-71602380D01*
X150360714Y-71602380D01*
X150265476Y-71650000D01*
X150217857Y-71697619D01*
X150170238Y-71792857D01*
X150170238Y-71888095D01*
X150217857Y-72030952D01*
X150789285Y-72602380D01*
X150170238Y-72602380D01*
X149551190Y-71602380D02*
X149455952Y-71602380D01*
X149360714Y-71650000D01*
X149313095Y-71697619D01*
X149265476Y-71792857D01*
X149217857Y-71983333D01*
X149217857Y-72221428D01*
X149265476Y-72411904D01*
X149313095Y-72507142D01*
X149360714Y-72554761D01*
X149455952Y-72602380D01*
X149551190Y-72602380D01*
X149646428Y-72554761D01*
X149694047Y-72507142D01*
X149741666Y-72411904D01*
X149789285Y-72221428D01*
X149789285Y-71983333D01*
X149741666Y-71792857D01*
X149694047Y-71697619D01*
X149646428Y-71650000D01*
X149551190Y-71602380D01*
X148836904Y-71697619D02*
X148789285Y-71650000D01*
X148694047Y-71602380D01*
X148455952Y-71602380D01*
X148360714Y-71650000D01*
X148313095Y-71697619D01*
X148265476Y-71792857D01*
X148265476Y-71888095D01*
X148313095Y-72030952D01*
X148884523Y-72602380D01*
X148265476Y-72602380D01*
X147646428Y-71602380D02*
X147551190Y-71602380D01*
X147455952Y-71650000D01*
X147408333Y-71697619D01*
X147360714Y-71792857D01*
X147313095Y-71983333D01*
X147313095Y-72221428D01*
X147360714Y-72411904D01*
X147408333Y-72507142D01*
X147455952Y-72554761D01*
X147551190Y-72602380D01*
X147646428Y-72602380D01*
X147741666Y-72554761D01*
X147789285Y-72507142D01*
X147836904Y-72411904D01*
X147884523Y-72221428D01*
X147884523Y-71983333D01*
X147836904Y-71792857D01*
X147789285Y-71697619D01*
X147741666Y-71650000D01*
X147646428Y-71602380D01*
X157551190Y-74204761D02*
X157408333Y-74252380D01*
X157170238Y-74252380D01*
X157075000Y-74204761D01*
X157027380Y-74157142D01*
X156979761Y-74061904D01*
X156979761Y-73966666D01*
X157027380Y-73871428D01*
X157075000Y-73823809D01*
X157170238Y-73776190D01*
X157360714Y-73728571D01*
X157455952Y-73680952D01*
X157503571Y-73633333D01*
X157551190Y-73538095D01*
X157551190Y-73442857D01*
X157503571Y-73347619D01*
X157455952Y-73300000D01*
X157360714Y-73252380D01*
X157122619Y-73252380D01*
X156979761Y-73300000D01*
X156551190Y-73585714D02*
X156551190Y-74585714D01*
X156551190Y-73633333D02*
X156455952Y-73585714D01*
X156265476Y-73585714D01*
X156170238Y-73633333D01*
X156122619Y-73680952D01*
X156075000Y-73776190D01*
X156075000Y-74061904D01*
X156122619Y-74157142D01*
X156170238Y-74204761D01*
X156265476Y-74252380D01*
X156455952Y-74252380D01*
X156551190Y-74204761D01*
X155265476Y-74204761D02*
X155360714Y-74252380D01*
X155551190Y-74252380D01*
X155646428Y-74204761D01*
X155694047Y-74109523D01*
X155694047Y-73728571D01*
X155646428Y-73633333D01*
X155551190Y-73585714D01*
X155360714Y-73585714D01*
X155265476Y-73633333D01*
X155217857Y-73728571D01*
X155217857Y-73823809D01*
X155694047Y-73919047D01*
X154789285Y-73585714D02*
X154789285Y-74252380D01*
X154789285Y-73680952D02*
X154741666Y-73633333D01*
X154646428Y-73585714D01*
X154503571Y-73585714D01*
X154408333Y-73633333D01*
X154360714Y-73728571D01*
X154360714Y-74252380D01*
X153455952Y-74204761D02*
X153551190Y-74252380D01*
X153741666Y-74252380D01*
X153836904Y-74204761D01*
X153884523Y-74157142D01*
X153932142Y-74061904D01*
X153932142Y-73776190D01*
X153884523Y-73680952D01*
X153836904Y-73633333D01*
X153741666Y-73585714D01*
X153551190Y-73585714D01*
X153455952Y-73633333D01*
X152646428Y-74204761D02*
X152741666Y-74252380D01*
X152932142Y-74252380D01*
X153027380Y-74204761D01*
X153075000Y-74109523D01*
X153075000Y-73728571D01*
X153027380Y-73633333D01*
X152932142Y-73585714D01*
X152741666Y-73585714D01*
X152646428Y-73633333D01*
X152598809Y-73728571D01*
X152598809Y-73823809D01*
X153075000Y-73919047D01*
X152170238Y-74252380D02*
X152170238Y-73585714D01*
X152170238Y-73776190D02*
X152122619Y-73680952D01*
X152075000Y-73633333D01*
X151979761Y-73585714D01*
X151884523Y-73585714D01*
X150884523Y-73252380D02*
X150646428Y-74252380D01*
X150455952Y-73538095D01*
X150265476Y-74252380D01*
X150027380Y-73252380D01*
X149646428Y-74252380D02*
X149646428Y-73585714D01*
X149646428Y-73776190D02*
X149598809Y-73680952D01*
X149551190Y-73633333D01*
X149455952Y-73585714D01*
X149360714Y-73585714D01*
X149027380Y-74252380D02*
X149027380Y-73585714D01*
X149027380Y-73252380D02*
X149075000Y-73300000D01*
X149027380Y-73347619D01*
X148979761Y-73300000D01*
X149027380Y-73252380D01*
X149027380Y-73347619D01*
X148122619Y-73585714D02*
X148122619Y-74395238D01*
X148170238Y-74490476D01*
X148217857Y-74538095D01*
X148313095Y-74585714D01*
X148455952Y-74585714D01*
X148551190Y-74538095D01*
X148122619Y-74204761D02*
X148217857Y-74252380D01*
X148408333Y-74252380D01*
X148503571Y-74204761D01*
X148551190Y-74157142D01*
X148598809Y-74061904D01*
X148598809Y-73776190D01*
X148551190Y-73680952D01*
X148503571Y-73633333D01*
X148408333Y-73585714D01*
X148217857Y-73585714D01*
X148122619Y-73633333D01*
X147646428Y-74252380D02*
X147646428Y-73252380D01*
X147217857Y-74252380D02*
X147217857Y-73728571D01*
X147265476Y-73633333D01*
X147360714Y-73585714D01*
X147503571Y-73585714D01*
X147598809Y-73633333D01*
X147646428Y-73680952D01*
X146884523Y-73585714D02*
X146503571Y-73585714D01*
X146741666Y-73252380D02*
X146741666Y-74109523D01*
X146694047Y-74204761D01*
X146598809Y-74252380D01*
X146503571Y-74252380D01*
X156146428Y-75854761D02*
X156003571Y-75902380D01*
X155765476Y-75902380D01*
X155670238Y-75854761D01*
X155622619Y-75807142D01*
X155575000Y-75711904D01*
X155575000Y-75616666D01*
X155622619Y-75521428D01*
X155670238Y-75473809D01*
X155765476Y-75426190D01*
X155955952Y-75378571D01*
X156051190Y-75330952D01*
X156098809Y-75283333D01*
X156146428Y-75188095D01*
X156146428Y-75092857D01*
X156098809Y-74997619D01*
X156051190Y-74950000D01*
X155955952Y-74902380D01*
X155717857Y-74902380D01*
X155575000Y-74950000D01*
X154813095Y-75378571D02*
X154670238Y-75426190D01*
X154622619Y-75473809D01*
X154575000Y-75569047D01*
X154575000Y-75711904D01*
X154622619Y-75807142D01*
X154670238Y-75854761D01*
X154765476Y-75902380D01*
X155146428Y-75902380D01*
X155146428Y-74902380D01*
X154813095Y-74902380D01*
X154717857Y-74950000D01*
X154670238Y-74997619D01*
X154622619Y-75092857D01*
X154622619Y-75188095D01*
X154670238Y-75283333D01*
X154717857Y-75330952D01*
X154813095Y-75378571D01*
X155146428Y-75378571D01*
X154146428Y-75902380D02*
X154146428Y-74902380D01*
X153908333Y-74902380D01*
X153765476Y-74950000D01*
X153670238Y-75045238D01*
X153622619Y-75140476D01*
X153575000Y-75330952D01*
X153575000Y-75473809D01*
X153622619Y-75664285D01*
X153670238Y-75759523D01*
X153765476Y-75854761D01*
X153908333Y-75902380D01*
X154146428Y-75902380D01*
X152384523Y-75902380D02*
X152384523Y-74902380D01*
X151813095Y-75902380D01*
X151813095Y-74902380D01*
X150908333Y-75902380D02*
X150908333Y-75378571D01*
X150955952Y-75283333D01*
X151051190Y-75235714D01*
X151241666Y-75235714D01*
X151336904Y-75283333D01*
X150908333Y-75854761D02*
X151003571Y-75902380D01*
X151241666Y-75902380D01*
X151336904Y-75854761D01*
X151384523Y-75759523D01*
X151384523Y-75664285D01*
X151336904Y-75569047D01*
X151241666Y-75521428D01*
X151003571Y-75521428D01*
X150908333Y-75473809D01*
X150575000Y-75235714D02*
X150194047Y-75235714D01*
X150432142Y-74902380D02*
X150432142Y-75759523D01*
X150384523Y-75854761D01*
X150289285Y-75902380D01*
X150194047Y-75902380D01*
X149860714Y-75902380D02*
X149860714Y-75235714D01*
X149860714Y-74902380D02*
X149908333Y-74950000D01*
X149860714Y-74997619D01*
X149813095Y-74950000D01*
X149860714Y-74902380D01*
X149860714Y-74997619D01*
X149241666Y-75902380D02*
X149336904Y-75854761D01*
X149384523Y-75807142D01*
X149432142Y-75711904D01*
X149432142Y-75426190D01*
X149384523Y-75330952D01*
X149336904Y-75283333D01*
X149241666Y-75235714D01*
X149098809Y-75235714D01*
X149003571Y-75283333D01*
X148955952Y-75330952D01*
X148908333Y-75426190D01*
X148908333Y-75711904D01*
X148955952Y-75807142D01*
X149003571Y-75854761D01*
X149098809Y-75902380D01*
X149241666Y-75902380D01*
X148479761Y-75235714D02*
X148479761Y-75902380D01*
X148479761Y-75330952D02*
X148432142Y-75283333D01*
X148336904Y-75235714D01*
X148194047Y-75235714D01*
X148098809Y-75283333D01*
X148051190Y-75378571D01*
X148051190Y-75902380D01*
D11*
%TO.C,C1*%
X119753733Y-70435000D02*
X120096267Y-70435000D01*
X119753733Y-69415000D02*
X120096267Y-69415000D01*
%TO.C,C4*%
X119996267Y-56815000D02*
X119653733Y-56815000D01*
X119996267Y-57835000D02*
X119653733Y-57835000D01*
%TO.C,C6*%
X119603733Y-60165000D02*
X119946267Y-60165000D01*
X119603733Y-61185000D02*
X119946267Y-61185000D01*
%TO.C,C7*%
X119553733Y-66210000D02*
X119896267Y-66210000D01*
X119553733Y-65190000D02*
X119896267Y-65190000D01*
%TO.C,C8*%
X119896267Y-63540000D02*
X119553733Y-63540000D01*
X119896267Y-64560000D02*
X119553733Y-64560000D01*
%TO.C,C9*%
X116303733Y-74210000D02*
X116646267Y-74210000D01*
X116303733Y-73190000D02*
X116646267Y-73190000D01*
%TO.C,C10*%
X116696267Y-69135000D02*
X116353733Y-69135000D01*
X116696267Y-68115000D02*
X116353733Y-68115000D01*
%TO.C,C13*%
X119628733Y-58490000D02*
X119971267Y-58490000D01*
X119628733Y-59510000D02*
X119971267Y-59510000D01*
%TO.C,R1*%
X119578733Y-61865000D02*
X119921267Y-61865000D01*
X119578733Y-62885000D02*
X119921267Y-62885000D01*
%TO.C,R2*%
X123053733Y-64560000D02*
X123396267Y-64560000D01*
X123053733Y-63540000D02*
X123396267Y-63540000D01*
%TO.C,R3*%
X123153733Y-58490000D02*
X123496267Y-58490000D01*
X123153733Y-59510000D02*
X123496267Y-59510000D01*
%TO.C,R5*%
X123103733Y-62885000D02*
X123446267Y-62885000D01*
X123103733Y-61865000D02*
X123446267Y-61865000D01*
%TO.C,R6*%
X123153733Y-57835000D02*
X123496267Y-57835000D01*
X123153733Y-56815000D02*
X123496267Y-56815000D01*
%TO.C,R14*%
X133185000Y-59846267D02*
X133185000Y-59503733D01*
X132165000Y-59846267D02*
X132165000Y-59503733D01*
%TO.C,R17*%
X127240000Y-64003733D02*
X127240000Y-64346267D01*
X128260000Y-64003733D02*
X128260000Y-64346267D01*
%TO.C,R18*%
X130753733Y-67635000D02*
X131096267Y-67635000D01*
X130753733Y-66615000D02*
X131096267Y-66615000D01*
%TO.C,R19*%
X133360000Y-64103733D02*
X133360000Y-64446267D01*
X132340000Y-64103733D02*
X132340000Y-64446267D01*
%TO.C,R23*%
X123153733Y-65265000D02*
X123496267Y-65265000D01*
X123153733Y-66285000D02*
X123496267Y-66285000D01*
%TO.C,C3*%
X123471267Y-61185000D02*
X123128733Y-61185000D01*
X123471267Y-60165000D02*
X123128733Y-60165000D01*
%TO.C,C5*%
X144265000Y-59321267D02*
X144265000Y-58978733D01*
X145285000Y-59321267D02*
X145285000Y-58978733D01*
%TO.C,C16*%
X145335000Y-64296267D02*
X145335000Y-63953733D01*
X144315000Y-64296267D02*
X144315000Y-63953733D01*
%TO.C,R4*%
X111671267Y-74540000D02*
X111328733Y-74540000D01*
X111671267Y-75560000D02*
X111328733Y-75560000D01*
%TO.C,R20*%
X118415000Y-75521267D02*
X118415000Y-75178733D01*
X119435000Y-75521267D02*
X119435000Y-75178733D01*
%TO.C,C1*%
D10*
X120091666Y-71712142D02*
X120139285Y-71759761D01*
X120282142Y-71807380D01*
X120377380Y-71807380D01*
X120520238Y-71759761D01*
X120615476Y-71664523D01*
X120663095Y-71569285D01*
X120710714Y-71378809D01*
X120710714Y-71235952D01*
X120663095Y-71045476D01*
X120615476Y-70950238D01*
X120520238Y-70855000D01*
X120377380Y-70807380D01*
X120282142Y-70807380D01*
X120139285Y-70855000D01*
X120091666Y-70902619D01*
X119139285Y-71807380D02*
X119710714Y-71807380D01*
X119425000Y-71807380D02*
X119425000Y-70807380D01*
X119520238Y-70950238D01*
X119615476Y-71045476D01*
X119710714Y-71093095D01*
%TO.C,C4*%
X119991666Y-56252142D02*
X120039285Y-56299761D01*
X120182142Y-56347380D01*
X120277380Y-56347380D01*
X120420238Y-56299761D01*
X120515476Y-56204523D01*
X120563095Y-56109285D01*
X120610714Y-55918809D01*
X120610714Y-55775952D01*
X120563095Y-55585476D01*
X120515476Y-55490238D01*
X120420238Y-55395000D01*
X120277380Y-55347380D01*
X120182142Y-55347380D01*
X120039285Y-55395000D01*
X119991666Y-55442619D01*
X119134523Y-55680714D02*
X119134523Y-56347380D01*
X119372619Y-55299761D02*
X119610714Y-56014047D01*
X118991666Y-56014047D01*
%TO.C,C6*%
X119941666Y-62462142D02*
X119989285Y-62509761D01*
X120132142Y-62557380D01*
X120227380Y-62557380D01*
X120370238Y-62509761D01*
X120465476Y-62414523D01*
X120513095Y-62319285D01*
X120560714Y-62128809D01*
X120560714Y-61985952D01*
X120513095Y-61795476D01*
X120465476Y-61700238D01*
X120370238Y-61605000D01*
X120227380Y-61557380D01*
X120132142Y-61557380D01*
X119989285Y-61605000D01*
X119941666Y-61652619D01*
X119084523Y-61557380D02*
X119275000Y-61557380D01*
X119370238Y-61605000D01*
X119417857Y-61652619D01*
X119513095Y-61795476D01*
X119560714Y-61985952D01*
X119560714Y-62366904D01*
X119513095Y-62462142D01*
X119465476Y-62509761D01*
X119370238Y-62557380D01*
X119179761Y-62557380D01*
X119084523Y-62509761D01*
X119036904Y-62462142D01*
X118989285Y-62366904D01*
X118989285Y-62128809D01*
X119036904Y-62033571D01*
X119084523Y-61985952D01*
X119179761Y-61938333D01*
X119370238Y-61938333D01*
X119465476Y-61985952D01*
X119513095Y-62033571D01*
X119560714Y-62128809D01*
%TO.C,C7*%
X119891666Y-67487142D02*
X119939285Y-67534761D01*
X120082142Y-67582380D01*
X120177380Y-67582380D01*
X120320238Y-67534761D01*
X120415476Y-67439523D01*
X120463095Y-67344285D01*
X120510714Y-67153809D01*
X120510714Y-67010952D01*
X120463095Y-66820476D01*
X120415476Y-66725238D01*
X120320238Y-66630000D01*
X120177380Y-66582380D01*
X120082142Y-66582380D01*
X119939285Y-66630000D01*
X119891666Y-66677619D01*
X119558333Y-66582380D02*
X118891666Y-66582380D01*
X119320238Y-67582380D01*
%TO.C,C8*%
X119891666Y-62977142D02*
X119939285Y-63024761D01*
X120082142Y-63072380D01*
X120177380Y-63072380D01*
X120320238Y-63024761D01*
X120415476Y-62929523D01*
X120463095Y-62834285D01*
X120510714Y-62643809D01*
X120510714Y-62500952D01*
X120463095Y-62310476D01*
X120415476Y-62215238D01*
X120320238Y-62120000D01*
X120177380Y-62072380D01*
X120082142Y-62072380D01*
X119939285Y-62120000D01*
X119891666Y-62167619D01*
X119320238Y-62500952D02*
X119415476Y-62453333D01*
X119463095Y-62405714D01*
X119510714Y-62310476D01*
X119510714Y-62262857D01*
X119463095Y-62167619D01*
X119415476Y-62120000D01*
X119320238Y-62072380D01*
X119129761Y-62072380D01*
X119034523Y-62120000D01*
X118986904Y-62167619D01*
X118939285Y-62262857D01*
X118939285Y-62310476D01*
X118986904Y-62405714D01*
X119034523Y-62453333D01*
X119129761Y-62500952D01*
X119320238Y-62500952D01*
X119415476Y-62548571D01*
X119463095Y-62596190D01*
X119510714Y-62691428D01*
X119510714Y-62881904D01*
X119463095Y-62977142D01*
X119415476Y-63024761D01*
X119320238Y-63072380D01*
X119129761Y-63072380D01*
X119034523Y-63024761D01*
X118986904Y-62977142D01*
X118939285Y-62881904D01*
X118939285Y-62691428D01*
X118986904Y-62596190D01*
X119034523Y-62548571D01*
X119129761Y-62500952D01*
%TO.C,C9*%
X116641666Y-75487142D02*
X116689285Y-75534761D01*
X116832142Y-75582380D01*
X116927380Y-75582380D01*
X117070238Y-75534761D01*
X117165476Y-75439523D01*
X117213095Y-75344285D01*
X117260714Y-75153809D01*
X117260714Y-75010952D01*
X117213095Y-74820476D01*
X117165476Y-74725238D01*
X117070238Y-74630000D01*
X116927380Y-74582380D01*
X116832142Y-74582380D01*
X116689285Y-74630000D01*
X116641666Y-74677619D01*
X116165476Y-75582380D02*
X115975000Y-75582380D01*
X115879761Y-75534761D01*
X115832142Y-75487142D01*
X115736904Y-75344285D01*
X115689285Y-75153809D01*
X115689285Y-74772857D01*
X115736904Y-74677619D01*
X115784523Y-74630000D01*
X115879761Y-74582380D01*
X116070238Y-74582380D01*
X116165476Y-74630000D01*
X116213095Y-74677619D01*
X116260714Y-74772857D01*
X116260714Y-75010952D01*
X116213095Y-75106190D01*
X116165476Y-75153809D01*
X116070238Y-75201428D01*
X115879761Y-75201428D01*
X115784523Y-75153809D01*
X115736904Y-75106190D01*
X115689285Y-75010952D01*
%TO.C,C10*%
X117167857Y-67552142D02*
X117215476Y-67599761D01*
X117358333Y-67647380D01*
X117453571Y-67647380D01*
X117596428Y-67599761D01*
X117691666Y-67504523D01*
X117739285Y-67409285D01*
X117786904Y-67218809D01*
X117786904Y-67075952D01*
X117739285Y-66885476D01*
X117691666Y-66790238D01*
X117596428Y-66695000D01*
X117453571Y-66647380D01*
X117358333Y-66647380D01*
X117215476Y-66695000D01*
X117167857Y-66742619D01*
X116215476Y-67647380D02*
X116786904Y-67647380D01*
X116501190Y-67647380D02*
X116501190Y-66647380D01*
X116596428Y-66790238D01*
X116691666Y-66885476D01*
X116786904Y-66933095D01*
X115596428Y-66647380D02*
X115501190Y-66647380D01*
X115405952Y-66695000D01*
X115358333Y-66742619D01*
X115310714Y-66837857D01*
X115263095Y-67028333D01*
X115263095Y-67266428D01*
X115310714Y-67456904D01*
X115358333Y-67552142D01*
X115405952Y-67599761D01*
X115501190Y-67647380D01*
X115596428Y-67647380D01*
X115691666Y-67599761D01*
X115739285Y-67552142D01*
X115786904Y-67456904D01*
X115834523Y-67266428D01*
X115834523Y-67028333D01*
X115786904Y-66837857D01*
X115739285Y-66742619D01*
X115691666Y-66695000D01*
X115596428Y-66647380D01*
%TO.C,C13*%
X120442857Y-60787142D02*
X120490476Y-60834761D01*
X120633333Y-60882380D01*
X120728571Y-60882380D01*
X120871428Y-60834761D01*
X120966666Y-60739523D01*
X121014285Y-60644285D01*
X121061904Y-60453809D01*
X121061904Y-60310952D01*
X121014285Y-60120476D01*
X120966666Y-60025238D01*
X120871428Y-59930000D01*
X120728571Y-59882380D01*
X120633333Y-59882380D01*
X120490476Y-59930000D01*
X120442857Y-59977619D01*
X119490476Y-60882380D02*
X120061904Y-60882380D01*
X119776190Y-60882380D02*
X119776190Y-59882380D01*
X119871428Y-60025238D01*
X119966666Y-60120476D01*
X120061904Y-60168095D01*
X119157142Y-59882380D02*
X118538095Y-59882380D01*
X118871428Y-60263333D01*
X118728571Y-60263333D01*
X118633333Y-60310952D01*
X118585714Y-60358571D01*
X118538095Y-60453809D01*
X118538095Y-60691904D01*
X118585714Y-60787142D01*
X118633333Y-60834761D01*
X118728571Y-60882380D01*
X119014285Y-60882380D01*
X119109523Y-60834761D01*
X119157142Y-60787142D01*
%TO.C,R1*%
X119916666Y-64257380D02*
X120250000Y-63781190D01*
X120488095Y-64257380D02*
X120488095Y-63257380D01*
X120107142Y-63257380D01*
X120011904Y-63305000D01*
X119964285Y-63352619D01*
X119916666Y-63447857D01*
X119916666Y-63590714D01*
X119964285Y-63685952D01*
X120011904Y-63733571D01*
X120107142Y-63781190D01*
X120488095Y-63781190D01*
X118964285Y-64257380D02*
X119535714Y-64257380D01*
X119250000Y-64257380D02*
X119250000Y-63257380D01*
X119345238Y-63400238D01*
X119440476Y-63495476D01*
X119535714Y-63543095D01*
%TO.C,R2*%
X123391666Y-65932380D02*
X123725000Y-65456190D01*
X123963095Y-65932380D02*
X123963095Y-64932380D01*
X123582142Y-64932380D01*
X123486904Y-64980000D01*
X123439285Y-65027619D01*
X123391666Y-65122857D01*
X123391666Y-65265714D01*
X123439285Y-65360952D01*
X123486904Y-65408571D01*
X123582142Y-65456190D01*
X123963095Y-65456190D01*
X123010714Y-65027619D02*
X122963095Y-64980000D01*
X122867857Y-64932380D01*
X122629761Y-64932380D01*
X122534523Y-64980000D01*
X122486904Y-65027619D01*
X122439285Y-65122857D01*
X122439285Y-65218095D01*
X122486904Y-65360952D01*
X123058333Y-65932380D01*
X122439285Y-65932380D01*
%TO.C,R3*%
X123491666Y-60882380D02*
X123825000Y-60406190D01*
X124063095Y-60882380D02*
X124063095Y-59882380D01*
X123682142Y-59882380D01*
X123586904Y-59930000D01*
X123539285Y-59977619D01*
X123491666Y-60072857D01*
X123491666Y-60215714D01*
X123539285Y-60310952D01*
X123586904Y-60358571D01*
X123682142Y-60406190D01*
X124063095Y-60406190D01*
X123158333Y-59882380D02*
X122539285Y-59882380D01*
X122872619Y-60263333D01*
X122729761Y-60263333D01*
X122634523Y-60310952D01*
X122586904Y-60358571D01*
X122539285Y-60453809D01*
X122539285Y-60691904D01*
X122586904Y-60787142D01*
X122634523Y-60834761D01*
X122729761Y-60882380D01*
X123015476Y-60882380D01*
X123110714Y-60834761D01*
X123158333Y-60787142D01*
%TO.C,R5*%
X123441666Y-64257380D02*
X123775000Y-63781190D01*
X124013095Y-64257380D02*
X124013095Y-63257380D01*
X123632142Y-63257380D01*
X123536904Y-63305000D01*
X123489285Y-63352619D01*
X123441666Y-63447857D01*
X123441666Y-63590714D01*
X123489285Y-63685952D01*
X123536904Y-63733571D01*
X123632142Y-63781190D01*
X124013095Y-63781190D01*
X122536904Y-63257380D02*
X123013095Y-63257380D01*
X123060714Y-63733571D01*
X123013095Y-63685952D01*
X122917857Y-63638333D01*
X122679761Y-63638333D01*
X122584523Y-63685952D01*
X122536904Y-63733571D01*
X122489285Y-63828809D01*
X122489285Y-64066904D01*
X122536904Y-64162142D01*
X122584523Y-64209761D01*
X122679761Y-64257380D01*
X122917857Y-64257380D01*
X123013095Y-64209761D01*
X123060714Y-64162142D01*
%TO.C,R6*%
X123491666Y-59207380D02*
X123825000Y-58731190D01*
X124063095Y-59207380D02*
X124063095Y-58207380D01*
X123682142Y-58207380D01*
X123586904Y-58255000D01*
X123539285Y-58302619D01*
X123491666Y-58397857D01*
X123491666Y-58540714D01*
X123539285Y-58635952D01*
X123586904Y-58683571D01*
X123682142Y-58731190D01*
X124063095Y-58731190D01*
X122634523Y-58207380D02*
X122825000Y-58207380D01*
X122920238Y-58255000D01*
X122967857Y-58302619D01*
X123063095Y-58445476D01*
X123110714Y-58635952D01*
X123110714Y-59016904D01*
X123063095Y-59112142D01*
X123015476Y-59159761D01*
X122920238Y-59207380D01*
X122729761Y-59207380D01*
X122634523Y-59159761D01*
X122586904Y-59112142D01*
X122539285Y-59016904D01*
X122539285Y-58778809D01*
X122586904Y-58683571D01*
X122634523Y-58635952D01*
X122729761Y-58588333D01*
X122920238Y-58588333D01*
X123015476Y-58635952D01*
X123063095Y-58683571D01*
X123110714Y-58778809D01*
%TO.C,R14*%
X134557380Y-59032142D02*
X134081190Y-58698809D01*
X134557380Y-58460714D02*
X133557380Y-58460714D01*
X133557380Y-58841666D01*
X133605000Y-58936904D01*
X133652619Y-58984523D01*
X133747857Y-59032142D01*
X133890714Y-59032142D01*
X133985952Y-58984523D01*
X134033571Y-58936904D01*
X134081190Y-58841666D01*
X134081190Y-58460714D01*
X134557380Y-59984523D02*
X134557380Y-59413095D01*
X134557380Y-59698809D02*
X133557380Y-59698809D01*
X133700238Y-59603571D01*
X133795476Y-59508333D01*
X133843095Y-59413095D01*
X133890714Y-60841666D02*
X134557380Y-60841666D01*
X133509761Y-60603571D02*
X134224047Y-60365476D01*
X134224047Y-60984523D01*
%TO.C,R17*%
X126772380Y-63532142D02*
X126296190Y-63198809D01*
X126772380Y-62960714D02*
X125772380Y-62960714D01*
X125772380Y-63341666D01*
X125820000Y-63436904D01*
X125867619Y-63484523D01*
X125962857Y-63532142D01*
X126105714Y-63532142D01*
X126200952Y-63484523D01*
X126248571Y-63436904D01*
X126296190Y-63341666D01*
X126296190Y-62960714D01*
X126772380Y-64484523D02*
X126772380Y-63913095D01*
X126772380Y-64198809D02*
X125772380Y-64198809D01*
X125915238Y-64103571D01*
X126010476Y-64008333D01*
X126058095Y-63913095D01*
X125772380Y-64817857D02*
X125772380Y-65484523D01*
X126772380Y-65055952D01*
%TO.C,R18*%
X131567857Y-69007380D02*
X131901190Y-68531190D01*
X132139285Y-69007380D02*
X132139285Y-68007380D01*
X131758333Y-68007380D01*
X131663095Y-68055000D01*
X131615476Y-68102619D01*
X131567857Y-68197857D01*
X131567857Y-68340714D01*
X131615476Y-68435952D01*
X131663095Y-68483571D01*
X131758333Y-68531190D01*
X132139285Y-68531190D01*
X130615476Y-69007380D02*
X131186904Y-69007380D01*
X130901190Y-69007380D02*
X130901190Y-68007380D01*
X130996428Y-68150238D01*
X131091666Y-68245476D01*
X131186904Y-68293095D01*
X130044047Y-68435952D02*
X130139285Y-68388333D01*
X130186904Y-68340714D01*
X130234523Y-68245476D01*
X130234523Y-68197857D01*
X130186904Y-68102619D01*
X130139285Y-68055000D01*
X130044047Y-68007380D01*
X129853571Y-68007380D01*
X129758333Y-68055000D01*
X129710714Y-68102619D01*
X129663095Y-68197857D01*
X129663095Y-68245476D01*
X129710714Y-68340714D01*
X129758333Y-68388333D01*
X129853571Y-68435952D01*
X130044047Y-68435952D01*
X130139285Y-68483571D01*
X130186904Y-68531190D01*
X130234523Y-68626428D01*
X130234523Y-68816904D01*
X130186904Y-68912142D01*
X130139285Y-68959761D01*
X130044047Y-69007380D01*
X129853571Y-69007380D01*
X129758333Y-68959761D01*
X129710714Y-68912142D01*
X129663095Y-68816904D01*
X129663095Y-68626428D01*
X129710714Y-68531190D01*
X129758333Y-68483571D01*
X129853571Y-68435952D01*
%TO.C,R19*%
X131872380Y-63632142D02*
X131396190Y-63298809D01*
X131872380Y-63060714D02*
X130872380Y-63060714D01*
X130872380Y-63441666D01*
X130920000Y-63536904D01*
X130967619Y-63584523D01*
X131062857Y-63632142D01*
X131205714Y-63632142D01*
X131300952Y-63584523D01*
X131348571Y-63536904D01*
X131396190Y-63441666D01*
X131396190Y-63060714D01*
X131872380Y-64584523D02*
X131872380Y-64013095D01*
X131872380Y-64298809D02*
X130872380Y-64298809D01*
X131015238Y-64203571D01*
X131110476Y-64108333D01*
X131158095Y-64013095D01*
X131872380Y-65060714D02*
X131872380Y-65251190D01*
X131824761Y-65346428D01*
X131777142Y-65394047D01*
X131634285Y-65489285D01*
X131443809Y-65536904D01*
X131062857Y-65536904D01*
X130967619Y-65489285D01*
X130920000Y-65441666D01*
X130872380Y-65346428D01*
X130872380Y-65155952D01*
X130920000Y-65060714D01*
X130967619Y-65013095D01*
X131062857Y-64965476D01*
X131300952Y-64965476D01*
X131396190Y-65013095D01*
X131443809Y-65060714D01*
X131491428Y-65155952D01*
X131491428Y-65346428D01*
X131443809Y-65441666D01*
X131396190Y-65489285D01*
X131300952Y-65536904D01*
%TO.C,R23*%
X123967857Y-67657380D02*
X124301190Y-67181190D01*
X124539285Y-67657380D02*
X124539285Y-66657380D01*
X124158333Y-66657380D01*
X124063095Y-66705000D01*
X124015476Y-66752619D01*
X123967857Y-66847857D01*
X123967857Y-66990714D01*
X124015476Y-67085952D01*
X124063095Y-67133571D01*
X124158333Y-67181190D01*
X124539285Y-67181190D01*
X123586904Y-66752619D02*
X123539285Y-66705000D01*
X123444047Y-66657380D01*
X123205952Y-66657380D01*
X123110714Y-66705000D01*
X123063095Y-66752619D01*
X123015476Y-66847857D01*
X123015476Y-66943095D01*
X123063095Y-67085952D01*
X123634523Y-67657380D01*
X123015476Y-67657380D01*
X122682142Y-66657380D02*
X122063095Y-66657380D01*
X122396428Y-67038333D01*
X122253571Y-67038333D01*
X122158333Y-67085952D01*
X122110714Y-67133571D01*
X122063095Y-67228809D01*
X122063095Y-67466904D01*
X122110714Y-67562142D01*
X122158333Y-67609761D01*
X122253571Y-67657380D01*
X122539285Y-67657380D01*
X122634523Y-67609761D01*
X122682142Y-67562142D01*
%TO.C,C3*%
X123466666Y-59602142D02*
X123514285Y-59649761D01*
X123657142Y-59697380D01*
X123752380Y-59697380D01*
X123895238Y-59649761D01*
X123990476Y-59554523D01*
X124038095Y-59459285D01*
X124085714Y-59268809D01*
X124085714Y-59125952D01*
X124038095Y-58935476D01*
X123990476Y-58840238D01*
X123895238Y-58745000D01*
X123752380Y-58697380D01*
X123657142Y-58697380D01*
X123514285Y-58745000D01*
X123466666Y-58792619D01*
X123133333Y-58697380D02*
X122514285Y-58697380D01*
X122847619Y-59078333D01*
X122704761Y-59078333D01*
X122609523Y-59125952D01*
X122561904Y-59173571D01*
X122514285Y-59268809D01*
X122514285Y-59506904D01*
X122561904Y-59602142D01*
X122609523Y-59649761D01*
X122704761Y-59697380D01*
X122990476Y-59697380D01*
X123085714Y-59649761D01*
X123133333Y-59602142D01*
%TO.C,C5*%
X146562142Y-58983333D02*
X146609761Y-58935714D01*
X146657380Y-58792857D01*
X146657380Y-58697619D01*
X146609761Y-58554761D01*
X146514523Y-58459523D01*
X146419285Y-58411904D01*
X146228809Y-58364285D01*
X146085952Y-58364285D01*
X145895476Y-58411904D01*
X145800238Y-58459523D01*
X145705000Y-58554761D01*
X145657380Y-58697619D01*
X145657380Y-58792857D01*
X145705000Y-58935714D01*
X145752619Y-58983333D01*
X145657380Y-59888095D02*
X145657380Y-59411904D01*
X146133571Y-59364285D01*
X146085952Y-59411904D01*
X146038333Y-59507142D01*
X146038333Y-59745238D01*
X146085952Y-59840476D01*
X146133571Y-59888095D01*
X146228809Y-59935714D01*
X146466904Y-59935714D01*
X146562142Y-59888095D01*
X146609761Y-59840476D01*
X146657380Y-59745238D01*
X146657380Y-59507142D01*
X146609761Y-59411904D01*
X146562142Y-59364285D01*
%TO.C,C16*%
X146612142Y-63482142D02*
X146659761Y-63434523D01*
X146707380Y-63291666D01*
X146707380Y-63196428D01*
X146659761Y-63053571D01*
X146564523Y-62958333D01*
X146469285Y-62910714D01*
X146278809Y-62863095D01*
X146135952Y-62863095D01*
X145945476Y-62910714D01*
X145850238Y-62958333D01*
X145755000Y-63053571D01*
X145707380Y-63196428D01*
X145707380Y-63291666D01*
X145755000Y-63434523D01*
X145802619Y-63482142D01*
X146707380Y-64434523D02*
X146707380Y-63863095D01*
X146707380Y-64148809D02*
X145707380Y-64148809D01*
X145850238Y-64053571D01*
X145945476Y-63958333D01*
X145993095Y-63863095D01*
X145707380Y-65291666D02*
X145707380Y-65101190D01*
X145755000Y-65005952D01*
X145802619Y-64958333D01*
X145945476Y-64863095D01*
X146135952Y-64815476D01*
X146516904Y-64815476D01*
X146612142Y-64863095D01*
X146659761Y-64910714D01*
X146707380Y-65005952D01*
X146707380Y-65196428D01*
X146659761Y-65291666D01*
X146612142Y-65339285D01*
X146516904Y-65386904D01*
X146278809Y-65386904D01*
X146183571Y-65339285D01*
X146135952Y-65291666D01*
X146088333Y-65196428D01*
X146088333Y-65005952D01*
X146135952Y-64910714D01*
X146183571Y-64863095D01*
X146278809Y-64815476D01*
%TO.C,R4*%
X111666666Y-74072380D02*
X112000000Y-73596190D01*
X112238095Y-74072380D02*
X112238095Y-73072380D01*
X111857142Y-73072380D01*
X111761904Y-73120000D01*
X111714285Y-73167619D01*
X111666666Y-73262857D01*
X111666666Y-73405714D01*
X111714285Y-73500952D01*
X111761904Y-73548571D01*
X111857142Y-73596190D01*
X112238095Y-73596190D01*
X110809523Y-73405714D02*
X110809523Y-74072380D01*
X111047619Y-73024761D02*
X111285714Y-73739047D01*
X110666666Y-73739047D01*
%TO.C,R20*%
X120807380Y-74707142D02*
X120331190Y-74373809D01*
X120807380Y-74135714D02*
X119807380Y-74135714D01*
X119807380Y-74516666D01*
X119855000Y-74611904D01*
X119902619Y-74659523D01*
X119997857Y-74707142D01*
X120140714Y-74707142D01*
X120235952Y-74659523D01*
X120283571Y-74611904D01*
X120331190Y-74516666D01*
X120331190Y-74135714D01*
X119902619Y-75088095D02*
X119855000Y-75135714D01*
X119807380Y-75230952D01*
X119807380Y-75469047D01*
X119855000Y-75564285D01*
X119902619Y-75611904D01*
X119997857Y-75659523D01*
X120093095Y-75659523D01*
X120235952Y-75611904D01*
X120807380Y-75040476D01*
X120807380Y-75659523D01*
X119807380Y-76278571D02*
X119807380Y-76373809D01*
X119855000Y-76469047D01*
X119902619Y-76516666D01*
X119997857Y-76564285D01*
X120188333Y-76611904D01*
X120426428Y-76611904D01*
X120616904Y-76564285D01*
X120712142Y-76516666D01*
X120759761Y-76469047D01*
X120807380Y-76373809D01*
X120807380Y-76278571D01*
X120759761Y-76183333D01*
X120712142Y-76135714D01*
X120616904Y-76088095D01*
X120426428Y-76040476D01*
X120188333Y-76040476D01*
X119997857Y-76088095D01*
X119902619Y-76135714D01*
X119855000Y-76183333D01*
X119807380Y-76278571D01*
%TD*%
M02*
