G04 #@! TF.GenerationSoftware,KiCad,Pcbnew,(5.1.6-0-10_14)*
G04 #@! TF.CreationDate,2022-01-06T22:32:46-06:00*
G04 #@! TF.ProjectId,opto_isolator,6f70746f-5f69-4736-9f6c-61746f722e6b,rev?*
G04 #@! TF.SameCoordinates,Original*
G04 #@! TF.FileFunction,Legend,Top*
G04 #@! TF.FilePolarity,Positive*
%FSLAX46Y46*%
G04 Gerber Fmt 4.6, Leading zero omitted, Abs format (unit mm)*
G04 Created by KiCad (PCBNEW (5.1.6-0-10_14)) date 2022-01-06 22:32:46*
%MOMM*%
%LPD*%
G01*
G04 APERTURE LIST*
%ADD10C,0.150000*%
%ADD11C,0.120000*%
%ADD12C,0.100000*%
%ADD13R,1.800000X1.800000*%
%ADD14O,1.800000X1.800000*%
%ADD15R,2.500000X1.700000*%
%ADD16O,2.500000X1.700000*%
%ADD17C,2.700000*%
%ADD18C,3.100000*%
G04 APERTURE END LIST*
D10*
X150106571Y-81938761D02*
X150249428Y-81986380D01*
X150487523Y-81986380D01*
X150582761Y-81938761D01*
X150630380Y-81891142D01*
X150678000Y-81795904D01*
X150678000Y-81700666D01*
X150630380Y-81605428D01*
X150582761Y-81557809D01*
X150487523Y-81510190D01*
X150297047Y-81462571D01*
X150201809Y-81414952D01*
X150154190Y-81367333D01*
X150106571Y-81272095D01*
X150106571Y-81176857D01*
X150154190Y-81081619D01*
X150201809Y-81034000D01*
X150297047Y-80986380D01*
X150535142Y-80986380D01*
X150678000Y-81034000D01*
X151439904Y-81462571D02*
X151582761Y-81510190D01*
X151630380Y-81557809D01*
X151678000Y-81653047D01*
X151678000Y-81795904D01*
X151630380Y-81891142D01*
X151582761Y-81938761D01*
X151487523Y-81986380D01*
X151106571Y-81986380D01*
X151106571Y-80986380D01*
X151439904Y-80986380D01*
X151535142Y-81034000D01*
X151582761Y-81081619D01*
X151630380Y-81176857D01*
X151630380Y-81272095D01*
X151582761Y-81367333D01*
X151535142Y-81414952D01*
X151439904Y-81462571D01*
X151106571Y-81462571D01*
X152106571Y-81986380D02*
X152106571Y-80986380D01*
X152344666Y-80986380D01*
X152487523Y-81034000D01*
X152582761Y-81129238D01*
X152630380Y-81224476D01*
X152678000Y-81414952D01*
X152678000Y-81557809D01*
X152630380Y-81748285D01*
X152582761Y-81843523D01*
X152487523Y-81938761D01*
X152344666Y-81986380D01*
X152106571Y-81986380D01*
X153868476Y-81986380D02*
X153868476Y-80986380D01*
X154439904Y-81986380D01*
X154439904Y-80986380D01*
X155344666Y-81986380D02*
X155344666Y-81462571D01*
X155297047Y-81367333D01*
X155201809Y-81319714D01*
X155011333Y-81319714D01*
X154916095Y-81367333D01*
X155344666Y-81938761D02*
X155249428Y-81986380D01*
X155011333Y-81986380D01*
X154916095Y-81938761D01*
X154868476Y-81843523D01*
X154868476Y-81748285D01*
X154916095Y-81653047D01*
X155011333Y-81605428D01*
X155249428Y-81605428D01*
X155344666Y-81557809D01*
X155678000Y-81319714D02*
X156058952Y-81319714D01*
X155820857Y-80986380D02*
X155820857Y-81843523D01*
X155868476Y-81938761D01*
X155963714Y-81986380D01*
X156058952Y-81986380D01*
X156392285Y-81986380D02*
X156392285Y-81319714D01*
X156392285Y-80986380D02*
X156344666Y-81034000D01*
X156392285Y-81081619D01*
X156439904Y-81034000D01*
X156392285Y-80986380D01*
X156392285Y-81081619D01*
X157011333Y-81986380D02*
X156916095Y-81938761D01*
X156868476Y-81891142D01*
X156820857Y-81795904D01*
X156820857Y-81510190D01*
X156868476Y-81414952D01*
X156916095Y-81367333D01*
X157011333Y-81319714D01*
X157154190Y-81319714D01*
X157249428Y-81367333D01*
X157297047Y-81414952D01*
X157344666Y-81510190D01*
X157344666Y-81795904D01*
X157297047Y-81891142D01*
X157249428Y-81938761D01*
X157154190Y-81986380D01*
X157011333Y-81986380D01*
X157773238Y-81319714D02*
X157773238Y-81986380D01*
X157773238Y-81414952D02*
X157820857Y-81367333D01*
X157916095Y-81319714D01*
X158058952Y-81319714D01*
X158154190Y-81367333D01*
X158201809Y-81462571D01*
X158201809Y-81986380D01*
X121674761Y-109308380D02*
X121865238Y-109308380D01*
X121960476Y-109356000D01*
X122055714Y-109451238D01*
X122103333Y-109641714D01*
X122103333Y-109975047D01*
X122055714Y-110165523D01*
X121960476Y-110260761D01*
X121865238Y-110308380D01*
X121674761Y-110308380D01*
X121579523Y-110260761D01*
X121484285Y-110165523D01*
X121436666Y-109975047D01*
X121436666Y-109641714D01*
X121484285Y-109451238D01*
X121579523Y-109356000D01*
X121674761Y-109308380D01*
X122531904Y-109641714D02*
X122531904Y-110641714D01*
X122531904Y-109689333D02*
X122627142Y-109641714D01*
X122817619Y-109641714D01*
X122912857Y-109689333D01*
X122960476Y-109736952D01*
X123008095Y-109832190D01*
X123008095Y-110117904D01*
X122960476Y-110213142D01*
X122912857Y-110260761D01*
X122817619Y-110308380D01*
X122627142Y-110308380D01*
X122531904Y-110260761D01*
X123293809Y-109641714D02*
X123674761Y-109641714D01*
X123436666Y-109308380D02*
X123436666Y-110165523D01*
X123484285Y-110260761D01*
X123579523Y-110308380D01*
X123674761Y-110308380D01*
X124150952Y-110308380D02*
X124055714Y-110260761D01*
X124008095Y-110213142D01*
X123960476Y-110117904D01*
X123960476Y-109832190D01*
X124008095Y-109736952D01*
X124055714Y-109689333D01*
X124150952Y-109641714D01*
X124293809Y-109641714D01*
X124389047Y-109689333D01*
X124436666Y-109736952D01*
X124484285Y-109832190D01*
X124484285Y-110117904D01*
X124436666Y-110213142D01*
X124389047Y-110260761D01*
X124293809Y-110308380D01*
X124150952Y-110308380D01*
X125341428Y-110260761D02*
X125246190Y-110308380D01*
X125055714Y-110308380D01*
X124960476Y-110260761D01*
X124912857Y-110213142D01*
X124865238Y-110117904D01*
X124865238Y-109832190D01*
X124912857Y-109736952D01*
X124960476Y-109689333D01*
X125055714Y-109641714D01*
X125246190Y-109641714D01*
X125341428Y-109689333D01*
X125912857Y-110308380D02*
X125817619Y-110260761D01*
X125770000Y-110213142D01*
X125722380Y-110117904D01*
X125722380Y-109832190D01*
X125770000Y-109736952D01*
X125817619Y-109689333D01*
X125912857Y-109641714D01*
X126055714Y-109641714D01*
X126150952Y-109689333D01*
X126198571Y-109736952D01*
X126246190Y-109832190D01*
X126246190Y-110117904D01*
X126198571Y-110213142D01*
X126150952Y-110260761D01*
X126055714Y-110308380D01*
X125912857Y-110308380D01*
X127103333Y-109641714D02*
X127103333Y-110308380D01*
X126674761Y-109641714D02*
X126674761Y-110165523D01*
X126722380Y-110260761D01*
X126817619Y-110308380D01*
X126960476Y-110308380D01*
X127055714Y-110260761D01*
X127103333Y-110213142D01*
X127579523Y-109641714D02*
X127579523Y-110641714D01*
X127579523Y-109689333D02*
X127674761Y-109641714D01*
X127865238Y-109641714D01*
X127960476Y-109689333D01*
X128008095Y-109736952D01*
X128055714Y-109832190D01*
X128055714Y-110117904D01*
X128008095Y-110213142D01*
X127960476Y-110260761D01*
X127865238Y-110308380D01*
X127674761Y-110308380D01*
X127579523Y-110260761D01*
X128627142Y-110308380D02*
X128531904Y-110260761D01*
X128484285Y-110165523D01*
X128484285Y-109308380D01*
X129389047Y-110260761D02*
X129293809Y-110308380D01*
X129103333Y-110308380D01*
X129008095Y-110260761D01*
X128960476Y-110165523D01*
X128960476Y-109784571D01*
X129008095Y-109689333D01*
X129103333Y-109641714D01*
X129293809Y-109641714D01*
X129389047Y-109689333D01*
X129436666Y-109784571D01*
X129436666Y-109879809D01*
X128960476Y-109975047D01*
X129865238Y-110308380D02*
X129865238Y-109641714D01*
X129865238Y-109832190D02*
X129912857Y-109736952D01*
X129960476Y-109689333D01*
X130055714Y-109641714D01*
X130150952Y-109641714D01*
X131246190Y-110308380D02*
X131246190Y-109308380D01*
X131579523Y-110022666D01*
X131912857Y-109308380D01*
X131912857Y-110308380D01*
X132817619Y-110308380D02*
X132817619Y-109784571D01*
X132770000Y-109689333D01*
X132674761Y-109641714D01*
X132484285Y-109641714D01*
X132389047Y-109689333D01*
X132817619Y-110260761D02*
X132722380Y-110308380D01*
X132484285Y-110308380D01*
X132389047Y-110260761D01*
X132341428Y-110165523D01*
X132341428Y-110070285D01*
X132389047Y-109975047D01*
X132484285Y-109927428D01*
X132722380Y-109927428D01*
X132817619Y-109879809D01*
X133722380Y-109641714D02*
X133722380Y-110451238D01*
X133674761Y-110546476D01*
X133627142Y-110594095D01*
X133531904Y-110641714D01*
X133389047Y-110641714D01*
X133293809Y-110594095D01*
X133722380Y-110260761D02*
X133627142Y-110308380D01*
X133436666Y-110308380D01*
X133341428Y-110260761D01*
X133293809Y-110213142D01*
X133246190Y-110117904D01*
X133246190Y-109832190D01*
X133293809Y-109736952D01*
X133341428Y-109689333D01*
X133436666Y-109641714D01*
X133627142Y-109641714D01*
X133722380Y-109689333D01*
X134198571Y-110308380D02*
X134198571Y-109641714D01*
X134198571Y-109308380D02*
X134150952Y-109356000D01*
X134198571Y-109403619D01*
X134246190Y-109356000D01*
X134198571Y-109308380D01*
X134198571Y-109403619D01*
X135103333Y-110260761D02*
X135008095Y-110308380D01*
X134817619Y-110308380D01*
X134722380Y-110260761D01*
X134674761Y-110213142D01*
X134627142Y-110117904D01*
X134627142Y-109832190D01*
X134674761Y-109736952D01*
X134722380Y-109689333D01*
X134817619Y-109641714D01*
X135008095Y-109641714D01*
X135103333Y-109689333D01*
X122793809Y-111910761D02*
X122936666Y-111958380D01*
X123174761Y-111958380D01*
X123270000Y-111910761D01*
X123317619Y-111863142D01*
X123365238Y-111767904D01*
X123365238Y-111672666D01*
X123317619Y-111577428D01*
X123270000Y-111529809D01*
X123174761Y-111482190D01*
X122984285Y-111434571D01*
X122889047Y-111386952D01*
X122841428Y-111339333D01*
X122793809Y-111244095D01*
X122793809Y-111148857D01*
X122841428Y-111053619D01*
X122889047Y-111006000D01*
X122984285Y-110958380D01*
X123222380Y-110958380D01*
X123365238Y-111006000D01*
X123793809Y-111291714D02*
X123793809Y-112291714D01*
X123793809Y-111339333D02*
X123889047Y-111291714D01*
X124079523Y-111291714D01*
X124174761Y-111339333D01*
X124222380Y-111386952D01*
X124270000Y-111482190D01*
X124270000Y-111767904D01*
X124222380Y-111863142D01*
X124174761Y-111910761D01*
X124079523Y-111958380D01*
X123889047Y-111958380D01*
X123793809Y-111910761D01*
X125079523Y-111910761D02*
X124984285Y-111958380D01*
X124793809Y-111958380D01*
X124698571Y-111910761D01*
X124650952Y-111815523D01*
X124650952Y-111434571D01*
X124698571Y-111339333D01*
X124793809Y-111291714D01*
X124984285Y-111291714D01*
X125079523Y-111339333D01*
X125127142Y-111434571D01*
X125127142Y-111529809D01*
X124650952Y-111625047D01*
X125555714Y-111291714D02*
X125555714Y-111958380D01*
X125555714Y-111386952D02*
X125603333Y-111339333D01*
X125698571Y-111291714D01*
X125841428Y-111291714D01*
X125936666Y-111339333D01*
X125984285Y-111434571D01*
X125984285Y-111958380D01*
X126889047Y-111910761D02*
X126793809Y-111958380D01*
X126603333Y-111958380D01*
X126508095Y-111910761D01*
X126460476Y-111863142D01*
X126412857Y-111767904D01*
X126412857Y-111482190D01*
X126460476Y-111386952D01*
X126508095Y-111339333D01*
X126603333Y-111291714D01*
X126793809Y-111291714D01*
X126889047Y-111339333D01*
X127698571Y-111910761D02*
X127603333Y-111958380D01*
X127412857Y-111958380D01*
X127317619Y-111910761D01*
X127270000Y-111815523D01*
X127270000Y-111434571D01*
X127317619Y-111339333D01*
X127412857Y-111291714D01*
X127603333Y-111291714D01*
X127698571Y-111339333D01*
X127746190Y-111434571D01*
X127746190Y-111529809D01*
X127270000Y-111625047D01*
X128174761Y-111958380D02*
X128174761Y-111291714D01*
X128174761Y-111482190D02*
X128222380Y-111386952D01*
X128270000Y-111339333D01*
X128365238Y-111291714D01*
X128460476Y-111291714D01*
X129460476Y-110958380D02*
X129698571Y-111958380D01*
X129889047Y-111244095D01*
X130079523Y-111958380D01*
X130317619Y-110958380D01*
X130698571Y-111958380D02*
X130698571Y-111291714D01*
X130698571Y-111482190D02*
X130746190Y-111386952D01*
X130793809Y-111339333D01*
X130889047Y-111291714D01*
X130984285Y-111291714D01*
X131317619Y-111958380D02*
X131317619Y-111291714D01*
X131317619Y-110958380D02*
X131270000Y-111006000D01*
X131317619Y-111053619D01*
X131365238Y-111006000D01*
X131317619Y-110958380D01*
X131317619Y-111053619D01*
X132222380Y-111291714D02*
X132222380Y-112101238D01*
X132174761Y-112196476D01*
X132127142Y-112244095D01*
X132031904Y-112291714D01*
X131889047Y-112291714D01*
X131793809Y-112244095D01*
X132222380Y-111910761D02*
X132127142Y-111958380D01*
X131936666Y-111958380D01*
X131841428Y-111910761D01*
X131793809Y-111863142D01*
X131746190Y-111767904D01*
X131746190Y-111482190D01*
X131793809Y-111386952D01*
X131841428Y-111339333D01*
X131936666Y-111291714D01*
X132127142Y-111291714D01*
X132222380Y-111339333D01*
X132698571Y-111958380D02*
X132698571Y-110958380D01*
X133127142Y-111958380D02*
X133127142Y-111434571D01*
X133079523Y-111339333D01*
X132984285Y-111291714D01*
X132841428Y-111291714D01*
X132746190Y-111339333D01*
X132698571Y-111386952D01*
X133460476Y-111291714D02*
X133841428Y-111291714D01*
X133603333Y-110958380D02*
X133603333Y-111815523D01*
X133650952Y-111910761D01*
X133746190Y-111958380D01*
X133841428Y-111958380D01*
X122531904Y-112608380D02*
X122531904Y-113322666D01*
X122484285Y-113465523D01*
X122389047Y-113560761D01*
X122246190Y-113608380D01*
X122150952Y-113608380D01*
X123436666Y-113608380D02*
X123436666Y-113084571D01*
X123389047Y-112989333D01*
X123293809Y-112941714D01*
X123103333Y-112941714D01*
X123008095Y-112989333D01*
X123436666Y-113560761D02*
X123341428Y-113608380D01*
X123103333Y-113608380D01*
X123008095Y-113560761D01*
X122960476Y-113465523D01*
X122960476Y-113370285D01*
X123008095Y-113275047D01*
X123103333Y-113227428D01*
X123341428Y-113227428D01*
X123436666Y-113179809D01*
X123912857Y-112941714D02*
X123912857Y-113608380D01*
X123912857Y-113036952D02*
X123960476Y-112989333D01*
X124055714Y-112941714D01*
X124198571Y-112941714D01*
X124293809Y-112989333D01*
X124341428Y-113084571D01*
X124341428Y-113608380D01*
X125246190Y-112941714D02*
X125246190Y-113608380D01*
X124817619Y-112941714D02*
X124817619Y-113465523D01*
X124865238Y-113560761D01*
X124960476Y-113608380D01*
X125103333Y-113608380D01*
X125198571Y-113560761D01*
X125246190Y-113513142D01*
X126150952Y-113608380D02*
X126150952Y-113084571D01*
X126103333Y-112989333D01*
X126008095Y-112941714D01*
X125817619Y-112941714D01*
X125722380Y-112989333D01*
X126150952Y-113560761D02*
X126055714Y-113608380D01*
X125817619Y-113608380D01*
X125722380Y-113560761D01*
X125674761Y-113465523D01*
X125674761Y-113370285D01*
X125722380Y-113275047D01*
X125817619Y-113227428D01*
X126055714Y-113227428D01*
X126150952Y-113179809D01*
X126627142Y-113608380D02*
X126627142Y-112941714D01*
X126627142Y-113132190D02*
X126674761Y-113036952D01*
X126722380Y-112989333D01*
X126817619Y-112941714D01*
X126912857Y-112941714D01*
X127150952Y-112941714D02*
X127389047Y-113608380D01*
X127627142Y-112941714D02*
X127389047Y-113608380D01*
X127293809Y-113846476D01*
X127246190Y-113894095D01*
X127150952Y-113941714D01*
X129198571Y-112608380D02*
X129008095Y-112608380D01*
X128912857Y-112656000D01*
X128865238Y-112703619D01*
X128770000Y-112846476D01*
X128722380Y-113036952D01*
X128722380Y-113417904D01*
X128770000Y-113513142D01*
X128817619Y-113560761D01*
X128912857Y-113608380D01*
X129103333Y-113608380D01*
X129198571Y-113560761D01*
X129246190Y-113513142D01*
X129293809Y-113417904D01*
X129293809Y-113179809D01*
X129246190Y-113084571D01*
X129198571Y-113036952D01*
X129103333Y-112989333D01*
X128912857Y-112989333D01*
X128817619Y-113036952D01*
X128770000Y-113084571D01*
X128722380Y-113179809D01*
X129770000Y-113560761D02*
X129770000Y-113608380D01*
X129722380Y-113703619D01*
X129674761Y-113751238D01*
X130912857Y-112703619D02*
X130960476Y-112656000D01*
X131055714Y-112608380D01*
X131293809Y-112608380D01*
X131389047Y-112656000D01*
X131436666Y-112703619D01*
X131484285Y-112798857D01*
X131484285Y-112894095D01*
X131436666Y-113036952D01*
X130865238Y-113608380D01*
X131484285Y-113608380D01*
X132103333Y-112608380D02*
X132198571Y-112608380D01*
X132293809Y-112656000D01*
X132341428Y-112703619D01*
X132389047Y-112798857D01*
X132436666Y-112989333D01*
X132436666Y-113227428D01*
X132389047Y-113417904D01*
X132341428Y-113513142D01*
X132293809Y-113560761D01*
X132198571Y-113608380D01*
X132103333Y-113608380D01*
X132008095Y-113560761D01*
X131960476Y-113513142D01*
X131912857Y-113417904D01*
X131865238Y-113227428D01*
X131865238Y-112989333D01*
X131912857Y-112798857D01*
X131960476Y-112703619D01*
X132008095Y-112656000D01*
X132103333Y-112608380D01*
X132817619Y-112703619D02*
X132865238Y-112656000D01*
X132960476Y-112608380D01*
X133198571Y-112608380D01*
X133293809Y-112656000D01*
X133341428Y-112703619D01*
X133389047Y-112798857D01*
X133389047Y-112894095D01*
X133341428Y-113036952D01*
X132770000Y-113608380D01*
X133389047Y-113608380D01*
X133770000Y-112703619D02*
X133817619Y-112656000D01*
X133912857Y-112608380D01*
X134150952Y-112608380D01*
X134246190Y-112656000D01*
X134293809Y-112703619D01*
X134341428Y-112798857D01*
X134341428Y-112894095D01*
X134293809Y-113036952D01*
X133722380Y-113608380D01*
X134341428Y-113608380D01*
D11*
X140400000Y-51620000D02*
X139570000Y-50790000D01*
X139780000Y-51849096D02*
X140720452Y-52789548D01*
X138839548Y-52789548D02*
X139780000Y-51849096D01*
X137941522Y-53687574D02*
X139822426Y-55568478D01*
X139822426Y-55568478D02*
X132595795Y-62795109D01*
X137941522Y-53687574D02*
X130714891Y-60914205D01*
X130714891Y-60914205D02*
X132595795Y-62795109D01*
X135650000Y-76030000D02*
X136980000Y-76030000D01*
X135650000Y-77360000D02*
X135650000Y-76030000D01*
X135650000Y-78630000D02*
X138310000Y-78630000D01*
X138310000Y-78630000D02*
X138310000Y-88850000D01*
X135650000Y-78630000D02*
X135650000Y-88850000D01*
X135650000Y-88850000D02*
X138310000Y-88850000D01*
X128239733Y-96268000D02*
X128582267Y-96268000D01*
X128239733Y-95248000D02*
X128582267Y-95248000D01*
X112999733Y-80262000D02*
X113342267Y-80262000D01*
X112999733Y-81282000D02*
X113342267Y-81282000D01*
X128328267Y-67562000D02*
X127985733Y-67562000D01*
X128328267Y-68582000D02*
X127985733Y-68582000D01*
X141395267Y-87886000D02*
X141052733Y-87886000D01*
X141395267Y-86866000D02*
X141052733Y-86866000D01*
X131654733Y-98042000D02*
X131997267Y-98042000D01*
X131654733Y-99062000D02*
X131997267Y-99062000D01*
X119946267Y-78992000D02*
X119603733Y-78992000D01*
X119946267Y-80012000D02*
X119603733Y-80012000D01*
X119603733Y-73150000D02*
X119946267Y-73150000D01*
X119603733Y-74170000D02*
X119946267Y-74170000D01*
X115793733Y-77726000D02*
X116136267Y-77726000D01*
X115793733Y-76706000D02*
X116136267Y-76706000D01*
X116301733Y-82548000D02*
X116644267Y-82548000D01*
X116301733Y-83568000D02*
X116644267Y-83568000D01*
X116414733Y-89410000D02*
X116757267Y-89410000D01*
X116414733Y-88390000D02*
X116757267Y-88390000D01*
X119946267Y-85854000D02*
X119603733Y-85854000D01*
X119946267Y-84834000D02*
X119603733Y-84834000D01*
X119946267Y-90676000D02*
X119603733Y-90676000D01*
X119946267Y-91696000D02*
X119603733Y-91696000D01*
X141536267Y-77726000D02*
X141193733Y-77726000D01*
X141536267Y-76706000D02*
X141193733Y-76706000D01*
X144951267Y-79500000D02*
X144608733Y-79500000D01*
X144951267Y-80520000D02*
X144608733Y-80520000D01*
X141395267Y-83060000D02*
X141052733Y-83060000D01*
X141395267Y-82040000D02*
X141052733Y-82040000D01*
X144951267Y-84834000D02*
X144608733Y-84834000D01*
X144951267Y-85854000D02*
X144608733Y-85854000D01*
X116480000Y-112830904D02*
X115539548Y-111890452D01*
X117420452Y-111890452D02*
X116480000Y-112830904D01*
X118318478Y-110992426D02*
X116437574Y-109111522D01*
X116437574Y-109111522D02*
X123664205Y-101884891D01*
X118318478Y-110992426D02*
X125545109Y-103765795D01*
X125545109Y-103765795D02*
X123664205Y-101884891D01*
X107864205Y-78665109D02*
X109745109Y-76784205D01*
X100637574Y-71438478D02*
X107864205Y-78665109D01*
X102518478Y-69557574D02*
X109745109Y-76784205D01*
X100637574Y-71438478D02*
X102518478Y-69557574D01*
X99739548Y-70540452D02*
X98799096Y-69600000D01*
X98799096Y-69600000D02*
X99739548Y-68659548D01*
X157860904Y-95100000D02*
X156920452Y-96040452D01*
X156920452Y-94159548D02*
X157860904Y-95100000D01*
X156022426Y-93261522D02*
X154141522Y-95142426D01*
X154141522Y-95142426D02*
X146914891Y-87915795D01*
X156022426Y-93261522D02*
X148795795Y-86034891D01*
X148795795Y-86034891D02*
X146914891Y-87915795D01*
X130530000Y-72300000D02*
X129280000Y-72300000D01*
X130530000Y-92740000D02*
X130530000Y-72300000D01*
X126030000Y-92740000D02*
X130530000Y-92740000D01*
X126030000Y-72300000D02*
X126030000Y-92740000D01*
X127280000Y-72300000D02*
X126030000Y-72300000D01*
X129280000Y-72300000D02*
G75*
G02*
X127280000Y-72300000I-1000000J0D01*
G01*
X128060781Y-54470000D02*
G75*
G03*
X128060781Y-54470000I-1600781J0D01*
G01*
X132620781Y-54356000D02*
G75*
G03*
X132620781Y-54356000I-1600781J0D01*
G01*
X124937733Y-98042000D02*
X125280267Y-98042000D01*
X124937733Y-99062000D02*
X125280267Y-99062000D01*
X127985733Y-64264000D02*
X128328267Y-64264000D01*
X127985733Y-63244000D02*
X128328267Y-63244000D01*
X137077267Y-93474000D02*
X136734733Y-93474000D01*
X137077267Y-92454000D02*
X136734733Y-92454000D01*
X112834267Y-85342000D02*
X112491733Y-85342000D01*
X112834267Y-86362000D02*
X112491733Y-86362000D01*
D10*
X141276036Y-51156467D02*
X140703616Y-51728887D01*
X140669944Y-51829902D01*
X140669944Y-51897246D01*
X140703616Y-51998261D01*
X140838303Y-52132948D01*
X140939318Y-52166620D01*
X141006662Y-52166620D01*
X141107677Y-52132948D01*
X141680097Y-51560528D01*
X141949471Y-51829902D02*
X142387203Y-52267635D01*
X141882127Y-52301307D01*
X141983142Y-52402322D01*
X142016814Y-52503337D01*
X142016814Y-52570681D01*
X141983142Y-52671696D01*
X141814784Y-52840055D01*
X141713768Y-52873727D01*
X141646425Y-52873727D01*
X141545410Y-52840055D01*
X141343379Y-52638024D01*
X141309707Y-52537009D01*
X141309707Y-52469666D01*
X136646666Y-74482380D02*
X136646666Y-75196666D01*
X136599047Y-75339523D01*
X136503809Y-75434761D01*
X136360952Y-75482380D01*
X136265714Y-75482380D01*
X137075238Y-74577619D02*
X137122857Y-74530000D01*
X137218095Y-74482380D01*
X137456190Y-74482380D01*
X137551428Y-74530000D01*
X137599047Y-74577619D01*
X137646666Y-74672857D01*
X137646666Y-74768095D01*
X137599047Y-74910952D01*
X137027619Y-75482380D01*
X137646666Y-75482380D01*
X128244333Y-94780380D02*
X127911000Y-94304190D01*
X127672904Y-94780380D02*
X127672904Y-93780380D01*
X128053857Y-93780380D01*
X128149095Y-93828000D01*
X128196714Y-93875619D01*
X128244333Y-93970857D01*
X128244333Y-94113714D01*
X128196714Y-94208952D01*
X128149095Y-94256571D01*
X128053857Y-94304190D01*
X127672904Y-94304190D01*
X129196714Y-94780380D02*
X128625285Y-94780380D01*
X128911000Y-94780380D02*
X128911000Y-93780380D01*
X128815761Y-93923238D01*
X128720523Y-94018476D01*
X128625285Y-94066095D01*
X113004333Y-79794380D02*
X112671000Y-79318190D01*
X112432904Y-79794380D02*
X112432904Y-78794380D01*
X112813857Y-78794380D01*
X112909095Y-78842000D01*
X112956714Y-78889619D01*
X113004333Y-78984857D01*
X113004333Y-79127714D01*
X112956714Y-79222952D01*
X112909095Y-79270571D01*
X112813857Y-79318190D01*
X112432904Y-79318190D01*
X113385285Y-78889619D02*
X113432904Y-78842000D01*
X113528142Y-78794380D01*
X113766238Y-78794380D01*
X113861476Y-78842000D01*
X113909095Y-78889619D01*
X113956714Y-78984857D01*
X113956714Y-79080095D01*
X113909095Y-79222952D01*
X113337666Y-79794380D01*
X113956714Y-79794380D01*
X127990333Y-69954380D02*
X127657000Y-69478190D01*
X127418904Y-69954380D02*
X127418904Y-68954380D01*
X127799857Y-68954380D01*
X127895095Y-69002000D01*
X127942714Y-69049619D01*
X127990333Y-69144857D01*
X127990333Y-69287714D01*
X127942714Y-69382952D01*
X127895095Y-69430571D01*
X127799857Y-69478190D01*
X127418904Y-69478190D01*
X128323666Y-68954380D02*
X128942714Y-68954380D01*
X128609380Y-69335333D01*
X128752238Y-69335333D01*
X128847476Y-69382952D01*
X128895095Y-69430571D01*
X128942714Y-69525809D01*
X128942714Y-69763904D01*
X128895095Y-69859142D01*
X128847476Y-69906761D01*
X128752238Y-69954380D01*
X128466523Y-69954380D01*
X128371285Y-69906761D01*
X128323666Y-69859142D01*
X141057333Y-89258380D02*
X140724000Y-88782190D01*
X140485904Y-89258380D02*
X140485904Y-88258380D01*
X140866857Y-88258380D01*
X140962095Y-88306000D01*
X141009714Y-88353619D01*
X141057333Y-88448857D01*
X141057333Y-88591714D01*
X141009714Y-88686952D01*
X140962095Y-88734571D01*
X140866857Y-88782190D01*
X140485904Y-88782190D01*
X141914476Y-88591714D02*
X141914476Y-89258380D01*
X141676380Y-88210761D02*
X141438285Y-88925047D01*
X142057333Y-88925047D01*
X131659333Y-97574380D02*
X131326000Y-97098190D01*
X131087904Y-97574380D02*
X131087904Y-96574380D01*
X131468857Y-96574380D01*
X131564095Y-96622000D01*
X131611714Y-96669619D01*
X131659333Y-96764857D01*
X131659333Y-96907714D01*
X131611714Y-97002952D01*
X131564095Y-97050571D01*
X131468857Y-97098190D01*
X131087904Y-97098190D01*
X132564095Y-96574380D02*
X132087904Y-96574380D01*
X132040285Y-97050571D01*
X132087904Y-97002952D01*
X132183142Y-96955333D01*
X132421238Y-96955333D01*
X132516476Y-97002952D01*
X132564095Y-97050571D01*
X132611714Y-97145809D01*
X132611714Y-97383904D01*
X132564095Y-97479142D01*
X132516476Y-97526761D01*
X132421238Y-97574380D01*
X132183142Y-97574380D01*
X132087904Y-97526761D01*
X132040285Y-97479142D01*
X119608333Y-81384380D02*
X119275000Y-80908190D01*
X119036904Y-81384380D02*
X119036904Y-80384380D01*
X119417857Y-80384380D01*
X119513095Y-80432000D01*
X119560714Y-80479619D01*
X119608333Y-80574857D01*
X119608333Y-80717714D01*
X119560714Y-80812952D01*
X119513095Y-80860571D01*
X119417857Y-80908190D01*
X119036904Y-80908190D01*
X120465476Y-80384380D02*
X120275000Y-80384380D01*
X120179761Y-80432000D01*
X120132142Y-80479619D01*
X120036904Y-80622476D01*
X119989285Y-80812952D01*
X119989285Y-81193904D01*
X120036904Y-81289142D01*
X120084523Y-81336761D01*
X120179761Y-81384380D01*
X120370238Y-81384380D01*
X120465476Y-81336761D01*
X120513095Y-81289142D01*
X120560714Y-81193904D01*
X120560714Y-80955809D01*
X120513095Y-80860571D01*
X120465476Y-80812952D01*
X120370238Y-80765333D01*
X120179761Y-80765333D01*
X120084523Y-80812952D01*
X120036904Y-80860571D01*
X119989285Y-80955809D01*
X119608333Y-72682380D02*
X119275000Y-72206190D01*
X119036904Y-72682380D02*
X119036904Y-71682380D01*
X119417857Y-71682380D01*
X119513095Y-71730000D01*
X119560714Y-71777619D01*
X119608333Y-71872857D01*
X119608333Y-72015714D01*
X119560714Y-72110952D01*
X119513095Y-72158571D01*
X119417857Y-72206190D01*
X119036904Y-72206190D01*
X119941666Y-71682380D02*
X120608333Y-71682380D01*
X120179761Y-72682380D01*
X115798333Y-76238380D02*
X115465000Y-75762190D01*
X115226904Y-76238380D02*
X115226904Y-75238380D01*
X115607857Y-75238380D01*
X115703095Y-75286000D01*
X115750714Y-75333619D01*
X115798333Y-75428857D01*
X115798333Y-75571714D01*
X115750714Y-75666952D01*
X115703095Y-75714571D01*
X115607857Y-75762190D01*
X115226904Y-75762190D01*
X116369761Y-75666952D02*
X116274523Y-75619333D01*
X116226904Y-75571714D01*
X116179285Y-75476476D01*
X116179285Y-75428857D01*
X116226904Y-75333619D01*
X116274523Y-75286000D01*
X116369761Y-75238380D01*
X116560238Y-75238380D01*
X116655476Y-75286000D01*
X116703095Y-75333619D01*
X116750714Y-75428857D01*
X116750714Y-75476476D01*
X116703095Y-75571714D01*
X116655476Y-75619333D01*
X116560238Y-75666952D01*
X116369761Y-75666952D01*
X116274523Y-75714571D01*
X116226904Y-75762190D01*
X116179285Y-75857428D01*
X116179285Y-76047904D01*
X116226904Y-76143142D01*
X116274523Y-76190761D01*
X116369761Y-76238380D01*
X116560238Y-76238380D01*
X116655476Y-76190761D01*
X116703095Y-76143142D01*
X116750714Y-76047904D01*
X116750714Y-75857428D01*
X116703095Y-75762190D01*
X116655476Y-75714571D01*
X116560238Y-75666952D01*
X116306333Y-82080380D02*
X115973000Y-81604190D01*
X115734904Y-82080380D02*
X115734904Y-81080380D01*
X116115857Y-81080380D01*
X116211095Y-81128000D01*
X116258714Y-81175619D01*
X116306333Y-81270857D01*
X116306333Y-81413714D01*
X116258714Y-81508952D01*
X116211095Y-81556571D01*
X116115857Y-81604190D01*
X115734904Y-81604190D01*
X116782523Y-82080380D02*
X116973000Y-82080380D01*
X117068238Y-82032761D01*
X117115857Y-81985142D01*
X117211095Y-81842285D01*
X117258714Y-81651809D01*
X117258714Y-81270857D01*
X117211095Y-81175619D01*
X117163476Y-81128000D01*
X117068238Y-81080380D01*
X116877761Y-81080380D01*
X116782523Y-81128000D01*
X116734904Y-81175619D01*
X116687285Y-81270857D01*
X116687285Y-81508952D01*
X116734904Y-81604190D01*
X116782523Y-81651809D01*
X116877761Y-81699428D01*
X117068238Y-81699428D01*
X117163476Y-81651809D01*
X117211095Y-81604190D01*
X117258714Y-81508952D01*
X115943142Y-87922380D02*
X115609809Y-87446190D01*
X115371714Y-87922380D02*
X115371714Y-86922380D01*
X115752666Y-86922380D01*
X115847904Y-86970000D01*
X115895523Y-87017619D01*
X115943142Y-87112857D01*
X115943142Y-87255714D01*
X115895523Y-87350952D01*
X115847904Y-87398571D01*
X115752666Y-87446190D01*
X115371714Y-87446190D01*
X116895523Y-87922380D02*
X116324095Y-87922380D01*
X116609809Y-87922380D02*
X116609809Y-86922380D01*
X116514571Y-87065238D01*
X116419333Y-87160476D01*
X116324095Y-87208095D01*
X117514571Y-86922380D02*
X117609809Y-86922380D01*
X117705047Y-86970000D01*
X117752666Y-87017619D01*
X117800285Y-87112857D01*
X117847904Y-87303333D01*
X117847904Y-87541428D01*
X117800285Y-87731904D01*
X117752666Y-87827142D01*
X117705047Y-87874761D01*
X117609809Y-87922380D01*
X117514571Y-87922380D01*
X117419333Y-87874761D01*
X117371714Y-87827142D01*
X117324095Y-87731904D01*
X117276476Y-87541428D01*
X117276476Y-87303333D01*
X117324095Y-87112857D01*
X117371714Y-87017619D01*
X117419333Y-86970000D01*
X117514571Y-86922380D01*
X119132142Y-87226380D02*
X118798809Y-86750190D01*
X118560714Y-87226380D02*
X118560714Y-86226380D01*
X118941666Y-86226380D01*
X119036904Y-86274000D01*
X119084523Y-86321619D01*
X119132142Y-86416857D01*
X119132142Y-86559714D01*
X119084523Y-86654952D01*
X119036904Y-86702571D01*
X118941666Y-86750190D01*
X118560714Y-86750190D01*
X120084523Y-87226380D02*
X119513095Y-87226380D01*
X119798809Y-87226380D02*
X119798809Y-86226380D01*
X119703571Y-86369238D01*
X119608333Y-86464476D01*
X119513095Y-86512095D01*
X121036904Y-87226380D02*
X120465476Y-87226380D01*
X120751190Y-87226380D02*
X120751190Y-86226380D01*
X120655952Y-86369238D01*
X120560714Y-86464476D01*
X120465476Y-86512095D01*
X119132142Y-93068380D02*
X118798809Y-92592190D01*
X118560714Y-93068380D02*
X118560714Y-92068380D01*
X118941666Y-92068380D01*
X119036904Y-92116000D01*
X119084523Y-92163619D01*
X119132142Y-92258857D01*
X119132142Y-92401714D01*
X119084523Y-92496952D01*
X119036904Y-92544571D01*
X118941666Y-92592190D01*
X118560714Y-92592190D01*
X120084523Y-93068380D02*
X119513095Y-93068380D01*
X119798809Y-93068380D02*
X119798809Y-92068380D01*
X119703571Y-92211238D01*
X119608333Y-92306476D01*
X119513095Y-92354095D01*
X120465476Y-92163619D02*
X120513095Y-92116000D01*
X120608333Y-92068380D01*
X120846428Y-92068380D01*
X120941666Y-92116000D01*
X120989285Y-92163619D01*
X121036904Y-92258857D01*
X121036904Y-92354095D01*
X120989285Y-92496952D01*
X120417857Y-93068380D01*
X121036904Y-93068380D01*
X140722142Y-79098380D02*
X140388809Y-78622190D01*
X140150714Y-79098380D02*
X140150714Y-78098380D01*
X140531666Y-78098380D01*
X140626904Y-78146000D01*
X140674523Y-78193619D01*
X140722142Y-78288857D01*
X140722142Y-78431714D01*
X140674523Y-78526952D01*
X140626904Y-78574571D01*
X140531666Y-78622190D01*
X140150714Y-78622190D01*
X141674523Y-79098380D02*
X141103095Y-79098380D01*
X141388809Y-79098380D02*
X141388809Y-78098380D01*
X141293571Y-78241238D01*
X141198333Y-78336476D01*
X141103095Y-78384095D01*
X142007857Y-78098380D02*
X142626904Y-78098380D01*
X142293571Y-78479333D01*
X142436428Y-78479333D01*
X142531666Y-78526952D01*
X142579285Y-78574571D01*
X142626904Y-78669809D01*
X142626904Y-78907904D01*
X142579285Y-79003142D01*
X142531666Y-79050761D01*
X142436428Y-79098380D01*
X142150714Y-79098380D01*
X142055476Y-79050761D01*
X142007857Y-79003142D01*
X144137142Y-81892380D02*
X143803809Y-81416190D01*
X143565714Y-81892380D02*
X143565714Y-80892380D01*
X143946666Y-80892380D01*
X144041904Y-80940000D01*
X144089523Y-80987619D01*
X144137142Y-81082857D01*
X144137142Y-81225714D01*
X144089523Y-81320952D01*
X144041904Y-81368571D01*
X143946666Y-81416190D01*
X143565714Y-81416190D01*
X145089523Y-81892380D02*
X144518095Y-81892380D01*
X144803809Y-81892380D02*
X144803809Y-80892380D01*
X144708571Y-81035238D01*
X144613333Y-81130476D01*
X144518095Y-81178095D01*
X145946666Y-81225714D02*
X145946666Y-81892380D01*
X145708571Y-80844761D02*
X145470476Y-81559047D01*
X146089523Y-81559047D01*
X140581142Y-84432380D02*
X140247809Y-83956190D01*
X140009714Y-84432380D02*
X140009714Y-83432380D01*
X140390666Y-83432380D01*
X140485904Y-83480000D01*
X140533523Y-83527619D01*
X140581142Y-83622857D01*
X140581142Y-83765714D01*
X140533523Y-83860952D01*
X140485904Y-83908571D01*
X140390666Y-83956190D01*
X140009714Y-83956190D01*
X141533523Y-84432380D02*
X140962095Y-84432380D01*
X141247809Y-84432380D02*
X141247809Y-83432380D01*
X141152571Y-83575238D01*
X141057333Y-83670476D01*
X140962095Y-83718095D01*
X142438285Y-83432380D02*
X141962095Y-83432380D01*
X141914476Y-83908571D01*
X141962095Y-83860952D01*
X142057333Y-83813333D01*
X142295428Y-83813333D01*
X142390666Y-83860952D01*
X142438285Y-83908571D01*
X142485904Y-84003809D01*
X142485904Y-84241904D01*
X142438285Y-84337142D01*
X142390666Y-84384761D01*
X142295428Y-84432380D01*
X142057333Y-84432380D01*
X141962095Y-84384761D01*
X141914476Y-84337142D01*
X144137142Y-87226380D02*
X143803809Y-86750190D01*
X143565714Y-87226380D02*
X143565714Y-86226380D01*
X143946666Y-86226380D01*
X144041904Y-86274000D01*
X144089523Y-86321619D01*
X144137142Y-86416857D01*
X144137142Y-86559714D01*
X144089523Y-86654952D01*
X144041904Y-86702571D01*
X143946666Y-86750190D01*
X143565714Y-86750190D01*
X145089523Y-87226380D02*
X144518095Y-87226380D01*
X144803809Y-87226380D02*
X144803809Y-86226380D01*
X144708571Y-86369238D01*
X144613333Y-86464476D01*
X144518095Y-86512095D01*
X145946666Y-86226380D02*
X145756190Y-86226380D01*
X145660952Y-86274000D01*
X145613333Y-86321619D01*
X145518095Y-86464476D01*
X145470476Y-86654952D01*
X145470476Y-87035904D01*
X145518095Y-87131142D01*
X145565714Y-87178761D01*
X145660952Y-87226380D01*
X145851428Y-87226380D01*
X145946666Y-87178761D01*
X145994285Y-87131142D01*
X146041904Y-87035904D01*
X146041904Y-86797809D01*
X145994285Y-86702571D01*
X145946666Y-86654952D01*
X145851428Y-86607333D01*
X145660952Y-86607333D01*
X145565714Y-86654952D01*
X145518095Y-86702571D01*
X145470476Y-86797809D01*
X114680918Y-111671585D02*
X114108498Y-112244005D01*
X114074826Y-112345020D01*
X114074826Y-112412364D01*
X114108498Y-112513379D01*
X114243185Y-112648066D01*
X114344200Y-112681738D01*
X114411544Y-112681738D01*
X114512559Y-112648066D01*
X115084979Y-112075646D01*
X115084979Y-113489860D02*
X114680918Y-113085799D01*
X114882948Y-113287829D02*
X115590055Y-112580723D01*
X115421696Y-112614394D01*
X115287009Y-112614394D01*
X115185994Y-112580723D01*
X98106467Y-68103963D02*
X98678887Y-68676383D01*
X98779902Y-68710055D01*
X98847246Y-68710055D01*
X98948261Y-68676383D01*
X99082948Y-68541696D01*
X99116620Y-68440681D01*
X99116620Y-68373337D01*
X99082948Y-68272322D01*
X98510528Y-67699902D01*
X98880918Y-67464200D02*
X98880918Y-67396857D01*
X98914589Y-67295841D01*
X99082948Y-67127483D01*
X99183963Y-67093811D01*
X99251307Y-67093811D01*
X99352322Y-67127483D01*
X99419666Y-67194826D01*
X99487009Y-67329513D01*
X99487009Y-68137635D01*
X99924742Y-67699902D01*
X156701585Y-96899081D02*
X157274005Y-97471501D01*
X157375020Y-97505173D01*
X157442364Y-97505173D01*
X157543379Y-97471501D01*
X157678066Y-97336814D01*
X157711738Y-97235799D01*
X157711738Y-97168455D01*
X157678066Y-97067440D01*
X157105646Y-96495020D01*
X157981112Y-96090959D02*
X158452516Y-96562364D01*
X157543379Y-95989944D02*
X157880097Y-96663379D01*
X158317829Y-96225646D01*
X127518095Y-70752380D02*
X127518095Y-71561904D01*
X127565714Y-71657142D01*
X127613333Y-71704761D01*
X127708571Y-71752380D01*
X127899047Y-71752380D01*
X127994285Y-71704761D01*
X128041904Y-71657142D01*
X128089523Y-71561904D01*
X128089523Y-70752380D01*
X129041904Y-70752380D02*
X128565714Y-70752380D01*
X128518095Y-71228571D01*
X128565714Y-71180952D01*
X128660952Y-71133333D01*
X128899047Y-71133333D01*
X128994285Y-71180952D01*
X129041904Y-71228571D01*
X129089523Y-71323809D01*
X129089523Y-71561904D01*
X129041904Y-71657142D01*
X128994285Y-71704761D01*
X128899047Y-71752380D01*
X128660952Y-71752380D01*
X128565714Y-71704761D01*
X128518095Y-71657142D01*
X126126666Y-51522380D02*
X126126666Y-52236666D01*
X126079047Y-52379523D01*
X125983809Y-52474761D01*
X125840952Y-52522380D01*
X125745714Y-52522380D01*
X127126666Y-52522380D02*
X126555238Y-52522380D01*
X126840952Y-52522380D02*
X126840952Y-51522380D01*
X126745714Y-51665238D01*
X126650476Y-51760476D01*
X126555238Y-51808095D01*
X130686666Y-51408380D02*
X130686666Y-52122666D01*
X130639047Y-52265523D01*
X130543809Y-52360761D01*
X130400952Y-52408380D01*
X130305714Y-52408380D01*
X131067619Y-51408380D02*
X131686666Y-51408380D01*
X131353333Y-51789333D01*
X131496190Y-51789333D01*
X131591428Y-51836952D01*
X131639047Y-51884571D01*
X131686666Y-51979809D01*
X131686666Y-52217904D01*
X131639047Y-52313142D01*
X131591428Y-52360761D01*
X131496190Y-52408380D01*
X131210476Y-52408380D01*
X131115238Y-52360761D01*
X131067619Y-52313142D01*
X124466142Y-97574380D02*
X124132809Y-97098190D01*
X123894714Y-97574380D02*
X123894714Y-96574380D01*
X124275666Y-96574380D01*
X124370904Y-96622000D01*
X124418523Y-96669619D01*
X124466142Y-96764857D01*
X124466142Y-96907714D01*
X124418523Y-97002952D01*
X124370904Y-97050571D01*
X124275666Y-97098190D01*
X123894714Y-97098190D01*
X125418523Y-97574380D02*
X124847095Y-97574380D01*
X125132809Y-97574380D02*
X125132809Y-96574380D01*
X125037571Y-96717238D01*
X124942333Y-96812476D01*
X124847095Y-96860095D01*
X125751857Y-96574380D02*
X126418523Y-96574380D01*
X125989952Y-97574380D01*
X127514142Y-62776380D02*
X127180809Y-62300190D01*
X126942714Y-62776380D02*
X126942714Y-61776380D01*
X127323666Y-61776380D01*
X127418904Y-61824000D01*
X127466523Y-61871619D01*
X127514142Y-61966857D01*
X127514142Y-62109714D01*
X127466523Y-62204952D01*
X127418904Y-62252571D01*
X127323666Y-62300190D01*
X126942714Y-62300190D01*
X128466523Y-62776380D02*
X127895095Y-62776380D01*
X128180809Y-62776380D02*
X128180809Y-61776380D01*
X128085571Y-61919238D01*
X127990333Y-62014476D01*
X127895095Y-62062095D01*
X129037952Y-62204952D02*
X128942714Y-62157333D01*
X128895095Y-62109714D01*
X128847476Y-62014476D01*
X128847476Y-61966857D01*
X128895095Y-61871619D01*
X128942714Y-61824000D01*
X129037952Y-61776380D01*
X129228428Y-61776380D01*
X129323666Y-61824000D01*
X129371285Y-61871619D01*
X129418904Y-61966857D01*
X129418904Y-62014476D01*
X129371285Y-62109714D01*
X129323666Y-62157333D01*
X129228428Y-62204952D01*
X129037952Y-62204952D01*
X128942714Y-62252571D01*
X128895095Y-62300190D01*
X128847476Y-62395428D01*
X128847476Y-62585904D01*
X128895095Y-62681142D01*
X128942714Y-62728761D01*
X129037952Y-62776380D01*
X129228428Y-62776380D01*
X129323666Y-62728761D01*
X129371285Y-62681142D01*
X129418904Y-62585904D01*
X129418904Y-62395428D01*
X129371285Y-62300190D01*
X129323666Y-62252571D01*
X129228428Y-62204952D01*
X136263142Y-94846380D02*
X135929809Y-94370190D01*
X135691714Y-94846380D02*
X135691714Y-93846380D01*
X136072666Y-93846380D01*
X136167904Y-93894000D01*
X136215523Y-93941619D01*
X136263142Y-94036857D01*
X136263142Y-94179714D01*
X136215523Y-94274952D01*
X136167904Y-94322571D01*
X136072666Y-94370190D01*
X135691714Y-94370190D01*
X137215523Y-94846380D02*
X136644095Y-94846380D01*
X136929809Y-94846380D02*
X136929809Y-93846380D01*
X136834571Y-93989238D01*
X136739333Y-94084476D01*
X136644095Y-94132095D01*
X137691714Y-94846380D02*
X137882190Y-94846380D01*
X137977428Y-94798761D01*
X138025047Y-94751142D01*
X138120285Y-94608285D01*
X138167904Y-94417809D01*
X138167904Y-94036857D01*
X138120285Y-93941619D01*
X138072666Y-93894000D01*
X137977428Y-93846380D01*
X137786952Y-93846380D01*
X137691714Y-93894000D01*
X137644095Y-93941619D01*
X137596476Y-94036857D01*
X137596476Y-94274952D01*
X137644095Y-94370190D01*
X137691714Y-94417809D01*
X137786952Y-94465428D01*
X137977428Y-94465428D01*
X138072666Y-94417809D01*
X138120285Y-94370190D01*
X138167904Y-94274952D01*
X112020142Y-87734380D02*
X111686809Y-87258190D01*
X111448714Y-87734380D02*
X111448714Y-86734380D01*
X111829666Y-86734380D01*
X111924904Y-86782000D01*
X111972523Y-86829619D01*
X112020142Y-86924857D01*
X112020142Y-87067714D01*
X111972523Y-87162952D01*
X111924904Y-87210571D01*
X111829666Y-87258190D01*
X111448714Y-87258190D01*
X112401095Y-86829619D02*
X112448714Y-86782000D01*
X112543952Y-86734380D01*
X112782047Y-86734380D01*
X112877285Y-86782000D01*
X112924904Y-86829619D01*
X112972523Y-86924857D01*
X112972523Y-87020095D01*
X112924904Y-87162952D01*
X112353476Y-87734380D01*
X112972523Y-87734380D01*
X113591571Y-86734380D02*
X113686809Y-86734380D01*
X113782047Y-86782000D01*
X113829666Y-86829619D01*
X113877285Y-86924857D01*
X113924904Y-87115333D01*
X113924904Y-87353428D01*
X113877285Y-87543904D01*
X113829666Y-87639142D01*
X113782047Y-87686761D01*
X113686809Y-87734380D01*
X113591571Y-87734380D01*
X113496333Y-87686761D01*
X113448714Y-87639142D01*
X113401095Y-87543904D01*
X113353476Y-87353428D01*
X113353476Y-87115333D01*
X113401095Y-86924857D01*
X113448714Y-86829619D01*
X113496333Y-86782000D01*
X113591571Y-86734380D01*
X153670095Y-52586380D02*
X153670095Y-51586380D01*
X153670095Y-52062571D02*
X154241523Y-52062571D01*
X154241523Y-52586380D02*
X154241523Y-51586380D01*
X155241523Y-52586380D02*
X154670095Y-52586380D01*
X154955809Y-52586380D02*
X154955809Y-51586380D01*
X154860571Y-51729238D01*
X154765333Y-51824476D01*
X154670095Y-51872095D01*
X153924095Y-105926380D02*
X153924095Y-104926380D01*
X153924095Y-105402571D02*
X154495523Y-105402571D01*
X154495523Y-105926380D02*
X154495523Y-104926380D01*
X154924095Y-105021619D02*
X154971714Y-104974000D01*
X155066952Y-104926380D01*
X155305047Y-104926380D01*
X155400285Y-104974000D01*
X155447904Y-105021619D01*
X155495523Y-105116857D01*
X155495523Y-105212095D01*
X155447904Y-105354952D01*
X154876476Y-105926380D01*
X155495523Y-105926380D01*
X101600095Y-53094380D02*
X101600095Y-52094380D01*
X101600095Y-52570571D02*
X102171523Y-52570571D01*
X102171523Y-53094380D02*
X102171523Y-52094380D01*
X102552476Y-52094380D02*
X103171523Y-52094380D01*
X102838190Y-52475333D01*
X102981047Y-52475333D01*
X103076285Y-52522952D01*
X103123904Y-52570571D01*
X103171523Y-52665809D01*
X103171523Y-52903904D01*
X103123904Y-52999142D01*
X103076285Y-53046761D01*
X102981047Y-53094380D01*
X102695333Y-53094380D01*
X102600095Y-53046761D01*
X102552476Y-52999142D01*
X101092095Y-105672380D02*
X101092095Y-104672380D01*
X101092095Y-105148571D02*
X101663523Y-105148571D01*
X101663523Y-105672380D02*
X101663523Y-104672380D01*
X102568285Y-105005714D02*
X102568285Y-105672380D01*
X102330190Y-104624761D02*
X102092095Y-105339047D01*
X102711142Y-105339047D01*
%LPC*%
D12*
G36*
X138507208Y-53730000D02*
G01*
X139780000Y-52457208D01*
X141052792Y-53730000D01*
X139780000Y-55002792D01*
X138507208Y-53730000D01*
G37*
G36*
G01*
X137347553Y-54889655D02*
X137347553Y-54889655D01*
G75*
G02*
X138620345Y-54889655I636396J-636396D01*
G01*
X138620345Y-54889655D01*
G75*
G02*
X138620345Y-56162447I-636396J-636396D01*
G01*
X138620345Y-56162447D01*
G75*
G02*
X137347553Y-56162447I-636396J636396D01*
G01*
X137347553Y-56162447D01*
G75*
G02*
X137347553Y-54889655I636396J636396D01*
G01*
G37*
G36*
G01*
X135551502Y-56685706D02*
X135551502Y-56685706D01*
G75*
G02*
X136824294Y-56685706I636396J-636396D01*
G01*
X136824294Y-56685706D01*
G75*
G02*
X136824294Y-57958498I-636396J-636396D01*
G01*
X136824294Y-57958498D01*
G75*
G02*
X135551502Y-57958498I-636396J636396D01*
G01*
X135551502Y-57958498D01*
G75*
G02*
X135551502Y-56685706I636396J636396D01*
G01*
G37*
G36*
G01*
X133755450Y-58481758D02*
X133755450Y-58481758D01*
G75*
G02*
X135028242Y-58481758I636396J-636396D01*
G01*
X135028242Y-58481758D01*
G75*
G02*
X135028242Y-59754550I-636396J-636396D01*
G01*
X135028242Y-59754550D01*
G75*
G02*
X133755450Y-59754550I-636396J636396D01*
G01*
X133755450Y-59754550D01*
G75*
G02*
X133755450Y-58481758I636396J636396D01*
G01*
G37*
G36*
G01*
X131959399Y-60277809D02*
X131959399Y-60277809D01*
G75*
G02*
X133232191Y-60277809I636396J-636396D01*
G01*
X133232191Y-60277809D01*
G75*
G02*
X133232191Y-61550601I-636396J-636396D01*
G01*
X133232191Y-61550601D01*
G75*
G02*
X131959399Y-61550601I-636396J636396D01*
G01*
X131959399Y-61550601D01*
G75*
G02*
X131959399Y-60277809I636396J636396D01*
G01*
G37*
D13*
X136980000Y-77360000D03*
D14*
X136980000Y-79900000D03*
X136980000Y-82440000D03*
X136980000Y-84980000D03*
X136980000Y-87520000D03*
G36*
G01*
X126961000Y-96020500D02*
X126961000Y-95495500D01*
G75*
G02*
X127223500Y-95233000I262500J0D01*
G01*
X127848500Y-95233000D01*
G75*
G02*
X128111000Y-95495500I0J-262500D01*
G01*
X128111000Y-96020500D01*
G75*
G02*
X127848500Y-96283000I-262500J0D01*
G01*
X127223500Y-96283000D01*
G75*
G02*
X126961000Y-96020500I0J262500D01*
G01*
G37*
G36*
G01*
X128711000Y-96020500D02*
X128711000Y-95495500D01*
G75*
G02*
X128973500Y-95233000I262500J0D01*
G01*
X129598500Y-95233000D01*
G75*
G02*
X129861000Y-95495500I0J-262500D01*
G01*
X129861000Y-96020500D01*
G75*
G02*
X129598500Y-96283000I-262500J0D01*
G01*
X128973500Y-96283000D01*
G75*
G02*
X128711000Y-96020500I0J262500D01*
G01*
G37*
G36*
G01*
X113471000Y-81034500D02*
X113471000Y-80509500D01*
G75*
G02*
X113733500Y-80247000I262500J0D01*
G01*
X114358500Y-80247000D01*
G75*
G02*
X114621000Y-80509500I0J-262500D01*
G01*
X114621000Y-81034500D01*
G75*
G02*
X114358500Y-81297000I-262500J0D01*
G01*
X113733500Y-81297000D01*
G75*
G02*
X113471000Y-81034500I0J262500D01*
G01*
G37*
G36*
G01*
X111721000Y-81034500D02*
X111721000Y-80509500D01*
G75*
G02*
X111983500Y-80247000I262500J0D01*
G01*
X112608500Y-80247000D01*
G75*
G02*
X112871000Y-80509500I0J-262500D01*
G01*
X112871000Y-81034500D01*
G75*
G02*
X112608500Y-81297000I-262500J0D01*
G01*
X111983500Y-81297000D01*
G75*
G02*
X111721000Y-81034500I0J262500D01*
G01*
G37*
G36*
G01*
X129607000Y-67809500D02*
X129607000Y-68334500D01*
G75*
G02*
X129344500Y-68597000I-262500J0D01*
G01*
X128719500Y-68597000D01*
G75*
G02*
X128457000Y-68334500I0J262500D01*
G01*
X128457000Y-67809500D01*
G75*
G02*
X128719500Y-67547000I262500J0D01*
G01*
X129344500Y-67547000D01*
G75*
G02*
X129607000Y-67809500I0J-262500D01*
G01*
G37*
G36*
G01*
X127857000Y-67809500D02*
X127857000Y-68334500D01*
G75*
G02*
X127594500Y-68597000I-262500J0D01*
G01*
X126969500Y-68597000D01*
G75*
G02*
X126707000Y-68334500I0J262500D01*
G01*
X126707000Y-67809500D01*
G75*
G02*
X126969500Y-67547000I262500J0D01*
G01*
X127594500Y-67547000D01*
G75*
G02*
X127857000Y-67809500I0J-262500D01*
G01*
G37*
G36*
G01*
X140924000Y-87113500D02*
X140924000Y-87638500D01*
G75*
G02*
X140661500Y-87901000I-262500J0D01*
G01*
X140036500Y-87901000D01*
G75*
G02*
X139774000Y-87638500I0J262500D01*
G01*
X139774000Y-87113500D01*
G75*
G02*
X140036500Y-86851000I262500J0D01*
G01*
X140661500Y-86851000D01*
G75*
G02*
X140924000Y-87113500I0J-262500D01*
G01*
G37*
G36*
G01*
X142674000Y-87113500D02*
X142674000Y-87638500D01*
G75*
G02*
X142411500Y-87901000I-262500J0D01*
G01*
X141786500Y-87901000D01*
G75*
G02*
X141524000Y-87638500I0J262500D01*
G01*
X141524000Y-87113500D01*
G75*
G02*
X141786500Y-86851000I262500J0D01*
G01*
X142411500Y-86851000D01*
G75*
G02*
X142674000Y-87113500I0J-262500D01*
G01*
G37*
G36*
G01*
X132126000Y-98814500D02*
X132126000Y-98289500D01*
G75*
G02*
X132388500Y-98027000I262500J0D01*
G01*
X133013500Y-98027000D01*
G75*
G02*
X133276000Y-98289500I0J-262500D01*
G01*
X133276000Y-98814500D01*
G75*
G02*
X133013500Y-99077000I-262500J0D01*
G01*
X132388500Y-99077000D01*
G75*
G02*
X132126000Y-98814500I0J262500D01*
G01*
G37*
G36*
G01*
X130376000Y-98814500D02*
X130376000Y-98289500D01*
G75*
G02*
X130638500Y-98027000I262500J0D01*
G01*
X131263500Y-98027000D01*
G75*
G02*
X131526000Y-98289500I0J-262500D01*
G01*
X131526000Y-98814500D01*
G75*
G02*
X131263500Y-99077000I-262500J0D01*
G01*
X130638500Y-99077000D01*
G75*
G02*
X130376000Y-98814500I0J262500D01*
G01*
G37*
G36*
G01*
X121225000Y-79239500D02*
X121225000Y-79764500D01*
G75*
G02*
X120962500Y-80027000I-262500J0D01*
G01*
X120337500Y-80027000D01*
G75*
G02*
X120075000Y-79764500I0J262500D01*
G01*
X120075000Y-79239500D01*
G75*
G02*
X120337500Y-78977000I262500J0D01*
G01*
X120962500Y-78977000D01*
G75*
G02*
X121225000Y-79239500I0J-262500D01*
G01*
G37*
G36*
G01*
X119475000Y-79239500D02*
X119475000Y-79764500D01*
G75*
G02*
X119212500Y-80027000I-262500J0D01*
G01*
X118587500Y-80027000D01*
G75*
G02*
X118325000Y-79764500I0J262500D01*
G01*
X118325000Y-79239500D01*
G75*
G02*
X118587500Y-78977000I262500J0D01*
G01*
X119212500Y-78977000D01*
G75*
G02*
X119475000Y-79239500I0J-262500D01*
G01*
G37*
G36*
G01*
X120075000Y-73922500D02*
X120075000Y-73397500D01*
G75*
G02*
X120337500Y-73135000I262500J0D01*
G01*
X120962500Y-73135000D01*
G75*
G02*
X121225000Y-73397500I0J-262500D01*
G01*
X121225000Y-73922500D01*
G75*
G02*
X120962500Y-74185000I-262500J0D01*
G01*
X120337500Y-74185000D01*
G75*
G02*
X120075000Y-73922500I0J262500D01*
G01*
G37*
G36*
G01*
X118325000Y-73922500D02*
X118325000Y-73397500D01*
G75*
G02*
X118587500Y-73135000I262500J0D01*
G01*
X119212500Y-73135000D01*
G75*
G02*
X119475000Y-73397500I0J-262500D01*
G01*
X119475000Y-73922500D01*
G75*
G02*
X119212500Y-74185000I-262500J0D01*
G01*
X118587500Y-74185000D01*
G75*
G02*
X118325000Y-73922500I0J262500D01*
G01*
G37*
G36*
G01*
X114515000Y-77478500D02*
X114515000Y-76953500D01*
G75*
G02*
X114777500Y-76691000I262500J0D01*
G01*
X115402500Y-76691000D01*
G75*
G02*
X115665000Y-76953500I0J-262500D01*
G01*
X115665000Y-77478500D01*
G75*
G02*
X115402500Y-77741000I-262500J0D01*
G01*
X114777500Y-77741000D01*
G75*
G02*
X114515000Y-77478500I0J262500D01*
G01*
G37*
G36*
G01*
X116265000Y-77478500D02*
X116265000Y-76953500D01*
G75*
G02*
X116527500Y-76691000I262500J0D01*
G01*
X117152500Y-76691000D01*
G75*
G02*
X117415000Y-76953500I0J-262500D01*
G01*
X117415000Y-77478500D01*
G75*
G02*
X117152500Y-77741000I-262500J0D01*
G01*
X116527500Y-77741000D01*
G75*
G02*
X116265000Y-77478500I0J262500D01*
G01*
G37*
G36*
G01*
X116773000Y-83320500D02*
X116773000Y-82795500D01*
G75*
G02*
X117035500Y-82533000I262500J0D01*
G01*
X117660500Y-82533000D01*
G75*
G02*
X117923000Y-82795500I0J-262500D01*
G01*
X117923000Y-83320500D01*
G75*
G02*
X117660500Y-83583000I-262500J0D01*
G01*
X117035500Y-83583000D01*
G75*
G02*
X116773000Y-83320500I0J262500D01*
G01*
G37*
G36*
G01*
X115023000Y-83320500D02*
X115023000Y-82795500D01*
G75*
G02*
X115285500Y-82533000I262500J0D01*
G01*
X115910500Y-82533000D01*
G75*
G02*
X116173000Y-82795500I0J-262500D01*
G01*
X116173000Y-83320500D01*
G75*
G02*
X115910500Y-83583000I-262500J0D01*
G01*
X115285500Y-83583000D01*
G75*
G02*
X115023000Y-83320500I0J262500D01*
G01*
G37*
G36*
G01*
X115136000Y-89162500D02*
X115136000Y-88637500D01*
G75*
G02*
X115398500Y-88375000I262500J0D01*
G01*
X116023500Y-88375000D01*
G75*
G02*
X116286000Y-88637500I0J-262500D01*
G01*
X116286000Y-89162500D01*
G75*
G02*
X116023500Y-89425000I-262500J0D01*
G01*
X115398500Y-89425000D01*
G75*
G02*
X115136000Y-89162500I0J262500D01*
G01*
G37*
G36*
G01*
X116886000Y-89162500D02*
X116886000Y-88637500D01*
G75*
G02*
X117148500Y-88375000I262500J0D01*
G01*
X117773500Y-88375000D01*
G75*
G02*
X118036000Y-88637500I0J-262500D01*
G01*
X118036000Y-89162500D01*
G75*
G02*
X117773500Y-89425000I-262500J0D01*
G01*
X117148500Y-89425000D01*
G75*
G02*
X116886000Y-89162500I0J262500D01*
G01*
G37*
G36*
G01*
X119475000Y-85081500D02*
X119475000Y-85606500D01*
G75*
G02*
X119212500Y-85869000I-262500J0D01*
G01*
X118587500Y-85869000D01*
G75*
G02*
X118325000Y-85606500I0J262500D01*
G01*
X118325000Y-85081500D01*
G75*
G02*
X118587500Y-84819000I262500J0D01*
G01*
X119212500Y-84819000D01*
G75*
G02*
X119475000Y-85081500I0J-262500D01*
G01*
G37*
G36*
G01*
X121225000Y-85081500D02*
X121225000Y-85606500D01*
G75*
G02*
X120962500Y-85869000I-262500J0D01*
G01*
X120337500Y-85869000D01*
G75*
G02*
X120075000Y-85606500I0J262500D01*
G01*
X120075000Y-85081500D01*
G75*
G02*
X120337500Y-84819000I262500J0D01*
G01*
X120962500Y-84819000D01*
G75*
G02*
X121225000Y-85081500I0J-262500D01*
G01*
G37*
G36*
G01*
X121225000Y-90923500D02*
X121225000Y-91448500D01*
G75*
G02*
X120962500Y-91711000I-262500J0D01*
G01*
X120337500Y-91711000D01*
G75*
G02*
X120075000Y-91448500I0J262500D01*
G01*
X120075000Y-90923500D01*
G75*
G02*
X120337500Y-90661000I262500J0D01*
G01*
X120962500Y-90661000D01*
G75*
G02*
X121225000Y-90923500I0J-262500D01*
G01*
G37*
G36*
G01*
X119475000Y-90923500D02*
X119475000Y-91448500D01*
G75*
G02*
X119212500Y-91711000I-262500J0D01*
G01*
X118587500Y-91711000D01*
G75*
G02*
X118325000Y-91448500I0J262500D01*
G01*
X118325000Y-90923500D01*
G75*
G02*
X118587500Y-90661000I262500J0D01*
G01*
X119212500Y-90661000D01*
G75*
G02*
X119475000Y-90923500I0J-262500D01*
G01*
G37*
G36*
G01*
X141065000Y-76953500D02*
X141065000Y-77478500D01*
G75*
G02*
X140802500Y-77741000I-262500J0D01*
G01*
X140177500Y-77741000D01*
G75*
G02*
X139915000Y-77478500I0J262500D01*
G01*
X139915000Y-76953500D01*
G75*
G02*
X140177500Y-76691000I262500J0D01*
G01*
X140802500Y-76691000D01*
G75*
G02*
X141065000Y-76953500I0J-262500D01*
G01*
G37*
G36*
G01*
X142815000Y-76953500D02*
X142815000Y-77478500D01*
G75*
G02*
X142552500Y-77741000I-262500J0D01*
G01*
X141927500Y-77741000D01*
G75*
G02*
X141665000Y-77478500I0J262500D01*
G01*
X141665000Y-76953500D01*
G75*
G02*
X141927500Y-76691000I262500J0D01*
G01*
X142552500Y-76691000D01*
G75*
G02*
X142815000Y-76953500I0J-262500D01*
G01*
G37*
G36*
G01*
X146230000Y-79747500D02*
X146230000Y-80272500D01*
G75*
G02*
X145967500Y-80535000I-262500J0D01*
G01*
X145342500Y-80535000D01*
G75*
G02*
X145080000Y-80272500I0J262500D01*
G01*
X145080000Y-79747500D01*
G75*
G02*
X145342500Y-79485000I262500J0D01*
G01*
X145967500Y-79485000D01*
G75*
G02*
X146230000Y-79747500I0J-262500D01*
G01*
G37*
G36*
G01*
X144480000Y-79747500D02*
X144480000Y-80272500D01*
G75*
G02*
X144217500Y-80535000I-262500J0D01*
G01*
X143592500Y-80535000D01*
G75*
G02*
X143330000Y-80272500I0J262500D01*
G01*
X143330000Y-79747500D01*
G75*
G02*
X143592500Y-79485000I262500J0D01*
G01*
X144217500Y-79485000D01*
G75*
G02*
X144480000Y-79747500I0J-262500D01*
G01*
G37*
G36*
G01*
X140924000Y-82287500D02*
X140924000Y-82812500D01*
G75*
G02*
X140661500Y-83075000I-262500J0D01*
G01*
X140036500Y-83075000D01*
G75*
G02*
X139774000Y-82812500I0J262500D01*
G01*
X139774000Y-82287500D01*
G75*
G02*
X140036500Y-82025000I262500J0D01*
G01*
X140661500Y-82025000D01*
G75*
G02*
X140924000Y-82287500I0J-262500D01*
G01*
G37*
G36*
G01*
X142674000Y-82287500D02*
X142674000Y-82812500D01*
G75*
G02*
X142411500Y-83075000I-262500J0D01*
G01*
X141786500Y-83075000D01*
G75*
G02*
X141524000Y-82812500I0J262500D01*
G01*
X141524000Y-82287500D01*
G75*
G02*
X141786500Y-82025000I262500J0D01*
G01*
X142411500Y-82025000D01*
G75*
G02*
X142674000Y-82287500I0J-262500D01*
G01*
G37*
G36*
G01*
X146230000Y-85081500D02*
X146230000Y-85606500D01*
G75*
G02*
X145967500Y-85869000I-262500J0D01*
G01*
X145342500Y-85869000D01*
G75*
G02*
X145080000Y-85606500I0J262500D01*
G01*
X145080000Y-85081500D01*
G75*
G02*
X145342500Y-84819000I262500J0D01*
G01*
X145967500Y-84819000D01*
G75*
G02*
X146230000Y-85081500I0J-262500D01*
G01*
G37*
G36*
G01*
X144480000Y-85081500D02*
X144480000Y-85606500D01*
G75*
G02*
X144217500Y-85869000I-262500J0D01*
G01*
X143592500Y-85869000D01*
G75*
G02*
X143330000Y-85606500I0J262500D01*
G01*
X143330000Y-85081500D01*
G75*
G02*
X143592500Y-84819000I262500J0D01*
G01*
X144217500Y-84819000D01*
G75*
G02*
X144480000Y-85081500I0J-262500D01*
G01*
G37*
D12*
G36*
X117752792Y-110950000D02*
G01*
X116480000Y-112222792D01*
X115207208Y-110950000D01*
X116480000Y-109677208D01*
X117752792Y-110950000D01*
G37*
G36*
G01*
X118912447Y-109790345D02*
X118912447Y-109790345D01*
G75*
G02*
X117639655Y-109790345I-636396J636396D01*
G01*
X117639655Y-109790345D01*
G75*
G02*
X117639655Y-108517553I636396J636396D01*
G01*
X117639655Y-108517553D01*
G75*
G02*
X118912447Y-108517553I636396J-636396D01*
G01*
X118912447Y-108517553D01*
G75*
G02*
X118912447Y-109790345I-636396J-636396D01*
G01*
G37*
G36*
G01*
X120708498Y-107994294D02*
X120708498Y-107994294D01*
G75*
G02*
X119435706Y-107994294I-636396J636396D01*
G01*
X119435706Y-107994294D01*
G75*
G02*
X119435706Y-106721502I636396J636396D01*
G01*
X119435706Y-106721502D01*
G75*
G02*
X120708498Y-106721502I636396J-636396D01*
G01*
X120708498Y-106721502D01*
G75*
G02*
X120708498Y-107994294I-636396J-636396D01*
G01*
G37*
G36*
G01*
X122504550Y-106198242D02*
X122504550Y-106198242D01*
G75*
G02*
X121231758Y-106198242I-636396J636396D01*
G01*
X121231758Y-106198242D01*
G75*
G02*
X121231758Y-104925450I636396J636396D01*
G01*
X121231758Y-104925450D01*
G75*
G02*
X122504550Y-104925450I636396J-636396D01*
G01*
X122504550Y-104925450D01*
G75*
G02*
X122504550Y-106198242I-636396J-636396D01*
G01*
G37*
G36*
G01*
X124300601Y-104402191D02*
X124300601Y-104402191D01*
G75*
G02*
X123027809Y-104402191I-636396J636396D01*
G01*
X123027809Y-104402191D01*
G75*
G02*
X123027809Y-103129399I636396J636396D01*
G01*
X123027809Y-103129399D01*
G75*
G02*
X124300601Y-103129399I636396J-636396D01*
G01*
X124300601Y-103129399D01*
G75*
G02*
X124300601Y-104402191I-636396J-636396D01*
G01*
G37*
G36*
G01*
X107227809Y-77420601D02*
X107227809Y-77420601D01*
G75*
G02*
X107227809Y-76147809I636396J636396D01*
G01*
X107227809Y-76147809D01*
G75*
G02*
X108500601Y-76147809I636396J-636396D01*
G01*
X108500601Y-76147809D01*
G75*
G02*
X108500601Y-77420601I-636396J-636396D01*
G01*
X108500601Y-77420601D01*
G75*
G02*
X107227809Y-77420601I-636396J636396D01*
G01*
G37*
G36*
G01*
X105431758Y-75624550D02*
X105431758Y-75624550D01*
G75*
G02*
X105431758Y-74351758I636396J636396D01*
G01*
X105431758Y-74351758D01*
G75*
G02*
X106704550Y-74351758I636396J-636396D01*
G01*
X106704550Y-74351758D01*
G75*
G02*
X106704550Y-75624550I-636396J-636396D01*
G01*
X106704550Y-75624550D01*
G75*
G02*
X105431758Y-75624550I-636396J636396D01*
G01*
G37*
G36*
G01*
X103635706Y-73828498D02*
X103635706Y-73828498D01*
G75*
G02*
X103635706Y-72555706I636396J636396D01*
G01*
X103635706Y-72555706D01*
G75*
G02*
X104908498Y-72555706I636396J-636396D01*
G01*
X104908498Y-72555706D01*
G75*
G02*
X104908498Y-73828498I-636396J-636396D01*
G01*
X104908498Y-73828498D01*
G75*
G02*
X103635706Y-73828498I-636396J636396D01*
G01*
G37*
G36*
G01*
X101839655Y-72032447D02*
X101839655Y-72032447D01*
G75*
G02*
X101839655Y-70759655I636396J636396D01*
G01*
X101839655Y-70759655D01*
G75*
G02*
X103112447Y-70759655I636396J-636396D01*
G01*
X103112447Y-70759655D01*
G75*
G02*
X103112447Y-72032447I-636396J-636396D01*
G01*
X103112447Y-72032447D01*
G75*
G02*
X101839655Y-72032447I-636396J636396D01*
G01*
G37*
G36*
X100680000Y-70872792D02*
G01*
X99407208Y-69600000D01*
X100680000Y-68327208D01*
X101952792Y-69600000D01*
X100680000Y-70872792D01*
G37*
G36*
X155980000Y-93827208D02*
G01*
X157252792Y-95100000D01*
X155980000Y-96372792D01*
X154707208Y-95100000D01*
X155980000Y-93827208D01*
G37*
G36*
G01*
X154820345Y-92667553D02*
X154820345Y-92667553D01*
G75*
G02*
X154820345Y-93940345I-636396J-636396D01*
G01*
X154820345Y-93940345D01*
G75*
G02*
X153547553Y-93940345I-636396J636396D01*
G01*
X153547553Y-93940345D01*
G75*
G02*
X153547553Y-92667553I636396J636396D01*
G01*
X153547553Y-92667553D01*
G75*
G02*
X154820345Y-92667553I636396J-636396D01*
G01*
G37*
G36*
G01*
X153024294Y-90871502D02*
X153024294Y-90871502D01*
G75*
G02*
X153024294Y-92144294I-636396J-636396D01*
G01*
X153024294Y-92144294D01*
G75*
G02*
X151751502Y-92144294I-636396J636396D01*
G01*
X151751502Y-92144294D01*
G75*
G02*
X151751502Y-90871502I636396J636396D01*
G01*
X151751502Y-90871502D01*
G75*
G02*
X153024294Y-90871502I636396J-636396D01*
G01*
G37*
G36*
G01*
X151228242Y-89075450D02*
X151228242Y-89075450D01*
G75*
G02*
X151228242Y-90348242I-636396J-636396D01*
G01*
X151228242Y-90348242D01*
G75*
G02*
X149955450Y-90348242I-636396J636396D01*
G01*
X149955450Y-90348242D01*
G75*
G02*
X149955450Y-89075450I636396J636396D01*
G01*
X149955450Y-89075450D01*
G75*
G02*
X151228242Y-89075450I636396J-636396D01*
G01*
G37*
G36*
G01*
X149432191Y-87279399D02*
X149432191Y-87279399D01*
G75*
G02*
X149432191Y-88552191I-636396J-636396D01*
G01*
X149432191Y-88552191D01*
G75*
G02*
X148159399Y-88552191I-636396J636396D01*
G01*
X148159399Y-88552191D01*
G75*
G02*
X148159399Y-87279399I636396J636396D01*
G01*
X148159399Y-87279399D01*
G75*
G02*
X149432191Y-87279399I636396J-636396D01*
G01*
G37*
D15*
X124470000Y-73630000D03*
D16*
X132090000Y-91410000D03*
X124470000Y-76170000D03*
X132090000Y-88870000D03*
X124470000Y-78710000D03*
X132090000Y-86330000D03*
X124470000Y-81250000D03*
X132090000Y-83790000D03*
X124470000Y-83790000D03*
X132090000Y-81250000D03*
X124470000Y-86330000D03*
X132090000Y-78710000D03*
X124470000Y-88870000D03*
X132090000Y-76170000D03*
X124470000Y-91410000D03*
X132090000Y-73630000D03*
D17*
X126460000Y-54470000D03*
X131020000Y-54356000D03*
G36*
G01*
X125409000Y-98814500D02*
X125409000Y-98289500D01*
G75*
G02*
X125671500Y-98027000I262500J0D01*
G01*
X126296500Y-98027000D01*
G75*
G02*
X126559000Y-98289500I0J-262500D01*
G01*
X126559000Y-98814500D01*
G75*
G02*
X126296500Y-99077000I-262500J0D01*
G01*
X125671500Y-99077000D01*
G75*
G02*
X125409000Y-98814500I0J262500D01*
G01*
G37*
G36*
G01*
X123659000Y-98814500D02*
X123659000Y-98289500D01*
G75*
G02*
X123921500Y-98027000I262500J0D01*
G01*
X124546500Y-98027000D01*
G75*
G02*
X124809000Y-98289500I0J-262500D01*
G01*
X124809000Y-98814500D01*
G75*
G02*
X124546500Y-99077000I-262500J0D01*
G01*
X123921500Y-99077000D01*
G75*
G02*
X123659000Y-98814500I0J262500D01*
G01*
G37*
G36*
G01*
X126707000Y-64016500D02*
X126707000Y-63491500D01*
G75*
G02*
X126969500Y-63229000I262500J0D01*
G01*
X127594500Y-63229000D01*
G75*
G02*
X127857000Y-63491500I0J-262500D01*
G01*
X127857000Y-64016500D01*
G75*
G02*
X127594500Y-64279000I-262500J0D01*
G01*
X126969500Y-64279000D01*
G75*
G02*
X126707000Y-64016500I0J262500D01*
G01*
G37*
G36*
G01*
X128457000Y-64016500D02*
X128457000Y-63491500D01*
G75*
G02*
X128719500Y-63229000I262500J0D01*
G01*
X129344500Y-63229000D01*
G75*
G02*
X129607000Y-63491500I0J-262500D01*
G01*
X129607000Y-64016500D01*
G75*
G02*
X129344500Y-64279000I-262500J0D01*
G01*
X128719500Y-64279000D01*
G75*
G02*
X128457000Y-64016500I0J262500D01*
G01*
G37*
G36*
G01*
X136606000Y-92701500D02*
X136606000Y-93226500D01*
G75*
G02*
X136343500Y-93489000I-262500J0D01*
G01*
X135718500Y-93489000D01*
G75*
G02*
X135456000Y-93226500I0J262500D01*
G01*
X135456000Y-92701500D01*
G75*
G02*
X135718500Y-92439000I262500J0D01*
G01*
X136343500Y-92439000D01*
G75*
G02*
X136606000Y-92701500I0J-262500D01*
G01*
G37*
G36*
G01*
X138356000Y-92701500D02*
X138356000Y-93226500D01*
G75*
G02*
X138093500Y-93489000I-262500J0D01*
G01*
X137468500Y-93489000D01*
G75*
G02*
X137206000Y-93226500I0J262500D01*
G01*
X137206000Y-92701500D01*
G75*
G02*
X137468500Y-92439000I262500J0D01*
G01*
X138093500Y-92439000D01*
G75*
G02*
X138356000Y-92701500I0J-262500D01*
G01*
G37*
G36*
G01*
X114113000Y-85589500D02*
X114113000Y-86114500D01*
G75*
G02*
X113850500Y-86377000I-262500J0D01*
G01*
X113225500Y-86377000D01*
G75*
G02*
X112963000Y-86114500I0J262500D01*
G01*
X112963000Y-85589500D01*
G75*
G02*
X113225500Y-85327000I262500J0D01*
G01*
X113850500Y-85327000D01*
G75*
G02*
X114113000Y-85589500I0J-262500D01*
G01*
G37*
G36*
G01*
X112363000Y-85589500D02*
X112363000Y-86114500D01*
G75*
G02*
X112100500Y-86377000I-262500J0D01*
G01*
X111475500Y-86377000D01*
G75*
G02*
X111213000Y-86114500I0J262500D01*
G01*
X111213000Y-85589500D01*
G75*
G02*
X111475500Y-85327000I262500J0D01*
G01*
X112100500Y-85327000D01*
G75*
G02*
X112363000Y-85589500I0J-262500D01*
G01*
G37*
D18*
X154432000Y-56134000D03*
X154686000Y-109474000D03*
X102362000Y-56642000D03*
X101854000Y-109220000D03*
M02*
