M48
; DRILL file {KiCad (5.1.6-0-10_14)} date Thursday, January 06, 2022 at 10:33:27 PM
; FORMAT={-:-/ absolute / metric / decimal}
; #@! TF.CreationDate,2022-01-06T22:33:27-06:00
; #@! TF.GenerationSoftware,Kicad,Pcbnew,(5.1.6-0-10_14)
; #@! TF.FileFunction,Plated,1,4,PTH
FMAT,2
METRIC
T1C0.800
T2C1.000
T3C1.300
%
G90
G05
T1
X124.47Y-73.63
X124.47Y-76.17
X124.47Y-78.71
X124.47Y-81.25
X124.47Y-83.79
X124.47Y-86.33
X124.47Y-88.87
X124.47Y-91.41
X132.09Y-73.63
X132.09Y-76.17
X132.09Y-78.71
X132.09Y-81.25
X132.09Y-83.79
X132.09Y-86.33
X132.09Y-88.87
X132.09Y-91.41
T2
X116.48Y-110.95
X118.276Y-109.154
X120.072Y-107.358
X121.868Y-105.562
X123.664Y-103.766
X148.796Y-87.916
X150.592Y-89.712
X152.388Y-91.508
X154.184Y-93.304
X155.98Y-95.1
X100.68Y-69.6
X102.476Y-71.396
X104.272Y-73.192
X106.068Y-74.988
X107.864Y-76.784
X132.596Y-60.914
X134.392Y-59.118
X136.188Y-57.322
X137.984Y-55.526
X139.78Y-53.73
X136.98Y-77.36
X136.98Y-79.9
X136.98Y-82.44
X136.98Y-84.98
X136.98Y-87.52
T3
X126.46Y-54.47
X131.02Y-54.356
T0
M30
