%TF.GenerationSoftware,KiCad,Pcbnew,(5.1.6-0-10_14)*%
%TF.CreationDate,2022-05-20T12:20:58-05:00*%
%TF.ProjectId,programmer_adapter,70726f67-7261-46d6-9d65-725f61646170,rev?*%
%TF.SameCoordinates,Original*%
%TF.FileFunction,Legend,Bot*%
%TF.FilePolarity,Positive*%
%FSLAX46Y46*%
G04 Gerber Fmt 4.6, Leading zero omitted, Abs format (unit mm)*
G04 Created by KiCad (PCBNEW (5.1.6-0-10_14)) date 2022-05-20 12:20:58*
%MOMM*%
%LPD*%
G01*
G04 APERTURE LIST*
%ADD10C,0.150000*%
%ADD11R,1.800000X1.800000*%
%ADD12O,1.800000X1.800000*%
%ADD13R,1.100000X1.100000*%
%ADD14O,1.100000X1.100000*%
G04 APERTURE END LIST*
D10*
X74634580Y-59252790D02*
X73634580Y-59252790D01*
X73634580Y-59633742D01*
X73682200Y-59728980D01*
X73729819Y-59776600D01*
X73825057Y-59824219D01*
X73967914Y-59824219D01*
X74063152Y-59776600D01*
X74110771Y-59728980D01*
X74158390Y-59633742D01*
X74158390Y-59252790D01*
X74634580Y-60252790D02*
X73967914Y-60252790D01*
X74158390Y-60252790D02*
X74063152Y-60300409D01*
X74015533Y-60348028D01*
X73967914Y-60443266D01*
X73967914Y-60538504D01*
X74634580Y-61014695D02*
X74586961Y-60919457D01*
X74539342Y-60871838D01*
X74444104Y-60824219D01*
X74158390Y-60824219D01*
X74063152Y-60871838D01*
X74015533Y-60919457D01*
X73967914Y-61014695D01*
X73967914Y-61157552D01*
X74015533Y-61252790D01*
X74063152Y-61300409D01*
X74158390Y-61348028D01*
X74444104Y-61348028D01*
X74539342Y-61300409D01*
X74586961Y-61252790D01*
X74634580Y-61157552D01*
X74634580Y-61014695D01*
X73967914Y-62205171D02*
X74777438Y-62205171D01*
X74872676Y-62157552D01*
X74920295Y-62109933D01*
X74967914Y-62014695D01*
X74967914Y-61871838D01*
X74920295Y-61776600D01*
X74586961Y-62205171D02*
X74634580Y-62109933D01*
X74634580Y-61919457D01*
X74586961Y-61824219D01*
X74539342Y-61776600D01*
X74444104Y-61728980D01*
X74158390Y-61728980D01*
X74063152Y-61776600D01*
X74015533Y-61824219D01*
X73967914Y-61919457D01*
X73967914Y-62109933D01*
X74015533Y-62205171D01*
X74634580Y-62681361D02*
X73967914Y-62681361D01*
X74158390Y-62681361D02*
X74063152Y-62728980D01*
X74015533Y-62776600D01*
X73967914Y-62871838D01*
X73967914Y-62967076D01*
X74634580Y-63728980D02*
X74110771Y-63728980D01*
X74015533Y-63681361D01*
X73967914Y-63586123D01*
X73967914Y-63395647D01*
X74015533Y-63300409D01*
X74586961Y-63728980D02*
X74634580Y-63633742D01*
X74634580Y-63395647D01*
X74586961Y-63300409D01*
X74491723Y-63252790D01*
X74396485Y-63252790D01*
X74301247Y-63300409D01*
X74253628Y-63395647D01*
X74253628Y-63633742D01*
X74206009Y-63728980D01*
X74634580Y-64205171D02*
X73967914Y-64205171D01*
X74063152Y-64205171D02*
X74015533Y-64252790D01*
X73967914Y-64348028D01*
X73967914Y-64490885D01*
X74015533Y-64586123D01*
X74110771Y-64633742D01*
X74634580Y-64633742D01*
X74110771Y-64633742D02*
X74015533Y-64681361D01*
X73967914Y-64776600D01*
X73967914Y-64919457D01*
X74015533Y-65014695D01*
X74110771Y-65062314D01*
X74634580Y-65062314D01*
X74634580Y-65538504D02*
X73967914Y-65538504D01*
X74063152Y-65538504D02*
X74015533Y-65586123D01*
X73967914Y-65681361D01*
X73967914Y-65824219D01*
X74015533Y-65919457D01*
X74110771Y-65967076D01*
X74634580Y-65967076D01*
X74110771Y-65967076D02*
X74015533Y-66014695D01*
X73967914Y-66109933D01*
X73967914Y-66252790D01*
X74015533Y-66348028D01*
X74110771Y-66395647D01*
X74634580Y-66395647D01*
X74586961Y-67252790D02*
X74634580Y-67157552D01*
X74634580Y-66967076D01*
X74586961Y-66871838D01*
X74491723Y-66824219D01*
X74110771Y-66824219D01*
X74015533Y-66871838D01*
X73967914Y-66967076D01*
X73967914Y-67157552D01*
X74015533Y-67252790D01*
X74110771Y-67300409D01*
X74206009Y-67300409D01*
X74301247Y-66824219D01*
X74634580Y-67728980D02*
X73967914Y-67728980D01*
X74158390Y-67728980D02*
X74063152Y-67776600D01*
X74015533Y-67824219D01*
X73967914Y-67919457D01*
X73967914Y-68014695D01*
X74634580Y-69538504D02*
X74110771Y-69538504D01*
X74015533Y-69490885D01*
X73967914Y-69395647D01*
X73967914Y-69205171D01*
X74015533Y-69109933D01*
X74586961Y-69538504D02*
X74634580Y-69443266D01*
X74634580Y-69205171D01*
X74586961Y-69109933D01*
X74491723Y-69062314D01*
X74396485Y-69062314D01*
X74301247Y-69109933D01*
X74253628Y-69205171D01*
X74253628Y-69443266D01*
X74206009Y-69538504D01*
X74634580Y-70443266D02*
X73634580Y-70443266D01*
X74586961Y-70443266D02*
X74634580Y-70348028D01*
X74634580Y-70157552D01*
X74586961Y-70062314D01*
X74539342Y-70014695D01*
X74444104Y-69967076D01*
X74158390Y-69967076D01*
X74063152Y-70014695D01*
X74015533Y-70062314D01*
X73967914Y-70157552D01*
X73967914Y-70348028D01*
X74015533Y-70443266D01*
X74634580Y-71348028D02*
X74110771Y-71348028D01*
X74015533Y-71300409D01*
X73967914Y-71205171D01*
X73967914Y-71014695D01*
X74015533Y-70919457D01*
X74586961Y-71348028D02*
X74634580Y-71252790D01*
X74634580Y-71014695D01*
X74586961Y-70919457D01*
X74491723Y-70871838D01*
X74396485Y-70871838D01*
X74301247Y-70919457D01*
X74253628Y-71014695D01*
X74253628Y-71252790D01*
X74206009Y-71348028D01*
X73967914Y-71824219D02*
X74967914Y-71824219D01*
X74015533Y-71824219D02*
X73967914Y-71919457D01*
X73967914Y-72109933D01*
X74015533Y-72205171D01*
X74063152Y-72252790D01*
X74158390Y-72300409D01*
X74444104Y-72300409D01*
X74539342Y-72252790D01*
X74586961Y-72205171D01*
X74634580Y-72109933D01*
X74634580Y-71919457D01*
X74586961Y-71824219D01*
X73967914Y-72586123D02*
X73967914Y-72967076D01*
X73634580Y-72728980D02*
X74491723Y-72728980D01*
X74586961Y-72776600D01*
X74634580Y-72871838D01*
X74634580Y-72967076D01*
X74586961Y-73681361D02*
X74634580Y-73586123D01*
X74634580Y-73395647D01*
X74586961Y-73300409D01*
X74491723Y-73252790D01*
X74110771Y-73252790D01*
X74015533Y-73300409D01*
X73967914Y-73395647D01*
X73967914Y-73586123D01*
X74015533Y-73681361D01*
X74110771Y-73728980D01*
X74206009Y-73728980D01*
X74301247Y-73252790D01*
X74634580Y-74157552D02*
X73967914Y-74157552D01*
X74158390Y-74157552D02*
X74063152Y-74205171D01*
X74015533Y-74252790D01*
X73967914Y-74348028D01*
X73967914Y-74443266D01*
X76236961Y-61300409D02*
X76284580Y-61443266D01*
X76284580Y-61681361D01*
X76236961Y-61776600D01*
X76189342Y-61824219D01*
X76094104Y-61871838D01*
X75998866Y-61871838D01*
X75903628Y-61824219D01*
X75856009Y-61776600D01*
X75808390Y-61681361D01*
X75760771Y-61490885D01*
X75713152Y-61395647D01*
X75665533Y-61348028D01*
X75570295Y-61300409D01*
X75475057Y-61300409D01*
X75379819Y-61348028D01*
X75332200Y-61395647D01*
X75284580Y-61490885D01*
X75284580Y-61728980D01*
X75332200Y-61871838D01*
X75617914Y-62300409D02*
X76617914Y-62300409D01*
X75665533Y-62300409D02*
X75617914Y-62395647D01*
X75617914Y-62586123D01*
X75665533Y-62681361D01*
X75713152Y-62728980D01*
X75808390Y-62776600D01*
X76094104Y-62776600D01*
X76189342Y-62728980D01*
X76236961Y-62681361D01*
X76284580Y-62586123D01*
X76284580Y-62395647D01*
X76236961Y-62300409D01*
X76236961Y-63586123D02*
X76284580Y-63490885D01*
X76284580Y-63300409D01*
X76236961Y-63205171D01*
X76141723Y-63157552D01*
X75760771Y-63157552D01*
X75665533Y-63205171D01*
X75617914Y-63300409D01*
X75617914Y-63490885D01*
X75665533Y-63586123D01*
X75760771Y-63633742D01*
X75856009Y-63633742D01*
X75951247Y-63157552D01*
X75617914Y-64062314D02*
X76284580Y-64062314D01*
X75713152Y-64062314D02*
X75665533Y-64109933D01*
X75617914Y-64205171D01*
X75617914Y-64348028D01*
X75665533Y-64443266D01*
X75760771Y-64490885D01*
X76284580Y-64490885D01*
X76236961Y-65395647D02*
X76284580Y-65300409D01*
X76284580Y-65109933D01*
X76236961Y-65014695D01*
X76189342Y-64967076D01*
X76094104Y-64919457D01*
X75808390Y-64919457D01*
X75713152Y-64967076D01*
X75665533Y-65014695D01*
X75617914Y-65109933D01*
X75617914Y-65300409D01*
X75665533Y-65395647D01*
X76236961Y-66205171D02*
X76284580Y-66109933D01*
X76284580Y-65919457D01*
X76236961Y-65824219D01*
X76141723Y-65776600D01*
X75760771Y-65776600D01*
X75665533Y-65824219D01*
X75617914Y-65919457D01*
X75617914Y-66109933D01*
X75665533Y-66205171D01*
X75760771Y-66252790D01*
X75856009Y-66252790D01*
X75951247Y-65776600D01*
X76284580Y-66681361D02*
X75617914Y-66681361D01*
X75808390Y-66681361D02*
X75713152Y-66728980D01*
X75665533Y-66776600D01*
X75617914Y-66871838D01*
X75617914Y-66967076D01*
X75284580Y-67967076D02*
X76284580Y-68205171D01*
X75570295Y-68395647D01*
X76284580Y-68586123D01*
X75284580Y-68824219D01*
X76284580Y-69205171D02*
X75617914Y-69205171D01*
X75808390Y-69205171D02*
X75713152Y-69252790D01*
X75665533Y-69300409D01*
X75617914Y-69395647D01*
X75617914Y-69490885D01*
X76284580Y-69824219D02*
X75617914Y-69824219D01*
X75284580Y-69824219D02*
X75332200Y-69776600D01*
X75379819Y-69824219D01*
X75332200Y-69871838D01*
X75284580Y-69824219D01*
X75379819Y-69824219D01*
X75617914Y-70728980D02*
X76427438Y-70728980D01*
X76522676Y-70681361D01*
X76570295Y-70633742D01*
X76617914Y-70538504D01*
X76617914Y-70395647D01*
X76570295Y-70300409D01*
X76236961Y-70728980D02*
X76284580Y-70633742D01*
X76284580Y-70443266D01*
X76236961Y-70348028D01*
X76189342Y-70300409D01*
X76094104Y-70252790D01*
X75808390Y-70252790D01*
X75713152Y-70300409D01*
X75665533Y-70348028D01*
X75617914Y-70443266D01*
X75617914Y-70633742D01*
X75665533Y-70728980D01*
X76284580Y-71205171D02*
X75284580Y-71205171D01*
X76284580Y-71633742D02*
X75760771Y-71633742D01*
X75665533Y-71586123D01*
X75617914Y-71490885D01*
X75617914Y-71348028D01*
X75665533Y-71252790D01*
X75713152Y-71205171D01*
X75617914Y-71967076D02*
X75617914Y-72348028D01*
X75284580Y-72109933D02*
X76141723Y-72109933D01*
X76236961Y-72157552D01*
X76284580Y-72252790D01*
X76284580Y-72348028D01*
X77267914Y-64109933D02*
X77553628Y-63348028D01*
X77839342Y-64109933D01*
X76934580Y-64490885D02*
X76934580Y-65109933D01*
X77315533Y-64776600D01*
X77315533Y-64919457D01*
X77363152Y-65014695D01*
X77410771Y-65062314D01*
X77506009Y-65109933D01*
X77744104Y-65109933D01*
X77839342Y-65062314D01*
X77886961Y-65014695D01*
X77934580Y-64919457D01*
X77934580Y-64633742D01*
X77886961Y-64538504D01*
X77839342Y-64490885D01*
X77839342Y-66871838D02*
X77886961Y-66824219D01*
X77934580Y-66681361D01*
X77934580Y-66586123D01*
X77886961Y-66443266D01*
X77791723Y-66348028D01*
X77696485Y-66300409D01*
X77506009Y-66252790D01*
X77363152Y-66252790D01*
X77172676Y-66300409D01*
X77077438Y-66348028D01*
X76982200Y-66443266D01*
X76934580Y-66586123D01*
X76934580Y-66681361D01*
X76982200Y-66824219D01*
X77029819Y-66871838D01*
X77934580Y-67443266D02*
X77886961Y-67348028D01*
X77791723Y-67300409D01*
X76934580Y-67300409D01*
X77934580Y-68252790D02*
X77410771Y-68252790D01*
X77315533Y-68205171D01*
X77267914Y-68109933D01*
X77267914Y-67919457D01*
X77315533Y-67824219D01*
X77886961Y-68252790D02*
X77934580Y-68157552D01*
X77934580Y-67919457D01*
X77886961Y-67824219D01*
X77791723Y-67776600D01*
X77696485Y-67776600D01*
X77601247Y-67824219D01*
X77553628Y-67919457D01*
X77553628Y-68157552D01*
X77506009Y-68252790D01*
X77934580Y-68728980D02*
X77267914Y-68728980D01*
X76934580Y-68728980D02*
X76982200Y-68681361D01*
X77029819Y-68728980D01*
X76982200Y-68776600D01*
X76934580Y-68728980D01*
X77029819Y-68728980D01*
X77934580Y-69205171D02*
X77267914Y-69205171D01*
X77458390Y-69205171D02*
X77363152Y-69252790D01*
X77315533Y-69300409D01*
X77267914Y-69395647D01*
X77267914Y-69490885D01*
X77886961Y-70205171D02*
X77934580Y-70109933D01*
X77934580Y-69919457D01*
X77886961Y-69824219D01*
X77791723Y-69776600D01*
X77410771Y-69776600D01*
X77315533Y-69824219D01*
X77267914Y-69919457D01*
X77267914Y-70109933D01*
X77315533Y-70205171D01*
X77410771Y-70252790D01*
X77506009Y-70252790D01*
X77601247Y-69776600D01*
X78584580Y-61824219D02*
X78584580Y-61919457D01*
X78632200Y-62014695D01*
X78679819Y-62062314D01*
X78775057Y-62109933D01*
X78965533Y-62157552D01*
X79203628Y-62157552D01*
X79394104Y-62109933D01*
X79489342Y-62062314D01*
X79536961Y-62014695D01*
X79584580Y-61919457D01*
X79584580Y-61824219D01*
X79536961Y-61728980D01*
X79489342Y-61681361D01*
X79394104Y-61633742D01*
X79203628Y-61586123D01*
X78965533Y-61586123D01*
X78775057Y-61633742D01*
X78679819Y-61681361D01*
X78632200Y-61728980D01*
X78584580Y-61824219D01*
X78584580Y-63062314D02*
X78584580Y-62586123D01*
X79060771Y-62538504D01*
X79013152Y-62586123D01*
X78965533Y-62681361D01*
X78965533Y-62919457D01*
X79013152Y-63014695D01*
X79060771Y-63062314D01*
X79156009Y-63109933D01*
X79394104Y-63109933D01*
X79489342Y-63062314D01*
X79536961Y-63014695D01*
X79584580Y-62919457D01*
X79584580Y-62681361D01*
X79536961Y-62586123D01*
X79489342Y-62538504D01*
X78536961Y-64252790D02*
X79822676Y-63395647D01*
X78536961Y-65300409D02*
X79822676Y-64443266D01*
X78679819Y-65586123D02*
X78632200Y-65633742D01*
X78584580Y-65728980D01*
X78584580Y-65967076D01*
X78632200Y-66062314D01*
X78679819Y-66109933D01*
X78775057Y-66157552D01*
X78870295Y-66157552D01*
X79013152Y-66109933D01*
X79584580Y-65538504D01*
X79584580Y-66157552D01*
X78584580Y-66776600D02*
X78584580Y-66871838D01*
X78632200Y-66967076D01*
X78679819Y-67014695D01*
X78775057Y-67062314D01*
X78965533Y-67109933D01*
X79203628Y-67109933D01*
X79394104Y-67062314D01*
X79489342Y-67014695D01*
X79536961Y-66967076D01*
X79584580Y-66871838D01*
X79584580Y-66776600D01*
X79536961Y-66681361D01*
X79489342Y-66633742D01*
X79394104Y-66586123D01*
X79203628Y-66538504D01*
X78965533Y-66538504D01*
X78775057Y-66586123D01*
X78679819Y-66633742D01*
X78632200Y-66681361D01*
X78584580Y-66776600D01*
X78536961Y-68252790D02*
X79822676Y-67395647D01*
X78679819Y-68538504D02*
X78632200Y-68586123D01*
X78584580Y-68681361D01*
X78584580Y-68919457D01*
X78632200Y-69014695D01*
X78679819Y-69062314D01*
X78775057Y-69109933D01*
X78870295Y-69109933D01*
X79013152Y-69062314D01*
X79584580Y-68490885D01*
X79584580Y-69109933D01*
X78584580Y-69728980D02*
X78584580Y-69824219D01*
X78632200Y-69919457D01*
X78679819Y-69967076D01*
X78775057Y-70014695D01*
X78965533Y-70062314D01*
X79203628Y-70062314D01*
X79394104Y-70014695D01*
X79489342Y-69967076D01*
X79536961Y-69919457D01*
X79584580Y-69824219D01*
X79584580Y-69728980D01*
X79536961Y-69633742D01*
X79489342Y-69586123D01*
X79394104Y-69538504D01*
X79203628Y-69490885D01*
X78965533Y-69490885D01*
X78775057Y-69538504D01*
X78679819Y-69586123D01*
X78632200Y-69633742D01*
X78584580Y-69728980D01*
X78679819Y-70443266D02*
X78632200Y-70490885D01*
X78584580Y-70586123D01*
X78584580Y-70824219D01*
X78632200Y-70919457D01*
X78679819Y-70967076D01*
X78775057Y-71014695D01*
X78870295Y-71014695D01*
X79013152Y-70967076D01*
X79584580Y-70395647D01*
X79584580Y-71014695D01*
X78679819Y-71395647D02*
X78632200Y-71443266D01*
X78584580Y-71538504D01*
X78584580Y-71776600D01*
X78632200Y-71871838D01*
X78679819Y-71919457D01*
X78775057Y-71967076D01*
X78870295Y-71967076D01*
X79013152Y-71919457D01*
X79584580Y-71348028D01*
X79584580Y-71967076D01*
%LPC*%
D11*
X69230000Y-54530000D03*
D12*
X71770000Y-54530000D03*
X69230000Y-57070000D03*
X71770000Y-57070000D03*
X69230000Y-59610000D03*
X71770000Y-59610000D03*
X69230000Y-62150000D03*
X71770000Y-62150000D03*
X69230000Y-64690000D03*
X71770000Y-64690000D03*
X69230000Y-67230000D03*
X71770000Y-67230000D03*
X69230000Y-69770000D03*
X71770000Y-69770000D03*
X69230000Y-72310000D03*
X71770000Y-72310000D03*
X69230000Y-74850000D03*
X71770000Y-74850000D03*
X69230000Y-77390000D03*
X71770000Y-77390000D03*
D13*
X81991200Y-64795400D03*
D14*
X83261200Y-64795400D03*
X81991200Y-66065400D03*
X83261200Y-66065400D03*
X81991200Y-67335400D03*
X83261200Y-67335400D03*
X81991200Y-68605400D03*
X83261200Y-68605400D03*
M02*
