%TF.GenerationSoftware,KiCad,Pcbnew,(5.1.6-0-10_14)*%
%TF.CreationDate,2022-06-04T16:36:40-05:00*%
%TF.ProjectId,programmer_adapter_v2,70726f67-7261-46d6-9d65-725f61646170,rev?*%
%TF.SameCoordinates,Original*%
%TF.FileFunction,Copper,L3,Inr*%
%TF.FilePolarity,Positive*%
%FSLAX46Y46*%
G04 Gerber Fmt 4.6, Leading zero omitted, Abs format (unit mm)*
G04 Created by KiCad (PCBNEW (5.1.6-0-10_14)) date 2022-06-04 16:36:40*
%MOMM*%
%LPD*%
G01*
G04 APERTURE LIST*
%TA.AperFunction,ViaPad*%
%ADD10R,1.700000X1.700000*%
%TD*%
%TA.AperFunction,ViaPad*%
%ADD11O,1.700000X1.700000*%
%TD*%
%TA.AperFunction,Conductor*%
%ADD12C,0.254000*%
%TD*%
G04 APERTURE END LIST*
D10*
X69230000Y-54530000D03*
D11*
X71770000Y-54530000D03*
X69230000Y-57070000D03*
X71770000Y-57070000D03*
X69230000Y-59610000D03*
X71770000Y-59610000D03*
X69230000Y-62150000D03*
X71770000Y-62150000D03*
X69230000Y-64690000D03*
X71770000Y-64690000D03*
X69230000Y-67230000D03*
X71770000Y-67230000D03*
X69230000Y-69770000D03*
X71770000Y-69770000D03*
X69230000Y-72310000D03*
X71770000Y-72310000D03*
X69230000Y-74850000D03*
X71770000Y-74850000D03*
X69230000Y-77390000D03*
X71770000Y-77390000D03*
D10*
X80240000Y-62920000D03*
D11*
X82780000Y-62920000D03*
X80240000Y-65460000D03*
X82780000Y-65460000D03*
X80240000Y-68000000D03*
X82780000Y-68000000D03*
X80240000Y-70540000D03*
X82780000Y-70540000D03*
D12*
G36*
X85400001Y-61853464D02*
G01*
X85400000Y-71466619D01*
X74976620Y-81890000D01*
X66700000Y-81890000D01*
X66700000Y-53680000D01*
X67741928Y-53680000D01*
X67741928Y-55380000D01*
X67754188Y-55504482D01*
X67790498Y-55624180D01*
X67849463Y-55734494D01*
X67928815Y-55831185D01*
X68025506Y-55910537D01*
X68135820Y-55969502D01*
X68208380Y-55991513D01*
X68076525Y-56123368D01*
X67914010Y-56366589D01*
X67802068Y-56636842D01*
X67745000Y-56923740D01*
X67745000Y-57216260D01*
X67802068Y-57503158D01*
X67914010Y-57773411D01*
X68076525Y-58016632D01*
X68283368Y-58223475D01*
X68457760Y-58340000D01*
X68283368Y-58456525D01*
X68076525Y-58663368D01*
X67914010Y-58906589D01*
X67802068Y-59176842D01*
X67745000Y-59463740D01*
X67745000Y-59756260D01*
X67802068Y-60043158D01*
X67914010Y-60313411D01*
X68076525Y-60556632D01*
X68283368Y-60763475D01*
X68457760Y-60880000D01*
X68283368Y-60996525D01*
X68076525Y-61203368D01*
X67914010Y-61446589D01*
X67802068Y-61716842D01*
X67745000Y-62003740D01*
X67745000Y-62296260D01*
X67802068Y-62583158D01*
X67914010Y-62853411D01*
X68076525Y-63096632D01*
X68283368Y-63303475D01*
X68457760Y-63420000D01*
X68283368Y-63536525D01*
X68076525Y-63743368D01*
X67914010Y-63986589D01*
X67802068Y-64256842D01*
X67745000Y-64543740D01*
X67745000Y-64836260D01*
X67802068Y-65123158D01*
X67914010Y-65393411D01*
X68076525Y-65636632D01*
X68283368Y-65843475D01*
X68457760Y-65960000D01*
X68283368Y-66076525D01*
X68076525Y-66283368D01*
X67914010Y-66526589D01*
X67802068Y-66796842D01*
X67745000Y-67083740D01*
X67745000Y-67376260D01*
X67802068Y-67663158D01*
X67914010Y-67933411D01*
X68076525Y-68176632D01*
X68283368Y-68383475D01*
X68457760Y-68500000D01*
X68283368Y-68616525D01*
X68076525Y-68823368D01*
X67914010Y-69066589D01*
X67802068Y-69336842D01*
X67745000Y-69623740D01*
X67745000Y-69916260D01*
X67802068Y-70203158D01*
X67914010Y-70473411D01*
X68076525Y-70716632D01*
X68283368Y-70923475D01*
X68457760Y-71040000D01*
X68283368Y-71156525D01*
X68076525Y-71363368D01*
X67914010Y-71606589D01*
X67802068Y-71876842D01*
X67745000Y-72163740D01*
X67745000Y-72456260D01*
X67802068Y-72743158D01*
X67914010Y-73013411D01*
X68076525Y-73256632D01*
X68283368Y-73463475D01*
X68457760Y-73580000D01*
X68283368Y-73696525D01*
X68076525Y-73903368D01*
X67914010Y-74146589D01*
X67802068Y-74416842D01*
X67745000Y-74703740D01*
X67745000Y-74996260D01*
X67802068Y-75283158D01*
X67914010Y-75553411D01*
X68076525Y-75796632D01*
X68283368Y-76003475D01*
X68457760Y-76120000D01*
X68283368Y-76236525D01*
X68076525Y-76443368D01*
X67914010Y-76686589D01*
X67802068Y-76956842D01*
X67745000Y-77243740D01*
X67745000Y-77536260D01*
X67802068Y-77823158D01*
X67914010Y-78093411D01*
X68076525Y-78336632D01*
X68283368Y-78543475D01*
X68526589Y-78705990D01*
X68796842Y-78817932D01*
X69083740Y-78875000D01*
X69376260Y-78875000D01*
X69663158Y-78817932D01*
X69933411Y-78705990D01*
X70176632Y-78543475D01*
X70383475Y-78336632D01*
X70501100Y-78160594D01*
X70672412Y-78390269D01*
X70888645Y-78585178D01*
X71138748Y-78734157D01*
X71413109Y-78831481D01*
X71643000Y-78710814D01*
X71643000Y-77517000D01*
X71897000Y-77517000D01*
X71897000Y-78710814D01*
X72126891Y-78831481D01*
X72401252Y-78734157D01*
X72651355Y-78585178D01*
X72867588Y-78390269D01*
X73041641Y-78156920D01*
X73166825Y-77894099D01*
X73211476Y-77746890D01*
X73090155Y-77517000D01*
X71897000Y-77517000D01*
X71643000Y-77517000D01*
X71623000Y-77517000D01*
X71623000Y-77263000D01*
X71643000Y-77263000D01*
X71643000Y-74977000D01*
X71897000Y-74977000D01*
X71897000Y-77263000D01*
X73090155Y-77263000D01*
X73211476Y-77033110D01*
X73166825Y-76885901D01*
X73041641Y-76623080D01*
X72867588Y-76389731D01*
X72651355Y-76194822D01*
X72525745Y-76120000D01*
X72651355Y-76045178D01*
X72867588Y-75850269D01*
X73041641Y-75616920D01*
X73166825Y-75354099D01*
X73211476Y-75206890D01*
X73090155Y-74977000D01*
X71897000Y-74977000D01*
X71643000Y-74977000D01*
X71623000Y-74977000D01*
X71623000Y-74723000D01*
X71643000Y-74723000D01*
X71643000Y-72437000D01*
X71897000Y-72437000D01*
X71897000Y-74723000D01*
X73090155Y-74723000D01*
X73211476Y-74493110D01*
X73166825Y-74345901D01*
X73041641Y-74083080D01*
X72867588Y-73849731D01*
X72651355Y-73654822D01*
X72525745Y-73580000D01*
X72651355Y-73505178D01*
X72867588Y-73310269D01*
X73041641Y-73076920D01*
X73166825Y-72814099D01*
X73211476Y-72666890D01*
X73090155Y-72437000D01*
X71897000Y-72437000D01*
X71643000Y-72437000D01*
X71623000Y-72437000D01*
X71623000Y-72183000D01*
X71643000Y-72183000D01*
X71643000Y-69897000D01*
X71897000Y-69897000D01*
X71897000Y-72183000D01*
X73090155Y-72183000D01*
X73211476Y-71953110D01*
X73166825Y-71805901D01*
X73041641Y-71543080D01*
X72867588Y-71309731D01*
X72651355Y-71114822D01*
X72525745Y-71040000D01*
X72651355Y-70965178D01*
X72867588Y-70770269D01*
X73041641Y-70536920D01*
X73166825Y-70274099D01*
X73211476Y-70126890D01*
X73090155Y-69897000D01*
X71897000Y-69897000D01*
X71643000Y-69897000D01*
X71623000Y-69897000D01*
X71623000Y-69643000D01*
X71643000Y-69643000D01*
X71643000Y-67357000D01*
X71897000Y-67357000D01*
X71897000Y-69643000D01*
X73090155Y-69643000D01*
X73211476Y-69413110D01*
X73166825Y-69265901D01*
X73041641Y-69003080D01*
X72867588Y-68769731D01*
X72651355Y-68574822D01*
X72525745Y-68500000D01*
X72651355Y-68425178D01*
X72867588Y-68230269D01*
X73041641Y-67996920D01*
X73166825Y-67734099D01*
X73211476Y-67586890D01*
X73090155Y-67357000D01*
X71897000Y-67357000D01*
X71643000Y-67357000D01*
X71623000Y-67357000D01*
X71623000Y-67103000D01*
X71643000Y-67103000D01*
X71643000Y-64817000D01*
X71897000Y-64817000D01*
X71897000Y-67103000D01*
X73090155Y-67103000D01*
X73211476Y-66873110D01*
X73166825Y-66725901D01*
X73041641Y-66463080D01*
X72867588Y-66229731D01*
X72651355Y-66034822D01*
X72525745Y-65960000D01*
X72651355Y-65885178D01*
X72867588Y-65690269D01*
X73041641Y-65456920D01*
X73166825Y-65194099D01*
X73211476Y-65046890D01*
X73090155Y-64817000D01*
X71897000Y-64817000D01*
X71643000Y-64817000D01*
X71623000Y-64817000D01*
X71623000Y-64563000D01*
X71643000Y-64563000D01*
X71643000Y-62277000D01*
X71897000Y-62277000D01*
X71897000Y-64563000D01*
X73090155Y-64563000D01*
X73211476Y-64333110D01*
X73166825Y-64185901D01*
X73041641Y-63923080D01*
X72927460Y-63770000D01*
X78751928Y-63770000D01*
X78764188Y-63894482D01*
X78800498Y-64014180D01*
X78859463Y-64124494D01*
X78938815Y-64221185D01*
X79035506Y-64300537D01*
X79145820Y-64359502D01*
X79218380Y-64381513D01*
X79086525Y-64513368D01*
X78924010Y-64756589D01*
X78812068Y-65026842D01*
X78755000Y-65313740D01*
X78755000Y-65606260D01*
X78812068Y-65893158D01*
X78924010Y-66163411D01*
X79086525Y-66406632D01*
X79293368Y-66613475D01*
X79467760Y-66730000D01*
X79293368Y-66846525D01*
X79086525Y-67053368D01*
X78924010Y-67296589D01*
X78812068Y-67566842D01*
X78755000Y-67853740D01*
X78755000Y-68146260D01*
X78812068Y-68433158D01*
X78924010Y-68703411D01*
X79086525Y-68946632D01*
X79293368Y-69153475D01*
X79467760Y-69270000D01*
X79293368Y-69386525D01*
X79086525Y-69593368D01*
X78924010Y-69836589D01*
X78812068Y-70106842D01*
X78755000Y-70393740D01*
X78755000Y-70686260D01*
X78812068Y-70973158D01*
X78924010Y-71243411D01*
X79086525Y-71486632D01*
X79293368Y-71693475D01*
X79536589Y-71855990D01*
X79806842Y-71967932D01*
X80093740Y-72025000D01*
X80386260Y-72025000D01*
X80673158Y-71967932D01*
X80943411Y-71855990D01*
X81186632Y-71693475D01*
X81393475Y-71486632D01*
X81510000Y-71312240D01*
X81626525Y-71486632D01*
X81833368Y-71693475D01*
X82076589Y-71855990D01*
X82346842Y-71967932D01*
X82633740Y-72025000D01*
X82926260Y-72025000D01*
X83213158Y-71967932D01*
X83483411Y-71855990D01*
X83726632Y-71693475D01*
X83933475Y-71486632D01*
X84095990Y-71243411D01*
X84207932Y-70973158D01*
X84265000Y-70686260D01*
X84265000Y-70393740D01*
X84207932Y-70106842D01*
X84095990Y-69836589D01*
X83933475Y-69593368D01*
X83726632Y-69386525D01*
X83552240Y-69270000D01*
X83726632Y-69153475D01*
X83933475Y-68946632D01*
X84095990Y-68703411D01*
X84207932Y-68433158D01*
X84265000Y-68146260D01*
X84265000Y-67853740D01*
X84207932Y-67566842D01*
X84095990Y-67296589D01*
X83933475Y-67053368D01*
X83726632Y-66846525D01*
X83552240Y-66730000D01*
X83726632Y-66613475D01*
X83933475Y-66406632D01*
X84095990Y-66163411D01*
X84207932Y-65893158D01*
X84265000Y-65606260D01*
X84265000Y-65313740D01*
X84207932Y-65026842D01*
X84095990Y-64756589D01*
X83933475Y-64513368D01*
X83726632Y-64306525D01*
X83552240Y-64190000D01*
X83726632Y-64073475D01*
X83933475Y-63866632D01*
X84095990Y-63623411D01*
X84207932Y-63353158D01*
X84265000Y-63066260D01*
X84265000Y-62773740D01*
X84207932Y-62486842D01*
X84095990Y-62216589D01*
X83933475Y-61973368D01*
X83726632Y-61766525D01*
X83483411Y-61604010D01*
X83213158Y-61492068D01*
X82926260Y-61435000D01*
X82633740Y-61435000D01*
X82346842Y-61492068D01*
X82076589Y-61604010D01*
X81833368Y-61766525D01*
X81701513Y-61898380D01*
X81679502Y-61825820D01*
X81620537Y-61715506D01*
X81541185Y-61618815D01*
X81444494Y-61539463D01*
X81334180Y-61480498D01*
X81214482Y-61444188D01*
X81090000Y-61431928D01*
X80525750Y-61435000D01*
X80367000Y-61593750D01*
X80367000Y-62793000D01*
X80387000Y-62793000D01*
X80387000Y-63047000D01*
X80367000Y-63047000D01*
X80367000Y-63067000D01*
X80113000Y-63067000D01*
X80113000Y-63047000D01*
X78913750Y-63047000D01*
X78755000Y-63205750D01*
X78751928Y-63770000D01*
X72927460Y-63770000D01*
X72867588Y-63689731D01*
X72651355Y-63494822D01*
X72525745Y-63420000D01*
X72651355Y-63345178D01*
X72867588Y-63150269D01*
X73041641Y-62916920D01*
X73166825Y-62654099D01*
X73211476Y-62506890D01*
X73090155Y-62277000D01*
X71897000Y-62277000D01*
X71643000Y-62277000D01*
X71623000Y-62277000D01*
X71623000Y-62070000D01*
X78751928Y-62070000D01*
X78755000Y-62634250D01*
X78913750Y-62793000D01*
X80113000Y-62793000D01*
X80113000Y-61593750D01*
X79954250Y-61435000D01*
X79390000Y-61431928D01*
X79265518Y-61444188D01*
X79145820Y-61480498D01*
X79035506Y-61539463D01*
X78938815Y-61618815D01*
X78859463Y-61715506D01*
X78800498Y-61825820D01*
X78764188Y-61945518D01*
X78751928Y-62070000D01*
X71623000Y-62070000D01*
X71623000Y-62023000D01*
X71643000Y-62023000D01*
X71643000Y-59737000D01*
X71897000Y-59737000D01*
X71897000Y-62023000D01*
X73090155Y-62023000D01*
X73211476Y-61793110D01*
X73166825Y-61645901D01*
X73041641Y-61383080D01*
X72867588Y-61149731D01*
X72651355Y-60954822D01*
X72525745Y-60880000D01*
X72651355Y-60805178D01*
X72867588Y-60610269D01*
X73041641Y-60376920D01*
X73166825Y-60114099D01*
X73211476Y-59966890D01*
X73090155Y-59737000D01*
X71897000Y-59737000D01*
X71643000Y-59737000D01*
X71623000Y-59737000D01*
X71623000Y-59483000D01*
X71643000Y-59483000D01*
X71643000Y-57197000D01*
X71897000Y-57197000D01*
X71897000Y-59483000D01*
X73090155Y-59483000D01*
X73211476Y-59253110D01*
X73166825Y-59105901D01*
X73041641Y-58843080D01*
X72867588Y-58609731D01*
X72651355Y-58414822D01*
X72525745Y-58340000D01*
X72651355Y-58265178D01*
X72867588Y-58070269D01*
X73041641Y-57836920D01*
X73166825Y-57574099D01*
X73211476Y-57426890D01*
X73090155Y-57197000D01*
X71897000Y-57197000D01*
X71643000Y-57197000D01*
X71623000Y-57197000D01*
X71623000Y-56943000D01*
X71643000Y-56943000D01*
X71643000Y-56923000D01*
X71897000Y-56923000D01*
X71897000Y-56943000D01*
X73090155Y-56943000D01*
X73211476Y-56713110D01*
X73166825Y-56565901D01*
X73041641Y-56303080D01*
X72867588Y-56069731D01*
X72651355Y-55874822D01*
X72534466Y-55805195D01*
X72716632Y-55683475D01*
X72923475Y-55476632D01*
X73085990Y-55233411D01*
X73197932Y-54963158D01*
X73255000Y-54676260D01*
X73255000Y-54383740D01*
X73197932Y-54096842D01*
X73085990Y-53826589D01*
X72923475Y-53583368D01*
X72716632Y-53376525D01*
X72473411Y-53214010D01*
X72203158Y-53102068D01*
X71916260Y-53045000D01*
X71623740Y-53045000D01*
X71336842Y-53102068D01*
X71066589Y-53214010D01*
X70823368Y-53376525D01*
X70691513Y-53508380D01*
X70669502Y-53435820D01*
X70610537Y-53325506D01*
X70531185Y-53228815D01*
X70434494Y-53149463D01*
X70324180Y-53090498D01*
X70204482Y-53054188D01*
X70080000Y-53041928D01*
X68380000Y-53041928D01*
X68255518Y-53054188D01*
X68135820Y-53090498D01*
X68025506Y-53149463D01*
X67928815Y-53228815D01*
X67849463Y-53325506D01*
X67790498Y-53435820D01*
X67754188Y-53555518D01*
X67741928Y-53680000D01*
X66700000Y-53680000D01*
X66700000Y-51434600D01*
X74976703Y-51434600D01*
X85400001Y-61853464D01*
G37*
X85400001Y-61853464D02*
X85400000Y-71466619D01*
X74976620Y-81890000D01*
X66700000Y-81890000D01*
X66700000Y-53680000D01*
X67741928Y-53680000D01*
X67741928Y-55380000D01*
X67754188Y-55504482D01*
X67790498Y-55624180D01*
X67849463Y-55734494D01*
X67928815Y-55831185D01*
X68025506Y-55910537D01*
X68135820Y-55969502D01*
X68208380Y-55991513D01*
X68076525Y-56123368D01*
X67914010Y-56366589D01*
X67802068Y-56636842D01*
X67745000Y-56923740D01*
X67745000Y-57216260D01*
X67802068Y-57503158D01*
X67914010Y-57773411D01*
X68076525Y-58016632D01*
X68283368Y-58223475D01*
X68457760Y-58340000D01*
X68283368Y-58456525D01*
X68076525Y-58663368D01*
X67914010Y-58906589D01*
X67802068Y-59176842D01*
X67745000Y-59463740D01*
X67745000Y-59756260D01*
X67802068Y-60043158D01*
X67914010Y-60313411D01*
X68076525Y-60556632D01*
X68283368Y-60763475D01*
X68457760Y-60880000D01*
X68283368Y-60996525D01*
X68076525Y-61203368D01*
X67914010Y-61446589D01*
X67802068Y-61716842D01*
X67745000Y-62003740D01*
X67745000Y-62296260D01*
X67802068Y-62583158D01*
X67914010Y-62853411D01*
X68076525Y-63096632D01*
X68283368Y-63303475D01*
X68457760Y-63420000D01*
X68283368Y-63536525D01*
X68076525Y-63743368D01*
X67914010Y-63986589D01*
X67802068Y-64256842D01*
X67745000Y-64543740D01*
X67745000Y-64836260D01*
X67802068Y-65123158D01*
X67914010Y-65393411D01*
X68076525Y-65636632D01*
X68283368Y-65843475D01*
X68457760Y-65960000D01*
X68283368Y-66076525D01*
X68076525Y-66283368D01*
X67914010Y-66526589D01*
X67802068Y-66796842D01*
X67745000Y-67083740D01*
X67745000Y-67376260D01*
X67802068Y-67663158D01*
X67914010Y-67933411D01*
X68076525Y-68176632D01*
X68283368Y-68383475D01*
X68457760Y-68500000D01*
X68283368Y-68616525D01*
X68076525Y-68823368D01*
X67914010Y-69066589D01*
X67802068Y-69336842D01*
X67745000Y-69623740D01*
X67745000Y-69916260D01*
X67802068Y-70203158D01*
X67914010Y-70473411D01*
X68076525Y-70716632D01*
X68283368Y-70923475D01*
X68457760Y-71040000D01*
X68283368Y-71156525D01*
X68076525Y-71363368D01*
X67914010Y-71606589D01*
X67802068Y-71876842D01*
X67745000Y-72163740D01*
X67745000Y-72456260D01*
X67802068Y-72743158D01*
X67914010Y-73013411D01*
X68076525Y-73256632D01*
X68283368Y-73463475D01*
X68457760Y-73580000D01*
X68283368Y-73696525D01*
X68076525Y-73903368D01*
X67914010Y-74146589D01*
X67802068Y-74416842D01*
X67745000Y-74703740D01*
X67745000Y-74996260D01*
X67802068Y-75283158D01*
X67914010Y-75553411D01*
X68076525Y-75796632D01*
X68283368Y-76003475D01*
X68457760Y-76120000D01*
X68283368Y-76236525D01*
X68076525Y-76443368D01*
X67914010Y-76686589D01*
X67802068Y-76956842D01*
X67745000Y-77243740D01*
X67745000Y-77536260D01*
X67802068Y-77823158D01*
X67914010Y-78093411D01*
X68076525Y-78336632D01*
X68283368Y-78543475D01*
X68526589Y-78705990D01*
X68796842Y-78817932D01*
X69083740Y-78875000D01*
X69376260Y-78875000D01*
X69663158Y-78817932D01*
X69933411Y-78705990D01*
X70176632Y-78543475D01*
X70383475Y-78336632D01*
X70501100Y-78160594D01*
X70672412Y-78390269D01*
X70888645Y-78585178D01*
X71138748Y-78734157D01*
X71413109Y-78831481D01*
X71643000Y-78710814D01*
X71643000Y-77517000D01*
X71897000Y-77517000D01*
X71897000Y-78710814D01*
X72126891Y-78831481D01*
X72401252Y-78734157D01*
X72651355Y-78585178D01*
X72867588Y-78390269D01*
X73041641Y-78156920D01*
X73166825Y-77894099D01*
X73211476Y-77746890D01*
X73090155Y-77517000D01*
X71897000Y-77517000D01*
X71643000Y-77517000D01*
X71623000Y-77517000D01*
X71623000Y-77263000D01*
X71643000Y-77263000D01*
X71643000Y-74977000D01*
X71897000Y-74977000D01*
X71897000Y-77263000D01*
X73090155Y-77263000D01*
X73211476Y-77033110D01*
X73166825Y-76885901D01*
X73041641Y-76623080D01*
X72867588Y-76389731D01*
X72651355Y-76194822D01*
X72525745Y-76120000D01*
X72651355Y-76045178D01*
X72867588Y-75850269D01*
X73041641Y-75616920D01*
X73166825Y-75354099D01*
X73211476Y-75206890D01*
X73090155Y-74977000D01*
X71897000Y-74977000D01*
X71643000Y-74977000D01*
X71623000Y-74977000D01*
X71623000Y-74723000D01*
X71643000Y-74723000D01*
X71643000Y-72437000D01*
X71897000Y-72437000D01*
X71897000Y-74723000D01*
X73090155Y-74723000D01*
X73211476Y-74493110D01*
X73166825Y-74345901D01*
X73041641Y-74083080D01*
X72867588Y-73849731D01*
X72651355Y-73654822D01*
X72525745Y-73580000D01*
X72651355Y-73505178D01*
X72867588Y-73310269D01*
X73041641Y-73076920D01*
X73166825Y-72814099D01*
X73211476Y-72666890D01*
X73090155Y-72437000D01*
X71897000Y-72437000D01*
X71643000Y-72437000D01*
X71623000Y-72437000D01*
X71623000Y-72183000D01*
X71643000Y-72183000D01*
X71643000Y-69897000D01*
X71897000Y-69897000D01*
X71897000Y-72183000D01*
X73090155Y-72183000D01*
X73211476Y-71953110D01*
X73166825Y-71805901D01*
X73041641Y-71543080D01*
X72867588Y-71309731D01*
X72651355Y-71114822D01*
X72525745Y-71040000D01*
X72651355Y-70965178D01*
X72867588Y-70770269D01*
X73041641Y-70536920D01*
X73166825Y-70274099D01*
X73211476Y-70126890D01*
X73090155Y-69897000D01*
X71897000Y-69897000D01*
X71643000Y-69897000D01*
X71623000Y-69897000D01*
X71623000Y-69643000D01*
X71643000Y-69643000D01*
X71643000Y-67357000D01*
X71897000Y-67357000D01*
X71897000Y-69643000D01*
X73090155Y-69643000D01*
X73211476Y-69413110D01*
X73166825Y-69265901D01*
X73041641Y-69003080D01*
X72867588Y-68769731D01*
X72651355Y-68574822D01*
X72525745Y-68500000D01*
X72651355Y-68425178D01*
X72867588Y-68230269D01*
X73041641Y-67996920D01*
X73166825Y-67734099D01*
X73211476Y-67586890D01*
X73090155Y-67357000D01*
X71897000Y-67357000D01*
X71643000Y-67357000D01*
X71623000Y-67357000D01*
X71623000Y-67103000D01*
X71643000Y-67103000D01*
X71643000Y-64817000D01*
X71897000Y-64817000D01*
X71897000Y-67103000D01*
X73090155Y-67103000D01*
X73211476Y-66873110D01*
X73166825Y-66725901D01*
X73041641Y-66463080D01*
X72867588Y-66229731D01*
X72651355Y-66034822D01*
X72525745Y-65960000D01*
X72651355Y-65885178D01*
X72867588Y-65690269D01*
X73041641Y-65456920D01*
X73166825Y-65194099D01*
X73211476Y-65046890D01*
X73090155Y-64817000D01*
X71897000Y-64817000D01*
X71643000Y-64817000D01*
X71623000Y-64817000D01*
X71623000Y-64563000D01*
X71643000Y-64563000D01*
X71643000Y-62277000D01*
X71897000Y-62277000D01*
X71897000Y-64563000D01*
X73090155Y-64563000D01*
X73211476Y-64333110D01*
X73166825Y-64185901D01*
X73041641Y-63923080D01*
X72927460Y-63770000D01*
X78751928Y-63770000D01*
X78764188Y-63894482D01*
X78800498Y-64014180D01*
X78859463Y-64124494D01*
X78938815Y-64221185D01*
X79035506Y-64300537D01*
X79145820Y-64359502D01*
X79218380Y-64381513D01*
X79086525Y-64513368D01*
X78924010Y-64756589D01*
X78812068Y-65026842D01*
X78755000Y-65313740D01*
X78755000Y-65606260D01*
X78812068Y-65893158D01*
X78924010Y-66163411D01*
X79086525Y-66406632D01*
X79293368Y-66613475D01*
X79467760Y-66730000D01*
X79293368Y-66846525D01*
X79086525Y-67053368D01*
X78924010Y-67296589D01*
X78812068Y-67566842D01*
X78755000Y-67853740D01*
X78755000Y-68146260D01*
X78812068Y-68433158D01*
X78924010Y-68703411D01*
X79086525Y-68946632D01*
X79293368Y-69153475D01*
X79467760Y-69270000D01*
X79293368Y-69386525D01*
X79086525Y-69593368D01*
X78924010Y-69836589D01*
X78812068Y-70106842D01*
X78755000Y-70393740D01*
X78755000Y-70686260D01*
X78812068Y-70973158D01*
X78924010Y-71243411D01*
X79086525Y-71486632D01*
X79293368Y-71693475D01*
X79536589Y-71855990D01*
X79806842Y-71967932D01*
X80093740Y-72025000D01*
X80386260Y-72025000D01*
X80673158Y-71967932D01*
X80943411Y-71855990D01*
X81186632Y-71693475D01*
X81393475Y-71486632D01*
X81510000Y-71312240D01*
X81626525Y-71486632D01*
X81833368Y-71693475D01*
X82076589Y-71855990D01*
X82346842Y-71967932D01*
X82633740Y-72025000D01*
X82926260Y-72025000D01*
X83213158Y-71967932D01*
X83483411Y-71855990D01*
X83726632Y-71693475D01*
X83933475Y-71486632D01*
X84095990Y-71243411D01*
X84207932Y-70973158D01*
X84265000Y-70686260D01*
X84265000Y-70393740D01*
X84207932Y-70106842D01*
X84095990Y-69836589D01*
X83933475Y-69593368D01*
X83726632Y-69386525D01*
X83552240Y-69270000D01*
X83726632Y-69153475D01*
X83933475Y-68946632D01*
X84095990Y-68703411D01*
X84207932Y-68433158D01*
X84265000Y-68146260D01*
X84265000Y-67853740D01*
X84207932Y-67566842D01*
X84095990Y-67296589D01*
X83933475Y-67053368D01*
X83726632Y-66846525D01*
X83552240Y-66730000D01*
X83726632Y-66613475D01*
X83933475Y-66406632D01*
X84095990Y-66163411D01*
X84207932Y-65893158D01*
X84265000Y-65606260D01*
X84265000Y-65313740D01*
X84207932Y-65026842D01*
X84095990Y-64756589D01*
X83933475Y-64513368D01*
X83726632Y-64306525D01*
X83552240Y-64190000D01*
X83726632Y-64073475D01*
X83933475Y-63866632D01*
X84095990Y-63623411D01*
X84207932Y-63353158D01*
X84265000Y-63066260D01*
X84265000Y-62773740D01*
X84207932Y-62486842D01*
X84095990Y-62216589D01*
X83933475Y-61973368D01*
X83726632Y-61766525D01*
X83483411Y-61604010D01*
X83213158Y-61492068D01*
X82926260Y-61435000D01*
X82633740Y-61435000D01*
X82346842Y-61492068D01*
X82076589Y-61604010D01*
X81833368Y-61766525D01*
X81701513Y-61898380D01*
X81679502Y-61825820D01*
X81620537Y-61715506D01*
X81541185Y-61618815D01*
X81444494Y-61539463D01*
X81334180Y-61480498D01*
X81214482Y-61444188D01*
X81090000Y-61431928D01*
X80525750Y-61435000D01*
X80367000Y-61593750D01*
X80367000Y-62793000D01*
X80387000Y-62793000D01*
X80387000Y-63047000D01*
X80367000Y-63047000D01*
X80367000Y-63067000D01*
X80113000Y-63067000D01*
X80113000Y-63047000D01*
X78913750Y-63047000D01*
X78755000Y-63205750D01*
X78751928Y-63770000D01*
X72927460Y-63770000D01*
X72867588Y-63689731D01*
X72651355Y-63494822D01*
X72525745Y-63420000D01*
X72651355Y-63345178D01*
X72867588Y-63150269D01*
X73041641Y-62916920D01*
X73166825Y-62654099D01*
X73211476Y-62506890D01*
X73090155Y-62277000D01*
X71897000Y-62277000D01*
X71643000Y-62277000D01*
X71623000Y-62277000D01*
X71623000Y-62070000D01*
X78751928Y-62070000D01*
X78755000Y-62634250D01*
X78913750Y-62793000D01*
X80113000Y-62793000D01*
X80113000Y-61593750D01*
X79954250Y-61435000D01*
X79390000Y-61431928D01*
X79265518Y-61444188D01*
X79145820Y-61480498D01*
X79035506Y-61539463D01*
X78938815Y-61618815D01*
X78859463Y-61715506D01*
X78800498Y-61825820D01*
X78764188Y-61945518D01*
X78751928Y-62070000D01*
X71623000Y-62070000D01*
X71623000Y-62023000D01*
X71643000Y-62023000D01*
X71643000Y-59737000D01*
X71897000Y-59737000D01*
X71897000Y-62023000D01*
X73090155Y-62023000D01*
X73211476Y-61793110D01*
X73166825Y-61645901D01*
X73041641Y-61383080D01*
X72867588Y-61149731D01*
X72651355Y-60954822D01*
X72525745Y-60880000D01*
X72651355Y-60805178D01*
X72867588Y-60610269D01*
X73041641Y-60376920D01*
X73166825Y-60114099D01*
X73211476Y-59966890D01*
X73090155Y-59737000D01*
X71897000Y-59737000D01*
X71643000Y-59737000D01*
X71623000Y-59737000D01*
X71623000Y-59483000D01*
X71643000Y-59483000D01*
X71643000Y-57197000D01*
X71897000Y-57197000D01*
X71897000Y-59483000D01*
X73090155Y-59483000D01*
X73211476Y-59253110D01*
X73166825Y-59105901D01*
X73041641Y-58843080D01*
X72867588Y-58609731D01*
X72651355Y-58414822D01*
X72525745Y-58340000D01*
X72651355Y-58265178D01*
X72867588Y-58070269D01*
X73041641Y-57836920D01*
X73166825Y-57574099D01*
X73211476Y-57426890D01*
X73090155Y-57197000D01*
X71897000Y-57197000D01*
X71643000Y-57197000D01*
X71623000Y-57197000D01*
X71623000Y-56943000D01*
X71643000Y-56943000D01*
X71643000Y-56923000D01*
X71897000Y-56923000D01*
X71897000Y-56943000D01*
X73090155Y-56943000D01*
X73211476Y-56713110D01*
X73166825Y-56565901D01*
X73041641Y-56303080D01*
X72867588Y-56069731D01*
X72651355Y-55874822D01*
X72534466Y-55805195D01*
X72716632Y-55683475D01*
X72923475Y-55476632D01*
X73085990Y-55233411D01*
X73197932Y-54963158D01*
X73255000Y-54676260D01*
X73255000Y-54383740D01*
X73197932Y-54096842D01*
X73085990Y-53826589D01*
X72923475Y-53583368D01*
X72716632Y-53376525D01*
X72473411Y-53214010D01*
X72203158Y-53102068D01*
X71916260Y-53045000D01*
X71623740Y-53045000D01*
X71336842Y-53102068D01*
X71066589Y-53214010D01*
X70823368Y-53376525D01*
X70691513Y-53508380D01*
X70669502Y-53435820D01*
X70610537Y-53325506D01*
X70531185Y-53228815D01*
X70434494Y-53149463D01*
X70324180Y-53090498D01*
X70204482Y-53054188D01*
X70080000Y-53041928D01*
X68380000Y-53041928D01*
X68255518Y-53054188D01*
X68135820Y-53090498D01*
X68025506Y-53149463D01*
X67928815Y-53228815D01*
X67849463Y-53325506D01*
X67790498Y-53435820D01*
X67754188Y-53555518D01*
X67741928Y-53680000D01*
X66700000Y-53680000D01*
X66700000Y-51434600D01*
X74976703Y-51434600D01*
X85400001Y-61853464D01*
M02*
