%TF.GenerationSoftware,KiCad,Pcbnew,(5.1.6-0-10_14)*%
%TF.CreationDate,2022-05-20T12:20:58-05:00*%
%TF.ProjectId,programmer_adapter,70726f67-7261-46d6-9d65-725f61646170,rev?*%
%TF.SameCoordinates,Original*%
%TF.FileFunction,Soldermask,Top*%
%TF.FilePolarity,Negative*%
%FSLAX46Y46*%
G04 Gerber Fmt 4.6, Leading zero omitted, Abs format (unit mm)*
G04 Created by KiCad (PCBNEW (5.1.6-0-10_14)) date 2022-05-20 12:20:58*
%MOMM*%
%LPD*%
G01*
G04 APERTURE LIST*
%ADD10R,1.800000X1.800000*%
%ADD11O,1.800000X1.800000*%
%ADD12R,1.100000X1.100000*%
%ADD13O,1.100000X1.100000*%
G04 APERTURE END LIST*
D10*
X69230000Y-54530000D03*
D11*
X71770000Y-54530000D03*
X69230000Y-57070000D03*
X71770000Y-57070000D03*
X69230000Y-59610000D03*
X71770000Y-59610000D03*
X69230000Y-62150000D03*
X71770000Y-62150000D03*
X69230000Y-64690000D03*
X71770000Y-64690000D03*
X69230000Y-67230000D03*
X71770000Y-67230000D03*
X69230000Y-69770000D03*
X71770000Y-69770000D03*
X69230000Y-72310000D03*
X71770000Y-72310000D03*
X69230000Y-74850000D03*
X71770000Y-74850000D03*
X69230000Y-77390000D03*
X71770000Y-77390000D03*
D12*
X81991200Y-64795400D03*
D13*
X83261200Y-64795400D03*
X81991200Y-66065400D03*
X83261200Y-66065400D03*
X81991200Y-67335400D03*
X83261200Y-67335400D03*
X81991200Y-68605400D03*
X83261200Y-68605400D03*
G36*
G01*
X77853200Y-75835900D02*
X77853200Y-76360900D01*
G75*
G02*
X77590700Y-76623400I-262500J0D01*
G01*
X76965700Y-76623400D01*
G75*
G02*
X76703200Y-76360900I0J262500D01*
G01*
X76703200Y-75835900D01*
G75*
G02*
X76965700Y-75573400I262500J0D01*
G01*
X77590700Y-75573400D01*
G75*
G02*
X77853200Y-75835900I0J-262500D01*
G01*
G37*
G36*
G01*
X76103200Y-75835900D02*
X76103200Y-76360900D01*
G75*
G02*
X75840700Y-76623400I-262500J0D01*
G01*
X75215700Y-76623400D01*
G75*
G02*
X74953200Y-76360900I0J262500D01*
G01*
X74953200Y-75835900D01*
G75*
G02*
X75215700Y-75573400I262500J0D01*
G01*
X75840700Y-75573400D01*
G75*
G02*
X76103200Y-75835900I0J-262500D01*
G01*
G37*
G36*
G01*
X77220000Y-57472500D02*
X77220000Y-56947500D01*
G75*
G02*
X77482500Y-56685000I262500J0D01*
G01*
X78107500Y-56685000D01*
G75*
G02*
X78370000Y-56947500I0J-262500D01*
G01*
X78370000Y-57472500D01*
G75*
G02*
X78107500Y-57735000I-262500J0D01*
G01*
X77482500Y-57735000D01*
G75*
G02*
X77220000Y-57472500I0J262500D01*
G01*
G37*
G36*
G01*
X75470000Y-57472500D02*
X75470000Y-56947500D01*
G75*
G02*
X75732500Y-56685000I262500J0D01*
G01*
X76357500Y-56685000D01*
G75*
G02*
X76620000Y-56947500I0J-262500D01*
G01*
X76620000Y-57472500D01*
G75*
G02*
X76357500Y-57735000I-262500J0D01*
G01*
X75732500Y-57735000D01*
G75*
G02*
X75470000Y-57472500I0J262500D01*
G01*
G37*
G36*
G01*
X77765600Y-72152900D02*
X77765600Y-72677900D01*
G75*
G02*
X77503100Y-72940400I-262500J0D01*
G01*
X76878100Y-72940400D01*
G75*
G02*
X76615600Y-72677900I0J262500D01*
G01*
X76615600Y-72152900D01*
G75*
G02*
X76878100Y-71890400I262500J0D01*
G01*
X77503100Y-71890400D01*
G75*
G02*
X77765600Y-72152900I0J-262500D01*
G01*
G37*
G36*
G01*
X76015600Y-72152900D02*
X76015600Y-72677900D01*
G75*
G02*
X75753100Y-72940400I-262500J0D01*
G01*
X75128100Y-72940400D01*
G75*
G02*
X74865600Y-72677900I0J262500D01*
G01*
X74865600Y-72152900D01*
G75*
G02*
X75128100Y-71890400I262500J0D01*
G01*
X75753100Y-71890400D01*
G75*
G02*
X76015600Y-72152900I0J-262500D01*
G01*
G37*
M02*
