G04 #@! TF.GenerationSoftware,KiCad,Pcbnew,7.0.2-0*
G04 #@! TF.CreationDate,2023-12-31T00:12:16-06:00*
G04 #@! TF.ProjectId,spudglo_driver_v6p0,73707564-676c-46f5-9f64-72697665725f,rev?*
G04 #@! TF.SameCoordinates,Original*
G04 #@! TF.FileFunction,Copper,L4,Bot*
G04 #@! TF.FilePolarity,Positive*
%FSLAX46Y46*%
G04 Gerber Fmt 4.6, Leading zero omitted, Abs format (unit mm)*
G04 Created by KiCad (PCBNEW 7.0.2-0) date 2023-12-31 00:12:16*
%MOMM*%
%LPD*%
G01*
G04 APERTURE LIST*
G04 #@! TA.AperFunction,ComponentPad*
%ADD10R,1.700000X1.700000*%
G04 #@! TD*
G04 #@! TA.AperFunction,ComponentPad*
%ADD11O,1.700000X1.700000*%
G04 #@! TD*
G04 #@! TA.AperFunction,ComponentPad*
%ADD12C,2.000000*%
G04 #@! TD*
G04 #@! TA.AperFunction,ComponentPad*
%ADD13R,1.800000X4.400000*%
G04 #@! TD*
G04 #@! TA.AperFunction,ComponentPad*
%ADD14O,1.800000X4.000000*%
G04 #@! TD*
G04 #@! TA.AperFunction,ComponentPad*
%ADD15O,4.000000X1.800000*%
G04 #@! TD*
G04 #@! TA.AperFunction,ComponentPad*
%ADD16O,1.000000X2.100000*%
G04 #@! TD*
G04 #@! TA.AperFunction,ComponentPad*
%ADD17O,1.000000X1.600000*%
G04 #@! TD*
G04 #@! TA.AperFunction,ComponentPad*
%ADD18C,0.600000*%
G04 #@! TD*
G04 #@! TA.AperFunction,SMDPad,CuDef*
%ADD19R,0.900000X1.600000*%
G04 #@! TD*
G04 #@! TA.AperFunction,ViaPad*
%ADD20C,1.600000*%
G04 #@! TD*
G04 #@! TA.AperFunction,ViaPad*
%ADD21C,5.000000*%
G04 #@! TD*
G04 #@! TA.AperFunction,ViaPad*
%ADD22C,0.800000*%
G04 #@! TD*
G04 #@! TA.AperFunction,Conductor*
%ADD23C,0.250000*%
G04 #@! TD*
G04 #@! TA.AperFunction,Conductor*
%ADD24C,1.000000*%
G04 #@! TD*
G04 #@! TA.AperFunction,Conductor*
%ADD25C,0.500000*%
G04 #@! TD*
G04 APERTURE END LIST*
D10*
X70495000Y-157910000D03*
D11*
X73035000Y-157910000D03*
X75575000Y-157910000D03*
X78115000Y-157910000D03*
X80655000Y-157910000D03*
D10*
X99770000Y-161950000D03*
D11*
X97230000Y-161950000D03*
D10*
X94966954Y-135413294D03*
D11*
X92426954Y-135413294D03*
X89886954Y-135413294D03*
X87346954Y-135413294D03*
X84806954Y-135413294D03*
D10*
X134310000Y-162890000D03*
D11*
X131770000Y-162890000D03*
D10*
X123230048Y-135719976D03*
D11*
X120690048Y-135719976D03*
X118150048Y-135719976D03*
X115610048Y-135719976D03*
X113070048Y-135719976D03*
D12*
X135065818Y-174766982D03*
X131565818Y-174766982D03*
X128065818Y-174766982D03*
X124565818Y-174766982D03*
X121065818Y-174766982D03*
X117565818Y-174766982D03*
X114065818Y-174766982D03*
X110565818Y-174766982D03*
X107065818Y-174766982D03*
X103565818Y-174766982D03*
X100065818Y-174766982D03*
X96565818Y-174766982D03*
D10*
X129090000Y-159130000D03*
D11*
X126550000Y-159130000D03*
X129090000Y-156590000D03*
X126550000Y-156590000D03*
X129090000Y-154050000D03*
X126550000Y-154050000D03*
X129090000Y-151510000D03*
X126550000Y-151510000D03*
D10*
X122890000Y-162880000D03*
D11*
X125430000Y-162880000D03*
X127970000Y-162880000D03*
D13*
X134850000Y-154160000D03*
D14*
X140650000Y-154160000D03*
D15*
X137850000Y-149360000D03*
D16*
X135280000Y-141120000D03*
D17*
X135280000Y-136940000D03*
D16*
X126640000Y-141120000D03*
D17*
X126640000Y-136940000D03*
D10*
X98839924Y-158180928D03*
D11*
X101379924Y-158180928D03*
X103919924Y-158180928D03*
X106459924Y-158180928D03*
X108999924Y-158180928D03*
D10*
X103480000Y-161920000D03*
D11*
X106020000Y-161920000D03*
D18*
X129210000Y-147190000D03*
D19*
X129210000Y-146690000D03*
D18*
X129210000Y-146190000D03*
D20*
X136886614Y-156386614D03*
X137860000Y-159340000D03*
D21*
X134341519Y-158931710D03*
D20*
X137050000Y-154830000D03*
D22*
X120580000Y-163780000D03*
X96456660Y-157821863D03*
X120990000Y-161450000D03*
X95438957Y-159583018D03*
X85940000Y-138062794D03*
D20*
X93610000Y-160770000D03*
D22*
X136649903Y-144820097D03*
X114150000Y-162310000D03*
X137450000Y-145650000D03*
X131580000Y-157500000D03*
X103880000Y-150050000D03*
X138505200Y-140799500D03*
X140590000Y-143560000D03*
X137450000Y-144810000D03*
X131422009Y-146727589D03*
X101360000Y-151880000D03*
X115085500Y-140657035D03*
X81798805Y-155748805D03*
X116078000Y-151638000D03*
X120180000Y-160540000D03*
X126810000Y-142760000D03*
X124365000Y-154795000D03*
X116050000Y-159490000D03*
X111470000Y-137770000D03*
X141010000Y-146710000D03*
X108270000Y-138900000D03*
X136610000Y-145650000D03*
X112776000Y-145288000D03*
X122247288Y-144971471D03*
X91440000Y-174498000D03*
X95800000Y-155800000D03*
X115480000Y-162220000D03*
X105240848Y-151931166D03*
X112190000Y-159550000D03*
X103810000Y-144010000D03*
X121800000Y-141800000D03*
X119050000Y-137694500D03*
X114730000Y-159380000D03*
X106470000Y-135070000D03*
X141510000Y-143590000D03*
X124550000Y-160050000D03*
X117320000Y-159440000D03*
X113651186Y-159559381D03*
D20*
X90160000Y-154440000D03*
D22*
X124180004Y-143262587D03*
X108080000Y-140280000D03*
X120470000Y-155390000D03*
X132150000Y-139690000D03*
X118810000Y-154670000D03*
X122880502Y-146802092D03*
X133157672Y-149310462D03*
X130158742Y-140629401D03*
X108114500Y-153600009D03*
X103680000Y-142240000D03*
X119883750Y-142976250D03*
X133648836Y-143359500D03*
X103905000Y-145835000D03*
X105610000Y-152860000D03*
X118310000Y-141630000D03*
X119640000Y-155110000D03*
X111630000Y-161244500D03*
X102384500Y-142229580D03*
X139450000Y-144270000D03*
X116033240Y-144073062D03*
X110860000Y-136210000D03*
X102190000Y-147760000D03*
X99795500Y-146963966D03*
X115382747Y-149952747D03*
X96534940Y-149998761D03*
X97140085Y-152206339D03*
X99795500Y-147963469D03*
X114213378Y-150485721D03*
X93260500Y-155355500D03*
X119083812Y-143575500D03*
X139436297Y-142245423D03*
X135330000Y-138808000D03*
X122359422Y-140010675D03*
X138331535Y-142249000D03*
X123173920Y-139199482D03*
X115600000Y-145800000D03*
X132780000Y-137451500D03*
X115034500Y-144034011D03*
X108615511Y-143865500D03*
X135540498Y-143669500D03*
X130430000Y-150524500D03*
X139492811Y-143243326D03*
X117396681Y-146327819D03*
X135895894Y-147549500D03*
X116640000Y-147034500D03*
X125751967Y-138543291D03*
X130497892Y-138402704D03*
X139130554Y-147451548D03*
X132443555Y-145405500D03*
X134703763Y-149787231D03*
X138794710Y-150859500D03*
X124426509Y-153587504D03*
X132425500Y-140710540D03*
D20*
X95622250Y-171797750D03*
X91360000Y-166560000D03*
D22*
X98755500Y-155272992D03*
X90736681Y-155715164D03*
D20*
X99100000Y-166170000D03*
X94060000Y-176220000D03*
D22*
X94841959Y-154708138D03*
D20*
X88610000Y-157980000D03*
D22*
X88420000Y-156500000D03*
X89040000Y-159480000D03*
X129190000Y-139484500D03*
X118170000Y-151080000D03*
X112980000Y-160300000D03*
X109940000Y-155940000D03*
X113320634Y-152807786D03*
X118328845Y-145053845D03*
X123270000Y-141150000D03*
X122605000Y-148245000D03*
X118368148Y-148324500D03*
X109885603Y-147446598D03*
X99403362Y-148882834D03*
X95850000Y-154380000D03*
X97704500Y-156150740D03*
X128711874Y-143703762D03*
X127943642Y-148097984D03*
X92050000Y-173510000D03*
X102649925Y-158879609D03*
X106040000Y-155520000D03*
X107919500Y-161759306D03*
X112116893Y-152656893D03*
X104701850Y-160551850D03*
X92160000Y-171070000D03*
X104195000Y-163445000D03*
X95459500Y-160680000D03*
X98946504Y-156731426D03*
X100392385Y-156358791D03*
X112774500Y-151197571D03*
X101660000Y-141530000D03*
X94440000Y-159550000D03*
X97874701Y-152930839D03*
X98045500Y-151174500D03*
X102040000Y-150200000D03*
X98897253Y-149747260D03*
X85040733Y-163535332D03*
X93539505Y-162290495D03*
X90557299Y-164387299D03*
X85747488Y-164299500D03*
X102983704Y-146222580D03*
X112324500Y-148510000D03*
X110725000Y-145155000D03*
X102440000Y-145240000D03*
D20*
X136430000Y-166730001D03*
X131765818Y-171710000D03*
X134070812Y-172700000D03*
X131127968Y-166680000D03*
D22*
X132160000Y-149250000D03*
D21*
X134070812Y-169102837D03*
D22*
X125215000Y-145135000D03*
X125117678Y-143608670D03*
X130447988Y-143759500D03*
X125030000Y-157650000D03*
X130993152Y-145675948D03*
D23*
X96534940Y-149998761D02*
X96534940Y-151937347D01*
X96534940Y-151937347D02*
X96803932Y-152206339D01*
X96803932Y-152206339D02*
X97140085Y-152206339D01*
X99795500Y-146963966D02*
X99831534Y-147000000D01*
X99831534Y-147000000D02*
X101430000Y-147000000D01*
X101430000Y-147000000D02*
X102190000Y-147760000D01*
X99403362Y-148882834D02*
X98251500Y-147730972D01*
X98251500Y-147730972D02*
X98251500Y-146699195D01*
X98251500Y-146699195D02*
X99100695Y-145850000D01*
X99100695Y-145850000D02*
X101580000Y-145850000D01*
X101580000Y-145850000D02*
X103176598Y-147446598D01*
X103176598Y-147446598D02*
X109885603Y-147446598D01*
X104255000Y-148485000D02*
X104450000Y-148290000D01*
X99795500Y-147963469D02*
X100317031Y-148485000D01*
X100317031Y-148485000D02*
X104255000Y-148485000D01*
X100147804Y-145275500D02*
X99038799Y-145275500D01*
X102384500Y-143038804D02*
X100147804Y-145275500D01*
X102384500Y-142229580D02*
X102384500Y-143038804D01*
X97709940Y-146604359D02*
X97709940Y-149585252D01*
X97709940Y-149585252D02*
X98596948Y-150472260D01*
X99038799Y-145275500D02*
X97709940Y-146604359D01*
X99667385Y-156058486D02*
X99667385Y-156659096D01*
X100014924Y-157006635D02*
X100014924Y-158564924D01*
X99667385Y-156659096D02*
X100014924Y-157006635D01*
X100220000Y-155505871D02*
X99667385Y-156058486D01*
X98596948Y-150472260D02*
X98972260Y-150472260D01*
X100220000Y-151720000D02*
X100220000Y-155505871D01*
X98972260Y-150472260D02*
X100220000Y-151720000D01*
X100014924Y-158564924D02*
X101255928Y-159805928D01*
X101255928Y-159805928D02*
X104834924Y-159805928D01*
X104834924Y-159805928D02*
X106459924Y-158180928D01*
X101660000Y-141530000D02*
X101660000Y-143126908D01*
X101660000Y-143126908D02*
X99961408Y-144825500D01*
X98676195Y-144825500D02*
X97259940Y-146241755D01*
X99961408Y-144825500D02*
X98676195Y-144825500D01*
X97259940Y-146241755D02*
X97259940Y-149771648D01*
X97259940Y-149771648D02*
X98045500Y-150557208D01*
X98045500Y-150557208D02*
X98045500Y-151174500D01*
X98946504Y-156731426D02*
X98893346Y-156784584D01*
X98893346Y-156784584D02*
X98055416Y-156784584D01*
X98055416Y-156784584D02*
X97181660Y-157658340D01*
X97181660Y-157658340D02*
X97181660Y-158957840D01*
X97181660Y-158957840D02*
X95459500Y-160680000D01*
X108945000Y-154795000D02*
X112542429Y-151197571D01*
X100392385Y-156358791D02*
X100623594Y-156590000D01*
X100623594Y-156590000D02*
X103849150Y-156590000D01*
X103849150Y-156590000D02*
X104459151Y-155980000D01*
X104459151Y-155980000D02*
X104490000Y-155980000D01*
X104490000Y-155980000D02*
X105675000Y-154795000D01*
X105675000Y-154795000D02*
X108945000Y-154795000D01*
X112542429Y-151197571D02*
X112774500Y-151197571D01*
X97137508Y-153655000D02*
X95549695Y-153655000D01*
X95549695Y-153655000D02*
X94841959Y-154362736D01*
X94841959Y-154362736D02*
X94841959Y-154708138D01*
X98755500Y-155272992D02*
X97137508Y-153655000D01*
X97704500Y-156150740D02*
X95933760Y-154380000D01*
X95933760Y-154380000D02*
X95850000Y-154380000D01*
X133457977Y-150035462D02*
X133882672Y-149610767D01*
X140709695Y-147435000D02*
X140285000Y-147010305D01*
X133882672Y-149610767D02*
X133882672Y-149583724D01*
X133882672Y-149583724D02*
X134526396Y-148940000D01*
X132941896Y-150524500D02*
X133430934Y-150035462D01*
X140930000Y-149748808D02*
X140930000Y-147590000D01*
X138069905Y-150959905D02*
X138069905Y-151160000D01*
X139094308Y-151584500D02*
X140930000Y-149748808D01*
X135006083Y-149084512D02*
X135284512Y-149084512D01*
X135284512Y-149084512D02*
X135525000Y-149325000D01*
X134861571Y-148940000D02*
X135006083Y-149084512D01*
X133430934Y-150035462D02*
X133457977Y-150035462D01*
X134526396Y-148940000D02*
X134861571Y-148940000D01*
X130430000Y-150524500D02*
X132941896Y-150524500D01*
X140930000Y-147590000D02*
X140775000Y-147435000D01*
X139451369Y-143243326D02*
X139492811Y-143243326D01*
X135525000Y-149867412D02*
X136242588Y-150585000D01*
X135525000Y-149325000D02*
X135525000Y-149867412D01*
X136242588Y-150585000D02*
X137695000Y-150585000D01*
X137695000Y-150585000D02*
X138069905Y-150959905D01*
X138494405Y-151584500D02*
X139094308Y-151584500D01*
X138069905Y-151160000D02*
X138494405Y-151584500D01*
X140775000Y-147435000D02*
X140709695Y-147435000D01*
X140285000Y-146945000D02*
X138725000Y-145385000D01*
X140285000Y-147010305D02*
X140285000Y-146945000D01*
X138725000Y-143969695D02*
X139451369Y-143243326D01*
X138725000Y-145385000D02*
X138725000Y-143969695D01*
X133157672Y-149310462D02*
X132493134Y-149975000D01*
X132493134Y-149975000D02*
X131859695Y-149975000D01*
X131374695Y-149490000D02*
X130421701Y-149490000D01*
X131859695Y-149975000D02*
X131374695Y-149490000D01*
X130421701Y-149490000D02*
X129576701Y-150335000D01*
X129576701Y-150335000D02*
X127725000Y-150335000D01*
X127725000Y-150335000D02*
X126550000Y-151510000D01*
X125915305Y-144350000D02*
X125855305Y-144410000D01*
X131718555Y-145705805D02*
X131718555Y-145105195D01*
X135895894Y-147549500D02*
X135521681Y-147549500D01*
X135521681Y-147549500D02*
X135322181Y-147350000D01*
X135322181Y-147350000D02*
X133362750Y-147350000D01*
X133362750Y-147350000D02*
X131718555Y-145705805D01*
X125855305Y-144410000D02*
X123980000Y-144410000D01*
X131718555Y-145105195D02*
X131097860Y-144484500D01*
X131097860Y-144484500D02*
X130147683Y-144484500D01*
X130147683Y-144484500D02*
X129436874Y-143773691D01*
X122062181Y-146327819D02*
X117396681Y-146327819D01*
X129436874Y-143773691D02*
X129436874Y-143403457D01*
X129436874Y-143403457D02*
X129012179Y-142978762D01*
X129012179Y-142978762D02*
X128411569Y-142978762D01*
X128411569Y-142978762D02*
X127040331Y-144350000D01*
X127040331Y-144350000D02*
X125915305Y-144350000D01*
X123980000Y-144410000D02*
X122062181Y-146327819D01*
X138504006Y-146825000D02*
X133863055Y-146825000D01*
X139130554Y-147451548D02*
X138504006Y-146825000D01*
X133863055Y-146825000D02*
X132443555Y-145405500D01*
X126051637Y-137818363D02*
X125451590Y-137818363D01*
X131500000Y-140010000D02*
X131830000Y-140010000D01*
X131500000Y-140010000D02*
X131500000Y-141210664D01*
X105610000Y-152860000D02*
X107374491Y-152860000D01*
X130158742Y-140629401D02*
X129099350Y-140629401D01*
X126669949Y-138200000D02*
X126433274Y-138200000D01*
X125451590Y-137818363D02*
X125399953Y-137870000D01*
X129099350Y-140629401D02*
X126669949Y-138200000D01*
X118310000Y-140560000D02*
X118310000Y-141630000D01*
X131830000Y-140010000D02*
X132150000Y-139690000D01*
X120310000Y-138560000D02*
X118310000Y-140560000D01*
X131500000Y-141210664D02*
X133648836Y-143359500D01*
X125399953Y-137870000D02*
X121000000Y-137870000D01*
X126433274Y-138200000D02*
X126051637Y-137818363D01*
X107374491Y-152860000D02*
X108114500Y-153600009D01*
X121000000Y-137870000D02*
X120310000Y-138560000D01*
X140542602Y-150772602D02*
X141735000Y-149580204D01*
X141875000Y-152105000D02*
X140542602Y-150772602D01*
X141875000Y-157675000D02*
X141875000Y-152105000D01*
X139595305Y-144270000D02*
X139450000Y-144270000D01*
X135045000Y-164505000D02*
X141875000Y-157675000D01*
X111630000Y-161244500D02*
X111630000Y-163940000D01*
X141735000Y-149580204D02*
X141735000Y-146409695D01*
X141735000Y-146409695D02*
X139595305Y-144270000D01*
X111630000Y-163940000D02*
X112195000Y-164505000D01*
X112195000Y-164505000D02*
X135045000Y-164505000D01*
X111866000Y-136250000D02*
X110900000Y-136250000D01*
X110900000Y-136250000D02*
X110860000Y-136210000D01*
X116150000Y-140534000D02*
X111866000Y-136250000D01*
X116033240Y-144073062D02*
X116150000Y-143956302D01*
X116150000Y-143956302D02*
X116150000Y-140534000D01*
X114513683Y-151210721D02*
X114513683Y-152766317D01*
X115382747Y-150341657D02*
X114513683Y-151210721D01*
X115382747Y-149952747D02*
X115382747Y-150341657D01*
X114513683Y-152766317D02*
X113240000Y-154040000D01*
X113240000Y-154040000D02*
X113240000Y-156670000D01*
X113240000Y-156670000D02*
X109840000Y-160070000D01*
X109840000Y-160070000D02*
X107871396Y-160070000D01*
X106021396Y-161920000D02*
X106020000Y-161920000D01*
X107871396Y-160070000D02*
X106021396Y-161920000D01*
X93260500Y-155355500D02*
X92035000Y-156581000D01*
X107750000Y-148290000D02*
X108030000Y-148570000D01*
X113037657Y-149310000D02*
X114213378Y-150485721D01*
X92635000Y-163125000D02*
X98595000Y-163125000D01*
X110750000Y-148570000D02*
X111490000Y-149310000D01*
X104065000Y-148485000D02*
X104260000Y-148290000D01*
X98595000Y-163125000D02*
X99770000Y-161950000D01*
X92035000Y-156581000D02*
X92035000Y-162525000D01*
X111490000Y-149310000D02*
X113037657Y-149310000D01*
X104450000Y-148290000D02*
X107750000Y-148290000D01*
X104260000Y-148290000D02*
X104450000Y-148290000D01*
X108030000Y-148570000D02*
X110750000Y-148570000D01*
X92035000Y-162525000D02*
X92635000Y-163125000D01*
X137190000Y-140509605D02*
X138204895Y-141524500D01*
X138720000Y-141524500D02*
X138720000Y-141529126D01*
X137031605Y-140509605D02*
X137190000Y-140509605D01*
X119200692Y-143692380D02*
X119574575Y-143692380D01*
X119083812Y-143575500D02*
X119200692Y-143692380D01*
X121020000Y-143020000D02*
X121020000Y-141350097D01*
X120338750Y-143701250D02*
X121020000Y-143020000D01*
X119574575Y-143692380D02*
X119583445Y-143701250D01*
X135330000Y-138808000D02*
X137031605Y-140509605D01*
X121020000Y-141350097D02*
X122359422Y-140010675D01*
X119583445Y-143701250D02*
X120338750Y-143701250D01*
X138204895Y-141524500D02*
X138720000Y-141524500D01*
X138720000Y-141529126D02*
X139436297Y-142245423D01*
X118358812Y-143651188D02*
X116210000Y-145800000D01*
X123173920Y-139199482D02*
X122145310Y-139199482D01*
X120570000Y-141830000D02*
X120148750Y-142251250D01*
X119382757Y-142251250D02*
X118358812Y-143275195D01*
X120148750Y-142251250D02*
X119382757Y-142251250D01*
X135073500Y-139745000D02*
X135621726Y-139745000D01*
X122145310Y-139199482D02*
X121634422Y-139710370D01*
X116210000Y-145800000D02*
X115600000Y-145800000D01*
X121634422Y-139710370D02*
X121634422Y-139965578D01*
X118358812Y-143275195D02*
X118358812Y-143651188D01*
X132780000Y-137451500D02*
X135073500Y-139745000D01*
X121634422Y-139965578D02*
X120570000Y-141030000D01*
X120570000Y-141030000D02*
X120570000Y-141830000D01*
X138125726Y-142249000D02*
X138331535Y-142249000D01*
X135621726Y-139745000D02*
X138125726Y-142249000D01*
X111914604Y-136935000D02*
X114220000Y-139240396D01*
X114435048Y-136206677D02*
X114435048Y-135423275D01*
X139230200Y-140499195D02*
X138806005Y-140075000D01*
X136349598Y-144095097D02*
X136950208Y-144095097D01*
X125430000Y-135090000D02*
X124405048Y-136114952D01*
X114865989Y-143865500D02*
X108615511Y-143865500D01*
X136950208Y-144095097D02*
X136960305Y-144085000D01*
X138256674Y-143243326D02*
X139492811Y-143243326D01*
X113556749Y-134544976D02*
X111499719Y-134544976D01*
X140161297Y-141861297D02*
X139230200Y-140930200D01*
X115034500Y-141954500D02*
X115034500Y-144034011D01*
X135540498Y-143669500D02*
X135924001Y-143669500D01*
X111499719Y-134544976D02*
X110135000Y-135909695D01*
X139230200Y-140930200D02*
X139230200Y-140499195D01*
X140161297Y-142574840D02*
X140161297Y-141861297D01*
X136960305Y-144085000D02*
X137415000Y-144085000D01*
X124330024Y-136970000D02*
X115198371Y-136970000D01*
X124405048Y-136114952D02*
X124405048Y-136894976D01*
X137622305Y-140075000D02*
X135630305Y-138083000D01*
X110559695Y-136935000D02*
X111914604Y-136935000D01*
X114435048Y-135423275D02*
X113556749Y-134544976D01*
X134443000Y-138083000D02*
X131450000Y-135090000D01*
X115034500Y-144034011D02*
X114865989Y-143865500D01*
X135630305Y-138083000D02*
X134443000Y-138083000D01*
X135924001Y-143669500D02*
X136349598Y-144095097D01*
X131450000Y-135090000D02*
X125430000Y-135090000D01*
X124405048Y-136894976D02*
X124330024Y-136970000D01*
X114220000Y-141140000D02*
X115034500Y-141954500D01*
X114220000Y-139240396D02*
X114220000Y-141140000D01*
X138806005Y-140075000D02*
X137622305Y-140075000D01*
X139492811Y-143243326D02*
X140161297Y-142574840D01*
X110135000Y-135909695D02*
X110135000Y-136510305D01*
X110135000Y-136510305D02*
X110559695Y-136935000D01*
X137415000Y-144085000D02*
X138256674Y-143243326D01*
X115198371Y-136970000D02*
X114435048Y-136206677D01*
X117696986Y-145602819D02*
X117096376Y-145602819D01*
X123995000Y-140325000D02*
X123995000Y-141450305D01*
X119635305Y-145810000D02*
X117904167Y-145810000D01*
X125751967Y-138543291D02*
X125340000Y-138955258D01*
X125340000Y-138980000D02*
X123995000Y-140325000D01*
X123995000Y-141450305D02*
X119635305Y-145810000D01*
X117904167Y-145810000D02*
X117696986Y-145602819D01*
X125340000Y-138955258D02*
X125340000Y-138980000D01*
X116640000Y-146059195D02*
X116640000Y-147034500D01*
X117096376Y-145602819D02*
X116640000Y-146059195D01*
X130497892Y-138884788D02*
X130875000Y-139261896D01*
X130875000Y-139650805D02*
X131050000Y-139825805D01*
X131050000Y-139825805D02*
X131050000Y-141397060D01*
X132520000Y-142867060D02*
X132520000Y-145329055D01*
X130497892Y-138402704D02*
X130497892Y-138884788D01*
X131050000Y-141397060D02*
X132520000Y-142867060D01*
X132520000Y-145329055D02*
X132443555Y-145405500D01*
X130875000Y-139261896D02*
X130875000Y-139650805D01*
X139835000Y-147131396D02*
X139078604Y-146375000D01*
X132425500Y-140710540D02*
X134373836Y-142658876D01*
X140175000Y-147536701D02*
X139835000Y-147196701D01*
X138804210Y-150850000D02*
X139192412Y-150850000D01*
X139078604Y-146375000D02*
X135628836Y-146375000D01*
X140175000Y-149867412D02*
X140175000Y-147536701D01*
X129940000Y-152360000D02*
X129090000Y-151510000D01*
X134703763Y-149787231D02*
X134342604Y-149787231D01*
X124426509Y-153587504D02*
X125329013Y-152685000D01*
X139835000Y-147196701D02*
X139835000Y-147131396D01*
X138794710Y-150859500D02*
X138804210Y-150850000D01*
X127915000Y-152685000D02*
X129090000Y-151510000D01*
X131769835Y-152360000D02*
X129940000Y-152360000D01*
X135628836Y-146375000D02*
X134373836Y-145120000D01*
X134342604Y-149787231D02*
X131769835Y-152360000D01*
X125329013Y-152685000D02*
X127915000Y-152685000D01*
X134373836Y-142658876D02*
X134373836Y-145120000D01*
X139192412Y-150850000D02*
X140175000Y-149867412D01*
X90736681Y-155715164D02*
X90475827Y-155715164D01*
D24*
X94060000Y-173360000D02*
X94060000Y-176220000D01*
D23*
X90415991Y-155775000D02*
X88115000Y-155775000D01*
D24*
X92260000Y-165660000D02*
X98590000Y-165660000D01*
D23*
X90475827Y-155715164D02*
X90415991Y-155775000D01*
D24*
X95622250Y-171797750D02*
X94060000Y-173360000D01*
X98590000Y-165660000D02*
X99100000Y-166170000D01*
D23*
X88115000Y-155775000D02*
X87695000Y-156195000D01*
X87695000Y-156195000D02*
X87695000Y-157065000D01*
D24*
X91360000Y-166560000D02*
X92260000Y-165660000D01*
D23*
X87695000Y-157065000D02*
X88610000Y-157980000D01*
X89735000Y-158785000D02*
X89040000Y-159480000D01*
X89735000Y-157514009D02*
X89735000Y-158785000D01*
X88420000Y-156500000D02*
X88720991Y-156500000D01*
X88720991Y-156500000D02*
X89610496Y-157389504D01*
X89610496Y-157389504D02*
X89735000Y-157514009D01*
X115574695Y-144800000D02*
X116331607Y-144800000D01*
X116339695Y-147759500D02*
X114875000Y-146294805D01*
X116331607Y-144800000D02*
X117400804Y-143730804D01*
X126981726Y-135815000D02*
X129190000Y-138023274D01*
X117400804Y-140832800D02*
X120813604Y-137420000D01*
X118170000Y-149500000D02*
X116429500Y-147759500D01*
X129190000Y-138023274D02*
X129190000Y-139484500D01*
X114875000Y-146294805D02*
X114875000Y-145499695D01*
X116429500Y-147759500D02*
X116339695Y-147759500D01*
X118170000Y-151080000D02*
X118170000Y-149500000D01*
X120813604Y-137420000D02*
X124516420Y-137420000D01*
X117400804Y-143730804D02*
X117400804Y-140832800D01*
X124516420Y-137420000D02*
X126121420Y-135815000D01*
X114875000Y-145499695D02*
X115574695Y-144800000D01*
X126121420Y-135815000D02*
X126981726Y-135815000D01*
X107195000Y-161382792D02*
X108057792Y-160520000D01*
X106560000Y-160745000D02*
X105533299Y-160745000D01*
X110188420Y-155940000D02*
X109940000Y-155940000D01*
X106506701Y-163095000D02*
X107195000Y-162406701D01*
X109940000Y-155940000D02*
X110174924Y-156174924D01*
X108057792Y-160520000D02*
X112760000Y-160520000D01*
X112760000Y-160520000D02*
X112980000Y-160300000D01*
X105533299Y-160745000D02*
X104845000Y-161433299D01*
X110174924Y-156174924D02*
X110174924Y-158667629D01*
X109222553Y-159620000D02*
X107685000Y-159620000D01*
X105533299Y-163095000D02*
X106506701Y-163095000D01*
X110174924Y-158667629D02*
X109222553Y-159620000D01*
X107685000Y-159620000D02*
X106560000Y-160745000D01*
X104845000Y-162406701D02*
X105533299Y-163095000D01*
X104845000Y-161433299D02*
X104845000Y-162406701D01*
X113320634Y-152807786D02*
X110188420Y-155940000D01*
X107195000Y-162406701D02*
X107195000Y-161382792D01*
X120508909Y-144300000D02*
X123270000Y-141538909D01*
X123270000Y-141538909D02*
X123270000Y-141150000D01*
X119082690Y-144300000D02*
X120508909Y-144300000D01*
X118328845Y-145053845D02*
X119082690Y-144300000D01*
X118368148Y-148324500D02*
X118447648Y-148245000D01*
X118447648Y-148245000D02*
X122605000Y-148245000D01*
X128350000Y-144065636D02*
X128350000Y-147940000D01*
X128350000Y-147940000D02*
X128100000Y-148190000D01*
X128100000Y-148190000D02*
X128035658Y-148190000D01*
X128035658Y-148190000D02*
X127943642Y-148097984D01*
X128711874Y-143703762D02*
X128350000Y-144065636D01*
X105094924Y-158667629D02*
X105094924Y-157694227D01*
X104406625Y-159355928D02*
X105094924Y-158667629D01*
X95965000Y-169595000D02*
X92050000Y-173510000D01*
X104810000Y-156750000D02*
X106040000Y-155520000D01*
X102649925Y-158879609D02*
X103126244Y-159355928D01*
X107919500Y-162318597D02*
X100643097Y-169595000D01*
X107919500Y-161759306D02*
X107919500Y-162318597D01*
X105094924Y-157694227D02*
X104810000Y-157409303D01*
X100643097Y-169595000D02*
X95965000Y-169595000D01*
X103126244Y-159355928D02*
X104406625Y-159355928D01*
X104810000Y-157409303D02*
X104810000Y-156750000D01*
X104701850Y-160551850D02*
X104725398Y-160551850D01*
X98495000Y-169145000D02*
X104195000Y-163445000D01*
X111753107Y-152656893D02*
X112116893Y-152656893D01*
X106765000Y-159715000D02*
X107810000Y-158670000D01*
X92160000Y-171070000D02*
X94085000Y-169145000D01*
X105562248Y-159715000D02*
X106765000Y-159715000D01*
X104725398Y-160551850D02*
X105562248Y-159715000D01*
X107810000Y-158670000D02*
X107810000Y-156600000D01*
X94085000Y-169145000D02*
X98495000Y-169145000D01*
X107810000Y-156600000D02*
X111753107Y-152656893D01*
X93985000Y-154539792D02*
X93985000Y-159095000D01*
X93985000Y-159095000D02*
X94440000Y-159550000D01*
X97874701Y-152930839D02*
X95593953Y-152930839D01*
X95593953Y-152930839D02*
X93985000Y-154539792D01*
X99349993Y-150200000D02*
X102040000Y-150200000D01*
X98897253Y-149747260D02*
X99349993Y-150200000D01*
X85040733Y-163535332D02*
X85080401Y-163575000D01*
X85080401Y-163575000D02*
X101825000Y-163575000D01*
X101825000Y-163575000D02*
X103480000Y-161920000D01*
X85835287Y-164387299D02*
X85747488Y-164299500D01*
X96860000Y-162320000D02*
X93569009Y-162320000D01*
X97230000Y-161950000D02*
X96860000Y-162320000D01*
X93539505Y-162290496D02*
X93539505Y-162290495D01*
X90557299Y-164387299D02*
X85835287Y-164387299D01*
X93569009Y-162320000D02*
X93539505Y-162290496D01*
X104205305Y-146560000D02*
X104265305Y-146500000D01*
X104265305Y-146500000D02*
X110314500Y-146500000D01*
X110314500Y-146500000D02*
X112324500Y-148510000D01*
X103321124Y-146560000D02*
X104205305Y-146560000D01*
X102983704Y-146222580D02*
X103321124Y-146560000D01*
X102440000Y-145240000D02*
X102736441Y-144943559D01*
X110513559Y-144943559D02*
X110725000Y-145155000D01*
X102736441Y-144943559D02*
X110513559Y-144943559D01*
D25*
X125215000Y-145135000D02*
X125215000Y-147875000D01*
D23*
X130447988Y-142587988D02*
X130447988Y-143759500D01*
X125117678Y-143608670D02*
X125236348Y-143490000D01*
D25*
X122760000Y-150330000D02*
X122760000Y-159462082D01*
X122760000Y-159462082D02*
X124832918Y-161535000D01*
D23*
X127105305Y-143490000D02*
X128355305Y-142240000D01*
D25*
X124832918Y-161535000D02*
X132955000Y-161535000D01*
D23*
X130100000Y-142240000D02*
X130447988Y-142587988D01*
D25*
X132955000Y-161535000D02*
X134310000Y-162890000D01*
D23*
X128355305Y-142240000D02*
X130100000Y-142240000D01*
D25*
X125215000Y-147875000D02*
X122760000Y-150330000D01*
D23*
X125236348Y-143490000D02*
X127105305Y-143490000D01*
X129985000Y-147715000D02*
X127820000Y-149880000D01*
X126518299Y-149880000D02*
X125120000Y-151278299D01*
X125120000Y-151278299D02*
X123640000Y-152758299D01*
X129985000Y-146684100D02*
X129985000Y-147715000D01*
X123640000Y-152758299D02*
X123640000Y-156260000D01*
X130993152Y-145675948D02*
X129985000Y-146684100D01*
X127820000Y-149880000D02*
X126518299Y-149880000D01*
X123640000Y-156260000D02*
X125030000Y-157650000D01*
M02*
