G04 #@! TF.GenerationSoftware,KiCad,Pcbnew,8.0.5*
G04 #@! TF.CreationDate,2026-07-11T20:47:10-05:00*
G04 #@! TF.ProjectId,programmer_adapter_v5p0,70726f67-7261-46d6-9d65-725f61646170,rev?*
G04 #@! TF.SameCoordinates,Original*
G04 #@! TF.FileFunction,Soldermask,Top*
G04 #@! TF.FilePolarity,Negative*
%FSLAX46Y46*%
G04 Gerber Fmt 4.6, Leading zero omitted, Abs format (unit mm)*
G04 Created by KiCad (PCBNEW 8.0.5) date 2026-07-11 20:47:10*
%MOMM*%
%LPD*%
G01*
G04 APERTURE LIST*
G04 Aperture macros list*
%AMRoundRect*
0 Rectangle with rounded corners*
0 $1 Rounding radius*
0 $2 $3 $4 $5 $6 $7 $8 $9 X,Y pos of 4 corners*
0 Add a 4 corners polygon primitive as box body*
4,1,4,$2,$3,$4,$5,$6,$7,$8,$9,$2,$3,0*
0 Add four circle primitives for the rounded corners*
1,1,$1+$1,$2,$3*
1,1,$1+$1,$4,$5*
1,1,$1+$1,$6,$7*
1,1,$1+$1,$8,$9*
0 Add four rect primitives between the rounded corners*
20,1,$1+$1,$2,$3,$4,$5,0*
20,1,$1+$1,$4,$5,$6,$7,0*
20,1,$1+$1,$6,$7,$8,$9,0*
20,1,$1+$1,$8,$9,$2,$3,0*%
G04 Aperture macros list end*
%ADD10RoundRect,0.050000X-0.880600X0.425400X-0.880600X-0.425400X0.880600X-0.425400X0.880600X0.425400X0*%
%ADD11RoundRect,0.050000X-0.880600X1.575399X-0.880600X-1.575399X0.880600X-1.575399X0.880600X1.575399X0*%
%ADD12RoundRect,0.050000X-0.850000X-0.850000X0.850000X-0.850000X0.850000X0.850000X-0.850000X0.850000X0*%
%ADD13O,1.800000X1.800000*%
%ADD14RoundRect,0.180000X0.180000X-0.237500X0.180000X0.237500X-0.180000X0.237500X-0.180000X-0.237500X0*%
%ADD15RoundRect,0.271277X0.503723X-0.366223X0.503723X0.366223X-0.503723X0.366223X-0.503723X-0.366223X0*%
%ADD16RoundRect,0.262500X0.275000X0.262500X-0.275000X0.262500X-0.275000X-0.262500X0.275000X-0.262500X0*%
%ADD17RoundRect,0.262500X0.262500X-0.275000X0.262500X0.275000X-0.262500X0.275000X-0.262500X-0.275000X0*%
%ADD18RoundRect,0.271277X-0.366223X-0.503723X0.366223X-0.503723X0.366223X0.503723X-0.366223X0.503723X0*%
%ADD19RoundRect,0.180000X-0.180000X0.237500X-0.180000X-0.237500X0.180000X-0.237500X0.180000X0.237500X0*%
%ADD20RoundRect,0.050000X0.200000X0.235000X-0.200000X0.235000X-0.200000X-0.235000X0.200000X-0.235000X0*%
%ADD21RoundRect,0.050000X-0.850000X0.475000X-0.850000X-0.475000X0.850000X-0.475000X0.850000X0.475000X0*%
%ADD22RoundRect,0.180000X-0.040659X-0.295217X0.295217X0.040659X0.040659X0.295217X-0.295217X-0.040659X0*%
%ADD23RoundRect,0.180000X-0.295217X0.040659X0.040659X-0.295217X0.295217X-0.040659X-0.040659X0.295217X0*%
%ADD24RoundRect,0.262500X0.262500X-0.325000X0.262500X0.325000X-0.262500X0.325000X-0.262500X-0.325000X0*%
%ADD25RoundRect,0.050000X0.875000X-0.180000X0.875000X0.180000X-0.875000X0.180000X-0.875000X-0.180000X0*%
%ADD26RoundRect,0.050000X0.775000X-0.205000X0.775000X0.205000X-0.775000X0.205000X-0.775000X-0.205000X0*%
%ADD27RoundRect,0.050000X0.775000X-0.130000X0.775000X0.130000X-0.775000X0.130000X-0.775000X-0.130000X0*%
%ADD28RoundRect,0.050000X-0.775000X0.130000X-0.775000X-0.130000X0.775000X-0.130000X0.775000X0.130000X0*%
%ADD29RoundRect,0.262500X0.312500X0.262500X-0.312500X0.262500X-0.312500X-0.262500X0.312500X-0.262500X0*%
%ADD30C,1.000000*%
%ADD31RoundRect,0.102000X-1.150000X0.250000X-1.150000X-0.250000X1.150000X-0.250000X1.150000X0.250000X0*%
%ADD32RoundRect,0.102000X-1.250000X1.000000X-1.250000X-1.000000X1.250000X-1.000000X1.250000X1.000000X0*%
%ADD33C,0.750000*%
%ADD34RoundRect,0.050000X-0.725000X0.300000X-0.725000X-0.300000X0.725000X-0.300000X0.725000X0.300000X0*%
%ADD35RoundRect,0.050000X-0.725000X0.150000X-0.725000X-0.150000X0.725000X-0.150000X0.725000X0.150000X0*%
%ADD36O,2.200000X1.100000*%
%ADD37O,1.700000X1.100000*%
%ADD38RoundRect,0.262500X-0.262500X0.325000X-0.262500X-0.325000X0.262500X-0.325000X0.262500X0.325000X0*%
%ADD39RoundRect,0.200000X0.548008X0.265165X0.265165X0.548008X-0.548008X-0.265165X-0.265165X-0.548008X0*%
%ADD40RoundRect,0.262500X0.325000X0.262500X-0.325000X0.262500X-0.325000X-0.262500X0.325000X-0.262500X0*%
%ADD41RoundRect,0.175000X-0.612500X-0.175000X0.612500X-0.175000X0.612500X0.175000X-0.612500X0.175000X0*%
%ADD42RoundRect,0.200000X-0.548008X-0.265165X-0.265165X-0.548008X0.548008X0.265165X0.265165X0.548008X0*%
%ADD43RoundRect,0.200000X-0.200000X-0.575000X0.200000X-0.575000X0.200000X0.575000X-0.200000X0.575000X0*%
%ADD44RoundRect,0.050000X-0.327037X-0.114905X-0.114905X-0.327037X0.327037X0.114905X0.114905X0.327037X0*%
%ADD45RoundRect,0.050000X0.114905X-0.327037X0.327037X-0.114905X-0.114905X0.327037X-0.327037X0.114905X0*%
%ADD46RoundRect,0.050000X-1.202082X0.000000X0.000000X-1.202082X1.202082X0.000000X0.000000X1.202082X0*%
%ADD47RoundRect,0.175000X-0.537500X-0.175000X0.537500X-0.175000X0.537500X0.175000X-0.537500X0.175000X0*%
%ADD48RoundRect,0.262500X-0.275000X-0.262500X0.275000X-0.262500X0.275000X0.262500X-0.275000X0.262500X0*%
G04 APERTURE END LIST*
D10*
X133765000Y-91527499D03*
X133765000Y-93827499D03*
X133765000Y-96127499D03*
D11*
X139815000Y-93827499D03*
D12*
X120794600Y-82974600D03*
D13*
X123334600Y-82974600D03*
X120794600Y-85514600D03*
X123334600Y-85514600D03*
X120794600Y-88054600D03*
X123334600Y-88054600D03*
X120794600Y-90594600D03*
X123334600Y-90594600D03*
X120794600Y-93134600D03*
X123334600Y-93134600D03*
X120794600Y-95674600D03*
X123334600Y-95674600D03*
X120794600Y-98214600D03*
X123334600Y-98214600D03*
X120794600Y-100754600D03*
X123334600Y-100754600D03*
X120794600Y-103294600D03*
X123334600Y-103294600D03*
X120794600Y-105834600D03*
X123334600Y-105834600D03*
D12*
X128140000Y-90920000D03*
D13*
X130680004Y-90920002D03*
X128139998Y-93460004D03*
X130680000Y-93460000D03*
X128140000Y-96000000D03*
X130680002Y-96000000D03*
X128140000Y-98540000D03*
X130680000Y-98540000D03*
D14*
X132600000Y-86405000D03*
X132600000Y-85270000D03*
D15*
X134420000Y-88377500D03*
X134420000Y-86302500D03*
D16*
X133372500Y-106540000D03*
X131547500Y-106540000D03*
X131375000Y-108130000D03*
X129550000Y-108130000D03*
D17*
X139710000Y-101452500D03*
X139710000Y-99627500D03*
D18*
X136792500Y-88210000D03*
X138867500Y-88210000D03*
D19*
X133410000Y-80582500D03*
X133410000Y-81717500D03*
D20*
X118649994Y-98470002D03*
X117999994Y-98470002D03*
X117349994Y-98470002D03*
X117349994Y-100300002D03*
X117999994Y-100300002D03*
X118649994Y-100300002D03*
D21*
X117999994Y-99385002D03*
D22*
X145997434Y-90602566D03*
X146800000Y-89800000D03*
D23*
X147600000Y-99200000D03*
X146797434Y-98397434D03*
D24*
X117700000Y-97200000D03*
X117700000Y-95475000D03*
D25*
X152076379Y-98118621D03*
X152076379Y-91308621D03*
D26*
X152176379Y-91888621D03*
D27*
X152176379Y-92463621D03*
X152176379Y-92963621D03*
X152176379Y-93463621D03*
X152176379Y-93963621D03*
D28*
X152176379Y-94463621D03*
X152176379Y-94963621D03*
D27*
X152176379Y-95463621D03*
X152176379Y-95963621D03*
X152176379Y-96463621D03*
X152176379Y-96963621D03*
D26*
X152176379Y-97538621D03*
D29*
X131550000Y-104700000D03*
X133300000Y-104700000D03*
X136550000Y-80600000D03*
X134800000Y-80600000D03*
D30*
X113587500Y-86750000D03*
X113587500Y-91150000D03*
D31*
X116237500Y-87350000D03*
X116237501Y-88149999D03*
X116237498Y-88950000D03*
X116237499Y-89750001D03*
X116237500Y-90550000D03*
D32*
X116137500Y-84500001D03*
X116137502Y-93399997D03*
X110637500Y-93400000D03*
X110637500Y-84500000D03*
D33*
X114150000Y-97230000D03*
X114150000Y-103010000D03*
D34*
X115595000Y-96870000D03*
X115595000Y-97670000D03*
D35*
X115595000Y-98870000D03*
X115595000Y-99870000D03*
X115595000Y-100370000D03*
X115595000Y-101370000D03*
D34*
X115595000Y-102570000D03*
X115595000Y-103370000D03*
X115595000Y-103370000D03*
X115595000Y-102570000D03*
D35*
X115595000Y-101870000D03*
X115595000Y-100870000D03*
X115595000Y-99370000D03*
X115595000Y-98370000D03*
D34*
X115595000Y-97670000D03*
X115595000Y-96870000D03*
D36*
X114680000Y-95800000D03*
D37*
X110500000Y-95800000D03*
D36*
X114680000Y-104440000D03*
D37*
X110500000Y-104440000D03*
D23*
X146900000Y-100000000D03*
X146097434Y-99197434D03*
D38*
X117700000Y-101675000D03*
X117700000Y-103400000D03*
D22*
X145300000Y-89900000D03*
X146102566Y-89097434D03*
X146697434Y-91302566D03*
X147500000Y-90500000D03*
D23*
X146200000Y-100800000D03*
X145397434Y-99997434D03*
D39*
X139260000Y-82850000D03*
X138199340Y-81789340D03*
D29*
X133375000Y-103100000D03*
X131625000Y-103100000D03*
D40*
X111262500Y-106200000D03*
X109537500Y-106200000D03*
D41*
X127799999Y-101200001D03*
X127800000Y-103100000D03*
X129675000Y-102150000D03*
D42*
X140469670Y-84059670D03*
X141530330Y-85120330D03*
D17*
X126010000Y-106242500D03*
X126010000Y-104417500D03*
D41*
X127800000Y-104700000D03*
X127800001Y-106599999D03*
X129675001Y-105649999D03*
D16*
X133300000Y-101200000D03*
X131475000Y-101200000D03*
D43*
X136400000Y-102000000D03*
X137900000Y-102000000D03*
D44*
X112892894Y-107892894D03*
X113246447Y-108246447D03*
X113600000Y-108600000D03*
X113953554Y-108953554D03*
D45*
X114855115Y-108995980D03*
X115208668Y-108642427D03*
X115562222Y-108288873D03*
X115915775Y-107935320D03*
D44*
X115915775Y-106991332D03*
X115562222Y-106637779D03*
X115208668Y-106284226D03*
X114855115Y-105930672D03*
D45*
X113953554Y-105973099D03*
X113600000Y-106326652D03*
X113246447Y-106680205D03*
X112892894Y-107033759D03*
D46*
X114418476Y-107463326D03*
D47*
X129662500Y-80650000D03*
X129662500Y-81600000D03*
X129662500Y-82550000D03*
X131937500Y-82550000D03*
X131937500Y-81600000D03*
X131937500Y-80650000D03*
D48*
X126037500Y-82650000D03*
X127862500Y-82650000D03*
D16*
X136582500Y-82200000D03*
X134757500Y-82200000D03*
D48*
X130617500Y-88290000D03*
X132442500Y-88290000D03*
D16*
X138102500Y-100120000D03*
X136277500Y-100120000D03*
X111300000Y-107800000D03*
X109475000Y-107800000D03*
X136562500Y-83760000D03*
X134737500Y-83760000D03*
D38*
X117700000Y-105075000D03*
X117700000Y-106800000D03*
D48*
X128035000Y-108120000D03*
X126210000Y-108120000D03*
D43*
X136400000Y-104700000D03*
X137900000Y-104700000D03*
M02*
