M48
; DRILL file {KiCad 8.0.5} date 2026-07-11T20:47:16-0500
; FORMAT={-:-/ absolute / metric / decimal}
; #@! TF.CreationDate,2026-07-11T20:47:16-05:00
; #@! TF.GenerationSoftware,Kicad,Pcbnew,8.0.5
; #@! TF.FileFunction,Plated,1,2,PTH
FMAT,2
METRIC
; #@! TA.AperFunction,Plated,PTH,ViaDrill
T1C0.400
; #@! TA.AperFunction,Plated,PTH,ComponentDrill
T2C0.600
; #@! TA.AperFunction,Plated,PTH,ComponentDrill
T3C1.000
%
G90
G05
T1
X110.01Y-109.42
X110.41Y-99.86
X111.35Y-98.05
X111.522Y-108.875
X111.65Y-101.8
X113.01Y-109.623
X113.1Y-98.825
X114.076Y-101.992
X114.159Y-99.195
X114.2Y-101.0
X116.4Y-104.4
X118.6Y-106.8
X118.61Y-101.496
X118.86Y-92.36
X118.97Y-85.83
X119.09Y-103.1
X119.15Y-81.95
X119.25Y-90.1
X119.613Y-107.838
X122.02Y-80.34
X122.25Y-94.22
X124.107Y-102.067
X124.291Y-104.745
X124.693Y-99.426
X124.89Y-81.538
X125.166Y-101.549
X125.199Y-97.881
X125.625Y-100.66
X125.645Y-90.4
X125.645Y-91.925
X126.189Y-103.115
X126.69Y-83.76
X127.166Y-105.701
X128.182Y-81.577
X129.137Y-103.052
X129.35Y-92.52
X129.544Y-83.416
X129.74Y-106.77
X130.425Y-104.768
X131.26Y-87.13
X131.28Y-89.45
X131.335Y-85.235
X131.984Y-89.842
X132.47Y-108.13
X133.302Y-89.109
X133.352Y-107.622
X133.45Y-82.87
X133.69Y-84.42
X134.34Y-101.375
X134.38Y-106.25
X134.435Y-108.589
X134.87Y-104.705
X135.33Y-103.12
X135.34Y-101.375
X135.37Y-99.36
X135.62Y-96.01
X135.672Y-81.444
X135.79Y-94.9
X136.146Y-89.939
X136.146Y-90.939
X136.44Y-109.78
X136.53Y-85.13
X136.564Y-107.725
X137.15Y-100.926
X137.276Y-109.064
X137.79Y-83.27
X137.8Y-108.175
X139.046Y-103.966
X139.739Y-85.193
X140.25Y-98.37
X141.242Y-101.77
X141.542Y-96.925
X141.787Y-97.895
X141.949Y-101.063
X142.526Y-97.104
X142.656Y-100.356
X143.075Y-103.26
X143.301Y-98.438
X143.415Y-102.284
X143.781Y-101.281
X143.923Y-88.497
X144.287Y-98.088
X144.488Y-100.574
X144.89Y-88.75
X145.024Y-97.4
X145.79Y-98.228
X146.515Y-97.32
X146.993Y-95.244
X147.622Y-98.025
X147.738Y-92.0
X148.35Y-98.71
X148.38Y-91.01
X148.477Y-92.769
X149.042Y-96.189
X150.067Y-96.189
X150.52Y-97.084
T3
X120.795Y-82.975
X120.795Y-85.515
X120.795Y-88.055
X120.795Y-90.595
X120.795Y-93.135
X120.795Y-95.675
X120.795Y-98.215
X120.795Y-100.755
X120.795Y-103.295
X120.795Y-105.835
X123.335Y-82.975
X123.335Y-85.515
X123.335Y-88.055
X123.335Y-90.595
X123.335Y-93.135
X123.335Y-95.675
X123.335Y-98.215
X123.335Y-100.755
X123.335Y-103.295
X123.335Y-105.835
X128.14Y-93.46
X128.14Y-90.92
X128.14Y-96.0
X128.14Y-98.54
X130.68Y-93.46
X130.68Y-98.54
X130.68Y-96.0
X130.68Y-90.92
T2
X110.8Y-95.8G85X110.2Y-95.8
G05
X110.8Y-104.44G85X110.2Y-104.44
G05
X115.23Y-95.8G85X114.13Y-95.8
G05
X115.23Y-104.44G85X114.13Y-104.44
G05
M30
