G04 #@! TF.GenerationSoftware,KiCad,Pcbnew,8.0.5*
G04 #@! TF.CreationDate,2026-07-11T20:47:10-05:00*
G04 #@! TF.ProjectId,programmer_adapter_v5p0,70726f67-7261-46d6-9d65-725f61646170,rev?*
G04 #@! TF.SameCoordinates,Original*
G04 #@! TF.FileFunction,Paste,Top*
G04 #@! TF.FilePolarity,Positive*
%FSLAX46Y46*%
G04 Gerber Fmt 4.6, Leading zero omitted, Abs format (unit mm)*
G04 Created by KiCad (PCBNEW 8.0.5) date 2026-07-11 20:47:10*
%MOMM*%
%LPD*%
G01*
G04 APERTURE LIST*
G04 Aperture macros list*
%AMRoundRect*
0 Rectangle with rounded corners*
0 $1 Rounding radius*
0 $2 $3 $4 $5 $6 $7 $8 $9 X,Y pos of 4 corners*
0 Add a 4 corners polygon primitive as box body*
4,1,4,$2,$3,$4,$5,$6,$7,$8,$9,$2,$3,0*
0 Add four circle primitives for the rounded corners*
1,1,$1+$1,$2,$3*
1,1,$1+$1,$4,$5*
1,1,$1+$1,$6,$7*
1,1,$1+$1,$8,$9*
0 Add four rect primitives between the rounded corners*
20,1,$1+$1,$2,$3,$4,$5,0*
20,1,$1+$1,$4,$5,$6,$7,0*
20,1,$1+$1,$6,$7,$8,$9,0*
20,1,$1+$1,$8,$9,$2,$3,0*%
%AMRotRect*
0 Rectangle, with rotation*
0 The origin of the aperture is its center*
0 $1 length*
0 $2 width*
0 $3 Rotation angle, in degrees counterclockwise*
0 Add horizontal line*
21,1,$1,$2,0,0,$3*%
G04 Aperture macros list end*
%ADD10R,1.761200X0.850800*%
%ADD11R,1.761200X3.150799*%
%ADD12RoundRect,0.155000X0.155000X-0.212500X0.155000X0.212500X-0.155000X0.212500X-0.155000X-0.212500X0*%
%ADD13RoundRect,0.250000X0.475000X-0.337500X0.475000X0.337500X-0.475000X0.337500X-0.475000X-0.337500X0*%
%ADD14RoundRect,0.237500X0.250000X0.237500X-0.250000X0.237500X-0.250000X-0.237500X0.250000X-0.237500X0*%
%ADD15RoundRect,0.237500X0.237500X-0.250000X0.237500X0.250000X-0.237500X0.250000X-0.237500X-0.250000X0*%
%ADD16RoundRect,0.250000X-0.337500X-0.475000X0.337500X-0.475000X0.337500X0.475000X-0.337500X0.475000X0*%
%ADD17RoundRect,0.155000X-0.155000X0.212500X-0.155000X-0.212500X0.155000X-0.212500X0.155000X0.212500X0*%
%ADD18R,0.400000X0.470000*%
%ADD19R,1.700000X0.950000*%
%ADD20RoundRect,0.155000X-0.040659X-0.259862X0.259862X0.040659X0.040659X0.259862X-0.259862X-0.040659X0*%
%ADD21RoundRect,0.155000X-0.259862X0.040659X0.040659X-0.259862X0.259862X-0.040659X-0.040659X0.259862X0*%
%ADD22RoundRect,0.237500X0.237500X-0.300000X0.237500X0.300000X-0.237500X0.300000X-0.237500X-0.300000X0*%
%ADD23R,1.550000X0.410000*%
%ADD24R,1.550000X0.260000*%
%ADD25RoundRect,0.237500X0.287500X0.237500X-0.287500X0.237500X-0.287500X-0.237500X0.287500X-0.237500X0*%
%ADD26R,2.300000X0.500000*%
%ADD27R,2.500000X2.000000*%
%ADD28R,1.450000X0.600000*%
%ADD29R,1.450000X0.300000*%
%ADD30RoundRect,0.237500X-0.237500X0.300000X-0.237500X-0.300000X0.237500X-0.300000X0.237500X0.300000X0*%
%ADD31RoundRect,0.175000X0.512652X0.265165X0.265165X0.512652X-0.512652X-0.265165X-0.265165X-0.512652X0*%
%ADD32RoundRect,0.237500X0.300000X0.237500X-0.300000X0.237500X-0.300000X-0.237500X0.300000X-0.237500X0*%
%ADD33RoundRect,0.150000X-0.587500X-0.150000X0.587500X-0.150000X0.587500X0.150000X-0.587500X0.150000X0*%
%ADD34RoundRect,0.175000X-0.512652X-0.265165X-0.265165X-0.512652X0.512652X0.265165X0.265165X0.512652X0*%
%ADD35RoundRect,0.175000X-0.175000X-0.550000X0.175000X-0.550000X0.175000X0.550000X-0.175000X0.550000X0*%
%ADD36RotRect,0.300000X0.625000X315.000000*%
%ADD37RotRect,0.300000X0.625000X45.000000*%
%ADD38RotRect,1.700000X1.700000X315.000000*%
%ADD39RoundRect,0.150000X-0.512500X-0.150000X0.512500X-0.150000X0.512500X0.150000X-0.512500X0.150000X0*%
%ADD40RoundRect,0.237500X-0.250000X-0.237500X0.250000X-0.237500X0.250000X0.237500X-0.250000X0.237500X0*%
G04 APERTURE END LIST*
D10*
X133765000Y-91527499D03*
X133765000Y-93827499D03*
X133765000Y-96127499D03*
D11*
X139815000Y-93827499D03*
D12*
X132600000Y-86405000D03*
X132600000Y-85270000D03*
D13*
X134420000Y-88377500D03*
X134420000Y-86302500D03*
D14*
X133372500Y-106540000D03*
X131547500Y-106540000D03*
X131375000Y-108130000D03*
X129550000Y-108130000D03*
D15*
X139710000Y-101452500D03*
X139710000Y-99627500D03*
D16*
X136792500Y-88210000D03*
X138867500Y-88210000D03*
D17*
X133410000Y-80582500D03*
X133410000Y-81717500D03*
D18*
X118649994Y-98470002D03*
X117999994Y-98470002D03*
X117349994Y-98470002D03*
X117349994Y-100300002D03*
X117999994Y-100300002D03*
X118649994Y-100300002D03*
D19*
X117999994Y-99385002D03*
D20*
X145997434Y-90602566D03*
X146800000Y-89800000D03*
D21*
X147600000Y-99200000D03*
X146797434Y-98397434D03*
D22*
X117700000Y-97200000D03*
X117700000Y-95475000D03*
D23*
X152176379Y-91888621D03*
D24*
X152176379Y-92463621D03*
X152176379Y-92963621D03*
X152176379Y-93463621D03*
X152176379Y-93963621D03*
X152176379Y-94463621D03*
X152176379Y-94963621D03*
X152176379Y-95463621D03*
X152176379Y-95963621D03*
X152176379Y-96463621D03*
X152176379Y-96963621D03*
D23*
X152176379Y-97538621D03*
D25*
X131550000Y-104700000D03*
X133300000Y-104700000D03*
X136550000Y-80600000D03*
X134800000Y-80600000D03*
D26*
X116237500Y-87350000D03*
X116237501Y-88149999D03*
X116237498Y-88950000D03*
X116237499Y-89750001D03*
X116237500Y-90550000D03*
D27*
X116137500Y-84500001D03*
X116137502Y-93399997D03*
X110637500Y-93400000D03*
X110637500Y-84500000D03*
D28*
X115595000Y-96870000D03*
X115595000Y-97670000D03*
D29*
X115595000Y-98870000D03*
X115595000Y-99870000D03*
X115595000Y-100370000D03*
X115595000Y-101370000D03*
D28*
X115595000Y-102570000D03*
X115595000Y-103370000D03*
X115595000Y-103370000D03*
X115595000Y-102570000D03*
D29*
X115595000Y-101870000D03*
X115595000Y-100870000D03*
X115595000Y-99370000D03*
X115595000Y-98370000D03*
D28*
X115595000Y-97670000D03*
X115595000Y-96870000D03*
D21*
X146900000Y-100000000D03*
X146097434Y-99197434D03*
D30*
X117700000Y-101675000D03*
X117700000Y-103400000D03*
D20*
X145300000Y-89900000D03*
X146102566Y-89097434D03*
X146697434Y-91302566D03*
X147500000Y-90500000D03*
D21*
X146200000Y-100800000D03*
X145397434Y-99997434D03*
D31*
X139260000Y-82850000D03*
X138199340Y-81789340D03*
D25*
X133375000Y-103100000D03*
X131625000Y-103100000D03*
D32*
X111262500Y-106200000D03*
X109537500Y-106200000D03*
D33*
X127799999Y-101200001D03*
X127800000Y-103100000D03*
X129675000Y-102150000D03*
D34*
X140469670Y-84059670D03*
X141530330Y-85120330D03*
D15*
X126010000Y-106242500D03*
X126010000Y-104417500D03*
D33*
X127800000Y-104700000D03*
X127800001Y-106599999D03*
X129675001Y-105649999D03*
D14*
X133300000Y-101200000D03*
X131475000Y-101200000D03*
D35*
X136400000Y-102000000D03*
X137900000Y-102000000D03*
D36*
X112892894Y-107892894D03*
X113246447Y-108246447D03*
X113600000Y-108600000D03*
X113953554Y-108953554D03*
D37*
X114855115Y-108995980D03*
X115208668Y-108642427D03*
X115562222Y-108288873D03*
X115915775Y-107935320D03*
D36*
X115915775Y-106991332D03*
X115562222Y-106637779D03*
X115208668Y-106284226D03*
X114855115Y-105930672D03*
D37*
X113953554Y-105973099D03*
X113600000Y-106326652D03*
X113246447Y-106680205D03*
X112892894Y-107033759D03*
D38*
X114418476Y-107463326D03*
D39*
X129662500Y-80650000D03*
X129662500Y-81600000D03*
X129662500Y-82550000D03*
X131937500Y-82550000D03*
X131937500Y-81600000D03*
X131937500Y-80650000D03*
D40*
X126037500Y-82650000D03*
X127862500Y-82650000D03*
D14*
X136582500Y-82200000D03*
X134757500Y-82200000D03*
D40*
X130617500Y-88290000D03*
X132442500Y-88290000D03*
D14*
X138102500Y-100120000D03*
X136277500Y-100120000D03*
X111300000Y-107800000D03*
X109475000Y-107800000D03*
X136562500Y-83760000D03*
X134737500Y-83760000D03*
D30*
X117700000Y-105075000D03*
X117700000Y-106800000D03*
D40*
X128035000Y-108120000D03*
X126210000Y-108120000D03*
D35*
X136400000Y-104700000D03*
X137900000Y-104700000D03*
M02*
