%TF.GenerationSoftware,KiCad,Pcbnew,8.0.5*%
%TF.CreationDate,2026-07-11T20:47:17-05:00*%
%TF.ProjectId,programmer_adapter_v5p0,70726f67-7261-46d6-9d65-725f61646170,rev?*%
%TF.SameCoordinates,Original*%
%TF.FileFunction,Drillmap*%
%TF.FilePolarity,Positive*%
%FSLAX45Y45*%
G04 Gerber Fmt 4.5, Leading zero omitted, Abs format (unit mm)*
G04 Created by KiCad (PCBNEW 8.0.5) date 2026-07-11 20:47:17*
%MOMM*%
%LPD*%
G01*
G04 APERTURE LIST*
%ADD10C,0.100000*%
%ADD11C,0.200000*%
G04 APERTURE END LIST*
D10*
X10840000Y-7870000D02*
X10840000Y-11070000D01*
X13699776Y-7870000D02*
X14911138Y-9081362D01*
X10840000Y-11070000D02*
X13699776Y-11070000D01*
X10840000Y-7870000D02*
X13699776Y-7870000D01*
X14910000Y-9901362D02*
X13699776Y-11070000D01*
X14909888Y-9901362D02*
X15080138Y-9901362D01*
X15080138Y-9901362D02*
X15080138Y-9861362D01*
X15295138Y-9081362D02*
X14911138Y-9081362D01*
X15295138Y-9861362D02*
X15080138Y-9861362D01*
X15340138Y-9113862D02*
X15295138Y-9081362D01*
X15340138Y-9158862D02*
X15340138Y-9113862D01*
X15340138Y-9783862D02*
X15340138Y-9824362D01*
X15340138Y-9824362D02*
X15295138Y-9861362D01*
X15345138Y-9481362D02*
X15345138Y-9381362D01*
X15365138Y-9501362D02*
X15385138Y-9501362D01*
X15385138Y-9178862D02*
X15360138Y-9178862D01*
X15385138Y-9361362D02*
X15365138Y-9361362D01*
X15385138Y-9763862D02*
X15360138Y-9763862D01*
X15405138Y-9341362D02*
X15405138Y-9198862D01*
X15405138Y-9521362D02*
X15405138Y-9743862D01*
X15340138Y-9783862D02*
G75*
G02*
X15360138Y-9763862I20000J0D01*
G01*
X15345138Y-9381362D02*
G75*
G02*
X15365138Y-9361362I20000J0D01*
G01*
X15360138Y-9178862D02*
G75*
G02*
X15340138Y-9158862I0J20000D01*
G01*
X15365138Y-9501362D02*
G75*
G02*
X15345138Y-9481362I0J20000D01*
G01*
X15385138Y-9178862D02*
G75*
G02*
X15405138Y-9198862I0J-20000D01*
G01*
X15385138Y-9501362D02*
G75*
G02*
X15405138Y-9521362I0J-20000D01*
G01*
X15405138Y-9341362D02*
G75*
G02*
X15385138Y-9361362I-20000J0D01*
G01*
X15405138Y-9743862D02*
G75*
G02*
X15385138Y-9763862I-20000J0D01*
G01*
D11*
D10*
X10981000Y-10922000D02*
X11021000Y-10962000D01*
X11021000Y-10922000D02*
X10981000Y-10962000D01*
X11021000Y-9966000D02*
X11061000Y-10006000D01*
X11061000Y-9966000D02*
X11021000Y-10006000D01*
X11115000Y-9785000D02*
X11155000Y-9825000D01*
X11155000Y-9785000D02*
X11115000Y-9825000D01*
X11132161Y-10867500D02*
X11172161Y-10907500D01*
X11172161Y-10867500D02*
X11132161Y-10907500D01*
X11145000Y-10160000D02*
X11185000Y-10200000D01*
X11185000Y-10160000D02*
X11145000Y-10200000D01*
X11281000Y-10942349D02*
X11321000Y-10982349D01*
X11321000Y-10942349D02*
X11281000Y-10982349D01*
X11290000Y-9862500D02*
X11330000Y-9902500D01*
X11330000Y-9862500D02*
X11290000Y-9902500D01*
X11387596Y-10179228D02*
X11427596Y-10219228D01*
X11427596Y-10179228D02*
X11387596Y-10219228D01*
X11395902Y-9899500D02*
X11435902Y-9939500D01*
X11435902Y-9899500D02*
X11395902Y-9939500D01*
X11400000Y-10080000D02*
X11440000Y-10120000D01*
X11440000Y-10080000D02*
X11400000Y-10120000D01*
X11620000Y-10420000D02*
X11660000Y-10460000D01*
X11660000Y-10420000D02*
X11620000Y-10460000D01*
X11840000Y-10660000D02*
X11880000Y-10700000D01*
X11880000Y-10660000D02*
X11840000Y-10700000D01*
X11841012Y-10129629D02*
X11881012Y-10169629D01*
X11881012Y-10129629D02*
X11841012Y-10169629D01*
X11866000Y-9216000D02*
X11906000Y-9256000D01*
X11906000Y-9216000D02*
X11866000Y-9256000D01*
X11877000Y-8563000D02*
X11917000Y-8603000D01*
X11917000Y-8563000D02*
X11877000Y-8603000D01*
X11889000Y-10290000D02*
X11929000Y-10330000D01*
X11929000Y-10290000D02*
X11889000Y-10330000D01*
X11895000Y-8175000D02*
X11935000Y-8215000D01*
X11935000Y-8175000D02*
X11895000Y-8215000D01*
X11905000Y-8990000D02*
X11945000Y-9030000D01*
X11945000Y-8990000D02*
X11905000Y-9030000D01*
X11941311Y-10763750D02*
X11981311Y-10803750D01*
X11981311Y-10763750D02*
X11941311Y-10803750D01*
X12182000Y-8014000D02*
X12222000Y-8054000D01*
X12222000Y-8014000D02*
X12182000Y-8054000D01*
X12205000Y-9402000D02*
X12245000Y-9442000D01*
X12245000Y-9402000D02*
X12205000Y-9442000D01*
X12390684Y-10186735D02*
X12430684Y-10226735D01*
X12430684Y-10186735D02*
X12390684Y-10226735D01*
X12409130Y-10454500D02*
X12449130Y-10494500D01*
X12449130Y-10454500D02*
X12409130Y-10494500D01*
X12449253Y-9922552D02*
X12489253Y-9962552D01*
X12489253Y-9922552D02*
X12449253Y-9962552D01*
X12469000Y-8133780D02*
X12509000Y-8173780D01*
X12509000Y-8133780D02*
X12469000Y-8173780D01*
X12496615Y-10134882D02*
X12536615Y-10174882D01*
X12536615Y-10134882D02*
X12496615Y-10174882D01*
X12499881Y-9768119D02*
X12539881Y-9808119D01*
X12539881Y-9768119D02*
X12499881Y-9808119D01*
X12542500Y-10046030D02*
X12582500Y-10086030D01*
X12582500Y-10046030D02*
X12542500Y-10086030D01*
X12544500Y-9020000D02*
X12584500Y-9060000D01*
X12584500Y-9020000D02*
X12544500Y-9060000D01*
X12544500Y-9172527D02*
X12584500Y-9212527D01*
X12584500Y-9172527D02*
X12544500Y-9212527D01*
X12598923Y-10291500D02*
X12638923Y-10331500D01*
X12638923Y-10291500D02*
X12598923Y-10331500D01*
X12649000Y-8356000D02*
X12689000Y-8396000D01*
X12689000Y-8356000D02*
X12649000Y-8396000D01*
X12696626Y-10550083D02*
X12736626Y-10590083D01*
X12736626Y-10550083D02*
X12696626Y-10590083D01*
X12798175Y-8137675D02*
X12838175Y-8177675D01*
X12838175Y-8137675D02*
X12798175Y-8177675D01*
X12893750Y-10285226D02*
X12933750Y-10325226D01*
X12933750Y-10285226D02*
X12893750Y-10325226D01*
X12915000Y-9232000D02*
X12955000Y-9272000D01*
X12955000Y-9232000D02*
X12915000Y-9272000D01*
X12934352Y-8321613D02*
X12974352Y-8361613D01*
X12974352Y-8321613D02*
X12934352Y-8361613D01*
X12954000Y-10657000D02*
X12994000Y-10697000D01*
X12994000Y-10657000D02*
X12954000Y-10697000D01*
X13022500Y-10456763D02*
X13062500Y-10496763D01*
X13062500Y-10456763D02*
X13022500Y-10496763D01*
X13106000Y-8693000D02*
X13146000Y-8733000D01*
X13146000Y-8693000D02*
X13106000Y-8733000D01*
X13108000Y-8925000D02*
X13148000Y-8965000D01*
X13148000Y-8925000D02*
X13108000Y-8965000D01*
X13113500Y-8503500D02*
X13153500Y-8543500D01*
X13153500Y-8503500D02*
X13113500Y-8543500D01*
X13178367Y-8964162D02*
X13218367Y-9004162D01*
X13218367Y-8964162D02*
X13178367Y-9004162D01*
X13227000Y-10793000D02*
X13267000Y-10833000D01*
X13267000Y-10793000D02*
X13227000Y-10833000D01*
X13310159Y-8890894D02*
X13350159Y-8930894D01*
X13350159Y-8890894D02*
X13310159Y-8930894D01*
X13315179Y-10742179D02*
X13355179Y-10782179D01*
X13355179Y-10742179D02*
X13315179Y-10782179D01*
X13325000Y-8267000D02*
X13365000Y-8307000D01*
X13365000Y-8267000D02*
X13325000Y-8307000D01*
X13349000Y-8422000D02*
X13389000Y-8462000D01*
X13389000Y-8422000D02*
X13349000Y-8462000D01*
X13414000Y-10117500D02*
X13454000Y-10157500D01*
X13454000Y-10117500D02*
X13414000Y-10157500D01*
X13418000Y-10605000D02*
X13458000Y-10645000D01*
X13458000Y-10605000D02*
X13418000Y-10645000D01*
X13423500Y-10838920D02*
X13463500Y-10878920D01*
X13463500Y-10838920D02*
X13423500Y-10878920D01*
X13467000Y-10450500D02*
X13507000Y-10490500D01*
X13507000Y-10450500D02*
X13467000Y-10490500D01*
X13513000Y-10292000D02*
X13553000Y-10332000D01*
X13553000Y-10292000D02*
X13513000Y-10332000D01*
X13514000Y-10117500D02*
X13554000Y-10157500D01*
X13554000Y-10117500D02*
X13514000Y-10157500D01*
X13517000Y-9916000D02*
X13557000Y-9956000D01*
X13557000Y-9916000D02*
X13517000Y-9956000D01*
X13542000Y-9581000D02*
X13582000Y-9621000D01*
X13582000Y-9581000D02*
X13542000Y-9621000D01*
X13547170Y-8124399D02*
X13587170Y-8164399D01*
X13587170Y-8124399D02*
X13547170Y-8164399D01*
X13559000Y-9470000D02*
X13599000Y-9510000D01*
X13599000Y-9470000D02*
X13559000Y-9510000D01*
X13594560Y-8973890D02*
X13634560Y-9013890D01*
X13634560Y-8973890D02*
X13594560Y-9013890D01*
X13594560Y-9073891D02*
X13634560Y-9113891D01*
X13634560Y-9073891D02*
X13594560Y-9113891D01*
X13624000Y-10958000D02*
X13664000Y-10998000D01*
X13664000Y-10958000D02*
X13624000Y-10998000D01*
X13633000Y-8493000D02*
X13673000Y-8533000D01*
X13673000Y-8493000D02*
X13633000Y-8533000D01*
X13636439Y-10752500D02*
X13676439Y-10792500D01*
X13676439Y-10752500D02*
X13636439Y-10792500D01*
X13695000Y-10072565D02*
X13735000Y-10112565D01*
X13735000Y-10072565D02*
X13695000Y-10112565D01*
X13707596Y-10886404D02*
X13747596Y-10926404D01*
X13747596Y-10886404D02*
X13707596Y-10926404D01*
X13759000Y-8307000D02*
X13799000Y-8347000D01*
X13799000Y-8307000D02*
X13759000Y-8347000D01*
X13760000Y-10797500D02*
X13800000Y-10837500D01*
X13800000Y-10797500D02*
X13760000Y-10837500D01*
X13884582Y-10376583D02*
X13924582Y-10416583D01*
X13924582Y-10376583D02*
X13884582Y-10416583D01*
X13953947Y-8499307D02*
X13993947Y-8539307D01*
X13993947Y-8499307D02*
X13953947Y-8539307D01*
X14005000Y-9817000D02*
X14045000Y-9857000D01*
X14045000Y-9817000D02*
X14005000Y-9857000D01*
X14104161Y-10157004D02*
X14144161Y-10197004D01*
X14144161Y-10157004D02*
X14104161Y-10197004D01*
X14134185Y-9672500D02*
X14174185Y-9712500D01*
X14174185Y-9672500D02*
X14134185Y-9712500D01*
X14158663Y-9769458D02*
X14198663Y-9809458D01*
X14198663Y-9769458D02*
X14158663Y-9809458D01*
X14174872Y-10086293D02*
X14214872Y-10126293D01*
X14214872Y-10086293D02*
X14174872Y-10126293D01*
X14232575Y-9690372D02*
X14272575Y-9730372D01*
X14272575Y-9690372D02*
X14232575Y-9730372D01*
X14245582Y-10015583D02*
X14285582Y-10055583D01*
X14285582Y-10015583D02*
X14245582Y-10055583D01*
X14287532Y-10305973D02*
X14327532Y-10345973D01*
X14327532Y-10305973D02*
X14287532Y-10345973D01*
X14310079Y-9823806D02*
X14350079Y-9863806D01*
X14350079Y-9823806D02*
X14310079Y-9863806D01*
X14321494Y-10208372D02*
X14361494Y-10248372D01*
X14361494Y-10208372D02*
X14321494Y-10248372D01*
X14358113Y-10108113D02*
X14398113Y-10148113D01*
X14398113Y-10108113D02*
X14358113Y-10148113D01*
X14372262Y-8829664D02*
X14412262Y-8869664D01*
X14412262Y-8829664D02*
X14372262Y-8869664D01*
X14408721Y-9788804D02*
X14448721Y-9828804D01*
X14448721Y-9788804D02*
X14408721Y-9828804D01*
X14428824Y-10037402D02*
X14468824Y-10077402D01*
X14468824Y-10037402D02*
X14428824Y-10077402D01*
X14469000Y-8855000D02*
X14509000Y-8895000D01*
X14509000Y-8855000D02*
X14469000Y-8895000D01*
X14482418Y-9720000D02*
X14522418Y-9760000D01*
X14522418Y-9720000D02*
X14482418Y-9760000D01*
X14559009Y-9802811D02*
X14599009Y-9842811D01*
X14599009Y-9802811D02*
X14559009Y-9842811D01*
X14631509Y-9712000D02*
X14671509Y-9752000D01*
X14671509Y-9712000D02*
X14631509Y-9752000D01*
X14679266Y-9504416D02*
X14719266Y-9544416D01*
X14719266Y-9504416D02*
X14679266Y-9544416D01*
X14742150Y-9782495D02*
X14782150Y-9822495D01*
X14782150Y-9782495D02*
X14742150Y-9822495D01*
X14753756Y-9180000D02*
X14793756Y-9220000D01*
X14793756Y-9180000D02*
X14753756Y-9220000D01*
X14815000Y-9851000D02*
X14855000Y-9891000D01*
X14855000Y-9851000D02*
X14815000Y-9891000D01*
X14818000Y-9081000D02*
X14858000Y-9121000D01*
X14858000Y-9081000D02*
X14818000Y-9121000D01*
X14827726Y-9256896D02*
X14867726Y-9296896D01*
X14867726Y-9256896D02*
X14827726Y-9296896D01*
X14884204Y-9598862D02*
X14924204Y-9638862D01*
X14924204Y-9598862D02*
X14884204Y-9638862D01*
X14986735Y-9598862D02*
X15026735Y-9638862D01*
X15026735Y-9598862D02*
X14986735Y-9638862D01*
X15032021Y-9688448D02*
X15072021Y-9728448D01*
X15072021Y-9688448D02*
X15032021Y-9728448D01*
X11080000Y-9580000D02*
G75*
G02*
X11020000Y-9580000I-30000J0D01*
G01*
X11020000Y-9580000D02*
G75*
G02*
X11080000Y-9580000I30000J0D01*
G01*
X11080000Y-9550000D02*
X11020000Y-9550000D01*
X11020000Y-9610000D02*
G75*
G02*
X11020000Y-9550000I0J30000D01*
G01*
X11020000Y-9610000D02*
X11080000Y-9610000D01*
X11080000Y-9610000D02*
G75*
G03*
X11080000Y-9550000I0J30000D01*
G01*
X11080000Y-10444000D02*
G75*
G02*
X11020000Y-10444000I-30000J0D01*
G01*
X11020000Y-10444000D02*
G75*
G02*
X11080000Y-10444000I30000J0D01*
G01*
X11080000Y-10414000D02*
X11020000Y-10414000D01*
X11020000Y-10474000D02*
G75*
G02*
X11020000Y-10414000I0J30000D01*
G01*
X11020000Y-10474000D02*
X11080000Y-10474000D01*
X11080000Y-10474000D02*
G75*
G03*
X11080000Y-10414000I0J30000D01*
G01*
X11498000Y-9580000D02*
G75*
G02*
X11438000Y-9580000I-30000J0D01*
G01*
X11438000Y-9580000D02*
G75*
G02*
X11498000Y-9580000I30000J0D01*
G01*
X11523000Y-9550000D02*
X11413000Y-9550000D01*
X11413000Y-9610000D02*
G75*
G02*
X11413000Y-9550000I0J30000D01*
G01*
X11413000Y-9610000D02*
X11523000Y-9610000D01*
X11523000Y-9610000D02*
G75*
G03*
X11523000Y-9550000I0J30000D01*
G01*
X11498000Y-10444000D02*
G75*
G02*
X11438000Y-10444000I-30000J0D01*
G01*
X11438000Y-10444000D02*
G75*
G02*
X11498000Y-10444000I30000J0D01*
G01*
X11523000Y-10414000D02*
X11413000Y-10414000D01*
X11413000Y-10474000D02*
G75*
G02*
X11413000Y-10414000I0J30000D01*
G01*
X11413000Y-10474000D02*
X11523000Y-10474000D01*
X11523000Y-10474000D02*
G75*
G03*
X11523000Y-10414000I0J30000D01*
G01*
X12079460Y-8247460D02*
X12079460Y-8347460D01*
X12029460Y-8297460D02*
X12129460Y-8297460D01*
X12079460Y-8501460D02*
X12079460Y-8601460D01*
X12029460Y-8551460D02*
X12129460Y-8551460D01*
X12079460Y-8755460D02*
X12079460Y-8855460D01*
X12029460Y-8805460D02*
X12129460Y-8805460D01*
X12079460Y-9009460D02*
X12079460Y-9109460D01*
X12029460Y-9059460D02*
X12129460Y-9059460D01*
X12079460Y-9263460D02*
X12079460Y-9363460D01*
X12029460Y-9313460D02*
X12129460Y-9313460D01*
X12079460Y-9517460D02*
X12079460Y-9617460D01*
X12029460Y-9567460D02*
X12129460Y-9567460D01*
X12079460Y-9771460D02*
X12079460Y-9871460D01*
X12029460Y-9821460D02*
X12129460Y-9821460D01*
X12079460Y-10025460D02*
X12079460Y-10125460D01*
X12029460Y-10075460D02*
X12129460Y-10075460D01*
X12079460Y-10279460D02*
X12079460Y-10379460D01*
X12029460Y-10329460D02*
X12129460Y-10329460D01*
X12079460Y-10533460D02*
X12079460Y-10633460D01*
X12029460Y-10583460D02*
X12129460Y-10583460D01*
X12333460Y-8247460D02*
X12333460Y-8347460D01*
X12283460Y-8297460D02*
X12383460Y-8297460D01*
X12333460Y-8501460D02*
X12333460Y-8601460D01*
X12283460Y-8551460D02*
X12383460Y-8551460D01*
X12333460Y-8755460D02*
X12333460Y-8855460D01*
X12283460Y-8805460D02*
X12383460Y-8805460D01*
X12333460Y-9009460D02*
X12333460Y-9109460D01*
X12283460Y-9059460D02*
X12383460Y-9059460D01*
X12333460Y-9263460D02*
X12333460Y-9363460D01*
X12283460Y-9313460D02*
X12383460Y-9313460D01*
X12333460Y-9517460D02*
X12333460Y-9617460D01*
X12283460Y-9567460D02*
X12383460Y-9567460D01*
X12333460Y-9771460D02*
X12333460Y-9871460D01*
X12283460Y-9821460D02*
X12383460Y-9821460D01*
X12333460Y-10025460D02*
X12333460Y-10125460D01*
X12283460Y-10075460D02*
X12383460Y-10075460D01*
X12333460Y-10279460D02*
X12333460Y-10379460D01*
X12283460Y-10329460D02*
X12383460Y-10329460D01*
X12333460Y-10533460D02*
X12333460Y-10633460D01*
X12283460Y-10583460D02*
X12383460Y-10583460D01*
X12814000Y-9296000D02*
X12814000Y-9396000D01*
X12764000Y-9346000D02*
X12864000Y-9346000D01*
X12814000Y-9042000D02*
X12814000Y-9142000D01*
X12764000Y-9092000D02*
X12864000Y-9092000D01*
X12814000Y-9550000D02*
X12814000Y-9650000D01*
X12764000Y-9600000D02*
X12864000Y-9600000D01*
X12814000Y-9804000D02*
X12814000Y-9904000D01*
X12764000Y-9854000D02*
X12864000Y-9854000D01*
X13068000Y-9296000D02*
X13068000Y-9396000D01*
X13018000Y-9346000D02*
X13118000Y-9346000D01*
X13068000Y-9804000D02*
X13068000Y-9904000D01*
X13018000Y-9854000D02*
X13118000Y-9854000D01*
X13068000Y-9550000D02*
X13068000Y-9650000D01*
X13018000Y-9600000D02*
X13118000Y-9600000D01*
X13068000Y-9042000D02*
X13068000Y-9142000D01*
X13018000Y-9092000D02*
X13118000Y-9092000D01*
D11*
X11095777Y-11386484D02*
X11095777Y-11186484D01*
X11095777Y-11186484D02*
X11143396Y-11186484D01*
X11143396Y-11186484D02*
X11171967Y-11196008D01*
X11171967Y-11196008D02*
X11191015Y-11215055D01*
X11191015Y-11215055D02*
X11200539Y-11234103D01*
X11200539Y-11234103D02*
X11210062Y-11272198D01*
X11210062Y-11272198D02*
X11210062Y-11300769D01*
X11210062Y-11300769D02*
X11200539Y-11338865D01*
X11200539Y-11338865D02*
X11191015Y-11357912D01*
X11191015Y-11357912D02*
X11171967Y-11376960D01*
X11171967Y-11376960D02*
X11143396Y-11386484D01*
X11143396Y-11386484D02*
X11095777Y-11386484D01*
X11295777Y-11386484D02*
X11295777Y-11253150D01*
X11295777Y-11291246D02*
X11305301Y-11272198D01*
X11305301Y-11272198D02*
X11314824Y-11262674D01*
X11314824Y-11262674D02*
X11333872Y-11253150D01*
X11333872Y-11253150D02*
X11352920Y-11253150D01*
X11419586Y-11386484D02*
X11419586Y-11253150D01*
X11419586Y-11186484D02*
X11410062Y-11196008D01*
X11410062Y-11196008D02*
X11419586Y-11205531D01*
X11419586Y-11205531D02*
X11429110Y-11196008D01*
X11429110Y-11196008D02*
X11419586Y-11186484D01*
X11419586Y-11186484D02*
X11419586Y-11205531D01*
X11543396Y-11386484D02*
X11524348Y-11376960D01*
X11524348Y-11376960D02*
X11514824Y-11357912D01*
X11514824Y-11357912D02*
X11514824Y-11186484D01*
X11648158Y-11386484D02*
X11629110Y-11376960D01*
X11629110Y-11376960D02*
X11619586Y-11357912D01*
X11619586Y-11357912D02*
X11619586Y-11186484D01*
X11876729Y-11386484D02*
X11876729Y-11186484D01*
X11876729Y-11186484D02*
X11943396Y-11329341D01*
X11943396Y-11329341D02*
X12010062Y-11186484D01*
X12010062Y-11186484D02*
X12010062Y-11386484D01*
X12191015Y-11386484D02*
X12191015Y-11281722D01*
X12191015Y-11281722D02*
X12181491Y-11262674D01*
X12181491Y-11262674D02*
X12162443Y-11253150D01*
X12162443Y-11253150D02*
X12124348Y-11253150D01*
X12124348Y-11253150D02*
X12105301Y-11262674D01*
X12191015Y-11376960D02*
X12171967Y-11386484D01*
X12171967Y-11386484D02*
X12124348Y-11386484D01*
X12124348Y-11386484D02*
X12105301Y-11376960D01*
X12105301Y-11376960D02*
X12095777Y-11357912D01*
X12095777Y-11357912D02*
X12095777Y-11338865D01*
X12095777Y-11338865D02*
X12105301Y-11319817D01*
X12105301Y-11319817D02*
X12124348Y-11310293D01*
X12124348Y-11310293D02*
X12171967Y-11310293D01*
X12171967Y-11310293D02*
X12191015Y-11300769D01*
X12286253Y-11253150D02*
X12286253Y-11453150D01*
X12286253Y-11262674D02*
X12305301Y-11253150D01*
X12305301Y-11253150D02*
X12343396Y-11253150D01*
X12343396Y-11253150D02*
X12362443Y-11262674D01*
X12362443Y-11262674D02*
X12371967Y-11272198D01*
X12371967Y-11272198D02*
X12381491Y-11291246D01*
X12381491Y-11291246D02*
X12381491Y-11348388D01*
X12381491Y-11348388D02*
X12371967Y-11367436D01*
X12371967Y-11367436D02*
X12362443Y-11376960D01*
X12362443Y-11376960D02*
X12343396Y-11386484D01*
X12343396Y-11386484D02*
X12305301Y-11386484D01*
X12305301Y-11386484D02*
X12286253Y-11376960D01*
X12467205Y-11367436D02*
X12476729Y-11376960D01*
X12476729Y-11376960D02*
X12467205Y-11386484D01*
X12467205Y-11386484D02*
X12457682Y-11376960D01*
X12457682Y-11376960D02*
X12467205Y-11367436D01*
X12467205Y-11367436D02*
X12467205Y-11386484D01*
X12467205Y-11262674D02*
X12476729Y-11272198D01*
X12476729Y-11272198D02*
X12467205Y-11281722D01*
X12467205Y-11281722D02*
X12457682Y-11272198D01*
X12457682Y-11272198D02*
X12467205Y-11262674D01*
X12467205Y-11262674D02*
X12467205Y-11281722D01*
D10*
X10795000Y-11695000D02*
X10835000Y-11735000D01*
X10835000Y-11695000D02*
X10795000Y-11735000D01*
D11*
X11133872Y-11606484D02*
X11152920Y-11606484D01*
X11152920Y-11606484D02*
X11171967Y-11616008D01*
X11171967Y-11616008D02*
X11181491Y-11625531D01*
X11181491Y-11625531D02*
X11191015Y-11644579D01*
X11191015Y-11644579D02*
X11200539Y-11682674D01*
X11200539Y-11682674D02*
X11200539Y-11730293D01*
X11200539Y-11730293D02*
X11191015Y-11768388D01*
X11191015Y-11768388D02*
X11181491Y-11787436D01*
X11181491Y-11787436D02*
X11171967Y-11796960D01*
X11171967Y-11796960D02*
X11152920Y-11806484D01*
X11152920Y-11806484D02*
X11133872Y-11806484D01*
X11133872Y-11806484D02*
X11114824Y-11796960D01*
X11114824Y-11796960D02*
X11105301Y-11787436D01*
X11105301Y-11787436D02*
X11095777Y-11768388D01*
X11095777Y-11768388D02*
X11086253Y-11730293D01*
X11086253Y-11730293D02*
X11086253Y-11682674D01*
X11086253Y-11682674D02*
X11095777Y-11644579D01*
X11095777Y-11644579D02*
X11105301Y-11625531D01*
X11105301Y-11625531D02*
X11114824Y-11616008D01*
X11114824Y-11616008D02*
X11133872Y-11606484D01*
X11286253Y-11787436D02*
X11295777Y-11796960D01*
X11295777Y-11796960D02*
X11286253Y-11806484D01*
X11286253Y-11806484D02*
X11276729Y-11796960D01*
X11276729Y-11796960D02*
X11286253Y-11787436D01*
X11286253Y-11787436D02*
X11286253Y-11806484D01*
X11467205Y-11673150D02*
X11467205Y-11806484D01*
X11419586Y-11596960D02*
X11371967Y-11739817D01*
X11371967Y-11739817D02*
X11495777Y-11739817D01*
X11610062Y-11606484D02*
X11629110Y-11606484D01*
X11629110Y-11606484D02*
X11648158Y-11616008D01*
X11648158Y-11616008D02*
X11657682Y-11625531D01*
X11657682Y-11625531D02*
X11667205Y-11644579D01*
X11667205Y-11644579D02*
X11676729Y-11682674D01*
X11676729Y-11682674D02*
X11676729Y-11730293D01*
X11676729Y-11730293D02*
X11667205Y-11768388D01*
X11667205Y-11768388D02*
X11657682Y-11787436D01*
X11657682Y-11787436D02*
X11648158Y-11796960D01*
X11648158Y-11796960D02*
X11629110Y-11806484D01*
X11629110Y-11806484D02*
X11610062Y-11806484D01*
X11610062Y-11806484D02*
X11591015Y-11796960D01*
X11591015Y-11796960D02*
X11581491Y-11787436D01*
X11581491Y-11787436D02*
X11571967Y-11768388D01*
X11571967Y-11768388D02*
X11562443Y-11730293D01*
X11562443Y-11730293D02*
X11562443Y-11682674D01*
X11562443Y-11682674D02*
X11571967Y-11644579D01*
X11571967Y-11644579D02*
X11581491Y-11625531D01*
X11581491Y-11625531D02*
X11591015Y-11616008D01*
X11591015Y-11616008D02*
X11610062Y-11606484D01*
X11800539Y-11606484D02*
X11819586Y-11606484D01*
X11819586Y-11606484D02*
X11838634Y-11616008D01*
X11838634Y-11616008D02*
X11848158Y-11625531D01*
X11848158Y-11625531D02*
X11857682Y-11644579D01*
X11857682Y-11644579D02*
X11867205Y-11682674D01*
X11867205Y-11682674D02*
X11867205Y-11730293D01*
X11867205Y-11730293D02*
X11857682Y-11768388D01*
X11857682Y-11768388D02*
X11848158Y-11787436D01*
X11848158Y-11787436D02*
X11838634Y-11796960D01*
X11838634Y-11796960D02*
X11819586Y-11806484D01*
X11819586Y-11806484D02*
X11800539Y-11806484D01*
X11800539Y-11806484D02*
X11781491Y-11796960D01*
X11781491Y-11796960D02*
X11771967Y-11787436D01*
X11771967Y-11787436D02*
X11762443Y-11768388D01*
X11762443Y-11768388D02*
X11752920Y-11730293D01*
X11752920Y-11730293D02*
X11752920Y-11682674D01*
X11752920Y-11682674D02*
X11762443Y-11644579D01*
X11762443Y-11644579D02*
X11771967Y-11625531D01*
X11771967Y-11625531D02*
X11781491Y-11616008D01*
X11781491Y-11616008D02*
X11800539Y-11606484D01*
X11952920Y-11806484D02*
X11952920Y-11673150D01*
X11952920Y-11692198D02*
X11962443Y-11682674D01*
X11962443Y-11682674D02*
X11981491Y-11673150D01*
X11981491Y-11673150D02*
X12010063Y-11673150D01*
X12010063Y-11673150D02*
X12029110Y-11682674D01*
X12029110Y-11682674D02*
X12038634Y-11701722D01*
X12038634Y-11701722D02*
X12038634Y-11806484D01*
X12038634Y-11701722D02*
X12048158Y-11682674D01*
X12048158Y-11682674D02*
X12067205Y-11673150D01*
X12067205Y-11673150D02*
X12095777Y-11673150D01*
X12095777Y-11673150D02*
X12114824Y-11682674D01*
X12114824Y-11682674D02*
X12124348Y-11701722D01*
X12124348Y-11701722D02*
X12124348Y-11806484D01*
X12219586Y-11806484D02*
X12219586Y-11673150D01*
X12219586Y-11692198D02*
X12229110Y-11682674D01*
X12229110Y-11682674D02*
X12248158Y-11673150D01*
X12248158Y-11673150D02*
X12276729Y-11673150D01*
X12276729Y-11673150D02*
X12295777Y-11682674D01*
X12295777Y-11682674D02*
X12305301Y-11701722D01*
X12305301Y-11701722D02*
X12305301Y-11806484D01*
X12305301Y-11701722D02*
X12314824Y-11682674D01*
X12314824Y-11682674D02*
X12333872Y-11673150D01*
X12333872Y-11673150D02*
X12362443Y-11673150D01*
X12362443Y-11673150D02*
X12381491Y-11682674D01*
X12381491Y-11682674D02*
X12391015Y-11701722D01*
X12391015Y-11701722D02*
X12391015Y-11806484D01*
X12781491Y-11596960D02*
X12610063Y-11854103D01*
X13038634Y-11606484D02*
X13057682Y-11606484D01*
X13057682Y-11606484D02*
X13076729Y-11616008D01*
X13076729Y-11616008D02*
X13086253Y-11625531D01*
X13086253Y-11625531D02*
X13095777Y-11644579D01*
X13095777Y-11644579D02*
X13105301Y-11682674D01*
X13105301Y-11682674D02*
X13105301Y-11730293D01*
X13105301Y-11730293D02*
X13095777Y-11768388D01*
X13095777Y-11768388D02*
X13086253Y-11787436D01*
X13086253Y-11787436D02*
X13076729Y-11796960D01*
X13076729Y-11796960D02*
X13057682Y-11806484D01*
X13057682Y-11806484D02*
X13038634Y-11806484D01*
X13038634Y-11806484D02*
X13019586Y-11796960D01*
X13019586Y-11796960D02*
X13010063Y-11787436D01*
X13010063Y-11787436D02*
X13000539Y-11768388D01*
X13000539Y-11768388D02*
X12991015Y-11730293D01*
X12991015Y-11730293D02*
X12991015Y-11682674D01*
X12991015Y-11682674D02*
X13000539Y-11644579D01*
X13000539Y-11644579D02*
X13010063Y-11625531D01*
X13010063Y-11625531D02*
X13019586Y-11616008D01*
X13019586Y-11616008D02*
X13038634Y-11606484D01*
X13191015Y-11787436D02*
X13200539Y-11796960D01*
X13200539Y-11796960D02*
X13191015Y-11806484D01*
X13191015Y-11806484D02*
X13181491Y-11796960D01*
X13181491Y-11796960D02*
X13191015Y-11787436D01*
X13191015Y-11787436D02*
X13191015Y-11806484D01*
X13324348Y-11606484D02*
X13343396Y-11606484D01*
X13343396Y-11606484D02*
X13362444Y-11616008D01*
X13362444Y-11616008D02*
X13371967Y-11625531D01*
X13371967Y-11625531D02*
X13381491Y-11644579D01*
X13381491Y-11644579D02*
X13391015Y-11682674D01*
X13391015Y-11682674D02*
X13391015Y-11730293D01*
X13391015Y-11730293D02*
X13381491Y-11768388D01*
X13381491Y-11768388D02*
X13371967Y-11787436D01*
X13371967Y-11787436D02*
X13362444Y-11796960D01*
X13362444Y-11796960D02*
X13343396Y-11806484D01*
X13343396Y-11806484D02*
X13324348Y-11806484D01*
X13324348Y-11806484D02*
X13305301Y-11796960D01*
X13305301Y-11796960D02*
X13295777Y-11787436D01*
X13295777Y-11787436D02*
X13286253Y-11768388D01*
X13286253Y-11768388D02*
X13276729Y-11730293D01*
X13276729Y-11730293D02*
X13276729Y-11682674D01*
X13276729Y-11682674D02*
X13286253Y-11644579D01*
X13286253Y-11644579D02*
X13295777Y-11625531D01*
X13295777Y-11625531D02*
X13305301Y-11616008D01*
X13305301Y-11616008D02*
X13324348Y-11606484D01*
X13581491Y-11806484D02*
X13467206Y-11806484D01*
X13524348Y-11806484D02*
X13524348Y-11606484D01*
X13524348Y-11606484D02*
X13505301Y-11635055D01*
X13505301Y-11635055D02*
X13486253Y-11654103D01*
X13486253Y-11654103D02*
X13467206Y-11663627D01*
X13762444Y-11606484D02*
X13667206Y-11606484D01*
X13667206Y-11606484D02*
X13657682Y-11701722D01*
X13657682Y-11701722D02*
X13667206Y-11692198D01*
X13667206Y-11692198D02*
X13686253Y-11682674D01*
X13686253Y-11682674D02*
X13733872Y-11682674D01*
X13733872Y-11682674D02*
X13752920Y-11692198D01*
X13752920Y-11692198D02*
X13762444Y-11701722D01*
X13762444Y-11701722D02*
X13771967Y-11720769D01*
X13771967Y-11720769D02*
X13771967Y-11768388D01*
X13771967Y-11768388D02*
X13762444Y-11787436D01*
X13762444Y-11787436D02*
X13752920Y-11796960D01*
X13752920Y-11796960D02*
X13733872Y-11806484D01*
X13733872Y-11806484D02*
X13686253Y-11806484D01*
X13686253Y-11806484D02*
X13667206Y-11796960D01*
X13667206Y-11796960D02*
X13657682Y-11787436D01*
X13838634Y-11606484D02*
X13971967Y-11606484D01*
X13971967Y-11606484D02*
X13886253Y-11806484D01*
X14038634Y-11606484D02*
X14038634Y-11644579D01*
X14114825Y-11606484D02*
X14114825Y-11644579D01*
X14410063Y-11882674D02*
X14400539Y-11873150D01*
X14400539Y-11873150D02*
X14381491Y-11844579D01*
X14381491Y-11844579D02*
X14371968Y-11825531D01*
X14371968Y-11825531D02*
X14362444Y-11796960D01*
X14362444Y-11796960D02*
X14352920Y-11749341D01*
X14352920Y-11749341D02*
X14352920Y-11711246D01*
X14352920Y-11711246D02*
X14362444Y-11663627D01*
X14362444Y-11663627D02*
X14371968Y-11635055D01*
X14371968Y-11635055D02*
X14381491Y-11616008D01*
X14381491Y-11616008D02*
X14400539Y-11587436D01*
X14400539Y-11587436D02*
X14410063Y-11577912D01*
X14495777Y-11806484D02*
X14533872Y-11806484D01*
X14533872Y-11806484D02*
X14552920Y-11796960D01*
X14552920Y-11796960D02*
X14562444Y-11787436D01*
X14562444Y-11787436D02*
X14581491Y-11758865D01*
X14581491Y-11758865D02*
X14591015Y-11720769D01*
X14591015Y-11720769D02*
X14591015Y-11644579D01*
X14591015Y-11644579D02*
X14581491Y-11625531D01*
X14581491Y-11625531D02*
X14571968Y-11616008D01*
X14571968Y-11616008D02*
X14552920Y-11606484D01*
X14552920Y-11606484D02*
X14514825Y-11606484D01*
X14514825Y-11606484D02*
X14495777Y-11616008D01*
X14495777Y-11616008D02*
X14486253Y-11625531D01*
X14486253Y-11625531D02*
X14476729Y-11644579D01*
X14476729Y-11644579D02*
X14476729Y-11692198D01*
X14476729Y-11692198D02*
X14486253Y-11711246D01*
X14486253Y-11711246D02*
X14495777Y-11720769D01*
X14495777Y-11720769D02*
X14514825Y-11730293D01*
X14514825Y-11730293D02*
X14552920Y-11730293D01*
X14552920Y-11730293D02*
X14571968Y-11720769D01*
X14571968Y-11720769D02*
X14581491Y-11711246D01*
X14581491Y-11711246D02*
X14591015Y-11692198D01*
X14762444Y-11606484D02*
X14724348Y-11606484D01*
X14724348Y-11606484D02*
X14705301Y-11616008D01*
X14705301Y-11616008D02*
X14695777Y-11625531D01*
X14695777Y-11625531D02*
X14676729Y-11654103D01*
X14676729Y-11654103D02*
X14667206Y-11692198D01*
X14667206Y-11692198D02*
X14667206Y-11768388D01*
X14667206Y-11768388D02*
X14676729Y-11787436D01*
X14676729Y-11787436D02*
X14686253Y-11796960D01*
X14686253Y-11796960D02*
X14705301Y-11806484D01*
X14705301Y-11806484D02*
X14743396Y-11806484D01*
X14743396Y-11806484D02*
X14762444Y-11796960D01*
X14762444Y-11796960D02*
X14771968Y-11787436D01*
X14771968Y-11787436D02*
X14781491Y-11768388D01*
X14781491Y-11768388D02*
X14781491Y-11720769D01*
X14781491Y-11720769D02*
X14771968Y-11701722D01*
X14771968Y-11701722D02*
X14762444Y-11692198D01*
X14762444Y-11692198D02*
X14743396Y-11682674D01*
X14743396Y-11682674D02*
X14705301Y-11682674D01*
X14705301Y-11682674D02*
X14686253Y-11692198D01*
X14686253Y-11692198D02*
X14676729Y-11701722D01*
X14676729Y-11701722D02*
X14667206Y-11720769D01*
X15019587Y-11806484D02*
X15019587Y-11606484D01*
X15105301Y-11806484D02*
X15105301Y-11701722D01*
X15105301Y-11701722D02*
X15095777Y-11682674D01*
X15095777Y-11682674D02*
X15076730Y-11673150D01*
X15076730Y-11673150D02*
X15048158Y-11673150D01*
X15048158Y-11673150D02*
X15029110Y-11682674D01*
X15029110Y-11682674D02*
X15019587Y-11692198D01*
X15229110Y-11806484D02*
X15210063Y-11796960D01*
X15210063Y-11796960D02*
X15200539Y-11787436D01*
X15200539Y-11787436D02*
X15191015Y-11768388D01*
X15191015Y-11768388D02*
X15191015Y-11711246D01*
X15191015Y-11711246D02*
X15200539Y-11692198D01*
X15200539Y-11692198D02*
X15210063Y-11682674D01*
X15210063Y-11682674D02*
X15229110Y-11673150D01*
X15229110Y-11673150D02*
X15257682Y-11673150D01*
X15257682Y-11673150D02*
X15276730Y-11682674D01*
X15276730Y-11682674D02*
X15286253Y-11692198D01*
X15286253Y-11692198D02*
X15295777Y-11711246D01*
X15295777Y-11711246D02*
X15295777Y-11768388D01*
X15295777Y-11768388D02*
X15286253Y-11787436D01*
X15286253Y-11787436D02*
X15276730Y-11796960D01*
X15276730Y-11796960D02*
X15257682Y-11806484D01*
X15257682Y-11806484D02*
X15229110Y-11806484D01*
X15410063Y-11806484D02*
X15391015Y-11796960D01*
X15391015Y-11796960D02*
X15381491Y-11777912D01*
X15381491Y-11777912D02*
X15381491Y-11606484D01*
X15562444Y-11796960D02*
X15543396Y-11806484D01*
X15543396Y-11806484D02*
X15505301Y-11806484D01*
X15505301Y-11806484D02*
X15486253Y-11796960D01*
X15486253Y-11796960D02*
X15476730Y-11777912D01*
X15476730Y-11777912D02*
X15476730Y-11701722D01*
X15476730Y-11701722D02*
X15486253Y-11682674D01*
X15486253Y-11682674D02*
X15505301Y-11673150D01*
X15505301Y-11673150D02*
X15543396Y-11673150D01*
X15543396Y-11673150D02*
X15562444Y-11682674D01*
X15562444Y-11682674D02*
X15571968Y-11701722D01*
X15571968Y-11701722D02*
X15571968Y-11720769D01*
X15571968Y-11720769D02*
X15476730Y-11739817D01*
X15648158Y-11796960D02*
X15667206Y-11806484D01*
X15667206Y-11806484D02*
X15705301Y-11806484D01*
X15705301Y-11806484D02*
X15724349Y-11796960D01*
X15724349Y-11796960D02*
X15733872Y-11777912D01*
X15733872Y-11777912D02*
X15733872Y-11768388D01*
X15733872Y-11768388D02*
X15724349Y-11749341D01*
X15724349Y-11749341D02*
X15705301Y-11739817D01*
X15705301Y-11739817D02*
X15676730Y-11739817D01*
X15676730Y-11739817D02*
X15657682Y-11730293D01*
X15657682Y-11730293D02*
X15648158Y-11711246D01*
X15648158Y-11711246D02*
X15648158Y-11701722D01*
X15648158Y-11701722D02*
X15657682Y-11682674D01*
X15657682Y-11682674D02*
X15676730Y-11673150D01*
X15676730Y-11673150D02*
X15705301Y-11673150D01*
X15705301Y-11673150D02*
X15724349Y-11682674D01*
X15800539Y-11882674D02*
X15810063Y-11873150D01*
X15810063Y-11873150D02*
X15829111Y-11844579D01*
X15829111Y-11844579D02*
X15838634Y-11825531D01*
X15838634Y-11825531D02*
X15848158Y-11796960D01*
X15848158Y-11796960D02*
X15857682Y-11749341D01*
X15857682Y-11749341D02*
X15857682Y-11711246D01*
X15857682Y-11711246D02*
X15848158Y-11663627D01*
X15848158Y-11663627D02*
X15838634Y-11635055D01*
X15838634Y-11635055D02*
X15829111Y-11616008D01*
X15829111Y-11616008D02*
X15810063Y-11587436D01*
X15810063Y-11587436D02*
X15800539Y-11577912D01*
D10*
X10835000Y-11979000D02*
G75*
G02*
X10775000Y-11979000I-30000J0D01*
G01*
X10775000Y-11979000D02*
G75*
G02*
X10835000Y-11979000I30000J0D01*
G01*
D11*
X11133872Y-11870484D02*
X11152920Y-11870484D01*
X11152920Y-11870484D02*
X11171967Y-11880008D01*
X11171967Y-11880008D02*
X11181491Y-11889531D01*
X11181491Y-11889531D02*
X11191015Y-11908579D01*
X11191015Y-11908579D02*
X11200539Y-11946674D01*
X11200539Y-11946674D02*
X11200539Y-11994293D01*
X11200539Y-11994293D02*
X11191015Y-12032388D01*
X11191015Y-12032388D02*
X11181491Y-12051436D01*
X11181491Y-12051436D02*
X11171967Y-12060960D01*
X11171967Y-12060960D02*
X11152920Y-12070484D01*
X11152920Y-12070484D02*
X11133872Y-12070484D01*
X11133872Y-12070484D02*
X11114824Y-12060960D01*
X11114824Y-12060960D02*
X11105301Y-12051436D01*
X11105301Y-12051436D02*
X11095777Y-12032388D01*
X11095777Y-12032388D02*
X11086253Y-11994293D01*
X11086253Y-11994293D02*
X11086253Y-11946674D01*
X11086253Y-11946674D02*
X11095777Y-11908579D01*
X11095777Y-11908579D02*
X11105301Y-11889531D01*
X11105301Y-11889531D02*
X11114824Y-11880008D01*
X11114824Y-11880008D02*
X11133872Y-11870484D01*
X11286253Y-12051436D02*
X11295777Y-12060960D01*
X11295777Y-12060960D02*
X11286253Y-12070484D01*
X11286253Y-12070484D02*
X11276729Y-12060960D01*
X11276729Y-12060960D02*
X11286253Y-12051436D01*
X11286253Y-12051436D02*
X11286253Y-12070484D01*
X11467205Y-11870484D02*
X11429110Y-11870484D01*
X11429110Y-11870484D02*
X11410062Y-11880008D01*
X11410062Y-11880008D02*
X11400539Y-11889531D01*
X11400539Y-11889531D02*
X11381491Y-11918103D01*
X11381491Y-11918103D02*
X11371967Y-11956198D01*
X11371967Y-11956198D02*
X11371967Y-12032388D01*
X11371967Y-12032388D02*
X11381491Y-12051436D01*
X11381491Y-12051436D02*
X11391015Y-12060960D01*
X11391015Y-12060960D02*
X11410062Y-12070484D01*
X11410062Y-12070484D02*
X11448158Y-12070484D01*
X11448158Y-12070484D02*
X11467205Y-12060960D01*
X11467205Y-12060960D02*
X11476729Y-12051436D01*
X11476729Y-12051436D02*
X11486253Y-12032388D01*
X11486253Y-12032388D02*
X11486253Y-11984769D01*
X11486253Y-11984769D02*
X11476729Y-11965722D01*
X11476729Y-11965722D02*
X11467205Y-11956198D01*
X11467205Y-11956198D02*
X11448158Y-11946674D01*
X11448158Y-11946674D02*
X11410062Y-11946674D01*
X11410062Y-11946674D02*
X11391015Y-11956198D01*
X11391015Y-11956198D02*
X11381491Y-11965722D01*
X11381491Y-11965722D02*
X11371967Y-11984769D01*
X11610062Y-11870484D02*
X11629110Y-11870484D01*
X11629110Y-11870484D02*
X11648158Y-11880008D01*
X11648158Y-11880008D02*
X11657682Y-11889531D01*
X11657682Y-11889531D02*
X11667205Y-11908579D01*
X11667205Y-11908579D02*
X11676729Y-11946674D01*
X11676729Y-11946674D02*
X11676729Y-11994293D01*
X11676729Y-11994293D02*
X11667205Y-12032388D01*
X11667205Y-12032388D02*
X11657682Y-12051436D01*
X11657682Y-12051436D02*
X11648158Y-12060960D01*
X11648158Y-12060960D02*
X11629110Y-12070484D01*
X11629110Y-12070484D02*
X11610062Y-12070484D01*
X11610062Y-12070484D02*
X11591015Y-12060960D01*
X11591015Y-12060960D02*
X11581491Y-12051436D01*
X11581491Y-12051436D02*
X11571967Y-12032388D01*
X11571967Y-12032388D02*
X11562443Y-11994293D01*
X11562443Y-11994293D02*
X11562443Y-11946674D01*
X11562443Y-11946674D02*
X11571967Y-11908579D01*
X11571967Y-11908579D02*
X11581491Y-11889531D01*
X11581491Y-11889531D02*
X11591015Y-11880008D01*
X11591015Y-11880008D02*
X11610062Y-11870484D01*
X11800539Y-11870484D02*
X11819586Y-11870484D01*
X11819586Y-11870484D02*
X11838634Y-11880008D01*
X11838634Y-11880008D02*
X11848158Y-11889531D01*
X11848158Y-11889531D02*
X11857682Y-11908579D01*
X11857682Y-11908579D02*
X11867205Y-11946674D01*
X11867205Y-11946674D02*
X11867205Y-11994293D01*
X11867205Y-11994293D02*
X11857682Y-12032388D01*
X11857682Y-12032388D02*
X11848158Y-12051436D01*
X11848158Y-12051436D02*
X11838634Y-12060960D01*
X11838634Y-12060960D02*
X11819586Y-12070484D01*
X11819586Y-12070484D02*
X11800539Y-12070484D01*
X11800539Y-12070484D02*
X11781491Y-12060960D01*
X11781491Y-12060960D02*
X11771967Y-12051436D01*
X11771967Y-12051436D02*
X11762443Y-12032388D01*
X11762443Y-12032388D02*
X11752920Y-11994293D01*
X11752920Y-11994293D02*
X11752920Y-11946674D01*
X11752920Y-11946674D02*
X11762443Y-11908579D01*
X11762443Y-11908579D02*
X11771967Y-11889531D01*
X11771967Y-11889531D02*
X11781491Y-11880008D01*
X11781491Y-11880008D02*
X11800539Y-11870484D01*
X11952920Y-12070484D02*
X11952920Y-11937150D01*
X11952920Y-11956198D02*
X11962443Y-11946674D01*
X11962443Y-11946674D02*
X11981491Y-11937150D01*
X11981491Y-11937150D02*
X12010063Y-11937150D01*
X12010063Y-11937150D02*
X12029110Y-11946674D01*
X12029110Y-11946674D02*
X12038634Y-11965722D01*
X12038634Y-11965722D02*
X12038634Y-12070484D01*
X12038634Y-11965722D02*
X12048158Y-11946674D01*
X12048158Y-11946674D02*
X12067205Y-11937150D01*
X12067205Y-11937150D02*
X12095777Y-11937150D01*
X12095777Y-11937150D02*
X12114824Y-11946674D01*
X12114824Y-11946674D02*
X12124348Y-11965722D01*
X12124348Y-11965722D02*
X12124348Y-12070484D01*
X12219586Y-12070484D02*
X12219586Y-11937150D01*
X12219586Y-11956198D02*
X12229110Y-11946674D01*
X12229110Y-11946674D02*
X12248158Y-11937150D01*
X12248158Y-11937150D02*
X12276729Y-11937150D01*
X12276729Y-11937150D02*
X12295777Y-11946674D01*
X12295777Y-11946674D02*
X12305301Y-11965722D01*
X12305301Y-11965722D02*
X12305301Y-12070484D01*
X12305301Y-11965722D02*
X12314824Y-11946674D01*
X12314824Y-11946674D02*
X12333872Y-11937150D01*
X12333872Y-11937150D02*
X12362443Y-11937150D01*
X12362443Y-11937150D02*
X12381491Y-11946674D01*
X12381491Y-11946674D02*
X12391015Y-11965722D01*
X12391015Y-11965722D02*
X12391015Y-12070484D01*
X12781491Y-11860960D02*
X12610063Y-12118103D01*
X13038634Y-11870484D02*
X13057682Y-11870484D01*
X13057682Y-11870484D02*
X13076729Y-11880008D01*
X13076729Y-11880008D02*
X13086253Y-11889531D01*
X13086253Y-11889531D02*
X13095777Y-11908579D01*
X13095777Y-11908579D02*
X13105301Y-11946674D01*
X13105301Y-11946674D02*
X13105301Y-11994293D01*
X13105301Y-11994293D02*
X13095777Y-12032388D01*
X13095777Y-12032388D02*
X13086253Y-12051436D01*
X13086253Y-12051436D02*
X13076729Y-12060960D01*
X13076729Y-12060960D02*
X13057682Y-12070484D01*
X13057682Y-12070484D02*
X13038634Y-12070484D01*
X13038634Y-12070484D02*
X13019586Y-12060960D01*
X13019586Y-12060960D02*
X13010063Y-12051436D01*
X13010063Y-12051436D02*
X13000539Y-12032388D01*
X13000539Y-12032388D02*
X12991015Y-11994293D01*
X12991015Y-11994293D02*
X12991015Y-11946674D01*
X12991015Y-11946674D02*
X13000539Y-11908579D01*
X13000539Y-11908579D02*
X13010063Y-11889531D01*
X13010063Y-11889531D02*
X13019586Y-11880008D01*
X13019586Y-11880008D02*
X13038634Y-11870484D01*
X13191015Y-12051436D02*
X13200539Y-12060960D01*
X13200539Y-12060960D02*
X13191015Y-12070484D01*
X13191015Y-12070484D02*
X13181491Y-12060960D01*
X13181491Y-12060960D02*
X13191015Y-12051436D01*
X13191015Y-12051436D02*
X13191015Y-12070484D01*
X13324348Y-11870484D02*
X13343396Y-11870484D01*
X13343396Y-11870484D02*
X13362444Y-11880008D01*
X13362444Y-11880008D02*
X13371967Y-11889531D01*
X13371967Y-11889531D02*
X13381491Y-11908579D01*
X13381491Y-11908579D02*
X13391015Y-11946674D01*
X13391015Y-11946674D02*
X13391015Y-11994293D01*
X13391015Y-11994293D02*
X13381491Y-12032388D01*
X13381491Y-12032388D02*
X13371967Y-12051436D01*
X13371967Y-12051436D02*
X13362444Y-12060960D01*
X13362444Y-12060960D02*
X13343396Y-12070484D01*
X13343396Y-12070484D02*
X13324348Y-12070484D01*
X13324348Y-12070484D02*
X13305301Y-12060960D01*
X13305301Y-12060960D02*
X13295777Y-12051436D01*
X13295777Y-12051436D02*
X13286253Y-12032388D01*
X13286253Y-12032388D02*
X13276729Y-11994293D01*
X13276729Y-11994293D02*
X13276729Y-11946674D01*
X13276729Y-11946674D02*
X13286253Y-11908579D01*
X13286253Y-11908579D02*
X13295777Y-11889531D01*
X13295777Y-11889531D02*
X13305301Y-11880008D01*
X13305301Y-11880008D02*
X13324348Y-11870484D01*
X13467206Y-11889531D02*
X13476729Y-11880008D01*
X13476729Y-11880008D02*
X13495777Y-11870484D01*
X13495777Y-11870484D02*
X13543396Y-11870484D01*
X13543396Y-11870484D02*
X13562444Y-11880008D01*
X13562444Y-11880008D02*
X13571967Y-11889531D01*
X13571967Y-11889531D02*
X13581491Y-11908579D01*
X13581491Y-11908579D02*
X13581491Y-11927627D01*
X13581491Y-11927627D02*
X13571967Y-11956198D01*
X13571967Y-11956198D02*
X13457682Y-12070484D01*
X13457682Y-12070484D02*
X13581491Y-12070484D01*
X13648158Y-11870484D02*
X13771967Y-11870484D01*
X13771967Y-11870484D02*
X13705301Y-11946674D01*
X13705301Y-11946674D02*
X13733872Y-11946674D01*
X13733872Y-11946674D02*
X13752920Y-11956198D01*
X13752920Y-11956198D02*
X13762444Y-11965722D01*
X13762444Y-11965722D02*
X13771967Y-11984769D01*
X13771967Y-11984769D02*
X13771967Y-12032388D01*
X13771967Y-12032388D02*
X13762444Y-12051436D01*
X13762444Y-12051436D02*
X13752920Y-12060960D01*
X13752920Y-12060960D02*
X13733872Y-12070484D01*
X13733872Y-12070484D02*
X13676729Y-12070484D01*
X13676729Y-12070484D02*
X13657682Y-12060960D01*
X13657682Y-12060960D02*
X13648158Y-12051436D01*
X13943396Y-11870484D02*
X13905301Y-11870484D01*
X13905301Y-11870484D02*
X13886253Y-11880008D01*
X13886253Y-11880008D02*
X13876729Y-11889531D01*
X13876729Y-11889531D02*
X13857682Y-11918103D01*
X13857682Y-11918103D02*
X13848158Y-11956198D01*
X13848158Y-11956198D02*
X13848158Y-12032388D01*
X13848158Y-12032388D02*
X13857682Y-12051436D01*
X13857682Y-12051436D02*
X13867206Y-12060960D01*
X13867206Y-12060960D02*
X13886253Y-12070484D01*
X13886253Y-12070484D02*
X13924348Y-12070484D01*
X13924348Y-12070484D02*
X13943396Y-12060960D01*
X13943396Y-12060960D02*
X13952920Y-12051436D01*
X13952920Y-12051436D02*
X13962444Y-12032388D01*
X13962444Y-12032388D02*
X13962444Y-11984769D01*
X13962444Y-11984769D02*
X13952920Y-11965722D01*
X13952920Y-11965722D02*
X13943396Y-11956198D01*
X13943396Y-11956198D02*
X13924348Y-11946674D01*
X13924348Y-11946674D02*
X13886253Y-11946674D01*
X13886253Y-11946674D02*
X13867206Y-11956198D01*
X13867206Y-11956198D02*
X13857682Y-11965722D01*
X13857682Y-11965722D02*
X13848158Y-11984769D01*
X14038634Y-11870484D02*
X14038634Y-11908579D01*
X14114825Y-11870484D02*
X14114825Y-11908579D01*
X14410063Y-12146674D02*
X14400539Y-12137150D01*
X14400539Y-12137150D02*
X14381491Y-12108579D01*
X14381491Y-12108579D02*
X14371968Y-12089531D01*
X14371968Y-12089531D02*
X14362444Y-12060960D01*
X14362444Y-12060960D02*
X14352920Y-12013341D01*
X14352920Y-12013341D02*
X14352920Y-11975246D01*
X14352920Y-11975246D02*
X14362444Y-11927627D01*
X14362444Y-11927627D02*
X14371968Y-11899055D01*
X14371968Y-11899055D02*
X14381491Y-11880008D01*
X14381491Y-11880008D02*
X14400539Y-11851436D01*
X14400539Y-11851436D02*
X14410063Y-11841912D01*
X14524348Y-11870484D02*
X14543396Y-11870484D01*
X14543396Y-11870484D02*
X14562444Y-11880008D01*
X14562444Y-11880008D02*
X14571968Y-11889531D01*
X14571968Y-11889531D02*
X14581491Y-11908579D01*
X14581491Y-11908579D02*
X14591015Y-11946674D01*
X14591015Y-11946674D02*
X14591015Y-11994293D01*
X14591015Y-11994293D02*
X14581491Y-12032388D01*
X14581491Y-12032388D02*
X14571968Y-12051436D01*
X14571968Y-12051436D02*
X14562444Y-12060960D01*
X14562444Y-12060960D02*
X14543396Y-12070484D01*
X14543396Y-12070484D02*
X14524348Y-12070484D01*
X14524348Y-12070484D02*
X14505301Y-12060960D01*
X14505301Y-12060960D02*
X14495777Y-12051436D01*
X14495777Y-12051436D02*
X14486253Y-12032388D01*
X14486253Y-12032388D02*
X14476729Y-11994293D01*
X14476729Y-11994293D02*
X14476729Y-11946674D01*
X14476729Y-11946674D02*
X14486253Y-11908579D01*
X14486253Y-11908579D02*
X14495777Y-11889531D01*
X14495777Y-11889531D02*
X14505301Y-11880008D01*
X14505301Y-11880008D02*
X14524348Y-11870484D01*
X14829110Y-12070484D02*
X14829110Y-11870484D01*
X14914825Y-12070484D02*
X14914825Y-11965722D01*
X14914825Y-11965722D02*
X14905301Y-11946674D01*
X14905301Y-11946674D02*
X14886253Y-11937150D01*
X14886253Y-11937150D02*
X14857682Y-11937150D01*
X14857682Y-11937150D02*
X14838634Y-11946674D01*
X14838634Y-11946674D02*
X14829110Y-11956198D01*
X15038634Y-12070484D02*
X15019587Y-12060960D01*
X15019587Y-12060960D02*
X15010063Y-12051436D01*
X15010063Y-12051436D02*
X15000539Y-12032388D01*
X15000539Y-12032388D02*
X15000539Y-11975246D01*
X15000539Y-11975246D02*
X15010063Y-11956198D01*
X15010063Y-11956198D02*
X15019587Y-11946674D01*
X15019587Y-11946674D02*
X15038634Y-11937150D01*
X15038634Y-11937150D02*
X15067206Y-11937150D01*
X15067206Y-11937150D02*
X15086253Y-11946674D01*
X15086253Y-11946674D02*
X15095777Y-11956198D01*
X15095777Y-11956198D02*
X15105301Y-11975246D01*
X15105301Y-11975246D02*
X15105301Y-12032388D01*
X15105301Y-12032388D02*
X15095777Y-12051436D01*
X15095777Y-12051436D02*
X15086253Y-12060960D01*
X15086253Y-12060960D02*
X15067206Y-12070484D01*
X15067206Y-12070484D02*
X15038634Y-12070484D01*
X15219587Y-12070484D02*
X15200539Y-12060960D01*
X15200539Y-12060960D02*
X15191015Y-12041912D01*
X15191015Y-12041912D02*
X15191015Y-11870484D01*
X15371968Y-12060960D02*
X15352920Y-12070484D01*
X15352920Y-12070484D02*
X15314825Y-12070484D01*
X15314825Y-12070484D02*
X15295777Y-12060960D01*
X15295777Y-12060960D02*
X15286253Y-12041912D01*
X15286253Y-12041912D02*
X15286253Y-11965722D01*
X15286253Y-11965722D02*
X15295777Y-11946674D01*
X15295777Y-11946674D02*
X15314825Y-11937150D01*
X15314825Y-11937150D02*
X15352920Y-11937150D01*
X15352920Y-11937150D02*
X15371968Y-11946674D01*
X15371968Y-11946674D02*
X15381491Y-11965722D01*
X15381491Y-11965722D02*
X15381491Y-11984769D01*
X15381491Y-11984769D02*
X15286253Y-12003817D01*
X15457682Y-12060960D02*
X15476730Y-12070484D01*
X15476730Y-12070484D02*
X15514825Y-12070484D01*
X15514825Y-12070484D02*
X15533872Y-12060960D01*
X15533872Y-12060960D02*
X15543396Y-12041912D01*
X15543396Y-12041912D02*
X15543396Y-12032388D01*
X15543396Y-12032388D02*
X15533872Y-12013341D01*
X15533872Y-12013341D02*
X15514825Y-12003817D01*
X15514825Y-12003817D02*
X15486253Y-12003817D01*
X15486253Y-12003817D02*
X15467206Y-11994293D01*
X15467206Y-11994293D02*
X15457682Y-11975246D01*
X15457682Y-11975246D02*
X15457682Y-11965722D01*
X15457682Y-11965722D02*
X15467206Y-11946674D01*
X15467206Y-11946674D02*
X15486253Y-11937150D01*
X15486253Y-11937150D02*
X15514825Y-11937150D01*
X15514825Y-11937150D02*
X15533872Y-11946674D01*
X15781492Y-11994293D02*
X15933873Y-11994293D01*
X15857682Y-12070484D02*
X15857682Y-11918103D01*
X16267206Y-11937150D02*
X16267206Y-12070484D01*
X16219587Y-11860960D02*
X16171968Y-12003817D01*
X16171968Y-12003817D02*
X16295777Y-12003817D01*
X16514825Y-12060960D02*
X16533873Y-12070484D01*
X16533873Y-12070484D02*
X16571968Y-12070484D01*
X16571968Y-12070484D02*
X16591015Y-12060960D01*
X16591015Y-12060960D02*
X16600539Y-12041912D01*
X16600539Y-12041912D02*
X16600539Y-12032388D01*
X16600539Y-12032388D02*
X16591015Y-12013341D01*
X16591015Y-12013341D02*
X16571968Y-12003817D01*
X16571968Y-12003817D02*
X16543396Y-12003817D01*
X16543396Y-12003817D02*
X16524349Y-11994293D01*
X16524349Y-11994293D02*
X16514825Y-11975246D01*
X16514825Y-11975246D02*
X16514825Y-11965722D01*
X16514825Y-11965722D02*
X16524349Y-11946674D01*
X16524349Y-11946674D02*
X16543396Y-11937150D01*
X16543396Y-11937150D02*
X16571968Y-11937150D01*
X16571968Y-11937150D02*
X16591015Y-11946674D01*
X16714825Y-12070484D02*
X16695777Y-12060960D01*
X16695777Y-12060960D02*
X16686254Y-12041912D01*
X16686254Y-12041912D02*
X16686254Y-11870484D01*
X16819587Y-12070484D02*
X16800539Y-12060960D01*
X16800539Y-12060960D02*
X16791016Y-12051436D01*
X16791016Y-12051436D02*
X16781492Y-12032388D01*
X16781492Y-12032388D02*
X16781492Y-11975246D01*
X16781492Y-11975246D02*
X16791016Y-11956198D01*
X16791016Y-11956198D02*
X16800539Y-11946674D01*
X16800539Y-11946674D02*
X16819587Y-11937150D01*
X16819587Y-11937150D02*
X16848158Y-11937150D01*
X16848158Y-11937150D02*
X16867206Y-11946674D01*
X16867206Y-11946674D02*
X16876730Y-11956198D01*
X16876730Y-11956198D02*
X16886254Y-11975246D01*
X16886254Y-11975246D02*
X16886254Y-12032388D01*
X16886254Y-12032388D02*
X16876730Y-12051436D01*
X16876730Y-12051436D02*
X16867206Y-12060960D01*
X16867206Y-12060960D02*
X16848158Y-12070484D01*
X16848158Y-12070484D02*
X16819587Y-12070484D01*
X16943397Y-11937150D02*
X17019587Y-11937150D01*
X16971968Y-11870484D02*
X16971968Y-12041912D01*
X16971968Y-12041912D02*
X16981492Y-12060960D01*
X16981492Y-12060960D02*
X17000539Y-12070484D01*
X17000539Y-12070484D02*
X17019587Y-12070484D01*
X17076730Y-12060960D02*
X17095777Y-12070484D01*
X17095777Y-12070484D02*
X17133873Y-12070484D01*
X17133873Y-12070484D02*
X17152920Y-12060960D01*
X17152920Y-12060960D02*
X17162444Y-12041912D01*
X17162444Y-12041912D02*
X17162444Y-12032388D01*
X17162444Y-12032388D02*
X17152920Y-12013341D01*
X17152920Y-12013341D02*
X17133873Y-12003817D01*
X17133873Y-12003817D02*
X17105301Y-12003817D01*
X17105301Y-12003817D02*
X17086254Y-11994293D01*
X17086254Y-11994293D02*
X17076730Y-11975246D01*
X17076730Y-11975246D02*
X17076730Y-11965722D01*
X17076730Y-11965722D02*
X17086254Y-11946674D01*
X17086254Y-11946674D02*
X17105301Y-11937150D01*
X17105301Y-11937150D02*
X17133873Y-11937150D01*
X17133873Y-11937150D02*
X17152920Y-11946674D01*
X17229111Y-12146674D02*
X17238635Y-12137150D01*
X17238635Y-12137150D02*
X17257682Y-12108579D01*
X17257682Y-12108579D02*
X17267206Y-12089531D01*
X17267206Y-12089531D02*
X17276730Y-12060960D01*
X17276730Y-12060960D02*
X17286254Y-12013341D01*
X17286254Y-12013341D02*
X17286254Y-11975246D01*
X17286254Y-11975246D02*
X17276730Y-11927627D01*
X17276730Y-11927627D02*
X17267206Y-11899055D01*
X17267206Y-11899055D02*
X17257682Y-11880008D01*
X17257682Y-11880008D02*
X17238635Y-11851436D01*
X17238635Y-11851436D02*
X17229111Y-11841912D01*
D10*
X10785000Y-12193000D02*
X10785000Y-12293000D01*
X10735000Y-12243000D02*
X10835000Y-12243000D01*
D11*
X11200539Y-12334484D02*
X11086253Y-12334484D01*
X11143396Y-12334484D02*
X11143396Y-12134484D01*
X11143396Y-12134484D02*
X11124348Y-12163055D01*
X11124348Y-12163055D02*
X11105301Y-12182103D01*
X11105301Y-12182103D02*
X11086253Y-12191627D01*
X11286253Y-12315436D02*
X11295777Y-12324960D01*
X11295777Y-12324960D02*
X11286253Y-12334484D01*
X11286253Y-12334484D02*
X11276729Y-12324960D01*
X11276729Y-12324960D02*
X11286253Y-12315436D01*
X11286253Y-12315436D02*
X11286253Y-12334484D01*
X11419586Y-12134484D02*
X11438634Y-12134484D01*
X11438634Y-12134484D02*
X11457682Y-12144008D01*
X11457682Y-12144008D02*
X11467205Y-12153531D01*
X11467205Y-12153531D02*
X11476729Y-12172579D01*
X11476729Y-12172579D02*
X11486253Y-12210674D01*
X11486253Y-12210674D02*
X11486253Y-12258293D01*
X11486253Y-12258293D02*
X11476729Y-12296388D01*
X11476729Y-12296388D02*
X11467205Y-12315436D01*
X11467205Y-12315436D02*
X11457682Y-12324960D01*
X11457682Y-12324960D02*
X11438634Y-12334484D01*
X11438634Y-12334484D02*
X11419586Y-12334484D01*
X11419586Y-12334484D02*
X11400539Y-12324960D01*
X11400539Y-12324960D02*
X11391015Y-12315436D01*
X11391015Y-12315436D02*
X11381491Y-12296388D01*
X11381491Y-12296388D02*
X11371967Y-12258293D01*
X11371967Y-12258293D02*
X11371967Y-12210674D01*
X11371967Y-12210674D02*
X11381491Y-12172579D01*
X11381491Y-12172579D02*
X11391015Y-12153531D01*
X11391015Y-12153531D02*
X11400539Y-12144008D01*
X11400539Y-12144008D02*
X11419586Y-12134484D01*
X11610062Y-12134484D02*
X11629110Y-12134484D01*
X11629110Y-12134484D02*
X11648158Y-12144008D01*
X11648158Y-12144008D02*
X11657682Y-12153531D01*
X11657682Y-12153531D02*
X11667205Y-12172579D01*
X11667205Y-12172579D02*
X11676729Y-12210674D01*
X11676729Y-12210674D02*
X11676729Y-12258293D01*
X11676729Y-12258293D02*
X11667205Y-12296388D01*
X11667205Y-12296388D02*
X11657682Y-12315436D01*
X11657682Y-12315436D02*
X11648158Y-12324960D01*
X11648158Y-12324960D02*
X11629110Y-12334484D01*
X11629110Y-12334484D02*
X11610062Y-12334484D01*
X11610062Y-12334484D02*
X11591015Y-12324960D01*
X11591015Y-12324960D02*
X11581491Y-12315436D01*
X11581491Y-12315436D02*
X11571967Y-12296388D01*
X11571967Y-12296388D02*
X11562443Y-12258293D01*
X11562443Y-12258293D02*
X11562443Y-12210674D01*
X11562443Y-12210674D02*
X11571967Y-12172579D01*
X11571967Y-12172579D02*
X11581491Y-12153531D01*
X11581491Y-12153531D02*
X11591015Y-12144008D01*
X11591015Y-12144008D02*
X11610062Y-12134484D01*
X11800539Y-12134484D02*
X11819586Y-12134484D01*
X11819586Y-12134484D02*
X11838634Y-12144008D01*
X11838634Y-12144008D02*
X11848158Y-12153531D01*
X11848158Y-12153531D02*
X11857682Y-12172579D01*
X11857682Y-12172579D02*
X11867205Y-12210674D01*
X11867205Y-12210674D02*
X11867205Y-12258293D01*
X11867205Y-12258293D02*
X11857682Y-12296388D01*
X11857682Y-12296388D02*
X11848158Y-12315436D01*
X11848158Y-12315436D02*
X11838634Y-12324960D01*
X11838634Y-12324960D02*
X11819586Y-12334484D01*
X11819586Y-12334484D02*
X11800539Y-12334484D01*
X11800539Y-12334484D02*
X11781491Y-12324960D01*
X11781491Y-12324960D02*
X11771967Y-12315436D01*
X11771967Y-12315436D02*
X11762443Y-12296388D01*
X11762443Y-12296388D02*
X11752920Y-12258293D01*
X11752920Y-12258293D02*
X11752920Y-12210674D01*
X11752920Y-12210674D02*
X11762443Y-12172579D01*
X11762443Y-12172579D02*
X11771967Y-12153531D01*
X11771967Y-12153531D02*
X11781491Y-12144008D01*
X11781491Y-12144008D02*
X11800539Y-12134484D01*
X11952920Y-12334484D02*
X11952920Y-12201150D01*
X11952920Y-12220198D02*
X11962443Y-12210674D01*
X11962443Y-12210674D02*
X11981491Y-12201150D01*
X11981491Y-12201150D02*
X12010063Y-12201150D01*
X12010063Y-12201150D02*
X12029110Y-12210674D01*
X12029110Y-12210674D02*
X12038634Y-12229722D01*
X12038634Y-12229722D02*
X12038634Y-12334484D01*
X12038634Y-12229722D02*
X12048158Y-12210674D01*
X12048158Y-12210674D02*
X12067205Y-12201150D01*
X12067205Y-12201150D02*
X12095777Y-12201150D01*
X12095777Y-12201150D02*
X12114824Y-12210674D01*
X12114824Y-12210674D02*
X12124348Y-12229722D01*
X12124348Y-12229722D02*
X12124348Y-12334484D01*
X12219586Y-12334484D02*
X12219586Y-12201150D01*
X12219586Y-12220198D02*
X12229110Y-12210674D01*
X12229110Y-12210674D02*
X12248158Y-12201150D01*
X12248158Y-12201150D02*
X12276729Y-12201150D01*
X12276729Y-12201150D02*
X12295777Y-12210674D01*
X12295777Y-12210674D02*
X12305301Y-12229722D01*
X12305301Y-12229722D02*
X12305301Y-12334484D01*
X12305301Y-12229722D02*
X12314824Y-12210674D01*
X12314824Y-12210674D02*
X12333872Y-12201150D01*
X12333872Y-12201150D02*
X12362443Y-12201150D01*
X12362443Y-12201150D02*
X12381491Y-12210674D01*
X12381491Y-12210674D02*
X12391015Y-12229722D01*
X12391015Y-12229722D02*
X12391015Y-12334484D01*
X12781491Y-12124960D02*
X12610063Y-12382103D01*
X13038634Y-12134484D02*
X13057682Y-12134484D01*
X13057682Y-12134484D02*
X13076729Y-12144008D01*
X13076729Y-12144008D02*
X13086253Y-12153531D01*
X13086253Y-12153531D02*
X13095777Y-12172579D01*
X13095777Y-12172579D02*
X13105301Y-12210674D01*
X13105301Y-12210674D02*
X13105301Y-12258293D01*
X13105301Y-12258293D02*
X13095777Y-12296388D01*
X13095777Y-12296388D02*
X13086253Y-12315436D01*
X13086253Y-12315436D02*
X13076729Y-12324960D01*
X13076729Y-12324960D02*
X13057682Y-12334484D01*
X13057682Y-12334484D02*
X13038634Y-12334484D01*
X13038634Y-12334484D02*
X13019586Y-12324960D01*
X13019586Y-12324960D02*
X13010063Y-12315436D01*
X13010063Y-12315436D02*
X13000539Y-12296388D01*
X13000539Y-12296388D02*
X12991015Y-12258293D01*
X12991015Y-12258293D02*
X12991015Y-12210674D01*
X12991015Y-12210674D02*
X13000539Y-12172579D01*
X13000539Y-12172579D02*
X13010063Y-12153531D01*
X13010063Y-12153531D02*
X13019586Y-12144008D01*
X13019586Y-12144008D02*
X13038634Y-12134484D01*
X13191015Y-12315436D02*
X13200539Y-12324960D01*
X13200539Y-12324960D02*
X13191015Y-12334484D01*
X13191015Y-12334484D02*
X13181491Y-12324960D01*
X13181491Y-12324960D02*
X13191015Y-12315436D01*
X13191015Y-12315436D02*
X13191015Y-12334484D01*
X13324348Y-12134484D02*
X13343396Y-12134484D01*
X13343396Y-12134484D02*
X13362444Y-12144008D01*
X13362444Y-12144008D02*
X13371967Y-12153531D01*
X13371967Y-12153531D02*
X13381491Y-12172579D01*
X13381491Y-12172579D02*
X13391015Y-12210674D01*
X13391015Y-12210674D02*
X13391015Y-12258293D01*
X13391015Y-12258293D02*
X13381491Y-12296388D01*
X13381491Y-12296388D02*
X13371967Y-12315436D01*
X13371967Y-12315436D02*
X13362444Y-12324960D01*
X13362444Y-12324960D02*
X13343396Y-12334484D01*
X13343396Y-12334484D02*
X13324348Y-12334484D01*
X13324348Y-12334484D02*
X13305301Y-12324960D01*
X13305301Y-12324960D02*
X13295777Y-12315436D01*
X13295777Y-12315436D02*
X13286253Y-12296388D01*
X13286253Y-12296388D02*
X13276729Y-12258293D01*
X13276729Y-12258293D02*
X13276729Y-12210674D01*
X13276729Y-12210674D02*
X13286253Y-12172579D01*
X13286253Y-12172579D02*
X13295777Y-12153531D01*
X13295777Y-12153531D02*
X13305301Y-12144008D01*
X13305301Y-12144008D02*
X13324348Y-12134484D01*
X13457682Y-12134484D02*
X13581491Y-12134484D01*
X13581491Y-12134484D02*
X13514825Y-12210674D01*
X13514825Y-12210674D02*
X13543396Y-12210674D01*
X13543396Y-12210674D02*
X13562444Y-12220198D01*
X13562444Y-12220198D02*
X13571967Y-12229722D01*
X13571967Y-12229722D02*
X13581491Y-12248769D01*
X13581491Y-12248769D02*
X13581491Y-12296388D01*
X13581491Y-12296388D02*
X13571967Y-12315436D01*
X13571967Y-12315436D02*
X13562444Y-12324960D01*
X13562444Y-12324960D02*
X13543396Y-12334484D01*
X13543396Y-12334484D02*
X13486253Y-12334484D01*
X13486253Y-12334484D02*
X13467206Y-12324960D01*
X13467206Y-12324960D02*
X13457682Y-12315436D01*
X13676729Y-12334484D02*
X13714825Y-12334484D01*
X13714825Y-12334484D02*
X13733872Y-12324960D01*
X13733872Y-12324960D02*
X13743396Y-12315436D01*
X13743396Y-12315436D02*
X13762444Y-12286865D01*
X13762444Y-12286865D02*
X13771967Y-12248769D01*
X13771967Y-12248769D02*
X13771967Y-12172579D01*
X13771967Y-12172579D02*
X13762444Y-12153531D01*
X13762444Y-12153531D02*
X13752920Y-12144008D01*
X13752920Y-12144008D02*
X13733872Y-12134484D01*
X13733872Y-12134484D02*
X13695777Y-12134484D01*
X13695777Y-12134484D02*
X13676729Y-12144008D01*
X13676729Y-12144008D02*
X13667206Y-12153531D01*
X13667206Y-12153531D02*
X13657682Y-12172579D01*
X13657682Y-12172579D02*
X13657682Y-12220198D01*
X13657682Y-12220198D02*
X13667206Y-12239246D01*
X13667206Y-12239246D02*
X13676729Y-12248769D01*
X13676729Y-12248769D02*
X13695777Y-12258293D01*
X13695777Y-12258293D02*
X13733872Y-12258293D01*
X13733872Y-12258293D02*
X13752920Y-12248769D01*
X13752920Y-12248769D02*
X13762444Y-12239246D01*
X13762444Y-12239246D02*
X13771967Y-12220198D01*
X13943396Y-12201150D02*
X13943396Y-12334484D01*
X13895777Y-12124960D02*
X13848158Y-12267817D01*
X13848158Y-12267817D02*
X13971967Y-12267817D01*
X14038634Y-12134484D02*
X14038634Y-12172579D01*
X14114825Y-12134484D02*
X14114825Y-12172579D01*
X14410063Y-12410674D02*
X14400539Y-12401150D01*
X14400539Y-12401150D02*
X14381491Y-12372579D01*
X14381491Y-12372579D02*
X14371968Y-12353531D01*
X14371968Y-12353531D02*
X14362444Y-12324960D01*
X14362444Y-12324960D02*
X14352920Y-12277341D01*
X14352920Y-12277341D02*
X14352920Y-12239246D01*
X14352920Y-12239246D02*
X14362444Y-12191627D01*
X14362444Y-12191627D02*
X14371968Y-12163055D01*
X14371968Y-12163055D02*
X14381491Y-12144008D01*
X14381491Y-12144008D02*
X14400539Y-12115436D01*
X14400539Y-12115436D02*
X14410063Y-12105912D01*
X14476729Y-12153531D02*
X14486253Y-12144008D01*
X14486253Y-12144008D02*
X14505301Y-12134484D01*
X14505301Y-12134484D02*
X14552920Y-12134484D01*
X14552920Y-12134484D02*
X14571968Y-12144008D01*
X14571968Y-12144008D02*
X14581491Y-12153531D01*
X14581491Y-12153531D02*
X14591015Y-12172579D01*
X14591015Y-12172579D02*
X14591015Y-12191627D01*
X14591015Y-12191627D02*
X14581491Y-12220198D01*
X14581491Y-12220198D02*
X14467206Y-12334484D01*
X14467206Y-12334484D02*
X14591015Y-12334484D01*
X14705301Y-12220198D02*
X14686253Y-12210674D01*
X14686253Y-12210674D02*
X14676729Y-12201150D01*
X14676729Y-12201150D02*
X14667206Y-12182103D01*
X14667206Y-12182103D02*
X14667206Y-12172579D01*
X14667206Y-12172579D02*
X14676729Y-12153531D01*
X14676729Y-12153531D02*
X14686253Y-12144008D01*
X14686253Y-12144008D02*
X14705301Y-12134484D01*
X14705301Y-12134484D02*
X14743396Y-12134484D01*
X14743396Y-12134484D02*
X14762444Y-12144008D01*
X14762444Y-12144008D02*
X14771968Y-12153531D01*
X14771968Y-12153531D02*
X14781491Y-12172579D01*
X14781491Y-12172579D02*
X14781491Y-12182103D01*
X14781491Y-12182103D02*
X14771968Y-12201150D01*
X14771968Y-12201150D02*
X14762444Y-12210674D01*
X14762444Y-12210674D02*
X14743396Y-12220198D01*
X14743396Y-12220198D02*
X14705301Y-12220198D01*
X14705301Y-12220198D02*
X14686253Y-12229722D01*
X14686253Y-12229722D02*
X14676729Y-12239246D01*
X14676729Y-12239246D02*
X14667206Y-12258293D01*
X14667206Y-12258293D02*
X14667206Y-12296388D01*
X14667206Y-12296388D02*
X14676729Y-12315436D01*
X14676729Y-12315436D02*
X14686253Y-12324960D01*
X14686253Y-12324960D02*
X14705301Y-12334484D01*
X14705301Y-12334484D02*
X14743396Y-12334484D01*
X14743396Y-12334484D02*
X14762444Y-12324960D01*
X14762444Y-12324960D02*
X14771968Y-12315436D01*
X14771968Y-12315436D02*
X14781491Y-12296388D01*
X14781491Y-12296388D02*
X14781491Y-12258293D01*
X14781491Y-12258293D02*
X14771968Y-12239246D01*
X14771968Y-12239246D02*
X14762444Y-12229722D01*
X14762444Y-12229722D02*
X14743396Y-12220198D01*
X15019587Y-12334484D02*
X15019587Y-12134484D01*
X15105301Y-12334484D02*
X15105301Y-12229722D01*
X15105301Y-12229722D02*
X15095777Y-12210674D01*
X15095777Y-12210674D02*
X15076730Y-12201150D01*
X15076730Y-12201150D02*
X15048158Y-12201150D01*
X15048158Y-12201150D02*
X15029110Y-12210674D01*
X15029110Y-12210674D02*
X15019587Y-12220198D01*
X15229110Y-12334484D02*
X15210063Y-12324960D01*
X15210063Y-12324960D02*
X15200539Y-12315436D01*
X15200539Y-12315436D02*
X15191015Y-12296388D01*
X15191015Y-12296388D02*
X15191015Y-12239246D01*
X15191015Y-12239246D02*
X15200539Y-12220198D01*
X15200539Y-12220198D02*
X15210063Y-12210674D01*
X15210063Y-12210674D02*
X15229110Y-12201150D01*
X15229110Y-12201150D02*
X15257682Y-12201150D01*
X15257682Y-12201150D02*
X15276730Y-12210674D01*
X15276730Y-12210674D02*
X15286253Y-12220198D01*
X15286253Y-12220198D02*
X15295777Y-12239246D01*
X15295777Y-12239246D02*
X15295777Y-12296388D01*
X15295777Y-12296388D02*
X15286253Y-12315436D01*
X15286253Y-12315436D02*
X15276730Y-12324960D01*
X15276730Y-12324960D02*
X15257682Y-12334484D01*
X15257682Y-12334484D02*
X15229110Y-12334484D01*
X15410063Y-12334484D02*
X15391015Y-12324960D01*
X15391015Y-12324960D02*
X15381491Y-12305912D01*
X15381491Y-12305912D02*
X15381491Y-12134484D01*
X15562444Y-12324960D02*
X15543396Y-12334484D01*
X15543396Y-12334484D02*
X15505301Y-12334484D01*
X15505301Y-12334484D02*
X15486253Y-12324960D01*
X15486253Y-12324960D02*
X15476730Y-12305912D01*
X15476730Y-12305912D02*
X15476730Y-12229722D01*
X15476730Y-12229722D02*
X15486253Y-12210674D01*
X15486253Y-12210674D02*
X15505301Y-12201150D01*
X15505301Y-12201150D02*
X15543396Y-12201150D01*
X15543396Y-12201150D02*
X15562444Y-12210674D01*
X15562444Y-12210674D02*
X15571968Y-12229722D01*
X15571968Y-12229722D02*
X15571968Y-12248769D01*
X15571968Y-12248769D02*
X15476730Y-12267817D01*
X15648158Y-12324960D02*
X15667206Y-12334484D01*
X15667206Y-12334484D02*
X15705301Y-12334484D01*
X15705301Y-12334484D02*
X15724349Y-12324960D01*
X15724349Y-12324960D02*
X15733872Y-12305912D01*
X15733872Y-12305912D02*
X15733872Y-12296388D01*
X15733872Y-12296388D02*
X15724349Y-12277341D01*
X15724349Y-12277341D02*
X15705301Y-12267817D01*
X15705301Y-12267817D02*
X15676730Y-12267817D01*
X15676730Y-12267817D02*
X15657682Y-12258293D01*
X15657682Y-12258293D02*
X15648158Y-12239246D01*
X15648158Y-12239246D02*
X15648158Y-12229722D01*
X15648158Y-12229722D02*
X15657682Y-12210674D01*
X15657682Y-12210674D02*
X15676730Y-12201150D01*
X15676730Y-12201150D02*
X15705301Y-12201150D01*
X15705301Y-12201150D02*
X15724349Y-12210674D01*
X15800539Y-12410674D02*
X15810063Y-12401150D01*
X15810063Y-12401150D02*
X15829111Y-12372579D01*
X15829111Y-12372579D02*
X15838634Y-12353531D01*
X15838634Y-12353531D02*
X15848158Y-12324960D01*
X15848158Y-12324960D02*
X15857682Y-12277341D01*
X15857682Y-12277341D02*
X15857682Y-12239246D01*
X15857682Y-12239246D02*
X15848158Y-12191627D01*
X15848158Y-12191627D02*
X15838634Y-12163055D01*
X15838634Y-12163055D02*
X15829111Y-12144008D01*
X15829111Y-12144008D02*
X15810063Y-12115436D01*
X15810063Y-12115436D02*
X15800539Y-12105912D01*
M02*
