G04 #@! TF.GenerationSoftware,KiCad,Pcbnew,8.0.5*
G04 #@! TF.CreationDate,2026-07-11T20:47:10-05:00*
G04 #@! TF.ProjectId,programmer_adapter_v5p0,70726f67-7261-46d6-9d65-725f61646170,rev?*
G04 #@! TF.SameCoordinates,Original*
G04 #@! TF.FileFunction,Soldermask,Bot*
G04 #@! TF.FilePolarity,Negative*
%FSLAX46Y46*%
G04 Gerber Fmt 4.6, Leading zero omitted, Abs format (unit mm)*
G04 Created by KiCad (PCBNEW 8.0.5) date 2026-07-11 20:47:10*
%MOMM*%
%LPD*%
G01*
G04 APERTURE LIST*
G04 Aperture macros list*
%AMRoundRect*
0 Rectangle with rounded corners*
0 $1 Rounding radius*
0 $2 $3 $4 $5 $6 $7 $8 $9 X,Y pos of 4 corners*
0 Add a 4 corners polygon primitive as box body*
4,1,4,$2,$3,$4,$5,$6,$7,$8,$9,$2,$3,0*
0 Add four circle primitives for the rounded corners*
1,1,$1+$1,$2,$3*
1,1,$1+$1,$4,$5*
1,1,$1+$1,$6,$7*
1,1,$1+$1,$8,$9*
0 Add four rect primitives between the rounded corners*
20,1,$1+$1,$2,$3,$4,$5,0*
20,1,$1+$1,$4,$5,$6,$7,0*
20,1,$1+$1,$6,$7,$8,$9,0*
20,1,$1+$1,$8,$9,$2,$3,0*%
G04 Aperture macros list end*
%ADD10RoundRect,0.050000X-0.850000X-0.850000X0.850000X-0.850000X0.850000X0.850000X-0.850000X0.850000X0*%
%ADD11O,1.800000X1.800000*%
%ADD12RoundRect,0.050000X0.775000X-0.205000X0.775000X0.205000X-0.775000X0.205000X-0.775000X-0.205000X0*%
%ADD13RoundRect,0.050000X0.775000X-0.130000X0.775000X0.130000X-0.775000X0.130000X-0.775000X-0.130000X0*%
%ADD14RoundRect,0.050000X-0.775000X0.130000X-0.775000X-0.130000X0.775000X-0.130000X0.775000X0.130000X0*%
%ADD15RoundRect,0.050000X0.750000X-0.400000X0.750000X0.400000X-0.750000X0.400000X-0.750000X-0.400000X0*%
%ADD16RoundRect,0.050000X1.025000X-0.180000X1.025000X0.180000X-1.025000X0.180000X-1.025000X-0.180000X0*%
%ADD17RoundRect,0.050000X-0.750000X0.350000X-0.750000X-0.350000X0.750000X-0.350000X0.750000X0.350000X0*%
%ADD18C,1.000000*%
%ADD19C,0.750000*%
%ADD20O,2.200000X1.100000*%
%ADD21O,1.700000X1.100000*%
G04 APERTURE END LIST*
D10*
X120794600Y-82974600D03*
D11*
X123334600Y-82974600D03*
X120794600Y-85514600D03*
X123334600Y-85514600D03*
X120794600Y-88054600D03*
X123334600Y-88054600D03*
X120794600Y-90594600D03*
X123334600Y-90594600D03*
X120794600Y-93134600D03*
X123334600Y-93134600D03*
X120794600Y-95674600D03*
X123334600Y-95674600D03*
X120794600Y-98214600D03*
X123334600Y-98214600D03*
X120794600Y-100754600D03*
X123334600Y-100754600D03*
X120794600Y-103294600D03*
X123334600Y-103294600D03*
X120794600Y-105834600D03*
X123334600Y-105834600D03*
D10*
X128140000Y-90920000D03*
D11*
X130680004Y-90920002D03*
X128139998Y-93460004D03*
X130680000Y-93460000D03*
X128140000Y-96000000D03*
X130680002Y-96000000D03*
X128140000Y-98540000D03*
X130680000Y-98540000D03*
D12*
X152176379Y-97538621D03*
D13*
X152176379Y-96963621D03*
X152176379Y-96463621D03*
X152176379Y-95963621D03*
X152176379Y-95463621D03*
D14*
X152176379Y-94963621D03*
D13*
X152176379Y-94463621D03*
X152176379Y-93963621D03*
X152176379Y-93463621D03*
X152176379Y-92963621D03*
X152176379Y-92463621D03*
D12*
X152176379Y-91888621D03*
D15*
X149856379Y-98338621D03*
D16*
X151926379Y-98118621D03*
D17*
X149856379Y-91443621D03*
D16*
X151926379Y-91308621D03*
D18*
X113587500Y-86750000D03*
X113587500Y-91150000D03*
D19*
X114150000Y-97230000D03*
X114150000Y-103010000D03*
D20*
X114680000Y-95800000D03*
D21*
X110500000Y-95800000D03*
D20*
X114680000Y-104440000D03*
D21*
X110500000Y-104440000D03*
M02*
