%TF.GenerationSoftware,KiCad,Pcbnew,7.0.2-0*%
%TF.CreationDate,2024-01-28T15:47:04-06:00*%
%TF.ProjectId,wire_adapter,77697265-5f61-4646-9170-7465722e6b69,rev?*%
%TF.SameCoordinates,Original*%
%TF.FileFunction,Drillmap*%
%TF.FilePolarity,Positive*%
%FSLAX45Y45*%
G04 Gerber Fmt 4.5, Leading zero omitted, Abs format (unit mm)*
G04 Created by KiCad (PCBNEW 7.0.2-0) date 2024-01-28 15:47:04*
%MOMM*%
%LPD*%
G01*
G04 APERTURE LIST*
%ADD10C,0.100000*%
%ADD11C,0.200000*%
%ADD12C,0.130000*%
G04 APERTURE END LIST*
D10*
X13208000Y-10668000D02*
X15748000Y-10668000D01*
X12700000Y-8890000D02*
X12700000Y-10160000D01*
X15748000Y-8382000D02*
X13208000Y-8382000D01*
X16256000Y-10160000D02*
X16256000Y-8890000D01*
X15748000Y-10668000D02*
G75*
G03*
X16256000Y-10160000I0J508000D01*
G01*
X12700000Y-10160000D02*
G75*
G03*
X13208000Y-10668000I508000J0D01*
G01*
X13208000Y-8382000D02*
G75*
G03*
X12700000Y-8890000I0J-508000D01*
G01*
X16256000Y-8890000D02*
G75*
G03*
X15748000Y-8382000I-508000J0D01*
G01*
D11*
D12*
X13143000Y-8825000D02*
X13273000Y-8955000D01*
X13273000Y-8825000D02*
X13143000Y-8955000D01*
X13143000Y-9460000D02*
X13273000Y-9590000D01*
X13273000Y-9460000D02*
X13143000Y-9590000D01*
X13143000Y-10095000D02*
X13273000Y-10225000D01*
X13273000Y-10095000D02*
X13143000Y-10225000D01*
X15683000Y-8825000D02*
X15813000Y-8955000D01*
X15813000Y-8825000D02*
X15683000Y-8955000D01*
X15683000Y-9460000D02*
X15813000Y-9590000D01*
X15813000Y-9460000D02*
X15683000Y-9590000D01*
X15683000Y-10095000D02*
X15813000Y-10225000D01*
X15813000Y-10095000D02*
X15683000Y-10225000D01*
D11*
X12942619Y-10985524D02*
X12942619Y-10785524D01*
X12942619Y-10785524D02*
X12990238Y-10785524D01*
X12990238Y-10785524D02*
X13018809Y-10795048D01*
X13018809Y-10795048D02*
X13037857Y-10814095D01*
X13037857Y-10814095D02*
X13047381Y-10833143D01*
X13047381Y-10833143D02*
X13056905Y-10871238D01*
X13056905Y-10871238D02*
X13056905Y-10899810D01*
X13056905Y-10899810D02*
X13047381Y-10937905D01*
X13047381Y-10937905D02*
X13037857Y-10956952D01*
X13037857Y-10956952D02*
X13018809Y-10976000D01*
X13018809Y-10976000D02*
X12990238Y-10985524D01*
X12990238Y-10985524D02*
X12942619Y-10985524D01*
X13142619Y-10985524D02*
X13142619Y-10852190D01*
X13142619Y-10890286D02*
X13152143Y-10871238D01*
X13152143Y-10871238D02*
X13161667Y-10861714D01*
X13161667Y-10861714D02*
X13180714Y-10852190D01*
X13180714Y-10852190D02*
X13199762Y-10852190D01*
X13266428Y-10985524D02*
X13266428Y-10852190D01*
X13266428Y-10785524D02*
X13256905Y-10795048D01*
X13256905Y-10795048D02*
X13266428Y-10804571D01*
X13266428Y-10804571D02*
X13275952Y-10795048D01*
X13275952Y-10795048D02*
X13266428Y-10785524D01*
X13266428Y-10785524D02*
X13266428Y-10804571D01*
X13390238Y-10985524D02*
X13371190Y-10976000D01*
X13371190Y-10976000D02*
X13361667Y-10956952D01*
X13361667Y-10956952D02*
X13361667Y-10785524D01*
X13495000Y-10985524D02*
X13475952Y-10976000D01*
X13475952Y-10976000D02*
X13466428Y-10956952D01*
X13466428Y-10956952D02*
X13466428Y-10785524D01*
X13723571Y-10985524D02*
X13723571Y-10785524D01*
X13723571Y-10785524D02*
X13790238Y-10928381D01*
X13790238Y-10928381D02*
X13856905Y-10785524D01*
X13856905Y-10785524D02*
X13856905Y-10985524D01*
X14037857Y-10985524D02*
X14037857Y-10880762D01*
X14037857Y-10880762D02*
X14028333Y-10861714D01*
X14028333Y-10861714D02*
X14009286Y-10852190D01*
X14009286Y-10852190D02*
X13971190Y-10852190D01*
X13971190Y-10852190D02*
X13952143Y-10861714D01*
X14037857Y-10976000D02*
X14018809Y-10985524D01*
X14018809Y-10985524D02*
X13971190Y-10985524D01*
X13971190Y-10985524D02*
X13952143Y-10976000D01*
X13952143Y-10976000D02*
X13942619Y-10956952D01*
X13942619Y-10956952D02*
X13942619Y-10937905D01*
X13942619Y-10937905D02*
X13952143Y-10918857D01*
X13952143Y-10918857D02*
X13971190Y-10909333D01*
X13971190Y-10909333D02*
X14018809Y-10909333D01*
X14018809Y-10909333D02*
X14037857Y-10899810D01*
X14133095Y-10852190D02*
X14133095Y-11052190D01*
X14133095Y-10861714D02*
X14152143Y-10852190D01*
X14152143Y-10852190D02*
X14190238Y-10852190D01*
X14190238Y-10852190D02*
X14209286Y-10861714D01*
X14209286Y-10861714D02*
X14218809Y-10871238D01*
X14218809Y-10871238D02*
X14228333Y-10890286D01*
X14228333Y-10890286D02*
X14228333Y-10947429D01*
X14228333Y-10947429D02*
X14218809Y-10966476D01*
X14218809Y-10966476D02*
X14209286Y-10976000D01*
X14209286Y-10976000D02*
X14190238Y-10985524D01*
X14190238Y-10985524D02*
X14152143Y-10985524D01*
X14152143Y-10985524D02*
X14133095Y-10976000D01*
X14314048Y-10966476D02*
X14323571Y-10976000D01*
X14323571Y-10976000D02*
X14314048Y-10985524D01*
X14314048Y-10985524D02*
X14304524Y-10976000D01*
X14304524Y-10976000D02*
X14314048Y-10966476D01*
X14314048Y-10966476D02*
X14314048Y-10985524D01*
X14314048Y-10861714D02*
X14323571Y-10871238D01*
X14323571Y-10871238D02*
X14314048Y-10880762D01*
X14314048Y-10880762D02*
X14304524Y-10871238D01*
X14304524Y-10871238D02*
X14314048Y-10861714D01*
X14314048Y-10861714D02*
X14314048Y-10880762D01*
D12*
X12565000Y-11248000D02*
X12695000Y-11378000D01*
X12695000Y-11248000D02*
X12565000Y-11378000D01*
D11*
X13047381Y-11405524D02*
X12933095Y-11405524D01*
X12990238Y-11405524D02*
X12990238Y-11205524D01*
X12990238Y-11205524D02*
X12971190Y-11234095D01*
X12971190Y-11234095D02*
X12952143Y-11253143D01*
X12952143Y-11253143D02*
X12933095Y-11262667D01*
X13133095Y-11386476D02*
X13142619Y-11396000D01*
X13142619Y-11396000D02*
X13133095Y-11405524D01*
X13133095Y-11405524D02*
X13123571Y-11396000D01*
X13123571Y-11396000D02*
X13133095Y-11386476D01*
X13133095Y-11386476D02*
X13133095Y-11405524D01*
X13209286Y-11205524D02*
X13333095Y-11205524D01*
X13333095Y-11205524D02*
X13266428Y-11281714D01*
X13266428Y-11281714D02*
X13295000Y-11281714D01*
X13295000Y-11281714D02*
X13314048Y-11291238D01*
X13314048Y-11291238D02*
X13323571Y-11300762D01*
X13323571Y-11300762D02*
X13333095Y-11319809D01*
X13333095Y-11319809D02*
X13333095Y-11367428D01*
X13333095Y-11367428D02*
X13323571Y-11386476D01*
X13323571Y-11386476D02*
X13314048Y-11396000D01*
X13314048Y-11396000D02*
X13295000Y-11405524D01*
X13295000Y-11405524D02*
X13237857Y-11405524D01*
X13237857Y-11405524D02*
X13218809Y-11396000D01*
X13218809Y-11396000D02*
X13209286Y-11386476D01*
X13456905Y-11205524D02*
X13475952Y-11205524D01*
X13475952Y-11205524D02*
X13495000Y-11215048D01*
X13495000Y-11215048D02*
X13504524Y-11224571D01*
X13504524Y-11224571D02*
X13514048Y-11243619D01*
X13514048Y-11243619D02*
X13523571Y-11281714D01*
X13523571Y-11281714D02*
X13523571Y-11329333D01*
X13523571Y-11329333D02*
X13514048Y-11367428D01*
X13514048Y-11367428D02*
X13504524Y-11386476D01*
X13504524Y-11386476D02*
X13495000Y-11396000D01*
X13495000Y-11396000D02*
X13475952Y-11405524D01*
X13475952Y-11405524D02*
X13456905Y-11405524D01*
X13456905Y-11405524D02*
X13437857Y-11396000D01*
X13437857Y-11396000D02*
X13428333Y-11386476D01*
X13428333Y-11386476D02*
X13418809Y-11367428D01*
X13418809Y-11367428D02*
X13409286Y-11329333D01*
X13409286Y-11329333D02*
X13409286Y-11281714D01*
X13409286Y-11281714D02*
X13418809Y-11243619D01*
X13418809Y-11243619D02*
X13428333Y-11224571D01*
X13428333Y-11224571D02*
X13437857Y-11215048D01*
X13437857Y-11215048D02*
X13456905Y-11205524D01*
X13647381Y-11205524D02*
X13666429Y-11205524D01*
X13666429Y-11205524D02*
X13685476Y-11215048D01*
X13685476Y-11215048D02*
X13695000Y-11224571D01*
X13695000Y-11224571D02*
X13704524Y-11243619D01*
X13704524Y-11243619D02*
X13714048Y-11281714D01*
X13714048Y-11281714D02*
X13714048Y-11329333D01*
X13714048Y-11329333D02*
X13704524Y-11367428D01*
X13704524Y-11367428D02*
X13695000Y-11386476D01*
X13695000Y-11386476D02*
X13685476Y-11396000D01*
X13685476Y-11396000D02*
X13666429Y-11405524D01*
X13666429Y-11405524D02*
X13647381Y-11405524D01*
X13647381Y-11405524D02*
X13628333Y-11396000D01*
X13628333Y-11396000D02*
X13618809Y-11386476D01*
X13618809Y-11386476D02*
X13609286Y-11367428D01*
X13609286Y-11367428D02*
X13599762Y-11329333D01*
X13599762Y-11329333D02*
X13599762Y-11281714D01*
X13599762Y-11281714D02*
X13609286Y-11243619D01*
X13609286Y-11243619D02*
X13618809Y-11224571D01*
X13618809Y-11224571D02*
X13628333Y-11215048D01*
X13628333Y-11215048D02*
X13647381Y-11205524D01*
X13799762Y-11405524D02*
X13799762Y-11272190D01*
X13799762Y-11291238D02*
X13809286Y-11281714D01*
X13809286Y-11281714D02*
X13828333Y-11272190D01*
X13828333Y-11272190D02*
X13856905Y-11272190D01*
X13856905Y-11272190D02*
X13875952Y-11281714D01*
X13875952Y-11281714D02*
X13885476Y-11300762D01*
X13885476Y-11300762D02*
X13885476Y-11405524D01*
X13885476Y-11300762D02*
X13895000Y-11281714D01*
X13895000Y-11281714D02*
X13914048Y-11272190D01*
X13914048Y-11272190D02*
X13942619Y-11272190D01*
X13942619Y-11272190D02*
X13961667Y-11281714D01*
X13961667Y-11281714D02*
X13971190Y-11300762D01*
X13971190Y-11300762D02*
X13971190Y-11405524D01*
X14066429Y-11405524D02*
X14066429Y-11272190D01*
X14066429Y-11291238D02*
X14075952Y-11281714D01*
X14075952Y-11281714D02*
X14095000Y-11272190D01*
X14095000Y-11272190D02*
X14123571Y-11272190D01*
X14123571Y-11272190D02*
X14142619Y-11281714D01*
X14142619Y-11281714D02*
X14152143Y-11300762D01*
X14152143Y-11300762D02*
X14152143Y-11405524D01*
X14152143Y-11300762D02*
X14161667Y-11281714D01*
X14161667Y-11281714D02*
X14180714Y-11272190D01*
X14180714Y-11272190D02*
X14209286Y-11272190D01*
X14209286Y-11272190D02*
X14228333Y-11281714D01*
X14228333Y-11281714D02*
X14237857Y-11300762D01*
X14237857Y-11300762D02*
X14237857Y-11405524D01*
X14628333Y-11196000D02*
X14456905Y-11453143D01*
X14885476Y-11205524D02*
X14904524Y-11205524D01*
X14904524Y-11205524D02*
X14923572Y-11215048D01*
X14923572Y-11215048D02*
X14933095Y-11224571D01*
X14933095Y-11224571D02*
X14942619Y-11243619D01*
X14942619Y-11243619D02*
X14952143Y-11281714D01*
X14952143Y-11281714D02*
X14952143Y-11329333D01*
X14952143Y-11329333D02*
X14942619Y-11367428D01*
X14942619Y-11367428D02*
X14933095Y-11386476D01*
X14933095Y-11386476D02*
X14923572Y-11396000D01*
X14923572Y-11396000D02*
X14904524Y-11405524D01*
X14904524Y-11405524D02*
X14885476Y-11405524D01*
X14885476Y-11405524D02*
X14866429Y-11396000D01*
X14866429Y-11396000D02*
X14856905Y-11386476D01*
X14856905Y-11386476D02*
X14847381Y-11367428D01*
X14847381Y-11367428D02*
X14837857Y-11329333D01*
X14837857Y-11329333D02*
X14837857Y-11281714D01*
X14837857Y-11281714D02*
X14847381Y-11243619D01*
X14847381Y-11243619D02*
X14856905Y-11224571D01*
X14856905Y-11224571D02*
X14866429Y-11215048D01*
X14866429Y-11215048D02*
X14885476Y-11205524D01*
X15037857Y-11386476D02*
X15047381Y-11396000D01*
X15047381Y-11396000D02*
X15037857Y-11405524D01*
X15037857Y-11405524D02*
X15028333Y-11396000D01*
X15028333Y-11396000D02*
X15037857Y-11386476D01*
X15037857Y-11386476D02*
X15037857Y-11405524D01*
X15171191Y-11205524D02*
X15190238Y-11205524D01*
X15190238Y-11205524D02*
X15209286Y-11215048D01*
X15209286Y-11215048D02*
X15218810Y-11224571D01*
X15218810Y-11224571D02*
X15228333Y-11243619D01*
X15228333Y-11243619D02*
X15237857Y-11281714D01*
X15237857Y-11281714D02*
X15237857Y-11329333D01*
X15237857Y-11329333D02*
X15228333Y-11367428D01*
X15228333Y-11367428D02*
X15218810Y-11386476D01*
X15218810Y-11386476D02*
X15209286Y-11396000D01*
X15209286Y-11396000D02*
X15190238Y-11405524D01*
X15190238Y-11405524D02*
X15171191Y-11405524D01*
X15171191Y-11405524D02*
X15152143Y-11396000D01*
X15152143Y-11396000D02*
X15142619Y-11386476D01*
X15142619Y-11386476D02*
X15133095Y-11367428D01*
X15133095Y-11367428D02*
X15123572Y-11329333D01*
X15123572Y-11329333D02*
X15123572Y-11281714D01*
X15123572Y-11281714D02*
X15133095Y-11243619D01*
X15133095Y-11243619D02*
X15142619Y-11224571D01*
X15142619Y-11224571D02*
X15152143Y-11215048D01*
X15152143Y-11215048D02*
X15171191Y-11205524D01*
X15418810Y-11205524D02*
X15323572Y-11205524D01*
X15323572Y-11205524D02*
X15314048Y-11300762D01*
X15314048Y-11300762D02*
X15323572Y-11291238D01*
X15323572Y-11291238D02*
X15342619Y-11281714D01*
X15342619Y-11281714D02*
X15390238Y-11281714D01*
X15390238Y-11281714D02*
X15409286Y-11291238D01*
X15409286Y-11291238D02*
X15418810Y-11300762D01*
X15418810Y-11300762D02*
X15428333Y-11319809D01*
X15428333Y-11319809D02*
X15428333Y-11367428D01*
X15428333Y-11367428D02*
X15418810Y-11386476D01*
X15418810Y-11386476D02*
X15409286Y-11396000D01*
X15409286Y-11396000D02*
X15390238Y-11405524D01*
X15390238Y-11405524D02*
X15342619Y-11405524D01*
X15342619Y-11405524D02*
X15323572Y-11396000D01*
X15323572Y-11396000D02*
X15314048Y-11386476D01*
X15618810Y-11405524D02*
X15504524Y-11405524D01*
X15561667Y-11405524D02*
X15561667Y-11205524D01*
X15561667Y-11205524D02*
X15542619Y-11234095D01*
X15542619Y-11234095D02*
X15523572Y-11253143D01*
X15523572Y-11253143D02*
X15504524Y-11262667D01*
X15695000Y-11224571D02*
X15704524Y-11215048D01*
X15704524Y-11215048D02*
X15723572Y-11205524D01*
X15723572Y-11205524D02*
X15771191Y-11205524D01*
X15771191Y-11205524D02*
X15790238Y-11215048D01*
X15790238Y-11215048D02*
X15799762Y-11224571D01*
X15799762Y-11224571D02*
X15809286Y-11243619D01*
X15809286Y-11243619D02*
X15809286Y-11262667D01*
X15809286Y-11262667D02*
X15799762Y-11291238D01*
X15799762Y-11291238D02*
X15685476Y-11405524D01*
X15685476Y-11405524D02*
X15809286Y-11405524D01*
X15885476Y-11205524D02*
X15885476Y-11243619D01*
X15961667Y-11205524D02*
X15961667Y-11243619D01*
X16256905Y-11481714D02*
X16247381Y-11472190D01*
X16247381Y-11472190D02*
X16228334Y-11443619D01*
X16228334Y-11443619D02*
X16218810Y-11424571D01*
X16218810Y-11424571D02*
X16209286Y-11396000D01*
X16209286Y-11396000D02*
X16199762Y-11348381D01*
X16199762Y-11348381D02*
X16199762Y-11310286D01*
X16199762Y-11310286D02*
X16209286Y-11262667D01*
X16209286Y-11262667D02*
X16218810Y-11234095D01*
X16218810Y-11234095D02*
X16228334Y-11215048D01*
X16228334Y-11215048D02*
X16247381Y-11186476D01*
X16247381Y-11186476D02*
X16256905Y-11176952D01*
X16418810Y-11205524D02*
X16380714Y-11205524D01*
X16380714Y-11205524D02*
X16361667Y-11215048D01*
X16361667Y-11215048D02*
X16352143Y-11224571D01*
X16352143Y-11224571D02*
X16333095Y-11253143D01*
X16333095Y-11253143D02*
X16323572Y-11291238D01*
X16323572Y-11291238D02*
X16323572Y-11367428D01*
X16323572Y-11367428D02*
X16333095Y-11386476D01*
X16333095Y-11386476D02*
X16342619Y-11396000D01*
X16342619Y-11396000D02*
X16361667Y-11405524D01*
X16361667Y-11405524D02*
X16399762Y-11405524D01*
X16399762Y-11405524D02*
X16418810Y-11396000D01*
X16418810Y-11396000D02*
X16428334Y-11386476D01*
X16428334Y-11386476D02*
X16437857Y-11367428D01*
X16437857Y-11367428D02*
X16437857Y-11319809D01*
X16437857Y-11319809D02*
X16428334Y-11300762D01*
X16428334Y-11300762D02*
X16418810Y-11291238D01*
X16418810Y-11291238D02*
X16399762Y-11281714D01*
X16399762Y-11281714D02*
X16361667Y-11281714D01*
X16361667Y-11281714D02*
X16342619Y-11291238D01*
X16342619Y-11291238D02*
X16333095Y-11300762D01*
X16333095Y-11300762D02*
X16323572Y-11319809D01*
X16675953Y-11405524D02*
X16675953Y-11205524D01*
X16761667Y-11405524D02*
X16761667Y-11300762D01*
X16761667Y-11300762D02*
X16752143Y-11281714D01*
X16752143Y-11281714D02*
X16733096Y-11272190D01*
X16733096Y-11272190D02*
X16704524Y-11272190D01*
X16704524Y-11272190D02*
X16685476Y-11281714D01*
X16685476Y-11281714D02*
X16675953Y-11291238D01*
X16885477Y-11405524D02*
X16866429Y-11396000D01*
X16866429Y-11396000D02*
X16856905Y-11386476D01*
X16856905Y-11386476D02*
X16847381Y-11367428D01*
X16847381Y-11367428D02*
X16847381Y-11310286D01*
X16847381Y-11310286D02*
X16856905Y-11291238D01*
X16856905Y-11291238D02*
X16866429Y-11281714D01*
X16866429Y-11281714D02*
X16885477Y-11272190D01*
X16885477Y-11272190D02*
X16914048Y-11272190D01*
X16914048Y-11272190D02*
X16933096Y-11281714D01*
X16933096Y-11281714D02*
X16942619Y-11291238D01*
X16942619Y-11291238D02*
X16952143Y-11310286D01*
X16952143Y-11310286D02*
X16952143Y-11367428D01*
X16952143Y-11367428D02*
X16942619Y-11386476D01*
X16942619Y-11386476D02*
X16933096Y-11396000D01*
X16933096Y-11396000D02*
X16914048Y-11405524D01*
X16914048Y-11405524D02*
X16885477Y-11405524D01*
X17066429Y-11405524D02*
X17047381Y-11396000D01*
X17047381Y-11396000D02*
X17037858Y-11376952D01*
X17037858Y-11376952D02*
X17037858Y-11205524D01*
X17218810Y-11396000D02*
X17199762Y-11405524D01*
X17199762Y-11405524D02*
X17161667Y-11405524D01*
X17161667Y-11405524D02*
X17142619Y-11396000D01*
X17142619Y-11396000D02*
X17133096Y-11376952D01*
X17133096Y-11376952D02*
X17133096Y-11300762D01*
X17133096Y-11300762D02*
X17142619Y-11281714D01*
X17142619Y-11281714D02*
X17161667Y-11272190D01*
X17161667Y-11272190D02*
X17199762Y-11272190D01*
X17199762Y-11272190D02*
X17218810Y-11281714D01*
X17218810Y-11281714D02*
X17228334Y-11300762D01*
X17228334Y-11300762D02*
X17228334Y-11319809D01*
X17228334Y-11319809D02*
X17133096Y-11338857D01*
X17304524Y-11396000D02*
X17323572Y-11405524D01*
X17323572Y-11405524D02*
X17361667Y-11405524D01*
X17361667Y-11405524D02*
X17380715Y-11396000D01*
X17380715Y-11396000D02*
X17390239Y-11376952D01*
X17390239Y-11376952D02*
X17390239Y-11367428D01*
X17390239Y-11367428D02*
X17380715Y-11348381D01*
X17380715Y-11348381D02*
X17361667Y-11338857D01*
X17361667Y-11338857D02*
X17333096Y-11338857D01*
X17333096Y-11338857D02*
X17314048Y-11329333D01*
X17314048Y-11329333D02*
X17304524Y-11310286D01*
X17304524Y-11310286D02*
X17304524Y-11300762D01*
X17304524Y-11300762D02*
X17314048Y-11281714D01*
X17314048Y-11281714D02*
X17333096Y-11272190D01*
X17333096Y-11272190D02*
X17361667Y-11272190D01*
X17361667Y-11272190D02*
X17380715Y-11281714D01*
X17456905Y-11481714D02*
X17466429Y-11472190D01*
X17466429Y-11472190D02*
X17485477Y-11443619D01*
X17485477Y-11443619D02*
X17495000Y-11424571D01*
X17495000Y-11424571D02*
X17504524Y-11396000D01*
X17504524Y-11396000D02*
X17514048Y-11348381D01*
X17514048Y-11348381D02*
X17514048Y-11310286D01*
X17514048Y-11310286D02*
X17504524Y-11262667D01*
X17504524Y-11262667D02*
X17495000Y-11234095D01*
X17495000Y-11234095D02*
X17485477Y-11215048D01*
X17485477Y-11215048D02*
X17466429Y-11186476D01*
X17466429Y-11186476D02*
X17456905Y-11176952D01*
M02*
