%TF.GenerationSoftware,KiCad,Pcbnew,(6.0.10-0)*%
%TF.CreationDate,2023-01-29T13:48:38-06:00*%
%TF.ProjectId,spudglo_driver_v4p2,73707564-676c-46f5-9f64-72697665725f,rev?*%
%TF.SameCoordinates,Original*%
%TF.FileFunction,Drillmap*%
%TF.FilePolarity,Positive*%
%FSLAX45Y45*%
G04 Gerber Fmt 4.5, Leading zero omitted, Abs format (unit mm)*
G04 Created by KiCad (PCBNEW (6.0.10-0)) date 2023-01-29 13:48:38*
%MOMM*%
%LPD*%
G01*
G04 APERTURE LIST*
%ADD10C,0.050000*%
%ADD11C,0.200000*%
G04 APERTURE END LIST*
D10*
X19939000Y-4800600D02*
X26339000Y-4800600D01*
X26389800Y-4851400D02*
G75*
G03*
X26339000Y-4800600I-50800J0D01*
G01*
X19939000Y-4800600D02*
G75*
G03*
X19888200Y-4851400I0J-50800D01*
G01*
X26339000Y-8702200D02*
X19939000Y-8702200D01*
X19888200Y-8651400D02*
G75*
G03*
X19939000Y-8702200I50802J2D01*
G01*
X26389800Y-8651400D02*
X26389800Y-4851400D01*
X26339000Y-8702200D02*
G75*
G03*
X26389800Y-8651400I0J50800D01*
G01*
X19888200Y-8651400D02*
X19888200Y-4851400D01*
D11*
X20143319Y-9015176D02*
X20143319Y-8815176D01*
X20190938Y-8815176D01*
X20219510Y-8824700D01*
X20238557Y-8843748D01*
X20248081Y-8862795D01*
X20257605Y-8900890D01*
X20257605Y-8929462D01*
X20248081Y-8967557D01*
X20238557Y-8986605D01*
X20219510Y-9005652D01*
X20190938Y-9015176D01*
X20143319Y-9015176D01*
X20343319Y-9015176D02*
X20343319Y-8881843D01*
X20343319Y-8919938D02*
X20352843Y-8900890D01*
X20362367Y-8891367D01*
X20381414Y-8881843D01*
X20400462Y-8881843D01*
X20467129Y-9015176D02*
X20467129Y-8881843D01*
X20467129Y-8815176D02*
X20457605Y-8824700D01*
X20467129Y-8834224D01*
X20476652Y-8824700D01*
X20467129Y-8815176D01*
X20467129Y-8834224D01*
X20590938Y-9015176D02*
X20571890Y-9005652D01*
X20562367Y-8986605D01*
X20562367Y-8815176D01*
X20695700Y-9015176D02*
X20676652Y-9005652D01*
X20667129Y-8986605D01*
X20667129Y-8815176D01*
X20924271Y-9015176D02*
X20924271Y-8815176D01*
X20990938Y-8958033D01*
X21057605Y-8815176D01*
X21057605Y-9015176D01*
X21238557Y-9015176D02*
X21238557Y-8910414D01*
X21229033Y-8891367D01*
X21209986Y-8881843D01*
X21171890Y-8881843D01*
X21152843Y-8891367D01*
X21238557Y-9005652D02*
X21219510Y-9015176D01*
X21171890Y-9015176D01*
X21152843Y-9005652D01*
X21143319Y-8986605D01*
X21143319Y-8967557D01*
X21152843Y-8948510D01*
X21171890Y-8938986D01*
X21219510Y-8938986D01*
X21238557Y-8929462D01*
X21333795Y-8881843D02*
X21333795Y-9081843D01*
X21333795Y-8891367D02*
X21352843Y-8881843D01*
X21390938Y-8881843D01*
X21409986Y-8891367D01*
X21419510Y-8900890D01*
X21429033Y-8919938D01*
X21429033Y-8977081D01*
X21419510Y-8996129D01*
X21409986Y-9005652D01*
X21390938Y-9015176D01*
X21352843Y-9015176D01*
X21333795Y-9005652D01*
X21514748Y-8996129D02*
X21524271Y-9005652D01*
X21514748Y-9015176D01*
X21505224Y-9005652D01*
X21514748Y-8996129D01*
X21514748Y-9015176D01*
X21514748Y-8891367D02*
X21524271Y-8900890D01*
X21514748Y-8910414D01*
X21505224Y-8900890D01*
X21514748Y-8891367D01*
X21514748Y-8910414D01*
M02*
