G04 #@! TF.GenerationSoftware,KiCad,Pcbnew,(6.0.10-0)*
G04 #@! TF.CreationDate,2023-02-14T22:29:27-06:00*
G04 #@! TF.ProjectId,spudglo_driver_v4p2,73707564-676c-46f5-9f64-72697665725f,rev?*
G04 #@! TF.SameCoordinates,Original*
G04 #@! TF.FileFunction,Paste,Top*
G04 #@! TF.FilePolarity,Positive*
%FSLAX46Y46*%
G04 Gerber Fmt 4.6, Leading zero omitted, Abs format (unit mm)*
G04 Created by KiCad (PCBNEW (6.0.10-0)) date 2023-02-14 22:29:27*
%MOMM*%
%LPD*%
G01*
G04 APERTURE LIST*
G04 Aperture macros list*
%AMRoundRect*
0 Rectangle with rounded corners*
0 $1 Rounding radius*
0 $2 $3 $4 $5 $6 $7 $8 $9 X,Y pos of 4 corners*
0 Add a 4 corners polygon primitive as box body*
4,1,4,$2,$3,$4,$5,$6,$7,$8,$9,$2,$3,0*
0 Add four circle primitives for the rounded corners*
1,1,$1+$1,$2,$3*
1,1,$1+$1,$4,$5*
1,1,$1+$1,$6,$7*
1,1,$1+$1,$8,$9*
0 Add four rect primitives between the rounded corners*
20,1,$1+$1,$2,$3,$4,$5,0*
20,1,$1+$1,$4,$5,$6,$7,0*
20,1,$1+$1,$6,$7,$8,$9,0*
20,1,$1+$1,$8,$9,$2,$3,0*%
%AMRotRect*
0 Rectangle, with rotation*
0 The origin of the aperture is its center*
0 $1 length*
0 $2 width*
0 $3 Rotation angle, in degrees counterclockwise*
0 Add horizontal line*
21,1,$1,$2,0,0,$3*%
G04 Aperture macros list end*
%ADD10RoundRect,0.237500X-0.237500X0.250000X-0.237500X-0.250000X0.237500X-0.250000X0.237500X0.250000X0*%
%ADD11RoundRect,0.237500X0.250000X0.237500X-0.250000X0.237500X-0.250000X-0.237500X0.250000X-0.237500X0*%
%ADD12RoundRect,0.237500X-0.237500X0.300000X-0.237500X-0.300000X0.237500X-0.300000X0.237500X0.300000X0*%
%ADD13RotRect,0.575000X1.140000X135.000000*%
%ADD14RoundRect,0.075000X-0.075000X0.700000X-0.075000X-0.700000X0.075000X-0.700000X0.075000X0.700000X0*%
%ADD15RoundRect,0.075000X-0.700000X0.075000X-0.700000X-0.075000X0.700000X-0.075000X0.700000X0.075000X0*%
%ADD16RoundRect,0.237500X-0.300000X-0.237500X0.300000X-0.237500X0.300000X0.237500X-0.300000X0.237500X0*%
%ADD17RoundRect,0.237500X0.300000X0.237500X-0.300000X0.237500X-0.300000X-0.237500X0.300000X-0.237500X0*%
%ADD18RoundRect,0.237500X0.237500X-0.300000X0.237500X0.300000X-0.237500X0.300000X-0.237500X-0.300000X0*%
%ADD19RoundRect,0.237500X-0.008839X-0.344715X0.344715X0.008839X0.008839X0.344715X-0.344715X-0.008839X0*%
%ADD20R,3.000000X4.000000*%
%ADD21RotRect,1.000000X1.200000X45.000000*%
%ADD22RoundRect,0.237500X0.237500X-0.250000X0.237500X0.250000X-0.237500X0.250000X-0.237500X-0.250000X0*%
%ADD23RoundRect,0.237500X-0.044194X-0.380070X0.380070X0.044194X0.044194X0.380070X-0.380070X-0.044194X0*%
%ADD24RoundRect,0.150000X-0.512500X-0.150000X0.512500X-0.150000X0.512500X0.150000X-0.512500X0.150000X0*%
%ADD25RoundRect,0.237500X-0.380070X0.044194X0.044194X-0.380070X0.380070X-0.044194X-0.044194X0.380070X0*%
%ADD26RoundRect,0.237500X0.008839X0.344715X-0.344715X-0.008839X-0.008839X-0.344715X0.344715X0.008839X0*%
%ADD27R,1.450000X0.600000*%
%ADD28R,1.450000X0.300000*%
%ADD29R,0.625000X0.300000*%
%ADD30R,0.300000X0.625000*%
%ADD31R,1.700000X1.700000*%
%ADD32RoundRect,0.237500X0.380070X-0.044194X-0.044194X0.380070X-0.380070X0.044194X0.044194X-0.380070X0*%
%ADD33RoundRect,0.237500X-0.250000X-0.237500X0.250000X-0.237500X0.250000X0.237500X-0.250000X0.237500X0*%
%ADD34R,0.400000X0.470000*%
%ADD35R,1.700000X0.950000*%
%ADD36RoundRect,0.100000X0.380070X0.521491X-0.521491X-0.380070X-0.380070X-0.521491X0.521491X0.380070X0*%
%ADD37RoundRect,0.150000X0.825000X0.150000X-0.825000X0.150000X-0.825000X-0.150000X0.825000X-0.150000X0*%
G04 APERTURE END LIST*
D10*
X207510000Y-76840000D03*
X207510000Y-78665000D03*
D11*
X207785000Y-70100000D03*
X205960000Y-70100000D03*
D12*
X244100000Y-72797500D03*
X244100000Y-74522500D03*
D13*
X246691682Y-52471682D03*
X246108318Y-51888318D03*
D14*
X245812000Y-55793000D03*
X245312000Y-55793000D03*
X244812000Y-55793000D03*
X244312000Y-55793000D03*
X243812000Y-55793000D03*
X243312000Y-55793000D03*
X242812000Y-55793000D03*
X242312000Y-55793000D03*
X241812000Y-55793000D03*
X241312000Y-55793000D03*
X240812000Y-55793000D03*
X240312000Y-55793000D03*
X239812000Y-55793000D03*
X239312000Y-55793000D03*
X238812000Y-55793000D03*
X238312000Y-55793000D03*
D15*
X236387000Y-57718000D03*
X236387000Y-58218000D03*
X236387000Y-58718000D03*
X236387000Y-59218000D03*
X236387000Y-59718000D03*
X236387000Y-60218000D03*
X236387000Y-60718000D03*
X236387000Y-61218000D03*
X236387000Y-61718000D03*
X236387000Y-62218000D03*
X236387000Y-62718000D03*
X236387000Y-63218000D03*
X236387000Y-63718000D03*
X236387000Y-64218000D03*
X236387000Y-64718000D03*
X236387000Y-65218000D03*
D14*
X238312000Y-67143000D03*
X238812000Y-67143000D03*
X239312000Y-67143000D03*
X239812000Y-67143000D03*
X240312000Y-67143000D03*
X240812000Y-67143000D03*
X241312000Y-67143000D03*
X241812000Y-67143000D03*
X242312000Y-67143000D03*
X242812000Y-67143000D03*
X243312000Y-67143000D03*
X243812000Y-67143000D03*
X244312000Y-67143000D03*
X244812000Y-67143000D03*
X245312000Y-67143000D03*
X245812000Y-67143000D03*
D15*
X247737000Y-65218000D03*
X247737000Y-64718000D03*
X247737000Y-64218000D03*
X247737000Y-63718000D03*
X247737000Y-63218000D03*
X247737000Y-62718000D03*
X247737000Y-62218000D03*
X247737000Y-61718000D03*
X247737000Y-61218000D03*
X247737000Y-60718000D03*
X247737000Y-60218000D03*
X247737000Y-59718000D03*
X247737000Y-59218000D03*
X247737000Y-58718000D03*
X247737000Y-58218000D03*
X247737000Y-57718000D03*
D16*
X211447500Y-68130000D03*
X213172500Y-68130000D03*
D11*
X206832500Y-51980000D03*
X205007500Y-51980000D03*
D17*
X237202500Y-52870000D03*
X235477500Y-52870000D03*
D18*
X270110000Y-72732500D03*
X270110000Y-71007500D03*
D17*
X269602500Y-55332500D03*
X267877500Y-55332500D03*
D10*
X230430000Y-69527500D03*
X230430000Y-71352500D03*
D19*
X232274765Y-72875235D03*
X233565235Y-71584765D03*
D20*
X251010000Y-77660000D03*
X245410000Y-77660000D03*
D16*
X250077500Y-74200000D03*
X251802500Y-74200000D03*
D21*
X241549340Y-51368579D03*
X242751421Y-52570660D03*
X243670660Y-51651421D03*
X242468579Y-50449340D03*
D22*
X249670000Y-66465000D03*
X249670000Y-64640000D03*
D11*
X198292500Y-69790000D03*
X196467500Y-69790000D03*
D18*
X234300000Y-58772500D03*
X234300000Y-57047500D03*
D22*
X262870000Y-52155000D03*
X262870000Y-50330000D03*
D10*
X203880000Y-54697500D03*
X203880000Y-56522500D03*
X232000000Y-67595000D03*
X232000000Y-69420000D03*
D18*
X234260000Y-64955000D03*
X234260000Y-63230000D03*
D22*
X214950000Y-68725000D03*
X214950000Y-66900000D03*
D10*
X205620000Y-76827500D03*
X205620000Y-78652500D03*
D17*
X247135000Y-69030000D03*
X245410000Y-69030000D03*
D23*
X247048318Y-50378318D03*
X248268078Y-49158558D03*
D10*
X216620000Y-66882500D03*
X216620000Y-68707500D03*
D11*
X237250000Y-51300000D03*
X235425000Y-51300000D03*
D10*
X204360000Y-69487500D03*
X204360000Y-71312500D03*
D22*
X269430000Y-79835000D03*
X269430000Y-78010000D03*
D10*
X205820000Y-55330000D03*
X205820000Y-57155000D03*
D24*
X245962500Y-72630000D03*
X245962500Y-73580000D03*
X245962500Y-74530000D03*
X248237500Y-74530000D03*
X248237500Y-72630000D03*
D23*
X240140240Y-50379760D03*
X241360000Y-49160000D03*
D25*
X239430240Y-52380240D03*
X240650000Y-53600000D03*
D11*
X266172500Y-56960000D03*
X264347500Y-56960000D03*
D10*
X204060000Y-58797500D03*
X204060000Y-60622500D03*
D22*
X264750000Y-78215000D03*
X264750000Y-76390000D03*
X267870000Y-79675000D03*
X267870000Y-77850000D03*
D26*
X249590000Y-54480000D03*
X248299530Y-55770470D03*
D11*
X233892500Y-55380000D03*
X232067500Y-55380000D03*
D10*
X196520000Y-59490000D03*
X196520000Y-61315000D03*
D12*
X249670000Y-57177500D03*
X249670000Y-58902500D03*
D19*
X234329530Y-68690470D03*
X235620000Y-67400000D03*
D27*
X263595000Y-68080000D03*
X263595000Y-67280000D03*
D28*
X263595000Y-66080000D03*
X263595000Y-65080000D03*
X263595000Y-64580000D03*
X263595000Y-63580000D03*
D27*
X263595000Y-62380000D03*
X263595000Y-61580000D03*
X263595000Y-61580000D03*
X263595000Y-62380000D03*
D28*
X263595000Y-63080000D03*
X263595000Y-64080000D03*
X263595000Y-65580000D03*
X263595000Y-66580000D03*
D27*
X263595000Y-67280000D03*
X263595000Y-68080000D03*
D16*
X250077500Y-72610000D03*
X251802500Y-72610000D03*
D19*
X263839530Y-81340470D03*
X265130000Y-80050000D03*
D17*
X247132500Y-70590000D03*
X245407500Y-70590000D03*
D11*
X198302500Y-68240000D03*
X196477500Y-68240000D03*
D29*
X266167500Y-72955000D03*
X266167500Y-73455000D03*
X266167500Y-73955000D03*
X266167500Y-74455000D03*
D30*
X266775000Y-75122500D03*
X267275000Y-75122500D03*
X267775000Y-75122500D03*
X268275000Y-75122500D03*
D29*
X268942500Y-74455000D03*
X268942500Y-73955000D03*
X268942500Y-73455000D03*
X268942500Y-72955000D03*
D30*
X268275000Y-72347500D03*
X267775000Y-72347500D03*
X267275000Y-72347500D03*
X266775000Y-72347500D03*
D31*
X267550000Y-73730000D03*
D23*
X248168318Y-51458318D03*
X249388078Y-50238558D03*
D10*
X249660000Y-60550000D03*
X249660000Y-62375000D03*
D17*
X266070000Y-71030000D03*
X264345000Y-71030000D03*
D16*
X206140000Y-68110000D03*
X207865000Y-68110000D03*
D32*
X244820000Y-50580000D03*
X243600240Y-49360240D03*
D10*
X230470000Y-55510000D03*
X230470000Y-57335000D03*
D33*
X235425000Y-49690000D03*
X237250000Y-49690000D03*
D18*
X232760000Y-58755000D03*
X232760000Y-57030000D03*
D22*
X266340000Y-78235000D03*
X266340000Y-76410000D03*
D23*
X247370120Y-54469880D03*
X248589880Y-53250120D03*
D34*
X268845000Y-58527500D03*
X269495000Y-58527500D03*
X270145000Y-58527500D03*
X270145000Y-56697500D03*
X269495000Y-56697500D03*
X268845000Y-56697500D03*
D35*
X269495000Y-57612500D03*
D36*
X241662380Y-73834194D03*
X241202761Y-73374575D03*
X240743142Y-72914955D03*
X240283522Y-72455336D03*
X239823903Y-71995717D03*
X239364283Y-71536097D03*
X238904664Y-71076478D03*
X238445045Y-70616858D03*
X237985425Y-70157239D03*
X237525806Y-69697620D03*
X233477620Y-73745806D03*
X233937239Y-74205425D03*
X234396858Y-74665045D03*
X234856478Y-75124664D03*
X235316097Y-75584283D03*
X235775717Y-76043903D03*
X236235336Y-76503522D03*
X236694955Y-76963142D03*
X237154575Y-77422761D03*
X237614194Y-77882380D03*
D10*
X203890000Y-76810000D03*
X203890000Y-78635000D03*
D37*
X211545000Y-66520000D03*
X211545000Y-65250000D03*
X211545000Y-63980000D03*
X211545000Y-62710000D03*
X211545000Y-61440000D03*
X211545000Y-60170000D03*
X211545000Y-58900000D03*
X206595000Y-58900000D03*
X206595000Y-60170000D03*
X206595000Y-61440000D03*
X206595000Y-62710000D03*
X206595000Y-63980000D03*
X206595000Y-65250000D03*
X206595000Y-66520000D03*
D11*
X266150000Y-55420000D03*
X264325000Y-55420000D03*
D18*
X267830000Y-58647500D03*
X267830000Y-56922500D03*
D10*
X264750000Y-73017500D03*
X264750000Y-74842500D03*
X200140000Y-76777500D03*
X200140000Y-78602500D03*
X201980000Y-76827500D03*
X201980000Y-78652500D03*
D23*
X235470000Y-69770000D03*
X236689760Y-68550240D03*
M02*
