%TF.GenerationSoftware,KiCad,Pcbnew,(6.0.10-0)*%
%TF.CreationDate,2023-01-29T13:48:32-06:00*%
%TF.ProjectId,spudglo_driver_v4p2,73707564-676c-46f5-9f64-72697665725f,rev?*%
%TF.SameCoordinates,Original*%
%TF.FileFunction,Legend,Top*%
%TF.FilePolarity,Positive*%
%FSLAX46Y46*%
G04 Gerber Fmt 4.6, Leading zero omitted, Abs format (unit mm)*
G04 Created by KiCad (PCBNEW (6.0.10-0)) date 2023-01-29 13:48:32*
%MOMM*%
%LPD*%
G01*
G04 APERTURE LIST*
G04 Aperture macros list*
%AMRoundRect*
0 Rectangle with rounded corners*
0 $1 Rounding radius*
0 $2 $3 $4 $5 $6 $7 $8 $9 X,Y pos of 4 corners*
0 Add a 4 corners polygon primitive as box body*
4,1,4,$2,$3,$4,$5,$6,$7,$8,$9,$2,$3,0*
0 Add four circle primitives for the rounded corners*
1,1,$1+$1,$2,$3*
1,1,$1+$1,$4,$5*
1,1,$1+$1,$6,$7*
1,1,$1+$1,$8,$9*
0 Add four rect primitives between the rounded corners*
20,1,$1+$1,$2,$3,$4,$5,0*
20,1,$1+$1,$4,$5,$6,$7,0*
20,1,$1+$1,$6,$7,$8,$9,0*
20,1,$1+$1,$8,$9,$2,$3,0*%
%AMRotRect*
0 Rectangle, with rotation*
0 The origin of the aperture is its center*
0 $1 length*
0 $2 width*
0 $3 Rotation angle, in degrees counterclockwise*
0 Add horizontal line*
21,1,$1,$2,0,0,$3*%
G04 Aperture macros list end*
%ADD10C,0.250000*%
%ADD11C,0.100000*%
%ADD12C,0.120000*%
%ADD13C,0.125000*%
%ADD14C,0.150000*%
%ADD15C,0.200000*%
%ADD16RoundRect,0.237500X0.250000X0.237500X-0.250000X0.237500X-0.250000X-0.237500X0.250000X-0.237500X0*%
%ADD17C,2.000000*%
%ADD18RoundRect,0.237500X-0.044194X-0.380070X0.380070X0.044194X0.044194X0.380070X-0.380070X-0.044194X0*%
%ADD19RotRect,0.575000X1.140000X135.000000*%
%ADD20RotRect,1.000000X1.200000X45.000000*%
%ADD21RoundRect,0.237500X-0.380070X0.044194X0.044194X-0.380070X0.380070X-0.044194X-0.044194X0.380070X0*%
%ADD22RoundRect,0.237500X-0.300000X-0.237500X0.300000X-0.237500X0.300000X0.237500X-0.300000X0.237500X0*%
%ADD23RoundRect,0.237500X0.380070X-0.044194X-0.044194X0.380070X-0.380070X0.044194X0.044194X-0.380070X0*%
%ADD24RoundRect,0.237500X0.300000X0.237500X-0.300000X0.237500X-0.300000X-0.237500X0.300000X-0.237500X0*%
%ADD25RoundRect,0.237500X-0.237500X0.300000X-0.237500X-0.300000X0.237500X-0.300000X0.237500X0.300000X0*%
%ADD26RoundRect,0.237500X0.237500X-0.300000X0.237500X0.300000X-0.237500X0.300000X-0.237500X-0.300000X0*%
%ADD27RoundRect,0.237500X-0.237500X0.250000X-0.237500X-0.250000X0.237500X-0.250000X0.237500X0.250000X0*%
%ADD28RoundRect,0.237500X-0.008839X-0.344715X0.344715X0.008839X0.008839X0.344715X-0.344715X-0.008839X0*%
%ADD29RoundRect,0.237500X-0.250000X-0.237500X0.250000X-0.237500X0.250000X0.237500X-0.250000X0.237500X0*%
%ADD30RoundRect,0.237500X0.237500X-0.250000X0.237500X0.250000X-0.237500X0.250000X-0.237500X-0.250000X0*%
%ADD31R,4.400000X1.800000*%
%ADD32O,4.000000X1.800000*%
%ADD33O,1.800000X4.000000*%
%ADD34R,1.700000X1.700000*%
%ADD35O,1.700000X1.700000*%
%ADD36R,2.400000X1.600000*%
%ADD37O,2.400000X1.600000*%
%ADD38RoundRect,0.075000X-0.075000X0.700000X-0.075000X-0.700000X0.075000X-0.700000X0.075000X0.700000X0*%
%ADD39RoundRect,0.075000X-0.700000X0.075000X-0.700000X-0.075000X0.700000X-0.075000X0.700000X0.075000X0*%
%ADD40RoundRect,0.150000X0.825000X0.150000X-0.825000X0.150000X-0.825000X-0.150000X0.825000X-0.150000X0*%
%ADD41RoundRect,0.100000X0.380070X0.521491X-0.521491X-0.380070X-0.380070X-0.521491X0.521491X0.380070X0*%
%ADD42RoundRect,0.150000X-0.512500X-0.150000X0.512500X-0.150000X0.512500X0.150000X-0.512500X0.150000X0*%
%ADD43R,3.000000X4.000000*%
G04 APERTURE END LIST*
D10*
X212910952Y-79111428D02*
X212149047Y-79111428D01*
X212530000Y-79492380D02*
X212530000Y-78730476D01*
X248150952Y-79401428D02*
X247389047Y-79401428D01*
X243920952Y-79161428D02*
X243159047Y-79161428D01*
X243540000Y-79542380D02*
X243540000Y-78780476D01*
X240410952Y-79091428D02*
X239649047Y-79091428D01*
X236139523Y-79557142D02*
X236091904Y-79604761D01*
X235949047Y-79652380D01*
X235853809Y-79652380D01*
X235710952Y-79604761D01*
X235615714Y-79509523D01*
X235568095Y-79414285D01*
X235520476Y-79223809D01*
X235520476Y-79080952D01*
X235568095Y-78890476D01*
X235615714Y-78795238D01*
X235710952Y-78700000D01*
X235853809Y-78652380D01*
X235949047Y-78652380D01*
X236091904Y-78700000D01*
X236139523Y-78747619D01*
X236568095Y-79652380D02*
X236568095Y-78652380D01*
X236568095Y-79128571D02*
X237139523Y-79128571D01*
X237139523Y-79652380D02*
X237139523Y-78652380D01*
X237520476Y-78652380D02*
X238139523Y-78652380D01*
X237806190Y-79033333D01*
X237949047Y-79033333D01*
X238044285Y-79080952D01*
X238091904Y-79128571D01*
X238139523Y-79223809D01*
X238139523Y-79461904D01*
X238091904Y-79557142D01*
X238044285Y-79604761D01*
X237949047Y-79652380D01*
X237663333Y-79652380D01*
X237568095Y-79604761D01*
X237520476Y-79557142D01*
X225759523Y-79487142D02*
X225711904Y-79534761D01*
X225569047Y-79582380D01*
X225473809Y-79582380D01*
X225330952Y-79534761D01*
X225235714Y-79439523D01*
X225188095Y-79344285D01*
X225140476Y-79153809D01*
X225140476Y-79010952D01*
X225188095Y-78820476D01*
X225235714Y-78725238D01*
X225330952Y-78630000D01*
X225473809Y-78582380D01*
X225569047Y-78582380D01*
X225711904Y-78630000D01*
X225759523Y-78677619D01*
X226188095Y-79582380D02*
X226188095Y-78582380D01*
X226188095Y-79058571D02*
X226759523Y-79058571D01*
X226759523Y-79582380D02*
X226759523Y-78582380D01*
X227188095Y-78677619D02*
X227235714Y-78630000D01*
X227330952Y-78582380D01*
X227569047Y-78582380D01*
X227664285Y-78630000D01*
X227711904Y-78677619D01*
X227759523Y-78772857D01*
X227759523Y-78868095D01*
X227711904Y-79010952D01*
X227140476Y-79582380D01*
X227759523Y-79582380D01*
X215609523Y-79437142D02*
X215561904Y-79484761D01*
X215419047Y-79532380D01*
X215323809Y-79532380D01*
X215180952Y-79484761D01*
X215085714Y-79389523D01*
X215038095Y-79294285D01*
X214990476Y-79103809D01*
X214990476Y-78960952D01*
X215038095Y-78770476D01*
X215085714Y-78675238D01*
X215180952Y-78580000D01*
X215323809Y-78532380D01*
X215419047Y-78532380D01*
X215561904Y-78580000D01*
X215609523Y-78627619D01*
X216038095Y-79532380D02*
X216038095Y-78532380D01*
X216038095Y-79008571D02*
X216609523Y-79008571D01*
X216609523Y-79532380D02*
X216609523Y-78532380D01*
X217609523Y-79532380D02*
X217038095Y-79532380D01*
X217323809Y-79532380D02*
X217323809Y-78532380D01*
X217228571Y-78675238D01*
X217133333Y-78770476D01*
X217038095Y-78818095D01*
X219640952Y-79221428D02*
X218879047Y-79221428D01*
X223290952Y-79231428D02*
X222529047Y-79231428D01*
X222910000Y-79612380D02*
X222910000Y-78850476D01*
X230450952Y-79291428D02*
X229689047Y-79291428D01*
X233920952Y-79351428D02*
X233159047Y-79351428D01*
X233540000Y-79732380D02*
X233540000Y-78970476D01*
D11*
G36*
X206186801Y-86835400D02*
G01*
X203850000Y-86835401D01*
X203850000Y-86810000D01*
X203824600Y-86835400D01*
X203824600Y-85870201D01*
X206186800Y-85870200D01*
X206186801Y-86835400D01*
G37*
X206186801Y-86835400D02*
X203850000Y-86835401D01*
X203850000Y-86810000D01*
X203824600Y-86835400D01*
X203824600Y-85870201D01*
X206186800Y-85870200D01*
X206186801Y-86835400D01*
D12*
X225043997Y-61467998D02*
X199643998Y-61467999D01*
X199643998Y-61467999D02*
X199643998Y-48768000D01*
X225044000Y-48768000D02*
X225043997Y-61467998D01*
X199643998Y-48768000D02*
X225044000Y-48768000D01*
D13*
X203229889Y-55047889D02*
X203229889Y-55428842D01*
X203039413Y-55238366D02*
X203420365Y-55238366D01*
X203483706Y-49656511D02*
X203507515Y-49608892D01*
X203507515Y-49537464D01*
X203483706Y-49466035D01*
X203436086Y-49418416D01*
X203388467Y-49394606D01*
X203293229Y-49370797D01*
X203221801Y-49370797D01*
X203126563Y-49394606D01*
X203078944Y-49418416D01*
X203031325Y-49466035D01*
X203007515Y-49537464D01*
X203007515Y-49585083D01*
X203031325Y-49656511D01*
X203055134Y-49680321D01*
X203221801Y-49680321D01*
X203221801Y-49585083D01*
X203007515Y-49894606D02*
X203507515Y-49894606D01*
X203007515Y-50180321D01*
X203507515Y-50180321D01*
X203007515Y-50418416D02*
X203507515Y-50418416D01*
X203507515Y-50537464D01*
X203483706Y-50608892D01*
X203436086Y-50656511D01*
X203388467Y-50680321D01*
X203293229Y-50704130D01*
X203221801Y-50704130D01*
X203126563Y-50680321D01*
X203078944Y-50656511D01*
X203031325Y-50608892D01*
X203007515Y-50537464D01*
X203007515Y-50418416D01*
X203137333Y-60155312D02*
X203637333Y-60155312D01*
X203137333Y-60441027D01*
X203637333Y-60441027D01*
X203184952Y-60964836D02*
X203161143Y-60941027D01*
X203137333Y-60869598D01*
X203137333Y-60821979D01*
X203161143Y-60750550D01*
X203208762Y-60702931D01*
X203256381Y-60679122D01*
X203351619Y-60655312D01*
X203423047Y-60655312D01*
X203518285Y-60679122D01*
X203565904Y-60702931D01*
X203613524Y-60750550D01*
X203637333Y-60821979D01*
X203637333Y-60869598D01*
X203613524Y-60941027D01*
X203589714Y-60964836D01*
X203526712Y-52692026D02*
X203526712Y-52453931D01*
X203288617Y-52430122D01*
X203312426Y-52453931D01*
X203336236Y-52501550D01*
X203336236Y-52620598D01*
X203312426Y-52668217D01*
X203288617Y-52692026D01*
X203240998Y-52715836D01*
X203121950Y-52715836D01*
X203074331Y-52692026D01*
X203050522Y-52668217D01*
X203026712Y-52620598D01*
X203026712Y-52501550D01*
X203050522Y-52453931D01*
X203074331Y-52430122D01*
X203526712Y-52858693D02*
X203026712Y-53025360D01*
X203526712Y-53192026D01*
X203161619Y-58108543D02*
X203161619Y-57727590D01*
D12*
X225043997Y-75437998D02*
X199643998Y-75437999D01*
X199643998Y-75437999D02*
X199643998Y-62738000D01*
X225044000Y-62738000D02*
X225043997Y-75437998D01*
X199643998Y-62738000D02*
X225044000Y-62738000D01*
D13*
X203229889Y-69017889D02*
X203229889Y-69398842D01*
X203039413Y-69208366D02*
X203420365Y-69208366D01*
X203483706Y-63626511D02*
X203507515Y-63578892D01*
X203507515Y-63507464D01*
X203483706Y-63436035D01*
X203436086Y-63388416D01*
X203388467Y-63364606D01*
X203293229Y-63340797D01*
X203221801Y-63340797D01*
X203126563Y-63364606D01*
X203078944Y-63388416D01*
X203031325Y-63436035D01*
X203007515Y-63507464D01*
X203007515Y-63555083D01*
X203031325Y-63626511D01*
X203055134Y-63650321D01*
X203221801Y-63650321D01*
X203221801Y-63555083D01*
X203007515Y-63864606D02*
X203507515Y-63864606D01*
X203007515Y-64150321D01*
X203507515Y-64150321D01*
X203007515Y-64388416D02*
X203507515Y-64388416D01*
X203507515Y-64507464D01*
X203483706Y-64578892D01*
X203436086Y-64626511D01*
X203388467Y-64650321D01*
X203293229Y-64674130D01*
X203221801Y-64674130D01*
X203126563Y-64650321D01*
X203078944Y-64626511D01*
X203031325Y-64578892D01*
X203007515Y-64507464D01*
X203007515Y-64388416D01*
X203137333Y-74125312D02*
X203637333Y-74125312D01*
X203137333Y-74411027D01*
X203637333Y-74411027D01*
X203184952Y-74934836D02*
X203161143Y-74911027D01*
X203137333Y-74839598D01*
X203137333Y-74791979D01*
X203161143Y-74720550D01*
X203208762Y-74672931D01*
X203256381Y-74649122D01*
X203351619Y-74625312D01*
X203423047Y-74625312D01*
X203518285Y-74649122D01*
X203565904Y-74672931D01*
X203613524Y-74720550D01*
X203637333Y-74791979D01*
X203637333Y-74839598D01*
X203613524Y-74911027D01*
X203589714Y-74934836D01*
X203526712Y-66662026D02*
X203526712Y-66423931D01*
X203288617Y-66400122D01*
X203312426Y-66423931D01*
X203336236Y-66471550D01*
X203336236Y-66590598D01*
X203312426Y-66638217D01*
X203288617Y-66662026D01*
X203240998Y-66685836D01*
X203121950Y-66685836D01*
X203074331Y-66662026D01*
X203050522Y-66638217D01*
X203026712Y-66590598D01*
X203026712Y-66471550D01*
X203050522Y-66423931D01*
X203074331Y-66400122D01*
X203526712Y-66828693D02*
X203026712Y-66995360D01*
X203526712Y-67162026D01*
X203161619Y-72078543D02*
X203161619Y-71697590D01*
D12*
X251205997Y-75437998D02*
X225805998Y-75437999D01*
X225805998Y-75437999D02*
X225805998Y-62738000D01*
X251206000Y-62738000D02*
X251205997Y-75437998D01*
X225805998Y-62738000D02*
X251206000Y-62738000D01*
D13*
X229391889Y-69017889D02*
X229391889Y-69398842D01*
X229201413Y-69208366D02*
X229582365Y-69208366D01*
X229645706Y-63626511D02*
X229669515Y-63578892D01*
X229669515Y-63507464D01*
X229645706Y-63436035D01*
X229598086Y-63388416D01*
X229550467Y-63364606D01*
X229455229Y-63340797D01*
X229383801Y-63340797D01*
X229288563Y-63364606D01*
X229240944Y-63388416D01*
X229193325Y-63436035D01*
X229169515Y-63507464D01*
X229169515Y-63555083D01*
X229193325Y-63626511D01*
X229217134Y-63650321D01*
X229383801Y-63650321D01*
X229383801Y-63555083D01*
X229169515Y-63864606D02*
X229669515Y-63864606D01*
X229169515Y-64150321D01*
X229669515Y-64150321D01*
X229169515Y-64388416D02*
X229669515Y-64388416D01*
X229669515Y-64507464D01*
X229645706Y-64578892D01*
X229598086Y-64626511D01*
X229550467Y-64650321D01*
X229455229Y-64674130D01*
X229383801Y-64674130D01*
X229288563Y-64650321D01*
X229240944Y-64626511D01*
X229193325Y-64578892D01*
X229169515Y-64507464D01*
X229169515Y-64388416D01*
X229299333Y-74125312D02*
X229799333Y-74125312D01*
X229299333Y-74411027D01*
X229799333Y-74411027D01*
X229346952Y-74934836D02*
X229323143Y-74911027D01*
X229299333Y-74839598D01*
X229299333Y-74791979D01*
X229323143Y-74720550D01*
X229370762Y-74672931D01*
X229418381Y-74649122D01*
X229513619Y-74625312D01*
X229585047Y-74625312D01*
X229680285Y-74649122D01*
X229727904Y-74672931D01*
X229775524Y-74720550D01*
X229799333Y-74791979D01*
X229799333Y-74839598D01*
X229775524Y-74911027D01*
X229751714Y-74934836D01*
X229688712Y-66662026D02*
X229688712Y-66423931D01*
X229450617Y-66400122D01*
X229474426Y-66423931D01*
X229498236Y-66471550D01*
X229498236Y-66590598D01*
X229474426Y-66638217D01*
X229450617Y-66662026D01*
X229402998Y-66685836D01*
X229283950Y-66685836D01*
X229236331Y-66662026D01*
X229212522Y-66638217D01*
X229188712Y-66590598D01*
X229188712Y-66471550D01*
X229212522Y-66423931D01*
X229236331Y-66400122D01*
X229688712Y-66828693D02*
X229188712Y-66995360D01*
X229688712Y-67162026D01*
X229323619Y-72078543D02*
X229323619Y-71697590D01*
D12*
X251205999Y-61468000D02*
X225806000Y-61468001D01*
X225806000Y-61468001D02*
X225806000Y-48768002D01*
X251206002Y-48768002D02*
X251205999Y-61468000D01*
X225806000Y-48768002D02*
X251206002Y-48768002D01*
D13*
X229299335Y-60155314D02*
X229799335Y-60155314D01*
X229299335Y-60441029D01*
X229799335Y-60441029D01*
X229346954Y-60964838D02*
X229323145Y-60941029D01*
X229299335Y-60869600D01*
X229299335Y-60821981D01*
X229323145Y-60750552D01*
X229370764Y-60702933D01*
X229418383Y-60679124D01*
X229513621Y-60655314D01*
X229585049Y-60655314D01*
X229680287Y-60679124D01*
X229727906Y-60702933D01*
X229775526Y-60750552D01*
X229799335Y-60821981D01*
X229799335Y-60869600D01*
X229775526Y-60941029D01*
X229751716Y-60964838D01*
X229391891Y-55047891D02*
X229391891Y-55428844D01*
X229201415Y-55238368D02*
X229582367Y-55238368D01*
X229645708Y-49656513D02*
X229669517Y-49608894D01*
X229669517Y-49537466D01*
X229645708Y-49466037D01*
X229598088Y-49418418D01*
X229550469Y-49394608D01*
X229455231Y-49370799D01*
X229383803Y-49370799D01*
X229288565Y-49394608D01*
X229240946Y-49418418D01*
X229193327Y-49466037D01*
X229169517Y-49537466D01*
X229169517Y-49585085D01*
X229193327Y-49656513D01*
X229217136Y-49680323D01*
X229383803Y-49680323D01*
X229383803Y-49585085D01*
X229169517Y-49894608D02*
X229669517Y-49894608D01*
X229169517Y-50180323D01*
X229669517Y-50180323D01*
X229169517Y-50418418D02*
X229669517Y-50418418D01*
X229669517Y-50537466D01*
X229645708Y-50608894D01*
X229598088Y-50656513D01*
X229550469Y-50680323D01*
X229455231Y-50704132D01*
X229383803Y-50704132D01*
X229288565Y-50680323D01*
X229240946Y-50656513D01*
X229193327Y-50608894D01*
X229169517Y-50537466D01*
X229169517Y-50418418D01*
X229688714Y-52692028D02*
X229688714Y-52453933D01*
X229450619Y-52430124D01*
X229474428Y-52453933D01*
X229498238Y-52501552D01*
X229498238Y-52620600D01*
X229474428Y-52668219D01*
X229450619Y-52692028D01*
X229403000Y-52715838D01*
X229283952Y-52715838D01*
X229236333Y-52692028D01*
X229212524Y-52668219D01*
X229188714Y-52620600D01*
X229188714Y-52501552D01*
X229212524Y-52453933D01*
X229236333Y-52430124D01*
X229688714Y-52858695D02*
X229188714Y-53025362D01*
X229688714Y-53192028D01*
X229323621Y-58108545D02*
X229323621Y-57727592D01*
D12*
%TO.C,R23*%
X236592224Y-51822500D02*
X236082776Y-51822500D01*
X236592224Y-50777500D02*
X236082776Y-50777500D01*
%TO.C,J3*%
X210702000Y-86958000D02*
X252702000Y-86958000D01*
X252702000Y-86958000D02*
X252702000Y-79958000D01*
X252702000Y-79958000D02*
X210702000Y-79958000D01*
X210702000Y-79958000D02*
X210702000Y-86958000D01*
%TO.C,C5*%
X247194147Y-49511240D02*
X247401000Y-49304387D01*
X247915396Y-50232489D02*
X248122249Y-50025636D01*
D14*
%TO.C,U7*%
X247279436Y-53009436D02*
G75*
G03*
X247279436Y-53009436I-50000J0D01*
G01*
D15*
%TO.C,U8*%
X240765456Y-50555406D02*
G75*
G03*
X240765456Y-50555406I-100000J0D01*
G01*
D12*
%TO.C,C13*%
X240297318Y-52526069D02*
X240504171Y-52732922D01*
X239576069Y-53247318D02*
X239782922Y-53454171D01*
%TO.C,C2*%
X206856233Y-67600000D02*
X207148767Y-67600000D01*
X206856233Y-68620000D02*
X207148767Y-68620000D01*
%TO.C,C3*%
X240286069Y-49512682D02*
X240492922Y-49305829D01*
X241007318Y-50233931D02*
X241214171Y-50027078D01*
%TO.C,C4*%
X249035396Y-51312489D02*
X249242249Y-51105636D01*
X248314147Y-50591240D02*
X248521000Y-50384387D01*
%TO.C,C6*%
X235615829Y-68902922D02*
X235822682Y-68696069D01*
X236337078Y-69624171D02*
X236543931Y-69417318D01*
%TO.C,C7*%
X243952922Y-50434171D02*
X243746069Y-50227318D01*
X244674171Y-49712922D02*
X244467318Y-49506069D01*
%TO.C,C8*%
X236486267Y-53380000D02*
X236193733Y-53380000D01*
X236486267Y-52360000D02*
X236193733Y-52360000D01*
%TO.C,C9*%
X250180000Y-57893733D02*
X250180000Y-58186267D01*
X249160000Y-57893733D02*
X249160000Y-58186267D01*
%TO.C,C10*%
X233790000Y-58056267D02*
X233790000Y-57763733D01*
X234810000Y-58056267D02*
X234810000Y-57763733D01*
%TO.C,C11*%
X247515949Y-53602802D02*
X247722802Y-53395949D01*
X248237198Y-54324051D02*
X248444051Y-54117198D01*
%TO.C,C12*%
X233750000Y-64238767D02*
X233750000Y-63946233D01*
X234770000Y-64238767D02*
X234770000Y-63946233D01*
%TO.C,C14*%
X232250000Y-58038767D02*
X232250000Y-57746233D01*
X233270000Y-58038767D02*
X233270000Y-57746233D01*
%TO.C,C15*%
X244610000Y-73513733D02*
X244610000Y-73806267D01*
X243590000Y-73513733D02*
X243590000Y-73806267D01*
%TO.C,C16*%
X246418767Y-69540000D02*
X246126233Y-69540000D01*
X246418767Y-68520000D02*
X246126233Y-68520000D01*
%TO.C,C17*%
X246416267Y-71100000D02*
X246123733Y-71100000D01*
X246416267Y-70080000D02*
X246123733Y-70080000D01*
%TO.C,C18*%
X250793733Y-72100000D02*
X251086267Y-72100000D01*
X250793733Y-73120000D02*
X251086267Y-73120000D01*
%TO.C,C19*%
X250793733Y-73690000D02*
X251086267Y-73690000D01*
X250793733Y-74710000D02*
X251086267Y-74710000D01*
%TO.C,R22*%
X200582500Y-77662776D02*
X200582500Y-78172224D01*
X199537500Y-77662776D02*
X199537500Y-78172224D01*
%TO.C,R21*%
X202502500Y-77682776D02*
X202502500Y-78192224D01*
X201457500Y-77682776D02*
X201457500Y-78192224D01*
%TO.C,R20*%
X206152500Y-77677776D02*
X206152500Y-78187224D01*
X205107500Y-77677776D02*
X205107500Y-78187224D01*
%TO.C,R19*%
X204392500Y-77695276D02*
X204392500Y-78204724D01*
X203347500Y-77695276D02*
X203347500Y-78204724D01*
%TO.C,R18*%
X208042500Y-77605276D02*
X208042500Y-78114724D01*
X206997500Y-77605276D02*
X206997500Y-78114724D01*
%TO.C,R17*%
X234425185Y-67855889D02*
X234785419Y-67495655D01*
X235164111Y-68594815D02*
X235524345Y-68234581D01*
%TO.C,R16*%
X236082776Y-49167500D02*
X236592224Y-49167500D01*
X236082776Y-50212500D02*
X236592224Y-50212500D01*
%TO.C,R15*%
X250182500Y-61207776D02*
X250182500Y-61717224D01*
X249137500Y-61207776D02*
X249137500Y-61717224D01*
%TO.C,R14*%
X232370420Y-72040654D02*
X232730654Y-71680420D01*
X233109346Y-72779580D02*
X233469580Y-72419346D01*
%TO.C,R13*%
X262367500Y-60514724D02*
X262367500Y-60005276D01*
X263412500Y-60514724D02*
X263412500Y-60005276D01*
%TO.C,R12*%
X263392500Y-55825276D02*
X263392500Y-56334724D01*
X262347500Y-55825276D02*
X262347500Y-56334724D01*
%TO.C,R11*%
X263402500Y-65217776D02*
X263402500Y-65727224D01*
X262357500Y-65217776D02*
X262357500Y-65727224D01*
%TO.C,R10*%
X262347500Y-51497224D02*
X262347500Y-50987776D01*
X263392500Y-51497224D02*
X263392500Y-50987776D01*
%TO.C,R9*%
X232522500Y-68252776D02*
X232522500Y-68762224D01*
X231477500Y-68252776D02*
X231477500Y-68762224D01*
%TO.C,R8*%
X233227224Y-55952500D02*
X232717776Y-55952500D01*
X233227224Y-54907500D02*
X232717776Y-54907500D01*
%TO.C,R7*%
X207127224Y-70622500D02*
X206617776Y-70622500D01*
X207127224Y-69577500D02*
X206617776Y-69577500D01*
%TO.C,R6*%
X207157224Y-55872500D02*
X206647776Y-55872500D01*
X207157224Y-54827500D02*
X206647776Y-54827500D01*
%TO.C,R5*%
X230992500Y-56167776D02*
X230992500Y-56677224D01*
X229947500Y-56167776D02*
X229947500Y-56677224D01*
%TO.C,R4*%
X204882500Y-70145276D02*
X204882500Y-70654724D01*
X203837500Y-70145276D02*
X203837500Y-70654724D01*
%TO.C,R3*%
X230952500Y-70185276D02*
X230952500Y-70694724D01*
X229907500Y-70185276D02*
X229907500Y-70694724D01*
%TO.C,R1*%
X204882500Y-56015276D02*
X204882500Y-56524724D01*
X203837500Y-56015276D02*
X203837500Y-56524724D01*
%TO.C,C1*%
X212163733Y-67620000D02*
X212456267Y-67620000D01*
X212163733Y-68640000D02*
X212456267Y-68640000D01*
%TO.C,J2*%
X253118000Y-86598000D02*
X253118000Y-71898000D01*
X262318000Y-78098000D02*
X262318000Y-86598000D01*
X262318000Y-71898000D02*
X262318000Y-73698000D01*
X253118000Y-71898000D02*
X255218000Y-71898000D01*
X254518000Y-71598000D02*
X252818000Y-71598000D01*
X252818000Y-71598000D02*
X252818000Y-73198000D01*
X262318000Y-86598000D02*
X253118000Y-86598000D01*
X260218000Y-71898000D02*
X262318000Y-71898000D01*
%TO.C,U1*%
X202244000Y-51308000D02*
X202244000Y-61528000D01*
X199584000Y-48708000D02*
X200914000Y-48708000D01*
X199584000Y-51308000D02*
X199584000Y-61528000D01*
X199584000Y-61528000D02*
X202244000Y-61528000D01*
X199584000Y-51308000D02*
X202244000Y-51308000D01*
X199584000Y-50038000D02*
X199584000Y-48708000D01*
%TO.C,U3*%
X228406000Y-65278000D02*
X228406000Y-75498000D01*
X225746000Y-62678000D02*
X227076000Y-62678000D01*
X225746000Y-65278000D02*
X225746000Y-75498000D01*
X225746000Y-75498000D02*
X228406000Y-75498000D01*
X225746000Y-65278000D02*
X228406000Y-65278000D01*
X225746000Y-64008000D02*
X225746000Y-62678000D01*
%TO.C,U4*%
X202244000Y-65278000D02*
X202244000Y-75498000D01*
X199584000Y-62678000D02*
X200914000Y-62678000D01*
X199584000Y-65278000D02*
X199584000Y-75498000D01*
X199584000Y-75498000D02*
X202244000Y-75498000D01*
X199584000Y-65278000D02*
X202244000Y-65278000D01*
X199584000Y-64008000D02*
X199584000Y-62678000D01*
%TO.C,U5*%
X228406000Y-51308000D02*
X228406000Y-61528000D01*
X225746000Y-48708000D02*
X227076000Y-48708000D01*
X225746000Y-51308000D02*
X225746000Y-61528000D01*
X225746000Y-61528000D02*
X228406000Y-61528000D01*
X225746000Y-51308000D02*
X228406000Y-51308000D01*
X225746000Y-50038000D02*
X225746000Y-48708000D01*
%TO.C,J1*%
X202194000Y-83063000D02*
X199594000Y-83063000D01*
X200924000Y-85663000D02*
X199594000Y-85663000D01*
X199594000Y-80463000D02*
X209874000Y-80463000D01*
X209874000Y-85663000D02*
X209874000Y-80463000D01*
X202194000Y-85663000D02*
X209874000Y-85663000D01*
X202194000Y-85663000D02*
X202194000Y-83063000D01*
X199594000Y-85663000D02*
X199594000Y-84333000D01*
X199594000Y-83063000D02*
X199594000Y-80463000D01*
%TO.C,U6*%
X258960000Y-48950000D02*
X257710000Y-48950000D01*
X254460000Y-48950000D02*
X254460000Y-69390000D01*
X258960000Y-69390000D02*
X258960000Y-48950000D01*
X255710000Y-48950000D02*
X254460000Y-48950000D01*
X254460000Y-69390000D02*
X258960000Y-69390000D01*
X255710000Y-48950000D02*
G75*
G03*
X257710000Y-48950000I1000000J0D01*
G01*
%TO.C,U10*%
X247172000Y-57308000D02*
X247172000Y-56358000D01*
X247172000Y-65628000D02*
X247172000Y-66578000D01*
X236952000Y-66578000D02*
X237902000Y-66578000D01*
X236952000Y-65628000D02*
X236952000Y-66578000D01*
X236952000Y-57308000D02*
X236952000Y-56358000D01*
X247172000Y-56358000D02*
X246222000Y-56358000D01*
X247172000Y-66578000D02*
X246222000Y-66578000D01*
X236952000Y-56358000D02*
X237902000Y-56358000D01*
X246222000Y-56358000D02*
X246222000Y-55018000D01*
%TO.C,U2*%
X209070000Y-67135000D02*
X207120000Y-67135000D01*
X209070000Y-58265000D02*
X207120000Y-58265000D01*
X209070000Y-67135000D02*
X212520000Y-67135000D01*
X209070000Y-58265000D02*
X211020000Y-58265000D01*
%TO.C,U9*%
X239963556Y-76183556D02*
X238407922Y-77739191D01*
X239963556Y-76183556D02*
X242509141Y-73637972D01*
X235176444Y-71396444D02*
X233620809Y-72952078D01*
X235176444Y-71396444D02*
X236732078Y-69840809D01*
%TO.C,U11*%
X247100000Y-75140000D02*
X246300000Y-75140000D01*
X247100000Y-72020000D02*
X245300000Y-72020000D01*
X247100000Y-72020000D02*
X247900000Y-72020000D01*
X247100000Y-75140000D02*
X247900000Y-75140000D01*
%TO.C,R2*%
X204982500Y-59495276D02*
X204982500Y-60004724D01*
X203937500Y-59495276D02*
X203937500Y-60004724D01*
%TD*%
%LPC*%
D16*
%TO.C,R23*%
X237250000Y-51300000D03*
X235425000Y-51300000D03*
%TD*%
D17*
%TO.C,J3*%
X212452000Y-83058000D03*
X215952000Y-83058000D03*
X219452000Y-83058000D03*
X222952000Y-83058000D03*
X226452000Y-83058000D03*
X229952000Y-83058000D03*
X233452000Y-83058000D03*
X236952000Y-83058000D03*
X240452000Y-83058000D03*
X243952000Y-83058000D03*
X247452000Y-83058000D03*
X250952000Y-83058000D03*
%TD*%
D18*
%TO.C,C5*%
X247048318Y-50378318D03*
X248268078Y-49158558D03*
%TD*%
D19*
%TO.C,U7*%
X246691682Y-52471682D03*
X246108318Y-51888318D03*
%TD*%
D20*
%TO.C,U8*%
X241549340Y-51368579D03*
X242751421Y-52570660D03*
X243670660Y-51651421D03*
X242468579Y-50449340D03*
%TD*%
D21*
%TO.C,C13*%
X239430240Y-52380240D03*
X240650000Y-53600000D03*
%TD*%
D22*
%TO.C,C2*%
X206140000Y-68110000D03*
X207865000Y-68110000D03*
%TD*%
D18*
%TO.C,C3*%
X240140240Y-50379760D03*
X241360000Y-49160000D03*
%TD*%
%TO.C,C4*%
X249388078Y-50238558D03*
X248168318Y-51458318D03*
%TD*%
%TO.C,C6*%
X235470000Y-69770000D03*
X236689760Y-68550240D03*
%TD*%
D23*
%TO.C,C7*%
X244820000Y-50580000D03*
X243600240Y-49360240D03*
%TD*%
D24*
%TO.C,C8*%
X237202500Y-52870000D03*
X235477500Y-52870000D03*
%TD*%
D25*
%TO.C,C9*%
X249670000Y-57177500D03*
X249670000Y-58902500D03*
%TD*%
D26*
%TO.C,C10*%
X234300000Y-58772500D03*
X234300000Y-57047500D03*
%TD*%
D18*
%TO.C,C11*%
X247370120Y-54469880D03*
X248589880Y-53250120D03*
%TD*%
D26*
%TO.C,C12*%
X234260000Y-64955000D03*
X234260000Y-63230000D03*
%TD*%
%TO.C,C14*%
X232760000Y-58755000D03*
X232760000Y-57030000D03*
%TD*%
D25*
%TO.C,C15*%
X244100000Y-72797500D03*
X244100000Y-74522500D03*
%TD*%
D24*
%TO.C,C16*%
X247135000Y-69030000D03*
X245410000Y-69030000D03*
%TD*%
%TO.C,C17*%
X247132500Y-70590000D03*
X245407500Y-70590000D03*
%TD*%
D22*
%TO.C,C18*%
X250077500Y-72610000D03*
X251802500Y-72610000D03*
%TD*%
%TO.C,C19*%
X250077500Y-74200000D03*
X251802500Y-74200000D03*
%TD*%
D27*
%TO.C,R22*%
X200060000Y-77005000D03*
X200060000Y-78830000D03*
%TD*%
%TO.C,R21*%
X201980000Y-77025000D03*
X201980000Y-78850000D03*
%TD*%
%TO.C,R20*%
X205630000Y-77020000D03*
X205630000Y-78845000D03*
%TD*%
%TO.C,R19*%
X203870000Y-77037500D03*
X203870000Y-78862500D03*
%TD*%
%TO.C,R18*%
X207520000Y-76947500D03*
X207520000Y-78772500D03*
%TD*%
D28*
%TO.C,R17*%
X234329530Y-68690470D03*
X235620000Y-67400000D03*
%TD*%
D29*
%TO.C,R16*%
X235425000Y-49690000D03*
X237250000Y-49690000D03*
%TD*%
D27*
%TO.C,R15*%
X249660000Y-60550000D03*
X249660000Y-62375000D03*
%TD*%
D28*
%TO.C,R14*%
X232274765Y-72875235D03*
X233565235Y-71584765D03*
%TD*%
D30*
%TO.C,R13*%
X262890000Y-61172500D03*
X262890000Y-59347500D03*
%TD*%
D27*
%TO.C,R12*%
X262870000Y-55167500D03*
X262870000Y-56992500D03*
%TD*%
%TO.C,R11*%
X262880000Y-64560000D03*
X262880000Y-66385000D03*
%TD*%
D30*
%TO.C,R10*%
X262870000Y-52155000D03*
X262870000Y-50330000D03*
%TD*%
D27*
%TO.C,R9*%
X232000000Y-67595000D03*
X232000000Y-69420000D03*
%TD*%
D16*
%TO.C,R8*%
X233885000Y-55430000D03*
X232060000Y-55430000D03*
%TD*%
%TO.C,R7*%
X207785000Y-70100000D03*
X205960000Y-70100000D03*
%TD*%
%TO.C,R6*%
X207815000Y-55350000D03*
X205990000Y-55350000D03*
%TD*%
D27*
%TO.C,R5*%
X230470000Y-55510000D03*
X230470000Y-57335000D03*
%TD*%
%TO.C,R4*%
X204360000Y-69487500D03*
X204360000Y-71312500D03*
%TD*%
%TO.C,R3*%
X230430000Y-69527500D03*
X230430000Y-71352500D03*
%TD*%
%TO.C,R1*%
X204360000Y-55357500D03*
X204360000Y-57182500D03*
%TD*%
D22*
%TO.C,C1*%
X211447500Y-68130000D03*
X213172500Y-68130000D03*
%TD*%
D31*
%TO.C,J2*%
X257718000Y-72898000D03*
D32*
X257718000Y-78698000D03*
D33*
X262518000Y-75898000D03*
%TD*%
D34*
%TO.C,U1*%
X200914000Y-50038000D03*
D35*
X200914000Y-52578000D03*
X200914000Y-55118000D03*
X200914000Y-57658000D03*
X200914000Y-60198000D03*
%TD*%
D34*
%TO.C,U3*%
X227076000Y-64008000D03*
D35*
X227076000Y-66548000D03*
X227076000Y-69088000D03*
X227076000Y-71628000D03*
X227076000Y-74168000D03*
%TD*%
D34*
%TO.C,U4*%
X200914000Y-64008000D03*
D35*
X200914000Y-66548000D03*
X200914000Y-69088000D03*
X200914000Y-71628000D03*
X200914000Y-74168000D03*
%TD*%
D34*
%TO.C,U5*%
X227076000Y-50038000D03*
D35*
X227076000Y-52578000D03*
X227076000Y-55118000D03*
X227076000Y-57658000D03*
X227076000Y-60198000D03*
%TD*%
D34*
%TO.C,J1*%
X200924000Y-84333000D03*
D35*
X200924000Y-81793000D03*
X203464000Y-84333000D03*
X203464000Y-81793000D03*
X206004000Y-84333000D03*
X206004000Y-81793000D03*
X208544000Y-84333000D03*
X208544000Y-81793000D03*
%TD*%
D36*
%TO.C,U6*%
X252900000Y-50280000D03*
D37*
X252900000Y-52820000D03*
X252900000Y-55360000D03*
X252900000Y-57900000D03*
X252900000Y-60440000D03*
X252900000Y-62980000D03*
X252900000Y-65520000D03*
X252900000Y-68060000D03*
X260520000Y-68060000D03*
X260520000Y-65520000D03*
X260520000Y-62980000D03*
X260520000Y-60440000D03*
X260520000Y-57900000D03*
X260520000Y-55360000D03*
X260520000Y-52820000D03*
X260520000Y-50280000D03*
%TD*%
D38*
%TO.C,U10*%
X245812000Y-55793000D03*
X245312000Y-55793000D03*
X244812000Y-55793000D03*
X244312000Y-55793000D03*
X243812000Y-55793000D03*
X243312000Y-55793000D03*
X242812000Y-55793000D03*
X242312000Y-55793000D03*
X241812000Y-55793000D03*
X241312000Y-55793000D03*
X240812000Y-55793000D03*
X240312000Y-55793000D03*
X239812000Y-55793000D03*
X239312000Y-55793000D03*
X238812000Y-55793000D03*
X238312000Y-55793000D03*
D39*
X236387000Y-57718000D03*
X236387000Y-58218000D03*
X236387000Y-58718000D03*
X236387000Y-59218000D03*
X236387000Y-59718000D03*
X236387000Y-60218000D03*
X236387000Y-60718000D03*
X236387000Y-61218000D03*
X236387000Y-61718000D03*
X236387000Y-62218000D03*
X236387000Y-62718000D03*
X236387000Y-63218000D03*
X236387000Y-63718000D03*
X236387000Y-64218000D03*
X236387000Y-64718000D03*
X236387000Y-65218000D03*
D38*
X238312000Y-67143000D03*
X238812000Y-67143000D03*
X239312000Y-67143000D03*
X239812000Y-67143000D03*
X240312000Y-67143000D03*
X240812000Y-67143000D03*
X241312000Y-67143000D03*
X241812000Y-67143000D03*
X242312000Y-67143000D03*
X242812000Y-67143000D03*
X243312000Y-67143000D03*
X243812000Y-67143000D03*
X244312000Y-67143000D03*
X244812000Y-67143000D03*
X245312000Y-67143000D03*
X245812000Y-67143000D03*
D39*
X247737000Y-65218000D03*
X247737000Y-64718000D03*
X247737000Y-64218000D03*
X247737000Y-63718000D03*
X247737000Y-63218000D03*
X247737000Y-62718000D03*
X247737000Y-62218000D03*
X247737000Y-61718000D03*
X247737000Y-61218000D03*
X247737000Y-60718000D03*
X247737000Y-60218000D03*
X247737000Y-59718000D03*
X247737000Y-59218000D03*
X247737000Y-58718000D03*
X247737000Y-58218000D03*
X247737000Y-57718000D03*
%TD*%
D40*
%TO.C,U2*%
X211545000Y-66510000D03*
X211545000Y-65240000D03*
X211545000Y-63970000D03*
X211545000Y-62700000D03*
X211545000Y-61430000D03*
X211545000Y-60160000D03*
X211545000Y-58890000D03*
X206595000Y-58890000D03*
X206595000Y-60160000D03*
X206595000Y-61430000D03*
X206595000Y-62700000D03*
X206595000Y-63970000D03*
X206595000Y-65240000D03*
X206595000Y-66510000D03*
%TD*%
D41*
%TO.C,U9*%
X241662380Y-73834194D03*
X241202761Y-73374575D03*
X240743142Y-72914955D03*
X240283522Y-72455336D03*
X239823903Y-71995717D03*
X239364283Y-71536097D03*
X238904664Y-71076478D03*
X238445045Y-70616858D03*
X237985425Y-70157239D03*
X237525806Y-69697620D03*
X233477620Y-73745806D03*
X233937239Y-74205425D03*
X234396858Y-74665045D03*
X234856478Y-75124664D03*
X235316097Y-75584283D03*
X235775717Y-76043903D03*
X236235336Y-76503522D03*
X236694955Y-76963142D03*
X237154575Y-77422761D03*
X237614194Y-77882380D03*
%TD*%
D42*
%TO.C,U11*%
X245962500Y-72630000D03*
X245962500Y-73580000D03*
X245962500Y-74530000D03*
X248237500Y-74530000D03*
X248237500Y-72630000D03*
%TD*%
D27*
%TO.C,R2*%
X204460000Y-58837500D03*
X204460000Y-60662500D03*
%TD*%
D43*
%TO.C,F1*%
X251010000Y-77660000D03*
X245410000Y-77660000D03*
%TD*%
M02*
