M48
; DRILL file {KiCad (6.0.10-0)} date Sunday, January 29, 2023 at 01:48:37 PM
; FORMAT={-:-/ absolute / metric / decimal}
; #@! TF.CreationDate,2023-01-29T13:48:37-06:00
; #@! TF.GenerationSoftware,Kicad,Pcbnew,(6.0.10-0)
; #@! TF.FileFunction,Plated,1,4,PTH
FMAT,2
METRIC
; #@! TA.AperFunction,Plated,PTH,ViaDrill
T1C0.400
; #@! TA.AperFunction,Plated,PTH,ComponentDrill
T2C0.800
; #@! TA.AperFunction,Plated,PTH,ComponentDrill
T3C1.000
; #@! TA.AperFunction,Plated,PTH,ViaDrill
T4C1.200
; #@! TA.AperFunction,Plated,PTH,ComponentDrill
T5C1.400
; #@! TA.AperFunction,Plated,PTH,ViaDrill
T6C1.600
%
G90
G05
T1
X207.9Y-56.83
X208.17Y-53.78
X208.41Y-51.95
X208.41Y-61.73
X208.53Y-66.22
X208.74Y-76.42
X208.79Y-68.95
X209.46Y-70.09
X209.57Y-77.09
X210.02Y-74.96
X210.89Y-79.28
X211.04Y-71.97
X211.265Y-57.655
X211.66Y-51.7
X213.52Y-60.9
X213.68Y-66.69
X213.69Y-63.33
X213.98Y-52.66
X214.09Y-58.39
X215.06Y-73.19
X215.33Y-54.79
X216.45Y-81.19
X217.71Y-82.73
X219.48Y-57.79
X220.07Y-75.23
X220.31Y-56.87
X221.22Y-81.94
X221.23Y-75.33
X221.61Y-64.86
X222.67Y-55.92
X224.35Y-63.28
X224.7Y-61.9
X225.29Y-69.9
X228.9Y-69.86
X229.91Y-73.28
X230.37Y-67.16
X230.42Y-62.95
X231.47Y-73.69
X231.58Y-63.06
X231.65Y-64.25
X231.79Y-71.14
X233.225Y-64.955
X233.7Y-67.29
X233.89Y-60.34
X234.18Y-49.69
X234.22Y-51.3
X235.38Y-55.54
X236.77Y-74.87
X237.45Y-67.16
X237.73Y-58.05
X237.77Y-64.18
X238.01Y-59.16
X238.06Y-75.0
X238.242Y-61.718
X238.551Y-50.169
X238.68Y-53.74
X238.71Y-62.66
X238.84Y-80.08
X238.96Y-78.46
X239.65Y-63.32
X240.02Y-48.88
X240.34Y-70.38
X240.47Y-65.56
X240.52Y-57.35
X240.565Y-74.975
X241.56Y-71.3
X241.8Y-65.54
X242.44Y-57.32
X243.56Y-53.65
X244.11Y-71.4
X244.72Y-48.8
X245.312Y-65.342
X246.045Y-54.235
X246.365Y-58.365
X247.14Y-73.6
X248.3Y-70.76
X249.48Y-52.43
X249.53Y-48.67
X249.77Y-63.43
X250.25Y-49.4
X250.84Y-56.64
X250.87Y-69.74
X253.01Y-74.5
X254.77Y-66.74
X255.87Y-68.21
X256.97Y-62.36
X257.4Y-60.47
X257.89Y-65.12
X261.293Y-80.637
X262.19Y-69.35
X262.87Y-53.2
X262.87Y-54.01
X262.88Y-62.31
X262.88Y-63.15
T2
X252.9Y-50.28
X252.9Y-52.82
X252.9Y-55.36
X252.9Y-57.9
X252.9Y-60.44
X252.9Y-62.98
X252.9Y-65.52
X252.9Y-68.06
X260.52Y-50.28
X260.52Y-52.82
X260.52Y-55.36
X260.52Y-57.9
X260.52Y-60.44
X260.52Y-62.98
X260.52Y-65.52
X260.52Y-68.06
T3
X200.914Y-50.038
X200.914Y-52.578
X200.914Y-55.118
X200.914Y-57.658
X200.914Y-60.198
X200.914Y-64.008
X200.914Y-66.548
X200.914Y-69.088
X200.914Y-71.628
X200.914Y-74.168
X200.924Y-81.793
X200.924Y-84.333
X203.464Y-81.793
X203.464Y-84.333
X206.004Y-81.793
X206.004Y-84.333
X208.544Y-81.793
X208.544Y-84.333
X227.076Y-50.038
X227.076Y-52.578
X227.076Y-55.118
X227.076Y-57.658
X227.076Y-60.198
X227.076Y-64.008
X227.076Y-66.548
X227.076Y-69.088
X227.076Y-71.628
X227.076Y-74.168
T4
X249.47Y-71.39
X252.72Y-71.47
T5
X212.452Y-83.058
X215.952Y-83.058
X219.452Y-83.058
X222.952Y-83.058
X226.452Y-83.058
X229.952Y-83.058
X233.452Y-83.058
X236.952Y-83.058
X240.452Y-83.058
X243.952Y-83.058
X247.452Y-83.058
X250.952Y-83.058
T6
X241.66Y-76.64
X241.66Y-78.76
T2
X256.418Y-72.898G85X259.018Y-72.898
G05
X256.618Y-78.698G85X258.818Y-78.698
G05
X262.518Y-76.998G85X262.518Y-74.798
G05
T0
M30
