%TF.GenerationSoftware,KiCad,Pcbnew,(6.0.10-0)*%
%TF.CreationDate,2023-04-03T20:32:58-05:00*%
%TF.ProjectId,spudglo_driver_v4p2,73707564-676c-46f5-9f64-72697665725f,rev?*%
%TF.SameCoordinates,Original*%
%TF.FileFunction,Drillmap*%
%TF.FilePolarity,Positive*%
%FSLAX45Y45*%
G04 Gerber Fmt 4.5, Leading zero omitted, Abs format (unit mm)*
G04 Created by KiCad (PCBNEW (6.0.10-0)) date 2023-04-03 20:32:58*
%MOMM*%
%LPD*%
G01*
G04 APERTURE LIST*
%ADD10C,0.050000*%
%ADD11C,0.200000*%
%ADD12C,0.040000*%
%ADD13C,0.060000*%
%ADD14C,0.080000*%
%ADD15C,0.100000*%
%ADD16C,0.120000*%
%ADD17C,0.140000*%
%ADD18C,0.160000*%
G04 APERTURE END LIST*
D10*
X19517638Y-4798872D02*
X19517717Y-8702013D01*
X26488000Y-8750000D02*
X19568517Y-8751013D01*
X19567638Y-4748072D02*
X26487557Y-4748182D01*
X26540564Y-4802982D02*
G75*
G03*
X26487557Y-4748182I-55347J-500D01*
G01*
X19567638Y-4748076D02*
G75*
G03*
X19517638Y-4798872I0J-50006D01*
G01*
X26540557Y-4802982D02*
X26541000Y-8697000D01*
X26488000Y-8750000D02*
G75*
G03*
X26541000Y-8697000I-2350J55350D01*
G01*
X19517721Y-8702012D02*
G75*
G03*
X19568517Y-8751013I50006J1010D01*
G01*
D11*
D12*
X20459000Y-7198000D02*
X20499000Y-7238000D01*
X20499000Y-7198000D02*
X20459000Y-7238000D01*
X20521000Y-6130000D02*
X20561000Y-6170000D01*
X20561000Y-6130000D02*
X20521000Y-6170000D01*
X20524000Y-5994000D02*
X20564000Y-6034000D01*
X20564000Y-5994000D02*
X20524000Y-6034000D01*
X20526000Y-6415000D02*
X20566000Y-6455000D01*
X20566000Y-6415000D02*
X20526000Y-6455000D01*
X20669750Y-5025750D02*
X20709750Y-5065750D01*
X20709750Y-5025750D02*
X20669750Y-5065750D01*
X20869000Y-7609000D02*
X20909000Y-7649000D01*
X20909000Y-7609000D02*
X20869000Y-7649000D01*
X20916000Y-8115000D02*
X20956000Y-8155000D01*
X20956000Y-8115000D02*
X20916000Y-8155000D01*
X20926000Y-6549000D02*
X20966000Y-6589000D01*
X20966000Y-6549000D02*
X20926000Y-6589000D01*
X20932000Y-5336792D02*
X20972000Y-5376792D01*
X20972000Y-5336792D02*
X20932000Y-5376792D01*
X21037000Y-5352000D02*
X21077000Y-5392000D01*
X21077000Y-5352000D02*
X21037000Y-5392000D01*
X21050000Y-7086000D02*
X21090000Y-7126000D01*
X21090000Y-7086000D02*
X21050000Y-7126000D01*
X21340000Y-5278000D02*
X21380000Y-5318000D01*
X21380000Y-5278000D02*
X21340000Y-5318000D01*
X21605000Y-8110000D02*
X21645000Y-8150000D01*
X21645000Y-8110000D02*
X21605000Y-8150000D01*
X21933000Y-6874000D02*
X21973000Y-6914000D01*
X21973000Y-6874000D02*
X21933000Y-6914000D01*
X22018000Y-7361000D02*
X22058000Y-7401000D01*
X22058000Y-7361000D02*
X22018000Y-7401000D01*
X22042000Y-6128450D02*
X22082000Y-6168450D01*
X22082000Y-6128450D02*
X22042000Y-6168450D01*
X22105538Y-4964462D02*
X22145538Y-5004462D01*
X22145538Y-4964462D02*
X22105538Y-5004462D01*
X22127000Y-6225000D02*
X22167000Y-6265000D01*
X22167000Y-6225000D02*
X22127000Y-6265000D01*
X22202000Y-6989000D02*
X22242000Y-7029000D01*
X22242000Y-6989000D02*
X22202000Y-7029000D01*
X22303000Y-6454000D02*
X22343000Y-6494000D01*
X22343000Y-6454000D02*
X22303000Y-6494000D01*
X22328000Y-5041000D02*
X22368000Y-5081000D01*
X22368000Y-5041000D02*
X22328000Y-5081000D01*
X22356000Y-5988000D02*
X22396000Y-6028000D01*
X22396000Y-5988000D02*
X22356000Y-6028000D01*
X22496813Y-8156203D02*
X22536813Y-8196203D01*
X22536813Y-8156203D02*
X22496813Y-8196203D01*
X22500583Y-6420633D02*
X22540583Y-6460633D01*
X22540583Y-6420633D02*
X22500583Y-6460633D01*
X22873000Y-6400000D02*
X22913000Y-6440000D01*
X22913000Y-6400000D02*
X22873000Y-6440000D01*
X22981000Y-6253000D02*
X23021000Y-6293000D01*
X23021000Y-6253000D02*
X22981000Y-6293000D01*
X22986000Y-5205000D02*
X23026000Y-5245000D01*
X23026000Y-5205000D02*
X22986000Y-5245000D01*
X23008000Y-6431000D02*
X23048000Y-6471000D01*
X23048000Y-6431000D02*
X23008000Y-6471000D01*
X23049000Y-6602000D02*
X23089000Y-6642000D01*
X23089000Y-6602000D02*
X23049000Y-6642000D01*
X23094000Y-5979000D02*
X23134000Y-6019000D01*
X23134000Y-5979000D02*
X23094000Y-6019000D01*
X23104000Y-5358000D02*
X23144000Y-5398000D01*
X23144000Y-5358000D02*
X23104000Y-5398000D01*
X23127000Y-7349000D02*
X23167000Y-7389000D01*
X23167000Y-7349000D02*
X23127000Y-7389000D01*
X23140000Y-7457000D02*
X23180000Y-7497000D01*
X23180000Y-7457000D02*
X23140000Y-7497000D01*
X23302500Y-6475500D02*
X23342500Y-6515500D01*
X23342500Y-6475500D02*
X23302500Y-6515500D01*
X23305303Y-5001707D02*
X23345303Y-5041707D01*
X23345303Y-5001707D02*
X23305303Y-5041707D01*
X23340000Y-6741000D02*
X23380000Y-6781000D01*
X23380000Y-6741000D02*
X23340000Y-6781000D01*
X23402000Y-5110000D02*
X23442000Y-5150000D01*
X23442000Y-5110000D02*
X23402000Y-5150000D01*
X23496966Y-7094597D02*
X23536966Y-7134597D01*
X23536966Y-7094597D02*
X23496966Y-7134597D01*
X23599597Y-5394550D02*
X23639597Y-5434550D01*
X23639597Y-5394550D02*
X23599597Y-5434550D01*
X23654000Y-7292000D02*
X23694000Y-7332000D01*
X23694000Y-7292000D02*
X23654000Y-7332000D01*
X23657000Y-7467000D02*
X23697000Y-7507000D01*
X23697000Y-7467000D02*
X23657000Y-7507000D01*
X23711000Y-5544000D02*
X23751000Y-5584000D01*
X23751000Y-5544000D02*
X23711000Y-5584000D01*
X23757000Y-6398000D02*
X23797000Y-6438000D01*
X23797000Y-6398000D02*
X23757000Y-6438000D01*
X23758000Y-7882000D02*
X23798000Y-7922000D01*
X23798000Y-7882000D02*
X23758000Y-7922000D01*
X23759000Y-5850000D02*
X23799000Y-5890000D01*
X23799000Y-5850000D02*
X23759000Y-5890000D01*
X23786000Y-7480000D02*
X23826000Y-7520000D01*
X23826000Y-7480000D02*
X23786000Y-7520000D01*
X23800000Y-8185000D02*
X23840000Y-8225000D01*
X23840000Y-8185000D02*
X23800000Y-8225000D01*
X23805000Y-6546000D02*
X23845000Y-6586000D01*
X23845000Y-6546000D02*
X23805000Y-6586000D01*
X23819000Y-6290000D02*
X23859000Y-6330000D01*
X23859000Y-6290000D02*
X23819000Y-6330000D01*
X23824000Y-5963000D02*
X23864000Y-6003000D01*
X23864000Y-5963000D02*
X23824000Y-6003000D01*
X23827000Y-5048050D02*
X23867000Y-5088050D01*
X23867000Y-5048050D02*
X23827000Y-5088050D01*
X23850574Y-5316450D02*
X23890574Y-5356450D01*
X23890574Y-5316450D02*
X23850574Y-5356450D01*
X23867500Y-5723500D02*
X23907500Y-5763500D01*
X23907500Y-5723500D02*
X23867500Y-5763500D01*
X23878000Y-6375000D02*
X23918000Y-6415000D01*
X23918000Y-6375000D02*
X23878000Y-6415000D01*
X23928000Y-6871000D02*
X23968000Y-6911000D01*
X23968000Y-6871000D02*
X23928000Y-6911000D01*
X23933000Y-6541000D02*
X23973000Y-6581000D01*
X23973000Y-6541000D02*
X23933000Y-6581000D01*
X23935000Y-6010000D02*
X23975000Y-6050000D01*
X23975000Y-6010000D02*
X23935000Y-6050000D01*
X23954326Y-4899674D02*
X23994326Y-4939674D01*
X23994326Y-4899674D02*
X23954326Y-4939674D01*
X23978000Y-5775000D02*
X24018000Y-5815000D01*
X24018000Y-5775000D02*
X23978000Y-5815000D01*
X24015000Y-7016000D02*
X24055000Y-7056000D01*
X24055000Y-7016000D02*
X24015000Y-7056000D01*
X24062815Y-5881550D02*
X24102815Y-5921550D01*
X24102815Y-5881550D02*
X24062815Y-5921550D01*
X24081000Y-5738000D02*
X24121000Y-5778000D01*
X24121000Y-5738000D02*
X24081000Y-5778000D01*
X24087486Y-6531486D02*
X24127486Y-6571486D01*
X24127486Y-6531486D02*
X24087486Y-6571486D01*
X24145000Y-5395000D02*
X24185000Y-5435000D01*
X24185000Y-5395000D02*
X24145000Y-5435000D01*
X24181000Y-7100000D02*
X24221000Y-7140000D01*
X24221000Y-7100000D02*
X24181000Y-7140000D01*
X24195000Y-6198000D02*
X24235000Y-6238000D01*
X24235000Y-6198000D02*
X24195000Y-6238000D01*
X24216265Y-6525450D02*
X24256265Y-6565450D01*
X24256265Y-6525450D02*
X24216265Y-6565450D01*
X24248000Y-7262000D02*
X24288000Y-7302000D01*
X24288000Y-7262000D02*
X24248000Y-7302000D01*
X24285000Y-5701000D02*
X24325000Y-5741000D01*
X24325000Y-5701000D02*
X24285000Y-5741000D01*
X24336000Y-5345000D02*
X24376000Y-5385000D01*
X24376000Y-5345000D02*
X24336000Y-5385000D01*
X24361000Y-6054000D02*
X24401000Y-6094000D01*
X24401000Y-6054000D02*
X24361000Y-6094000D01*
X24373068Y-5781500D02*
X24413068Y-5821500D01*
X24413068Y-5781500D02*
X24373068Y-5821500D01*
X24425500Y-7118500D02*
X24465500Y-7158500D01*
X24465500Y-7118500D02*
X24425500Y-7158500D01*
X24430500Y-8105500D02*
X24470500Y-8145500D01*
X24470500Y-8105500D02*
X24430500Y-8145500D01*
X24442000Y-5990000D02*
X24482000Y-6030000D01*
X24482000Y-5990000D02*
X24442000Y-6030000D01*
X24496000Y-6536000D02*
X24536000Y-6576000D01*
X24536000Y-6536000D02*
X24496000Y-6576000D01*
X24499279Y-5860279D02*
X24539279Y-5900279D01*
X24539279Y-5860279D02*
X24499279Y-5900279D01*
X24524000Y-8033000D02*
X24564000Y-8073000D01*
X24564000Y-8033000D02*
X24524000Y-8073000D01*
X24537465Y-4920050D02*
X24577465Y-4960050D01*
X24577465Y-4920050D02*
X24537465Y-4960050D01*
X24542000Y-6348000D02*
X24582000Y-6388000D01*
X24582000Y-6348000D02*
X24542000Y-6388000D01*
X24584500Y-5403500D02*
X24624500Y-5443500D01*
X24624500Y-5403500D02*
X24584500Y-5443500D01*
X24614000Y-4920050D02*
X24654000Y-4960050D01*
X24654000Y-4920050D02*
X24614000Y-4960050D01*
X24694000Y-7340000D02*
X24734000Y-7380000D01*
X24734000Y-7340000D02*
X24694000Y-7380000D01*
X24736000Y-7922000D02*
X24776000Y-7962000D01*
X24776000Y-7922000D02*
X24736000Y-7962000D01*
X24748042Y-6698690D02*
X24788042Y-6738690D01*
X24788042Y-6698690D02*
X24748042Y-6738690D01*
X24794564Y-6950973D02*
X24834564Y-6990973D01*
X24834564Y-6950973D02*
X24794564Y-6990973D01*
X24810000Y-7056000D02*
X24850000Y-7096000D01*
X24850000Y-7056000D02*
X24810000Y-7096000D01*
X24843000Y-7733000D02*
X24883000Y-7773000D01*
X24883000Y-7733000D02*
X24843000Y-7773000D01*
X24919000Y-6739000D02*
X24959000Y-6779000D01*
X24959000Y-6739000D02*
X24919000Y-6779000D01*
X24928000Y-5223000D02*
X24968000Y-5263000D01*
X24968000Y-5223000D02*
X24928000Y-5263000D01*
X24957000Y-6323000D02*
X24997000Y-6363000D01*
X24997000Y-6323000D02*
X24957000Y-6363000D01*
X24993696Y-5192950D02*
X25033696Y-5232950D01*
X25033696Y-5192950D02*
X24993696Y-5232950D01*
X25000537Y-6884247D02*
X25040537Y-6924247D01*
X25040537Y-6884247D02*
X25000537Y-6924247D01*
X25052577Y-5917858D02*
X25092577Y-5957858D01*
X25092577Y-5917858D02*
X25052577Y-5957858D01*
X25063000Y-5779000D02*
X25103000Y-5819000D01*
X25103000Y-5779000D02*
X25063000Y-5819000D01*
X25064000Y-5644000D02*
X25104000Y-5684000D01*
X25104000Y-5644000D02*
X25064000Y-5684000D01*
X25077000Y-6343000D02*
X25117000Y-6383000D01*
X25117000Y-6343000D02*
X25077000Y-6383000D01*
X25151583Y-5904150D02*
X25191583Y-5944150D01*
X25191583Y-5904150D02*
X25151583Y-5944150D01*
X25163000Y-7486050D02*
X25203000Y-7526050D01*
X25203000Y-7486050D02*
X25163000Y-7526050D01*
X25197000Y-6478000D02*
X25237000Y-6518000D01*
X25237000Y-6478000D02*
X25197000Y-6518000D01*
X25280000Y-6557000D02*
X25320000Y-6597000D01*
X25320000Y-6557000D02*
X25280000Y-6597000D01*
X25282000Y-6475000D02*
X25322000Y-6515000D01*
X25322000Y-6475000D02*
X25282000Y-6515000D01*
X25286000Y-5891000D02*
X25326000Y-5931000D01*
X25326000Y-5891000D02*
X25286000Y-5931000D01*
X25527000Y-5748000D02*
X25567000Y-5788000D01*
X25567000Y-5748000D02*
X25527000Y-5788000D01*
X25539000Y-6536000D02*
X25579000Y-6576000D01*
X25579000Y-6536000D02*
X25539000Y-6576000D01*
X25664000Y-8155000D02*
X25704000Y-8195000D01*
X25704000Y-8155000D02*
X25664000Y-8195000D01*
X25697000Y-6245000D02*
X25737000Y-6285000D01*
X25737000Y-6245000D02*
X25697000Y-6285000D01*
X25809000Y-6344000D02*
X25849000Y-6384000D01*
X25849000Y-6344000D02*
X25809000Y-6384000D01*
X25813000Y-7186000D02*
X25853000Y-7226000D01*
X25853000Y-7186000D02*
X25813000Y-7226000D01*
X25821500Y-5878750D02*
X25861500Y-5918750D01*
X25861500Y-5878750D02*
X25821500Y-5918750D01*
X25913750Y-6019500D02*
X25953750Y-6059500D01*
X25953750Y-6019500D02*
X25913750Y-6059500D01*
X25994000Y-8521000D02*
X26034000Y-8561000D01*
X26034000Y-8521000D02*
X25994000Y-8561000D01*
X25994750Y-6019500D02*
X26034750Y-6059500D01*
X26034750Y-6019500D02*
X25994750Y-6059500D01*
X26089000Y-7877000D02*
X26129000Y-7917000D01*
X26129000Y-7877000D02*
X26089000Y-7917000D01*
X26095000Y-5866000D02*
X26135000Y-5906000D01*
X26135000Y-5866000D02*
X26095000Y-5906000D01*
X26110000Y-6737000D02*
X26150000Y-6777000D01*
X26150000Y-6737000D02*
X26110000Y-6777000D01*
X26140500Y-7955500D02*
X26180500Y-7995500D01*
X26180500Y-7955500D02*
X26140500Y-7995500D01*
X26147000Y-6421000D02*
X26187000Y-6461000D01*
X26187000Y-6421000D02*
X26147000Y-6461000D01*
X26164500Y-7801500D02*
X26204500Y-7841500D01*
X26204500Y-7801500D02*
X26164500Y-7841500D01*
X26283000Y-7026000D02*
X26323000Y-7066000D01*
X26323000Y-7026000D02*
X26283000Y-7066000D01*
X26335000Y-6445000D02*
X26375000Y-6485000D01*
X26375000Y-6445000D02*
X26335000Y-6485000D01*
D13*
X26038000Y-6355000D02*
G75*
G03*
X26038000Y-6355000I-30000J0D01*
G01*
D11*
X25953000Y-6385000D02*
X26063000Y-6385000D01*
X25953000Y-6325000D02*
X26063000Y-6325000D01*
X26063000Y-6385000D02*
G75*
G03*
X26063000Y-6325000I0J30000D01*
G01*
X25953000Y-6325000D02*
G75*
G03*
X25953000Y-6385000I0J-30000D01*
G01*
D13*
X26038000Y-7219000D02*
G75*
G03*
X26038000Y-7219000I-30000J0D01*
G01*
D11*
X25953000Y-7249000D02*
X26063000Y-7249000D01*
X25953000Y-7189000D02*
X26063000Y-7189000D01*
X26063000Y-7249000D02*
G75*
G03*
X26063000Y-7189000I0J30000D01*
G01*
X25953000Y-7189000D02*
G75*
G03*
X25953000Y-7249000I0J-30000D01*
G01*
D13*
X26456000Y-6355000D02*
G75*
G03*
X26456000Y-6355000I-30000J0D01*
G01*
D11*
X26396000Y-6385000D02*
X26456000Y-6385000D01*
X26396000Y-6325000D02*
X26456000Y-6325000D01*
X26456000Y-6385000D02*
G75*
G03*
X26456000Y-6325000I0J30000D01*
G01*
X26396000Y-6325000D02*
G75*
G03*
X26396000Y-6385000I0J-30000D01*
G01*
D13*
X26456000Y-7219000D02*
G75*
G03*
X26456000Y-7219000I-30000J0D01*
G01*
D11*
X26396000Y-7249000D02*
X26456000Y-7249000D01*
X26396000Y-7189000D02*
X26456000Y-7189000D01*
X26456000Y-7249000D02*
G75*
G03*
X26456000Y-7189000I0J30000D01*
G01*
X26396000Y-7189000D02*
G75*
G03*
X26396000Y-7249000I0J-30000D01*
G01*
D14*
X20768000Y-6001000D02*
X20768000Y-6081000D01*
X20728000Y-6041000D02*
X20808000Y-6041000D01*
X21320000Y-6039000D02*
X21320000Y-6119000D01*
X21280000Y-6079000D02*
X21360000Y-6079000D01*
X21804500Y-6060500D02*
X21804500Y-6140500D01*
X21764500Y-6100500D02*
X21844500Y-6100500D01*
X22388000Y-5620000D02*
X22388000Y-5700000D01*
X22348000Y-5660000D02*
X22428000Y-5660000D01*
X25921284Y-7523284D02*
X25921284Y-7466715D01*
X25864715Y-7466715D01*
X25864715Y-7523284D01*
X25921284Y-7523284D01*
D11*
X25763000Y-7535000D02*
X26023000Y-7535000D01*
X25763000Y-7455000D02*
X26023000Y-7455000D01*
X26023000Y-7535000D02*
G75*
G03*
X26023000Y-7455000I0J40000D01*
G01*
X25763000Y-7455000D02*
G75*
G03*
X25763000Y-7535000I0J-40000D01*
G01*
D14*
X25921284Y-8103284D02*
X25921284Y-8046715D01*
X25864715Y-8046715D01*
X25864715Y-8103284D01*
X25921284Y-8103284D01*
D11*
X25783000Y-8115000D02*
X26003000Y-8115000D01*
X25783000Y-8035000D02*
X26003000Y-8035000D01*
X26003000Y-8115000D02*
G75*
G03*
X26003000Y-8035000I0J40000D01*
G01*
X25783000Y-8035000D02*
G75*
G03*
X25783000Y-8115000I0J-40000D01*
G01*
D14*
X26401284Y-7823284D02*
X26401284Y-7766715D01*
X26344715Y-7766715D01*
X26344715Y-7823284D01*
X26401284Y-7823284D01*
D11*
X26413000Y-7905000D02*
X26413000Y-7685000D01*
X26333000Y-7905000D02*
X26333000Y-7685000D01*
X26413000Y-7685000D02*
G75*
G03*
X26333000Y-7685000I-40000J0D01*
G01*
X26333000Y-7905000D02*
G75*
G03*
X26413000Y-7905000I40000J0D01*
G01*
D15*
X19716000Y-6009500D02*
X19766000Y-5959500D01*
X19716000Y-5909500D01*
X19666000Y-5959500D01*
X19716000Y-6009500D01*
X19716000Y-6263500D02*
X19766000Y-6213500D01*
X19716000Y-6163500D01*
X19666000Y-6213500D01*
X19716000Y-6263500D01*
X19716000Y-6517500D02*
X19766000Y-6467500D01*
X19716000Y-6417500D01*
X19666000Y-6467500D01*
X19716000Y-6517500D01*
X19716000Y-6771500D02*
X19766000Y-6721500D01*
X19716000Y-6671500D01*
X19666000Y-6721500D01*
X19716000Y-6771500D01*
X19716000Y-7025500D02*
X19766000Y-6975500D01*
X19716000Y-6925500D01*
X19666000Y-6975500D01*
X19716000Y-7025500D01*
X19716000Y-7279500D02*
X19766000Y-7229500D01*
X19716000Y-7179500D01*
X19666000Y-7229500D01*
X19716000Y-7279500D01*
X19716000Y-7533500D02*
X19766000Y-7483500D01*
X19716000Y-7433500D01*
X19666000Y-7483500D01*
X19716000Y-7533500D01*
X19716000Y-7787500D02*
X19766000Y-7737500D01*
X19716000Y-7687500D01*
X19666000Y-7737500D01*
X19716000Y-7787500D01*
X19740000Y-8206000D02*
X19790000Y-8156000D01*
X19740000Y-8106000D01*
X19690000Y-8156000D01*
X19740000Y-8206000D01*
X19740000Y-8460000D02*
X19790000Y-8410000D01*
X19740000Y-8360000D01*
X19690000Y-8410000D01*
X19740000Y-8460000D01*
X19994000Y-8206000D02*
X20044000Y-8156000D01*
X19994000Y-8106000D01*
X19944000Y-8156000D01*
X19994000Y-8206000D01*
X19994000Y-8460000D02*
X20044000Y-8410000D01*
X19994000Y-8360000D01*
X19944000Y-8410000D01*
X19994000Y-8460000D01*
X20091400Y-5053800D02*
X20141400Y-5003800D01*
X20091400Y-4953800D01*
X20041400Y-5003800D01*
X20091400Y-5053800D01*
X20091400Y-5307800D02*
X20141400Y-5257800D01*
X20091400Y-5207800D01*
X20041400Y-5257800D01*
X20091400Y-5307800D01*
X20091400Y-5561800D02*
X20141400Y-5511800D01*
X20091400Y-5461800D01*
X20041400Y-5511800D01*
X20091400Y-5561800D01*
X20091400Y-5815800D02*
X20141400Y-5765800D01*
X20091400Y-5715800D01*
X20041400Y-5765800D01*
X20091400Y-5815800D01*
X20091400Y-6069800D02*
X20141400Y-6019800D01*
X20091400Y-5969800D01*
X20041400Y-6019800D01*
X20091400Y-6069800D01*
X20091400Y-6450800D02*
X20141400Y-6400800D01*
X20091400Y-6350800D01*
X20041400Y-6400800D01*
X20091400Y-6450800D01*
X20091400Y-6704800D02*
X20141400Y-6654800D01*
X20091400Y-6604800D01*
X20041400Y-6654800D01*
X20091400Y-6704800D01*
X20091400Y-6958800D02*
X20141400Y-6908800D01*
X20091400Y-6858800D01*
X20041400Y-6908800D01*
X20091400Y-6958800D01*
X20091400Y-7212800D02*
X20141400Y-7162800D01*
X20091400Y-7112800D01*
X20041400Y-7162800D01*
X20091400Y-7212800D01*
X20091400Y-7466800D02*
X20141400Y-7416800D01*
X20091400Y-7366800D01*
X20041400Y-7416800D01*
X20091400Y-7466800D01*
X20248000Y-8206000D02*
X20298000Y-8156000D01*
X20248000Y-8106000D01*
X20198000Y-8156000D01*
X20248000Y-8206000D01*
X20248000Y-8460000D02*
X20298000Y-8410000D01*
X20248000Y-8360000D01*
X20198000Y-8410000D01*
X20248000Y-8460000D01*
X20502000Y-8206000D02*
X20552000Y-8156000D01*
X20502000Y-8106000D01*
X20452000Y-8156000D01*
X20502000Y-8206000D01*
X20502000Y-8460000D02*
X20552000Y-8410000D01*
X20502000Y-8360000D01*
X20452000Y-8410000D01*
X20502000Y-8460000D01*
X22707600Y-5053800D02*
X22757600Y-5003800D01*
X22707600Y-4953800D01*
X22657600Y-5003800D01*
X22707600Y-5053800D01*
X22707600Y-5307800D02*
X22757600Y-5257800D01*
X22707600Y-5207800D01*
X22657600Y-5257800D01*
X22707600Y-5307800D01*
X22707600Y-5561800D02*
X22757600Y-5511800D01*
X22707600Y-5461800D01*
X22657600Y-5511800D01*
X22707600Y-5561800D01*
X22707600Y-5815800D02*
X22757600Y-5765800D01*
X22707600Y-5715800D01*
X22657600Y-5765800D01*
X22707600Y-5815800D01*
X22707600Y-6069800D02*
X22757600Y-6019800D01*
X22707600Y-5969800D01*
X22657600Y-6019800D01*
X22707600Y-6069800D01*
X22707600Y-6450800D02*
X22757600Y-6400800D01*
X22707600Y-6350800D01*
X22657600Y-6400800D01*
X22707600Y-6450800D01*
X22707600Y-6704800D02*
X22757600Y-6654800D01*
X22707600Y-6604800D01*
X22657600Y-6654800D01*
X22707600Y-6704800D01*
X22707600Y-6958800D02*
X22757600Y-6908800D01*
X22707600Y-6858800D01*
X22657600Y-6908800D01*
X22707600Y-6958800D01*
X22707600Y-7212800D02*
X22757600Y-7162800D01*
X22707600Y-7112800D01*
X22657600Y-7162800D01*
X22707600Y-7212800D01*
X22707600Y-7466800D02*
X22757600Y-7416800D01*
X22707600Y-7366800D01*
X22657600Y-7416800D01*
X22707600Y-7466800D01*
X25596000Y-6960000D02*
X25646000Y-6910000D01*
X25596000Y-6860000D01*
X25546000Y-6910000D01*
X25596000Y-6960000D01*
X25596000Y-7214000D02*
X25646000Y-7164000D01*
X25596000Y-7114000D01*
X25546000Y-7164000D01*
X25596000Y-7214000D01*
D16*
X20972000Y-6159000D02*
X21092000Y-6279000D01*
X21092000Y-6159000D02*
X20972000Y-6279000D01*
X21092000Y-6219000D02*
G75*
G03*
X21092000Y-6219000I-60000J0D01*
G01*
X24887000Y-7079000D02*
X25007000Y-7199000D01*
X25007000Y-7079000D02*
X24887000Y-7199000D01*
X25007000Y-7139000D02*
G75*
G03*
X25007000Y-7139000I-60000J0D01*
G01*
X25182000Y-7099000D02*
X25302000Y-7219000D01*
X25302000Y-7099000D02*
X25182000Y-7219000D01*
X25302000Y-7159000D02*
G75*
G03*
X25302000Y-7159000I-60000J0D01*
G01*
D17*
X21143000Y-8234000D02*
X21283000Y-8374000D01*
X21283000Y-8234000D02*
X21143000Y-8374000D01*
X21213000Y-8234000D02*
X21213000Y-8374000D01*
X21143000Y-8304000D02*
X21283000Y-8304000D01*
X21493000Y-8234000D02*
X21633000Y-8374000D01*
X21633000Y-8234000D02*
X21493000Y-8374000D01*
X21563000Y-8234000D02*
X21563000Y-8374000D01*
X21493000Y-8304000D02*
X21633000Y-8304000D01*
X21843000Y-8234000D02*
X21983000Y-8374000D01*
X21983000Y-8234000D02*
X21843000Y-8374000D01*
X21913000Y-8234000D02*
X21913000Y-8374000D01*
X21843000Y-8304000D02*
X21983000Y-8304000D01*
X22193000Y-8234000D02*
X22333000Y-8374000D01*
X22333000Y-8234000D02*
X22193000Y-8374000D01*
X22263000Y-8234000D02*
X22263000Y-8374000D01*
X22193000Y-8304000D02*
X22333000Y-8304000D01*
X22543000Y-8234000D02*
X22683000Y-8374000D01*
X22683000Y-8234000D02*
X22543000Y-8374000D01*
X22613000Y-8234000D02*
X22613000Y-8374000D01*
X22543000Y-8304000D02*
X22683000Y-8304000D01*
X22893000Y-8234000D02*
X23033000Y-8374000D01*
X23033000Y-8234000D02*
X22893000Y-8374000D01*
X22963000Y-8234000D02*
X22963000Y-8374000D01*
X22893000Y-8304000D02*
X23033000Y-8304000D01*
X23243000Y-8234000D02*
X23383000Y-8374000D01*
X23383000Y-8234000D02*
X23243000Y-8374000D01*
X23313000Y-8234000D02*
X23313000Y-8374000D01*
X23243000Y-8304000D02*
X23383000Y-8304000D01*
X23593000Y-8234000D02*
X23733000Y-8374000D01*
X23733000Y-8234000D02*
X23593000Y-8374000D01*
X23663000Y-8234000D02*
X23663000Y-8374000D01*
X23593000Y-8304000D02*
X23733000Y-8304000D01*
X23943000Y-8234000D02*
X24083000Y-8374000D01*
X24083000Y-8234000D02*
X23943000Y-8374000D01*
X24013000Y-8234000D02*
X24013000Y-8374000D01*
X23943000Y-8304000D02*
X24083000Y-8304000D01*
X24293000Y-8234000D02*
X24433000Y-8374000D01*
X24433000Y-8234000D02*
X24293000Y-8374000D01*
X24363000Y-8234000D02*
X24363000Y-8374000D01*
X24293000Y-8304000D02*
X24433000Y-8304000D01*
X24643000Y-8234000D02*
X24783000Y-8374000D01*
X24783000Y-8234000D02*
X24643000Y-8374000D01*
X24713000Y-8234000D02*
X24713000Y-8374000D01*
X24643000Y-8304000D02*
X24783000Y-8304000D01*
X24993000Y-8234000D02*
X25133000Y-8374000D01*
X25133000Y-8234000D02*
X24993000Y-8374000D01*
X25063000Y-8234000D02*
X25063000Y-8374000D01*
X24993000Y-8304000D02*
X25133000Y-8304000D01*
D18*
X24086000Y-7584000D02*
X24246000Y-7744000D01*
X24246000Y-7584000D02*
X24086000Y-7744000D01*
X24222569Y-7720569D02*
X24222569Y-7607431D01*
X24109431Y-7607431D01*
X24109431Y-7720569D01*
X24222569Y-7720569D01*
X24086000Y-7796000D02*
X24246000Y-7956000D01*
X24246000Y-7796000D02*
X24086000Y-7956000D01*
X24222569Y-7932569D02*
X24222569Y-7819431D01*
X24109431Y-7819431D01*
X24109431Y-7932569D01*
X24222569Y-7932569D01*
D11*
X19772751Y-9063995D02*
X19772751Y-8863995D01*
X19820370Y-8863995D01*
X19848941Y-8873519D01*
X19867989Y-8892566D01*
X19877513Y-8911614D01*
X19887037Y-8949709D01*
X19887037Y-8978281D01*
X19877513Y-9016376D01*
X19867989Y-9035423D01*
X19848941Y-9054471D01*
X19820370Y-9063995D01*
X19772751Y-9063995D01*
X19972751Y-9063995D02*
X19972751Y-8930662D01*
X19972751Y-8968757D02*
X19982275Y-8949709D01*
X19991798Y-8940185D01*
X20010846Y-8930662D01*
X20029894Y-8930662D01*
X20096560Y-9063995D02*
X20096560Y-8930662D01*
X20096560Y-8863995D02*
X20087037Y-8873519D01*
X20096560Y-8883043D01*
X20106084Y-8873519D01*
X20096560Y-8863995D01*
X20096560Y-8883043D01*
X20220370Y-9063995D02*
X20201322Y-9054471D01*
X20191798Y-9035423D01*
X20191798Y-8863995D01*
X20325132Y-9063995D02*
X20306084Y-9054471D01*
X20296560Y-9035423D01*
X20296560Y-8863995D01*
X20553703Y-9063995D02*
X20553703Y-8863995D01*
X20620370Y-9006852D01*
X20687037Y-8863995D01*
X20687037Y-9063995D01*
X20867989Y-9063995D02*
X20867989Y-8959233D01*
X20858465Y-8940185D01*
X20839418Y-8930662D01*
X20801322Y-8930662D01*
X20782275Y-8940185D01*
X20867989Y-9054471D02*
X20848941Y-9063995D01*
X20801322Y-9063995D01*
X20782275Y-9054471D01*
X20772751Y-9035423D01*
X20772751Y-9016376D01*
X20782275Y-8997328D01*
X20801322Y-8987804D01*
X20848941Y-8987804D01*
X20867989Y-8978281D01*
X20963227Y-8930662D02*
X20963227Y-9130662D01*
X20963227Y-8940185D02*
X20982275Y-8930662D01*
X21020370Y-8930662D01*
X21039418Y-8940185D01*
X21048941Y-8949709D01*
X21058465Y-8968757D01*
X21058465Y-9025900D01*
X21048941Y-9044947D01*
X21039418Y-9054471D01*
X21020370Y-9063995D01*
X20982275Y-9063995D01*
X20963227Y-9054471D01*
X21144179Y-9044947D02*
X21153703Y-9054471D01*
X21144179Y-9063995D01*
X21134656Y-9054471D01*
X21144179Y-9044947D01*
X21144179Y-9063995D01*
X21144179Y-8940185D02*
X21153703Y-8949709D01*
X21144179Y-8959233D01*
X21134656Y-8949709D01*
X21144179Y-8940185D01*
X21144179Y-8959233D01*
D12*
X19475132Y-9373519D02*
X19515132Y-9413519D01*
X19515132Y-9373519D02*
X19475132Y-9413519D01*
D11*
X19810846Y-9283995D02*
X19829894Y-9283995D01*
X19848941Y-9293519D01*
X19858465Y-9303043D01*
X19867989Y-9322090D01*
X19877513Y-9360185D01*
X19877513Y-9407804D01*
X19867989Y-9445900D01*
X19858465Y-9464947D01*
X19848941Y-9474471D01*
X19829894Y-9483995D01*
X19810846Y-9483995D01*
X19791798Y-9474471D01*
X19782275Y-9464947D01*
X19772751Y-9445900D01*
X19763227Y-9407804D01*
X19763227Y-9360185D01*
X19772751Y-9322090D01*
X19782275Y-9303043D01*
X19791798Y-9293519D01*
X19810846Y-9283995D01*
X19963227Y-9464947D02*
X19972751Y-9474471D01*
X19963227Y-9483995D01*
X19953703Y-9474471D01*
X19963227Y-9464947D01*
X19963227Y-9483995D01*
X20144179Y-9350662D02*
X20144179Y-9483995D01*
X20096560Y-9274471D02*
X20048941Y-9417328D01*
X20172751Y-9417328D01*
X20287037Y-9283995D02*
X20306084Y-9283995D01*
X20325132Y-9293519D01*
X20334656Y-9303043D01*
X20344179Y-9322090D01*
X20353703Y-9360185D01*
X20353703Y-9407804D01*
X20344179Y-9445900D01*
X20334656Y-9464947D01*
X20325132Y-9474471D01*
X20306084Y-9483995D01*
X20287037Y-9483995D01*
X20267989Y-9474471D01*
X20258465Y-9464947D01*
X20248941Y-9445900D01*
X20239418Y-9407804D01*
X20239418Y-9360185D01*
X20248941Y-9322090D01*
X20258465Y-9303043D01*
X20267989Y-9293519D01*
X20287037Y-9283995D01*
X20477513Y-9283995D02*
X20496560Y-9283995D01*
X20515608Y-9293519D01*
X20525132Y-9303043D01*
X20534656Y-9322090D01*
X20544179Y-9360185D01*
X20544179Y-9407804D01*
X20534656Y-9445900D01*
X20525132Y-9464947D01*
X20515608Y-9474471D01*
X20496560Y-9483995D01*
X20477513Y-9483995D01*
X20458465Y-9474471D01*
X20448941Y-9464947D01*
X20439418Y-9445900D01*
X20429894Y-9407804D01*
X20429894Y-9360185D01*
X20439418Y-9322090D01*
X20448941Y-9303043D01*
X20458465Y-9293519D01*
X20477513Y-9283995D01*
X20629894Y-9483995D02*
X20629894Y-9350662D01*
X20629894Y-9369709D02*
X20639418Y-9360185D01*
X20658465Y-9350662D01*
X20687037Y-9350662D01*
X20706084Y-9360185D01*
X20715608Y-9379233D01*
X20715608Y-9483995D01*
X20715608Y-9379233D02*
X20725132Y-9360185D01*
X20744179Y-9350662D01*
X20772751Y-9350662D01*
X20791798Y-9360185D01*
X20801322Y-9379233D01*
X20801322Y-9483995D01*
X20896560Y-9483995D02*
X20896560Y-9350662D01*
X20896560Y-9369709D02*
X20906084Y-9360185D01*
X20925132Y-9350662D01*
X20953703Y-9350662D01*
X20972751Y-9360185D01*
X20982275Y-9379233D01*
X20982275Y-9483995D01*
X20982275Y-9379233D02*
X20991798Y-9360185D01*
X21010846Y-9350662D01*
X21039418Y-9350662D01*
X21058465Y-9360185D01*
X21067989Y-9379233D01*
X21067989Y-9483995D01*
X21458465Y-9274471D02*
X21287037Y-9531614D01*
X21715608Y-9283995D02*
X21734656Y-9283995D01*
X21753703Y-9293519D01*
X21763227Y-9303043D01*
X21772751Y-9322090D01*
X21782275Y-9360185D01*
X21782275Y-9407804D01*
X21772751Y-9445900D01*
X21763227Y-9464947D01*
X21753703Y-9474471D01*
X21734656Y-9483995D01*
X21715608Y-9483995D01*
X21696560Y-9474471D01*
X21687037Y-9464947D01*
X21677513Y-9445900D01*
X21667989Y-9407804D01*
X21667989Y-9360185D01*
X21677513Y-9322090D01*
X21687037Y-9303043D01*
X21696560Y-9293519D01*
X21715608Y-9283995D01*
X21867989Y-9464947D02*
X21877513Y-9474471D01*
X21867989Y-9483995D01*
X21858465Y-9474471D01*
X21867989Y-9464947D01*
X21867989Y-9483995D01*
X22001322Y-9283995D02*
X22020370Y-9283995D01*
X22039418Y-9293519D01*
X22048941Y-9303043D01*
X22058465Y-9322090D01*
X22067989Y-9360185D01*
X22067989Y-9407804D01*
X22058465Y-9445900D01*
X22048941Y-9464947D01*
X22039418Y-9474471D01*
X22020370Y-9483995D01*
X22001322Y-9483995D01*
X21982275Y-9474471D01*
X21972751Y-9464947D01*
X21963227Y-9445900D01*
X21953703Y-9407804D01*
X21953703Y-9360185D01*
X21963227Y-9322090D01*
X21972751Y-9303043D01*
X21982275Y-9293519D01*
X22001322Y-9283995D01*
X22258465Y-9483995D02*
X22144179Y-9483995D01*
X22201322Y-9483995D02*
X22201322Y-9283995D01*
X22182275Y-9312566D01*
X22163227Y-9331614D01*
X22144179Y-9341138D01*
X22439417Y-9283995D02*
X22344179Y-9283995D01*
X22334656Y-9379233D01*
X22344179Y-9369709D01*
X22363227Y-9360185D01*
X22410846Y-9360185D01*
X22429894Y-9369709D01*
X22439417Y-9379233D01*
X22448941Y-9398281D01*
X22448941Y-9445900D01*
X22439417Y-9464947D01*
X22429894Y-9474471D01*
X22410846Y-9483995D01*
X22363227Y-9483995D01*
X22344179Y-9474471D01*
X22334656Y-9464947D01*
X22515608Y-9283995D02*
X22648941Y-9283995D01*
X22563227Y-9483995D01*
X22715608Y-9283995D02*
X22715608Y-9322090D01*
X22791798Y-9283995D02*
X22791798Y-9322090D01*
X23087036Y-9560185D02*
X23077513Y-9550662D01*
X23058465Y-9522090D01*
X23048941Y-9503043D01*
X23039417Y-9474471D01*
X23029894Y-9426852D01*
X23029894Y-9388757D01*
X23039417Y-9341138D01*
X23048941Y-9312566D01*
X23058465Y-9293519D01*
X23077513Y-9264947D01*
X23087036Y-9255423D01*
X23267989Y-9483995D02*
X23153703Y-9483995D01*
X23210846Y-9483995D02*
X23210846Y-9283995D01*
X23191798Y-9312566D01*
X23172751Y-9331614D01*
X23153703Y-9341138D01*
X23344179Y-9303043D02*
X23353703Y-9293519D01*
X23372751Y-9283995D01*
X23420370Y-9283995D01*
X23439417Y-9293519D01*
X23448941Y-9303043D01*
X23458465Y-9322090D01*
X23458465Y-9341138D01*
X23448941Y-9369709D01*
X23334656Y-9483995D01*
X23458465Y-9483995D01*
X23648941Y-9483995D02*
X23534656Y-9483995D01*
X23591798Y-9483995D02*
X23591798Y-9283995D01*
X23572751Y-9312566D01*
X23553703Y-9331614D01*
X23534656Y-9341138D01*
X23887036Y-9483995D02*
X23887036Y-9283995D01*
X23972751Y-9483995D02*
X23972751Y-9379233D01*
X23963227Y-9360185D01*
X23944179Y-9350662D01*
X23915608Y-9350662D01*
X23896560Y-9360185D01*
X23887036Y-9369709D01*
X24096560Y-9483995D02*
X24077513Y-9474471D01*
X24067989Y-9464947D01*
X24058465Y-9445900D01*
X24058465Y-9388757D01*
X24067989Y-9369709D01*
X24077513Y-9360185D01*
X24096560Y-9350662D01*
X24125132Y-9350662D01*
X24144179Y-9360185D01*
X24153703Y-9369709D01*
X24163227Y-9388757D01*
X24163227Y-9445900D01*
X24153703Y-9464947D01*
X24144179Y-9474471D01*
X24125132Y-9483995D01*
X24096560Y-9483995D01*
X24277513Y-9483995D02*
X24258465Y-9474471D01*
X24248941Y-9455423D01*
X24248941Y-9283995D01*
X24429894Y-9474471D02*
X24410846Y-9483995D01*
X24372751Y-9483995D01*
X24353703Y-9474471D01*
X24344179Y-9455423D01*
X24344179Y-9379233D01*
X24353703Y-9360185D01*
X24372751Y-9350662D01*
X24410846Y-9350662D01*
X24429894Y-9360185D01*
X24439417Y-9379233D01*
X24439417Y-9398281D01*
X24344179Y-9417328D01*
X24515608Y-9474471D02*
X24534656Y-9483995D01*
X24572751Y-9483995D01*
X24591798Y-9474471D01*
X24601322Y-9455423D01*
X24601322Y-9445900D01*
X24591798Y-9426852D01*
X24572751Y-9417328D01*
X24544179Y-9417328D01*
X24525132Y-9407804D01*
X24515608Y-9388757D01*
X24515608Y-9379233D01*
X24525132Y-9360185D01*
X24544179Y-9350662D01*
X24572751Y-9350662D01*
X24591798Y-9360185D01*
X24667989Y-9560185D02*
X24677513Y-9550662D01*
X24696560Y-9522090D01*
X24706084Y-9503043D01*
X24715608Y-9474471D01*
X24725132Y-9426852D01*
X24725132Y-9388757D01*
X24715608Y-9341138D01*
X24706084Y-9312566D01*
X24696560Y-9293519D01*
X24677513Y-9264947D01*
X24667989Y-9255423D01*
D13*
X19515132Y-9657519D02*
G75*
G03*
X19515132Y-9657519I-30000J0D01*
G01*
D11*
X19810846Y-9547995D02*
X19829894Y-9547995D01*
X19848941Y-9557519D01*
X19858465Y-9567043D01*
X19867989Y-9586090D01*
X19877513Y-9624185D01*
X19877513Y-9671804D01*
X19867989Y-9709900D01*
X19858465Y-9728947D01*
X19848941Y-9738471D01*
X19829894Y-9747995D01*
X19810846Y-9747995D01*
X19791798Y-9738471D01*
X19782275Y-9728947D01*
X19772751Y-9709900D01*
X19763227Y-9671804D01*
X19763227Y-9624185D01*
X19772751Y-9586090D01*
X19782275Y-9567043D01*
X19791798Y-9557519D01*
X19810846Y-9547995D01*
X19963227Y-9728947D02*
X19972751Y-9738471D01*
X19963227Y-9747995D01*
X19953703Y-9738471D01*
X19963227Y-9728947D01*
X19963227Y-9747995D01*
X20144179Y-9547995D02*
X20106084Y-9547995D01*
X20087037Y-9557519D01*
X20077513Y-9567043D01*
X20058465Y-9595614D01*
X20048941Y-9633709D01*
X20048941Y-9709900D01*
X20058465Y-9728947D01*
X20067989Y-9738471D01*
X20087037Y-9747995D01*
X20125132Y-9747995D01*
X20144179Y-9738471D01*
X20153703Y-9728947D01*
X20163227Y-9709900D01*
X20163227Y-9662281D01*
X20153703Y-9643233D01*
X20144179Y-9633709D01*
X20125132Y-9624185D01*
X20087037Y-9624185D01*
X20067989Y-9633709D01*
X20058465Y-9643233D01*
X20048941Y-9662281D01*
X20287037Y-9547995D02*
X20306084Y-9547995D01*
X20325132Y-9557519D01*
X20334656Y-9567043D01*
X20344179Y-9586090D01*
X20353703Y-9624185D01*
X20353703Y-9671804D01*
X20344179Y-9709900D01*
X20334656Y-9728947D01*
X20325132Y-9738471D01*
X20306084Y-9747995D01*
X20287037Y-9747995D01*
X20267989Y-9738471D01*
X20258465Y-9728947D01*
X20248941Y-9709900D01*
X20239418Y-9671804D01*
X20239418Y-9624185D01*
X20248941Y-9586090D01*
X20258465Y-9567043D01*
X20267989Y-9557519D01*
X20287037Y-9547995D01*
X20477513Y-9547995D02*
X20496560Y-9547995D01*
X20515608Y-9557519D01*
X20525132Y-9567043D01*
X20534656Y-9586090D01*
X20544179Y-9624185D01*
X20544179Y-9671804D01*
X20534656Y-9709900D01*
X20525132Y-9728947D01*
X20515608Y-9738471D01*
X20496560Y-9747995D01*
X20477513Y-9747995D01*
X20458465Y-9738471D01*
X20448941Y-9728947D01*
X20439418Y-9709900D01*
X20429894Y-9671804D01*
X20429894Y-9624185D01*
X20439418Y-9586090D01*
X20448941Y-9567043D01*
X20458465Y-9557519D01*
X20477513Y-9547995D01*
X20629894Y-9747995D02*
X20629894Y-9614662D01*
X20629894Y-9633709D02*
X20639418Y-9624185D01*
X20658465Y-9614662D01*
X20687037Y-9614662D01*
X20706084Y-9624185D01*
X20715608Y-9643233D01*
X20715608Y-9747995D01*
X20715608Y-9643233D02*
X20725132Y-9624185D01*
X20744179Y-9614662D01*
X20772751Y-9614662D01*
X20791798Y-9624185D01*
X20801322Y-9643233D01*
X20801322Y-9747995D01*
X20896560Y-9747995D02*
X20896560Y-9614662D01*
X20896560Y-9633709D02*
X20906084Y-9624185D01*
X20925132Y-9614662D01*
X20953703Y-9614662D01*
X20972751Y-9624185D01*
X20982275Y-9643233D01*
X20982275Y-9747995D01*
X20982275Y-9643233D02*
X20991798Y-9624185D01*
X21010846Y-9614662D01*
X21039418Y-9614662D01*
X21058465Y-9624185D01*
X21067989Y-9643233D01*
X21067989Y-9747995D01*
X21458465Y-9538471D02*
X21287037Y-9795614D01*
X21715608Y-9547995D02*
X21734656Y-9547995D01*
X21753703Y-9557519D01*
X21763227Y-9567043D01*
X21772751Y-9586090D01*
X21782275Y-9624185D01*
X21782275Y-9671804D01*
X21772751Y-9709900D01*
X21763227Y-9728947D01*
X21753703Y-9738471D01*
X21734656Y-9747995D01*
X21715608Y-9747995D01*
X21696560Y-9738471D01*
X21687037Y-9728947D01*
X21677513Y-9709900D01*
X21667989Y-9671804D01*
X21667989Y-9624185D01*
X21677513Y-9586090D01*
X21687037Y-9567043D01*
X21696560Y-9557519D01*
X21715608Y-9547995D01*
X21867989Y-9728947D02*
X21877513Y-9738471D01*
X21867989Y-9747995D01*
X21858465Y-9738471D01*
X21867989Y-9728947D01*
X21867989Y-9747995D01*
X22001322Y-9547995D02*
X22020370Y-9547995D01*
X22039418Y-9557519D01*
X22048941Y-9567043D01*
X22058465Y-9586090D01*
X22067989Y-9624185D01*
X22067989Y-9671804D01*
X22058465Y-9709900D01*
X22048941Y-9728947D01*
X22039418Y-9738471D01*
X22020370Y-9747995D01*
X22001322Y-9747995D01*
X21982275Y-9738471D01*
X21972751Y-9728947D01*
X21963227Y-9709900D01*
X21953703Y-9671804D01*
X21953703Y-9624185D01*
X21963227Y-9586090D01*
X21972751Y-9567043D01*
X21982275Y-9557519D01*
X22001322Y-9547995D01*
X22144179Y-9567043D02*
X22153703Y-9557519D01*
X22172751Y-9547995D01*
X22220370Y-9547995D01*
X22239418Y-9557519D01*
X22248941Y-9567043D01*
X22258465Y-9586090D01*
X22258465Y-9605138D01*
X22248941Y-9633709D01*
X22134656Y-9747995D01*
X22258465Y-9747995D01*
X22325132Y-9547995D02*
X22448941Y-9547995D01*
X22382275Y-9624185D01*
X22410846Y-9624185D01*
X22429894Y-9633709D01*
X22439417Y-9643233D01*
X22448941Y-9662281D01*
X22448941Y-9709900D01*
X22439417Y-9728947D01*
X22429894Y-9738471D01*
X22410846Y-9747995D01*
X22353703Y-9747995D01*
X22334656Y-9738471D01*
X22325132Y-9728947D01*
X22620370Y-9547995D02*
X22582275Y-9547995D01*
X22563227Y-9557519D01*
X22553703Y-9567043D01*
X22534656Y-9595614D01*
X22525132Y-9633709D01*
X22525132Y-9709900D01*
X22534656Y-9728947D01*
X22544179Y-9738471D01*
X22563227Y-9747995D01*
X22601322Y-9747995D01*
X22620370Y-9738471D01*
X22629894Y-9728947D01*
X22639417Y-9709900D01*
X22639417Y-9662281D01*
X22629894Y-9643233D01*
X22620370Y-9633709D01*
X22601322Y-9624185D01*
X22563227Y-9624185D01*
X22544179Y-9633709D01*
X22534656Y-9643233D01*
X22525132Y-9662281D01*
X22715608Y-9547995D02*
X22715608Y-9586090D01*
X22791798Y-9547995D02*
X22791798Y-9586090D01*
X23087036Y-9824185D02*
X23077513Y-9814662D01*
X23058465Y-9786090D01*
X23048941Y-9767043D01*
X23039417Y-9738471D01*
X23029894Y-9690852D01*
X23029894Y-9652757D01*
X23039417Y-9605138D01*
X23048941Y-9576566D01*
X23058465Y-9557519D01*
X23077513Y-9528947D01*
X23087036Y-9519423D01*
X23201322Y-9547995D02*
X23220370Y-9547995D01*
X23239417Y-9557519D01*
X23248941Y-9567043D01*
X23258465Y-9586090D01*
X23267989Y-9624185D01*
X23267989Y-9671804D01*
X23258465Y-9709900D01*
X23248941Y-9728947D01*
X23239417Y-9738471D01*
X23220370Y-9747995D01*
X23201322Y-9747995D01*
X23182275Y-9738471D01*
X23172751Y-9728947D01*
X23163227Y-9709900D01*
X23153703Y-9671804D01*
X23153703Y-9624185D01*
X23163227Y-9586090D01*
X23172751Y-9567043D01*
X23182275Y-9557519D01*
X23201322Y-9547995D01*
X23506084Y-9747995D02*
X23506084Y-9547995D01*
X23591798Y-9747995D02*
X23591798Y-9643233D01*
X23582275Y-9624185D01*
X23563227Y-9614662D01*
X23534656Y-9614662D01*
X23515608Y-9624185D01*
X23506084Y-9633709D01*
X23715608Y-9747995D02*
X23696560Y-9738471D01*
X23687036Y-9728947D01*
X23677513Y-9709900D01*
X23677513Y-9652757D01*
X23687036Y-9633709D01*
X23696560Y-9624185D01*
X23715608Y-9614662D01*
X23744179Y-9614662D01*
X23763227Y-9624185D01*
X23772751Y-9633709D01*
X23782275Y-9652757D01*
X23782275Y-9709900D01*
X23772751Y-9728947D01*
X23763227Y-9738471D01*
X23744179Y-9747995D01*
X23715608Y-9747995D01*
X23896560Y-9747995D02*
X23877513Y-9738471D01*
X23867989Y-9719423D01*
X23867989Y-9547995D01*
X24048941Y-9738471D02*
X24029894Y-9747995D01*
X23991798Y-9747995D01*
X23972751Y-9738471D01*
X23963227Y-9719423D01*
X23963227Y-9643233D01*
X23972751Y-9624185D01*
X23991798Y-9614662D01*
X24029894Y-9614662D01*
X24048941Y-9624185D01*
X24058465Y-9643233D01*
X24058465Y-9662281D01*
X23963227Y-9681328D01*
X24134656Y-9738471D02*
X24153703Y-9747995D01*
X24191798Y-9747995D01*
X24210846Y-9738471D01*
X24220370Y-9719423D01*
X24220370Y-9709900D01*
X24210846Y-9690852D01*
X24191798Y-9681328D01*
X24163227Y-9681328D01*
X24144179Y-9671804D01*
X24134656Y-9652757D01*
X24134656Y-9643233D01*
X24144179Y-9624185D01*
X24163227Y-9614662D01*
X24191798Y-9614662D01*
X24210846Y-9624185D01*
X24458465Y-9671804D02*
X24610846Y-9671804D01*
X24534656Y-9747995D02*
X24534656Y-9595614D01*
X24944179Y-9614662D02*
X24944179Y-9747995D01*
X24896560Y-9538471D02*
X24848941Y-9681328D01*
X24972751Y-9681328D01*
X25191798Y-9738471D02*
X25210846Y-9747995D01*
X25248941Y-9747995D01*
X25267989Y-9738471D01*
X25277513Y-9719423D01*
X25277513Y-9709900D01*
X25267989Y-9690852D01*
X25248941Y-9681328D01*
X25220370Y-9681328D01*
X25201322Y-9671804D01*
X25191798Y-9652757D01*
X25191798Y-9643233D01*
X25201322Y-9624185D01*
X25220370Y-9614662D01*
X25248941Y-9614662D01*
X25267989Y-9624185D01*
X25391798Y-9747995D02*
X25372751Y-9738471D01*
X25363227Y-9719423D01*
X25363227Y-9547995D01*
X25496560Y-9747995D02*
X25477513Y-9738471D01*
X25467989Y-9728947D01*
X25458465Y-9709900D01*
X25458465Y-9652757D01*
X25467989Y-9633709D01*
X25477513Y-9624185D01*
X25496560Y-9614662D01*
X25525132Y-9614662D01*
X25544179Y-9624185D01*
X25553703Y-9633709D01*
X25563227Y-9652757D01*
X25563227Y-9709900D01*
X25553703Y-9728947D01*
X25544179Y-9738471D01*
X25525132Y-9747995D01*
X25496560Y-9747995D01*
X25620370Y-9614662D02*
X25696560Y-9614662D01*
X25648941Y-9547995D02*
X25648941Y-9719423D01*
X25658465Y-9738471D01*
X25677513Y-9747995D01*
X25696560Y-9747995D01*
X25753703Y-9738471D02*
X25772751Y-9747995D01*
X25810846Y-9747995D01*
X25829894Y-9738471D01*
X25839417Y-9719423D01*
X25839417Y-9709900D01*
X25829894Y-9690852D01*
X25810846Y-9681328D01*
X25782275Y-9681328D01*
X25763227Y-9671804D01*
X25753703Y-9652757D01*
X25753703Y-9643233D01*
X25763227Y-9624185D01*
X25782275Y-9614662D01*
X25810846Y-9614662D01*
X25829894Y-9624185D01*
X25906084Y-9824185D02*
X25915608Y-9814662D01*
X25934656Y-9786090D01*
X25944179Y-9767043D01*
X25953703Y-9738471D01*
X25963227Y-9690852D01*
X25963227Y-9652757D01*
X25953703Y-9605138D01*
X25944179Y-9576566D01*
X25934656Y-9557519D01*
X25915608Y-9528947D01*
X25906084Y-9519423D01*
D14*
X19475132Y-9881519D02*
X19475132Y-9961519D01*
X19435132Y-9921519D02*
X19515132Y-9921519D01*
D11*
X19810846Y-9811995D02*
X19829894Y-9811995D01*
X19848941Y-9821519D01*
X19858465Y-9831043D01*
X19867989Y-9850090D01*
X19877513Y-9888185D01*
X19877513Y-9935804D01*
X19867989Y-9973900D01*
X19858465Y-9992947D01*
X19848941Y-10002471D01*
X19829894Y-10011995D01*
X19810846Y-10011995D01*
X19791798Y-10002471D01*
X19782275Y-9992947D01*
X19772751Y-9973900D01*
X19763227Y-9935804D01*
X19763227Y-9888185D01*
X19772751Y-9850090D01*
X19782275Y-9831043D01*
X19791798Y-9821519D01*
X19810846Y-9811995D01*
X19963227Y-9992947D02*
X19972751Y-10002471D01*
X19963227Y-10011995D01*
X19953703Y-10002471D01*
X19963227Y-9992947D01*
X19963227Y-10011995D01*
X20087037Y-9897709D02*
X20067989Y-9888185D01*
X20058465Y-9878662D01*
X20048941Y-9859614D01*
X20048941Y-9850090D01*
X20058465Y-9831043D01*
X20067989Y-9821519D01*
X20087037Y-9811995D01*
X20125132Y-9811995D01*
X20144179Y-9821519D01*
X20153703Y-9831043D01*
X20163227Y-9850090D01*
X20163227Y-9859614D01*
X20153703Y-9878662D01*
X20144179Y-9888185D01*
X20125132Y-9897709D01*
X20087037Y-9897709D01*
X20067989Y-9907233D01*
X20058465Y-9916757D01*
X20048941Y-9935804D01*
X20048941Y-9973900D01*
X20058465Y-9992947D01*
X20067989Y-10002471D01*
X20087037Y-10011995D01*
X20125132Y-10011995D01*
X20144179Y-10002471D01*
X20153703Y-9992947D01*
X20163227Y-9973900D01*
X20163227Y-9935804D01*
X20153703Y-9916757D01*
X20144179Y-9907233D01*
X20125132Y-9897709D01*
X20287037Y-9811995D02*
X20306084Y-9811995D01*
X20325132Y-9821519D01*
X20334656Y-9831043D01*
X20344179Y-9850090D01*
X20353703Y-9888185D01*
X20353703Y-9935804D01*
X20344179Y-9973900D01*
X20334656Y-9992947D01*
X20325132Y-10002471D01*
X20306084Y-10011995D01*
X20287037Y-10011995D01*
X20267989Y-10002471D01*
X20258465Y-9992947D01*
X20248941Y-9973900D01*
X20239418Y-9935804D01*
X20239418Y-9888185D01*
X20248941Y-9850090D01*
X20258465Y-9831043D01*
X20267989Y-9821519D01*
X20287037Y-9811995D01*
X20477513Y-9811995D02*
X20496560Y-9811995D01*
X20515608Y-9821519D01*
X20525132Y-9831043D01*
X20534656Y-9850090D01*
X20544179Y-9888185D01*
X20544179Y-9935804D01*
X20534656Y-9973900D01*
X20525132Y-9992947D01*
X20515608Y-10002471D01*
X20496560Y-10011995D01*
X20477513Y-10011995D01*
X20458465Y-10002471D01*
X20448941Y-9992947D01*
X20439418Y-9973900D01*
X20429894Y-9935804D01*
X20429894Y-9888185D01*
X20439418Y-9850090D01*
X20448941Y-9831043D01*
X20458465Y-9821519D01*
X20477513Y-9811995D01*
X20629894Y-10011995D02*
X20629894Y-9878662D01*
X20629894Y-9897709D02*
X20639418Y-9888185D01*
X20658465Y-9878662D01*
X20687037Y-9878662D01*
X20706084Y-9888185D01*
X20715608Y-9907233D01*
X20715608Y-10011995D01*
X20715608Y-9907233D02*
X20725132Y-9888185D01*
X20744179Y-9878662D01*
X20772751Y-9878662D01*
X20791798Y-9888185D01*
X20801322Y-9907233D01*
X20801322Y-10011995D01*
X20896560Y-10011995D02*
X20896560Y-9878662D01*
X20896560Y-9897709D02*
X20906084Y-9888185D01*
X20925132Y-9878662D01*
X20953703Y-9878662D01*
X20972751Y-9888185D01*
X20982275Y-9907233D01*
X20982275Y-10011995D01*
X20982275Y-9907233D02*
X20991798Y-9888185D01*
X21010846Y-9878662D01*
X21039418Y-9878662D01*
X21058465Y-9888185D01*
X21067989Y-9907233D01*
X21067989Y-10011995D01*
X21458465Y-9802471D02*
X21287037Y-10059614D01*
X21715608Y-9811995D02*
X21734656Y-9811995D01*
X21753703Y-9821519D01*
X21763227Y-9831043D01*
X21772751Y-9850090D01*
X21782275Y-9888185D01*
X21782275Y-9935804D01*
X21772751Y-9973900D01*
X21763227Y-9992947D01*
X21753703Y-10002471D01*
X21734656Y-10011995D01*
X21715608Y-10011995D01*
X21696560Y-10002471D01*
X21687037Y-9992947D01*
X21677513Y-9973900D01*
X21667989Y-9935804D01*
X21667989Y-9888185D01*
X21677513Y-9850090D01*
X21687037Y-9831043D01*
X21696560Y-9821519D01*
X21715608Y-9811995D01*
X21867989Y-9992947D02*
X21877513Y-10002471D01*
X21867989Y-10011995D01*
X21858465Y-10002471D01*
X21867989Y-9992947D01*
X21867989Y-10011995D01*
X22001322Y-9811995D02*
X22020370Y-9811995D01*
X22039418Y-9821519D01*
X22048941Y-9831043D01*
X22058465Y-9850090D01*
X22067989Y-9888185D01*
X22067989Y-9935804D01*
X22058465Y-9973900D01*
X22048941Y-9992947D01*
X22039418Y-10002471D01*
X22020370Y-10011995D01*
X22001322Y-10011995D01*
X21982275Y-10002471D01*
X21972751Y-9992947D01*
X21963227Y-9973900D01*
X21953703Y-9935804D01*
X21953703Y-9888185D01*
X21963227Y-9850090D01*
X21972751Y-9831043D01*
X21982275Y-9821519D01*
X22001322Y-9811995D01*
X22134656Y-9811995D02*
X22258465Y-9811995D01*
X22191798Y-9888185D01*
X22220370Y-9888185D01*
X22239418Y-9897709D01*
X22248941Y-9907233D01*
X22258465Y-9926281D01*
X22258465Y-9973900D01*
X22248941Y-9992947D01*
X22239418Y-10002471D01*
X22220370Y-10011995D01*
X22163227Y-10011995D01*
X22144179Y-10002471D01*
X22134656Y-9992947D01*
X22448941Y-10011995D02*
X22334656Y-10011995D01*
X22391798Y-10011995D02*
X22391798Y-9811995D01*
X22372751Y-9840566D01*
X22353703Y-9859614D01*
X22334656Y-9869138D01*
X22629894Y-9811995D02*
X22534656Y-9811995D01*
X22525132Y-9907233D01*
X22534656Y-9897709D01*
X22553703Y-9888185D01*
X22601322Y-9888185D01*
X22620370Y-9897709D01*
X22629894Y-9907233D01*
X22639417Y-9926281D01*
X22639417Y-9973900D01*
X22629894Y-9992947D01*
X22620370Y-10002471D01*
X22601322Y-10011995D01*
X22553703Y-10011995D01*
X22534656Y-10002471D01*
X22525132Y-9992947D01*
X22715608Y-9811995D02*
X22715608Y-9850090D01*
X22791798Y-9811995D02*
X22791798Y-9850090D01*
X23087036Y-10088185D02*
X23077513Y-10078662D01*
X23058465Y-10050090D01*
X23048941Y-10031043D01*
X23039417Y-10002471D01*
X23029894Y-9954852D01*
X23029894Y-9916757D01*
X23039417Y-9869138D01*
X23048941Y-9840566D01*
X23058465Y-9821519D01*
X23077513Y-9792947D01*
X23087036Y-9783423D01*
X23248941Y-9878662D02*
X23248941Y-10011995D01*
X23201322Y-9802471D02*
X23153703Y-9945328D01*
X23277513Y-9945328D01*
X23506084Y-10011995D02*
X23506084Y-9811995D01*
X23591798Y-10011995D02*
X23591798Y-9907233D01*
X23582275Y-9888185D01*
X23563227Y-9878662D01*
X23534656Y-9878662D01*
X23515608Y-9888185D01*
X23506084Y-9897709D01*
X23715608Y-10011995D02*
X23696560Y-10002471D01*
X23687036Y-9992947D01*
X23677513Y-9973900D01*
X23677513Y-9916757D01*
X23687036Y-9897709D01*
X23696560Y-9888185D01*
X23715608Y-9878662D01*
X23744179Y-9878662D01*
X23763227Y-9888185D01*
X23772751Y-9897709D01*
X23782275Y-9916757D01*
X23782275Y-9973900D01*
X23772751Y-9992947D01*
X23763227Y-10002471D01*
X23744179Y-10011995D01*
X23715608Y-10011995D01*
X23896560Y-10011995D02*
X23877513Y-10002471D01*
X23867989Y-9983423D01*
X23867989Y-9811995D01*
X24048941Y-10002471D02*
X24029894Y-10011995D01*
X23991798Y-10011995D01*
X23972751Y-10002471D01*
X23963227Y-9983423D01*
X23963227Y-9907233D01*
X23972751Y-9888185D01*
X23991798Y-9878662D01*
X24029894Y-9878662D01*
X24048941Y-9888185D01*
X24058465Y-9907233D01*
X24058465Y-9926281D01*
X23963227Y-9945328D01*
X24134656Y-10002471D02*
X24153703Y-10011995D01*
X24191798Y-10011995D01*
X24210846Y-10002471D01*
X24220370Y-9983423D01*
X24220370Y-9973900D01*
X24210846Y-9954852D01*
X24191798Y-9945328D01*
X24163227Y-9945328D01*
X24144179Y-9935804D01*
X24134656Y-9916757D01*
X24134656Y-9907233D01*
X24144179Y-9888185D01*
X24163227Y-9878662D01*
X24191798Y-9878662D01*
X24210846Y-9888185D01*
X24287036Y-10088185D02*
X24296560Y-10078662D01*
X24315608Y-10050090D01*
X24325132Y-10031043D01*
X24334656Y-10002471D01*
X24344179Y-9954852D01*
X24344179Y-9916757D01*
X24334656Y-9869138D01*
X24325132Y-9840566D01*
X24315608Y-9821519D01*
X24296560Y-9792947D01*
X24287036Y-9783423D01*
D14*
X19503416Y-10213803D02*
X19503416Y-10157234D01*
X19446847Y-10157234D01*
X19446847Y-10213803D01*
X19503416Y-10213803D01*
D11*
X19810846Y-10075995D02*
X19829894Y-10075995D01*
X19848941Y-10085519D01*
X19858465Y-10095043D01*
X19867989Y-10114090D01*
X19877513Y-10152185D01*
X19877513Y-10199804D01*
X19867989Y-10237900D01*
X19858465Y-10256947D01*
X19848941Y-10266471D01*
X19829894Y-10275995D01*
X19810846Y-10275995D01*
X19791798Y-10266471D01*
X19782275Y-10256947D01*
X19772751Y-10237900D01*
X19763227Y-10199804D01*
X19763227Y-10152185D01*
X19772751Y-10114090D01*
X19782275Y-10095043D01*
X19791798Y-10085519D01*
X19810846Y-10075995D01*
X19963227Y-10256947D02*
X19972751Y-10266471D01*
X19963227Y-10275995D01*
X19953703Y-10266471D01*
X19963227Y-10256947D01*
X19963227Y-10275995D01*
X20087037Y-10161709D02*
X20067989Y-10152185D01*
X20058465Y-10142662D01*
X20048941Y-10123614D01*
X20048941Y-10114090D01*
X20058465Y-10095043D01*
X20067989Y-10085519D01*
X20087037Y-10075995D01*
X20125132Y-10075995D01*
X20144179Y-10085519D01*
X20153703Y-10095043D01*
X20163227Y-10114090D01*
X20163227Y-10123614D01*
X20153703Y-10142662D01*
X20144179Y-10152185D01*
X20125132Y-10161709D01*
X20087037Y-10161709D01*
X20067989Y-10171233D01*
X20058465Y-10180757D01*
X20048941Y-10199804D01*
X20048941Y-10237900D01*
X20058465Y-10256947D01*
X20067989Y-10266471D01*
X20087037Y-10275995D01*
X20125132Y-10275995D01*
X20144179Y-10266471D01*
X20153703Y-10256947D01*
X20163227Y-10237900D01*
X20163227Y-10199804D01*
X20153703Y-10180757D01*
X20144179Y-10171233D01*
X20125132Y-10161709D01*
X20287037Y-10075995D02*
X20306084Y-10075995D01*
X20325132Y-10085519D01*
X20334656Y-10095043D01*
X20344179Y-10114090D01*
X20353703Y-10152185D01*
X20353703Y-10199804D01*
X20344179Y-10237900D01*
X20334656Y-10256947D01*
X20325132Y-10266471D01*
X20306084Y-10275995D01*
X20287037Y-10275995D01*
X20267989Y-10266471D01*
X20258465Y-10256947D01*
X20248941Y-10237900D01*
X20239418Y-10199804D01*
X20239418Y-10152185D01*
X20248941Y-10114090D01*
X20258465Y-10095043D01*
X20267989Y-10085519D01*
X20287037Y-10075995D01*
X20477513Y-10075995D02*
X20496560Y-10075995D01*
X20515608Y-10085519D01*
X20525132Y-10095043D01*
X20534656Y-10114090D01*
X20544179Y-10152185D01*
X20544179Y-10199804D01*
X20534656Y-10237900D01*
X20525132Y-10256947D01*
X20515608Y-10266471D01*
X20496560Y-10275995D01*
X20477513Y-10275995D01*
X20458465Y-10266471D01*
X20448941Y-10256947D01*
X20439418Y-10237900D01*
X20429894Y-10199804D01*
X20429894Y-10152185D01*
X20439418Y-10114090D01*
X20448941Y-10095043D01*
X20458465Y-10085519D01*
X20477513Y-10075995D01*
X20629894Y-10275995D02*
X20629894Y-10142662D01*
X20629894Y-10161709D02*
X20639418Y-10152185D01*
X20658465Y-10142662D01*
X20687037Y-10142662D01*
X20706084Y-10152185D01*
X20715608Y-10171233D01*
X20715608Y-10275995D01*
X20715608Y-10171233D02*
X20725132Y-10152185D01*
X20744179Y-10142662D01*
X20772751Y-10142662D01*
X20791798Y-10152185D01*
X20801322Y-10171233D01*
X20801322Y-10275995D01*
X20896560Y-10275995D02*
X20896560Y-10142662D01*
X20896560Y-10161709D02*
X20906084Y-10152185D01*
X20925132Y-10142662D01*
X20953703Y-10142662D01*
X20972751Y-10152185D01*
X20982275Y-10171233D01*
X20982275Y-10275995D01*
X20982275Y-10171233D02*
X20991798Y-10152185D01*
X21010846Y-10142662D01*
X21039418Y-10142662D01*
X21058465Y-10152185D01*
X21067989Y-10171233D01*
X21067989Y-10275995D01*
X21458465Y-10066471D02*
X21287037Y-10323614D01*
X21715608Y-10075995D02*
X21734656Y-10075995D01*
X21753703Y-10085519D01*
X21763227Y-10095043D01*
X21772751Y-10114090D01*
X21782275Y-10152185D01*
X21782275Y-10199804D01*
X21772751Y-10237900D01*
X21763227Y-10256947D01*
X21753703Y-10266471D01*
X21734656Y-10275995D01*
X21715608Y-10275995D01*
X21696560Y-10266471D01*
X21687037Y-10256947D01*
X21677513Y-10237900D01*
X21667989Y-10199804D01*
X21667989Y-10152185D01*
X21677513Y-10114090D01*
X21687037Y-10095043D01*
X21696560Y-10085519D01*
X21715608Y-10075995D01*
X21867989Y-10256947D02*
X21877513Y-10266471D01*
X21867989Y-10275995D01*
X21858465Y-10266471D01*
X21867989Y-10256947D01*
X21867989Y-10275995D01*
X22001322Y-10075995D02*
X22020370Y-10075995D01*
X22039418Y-10085519D01*
X22048941Y-10095043D01*
X22058465Y-10114090D01*
X22067989Y-10152185D01*
X22067989Y-10199804D01*
X22058465Y-10237900D01*
X22048941Y-10256947D01*
X22039418Y-10266471D01*
X22020370Y-10275995D01*
X22001322Y-10275995D01*
X21982275Y-10266471D01*
X21972751Y-10256947D01*
X21963227Y-10237900D01*
X21953703Y-10199804D01*
X21953703Y-10152185D01*
X21963227Y-10114090D01*
X21972751Y-10095043D01*
X21982275Y-10085519D01*
X22001322Y-10075995D01*
X22134656Y-10075995D02*
X22258465Y-10075995D01*
X22191798Y-10152185D01*
X22220370Y-10152185D01*
X22239418Y-10161709D01*
X22248941Y-10171233D01*
X22258465Y-10190281D01*
X22258465Y-10237900D01*
X22248941Y-10256947D01*
X22239418Y-10266471D01*
X22220370Y-10275995D01*
X22163227Y-10275995D01*
X22144179Y-10266471D01*
X22134656Y-10256947D01*
X22448941Y-10275995D02*
X22334656Y-10275995D01*
X22391798Y-10275995D02*
X22391798Y-10075995D01*
X22372751Y-10104566D01*
X22353703Y-10123614D01*
X22334656Y-10133138D01*
X22629894Y-10075995D02*
X22534656Y-10075995D01*
X22525132Y-10171233D01*
X22534656Y-10161709D01*
X22553703Y-10152185D01*
X22601322Y-10152185D01*
X22620370Y-10161709D01*
X22629894Y-10171233D01*
X22639417Y-10190281D01*
X22639417Y-10237900D01*
X22629894Y-10256947D01*
X22620370Y-10266471D01*
X22601322Y-10275995D01*
X22553703Y-10275995D01*
X22534656Y-10266471D01*
X22525132Y-10256947D01*
X22715608Y-10075995D02*
X22715608Y-10114090D01*
X22791798Y-10075995D02*
X22791798Y-10114090D01*
X23087036Y-10352185D02*
X23077513Y-10342662D01*
X23058465Y-10314090D01*
X23048941Y-10295043D01*
X23039417Y-10266471D01*
X23029894Y-10218852D01*
X23029894Y-10180757D01*
X23039417Y-10133138D01*
X23048941Y-10104566D01*
X23058465Y-10085519D01*
X23077513Y-10056947D01*
X23087036Y-10047423D01*
X23201322Y-10075995D02*
X23220370Y-10075995D01*
X23239417Y-10085519D01*
X23248941Y-10095043D01*
X23258465Y-10114090D01*
X23267989Y-10152185D01*
X23267989Y-10199804D01*
X23258465Y-10237900D01*
X23248941Y-10256947D01*
X23239417Y-10266471D01*
X23220370Y-10275995D01*
X23201322Y-10275995D01*
X23182275Y-10266471D01*
X23172751Y-10256947D01*
X23163227Y-10237900D01*
X23153703Y-10199804D01*
X23153703Y-10152185D01*
X23163227Y-10114090D01*
X23172751Y-10095043D01*
X23182275Y-10085519D01*
X23201322Y-10075995D01*
X23506084Y-10275995D02*
X23506084Y-10075995D01*
X23591798Y-10275995D02*
X23591798Y-10171233D01*
X23582275Y-10152185D01*
X23563227Y-10142662D01*
X23534656Y-10142662D01*
X23515608Y-10152185D01*
X23506084Y-10161709D01*
X23715608Y-10275995D02*
X23696560Y-10266471D01*
X23687036Y-10256947D01*
X23677513Y-10237900D01*
X23677513Y-10180757D01*
X23687036Y-10161709D01*
X23696560Y-10152185D01*
X23715608Y-10142662D01*
X23744179Y-10142662D01*
X23763227Y-10152185D01*
X23772751Y-10161709D01*
X23782275Y-10180757D01*
X23782275Y-10237900D01*
X23772751Y-10256947D01*
X23763227Y-10266471D01*
X23744179Y-10275995D01*
X23715608Y-10275995D01*
X23896560Y-10275995D02*
X23877513Y-10266471D01*
X23867989Y-10247423D01*
X23867989Y-10075995D01*
X24048941Y-10266471D02*
X24029894Y-10275995D01*
X23991798Y-10275995D01*
X23972751Y-10266471D01*
X23963227Y-10247423D01*
X23963227Y-10171233D01*
X23972751Y-10152185D01*
X23991798Y-10142662D01*
X24029894Y-10142662D01*
X24048941Y-10152185D01*
X24058465Y-10171233D01*
X24058465Y-10190281D01*
X23963227Y-10209328D01*
X24134656Y-10266471D02*
X24153703Y-10275995D01*
X24191798Y-10275995D01*
X24210846Y-10266471D01*
X24220370Y-10247423D01*
X24220370Y-10237900D01*
X24210846Y-10218852D01*
X24191798Y-10209328D01*
X24163227Y-10209328D01*
X24144179Y-10199804D01*
X24134656Y-10180757D01*
X24134656Y-10171233D01*
X24144179Y-10152185D01*
X24163227Y-10142662D01*
X24191798Y-10142662D01*
X24210846Y-10152185D01*
X24458465Y-10199804D02*
X24610846Y-10199804D01*
X24534656Y-10275995D02*
X24534656Y-10123614D01*
X24839417Y-10075995D02*
X24963227Y-10075995D01*
X24896560Y-10152185D01*
X24925132Y-10152185D01*
X24944179Y-10161709D01*
X24953703Y-10171233D01*
X24963227Y-10190281D01*
X24963227Y-10237900D01*
X24953703Y-10256947D01*
X24944179Y-10266471D01*
X24925132Y-10275995D01*
X24867989Y-10275995D01*
X24848941Y-10266471D01*
X24839417Y-10256947D01*
X25191798Y-10266471D02*
X25210846Y-10275995D01*
X25248941Y-10275995D01*
X25267989Y-10266471D01*
X25277513Y-10247423D01*
X25277513Y-10237900D01*
X25267989Y-10218852D01*
X25248941Y-10209328D01*
X25220370Y-10209328D01*
X25201322Y-10199804D01*
X25191798Y-10180757D01*
X25191798Y-10171233D01*
X25201322Y-10152185D01*
X25220370Y-10142662D01*
X25248941Y-10142662D01*
X25267989Y-10152185D01*
X25391798Y-10275995D02*
X25372751Y-10266471D01*
X25363227Y-10247423D01*
X25363227Y-10075995D01*
X25496560Y-10275995D02*
X25477513Y-10266471D01*
X25467989Y-10256947D01*
X25458465Y-10237900D01*
X25458465Y-10180757D01*
X25467989Y-10161709D01*
X25477513Y-10152185D01*
X25496560Y-10142662D01*
X25525132Y-10142662D01*
X25544179Y-10152185D01*
X25553703Y-10161709D01*
X25563227Y-10180757D01*
X25563227Y-10237900D01*
X25553703Y-10256947D01*
X25544179Y-10266471D01*
X25525132Y-10275995D01*
X25496560Y-10275995D01*
X25620370Y-10142662D02*
X25696560Y-10142662D01*
X25648941Y-10075995D02*
X25648941Y-10247423D01*
X25658465Y-10266471D01*
X25677513Y-10275995D01*
X25696560Y-10275995D01*
X25753703Y-10266471D02*
X25772751Y-10275995D01*
X25810846Y-10275995D01*
X25829894Y-10266471D01*
X25839417Y-10247423D01*
X25839417Y-10237900D01*
X25829894Y-10218852D01*
X25810846Y-10209328D01*
X25782275Y-10209328D01*
X25763227Y-10199804D01*
X25753703Y-10180757D01*
X25753703Y-10171233D01*
X25763227Y-10152185D01*
X25782275Y-10142662D01*
X25810846Y-10142662D01*
X25829894Y-10152185D01*
X25906084Y-10352185D02*
X25915608Y-10342662D01*
X25934656Y-10314090D01*
X25944179Y-10295043D01*
X25953703Y-10266471D01*
X25963227Y-10218852D01*
X25963227Y-10180757D01*
X25953703Y-10133138D01*
X25944179Y-10104566D01*
X25934656Y-10085519D01*
X25915608Y-10056947D01*
X25906084Y-10047423D01*
D15*
X19465132Y-10499519D02*
X19515132Y-10449519D01*
X19465132Y-10399519D01*
X19415132Y-10449519D01*
X19465132Y-10499519D01*
D11*
X19877513Y-10539995D02*
X19763227Y-10539995D01*
X19820370Y-10539995D02*
X19820370Y-10339995D01*
X19801322Y-10368566D01*
X19782275Y-10387614D01*
X19763227Y-10397138D01*
X19963227Y-10520947D02*
X19972751Y-10530471D01*
X19963227Y-10539995D01*
X19953703Y-10530471D01*
X19963227Y-10520947D01*
X19963227Y-10539995D01*
X20096560Y-10339995D02*
X20115608Y-10339995D01*
X20134656Y-10349519D01*
X20144179Y-10359043D01*
X20153703Y-10378090D01*
X20163227Y-10416185D01*
X20163227Y-10463804D01*
X20153703Y-10501900D01*
X20144179Y-10520947D01*
X20134656Y-10530471D01*
X20115608Y-10539995D01*
X20096560Y-10539995D01*
X20077513Y-10530471D01*
X20067989Y-10520947D01*
X20058465Y-10501900D01*
X20048941Y-10463804D01*
X20048941Y-10416185D01*
X20058465Y-10378090D01*
X20067989Y-10359043D01*
X20077513Y-10349519D01*
X20096560Y-10339995D01*
X20287037Y-10339995D02*
X20306084Y-10339995D01*
X20325132Y-10349519D01*
X20334656Y-10359043D01*
X20344179Y-10378090D01*
X20353703Y-10416185D01*
X20353703Y-10463804D01*
X20344179Y-10501900D01*
X20334656Y-10520947D01*
X20325132Y-10530471D01*
X20306084Y-10539995D01*
X20287037Y-10539995D01*
X20267989Y-10530471D01*
X20258465Y-10520947D01*
X20248941Y-10501900D01*
X20239418Y-10463804D01*
X20239418Y-10416185D01*
X20248941Y-10378090D01*
X20258465Y-10359043D01*
X20267989Y-10349519D01*
X20287037Y-10339995D01*
X20477513Y-10339995D02*
X20496560Y-10339995D01*
X20515608Y-10349519D01*
X20525132Y-10359043D01*
X20534656Y-10378090D01*
X20544179Y-10416185D01*
X20544179Y-10463804D01*
X20534656Y-10501900D01*
X20525132Y-10520947D01*
X20515608Y-10530471D01*
X20496560Y-10539995D01*
X20477513Y-10539995D01*
X20458465Y-10530471D01*
X20448941Y-10520947D01*
X20439418Y-10501900D01*
X20429894Y-10463804D01*
X20429894Y-10416185D01*
X20439418Y-10378090D01*
X20448941Y-10359043D01*
X20458465Y-10349519D01*
X20477513Y-10339995D01*
X20629894Y-10539995D02*
X20629894Y-10406662D01*
X20629894Y-10425709D02*
X20639418Y-10416185D01*
X20658465Y-10406662D01*
X20687037Y-10406662D01*
X20706084Y-10416185D01*
X20715608Y-10435233D01*
X20715608Y-10539995D01*
X20715608Y-10435233D02*
X20725132Y-10416185D01*
X20744179Y-10406662D01*
X20772751Y-10406662D01*
X20791798Y-10416185D01*
X20801322Y-10435233D01*
X20801322Y-10539995D01*
X20896560Y-10539995D02*
X20896560Y-10406662D01*
X20896560Y-10425709D02*
X20906084Y-10416185D01*
X20925132Y-10406662D01*
X20953703Y-10406662D01*
X20972751Y-10416185D01*
X20982275Y-10435233D01*
X20982275Y-10539995D01*
X20982275Y-10435233D02*
X20991798Y-10416185D01*
X21010846Y-10406662D01*
X21039418Y-10406662D01*
X21058465Y-10416185D01*
X21067989Y-10435233D01*
X21067989Y-10539995D01*
X21458465Y-10330471D02*
X21287037Y-10587614D01*
X21715608Y-10339995D02*
X21734656Y-10339995D01*
X21753703Y-10349519D01*
X21763227Y-10359043D01*
X21772751Y-10378090D01*
X21782275Y-10416185D01*
X21782275Y-10463804D01*
X21772751Y-10501900D01*
X21763227Y-10520947D01*
X21753703Y-10530471D01*
X21734656Y-10539995D01*
X21715608Y-10539995D01*
X21696560Y-10530471D01*
X21687037Y-10520947D01*
X21677513Y-10501900D01*
X21667989Y-10463804D01*
X21667989Y-10416185D01*
X21677513Y-10378090D01*
X21687037Y-10359043D01*
X21696560Y-10349519D01*
X21715608Y-10339995D01*
X21867989Y-10520947D02*
X21877513Y-10530471D01*
X21867989Y-10539995D01*
X21858465Y-10530471D01*
X21867989Y-10520947D01*
X21867989Y-10539995D01*
X22001322Y-10339995D02*
X22020370Y-10339995D01*
X22039418Y-10349519D01*
X22048941Y-10359043D01*
X22058465Y-10378090D01*
X22067989Y-10416185D01*
X22067989Y-10463804D01*
X22058465Y-10501900D01*
X22048941Y-10520947D01*
X22039418Y-10530471D01*
X22020370Y-10539995D01*
X22001322Y-10539995D01*
X21982275Y-10530471D01*
X21972751Y-10520947D01*
X21963227Y-10501900D01*
X21953703Y-10463804D01*
X21953703Y-10416185D01*
X21963227Y-10378090D01*
X21972751Y-10359043D01*
X21982275Y-10349519D01*
X22001322Y-10339995D01*
X22134656Y-10339995D02*
X22258465Y-10339995D01*
X22191798Y-10416185D01*
X22220370Y-10416185D01*
X22239418Y-10425709D01*
X22248941Y-10435233D01*
X22258465Y-10454281D01*
X22258465Y-10501900D01*
X22248941Y-10520947D01*
X22239418Y-10530471D01*
X22220370Y-10539995D01*
X22163227Y-10539995D01*
X22144179Y-10530471D01*
X22134656Y-10520947D01*
X22353703Y-10539995D02*
X22391798Y-10539995D01*
X22410846Y-10530471D01*
X22420370Y-10520947D01*
X22439417Y-10492376D01*
X22448941Y-10454281D01*
X22448941Y-10378090D01*
X22439417Y-10359043D01*
X22429894Y-10349519D01*
X22410846Y-10339995D01*
X22372751Y-10339995D01*
X22353703Y-10349519D01*
X22344179Y-10359043D01*
X22334656Y-10378090D01*
X22334656Y-10425709D01*
X22344179Y-10444757D01*
X22353703Y-10454281D01*
X22372751Y-10463804D01*
X22410846Y-10463804D01*
X22429894Y-10454281D01*
X22439417Y-10444757D01*
X22448941Y-10425709D01*
X22620370Y-10406662D02*
X22620370Y-10539995D01*
X22572751Y-10330471D02*
X22525132Y-10473328D01*
X22648941Y-10473328D01*
X22715608Y-10339995D02*
X22715608Y-10378090D01*
X22791798Y-10339995D02*
X22791798Y-10378090D01*
X23087036Y-10616185D02*
X23077513Y-10606662D01*
X23058465Y-10578090D01*
X23048941Y-10559043D01*
X23039417Y-10530471D01*
X23029894Y-10482852D01*
X23029894Y-10444757D01*
X23039417Y-10397138D01*
X23048941Y-10368566D01*
X23058465Y-10349519D01*
X23077513Y-10320947D01*
X23087036Y-10311423D01*
X23144179Y-10339995D02*
X23267989Y-10339995D01*
X23201322Y-10416185D01*
X23229894Y-10416185D01*
X23248941Y-10425709D01*
X23258465Y-10435233D01*
X23267989Y-10454281D01*
X23267989Y-10501900D01*
X23258465Y-10520947D01*
X23248941Y-10530471D01*
X23229894Y-10539995D01*
X23172751Y-10539995D01*
X23153703Y-10530471D01*
X23144179Y-10520947D01*
X23382275Y-10425709D02*
X23363227Y-10416185D01*
X23353703Y-10406662D01*
X23344179Y-10387614D01*
X23344179Y-10378090D01*
X23353703Y-10359043D01*
X23363227Y-10349519D01*
X23382275Y-10339995D01*
X23420370Y-10339995D01*
X23439417Y-10349519D01*
X23448941Y-10359043D01*
X23458465Y-10378090D01*
X23458465Y-10387614D01*
X23448941Y-10406662D01*
X23439417Y-10416185D01*
X23420370Y-10425709D01*
X23382275Y-10425709D01*
X23363227Y-10435233D01*
X23353703Y-10444757D01*
X23344179Y-10463804D01*
X23344179Y-10501900D01*
X23353703Y-10520947D01*
X23363227Y-10530471D01*
X23382275Y-10539995D01*
X23420370Y-10539995D01*
X23439417Y-10530471D01*
X23448941Y-10520947D01*
X23458465Y-10501900D01*
X23458465Y-10463804D01*
X23448941Y-10444757D01*
X23439417Y-10435233D01*
X23420370Y-10425709D01*
X23696560Y-10539995D02*
X23696560Y-10339995D01*
X23782275Y-10539995D02*
X23782275Y-10435233D01*
X23772751Y-10416185D01*
X23753703Y-10406662D01*
X23725132Y-10406662D01*
X23706084Y-10416185D01*
X23696560Y-10425709D01*
X23906084Y-10539995D02*
X23887036Y-10530471D01*
X23877513Y-10520947D01*
X23867989Y-10501900D01*
X23867989Y-10444757D01*
X23877513Y-10425709D01*
X23887036Y-10416185D01*
X23906084Y-10406662D01*
X23934656Y-10406662D01*
X23953703Y-10416185D01*
X23963227Y-10425709D01*
X23972751Y-10444757D01*
X23972751Y-10501900D01*
X23963227Y-10520947D01*
X23953703Y-10530471D01*
X23934656Y-10539995D01*
X23906084Y-10539995D01*
X24087036Y-10539995D02*
X24067989Y-10530471D01*
X24058465Y-10511423D01*
X24058465Y-10339995D01*
X24239417Y-10530471D02*
X24220370Y-10539995D01*
X24182275Y-10539995D01*
X24163227Y-10530471D01*
X24153703Y-10511423D01*
X24153703Y-10435233D01*
X24163227Y-10416185D01*
X24182275Y-10406662D01*
X24220370Y-10406662D01*
X24239417Y-10416185D01*
X24248941Y-10435233D01*
X24248941Y-10454281D01*
X24153703Y-10473328D01*
X24325132Y-10530471D02*
X24344179Y-10539995D01*
X24382275Y-10539995D01*
X24401322Y-10530471D01*
X24410846Y-10511423D01*
X24410846Y-10501900D01*
X24401322Y-10482852D01*
X24382275Y-10473328D01*
X24353703Y-10473328D01*
X24334656Y-10463804D01*
X24325132Y-10444757D01*
X24325132Y-10435233D01*
X24334656Y-10416185D01*
X24353703Y-10406662D01*
X24382275Y-10406662D01*
X24401322Y-10416185D01*
X24477513Y-10616185D02*
X24487036Y-10606662D01*
X24506084Y-10578090D01*
X24515608Y-10559043D01*
X24525132Y-10530471D01*
X24534656Y-10482852D01*
X24534656Y-10444757D01*
X24525132Y-10397138D01*
X24515608Y-10368566D01*
X24506084Y-10349519D01*
X24487036Y-10320947D01*
X24477513Y-10311423D01*
D16*
X19395132Y-10653519D02*
X19515132Y-10773519D01*
X19515132Y-10653519D02*
X19395132Y-10773519D01*
X19515132Y-10713519D02*
G75*
G03*
X19515132Y-10713519I-60000J0D01*
G01*
D11*
X19877513Y-10803995D02*
X19763227Y-10803995D01*
X19820370Y-10803995D02*
X19820370Y-10603995D01*
X19801322Y-10632566D01*
X19782275Y-10651614D01*
X19763227Y-10661138D01*
X19963227Y-10784947D02*
X19972751Y-10794471D01*
X19963227Y-10803995D01*
X19953703Y-10794471D01*
X19963227Y-10784947D01*
X19963227Y-10803995D01*
X20048941Y-10623043D02*
X20058465Y-10613519D01*
X20077513Y-10603995D01*
X20125132Y-10603995D01*
X20144179Y-10613519D01*
X20153703Y-10623043D01*
X20163227Y-10642090D01*
X20163227Y-10661138D01*
X20153703Y-10689709D01*
X20039418Y-10803995D01*
X20163227Y-10803995D01*
X20287037Y-10603995D02*
X20306084Y-10603995D01*
X20325132Y-10613519D01*
X20334656Y-10623043D01*
X20344179Y-10642090D01*
X20353703Y-10680185D01*
X20353703Y-10727804D01*
X20344179Y-10765900D01*
X20334656Y-10784947D01*
X20325132Y-10794471D01*
X20306084Y-10803995D01*
X20287037Y-10803995D01*
X20267989Y-10794471D01*
X20258465Y-10784947D01*
X20248941Y-10765900D01*
X20239418Y-10727804D01*
X20239418Y-10680185D01*
X20248941Y-10642090D01*
X20258465Y-10623043D01*
X20267989Y-10613519D01*
X20287037Y-10603995D01*
X20477513Y-10603995D02*
X20496560Y-10603995D01*
X20515608Y-10613519D01*
X20525132Y-10623043D01*
X20534656Y-10642090D01*
X20544179Y-10680185D01*
X20544179Y-10727804D01*
X20534656Y-10765900D01*
X20525132Y-10784947D01*
X20515608Y-10794471D01*
X20496560Y-10803995D01*
X20477513Y-10803995D01*
X20458465Y-10794471D01*
X20448941Y-10784947D01*
X20439418Y-10765900D01*
X20429894Y-10727804D01*
X20429894Y-10680185D01*
X20439418Y-10642090D01*
X20448941Y-10623043D01*
X20458465Y-10613519D01*
X20477513Y-10603995D01*
X20629894Y-10803995D02*
X20629894Y-10670662D01*
X20629894Y-10689709D02*
X20639418Y-10680185D01*
X20658465Y-10670662D01*
X20687037Y-10670662D01*
X20706084Y-10680185D01*
X20715608Y-10699233D01*
X20715608Y-10803995D01*
X20715608Y-10699233D02*
X20725132Y-10680185D01*
X20744179Y-10670662D01*
X20772751Y-10670662D01*
X20791798Y-10680185D01*
X20801322Y-10699233D01*
X20801322Y-10803995D01*
X20896560Y-10803995D02*
X20896560Y-10670662D01*
X20896560Y-10689709D02*
X20906084Y-10680185D01*
X20925132Y-10670662D01*
X20953703Y-10670662D01*
X20972751Y-10680185D01*
X20982275Y-10699233D01*
X20982275Y-10803995D01*
X20982275Y-10699233D02*
X20991798Y-10680185D01*
X21010846Y-10670662D01*
X21039418Y-10670662D01*
X21058465Y-10680185D01*
X21067989Y-10699233D01*
X21067989Y-10803995D01*
X21458465Y-10594471D02*
X21287037Y-10851614D01*
X21715608Y-10603995D02*
X21734656Y-10603995D01*
X21753703Y-10613519D01*
X21763227Y-10623043D01*
X21772751Y-10642090D01*
X21782275Y-10680185D01*
X21782275Y-10727804D01*
X21772751Y-10765900D01*
X21763227Y-10784947D01*
X21753703Y-10794471D01*
X21734656Y-10803995D01*
X21715608Y-10803995D01*
X21696560Y-10794471D01*
X21687037Y-10784947D01*
X21677513Y-10765900D01*
X21667989Y-10727804D01*
X21667989Y-10680185D01*
X21677513Y-10642090D01*
X21687037Y-10623043D01*
X21696560Y-10613519D01*
X21715608Y-10603995D01*
X21867989Y-10784947D02*
X21877513Y-10794471D01*
X21867989Y-10803995D01*
X21858465Y-10794471D01*
X21867989Y-10784947D01*
X21867989Y-10803995D01*
X22001322Y-10603995D02*
X22020370Y-10603995D01*
X22039418Y-10613519D01*
X22048941Y-10623043D01*
X22058465Y-10642090D01*
X22067989Y-10680185D01*
X22067989Y-10727804D01*
X22058465Y-10765900D01*
X22048941Y-10784947D01*
X22039418Y-10794471D01*
X22020370Y-10803995D01*
X22001322Y-10803995D01*
X21982275Y-10794471D01*
X21972751Y-10784947D01*
X21963227Y-10765900D01*
X21953703Y-10727804D01*
X21953703Y-10680185D01*
X21963227Y-10642090D01*
X21972751Y-10623043D01*
X21982275Y-10613519D01*
X22001322Y-10603995D01*
X22239418Y-10670662D02*
X22239418Y-10803995D01*
X22191798Y-10594471D02*
X22144179Y-10737328D01*
X22267989Y-10737328D01*
X22325132Y-10603995D02*
X22458465Y-10603995D01*
X22372751Y-10803995D01*
X22525132Y-10623043D02*
X22534656Y-10613519D01*
X22553703Y-10603995D01*
X22601322Y-10603995D01*
X22620370Y-10613519D01*
X22629894Y-10623043D01*
X22639417Y-10642090D01*
X22639417Y-10661138D01*
X22629894Y-10689709D01*
X22515608Y-10803995D01*
X22639417Y-10803995D01*
X22715608Y-10603995D02*
X22715608Y-10642090D01*
X22791798Y-10603995D02*
X22791798Y-10642090D01*
X23087036Y-10880185D02*
X23077513Y-10870662D01*
X23058465Y-10842090D01*
X23048941Y-10823043D01*
X23039417Y-10794471D01*
X23029894Y-10746852D01*
X23029894Y-10708757D01*
X23039417Y-10661138D01*
X23048941Y-10632566D01*
X23058465Y-10613519D01*
X23077513Y-10584947D01*
X23087036Y-10575423D01*
X23144179Y-10603995D02*
X23267989Y-10603995D01*
X23201322Y-10680185D01*
X23229894Y-10680185D01*
X23248941Y-10689709D01*
X23258465Y-10699233D01*
X23267989Y-10718281D01*
X23267989Y-10765900D01*
X23258465Y-10784947D01*
X23248941Y-10794471D01*
X23229894Y-10803995D01*
X23172751Y-10803995D01*
X23153703Y-10794471D01*
X23144179Y-10784947D01*
X23506084Y-10803995D02*
X23506084Y-10603995D01*
X23591798Y-10803995D02*
X23591798Y-10699233D01*
X23582275Y-10680185D01*
X23563227Y-10670662D01*
X23534656Y-10670662D01*
X23515608Y-10680185D01*
X23506084Y-10689709D01*
X23715608Y-10803995D02*
X23696560Y-10794471D01*
X23687036Y-10784947D01*
X23677513Y-10765900D01*
X23677513Y-10708757D01*
X23687036Y-10689709D01*
X23696560Y-10680185D01*
X23715608Y-10670662D01*
X23744179Y-10670662D01*
X23763227Y-10680185D01*
X23772751Y-10689709D01*
X23782275Y-10708757D01*
X23782275Y-10765900D01*
X23772751Y-10784947D01*
X23763227Y-10794471D01*
X23744179Y-10803995D01*
X23715608Y-10803995D01*
X23896560Y-10803995D02*
X23877513Y-10794471D01*
X23867989Y-10775423D01*
X23867989Y-10603995D01*
X24048941Y-10794471D02*
X24029894Y-10803995D01*
X23991798Y-10803995D01*
X23972751Y-10794471D01*
X23963227Y-10775423D01*
X23963227Y-10699233D01*
X23972751Y-10680185D01*
X23991798Y-10670662D01*
X24029894Y-10670662D01*
X24048941Y-10680185D01*
X24058465Y-10699233D01*
X24058465Y-10718281D01*
X23963227Y-10737328D01*
X24134656Y-10794471D02*
X24153703Y-10803995D01*
X24191798Y-10803995D01*
X24210846Y-10794471D01*
X24220370Y-10775423D01*
X24220370Y-10765900D01*
X24210846Y-10746852D01*
X24191798Y-10737328D01*
X24163227Y-10737328D01*
X24144179Y-10727804D01*
X24134656Y-10708757D01*
X24134656Y-10699233D01*
X24144179Y-10680185D01*
X24163227Y-10670662D01*
X24191798Y-10670662D01*
X24210846Y-10680185D01*
X24287036Y-10880185D02*
X24296560Y-10870662D01*
X24315608Y-10842090D01*
X24325132Y-10823043D01*
X24334656Y-10794471D01*
X24344179Y-10746852D01*
X24344179Y-10708757D01*
X24334656Y-10661138D01*
X24325132Y-10632566D01*
X24315608Y-10613519D01*
X24296560Y-10584947D01*
X24287036Y-10575423D01*
D17*
X19375132Y-10907519D02*
X19515132Y-11047519D01*
X19515132Y-10907519D02*
X19375132Y-11047519D01*
X19445132Y-10907519D02*
X19445132Y-11047519D01*
X19375132Y-10977519D02*
X19515132Y-10977519D01*
D11*
X19877513Y-11067995D02*
X19763227Y-11067995D01*
X19820370Y-11067995D02*
X19820370Y-10867995D01*
X19801322Y-10896566D01*
X19782275Y-10915614D01*
X19763227Y-10925138D01*
X19963227Y-11048947D02*
X19972751Y-11058471D01*
X19963227Y-11067995D01*
X19953703Y-11058471D01*
X19963227Y-11048947D01*
X19963227Y-11067995D01*
X20144179Y-10934662D02*
X20144179Y-11067995D01*
X20096560Y-10858471D02*
X20048941Y-11001328D01*
X20172751Y-11001328D01*
X20287037Y-10867995D02*
X20306084Y-10867995D01*
X20325132Y-10877519D01*
X20334656Y-10887043D01*
X20344179Y-10906090D01*
X20353703Y-10944185D01*
X20353703Y-10991804D01*
X20344179Y-11029900D01*
X20334656Y-11048947D01*
X20325132Y-11058471D01*
X20306084Y-11067995D01*
X20287037Y-11067995D01*
X20267989Y-11058471D01*
X20258465Y-11048947D01*
X20248941Y-11029900D01*
X20239418Y-10991804D01*
X20239418Y-10944185D01*
X20248941Y-10906090D01*
X20258465Y-10887043D01*
X20267989Y-10877519D01*
X20287037Y-10867995D01*
X20477513Y-10867995D02*
X20496560Y-10867995D01*
X20515608Y-10877519D01*
X20525132Y-10887043D01*
X20534656Y-10906090D01*
X20544179Y-10944185D01*
X20544179Y-10991804D01*
X20534656Y-11029900D01*
X20525132Y-11048947D01*
X20515608Y-11058471D01*
X20496560Y-11067995D01*
X20477513Y-11067995D01*
X20458465Y-11058471D01*
X20448941Y-11048947D01*
X20439418Y-11029900D01*
X20429894Y-10991804D01*
X20429894Y-10944185D01*
X20439418Y-10906090D01*
X20448941Y-10887043D01*
X20458465Y-10877519D01*
X20477513Y-10867995D01*
X20629894Y-11067995D02*
X20629894Y-10934662D01*
X20629894Y-10953709D02*
X20639418Y-10944185D01*
X20658465Y-10934662D01*
X20687037Y-10934662D01*
X20706084Y-10944185D01*
X20715608Y-10963233D01*
X20715608Y-11067995D01*
X20715608Y-10963233D02*
X20725132Y-10944185D01*
X20744179Y-10934662D01*
X20772751Y-10934662D01*
X20791798Y-10944185D01*
X20801322Y-10963233D01*
X20801322Y-11067995D01*
X20896560Y-11067995D02*
X20896560Y-10934662D01*
X20896560Y-10953709D02*
X20906084Y-10944185D01*
X20925132Y-10934662D01*
X20953703Y-10934662D01*
X20972751Y-10944185D01*
X20982275Y-10963233D01*
X20982275Y-11067995D01*
X20982275Y-10963233D02*
X20991798Y-10944185D01*
X21010846Y-10934662D01*
X21039418Y-10934662D01*
X21058465Y-10944185D01*
X21067989Y-10963233D01*
X21067989Y-11067995D01*
X21458465Y-10858471D02*
X21287037Y-11115614D01*
X21715608Y-10867995D02*
X21734656Y-10867995D01*
X21753703Y-10877519D01*
X21763227Y-10887043D01*
X21772751Y-10906090D01*
X21782275Y-10944185D01*
X21782275Y-10991804D01*
X21772751Y-11029900D01*
X21763227Y-11048947D01*
X21753703Y-11058471D01*
X21734656Y-11067995D01*
X21715608Y-11067995D01*
X21696560Y-11058471D01*
X21687037Y-11048947D01*
X21677513Y-11029900D01*
X21667989Y-10991804D01*
X21667989Y-10944185D01*
X21677513Y-10906090D01*
X21687037Y-10887043D01*
X21696560Y-10877519D01*
X21715608Y-10867995D01*
X21867989Y-11048947D02*
X21877513Y-11058471D01*
X21867989Y-11067995D01*
X21858465Y-11058471D01*
X21867989Y-11048947D01*
X21867989Y-11067995D01*
X22001322Y-10867995D02*
X22020370Y-10867995D01*
X22039418Y-10877519D01*
X22048941Y-10887043D01*
X22058465Y-10906090D01*
X22067989Y-10944185D01*
X22067989Y-10991804D01*
X22058465Y-11029900D01*
X22048941Y-11048947D01*
X22039418Y-11058471D01*
X22020370Y-11067995D01*
X22001322Y-11067995D01*
X21982275Y-11058471D01*
X21972751Y-11048947D01*
X21963227Y-11029900D01*
X21953703Y-10991804D01*
X21953703Y-10944185D01*
X21963227Y-10906090D01*
X21972751Y-10887043D01*
X21982275Y-10877519D01*
X22001322Y-10867995D01*
X22248941Y-10867995D02*
X22153703Y-10867995D01*
X22144179Y-10963233D01*
X22153703Y-10953709D01*
X22172751Y-10944185D01*
X22220370Y-10944185D01*
X22239418Y-10953709D01*
X22248941Y-10963233D01*
X22258465Y-10982281D01*
X22258465Y-11029900D01*
X22248941Y-11048947D01*
X22239418Y-11058471D01*
X22220370Y-11067995D01*
X22172751Y-11067995D01*
X22153703Y-11058471D01*
X22144179Y-11048947D01*
X22439417Y-10867995D02*
X22344179Y-10867995D01*
X22334656Y-10963233D01*
X22344179Y-10953709D01*
X22363227Y-10944185D01*
X22410846Y-10944185D01*
X22429894Y-10953709D01*
X22439417Y-10963233D01*
X22448941Y-10982281D01*
X22448941Y-11029900D01*
X22439417Y-11048947D01*
X22429894Y-11058471D01*
X22410846Y-11067995D01*
X22363227Y-11067995D01*
X22344179Y-11058471D01*
X22334656Y-11048947D01*
X22639417Y-11067995D02*
X22525132Y-11067995D01*
X22582275Y-11067995D02*
X22582275Y-10867995D01*
X22563227Y-10896566D01*
X22544179Y-10915614D01*
X22525132Y-10925138D01*
X22715608Y-10867995D02*
X22715608Y-10906090D01*
X22791798Y-10867995D02*
X22791798Y-10906090D01*
X23087036Y-11144185D02*
X23077513Y-11134662D01*
X23058465Y-11106090D01*
X23048941Y-11087043D01*
X23039417Y-11058471D01*
X23029894Y-11010852D01*
X23029894Y-10972757D01*
X23039417Y-10925138D01*
X23048941Y-10896566D01*
X23058465Y-10877519D01*
X23077513Y-10848947D01*
X23087036Y-10839423D01*
X23267989Y-11067995D02*
X23153703Y-11067995D01*
X23210846Y-11067995D02*
X23210846Y-10867995D01*
X23191798Y-10896566D01*
X23172751Y-10915614D01*
X23153703Y-10925138D01*
X23344179Y-10887043D02*
X23353703Y-10877519D01*
X23372751Y-10867995D01*
X23420370Y-10867995D01*
X23439417Y-10877519D01*
X23448941Y-10887043D01*
X23458465Y-10906090D01*
X23458465Y-10925138D01*
X23448941Y-10953709D01*
X23334656Y-11067995D01*
X23458465Y-11067995D01*
X23696560Y-11067995D02*
X23696560Y-10867995D01*
X23782275Y-11067995D02*
X23782275Y-10963233D01*
X23772751Y-10944185D01*
X23753703Y-10934662D01*
X23725132Y-10934662D01*
X23706084Y-10944185D01*
X23696560Y-10953709D01*
X23906084Y-11067995D02*
X23887036Y-11058471D01*
X23877513Y-11048947D01*
X23867989Y-11029900D01*
X23867989Y-10972757D01*
X23877513Y-10953709D01*
X23887036Y-10944185D01*
X23906084Y-10934662D01*
X23934656Y-10934662D01*
X23953703Y-10944185D01*
X23963227Y-10953709D01*
X23972751Y-10972757D01*
X23972751Y-11029900D01*
X23963227Y-11048947D01*
X23953703Y-11058471D01*
X23934656Y-11067995D01*
X23906084Y-11067995D01*
X24087036Y-11067995D02*
X24067989Y-11058471D01*
X24058465Y-11039423D01*
X24058465Y-10867995D01*
X24239417Y-11058471D02*
X24220370Y-11067995D01*
X24182275Y-11067995D01*
X24163227Y-11058471D01*
X24153703Y-11039423D01*
X24153703Y-10963233D01*
X24163227Y-10944185D01*
X24182275Y-10934662D01*
X24220370Y-10934662D01*
X24239417Y-10944185D01*
X24248941Y-10963233D01*
X24248941Y-10982281D01*
X24153703Y-11001328D01*
X24325132Y-11058471D02*
X24344179Y-11067995D01*
X24382275Y-11067995D01*
X24401322Y-11058471D01*
X24410846Y-11039423D01*
X24410846Y-11029900D01*
X24401322Y-11010852D01*
X24382275Y-11001328D01*
X24353703Y-11001328D01*
X24334656Y-10991804D01*
X24325132Y-10972757D01*
X24325132Y-10963233D01*
X24334656Y-10944185D01*
X24353703Y-10934662D01*
X24382275Y-10934662D01*
X24401322Y-10944185D01*
X24477513Y-11144185D02*
X24487036Y-11134662D01*
X24506084Y-11106090D01*
X24515608Y-11087043D01*
X24525132Y-11058471D01*
X24534656Y-11010852D01*
X24534656Y-10972757D01*
X24525132Y-10925138D01*
X24515608Y-10896566D01*
X24506084Y-10877519D01*
X24487036Y-10848947D01*
X24477513Y-10839423D01*
D18*
X19355132Y-11161519D02*
X19515132Y-11321519D01*
X19515132Y-11161519D02*
X19355132Y-11321519D01*
X19491701Y-11298088D02*
X19491701Y-11184950D01*
X19378563Y-11184950D01*
X19378563Y-11298088D01*
X19491701Y-11298088D01*
D11*
X19877513Y-11331995D02*
X19763227Y-11331995D01*
X19820370Y-11331995D02*
X19820370Y-11131995D01*
X19801322Y-11160566D01*
X19782275Y-11179614D01*
X19763227Y-11189138D01*
X19963227Y-11312947D02*
X19972751Y-11322471D01*
X19963227Y-11331995D01*
X19953703Y-11322471D01*
X19963227Y-11312947D01*
X19963227Y-11331995D01*
X20144179Y-11131995D02*
X20106084Y-11131995D01*
X20087037Y-11141519D01*
X20077513Y-11151043D01*
X20058465Y-11179614D01*
X20048941Y-11217709D01*
X20048941Y-11293900D01*
X20058465Y-11312947D01*
X20067989Y-11322471D01*
X20087037Y-11331995D01*
X20125132Y-11331995D01*
X20144179Y-11322471D01*
X20153703Y-11312947D01*
X20163227Y-11293900D01*
X20163227Y-11246281D01*
X20153703Y-11227233D01*
X20144179Y-11217709D01*
X20125132Y-11208185D01*
X20087037Y-11208185D01*
X20067989Y-11217709D01*
X20058465Y-11227233D01*
X20048941Y-11246281D01*
X20287037Y-11131995D02*
X20306084Y-11131995D01*
X20325132Y-11141519D01*
X20334656Y-11151043D01*
X20344179Y-11170090D01*
X20353703Y-11208185D01*
X20353703Y-11255804D01*
X20344179Y-11293900D01*
X20334656Y-11312947D01*
X20325132Y-11322471D01*
X20306084Y-11331995D01*
X20287037Y-11331995D01*
X20267989Y-11322471D01*
X20258465Y-11312947D01*
X20248941Y-11293900D01*
X20239418Y-11255804D01*
X20239418Y-11208185D01*
X20248941Y-11170090D01*
X20258465Y-11151043D01*
X20267989Y-11141519D01*
X20287037Y-11131995D01*
X20477513Y-11131995D02*
X20496560Y-11131995D01*
X20515608Y-11141519D01*
X20525132Y-11151043D01*
X20534656Y-11170090D01*
X20544179Y-11208185D01*
X20544179Y-11255804D01*
X20534656Y-11293900D01*
X20525132Y-11312947D01*
X20515608Y-11322471D01*
X20496560Y-11331995D01*
X20477513Y-11331995D01*
X20458465Y-11322471D01*
X20448941Y-11312947D01*
X20439418Y-11293900D01*
X20429894Y-11255804D01*
X20429894Y-11208185D01*
X20439418Y-11170090D01*
X20448941Y-11151043D01*
X20458465Y-11141519D01*
X20477513Y-11131995D01*
X20629894Y-11331995D02*
X20629894Y-11198661D01*
X20629894Y-11217709D02*
X20639418Y-11208185D01*
X20658465Y-11198661D01*
X20687037Y-11198661D01*
X20706084Y-11208185D01*
X20715608Y-11227233D01*
X20715608Y-11331995D01*
X20715608Y-11227233D02*
X20725132Y-11208185D01*
X20744179Y-11198661D01*
X20772751Y-11198661D01*
X20791798Y-11208185D01*
X20801322Y-11227233D01*
X20801322Y-11331995D01*
X20896560Y-11331995D02*
X20896560Y-11198661D01*
X20896560Y-11217709D02*
X20906084Y-11208185D01*
X20925132Y-11198661D01*
X20953703Y-11198661D01*
X20972751Y-11208185D01*
X20982275Y-11227233D01*
X20982275Y-11331995D01*
X20982275Y-11227233D02*
X20991798Y-11208185D01*
X21010846Y-11198661D01*
X21039418Y-11198661D01*
X21058465Y-11208185D01*
X21067989Y-11227233D01*
X21067989Y-11331995D01*
X21458465Y-11122471D02*
X21287037Y-11379614D01*
X21715608Y-11131995D02*
X21734656Y-11131995D01*
X21753703Y-11141519D01*
X21763227Y-11151043D01*
X21772751Y-11170090D01*
X21782275Y-11208185D01*
X21782275Y-11255804D01*
X21772751Y-11293900D01*
X21763227Y-11312947D01*
X21753703Y-11322471D01*
X21734656Y-11331995D01*
X21715608Y-11331995D01*
X21696560Y-11322471D01*
X21687037Y-11312947D01*
X21677513Y-11293900D01*
X21667989Y-11255804D01*
X21667989Y-11208185D01*
X21677513Y-11170090D01*
X21687037Y-11151043D01*
X21696560Y-11141519D01*
X21715608Y-11131995D01*
X21867989Y-11312947D02*
X21877513Y-11322471D01*
X21867989Y-11331995D01*
X21858465Y-11322471D01*
X21867989Y-11312947D01*
X21867989Y-11331995D01*
X22001322Y-11131995D02*
X22020370Y-11131995D01*
X22039418Y-11141519D01*
X22048941Y-11151043D01*
X22058465Y-11170090D01*
X22067989Y-11208185D01*
X22067989Y-11255804D01*
X22058465Y-11293900D01*
X22048941Y-11312947D01*
X22039418Y-11322471D01*
X22020370Y-11331995D01*
X22001322Y-11331995D01*
X21982275Y-11322471D01*
X21972751Y-11312947D01*
X21963227Y-11293900D01*
X21953703Y-11255804D01*
X21953703Y-11208185D01*
X21963227Y-11170090D01*
X21972751Y-11151043D01*
X21982275Y-11141519D01*
X22001322Y-11131995D01*
X22239418Y-11131995D02*
X22201322Y-11131995D01*
X22182275Y-11141519D01*
X22172751Y-11151043D01*
X22153703Y-11179614D01*
X22144179Y-11217709D01*
X22144179Y-11293900D01*
X22153703Y-11312947D01*
X22163227Y-11322471D01*
X22182275Y-11331995D01*
X22220370Y-11331995D01*
X22239418Y-11322471D01*
X22248941Y-11312947D01*
X22258465Y-11293900D01*
X22258465Y-11246281D01*
X22248941Y-11227233D01*
X22239418Y-11217709D01*
X22220370Y-11208185D01*
X22182275Y-11208185D01*
X22163227Y-11217709D01*
X22153703Y-11227233D01*
X22144179Y-11246281D01*
X22325132Y-11131995D02*
X22448941Y-11131995D01*
X22382275Y-11208185D01*
X22410846Y-11208185D01*
X22429894Y-11217709D01*
X22439417Y-11227233D01*
X22448941Y-11246281D01*
X22448941Y-11293900D01*
X22439417Y-11312947D01*
X22429894Y-11322471D01*
X22410846Y-11331995D01*
X22353703Y-11331995D01*
X22334656Y-11322471D01*
X22325132Y-11312947D01*
X22572751Y-11131995D02*
X22591798Y-11131995D01*
X22610846Y-11141519D01*
X22620370Y-11151043D01*
X22629894Y-11170090D01*
X22639417Y-11208185D01*
X22639417Y-11255804D01*
X22629894Y-11293900D01*
X22620370Y-11312947D01*
X22610846Y-11322471D01*
X22591798Y-11331995D01*
X22572751Y-11331995D01*
X22553703Y-11322471D01*
X22544179Y-11312947D01*
X22534656Y-11293900D01*
X22525132Y-11255804D01*
X22525132Y-11208185D01*
X22534656Y-11170090D01*
X22544179Y-11151043D01*
X22553703Y-11141519D01*
X22572751Y-11131995D01*
X22715608Y-11131995D02*
X22715608Y-11170090D01*
X22791798Y-11131995D02*
X22791798Y-11170090D01*
X23087036Y-11408185D02*
X23077513Y-11398661D01*
X23058465Y-11370090D01*
X23048941Y-11351042D01*
X23039417Y-11322471D01*
X23029894Y-11274852D01*
X23029894Y-11236757D01*
X23039417Y-11189138D01*
X23048941Y-11160566D01*
X23058465Y-11141519D01*
X23077513Y-11112947D01*
X23087036Y-11103423D01*
X23153703Y-11151043D02*
X23163227Y-11141519D01*
X23182275Y-11131995D01*
X23229894Y-11131995D01*
X23248941Y-11141519D01*
X23258465Y-11151043D01*
X23267989Y-11170090D01*
X23267989Y-11189138D01*
X23258465Y-11217709D01*
X23144179Y-11331995D01*
X23267989Y-11331995D01*
X23506084Y-11331995D02*
X23506084Y-11131995D01*
X23591798Y-11331995D02*
X23591798Y-11227233D01*
X23582275Y-11208185D01*
X23563227Y-11198661D01*
X23534656Y-11198661D01*
X23515608Y-11208185D01*
X23506084Y-11217709D01*
X23715608Y-11331995D02*
X23696560Y-11322471D01*
X23687036Y-11312947D01*
X23677513Y-11293900D01*
X23677513Y-11236757D01*
X23687036Y-11217709D01*
X23696560Y-11208185D01*
X23715608Y-11198661D01*
X23744179Y-11198661D01*
X23763227Y-11208185D01*
X23772751Y-11217709D01*
X23782275Y-11236757D01*
X23782275Y-11293900D01*
X23772751Y-11312947D01*
X23763227Y-11322471D01*
X23744179Y-11331995D01*
X23715608Y-11331995D01*
X23896560Y-11331995D02*
X23877513Y-11322471D01*
X23867989Y-11303423D01*
X23867989Y-11131995D01*
X24048941Y-11322471D02*
X24029894Y-11331995D01*
X23991798Y-11331995D01*
X23972751Y-11322471D01*
X23963227Y-11303423D01*
X23963227Y-11227233D01*
X23972751Y-11208185D01*
X23991798Y-11198661D01*
X24029894Y-11198661D01*
X24048941Y-11208185D01*
X24058465Y-11227233D01*
X24058465Y-11246281D01*
X23963227Y-11265328D01*
X24134656Y-11322471D02*
X24153703Y-11331995D01*
X24191798Y-11331995D01*
X24210846Y-11322471D01*
X24220370Y-11303423D01*
X24220370Y-11293900D01*
X24210846Y-11274852D01*
X24191798Y-11265328D01*
X24163227Y-11265328D01*
X24144179Y-11255804D01*
X24134656Y-11236757D01*
X24134656Y-11227233D01*
X24144179Y-11208185D01*
X24163227Y-11198661D01*
X24191798Y-11198661D01*
X24210846Y-11208185D01*
X24287036Y-11408185D02*
X24296560Y-11398661D01*
X24315608Y-11370090D01*
X24325132Y-11351042D01*
X24334656Y-11322471D01*
X24344179Y-11274852D01*
X24344179Y-11236757D01*
X24334656Y-11189138D01*
X24325132Y-11160566D01*
X24315608Y-11141519D01*
X24296560Y-11112947D01*
X24287036Y-11103423D01*
M02*
