%TF.GenerationSoftware,KiCad,Pcbnew,(5.1.6-0-10_14)*%
%TF.CreationDate,2022-07-24T23:06:08-05:00*%
%TF.ProjectId,spudglo_driver_v3p1,73707564-676c-46f5-9f64-72697665725f,rev?*%
%TF.SameCoordinates,Original*%
%TF.FileFunction,Soldermask,Bot*%
%TF.FilePolarity,Negative*%
%FSLAX46Y46*%
G04 Gerber Fmt 4.6, Leading zero omitted, Abs format (unit mm)*
G04 Created by KiCad (PCBNEW (5.1.6-0-10_14)) date 2022-07-24 23:06:08*
%MOMM*%
%LPD*%
G01*
G04 APERTURE LIST*
%ADD10C,5.100000*%
%ADD11R,1.800000X1.800000*%
%ADD12O,1.800000X1.800000*%
%ADD13C,2.700000*%
%ADD14R,1.900000X4.500000*%
%ADD15O,1.900000X4.100000*%
%ADD16O,4.100000X1.900000*%
%ADD17O,2.500000X1.700000*%
%ADD18R,2.500000X1.700000*%
%ADD19C,8.500000*%
G04 APERTURE END LIST*
D10*
%TO.C,J33*%
X143610000Y-131240000D03*
%TD*%
%TO.C,J34*%
X186974000Y-131358000D03*
%TD*%
D11*
%TO.C,U10*%
X163999718Y-111051000D03*
D12*
X163999718Y-108511000D03*
X163999718Y-105971000D03*
X163999718Y-103431000D03*
X163999718Y-100891000D03*
%TD*%
%TO.C,U5*%
X141401412Y-96776537D03*
X141401412Y-94236537D03*
X141401412Y-91696537D03*
X141401412Y-89156537D03*
D11*
X141401412Y-86616537D03*
%TD*%
%TO.C,U9*%
X163953092Y-83010883D03*
D12*
X163953092Y-80470883D03*
X163953092Y-77930883D03*
X163953092Y-75390883D03*
X163953092Y-72850883D03*
%TD*%
%TO.C,J31*%
X175061000Y-117584000D03*
X172521000Y-117584000D03*
X169981000Y-117584000D03*
D11*
X167441000Y-117584000D03*
%TD*%
D12*
%TO.C,J30*%
X201710000Y-96640000D03*
X201710000Y-99180000D03*
X201710000Y-101720000D03*
D11*
X201710000Y-104260000D03*
%TD*%
D12*
%TO.C,J29*%
X186280000Y-125891000D03*
X183740000Y-125891000D03*
X181200000Y-125891000D03*
D11*
X178660000Y-125891000D03*
%TD*%
D13*
%TO.C,J28*%
X177728000Y-122040000D03*
%TD*%
%TO.C,J27*%
X186577999Y-118059400D03*
%TD*%
D11*
%TO.C,J26*%
X167236000Y-125909000D03*
D12*
X169776000Y-125909000D03*
X172316000Y-125909000D03*
X174856000Y-125909000D03*
%TD*%
D11*
%TO.C,J25*%
X201510000Y-114640000D03*
D12*
X201510000Y-117180000D03*
X201510000Y-119720000D03*
X201510000Y-122260000D03*
%TD*%
D13*
%TO.C,J24*%
X190388000Y-118059400D03*
%TD*%
%TO.C,J2*%
X181491000Y-121927000D03*
%TD*%
D14*
%TO.C,J1*%
X136325000Y-109020000D03*
D15*
X130525000Y-109020000D03*
D16*
X133325000Y-113820000D03*
%TD*%
D10*
%TO.C,J20*%
X127410000Y-117040000D03*
%TD*%
D13*
%TO.C,J13*%
X188619004Y-110942478D03*
%TD*%
D11*
%TO.C,J3*%
X171619280Y-113847704D03*
D12*
X171619280Y-111307704D03*
X171619280Y-108767704D03*
X171619280Y-106227704D03*
%TD*%
D13*
%TO.C,J22*%
X184776004Y-110928478D03*
%TD*%
%TO.C,J19*%
X196239003Y-110942478D03*
%TD*%
%TO.C,J17*%
X192429003Y-110942479D03*
%TD*%
%TO.C,J4*%
X197923654Y-92975238D03*
%TD*%
%TO.C,J6*%
X192429003Y-107132478D03*
%TD*%
D12*
%TO.C,J16*%
X201668000Y-84176000D03*
D11*
X199128000Y-84176000D03*
%TD*%
%TO.C,J14*%
X199160000Y-88189000D03*
D12*
X201700000Y-88189000D03*
%TD*%
D13*
%TO.C,J23*%
X194113655Y-92975238D03*
%TD*%
D10*
%TO.C,J21*%
X127410000Y-123040000D03*
%TD*%
D12*
%TO.C,SW1*%
X179610780Y-83629700D03*
D11*
X179610780Y-81089700D03*
%TD*%
D13*
%TO.C,J15*%
X196239003Y-107132478D03*
%TD*%
%TO.C,J12*%
X188619004Y-114752479D03*
%TD*%
%TO.C,J11*%
X192429003Y-114752480D03*
%TD*%
%TO.C,J10*%
X184776003Y-114738479D03*
%TD*%
D12*
%TO.C,J18*%
X179638000Y-77283000D03*
X179638000Y-74743000D03*
X182178000Y-77283000D03*
X182178000Y-74743000D03*
X184718000Y-77283000D03*
X184718000Y-74743000D03*
X187258000Y-77283000D03*
D11*
X187258000Y-74743000D03*
%TD*%
D17*
%TO.C,U7*%
X131930000Y-83840000D03*
X124310000Y-101620000D03*
X131930000Y-86380000D03*
X124310000Y-99080000D03*
X131930000Y-88920000D03*
X124310000Y-96540000D03*
X131930000Y-91460000D03*
X124310000Y-94000000D03*
X131930000Y-94000000D03*
X124310000Y-91460000D03*
X131930000Y-96540000D03*
X124310000Y-88920000D03*
X131930000Y-99080000D03*
X124310000Y-86380000D03*
X131930000Y-101620000D03*
D18*
X124310000Y-83840000D03*
%TD*%
D13*
%TO.C,J9*%
X196239003Y-114752479D03*
%TD*%
%TO.C,J8*%
X190303654Y-92975238D03*
%TD*%
%TO.C,J7*%
X188619003Y-107132478D03*
%TD*%
%TO.C,J5*%
X184776004Y-107118478D03*
%TD*%
D11*
%TO.C,U11*%
X141410000Y-114940000D03*
D12*
X141410000Y-117480000D03*
X141410000Y-120020000D03*
X141410000Y-122560000D03*
X141410000Y-125100000D03*
%TD*%
D19*
%TO.C,H1*%
X133334140Y-131099440D03*
%TD*%
%TO.C,H2*%
X196654640Y-75403240D03*
%TD*%
%TO.C,H3*%
X196654640Y-131089440D03*
%TD*%
%TO.C,H4*%
X133334140Y-75403240D03*
%TD*%
M02*
