G04 #@! TF.GenerationSoftware,KiCad,Pcbnew,8.0.5*
G04 #@! TF.CreationDate,2026-02-01T21:17:21-06:00*
G04 #@! TF.ProjectId,spudglo_driver_v9p0,73707564-676c-46f5-9f64-72697665725f,rev?*
G04 #@! TF.SameCoordinates,Original*
G04 #@! TF.FileFunction,Paste,Top*
G04 #@! TF.FilePolarity,Positive*
%FSLAX46Y46*%
G04 Gerber Fmt 4.6, Leading zero omitted, Abs format (unit mm)*
G04 Created by KiCad (PCBNEW 8.0.5) date 2026-02-01 21:17:21*
%MOMM*%
%LPD*%
G01*
G04 APERTURE LIST*
G04 Aperture macros list*
%AMRoundRect*
0 Rectangle with rounded corners*
0 $1 Rounding radius*
0 $2 $3 $4 $5 $6 $7 $8 $9 X,Y pos of 4 corners*
0 Add a 4 corners polygon primitive as box body*
4,1,4,$2,$3,$4,$5,$6,$7,$8,$9,$2,$3,0*
0 Add four circle primitives for the rounded corners*
1,1,$1+$1,$2,$3*
1,1,$1+$1,$4,$5*
1,1,$1+$1,$6,$7*
1,1,$1+$1,$8,$9*
0 Add four rect primitives between the rounded corners*
20,1,$1+$1,$2,$3,$4,$5,0*
20,1,$1+$1,$4,$5,$6,$7,0*
20,1,$1+$1,$6,$7,$8,$9,0*
20,1,$1+$1,$8,$9,$2,$3,0*%
G04 Aperture macros list end*
%ADD10C,0.000000*%
%ADD11R,2.200000X1.200000*%
%ADD12R,2.200000X3.500000*%
%ADD13RoundRect,0.250000X0.475000X-0.337500X0.475000X0.337500X-0.475000X0.337500X-0.475000X-0.337500X0*%
%ADD14RoundRect,0.250000X-0.337500X-0.475000X0.337500X-0.475000X0.337500X0.475000X-0.337500X0.475000X0*%
%ADD15RoundRect,0.250000X0.337500X0.475000X-0.337500X0.475000X-0.337500X-0.475000X0.337500X-0.475000X0*%
%ADD16RoundRect,0.250000X-0.475000X0.337500X-0.475000X-0.337500X0.475000X-0.337500X0.475000X0.337500X0*%
%ADD17RoundRect,0.075000X-0.700000X-0.075000X0.700000X-0.075000X0.700000X0.075000X-0.700000X0.075000X0*%
%ADD18RoundRect,0.075000X-0.075000X-0.700000X0.075000X-0.700000X0.075000X0.700000X-0.075000X0.700000X0*%
%ADD19RoundRect,0.100000X-0.100000X0.637500X-0.100000X-0.637500X0.100000X-0.637500X0.100000X0.637500X0*%
%ADD20R,4.000000X3.000000*%
%ADD21R,2.184400X3.200400*%
%ADD22R,1.397000X0.533400*%
%ADD23R,1.200000X1.000000*%
G04 APERTURE END LIST*
D10*
G36*
X114566701Y-68959600D02*
G01*
X114566700Y-70788399D01*
X112648999Y-70788400D01*
X112001300Y-70140700D01*
X111188502Y-70140701D01*
X111188501Y-69607301D01*
X112001302Y-69607299D01*
X112648999Y-68959599D01*
X114566701Y-68959600D01*
G37*
D11*
X105866000Y-57136000D03*
X105866000Y-59436000D03*
X105866000Y-61736000D03*
D12*
X112066000Y-59436000D03*
D13*
X121158000Y-78994000D03*
X121158000Y-76919000D03*
X107950000Y-67818000D03*
X107950000Y-65743000D03*
D14*
X109939000Y-64008000D03*
X112014000Y-64008000D03*
X109939000Y-66040000D03*
X112014000Y-66040000D03*
D15*
X105410000Y-54864000D03*
X107485000Y-54864000D03*
D14*
X112565000Y-54885500D03*
X110490000Y-54885500D03*
D16*
X143520000Y-76625000D03*
X143520000Y-78700000D03*
D15*
X119380000Y-64262000D03*
X117305000Y-64262000D03*
X117305000Y-69596000D03*
X119380000Y-69596000D03*
D13*
X123190000Y-78994000D03*
X123190000Y-76919000D03*
D15*
X117305000Y-73660000D03*
X119380000Y-73660000D03*
X117305000Y-71628000D03*
X119380000Y-71628000D03*
D13*
X115316000Y-67331500D03*
X115316000Y-65256500D03*
D15*
X131826000Y-78486000D03*
X129751000Y-78486000D03*
D13*
X121270000Y-65310000D03*
X121270000Y-63235000D03*
X107950000Y-71649500D03*
X107950000Y-69574500D03*
D17*
X122849001Y-66608000D03*
X122849001Y-67107999D03*
X122849000Y-67608000D03*
X122849000Y-68108000D03*
X122849000Y-68608000D03*
X122849000Y-69108000D03*
X122849000Y-69608000D03*
X122848998Y-70108001D03*
X122849000Y-70607997D03*
X122849000Y-71108000D03*
X122848999Y-71607998D03*
X122849003Y-72107999D03*
X122849000Y-72608000D03*
X122849000Y-73108000D03*
X122849000Y-73608000D03*
X122849001Y-74108000D03*
D18*
X124774000Y-76032999D03*
X125273999Y-76032999D03*
X125774000Y-76033000D03*
X126274000Y-76033000D03*
X126774000Y-76033000D03*
X127274000Y-76033000D03*
X127774000Y-76033000D03*
X128274001Y-76033002D03*
X128773997Y-76033000D03*
X129274000Y-76033000D03*
X129773998Y-76033001D03*
X130273999Y-76032997D03*
X130774000Y-76033000D03*
X131274000Y-76033000D03*
X131774000Y-76033000D03*
X132274000Y-76032999D03*
D17*
X134198999Y-74108000D03*
X134198999Y-73608001D03*
X134199000Y-73108000D03*
X134199000Y-72608000D03*
X134199000Y-72108000D03*
X134199000Y-71608000D03*
X134199000Y-71108000D03*
X134199002Y-70607999D03*
X134199000Y-70108003D03*
X134199000Y-69608000D03*
X134199001Y-69108002D03*
X134198997Y-68608001D03*
X134199000Y-68108000D03*
X134199000Y-67608000D03*
X134199000Y-67108000D03*
X134198999Y-66608000D03*
D18*
X132274000Y-64683001D03*
X131774001Y-64683001D03*
X131274000Y-64683000D03*
X130774000Y-64683000D03*
X130274000Y-64683000D03*
X129774000Y-64683000D03*
X129274000Y-64683000D03*
X128773999Y-64682998D03*
X128274003Y-64683000D03*
X127774000Y-64683000D03*
X127274002Y-64682999D03*
X126774001Y-64683003D03*
X126274000Y-64683000D03*
X125774000Y-64683000D03*
X125274000Y-64683000D03*
X124774000Y-64683001D03*
D19*
X141863000Y-72829501D03*
X141213000Y-72829500D03*
X140563000Y-72829500D03*
X139913000Y-72829500D03*
X139262999Y-72829501D03*
X138613001Y-72829501D03*
X137963000Y-72829500D03*
X137313001Y-72829500D03*
X136662999Y-72829501D03*
X136013001Y-72829496D03*
X136013000Y-78554499D03*
X136663000Y-78554500D03*
X137313000Y-78554500D03*
X137963000Y-78554500D03*
X138613001Y-78554499D03*
X139262999Y-78554499D03*
X139913000Y-78554500D03*
X140562999Y-78554500D03*
X141213001Y-78554499D03*
X141862999Y-78554504D03*
D20*
X99568000Y-81680000D03*
X99568001Y-87280001D03*
D21*
X108381800Y-76199998D03*
X114630200Y-76200002D03*
D22*
X110490000Y-68374000D03*
X110489997Y-69873999D03*
X110490000Y-71374000D03*
D23*
X117259998Y-67451999D03*
X118959995Y-67451999D03*
X118960002Y-66152001D03*
X117260005Y-66152001D03*
M02*
