%TF.GenerationSoftware,KiCad,Pcbnew,8.0.5*%
%TF.CreationDate,2025-03-10T18:58:42-05:00*%
%TF.ProjectId,programmer_adapter_v3p0,70726f67-7261-46d6-9d65-725f61646170,rev?*%
%TF.SameCoordinates,Original*%
%TF.FileFunction,Drillmap*%
%TF.FilePolarity,Positive*%
%FSLAX45Y45*%
G04 Gerber Fmt 4.5, Leading zero omitted, Abs format (unit mm)*
G04 Created by KiCad (PCBNEW 8.0.5) date 2025-03-10 18:58:42*
%MOMM*%
%LPD*%
G01*
G04 APERTURE LIST*
%ADD10C,0.100000*%
%ADD11C,0.200000*%
G04 APERTURE END LIST*
D10*
X10840000Y-7870000D02*
X10840000Y-11070000D01*
X13699776Y-7870000D02*
X14911138Y-9081362D01*
X10840000Y-11070000D02*
X13699776Y-11070000D01*
X10840000Y-7870000D02*
X13699776Y-7870000D01*
X14910000Y-9901362D02*
X13699776Y-11070000D01*
X14909888Y-9901362D02*
X15080138Y-9901362D01*
X15080138Y-9901362D02*
X15080138Y-9861362D01*
X15295138Y-9081362D02*
X14911138Y-9081362D01*
X15295138Y-9861362D02*
X15080138Y-9861362D01*
X15340138Y-9113862D02*
X15295138Y-9081362D01*
X15340138Y-9158862D02*
X15340138Y-9113862D01*
X15340138Y-9783862D02*
X15340138Y-9824362D01*
X15340138Y-9824362D02*
X15295138Y-9861362D01*
X15345138Y-9481362D02*
X15345138Y-9381362D01*
X15365138Y-9501362D02*
X15385138Y-9501362D01*
X15385138Y-9178862D02*
X15360138Y-9178862D01*
X15385138Y-9361362D02*
X15365138Y-9361362D01*
X15385138Y-9763862D02*
X15360138Y-9763862D01*
X15405138Y-9341362D02*
X15405138Y-9198862D01*
X15405138Y-9521362D02*
X15405138Y-9743862D01*
X15340138Y-9783862D02*
G75*
G02*
X15360138Y-9763862I20000J0D01*
G01*
X15345138Y-9381362D02*
G75*
G02*
X15365138Y-9361362I20000J0D01*
G01*
X15360138Y-9178862D02*
G75*
G02*
X15340138Y-9158862I0J20000D01*
G01*
X15365138Y-9501362D02*
G75*
G02*
X15345138Y-9481362I0J20000D01*
G01*
X15385138Y-9178862D02*
G75*
G02*
X15405138Y-9198862I0J-20000D01*
G01*
X15385138Y-9501362D02*
G75*
G02*
X15405138Y-9521362I0J-20000D01*
G01*
X15405138Y-9341362D02*
G75*
G02*
X15385138Y-9361362I-20000J0D01*
G01*
X15405138Y-9743862D02*
G75*
G02*
X15385138Y-9763862I-20000J0D01*
G01*
D11*
D10*
X11527500Y-9138500D02*
X11592500Y-9203500D01*
X11592500Y-9138500D02*
X11527500Y-9203500D01*
X11527500Y-9716500D02*
X11592500Y-9781500D01*
X11592500Y-9716500D02*
X11527500Y-9781500D01*
D11*
X11095777Y-11386484D02*
X11095777Y-11186484D01*
X11095777Y-11186484D02*
X11143396Y-11186484D01*
X11143396Y-11186484D02*
X11171967Y-11196008D01*
X11171967Y-11196008D02*
X11191015Y-11215055D01*
X11191015Y-11215055D02*
X11200539Y-11234103D01*
X11200539Y-11234103D02*
X11210062Y-11272198D01*
X11210062Y-11272198D02*
X11210062Y-11300769D01*
X11210062Y-11300769D02*
X11200539Y-11338865D01*
X11200539Y-11338865D02*
X11191015Y-11357912D01*
X11191015Y-11357912D02*
X11171967Y-11376960D01*
X11171967Y-11376960D02*
X11143396Y-11386484D01*
X11143396Y-11386484D02*
X11095777Y-11386484D01*
X11295777Y-11386484D02*
X11295777Y-11253150D01*
X11295777Y-11291246D02*
X11305301Y-11272198D01*
X11305301Y-11272198D02*
X11314824Y-11262674D01*
X11314824Y-11262674D02*
X11333872Y-11253150D01*
X11333872Y-11253150D02*
X11352920Y-11253150D01*
X11419586Y-11386484D02*
X11419586Y-11253150D01*
X11419586Y-11186484D02*
X11410062Y-11196008D01*
X11410062Y-11196008D02*
X11419586Y-11205531D01*
X11419586Y-11205531D02*
X11429110Y-11196008D01*
X11429110Y-11196008D02*
X11419586Y-11186484D01*
X11419586Y-11186484D02*
X11419586Y-11205531D01*
X11543396Y-11386484D02*
X11524348Y-11376960D01*
X11524348Y-11376960D02*
X11514824Y-11357912D01*
X11514824Y-11357912D02*
X11514824Y-11186484D01*
X11648158Y-11386484D02*
X11629110Y-11376960D01*
X11629110Y-11376960D02*
X11619586Y-11357912D01*
X11619586Y-11357912D02*
X11619586Y-11186484D01*
X11876729Y-11386484D02*
X11876729Y-11186484D01*
X11876729Y-11186484D02*
X11943396Y-11329341D01*
X11943396Y-11329341D02*
X12010062Y-11186484D01*
X12010062Y-11186484D02*
X12010062Y-11386484D01*
X12191015Y-11386484D02*
X12191015Y-11281722D01*
X12191015Y-11281722D02*
X12181491Y-11262674D01*
X12181491Y-11262674D02*
X12162443Y-11253150D01*
X12162443Y-11253150D02*
X12124348Y-11253150D01*
X12124348Y-11253150D02*
X12105301Y-11262674D01*
X12191015Y-11376960D02*
X12171967Y-11386484D01*
X12171967Y-11386484D02*
X12124348Y-11386484D01*
X12124348Y-11386484D02*
X12105301Y-11376960D01*
X12105301Y-11376960D02*
X12095777Y-11357912D01*
X12095777Y-11357912D02*
X12095777Y-11338865D01*
X12095777Y-11338865D02*
X12105301Y-11319817D01*
X12105301Y-11319817D02*
X12124348Y-11310293D01*
X12124348Y-11310293D02*
X12171967Y-11310293D01*
X12171967Y-11310293D02*
X12191015Y-11300769D01*
X12286253Y-11253150D02*
X12286253Y-11453150D01*
X12286253Y-11262674D02*
X12305301Y-11253150D01*
X12305301Y-11253150D02*
X12343396Y-11253150D01*
X12343396Y-11253150D02*
X12362443Y-11262674D01*
X12362443Y-11262674D02*
X12371967Y-11272198D01*
X12371967Y-11272198D02*
X12381491Y-11291246D01*
X12381491Y-11291246D02*
X12381491Y-11348388D01*
X12381491Y-11348388D02*
X12371967Y-11367436D01*
X12371967Y-11367436D02*
X12362443Y-11376960D01*
X12362443Y-11376960D02*
X12343396Y-11386484D01*
X12343396Y-11386484D02*
X12305301Y-11386484D01*
X12305301Y-11386484D02*
X12286253Y-11376960D01*
X12467205Y-11367436D02*
X12476729Y-11376960D01*
X12476729Y-11376960D02*
X12467205Y-11386484D01*
X12467205Y-11386484D02*
X12457682Y-11376960D01*
X12457682Y-11376960D02*
X12467205Y-11367436D01*
X12467205Y-11367436D02*
X12467205Y-11386484D01*
X12467205Y-11262674D02*
X12476729Y-11272198D01*
X12476729Y-11272198D02*
X12467205Y-11281722D01*
X12467205Y-11281722D02*
X12457682Y-11272198D01*
X12457682Y-11272198D02*
X12467205Y-11262674D01*
X12467205Y-11262674D02*
X12467205Y-11281722D01*
D10*
X10770000Y-11682500D02*
X10835000Y-11747500D01*
X10835000Y-11682500D02*
X10770000Y-11747500D01*
D11*
X11133872Y-11606484D02*
X11152920Y-11606484D01*
X11152920Y-11606484D02*
X11171967Y-11616008D01*
X11171967Y-11616008D02*
X11181491Y-11625531D01*
X11181491Y-11625531D02*
X11191015Y-11644579D01*
X11191015Y-11644579D02*
X11200539Y-11682674D01*
X11200539Y-11682674D02*
X11200539Y-11730293D01*
X11200539Y-11730293D02*
X11191015Y-11768388D01*
X11191015Y-11768388D02*
X11181491Y-11787436D01*
X11181491Y-11787436D02*
X11171967Y-11796960D01*
X11171967Y-11796960D02*
X11152920Y-11806484D01*
X11152920Y-11806484D02*
X11133872Y-11806484D01*
X11133872Y-11806484D02*
X11114824Y-11796960D01*
X11114824Y-11796960D02*
X11105301Y-11787436D01*
X11105301Y-11787436D02*
X11095777Y-11768388D01*
X11095777Y-11768388D02*
X11086253Y-11730293D01*
X11086253Y-11730293D02*
X11086253Y-11682674D01*
X11086253Y-11682674D02*
X11095777Y-11644579D01*
X11095777Y-11644579D02*
X11105301Y-11625531D01*
X11105301Y-11625531D02*
X11114824Y-11616008D01*
X11114824Y-11616008D02*
X11133872Y-11606484D01*
X11286253Y-11787436D02*
X11295777Y-11796960D01*
X11295777Y-11796960D02*
X11286253Y-11806484D01*
X11286253Y-11806484D02*
X11276729Y-11796960D01*
X11276729Y-11796960D02*
X11286253Y-11787436D01*
X11286253Y-11787436D02*
X11286253Y-11806484D01*
X11467205Y-11606484D02*
X11429110Y-11606484D01*
X11429110Y-11606484D02*
X11410062Y-11616008D01*
X11410062Y-11616008D02*
X11400539Y-11625531D01*
X11400539Y-11625531D02*
X11381491Y-11654103D01*
X11381491Y-11654103D02*
X11371967Y-11692198D01*
X11371967Y-11692198D02*
X11371967Y-11768388D01*
X11371967Y-11768388D02*
X11381491Y-11787436D01*
X11381491Y-11787436D02*
X11391015Y-11796960D01*
X11391015Y-11796960D02*
X11410062Y-11806484D01*
X11410062Y-11806484D02*
X11448158Y-11806484D01*
X11448158Y-11806484D02*
X11467205Y-11796960D01*
X11467205Y-11796960D02*
X11476729Y-11787436D01*
X11476729Y-11787436D02*
X11486253Y-11768388D01*
X11486253Y-11768388D02*
X11486253Y-11720769D01*
X11486253Y-11720769D02*
X11476729Y-11701722D01*
X11476729Y-11701722D02*
X11467205Y-11692198D01*
X11467205Y-11692198D02*
X11448158Y-11682674D01*
X11448158Y-11682674D02*
X11410062Y-11682674D01*
X11410062Y-11682674D02*
X11391015Y-11692198D01*
X11391015Y-11692198D02*
X11381491Y-11701722D01*
X11381491Y-11701722D02*
X11371967Y-11720769D01*
X11667205Y-11606484D02*
X11571967Y-11606484D01*
X11571967Y-11606484D02*
X11562443Y-11701722D01*
X11562443Y-11701722D02*
X11571967Y-11692198D01*
X11571967Y-11692198D02*
X11591015Y-11682674D01*
X11591015Y-11682674D02*
X11638634Y-11682674D01*
X11638634Y-11682674D02*
X11657682Y-11692198D01*
X11657682Y-11692198D02*
X11667205Y-11701722D01*
X11667205Y-11701722D02*
X11676729Y-11720769D01*
X11676729Y-11720769D02*
X11676729Y-11768388D01*
X11676729Y-11768388D02*
X11667205Y-11787436D01*
X11667205Y-11787436D02*
X11657682Y-11796960D01*
X11657682Y-11796960D02*
X11638634Y-11806484D01*
X11638634Y-11806484D02*
X11591015Y-11806484D01*
X11591015Y-11806484D02*
X11571967Y-11796960D01*
X11571967Y-11796960D02*
X11562443Y-11787436D01*
X11800539Y-11606484D02*
X11819586Y-11606484D01*
X11819586Y-11606484D02*
X11838634Y-11616008D01*
X11838634Y-11616008D02*
X11848158Y-11625531D01*
X11848158Y-11625531D02*
X11857682Y-11644579D01*
X11857682Y-11644579D02*
X11867205Y-11682674D01*
X11867205Y-11682674D02*
X11867205Y-11730293D01*
X11867205Y-11730293D02*
X11857682Y-11768388D01*
X11857682Y-11768388D02*
X11848158Y-11787436D01*
X11848158Y-11787436D02*
X11838634Y-11796960D01*
X11838634Y-11796960D02*
X11819586Y-11806484D01*
X11819586Y-11806484D02*
X11800539Y-11806484D01*
X11800539Y-11806484D02*
X11781491Y-11796960D01*
X11781491Y-11796960D02*
X11771967Y-11787436D01*
X11771967Y-11787436D02*
X11762443Y-11768388D01*
X11762443Y-11768388D02*
X11752920Y-11730293D01*
X11752920Y-11730293D02*
X11752920Y-11682674D01*
X11752920Y-11682674D02*
X11762443Y-11644579D01*
X11762443Y-11644579D02*
X11771967Y-11625531D01*
X11771967Y-11625531D02*
X11781491Y-11616008D01*
X11781491Y-11616008D02*
X11800539Y-11606484D01*
X11952920Y-11806484D02*
X11952920Y-11673150D01*
X11952920Y-11692198D02*
X11962443Y-11682674D01*
X11962443Y-11682674D02*
X11981491Y-11673150D01*
X11981491Y-11673150D02*
X12010063Y-11673150D01*
X12010063Y-11673150D02*
X12029110Y-11682674D01*
X12029110Y-11682674D02*
X12038634Y-11701722D01*
X12038634Y-11701722D02*
X12038634Y-11806484D01*
X12038634Y-11701722D02*
X12048158Y-11682674D01*
X12048158Y-11682674D02*
X12067205Y-11673150D01*
X12067205Y-11673150D02*
X12095777Y-11673150D01*
X12095777Y-11673150D02*
X12114824Y-11682674D01*
X12114824Y-11682674D02*
X12124348Y-11701722D01*
X12124348Y-11701722D02*
X12124348Y-11806484D01*
X12219586Y-11806484D02*
X12219586Y-11673150D01*
X12219586Y-11692198D02*
X12229110Y-11682674D01*
X12229110Y-11682674D02*
X12248158Y-11673150D01*
X12248158Y-11673150D02*
X12276729Y-11673150D01*
X12276729Y-11673150D02*
X12295777Y-11682674D01*
X12295777Y-11682674D02*
X12305301Y-11701722D01*
X12305301Y-11701722D02*
X12305301Y-11806484D01*
X12305301Y-11701722D02*
X12314824Y-11682674D01*
X12314824Y-11682674D02*
X12333872Y-11673150D01*
X12333872Y-11673150D02*
X12362443Y-11673150D01*
X12362443Y-11673150D02*
X12381491Y-11682674D01*
X12381491Y-11682674D02*
X12391015Y-11701722D01*
X12391015Y-11701722D02*
X12391015Y-11806484D01*
X12781491Y-11596960D02*
X12610063Y-11854103D01*
X13038634Y-11606484D02*
X13057682Y-11606484D01*
X13057682Y-11606484D02*
X13076729Y-11616008D01*
X13076729Y-11616008D02*
X13086253Y-11625531D01*
X13086253Y-11625531D02*
X13095777Y-11644579D01*
X13095777Y-11644579D02*
X13105301Y-11682674D01*
X13105301Y-11682674D02*
X13105301Y-11730293D01*
X13105301Y-11730293D02*
X13095777Y-11768388D01*
X13095777Y-11768388D02*
X13086253Y-11787436D01*
X13086253Y-11787436D02*
X13076729Y-11796960D01*
X13076729Y-11796960D02*
X13057682Y-11806484D01*
X13057682Y-11806484D02*
X13038634Y-11806484D01*
X13038634Y-11806484D02*
X13019586Y-11796960D01*
X13019586Y-11796960D02*
X13010063Y-11787436D01*
X13010063Y-11787436D02*
X13000539Y-11768388D01*
X13000539Y-11768388D02*
X12991015Y-11730293D01*
X12991015Y-11730293D02*
X12991015Y-11682674D01*
X12991015Y-11682674D02*
X13000539Y-11644579D01*
X13000539Y-11644579D02*
X13010063Y-11625531D01*
X13010063Y-11625531D02*
X13019586Y-11616008D01*
X13019586Y-11616008D02*
X13038634Y-11606484D01*
X13191015Y-11787436D02*
X13200539Y-11796960D01*
X13200539Y-11796960D02*
X13191015Y-11806484D01*
X13191015Y-11806484D02*
X13181491Y-11796960D01*
X13181491Y-11796960D02*
X13191015Y-11787436D01*
X13191015Y-11787436D02*
X13191015Y-11806484D01*
X13324348Y-11606484D02*
X13343396Y-11606484D01*
X13343396Y-11606484D02*
X13362444Y-11616008D01*
X13362444Y-11616008D02*
X13371967Y-11625531D01*
X13371967Y-11625531D02*
X13381491Y-11644579D01*
X13381491Y-11644579D02*
X13391015Y-11682674D01*
X13391015Y-11682674D02*
X13391015Y-11730293D01*
X13391015Y-11730293D02*
X13381491Y-11768388D01*
X13381491Y-11768388D02*
X13371967Y-11787436D01*
X13371967Y-11787436D02*
X13362444Y-11796960D01*
X13362444Y-11796960D02*
X13343396Y-11806484D01*
X13343396Y-11806484D02*
X13324348Y-11806484D01*
X13324348Y-11806484D02*
X13305301Y-11796960D01*
X13305301Y-11796960D02*
X13295777Y-11787436D01*
X13295777Y-11787436D02*
X13286253Y-11768388D01*
X13286253Y-11768388D02*
X13276729Y-11730293D01*
X13276729Y-11730293D02*
X13276729Y-11682674D01*
X13276729Y-11682674D02*
X13286253Y-11644579D01*
X13286253Y-11644579D02*
X13295777Y-11625531D01*
X13295777Y-11625531D02*
X13305301Y-11616008D01*
X13305301Y-11616008D02*
X13324348Y-11606484D01*
X13467206Y-11625531D02*
X13476729Y-11616008D01*
X13476729Y-11616008D02*
X13495777Y-11606484D01*
X13495777Y-11606484D02*
X13543396Y-11606484D01*
X13543396Y-11606484D02*
X13562444Y-11616008D01*
X13562444Y-11616008D02*
X13571967Y-11625531D01*
X13571967Y-11625531D02*
X13581491Y-11644579D01*
X13581491Y-11644579D02*
X13581491Y-11663627D01*
X13581491Y-11663627D02*
X13571967Y-11692198D01*
X13571967Y-11692198D02*
X13457682Y-11806484D01*
X13457682Y-11806484D02*
X13581491Y-11806484D01*
X13762444Y-11606484D02*
X13667206Y-11606484D01*
X13667206Y-11606484D02*
X13657682Y-11701722D01*
X13657682Y-11701722D02*
X13667206Y-11692198D01*
X13667206Y-11692198D02*
X13686253Y-11682674D01*
X13686253Y-11682674D02*
X13733872Y-11682674D01*
X13733872Y-11682674D02*
X13752920Y-11692198D01*
X13752920Y-11692198D02*
X13762444Y-11701722D01*
X13762444Y-11701722D02*
X13771967Y-11720769D01*
X13771967Y-11720769D02*
X13771967Y-11768388D01*
X13771967Y-11768388D02*
X13762444Y-11787436D01*
X13762444Y-11787436D02*
X13752920Y-11796960D01*
X13752920Y-11796960D02*
X13733872Y-11806484D01*
X13733872Y-11806484D02*
X13686253Y-11806484D01*
X13686253Y-11806484D02*
X13667206Y-11796960D01*
X13667206Y-11796960D02*
X13657682Y-11787436D01*
X13943396Y-11606484D02*
X13905301Y-11606484D01*
X13905301Y-11606484D02*
X13886253Y-11616008D01*
X13886253Y-11616008D02*
X13876729Y-11625531D01*
X13876729Y-11625531D02*
X13857682Y-11654103D01*
X13857682Y-11654103D02*
X13848158Y-11692198D01*
X13848158Y-11692198D02*
X13848158Y-11768388D01*
X13848158Y-11768388D02*
X13857682Y-11787436D01*
X13857682Y-11787436D02*
X13867206Y-11796960D01*
X13867206Y-11796960D02*
X13886253Y-11806484D01*
X13886253Y-11806484D02*
X13924348Y-11806484D01*
X13924348Y-11806484D02*
X13943396Y-11796960D01*
X13943396Y-11796960D02*
X13952920Y-11787436D01*
X13952920Y-11787436D02*
X13962444Y-11768388D01*
X13962444Y-11768388D02*
X13962444Y-11720769D01*
X13962444Y-11720769D02*
X13952920Y-11701722D01*
X13952920Y-11701722D02*
X13943396Y-11692198D01*
X13943396Y-11692198D02*
X13924348Y-11682674D01*
X13924348Y-11682674D02*
X13886253Y-11682674D01*
X13886253Y-11682674D02*
X13867206Y-11692198D01*
X13867206Y-11692198D02*
X13857682Y-11701722D01*
X13857682Y-11701722D02*
X13848158Y-11720769D01*
X14038634Y-11606484D02*
X14038634Y-11644579D01*
X14114825Y-11606484D02*
X14114825Y-11644579D01*
X14410063Y-11882674D02*
X14400539Y-11873150D01*
X14400539Y-11873150D02*
X14381491Y-11844579D01*
X14381491Y-11844579D02*
X14371968Y-11825531D01*
X14371968Y-11825531D02*
X14362444Y-11796960D01*
X14362444Y-11796960D02*
X14352920Y-11749341D01*
X14352920Y-11749341D02*
X14352920Y-11711246D01*
X14352920Y-11711246D02*
X14362444Y-11663627D01*
X14362444Y-11663627D02*
X14371968Y-11635055D01*
X14371968Y-11635055D02*
X14381491Y-11616008D01*
X14381491Y-11616008D02*
X14400539Y-11587436D01*
X14400539Y-11587436D02*
X14410063Y-11577912D01*
X14476729Y-11625531D02*
X14486253Y-11616008D01*
X14486253Y-11616008D02*
X14505301Y-11606484D01*
X14505301Y-11606484D02*
X14552920Y-11606484D01*
X14552920Y-11606484D02*
X14571968Y-11616008D01*
X14571968Y-11616008D02*
X14581491Y-11625531D01*
X14581491Y-11625531D02*
X14591015Y-11644579D01*
X14591015Y-11644579D02*
X14591015Y-11663627D01*
X14591015Y-11663627D02*
X14581491Y-11692198D01*
X14581491Y-11692198D02*
X14467206Y-11806484D01*
X14467206Y-11806484D02*
X14591015Y-11806484D01*
X14829110Y-11806484D02*
X14829110Y-11606484D01*
X14914825Y-11806484D02*
X14914825Y-11701722D01*
X14914825Y-11701722D02*
X14905301Y-11682674D01*
X14905301Y-11682674D02*
X14886253Y-11673150D01*
X14886253Y-11673150D02*
X14857682Y-11673150D01*
X14857682Y-11673150D02*
X14838634Y-11682674D01*
X14838634Y-11682674D02*
X14829110Y-11692198D01*
X15038634Y-11806484D02*
X15019587Y-11796960D01*
X15019587Y-11796960D02*
X15010063Y-11787436D01*
X15010063Y-11787436D02*
X15000539Y-11768388D01*
X15000539Y-11768388D02*
X15000539Y-11711246D01*
X15000539Y-11711246D02*
X15010063Y-11692198D01*
X15010063Y-11692198D02*
X15019587Y-11682674D01*
X15019587Y-11682674D02*
X15038634Y-11673150D01*
X15038634Y-11673150D02*
X15067206Y-11673150D01*
X15067206Y-11673150D02*
X15086253Y-11682674D01*
X15086253Y-11682674D02*
X15095777Y-11692198D01*
X15095777Y-11692198D02*
X15105301Y-11711246D01*
X15105301Y-11711246D02*
X15105301Y-11768388D01*
X15105301Y-11768388D02*
X15095777Y-11787436D01*
X15095777Y-11787436D02*
X15086253Y-11796960D01*
X15086253Y-11796960D02*
X15067206Y-11806484D01*
X15067206Y-11806484D02*
X15038634Y-11806484D01*
X15219587Y-11806484D02*
X15200539Y-11796960D01*
X15200539Y-11796960D02*
X15191015Y-11777912D01*
X15191015Y-11777912D02*
X15191015Y-11606484D01*
X15371968Y-11796960D02*
X15352920Y-11806484D01*
X15352920Y-11806484D02*
X15314825Y-11806484D01*
X15314825Y-11806484D02*
X15295777Y-11796960D01*
X15295777Y-11796960D02*
X15286253Y-11777912D01*
X15286253Y-11777912D02*
X15286253Y-11701722D01*
X15286253Y-11701722D02*
X15295777Y-11682674D01*
X15295777Y-11682674D02*
X15314825Y-11673150D01*
X15314825Y-11673150D02*
X15352920Y-11673150D01*
X15352920Y-11673150D02*
X15371968Y-11682674D01*
X15371968Y-11682674D02*
X15381491Y-11701722D01*
X15381491Y-11701722D02*
X15381491Y-11720769D01*
X15381491Y-11720769D02*
X15286253Y-11739817D01*
X15457682Y-11796960D02*
X15476730Y-11806484D01*
X15476730Y-11806484D02*
X15514825Y-11806484D01*
X15514825Y-11806484D02*
X15533872Y-11796960D01*
X15533872Y-11796960D02*
X15543396Y-11777912D01*
X15543396Y-11777912D02*
X15543396Y-11768388D01*
X15543396Y-11768388D02*
X15533872Y-11749341D01*
X15533872Y-11749341D02*
X15514825Y-11739817D01*
X15514825Y-11739817D02*
X15486253Y-11739817D01*
X15486253Y-11739817D02*
X15467206Y-11730293D01*
X15467206Y-11730293D02*
X15457682Y-11711246D01*
X15457682Y-11711246D02*
X15457682Y-11701722D01*
X15457682Y-11701722D02*
X15467206Y-11682674D01*
X15467206Y-11682674D02*
X15486253Y-11673150D01*
X15486253Y-11673150D02*
X15514825Y-11673150D01*
X15514825Y-11673150D02*
X15533872Y-11682674D01*
X15610063Y-11882674D02*
X15619587Y-11873150D01*
X15619587Y-11873150D02*
X15638634Y-11844579D01*
X15638634Y-11844579D02*
X15648158Y-11825531D01*
X15648158Y-11825531D02*
X15657682Y-11796960D01*
X15657682Y-11796960D02*
X15667206Y-11749341D01*
X15667206Y-11749341D02*
X15667206Y-11711246D01*
X15667206Y-11711246D02*
X15657682Y-11663627D01*
X15657682Y-11663627D02*
X15648158Y-11635055D01*
X15648158Y-11635055D02*
X15638634Y-11616008D01*
X15638634Y-11616008D02*
X15619587Y-11587436D01*
X15619587Y-11587436D02*
X15610063Y-11577912D01*
X15971968Y-11882674D02*
X15962444Y-11873150D01*
X15962444Y-11873150D02*
X15943396Y-11844579D01*
X15943396Y-11844579D02*
X15933872Y-11825531D01*
X15933872Y-11825531D02*
X15924349Y-11796960D01*
X15924349Y-11796960D02*
X15914825Y-11749341D01*
X15914825Y-11749341D02*
X15914825Y-11711246D01*
X15914825Y-11711246D02*
X15924349Y-11663627D01*
X15924349Y-11663627D02*
X15933872Y-11635055D01*
X15933872Y-11635055D02*
X15943396Y-11616008D01*
X15943396Y-11616008D02*
X15962444Y-11587436D01*
X15962444Y-11587436D02*
X15971968Y-11577912D01*
X16048158Y-11673150D02*
X16048158Y-11806484D01*
X16048158Y-11692198D02*
X16057682Y-11682674D01*
X16057682Y-11682674D02*
X16076730Y-11673150D01*
X16076730Y-11673150D02*
X16105301Y-11673150D01*
X16105301Y-11673150D02*
X16124349Y-11682674D01*
X16124349Y-11682674D02*
X16133872Y-11701722D01*
X16133872Y-11701722D02*
X16133872Y-11806484D01*
X16257682Y-11806484D02*
X16238634Y-11796960D01*
X16238634Y-11796960D02*
X16229111Y-11787436D01*
X16229111Y-11787436D02*
X16219587Y-11768388D01*
X16219587Y-11768388D02*
X16219587Y-11711246D01*
X16219587Y-11711246D02*
X16229111Y-11692198D01*
X16229111Y-11692198D02*
X16238634Y-11682674D01*
X16238634Y-11682674D02*
X16257682Y-11673150D01*
X16257682Y-11673150D02*
X16286253Y-11673150D01*
X16286253Y-11673150D02*
X16305301Y-11682674D01*
X16305301Y-11682674D02*
X16314825Y-11692198D01*
X16314825Y-11692198D02*
X16324349Y-11711246D01*
X16324349Y-11711246D02*
X16324349Y-11768388D01*
X16324349Y-11768388D02*
X16314825Y-11787436D01*
X16314825Y-11787436D02*
X16305301Y-11796960D01*
X16305301Y-11796960D02*
X16286253Y-11806484D01*
X16286253Y-11806484D02*
X16257682Y-11806484D01*
X16381492Y-11673150D02*
X16457682Y-11673150D01*
X16410063Y-11606484D02*
X16410063Y-11777912D01*
X16410063Y-11777912D02*
X16419587Y-11796960D01*
X16419587Y-11796960D02*
X16438634Y-11806484D01*
X16438634Y-11806484D02*
X16457682Y-11806484D01*
X16676730Y-11673150D02*
X16676730Y-11873150D01*
X16676730Y-11682674D02*
X16695777Y-11673150D01*
X16695777Y-11673150D02*
X16733873Y-11673150D01*
X16733873Y-11673150D02*
X16752920Y-11682674D01*
X16752920Y-11682674D02*
X16762444Y-11692198D01*
X16762444Y-11692198D02*
X16771968Y-11711246D01*
X16771968Y-11711246D02*
X16771968Y-11768388D01*
X16771968Y-11768388D02*
X16762444Y-11787436D01*
X16762444Y-11787436D02*
X16752920Y-11796960D01*
X16752920Y-11796960D02*
X16733873Y-11806484D01*
X16733873Y-11806484D02*
X16695777Y-11806484D01*
X16695777Y-11806484D02*
X16676730Y-11796960D01*
X16886254Y-11806484D02*
X16867206Y-11796960D01*
X16867206Y-11796960D02*
X16857682Y-11777912D01*
X16857682Y-11777912D02*
X16857682Y-11606484D01*
X17048158Y-11806484D02*
X17048158Y-11701722D01*
X17048158Y-11701722D02*
X17038635Y-11682674D01*
X17038635Y-11682674D02*
X17019587Y-11673150D01*
X17019587Y-11673150D02*
X16981492Y-11673150D01*
X16981492Y-11673150D02*
X16962444Y-11682674D01*
X17048158Y-11796960D02*
X17029111Y-11806484D01*
X17029111Y-11806484D02*
X16981492Y-11806484D01*
X16981492Y-11806484D02*
X16962444Y-11796960D01*
X16962444Y-11796960D02*
X16952920Y-11777912D01*
X16952920Y-11777912D02*
X16952920Y-11758865D01*
X16952920Y-11758865D02*
X16962444Y-11739817D01*
X16962444Y-11739817D02*
X16981492Y-11730293D01*
X16981492Y-11730293D02*
X17029111Y-11730293D01*
X17029111Y-11730293D02*
X17048158Y-11720769D01*
X17114825Y-11673150D02*
X17191015Y-11673150D01*
X17143396Y-11606484D02*
X17143396Y-11777912D01*
X17143396Y-11777912D02*
X17152920Y-11796960D01*
X17152920Y-11796960D02*
X17171968Y-11806484D01*
X17171968Y-11806484D02*
X17191015Y-11806484D01*
X17333873Y-11796960D02*
X17314825Y-11806484D01*
X17314825Y-11806484D02*
X17276730Y-11806484D01*
X17276730Y-11806484D02*
X17257682Y-11796960D01*
X17257682Y-11796960D02*
X17248158Y-11777912D01*
X17248158Y-11777912D02*
X17248158Y-11701722D01*
X17248158Y-11701722D02*
X17257682Y-11682674D01*
X17257682Y-11682674D02*
X17276730Y-11673150D01*
X17276730Y-11673150D02*
X17314825Y-11673150D01*
X17314825Y-11673150D02*
X17333873Y-11682674D01*
X17333873Y-11682674D02*
X17343396Y-11701722D01*
X17343396Y-11701722D02*
X17343396Y-11720769D01*
X17343396Y-11720769D02*
X17248158Y-11739817D01*
X17514825Y-11806484D02*
X17514825Y-11606484D01*
X17514825Y-11796960D02*
X17495777Y-11806484D01*
X17495777Y-11806484D02*
X17457682Y-11806484D01*
X17457682Y-11806484D02*
X17438635Y-11796960D01*
X17438635Y-11796960D02*
X17429111Y-11787436D01*
X17429111Y-11787436D02*
X17419587Y-11768388D01*
X17419587Y-11768388D02*
X17419587Y-11711246D01*
X17419587Y-11711246D02*
X17429111Y-11692198D01*
X17429111Y-11692198D02*
X17438635Y-11682674D01*
X17438635Y-11682674D02*
X17457682Y-11673150D01*
X17457682Y-11673150D02*
X17495777Y-11673150D01*
X17495777Y-11673150D02*
X17514825Y-11682674D01*
X17591016Y-11882674D02*
X17600539Y-11873150D01*
X17600539Y-11873150D02*
X17619587Y-11844579D01*
X17619587Y-11844579D02*
X17629111Y-11825531D01*
X17629111Y-11825531D02*
X17638635Y-11796960D01*
X17638635Y-11796960D02*
X17648158Y-11749341D01*
X17648158Y-11749341D02*
X17648158Y-11711246D01*
X17648158Y-11711246D02*
X17638635Y-11663627D01*
X17638635Y-11663627D02*
X17629111Y-11635055D01*
X17629111Y-11635055D02*
X17619587Y-11616008D01*
X17619587Y-11616008D02*
X17600539Y-11587436D01*
X17600539Y-11587436D02*
X17591016Y-11577912D01*
M02*
