G04 #@! TF.GenerationSoftware,KiCad,Pcbnew,8.0.5*
G04 #@! TF.CreationDate,2025-03-10T18:58:21-05:00*
G04 #@! TF.ProjectId,programmer_adapter_v3p0,70726f67-7261-46d6-9d65-725f61646170,rev?*
G04 #@! TF.SameCoordinates,Original*
G04 #@! TF.FileFunction,Copper,L4,Bot*
G04 #@! TF.FilePolarity,Positive*
%FSLAX46Y46*%
G04 Gerber Fmt 4.6, Leading zero omitted, Abs format (unit mm)*
G04 Created by KiCad (PCBNEW 8.0.5) date 2025-03-10 18:58:21*
%MOMM*%
%LPD*%
G01*
G04 APERTURE LIST*
G04 #@! TA.AperFunction,ComponentPad*
%ADD10R,1.700000X1.700000*%
G04 #@! TD*
G04 #@! TA.AperFunction,ComponentPad*
%ADD11O,1.700000X1.700000*%
G04 #@! TD*
G04 #@! TA.AperFunction,SMDPad,CuDef*
%ADD12R,1.550000X0.410000*%
G04 #@! TD*
G04 #@! TA.AperFunction,SMDPad,CuDef*
%ADD13R,1.550000X0.260000*%
G04 #@! TD*
G04 #@! TA.AperFunction,SMDPad,CuDef*
%ADD14R,1.500000X0.800000*%
G04 #@! TD*
G04 #@! TA.AperFunction,SMDPad,CuDef*
%ADD15R,2.050000X0.360000*%
G04 #@! TD*
G04 #@! TA.AperFunction,SMDPad,CuDef*
%ADD16R,1.500000X0.700000*%
G04 #@! TD*
G04 #@! TA.AperFunction,ComponentPad*
%ADD17O,2.100000X1.000000*%
G04 #@! TD*
G04 #@! TA.AperFunction,ComponentPad*
%ADD18O,1.600000X1.000000*%
G04 #@! TD*
G04 #@! TA.AperFunction,ViaPad*
%ADD19C,0.800000*%
G04 #@! TD*
G04 #@! TA.AperFunction,Conductor*
%ADD20C,0.500000*%
G04 #@! TD*
G04 #@! TA.AperFunction,Conductor*
%ADD21C,0.250000*%
G04 #@! TD*
G04 APERTURE END LIST*
D10*
X134810000Y-91590000D03*
D11*
X137350000Y-91590000D03*
X134810000Y-94130000D03*
X137350000Y-94130000D03*
X134810000Y-96670000D03*
X137350000Y-96670000D03*
X134810000Y-99210000D03*
X137350000Y-99210000D03*
D12*
X152176379Y-97538621D03*
D13*
X152176379Y-96963621D03*
X152176379Y-96463621D03*
X152176379Y-95963621D03*
X152176379Y-95463621D03*
X152176379Y-94963621D03*
X152176379Y-94463621D03*
X152176379Y-93963621D03*
X152176379Y-93463621D03*
X152176379Y-92963621D03*
X152176379Y-92463621D03*
D12*
X152176379Y-91888621D03*
D14*
X149856379Y-98338621D03*
D15*
X151926379Y-98118621D03*
D16*
X149856379Y-91443621D03*
D15*
X151926379Y-91308621D03*
D17*
X116130000Y-90280000D03*
D18*
X111950000Y-90280000D03*
D17*
X116130000Y-98920000D03*
D18*
X111950000Y-98920000D03*
D10*
X123800000Y-83200000D03*
D11*
X126340000Y-83200000D03*
X123800000Y-85740000D03*
X126340000Y-85740000D03*
X123800000Y-88280000D03*
X126340000Y-88280000D03*
X123800000Y-90820000D03*
X126340000Y-90820000D03*
X123800000Y-93360000D03*
X126340000Y-93360000D03*
X123800000Y-95900000D03*
X126340000Y-95900000D03*
X123800000Y-98440000D03*
X126340000Y-98440000D03*
X123800000Y-100980000D03*
X126340000Y-100980000D03*
X123800000Y-103520000D03*
X126340000Y-103520000D03*
X123800000Y-106060000D03*
X126340000Y-106060000D03*
D19*
X129140000Y-85890000D03*
X119590000Y-83620000D03*
X117700000Y-82610000D03*
X119530000Y-109540000D03*
X118260000Y-107230000D03*
X139640000Y-94330000D03*
X143370000Y-92990000D03*
X122390000Y-102330000D03*
X144682434Y-100712434D03*
X127340000Y-108020000D03*
X130035000Y-79825000D03*
X130412500Y-82175000D03*
X134010000Y-88730000D03*
X139286703Y-92976701D03*
X131280000Y-103570000D03*
X130540000Y-85350000D03*
X115927347Y-85177347D03*
X117682653Y-85472653D03*
X122345000Y-99805000D03*
X120286956Y-105937262D03*
X128518198Y-102301943D03*
X129141634Y-101520068D03*
X129848742Y-100812960D03*
X130555851Y-100105851D03*
X133260000Y-103200000D03*
X141520000Y-91220000D03*
X141500000Y-85470000D03*
X134120000Y-84850000D03*
X136950000Y-85770000D03*
X134100000Y-83230000D03*
X120710000Y-85580000D03*
X121868990Y-80875000D03*
X116310000Y-101850000D03*
X115480000Y-88800000D03*
X130452041Y-96886257D03*
X132518742Y-98142960D03*
X131159149Y-96179149D03*
X133225851Y-97435851D03*
X136650000Y-88284999D03*
X136227196Y-89734999D03*
X125350864Y-108000000D03*
X115983988Y-106178206D03*
X116691097Y-105471097D03*
X119579847Y-105230153D03*
X117100153Y-100759847D03*
X121630000Y-82325000D03*
X123037653Y-81412347D03*
X143847849Y-95535000D03*
X144847852Y-95535000D03*
X141847843Y-95535000D03*
X142847846Y-95535000D03*
X118370002Y-96390000D03*
X119404075Y-94895925D03*
X140600000Y-87400000D03*
X145866497Y-95535000D03*
X147650000Y-96450000D03*
X148400000Y-98400000D03*
X148300000Y-91300000D03*
X143050951Y-91649049D03*
X135120000Y-107170000D03*
X134623245Y-104052076D03*
X130108585Y-105115904D03*
X117900000Y-98600000D03*
X118200000Y-91350000D03*
X112500000Y-102000000D03*
X119600000Y-101700000D03*
X121205153Y-103649847D03*
X111237500Y-81537500D03*
X111043750Y-107843750D03*
X118180000Y-88520000D03*
X118100000Y-90100000D03*
X144200000Y-87100000D03*
X144650000Y-89250000D03*
X148119149Y-92780851D03*
X147422434Y-91903919D03*
X145400000Y-88400000D03*
X138100000Y-81300000D03*
X140500000Y-85500000D03*
D20*
X131280000Y-103570000D02*
X130452407Y-103570000D01*
X130452407Y-103570000D02*
X128090000Y-105932407D01*
X128090000Y-105932407D02*
X128090000Y-107270000D01*
X128090000Y-107270000D02*
X127340000Y-108020000D01*
D21*
X125350864Y-108000000D02*
X125350864Y-107610864D01*
X125350864Y-107610864D02*
X123800000Y-106060000D01*
X129866634Y-102615208D02*
X127515000Y-104966842D01*
X129848742Y-100812960D02*
X129866634Y-100830852D01*
X120840530Y-107112262D02*
X119749470Y-107112262D01*
X126615000Y-107719695D02*
X126615000Y-107925000D01*
X125815000Y-108725000D02*
X124519695Y-108725000D01*
X127515000Y-107025000D02*
X127245000Y-107295000D01*
X127245000Y-107295000D02*
X127039695Y-107295000D01*
X129866634Y-100830852D02*
X129866634Y-102615208D01*
X127039695Y-107295000D02*
X126615000Y-107719695D01*
X126615000Y-107925000D02*
X125815000Y-108725000D01*
X127515000Y-104966842D02*
X127515000Y-107025000D01*
X124519695Y-108725000D02*
X122774695Y-106980000D01*
X122774695Y-106980000D02*
X120972792Y-106980000D01*
X120972792Y-106980000D02*
X120840530Y-107112262D01*
X119749470Y-107112262D02*
X118837208Y-106200000D01*
X118837208Y-106200000D02*
X116005782Y-106200000D01*
X116005782Y-106200000D02*
X115983988Y-106178206D01*
X120304847Y-105919371D02*
X120304847Y-104929848D01*
X120270000Y-104895001D02*
X120270000Y-102055305D01*
X120286956Y-105937262D02*
X120304847Y-105919371D01*
X120304847Y-104929848D02*
X120270000Y-104895001D01*
X120975305Y-101350000D02*
X122508299Y-101350000D01*
X120270000Y-102055305D02*
X120975305Y-101350000D01*
X122508299Y-101350000D02*
X123460242Y-102301943D01*
X123460242Y-102301943D02*
X128518198Y-102301943D01*
X129243198Y-101621632D02*
X129243198Y-102602248D01*
X129243198Y-102602248D02*
X126965446Y-104880000D01*
X126965446Y-104880000D02*
X120790000Y-104880000D01*
X129141634Y-101520068D02*
X129243198Y-101621632D01*
X121011956Y-105636957D02*
X121011956Y-106237567D01*
X120790000Y-104880000D02*
X120790000Y-105415001D01*
X120790000Y-105415001D02*
X121011956Y-105636957D01*
X118744701Y-105471097D02*
X116691097Y-105471097D01*
X121011956Y-106237567D02*
X120587261Y-106662262D01*
X120587261Y-106662262D02*
X119935866Y-106662262D01*
X119935866Y-106662262D02*
X118744701Y-105471097D01*
D20*
X129602041Y-97238339D02*
X129602041Y-96387959D01*
X131405851Y-99042149D02*
X129602041Y-97238339D01*
X131405851Y-103444149D02*
X131405851Y-99042149D01*
X129602041Y-96387959D02*
X131020000Y-94970000D01*
X131020000Y-94970000D02*
X131020000Y-85830000D01*
X131280000Y-103570000D02*
X131405851Y-103444149D01*
X131020000Y-85830000D02*
X130540000Y-85350000D01*
D21*
X130412500Y-80202500D02*
X130412500Y-82175000D01*
X130035000Y-79825000D02*
X130412500Y-80202500D01*
X133635000Y-89105000D02*
X133635000Y-92765000D01*
X133635000Y-92765000D02*
X133825000Y-92955000D01*
X134010000Y-88730000D02*
X133635000Y-89105000D01*
X133825000Y-92955000D02*
X139265002Y-92955000D01*
X139265002Y-92955000D02*
X139286703Y-92976701D01*
X151121379Y-93963621D02*
X150071379Y-95013621D01*
X147424678Y-95013621D02*
X146178299Y-96260000D01*
X152176379Y-93963621D02*
X151121379Y-93963621D01*
X150071379Y-95013621D02*
X147424678Y-95013621D01*
X146178299Y-96260000D02*
X141547538Y-96260000D01*
X141547538Y-96260000D02*
X141122843Y-95835305D01*
X141122843Y-95835305D02*
X141122843Y-92602843D01*
X141122843Y-92602843D02*
X140110000Y-91590000D01*
X140110000Y-91590000D02*
X137350000Y-91590000D01*
X115927347Y-85177347D02*
X117387347Y-85177347D01*
X117387347Y-85177347D02*
X117682653Y-85472653D01*
X122345000Y-99805000D02*
X130255000Y-99805000D01*
X130255000Y-99805000D02*
X130555851Y-100105851D01*
X133260000Y-103200000D02*
X133360000Y-103200000D01*
X133360000Y-103200000D02*
X137350000Y-99210000D01*
X141520000Y-91220000D02*
X141500000Y-91200000D01*
X141500000Y-91200000D02*
X141500000Y-85470000D01*
X134120000Y-84850000D02*
X135040000Y-85770000D01*
X135040000Y-85770000D02*
X136950000Y-85770000D01*
X120710000Y-82033990D02*
X120710000Y-85580000D01*
X121868990Y-80875000D02*
X120710000Y-82033990D01*
D20*
X113437500Y-90842500D02*
X115480000Y-88800000D01*
X113437500Y-91230000D02*
X113437500Y-90842500D01*
D21*
X131708744Y-98142960D02*
X132518742Y-98142960D01*
X130452041Y-96886257D02*
X131708744Y-98142960D01*
X131159149Y-96179149D02*
X131969149Y-96179149D01*
X131969149Y-96179149D02*
X133225851Y-97435851D01*
X136227196Y-88707803D02*
X136227196Y-89734999D01*
X136650000Y-88284999D02*
X136227196Y-88707803D01*
X117100153Y-103190153D02*
X117100153Y-100759847D01*
X119140153Y-105230153D02*
X117100153Y-103190153D01*
X119579847Y-105230153D02*
X119140153Y-105230153D01*
X121630000Y-82325000D02*
X122542653Y-81412347D01*
X122542653Y-81412347D02*
X123037653Y-81412347D01*
X141847843Y-95509698D02*
X142547541Y-94810000D01*
X142911148Y-94810000D02*
X143361148Y-94360000D01*
X143361148Y-94360000D02*
X143724755Y-94360000D01*
X142547541Y-94810000D02*
X142911148Y-94810000D01*
X141847843Y-95535000D02*
X141847843Y-95509698D01*
X143724755Y-94360000D02*
X145753904Y-92330851D01*
X146329149Y-92330851D02*
X146756081Y-91903919D01*
X145753904Y-92330851D02*
X146329149Y-92330851D01*
X146756081Y-91903919D02*
X147422434Y-91903919D01*
X142847846Y-95535000D02*
X143122849Y-95259997D01*
X143122849Y-95259997D02*
X143122849Y-95234695D01*
X145940300Y-92780851D02*
X148119149Y-92780851D01*
X143122849Y-95234695D02*
X143547544Y-94810000D01*
X143547544Y-94810000D02*
X143911151Y-94810000D01*
X143911151Y-94810000D02*
X145940300Y-92780851D01*
X143847849Y-95535000D02*
X143847849Y-95509698D01*
X143847849Y-95509698D02*
X145707547Y-93650000D01*
X149525812Y-93650000D02*
X150712191Y-92463621D01*
X145707547Y-93650000D02*
X149525812Y-93650000D01*
X150712191Y-92463621D02*
X152176379Y-92463621D01*
X144847852Y-95528340D02*
X146276192Y-94100000D01*
X144847852Y-95535000D02*
X144847852Y-95528340D01*
X146276192Y-94100000D02*
X149712208Y-94100000D01*
X149712208Y-94100000D02*
X150848587Y-92963621D01*
X150848587Y-92963621D02*
X152176379Y-92963621D01*
X145866497Y-95535000D02*
X146851497Y-94550000D01*
X146851497Y-94550000D02*
X149898604Y-94550000D01*
X149898604Y-94550000D02*
X150984983Y-93463621D01*
X150984983Y-93463621D02*
X152176379Y-93463621D01*
X152176379Y-95463621D02*
X147611074Y-95463621D01*
X147611074Y-95463621D02*
X146254695Y-96820000D01*
X137500000Y-96820000D02*
X137350000Y-96670000D01*
X146254695Y-96820000D02*
X137500000Y-96820000D01*
X118370002Y-96390000D02*
X119404075Y-95355927D01*
X119404075Y-95355927D02*
X119404075Y-94895925D01*
X140600000Y-88340000D02*
X140600000Y-87400000D01*
X137350000Y-91590000D02*
X140600000Y-88340000D01*
X148443621Y-91443621D02*
X149856379Y-91443621D01*
X148300000Y-91300000D02*
X148443621Y-91443621D01*
X147650000Y-96450000D02*
X148136379Y-95963621D01*
X148136379Y-95963621D02*
X152176379Y-95963621D01*
X149856379Y-98338621D02*
X148461379Y-98338621D01*
X148461379Y-98338621D02*
X148400000Y-98400000D01*
X151926379Y-98118621D02*
X150076379Y-98118621D01*
X150076379Y-98118621D02*
X149856379Y-98338621D01*
X152176379Y-97538621D02*
X152176379Y-97868621D01*
X152176379Y-97868621D02*
X151926379Y-98118621D01*
X152176379Y-91888621D02*
X150301379Y-91888621D01*
X150301379Y-91888621D02*
X149856379Y-91443621D01*
X151926379Y-91308621D02*
X149991379Y-91308621D01*
X149991379Y-91308621D02*
X149856379Y-91443621D01*
X143050951Y-91649049D02*
X143050951Y-90849049D01*
X143050951Y-90849049D02*
X144650000Y-89250000D01*
D20*
X116310000Y-101850000D02*
X116211497Y-101850000D01*
X113437500Y-99076003D02*
X113437500Y-91230000D01*
X116211497Y-101850000D02*
X113437500Y-99076003D01*
G04 #@! TA.AperFunction,Conductor*
G36*
X129754551Y-78745185D02*
G01*
X129800306Y-78797989D01*
X129810250Y-78867147D01*
X129781225Y-78930703D01*
X129737947Y-78962779D01*
X129578248Y-79033882D01*
X129578246Y-79033883D01*
X129423745Y-79146135D01*
X129295959Y-79288057D01*
X129200473Y-79453443D01*
X129200470Y-79453450D01*
X129141459Y-79635068D01*
X129141458Y-79635072D01*
X129121496Y-79825000D01*
X129141458Y-80014928D01*
X129141459Y-80014931D01*
X129200470Y-80196549D01*
X129200473Y-80196556D01*
X129295960Y-80361944D01*
X129423747Y-80503866D01*
X129578248Y-80616118D01*
X129705437Y-80672746D01*
X129758672Y-80717994D01*
X129778994Y-80784843D01*
X129779000Y-80786024D01*
X129779000Y-81473241D01*
X129759315Y-81540280D01*
X129747150Y-81556213D01*
X129673463Y-81638050D01*
X129673458Y-81638057D01*
X129577973Y-81803443D01*
X129577970Y-81803450D01*
X129518959Y-81985068D01*
X129518958Y-81985072D01*
X129498996Y-82175000D01*
X129518958Y-82364928D01*
X129518959Y-82364931D01*
X129577970Y-82546549D01*
X129577973Y-82546556D01*
X129673460Y-82711944D01*
X129801247Y-82853866D01*
X129955748Y-82966118D01*
X130130212Y-83043794D01*
X130317013Y-83083500D01*
X130507987Y-83083500D01*
X130694788Y-83043794D01*
X130869252Y-82966118D01*
X131023753Y-82853866D01*
X131151540Y-82711944D01*
X131247027Y-82546556D01*
X131306042Y-82364928D01*
X131326004Y-82175000D01*
X131306042Y-81985072D01*
X131247027Y-81803444D01*
X131151540Y-81638056D01*
X131151536Y-81638050D01*
X131077850Y-81556213D01*
X131047620Y-81493221D01*
X131046000Y-81473241D01*
X131046000Y-80140105D01*
X131045999Y-80140101D01*
X131021655Y-80017715D01*
X131000441Y-79966500D01*
X130973901Y-79902425D01*
X130972203Y-79899884D01*
X130969400Y-79895688D01*
X130949288Y-79831452D01*
X130949183Y-79831464D01*
X130949127Y-79830938D01*
X130948524Y-79829010D01*
X130948504Y-79826800D01*
X130948504Y-79825003D01*
X130948504Y-79825000D01*
X130928542Y-79635072D01*
X130869527Y-79453444D01*
X130774040Y-79288056D01*
X130646253Y-79146134D01*
X130491752Y-79033882D01*
X130332052Y-78962779D01*
X130278815Y-78917529D01*
X130258494Y-78850680D01*
X130277539Y-78783457D01*
X130329905Y-78737201D01*
X130382488Y-78725500D01*
X136935833Y-78725500D01*
X137002872Y-78745185D01*
X137023514Y-78761819D01*
X148790364Y-90528669D01*
X148823849Y-90589992D01*
X148818865Y-90659684D01*
X148776997Y-90715614D01*
X148749191Y-90736430D01*
X148749188Y-90736433D01*
X148663028Y-90851527D01*
X148663024Y-90851534D01*
X148612782Y-90986241D01*
X148612780Y-90986248D01*
X148606379Y-91045776D01*
X148606379Y-91193621D01*
X150358379Y-91193621D01*
X150387060Y-91164940D01*
X150448383Y-91131455D01*
X150474741Y-91128621D01*
X151982379Y-91128621D01*
X152049418Y-91148306D01*
X152095173Y-91201110D01*
X152106379Y-91252621D01*
X152106379Y-91364621D01*
X152086694Y-91431660D01*
X152033890Y-91477415D01*
X151982379Y-91488621D01*
X151149379Y-91488621D01*
X151149379Y-91569621D01*
X151129694Y-91636660D01*
X151076890Y-91682415D01*
X151025379Y-91693621D01*
X148606379Y-91693621D01*
X148606379Y-91812359D01*
X148586694Y-91879398D01*
X148533890Y-91925153D01*
X148464732Y-91935097D01*
X148431943Y-91925638D01*
X148399021Y-91910980D01*
X148345784Y-91865730D01*
X148326136Y-91810663D01*
X148324179Y-91792041D01*
X148315976Y-91713991D01*
X148256961Y-91532363D01*
X148161474Y-91366975D01*
X148033687Y-91225053D01*
X147879186Y-91112801D01*
X147704722Y-91035125D01*
X147704720Y-91035124D01*
X147517921Y-90995419D01*
X147326947Y-90995419D01*
X147140148Y-91035124D01*
X146965680Y-91112802D01*
X146811179Y-91225054D01*
X146807274Y-91229392D01*
X146747788Y-91266040D01*
X146715125Y-91270419D01*
X146693682Y-91270419D01*
X146571303Y-91294762D01*
X146571295Y-91294764D01*
X146456008Y-91342517D01*
X146455999Y-91342522D01*
X146352248Y-91411847D01*
X146352244Y-91411850D01*
X146103064Y-91661032D01*
X146041741Y-91694517D01*
X146015383Y-91697351D01*
X145691505Y-91697351D01*
X145569126Y-91721694D01*
X145569118Y-91721696D01*
X145453831Y-91769449D01*
X145453822Y-91769454D01*
X145350071Y-91838779D01*
X145350067Y-91838782D01*
X143498670Y-93690181D01*
X143437347Y-93723666D01*
X143410989Y-93726500D01*
X143298749Y-93726500D01*
X143176370Y-93750843D01*
X143176362Y-93750845D01*
X143061075Y-93798598D01*
X143061066Y-93798603D01*
X142957315Y-93867928D01*
X142957311Y-93867931D01*
X142685063Y-94140181D01*
X142623740Y-94173666D01*
X142597382Y-94176500D01*
X142485142Y-94176500D01*
X142362763Y-94200843D01*
X142362755Y-94200845D01*
X142247468Y-94248598D01*
X142247459Y-94248603D01*
X142143708Y-94317928D01*
X142143704Y-94317931D01*
X141968024Y-94493612D01*
X141906701Y-94527097D01*
X141837009Y-94522113D01*
X141781076Y-94480241D01*
X141756659Y-94414777D01*
X141756343Y-94405931D01*
X141756343Y-92540448D01*
X141756342Y-92540444D01*
X141739533Y-92455939D01*
X141731998Y-92418058D01*
X141684243Y-92302768D01*
X141684242Y-92302767D01*
X141684239Y-92302761D01*
X141675387Y-92289513D01*
X141654509Y-92222835D01*
X141672994Y-92155455D01*
X141724973Y-92108765D01*
X141752700Y-92099334D01*
X141802288Y-92088794D01*
X141976752Y-92011118D01*
X142030770Y-91971871D01*
X142096574Y-91948391D01*
X142164628Y-91964216D01*
X142213324Y-92014321D01*
X142216130Y-92020095D01*
X142216423Y-92020603D01*
X142216424Y-92020605D01*
X142311911Y-92185993D01*
X142439698Y-92327915D01*
X142594199Y-92440167D01*
X142768663Y-92517843D01*
X142955464Y-92557549D01*
X143146438Y-92557549D01*
X143333239Y-92517843D01*
X143507703Y-92440167D01*
X143662204Y-92327915D01*
X143789991Y-92185993D01*
X143885478Y-92020605D01*
X143944493Y-91838977D01*
X143964455Y-91649049D01*
X143944493Y-91459121D01*
X143885478Y-91277493D01*
X143810892Y-91148306D01*
X143798696Y-91127182D01*
X143782223Y-91059282D01*
X143805076Y-90993255D01*
X143818402Y-90977501D01*
X143967302Y-90828602D01*
X144601086Y-90194819D01*
X144662409Y-90161334D01*
X144688767Y-90158500D01*
X144745487Y-90158500D01*
X144932288Y-90118794D01*
X145106752Y-90041118D01*
X145261253Y-89928866D01*
X145389040Y-89786944D01*
X145484527Y-89621556D01*
X145543542Y-89439928D01*
X145563504Y-89250000D01*
X145543542Y-89060072D01*
X145484527Y-88878444D01*
X145389040Y-88713056D01*
X145261253Y-88571134D01*
X145106752Y-88458882D01*
X144932288Y-88381206D01*
X144932286Y-88381205D01*
X144745487Y-88341500D01*
X144554513Y-88341500D01*
X144367714Y-88381205D01*
X144193246Y-88458883D01*
X144038745Y-88571135D01*
X143910959Y-88713057D01*
X143815473Y-88878443D01*
X143815470Y-88878450D01*
X143762133Y-89042606D01*
X143756458Y-89060072D01*
X143741855Y-89199011D01*
X143739019Y-89225995D01*
X143712434Y-89290609D01*
X143703379Y-89300714D01*
X142820986Y-90183110D01*
X142647118Y-90356978D01*
X142624767Y-90379329D01*
X142558878Y-90445217D01*
X142489554Y-90548967D01*
X142489549Y-90548977D01*
X142454089Y-90634585D01*
X142410247Y-90688989D01*
X142343953Y-90711053D01*
X142276254Y-90693773D01*
X142247378Y-90670104D01*
X142165350Y-90579002D01*
X142135120Y-90516010D01*
X142133500Y-90496030D01*
X142133500Y-86171756D01*
X142153185Y-86104717D01*
X142165346Y-86088788D01*
X142239040Y-86006944D01*
X142334527Y-85841556D01*
X142393542Y-85659928D01*
X142413504Y-85470000D01*
X142393542Y-85280072D01*
X142334527Y-85098444D01*
X142239040Y-84933056D01*
X142111253Y-84791134D01*
X141956752Y-84678882D01*
X141782288Y-84601206D01*
X141782286Y-84601205D01*
X141595487Y-84561500D01*
X141404513Y-84561500D01*
X141217714Y-84601205D01*
X141217712Y-84601206D01*
X141060651Y-84671134D01*
X141043246Y-84678883D01*
X140888745Y-84791135D01*
X140760959Y-84933057D01*
X140665473Y-85098443D01*
X140665470Y-85098450D01*
X140607616Y-85276507D01*
X140606458Y-85280072D01*
X140586496Y-85470000D01*
X140606458Y-85659928D01*
X140606459Y-85659931D01*
X140665470Y-85841549D01*
X140665473Y-85841556D01*
X140736378Y-85964368D01*
X140760960Y-86006944D01*
X140834649Y-86088784D01*
X140864880Y-86151775D01*
X140866500Y-86171756D01*
X140866500Y-86374723D01*
X140846815Y-86441762D01*
X140794011Y-86487517D01*
X140724853Y-86497461D01*
X140716719Y-86496013D01*
X140695487Y-86491500D01*
X140504513Y-86491500D01*
X140317714Y-86531205D01*
X140143246Y-86608883D01*
X139988745Y-86721135D01*
X139860959Y-86863057D01*
X139765473Y-87028443D01*
X139765470Y-87028450D01*
X139706459Y-87210068D01*
X139706458Y-87210072D01*
X139686496Y-87400000D01*
X139706458Y-87589928D01*
X139706459Y-87589931D01*
X139765470Y-87771549D01*
X139765473Y-87771556D01*
X139860960Y-87936944D01*
X139893419Y-87972993D01*
X139898867Y-87979044D01*
X139929097Y-88042035D01*
X139920472Y-88111371D01*
X139894398Y-88149697D01*
X137806991Y-90237103D01*
X137745668Y-90270588D01*
X137688876Y-90269629D01*
X137684641Y-90268556D01*
X137462569Y-90231500D01*
X137237431Y-90231500D01*
X137237430Y-90231500D01*
X137210178Y-90236047D01*
X137140813Y-90227664D01*
X137086991Y-90183110D01*
X137065801Y-90116531D01*
X137071838Y-90075423D01*
X137120738Y-89924927D01*
X137140700Y-89734999D01*
X137120738Y-89545071D01*
X137061723Y-89363443D01*
X137019672Y-89290609D01*
X137007823Y-89270085D01*
X136991350Y-89202184D01*
X137014203Y-89136157D01*
X137064773Y-89094806D01*
X137106752Y-89076117D01*
X137261253Y-88963865D01*
X137389040Y-88821943D01*
X137484527Y-88656555D01*
X137543542Y-88474927D01*
X137563504Y-88284999D01*
X137543542Y-88095071D01*
X137484527Y-87913443D01*
X137389040Y-87748055D01*
X137261253Y-87606133D01*
X137106752Y-87493881D01*
X136932288Y-87416205D01*
X136932286Y-87416204D01*
X136745487Y-87376499D01*
X136554513Y-87376499D01*
X136367714Y-87416204D01*
X136193246Y-87493882D01*
X136038745Y-87606134D01*
X135910959Y-87748056D01*
X135815473Y-87913442D01*
X135815470Y-87913449D01*
X135769270Y-88055640D01*
X135756458Y-88095071D01*
X135754745Y-88111371D01*
X135737587Y-88274614D01*
X135717369Y-88330542D01*
X135665798Y-88407723D01*
X135665794Y-88407730D01*
X135618041Y-88523017D01*
X135618039Y-88523025D01*
X135593696Y-88645404D01*
X135593696Y-89033240D01*
X135574011Y-89100279D01*
X135561846Y-89116212D01*
X135488159Y-89198049D01*
X135488154Y-89198056D01*
X135392669Y-89363442D01*
X135392666Y-89363449D01*
X135333655Y-89545067D01*
X135333654Y-89545071D01*
X135313692Y-89734999D01*
X135333654Y-89924927D01*
X135333655Y-89924929D01*
X135333655Y-89924930D01*
X135383287Y-90077682D01*
X135385282Y-90147523D01*
X135349202Y-90207356D01*
X135286501Y-90238184D01*
X135265356Y-90240000D01*
X135060000Y-90240000D01*
X135060000Y-91156988D01*
X135002993Y-91124075D01*
X134875826Y-91090000D01*
X134744174Y-91090000D01*
X134617007Y-91124075D01*
X134560000Y-91156988D01*
X134560000Y-90240000D01*
X134392500Y-90240000D01*
X134325461Y-90220315D01*
X134279706Y-90167511D01*
X134268500Y-90116000D01*
X134268500Y-89689911D01*
X134288185Y-89622872D01*
X134340989Y-89577117D01*
X134341916Y-89576698D01*
X134466752Y-89521118D01*
X134621253Y-89408866D01*
X134749040Y-89266944D01*
X134844527Y-89101556D01*
X134903542Y-88919928D01*
X134923504Y-88730000D01*
X134903542Y-88540072D01*
X134844527Y-88358444D01*
X134749040Y-88193056D01*
X134621253Y-88051134D01*
X134466752Y-87938882D01*
X134292288Y-87861206D01*
X134292286Y-87861205D01*
X134105487Y-87821500D01*
X133914513Y-87821500D01*
X133727714Y-87861205D01*
X133727712Y-87861206D01*
X133557606Y-87936942D01*
X133553246Y-87938883D01*
X133398745Y-88051135D01*
X133270959Y-88193057D01*
X133175473Y-88358443D01*
X133175470Y-88358450D01*
X133116459Y-88540068D01*
X133116458Y-88540072D01*
X133097272Y-88722616D01*
X133096496Y-88730002D01*
X133096496Y-88733043D01*
X133095998Y-88734737D01*
X133095817Y-88736463D01*
X133095501Y-88736429D01*
X133076811Y-88800082D01*
X133075601Y-88801929D01*
X133073600Y-88804923D01*
X133025845Y-88920214D01*
X133025843Y-88920222D01*
X133001500Y-89042601D01*
X133001500Y-92827398D01*
X133025843Y-92949777D01*
X133025845Y-92949785D01*
X133073598Y-93065072D01*
X133073603Y-93065081D01*
X133142928Y-93168832D01*
X133142931Y-93168836D01*
X133421163Y-93447069D01*
X133421167Y-93447072D01*
X133493249Y-93495236D01*
X133538054Y-93548848D01*
X133546761Y-93618173D01*
X133537915Y-93648146D01*
X133520703Y-93687386D01*
X133465436Y-93905628D01*
X133465434Y-93905640D01*
X133446844Y-94129994D01*
X133446844Y-94130005D01*
X133465434Y-94354359D01*
X133465436Y-94354371D01*
X133520703Y-94572614D01*
X133611140Y-94778792D01*
X133734276Y-94967265D01*
X133734284Y-94967276D01*
X133886756Y-95132902D01*
X133886761Y-95132907D01*
X133935749Y-95171036D01*
X134064424Y-95271189D01*
X134064429Y-95271191D01*
X134064431Y-95271193D01*
X134100930Y-95290946D01*
X134150520Y-95340165D01*
X134165628Y-95408382D01*
X134141457Y-95473937D01*
X134100930Y-95509054D01*
X134064431Y-95528806D01*
X134064422Y-95528812D01*
X133886761Y-95667092D01*
X133886756Y-95667097D01*
X133734284Y-95832723D01*
X133734276Y-95832734D01*
X133611140Y-96021207D01*
X133520704Y-96227384D01*
X133467726Y-96436587D01*
X133432186Y-96496742D01*
X133369765Y-96528134D01*
X133327848Y-96527526D01*
X133327796Y-96528030D01*
X133322232Y-96527445D01*
X133321747Y-96527438D01*
X133321338Y-96527351D01*
X133264617Y-96527351D01*
X133197578Y-96507666D01*
X133176936Y-96491032D01*
X132372985Y-95687080D01*
X132372981Y-95687077D01*
X132269230Y-95617752D01*
X132269221Y-95617747D01*
X132153934Y-95569994D01*
X132153926Y-95569992D01*
X132031547Y-95545649D01*
X132031543Y-95545649D01*
X131866458Y-95545649D01*
X131799419Y-95525964D01*
X131774309Y-95504622D01*
X131770403Y-95500284D01*
X131769876Y-95499901D01*
X131734908Y-95474495D01*
X131692244Y-95419165D01*
X131686265Y-95349552D01*
X131693234Y-95326725D01*
X131708054Y-95290946D01*
X131749351Y-95191247D01*
X131778500Y-95044705D01*
X131778500Y-94895295D01*
X131778500Y-85755294D01*
X131778500Y-85755291D01*
X131749352Y-85608759D01*
X131749351Y-85608758D01*
X131749351Y-85608754D01*
X131720844Y-85539931D01*
X131692175Y-85470718D01*
X131691695Y-85470000D01*
X131669891Y-85437367D01*
X131669891Y-85437366D01*
X131669889Y-85437365D01*
X131609166Y-85346485D01*
X131609163Y-85346481D01*
X131459785Y-85197103D01*
X131429535Y-85147740D01*
X131411142Y-85091134D01*
X131374527Y-84978444D01*
X131300370Y-84850000D01*
X133206496Y-84850000D01*
X133226458Y-85039928D01*
X133226459Y-85039931D01*
X133285470Y-85221549D01*
X133285473Y-85221556D01*
X133380960Y-85386944D01*
X133508747Y-85528866D01*
X133663248Y-85641118D01*
X133837712Y-85718794D01*
X134024513Y-85758500D01*
X134081234Y-85758500D01*
X134148273Y-85778185D01*
X134168915Y-85794819D01*
X134547929Y-86173833D01*
X134592890Y-86218794D01*
X134636168Y-86262072D01*
X134739918Y-86331396D01*
X134739924Y-86331399D01*
X134739925Y-86331400D01*
X134855215Y-86379155D01*
X134977601Y-86403499D01*
X134977605Y-86403500D01*
X134977606Y-86403500D01*
X136242691Y-86403500D01*
X136309730Y-86423185D01*
X136334840Y-86444527D01*
X136338747Y-86448866D01*
X136493248Y-86561118D01*
X136667712Y-86638794D01*
X136854513Y-86678500D01*
X137045487Y-86678500D01*
X137232288Y-86638794D01*
X137406752Y-86561118D01*
X137561253Y-86448866D01*
X137689040Y-86306944D01*
X137784527Y-86141556D01*
X137843542Y-85959928D01*
X137863504Y-85770000D01*
X137843542Y-85580072D01*
X137784527Y-85398444D01*
X137689040Y-85233056D01*
X137561253Y-85091134D01*
X137406752Y-84978882D01*
X137232288Y-84901206D01*
X137232286Y-84901205D01*
X137045487Y-84861500D01*
X136854513Y-84861500D01*
X136667714Y-84901205D01*
X136664280Y-84902734D01*
X136494219Y-84978450D01*
X136493246Y-84978883D01*
X136338745Y-85091135D01*
X136334840Y-85095473D01*
X136275354Y-85132121D01*
X136242691Y-85136500D01*
X135353766Y-85136500D01*
X135286727Y-85116815D01*
X135266085Y-85100181D01*
X135066620Y-84900716D01*
X135033135Y-84839393D01*
X135030983Y-84826015D01*
X135013542Y-84660072D01*
X134954527Y-84478444D01*
X134859040Y-84313056D01*
X134731253Y-84171134D01*
X134576752Y-84058882D01*
X134402288Y-83981206D01*
X134402286Y-83981205D01*
X134215487Y-83941500D01*
X134024513Y-83941500D01*
X133837714Y-83981205D01*
X133663246Y-84058883D01*
X133508745Y-84171135D01*
X133380959Y-84313057D01*
X133285473Y-84478443D01*
X133285470Y-84478450D01*
X133226459Y-84660068D01*
X133226458Y-84660072D01*
X133206496Y-84850000D01*
X131300370Y-84850000D01*
X131279040Y-84813056D01*
X131151253Y-84671134D01*
X130996752Y-84558882D01*
X130822288Y-84481206D01*
X130822286Y-84481205D01*
X130635487Y-84441500D01*
X130444513Y-84441500D01*
X130257714Y-84481205D01*
X130083246Y-84558883D01*
X129928745Y-84671135D01*
X129800959Y-84813057D01*
X129705473Y-84978443D01*
X129705470Y-84978450D01*
X129654117Y-85136500D01*
X129646458Y-85160072D01*
X129626496Y-85350000D01*
X129646458Y-85539928D01*
X129646459Y-85539931D01*
X129705470Y-85721549D01*
X129705473Y-85721556D01*
X129800960Y-85886944D01*
X129928747Y-86028866D01*
X130083248Y-86141118D01*
X130187938Y-86187729D01*
X130241172Y-86232976D01*
X130261494Y-86299825D01*
X130261500Y-86301006D01*
X130261500Y-94604456D01*
X130241815Y-94671495D01*
X130225181Y-94692137D01*
X129012877Y-95904440D01*
X129012876Y-95904441D01*
X128929866Y-96028676D01*
X128872690Y-96166711D01*
X128870111Y-96179676D01*
X128862303Y-96218932D01*
X128843541Y-96313250D01*
X128843541Y-97313048D01*
X128872688Y-97459578D01*
X128872690Y-97459586D01*
X128925095Y-97586104D01*
X128929867Y-97597623D01*
X128954952Y-97635166D01*
X129012876Y-97721856D01*
X129012877Y-97721857D01*
X130250840Y-98959819D01*
X130284325Y-99021142D01*
X130279341Y-99090834D01*
X130237469Y-99146767D01*
X130172005Y-99171184D01*
X130163159Y-99171500D01*
X127683097Y-99171500D01*
X127616058Y-99151815D01*
X127570303Y-99099011D01*
X127560359Y-99029853D01*
X127570715Y-98995095D01*
X127613429Y-98903492D01*
X127613432Y-98903486D01*
X127670636Y-98690000D01*
X126773012Y-98690000D01*
X126805925Y-98632993D01*
X126840000Y-98505826D01*
X126840000Y-98374174D01*
X126805925Y-98247007D01*
X126773012Y-98190000D01*
X127670636Y-98190000D01*
X127670635Y-98189999D01*
X127613432Y-97976513D01*
X127613429Y-97976507D01*
X127513600Y-97762422D01*
X127513599Y-97762420D01*
X127378113Y-97568926D01*
X127378108Y-97568920D01*
X127211082Y-97401894D01*
X127024968Y-97271575D01*
X126981344Y-97216998D01*
X126974151Y-97147499D01*
X127005673Y-97085145D01*
X127024968Y-97068425D01*
X127211082Y-96938105D01*
X127378105Y-96771082D01*
X127513600Y-96577578D01*
X127613429Y-96363492D01*
X127613432Y-96363486D01*
X127670636Y-96150000D01*
X126773012Y-96150000D01*
X126805925Y-96092993D01*
X126840000Y-95965826D01*
X126840000Y-95834174D01*
X126805925Y-95707007D01*
X126773012Y-95650000D01*
X127670636Y-95650000D01*
X127670635Y-95649999D01*
X127613432Y-95436513D01*
X127613429Y-95436507D01*
X127513600Y-95222422D01*
X127513599Y-95222420D01*
X127378113Y-95028926D01*
X127378108Y-95028920D01*
X127211082Y-94861894D01*
X127024968Y-94731575D01*
X126981344Y-94676998D01*
X126974151Y-94607499D01*
X127005673Y-94545145D01*
X127024968Y-94528425D01*
X127211082Y-94398105D01*
X127378105Y-94231082D01*
X127513600Y-94037578D01*
X127613429Y-93823492D01*
X127613432Y-93823486D01*
X127670636Y-93610000D01*
X126773012Y-93610000D01*
X126805925Y-93552993D01*
X126840000Y-93425826D01*
X126840000Y-93294174D01*
X126805925Y-93167007D01*
X126773012Y-93110000D01*
X127670636Y-93110000D01*
X127670635Y-93109999D01*
X127613432Y-92896513D01*
X127613429Y-92896507D01*
X127513600Y-92682422D01*
X127513599Y-92682420D01*
X127378113Y-92488926D01*
X127378108Y-92488920D01*
X127211082Y-92321894D01*
X127024968Y-92191575D01*
X126981344Y-92136998D01*
X126974151Y-92067499D01*
X127005673Y-92005145D01*
X127024968Y-91988425D01*
X127211082Y-91858105D01*
X127378105Y-91691082D01*
X127513600Y-91497578D01*
X127613429Y-91283492D01*
X127613432Y-91283486D01*
X127670636Y-91070000D01*
X126773012Y-91070000D01*
X126805925Y-91012993D01*
X126840000Y-90885826D01*
X126840000Y-90754174D01*
X126805925Y-90627007D01*
X126773012Y-90570000D01*
X127670636Y-90570000D01*
X127670635Y-90569999D01*
X127613432Y-90356513D01*
X127613429Y-90356507D01*
X127513600Y-90142422D01*
X127513599Y-90142420D01*
X127378113Y-89948926D01*
X127378108Y-89948920D01*
X127211082Y-89781894D01*
X127024968Y-89651575D01*
X126981344Y-89596998D01*
X126974151Y-89527499D01*
X127005673Y-89465145D01*
X127024968Y-89448425D01*
X127211082Y-89318105D01*
X127378105Y-89151082D01*
X127513600Y-88957578D01*
X127613429Y-88743492D01*
X127613432Y-88743486D01*
X127670636Y-88530000D01*
X126773012Y-88530000D01*
X126805925Y-88472993D01*
X126840000Y-88345826D01*
X126840000Y-88214174D01*
X126805925Y-88087007D01*
X126773012Y-88030000D01*
X127670636Y-88030000D01*
X127670635Y-88029999D01*
X127613432Y-87816513D01*
X127613429Y-87816507D01*
X127513600Y-87602422D01*
X127513599Y-87602420D01*
X127378113Y-87408926D01*
X127378108Y-87408920D01*
X127211082Y-87241894D01*
X127024968Y-87111575D01*
X126981344Y-87056998D01*
X126974151Y-86987499D01*
X127005673Y-86925145D01*
X127024968Y-86908425D01*
X127211082Y-86778105D01*
X127378105Y-86611082D01*
X127513600Y-86417578D01*
X127613429Y-86203492D01*
X127613432Y-86203486D01*
X127670636Y-85990000D01*
X126773012Y-85990000D01*
X126805925Y-85932993D01*
X126840000Y-85805826D01*
X126840000Y-85674174D01*
X126805925Y-85547007D01*
X126773012Y-85490000D01*
X127670636Y-85490000D01*
X127670635Y-85489999D01*
X127613432Y-85276513D01*
X127613429Y-85276507D01*
X127513600Y-85062422D01*
X127513599Y-85062420D01*
X127378113Y-84868926D01*
X127378108Y-84868920D01*
X127211082Y-84701894D01*
X127030197Y-84575236D01*
X126986572Y-84520659D01*
X126979380Y-84451160D01*
X127010902Y-84388806D01*
X127042300Y-84364608D01*
X127085576Y-84341189D01*
X127263240Y-84202906D01*
X127415722Y-84037268D01*
X127538860Y-83848791D01*
X127629296Y-83642616D01*
X127684564Y-83424368D01*
X127700380Y-83233500D01*
X127703156Y-83200005D01*
X127703156Y-83199994D01*
X127684565Y-82975640D01*
X127684563Y-82975628D01*
X127655774Y-82861944D01*
X127629296Y-82757384D01*
X127538860Y-82551209D01*
X127535815Y-82546549D01*
X127477291Y-82456970D01*
X127415722Y-82362732D01*
X127415719Y-82362729D01*
X127415715Y-82362723D01*
X127263243Y-82197097D01*
X127263238Y-82197092D01*
X127085577Y-82058812D01*
X127085572Y-82058808D01*
X126887580Y-81951661D01*
X126887577Y-81951659D01*
X126887574Y-81951658D01*
X126887571Y-81951657D01*
X126887569Y-81951656D01*
X126674637Y-81878556D01*
X126452569Y-81841500D01*
X126227431Y-81841500D01*
X126005362Y-81878556D01*
X125792430Y-81951656D01*
X125792419Y-81951661D01*
X125594427Y-82058808D01*
X125594422Y-82058812D01*
X125416761Y-82197092D01*
X125353548Y-82265760D01*
X125293661Y-82301750D01*
X125223823Y-82299649D01*
X125166207Y-82260124D01*
X125146138Y-82225110D01*
X125100889Y-82103796D01*
X125067214Y-82058812D01*
X125013261Y-81986739D01*
X124896204Y-81899111D01*
X124759203Y-81848011D01*
X124698654Y-81841500D01*
X124698638Y-81841500D01*
X124024137Y-81841500D01*
X123957098Y-81821815D01*
X123911343Y-81769011D01*
X123901399Y-81699853D01*
X123906204Y-81679186D01*
X123931195Y-81602275D01*
X123951157Y-81412347D01*
X123931195Y-81222419D01*
X123872180Y-81040791D01*
X123776693Y-80875403D01*
X123648906Y-80733481D01*
X123494405Y-80621229D01*
X123319941Y-80543553D01*
X123319939Y-80543552D01*
X123133140Y-80503847D01*
X122942166Y-80503847D01*
X122817933Y-80530253D01*
X122748265Y-80524937D01*
X122692532Y-80482800D01*
X122684765Y-80470963D01*
X122608031Y-80338057D01*
X122480244Y-80196135D01*
X122403121Y-80140101D01*
X122325742Y-80083882D01*
X122151278Y-80006206D01*
X122151276Y-80006205D01*
X121964477Y-79966500D01*
X121773503Y-79966500D01*
X121586704Y-80006205D01*
X121412236Y-80083883D01*
X121257735Y-80196135D01*
X121129949Y-80338057D01*
X121034463Y-80503443D01*
X121034460Y-80503450D01*
X120975449Y-80685068D01*
X120975448Y-80685072D01*
X120970360Y-80733482D01*
X120958009Y-80850996D01*
X120931424Y-80915610D01*
X120922369Y-80925715D01*
X120435739Y-81412347D01*
X120306167Y-81541919D01*
X120262047Y-81586039D01*
X120217927Y-81630158D01*
X120148603Y-81733908D01*
X120148598Y-81733917D01*
X120100845Y-81849204D01*
X120100843Y-81849212D01*
X120076500Y-81971591D01*
X120076500Y-84878241D01*
X120056815Y-84945280D01*
X120044650Y-84961213D01*
X119970963Y-85043050D01*
X119970958Y-85043057D01*
X119875473Y-85208443D01*
X119875470Y-85208450D01*
X119830620Y-85346485D01*
X119816458Y-85390072D01*
X119796496Y-85580000D01*
X119816458Y-85769928D01*
X119816459Y-85769931D01*
X119875470Y-85951549D01*
X119875473Y-85951556D01*
X119970960Y-86116944D01*
X120098747Y-86258866D01*
X120253248Y-86371118D01*
X120427712Y-86448794D01*
X120614513Y-86488500D01*
X120805487Y-86488500D01*
X120992288Y-86448794D01*
X121166752Y-86371118D01*
X121321253Y-86258866D01*
X121449040Y-86116944D01*
X121544527Y-85951556D01*
X121603542Y-85769928D01*
X121623504Y-85580000D01*
X121603542Y-85390072D01*
X121544527Y-85208444D01*
X121482550Y-85101097D01*
X121449041Y-85043057D01*
X121449036Y-85043050D01*
X121375350Y-84961213D01*
X121345120Y-84898221D01*
X121343500Y-84878241D01*
X121343500Y-83346025D01*
X121363185Y-83278986D01*
X121415989Y-83233231D01*
X121485147Y-83223287D01*
X121493247Y-83224728D01*
X121534513Y-83233500D01*
X121534516Y-83233500D01*
X121725487Y-83233500D01*
X121912288Y-83193794D01*
X122086752Y-83116118D01*
X122241253Y-83003866D01*
X122241255Y-83003862D01*
X122244614Y-83001423D01*
X122310420Y-82977943D01*
X122378474Y-82993768D01*
X122427169Y-83043874D01*
X122441500Y-83101741D01*
X122441500Y-84098654D01*
X122448011Y-84159202D01*
X122448011Y-84159204D01*
X122488907Y-84268847D01*
X122499111Y-84296204D01*
X122586739Y-84413261D01*
X122703796Y-84500889D01*
X122755737Y-84520262D01*
X122821595Y-84544827D01*
X122877528Y-84586699D01*
X122901944Y-84652163D01*
X122887092Y-84720436D01*
X122869490Y-84744991D01*
X122724279Y-84902730D01*
X122724276Y-84902734D01*
X122601140Y-85091207D01*
X122510703Y-85297385D01*
X122455436Y-85515628D01*
X122455434Y-85515640D01*
X122436844Y-85739994D01*
X122436844Y-85740005D01*
X122455434Y-85964359D01*
X122455436Y-85964371D01*
X122510703Y-86182614D01*
X122601140Y-86388792D01*
X122724276Y-86577265D01*
X122724284Y-86577276D01*
X122856717Y-86721134D01*
X122876760Y-86742906D01*
X123054424Y-86881189D01*
X123054429Y-86881191D01*
X123054431Y-86881193D01*
X123090930Y-86900946D01*
X123140520Y-86950165D01*
X123155628Y-87018382D01*
X123131457Y-87083937D01*
X123090930Y-87119054D01*
X123054431Y-87138806D01*
X123054422Y-87138812D01*
X122876761Y-87277092D01*
X122876756Y-87277097D01*
X122724284Y-87442723D01*
X122724276Y-87442734D01*
X122601140Y-87631207D01*
X122510703Y-87837385D01*
X122455436Y-88055628D01*
X122455434Y-88055640D01*
X122436844Y-88279994D01*
X122436844Y-88280005D01*
X122455434Y-88504359D01*
X122455436Y-88504371D01*
X122510703Y-88722614D01*
X122601140Y-88928792D01*
X122724276Y-89117265D01*
X122724284Y-89117276D01*
X122876756Y-89282902D01*
X122876761Y-89282907D01*
X122899639Y-89300714D01*
X123054424Y-89421189D01*
X123054429Y-89421191D01*
X123054431Y-89421193D01*
X123090930Y-89440946D01*
X123140520Y-89490165D01*
X123155628Y-89558382D01*
X123131457Y-89623937D01*
X123090930Y-89659054D01*
X123054431Y-89678806D01*
X123054422Y-89678812D01*
X122876761Y-89817092D01*
X122876756Y-89817097D01*
X122724284Y-89982723D01*
X122724276Y-89982734D01*
X122601140Y-90171207D01*
X122510703Y-90377385D01*
X122455436Y-90595628D01*
X122455434Y-90595640D01*
X122436844Y-90819994D01*
X122436844Y-90820005D01*
X122455434Y-91044359D01*
X122455436Y-91044371D01*
X122510703Y-91262614D01*
X122601140Y-91468792D01*
X122724276Y-91657265D01*
X122724284Y-91657276D01*
X122876756Y-91822902D01*
X122876761Y-91822907D01*
X122898722Y-91840000D01*
X123054424Y-91961189D01*
X123054429Y-91961191D01*
X123054431Y-91961193D01*
X123090930Y-91980946D01*
X123140520Y-92030165D01*
X123155628Y-92098382D01*
X123131457Y-92163937D01*
X123090930Y-92199054D01*
X123054431Y-92218806D01*
X123054422Y-92218812D01*
X122876761Y-92357092D01*
X122876756Y-92357097D01*
X122724284Y-92522723D01*
X122724276Y-92522734D01*
X122601140Y-92711207D01*
X122510703Y-92917385D01*
X122455436Y-93135628D01*
X122455434Y-93135640D01*
X122436844Y-93359994D01*
X122436844Y-93360005D01*
X122455434Y-93584359D01*
X122455436Y-93584371D01*
X122510703Y-93802614D01*
X122601140Y-94008792D01*
X122724276Y-94197265D01*
X122724284Y-94197276D01*
X122876756Y-94362902D01*
X122876760Y-94362906D01*
X123054424Y-94501189D01*
X123054429Y-94501191D01*
X123054431Y-94501193D01*
X123090930Y-94520946D01*
X123140520Y-94570165D01*
X123155628Y-94638382D01*
X123131457Y-94703937D01*
X123090930Y-94739054D01*
X123054431Y-94758806D01*
X123054422Y-94758812D01*
X122876761Y-94897092D01*
X122876756Y-94897097D01*
X122724284Y-95062723D01*
X122724276Y-95062734D01*
X122601140Y-95251207D01*
X122510703Y-95457385D01*
X122455436Y-95675628D01*
X122455434Y-95675640D01*
X122436844Y-95899994D01*
X122436844Y-95900005D01*
X122455434Y-96124359D01*
X122455436Y-96124371D01*
X122510703Y-96342614D01*
X122601140Y-96548792D01*
X122724276Y-96737265D01*
X122724284Y-96737276D01*
X122842520Y-96865712D01*
X122876760Y-96902906D01*
X123054424Y-97041189D01*
X123054429Y-97041191D01*
X123054431Y-97041193D01*
X123090930Y-97060946D01*
X123140520Y-97110165D01*
X123155628Y-97178382D01*
X123131457Y-97243937D01*
X123090930Y-97279054D01*
X123054431Y-97298806D01*
X123054422Y-97298812D01*
X122876761Y-97437092D01*
X122876756Y-97437097D01*
X122724284Y-97602723D01*
X122724276Y-97602734D01*
X122601140Y-97791207D01*
X122510703Y-97997385D01*
X122455436Y-98215628D01*
X122455434Y-98215640D01*
X122436844Y-98439994D01*
X122436844Y-98440005D01*
X122455434Y-98664359D01*
X122455436Y-98664371D01*
X122475110Y-98742060D01*
X122472485Y-98811880D01*
X122432528Y-98869198D01*
X122367927Y-98895814D01*
X122354904Y-98896500D01*
X122249513Y-98896500D01*
X122062714Y-98936205D01*
X122062712Y-98936206D01*
X121910718Y-99003878D01*
X121888246Y-99013883D01*
X121733745Y-99126135D01*
X121605959Y-99268057D01*
X121510473Y-99433443D01*
X121510470Y-99433450D01*
X121468416Y-99562880D01*
X121451458Y-99615072D01*
X121431496Y-99805000D01*
X121451458Y-99994928D01*
X121451459Y-99994931D01*
X121510470Y-100176549D01*
X121510473Y-100176556D01*
X121605960Y-100341944D01*
X121692899Y-100438500D01*
X121718453Y-100466881D01*
X121733747Y-100483866D01*
X121745194Y-100492183D01*
X121787859Y-100547511D01*
X121793838Y-100617124D01*
X121761233Y-100678920D01*
X121700394Y-100713277D01*
X121672308Y-100716500D01*
X120912906Y-100716500D01*
X120790527Y-100740843D01*
X120790519Y-100740845D01*
X120675232Y-100788598D01*
X120675223Y-100788603D01*
X120571472Y-100857928D01*
X120571468Y-100857931D01*
X120038103Y-101391298D01*
X119866167Y-101563234D01*
X119833447Y-101595954D01*
X119777927Y-101651473D01*
X119708603Y-101755223D01*
X119708598Y-101755232D01*
X119660845Y-101870519D01*
X119660843Y-101870527D01*
X119636500Y-101992906D01*
X119636500Y-104197653D01*
X119616815Y-104264692D01*
X119564011Y-104310447D01*
X119512500Y-104321653D01*
X119484360Y-104321653D01*
X119297560Y-104361358D01*
X119297551Y-104361361D01*
X119285249Y-104366838D01*
X119215999Y-104376118D01*
X119152724Y-104346485D01*
X119147141Y-104341236D01*
X117769972Y-102964067D01*
X117736487Y-102902744D01*
X117733653Y-102876386D01*
X117733653Y-101461603D01*
X117753338Y-101394564D01*
X117765499Y-101378635D01*
X117839193Y-101296791D01*
X117934680Y-101131403D01*
X117993695Y-100949775D01*
X118013657Y-100759847D01*
X117993695Y-100569919D01*
X117934680Y-100388291D01*
X117839193Y-100222903D01*
X117711406Y-100080981D01*
X117556905Y-99968729D01*
X117382441Y-99891053D01*
X117382439Y-99891052D01*
X117376504Y-99888410D01*
X117377700Y-99885722D01*
X117330588Y-99853507D01*
X117303390Y-99789148D01*
X117315305Y-99720302D01*
X117338898Y-99687335D01*
X117463353Y-99562881D01*
X117573721Y-99397704D01*
X117649744Y-99214169D01*
X117688500Y-99019329D01*
X117688500Y-98820671D01*
X117649744Y-98625831D01*
X117573721Y-98442296D01*
X117573720Y-98442295D01*
X117573717Y-98442289D01*
X117463353Y-98277119D01*
X117463350Y-98277115D01*
X117322884Y-98136649D01*
X117322880Y-98136646D01*
X117157710Y-98026282D01*
X117157701Y-98026277D01*
X116974169Y-97950256D01*
X116974161Y-97950254D01*
X116779333Y-97911500D01*
X116779329Y-97911500D01*
X116235952Y-97911500D01*
X116168913Y-97891815D01*
X116123158Y-97839011D01*
X116113214Y-97769853D01*
X116128566Y-97725499D01*
X116136278Y-97712140D01*
X116136277Y-97712140D01*
X116136281Y-97712135D01*
X116175500Y-97565766D01*
X116175500Y-97414234D01*
X116136281Y-97267865D01*
X116128656Y-97254659D01*
X116122466Y-97243937D01*
X116060515Y-97136635D01*
X115953365Y-97029485D01*
X115837057Y-96962334D01*
X115822136Y-96953719D01*
X115748950Y-96934109D01*
X115675766Y-96914500D01*
X115524234Y-96914500D01*
X115377863Y-96953719D01*
X115246635Y-97029485D01*
X115246632Y-97029487D01*
X115139487Y-97136632D01*
X115139485Y-97136635D01*
X115063719Y-97267863D01*
X115027807Y-97401891D01*
X115024500Y-97414234D01*
X115024500Y-97565766D01*
X115034909Y-97604614D01*
X115063719Y-97712136D01*
X115092751Y-97762420D01*
X115139485Y-97843365D01*
X115139486Y-97843366D01*
X115143549Y-97850403D01*
X115142345Y-97851097D01*
X115164423Y-97908194D01*
X115150389Y-97976639D01*
X115106493Y-98021597D01*
X115107361Y-98022895D01*
X114937118Y-98136646D01*
X114796649Y-98277115D01*
X114796646Y-98277119D01*
X114686282Y-98442289D01*
X114686277Y-98442298D01*
X114610256Y-98625830D01*
X114610254Y-98625838D01*
X114571500Y-98820666D01*
X114571500Y-98837960D01*
X114551815Y-98904999D01*
X114499011Y-98950754D01*
X114429853Y-98960698D01*
X114366297Y-98931673D01*
X114359819Y-98925641D01*
X114232319Y-98798141D01*
X114198834Y-98736818D01*
X114196000Y-98710460D01*
X114196000Y-96390000D01*
X117456498Y-96390000D01*
X117476460Y-96579928D01*
X117476461Y-96579931D01*
X117535472Y-96761549D01*
X117535475Y-96761556D01*
X117630962Y-96926944D01*
X117758749Y-97068866D01*
X117913250Y-97181118D01*
X118087714Y-97258794D01*
X118274515Y-97298500D01*
X118465489Y-97298500D01*
X118652290Y-97258794D01*
X118826754Y-97181118D01*
X118981255Y-97068866D01*
X119109042Y-96926944D01*
X119204529Y-96761556D01*
X119263544Y-96579928D01*
X119280983Y-96413997D01*
X119307566Y-96349387D01*
X119316612Y-96339292D01*
X119896146Y-95759760D01*
X119965475Y-95656002D01*
X119978750Y-95623953D01*
X120012465Y-95581329D01*
X120010496Y-95579142D01*
X120015323Y-95574794D01*
X120015328Y-95574791D01*
X120143115Y-95432869D01*
X120238602Y-95267481D01*
X120297617Y-95085853D01*
X120317579Y-94895925D01*
X120297617Y-94705997D01*
X120238602Y-94524369D01*
X120143115Y-94358981D01*
X120015328Y-94217059D01*
X119860827Y-94104807D01*
X119686363Y-94027131D01*
X119686361Y-94027130D01*
X119499562Y-93987425D01*
X119308588Y-93987425D01*
X119121789Y-94027130D01*
X118947321Y-94104808D01*
X118792820Y-94217060D01*
X118665034Y-94358982D01*
X118569548Y-94524368D01*
X118569545Y-94524375D01*
X118521743Y-94671495D01*
X118510533Y-94705997D01*
X118490571Y-94895925D01*
X118510533Y-95085853D01*
X118510534Y-95085856D01*
X118552704Y-95215643D01*
X118554699Y-95285484D01*
X118522455Y-95341641D01*
X118418918Y-95445180D01*
X118357595Y-95478666D01*
X118331236Y-95481500D01*
X118274515Y-95481500D01*
X118087716Y-95521205D01*
X118032814Y-95545649D01*
X117929512Y-95591642D01*
X117913248Y-95598883D01*
X117758747Y-95711135D01*
X117630961Y-95853057D01*
X117535475Y-96018443D01*
X117535472Y-96018450D01*
X117476461Y-96200068D01*
X117476460Y-96200072D01*
X117456498Y-96390000D01*
X114196000Y-96390000D01*
X114196000Y-91208042D01*
X114215685Y-91141003D01*
X114232315Y-91120365D01*
X114542868Y-90809811D01*
X114604191Y-90776327D01*
X114673883Y-90781311D01*
X114729816Y-90823183D01*
X114733651Y-90828602D01*
X114796646Y-90922880D01*
X114796649Y-90922884D01*
X114937115Y-91063350D01*
X114937119Y-91063353D01*
X115107361Y-91177106D01*
X115106175Y-91178879D01*
X115149136Y-91221059D01*
X115164613Y-91289193D01*
X115142856Y-91349197D01*
X115143549Y-91349597D01*
X115141298Y-91353495D01*
X115140797Y-91354878D01*
X115139510Y-91356592D01*
X115063719Y-91487863D01*
X115036352Y-91590000D01*
X115024500Y-91634234D01*
X115024500Y-91785766D01*
X115039032Y-91840000D01*
X115063719Y-91932136D01*
X115091900Y-91980946D01*
X115139485Y-92063365D01*
X115246635Y-92170515D01*
X115377865Y-92246281D01*
X115524234Y-92285500D01*
X115524236Y-92285500D01*
X115675764Y-92285500D01*
X115675766Y-92285500D01*
X115822135Y-92246281D01*
X115953365Y-92170515D01*
X116060515Y-92063365D01*
X116136281Y-91932135D01*
X116175500Y-91785766D01*
X116175500Y-91634234D01*
X116136281Y-91487865D01*
X116130248Y-91477415D01*
X116128566Y-91474501D01*
X116112092Y-91406601D01*
X116134944Y-91340574D01*
X116189864Y-91297383D01*
X116235952Y-91288500D01*
X116779330Y-91288500D01*
X116779331Y-91288499D01*
X116974169Y-91249744D01*
X117157704Y-91173721D01*
X117322881Y-91063353D01*
X117463353Y-90922881D01*
X117573721Y-90757704D01*
X117649744Y-90574169D01*
X117688500Y-90379329D01*
X117688500Y-90180671D01*
X117649744Y-89985831D01*
X117573721Y-89802296D01*
X117573720Y-89802295D01*
X117573717Y-89802289D01*
X117463353Y-89637119D01*
X117463350Y-89637115D01*
X117322884Y-89496649D01*
X117322880Y-89496646D01*
X117157710Y-89386282D01*
X117157701Y-89386277D01*
X116974169Y-89310256D01*
X116974161Y-89310254D01*
X116779333Y-89271500D01*
X116779329Y-89271500D01*
X116452725Y-89271500D01*
X116385686Y-89251815D01*
X116339931Y-89199011D01*
X116329987Y-89129853D01*
X116334794Y-89109182D01*
X116345538Y-89076116D01*
X116373542Y-88989928D01*
X116393504Y-88800000D01*
X116373542Y-88610072D01*
X116314527Y-88428444D01*
X116219040Y-88263056D01*
X116091253Y-88121134D01*
X115936752Y-88008882D01*
X115762288Y-87931206D01*
X115762286Y-87931205D01*
X115575487Y-87891500D01*
X115384513Y-87891500D01*
X115197714Y-87931205D01*
X115023246Y-88008883D01*
X114868745Y-88121135D01*
X114740959Y-88263057D01*
X114645473Y-88428443D01*
X114645470Y-88428450D01*
X114590465Y-88597739D01*
X114560215Y-88647102D01*
X113351478Y-89855839D01*
X113290155Y-89889324D01*
X113220463Y-89884340D01*
X113164530Y-89842468D01*
X113149235Y-89815608D01*
X113143722Y-89802299D01*
X113143722Y-89802298D01*
X113143721Y-89802296D01*
X113143719Y-89802293D01*
X113143717Y-89802289D01*
X113033353Y-89637119D01*
X113033350Y-89637115D01*
X112892884Y-89496649D01*
X112892880Y-89496646D01*
X112727710Y-89386282D01*
X112727701Y-89386277D01*
X112544169Y-89310256D01*
X112544161Y-89310254D01*
X112349333Y-89271500D01*
X112349329Y-89271500D01*
X111550671Y-89271500D01*
X111550666Y-89271500D01*
X111355838Y-89310254D01*
X111355830Y-89310256D01*
X111172298Y-89386277D01*
X111172289Y-89386282D01*
X111007119Y-89496646D01*
X111007115Y-89496649D01*
X110866649Y-89637115D01*
X110866646Y-89637119D01*
X110756282Y-89802289D01*
X110756277Y-89802298D01*
X110680256Y-89985830D01*
X110680254Y-89985838D01*
X110641500Y-90180666D01*
X110641500Y-90379333D01*
X110680254Y-90574161D01*
X110680256Y-90574169D01*
X110756277Y-90757701D01*
X110756282Y-90757710D01*
X110866646Y-90922880D01*
X110866649Y-90922884D01*
X111007115Y-91063350D01*
X111007119Y-91063353D01*
X111172289Y-91173717D01*
X111172295Y-91173720D01*
X111172296Y-91173721D01*
X111355831Y-91249744D01*
X111525464Y-91283486D01*
X111550666Y-91288499D01*
X111550670Y-91288500D01*
X111550671Y-91288500D01*
X112349330Y-91288500D01*
X112349330Y-91288499D01*
X112530810Y-91252401D01*
X112600400Y-91258628D01*
X112655577Y-91301491D01*
X112678822Y-91367380D01*
X112679000Y-91374018D01*
X112679000Y-97825981D01*
X112659315Y-97893020D01*
X112606511Y-97938775D01*
X112537353Y-97948719D01*
X112530809Y-97947598D01*
X112349333Y-97911500D01*
X112349329Y-97911500D01*
X111550671Y-97911500D01*
X111550666Y-97911500D01*
X111355838Y-97950254D01*
X111355830Y-97950256D01*
X111172298Y-98026277D01*
X111172289Y-98026282D01*
X111007119Y-98136646D01*
X111007115Y-98136649D01*
X110866649Y-98277115D01*
X110866646Y-98277119D01*
X110756282Y-98442289D01*
X110756277Y-98442298D01*
X110680256Y-98625830D01*
X110680254Y-98625838D01*
X110641500Y-98820666D01*
X110641500Y-99019333D01*
X110680254Y-99214161D01*
X110680256Y-99214169D01*
X110756277Y-99397701D01*
X110756282Y-99397710D01*
X110866646Y-99562880D01*
X110866649Y-99562884D01*
X111007115Y-99703350D01*
X111007119Y-99703353D01*
X111172289Y-99813717D01*
X111172295Y-99813720D01*
X111172296Y-99813721D01*
X111355831Y-99889744D01*
X111514555Y-99921316D01*
X111550666Y-99928499D01*
X111550670Y-99928500D01*
X111550671Y-99928500D01*
X112349330Y-99928500D01*
X112349331Y-99928499D01*
X112544169Y-99889744D01*
X112727704Y-99813721D01*
X112867786Y-99720121D01*
X112934463Y-99699243D01*
X113001843Y-99717727D01*
X113024358Y-99735542D01*
X115437624Y-102148808D01*
X115467873Y-102198167D01*
X115475473Y-102221555D01*
X115475473Y-102221557D01*
X115550780Y-102351991D01*
X115570960Y-102386944D01*
X115698747Y-102528866D01*
X115853248Y-102641118D01*
X116027712Y-102718794D01*
X116214513Y-102758500D01*
X116342653Y-102758500D01*
X116409692Y-102778185D01*
X116455447Y-102830989D01*
X116466653Y-102882500D01*
X116466653Y-103252551D01*
X116490996Y-103374930D01*
X116490998Y-103374938D01*
X116538751Y-103490225D01*
X116538756Y-103490234D01*
X116608081Y-103593985D01*
X116608084Y-103593989D01*
X117640011Y-104625916D01*
X117673496Y-104687239D01*
X117668512Y-104756931D01*
X117626640Y-104812864D01*
X117561176Y-104837281D01*
X117552330Y-104837597D01*
X117398406Y-104837597D01*
X117331367Y-104817912D01*
X117306257Y-104796570D01*
X117302351Y-104792232D01*
X117147850Y-104679980D01*
X117147849Y-104679979D01*
X116973385Y-104602303D01*
X116973383Y-104602302D01*
X116786584Y-104562597D01*
X116595610Y-104562597D01*
X116408811Y-104602302D01*
X116234343Y-104679980D01*
X116079842Y-104792232D01*
X115952056Y-104934154D01*
X115856570Y-105099540D01*
X115856568Y-105099544D01*
X115816931Y-105221534D01*
X115777493Y-105279209D01*
X115724784Y-105304505D01*
X115701700Y-105309412D01*
X115527232Y-105387090D01*
X115372733Y-105499341D01*
X115244947Y-105641263D01*
X115149461Y-105806649D01*
X115149458Y-105806656D01*
X115090447Y-105988274D01*
X115090446Y-105988278D01*
X115070484Y-106178206D01*
X115090446Y-106368134D01*
X115090447Y-106368137D01*
X115149458Y-106549755D01*
X115149461Y-106549762D01*
X115244948Y-106715150D01*
X115372735Y-106857072D01*
X115527236Y-106969324D01*
X115701700Y-107047000D01*
X115888501Y-107086706D01*
X116079475Y-107086706D01*
X116266276Y-107047000D01*
X116440740Y-106969324D01*
X116595090Y-106857181D01*
X116660896Y-106833702D01*
X116667975Y-106833500D01*
X118523442Y-106833500D01*
X118590481Y-106853185D01*
X118611123Y-106869819D01*
X119345633Y-107604330D01*
X119345637Y-107604333D01*
X119449388Y-107673658D01*
X119449394Y-107673661D01*
X119449395Y-107673662D01*
X119564685Y-107721417D01*
X119687071Y-107745761D01*
X119687075Y-107745762D01*
X119687076Y-107745762D01*
X120902925Y-107745762D01*
X120902926Y-107745761D01*
X121025315Y-107721417D01*
X121140605Y-107673662D01*
X121199368Y-107634398D01*
X121266045Y-107613520D01*
X121268259Y-107613500D01*
X122460929Y-107613500D01*
X122527968Y-107633185D01*
X122548610Y-107649819D01*
X124115858Y-109217069D01*
X124115862Y-109217072D01*
X124219616Y-109286399D01*
X124219618Y-109286399D01*
X124219620Y-109286401D01*
X124301142Y-109320168D01*
X124334910Y-109334155D01*
X124334912Y-109334155D01*
X124334917Y-109334157D01*
X124457296Y-109358499D01*
X124457300Y-109358500D01*
X124457301Y-109358500D01*
X125877395Y-109358500D01*
X125877396Y-109358499D01*
X125999785Y-109334155D01*
X126115075Y-109286400D01*
X126218833Y-109217071D01*
X126658664Y-108777238D01*
X126719983Y-108743756D01*
X126789675Y-108748740D01*
X126819227Y-108764603D01*
X126883248Y-108811118D01*
X127057712Y-108888794D01*
X127244513Y-108928500D01*
X127435487Y-108928500D01*
X127622288Y-108888794D01*
X127796752Y-108811118D01*
X127951253Y-108698866D01*
X128079040Y-108556944D01*
X128174527Y-108391556D01*
X128229537Y-108222253D01*
X128259783Y-108172896D01*
X128573513Y-107859166D01*
X128573516Y-107859165D01*
X128679165Y-107753516D01*
X128762174Y-107629284D01*
X128798577Y-107541400D01*
X128819351Y-107491247D01*
X128848500Y-107344705D01*
X128848500Y-107195295D01*
X128848500Y-106297950D01*
X128868185Y-106230911D01*
X128884819Y-106210269D01*
X129790583Y-105304505D01*
X130701213Y-104393874D01*
X130762534Y-104360391D01*
X130832226Y-104365375D01*
X130839327Y-104368277D01*
X130997712Y-104438794D01*
X131184513Y-104478500D01*
X131375487Y-104478500D01*
X131562288Y-104438794D01*
X131736752Y-104361118D01*
X131891253Y-104248866D01*
X132019040Y-104106944D01*
X132114527Y-103941556D01*
X132173542Y-103759928D01*
X132189301Y-103609988D01*
X132215884Y-103545376D01*
X132273182Y-103505391D01*
X132343001Y-103502731D01*
X132403174Y-103538240D01*
X132421725Y-103566216D01*
X132422224Y-103565928D01*
X132425472Y-103571554D01*
X132425473Y-103571556D01*
X132520960Y-103736944D01*
X132648747Y-103878866D01*
X132803248Y-103991118D01*
X132977712Y-104068794D01*
X133164513Y-104108500D01*
X133355487Y-104108500D01*
X133542288Y-104068794D01*
X133716752Y-103991118D01*
X133871253Y-103878866D01*
X133999040Y-103736944D01*
X134094527Y-103571556D01*
X134153542Y-103389928D01*
X134159236Y-103335747D01*
X134185819Y-103271133D01*
X134194867Y-103261035D01*
X136743468Y-100712434D01*
X143768930Y-100712434D01*
X143788892Y-100902362D01*
X143788893Y-100902365D01*
X143847904Y-101083983D01*
X143847907Y-101083990D01*
X143943394Y-101249378D01*
X144016118Y-101330146D01*
X144061095Y-101380099D01*
X144071181Y-101391300D01*
X144225682Y-101503552D01*
X144400146Y-101581228D01*
X144586947Y-101620934D01*
X144777921Y-101620934D01*
X144964722Y-101581228D01*
X145139186Y-101503552D01*
X145293687Y-101391300D01*
X145421474Y-101249378D01*
X145516961Y-101083990D01*
X145575976Y-100902362D01*
X145595938Y-100712434D01*
X145575976Y-100522506D01*
X145516961Y-100340878D01*
X145421474Y-100175490D01*
X145293687Y-100033568D01*
X145139186Y-99921316D01*
X144964722Y-99843640D01*
X144964720Y-99843639D01*
X144777921Y-99803934D01*
X144586947Y-99803934D01*
X144400148Y-99843639D01*
X144400146Y-99843640D01*
X144296597Y-99889743D01*
X144225680Y-99921317D01*
X144071179Y-100033569D01*
X143943393Y-100175491D01*
X143847907Y-100340877D01*
X143847904Y-100340884D01*
X143792634Y-100510989D01*
X143788892Y-100522506D01*
X143768930Y-100712434D01*
X136743468Y-100712434D01*
X136893009Y-100562893D01*
X136954330Y-100529410D01*
X137011143Y-100530374D01*
X137015356Y-100531441D01*
X137015365Y-100531444D01*
X137237431Y-100568500D01*
X137462569Y-100568500D01*
X137684635Y-100531444D01*
X137897574Y-100458342D01*
X138095576Y-100351189D01*
X138273240Y-100212906D01*
X138425722Y-100047268D01*
X138548860Y-99858791D01*
X138639296Y-99652616D01*
X138694564Y-99434368D01*
X138697602Y-99397704D01*
X138713156Y-99210005D01*
X138713156Y-99209994D01*
X138694565Y-98985640D01*
X138694563Y-98985628D01*
X138659204Y-98846000D01*
X138639296Y-98767384D01*
X138548860Y-98561209D01*
X138532706Y-98536484D01*
X138471166Y-98442289D01*
X138425722Y-98372732D01*
X138425719Y-98372729D01*
X138425715Y-98372723D01*
X138273243Y-98207097D01*
X138273238Y-98207092D01*
X138154555Y-98114717D01*
X138095576Y-98068811D01*
X138059070Y-98049055D01*
X138009479Y-97999836D01*
X137994371Y-97931619D01*
X138009430Y-97890776D01*
X148606379Y-97890776D01*
X148606379Y-98088621D01*
X149606379Y-98088621D01*
X149606379Y-97438621D01*
X149058534Y-97438621D01*
X148999006Y-97445022D01*
X148998999Y-97445024D01*
X148864292Y-97495266D01*
X148864285Y-97495270D01*
X148749191Y-97581430D01*
X148749188Y-97581433D01*
X148663028Y-97696527D01*
X148663024Y-97696534D01*
X148612782Y-97831241D01*
X148612780Y-97831248D01*
X148606379Y-97890776D01*
X138009430Y-97890776D01*
X138018541Y-97866064D01*
X138059070Y-97830945D01*
X138059084Y-97830936D01*
X138095576Y-97811189D01*
X138273240Y-97672906D01*
X138425722Y-97507268D01*
X138425727Y-97507260D01*
X138428875Y-97503218D01*
X138430363Y-97504376D01*
X138477284Y-97464326D01*
X138527956Y-97453500D01*
X146317090Y-97453500D01*
X146317091Y-97453499D01*
X146439480Y-97429155D01*
X146554770Y-97381400D01*
X146658528Y-97312071D01*
X146853006Y-97117591D01*
X146914327Y-97084108D01*
X146984019Y-97089092D01*
X147032837Y-97122303D01*
X147038742Y-97128862D01*
X147038744Y-97128863D01*
X147038747Y-97128866D01*
X147193248Y-97241118D01*
X147367712Y-97318794D01*
X147554513Y-97358500D01*
X147745487Y-97358500D01*
X147932288Y-97318794D01*
X148106752Y-97241118D01*
X148261253Y-97128866D01*
X148389040Y-96986944D01*
X148484527Y-96821556D01*
X148529611Y-96682803D01*
X148569049Y-96625127D01*
X148633407Y-96597929D01*
X148647542Y-96597121D01*
X150775030Y-96597121D01*
X150842069Y-96616806D01*
X150887824Y-96669610D01*
X150898319Y-96734376D01*
X150892880Y-96784964D01*
X150892879Y-96784983D01*
X150892879Y-97142275D01*
X150899389Y-97202818D01*
X150901175Y-97210376D01*
X150899222Y-97210837D01*
X150904726Y-97254659D01*
X150901379Y-97285790D01*
X150901379Y-97322096D01*
X150881694Y-97389135D01*
X150828890Y-97434890D01*
X150801358Y-97442443D01*
X150801547Y-97443241D01*
X150786449Y-97446808D01*
X150785935Y-97444635D01*
X150727497Y-97448804D01*
X150718192Y-97446071D01*
X150713751Y-97445022D01*
X150654223Y-97438621D01*
X150106379Y-97438621D01*
X150106379Y-98464621D01*
X150086694Y-98531660D01*
X150033890Y-98577415D01*
X149982379Y-98588621D01*
X148606379Y-98588621D01*
X148606379Y-98786465D01*
X148612780Y-98845993D01*
X148612782Y-98846000D01*
X148663024Y-98980707D01*
X148663028Y-98980714D01*
X148749188Y-99095808D01*
X148761576Y-99105082D01*
X148803446Y-99161016D01*
X148808430Y-99230708D01*
X148774944Y-99292031D01*
X148773399Y-99293548D01*
X137023494Y-110639700D01*
X136961595Y-110672108D01*
X136937359Y-110674500D01*
X108549500Y-110674500D01*
X108482461Y-110654815D01*
X108436706Y-110602011D01*
X108425500Y-110550500D01*
X108425500Y-85177347D01*
X115013843Y-85177347D01*
X115033805Y-85367275D01*
X115033806Y-85367278D01*
X115092817Y-85548896D01*
X115092820Y-85548903D01*
X115188307Y-85714291D01*
X115275246Y-85810847D01*
X115305285Y-85844209D01*
X115316094Y-85856213D01*
X115470595Y-85968465D01*
X115645059Y-86046141D01*
X115831860Y-86085847D01*
X116022834Y-86085847D01*
X116209635Y-86046141D01*
X116384099Y-85968465D01*
X116538600Y-85856213D01*
X116542507Y-85851874D01*
X116601993Y-85815226D01*
X116634656Y-85810847D01*
X116757273Y-85810847D01*
X116824312Y-85830532D01*
X116864660Y-85872847D01*
X116943613Y-86009597D01*
X117071400Y-86151519D01*
X117225901Y-86263771D01*
X117400365Y-86341447D01*
X117587166Y-86381153D01*
X117778140Y-86381153D01*
X117964941Y-86341447D01*
X118139405Y-86263771D01*
X118293906Y-86151519D01*
X118421693Y-86009597D01*
X118517180Y-85844209D01*
X118576195Y-85662581D01*
X118596157Y-85472653D01*
X118576195Y-85282725D01*
X118517180Y-85101097D01*
X118421693Y-84935709D01*
X118293906Y-84793787D01*
X118139405Y-84681535D01*
X117964941Y-84603859D01*
X117964939Y-84603858D01*
X117778140Y-84564153D01*
X117587166Y-84564153D01*
X117582739Y-84564618D01*
X117545595Y-84562913D01*
X117449745Y-84543847D01*
X117449741Y-84543847D01*
X116634656Y-84543847D01*
X116567617Y-84524162D01*
X116542507Y-84502820D01*
X116538601Y-84498482D01*
X116515974Y-84482042D01*
X116384099Y-84386229D01*
X116209635Y-84308553D01*
X116209633Y-84308552D01*
X116022834Y-84268847D01*
X115831860Y-84268847D01*
X115645061Y-84308552D01*
X115470593Y-84386230D01*
X115316092Y-84498482D01*
X115188306Y-84640404D01*
X115092820Y-84805790D01*
X115092817Y-84805797D01*
X115033806Y-84987415D01*
X115033805Y-84987419D01*
X115013843Y-85177347D01*
X108425500Y-85177347D01*
X108425500Y-78849500D01*
X108445185Y-78782461D01*
X108497989Y-78736706D01*
X108549500Y-78725500D01*
X129687512Y-78725500D01*
X129754551Y-78745185D01*
G37*
G04 #@! TD.AperFunction*
G04 #@! TA.AperFunction,Conductor*
G36*
X126533039Y-105533185D02*
G01*
X126578794Y-105585989D01*
X126587384Y-105625478D01*
X126532993Y-105594075D01*
X126405826Y-105560000D01*
X126274174Y-105560000D01*
X126147007Y-105594075D01*
X126093716Y-105624842D01*
X126109685Y-105570461D01*
X126162489Y-105524706D01*
X126214000Y-105513500D01*
X126466000Y-105513500D01*
X126533039Y-105533185D01*
G37*
G04 #@! TD.AperFunction*
G04 #@! TA.AperFunction,Conductor*
G36*
X121443699Y-102003185D02*
G01*
X121489454Y-102055989D01*
X121499398Y-102125147D01*
X121497425Y-102133631D01*
X121497810Y-102133713D01*
X121496458Y-102140069D01*
X121477788Y-102317709D01*
X121476496Y-102330000D01*
X121496458Y-102519928D01*
X121496459Y-102519931D01*
X121555470Y-102701549D01*
X121555473Y-102701556D01*
X121650960Y-102866944D01*
X121692628Y-102913221D01*
X121763924Y-102992404D01*
X121778747Y-103008866D01*
X121933248Y-103121118D01*
X122107712Y-103198794D01*
X122294513Y-103238500D01*
X122325470Y-103238500D01*
X122392509Y-103258185D01*
X122438264Y-103310989D01*
X122449046Y-103372740D01*
X122436844Y-103519994D01*
X122436844Y-103520005D01*
X122455434Y-103744359D01*
X122455436Y-103744371D01*
X122499937Y-103920099D01*
X122510704Y-103962616D01*
X122523205Y-103991116D01*
X122558987Y-104072690D01*
X122567890Y-104141990D01*
X122537913Y-104205102D01*
X122478573Y-104241989D01*
X122445431Y-104246500D01*
X121027500Y-104246500D01*
X120960461Y-104226815D01*
X120914706Y-104174011D01*
X120903500Y-104122500D01*
X120903500Y-102369071D01*
X120923185Y-102302032D01*
X120939819Y-102281390D01*
X121201390Y-102019819D01*
X121262713Y-101986334D01*
X121289071Y-101983500D01*
X121376660Y-101983500D01*
X121443699Y-102003185D01*
G37*
G04 #@! TD.AperFunction*
G04 #@! TA.AperFunction,Conductor*
G36*
X126590000Y-104122500D02*
G01*
X126570315Y-104189539D01*
X126517511Y-104235294D01*
X126466000Y-104246500D01*
X126214000Y-104246500D01*
X126146961Y-104226815D01*
X126101206Y-104174011D01*
X126090000Y-104122500D01*
X126090000Y-103953012D01*
X126147007Y-103985925D01*
X126274174Y-104020000D01*
X126405826Y-104020000D01*
X126532993Y-103985925D01*
X126590000Y-103953012D01*
X126590000Y-104122500D01*
G37*
G04 #@! TD.AperFunction*
G04 #@! TA.AperFunction,Conductor*
G36*
X126533039Y-102955128D02*
G01*
X126578794Y-103007932D01*
X126590000Y-103059443D01*
X126590000Y-103086988D01*
X126532993Y-103054075D01*
X126405826Y-103020000D01*
X126274174Y-103020000D01*
X126147007Y-103054075D01*
X126090000Y-103086988D01*
X126090000Y-103059443D01*
X126109685Y-102992404D01*
X126162489Y-102946649D01*
X126214000Y-102935443D01*
X126466000Y-102935443D01*
X126533039Y-102955128D01*
G37*
G04 #@! TD.AperFunction*
G04 #@! TA.AperFunction,Conductor*
G36*
X126590000Y-101544443D02*
G01*
X126570315Y-101611482D01*
X126517511Y-101657237D01*
X126466000Y-101668443D01*
X126214000Y-101668443D01*
X126146961Y-101648758D01*
X126101206Y-101595954D01*
X126090000Y-101544443D01*
X126090000Y-101413012D01*
X126147007Y-101445925D01*
X126274174Y-101480000D01*
X126405826Y-101480000D01*
X126532993Y-101445925D01*
X126590000Y-101413012D01*
X126590000Y-101544443D01*
G37*
G04 #@! TD.AperFunction*
G04 #@! TA.AperFunction,Conductor*
G36*
X128820909Y-100458185D02*
G01*
X128866664Y-100510989D01*
X128876608Y-100580147D01*
X128847583Y-100643703D01*
X128804305Y-100675779D01*
X128684882Y-100728950D01*
X128684880Y-100728951D01*
X128530379Y-100841203D01*
X128402593Y-100983125D01*
X128307107Y-101148511D01*
X128307104Y-101148518D01*
X128248093Y-101330135D01*
X128248091Y-101330146D01*
X128244814Y-101361319D01*
X128218229Y-101425933D01*
X128171930Y-101461634D01*
X128061446Y-101510824D01*
X127906943Y-101623078D01*
X127903038Y-101627416D01*
X127843552Y-101664064D01*
X127810889Y-101668443D01*
X127703175Y-101668443D01*
X127636136Y-101648758D01*
X127590381Y-101595954D01*
X127580437Y-101526796D01*
X127590793Y-101492038D01*
X127613429Y-101443492D01*
X127613432Y-101443486D01*
X127670636Y-101230000D01*
X126773012Y-101230000D01*
X126805925Y-101172993D01*
X126840000Y-101045826D01*
X126840000Y-100914174D01*
X126805925Y-100787007D01*
X126773012Y-100730000D01*
X127670636Y-100730000D01*
X127670635Y-100729999D01*
X127634354Y-100594594D01*
X127636017Y-100524744D01*
X127675179Y-100466881D01*
X127739408Y-100439377D01*
X127754129Y-100438500D01*
X128753870Y-100438500D01*
X128820909Y-100458185D01*
G37*
G04 #@! TD.AperFunction*
G04 #@! TA.AperFunction,Conductor*
G36*
X126533039Y-100458185D02*
G01*
X126578794Y-100510989D01*
X126586140Y-100544759D01*
X126532993Y-100514075D01*
X126405826Y-100480000D01*
X126274174Y-100480000D01*
X126147007Y-100514075D01*
X126095484Y-100543821D01*
X126109685Y-100495461D01*
X126162489Y-100449706D01*
X126214000Y-100438500D01*
X126466000Y-100438500D01*
X126533039Y-100458185D01*
G37*
G04 #@! TD.AperFunction*
G04 #@! TA.AperFunction,Conductor*
G36*
X126590000Y-99047500D02*
G01*
X126570315Y-99114539D01*
X126517511Y-99160294D01*
X126466000Y-99171500D01*
X126214000Y-99171500D01*
X126146961Y-99151815D01*
X126101206Y-99099011D01*
X126090000Y-99047500D01*
X126090000Y-98873012D01*
X126147007Y-98905925D01*
X126274174Y-98940000D01*
X126405826Y-98940000D01*
X126532993Y-98905925D01*
X126590000Y-98873012D01*
X126590000Y-99047500D01*
G37*
G04 #@! TD.AperFunction*
G04 #@! TA.AperFunction,Conductor*
G36*
X126590000Y-98006988D02*
G01*
X126532993Y-97974075D01*
X126405826Y-97940000D01*
X126274174Y-97940000D01*
X126147007Y-97974075D01*
X126090000Y-98006988D01*
X126090000Y-96333012D01*
X126147007Y-96365925D01*
X126274174Y-96400000D01*
X126405826Y-96400000D01*
X126532993Y-96365925D01*
X126590000Y-96333012D01*
X126590000Y-98006988D01*
G37*
G04 #@! TD.AperFunction*
G04 #@! TA.AperFunction,Conductor*
G36*
X140384041Y-92762658D02*
G01*
X140400761Y-92776665D01*
X140453024Y-92828928D01*
X140486509Y-92890251D01*
X140489343Y-92916609D01*
X140489343Y-95897703D01*
X140513686Y-96020082D01*
X140515456Y-96025917D01*
X140512863Y-96026703D01*
X140519058Y-96084573D01*
X140487754Y-96147038D01*
X140427649Y-96182662D01*
X140397038Y-96186500D01*
X138702377Y-96186500D01*
X138635338Y-96166815D01*
X138589583Y-96114011D01*
X138588821Y-96112310D01*
X138548859Y-96021207D01*
X138472571Y-95904440D01*
X138425722Y-95832732D01*
X138425719Y-95832729D01*
X138425715Y-95832723D01*
X138273243Y-95667097D01*
X138273238Y-95667092D01*
X138095577Y-95528812D01*
X138095578Y-95528812D01*
X138095576Y-95528811D01*
X138059070Y-95509055D01*
X138009479Y-95459836D01*
X137994371Y-95391619D01*
X138018541Y-95326064D01*
X138059070Y-95290945D01*
X138059084Y-95290936D01*
X138095576Y-95271189D01*
X138273240Y-95132906D01*
X138386211Y-95010188D01*
X138425715Y-94967276D01*
X138425717Y-94967273D01*
X138425722Y-94967268D01*
X138548860Y-94778791D01*
X138639296Y-94572616D01*
X138694564Y-94354368D01*
X138694565Y-94354359D01*
X138713156Y-94130005D01*
X138713156Y-94129994D01*
X138694814Y-93908646D01*
X138708895Y-93840210D01*
X138757740Y-93790251D01*
X138825841Y-93774630D01*
X138868821Y-93785125D01*
X139004415Y-93845495D01*
X139191216Y-93885201D01*
X139382190Y-93885201D01*
X139568991Y-93845495D01*
X139743455Y-93767819D01*
X139897956Y-93655567D01*
X140025743Y-93513645D01*
X140121230Y-93348257D01*
X140180245Y-93166629D01*
X140200207Y-92976701D01*
X140189760Y-92877303D01*
X140202328Y-92808579D01*
X140250060Y-92757555D01*
X140317800Y-92740436D01*
X140384041Y-92762658D01*
G37*
G04 #@! TD.AperFunction*
G04 #@! TA.AperFunction,Conductor*
G36*
X126590000Y-95466988D02*
G01*
X126532993Y-95434075D01*
X126405826Y-95400000D01*
X126274174Y-95400000D01*
X126147007Y-95434075D01*
X126090000Y-95466988D01*
X126090000Y-93793012D01*
X126147007Y-93825925D01*
X126274174Y-93860000D01*
X126405826Y-93860000D01*
X126532993Y-93825925D01*
X126590000Y-93793012D01*
X126590000Y-95466988D01*
G37*
G04 #@! TD.AperFunction*
G04 #@! TA.AperFunction,Conductor*
G36*
X126590000Y-92926988D02*
G01*
X126532993Y-92894075D01*
X126405826Y-92860000D01*
X126274174Y-92860000D01*
X126147007Y-92894075D01*
X126090000Y-92926988D01*
X126090000Y-91253012D01*
X126147007Y-91285925D01*
X126274174Y-91320000D01*
X126405826Y-91320000D01*
X126532993Y-91285925D01*
X126590000Y-91253012D01*
X126590000Y-92926988D01*
G37*
G04 #@! TD.AperFunction*
G04 #@! TA.AperFunction,Conductor*
G36*
X126590000Y-90386988D02*
G01*
X126532993Y-90354075D01*
X126405826Y-90320000D01*
X126274174Y-90320000D01*
X126147007Y-90354075D01*
X126090000Y-90386988D01*
X126090000Y-88713012D01*
X126147007Y-88745925D01*
X126274174Y-88780000D01*
X126405826Y-88780000D01*
X126532993Y-88745925D01*
X126590000Y-88713012D01*
X126590000Y-90386988D01*
G37*
G04 #@! TD.AperFunction*
G04 #@! TA.AperFunction,Conductor*
G36*
X126590000Y-87846988D02*
G01*
X126532993Y-87814075D01*
X126405826Y-87780000D01*
X126274174Y-87780000D01*
X126147007Y-87814075D01*
X126090000Y-87846988D01*
X126090000Y-86173012D01*
X126147007Y-86205925D01*
X126274174Y-86240000D01*
X126405826Y-86240000D01*
X126532993Y-86205925D01*
X126590000Y-86173012D01*
X126590000Y-87846988D01*
G37*
G04 #@! TD.AperFunction*
M02*
