%TF.GenerationSoftware,KiCad,Pcbnew,7.0.2-0*%
%TF.CreationDate,2023-09-28T22:34:41-05:00*%
%TF.ProjectId,spudglo_business_card,73707564-676c-46f5-9f62-7573696e6573,rev?*%
%TF.SameCoordinates,Original*%
%TF.FileFunction,Soldermask,Top*%
%TF.FilePolarity,Negative*%
%FSLAX46Y46*%
G04 Gerber Fmt 4.6, Leading zero omitted, Abs format (unit mm)*
G04 Created by KiCad (PCBNEW 7.0.2-0) date 2023-09-28 22:34:41*
%MOMM*%
%LPD*%
G01*
G04 APERTURE LIST*
G04 Aperture macros list*
%AMRoundRect*
0 Rectangle with rounded corners*
0 $1 Rounding radius*
0 $2 $3 $4 $5 $6 $7 $8 $9 X,Y pos of 4 corners*
0 Add a 4 corners polygon primitive as box body*
4,1,4,$2,$3,$4,$5,$6,$7,$8,$9,$2,$3,0*
0 Add four circle primitives for the rounded corners*
1,1,$1+$1,$2,$3*
1,1,$1+$1,$4,$5*
1,1,$1+$1,$6,$7*
1,1,$1+$1,$8,$9*
0 Add four rect primitives between the rounded corners*
20,1,$1+$1,$2,$3,$4,$5,0*
20,1,$1+$1,$4,$5,$6,$7,0*
20,1,$1+$1,$6,$7,$8,$9,0*
20,1,$1+$1,$8,$9,$2,$3,0*%
%AMRotRect*
0 Rectangle, with rotation*
0 The origin of the aperture is its center*
0 $1 length*
0 $2 width*
0 $3 Rotation angle, in degrees counterclockwise*
0 Add horizontal line*
21,1,$1,$2,0,0,$3*%
G04 Aperture macros list end*
%ADD10RoundRect,0.100000X-0.021213X-0.162635X0.162635X0.021213X0.021213X0.162635X-0.162635X-0.021213X0*%
%ADD11RoundRect,0.100000X0.100000X-0.130000X0.100000X0.130000X-0.100000X0.130000X-0.100000X-0.130000X0*%
%ADD12RoundRect,0.100000X0.162635X-0.021213X-0.021213X0.162635X-0.162635X0.021213X0.021213X-0.162635X0*%
%ADD13RoundRect,0.100000X0.130000X0.100000X-0.130000X0.100000X-0.130000X-0.100000X0.130000X-0.100000X0*%
%ADD14RoundRect,0.100000X-0.162635X0.021213X0.021213X-0.162635X0.162635X-0.021213X-0.021213X0.162635X0*%
%ADD15RoundRect,0.100000X-0.100000X0.130000X-0.100000X-0.130000X0.100000X-0.130000X0.100000X0.130000X0*%
%ADD16RoundRect,0.100000X0.021213X0.162635X-0.162635X-0.021213X-0.021213X-0.162635X0.162635X0.021213X0*%
%ADD17RoundRect,0.100000X0.062946X-0.151452X0.130239X0.099688X-0.062946X0.151452X-0.130239X-0.099688X0*%
%ADD18RoundRect,0.100000X-0.130000X-0.100000X0.130000X-0.100000X0.130000X0.100000X-0.130000X0.100000X0*%
%ADD19R,0.700000X0.700000*%
%ADD20RoundRect,0.100000X0.151603X-0.062583X0.021603X0.162583X-0.151603X0.062583X-0.021603X-0.162583X0*%
%ADD21RoundRect,0.100000X-0.130239X0.099688X-0.062946X-0.151452X0.130239X-0.099688X0.062946X0.151452X0*%
%ADD22RoundRect,0.100000X0.138432X-0.087958X0.049507X0.156362X-0.138432X0.087958X-0.049507X-0.156362X0*%
%ADD23RoundRect,0.100000X-0.162583X-0.021603X0.062583X-0.151603X0.162583X0.021603X-0.062583X0.151603X0*%
%ADD24RoundRect,0.100000X-0.021603X0.162583X-0.151603X-0.062583X0.021603X-0.162583X0.151603X0.062583X0*%
%ADD25RoundRect,0.100000X-0.062946X0.151452X-0.130239X-0.099688X0.062946X-0.151452X0.130239X0.099688X0*%
%ADD26RoundRect,0.100000X-0.049507X0.156362X-0.138432X-0.087958X0.049507X-0.156362X0.138432X0.087958X0*%
%ADD27RotRect,0.700000X0.700000X45.000000*%
%ADD28RotRect,0.700000X0.700000X195.000000*%
%ADD29RotRect,0.700000X0.700000X345.000000*%
%ADD30RotRect,0.700000X0.700000X225.000000*%
%ADD31RotRect,0.700000X0.700000X30.000000*%
%ADD32RotRect,0.700000X0.700000X315.000000*%
%ADD33RotRect,0.700000X0.700000X135.000000*%
%ADD34RotRect,0.700000X0.700000X150.000000*%
%ADD35RotRect,0.700000X0.700000X165.000000*%
%ADD36RotRect,0.700000X0.700000X20.000000*%
%ADD37RotRect,0.700000X0.700000X60.000000*%
%ADD38RotRect,0.700000X0.700000X160.000000*%
%ADD39C,1.959000*%
%ADD40R,1.700000X1.700000*%
%ADD41O,1.700000X1.700000*%
G04 APERTURE END LIST*
D10*
%TO.C,C68*%
X255457452Y-101912548D03*
X255910000Y-101460000D03*
%TD*%
D11*
%TO.C,C67*%
X251290000Y-101815000D03*
X251290000Y-101175000D03*
%TD*%
D12*
%TO.C,C66*%
X243482322Y-106012322D03*
X243029774Y-105559774D03*
%TD*%
D13*
%TO.C,C65*%
X244920000Y-102100000D03*
X244280000Y-102100000D03*
%TD*%
%TO.C,C64*%
X245050000Y-105950000D03*
X244410000Y-105950000D03*
%TD*%
D14*
%TO.C,C63*%
X258007452Y-105977452D03*
X258460000Y-106430000D03*
%TD*%
D13*
%TO.C,C62*%
X233270000Y-105980000D03*
X232630000Y-105980000D03*
%TD*%
D15*
%TO.C,C61*%
X240380000Y-108695000D03*
X240380000Y-109335000D03*
%TD*%
D11*
%TO.C,C60*%
X235350000Y-103580000D03*
X235350000Y-102940000D03*
%TD*%
D13*
%TO.C,C59*%
X245305000Y-109770000D03*
X244665000Y-109770000D03*
%TD*%
D15*
%TO.C,C58*%
X254810000Y-108745000D03*
X254810000Y-109385000D03*
%TD*%
D12*
%TO.C,C57*%
X232970226Y-101710225D03*
X232517678Y-101257677D03*
%TD*%
D16*
%TO.C,C56*%
X236202322Y-108917678D03*
X235749774Y-109370226D03*
%TD*%
D17*
%TO.C,C55*%
X239317885Y-103212340D03*
X239483529Y-102594148D03*
%TD*%
D12*
%TO.C,C54*%
X247992322Y-104442323D03*
X247539774Y-103989775D03*
%TD*%
D16*
%TO.C,C53*%
X250462322Y-108747678D03*
X250009774Y-109200226D03*
%TD*%
D15*
%TO.C,C40*%
X228900000Y-108660000D03*
X228900000Y-109300000D03*
%TD*%
D11*
%TO.C,C39*%
X225060000Y-101900000D03*
X225060000Y-101260000D03*
%TD*%
D18*
%TO.C,C50*%
X230980000Y-103410000D03*
X231620000Y-103410000D03*
%TD*%
D16*
%TO.C,C41*%
X211752551Y-108747455D03*
X211300003Y-109200003D03*
%TD*%
D13*
%TO.C,C42*%
X209190000Y-104900000D03*
X208550000Y-104900000D03*
%TD*%
D11*
%TO.C,C43*%
X240220000Y-98150000D03*
X240220000Y-98790000D03*
%TD*%
D18*
%TO.C,C44*%
X231140000Y-98570000D03*
X231780000Y-98570000D03*
%TD*%
D16*
%TO.C,C45*%
X224024152Y-108769775D03*
X223571604Y-109222323D03*
%TD*%
D15*
%TO.C,C52*%
X216200000Y-108540000D03*
X216200000Y-109180000D03*
%TD*%
D18*
%TO.C,C51*%
X218735000Y-101170000D03*
X219375000Y-101170000D03*
%TD*%
D11*
%TO.C,C38*%
X236000000Y-98220000D03*
X236000000Y-98860000D03*
%TD*%
D12*
%TO.C,C49*%
X221366274Y-104296274D03*
X220913726Y-103843726D03*
%TD*%
D15*
%TO.C,C47*%
X199509996Y-107920001D03*
X199509996Y-108560001D03*
%TD*%
D14*
%TO.C,C46*%
X219257455Y-105697449D03*
X219710003Y-106149997D03*
%TD*%
D19*
%TO.C,D46*%
X188110000Y-107790000D03*
X188110000Y-108890000D03*
X189940000Y-108890000D03*
X189940000Y-107790000D03*
%TD*%
D20*
%TO.C,C25*%
X203719999Y-108254256D03*
X203399999Y-107700000D03*
%TD*%
D21*
%TO.C,C26*%
X201640000Y-102390000D03*
X201805644Y-103008192D03*
%TD*%
D11*
%TO.C,C27*%
X183330000Y-107875000D03*
X183330000Y-107235000D03*
%TD*%
D22*
%TO.C,C28*%
X191040000Y-107820000D03*
X191258892Y-108421404D03*
%TD*%
D18*
%TO.C,C29*%
X166975000Y-103780000D03*
X167615000Y-103780000D03*
%TD*%
D23*
%TO.C,C30*%
X184705740Y-102310001D03*
X185259996Y-102630001D03*
%TD*%
D24*
%TO.C,C31*%
X206300000Y-104142872D03*
X205980000Y-104697128D03*
%TD*%
D18*
%TO.C,C32*%
X197350000Y-103690000D03*
X197990000Y-103690000D03*
%TD*%
D11*
%TO.C,C33*%
X187130000Y-107565000D03*
X187130000Y-106925000D03*
%TD*%
D25*
%TO.C,C34*%
X194292115Y-105177660D03*
X194126471Y-105795852D03*
%TD*%
D26*
%TO.C,C35*%
X189941449Y-104043492D03*
X189722557Y-104644896D03*
%TD*%
D11*
%TO.C,C36*%
X187730000Y-98970000D03*
X187730000Y-98330000D03*
%TD*%
D18*
%TO.C,C37*%
X197825000Y-108660000D03*
X198465000Y-108660000D03*
%TD*%
D11*
%TO.C,C48*%
X191960000Y-98260000D03*
X191960000Y-98900000D03*
%TD*%
D27*
%TO.C,D20*%
X221812183Y-103302183D03*
X222590000Y-104080000D03*
X223884005Y-102785995D03*
X223106188Y-102008178D03*
%TD*%
D28*
%TO.C,D10*%
X200742346Y-102768880D03*
X200457645Y-101706361D03*
X198690000Y-102180000D03*
X198974701Y-103242519D03*
%TD*%
D19*
%TO.C,D16*%
X215220000Y-108980000D03*
X215220000Y-107880000D03*
X213390000Y-107880000D03*
X213390000Y-108980000D03*
%TD*%
%TO.C,D1*%
X192960000Y-98680000D03*
X192960000Y-99780000D03*
X194790000Y-99780000D03*
X194790000Y-98680000D03*
%TD*%
%TO.C,D7*%
X186160000Y-107750000D03*
X186160000Y-108850000D03*
X184330000Y-108850000D03*
X184330000Y-107750000D03*
%TD*%
D29*
%TO.C,D32*%
X240362355Y-103216361D03*
X240077654Y-104278880D03*
X241845299Y-104752519D03*
X242130000Y-103690000D03*
%TD*%
D19*
%TO.C,D34*%
X244990000Y-101110000D03*
X246090000Y-101110000D03*
X246090000Y-99280000D03*
X244990000Y-99280000D03*
%TD*%
D27*
%TO.C,D27*%
X233295995Y-100674005D03*
X234073812Y-101451822D03*
X235367817Y-100157817D03*
X234590000Y-99380000D03*
%TD*%
D30*
%TO.C,D31*%
X243281822Y-107173812D03*
X242504005Y-106395995D03*
X241210000Y-107690000D03*
X241987817Y-108467817D03*
%TD*%
D19*
%TO.C,D8*%
X197990000Y-109680000D03*
X196890000Y-109680000D03*
X196890000Y-111510000D03*
X197990000Y-111510000D03*
%TD*%
%TO.C,D35*%
X244990000Y-104980001D03*
X246090000Y-104980001D03*
X246090000Y-103150001D03*
X244990000Y-103150001D03*
%TD*%
%TO.C,D25*%
X241175000Y-98630000D03*
X241175000Y-99730000D03*
X243005000Y-99730000D03*
X243005000Y-98630000D03*
%TD*%
D31*
%TO.C,D12*%
X204425174Y-107565000D03*
X204975174Y-108517628D03*
X206560000Y-107602628D03*
X206010000Y-106650000D03*
%TD*%
D19*
%TO.C,D33*%
X236360000Y-103280000D03*
X236360000Y-104380000D03*
X238190000Y-104380000D03*
X238190000Y-103280000D03*
%TD*%
D30*
%TO.C,D40*%
X257771822Y-107133812D03*
X256994005Y-106355995D03*
X255700000Y-107650000D03*
X256477817Y-108427817D03*
%TD*%
D19*
%TO.C,D30*%
X239420000Y-108880000D03*
X239420000Y-107780000D03*
X237590000Y-107780000D03*
X237590000Y-108880000D03*
%TD*%
%TO.C,D22*%
X227920000Y-108880000D03*
X227920000Y-107780000D03*
X226090000Y-107780000D03*
X226090000Y-108880000D03*
%TD*%
%TO.C,D26*%
X236960000Y-98680000D03*
X236960000Y-99780000D03*
X238790000Y-99780000D03*
X238790000Y-98680000D03*
%TD*%
%TO.C,D14*%
X208930078Y-103905892D03*
X210030078Y-103905892D03*
X210030078Y-102075892D03*
X208930078Y-102075892D03*
%TD*%
D32*
%TO.C,D41*%
X256483812Y-102258178D03*
X255705995Y-103035995D03*
X257000000Y-104330000D03*
X257777817Y-103552183D03*
%TD*%
D19*
%TO.C,D44*%
X204265000Y-119020000D03*
X204265000Y-120120000D03*
X206095000Y-120120000D03*
X206095000Y-119020000D03*
%TD*%
D33*
%TO.C,D38*%
X249484005Y-108374005D03*
X250261822Y-107596188D03*
X248967817Y-106302183D03*
X248190000Y-107080000D03*
%TD*%
D34*
%TO.C,D11*%
X205407413Y-103713814D03*
X205957413Y-102761186D03*
X204372587Y-101846186D03*
X203822587Y-102798814D03*
%TD*%
D19*
%TO.C,D43*%
X204240000Y-116460000D03*
X204240000Y-117560000D03*
X206070000Y-117560000D03*
X206070000Y-116460000D03*
%TD*%
%TO.C,D9*%
X198090000Y-104779999D03*
X196990000Y-104779999D03*
X196990000Y-106609999D03*
X198090000Y-106609999D03*
%TD*%
D33*
%TO.C,D21*%
X222806188Y-108551822D03*
X223584005Y-107774005D03*
X222290000Y-106480000D03*
X221512183Y-107257817D03*
%TD*%
D35*
%TO.C,D5*%
X193205299Y-105342519D03*
X193490000Y-104280000D03*
X191722355Y-103806361D03*
X191437654Y-104868880D03*
%TD*%
D19*
%TO.C,D23*%
X231190000Y-104380000D03*
X230090000Y-104380000D03*
X230090000Y-106210000D03*
X231190000Y-106210000D03*
%TD*%
D33*
%TO.C,D15*%
X210584005Y-108474005D03*
X211361822Y-107696188D03*
X210067817Y-106402183D03*
X209290000Y-107180000D03*
%TD*%
D19*
%TO.C,D36*%
X244990000Y-108780000D03*
X246090000Y-108780000D03*
X246090000Y-106950000D03*
X244990000Y-106950000D03*
%TD*%
%TO.C,D42*%
X252275000Y-101793109D03*
X252275000Y-102893109D03*
X254105000Y-102893109D03*
X254105000Y-101793109D03*
%TD*%
%TO.C,D24*%
X231290001Y-99549999D03*
X230190001Y-99549999D03*
X230190001Y-101379999D03*
X231290001Y-101379999D03*
%TD*%
D33*
%TO.C,D29*%
X235042183Y-108687817D03*
X235820000Y-107910000D03*
X234525995Y-106615995D03*
X233748178Y-107393812D03*
%TD*%
D19*
%TO.C,D13*%
X200470000Y-107840000D03*
X200470000Y-108940000D03*
X202300000Y-108940000D03*
X202300000Y-107840000D03*
%TD*%
%TO.C,D45*%
X204270000Y-121570000D03*
X204270000Y-122670000D03*
X206100000Y-122670000D03*
X206100000Y-121570000D03*
%TD*%
D36*
%TO.C,D6*%
X192030362Y-107705896D03*
X192406584Y-108739558D03*
X194126222Y-108113662D03*
X193750000Y-107080000D03*
%TD*%
D37*
%TO.C,D3*%
X184980000Y-101290000D03*
X185932628Y-101840000D03*
X186847628Y-100255174D03*
X185895000Y-99705174D03*
%TD*%
D19*
%TO.C,D2*%
X190520000Y-98680000D03*
X190520000Y-99780000D03*
X188690000Y-99780000D03*
X188690000Y-98680000D03*
%TD*%
%TO.C,D39*%
X253820000Y-108930000D03*
X253820000Y-107830000D03*
X251990000Y-107830000D03*
X251990000Y-108930000D03*
%TD*%
%TO.C,D19*%
X226090000Y-101680000D03*
X226090000Y-102780000D03*
X227920000Y-102780000D03*
X227920000Y-101680000D03*
%TD*%
%TO.C,D28*%
X233067813Y-105009998D03*
X234167813Y-105009998D03*
X234167813Y-103179998D03*
X233067813Y-103179998D03*
%TD*%
%TO.C,D18*%
X219190000Y-102180000D03*
X218090000Y-102180000D03*
X218090000Y-104010000D03*
X219190000Y-104010000D03*
%TD*%
D27*
%TO.C,D37*%
X248418178Y-103396188D03*
X249195995Y-104174005D03*
X250490000Y-102880000D03*
X249712183Y-102102183D03*
%TD*%
D30*
%TO.C,D17*%
X219025911Y-106863812D03*
X218248094Y-106085995D03*
X216954089Y-107380000D03*
X217731906Y-108157817D03*
%TD*%
D38*
%TO.C,D4*%
X188993778Y-103883662D03*
X189370000Y-102850000D03*
X187650362Y-102224104D03*
X187274140Y-103257766D03*
%TD*%
D39*
%TO.C,BT1*%
X258000000Y-97440000D03*
X258000000Y-111030000D03*
%TD*%
D40*
%TO.C,J1*%
X196850000Y-125580000D03*
D41*
X199390000Y-125580000D03*
X196850000Y-123040000D03*
X199390000Y-123040000D03*
X196850000Y-120500000D03*
X199390000Y-120500000D03*
X196850000Y-117960000D03*
X199390000Y-117960000D03*
%TD*%
M02*
