M48
; DRILL file {KiCad 7.0.2-0} date 2023 October 08, Sunday 21:39:16
; FORMAT={-:-/ absolute / metric / decimal}
; #@! TF.CreationDate,2023-10-08T21:39:16-05:00
; #@! TF.GenerationSoftware,Kicad,Pcbnew,7.0.2-0
; #@! TF.FileFunction,Plated,1,4,PTH
FMAT,2
METRIC
; #@! TA.AperFunction,Plated,PTH,ViaDrill
T1C0.400
; #@! TA.AperFunction,Plated,PTH,ComponentDrill
T2C1.000
; #@! TA.AperFunction,Plated,PTH,ComponentDrill
T3C1.170
%
G90
G05
T1
X176.28Y-98.77
X176.36Y-82.07
X176.403Y-124.94
X177.09Y-85.96
X177.425Y-98.34
X177.46Y-81.03
X178.21Y-87.82
X178.83Y-79.59
X179.408Y-92.8
X179.774Y-100.02
X180.15Y-93.47
X180.96Y-107.4
X181.396Y-84.03
X181.45Y-109.275
X181.73Y-102.43
X182.26Y-107.4
X182.733Y-108.497
X183.1Y-79.23
X183.37Y-96.19
X183.855Y-102.001
X183.862Y-91.128
X184.02Y-106.13
X184.035Y-97.63
X184.563Y-110.644
X184.916Y-106.573
X185.2Y-96.88
X185.31Y-91.853
X185.907Y-106.706
X186.034Y-92.837
X187.51Y-80.54
X187.52Y-90.9
X187.76Y-84.27
X188.01Y-101.16
X188.02Y-106.71
X188.1Y-93.82
X189.05Y-79.85
X190.12Y-109.93
X190.26Y-91.73
X190.54Y-100.808
X191.192Y-106.765
X191.58Y-82.645
X191.93Y-87.7
X192.19Y-106.71
X192.37Y-97.454
X192.477Y-81.693
X192.688Y-83.782
X193.49Y-109.62
X193.64Y-100.76
X193.67Y-83.97
X193.79Y-122.91
X194.22Y-97.59
X194.71Y-108.92
X194.8Y-88.23
X194.96Y-115.09
X195.08Y-116.69
X195.75Y-107.81
X195.752Y-118.906
X195.82Y-102.7
X195.87Y-97.83
X196.89Y-113.08
X197.97Y-115.85
X198.22Y-126.95
X198.43Y-99.77
X199.03Y-110.84
X199.057Y-107.237
X199.19Y-109.48
X199.21Y-105.3
X199.64Y-104.12
X199.879Y-100.18
X201.09Y-100.49
X201.098Y-103.932
X201.874Y-109.96
X202.39Y-117.36
X202.4Y-116.04
X202.455Y-120.628
X203.12Y-99.7
X203.191Y-117.958
X203.21Y-122.72
X203.24Y-120.01
X203.544Y-110.05
X203.69Y-106.64
X204.19Y-104.28
X204.94Y-105.28
X205.06Y-100.84
X206.03Y-109.43
X206.93Y-120.86
X207.0Y-116.11
X207.0Y-123.01
X207.027Y-118.526
X207.141Y-108.53
X207.905Y-102.815
X208.1Y-106.87
X208.12Y-101.11
X210.08Y-100.64
X211.33Y-105.9
X211.84Y-109.94
X212.94Y-110.15
X213.75Y-106.63
X216.55Y-106.3
X216.86Y-109.87
X217.04Y-101.93
X217.78Y-100.76
X217.813Y-109.567
X219.525Y-108.095
X220.105Y-106.728
X220.14Y-102.0
X220.19Y-103.34
X221.18Y-101.85
X223.21Y-105.72
X223.97Y-110.02
X224.21Y-103.95
X224.254Y-100.521
X225.25Y-100.44
X225.29Y-109.96
X226.09Y-106.59
X228.06Y-103.84
X228.065Y-100.465
X228.175Y-109.955
X228.86Y-105.77
X229.49Y-97.95
X230.07Y-109.47
X231.18Y-97.6
X232.15Y-106.94
X232.365Y-99.682
X232.59Y-107.97
X233.523Y-99.2
X235.13Y-109.89
X235.31Y-105.96
X235.35Y-104.5
X235.523Y-102.143
X235.74Y-101.16
X236.52Y-102.07
X236.605Y-97.467
X236.66Y-109.99
X237.59Y-106.76
X238.11Y-105.4
X238.67Y-102.11
X238.79Y-100.89
X239.01Y-97.55
X239.87Y-109.94
X239.93Y-102.05
X240.6Y-97.41
X240.775Y-106.725
X241.014Y-105.584
X241.56Y-109.94
X242.825Y-97.545
X243.005Y-100.76
X243.02Y-87.45
X243.13Y-83.86
X243.26Y-85.74
X243.27Y-82.55
X243.77Y-87.44
X243.856Y-103.461
X243.87Y-109.91
X244.0Y-104.45
X244.02Y-101.11
X244.07Y-107.73
X244.094Y-84.709
X244.22Y-82.17
X244.3Y-85.87
X244.48Y-97.72
X244.8Y-91.28
X245.04Y-84.7
X245.07Y-85.87
X245.09Y-87.74
X245.1Y-86.95
X245.169Y-110.461
X245.19Y-90.15
X246.38Y-109.77
X247.06Y-103.34
X247.06Y-107.34
X247.31Y-99.4
X247.59Y-102.26
X249.12Y-101.05
X249.86Y-109.87
X250.04Y-105.73
X250.13Y-100.73
X250.75Y-104.26
X251.06Y-109.96
X251.93Y-100.47
X251.99Y-106.74
X252.255Y-88.355
X252.39Y-104.0
X252.72Y-87.61
X253.18Y-88.36
X254.17Y-109.98
X254.52Y-104.11
X255.05Y-100.59
X255.11Y-88.27
X255.47Y-106.48
X255.71Y-109.89
X255.73Y-104.815
X255.83Y-97.2
X256.38Y-100.71
X258.89Y-107.4
X259.12Y-106.05
X259.13Y-104.76
X260.23Y-97.04
X263.63Y-89.14
T2
X196.85Y-117.96
X196.85Y-120.5
X196.85Y-123.04
X196.85Y-125.58
X199.39Y-117.96
X199.39Y-120.5
X199.39Y-123.04
X199.39Y-125.58
T3
X258.0Y-97.44
X258.0Y-111.03
T0
M30
