G04 #@! TF.GenerationSoftware,KiCad,Pcbnew,7.0.2-0*
G04 #@! TF.CreationDate,2023-10-08T21:39:02-05:00*
G04 #@! TF.ProjectId,spudglo_business_card,73707564-676c-46f5-9f62-7573696e6573,rev?*
G04 #@! TF.SameCoordinates,Original*
G04 #@! TF.FileFunction,Copper,L3,Inr*
G04 #@! TF.FilePolarity,Positive*
%FSLAX46Y46*%
G04 Gerber Fmt 4.6, Leading zero omitted, Abs format (unit mm)*
G04 Created by KiCad (PCBNEW 7.0.2-0) date 2023-10-08 21:39:02*
%MOMM*%
%LPD*%
G01*
G04 APERTURE LIST*
G04 #@! TA.AperFunction,ComponentPad*
%ADD10C,1.755000*%
G04 #@! TD*
G04 #@! TA.AperFunction,ComponentPad*
%ADD11R,1.700000X1.700000*%
G04 #@! TD*
G04 #@! TA.AperFunction,ComponentPad*
%ADD12O,1.700000X1.700000*%
G04 #@! TD*
G04 #@! TA.AperFunction,ViaPad*
%ADD13C,0.800000*%
G04 #@! TD*
G04 APERTURE END LIST*
D10*
X258000000Y-97440000D03*
X258000000Y-111030000D03*
D11*
X196850000Y-125580000D03*
D12*
X199390000Y-125580000D03*
X196850000Y-123040000D03*
X199390000Y-123040000D03*
X196850000Y-120500000D03*
X199390000Y-120500000D03*
X196850000Y-117960000D03*
X199390000Y-117960000D03*
D13*
X245070000Y-85870000D03*
X207905000Y-102815000D03*
X251060000Y-109960000D03*
X250130000Y-100730000D03*
X236660000Y-109990000D03*
X255050000Y-100590000D03*
X238670000Y-102110000D03*
X230070000Y-109470000D03*
X236520000Y-102070000D03*
X243260000Y-85740000D03*
X206030000Y-109430000D03*
X247590000Y-102260000D03*
X221180000Y-101850000D03*
X244300000Y-85870000D03*
X233523343Y-99199500D03*
X244000000Y-104450000D03*
X245169269Y-110460951D03*
X258890000Y-107400000D03*
X244020000Y-101110000D03*
X204190000Y-104280000D03*
X192190000Y-106710000D03*
X245090000Y-87740000D03*
X201090000Y-100490000D03*
X212940000Y-110150000D03*
X202454520Y-120628083D03*
X188020000Y-106710000D03*
X217780000Y-100760000D03*
X245100000Y-86950000D03*
X245040000Y-84700000D03*
X244094000Y-84709000D03*
X225290000Y-109960000D03*
X203190953Y-117957895D03*
X184915952Y-106573030D03*
X217812598Y-109567410D03*
X202400000Y-116040000D03*
X199210000Y-105300000D03*
X239010000Y-97550000D03*
X232590000Y-107970000D03*
X241560000Y-109940000D03*
X183855030Y-102000500D03*
X224253792Y-100521087D03*
X244070000Y-107730000D03*
X231180000Y-97600000D03*
X259130000Y-104760000D03*
X193640000Y-100760000D03*
X199056979Y-107236979D03*
X219525000Y-108095000D03*
X255710000Y-109890000D03*
X193490000Y-109620000D03*
X232150000Y-106940000D03*
X225250000Y-100440000D03*
X176402679Y-124940070D03*
X203544500Y-110050000D03*
X235523200Y-102143448D03*
X238790000Y-100890000D03*
X180960000Y-107400000D03*
X203120000Y-99700000D03*
X238110000Y-105400000D03*
X243856415Y-103460864D03*
X251990000Y-106740000D03*
X191192003Y-106764835D03*
X182260000Y-107400000D03*
X176360000Y-82070000D03*
X195820000Y-102700000D03*
X250750000Y-104260000D03*
X203210000Y-122720000D03*
X204940000Y-105280000D03*
X235740000Y-101160000D03*
X190120000Y-109930000D03*
X249860000Y-109870000D03*
X213750000Y-106630000D03*
X235310000Y-105960000D03*
X240775000Y-106725000D03*
X192369690Y-97454338D03*
X223970000Y-110020000D03*
X177090000Y-85960000D03*
X198430000Y-99770000D03*
X193790000Y-122910000D03*
X250040000Y-105730000D03*
X199190000Y-109480000D03*
X177460000Y-81030000D03*
X198220000Y-126950000D03*
X241013909Y-105583909D03*
X245190000Y-90150000D03*
X183100000Y-79230000D03*
X220104788Y-106727944D03*
X223210000Y-105720000D03*
X210080000Y-100640000D03*
X243020000Y-87450000D03*
X184563038Y-110644500D03*
X236604500Y-97467270D03*
X206929602Y-120860299D03*
X237590000Y-106760000D03*
X247060000Y-103340000D03*
X199640000Y-104120000D03*
X193670000Y-83970000D03*
X224210000Y-103950000D03*
X228175000Y-109955000D03*
X180149531Y-93469531D03*
X196890000Y-113080000D03*
X216550000Y-106300000D03*
X190540000Y-100808216D03*
X244800000Y-91280000D03*
X207000000Y-123010000D03*
X255470000Y-106480000D03*
X211840000Y-109940000D03*
X220139502Y-102000000D03*
X239930000Y-102050000D03*
X185906535Y-106706259D03*
X197970000Y-115850000D03*
X216860000Y-109870000D03*
X205060000Y-100840000D03*
X178830000Y-79590000D03*
X226090000Y-106590000D03*
X254170000Y-109980000D03*
X232364609Y-99681546D03*
X207027022Y-118526291D03*
X243130000Y-83860000D03*
X220190000Y-103340000D03*
X228060000Y-103840000D03*
X202390000Y-117360000D03*
X211330000Y-105900000D03*
X203240000Y-120010000D03*
X199879500Y-100180000D03*
X194710000Y-108920000D03*
X184020000Y-106130000D03*
X188010000Y-101160000D03*
X203690000Y-106640000D03*
X256380000Y-100710000D03*
X195870000Y-97830000D03*
X189050000Y-79850000D03*
X243870000Y-109910000D03*
X228860000Y-105770000D03*
X195080000Y-116690000D03*
X259120000Y-106050000D03*
X181395528Y-84030016D03*
X243005000Y-100760000D03*
X207141314Y-108530000D03*
X239870000Y-109940000D03*
X255730000Y-104815000D03*
X235130000Y-109890000D03*
X247310000Y-99400000D03*
X176280000Y-98770000D03*
X201097701Y-103932299D03*
X263630000Y-89140000D03*
X251930000Y-100470000D03*
X243770000Y-87440000D03*
X240600000Y-97410000D03*
X255110000Y-88270000D03*
X195750000Y-107810000D03*
X247060000Y-107340000D03*
X208100000Y-106870000D03*
X254520000Y-104110000D03*
X199030000Y-110840000D03*
X182732617Y-108496845D03*
X208120000Y-101110000D03*
X201874500Y-109960000D03*
X228065000Y-100465000D03*
X217040000Y-101930000D03*
X229490000Y-97950000D03*
X242825000Y-97545000D03*
X235350000Y-104500000D03*
X244480000Y-97720000D03*
X246380000Y-109770000D03*
X249120000Y-101050000D03*
X188100000Y-93820000D03*
X181730000Y-102430000D03*
X195751907Y-118906177D03*
X179774500Y-100020000D03*
X243270000Y-82550000D03*
X181450000Y-109275500D03*
X244220000Y-82170000D03*
X194960000Y-115090000D03*
X191580000Y-82645500D03*
X191930000Y-87700000D03*
X178210000Y-87819760D03*
X187510000Y-80540000D03*
X179407839Y-92799532D03*
X194800000Y-88230000D03*
X187520000Y-90900000D03*
X183861982Y-91128018D03*
X190260000Y-91730000D03*
X194220000Y-97590000D03*
X185200000Y-96880000D03*
X186034500Y-92837328D03*
X185310000Y-91852518D03*
X183370000Y-96190000D03*
X184035049Y-97629549D03*
X177425500Y-98340000D03*
X192688333Y-83782021D03*
X187760000Y-84270000D03*
X260230000Y-97040000D03*
X252720000Y-87610000D03*
X253180000Y-88360000D03*
X255830000Y-97200000D03*
X252255001Y-88354999D03*
X207000000Y-116110000D03*
X252390000Y-104000000D03*
X192476754Y-81692640D03*
G04 #@! TA.AperFunction,Conductor*
G36*
X237433039Y-90189685D02*
G01*
X237478794Y-90242489D01*
X237490000Y-90294000D01*
X237490000Y-96520000D01*
X199390000Y-96520000D01*
X199390000Y-90294000D01*
X199409685Y-90226961D01*
X199462489Y-90181206D01*
X199514000Y-90170000D01*
X237366000Y-90170000D01*
X237433039Y-90189685D01*
G37*
G04 #@! TD.AperFunction*
G04 #@! TA.AperFunction,Conductor*
G36*
X256908834Y-111879282D02*
G01*
X256908837Y-111879286D01*
X257063507Y-112047302D01*
X257063510Y-112047304D01*
X257243716Y-112187565D01*
X257243718Y-112187566D01*
X257243722Y-112187569D01*
X257444566Y-112296261D01*
X257660562Y-112370412D01*
X257885816Y-112408000D01*
X258114184Y-112408000D01*
X258339438Y-112370412D01*
X258555434Y-112296261D01*
X258756278Y-112187569D01*
X258936493Y-112047302D01*
X259091163Y-111879286D01*
X259169096Y-111760000D01*
X264303847Y-111760000D01*
X264299501Y-126294814D01*
X264299069Y-126305123D01*
X264288122Y-126435865D01*
X264272259Y-126617322D01*
X264270589Y-126629466D01*
X264242157Y-126780479D01*
X264210076Y-126941139D01*
X264207347Y-126952152D01*
X264162431Y-127103403D01*
X264113898Y-127256501D01*
X264110330Y-127266300D01*
X264050022Y-127412499D01*
X264048772Y-127415422D01*
X263984819Y-127559837D01*
X263980625Y-127568402D01*
X263905303Y-127708329D01*
X263903306Y-127711897D01*
X263824293Y-127847751D01*
X263819698Y-127855054D01*
X263730198Y-127986896D01*
X263727309Y-127990972D01*
X263634122Y-128117004D01*
X263629341Y-128123066D01*
X263526685Y-128245204D01*
X263522780Y-128249633D01*
X263416445Y-128364563D01*
X263411683Y-128369434D01*
X263297007Y-128480472D01*
X263291983Y-128485076D01*
X263173678Y-128587655D01*
X263169126Y-128591415D01*
X263043747Y-128690076D01*
X263037535Y-128694659D01*
X262908540Y-128783751D01*
X262904372Y-128786508D01*
X262769736Y-128871695D01*
X262762288Y-128876052D01*
X262623947Y-128950649D01*
X262620317Y-128952529D01*
X262478035Y-129023300D01*
X262469340Y-129027216D01*
X262322956Y-129086473D01*
X262319992Y-129087628D01*
X262171919Y-129143192D01*
X262161996Y-129146446D01*
X262007433Y-129190013D01*
X261854791Y-129230036D01*
X261843707Y-129232405D01*
X261682049Y-129259298D01*
X261530257Y-129282838D01*
X261518071Y-129284115D01*
X261336000Y-129294131D01*
X261203160Y-129300949D01*
X261196836Y-129301112D01*
X202559531Y-129315886D01*
X202492487Y-129296218D01*
X202446719Y-129243426D01*
X202435500Y-129191886D01*
X202435500Y-123513735D01*
X202455185Y-123446696D01*
X202507989Y-123400941D01*
X202577147Y-123390997D01*
X202632383Y-123413415D01*
X202757270Y-123504151D01*
X202757271Y-123504151D01*
X202757272Y-123504152D01*
X202930197Y-123581144D01*
X203115352Y-123620500D01*
X203115354Y-123620500D01*
X203304648Y-123620500D01*
X203428084Y-123594262D01*
X203489803Y-123581144D01*
X203662730Y-123504151D01*
X203663402Y-123503663D01*
X203815870Y-123392889D01*
X203829021Y-123378284D01*
X203942533Y-123252216D01*
X204037179Y-123088284D01*
X204062615Y-123009999D01*
X206094540Y-123009999D01*
X206114326Y-123198257D01*
X206172820Y-123378284D01*
X206267466Y-123542216D01*
X206394129Y-123682889D01*
X206547269Y-123794151D01*
X206720197Y-123871144D01*
X206905352Y-123910500D01*
X206905354Y-123910500D01*
X207094648Y-123910500D01*
X207230940Y-123881530D01*
X207279803Y-123871144D01*
X207452730Y-123794151D01*
X207494834Y-123763561D01*
X207605870Y-123682889D01*
X207732533Y-123542216D01*
X207827179Y-123378284D01*
X207842830Y-123330115D01*
X207885674Y-123198256D01*
X207905460Y-123010000D01*
X207885674Y-122821744D01*
X207827179Y-122641716D01*
X207827179Y-122641715D01*
X207732533Y-122477783D01*
X207605870Y-122337110D01*
X207452730Y-122225848D01*
X207279802Y-122148855D01*
X207094648Y-122109500D01*
X207094646Y-122109500D01*
X206905354Y-122109500D01*
X206905352Y-122109500D01*
X206720197Y-122148855D01*
X206547269Y-122225848D01*
X206394129Y-122337110D01*
X206267466Y-122477783D01*
X206172820Y-122641715D01*
X206114326Y-122821742D01*
X206094540Y-123009999D01*
X204062615Y-123009999D01*
X204095674Y-122908256D01*
X204115460Y-122720000D01*
X204095674Y-122531744D01*
X204052148Y-122397785D01*
X204037179Y-122351715D01*
X203942533Y-122187783D01*
X203815870Y-122047110D01*
X203662730Y-121935848D01*
X203489802Y-121858855D01*
X203304648Y-121819500D01*
X203304646Y-121819500D01*
X203115354Y-121819500D01*
X203115352Y-121819500D01*
X202930197Y-121858855D01*
X202757269Y-121935848D01*
X202632385Y-122026582D01*
X202566579Y-122050062D01*
X202498525Y-122034236D01*
X202449830Y-121984131D01*
X202435500Y-121926264D01*
X202435500Y-121426127D01*
X202435500Y-121423257D01*
X202426815Y-121329954D01*
X202418366Y-121284965D01*
X202392608Y-121194869D01*
X202376613Y-121166545D01*
X202321860Y-121069589D01*
X202305641Y-121048556D01*
X202279193Y-121014257D01*
X202279189Y-121014252D01*
X202276415Y-121011556D01*
X202276404Y-121011544D01*
X202214251Y-120951143D01*
X202208527Y-120945198D01*
X202141914Y-120871217D01*
X202126679Y-120850249D01*
X202098194Y-120800911D01*
X202087655Y-120777237D01*
X202070051Y-120723061D01*
X202064660Y-120697700D01*
X202063103Y-120682888D01*
X202058705Y-120641041D01*
X202058706Y-120615123D01*
X202059360Y-120608893D01*
X202064661Y-120558458D01*
X202070048Y-120533110D01*
X202087654Y-120478924D01*
X202098192Y-120455257D01*
X202126685Y-120405905D01*
X202141913Y-120384946D01*
X202192317Y-120328967D01*
X202202586Y-120318820D01*
X202209536Y-120312710D01*
X202272884Y-120283240D01*
X202342110Y-120292695D01*
X202395236Y-120338076D01*
X202409327Y-120367532D01*
X202412820Y-120378284D01*
X202507466Y-120542216D01*
X202634129Y-120682889D01*
X202787269Y-120794151D01*
X202960197Y-120871144D01*
X203145352Y-120910500D01*
X203145354Y-120910500D01*
X203334648Y-120910500D01*
X203458084Y-120884262D01*
X203519803Y-120871144D01*
X203544161Y-120860299D01*
X206024142Y-120860299D01*
X206043928Y-121048556D01*
X206102422Y-121228583D01*
X206197068Y-121392515D01*
X206323731Y-121533188D01*
X206476871Y-121644450D01*
X206649799Y-121721443D01*
X206834954Y-121760799D01*
X206834956Y-121760799D01*
X207024250Y-121760799D01*
X207202070Y-121723002D01*
X207209405Y-121721443D01*
X207382332Y-121644450D01*
X207535473Y-121533187D01*
X207662135Y-121392515D01*
X207756781Y-121228583D01*
X207815276Y-121048555D01*
X207835062Y-120860299D01*
X207815276Y-120672043D01*
X207778372Y-120558464D01*
X207756781Y-120492014D01*
X207662135Y-120328082D01*
X207535472Y-120187409D01*
X207382332Y-120076147D01*
X207209404Y-119999154D01*
X207024250Y-119959799D01*
X207024248Y-119959799D01*
X206834956Y-119959799D01*
X206834954Y-119959799D01*
X206649799Y-119999154D01*
X206476871Y-120076147D01*
X206323731Y-120187409D01*
X206197068Y-120328082D01*
X206102422Y-120492014D01*
X206043928Y-120672041D01*
X206024142Y-120860299D01*
X203544161Y-120860299D01*
X203692730Y-120794151D01*
X203773583Y-120735408D01*
X203845870Y-120682889D01*
X203972533Y-120542216D01*
X204067179Y-120378284D01*
X204083491Y-120328082D01*
X204125674Y-120198256D01*
X204145460Y-120010000D01*
X204125674Y-119821744D01*
X204067179Y-119641716D01*
X204067179Y-119641715D01*
X203972533Y-119477783D01*
X203845870Y-119337110D01*
X203692730Y-119225848D01*
X203519802Y-119148855D01*
X203334648Y-119109500D01*
X203334646Y-119109500D01*
X203145354Y-119109500D01*
X203145352Y-119109500D01*
X202960197Y-119148855D01*
X202787269Y-119225848D01*
X202632385Y-119338378D01*
X202566579Y-119361858D01*
X202498525Y-119346032D01*
X202449830Y-119295927D01*
X202435500Y-119238060D01*
X202435500Y-118526290D01*
X206121562Y-118526290D01*
X206141348Y-118714548D01*
X206199842Y-118894575D01*
X206294488Y-119058507D01*
X206421151Y-119199180D01*
X206574291Y-119310442D01*
X206747219Y-119387435D01*
X206932374Y-119426791D01*
X206932376Y-119426791D01*
X207121670Y-119426791D01*
X207245105Y-119400553D01*
X207306825Y-119387435D01*
X207479752Y-119310442D01*
X207548739Y-119260320D01*
X207632892Y-119199180D01*
X207654460Y-119175227D01*
X207759555Y-119058507D01*
X207854201Y-118894575D01*
X207912696Y-118714547D01*
X207932482Y-118526291D01*
X207912696Y-118338035D01*
X207874715Y-118221143D01*
X207854201Y-118158006D01*
X207759555Y-117994074D01*
X207632892Y-117853401D01*
X207479752Y-117742139D01*
X207306824Y-117665146D01*
X207121670Y-117625791D01*
X207121668Y-117625791D01*
X206932376Y-117625791D01*
X206932374Y-117625791D01*
X206747219Y-117665146D01*
X206574291Y-117742139D01*
X206421151Y-117853401D01*
X206294488Y-117994074D01*
X206199842Y-118158006D01*
X206141348Y-118338033D01*
X206121562Y-118526290D01*
X202435500Y-118526290D01*
X202435500Y-118371359D01*
X202455185Y-118304320D01*
X202507989Y-118258565D01*
X202533710Y-118250071D01*
X202669803Y-118221144D01*
X202669804Y-118221143D01*
X202669806Y-118221143D01*
X202842730Y-118144151D01*
X202995870Y-118032889D01*
X203122533Y-117892216D01*
X203217179Y-117728284D01*
X203227464Y-117696629D01*
X203275674Y-117548256D01*
X203295460Y-117360000D01*
X203275674Y-117171744D01*
X203234817Y-117046001D01*
X203217179Y-116991715D01*
X203122533Y-116827783D01*
X202995870Y-116687110D01*
X202842730Y-116575848D01*
X202669802Y-116498855D01*
X202484648Y-116459500D01*
X202484646Y-116459500D01*
X202295354Y-116459500D01*
X202282322Y-116459500D01*
X202282322Y-116458418D01*
X202225983Y-116454115D01*
X202170252Y-116411973D01*
X202159732Y-116394526D01*
X202104622Y-116312262D01*
X202081293Y-116277439D01*
X202076947Y-116270459D01*
X202043672Y-116212823D01*
X202033134Y-116189153D01*
X202015529Y-116134974D01*
X202010221Y-116109999D01*
X206094540Y-116109999D01*
X206114326Y-116298257D01*
X206172820Y-116478284D01*
X206267466Y-116642216D01*
X206394129Y-116782889D01*
X206547269Y-116894151D01*
X206720197Y-116971144D01*
X206905352Y-117010500D01*
X206905354Y-117010500D01*
X207094648Y-117010500D01*
X207218084Y-116984262D01*
X207279803Y-116971144D01*
X207452730Y-116894151D01*
X207452730Y-116894150D01*
X207605870Y-116782889D01*
X207615151Y-116772582D01*
X207732533Y-116642216D01*
X207827179Y-116478284D01*
X207885674Y-116298256D01*
X207905460Y-116110000D01*
X207885674Y-115921744D01*
X207831342Y-115754527D01*
X207827179Y-115741715D01*
X207732533Y-115577783D01*
X207605870Y-115437110D01*
X207452730Y-115325848D01*
X207279802Y-115248855D01*
X207094648Y-115209500D01*
X207094646Y-115209500D01*
X206905354Y-115209500D01*
X206905352Y-115209500D01*
X206720197Y-115248855D01*
X206547269Y-115325848D01*
X206394129Y-115437110D01*
X206267466Y-115577783D01*
X206172820Y-115741715D01*
X206114326Y-115921742D01*
X206094540Y-116109999D01*
X202010221Y-116109999D01*
X202010140Y-116109616D01*
X202004186Y-116052957D01*
X202004186Y-116027039D01*
X202005814Y-116011544D01*
X202010141Y-115970374D01*
X202015528Y-115945027D01*
X202033135Y-115890841D01*
X202043672Y-115867174D01*
X202072165Y-115817821D01*
X202087394Y-115796861D01*
X202125515Y-115754523D01*
X202144780Y-115737179D01*
X202176008Y-115714492D01*
X202246398Y-115652613D01*
X202277827Y-115619334D01*
X202335567Y-115545550D01*
X202395338Y-115414673D01*
X202415023Y-115347634D01*
X202415024Y-115347630D01*
X202435500Y-115205214D01*
X202435500Y-113154000D01*
X202423947Y-113046544D01*
X202412741Y-112995033D01*
X202404187Y-112969333D01*
X202378614Y-112892496D01*
X202300826Y-112771458D01*
X202291046Y-112760172D01*
X202255070Y-112718653D01*
X202146336Y-112624433D01*
X202146335Y-112624432D01*
X202015460Y-112564662D01*
X201950113Y-112545474D01*
X201950111Y-112545473D01*
X201948420Y-112544977D01*
X201948416Y-112544976D01*
X201945290Y-112544526D01*
X201945277Y-112544524D01*
X201806000Y-112524500D01*
X200784000Y-112524500D01*
X200716961Y-112504815D01*
X200671206Y-112452011D01*
X200660000Y-112400500D01*
X200660000Y-111760000D01*
X256830903Y-111760000D01*
X256908834Y-111879282D01*
G37*
G04 #@! TD.AperFunction*
G04 #@! TA.AperFunction,Conductor*
G36*
X261316923Y-78498461D02*
G01*
X261445864Y-78509254D01*
X261629268Y-78525295D01*
X261641378Y-78526960D01*
X261790639Y-78555061D01*
X261953116Y-78587504D01*
X261964091Y-78590224D01*
X262114285Y-78634825D01*
X262268453Y-78683696D01*
X262278244Y-78687260D01*
X262423680Y-78747251D01*
X262426490Y-78748453D01*
X262571837Y-78812817D01*
X262580353Y-78816987D01*
X262664673Y-78862376D01*
X262719625Y-78891956D01*
X262723192Y-78893952D01*
X262859748Y-78973372D01*
X262866999Y-78977933D01*
X262998348Y-79067097D01*
X263002358Y-79069940D01*
X263128983Y-79163564D01*
X263135045Y-79168344D01*
X263256690Y-79270585D01*
X263261119Y-79274491D01*
X263376572Y-79381310D01*
X263381443Y-79386072D01*
X263492018Y-79500270D01*
X263496621Y-79505294D01*
X263599668Y-79624138D01*
X263603429Y-79628689D01*
X263701671Y-79753535D01*
X263706254Y-79759748D01*
X263795761Y-79889343D01*
X263798517Y-79893511D01*
X263883331Y-80027556D01*
X263887688Y-80035004D01*
X263962656Y-80174032D01*
X263964538Y-80177663D01*
X264034979Y-80319286D01*
X264038894Y-80327980D01*
X264098493Y-80475209D01*
X264099648Y-80478172D01*
X264154896Y-80625401D01*
X264158151Y-80635326D01*
X264202037Y-80791025D01*
X264241764Y-80942542D01*
X264244133Y-80953628D01*
X264271316Y-81117040D01*
X264294586Y-81267095D01*
X264295863Y-81279282D01*
X264306146Y-81466259D01*
X264312702Y-81593992D01*
X264312865Y-81600384D01*
X264310868Y-88278273D01*
X264291163Y-88345307D01*
X264238346Y-88391046D01*
X264169184Y-88400969D01*
X264113984Y-88378555D01*
X264082729Y-88355848D01*
X263909802Y-88278855D01*
X263724648Y-88239500D01*
X263724646Y-88239500D01*
X263535354Y-88239500D01*
X263535352Y-88239500D01*
X263350197Y-88278855D01*
X263177269Y-88355848D01*
X263024129Y-88467110D01*
X262897466Y-88607783D01*
X262802820Y-88771715D01*
X262744326Y-88951742D01*
X262724540Y-89139999D01*
X262744326Y-89328257D01*
X262802820Y-89508284D01*
X262897466Y-89672216D01*
X263024129Y-89812889D01*
X263177269Y-89924151D01*
X263350197Y-90001144D01*
X263535352Y-90040500D01*
X263535354Y-90040500D01*
X263724648Y-90040500D01*
X263848084Y-90014262D01*
X263909803Y-90001144D01*
X264082730Y-89924151D01*
X264113467Y-89901819D01*
X264179270Y-89878339D01*
X264247325Y-89894163D01*
X264296020Y-89944268D01*
X264310352Y-90002174D01*
X264307452Y-99700537D01*
X264287747Y-99767571D01*
X264234930Y-99813310D01*
X264183452Y-99824500D01*
X264183228Y-99824500D01*
X257374044Y-99824500D01*
X257372746Y-99824555D01*
X257372728Y-99824556D01*
X257332113Y-99826297D01*
X257332105Y-99826297D01*
X257330787Y-99826354D01*
X257329487Y-99826465D01*
X257329466Y-99826467D01*
X257310966Y-99828056D01*
X257310948Y-99828057D01*
X257309643Y-99828170D01*
X257308355Y-99828336D01*
X257308322Y-99828340D01*
X257266709Y-99833718D01*
X257129866Y-99878179D01*
X257070616Y-99907309D01*
X257070607Y-99907313D01*
X257067168Y-99909005D01*
X257067164Y-99909007D01*
X257063689Y-99911383D01*
X257063679Y-99911389D01*
X257006606Y-99950414D01*
X256940155Y-99972004D01*
X256872582Y-99954240D01*
X256863732Y-99948372D01*
X256832730Y-99925848D01*
X256659802Y-99848855D01*
X256474648Y-99809500D01*
X256474646Y-99809500D01*
X256285354Y-99809500D01*
X256285352Y-99809500D01*
X256100197Y-99848855D01*
X255927271Y-99925847D01*
X255898505Y-99946747D01*
X255832699Y-99970225D01*
X255764645Y-99954398D01*
X255744419Y-99940139D01*
X255726293Y-99924433D01*
X255587350Y-99860979D01*
X255587520Y-99860604D01*
X255558362Y-99846267D01*
X255502728Y-99805847D01*
X255343564Y-99734982D01*
X255290327Y-99689732D01*
X255270006Y-99622883D01*
X255270000Y-99621703D01*
X255270000Y-97439999D01*
X256617778Y-97439999D01*
X256636630Y-97667501D01*
X256692673Y-97888808D01*
X256784371Y-98097861D01*
X256865068Y-98221376D01*
X257448706Y-97637739D01*
X257489003Y-97735024D01*
X257582773Y-97857227D01*
X257704976Y-97950997D01*
X257802259Y-97991293D01*
X257217233Y-98576318D01*
X257243997Y-98597148D01*
X257444771Y-98705802D01*
X257660681Y-98779924D01*
X257885858Y-98817500D01*
X258114142Y-98817500D01*
X258339318Y-98779924D01*
X258555227Y-98705802D01*
X258756004Y-98597147D01*
X258782764Y-98576318D01*
X258197740Y-97991293D01*
X258295024Y-97950997D01*
X258417227Y-97857227D01*
X258510997Y-97735024D01*
X258551293Y-97637740D01*
X259134930Y-98221377D01*
X259215625Y-98097865D01*
X259307327Y-97888807D01*
X259363369Y-97667501D01*
X259382221Y-97440000D01*
X259363369Y-97212498D01*
X259307326Y-96991191D01*
X259215626Y-96782133D01*
X259134931Y-96658621D01*
X259134930Y-96658621D01*
X258551292Y-97242257D01*
X258510997Y-97144976D01*
X258417227Y-97022773D01*
X258295024Y-96929003D01*
X258197740Y-96888706D01*
X258782765Y-96303681D01*
X258782765Y-96303680D01*
X258756003Y-96282851D01*
X258555228Y-96174197D01*
X258339318Y-96100075D01*
X258114142Y-96062500D01*
X257885858Y-96062500D01*
X257660681Y-96100075D01*
X257444772Y-96174197D01*
X257243994Y-96282853D01*
X257217234Y-96303679D01*
X257217234Y-96303680D01*
X257802260Y-96888706D01*
X257704976Y-96929003D01*
X257582773Y-97022773D01*
X257489003Y-97144976D01*
X257448706Y-97242260D01*
X256865067Y-96658621D01*
X256784372Y-96782136D01*
X256692673Y-96991192D01*
X256636630Y-97212498D01*
X256617778Y-97439999D01*
X255270000Y-97439999D01*
X255270000Y-96062500D01*
X255270000Y-89257018D01*
X255289684Y-89189983D01*
X255342488Y-89144228D01*
X255368215Y-89135732D01*
X255389803Y-89131144D01*
X255389804Y-89131143D01*
X255389806Y-89131143D01*
X255562730Y-89054151D01*
X255715870Y-88942889D01*
X255801375Y-88847927D01*
X255842533Y-88802216D01*
X255937179Y-88638284D01*
X255995674Y-88458256D01*
X256015460Y-88270000D01*
X255995674Y-88081744D01*
X255937179Y-87901716D01*
X255937179Y-87901715D01*
X255842533Y-87737783D01*
X255715870Y-87597110D01*
X255562730Y-87485848D01*
X255389802Y-87408855D01*
X255204648Y-87369500D01*
X255204646Y-87369500D01*
X255015354Y-87369500D01*
X255015352Y-87369500D01*
X254830197Y-87408855D01*
X254657269Y-87485848D01*
X254504129Y-87597110D01*
X254377466Y-87737783D01*
X254282820Y-87901715D01*
X254224326Y-88081742D01*
X254204540Y-88270000D01*
X254224326Y-88458257D01*
X254282820Y-88638284D01*
X254326535Y-88714000D01*
X254343008Y-88781900D01*
X254320155Y-88847927D01*
X254265234Y-88891118D01*
X254219148Y-88900000D01*
X250819500Y-88900000D01*
X250752461Y-88880315D01*
X250706706Y-88827511D01*
X250695500Y-88776000D01*
X250695500Y-83312323D01*
X250695500Y-83309000D01*
X250683947Y-83201544D01*
X250672741Y-83150033D01*
X250665112Y-83127112D01*
X250638614Y-83047496D01*
X250560826Y-82926458D01*
X250556004Y-82920894D01*
X250515070Y-82873653D01*
X250406336Y-82779433D01*
X250406335Y-82779432D01*
X250267392Y-82715978D01*
X250268364Y-82713848D01*
X250220271Y-82682927D01*
X250191259Y-82619366D01*
X250190000Y-82601743D01*
X250190000Y-78630151D01*
X250209685Y-78563112D01*
X250262489Y-78517357D01*
X250313902Y-78506152D01*
X261306531Y-78498030D01*
X261316923Y-78498461D01*
G37*
G04 #@! TD.AperFunction*
G04 #@! TA.AperFunction,Conductor*
G36*
X247463897Y-78633894D02*
G01*
X247510720Y-78685754D01*
X247523000Y-78739556D01*
X247522999Y-82936504D01*
X247503314Y-83003543D01*
X247450510Y-83049298D01*
X247401529Y-83060478D01*
X243708174Y-83135853D01*
X243640747Y-83117541D01*
X243632758Y-83112196D01*
X243582730Y-83075848D01*
X243409802Y-82998855D01*
X243224648Y-82959500D01*
X243224646Y-82959500D01*
X243035354Y-82959500D01*
X243035352Y-82959500D01*
X242850197Y-82998855D01*
X242677270Y-83075848D01*
X242593964Y-83136372D01*
X242528157Y-83159851D01*
X242523611Y-83160027D01*
X242316000Y-83164264D01*
X242316000Y-83164265D01*
X241300000Y-83185000D01*
X241300000Y-78740000D01*
X247396470Y-78615582D01*
X247463897Y-78633894D01*
G37*
G04 #@! TD.AperFunction*
G04 #@! TA.AperFunction,Conductor*
G36*
X181609999Y-106515809D02*
G01*
X181590314Y-106582848D01*
X181537510Y-106628603D01*
X181468352Y-106638547D01*
X181424766Y-106620856D01*
X181424636Y-106621149D01*
X181415867Y-106617244D01*
X181413113Y-106616127D01*
X181412727Y-106615847D01*
X181239802Y-106538855D01*
X181054648Y-106499500D01*
X181054646Y-106499500D01*
X180865354Y-106499500D01*
X180865352Y-106499500D01*
X180680197Y-106538855D01*
X180507269Y-106615848D01*
X180354129Y-106727110D01*
X180227466Y-106867783D01*
X180132820Y-107031715D01*
X180074326Y-107211742D01*
X180054540Y-107399999D01*
X180074326Y-107588257D01*
X180132820Y-107768284D01*
X180227466Y-107932216D01*
X180354129Y-108072889D01*
X180507269Y-108184151D01*
X180680197Y-108261144D01*
X180865352Y-108300500D01*
X180865354Y-108300500D01*
X181054648Y-108300500D01*
X181178084Y-108274262D01*
X181239803Y-108261144D01*
X181412730Y-108184151D01*
X181413112Y-108183873D01*
X181414339Y-108183435D01*
X181424636Y-108178851D01*
X181424985Y-108179636D01*
X181478918Y-108160392D01*
X181546973Y-108176216D01*
X181595668Y-108226321D01*
X181610000Y-108284189D01*
X181610000Y-113030000D01*
X195867635Y-113030000D01*
X195934674Y-113049685D01*
X195980429Y-113102489D01*
X195990954Y-113141034D01*
X195992318Y-113154000D01*
X196004326Y-113268257D01*
X196062820Y-113448284D01*
X196157466Y-113612216D01*
X196284129Y-113752889D01*
X196437269Y-113864151D01*
X196610197Y-113941144D01*
X196795352Y-113980500D01*
X196795354Y-113980500D01*
X196984648Y-113980500D01*
X197108084Y-113954262D01*
X197169803Y-113941144D01*
X197342730Y-113864151D01*
X197495871Y-113752888D01*
X197622533Y-113612216D01*
X197717179Y-113448284D01*
X197775674Y-113268256D01*
X197789044Y-113141036D01*
X197815628Y-113076424D01*
X197872926Y-113036439D01*
X197912365Y-113030000D01*
X201806000Y-113030000D01*
X201873039Y-113049685D01*
X201918794Y-113102489D01*
X201930000Y-113154000D01*
X201930000Y-115205214D01*
X201910315Y-115272253D01*
X201878886Y-115305532D01*
X201794127Y-115367112D01*
X201667466Y-115507783D01*
X201572820Y-115671715D01*
X201514326Y-115851742D01*
X201494540Y-116039999D01*
X201514326Y-116228257D01*
X201572820Y-116408284D01*
X201667466Y-116572216D01*
X201702814Y-116611473D01*
X201733045Y-116674465D01*
X201724420Y-116743800D01*
X201702816Y-116777417D01*
X201657466Y-116827783D01*
X201562820Y-116991715D01*
X201504326Y-117171742D01*
X201484540Y-117360000D01*
X201504326Y-117548257D01*
X201562820Y-117728284D01*
X201657466Y-117892216D01*
X201784126Y-118032886D01*
X201784129Y-118032888D01*
X201878886Y-118101733D01*
X201921551Y-118157061D01*
X201930000Y-118202050D01*
X201930000Y-119832908D01*
X201910315Y-119899947D01*
X201878886Y-119933225D01*
X201848650Y-119955192D01*
X201721986Y-120095866D01*
X201627340Y-120259798D01*
X201568846Y-120439825D01*
X201549060Y-120628083D01*
X201568846Y-120816340D01*
X201627340Y-120996367D01*
X201721986Y-121160299D01*
X201848646Y-121300968D01*
X201848649Y-121300971D01*
X201878886Y-121322939D01*
X201921551Y-121378268D01*
X201930000Y-121423257D01*
X201930000Y-129192075D01*
X201910315Y-129259114D01*
X201857511Y-129304869D01*
X201806031Y-129316075D01*
X178413455Y-129321969D01*
X178403080Y-129321537D01*
X178273677Y-129310705D01*
X178090781Y-129294711D01*
X178078642Y-129293041D01*
X177928917Y-129264853D01*
X177766962Y-129232514D01*
X177755950Y-129229786D01*
X177605524Y-129185117D01*
X177451584Y-129136318D01*
X177441785Y-129132751D01*
X177347832Y-129093996D01*
X177296229Y-129072710D01*
X177293322Y-129071467D01*
X177148241Y-129007221D01*
X177139675Y-129003026D01*
X177000257Y-128927979D01*
X176996690Y-128925983D01*
X176860323Y-128846673D01*
X176853020Y-128842078D01*
X176721596Y-128752864D01*
X176717519Y-128749974D01*
X176591069Y-128656478D01*
X176585007Y-128651698D01*
X176523924Y-128600359D01*
X176463208Y-128549327D01*
X176458826Y-128545462D01*
X176343483Y-128438746D01*
X176338627Y-128433999D01*
X176227907Y-128319651D01*
X176223328Y-128314654D01*
X176120400Y-128195948D01*
X176116656Y-128191417D01*
X176018266Y-128066383D01*
X176013683Y-128060169D01*
X175924320Y-127930781D01*
X175921564Y-127926615D01*
X175894182Y-127883340D01*
X175836611Y-127792350D01*
X175832283Y-127784954D01*
X175757368Y-127646022D01*
X175755541Y-127642494D01*
X175684993Y-127500660D01*
X175681089Y-127491992D01*
X175621530Y-127344859D01*
X175620441Y-127342063D01*
X175565084Y-127194546D01*
X175561830Y-127184623D01*
X175548761Y-127138257D01*
X175518022Y-127029199D01*
X175478216Y-126877379D01*
X175475858Y-126866344D01*
X175448757Y-126703432D01*
X175425404Y-126552842D01*
X175424129Y-126540671D01*
X175420493Y-126474560D01*
X175413926Y-126355159D01*
X175407295Y-126225959D01*
X175407133Y-126219492D01*
X175407980Y-125480832D01*
X175427742Y-125413817D01*
X175480598Y-125368123D01*
X175549768Y-125358258D01*
X175613290Y-125387356D01*
X175639367Y-125418976D01*
X175670145Y-125472286D01*
X175796808Y-125612959D01*
X175949948Y-125724221D01*
X176122876Y-125801214D01*
X176308031Y-125840570D01*
X176308033Y-125840570D01*
X176497327Y-125840570D01*
X176620763Y-125814332D01*
X176682482Y-125801214D01*
X176855409Y-125724221D01*
X177008550Y-125612958D01*
X177135212Y-125472286D01*
X177229858Y-125308354D01*
X177288353Y-125128326D01*
X177308139Y-124940070D01*
X177288353Y-124751814D01*
X177246341Y-124622516D01*
X177229858Y-124571785D01*
X177135212Y-124407853D01*
X177008549Y-124267180D01*
X176855409Y-124155918D01*
X176682481Y-124078925D01*
X176497327Y-124039570D01*
X176497325Y-124039570D01*
X176308033Y-124039570D01*
X176308031Y-124039570D01*
X176122876Y-124078925D01*
X175949948Y-124155918D01*
X175796808Y-124267180D01*
X175670146Y-124407852D01*
X175640610Y-124459011D01*
X175590042Y-124507226D01*
X175521435Y-124520448D01*
X175456571Y-124494480D01*
X175416043Y-124437566D01*
X175409223Y-124396868D01*
X175409226Y-124394855D01*
X175410929Y-122910000D01*
X192884540Y-122910000D01*
X192904326Y-123098257D01*
X192962820Y-123278284D01*
X193057466Y-123442216D01*
X193184129Y-123582889D01*
X193337269Y-123694151D01*
X193510197Y-123771144D01*
X193695352Y-123810500D01*
X193695354Y-123810500D01*
X193884648Y-123810500D01*
X194008083Y-123784262D01*
X194069803Y-123771144D01*
X194242730Y-123694151D01*
X194395871Y-123582888D01*
X194522533Y-123442216D01*
X194617179Y-123278284D01*
X194675674Y-123098256D01*
X194695460Y-122910000D01*
X194675674Y-122721744D01*
X194617179Y-122541716D01*
X194617179Y-122541715D01*
X194522533Y-122377783D01*
X194395870Y-122237110D01*
X194242730Y-122125848D01*
X194069802Y-122048855D01*
X193884648Y-122009500D01*
X193884646Y-122009500D01*
X193695354Y-122009500D01*
X193695352Y-122009500D01*
X193510197Y-122048855D01*
X193337269Y-122125848D01*
X193184129Y-122237110D01*
X193057466Y-122377783D01*
X192962820Y-122541715D01*
X192904326Y-122721742D01*
X192884540Y-122910000D01*
X175410929Y-122910000D01*
X175418061Y-116690000D01*
X194174540Y-116690000D01*
X194180575Y-116747424D01*
X194194326Y-116878257D01*
X194252820Y-117058284D01*
X194347466Y-117222216D01*
X194474129Y-117362889D01*
X194627269Y-117474151D01*
X194800197Y-117551144D01*
X194985352Y-117590500D01*
X194985354Y-117590500D01*
X195174648Y-117590500D01*
X195372551Y-117548435D01*
X195373309Y-117552005D01*
X195420435Y-117545672D01*
X195483721Y-117575280D01*
X195520953Y-117634403D01*
X195521436Y-117700332D01*
X195514936Y-117724591D01*
X195494340Y-117960000D01*
X195514936Y-118195407D01*
X195532378Y-118260500D01*
X195576097Y-118423663D01*
X195675965Y-118637830D01*
X195811505Y-118831401D01*
X195978599Y-118998495D01*
X196164160Y-119128426D01*
X196207783Y-119183002D01*
X196214976Y-119252501D01*
X196183454Y-119314855D01*
X196164159Y-119331575D01*
X195978595Y-119461508D01*
X195811505Y-119628598D01*
X195675965Y-119822170D01*
X195576097Y-120036336D01*
X195514936Y-120264592D01*
X195494340Y-120500000D01*
X195514936Y-120735407D01*
X195536622Y-120816339D01*
X195576097Y-120963663D01*
X195675965Y-121177830D01*
X195811505Y-121371401D01*
X195978599Y-121538495D01*
X196164160Y-121668426D01*
X196207783Y-121723002D01*
X196214976Y-121792501D01*
X196183454Y-121854855D01*
X196164159Y-121871575D01*
X195978595Y-122001508D01*
X195811505Y-122168598D01*
X195675965Y-122362170D01*
X195576097Y-122576336D01*
X195514936Y-122804592D01*
X195494340Y-123039999D01*
X195514936Y-123275407D01*
X195559633Y-123442216D01*
X195576097Y-123503663D01*
X195675965Y-123717830D01*
X195811505Y-123911401D01*
X195811508Y-123911403D01*
X195811508Y-123911404D01*
X195933430Y-124033326D01*
X195966915Y-124094649D01*
X195961931Y-124164341D01*
X195920059Y-124220274D01*
X195889083Y-124237189D01*
X195757669Y-124286204D01*
X195642454Y-124372454D01*
X195556204Y-124487668D01*
X195524831Y-124571785D01*
X195505909Y-124622517D01*
X195499500Y-124682127D01*
X195499500Y-124685448D01*
X195499500Y-124685449D01*
X195499500Y-126474560D01*
X195499500Y-126474578D01*
X195499501Y-126477872D01*
X195499853Y-126481152D01*
X195499854Y-126481159D01*
X195505909Y-126537484D01*
X195507098Y-126540671D01*
X195556204Y-126672331D01*
X195642454Y-126787546D01*
X195757669Y-126873796D01*
X195892517Y-126924091D01*
X195952127Y-126930500D01*
X197200840Y-126930499D01*
X197267879Y-126950184D01*
X197313634Y-127002987D01*
X197324161Y-127041537D01*
X197334326Y-127138257D01*
X197392820Y-127318284D01*
X197487466Y-127482216D01*
X197614129Y-127622889D01*
X197767269Y-127734151D01*
X197940197Y-127811144D01*
X198125352Y-127850500D01*
X198125354Y-127850500D01*
X198314648Y-127850500D01*
X198438084Y-127824262D01*
X198499803Y-127811144D01*
X198672730Y-127734151D01*
X198825871Y-127622888D01*
X198952533Y-127482216D01*
X199047179Y-127318284D01*
X199105674Y-127138256D01*
X199116627Y-127034039D01*
X199143210Y-126969428D01*
X199200507Y-126929443D01*
X199250753Y-126923476D01*
X199390000Y-126935659D01*
X199625408Y-126915063D01*
X199853663Y-126853903D01*
X200067830Y-126754035D01*
X200261401Y-126618495D01*
X200428495Y-126451401D01*
X200564035Y-126257830D01*
X200663903Y-126043663D01*
X200725063Y-125815408D01*
X200745659Y-125580000D01*
X200725063Y-125344592D01*
X200663903Y-125116337D01*
X200564035Y-124902171D01*
X200428495Y-124708599D01*
X200261401Y-124541505D01*
X200075839Y-124411573D01*
X200032215Y-124356997D01*
X200025023Y-124287498D01*
X200056545Y-124225144D01*
X200075831Y-124208432D01*
X200261401Y-124078495D01*
X200428495Y-123911401D01*
X200564035Y-123717830D01*
X200663903Y-123503663D01*
X200725063Y-123275408D01*
X200745659Y-123040000D01*
X200725063Y-122804592D01*
X200663903Y-122576337D01*
X200564035Y-122362171D01*
X200428495Y-122168599D01*
X200261401Y-122001505D01*
X200075839Y-121871573D01*
X200032215Y-121816997D01*
X200025023Y-121747498D01*
X200056545Y-121685144D01*
X200075831Y-121668432D01*
X200261401Y-121538495D01*
X200428495Y-121371401D01*
X200564035Y-121177830D01*
X200663903Y-120963663D01*
X200725063Y-120735408D01*
X200745659Y-120500000D01*
X200725063Y-120264592D01*
X200663903Y-120036337D01*
X200564035Y-119822171D01*
X200428495Y-119628599D01*
X200261401Y-119461505D01*
X200075402Y-119331267D01*
X200031780Y-119276692D01*
X200024587Y-119207193D01*
X200056109Y-119144839D01*
X200075405Y-119128119D01*
X200261078Y-118998109D01*
X200428106Y-118831081D01*
X200563600Y-118637576D01*
X200663430Y-118423492D01*
X200720636Y-118210000D01*
X199823686Y-118210000D01*
X199849493Y-118169844D01*
X199890000Y-118031889D01*
X199890000Y-117888111D01*
X199849493Y-117750156D01*
X199823686Y-117710000D01*
X200720636Y-117710000D01*
X200720635Y-117709999D01*
X200663430Y-117496507D01*
X200563599Y-117282421D01*
X200428109Y-117088921D01*
X200261081Y-116921893D01*
X200067576Y-116786399D01*
X199853492Y-116686569D01*
X199640000Y-116629364D01*
X199640000Y-117524498D01*
X199532315Y-117475320D01*
X199425763Y-117460000D01*
X199354237Y-117460000D01*
X199247685Y-117475320D01*
X199140000Y-117524498D01*
X199140000Y-116629364D01*
X199139999Y-116629364D01*
X198926507Y-116686569D01*
X198712421Y-116786400D01*
X198518921Y-116921890D01*
X198351893Y-117088918D01*
X198221880Y-117274596D01*
X198167303Y-117318220D01*
X198097804Y-117325413D01*
X198035450Y-117293891D01*
X198018730Y-117274595D01*
X197982054Y-117222216D01*
X197888495Y-117088599D01*
X197758685Y-116958789D01*
X197725200Y-116897466D01*
X197730184Y-116827774D01*
X197772056Y-116771841D01*
X197837520Y-116747424D01*
X197872149Y-116749818D01*
X197875354Y-116750500D01*
X197875355Y-116750500D01*
X198064648Y-116750500D01*
X198188084Y-116724262D01*
X198249803Y-116711144D01*
X198422730Y-116634151D01*
X198463760Y-116604341D01*
X198575870Y-116522889D01*
X198702533Y-116382216D01*
X198797179Y-116218284D01*
X198855107Y-116040000D01*
X198855674Y-116038256D01*
X198875460Y-115850000D01*
X198855674Y-115661744D01*
X198797179Y-115481716D01*
X198797179Y-115481715D01*
X198702533Y-115317783D01*
X198575870Y-115177110D01*
X198422730Y-115065848D01*
X198249802Y-114988855D01*
X198064648Y-114949500D01*
X198064646Y-114949500D01*
X197875354Y-114949500D01*
X197875352Y-114949500D01*
X197690197Y-114988855D01*
X197517269Y-115065848D01*
X197364129Y-115177110D01*
X197237466Y-115317783D01*
X197142820Y-115481715D01*
X197084326Y-115661742D01*
X197064540Y-115850000D01*
X197084326Y-116038257D01*
X197142820Y-116218284D01*
X197237466Y-116382216D01*
X197293748Y-116444723D01*
X197323978Y-116507714D01*
X197315353Y-116577050D01*
X197270611Y-116630715D01*
X197203959Y-116651673D01*
X197169505Y-116647470D01*
X197085407Y-116624936D01*
X196850000Y-116604340D01*
X196614592Y-116624936D01*
X196386336Y-116686097D01*
X196162339Y-116790550D01*
X196160672Y-116786976D01*
X196113801Y-116802748D01*
X196046046Y-116785690D01*
X195998268Y-116734709D01*
X195985649Y-116691803D01*
X195985459Y-116690002D01*
X195985460Y-116690000D01*
X195965674Y-116501744D01*
X195907179Y-116321716D01*
X195907179Y-116321715D01*
X195812533Y-116157783D01*
X195685870Y-116017110D01*
X195532730Y-115905848D01*
X195359802Y-115828855D01*
X195174648Y-115789500D01*
X195174646Y-115789500D01*
X194985354Y-115789500D01*
X194985352Y-115789500D01*
X194800197Y-115828855D01*
X194627269Y-115905848D01*
X194474129Y-116017110D01*
X194347466Y-116157783D01*
X194252820Y-116321715D01*
X194194326Y-116501742D01*
X194174540Y-116689999D01*
X194174540Y-116690000D01*
X175418061Y-116690000D01*
X175437767Y-99503269D01*
X175457529Y-99436253D01*
X175510385Y-99390559D01*
X175579555Y-99380694D01*
X175643077Y-99409792D01*
X175653918Y-99420441D01*
X175674130Y-99442889D01*
X175827269Y-99554151D01*
X176000197Y-99631144D01*
X176185352Y-99670500D01*
X176185354Y-99670500D01*
X176374648Y-99670500D01*
X176498084Y-99644262D01*
X176559803Y-99631144D01*
X176732730Y-99554151D01*
X176885871Y-99442888D01*
X177012533Y-99302216D01*
X177034017Y-99265003D01*
X177084583Y-99216787D01*
X177153190Y-99203563D01*
X177167186Y-99205712D01*
X177330852Y-99240500D01*
X177330854Y-99240500D01*
X177520148Y-99240500D01*
X177643584Y-99214262D01*
X177705303Y-99201144D01*
X177878230Y-99124151D01*
X178031371Y-99012888D01*
X178158033Y-98872216D01*
X178252679Y-98708284D01*
X178311174Y-98528256D01*
X178330960Y-98340000D01*
X178311174Y-98151744D01*
X178252679Y-97971716D01*
X178252679Y-97971715D01*
X178158033Y-97807783D01*
X178031370Y-97667110D01*
X177878230Y-97555848D01*
X177705302Y-97478855D01*
X177520148Y-97439500D01*
X177520146Y-97439500D01*
X177330854Y-97439500D01*
X177330852Y-97439500D01*
X177145697Y-97478855D01*
X176972769Y-97555848D01*
X176819629Y-97667110D01*
X176692968Y-97807782D01*
X176671480Y-97845000D01*
X176620912Y-97893214D01*
X176552304Y-97906435D01*
X176538314Y-97904287D01*
X176374649Y-97869500D01*
X176374646Y-97869500D01*
X176185354Y-97869500D01*
X176185352Y-97869500D01*
X176000197Y-97908855D01*
X175827269Y-97985848D01*
X175674128Y-98097111D01*
X175655598Y-98117691D01*
X175596111Y-98154338D01*
X175526254Y-98153007D01*
X175468206Y-98114119D01*
X175440398Y-98050022D01*
X175439450Y-98034588D01*
X175441188Y-96520000D01*
X181610000Y-96520000D01*
X181609999Y-106515809D01*
G37*
G04 #@! TD.AperFunction*
G04 #@! TA.AperFunction,Conductor*
G36*
X250133039Y-83204685D02*
G01*
X250178794Y-83257489D01*
X250190000Y-83309000D01*
X250190000Y-100330000D01*
X250901539Y-100330000D01*
X250968578Y-100349685D01*
X251014333Y-100402489D01*
X251024859Y-100466964D01*
X251024540Y-100470000D01*
X251029978Y-100521740D01*
X251044326Y-100658257D01*
X251102820Y-100838284D01*
X251197466Y-101002216D01*
X251324129Y-101142889D01*
X251477269Y-101254151D01*
X251650197Y-101331144D01*
X251835352Y-101370500D01*
X251835354Y-101370500D01*
X252024648Y-101370500D01*
X252166106Y-101340432D01*
X252209803Y-101331144D01*
X252382730Y-101254151D01*
X252424022Y-101224151D01*
X252535870Y-101142889D01*
X252549021Y-101128284D01*
X252662533Y-101002216D01*
X252757179Y-100838284D01*
X252815674Y-100658256D01*
X252835460Y-100470000D01*
X252835140Y-100466964D01*
X252836641Y-100458759D01*
X252836822Y-100457039D01*
X252836953Y-100457052D01*
X252847708Y-100398234D01*
X252895439Y-100347209D01*
X252958461Y-100330000D01*
X255385956Y-100330000D01*
X255452995Y-100349685D01*
X255498750Y-100402489D01*
X255508694Y-100471647D01*
X255503887Y-100492317D01*
X255494326Y-100521740D01*
X255474540Y-100709999D01*
X255494326Y-100898257D01*
X255552820Y-101078284D01*
X255647466Y-101242216D01*
X255774129Y-101382889D01*
X255927269Y-101494151D01*
X256100197Y-101571144D01*
X256285352Y-101610500D01*
X256285354Y-101610500D01*
X256474648Y-101610500D01*
X256607713Y-101582216D01*
X256659803Y-101571144D01*
X256832730Y-101494151D01*
X256929077Y-101424151D01*
X256985870Y-101382889D01*
X256991074Y-101377110D01*
X257112533Y-101242216D01*
X257207179Y-101078284D01*
X257265674Y-100898256D01*
X257285460Y-100710000D01*
X257265674Y-100521744D01*
X257265665Y-100521715D01*
X257256113Y-100492317D01*
X257254118Y-100422476D01*
X257290199Y-100362643D01*
X257352900Y-100331816D01*
X257374044Y-100330000D01*
X264183228Y-100330000D01*
X264250267Y-100349685D01*
X264296022Y-100402489D01*
X264307227Y-100454035D01*
X264303847Y-111760000D01*
X259169097Y-111760000D01*
X259216068Y-111688105D01*
X259238923Y-111636000D01*
X259307803Y-111478969D01*
X259363864Y-111257589D01*
X259382723Y-111030000D01*
X259382578Y-111028256D01*
X259370335Y-110880500D01*
X259363864Y-110802411D01*
X259307803Y-110581031D01*
X259216069Y-110371897D01*
X259216068Y-110371894D01*
X259091165Y-110180717D01*
X259091164Y-110180716D01*
X259091163Y-110180714D01*
X258936493Y-110012698D01*
X258868787Y-109960000D01*
X258756283Y-109872434D01*
X258756279Y-109872431D01*
X258756278Y-109872431D01*
X258555434Y-109763739D01*
X258555430Y-109763737D01*
X258555429Y-109763737D01*
X258339439Y-109689588D01*
X258114184Y-109652000D01*
X257885816Y-109652000D01*
X257660560Y-109689588D01*
X257444570Y-109763737D01*
X257444566Y-109763738D01*
X257444566Y-109763739D01*
X257432997Y-109770000D01*
X257243716Y-109872434D01*
X257063510Y-110012695D01*
X257063507Y-110012697D01*
X257063507Y-110012698D01*
X257003156Y-110078257D01*
X256908834Y-110180717D01*
X256783931Y-110371894D01*
X256692198Y-110581028D01*
X256692197Y-110581031D01*
X256649119Y-110751144D01*
X256636135Y-110802415D01*
X256617276Y-111029999D01*
X256636135Y-111257584D01*
X256636135Y-111257587D01*
X256636136Y-111257589D01*
X256665163Y-111372216D01*
X256692198Y-111478971D01*
X256783931Y-111688105D01*
X256830903Y-111760000D01*
X199677384Y-111760000D01*
X199610345Y-111740315D01*
X199564590Y-111687511D01*
X199554646Y-111618353D01*
X199583671Y-111554797D01*
X199604498Y-111535682D01*
X199620180Y-111524287D01*
X199635871Y-111512888D01*
X199762533Y-111372216D01*
X199857179Y-111208284D01*
X199915674Y-111028256D01*
X199935460Y-110840000D01*
X199915674Y-110651744D01*
X199878230Y-110536505D01*
X199857179Y-110471715D01*
X199765208Y-110312417D01*
X199748735Y-110244517D01*
X199771588Y-110178490D01*
X199787257Y-110162670D01*
X199787150Y-110162574D01*
X199922533Y-110012216D01*
X199952680Y-109960000D01*
X200969040Y-109960000D01*
X200971142Y-109979999D01*
X200988826Y-110148257D01*
X201047320Y-110328284D01*
X201141966Y-110492216D01*
X201268629Y-110632889D01*
X201421769Y-110744151D01*
X201594697Y-110821144D01*
X201779852Y-110860500D01*
X201779854Y-110860500D01*
X201969148Y-110860500D01*
X202110286Y-110830500D01*
X202154303Y-110821144D01*
X202327230Y-110744151D01*
X202368522Y-110714151D01*
X202480370Y-110632889D01*
X202527066Y-110581028D01*
X202586038Y-110515532D01*
X202645525Y-110478884D01*
X202715382Y-110480215D01*
X202773430Y-110519101D01*
X202785575Y-110536505D01*
X202811966Y-110582215D01*
X202938629Y-110722889D01*
X203091769Y-110834151D01*
X203264697Y-110911144D01*
X203449852Y-110950500D01*
X203449854Y-110950500D01*
X203639148Y-110950500D01*
X203780286Y-110920500D01*
X203824303Y-110911144D01*
X203997230Y-110834151D01*
X204040917Y-110802411D01*
X204150370Y-110722889D01*
X204197542Y-110670500D01*
X204277033Y-110582216D01*
X204371679Y-110418284D01*
X204430174Y-110238256D01*
X204449960Y-110050000D01*
X204438399Y-109940000D01*
X210934540Y-109940000D01*
X210938744Y-109979999D01*
X210954326Y-110128257D01*
X211012820Y-110308284D01*
X211107466Y-110472216D01*
X211234129Y-110612889D01*
X211387269Y-110724151D01*
X211560197Y-110801144D01*
X211745352Y-110840500D01*
X211745354Y-110840500D01*
X211934648Y-110840500D01*
X212075786Y-110810500D01*
X212119803Y-110801144D01*
X212292730Y-110724151D01*
X212335760Y-110692888D01*
X212445870Y-110612889D01*
X212572533Y-110472216D01*
X212667179Y-110308284D01*
X212676927Y-110278284D01*
X212725674Y-110128256D01*
X212745460Y-109940000D01*
X212738103Y-109870000D01*
X215954540Y-109870000D01*
X215974326Y-110058257D01*
X216032820Y-110238284D01*
X216127466Y-110402216D01*
X216254129Y-110542889D01*
X216407269Y-110654151D01*
X216580197Y-110731144D01*
X216765352Y-110770500D01*
X216765354Y-110770500D01*
X216954648Y-110770500D01*
X217078609Y-110744151D01*
X217139803Y-110731144D01*
X217312730Y-110654151D01*
X217369524Y-110612888D01*
X217465870Y-110542889D01*
X217529505Y-110472216D01*
X217592533Y-110402216D01*
X217687179Y-110238284D01*
X217745674Y-110058256D01*
X217749695Y-110020000D01*
X223064540Y-110020000D01*
X223072765Y-110098256D01*
X223084326Y-110208257D01*
X223142820Y-110388284D01*
X223237466Y-110552216D01*
X223364129Y-110692889D01*
X223517269Y-110804151D01*
X223690197Y-110881144D01*
X223875352Y-110920500D01*
X223875354Y-110920500D01*
X224064648Y-110920500D01*
X224188084Y-110894262D01*
X224249803Y-110881144D01*
X224422730Y-110804151D01*
X224441519Y-110790500D01*
X224575870Y-110692889D01*
X224634397Y-110627889D01*
X224702533Y-110552216D01*
X224797179Y-110388284D01*
X224855674Y-110208256D01*
X224875460Y-110020000D01*
X224868628Y-109955000D01*
X227269540Y-109955000D01*
X227289326Y-110143257D01*
X227347820Y-110323284D01*
X227442466Y-110487216D01*
X227569129Y-110627889D01*
X227722269Y-110739151D01*
X227895197Y-110816144D01*
X228080352Y-110855500D01*
X228080354Y-110855500D01*
X228269648Y-110855500D01*
X228393083Y-110829262D01*
X228454803Y-110816144D01*
X228627730Y-110739151D01*
X228662140Y-110714151D01*
X228780870Y-110627889D01*
X228839397Y-110562889D01*
X228907533Y-110487216D01*
X229002179Y-110323284D01*
X229060674Y-110143256D01*
X229080460Y-109955000D01*
X229073628Y-109890000D01*
X234224540Y-109890000D01*
X234244326Y-110078257D01*
X234302820Y-110258284D01*
X234397466Y-110422216D01*
X234524129Y-110562889D01*
X234677269Y-110674151D01*
X234850197Y-110751144D01*
X235035352Y-110790500D01*
X235035354Y-110790500D01*
X235224648Y-110790500D01*
X235348609Y-110764151D01*
X235409803Y-110751144D01*
X235582730Y-110674151D01*
X235613571Y-110651744D01*
X235735870Y-110562889D01*
X235799505Y-110492216D01*
X235862533Y-110422216D01*
X235957179Y-110258284D01*
X236015674Y-110078256D01*
X236030205Y-109940000D01*
X238964540Y-109940000D01*
X238984326Y-110128257D01*
X239042820Y-110308284D01*
X239137466Y-110472216D01*
X239264129Y-110612889D01*
X239417269Y-110724151D01*
X239590197Y-110801144D01*
X239775352Y-110840500D01*
X239775354Y-110840500D01*
X239964648Y-110840500D01*
X240105786Y-110810500D01*
X240149803Y-110801144D01*
X240322730Y-110724151D01*
X240365760Y-110692888D01*
X240475870Y-110612889D01*
X240602533Y-110472216D01*
X240697179Y-110308284D01*
X240706927Y-110278284D01*
X240755674Y-110128256D01*
X240775460Y-109940000D01*
X240772307Y-109910000D01*
X242964540Y-109910000D01*
X242984326Y-110098257D01*
X243042820Y-110278284D01*
X243137466Y-110442216D01*
X243264129Y-110582889D01*
X243417269Y-110694151D01*
X243590197Y-110771144D01*
X243775352Y-110810500D01*
X243775354Y-110810500D01*
X243964648Y-110810500D01*
X244088084Y-110784262D01*
X244149803Y-110771144D01*
X244322730Y-110694151D01*
X244355283Y-110670500D01*
X244475870Y-110582889D01*
X244517635Y-110536505D01*
X244602533Y-110442216D01*
X244697179Y-110278284D01*
X244755674Y-110098256D01*
X244775460Y-109910000D01*
X244760746Y-109770000D01*
X245474540Y-109770000D01*
X245494326Y-109958257D01*
X245552820Y-110138284D01*
X245647466Y-110302216D01*
X245774129Y-110442889D01*
X245927269Y-110554151D01*
X246100197Y-110631144D01*
X246285352Y-110670500D01*
X246285354Y-110670500D01*
X246474648Y-110670500D01*
X246598084Y-110644262D01*
X246659803Y-110631144D01*
X246832730Y-110554151D01*
X246917977Y-110492216D01*
X246985870Y-110442889D01*
X247112533Y-110302216D01*
X247207179Y-110138284D01*
X247213686Y-110118257D01*
X247265674Y-109958256D01*
X247274950Y-109869999D01*
X248954540Y-109869999D01*
X248974326Y-110058257D01*
X249032820Y-110238284D01*
X249127466Y-110402216D01*
X249254129Y-110542889D01*
X249407269Y-110654151D01*
X249580197Y-110731144D01*
X249765352Y-110770500D01*
X249765354Y-110770500D01*
X249954648Y-110770500D01*
X250078609Y-110744151D01*
X250139803Y-110731144D01*
X250312730Y-110654151D01*
X250369524Y-110612888D01*
X250465870Y-110542889D01*
X250529505Y-110472216D01*
X250592533Y-110402216D01*
X250687179Y-110238284D01*
X250745674Y-110058256D01*
X250753899Y-109979999D01*
X253264540Y-109979999D01*
X253284326Y-110168257D01*
X253342820Y-110348284D01*
X253437466Y-110512216D01*
X253564129Y-110652889D01*
X253717269Y-110764151D01*
X253890197Y-110841144D01*
X254075352Y-110880500D01*
X254075354Y-110880500D01*
X254264648Y-110880500D01*
X254388084Y-110854262D01*
X254449803Y-110841144D01*
X254622730Y-110764151D01*
X254657140Y-110739151D01*
X254775870Y-110652889D01*
X254783425Y-110644499D01*
X254902533Y-110512216D01*
X254997179Y-110348284D01*
X255055674Y-110168256D01*
X255075460Y-109980000D01*
X255055674Y-109791744D01*
X255019923Y-109681715D01*
X254997179Y-109611715D01*
X254902533Y-109447783D01*
X254775870Y-109307110D01*
X254622730Y-109195848D01*
X254449802Y-109118855D01*
X254264648Y-109079500D01*
X254264646Y-109079500D01*
X254075354Y-109079500D01*
X254075352Y-109079500D01*
X253890197Y-109118855D01*
X253717269Y-109195848D01*
X253564129Y-109307110D01*
X253437466Y-109447783D01*
X253342820Y-109611715D01*
X253284326Y-109791742D01*
X253264540Y-109979999D01*
X250753899Y-109979999D01*
X250765460Y-109870000D01*
X250745674Y-109681744D01*
X250700176Y-109541715D01*
X250687179Y-109501715D01*
X250592533Y-109337783D01*
X250465870Y-109197110D01*
X250312730Y-109085848D01*
X250139802Y-109008855D01*
X249954648Y-108969500D01*
X249954646Y-108969500D01*
X249765354Y-108969500D01*
X249765352Y-108969500D01*
X249580197Y-109008855D01*
X249407269Y-109085848D01*
X249254129Y-109197110D01*
X249127466Y-109337783D01*
X249032820Y-109501715D01*
X248974326Y-109681742D01*
X248954540Y-109869999D01*
X247274950Y-109869999D01*
X247285460Y-109770000D01*
X247265674Y-109581744D01*
X247223588Y-109452216D01*
X247207179Y-109401715D01*
X247112533Y-109237783D01*
X246985870Y-109097110D01*
X246832730Y-108985848D01*
X246659802Y-108908855D01*
X246474648Y-108869500D01*
X246474646Y-108869500D01*
X246285354Y-108869500D01*
X246285352Y-108869500D01*
X246100197Y-108908855D01*
X245927269Y-108985848D01*
X245774129Y-109097110D01*
X245647466Y-109237783D01*
X245552820Y-109401715D01*
X245494326Y-109581742D01*
X245474540Y-109770000D01*
X244760746Y-109770000D01*
X244755674Y-109721744D01*
X244713425Y-109591715D01*
X244697179Y-109541715D01*
X244602533Y-109377783D01*
X244475870Y-109237110D01*
X244322730Y-109125848D01*
X244149802Y-109048855D01*
X243964648Y-109009500D01*
X243964646Y-109009500D01*
X243775354Y-109009500D01*
X243775352Y-109009500D01*
X243590197Y-109048855D01*
X243417269Y-109125848D01*
X243264129Y-109237110D01*
X243137466Y-109377783D01*
X243042820Y-109541715D01*
X242984326Y-109721742D01*
X242964540Y-109910000D01*
X240772307Y-109910000D01*
X240755674Y-109751744D01*
X240704058Y-109592888D01*
X240697179Y-109571715D01*
X240602533Y-109407783D01*
X240475870Y-109267110D01*
X240322730Y-109155848D01*
X240149802Y-109078855D01*
X239964648Y-109039500D01*
X239964646Y-109039500D01*
X239775354Y-109039500D01*
X239775352Y-109039500D01*
X239590197Y-109078855D01*
X239417269Y-109155848D01*
X239264129Y-109267110D01*
X239137466Y-109407783D01*
X239042820Y-109571715D01*
X238984326Y-109751742D01*
X238964540Y-109940000D01*
X236030205Y-109940000D01*
X236035460Y-109890000D01*
X236015674Y-109701744D01*
X235970176Y-109561715D01*
X235957179Y-109521715D01*
X235862533Y-109357783D01*
X235735870Y-109217110D01*
X235582730Y-109105848D01*
X235409802Y-109028855D01*
X235224648Y-108989500D01*
X235224646Y-108989500D01*
X235035354Y-108989500D01*
X235035352Y-108989500D01*
X234850197Y-109028855D01*
X234677269Y-109105848D01*
X234524129Y-109217110D01*
X234397466Y-109357783D01*
X234302820Y-109521715D01*
X234244326Y-109701742D01*
X234224540Y-109890000D01*
X229073628Y-109890000D01*
X229060674Y-109766744D01*
X229004185Y-109592889D01*
X229002179Y-109586715D01*
X228907533Y-109422783D01*
X228780870Y-109282110D01*
X228627730Y-109170848D01*
X228454802Y-109093855D01*
X228269648Y-109054500D01*
X228269646Y-109054500D01*
X228080354Y-109054500D01*
X228080352Y-109054500D01*
X227895197Y-109093855D01*
X227722269Y-109170848D01*
X227569129Y-109282110D01*
X227442466Y-109422783D01*
X227347820Y-109586715D01*
X227289326Y-109766742D01*
X227269540Y-109955000D01*
X224868628Y-109955000D01*
X224855674Y-109831744D01*
X224813434Y-109701742D01*
X224797179Y-109651715D01*
X224702533Y-109487783D01*
X224575870Y-109347110D01*
X224422730Y-109235848D01*
X224249802Y-109158855D01*
X224064648Y-109119500D01*
X224064646Y-109119500D01*
X223875354Y-109119500D01*
X223875352Y-109119500D01*
X223690197Y-109158855D01*
X223517269Y-109235848D01*
X223364129Y-109347110D01*
X223237466Y-109487783D01*
X223142820Y-109651715D01*
X223084326Y-109831742D01*
X223071029Y-109958256D01*
X223064540Y-110020000D01*
X217749695Y-110020000D01*
X217765460Y-109870000D01*
X217745674Y-109681744D01*
X217700176Y-109541715D01*
X217687179Y-109501715D01*
X217592533Y-109337783D01*
X217465870Y-109197110D01*
X217312730Y-109085848D01*
X217139802Y-109008855D01*
X216954648Y-108969500D01*
X216954646Y-108969500D01*
X216765354Y-108969500D01*
X216765352Y-108969500D01*
X216580197Y-109008855D01*
X216407269Y-109085848D01*
X216254129Y-109197110D01*
X216127466Y-109337783D01*
X216032820Y-109501715D01*
X215974326Y-109681742D01*
X215954540Y-109870000D01*
X212738103Y-109870000D01*
X212725674Y-109751744D01*
X212674058Y-109592888D01*
X212667179Y-109571715D01*
X212572533Y-109407783D01*
X212445870Y-109267110D01*
X212292730Y-109155848D01*
X212119802Y-109078855D01*
X211934648Y-109039500D01*
X211934646Y-109039500D01*
X211745354Y-109039500D01*
X211745352Y-109039500D01*
X211560197Y-109078855D01*
X211387269Y-109155848D01*
X211234129Y-109267110D01*
X211107466Y-109407783D01*
X211012820Y-109571715D01*
X210954326Y-109751742D01*
X210941641Y-109872434D01*
X210934540Y-109940000D01*
X204438399Y-109940000D01*
X204430174Y-109861744D01*
X204394432Y-109751742D01*
X204371679Y-109681715D01*
X204277033Y-109517783D01*
X204150370Y-109377110D01*
X203997230Y-109265848D01*
X203824302Y-109188855D01*
X203639148Y-109149500D01*
X203639146Y-109149500D01*
X203449854Y-109149500D01*
X203449852Y-109149500D01*
X203264697Y-109188855D01*
X203091769Y-109265848D01*
X202938629Y-109377111D01*
X202832960Y-109494467D01*
X202773473Y-109531115D01*
X202703616Y-109529784D01*
X202645568Y-109490897D01*
X202633424Y-109473494D01*
X202607033Y-109427783D01*
X202480370Y-109287110D01*
X202327230Y-109175848D01*
X202154302Y-109098855D01*
X201969148Y-109059500D01*
X201969146Y-109059500D01*
X201779854Y-109059500D01*
X201779852Y-109059500D01*
X201594697Y-109098855D01*
X201421769Y-109175848D01*
X201268629Y-109287110D01*
X201141966Y-109427783D01*
X201047320Y-109591715D01*
X200988826Y-109771742D01*
X200969223Y-109958256D01*
X200969040Y-109960000D01*
X199952680Y-109960000D01*
X200017179Y-109848284D01*
X200035551Y-109791742D01*
X200075674Y-109668256D01*
X200095460Y-109480000D01*
X200075674Y-109291744D01*
X200032496Y-109158856D01*
X200017179Y-109111715D01*
X199922533Y-108947783D01*
X199795870Y-108807110D01*
X199642730Y-108695848D01*
X199469802Y-108618855D01*
X199284648Y-108579500D01*
X199284646Y-108579500D01*
X199095354Y-108579500D01*
X199095352Y-108579500D01*
X198910197Y-108618855D01*
X198737269Y-108695848D01*
X198584129Y-108807110D01*
X198457466Y-108947783D01*
X198362820Y-109111715D01*
X198304326Y-109291742D01*
X198284540Y-109480000D01*
X198304326Y-109668257D01*
X198362820Y-109848284D01*
X198454791Y-110007582D01*
X198471264Y-110075482D01*
X198448411Y-110141509D01*
X198432742Y-110157329D01*
X198432850Y-110157426D01*
X198297466Y-110307783D01*
X198202820Y-110471715D01*
X198144326Y-110651742D01*
X198124540Y-110839999D01*
X198144326Y-111028257D01*
X198202820Y-111208284D01*
X198297466Y-111372216D01*
X198424127Y-111512887D01*
X198455502Y-111535682D01*
X198498167Y-111591012D01*
X198504146Y-111660626D01*
X198471540Y-111722421D01*
X198410701Y-111756778D01*
X198382616Y-111760000D01*
X184825972Y-111760000D01*
X184758933Y-111740315D01*
X184713178Y-111687511D01*
X184703234Y-111618353D01*
X184732259Y-111554797D01*
X184791037Y-111517023D01*
X184800191Y-111514710D01*
X184830792Y-111508205D01*
X184842841Y-111505644D01*
X185015768Y-111428651D01*
X185015767Y-111428650D01*
X185168908Y-111317389D01*
X185295571Y-111176716D01*
X185390217Y-111012784D01*
X185423242Y-110911144D01*
X185448712Y-110832756D01*
X185468498Y-110644500D01*
X185448712Y-110456244D01*
X185418370Y-110362863D01*
X185390217Y-110276215D01*
X185295571Y-110112283D01*
X185168908Y-109971610D01*
X185111636Y-109930000D01*
X189214540Y-109930000D01*
X189234326Y-110118257D01*
X189292820Y-110298284D01*
X189387466Y-110462216D01*
X189514129Y-110602889D01*
X189667269Y-110714151D01*
X189840197Y-110791144D01*
X190025352Y-110830500D01*
X190025354Y-110830500D01*
X190214648Y-110830500D01*
X190352756Y-110801144D01*
X190399803Y-110791144D01*
X190572730Y-110714151D01*
X190601996Y-110692888D01*
X190725870Y-110602889D01*
X190852533Y-110462216D01*
X190947179Y-110298284D01*
X190969760Y-110228787D01*
X191005674Y-110118256D01*
X191025460Y-109930000D01*
X191005674Y-109741744D01*
X190957308Y-109592889D01*
X190947179Y-109561715D01*
X190852533Y-109397783D01*
X190725870Y-109257110D01*
X190572730Y-109145848D01*
X190399802Y-109068855D01*
X190214648Y-109029500D01*
X190214646Y-109029500D01*
X190025354Y-109029500D01*
X190025352Y-109029500D01*
X189840197Y-109068855D01*
X189667269Y-109145848D01*
X189514129Y-109257110D01*
X189387466Y-109397783D01*
X189292820Y-109561715D01*
X189234326Y-109741742D01*
X189214540Y-109930000D01*
X185111636Y-109930000D01*
X185015768Y-109860348D01*
X184842840Y-109783355D01*
X184657686Y-109744000D01*
X184657684Y-109744000D01*
X184468392Y-109744000D01*
X184468390Y-109744000D01*
X184283235Y-109783355D01*
X184110307Y-109860348D01*
X183957167Y-109971610D01*
X183830504Y-110112283D01*
X183735858Y-110276215D01*
X183677364Y-110456242D01*
X183657578Y-110644499D01*
X183677364Y-110832757D01*
X183735858Y-111012784D01*
X183830504Y-111176716D01*
X183957167Y-111317389D01*
X184110307Y-111428651D01*
X184283235Y-111505644D01*
X184325885Y-111514710D01*
X184387367Y-111547902D01*
X184421143Y-111609065D01*
X184416491Y-111678780D01*
X184374886Y-111734912D01*
X184309539Y-111759641D01*
X184300104Y-111760000D01*
X183004000Y-111760000D01*
X182936961Y-111740315D01*
X182891206Y-111687511D01*
X182880000Y-111636000D01*
X182880000Y-109486548D01*
X182899685Y-109419509D01*
X182952489Y-109373754D01*
X182978213Y-109365259D01*
X183012420Y-109357989D01*
X183185347Y-109280996D01*
X183218223Y-109257110D01*
X183338487Y-109169734D01*
X183465150Y-109029061D01*
X183528117Y-108919999D01*
X193804540Y-108919999D01*
X193824326Y-109108257D01*
X193882820Y-109288284D01*
X193977466Y-109452216D01*
X194104129Y-109592889D01*
X194257269Y-109704151D01*
X194430197Y-109781144D01*
X194615352Y-109820500D01*
X194615354Y-109820500D01*
X194804648Y-109820500D01*
X194939943Y-109791742D01*
X194989803Y-109781144D01*
X195162730Y-109704151D01*
X195193571Y-109681744D01*
X195315870Y-109592889D01*
X195361948Y-109541715D01*
X195442533Y-109452216D01*
X195537179Y-109288284D01*
X195595674Y-109108256D01*
X195615460Y-108920000D01*
X195607836Y-108847460D01*
X195620406Y-108778731D01*
X195668138Y-108727708D01*
X195731157Y-108710500D01*
X195844648Y-108710500D01*
X195968083Y-108684262D01*
X196029803Y-108671144D01*
X196202730Y-108594151D01*
X196202730Y-108594150D01*
X196291028Y-108529999D01*
X206235854Y-108529999D01*
X206255640Y-108718257D01*
X206314134Y-108898284D01*
X206408780Y-109062216D01*
X206535443Y-109202889D01*
X206688583Y-109314151D01*
X206861511Y-109391144D01*
X207046666Y-109430500D01*
X207046668Y-109430500D01*
X207235962Y-109430500D01*
X207371384Y-109401715D01*
X207421117Y-109391144D01*
X207594044Y-109314151D01*
X207624885Y-109291744D01*
X207747184Y-109202889D01*
X207752388Y-109197110D01*
X207873847Y-109062216D01*
X207968493Y-108898284D01*
X208026988Y-108718256D01*
X208046774Y-108530000D01*
X208026988Y-108341744D01*
X207981304Y-108201144D01*
X207968493Y-108161715D01*
X207873847Y-107997783D01*
X207845000Y-107965746D01*
X207814770Y-107902755D01*
X207823394Y-107833419D01*
X207868135Y-107779753D01*
X207934787Y-107758795D01*
X207962930Y-107761483D01*
X208005352Y-107770500D01*
X208005354Y-107770500D01*
X208194648Y-107770500D01*
X208319494Y-107743963D01*
X208379803Y-107731144D01*
X208552730Y-107654151D01*
X208597337Y-107621742D01*
X208705870Y-107542889D01*
X208753042Y-107490500D01*
X208832533Y-107402216D01*
X208927179Y-107238284D01*
X208985674Y-107058256D01*
X209005460Y-106870000D01*
X208985674Y-106681744D01*
X208939247Y-106538856D01*
X208927179Y-106501715D01*
X208832533Y-106337783D01*
X208705870Y-106197110D01*
X208552730Y-106085848D01*
X208379802Y-106008855D01*
X208194648Y-105969500D01*
X208194646Y-105969500D01*
X208005354Y-105969500D01*
X208005352Y-105969500D01*
X207820197Y-106008855D01*
X207647269Y-106085848D01*
X207494129Y-106197110D01*
X207367466Y-106337783D01*
X207272820Y-106501715D01*
X207214326Y-106681742D01*
X207194540Y-106870000D01*
X207214326Y-107058257D01*
X207272820Y-107238284D01*
X207367466Y-107402216D01*
X207396313Y-107434253D01*
X207426544Y-107497245D01*
X207417919Y-107566580D01*
X207373178Y-107620246D01*
X207306526Y-107641204D01*
X207278385Y-107638517D01*
X207235960Y-107629500D01*
X207046668Y-107629500D01*
X207046666Y-107629500D01*
X206861511Y-107668855D01*
X206688583Y-107745848D01*
X206535443Y-107857110D01*
X206408780Y-107997783D01*
X206314134Y-108161715D01*
X206255640Y-108341742D01*
X206235854Y-108529999D01*
X196291028Y-108529999D01*
X196355870Y-108482889D01*
X196482533Y-108342216D01*
X196577179Y-108178284D01*
X196594768Y-108124151D01*
X196635674Y-107998256D01*
X196655460Y-107810000D01*
X196635674Y-107621744D01*
X196599090Y-107509151D01*
X196577179Y-107441715D01*
X196482533Y-107277783D01*
X196355870Y-107137110D01*
X196202730Y-107025848D01*
X196029802Y-106948855D01*
X195844648Y-106909500D01*
X195844646Y-106909500D01*
X195655354Y-106909500D01*
X195655352Y-106909500D01*
X195470197Y-106948855D01*
X195297269Y-107025848D01*
X195144129Y-107137110D01*
X195017466Y-107277783D01*
X194922820Y-107441715D01*
X194864326Y-107621742D01*
X194844540Y-107810000D01*
X194852164Y-107882539D01*
X194839594Y-107951269D01*
X194791862Y-108002292D01*
X194728843Y-108019500D01*
X194615352Y-108019500D01*
X194430197Y-108058855D01*
X194257269Y-108135848D01*
X194104129Y-108247110D01*
X193977466Y-108387783D01*
X193882820Y-108551715D01*
X193824326Y-108731742D01*
X193804540Y-108919999D01*
X183528117Y-108919999D01*
X183559796Y-108865129D01*
X183578647Y-108807112D01*
X183618291Y-108685101D01*
X183638077Y-108496845D01*
X183618291Y-108308589D01*
X183570569Y-108161716D01*
X183559796Y-108128560D01*
X183465150Y-107964628D01*
X183338487Y-107823956D01*
X183193425Y-107718563D01*
X183150759Y-107663234D01*
X183145442Y-107601336D01*
X183144311Y-107601218D01*
X183144928Y-107595345D01*
X183144780Y-107593620D01*
X183145329Y-107591531D01*
X183145672Y-107588259D01*
X183145674Y-107588256D01*
X183165460Y-107400000D01*
X183145674Y-107211744D01*
X183104350Y-107084563D01*
X183087179Y-107031715D01*
X182992533Y-106867783D01*
X182911849Y-106778175D01*
X182881619Y-106715184D01*
X182880000Y-106695215D01*
X182880000Y-106264549D01*
X182899684Y-106197514D01*
X182952488Y-106151759D01*
X183021646Y-106141815D01*
X183085202Y-106170840D01*
X183122976Y-106229618D01*
X183127318Y-106251586D01*
X183129435Y-106271716D01*
X183134326Y-106318257D01*
X183192820Y-106498284D01*
X183287466Y-106662216D01*
X183414129Y-106802889D01*
X183567269Y-106914151D01*
X183740197Y-106991144D01*
X183925352Y-107030500D01*
X183925354Y-107030500D01*
X184114648Y-107030500D01*
X184238083Y-107004262D01*
X184299803Y-106991144D01*
X184472730Y-106914151D01*
X184582841Y-106834151D01*
X184625870Y-106802889D01*
X184697904Y-106722888D01*
X184752533Y-106662216D01*
X184770362Y-106631334D01*
X184820928Y-106583118D01*
X184889535Y-106569894D01*
X184954400Y-106595861D01*
X184994929Y-106652775D01*
X184999581Y-106693311D01*
X184999713Y-106693298D01*
X185001075Y-106706258D01*
X185001075Y-106706259D01*
X185008642Y-106778256D01*
X185020861Y-106894516D01*
X185079355Y-107074543D01*
X185174001Y-107238475D01*
X185300664Y-107379148D01*
X185453804Y-107490410D01*
X185626732Y-107567403D01*
X185811887Y-107606759D01*
X185811889Y-107606759D01*
X186001183Y-107606759D01*
X186124619Y-107580521D01*
X186186338Y-107567403D01*
X186359265Y-107490410D01*
X186426288Y-107441715D01*
X186512405Y-107379148D01*
X186576212Y-107308284D01*
X186639068Y-107238475D01*
X186733714Y-107074543D01*
X186792209Y-106894515D01*
X186805839Y-106764835D01*
X190286543Y-106764835D01*
X190306329Y-106953092D01*
X190364823Y-107133119D01*
X190459469Y-107297051D01*
X190586132Y-107437724D01*
X190739272Y-107548986D01*
X190912200Y-107625979D01*
X191097355Y-107665335D01*
X191097357Y-107665335D01*
X191286651Y-107665335D01*
X191412819Y-107638517D01*
X191471806Y-107625979D01*
X191644733Y-107548986D01*
X191695509Y-107512095D01*
X191797873Y-107437724D01*
X191802227Y-107432889D01*
X191924536Y-107297051D01*
X192019182Y-107133119D01*
X192077677Y-106953091D01*
X192097463Y-106764835D01*
X192084343Y-106640000D01*
X202784540Y-106640000D01*
X202804326Y-106828257D01*
X202862820Y-107008284D01*
X202957466Y-107172216D01*
X203084129Y-107312889D01*
X203237269Y-107424151D01*
X203410197Y-107501144D01*
X203595352Y-107540500D01*
X203595354Y-107540500D01*
X203784648Y-107540500D01*
X203918282Y-107512095D01*
X203969803Y-107501144D01*
X204142730Y-107424151D01*
X204204673Y-107379147D01*
X204295870Y-107312889D01*
X204386944Y-107211742D01*
X204422533Y-107172216D01*
X204517179Y-107008284D01*
X204575674Y-106828256D01*
X204595460Y-106640000D01*
X204575674Y-106451744D01*
X204527365Y-106303065D01*
X204525370Y-106233224D01*
X204561450Y-106173391D01*
X204624151Y-106142563D01*
X204671077Y-106143457D01*
X204845352Y-106180500D01*
X204845354Y-106180500D01*
X205034648Y-106180500D01*
X205169863Y-106151759D01*
X205219803Y-106141144D01*
X205392730Y-106064151D01*
X205462341Y-106013576D01*
X205545870Y-105952889D01*
X205550468Y-105947783D01*
X205593492Y-105900000D01*
X210424540Y-105900000D01*
X210426864Y-105922108D01*
X210444326Y-106088257D01*
X210502820Y-106268284D01*
X210597466Y-106432216D01*
X210724129Y-106572889D01*
X210877269Y-106684151D01*
X211050197Y-106761144D01*
X211235352Y-106800500D01*
X211235354Y-106800500D01*
X211424648Y-106800500D01*
X211548083Y-106774262D01*
X211609803Y-106761144D01*
X211782730Y-106684151D01*
X211843499Y-106640000D01*
X211857263Y-106630000D01*
X212844540Y-106630000D01*
X212864326Y-106818257D01*
X212922820Y-106998284D01*
X213017466Y-107162216D01*
X213144129Y-107302889D01*
X213297269Y-107414151D01*
X213470197Y-107491144D01*
X213655352Y-107530500D01*
X213655354Y-107530500D01*
X213844648Y-107530500D01*
X213982756Y-107501144D01*
X214029803Y-107491144D01*
X214202730Y-107414151D01*
X214250909Y-107379147D01*
X214355870Y-107302889D01*
X214482533Y-107162216D01*
X214577179Y-106998284D01*
X214585431Y-106972888D01*
X214635674Y-106818256D01*
X214655460Y-106630000D01*
X214635674Y-106441744D01*
X214601895Y-106337783D01*
X214589619Y-106300000D01*
X215644540Y-106300000D01*
X215664326Y-106488257D01*
X215722820Y-106668284D01*
X215817466Y-106832216D01*
X215944129Y-106972889D01*
X216097269Y-107084151D01*
X216270197Y-107161144D01*
X216455352Y-107200500D01*
X216455354Y-107200500D01*
X216644648Y-107200500D01*
X216804402Y-107166543D01*
X216829803Y-107161144D01*
X217002730Y-107084151D01*
X217087913Y-107022262D01*
X217155870Y-106972889D01*
X217169021Y-106958284D01*
X217282533Y-106832216D01*
X217342734Y-106727944D01*
X219199328Y-106727944D01*
X219219114Y-106916201D01*
X219277608Y-107096228D01*
X219372254Y-107260160D01*
X219498917Y-107400833D01*
X219652057Y-107512095D01*
X219824985Y-107589088D01*
X220010140Y-107628444D01*
X220010142Y-107628444D01*
X220199436Y-107628444D01*
X220327871Y-107601144D01*
X220384591Y-107589088D01*
X220557518Y-107512095D01*
X220654388Y-107441715D01*
X220710658Y-107400833D01*
X220765433Y-107340000D01*
X220837321Y-107260160D01*
X220931967Y-107096228D01*
X220990462Y-106916200D01*
X221010248Y-106727944D01*
X220990462Y-106539688D01*
X220945641Y-106401744D01*
X220931967Y-106359659D01*
X220837321Y-106195727D01*
X220710658Y-106055054D01*
X220557518Y-105943792D01*
X220384590Y-105866799D01*
X220199436Y-105827444D01*
X220199434Y-105827444D01*
X220010142Y-105827444D01*
X220010140Y-105827444D01*
X219824985Y-105866799D01*
X219652057Y-105943792D01*
X219498917Y-106055054D01*
X219372254Y-106195727D01*
X219277608Y-106359659D01*
X219219114Y-106539686D01*
X219199328Y-106727944D01*
X217342734Y-106727944D01*
X217377179Y-106668284D01*
X217435674Y-106488256D01*
X217455460Y-106300000D01*
X217435674Y-106111744D01*
X217393090Y-105980684D01*
X217377179Y-105931715D01*
X217282533Y-105767783D01*
X217239509Y-105720000D01*
X222304540Y-105720000D01*
X222307337Y-105746608D01*
X222324326Y-105908257D01*
X222382820Y-106088284D01*
X222477466Y-106252216D01*
X222604129Y-106392889D01*
X222757269Y-106504151D01*
X222930197Y-106581144D01*
X223115352Y-106620500D01*
X223115354Y-106620500D01*
X223304648Y-106620500D01*
X223448138Y-106590000D01*
X225184540Y-106590000D01*
X225204326Y-106778257D01*
X225262820Y-106958284D01*
X225357466Y-107122216D01*
X225484129Y-107262889D01*
X225637269Y-107374151D01*
X225810197Y-107451144D01*
X225995352Y-107490500D01*
X225995354Y-107490500D01*
X226184648Y-107490500D01*
X226308083Y-107464262D01*
X226369803Y-107451144D01*
X226542730Y-107374151D01*
X226542730Y-107374150D01*
X226695870Y-107262889D01*
X226717872Y-107238454D01*
X226822533Y-107122216D01*
X226917179Y-106958284D01*
X226923120Y-106940000D01*
X231244540Y-106940000D01*
X231264326Y-107128257D01*
X231322820Y-107308284D01*
X231417466Y-107472216D01*
X231544129Y-107612889D01*
X231697269Y-107724151D01*
X231870197Y-107801144D01*
X232055352Y-107840500D01*
X232055354Y-107840500D01*
X232244648Y-107840500D01*
X232388143Y-107809999D01*
X232429803Y-107801144D01*
X232602730Y-107724151D01*
X232642634Y-107695159D01*
X232755870Y-107612889D01*
X232761390Y-107606759D01*
X232882533Y-107472216D01*
X232977179Y-107308284D01*
X233035674Y-107128256D01*
X233055460Y-106940000D01*
X233035674Y-106751744D01*
X232999366Y-106640000D01*
X232977179Y-106571715D01*
X232882533Y-106407783D01*
X232755870Y-106267110D01*
X232602730Y-106155848D01*
X232429802Y-106078855D01*
X232244648Y-106039500D01*
X232244646Y-106039500D01*
X232055354Y-106039500D01*
X232055352Y-106039500D01*
X231870197Y-106078855D01*
X231697269Y-106155848D01*
X231544129Y-106267110D01*
X231417466Y-106407783D01*
X231322820Y-106571715D01*
X231264326Y-106751742D01*
X231244540Y-106940000D01*
X226923120Y-106940000D01*
X226975674Y-106778256D01*
X226995460Y-106590000D01*
X226975674Y-106401744D01*
X226931929Y-106267112D01*
X226917179Y-106221715D01*
X226822533Y-106057783D01*
X226695870Y-105917110D01*
X226542730Y-105805848D01*
X226462212Y-105769999D01*
X227954540Y-105769999D01*
X227974326Y-105958257D01*
X228032820Y-106138284D01*
X228127466Y-106302216D01*
X228254129Y-106442889D01*
X228407269Y-106554151D01*
X228580197Y-106631144D01*
X228765352Y-106670500D01*
X228765354Y-106670500D01*
X228954648Y-106670500D01*
X229098138Y-106640000D01*
X229139803Y-106631144D01*
X229312730Y-106554151D01*
X229362484Y-106518003D01*
X229465870Y-106442889D01*
X229468922Y-106439500D01*
X229592533Y-106302216D01*
X229687179Y-106138284D01*
X229745107Y-105960000D01*
X234404540Y-105960000D01*
X234406206Y-105975848D01*
X234424326Y-106148257D01*
X234482820Y-106328284D01*
X234577466Y-106492216D01*
X234704129Y-106632889D01*
X234857269Y-106744151D01*
X235030197Y-106821144D01*
X235215352Y-106860500D01*
X235215354Y-106860500D01*
X235404648Y-106860500D01*
X235537713Y-106832216D01*
X235589803Y-106821144D01*
X235727133Y-106760000D01*
X236684540Y-106760000D01*
X236704326Y-106948257D01*
X236762820Y-107128284D01*
X236857466Y-107292216D01*
X236984129Y-107432889D01*
X237137269Y-107544151D01*
X237310197Y-107621144D01*
X237495352Y-107660500D01*
X237495354Y-107660500D01*
X237684648Y-107660500D01*
X237811884Y-107633455D01*
X237869803Y-107621144D01*
X238042730Y-107544151D01*
X238070258Y-107524151D01*
X238195870Y-107432889D01*
X238224734Y-107400833D01*
X238322533Y-107292216D01*
X238417179Y-107128284D01*
X238475674Y-106948256D01*
X238495460Y-106760000D01*
X238491781Y-106725000D01*
X239869540Y-106725000D01*
X239871117Y-106740000D01*
X239889326Y-106913257D01*
X239947820Y-107093284D01*
X240042466Y-107257216D01*
X240169129Y-107397889D01*
X240322269Y-107509151D01*
X240495197Y-107586144D01*
X240680352Y-107625500D01*
X240680354Y-107625500D01*
X240869648Y-107625500D01*
X241011515Y-107595345D01*
X241054803Y-107586144D01*
X241227730Y-107509151D01*
X241332696Y-107432889D01*
X241380870Y-107397889D01*
X241397746Y-107379147D01*
X241432994Y-107340000D01*
X246154540Y-107340000D01*
X246174326Y-107528257D01*
X246232820Y-107708284D01*
X246327466Y-107872216D01*
X246454129Y-108012889D01*
X246607269Y-108124151D01*
X246780197Y-108201144D01*
X246965352Y-108240500D01*
X246965354Y-108240500D01*
X247154648Y-108240500D01*
X247278083Y-108214262D01*
X247339803Y-108201144D01*
X247512730Y-108124151D01*
X247602603Y-108058855D01*
X247665870Y-108012889D01*
X247792533Y-107872216D01*
X247887179Y-107708284D01*
X247891444Y-107695159D01*
X247945674Y-107528256D01*
X247965460Y-107340000D01*
X247945674Y-107151744D01*
X247904768Y-107025848D01*
X247887179Y-106971715D01*
X247792533Y-106807783D01*
X247731501Y-106740000D01*
X251084540Y-106740000D01*
X251104326Y-106928257D01*
X251162820Y-107108284D01*
X251257466Y-107272216D01*
X251384129Y-107412889D01*
X251537269Y-107524151D01*
X251710197Y-107601144D01*
X251895352Y-107640500D01*
X251895354Y-107640500D01*
X252084648Y-107640500D01*
X252243386Y-107606759D01*
X252269803Y-107601144D01*
X252442730Y-107524151D01*
X252479763Y-107497245D01*
X252595870Y-107412889D01*
X252722533Y-107272216D01*
X252817179Y-107108284D01*
X252822053Y-107093284D01*
X252875674Y-106928256D01*
X252895460Y-106740000D01*
X252875674Y-106551744D01*
X252839932Y-106441742D01*
X252817179Y-106371715D01*
X252722533Y-106207783D01*
X252595870Y-106067110D01*
X252442730Y-105955848D01*
X252269802Y-105878855D01*
X252084648Y-105839500D01*
X252084646Y-105839500D01*
X251895354Y-105839500D01*
X251895352Y-105839500D01*
X251710197Y-105878855D01*
X251537269Y-105955848D01*
X251384129Y-106067110D01*
X251257466Y-106207783D01*
X251162820Y-106371715D01*
X251104326Y-106551742D01*
X251084540Y-106740000D01*
X247731501Y-106740000D01*
X247665870Y-106667110D01*
X247512730Y-106555848D01*
X247339802Y-106478855D01*
X247154648Y-106439500D01*
X247154646Y-106439500D01*
X246965354Y-106439500D01*
X246965352Y-106439500D01*
X246780197Y-106478855D01*
X246607269Y-106555848D01*
X246454129Y-106667110D01*
X246327466Y-106807783D01*
X246232820Y-106971715D01*
X246174326Y-107151742D01*
X246154540Y-107340000D01*
X241432994Y-107340000D01*
X241507533Y-107257216D01*
X241602179Y-107093284D01*
X241660674Y-106913256D01*
X241680460Y-106725000D01*
X241660674Y-106536744D01*
X241605111Y-106365742D01*
X241603117Y-106295902D01*
X241630891Y-106244456D01*
X241746442Y-106116125D01*
X241841088Y-105952193D01*
X241899583Y-105772165D01*
X241904015Y-105730000D01*
X249134540Y-105730000D01*
X249154326Y-105918257D01*
X249212820Y-106098284D01*
X249307466Y-106262216D01*
X249434129Y-106402889D01*
X249587269Y-106514151D01*
X249760197Y-106591144D01*
X249945352Y-106630500D01*
X249945354Y-106630500D01*
X250134648Y-106630500D01*
X250258083Y-106604262D01*
X250319803Y-106591144D01*
X250492730Y-106514151D01*
X250509847Y-106501715D01*
X250645870Y-106402889D01*
X250772533Y-106262216D01*
X250867179Y-106098284D01*
X250878171Y-106064455D01*
X250925674Y-105918256D01*
X250945460Y-105730000D01*
X250925674Y-105541744D01*
X250878205Y-105395651D01*
X250867179Y-105361715D01*
X250846578Y-105326033D01*
X250830105Y-105258133D01*
X250852958Y-105192106D01*
X250907879Y-105148915D01*
X250928169Y-105142746D01*
X251029803Y-105121144D01*
X251202730Y-105044151D01*
X251259016Y-105003257D01*
X251355870Y-104932889D01*
X251377510Y-104908856D01*
X251482533Y-104792216D01*
X251557008Y-104663220D01*
X251607572Y-104615008D01*
X251676179Y-104601784D01*
X251741044Y-104627752D01*
X251756543Y-104642251D01*
X251784129Y-104672889D01*
X251937269Y-104784151D01*
X252110197Y-104861144D01*
X252295352Y-104900500D01*
X252295354Y-104900500D01*
X252484648Y-104900500D01*
X252608083Y-104874262D01*
X252669803Y-104861144D01*
X252842730Y-104784151D01*
X252892785Y-104747784D01*
X252995870Y-104672889D01*
X253003904Y-104663967D01*
X253122533Y-104532216D01*
X253217179Y-104368284D01*
X253275674Y-104188256D01*
X253283899Y-104110000D01*
X253614540Y-104110000D01*
X253617510Y-104138256D01*
X253634326Y-104298257D01*
X253692820Y-104478284D01*
X253787466Y-104642216D01*
X253914129Y-104782889D01*
X254067269Y-104894151D01*
X254240197Y-104971144D01*
X254425352Y-105010500D01*
X254425354Y-105010500D01*
X254614646Y-105010500D01*
X254722480Y-104987579D01*
X254792145Y-104992895D01*
X254847879Y-105035031D01*
X254866191Y-105070551D01*
X254902820Y-105183284D01*
X254997466Y-105347216D01*
X255113012Y-105475542D01*
X255143242Y-105538533D01*
X255134617Y-105607869D01*
X255089875Y-105661534D01*
X255071298Y-105671793D01*
X255017269Y-105695848D01*
X254864129Y-105807110D01*
X254737466Y-105947783D01*
X254642820Y-106111715D01*
X254584326Y-106291742D01*
X254564540Y-106480000D01*
X254584326Y-106668257D01*
X254642820Y-106848284D01*
X254737466Y-107012216D01*
X254864129Y-107152889D01*
X255017269Y-107264151D01*
X255190197Y-107341144D01*
X255375352Y-107380500D01*
X255375354Y-107380500D01*
X255564648Y-107380500D01*
X255688084Y-107354262D01*
X255749803Y-107341144D01*
X255922730Y-107264151D01*
X255958333Y-107238284D01*
X256075870Y-107152889D01*
X256136386Y-107085680D01*
X256202533Y-107012216D01*
X256297179Y-106848284D01*
X256355674Y-106668256D01*
X256375460Y-106480000D01*
X256355674Y-106291744D01*
X256311519Y-106155849D01*
X256297179Y-106111715D01*
X256261548Y-106050000D01*
X258214540Y-106050000D01*
X258218949Y-106091947D01*
X258234326Y-106238257D01*
X258292820Y-106418284D01*
X258387466Y-106582216D01*
X258514129Y-106722889D01*
X258667269Y-106834151D01*
X258840197Y-106911144D01*
X259025352Y-106950500D01*
X259025354Y-106950500D01*
X259214648Y-106950500D01*
X259376016Y-106916200D01*
X259399803Y-106911144D01*
X259572730Y-106834151D01*
X259696605Y-106744151D01*
X259725870Y-106722889D01*
X259773042Y-106670500D01*
X259852533Y-106582216D01*
X259947179Y-106418284D01*
X260005674Y-106238256D01*
X260025460Y-106050000D01*
X260005674Y-105861744D01*
X259962496Y-105728856D01*
X259947179Y-105681715D01*
X259852533Y-105517783D01*
X259725870Y-105377110D01*
X259572730Y-105265848D01*
X259399802Y-105188855D01*
X259214648Y-105149500D01*
X259214646Y-105149500D01*
X259025354Y-105149500D01*
X259025352Y-105149500D01*
X258840197Y-105188855D01*
X258667269Y-105265848D01*
X258514129Y-105377110D01*
X258387466Y-105517783D01*
X258292820Y-105681715D01*
X258234326Y-105861742D01*
X258214540Y-106049999D01*
X258214540Y-106050000D01*
X256261548Y-106050000D01*
X256202535Y-105947786D01*
X256174914Y-105917110D01*
X256086985Y-105819455D01*
X256056757Y-105756467D01*
X256065382Y-105687132D01*
X256110123Y-105633466D01*
X256128702Y-105623206D01*
X256163149Y-105607869D01*
X256182730Y-105599151D01*
X256182730Y-105599150D01*
X256182732Y-105599150D01*
X256335870Y-105487889D01*
X256462533Y-105347216D01*
X256557179Y-105183284D01*
X256560557Y-105172888D01*
X256615674Y-105003256D01*
X256635460Y-104815000D01*
X256615674Y-104626744D01*
X256574330Y-104499500D01*
X256557179Y-104446715D01*
X256462533Y-104282783D01*
X256335870Y-104142110D01*
X256182730Y-104030848D01*
X256009802Y-103953855D01*
X255824648Y-103914500D01*
X255824646Y-103914500D01*
X255635354Y-103914500D01*
X255635352Y-103914500D01*
X255527520Y-103937420D01*
X255457852Y-103932104D01*
X255402119Y-103889967D01*
X255383808Y-103854448D01*
X255347179Y-103741715D01*
X255252533Y-103577783D01*
X255125870Y-103437110D01*
X254972730Y-103325848D01*
X254799802Y-103248855D01*
X254614648Y-103209500D01*
X254614646Y-103209500D01*
X254425354Y-103209500D01*
X254425352Y-103209500D01*
X254240197Y-103248855D01*
X254067269Y-103325848D01*
X253914129Y-103437110D01*
X253787466Y-103577783D01*
X253692820Y-103741715D01*
X253634326Y-103921742D01*
X253623131Y-104028256D01*
X253614540Y-104110000D01*
X253283899Y-104110000D01*
X253295460Y-104000000D01*
X253275674Y-103811744D01*
X253223686Y-103651742D01*
X253217179Y-103631715D01*
X253122533Y-103467783D01*
X252995870Y-103327110D01*
X252842730Y-103215848D01*
X252669802Y-103138855D01*
X252484648Y-103099500D01*
X252484646Y-103099500D01*
X252295354Y-103099500D01*
X252295352Y-103099500D01*
X252110197Y-103138855D01*
X251937269Y-103215848D01*
X251784129Y-103327110D01*
X251657466Y-103467783D01*
X251582993Y-103596776D01*
X251532426Y-103644992D01*
X251463819Y-103658215D01*
X251398954Y-103632247D01*
X251383456Y-103617748D01*
X251355870Y-103587110D01*
X251202730Y-103475848D01*
X251029802Y-103398855D01*
X250844648Y-103359500D01*
X250844646Y-103359500D01*
X250655354Y-103359500D01*
X250655352Y-103359500D01*
X250470197Y-103398855D01*
X250297269Y-103475848D01*
X250144129Y-103587110D01*
X250017466Y-103727783D01*
X249922820Y-103891715D01*
X249864326Y-104071742D01*
X249844540Y-104259999D01*
X249864326Y-104448257D01*
X249922820Y-104628283D01*
X249943422Y-104663967D01*
X249959893Y-104731867D01*
X249937041Y-104797894D01*
X249882119Y-104841084D01*
X249861815Y-104847256D01*
X249760197Y-104868855D01*
X249587269Y-104945848D01*
X249434129Y-105057110D01*
X249307466Y-105197783D01*
X249212820Y-105361715D01*
X249154326Y-105541742D01*
X249134540Y-105730000D01*
X241904015Y-105730000D01*
X241919369Y-105583909D01*
X241899583Y-105395653D01*
X241854900Y-105258133D01*
X241841088Y-105215624D01*
X241746442Y-105051692D01*
X241619779Y-104911019D01*
X241466639Y-104799757D01*
X241293711Y-104722764D01*
X241108557Y-104683409D01*
X241108555Y-104683409D01*
X240919263Y-104683409D01*
X240919261Y-104683409D01*
X240734106Y-104722764D01*
X240561178Y-104799757D01*
X240408038Y-104911019D01*
X240281375Y-105051692D01*
X240186729Y-105215624D01*
X240128235Y-105395651D01*
X240108449Y-105583908D01*
X240108449Y-105583909D01*
X240112990Y-105627112D01*
X240128235Y-105772166D01*
X240183796Y-105943165D01*
X240185791Y-106013006D01*
X240158015Y-106064455D01*
X240042466Y-106192783D01*
X239947820Y-106356715D01*
X239889326Y-106536742D01*
X239872670Y-106695215D01*
X239869540Y-106725000D01*
X238491781Y-106725000D01*
X238475674Y-106571744D01*
X238445492Y-106478855D01*
X238413152Y-106379321D01*
X238415865Y-106378439D01*
X238403997Y-106329506D01*
X238426852Y-106263481D01*
X238477419Y-106222134D01*
X238562730Y-106184151D01*
X238562730Y-106184150D01*
X238562732Y-106184150D01*
X238715870Y-106072889D01*
X238721074Y-106067110D01*
X238842533Y-105932216D01*
X238937179Y-105768284D01*
X238995674Y-105588256D01*
X239015460Y-105400000D01*
X238995674Y-105211744D01*
X238956683Y-105091742D01*
X238937179Y-105031715D01*
X238842533Y-104867783D01*
X238715870Y-104727110D01*
X238562730Y-104615848D01*
X238389802Y-104538855D01*
X238204648Y-104499500D01*
X238204646Y-104499500D01*
X238015354Y-104499500D01*
X238015352Y-104499500D01*
X237830197Y-104538855D01*
X237657269Y-104615848D01*
X237504129Y-104727110D01*
X237377466Y-104867783D01*
X237282820Y-105031715D01*
X237224326Y-105211742D01*
X237204540Y-105400000D01*
X237224326Y-105588257D01*
X237286848Y-105780679D01*
X237284134Y-105781560D01*
X237296004Y-105830483D01*
X237273153Y-105896510D01*
X237222580Y-105937865D01*
X237137269Y-105975848D01*
X236984129Y-106087110D01*
X236857466Y-106227783D01*
X236762820Y-106391715D01*
X236704326Y-106571742D01*
X236684540Y-106760000D01*
X235727133Y-106760000D01*
X235762730Y-106744151D01*
X235814884Y-106706259D01*
X235915870Y-106632889D01*
X235954489Y-106589999D01*
X236042533Y-106492216D01*
X236137179Y-106328284D01*
X236195674Y-106148256D01*
X236215460Y-105960000D01*
X236195674Y-105771744D01*
X236155559Y-105648284D01*
X236137179Y-105591715D01*
X236042533Y-105427783D01*
X235959156Y-105335185D01*
X235928925Y-105272193D01*
X235937550Y-105202858D01*
X235959154Y-105169241D01*
X236082533Y-105032216D01*
X236177179Y-104868284D01*
X236235674Y-104688256D01*
X236255460Y-104500000D01*
X236235674Y-104311744D01*
X236199738Y-104201144D01*
X236177179Y-104131715D01*
X236082533Y-103967783D01*
X235955870Y-103827110D01*
X235802730Y-103715848D01*
X235629802Y-103638855D01*
X235444648Y-103599500D01*
X235444646Y-103599500D01*
X235255354Y-103599500D01*
X235255352Y-103599500D01*
X235070197Y-103638855D01*
X234897269Y-103715848D01*
X234744129Y-103827110D01*
X234617466Y-103967783D01*
X234522820Y-104131715D01*
X234464326Y-104311742D01*
X234444540Y-104499999D01*
X234464326Y-104688257D01*
X234522820Y-104868284D01*
X234617466Y-105032216D01*
X234700843Y-105124814D01*
X234731074Y-105187806D01*
X234722449Y-105257141D01*
X234700844Y-105290759D01*
X234577466Y-105427783D01*
X234482820Y-105591715D01*
X234424326Y-105771742D01*
X234404723Y-105958256D01*
X234404540Y-105960000D01*
X229745107Y-105960000D01*
X229745674Y-105958256D01*
X229765460Y-105770000D01*
X229745674Y-105581744D01*
X229687179Y-105401716D01*
X229687179Y-105401715D01*
X229592533Y-105237783D01*
X229465870Y-105097110D01*
X229312730Y-104985848D01*
X229139802Y-104908855D01*
X228954648Y-104869500D01*
X228954646Y-104869500D01*
X228765354Y-104869500D01*
X228765352Y-104869500D01*
X228580197Y-104908855D01*
X228407269Y-104985848D01*
X228254129Y-105097110D01*
X228127466Y-105237783D01*
X228032820Y-105401715D01*
X227974326Y-105581742D01*
X227954540Y-105769999D01*
X226462212Y-105769999D01*
X226369802Y-105728855D01*
X226184648Y-105689500D01*
X226184646Y-105689500D01*
X225995354Y-105689500D01*
X225995352Y-105689500D01*
X225810197Y-105728855D01*
X225637269Y-105805848D01*
X225484129Y-105917110D01*
X225357466Y-106057783D01*
X225262820Y-106221715D01*
X225204326Y-106401742D01*
X225184540Y-106590000D01*
X223448138Y-106590000D01*
X223448143Y-106589999D01*
X223489803Y-106581144D01*
X223662730Y-106504151D01*
X223697547Y-106478855D01*
X223815870Y-106392889D01*
X223840313Y-106365743D01*
X223942533Y-106252216D01*
X224037179Y-106088284D01*
X224095674Y-105908256D01*
X224115460Y-105720000D01*
X224095674Y-105531744D01*
X224051455Y-105395653D01*
X224037179Y-105351715D01*
X223942533Y-105187783D01*
X223815870Y-105047110D01*
X223750587Y-104999680D01*
X223707921Y-104944350D01*
X223701942Y-104874737D01*
X223734547Y-104812942D01*
X223795386Y-104778585D01*
X223865142Y-104782573D01*
X223873903Y-104786080D01*
X223930197Y-104811144D01*
X223930200Y-104811144D01*
X223930201Y-104811145D01*
X224115352Y-104850500D01*
X224115354Y-104850500D01*
X224304648Y-104850500D01*
X224428084Y-104824262D01*
X224489803Y-104811144D01*
X224662730Y-104734151D01*
X224687093Y-104716450D01*
X224815870Y-104622889D01*
X224820532Y-104617712D01*
X224942533Y-104482216D01*
X225037179Y-104318284D01*
X225095674Y-104138256D01*
X225115460Y-103950000D01*
X225103899Y-103839999D01*
X227154540Y-103839999D01*
X227174326Y-104028257D01*
X227232820Y-104208284D01*
X227327466Y-104372216D01*
X227454129Y-104512889D01*
X227607269Y-104624151D01*
X227780197Y-104701144D01*
X227965352Y-104740500D01*
X227965354Y-104740500D01*
X228154648Y-104740500D01*
X228278083Y-104714262D01*
X228339803Y-104701144D01*
X228512730Y-104624151D01*
X228543516Y-104601784D01*
X228665870Y-104512889D01*
X228792533Y-104372216D01*
X228887179Y-104208284D01*
X228893686Y-104188257D01*
X228945674Y-104028256D01*
X228965460Y-103840000D01*
X228945674Y-103651744D01*
X228915332Y-103558363D01*
X228887179Y-103471715D01*
X228880914Y-103460864D01*
X242950955Y-103460864D01*
X242970741Y-103649121D01*
X243029235Y-103829148D01*
X243123881Y-103993080D01*
X243250544Y-104133753D01*
X243403684Y-104245015D01*
X243576612Y-104322008D01*
X243761767Y-104361364D01*
X243761769Y-104361364D01*
X243951063Y-104361364D01*
X244074499Y-104335126D01*
X244136218Y-104322008D01*
X244309145Y-104245015D01*
X244359701Y-104208284D01*
X244462285Y-104133753D01*
X244588948Y-103993080D01*
X244683594Y-103829148D01*
X244689250Y-103811742D01*
X244742089Y-103649120D01*
X244761875Y-103460864D01*
X244749172Y-103340000D01*
X246154540Y-103340000D01*
X246157997Y-103372888D01*
X246174326Y-103528257D01*
X246232820Y-103708284D01*
X246327466Y-103872216D01*
X246454129Y-104012889D01*
X246607269Y-104124151D01*
X246780197Y-104201144D01*
X246965352Y-104240500D01*
X246965354Y-104240500D01*
X247154648Y-104240500D01*
X247278084Y-104214262D01*
X247339803Y-104201144D01*
X247512730Y-104124151D01*
X247517678Y-104120556D01*
X247665870Y-104012889D01*
X247792533Y-103872216D01*
X247887179Y-103708284D01*
X247887178Y-103708284D01*
X247945674Y-103528256D01*
X247965460Y-103340000D01*
X247945674Y-103151744D01*
X247887179Y-102971716D01*
X247887179Y-102971715D01*
X247792533Y-102807783D01*
X247665870Y-102667110D01*
X247512730Y-102555848D01*
X247339802Y-102478855D01*
X247154648Y-102439500D01*
X247154646Y-102439500D01*
X246965354Y-102439500D01*
X246965352Y-102439500D01*
X246780197Y-102478855D01*
X246607269Y-102555848D01*
X246454129Y-102667110D01*
X246327466Y-102807783D01*
X246232820Y-102971715D01*
X246174326Y-103151742D01*
X246154976Y-103335847D01*
X246154540Y-103340000D01*
X244749172Y-103340000D01*
X244742089Y-103272608D01*
X244698630Y-103138855D01*
X244683594Y-103092579D01*
X244588948Y-102928647D01*
X244462285Y-102787974D01*
X244309145Y-102676712D01*
X244136217Y-102599719D01*
X243951063Y-102560364D01*
X243951061Y-102560364D01*
X243761769Y-102560364D01*
X243761767Y-102560364D01*
X243576612Y-102599719D01*
X243403684Y-102676712D01*
X243250544Y-102787974D01*
X243123881Y-102928647D01*
X243029235Y-103092579D01*
X242970741Y-103272606D01*
X242950955Y-103460864D01*
X228880914Y-103460864D01*
X228792533Y-103307783D01*
X228665870Y-103167110D01*
X228512730Y-103055848D01*
X228339802Y-102978855D01*
X228154648Y-102939500D01*
X228154646Y-102939500D01*
X227965354Y-102939500D01*
X227965352Y-102939500D01*
X227780197Y-102978855D01*
X227607269Y-103055848D01*
X227454129Y-103167110D01*
X227327466Y-103307783D01*
X227232820Y-103471715D01*
X227174326Y-103651742D01*
X227154540Y-103839999D01*
X225103899Y-103839999D01*
X225095674Y-103761744D01*
X225048887Y-103617748D01*
X225037179Y-103581715D01*
X224942533Y-103417783D01*
X224815870Y-103277110D01*
X224662730Y-103165848D01*
X224489802Y-103088855D01*
X224304648Y-103049500D01*
X224304646Y-103049500D01*
X224115354Y-103049500D01*
X224115352Y-103049500D01*
X223930197Y-103088855D01*
X223757269Y-103165848D01*
X223604129Y-103277110D01*
X223477466Y-103417783D01*
X223382820Y-103581715D01*
X223324326Y-103761742D01*
X223304540Y-103949999D01*
X223324326Y-104138257D01*
X223382820Y-104318284D01*
X223477466Y-104482216D01*
X223604129Y-104622888D01*
X223669412Y-104670319D01*
X223712078Y-104725648D01*
X223718057Y-104795262D01*
X223685452Y-104857057D01*
X223624613Y-104891414D01*
X223554857Y-104887426D01*
X223546092Y-104883917D01*
X223489801Y-104858854D01*
X223304648Y-104819500D01*
X223304646Y-104819500D01*
X223115354Y-104819500D01*
X223115352Y-104819500D01*
X222930197Y-104858855D01*
X222757269Y-104935848D01*
X222604129Y-105047110D01*
X222477466Y-105187783D01*
X222382820Y-105351715D01*
X222324326Y-105531742D01*
X222307078Y-105695848D01*
X222304540Y-105720000D01*
X217239509Y-105720000D01*
X217155870Y-105627110D01*
X217002730Y-105515848D01*
X216829802Y-105438855D01*
X216644648Y-105399500D01*
X216644646Y-105399500D01*
X216455354Y-105399500D01*
X216455352Y-105399500D01*
X216270197Y-105438855D01*
X216097269Y-105515848D01*
X215944129Y-105627110D01*
X215817466Y-105767783D01*
X215722820Y-105931715D01*
X215664326Y-106111742D01*
X215644540Y-106300000D01*
X214589619Y-106300000D01*
X214577179Y-106261715D01*
X214482533Y-106097783D01*
X214355870Y-105957110D01*
X214202730Y-105845848D01*
X214029802Y-105768855D01*
X213844648Y-105729500D01*
X213844646Y-105729500D01*
X213655354Y-105729500D01*
X213655352Y-105729500D01*
X213470197Y-105768855D01*
X213297269Y-105845848D01*
X213144129Y-105957110D01*
X213017466Y-106097783D01*
X212922820Y-106261715D01*
X212864326Y-106441742D01*
X212844540Y-106630000D01*
X211857263Y-106630000D01*
X211935870Y-106572889D01*
X212062533Y-106432216D01*
X212157179Y-106268284D01*
X212162603Y-106251592D01*
X212215674Y-106088256D01*
X212235460Y-105900000D01*
X212215674Y-105711744D01*
X212176674Y-105591715D01*
X212157179Y-105531715D01*
X212062533Y-105367783D01*
X211935870Y-105227110D01*
X211782730Y-105115848D01*
X211609802Y-105038855D01*
X211424648Y-104999500D01*
X211424646Y-104999500D01*
X211235354Y-104999500D01*
X211235352Y-104999500D01*
X211050197Y-105038855D01*
X210877269Y-105115848D01*
X210724129Y-105227110D01*
X210597466Y-105367783D01*
X210502820Y-105531715D01*
X210444326Y-105711742D01*
X210424907Y-105896510D01*
X210424540Y-105900000D01*
X205593492Y-105900000D01*
X205672533Y-105812216D01*
X205767179Y-105648284D01*
X205825674Y-105468256D01*
X205845460Y-105280000D01*
X205825674Y-105091744D01*
X205789738Y-104981144D01*
X205767179Y-104911715D01*
X205672533Y-104747783D01*
X205545870Y-104607110D01*
X205392730Y-104495848D01*
X205219802Y-104418855D01*
X205034648Y-104379500D01*
X205034646Y-104379500D01*
X204845354Y-104379500D01*
X204845352Y-104379500D01*
X204660197Y-104418855D01*
X204487269Y-104495848D01*
X204334129Y-104607110D01*
X204207466Y-104747783D01*
X204112820Y-104911715D01*
X204054326Y-105091742D01*
X204034540Y-105280000D01*
X204054326Y-105468257D01*
X204102634Y-105616934D01*
X204104629Y-105686776D01*
X204068548Y-105746608D01*
X204005847Y-105777436D01*
X203958923Y-105776542D01*
X203784649Y-105739500D01*
X203784646Y-105739500D01*
X203595354Y-105739500D01*
X203595352Y-105739500D01*
X203410197Y-105778855D01*
X203237269Y-105855848D01*
X203084129Y-105967110D01*
X202957466Y-106107783D01*
X202862820Y-106271715D01*
X202804326Y-106451742D01*
X202784540Y-106640000D01*
X192084343Y-106640000D01*
X192077677Y-106576579D01*
X192045924Y-106478855D01*
X192019182Y-106396550D01*
X191924536Y-106232618D01*
X191797873Y-106091945D01*
X191644733Y-105980683D01*
X191471805Y-105903690D01*
X191286651Y-105864335D01*
X191286649Y-105864335D01*
X191097357Y-105864335D01*
X191097355Y-105864335D01*
X190912200Y-105903690D01*
X190739272Y-105980683D01*
X190586132Y-106091945D01*
X190459469Y-106232618D01*
X190364823Y-106396550D01*
X190306329Y-106576577D01*
X190286543Y-106764835D01*
X186805839Y-106764835D01*
X186811995Y-106706259D01*
X186792209Y-106518003D01*
X186759808Y-106418284D01*
X186733714Y-106337974D01*
X186639068Y-106174042D01*
X186512405Y-106033369D01*
X186359265Y-105922107D01*
X186186337Y-105845114D01*
X186001183Y-105805759D01*
X186001181Y-105805759D01*
X185811889Y-105805759D01*
X185811887Y-105805759D01*
X185626732Y-105845114D01*
X185453804Y-105922107D01*
X185300664Y-106033369D01*
X185173999Y-106174044D01*
X185156170Y-106204926D01*
X185105603Y-106253141D01*
X185036995Y-106266363D01*
X184972131Y-106240395D01*
X184931603Y-106183480D01*
X184926953Y-106142947D01*
X184926822Y-106142961D01*
X184925460Y-106130000D01*
X184905674Y-105941744D01*
X184869523Y-105830483D01*
X184847179Y-105761715D01*
X184752533Y-105597783D01*
X184625870Y-105457110D01*
X184472730Y-105345848D01*
X184299802Y-105268855D01*
X184114648Y-105229500D01*
X184114646Y-105229500D01*
X183925354Y-105229500D01*
X183925352Y-105229500D01*
X183740197Y-105268855D01*
X183567269Y-105345848D01*
X183414129Y-105457110D01*
X183287466Y-105597783D01*
X183192820Y-105761715D01*
X183134326Y-105941742D01*
X183132711Y-105957110D01*
X183130234Y-105980684D01*
X183127320Y-106008408D01*
X183100735Y-106073022D01*
X183043438Y-106113007D01*
X182973619Y-106115667D01*
X182913445Y-106080157D01*
X182882022Y-106017753D01*
X182880000Y-105995457D01*
X182880000Y-104120000D01*
X198734540Y-104120000D01*
X198736459Y-104138256D01*
X198754326Y-104308257D01*
X198812820Y-104488284D01*
X198907466Y-104652216D01*
X199034129Y-104792889D01*
X199187269Y-104904151D01*
X199360197Y-104981144D01*
X199545352Y-105020500D01*
X199545354Y-105020500D01*
X199734648Y-105020500D01*
X199889528Y-104987579D01*
X199919803Y-104981144D01*
X200092730Y-104904151D01*
X200142785Y-104867784D01*
X200245870Y-104792889D01*
X200255159Y-104782573D01*
X200370602Y-104654360D01*
X200430087Y-104617712D01*
X200499944Y-104619042D01*
X200535636Y-104637015D01*
X200644970Y-104716450D01*
X200817898Y-104793443D01*
X201003053Y-104832799D01*
X201003055Y-104832799D01*
X201192349Y-104832799D01*
X201315784Y-104806561D01*
X201377504Y-104793443D01*
X201550431Y-104716450D01*
X201571498Y-104701144D01*
X201703571Y-104605188D01*
X201830234Y-104464515D01*
X201924880Y-104300583D01*
X201938066Y-104260000D01*
X201983375Y-104120555D01*
X202003161Y-103932299D01*
X201983375Y-103744043D01*
X201951191Y-103644992D01*
X201924880Y-103564014D01*
X201830234Y-103400082D01*
X201703571Y-103259409D01*
X201550431Y-103148147D01*
X201377503Y-103071154D01*
X201192349Y-103031799D01*
X201192347Y-103031799D01*
X201003055Y-103031799D01*
X201003053Y-103031799D01*
X200817898Y-103071154D01*
X200644970Y-103148147D01*
X200491830Y-103259409D01*
X200367099Y-103397938D01*
X200307612Y-103434587D01*
X200237755Y-103433256D01*
X200202063Y-103415284D01*
X200179450Y-103398855D01*
X200092730Y-103335849D01*
X200092729Y-103335848D01*
X200092727Y-103335847D01*
X199919802Y-103258855D01*
X199734648Y-103219500D01*
X199734646Y-103219500D01*
X199545354Y-103219500D01*
X199545352Y-103219500D01*
X199360197Y-103258855D01*
X199187269Y-103335848D01*
X199034129Y-103447110D01*
X198907466Y-103587783D01*
X198812820Y-103751715D01*
X198754326Y-103931742D01*
X198744182Y-104028256D01*
X198734540Y-104120000D01*
X182880000Y-104120000D01*
X182880000Y-102700000D01*
X194914540Y-102700000D01*
X194923786Y-102787974D01*
X194934326Y-102888257D01*
X194992820Y-103068284D01*
X195087466Y-103232216D01*
X195214129Y-103372889D01*
X195367269Y-103484151D01*
X195540197Y-103561144D01*
X195725352Y-103600500D01*
X195725354Y-103600500D01*
X195914648Y-103600500D01*
X196038084Y-103574262D01*
X196099803Y-103561144D01*
X196272730Y-103484151D01*
X196390129Y-103398856D01*
X196425870Y-103372889D01*
X196455484Y-103340000D01*
X196552533Y-103232216D01*
X196647179Y-103068284D01*
X196705674Y-102888256D01*
X196725460Y-102700000D01*
X196705674Y-102511744D01*
X196647179Y-102331716D01*
X196647179Y-102331715D01*
X196552533Y-102167783D01*
X196425870Y-102027110D01*
X196272730Y-101915848D01*
X196099802Y-101838855D01*
X195914648Y-101799500D01*
X195914646Y-101799500D01*
X195725354Y-101799500D01*
X195725352Y-101799500D01*
X195540197Y-101838855D01*
X195367269Y-101915848D01*
X195214129Y-102027110D01*
X195087466Y-102167783D01*
X194992820Y-102331715D01*
X194934326Y-102511742D01*
X194914540Y-102699999D01*
X194914540Y-102700000D01*
X182880000Y-102700000D01*
X182880000Y-101160000D01*
X187104540Y-101160000D01*
X187124326Y-101348257D01*
X187182820Y-101528284D01*
X187277466Y-101692216D01*
X187404129Y-101832889D01*
X187557269Y-101944151D01*
X187730197Y-102021144D01*
X187915352Y-102060500D01*
X187915354Y-102060500D01*
X188104648Y-102060500D01*
X188228083Y-102034262D01*
X188289803Y-102021144D01*
X188462730Y-101944151D01*
X188501686Y-101915848D01*
X188615870Y-101832889D01*
X188634545Y-101812149D01*
X188742533Y-101692216D01*
X188837179Y-101528284D01*
X188895674Y-101348256D01*
X188915460Y-101160000D01*
X188895674Y-100971744D01*
X188859932Y-100861742D01*
X188842540Y-100808216D01*
X189634540Y-100808216D01*
X189654326Y-100996473D01*
X189712820Y-101176500D01*
X189807466Y-101340432D01*
X189934129Y-101481105D01*
X190087269Y-101592367D01*
X190260197Y-101669360D01*
X190445352Y-101708716D01*
X190445354Y-101708716D01*
X190634648Y-101708716D01*
X190761677Y-101681715D01*
X190819803Y-101669360D01*
X190992730Y-101592367D01*
X191059094Y-101544151D01*
X191145870Y-101481105D01*
X191199578Y-101421457D01*
X191272533Y-101340432D01*
X191367179Y-101176500D01*
X191425674Y-100996472D01*
X191445460Y-100808216D01*
X191425674Y-100619960D01*
X191394196Y-100523081D01*
X191367179Y-100439931D01*
X191272533Y-100275999D01*
X191145870Y-100135326D01*
X190992730Y-100024064D01*
X190819802Y-99947071D01*
X190634648Y-99907716D01*
X190634646Y-99907716D01*
X190445354Y-99907716D01*
X190445352Y-99907716D01*
X190260197Y-99947071D01*
X190087269Y-100024064D01*
X189934129Y-100135326D01*
X189807466Y-100275999D01*
X189712820Y-100439931D01*
X189654326Y-100619958D01*
X189634540Y-100808216D01*
X188842540Y-100808216D01*
X188837179Y-100791715D01*
X188742533Y-100627783D01*
X188615870Y-100487110D01*
X188462730Y-100375848D01*
X188289802Y-100298855D01*
X188104648Y-100259500D01*
X188104646Y-100259500D01*
X187915354Y-100259500D01*
X187915352Y-100259500D01*
X187730197Y-100298855D01*
X187557269Y-100375848D01*
X187404129Y-100487110D01*
X187277466Y-100627783D01*
X187182820Y-100791715D01*
X187124326Y-100971742D01*
X187104540Y-101160000D01*
X182880000Y-101160000D01*
X182880000Y-99769999D01*
X197524540Y-99769999D01*
X197544326Y-99958257D01*
X197602820Y-100138284D01*
X197697466Y-100302216D01*
X197824129Y-100442889D01*
X197977269Y-100554151D01*
X198150197Y-100631144D01*
X198335352Y-100670500D01*
X198335354Y-100670500D01*
X198524648Y-100670500D01*
X198668143Y-100639999D01*
X198709803Y-100631144D01*
X198882730Y-100554151D01*
X198893176Y-100546561D01*
X198958980Y-100523081D01*
X199027034Y-100538905D01*
X199073448Y-100584879D01*
X199146966Y-100712215D01*
X199273629Y-100852889D01*
X199426769Y-100964151D01*
X199599697Y-101041144D01*
X199784852Y-101080500D01*
X199784854Y-101080500D01*
X199974148Y-101080500D01*
X200117643Y-101049999D01*
X200159303Y-101041144D01*
X200332230Y-100964151D01*
X200355139Y-100947507D01*
X200485370Y-100852889D01*
X200496977Y-100839999D01*
X204154540Y-100839999D01*
X204174326Y-101028257D01*
X204232820Y-101208284D01*
X204327466Y-101372216D01*
X204454129Y-101512889D01*
X204607269Y-101624151D01*
X204780197Y-101701144D01*
X204965352Y-101740500D01*
X204965354Y-101740500D01*
X205154648Y-101740500D01*
X205304179Y-101708716D01*
X205339803Y-101701144D01*
X205512730Y-101624151D01*
X205622841Y-101544151D01*
X205665870Y-101512889D01*
X205694490Y-101481104D01*
X205792533Y-101372216D01*
X205887179Y-101208284D01*
X205919114Y-101109999D01*
X207214540Y-101109999D01*
X207234326Y-101298257D01*
X207292820Y-101478284D01*
X207387466Y-101642216D01*
X207514129Y-101782889D01*
X207667269Y-101894151D01*
X207840197Y-101971144D01*
X208025352Y-102010500D01*
X208025354Y-102010500D01*
X208214648Y-102010500D01*
X208338083Y-101984262D01*
X208399803Y-101971144D01*
X208492213Y-101930000D01*
X216134540Y-101930000D01*
X216154326Y-102118257D01*
X216212820Y-102298284D01*
X216307466Y-102462216D01*
X216434129Y-102602889D01*
X216587269Y-102714151D01*
X216760197Y-102791144D01*
X216945352Y-102830500D01*
X216945354Y-102830500D01*
X217134648Y-102830500D01*
X217258083Y-102804262D01*
X217319803Y-102791144D01*
X217492730Y-102714151D01*
X217564595Y-102661938D01*
X217645870Y-102602889D01*
X217709505Y-102532216D01*
X217772533Y-102462216D01*
X217867179Y-102298284D01*
X217925674Y-102118256D01*
X217938103Y-101999999D01*
X219234042Y-101999999D01*
X219253828Y-102188257D01*
X219312322Y-102368284D01*
X219406968Y-102532216D01*
X219481570Y-102615069D01*
X219511800Y-102678060D01*
X219503175Y-102747395D01*
X219481571Y-102781012D01*
X219457466Y-102807783D01*
X219362820Y-102971715D01*
X219304326Y-103151742D01*
X219284540Y-103340000D01*
X219304326Y-103528257D01*
X219362820Y-103708284D01*
X219457466Y-103872216D01*
X219584129Y-104012889D01*
X219737269Y-104124151D01*
X219910197Y-104201144D01*
X220095352Y-104240500D01*
X220095354Y-104240500D01*
X220284648Y-104240500D01*
X220408083Y-104214262D01*
X220469803Y-104201144D01*
X220642730Y-104124151D01*
X220647678Y-104120556D01*
X220795870Y-104012889D01*
X220922533Y-103872216D01*
X221017179Y-103708284D01*
X221017179Y-103708283D01*
X221075674Y-103528256D01*
X221095460Y-103340000D01*
X221075674Y-103151744D01*
X221017179Y-102971716D01*
X221017179Y-102971715D01*
X220922535Y-102807786D01*
X220868158Y-102747395D01*
X220847929Y-102724928D01*
X220817700Y-102661938D01*
X220826325Y-102592603D01*
X220847925Y-102558991D01*
X220872035Y-102532216D01*
X220966681Y-102368284D01*
X221025176Y-102188256D01*
X221029885Y-102143448D01*
X234617740Y-102143448D01*
X234637526Y-102331705D01*
X234696020Y-102511732D01*
X234790666Y-102675664D01*
X234917329Y-102816337D01*
X235070469Y-102927599D01*
X235243397Y-103004592D01*
X235428552Y-103043948D01*
X235428554Y-103043948D01*
X235617848Y-103043948D01*
X235741283Y-103017710D01*
X235803003Y-103004592D01*
X235975930Y-102927599D01*
X235975929Y-102927599D01*
X236129070Y-102816337D01*
X236154607Y-102787976D01*
X236255733Y-102675664D01*
X236350379Y-102511732D01*
X236408874Y-102331704D01*
X236428660Y-102143448D01*
X236408874Y-101955192D01*
X236385087Y-101881987D01*
X236383093Y-101812149D01*
X236410867Y-101760701D01*
X236472533Y-101692216D01*
X236567179Y-101528284D01*
X236625674Y-101348256D01*
X236645460Y-101160000D01*
X236625674Y-100971744D01*
X236599114Y-100890000D01*
X237884540Y-100890000D01*
X237904326Y-101078257D01*
X237962820Y-101258284D01*
X238057466Y-101422216D01*
X238184129Y-101562889D01*
X238337269Y-101674151D01*
X238510197Y-101751144D01*
X238695352Y-101790500D01*
X238695354Y-101790500D01*
X238884644Y-101790500D01*
X238884646Y-101790500D01*
X238888691Y-101789640D01*
X238958357Y-101794955D01*
X239014091Y-101837091D01*
X239038198Y-101902670D01*
X239037794Y-101923891D01*
X239024540Y-102049999D01*
X239044326Y-102238257D01*
X239102820Y-102418284D01*
X239197466Y-102582216D01*
X239324129Y-102722889D01*
X239477269Y-102834151D01*
X239650197Y-102911144D01*
X239835352Y-102950500D01*
X239835354Y-102950500D01*
X240024648Y-102950500D01*
X240148084Y-102924262D01*
X240209803Y-102911144D01*
X240382730Y-102834151D01*
X240407250Y-102816336D01*
X240535870Y-102722889D01*
X240556480Y-102700000D01*
X240662533Y-102582216D01*
X240757179Y-102418284D01*
X240815674Y-102238256D01*
X240835460Y-102050000D01*
X240815674Y-101861744D01*
X240779738Y-101751144D01*
X240757179Y-101681715D01*
X240662533Y-101517783D01*
X240535870Y-101377110D01*
X240382730Y-101265848D01*
X240209802Y-101188855D01*
X240024648Y-101149500D01*
X240024646Y-101149500D01*
X239835354Y-101149500D01*
X239835353Y-101149500D01*
X239831301Y-101150361D01*
X239761634Y-101145041D01*
X239705903Y-101102901D01*
X239681801Y-101037320D01*
X239682204Y-101016118D01*
X239695460Y-100890000D01*
X239681797Y-100760000D01*
X242099540Y-100760000D01*
X242119326Y-100948257D01*
X242177820Y-101128284D01*
X242272466Y-101292216D01*
X242399129Y-101432889D01*
X242552269Y-101544151D01*
X242725197Y-101621144D01*
X242910352Y-101660500D01*
X242910354Y-101660500D01*
X243099648Y-101660500D01*
X243235070Y-101631715D01*
X243284803Y-101621144D01*
X243457730Y-101544151D01*
X243516924Y-101501144D01*
X243610870Y-101432889D01*
X243621164Y-101421457D01*
X243737533Y-101292216D01*
X243832179Y-101128284D01*
X243857615Y-101050000D01*
X248214540Y-101050000D01*
X248234326Y-101238257D01*
X248292820Y-101418284D01*
X248387466Y-101582216D01*
X248514129Y-101722889D01*
X248667269Y-101834151D01*
X248840197Y-101911144D01*
X249025352Y-101950500D01*
X249025354Y-101950500D01*
X249214648Y-101950500D01*
X249339833Y-101923891D01*
X249399803Y-101911144D01*
X249572730Y-101834151D01*
X249574468Y-101832888D01*
X249725870Y-101722889D01*
X249738632Y-101708716D01*
X249852533Y-101582216D01*
X249947179Y-101418284D01*
X250005674Y-101238256D01*
X250025460Y-101050000D01*
X250005674Y-100861744D01*
X249947179Y-100681716D01*
X249947179Y-100681715D01*
X249852533Y-100517783D01*
X249725870Y-100377110D01*
X249572730Y-100265848D01*
X249399802Y-100188855D01*
X249214648Y-100149500D01*
X249214646Y-100149500D01*
X249025354Y-100149500D01*
X249025352Y-100149500D01*
X248840197Y-100188855D01*
X248667269Y-100265848D01*
X248514129Y-100377110D01*
X248387466Y-100517783D01*
X248292820Y-100681715D01*
X248234326Y-100861742D01*
X248214540Y-101050000D01*
X243857615Y-101050000D01*
X243890674Y-100948256D01*
X243910460Y-100760000D01*
X243890674Y-100571744D01*
X243853404Y-100457039D01*
X243832179Y-100391715D01*
X243737533Y-100227783D01*
X243610870Y-100087110D01*
X243457730Y-99975848D01*
X243284802Y-99898855D01*
X243099648Y-99859500D01*
X243099646Y-99859500D01*
X242910354Y-99859500D01*
X242910352Y-99859500D01*
X242725197Y-99898855D01*
X242552269Y-99975848D01*
X242399129Y-100087110D01*
X242272466Y-100227783D01*
X242177820Y-100391715D01*
X242119326Y-100571742D01*
X242099540Y-100760000D01*
X239681797Y-100760000D01*
X239675674Y-100701744D01*
X239617179Y-100521716D01*
X239617179Y-100521715D01*
X239522533Y-100357783D01*
X239395870Y-100217110D01*
X239242730Y-100105848D01*
X239069802Y-100028855D01*
X238884648Y-99989500D01*
X238884646Y-99989500D01*
X238695354Y-99989500D01*
X238695352Y-99989500D01*
X238510197Y-100028855D01*
X238337269Y-100105848D01*
X238184129Y-100217110D01*
X238057466Y-100357783D01*
X237962820Y-100521715D01*
X237904326Y-100701742D01*
X237884540Y-100890000D01*
X236599114Y-100890000D01*
X236589932Y-100861742D01*
X236567179Y-100791715D01*
X236472533Y-100627783D01*
X236345870Y-100487110D01*
X236192730Y-100375848D01*
X236019802Y-100298855D01*
X235834648Y-100259500D01*
X235834646Y-100259500D01*
X235645354Y-100259500D01*
X235645352Y-100259500D01*
X235460197Y-100298855D01*
X235287269Y-100375848D01*
X235134129Y-100487110D01*
X235007466Y-100627783D01*
X234912820Y-100791715D01*
X234854326Y-100971742D01*
X234834540Y-101160000D01*
X234854326Y-101348257D01*
X234862111Y-101372216D01*
X234870418Y-101397783D01*
X234878111Y-101421457D01*
X234880106Y-101491298D01*
X234852330Y-101542747D01*
X234790666Y-101611231D01*
X234696020Y-101775163D01*
X234637526Y-101955190D01*
X234617740Y-102143448D01*
X221029885Y-102143448D01*
X221044962Y-102000000D01*
X221025176Y-101811744D01*
X220986339Y-101692216D01*
X220966681Y-101631715D01*
X220872035Y-101467783D01*
X220745372Y-101327110D01*
X220592232Y-101215848D01*
X220419304Y-101138855D01*
X220234150Y-101099500D01*
X220234148Y-101099500D01*
X220044856Y-101099500D01*
X220044854Y-101099500D01*
X219859699Y-101138855D01*
X219686771Y-101215848D01*
X219533631Y-101327110D01*
X219406968Y-101467783D01*
X219312322Y-101631715D01*
X219253828Y-101811742D01*
X219234042Y-101999999D01*
X217938103Y-101999999D01*
X217945460Y-101930000D01*
X217925674Y-101741744D01*
X217889923Y-101631715D01*
X217867179Y-101561715D01*
X217772533Y-101397783D01*
X217645870Y-101257110D01*
X217492730Y-101145848D01*
X217319802Y-101068855D01*
X217134648Y-101029500D01*
X217134646Y-101029500D01*
X216945354Y-101029500D01*
X216945352Y-101029500D01*
X216760197Y-101068855D01*
X216587269Y-101145848D01*
X216434129Y-101257110D01*
X216307466Y-101397783D01*
X216212820Y-101561715D01*
X216154326Y-101741742D01*
X216134540Y-101930000D01*
X208492213Y-101930000D01*
X208572730Y-101894151D01*
X208617337Y-101861742D01*
X208725870Y-101782889D01*
X208754454Y-101751144D01*
X208852533Y-101642216D01*
X208947179Y-101478284D01*
X209005674Y-101298256D01*
X209025460Y-101110000D01*
X209022767Y-101084379D01*
X209035334Y-101015651D01*
X209083065Y-100964626D01*
X209150805Y-100947507D01*
X209217047Y-100969728D01*
X209253474Y-101009417D01*
X209347466Y-101172215D01*
X209474129Y-101312889D01*
X209627269Y-101424151D01*
X209800197Y-101501144D01*
X209985352Y-101540500D01*
X209985354Y-101540500D01*
X210174648Y-101540500D01*
X210304551Y-101512888D01*
X210359803Y-101501144D01*
X210532730Y-101424151D01*
X210660744Y-101331144D01*
X210685870Y-101312889D01*
X210749505Y-101242216D01*
X210812533Y-101172216D01*
X210907179Y-101008284D01*
X210965674Y-100828256D01*
X210985460Y-100640000D01*
X210965674Y-100451744D01*
X210961858Y-100440000D01*
X224344540Y-100440000D01*
X224347168Y-100465000D01*
X224364326Y-100628257D01*
X224422820Y-100808284D01*
X224517466Y-100972216D01*
X224644129Y-101112889D01*
X224797269Y-101224151D01*
X224970197Y-101301144D01*
X225155352Y-101340500D01*
X225155354Y-101340500D01*
X225344648Y-101340500D01*
X225474551Y-101312888D01*
X225529803Y-101301144D01*
X225702730Y-101224151D01*
X225810504Y-101145849D01*
X225855870Y-101112889D01*
X225982533Y-100972216D01*
X226077179Y-100808284D01*
X226086282Y-100780269D01*
X226135674Y-100628256D01*
X226152832Y-100465000D01*
X227159540Y-100465000D01*
X227165504Y-100521744D01*
X227179326Y-100653257D01*
X227237820Y-100833284D01*
X227332466Y-100997216D01*
X227459129Y-101137889D01*
X227612269Y-101249151D01*
X227785197Y-101326144D01*
X227970352Y-101365500D01*
X227970354Y-101365500D01*
X228159648Y-101365500D01*
X228283084Y-101339262D01*
X228344803Y-101326144D01*
X228517730Y-101249151D01*
X228552140Y-101224151D01*
X228670870Y-101137889D01*
X228679519Y-101128284D01*
X228797533Y-100997216D01*
X228892179Y-100833284D01*
X228950674Y-100653256D01*
X228970460Y-100465000D01*
X228950674Y-100276744D01*
X228909330Y-100149500D01*
X228892179Y-100096715D01*
X228797533Y-99932783D01*
X228670870Y-99792110D01*
X228518691Y-99681546D01*
X231459149Y-99681546D01*
X231461089Y-99700000D01*
X231478935Y-99869803D01*
X231537429Y-100049830D01*
X231632075Y-100213762D01*
X231758738Y-100354435D01*
X231911878Y-100465697D01*
X232084806Y-100542690D01*
X232269961Y-100582046D01*
X232269963Y-100582046D01*
X232459257Y-100582046D01*
X232618094Y-100548284D01*
X232644412Y-100542690D01*
X232817339Y-100465697D01*
X232836544Y-100451744D01*
X232970479Y-100354435D01*
X232992481Y-100330000D01*
X233097142Y-100213762D01*
X233191788Y-100049830D01*
X233250283Y-99869802D01*
X233270069Y-99681546D01*
X233250283Y-99493290D01*
X233219971Y-99399999D01*
X246404540Y-99399999D01*
X246424326Y-99588257D01*
X246482820Y-99768284D01*
X246577466Y-99932216D01*
X246704129Y-100072889D01*
X246857269Y-100184151D01*
X247030197Y-100261144D01*
X247215352Y-100300500D01*
X247215354Y-100300500D01*
X247404648Y-100300500D01*
X247540070Y-100271715D01*
X247589803Y-100261144D01*
X247762730Y-100184151D01*
X247825861Y-100138284D01*
X247915870Y-100072889D01*
X247936633Y-100049830D01*
X248042533Y-99932216D01*
X248137179Y-99768284D01*
X248195674Y-99588256D01*
X248215460Y-99400000D01*
X248195674Y-99211744D01*
X248158427Y-99097110D01*
X248137179Y-99031715D01*
X248042533Y-98867783D01*
X247915870Y-98727110D01*
X247762730Y-98615848D01*
X247589802Y-98538855D01*
X247404648Y-98499500D01*
X247404646Y-98499500D01*
X247215354Y-98499500D01*
X247215352Y-98499500D01*
X247030197Y-98538855D01*
X246857269Y-98615848D01*
X246704129Y-98727110D01*
X246577466Y-98867783D01*
X246482820Y-99031715D01*
X246424326Y-99211742D01*
X246404540Y-99399999D01*
X233219971Y-99399999D01*
X233193606Y-99318856D01*
X233191788Y-99313261D01*
X233097142Y-99149329D01*
X232970479Y-99008656D01*
X232817339Y-98897394D01*
X232644411Y-98820401D01*
X232459257Y-98781046D01*
X232459255Y-98781046D01*
X232269963Y-98781046D01*
X232269961Y-98781046D01*
X232084806Y-98820401D01*
X231911878Y-98897394D01*
X231758738Y-99008656D01*
X231632075Y-99149329D01*
X231537429Y-99313261D01*
X231478935Y-99493288D01*
X231462697Y-99647784D01*
X231459149Y-99681546D01*
X228518691Y-99681546D01*
X228517730Y-99680848D01*
X228344802Y-99603855D01*
X228159648Y-99564500D01*
X228159646Y-99564500D01*
X227970354Y-99564500D01*
X227970352Y-99564500D01*
X227785197Y-99603855D01*
X227612269Y-99680848D01*
X227459129Y-99792110D01*
X227332466Y-99932783D01*
X227237820Y-100096715D01*
X227179326Y-100276742D01*
X227161864Y-100442888D01*
X227159540Y-100465000D01*
X226152832Y-100465000D01*
X226155460Y-100440000D01*
X226135674Y-100251744D01*
X226085302Y-100096715D01*
X226077179Y-100071715D01*
X225982533Y-99907783D01*
X225855870Y-99767110D01*
X225702730Y-99655848D01*
X225529802Y-99578855D01*
X225344648Y-99539500D01*
X225344646Y-99539500D01*
X225155354Y-99539500D01*
X225155352Y-99539500D01*
X224970197Y-99578855D01*
X224797269Y-99655848D01*
X224644129Y-99767110D01*
X224517466Y-99907783D01*
X224422820Y-100071715D01*
X224364326Y-100251742D01*
X224344547Y-100439931D01*
X224344540Y-100440000D01*
X210961858Y-100440000D01*
X210916532Y-100300500D01*
X210907179Y-100271715D01*
X210812533Y-100107783D01*
X210685870Y-99967110D01*
X210532730Y-99855848D01*
X210359802Y-99778855D01*
X210174648Y-99739500D01*
X210174646Y-99739500D01*
X209985354Y-99739500D01*
X209985352Y-99739500D01*
X209800197Y-99778855D01*
X209627269Y-99855848D01*
X209474129Y-99967110D01*
X209347466Y-100107783D01*
X209252820Y-100271715D01*
X209194326Y-100451742D01*
X209174540Y-100640000D01*
X209177233Y-100665621D01*
X209164663Y-100734351D01*
X209116931Y-100785374D01*
X209049191Y-100802492D01*
X208982949Y-100780269D01*
X208946525Y-100740582D01*
X208852533Y-100577784D01*
X208725870Y-100437110D01*
X208572730Y-100325848D01*
X208399802Y-100248855D01*
X208214648Y-100209500D01*
X208214646Y-100209500D01*
X208025354Y-100209500D01*
X208025352Y-100209500D01*
X207840197Y-100248855D01*
X207667269Y-100325848D01*
X207514129Y-100437110D01*
X207387466Y-100577783D01*
X207292820Y-100741715D01*
X207234326Y-100921742D01*
X207214540Y-101109999D01*
X205919114Y-101109999D01*
X205945674Y-101028256D01*
X205965460Y-100840000D01*
X205945674Y-100651744D01*
X205903425Y-100521715D01*
X205887179Y-100471715D01*
X205792533Y-100307783D01*
X205665870Y-100167110D01*
X205512730Y-100055848D01*
X205339802Y-99978855D01*
X205154648Y-99939500D01*
X205154646Y-99939500D01*
X204965354Y-99939500D01*
X204965352Y-99939500D01*
X204780197Y-99978855D01*
X204607269Y-100055848D01*
X204454129Y-100167110D01*
X204327466Y-100307783D01*
X204232820Y-100471715D01*
X204174326Y-100651742D01*
X204154540Y-100839999D01*
X200496977Y-100839999D01*
X200498521Y-100838284D01*
X200612033Y-100712216D01*
X200706679Y-100548284D01*
X200765174Y-100368256D01*
X200784960Y-100180000D01*
X200765174Y-99991744D01*
X200725553Y-99869803D01*
X200706679Y-99811715D01*
X200642180Y-99699999D01*
X202214540Y-99699999D01*
X202234326Y-99888257D01*
X202292820Y-100068284D01*
X202387466Y-100232216D01*
X202514129Y-100372889D01*
X202667269Y-100484151D01*
X202840197Y-100561144D01*
X203025352Y-100600500D01*
X203025354Y-100600500D01*
X203214648Y-100600500D01*
X203349943Y-100571742D01*
X203399803Y-100561144D01*
X203572730Y-100484151D01*
X203633500Y-100439999D01*
X203725870Y-100372889D01*
X203748993Y-100347209D01*
X203852533Y-100232216D01*
X203947179Y-100068284D01*
X204005674Y-99888256D01*
X204025460Y-99700000D01*
X204005674Y-99511744D01*
X203947179Y-99331716D01*
X203947179Y-99331715D01*
X203852533Y-99167783D01*
X203725870Y-99027110D01*
X203572730Y-98915848D01*
X203399802Y-98838855D01*
X203214648Y-98799500D01*
X203214646Y-98799500D01*
X203025354Y-98799500D01*
X203025352Y-98799500D01*
X202840197Y-98838855D01*
X202667269Y-98915848D01*
X202514129Y-99027110D01*
X202387466Y-99167783D01*
X202292820Y-99331715D01*
X202234326Y-99511742D01*
X202214540Y-99699999D01*
X200642180Y-99699999D01*
X200612033Y-99647783D01*
X200485370Y-99507110D01*
X200332230Y-99395848D01*
X200159302Y-99318855D01*
X199974148Y-99279500D01*
X199974146Y-99279500D01*
X199784854Y-99279500D01*
X199784852Y-99279500D01*
X199599697Y-99318855D01*
X199426771Y-99395848D01*
X199416321Y-99403440D01*
X199350514Y-99426918D01*
X199282460Y-99411091D01*
X199236051Y-99365120D01*
X199162533Y-99237784D01*
X199035870Y-99097110D01*
X198882730Y-98985848D01*
X198709802Y-98908855D01*
X198524648Y-98869500D01*
X198524646Y-98869500D01*
X198335354Y-98869500D01*
X198335352Y-98869500D01*
X198150197Y-98908855D01*
X197977269Y-98985848D01*
X197824129Y-99097110D01*
X197697466Y-99237783D01*
X197602820Y-99401715D01*
X197544326Y-99581742D01*
X197524540Y-99769999D01*
X182880000Y-99769999D01*
X182880000Y-97148497D01*
X182899684Y-97081462D01*
X182952488Y-97035707D01*
X183021646Y-97025763D01*
X183054435Y-97035222D01*
X183090193Y-97051143D01*
X183090196Y-97051143D01*
X183090197Y-97051144D01*
X183136118Y-97060904D01*
X183197599Y-97094097D01*
X183231376Y-97155260D01*
X183226724Y-97224974D01*
X183217726Y-97244192D01*
X183207869Y-97261264D01*
X183149375Y-97441291D01*
X183129589Y-97629548D01*
X183149375Y-97817806D01*
X183207869Y-97997833D01*
X183302515Y-98161765D01*
X183429178Y-98302438D01*
X183582318Y-98413700D01*
X183755246Y-98490693D01*
X183940401Y-98530049D01*
X183940403Y-98530049D01*
X184129697Y-98530049D01*
X184257474Y-98502889D01*
X184314852Y-98490693D01*
X184487779Y-98413700D01*
X184501224Y-98403932D01*
X184640919Y-98302438D01*
X184698361Y-98238643D01*
X184767582Y-98161765D01*
X184862228Y-97997833D01*
X184909486Y-97852386D01*
X184948924Y-97794710D01*
X185013283Y-97767512D01*
X185053198Y-97769413D01*
X185105354Y-97780500D01*
X185294648Y-97780500D01*
X185418083Y-97754262D01*
X185479803Y-97741144D01*
X185652730Y-97664151D01*
X185683571Y-97641744D01*
X185805870Y-97552889D01*
X185932533Y-97412216D01*
X186027179Y-97248284D01*
X186071727Y-97111182D01*
X186111165Y-97053506D01*
X186175523Y-97026308D01*
X186189658Y-97025500D01*
X191391515Y-97025500D01*
X191458554Y-97045185D01*
X191504309Y-97097989D01*
X191514253Y-97167147D01*
X191509446Y-97187814D01*
X191500886Y-97214161D01*
X191484016Y-97266080D01*
X191464230Y-97454338D01*
X191484016Y-97642595D01*
X191542510Y-97822622D01*
X191637156Y-97986554D01*
X191763819Y-98127227D01*
X191916959Y-98238489D01*
X192089887Y-98315482D01*
X192275042Y-98354838D01*
X192275044Y-98354838D01*
X192464338Y-98354838D01*
X192588652Y-98328414D01*
X192649493Y-98315482D01*
X192822420Y-98238489D01*
X192899686Y-98182352D01*
X192975560Y-98127227D01*
X193001784Y-98098103D01*
X193102223Y-97986554D01*
X193142416Y-97916938D01*
X193154796Y-97895495D01*
X193205363Y-97847280D01*
X193273970Y-97834056D01*
X193338834Y-97860024D01*
X193379363Y-97916938D01*
X193380114Y-97919177D01*
X193392820Y-97958284D01*
X193487466Y-98122216D01*
X193614129Y-98262889D01*
X193767269Y-98374151D01*
X193940197Y-98451144D01*
X194125352Y-98490500D01*
X194125354Y-98490500D01*
X194314648Y-98490500D01*
X194438084Y-98464262D01*
X194499803Y-98451144D01*
X194672730Y-98374151D01*
X194825871Y-98262888D01*
X194866584Y-98217670D01*
X194926070Y-98181023D01*
X194995927Y-98182352D01*
X195053975Y-98221238D01*
X195066121Y-98238643D01*
X195137466Y-98362215D01*
X195264129Y-98502889D01*
X195417269Y-98614151D01*
X195590197Y-98691144D01*
X195775352Y-98730500D01*
X195775354Y-98730500D01*
X195964648Y-98730500D01*
X196106487Y-98700351D01*
X196149803Y-98691144D01*
X196322730Y-98614151D01*
X196363234Y-98584723D01*
X196475870Y-98502889D01*
X196478922Y-98499500D01*
X196602533Y-98362216D01*
X196697179Y-98198284D01*
X196755674Y-98018256D01*
X196762848Y-97949999D01*
X228584540Y-97949999D01*
X228604326Y-98138257D01*
X228662820Y-98318284D01*
X228757466Y-98482216D01*
X228884129Y-98622889D01*
X229037269Y-98734151D01*
X229210197Y-98811144D01*
X229395352Y-98850500D01*
X229395354Y-98850500D01*
X229584648Y-98850500D01*
X229726252Y-98820401D01*
X229769803Y-98811144D01*
X229942730Y-98734151D01*
X229979825Y-98707200D01*
X230095870Y-98622889D01*
X230163239Y-98548069D01*
X230222533Y-98482216D01*
X230317179Y-98318284D01*
X230375674Y-98138256D01*
X230395460Y-97950000D01*
X230375674Y-97761744D01*
X230341162Y-97655527D01*
X230317179Y-97581715D01*
X230251104Y-97467269D01*
X235699040Y-97467269D01*
X235718826Y-97655527D01*
X235777320Y-97835554D01*
X235871966Y-97999486D01*
X235998629Y-98140159D01*
X236151769Y-98251421D01*
X236324697Y-98328414D01*
X236509852Y-98367770D01*
X236509854Y-98367770D01*
X236699148Y-98367770D01*
X236829795Y-98340000D01*
X236884303Y-98328414D01*
X237057230Y-98251421D01*
X237057519Y-98251211D01*
X237210370Y-98140159D01*
X237212084Y-98138256D01*
X237337033Y-97999486D01*
X237431679Y-97835554D01*
X237490174Y-97655526D01*
X237509960Y-97467270D01*
X237490174Y-97279014D01*
X237450775Y-97157756D01*
X237431679Y-97098985D01*
X237337033Y-96935053D01*
X237210370Y-96794380D01*
X237057230Y-96683118D01*
X236884302Y-96606125D01*
X236699148Y-96566770D01*
X236699146Y-96566770D01*
X236509854Y-96566770D01*
X236509852Y-96566770D01*
X236324697Y-96606125D01*
X236151769Y-96683118D01*
X235998629Y-96794380D01*
X235871966Y-96935053D01*
X235777320Y-97098985D01*
X235718826Y-97279012D01*
X235699040Y-97467269D01*
X230251104Y-97467269D01*
X230222533Y-97417783D01*
X230095870Y-97277110D01*
X229942730Y-97165848D01*
X229769802Y-97088855D01*
X229584648Y-97049500D01*
X229584646Y-97049500D01*
X229395354Y-97049500D01*
X229395352Y-97049500D01*
X229210197Y-97088855D01*
X229037269Y-97165848D01*
X228884129Y-97277110D01*
X228757466Y-97417783D01*
X228662820Y-97581715D01*
X228604326Y-97761742D01*
X228584540Y-97949999D01*
X196762848Y-97949999D01*
X196775460Y-97830000D01*
X196755674Y-97641744D01*
X196698984Y-97467270D01*
X196697179Y-97461715D01*
X196602533Y-97297783D01*
X196543726Y-97232472D01*
X196513496Y-97169481D01*
X196522121Y-97100146D01*
X196566862Y-97046480D01*
X196633515Y-97025522D01*
X196635876Y-97025500D01*
X197992676Y-97025500D01*
X197996000Y-97025500D01*
X198103456Y-97013947D01*
X198154967Y-97002741D01*
X198184165Y-96993022D01*
X198257503Y-96968614D01*
X198378541Y-96890826D01*
X198378543Y-96890825D01*
X198431347Y-96845070D01*
X198525567Y-96736336D01*
X198585338Y-96605459D01*
X198585338Y-96605457D01*
X198589022Y-96597392D01*
X198591154Y-96598365D01*
X198622054Y-96550286D01*
X198685610Y-96521262D01*
X198703256Y-96520000D01*
X199390000Y-96520000D01*
X237490000Y-96520000D01*
X239911325Y-96520000D01*
X239978364Y-96539685D01*
X240024119Y-96592489D01*
X240034063Y-96661647D01*
X240005038Y-96725203D01*
X240002731Y-96727319D01*
X240002850Y-96727426D01*
X239867466Y-96877783D01*
X239772820Y-97041715D01*
X239714326Y-97221742D01*
X239694540Y-97410000D01*
X239714326Y-97598257D01*
X239772820Y-97778284D01*
X239867466Y-97942216D01*
X239994129Y-98082889D01*
X240147269Y-98194151D01*
X240320197Y-98271144D01*
X240505352Y-98310500D01*
X240505354Y-98310500D01*
X240694648Y-98310500D01*
X240818083Y-98284262D01*
X240879803Y-98271144D01*
X241052730Y-98194151D01*
X241129663Y-98138256D01*
X241205870Y-98082889D01*
X241240131Y-98044839D01*
X241332533Y-97942216D01*
X241427179Y-97778284D01*
X241485674Y-97598256D01*
X241505460Y-97410000D01*
X241485674Y-97221744D01*
X241442496Y-97088856D01*
X241427179Y-97041715D01*
X241332533Y-96877783D01*
X241197150Y-96727426D01*
X241200463Y-96724442D01*
X241173128Y-96688999D01*
X241167142Y-96619386D01*
X241199743Y-96557588D01*
X241260578Y-96523225D01*
X241288675Y-96520000D01*
X242329850Y-96520000D01*
X242396889Y-96539685D01*
X242442644Y-96592489D01*
X242452588Y-96661647D01*
X242423563Y-96725203D01*
X242380286Y-96757279D01*
X242372269Y-96760848D01*
X242219129Y-96872110D01*
X242092466Y-97012783D01*
X241997820Y-97176715D01*
X241939326Y-97356742D01*
X241919540Y-97545000D01*
X241939326Y-97733257D01*
X241997820Y-97913284D01*
X242092466Y-98077216D01*
X242219129Y-98217889D01*
X242372269Y-98329151D01*
X242545197Y-98406144D01*
X242730352Y-98445500D01*
X242730354Y-98445500D01*
X242919648Y-98445500D01*
X243043084Y-98419262D01*
X243104803Y-98406144D01*
X243277730Y-98329151D01*
X243430871Y-98217888D01*
X243497498Y-98143891D01*
X243556983Y-98107243D01*
X243626840Y-98108573D01*
X243684889Y-98147460D01*
X243697034Y-98164864D01*
X243747466Y-98252216D01*
X243874129Y-98392889D01*
X244027269Y-98504151D01*
X244200197Y-98581144D01*
X244385352Y-98620500D01*
X244385354Y-98620500D01*
X244574648Y-98620500D01*
X244698083Y-98594262D01*
X244759803Y-98581144D01*
X244932730Y-98504151D01*
X244962921Y-98482216D01*
X245085870Y-98392889D01*
X245212533Y-98252216D01*
X245307179Y-98088284D01*
X245308932Y-98082888D01*
X245365674Y-97908256D01*
X245385460Y-97720000D01*
X245365674Y-97531744D01*
X245307179Y-97351716D01*
X245307179Y-97351715D01*
X245212533Y-97187783D01*
X245085870Y-97047110D01*
X244932730Y-96935848D01*
X244759802Y-96858855D01*
X244574648Y-96819500D01*
X244574646Y-96819500D01*
X244385354Y-96819500D01*
X244385352Y-96819500D01*
X244200197Y-96858855D01*
X244027269Y-96935848D01*
X243874129Y-97047111D01*
X243807501Y-97121108D01*
X243748014Y-97157756D01*
X243678157Y-97156425D01*
X243620109Y-97117538D01*
X243607965Y-97100134D01*
X243557534Y-97012785D01*
X243430870Y-96872110D01*
X243277730Y-96760848D01*
X243104802Y-96683855D01*
X242919648Y-96644500D01*
X242919646Y-96644500D01*
X242730354Y-96644500D01*
X242730353Y-96644500D01*
X242719774Y-96646748D01*
X242650107Y-96641428D01*
X242594376Y-96599288D01*
X242570274Y-96533707D01*
X242569999Y-96525456D01*
X242569999Y-96520000D01*
X242570000Y-96520000D01*
X242570000Y-91279999D01*
X243894540Y-91279999D01*
X243914326Y-91468257D01*
X243972820Y-91648284D01*
X244067466Y-91812216D01*
X244194129Y-91952889D01*
X244347269Y-92064151D01*
X244520197Y-92141144D01*
X244705352Y-92180500D01*
X244705354Y-92180500D01*
X244894648Y-92180500D01*
X245018084Y-92154262D01*
X245079803Y-92141144D01*
X245252730Y-92064151D01*
X245405871Y-91952888D01*
X245532533Y-91812216D01*
X245627179Y-91648284D01*
X245685674Y-91468256D01*
X245705460Y-91280000D01*
X245685674Y-91091744D01*
X245663885Y-91024688D01*
X245661891Y-90954848D01*
X245697971Y-90895015D01*
X245708932Y-90886053D01*
X245795870Y-90822889D01*
X245922533Y-90682216D01*
X246017179Y-90518284D01*
X246053886Y-90405312D01*
X246075674Y-90338256D01*
X246095460Y-90150000D01*
X246075674Y-89961744D01*
X246045332Y-89868363D01*
X246017179Y-89781715D01*
X245922533Y-89617783D01*
X245795870Y-89477110D01*
X245642730Y-89365848D01*
X245469802Y-89288855D01*
X245284648Y-89249500D01*
X245284646Y-89249500D01*
X245095354Y-89249500D01*
X245095352Y-89249500D01*
X244910197Y-89288855D01*
X244737269Y-89365848D01*
X244584129Y-89477110D01*
X244457466Y-89617783D01*
X244362820Y-89781715D01*
X244304326Y-89961742D01*
X244284540Y-90150000D01*
X244304326Y-90338259D01*
X244326113Y-90405312D01*
X244328108Y-90475153D01*
X244292027Y-90534986D01*
X244281067Y-90543947D01*
X244194129Y-90607110D01*
X244067466Y-90747783D01*
X243972820Y-90911715D01*
X243914326Y-91091742D01*
X243894540Y-91279999D01*
X242570000Y-91279999D01*
X242570000Y-89458033D01*
X242589685Y-89390994D01*
X242612794Y-89364322D01*
X242627347Y-89351713D01*
X242721567Y-89242979D01*
X242781338Y-89112102D01*
X242801023Y-89045063D01*
X242801024Y-89045059D01*
X242821500Y-88902643D01*
X242821499Y-88474499D01*
X242841183Y-88407461D01*
X242893987Y-88361706D01*
X242945499Y-88350500D01*
X243114648Y-88350500D01*
X243299800Y-88311145D01*
X243299801Y-88311144D01*
X243299803Y-88311144D01*
X243355794Y-88286214D01*
X243425042Y-88276929D01*
X243456665Y-88286215D01*
X243490197Y-88301144D01*
X243675352Y-88340500D01*
X243675354Y-88340500D01*
X243864648Y-88340500D01*
X243988084Y-88314262D01*
X244049803Y-88301144D01*
X244222730Y-88224151D01*
X244375870Y-88112889D01*
X244502533Y-87972216D01*
X244597179Y-87808284D01*
X244638175Y-87682111D01*
X244655674Y-87628256D01*
X244675460Y-87440000D01*
X244655674Y-87251744D01*
X244597179Y-87071716D01*
X244597179Y-87071715D01*
X244502533Y-86907783D01*
X244375870Y-86767110D01*
X244222730Y-86655848D01*
X244049802Y-86578855D01*
X243864648Y-86539500D01*
X243864646Y-86539500D01*
X243675354Y-86539500D01*
X243675352Y-86539500D01*
X243490198Y-86578854D01*
X243434204Y-86603785D01*
X243364953Y-86613069D01*
X243333336Y-86603785D01*
X243299803Y-86588856D01*
X243299802Y-86588855D01*
X243299798Y-86588854D01*
X243114648Y-86549500D01*
X243114646Y-86549500D01*
X242945500Y-86549500D01*
X242878461Y-86529815D01*
X242832706Y-86477011D01*
X242821500Y-86425500D01*
X242821500Y-84868171D01*
X242841185Y-84801132D01*
X242893989Y-84755377D01*
X242963147Y-84745433D01*
X242971281Y-84746881D01*
X243035353Y-84760500D01*
X243035354Y-84760500D01*
X243224648Y-84760500D01*
X243348084Y-84734262D01*
X243409803Y-84721144D01*
X243582730Y-84644151D01*
X243735871Y-84532888D01*
X243862533Y-84392216D01*
X243957179Y-84228284D01*
X244015674Y-84048256D01*
X244035460Y-83860000D01*
X244025941Y-83769438D01*
X244038510Y-83700713D01*
X244086242Y-83649689D01*
X244146730Y-83632507D01*
X247411843Y-83565873D01*
X247514017Y-83553303D01*
X247562998Y-83542123D01*
X247660503Y-83509117D01*
X247781542Y-83431329D01*
X247834346Y-83385574D01*
X247928566Y-83276840D01*
X247928566Y-83276838D01*
X247928568Y-83276837D01*
X247937406Y-83257487D01*
X247983161Y-83204683D01*
X248050199Y-83185000D01*
X250066000Y-83185000D01*
X250133039Y-83204685D01*
G37*
G04 #@! TD.AperFunction*
G04 #@! TA.AperFunction,Conductor*
G36*
X242258961Y-78531787D02*
G01*
X242304755Y-78584557D01*
X242315999Y-78636151D01*
X242315999Y-78719264D01*
X242316000Y-78719265D01*
X242315999Y-78719265D01*
X241300000Y-78740000D01*
X241300000Y-83185000D01*
X242315999Y-83164265D01*
X242315999Y-83435663D01*
X242304507Y-83478560D01*
X242306848Y-83479321D01*
X242244326Y-83671742D01*
X242224540Y-83860000D01*
X242244326Y-84048257D01*
X242306849Y-84240680D01*
X242304504Y-84241441D01*
X242316000Y-84284335D01*
X242316000Y-86838496D01*
X242296315Y-86905535D01*
X242289029Y-86915076D01*
X242192820Y-87081715D01*
X242134326Y-87261742D01*
X242114540Y-87450000D01*
X242134326Y-87638257D01*
X242192820Y-87818284D01*
X242293983Y-87993503D01*
X242291908Y-87994700D01*
X242314378Y-88041516D01*
X242316000Y-88061504D01*
X242316000Y-88902643D01*
X242296315Y-88969682D01*
X242243511Y-89015437D01*
X242191644Y-89026642D01*
X198120001Y-88899999D01*
X198120000Y-88900000D01*
X198120000Y-96396000D01*
X198100315Y-96463039D01*
X198047511Y-96508794D01*
X197996000Y-96520000D01*
X186103553Y-96520000D01*
X186036514Y-96500315D01*
X185996166Y-96457999D01*
X185932534Y-96347785D01*
X185805870Y-96207110D01*
X185652730Y-96095848D01*
X185479802Y-96018855D01*
X185294648Y-95979500D01*
X185294646Y-95979500D01*
X185105354Y-95979500D01*
X185105352Y-95979500D01*
X184920197Y-96018855D01*
X184747269Y-96095848D01*
X184594129Y-96207111D01*
X184486670Y-96326455D01*
X184427183Y-96363103D01*
X184357326Y-96361772D01*
X184299278Y-96322885D01*
X184271469Y-96258788D01*
X184271200Y-96230531D01*
X184275460Y-96190000D01*
X184255674Y-96001744D01*
X184197179Y-95821716D01*
X184197179Y-95821715D01*
X184102533Y-95657783D01*
X183975870Y-95517110D01*
X183822730Y-95405848D01*
X183649802Y-95328855D01*
X183464648Y-95289500D01*
X183464646Y-95289500D01*
X183275354Y-95289500D01*
X183275352Y-95289500D01*
X183090197Y-95328855D01*
X182917269Y-95405848D01*
X182764129Y-95517110D01*
X182637466Y-95657783D01*
X182542820Y-95821715D01*
X182484326Y-96001742D01*
X182474435Y-96095849D01*
X182464540Y-96190000D01*
X182482733Y-96363103D01*
X182484829Y-96383039D01*
X182472259Y-96451769D01*
X182424527Y-96502792D01*
X182361508Y-96520000D01*
X175441188Y-96520000D01*
X175444686Y-93469531D01*
X179244071Y-93469531D01*
X179263857Y-93657788D01*
X179322351Y-93837815D01*
X179416997Y-94001747D01*
X179543660Y-94142420D01*
X179696800Y-94253682D01*
X179869728Y-94330675D01*
X180054883Y-94370031D01*
X180054885Y-94370031D01*
X180244179Y-94370031D01*
X180367615Y-94343793D01*
X180429334Y-94330675D01*
X180602261Y-94253682D01*
X180755402Y-94142419D01*
X180882064Y-94001747D01*
X180976710Y-93837815D01*
X181035205Y-93657787D01*
X181054991Y-93469531D01*
X181035205Y-93281275D01*
X180976710Y-93101247D01*
X180976710Y-93101246D01*
X180882064Y-92937314D01*
X180755401Y-92796641D01*
X180602261Y-92685379D01*
X180429333Y-92608386D01*
X180244179Y-92569031D01*
X180244177Y-92569031D01*
X180054885Y-92569031D01*
X180054883Y-92569031D01*
X179869728Y-92608386D01*
X179696800Y-92685379D01*
X179543660Y-92796641D01*
X179416997Y-92937314D01*
X179322351Y-93101246D01*
X179263857Y-93281273D01*
X179244071Y-93469531D01*
X175444686Y-93469531D01*
X175447371Y-91128017D01*
X182956522Y-91128017D01*
X182976308Y-91316275D01*
X183034802Y-91496302D01*
X183129448Y-91660234D01*
X183256111Y-91800907D01*
X183409251Y-91912169D01*
X183582179Y-91989162D01*
X183767334Y-92028518D01*
X183767336Y-92028518D01*
X183956630Y-92028518D01*
X184141782Y-91989163D01*
X184141783Y-91989162D01*
X184141785Y-91989162D01*
X184250598Y-91940714D01*
X184319845Y-91931429D01*
X184383122Y-91961057D01*
X184420336Y-92020192D01*
X184424270Y-92040603D01*
X184482820Y-92220802D01*
X184577466Y-92384734D01*
X184704129Y-92525407D01*
X184857269Y-92636669D01*
X185030193Y-92713661D01*
X185030196Y-92713661D01*
X185030197Y-92713662D01*
X185030381Y-92713701D01*
X185030841Y-92713949D01*
X185042104Y-92718964D01*
X185041721Y-92719823D01*
X185091864Y-92746893D01*
X185125641Y-92808056D01*
X185126582Y-92824482D01*
X185127678Y-92824367D01*
X185148826Y-93025585D01*
X185207320Y-93205612D01*
X185301966Y-93369544D01*
X185428629Y-93510217D01*
X185581769Y-93621479D01*
X185754697Y-93698472D01*
X185939852Y-93737828D01*
X185939854Y-93737828D01*
X186129148Y-93737828D01*
X186252583Y-93711590D01*
X186314303Y-93698472D01*
X186487230Y-93621479D01*
X186640371Y-93510216D01*
X186767033Y-93369544D01*
X186861679Y-93205612D01*
X186920174Y-93025584D01*
X186939960Y-92837328D01*
X186920174Y-92649072D01*
X186861679Y-92469044D01*
X186861679Y-92469043D01*
X186767033Y-92305111D01*
X186640370Y-92164438D01*
X186487230Y-92053176D01*
X186314300Y-91976182D01*
X186314111Y-91976142D01*
X186313645Y-91975890D01*
X186302396Y-91970882D01*
X186302778Y-91970023D01*
X186252630Y-91942947D01*
X186218856Y-91881782D01*
X186217919Y-91865363D01*
X186216822Y-91865479D01*
X186214821Y-91846441D01*
X186195674Y-91664262D01*
X186137179Y-91484234D01*
X186137179Y-91484233D01*
X186042533Y-91320301D01*
X185915870Y-91179628D01*
X185762730Y-91068366D01*
X185589802Y-90991373D01*
X185404648Y-90952018D01*
X185404646Y-90952018D01*
X185215354Y-90952018D01*
X185215352Y-90952018D01*
X185030197Y-90991373D01*
X184921385Y-91039820D01*
X184852135Y-91049105D01*
X184788858Y-91019477D01*
X184751645Y-90960342D01*
X184747710Y-90939932D01*
X184747656Y-90939767D01*
X184747656Y-90939762D01*
X184734736Y-90900000D01*
X186614540Y-90900000D01*
X186634326Y-91088257D01*
X186692820Y-91268284D01*
X186787466Y-91432216D01*
X186914129Y-91572889D01*
X187067269Y-91684151D01*
X187240197Y-91761144D01*
X187425352Y-91800500D01*
X187425354Y-91800500D01*
X187614648Y-91800500D01*
X187738083Y-91774262D01*
X187799803Y-91761144D01*
X187869753Y-91730000D01*
X189354540Y-91730000D01*
X189374326Y-91918257D01*
X189432820Y-92098284D01*
X189527466Y-92262216D01*
X189654129Y-92402889D01*
X189807269Y-92514151D01*
X189980197Y-92591144D01*
X190165352Y-92630500D01*
X190165354Y-92630500D01*
X190354648Y-92630500D01*
X190478084Y-92604262D01*
X190539803Y-92591144D01*
X190712730Y-92514151D01*
X190865871Y-92402888D01*
X190992533Y-92262216D01*
X191087179Y-92098284D01*
X191145674Y-91918256D01*
X191165460Y-91730000D01*
X191145674Y-91541744D01*
X191087179Y-91361716D01*
X191087179Y-91361715D01*
X190992533Y-91197783D01*
X190865870Y-91057110D01*
X190712730Y-90945848D01*
X190539802Y-90868855D01*
X190354648Y-90829500D01*
X190354646Y-90829500D01*
X190165354Y-90829500D01*
X190165352Y-90829500D01*
X189980197Y-90868855D01*
X189807269Y-90945848D01*
X189654129Y-91057110D01*
X189527466Y-91197783D01*
X189432820Y-91361715D01*
X189374326Y-91541742D01*
X189354540Y-91730000D01*
X187869753Y-91730000D01*
X187972730Y-91684151D01*
X188125871Y-91572888D01*
X188252533Y-91432216D01*
X188347179Y-91268284D01*
X188405674Y-91088256D01*
X188425460Y-90900000D01*
X188405674Y-90711744D01*
X188347179Y-90531716D01*
X188347179Y-90531715D01*
X188252533Y-90367783D01*
X188125870Y-90227110D01*
X187972730Y-90115848D01*
X187799802Y-90038855D01*
X187614648Y-89999500D01*
X187614646Y-89999500D01*
X187425354Y-89999500D01*
X187425352Y-89999500D01*
X187240197Y-90038855D01*
X187067269Y-90115848D01*
X186914129Y-90227110D01*
X186787466Y-90367783D01*
X186692820Y-90531715D01*
X186634326Y-90711742D01*
X186614540Y-90900000D01*
X184734736Y-90900000D01*
X184689161Y-90759734D01*
X184689161Y-90759733D01*
X184594515Y-90595801D01*
X184467852Y-90455128D01*
X184314712Y-90343866D01*
X184141784Y-90266873D01*
X183956630Y-90227518D01*
X183956628Y-90227518D01*
X183767336Y-90227518D01*
X183767334Y-90227518D01*
X183582179Y-90266873D01*
X183409251Y-90343866D01*
X183256111Y-90455128D01*
X183129448Y-90595801D01*
X183034802Y-90759733D01*
X182976308Y-90939760D01*
X182956522Y-91128017D01*
X175447371Y-91128017D01*
X175450694Y-88229999D01*
X193894540Y-88229999D01*
X193914326Y-88418257D01*
X193972820Y-88598284D01*
X194067466Y-88762216D01*
X194194129Y-88902889D01*
X194347269Y-89014151D01*
X194520197Y-89091144D01*
X194705352Y-89130500D01*
X194705354Y-89130500D01*
X194894648Y-89130500D01*
X195018083Y-89104262D01*
X195079803Y-89091144D01*
X195252730Y-89014151D01*
X195405871Y-88902888D01*
X195532533Y-88762216D01*
X195627179Y-88598284D01*
X195685674Y-88418256D01*
X195705460Y-88230000D01*
X195685674Y-88041744D01*
X195627179Y-87861716D01*
X195627179Y-87861715D01*
X195532533Y-87697783D01*
X195405870Y-87557110D01*
X195252730Y-87445848D01*
X195079802Y-87368855D01*
X194894648Y-87329500D01*
X194894646Y-87329500D01*
X194705354Y-87329500D01*
X194705352Y-87329500D01*
X194520197Y-87368855D01*
X194347269Y-87445848D01*
X194194129Y-87557110D01*
X194067466Y-87697783D01*
X193972820Y-87861715D01*
X193914326Y-88041742D01*
X193894540Y-88229999D01*
X175450694Y-88229999D01*
X175453296Y-85959999D01*
X176184540Y-85959999D01*
X176204326Y-86148257D01*
X176262820Y-86328284D01*
X176357466Y-86492216D01*
X176484129Y-86632889D01*
X176637269Y-86744151D01*
X176810197Y-86821144D01*
X176995352Y-86860500D01*
X176995354Y-86860500D01*
X177184648Y-86860500D01*
X177308083Y-86834262D01*
X177369803Y-86821144D01*
X177542730Y-86744151D01*
X177695871Y-86632888D01*
X177822533Y-86492216D01*
X177917179Y-86328284D01*
X177975674Y-86148256D01*
X177995460Y-85960000D01*
X177975674Y-85771744D01*
X177917179Y-85591716D01*
X177917179Y-85591715D01*
X177822533Y-85427783D01*
X177695870Y-85287110D01*
X177542730Y-85175848D01*
X177369802Y-85098855D01*
X177184648Y-85059500D01*
X177184646Y-85059500D01*
X176995354Y-85059500D01*
X176995352Y-85059500D01*
X176810197Y-85098855D01*
X176637269Y-85175848D01*
X176484129Y-85287110D01*
X176357466Y-85427783D01*
X176262820Y-85591715D01*
X176204326Y-85771742D01*
X176184540Y-85959999D01*
X175453296Y-85959999D01*
X175455509Y-84030016D01*
X180490068Y-84030016D01*
X180509854Y-84218273D01*
X180568348Y-84398300D01*
X180662994Y-84562232D01*
X180789657Y-84702905D01*
X180942797Y-84814167D01*
X181115725Y-84891160D01*
X181300880Y-84930516D01*
X181300882Y-84930516D01*
X181490176Y-84930516D01*
X181613612Y-84904278D01*
X181675331Y-84891160D01*
X181848258Y-84814167D01*
X182001399Y-84702904D01*
X182128061Y-84562232D01*
X182222707Y-84398300D01*
X182264394Y-84270000D01*
X186854540Y-84270000D01*
X186874326Y-84458257D01*
X186932820Y-84638284D01*
X187027466Y-84802216D01*
X187154129Y-84942889D01*
X187307269Y-85054151D01*
X187480197Y-85131144D01*
X187665352Y-85170500D01*
X187665354Y-85170500D01*
X187854648Y-85170500D01*
X187978084Y-85144262D01*
X188039803Y-85131144D01*
X188212730Y-85054151D01*
X188365871Y-84942888D01*
X188492533Y-84802216D01*
X188587179Y-84638284D01*
X188645674Y-84458256D01*
X188665460Y-84270000D01*
X188645674Y-84081744D01*
X188587179Y-83901716D01*
X188587179Y-83901715D01*
X188518073Y-83782020D01*
X191782873Y-83782020D01*
X191802659Y-83970278D01*
X191861153Y-84150305D01*
X191955799Y-84314237D01*
X192082462Y-84454910D01*
X192235602Y-84566172D01*
X192408530Y-84643165D01*
X192593685Y-84682521D01*
X192593687Y-84682521D01*
X192782981Y-84682521D01*
X192980885Y-84640456D01*
X192981455Y-84643138D01*
X193031718Y-84636390D01*
X193085808Y-84658638D01*
X193217270Y-84754151D01*
X193217271Y-84754151D01*
X193217272Y-84754152D01*
X193390197Y-84831144D01*
X193575352Y-84870500D01*
X193575354Y-84870500D01*
X193764648Y-84870500D01*
X193888084Y-84844262D01*
X193949803Y-84831144D01*
X194122730Y-84754151D01*
X194122730Y-84754150D01*
X194275870Y-84642889D01*
X194402533Y-84502216D01*
X194497179Y-84338284D01*
X194528645Y-84241441D01*
X194555674Y-84158256D01*
X194575460Y-83970000D01*
X194555674Y-83781744D01*
X194519932Y-83671742D01*
X194497179Y-83601715D01*
X194402533Y-83437783D01*
X194275870Y-83297110D01*
X194122730Y-83185848D01*
X193949802Y-83108855D01*
X193764648Y-83069500D01*
X193764646Y-83069500D01*
X193575354Y-83069500D01*
X193575352Y-83069500D01*
X193377449Y-83111565D01*
X193376879Y-83108885D01*
X193326583Y-83115625D01*
X193272522Y-83093380D01*
X193141063Y-82997870D01*
X193141062Y-82997869D01*
X193141060Y-82997868D01*
X192968135Y-82920876D01*
X192782981Y-82881521D01*
X192782979Y-82881521D01*
X192593687Y-82881521D01*
X192593685Y-82881521D01*
X192408530Y-82920876D01*
X192235602Y-82997869D01*
X192082462Y-83109131D01*
X191955799Y-83249804D01*
X191861153Y-83413736D01*
X191802659Y-83593763D01*
X191782873Y-83782020D01*
X188518073Y-83782020D01*
X188492533Y-83737783D01*
X188365870Y-83597110D01*
X188212730Y-83485848D01*
X188039802Y-83408855D01*
X187854648Y-83369500D01*
X187854646Y-83369500D01*
X187665354Y-83369500D01*
X187665352Y-83369500D01*
X187480197Y-83408855D01*
X187307269Y-83485848D01*
X187154129Y-83597110D01*
X187027466Y-83737783D01*
X186932820Y-83901715D01*
X186874326Y-84081742D01*
X186854540Y-84270000D01*
X182264394Y-84270000D01*
X182281202Y-84218272D01*
X182300988Y-84030016D01*
X182281202Y-83841760D01*
X182225960Y-83671744D01*
X182222707Y-83661731D01*
X182128061Y-83497799D01*
X182001398Y-83357126D01*
X181848258Y-83245864D01*
X181675330Y-83168871D01*
X181490176Y-83129516D01*
X181490174Y-83129516D01*
X181300882Y-83129516D01*
X181300880Y-83129516D01*
X181115725Y-83168871D01*
X180942797Y-83245864D01*
X180789657Y-83357126D01*
X180662994Y-83497799D01*
X180568348Y-83661731D01*
X180509854Y-83841758D01*
X180490068Y-84030016D01*
X175455509Y-84030016D01*
X175456993Y-82735773D01*
X175476755Y-82668758D01*
X175529611Y-82623064D01*
X175598781Y-82613199D01*
X175662303Y-82642297D01*
X175673141Y-82652942D01*
X175747724Y-82735775D01*
X175754132Y-82742891D01*
X175907269Y-82854151D01*
X176080197Y-82931144D01*
X176265352Y-82970500D01*
X176265354Y-82970500D01*
X176454648Y-82970500D01*
X176578083Y-82944262D01*
X176639803Y-82931144D01*
X176812730Y-82854151D01*
X176965871Y-82742888D01*
X177092533Y-82602216D01*
X177187179Y-82438284D01*
X177245674Y-82258256D01*
X177265460Y-82070000D01*
X177265193Y-82067460D01*
X177266447Y-82060601D01*
X177266822Y-82057039D01*
X177267093Y-82057067D01*
X177277763Y-81998731D01*
X177325495Y-81947707D01*
X177388514Y-81930500D01*
X177554648Y-81930500D01*
X177678083Y-81904262D01*
X177739803Y-81891144D01*
X177912730Y-81814151D01*
X178065871Y-81702888D01*
X178075099Y-81692639D01*
X191571294Y-81692639D01*
X191591080Y-81880897D01*
X191649574Y-82060924D01*
X191744220Y-82224856D01*
X191870883Y-82365529D01*
X192024023Y-82476791D01*
X192196951Y-82553784D01*
X192382106Y-82593140D01*
X192382108Y-82593140D01*
X192571402Y-82593140D01*
X192694837Y-82566902D01*
X192756557Y-82553784D01*
X192929484Y-82476791D01*
X193082625Y-82365528D01*
X193209287Y-82224856D01*
X193303933Y-82060924D01*
X193362428Y-81880896D01*
X193382214Y-81692640D01*
X193362428Y-81504384D01*
X193303933Y-81324356D01*
X193303933Y-81324355D01*
X193209287Y-81160423D01*
X193082624Y-81019750D01*
X192929484Y-80908488D01*
X192756556Y-80831495D01*
X192571402Y-80792140D01*
X192571400Y-80792140D01*
X192382108Y-80792140D01*
X192382106Y-80792140D01*
X192196951Y-80831495D01*
X192024023Y-80908488D01*
X191870883Y-81019750D01*
X191744220Y-81160423D01*
X191649574Y-81324355D01*
X191591080Y-81504382D01*
X191571294Y-81692639D01*
X178075099Y-81692639D01*
X178192533Y-81562216D01*
X178287179Y-81398284D01*
X178345674Y-81218256D01*
X178365460Y-81030000D01*
X178345674Y-80841744D01*
X178303239Y-80711144D01*
X178287179Y-80661715D01*
X178223356Y-80551171D01*
X178206883Y-80483271D01*
X178229735Y-80417244D01*
X178284657Y-80374053D01*
X178354210Y-80367412D01*
X178381179Y-80375892D01*
X178550197Y-80451144D01*
X178735352Y-80490500D01*
X178735354Y-80490500D01*
X178924648Y-80490500D01*
X179048084Y-80464262D01*
X179109803Y-80451144D01*
X179282730Y-80374151D01*
X179435871Y-80262888D01*
X179562533Y-80122216D01*
X179657179Y-79958284D01*
X179715674Y-79778256D01*
X179735460Y-79590000D01*
X179715674Y-79401744D01*
X179685332Y-79308363D01*
X179657179Y-79221715D01*
X179562533Y-79057783D01*
X179435870Y-78917110D01*
X179282732Y-78805849D01*
X179260357Y-78795887D01*
X179207121Y-78750635D01*
X179186801Y-78683786D01*
X179205848Y-78616562D01*
X179258215Y-78570308D01*
X179310698Y-78558608D01*
X182234201Y-78556449D01*
X182301253Y-78576084D01*
X182347047Y-78628854D01*
X182357042Y-78698005D01*
X182341679Y-78742448D01*
X182272820Y-78861716D01*
X182214326Y-79041742D01*
X182194540Y-79230000D01*
X182214326Y-79418257D01*
X182272820Y-79598284D01*
X182367466Y-79762216D01*
X182494129Y-79902889D01*
X182647269Y-80014151D01*
X182820197Y-80091144D01*
X183005352Y-80130500D01*
X183005354Y-80130500D01*
X183194648Y-80130500D01*
X183318084Y-80104262D01*
X183379803Y-80091144D01*
X183552730Y-80014151D01*
X183705871Y-79902888D01*
X183753492Y-79850000D01*
X188144540Y-79850000D01*
X188164326Y-80038257D01*
X188222820Y-80218284D01*
X188317466Y-80382216D01*
X188444129Y-80522889D01*
X188597269Y-80634151D01*
X188770197Y-80711144D01*
X188955352Y-80750500D01*
X188955354Y-80750500D01*
X189144648Y-80750500D01*
X189268084Y-80724262D01*
X189329803Y-80711144D01*
X189502730Y-80634151D01*
X189639564Y-80534736D01*
X189655870Y-80522889D01*
X189782533Y-80382216D01*
X189877179Y-80218284D01*
X189893239Y-80168856D01*
X189935674Y-80038256D01*
X189955460Y-79850000D01*
X189935674Y-79661744D01*
X189877179Y-79481716D01*
X189877179Y-79481715D01*
X189782533Y-79317783D01*
X189655870Y-79177110D01*
X189502730Y-79065848D01*
X189329802Y-78988855D01*
X189144648Y-78949500D01*
X189144646Y-78949500D01*
X188955354Y-78949500D01*
X188955352Y-78949500D01*
X188770197Y-78988855D01*
X188597269Y-79065848D01*
X188444129Y-79177110D01*
X188317466Y-79317783D01*
X188222820Y-79481715D01*
X188164326Y-79661742D01*
X188144540Y-79850000D01*
X183753492Y-79850000D01*
X183832533Y-79762216D01*
X183927179Y-79598284D01*
X183985674Y-79418256D01*
X184005460Y-79230000D01*
X183985674Y-79041744D01*
X183933460Y-78881046D01*
X183927179Y-78861715D01*
X183857582Y-78741170D01*
X183841109Y-78673270D01*
X183863962Y-78607243D01*
X183918883Y-78564052D01*
X183964872Y-78555170D01*
X242191909Y-78512152D01*
X242258961Y-78531787D01*
G37*
G04 #@! TD.AperFunction*
M02*
