M48
; DRILL file {KiCad 8.0.5} date 2025-04-01T17:04:37-0500
; FORMAT={-:-/ absolute / metric / decimal}
; #@! TF.CreationDate,2025-04-01T17:04:37-05:00
; #@! TF.GenerationSoftware,Kicad,Pcbnew,8.0.5
; #@! TF.FileFunction,Plated,1,2,PTH
FMAT,2
METRIC
; #@! TA.AperFunction,Plated,PTH,ViaDrill
T1C0.300
; #@! TA.AperFunction,Plated,PTH,ViaDrill
T2C0.600
; #@! TA.AperFunction,Plated,PTH,ComponentDrill
T3C1.000
%
G90
G05
T1
X83.35Y-100.55
X84.0Y-101.0
X97.008Y-100.957
X109.84Y-101.17
X110.63Y-101.56
X123.3Y-100.99
X123.958Y-101.229
X136.58Y-100.78
X137.25Y-101.16
X150.12Y-100.9
X150.9Y-101.1
X163.58Y-100.84
X164.3Y-101.1
X176.92Y-101.0
X177.7Y-101.1
X190.22Y-100.9
X191.1Y-101.0
X203.46Y-101.03
X204.12Y-101.46
X217.165Y-100.93
X217.825Y-101.36
T2
X87.9Y-97.15
X93.293Y-102.585
X101.1Y-97.1
X109.1Y-101.9
X114.4Y-96.8
X122.7Y-102.2
X128.4Y-97.0
X136.0Y-101.9
X141.8Y-96.7
X149.5Y-101.7
X155.0Y-96.9
X162.7Y-101.9
X168.2Y-96.9
X182.3Y-96.8
X189.5Y-102.0
X195.4Y-96.7
X202.6Y-101.8
X208.6Y-96.8
X216.2Y-102.4
X222.1Y-98.8
X227.301Y-101.2
T3
X79.3Y-97.56
X79.3Y-100.1
X79.3Y-102.64
X230.0Y-97.56
X230.0Y-100.1
X230.0Y-102.64
M30
