G04 #@! TF.GenerationSoftware,KiCad,Pcbnew,8.0.5*
G04 #@! TF.CreationDate,2025-04-01T17:04:32-05:00*
G04 #@! TF.ProjectId,spudglo_led_cylinder_1p0,73707564-676c-46f5-9f6c-65645f63796c,rev?*
G04 #@! TF.SameCoordinates,Original*
G04 #@! TF.FileFunction,Copper,L1,Top*
G04 #@! TF.FilePolarity,Positive*
%FSLAX46Y46*%
G04 Gerber Fmt 4.6, Leading zero omitted, Abs format (unit mm)*
G04 Created by KiCad (PCBNEW 8.0.5) date 2025-04-01 17:04:32*
%MOMM*%
%LPD*%
G01*
G04 APERTURE LIST*
G04 Aperture macros list*
%AMRoundRect*
0 Rectangle with rounded corners*
0 $1 Rounding radius*
0 $2 $3 $4 $5 $6 $7 $8 $9 X,Y pos of 4 corners*
0 Add a 4 corners polygon primitive as box body*
4,1,4,$2,$3,$4,$5,$6,$7,$8,$9,$2,$3,0*
0 Add four circle primitives for the rounded corners*
1,1,$1+$1,$2,$3*
1,1,$1+$1,$4,$5*
1,1,$1+$1,$6,$7*
1,1,$1+$1,$8,$9*
0 Add four rect primitives between the rounded corners*
20,1,$1+$1,$2,$3,$4,$5,0*
20,1,$1+$1,$4,$5,$6,$7,0*
20,1,$1+$1,$6,$7,$8,$9,0*
20,1,$1+$1,$8,$9,$2,$3,0*%
G04 Aperture macros list end*
G04 #@! TA.AperFunction,SMDPad,CuDef*
%ADD10RoundRect,0.155000X-0.212500X-0.155000X0.212500X-0.155000X0.212500X0.155000X-0.212500X0.155000X0*%
G04 #@! TD*
G04 #@! TA.AperFunction,SMDPad,CuDef*
%ADD11RoundRect,0.160000X-0.197500X-0.160000X0.197500X-0.160000X0.197500X0.160000X-0.197500X0.160000X0*%
G04 #@! TD*
G04 #@! TA.AperFunction,SMDPad,CuDef*
%ADD12RoundRect,0.160000X-0.160000X0.197500X-0.160000X-0.197500X0.160000X-0.197500X0.160000X0.197500X0*%
G04 #@! TD*
G04 #@! TA.AperFunction,ComponentPad*
%ADD13R,1.700000X1.700000*%
G04 #@! TD*
G04 #@! TA.AperFunction,ComponentPad*
%ADD14O,1.700000X1.700000*%
G04 #@! TD*
G04 #@! TA.AperFunction,SMDPad,CuDef*
%ADD15R,1.500000X1.000000*%
G04 #@! TD*
G04 #@! TA.AperFunction,ViaPad*
%ADD16C,1.200000*%
G04 #@! TD*
G04 #@! TA.AperFunction,ViaPad*
%ADD17C,0.600000*%
G04 #@! TD*
G04 #@! TA.AperFunction,Conductor*
%ADD18C,0.750000*%
G04 #@! TD*
G04 #@! TA.AperFunction,Conductor*
%ADD19C,0.500000*%
G04 #@! TD*
G04 APERTURE END LIST*
D10*
X92570000Y-101500000D03*
X93705000Y-101500000D03*
X105970000Y-101800000D03*
X107105000Y-101800000D03*
X119470000Y-101800000D03*
X120605000Y-101800000D03*
X132832500Y-101900000D03*
X133967500Y-101900000D03*
X146170000Y-101800000D03*
X147305000Y-101800000D03*
X159470000Y-101900000D03*
X160605000Y-101900000D03*
X172932500Y-102000000D03*
X174067500Y-102000000D03*
X186332500Y-102000000D03*
X187467500Y-102000000D03*
X199732500Y-101800000D03*
X200867500Y-101800000D03*
X213170000Y-102200000D03*
X214305000Y-102200000D03*
X225732500Y-103900000D03*
X226867500Y-103900000D03*
D11*
X92502500Y-99500000D03*
X93697500Y-99500000D03*
X106002500Y-99700000D03*
X107197500Y-99700000D03*
X119402500Y-99800000D03*
X120597500Y-99800000D03*
X132802500Y-99900000D03*
X133997500Y-99900000D03*
X146102500Y-99800000D03*
X147297500Y-99800000D03*
X159402500Y-99900000D03*
X160597500Y-99900000D03*
X172902500Y-100000000D03*
X174097500Y-100000000D03*
X186302500Y-100000000D03*
X187497500Y-100000000D03*
X199702500Y-99700000D03*
X200897500Y-99700000D03*
X213102500Y-100200000D03*
X214297500Y-100200000D03*
D12*
X226200000Y-100790000D03*
X226200000Y-101985000D03*
D13*
X230000000Y-97560000D03*
D14*
X230000000Y-100100000D03*
X230000000Y-102640000D03*
D13*
X79300000Y-102640000D03*
D14*
X79300000Y-100100000D03*
X79300000Y-97560000D03*
D15*
X143834999Y-101634996D03*
X143834997Y-100034995D03*
X143834998Y-98434995D03*
X138934995Y-98434998D03*
X138934997Y-100034999D03*
X138934996Y-101634999D03*
X197334999Y-101734996D03*
X197334997Y-100134995D03*
X197334998Y-98534995D03*
X192434995Y-98534998D03*
X192434997Y-100134999D03*
X192434996Y-101734999D03*
X210734999Y-101934996D03*
X210734997Y-100334995D03*
X210734998Y-98734995D03*
X205834995Y-98734998D03*
X205834997Y-100334999D03*
X205834996Y-101934999D03*
X130434999Y-101734996D03*
X130434997Y-100134995D03*
X130434998Y-98534995D03*
X125534995Y-98534998D03*
X125534997Y-100134999D03*
X125534996Y-101734999D03*
X103534999Y-101734996D03*
X103534997Y-100134995D03*
X103534998Y-98534995D03*
X98634995Y-98534998D03*
X98634997Y-100134999D03*
X98634996Y-101734999D03*
X157134999Y-101734996D03*
X157134997Y-100134995D03*
X157134998Y-98534995D03*
X152234995Y-98534998D03*
X152234997Y-100134999D03*
X152234996Y-101734999D03*
X183925002Y-101734998D03*
X183925000Y-100134997D03*
X183925001Y-98534997D03*
X179024998Y-98535000D03*
X179025000Y-100135001D03*
X179024999Y-101735001D03*
X90184999Y-101734994D03*
X90184997Y-100134993D03*
X90184998Y-98534993D03*
X85284995Y-98534996D03*
X85284997Y-100134997D03*
X85284996Y-101734997D03*
X224250002Y-101899999D03*
X224250000Y-100299998D03*
X224250001Y-98699998D03*
X219349998Y-98700001D03*
X219350000Y-100300002D03*
X219349999Y-101900002D03*
X170552499Y-101734996D03*
X170552497Y-100134995D03*
X170552498Y-98534995D03*
X165652495Y-98534998D03*
X165652497Y-100134999D03*
X165652496Y-101734999D03*
X117034999Y-101734996D03*
X117034997Y-100134995D03*
X117034998Y-98534995D03*
X112134995Y-98534998D03*
X112134997Y-100134999D03*
X112134996Y-101734999D03*
D16*
X227301008Y-101200376D03*
X195400000Y-96700000D03*
X168200000Y-96900000D03*
X101100000Y-97100000D03*
X141800000Y-96700000D03*
X182300000Y-96800000D03*
X87900000Y-97150000D03*
X114400000Y-96800000D03*
X222100000Y-98800000D03*
X128400000Y-97000000D03*
X155000000Y-96900000D03*
X208600000Y-96800000D03*
D17*
X136580000Y-100780000D03*
X190220000Y-100900000D03*
D16*
X189500000Y-102000000D03*
X93292687Y-102585074D03*
D17*
X150120000Y-100900000D03*
X164300000Y-101100000D03*
D16*
X122700000Y-102200000D03*
D17*
X177700000Y-101100000D03*
X97007805Y-100957194D03*
X163580000Y-100840000D03*
X83350000Y-100550000D03*
X110630000Y-101560000D03*
X123957858Y-101229221D03*
D16*
X149500000Y-101700000D03*
X162700000Y-101900000D03*
D17*
X137250000Y-101160000D03*
X204120000Y-101460000D03*
D16*
X109100000Y-101900000D03*
D17*
X176920000Y-101000000D03*
X203460000Y-101030000D03*
X150900000Y-101100000D03*
X191100000Y-101000000D03*
D16*
X202600000Y-101800000D03*
D17*
X109840000Y-101170000D03*
D16*
X216200000Y-102400000D03*
D17*
X217165001Y-100930001D03*
X123300000Y-100990000D03*
X217825001Y-101360001D03*
D16*
X136000000Y-101900000D03*
D17*
X84000000Y-101000000D03*
D18*
X210734997Y-100334995D02*
X212967505Y-100334995D01*
X212967505Y-100334995D02*
X213102500Y-100200000D01*
X145300000Y-101634996D02*
X146019996Y-100915000D01*
X147300000Y-100500000D02*
X147300000Y-99802500D01*
X146019996Y-100915000D02*
X146885000Y-100915000D01*
X147300000Y-99802500D02*
X147297500Y-99800000D01*
X146885000Y-100915000D02*
X147300000Y-100500000D01*
X144069992Y-99800000D02*
X146102500Y-99800000D01*
X90184997Y-100134993D02*
X91867507Y-100134993D01*
X91867507Y-100134993D02*
X92502500Y-99500000D01*
X87900000Y-97150000D02*
X87900000Y-98649995D01*
X87900000Y-98649995D02*
X89384998Y-100134993D01*
X89384998Y-100134993D02*
X90184997Y-100134993D01*
X227301008Y-101200376D02*
X227800000Y-101699368D01*
X227800000Y-101699368D02*
X227800000Y-103262500D01*
X227800000Y-103262500D02*
X227162500Y-103900000D01*
X226200000Y-100790000D02*
X224740002Y-100790000D01*
X224740002Y-100790000D02*
X224250000Y-100299998D01*
X224250002Y-101899999D02*
X226114999Y-101899999D01*
X226114999Y-101899999D02*
X226200000Y-101985000D01*
X225732500Y-103900000D02*
X225732500Y-103367500D01*
X225732500Y-103367500D02*
X226200000Y-102900000D01*
X226200000Y-102900000D02*
X226200000Y-101985000D01*
X189500000Y-102000000D02*
X187467500Y-102000000D01*
X202600000Y-101800000D02*
X200867500Y-101800000D01*
X199068886Y-101734996D02*
X199667496Y-101734996D01*
X199667496Y-101734996D02*
X199732500Y-101800000D01*
X197334999Y-101734996D02*
X199068886Y-101734996D01*
X199068886Y-101734996D02*
X200897500Y-99906382D01*
X200897500Y-99906382D02*
X200897500Y-99700000D01*
X197334997Y-100134995D02*
X199267505Y-100134995D01*
X199267505Y-100134995D02*
X199702500Y-99700000D01*
X183925000Y-100134997D02*
X184059997Y-100000000D01*
X184059997Y-100000000D02*
X186302500Y-100000000D01*
X185800000Y-101734998D02*
X186328330Y-101734998D01*
X183925002Y-101734998D02*
X185800000Y-101734998D01*
X186067498Y-101734998D02*
X186332500Y-102000000D01*
X185800000Y-101734998D02*
X186067498Y-101734998D01*
X187497500Y-100565828D02*
X187497500Y-100000000D01*
X186328330Y-101734998D02*
X187497500Y-100565828D01*
X170552497Y-100134995D02*
X172767505Y-100134995D01*
X172767505Y-100134995D02*
X172902500Y-100000000D01*
X172400000Y-101734996D02*
X172928332Y-101734996D01*
X170552499Y-101734996D02*
X172400000Y-101734996D01*
X172400000Y-101734996D02*
X172667496Y-101734996D01*
X172667496Y-101734996D02*
X172932500Y-102000000D01*
X172928332Y-101734996D02*
X174097500Y-100565828D01*
X174097500Y-100565828D02*
X174097500Y-100000000D01*
X160597500Y-99900000D02*
X160597500Y-100503328D01*
X160597500Y-100503328D02*
X159470000Y-101630828D01*
X159470000Y-101630828D02*
X159470000Y-101900000D01*
X157134999Y-101734996D02*
X159304996Y-101734996D01*
X159304996Y-101734996D02*
X159470000Y-101900000D01*
X157134997Y-100134995D02*
X159167505Y-100134995D01*
X159167505Y-100134995D02*
X159402500Y-99900000D01*
X159402500Y-99900000D02*
X159000000Y-99900000D01*
X143834999Y-101634996D02*
X145300000Y-101634996D01*
X145300000Y-101634996D02*
X145465004Y-101800000D01*
X145465004Y-101800000D02*
X146170000Y-101800000D01*
X132802500Y-99900000D02*
X130669992Y-99900000D01*
X130669992Y-99900000D02*
X130434997Y-100134995D01*
X136000000Y-101900000D02*
X133967500Y-101900000D01*
X132300000Y-101734996D02*
X132728332Y-101734996D01*
X130434999Y-101734996D02*
X132300000Y-101734996D01*
X132300000Y-101734996D02*
X132667496Y-101734996D01*
X132667496Y-101734996D02*
X132832500Y-101900000D01*
X132728332Y-101734996D02*
X133997500Y-100465828D01*
X133997500Y-100465828D02*
X133997500Y-99900000D01*
X117034997Y-100134995D02*
X119067505Y-100134995D01*
X119067505Y-100134995D02*
X119402500Y-99800000D01*
X120605000Y-101800000D02*
X122300000Y-101800000D01*
X122300000Y-101800000D02*
X122700000Y-102200000D01*
X118982503Y-101734996D02*
X119047507Y-101800000D01*
X119047507Y-101800000D02*
X119470000Y-101800000D01*
X120597500Y-99800000D02*
X120597500Y-100119999D01*
X120597500Y-100119999D02*
X118982503Y-101734996D01*
X118982503Y-101734996D02*
X117034999Y-101734996D01*
X103534999Y-101734996D02*
X105500000Y-101734996D01*
X105500000Y-101734996D02*
X105904996Y-101734996D01*
X107197500Y-100019999D02*
X105500000Y-101717499D01*
X107197500Y-99700000D02*
X107197500Y-100019999D01*
X105500000Y-101717499D02*
X105500000Y-101734996D01*
X105904996Y-101734996D02*
X105970000Y-101800000D01*
X103534997Y-100134995D02*
X105567505Y-100134995D01*
X105567505Y-100134995D02*
X106002500Y-99700000D01*
X107105000Y-101800000D02*
X109000000Y-101800000D01*
X109000000Y-101800000D02*
X109100000Y-101900000D01*
X93292687Y-102585074D02*
X93705000Y-102172761D01*
X93705000Y-102172761D02*
X93705000Y-101500000D01*
D19*
X93697500Y-99500000D02*
X93800000Y-99602500D01*
X93800000Y-99602500D02*
X93800000Y-100146912D01*
X92730000Y-101216912D02*
X92730000Y-101500000D01*
X93800000Y-100146912D02*
X92730000Y-101216912D01*
X92495006Y-101734994D02*
X90184999Y-101734994D01*
X92730000Y-101500000D02*
X92495006Y-101734994D01*
X214107500Y-100200000D02*
X214107500Y-100687453D01*
X214107500Y-100687453D02*
X213330000Y-101464953D01*
X213330000Y-101464953D02*
X213330000Y-102200000D01*
X210734999Y-101934996D02*
X213064996Y-101934996D01*
X213064996Y-101934996D02*
X213330000Y-102200000D01*
D18*
X222499998Y-100299998D02*
X224250000Y-100299998D01*
X222100000Y-98800000D02*
X222100000Y-99900000D01*
X222100000Y-99900000D02*
X222499998Y-100299998D01*
D19*
X227900000Y-100100000D02*
X230100000Y-100100000D01*
X224250001Y-98699998D02*
X226499998Y-98699998D01*
X226499998Y-98699998D02*
X227900000Y-100100000D01*
D18*
X183125001Y-100134997D02*
X182300000Y-99309996D01*
X157134997Y-100134995D02*
X156334998Y-100134995D01*
X196534998Y-100134995D02*
X195800000Y-99399997D01*
X170552497Y-100134995D02*
X169825000Y-100134995D01*
X210734997Y-100334995D02*
X209934998Y-100334995D01*
X130434997Y-100134995D02*
X129634998Y-100134995D01*
X142800003Y-99800000D02*
X141800000Y-98799997D01*
X195800000Y-97100000D02*
X195400000Y-96700000D01*
X169825000Y-100134995D02*
X168200000Y-98509995D01*
X182300000Y-99309996D02*
X182300000Y-96800000D01*
X101100000Y-97100000D02*
X101100000Y-98499997D01*
X208600000Y-98999997D02*
X208600000Y-96800000D01*
X102734998Y-100134995D02*
X103534997Y-100134995D01*
X195800000Y-99399997D02*
X195800000Y-97100000D01*
X197334997Y-100134995D02*
X196534998Y-100134995D01*
X156334998Y-100134995D02*
X155000000Y-98799997D01*
X114400000Y-98999998D02*
X114400000Y-96800000D01*
X128400000Y-98899997D02*
X128400000Y-97000000D01*
X183925000Y-100134997D02*
X183125001Y-100134997D01*
X209934998Y-100334995D02*
X208600000Y-98999997D01*
X155000000Y-98799997D02*
X155000000Y-96900000D01*
X101100000Y-98499997D02*
X102734998Y-100134995D01*
X168200000Y-98509995D02*
X168200000Y-96900000D01*
X144069992Y-99800000D02*
X143834997Y-100034995D01*
X144069992Y-99800000D02*
X142800003Y-99800000D01*
X141800000Y-98799997D02*
X141800000Y-96700000D01*
X129634998Y-100134995D02*
X128400000Y-98899997D01*
X117034997Y-100134995D02*
X115534997Y-100134995D01*
X115534997Y-100134995D02*
X114400000Y-98999998D01*
D19*
X94425660Y-97300000D02*
X91419991Y-97300000D01*
X95557805Y-98432145D02*
X94425660Y-97300000D01*
X102757506Y-103107503D02*
X99834997Y-100184994D01*
X99834997Y-100184994D02*
X99834997Y-99184999D01*
X91419991Y-97300000D02*
X90184998Y-98534993D01*
X99834997Y-102684998D02*
X96684998Y-102684998D01*
X99834997Y-99184999D02*
X99184996Y-98534998D01*
X96684998Y-102684998D02*
X95557805Y-101557805D01*
X110762492Y-103107503D02*
X102757506Y-103107503D01*
X99184996Y-98534998D02*
X98634995Y-98534998D01*
X99834997Y-99184999D02*
X99834997Y-102684998D01*
X112134996Y-101734999D02*
X110762492Y-103107503D01*
X95557805Y-101557805D02*
X95557805Y-98432145D01*
X112099999Y-100100001D02*
X112134997Y-100134999D01*
X123300000Y-100990000D02*
X124089999Y-100200001D01*
D18*
X161075000Y-101900000D02*
X162700000Y-101900000D01*
D19*
X164219999Y-100200001D02*
X165599999Y-100200001D01*
X110630000Y-101089995D02*
X111584996Y-100134999D01*
X124070779Y-101229221D02*
X125065001Y-100234999D01*
X110630000Y-101560000D02*
X110630000Y-101089995D01*
X217795000Y-100300002D02*
X219405000Y-100300002D01*
X85284996Y-100134998D02*
X85284997Y-100134997D01*
X83799999Y-100100001D02*
X85299999Y-100100001D01*
X176920000Y-101000000D02*
X177719999Y-100200001D01*
D18*
X216000000Y-102200000D02*
X216200000Y-102400000D01*
D19*
X150120000Y-100900000D02*
X150819999Y-100200001D01*
X190220000Y-100900000D02*
X191019999Y-100100001D01*
X97864998Y-100100001D02*
X98699999Y-100100001D01*
X164300000Y-101100000D02*
X165165001Y-100234999D01*
X150900000Y-101100000D02*
X151765001Y-100234999D01*
X203460000Y-101030000D02*
X204089999Y-100400001D01*
D18*
X149400000Y-101800000D02*
X149500000Y-101700000D01*
D19*
X137250000Y-101150000D02*
X138365001Y-100034999D01*
X163580000Y-100840000D02*
X164219999Y-100200001D01*
X137359999Y-100000001D02*
X138799999Y-100000001D01*
X111584996Y-100134999D02*
X112134997Y-100134999D01*
X110909999Y-100100001D02*
X112099999Y-100100001D01*
X204120000Y-101460000D02*
X204240000Y-101460000D01*
X204089999Y-100400001D02*
X205699999Y-100400001D01*
X177719999Y-100200001D02*
X178999999Y-100200001D01*
X137250000Y-101160000D02*
X137250000Y-101150000D01*
X97007805Y-100957194D02*
X97864998Y-100100001D01*
X177700000Y-101100000D02*
X178565001Y-100234999D01*
X204240000Y-101460000D02*
X205265001Y-100434999D01*
X191019999Y-100100001D02*
X192399999Y-100100001D01*
D18*
X214775000Y-102200000D02*
X216000000Y-102200000D01*
D19*
X83350000Y-100550000D02*
X83799999Y-100100001D01*
X84000000Y-101000000D02*
X84865001Y-100134999D01*
X191100000Y-101000000D02*
X191965001Y-100134999D01*
D18*
X147775000Y-101800000D02*
X149400000Y-101800000D01*
D19*
X124089999Y-100200001D02*
X125499999Y-100200001D01*
X123957858Y-101229221D02*
X124070779Y-101229221D01*
X217945001Y-101360001D02*
X218970002Y-100335000D01*
X85284996Y-101734997D02*
X85284996Y-100134998D01*
X136580000Y-100780000D02*
X137359999Y-100000001D01*
X150819999Y-100200001D02*
X152199999Y-100200001D01*
X217165001Y-100930001D02*
X217795000Y-100300002D01*
X109840000Y-101170000D02*
X110909999Y-100100001D01*
X96257805Y-101267855D02*
X96724949Y-101734999D01*
X96257805Y-98142195D02*
X96257805Y-101267855D01*
X85284995Y-97315005D02*
X86500000Y-96100000D01*
D18*
X79100000Y-100100000D02*
X81000000Y-100100000D01*
X81000000Y-100100000D02*
X82565004Y-98534996D01*
D19*
X85284995Y-98534996D02*
X85284995Y-97315005D01*
X86500000Y-96100000D02*
X94215610Y-96100000D01*
X94215610Y-96100000D02*
X96257805Y-98142195D01*
D18*
X82565004Y-98534996D02*
X85284995Y-98534996D01*
D19*
X96724949Y-101734999D02*
X98634996Y-101734999D01*
X112134995Y-98534998D02*
X112684996Y-98534998D01*
X105069993Y-97000000D02*
X103534998Y-98534995D01*
X123769995Y-103500000D02*
X125534996Y-101734999D01*
X112134995Y-98534998D02*
X110599997Y-97000000D01*
X116650003Y-103500000D02*
X123769995Y-103500000D01*
X115834999Y-101685001D02*
X115834999Y-102684996D01*
X110599997Y-97000000D02*
X105069993Y-97000000D01*
X112684996Y-98534998D02*
X115834999Y-101685001D01*
X115834999Y-102684996D02*
X116650003Y-103500000D01*
X137394992Y-103175003D02*
X138934996Y-101634999D01*
X129234999Y-101685001D02*
X129234999Y-102534999D01*
X117034998Y-98534995D02*
X118369993Y-97200000D01*
X129875003Y-103175003D02*
X137394992Y-103175003D01*
X118369993Y-97200000D02*
X124199997Y-97200000D01*
X124199997Y-97200000D02*
X125534995Y-98534998D01*
X129234999Y-102534999D02*
X129875003Y-103175003D01*
X126084996Y-98534998D02*
X129234999Y-101685001D01*
X125534995Y-98534998D02*
X126084996Y-98534998D01*
X150902495Y-103067500D02*
X152234996Y-101734999D01*
X140400000Y-100100000D02*
X143367500Y-103067500D01*
X132169993Y-96800000D02*
X137299997Y-96800000D01*
X140400000Y-98650003D02*
X140400000Y-100100000D01*
X140184995Y-98434998D02*
X140400000Y-98650003D01*
X137299997Y-96800000D02*
X138934995Y-98434998D01*
X143367500Y-103067500D02*
X150902495Y-103067500D01*
X130434998Y-98534995D02*
X132169993Y-96800000D01*
X138934995Y-98434998D02*
X140184995Y-98434998D01*
X152784996Y-98534998D02*
X155934999Y-101685001D01*
X155934999Y-101685001D02*
X155934999Y-102684996D01*
X152234995Y-98534998D02*
X152784996Y-98534998D01*
X156432509Y-103182506D02*
X164204989Y-103182506D01*
X155934999Y-102684996D02*
X156432509Y-103182506D01*
X143834998Y-98434995D02*
X145069993Y-97200000D01*
X164204989Y-103182506D02*
X165652496Y-101734999D01*
X145069993Y-97200000D02*
X150899997Y-97200000D01*
X150899997Y-97200000D02*
X152234995Y-98534998D01*
X169352499Y-101685001D02*
X169352499Y-102452499D01*
X177584997Y-103175003D02*
X179024999Y-101735001D01*
X164417497Y-97300000D02*
X165652495Y-98534998D01*
X169352499Y-102452499D02*
X170075003Y-103175003D01*
X166202496Y-98534998D02*
X169352499Y-101685001D01*
X170075003Y-103175003D02*
X177584997Y-103175003D01*
X165652495Y-98534998D02*
X166202496Y-98534998D01*
X157134998Y-98534995D02*
X158369993Y-97300000D01*
X158369993Y-97300000D02*
X164417497Y-97300000D01*
X190969995Y-103200000D02*
X192434996Y-101734999D01*
X179024998Y-98535000D02*
X179574999Y-98535000D01*
X179574999Y-98535000D02*
X182725002Y-101685003D01*
X177989998Y-97500000D02*
X179024998Y-98535000D01*
X182725002Y-102684998D02*
X183240004Y-103200000D01*
X171587493Y-97500000D02*
X177989998Y-97500000D01*
X182725002Y-101685003D02*
X182725002Y-102684998D01*
X170552498Y-98534995D02*
X171587493Y-97500000D01*
X183240004Y-103200000D02*
X190969995Y-103200000D01*
X194900000Y-101449997D02*
X196557506Y-103107503D01*
X193834998Y-98534998D02*
X194900000Y-99600000D01*
X196557506Y-103107503D02*
X204662492Y-103107503D01*
X192434995Y-98534998D02*
X193834998Y-98534998D01*
X194900000Y-99600000D02*
X194900000Y-101449997D01*
X191299997Y-97400000D02*
X192434995Y-98534998D01*
X204662492Y-103107503D02*
X205834996Y-101934999D01*
X183925001Y-98534997D02*
X185059998Y-97400000D01*
X185059998Y-97400000D02*
X191299997Y-97400000D01*
X197334998Y-98534995D02*
X198769993Y-97100000D01*
X198769993Y-97100000D02*
X204199997Y-97100000D01*
X204199997Y-97100000D02*
X205834995Y-98734998D01*
X207084995Y-100434992D02*
X207084995Y-99434997D01*
X217750001Y-103500000D02*
X210150003Y-103500000D01*
X206384996Y-98734998D02*
X205834995Y-98734998D01*
X219349999Y-101900002D02*
X217750001Y-103500000D01*
X207084995Y-99434997D02*
X206384996Y-98734998D01*
X210150003Y-103500000D02*
X207084995Y-100434992D01*
X218499997Y-97850000D02*
X219349998Y-98700001D01*
X210734998Y-98734995D02*
X211619993Y-97850000D01*
X211619993Y-97850000D02*
X218499997Y-97850000D01*
D18*
X220900000Y-99549999D02*
X220900000Y-98338299D01*
X221678299Y-97560000D02*
X230100000Y-97560000D01*
X220149997Y-100300002D02*
X220900000Y-99549999D01*
X220900000Y-98338299D02*
X221678299Y-97560000D01*
X219350000Y-100300002D02*
X220149997Y-100300002D01*
G04 #@! TA.AperFunction,Conductor*
G36*
X83978036Y-100154682D02*
G01*
X84023791Y-100207486D01*
X84034997Y-100258997D01*
X84034997Y-100682841D01*
X84041398Y-100742369D01*
X84041400Y-100742376D01*
X84094743Y-100885396D01*
X84093086Y-100886013D01*
X84105667Y-100943843D01*
X84093803Y-100984247D01*
X84094742Y-100984598D01*
X84041399Y-101127617D01*
X84041397Y-101127624D01*
X84034996Y-101187152D01*
X84034996Y-101484997D01*
X85034996Y-101484997D01*
X85034996Y-100743360D01*
X85034997Y-100743356D01*
X85034997Y-100134997D01*
X85534997Y-100134997D01*
X85534997Y-101126634D01*
X85534996Y-101126637D01*
X85534996Y-101484997D01*
X86534996Y-101484997D01*
X86534996Y-101187169D01*
X86534995Y-101187152D01*
X86528594Y-101127624D01*
X86528592Y-101127617D01*
X86475250Y-100984598D01*
X86476906Y-100983980D01*
X86464324Y-100926157D01*
X86476190Y-100885745D01*
X86475250Y-100885395D01*
X86528592Y-100742378D01*
X86530172Y-100735692D01*
X86564740Y-100674972D01*
X86626647Y-100642580D01*
X86655067Y-100640802D01*
X86655067Y-100640497D01*
X86659496Y-100640497D01*
X88600996Y-100640497D01*
X88668035Y-100660182D01*
X88688677Y-100676816D01*
X88704953Y-100693092D01*
X88767233Y-100755372D01*
X88826900Y-100815039D01*
X88929880Y-100883848D01*
X88974685Y-100937460D01*
X88983392Y-101006785D01*
X88977171Y-101030283D01*
X88940907Y-101127511D01*
X88935352Y-101179186D01*
X88934500Y-101187117D01*
X88934499Y-101187129D01*
X88934500Y-102282856D01*
X88934500Y-102282870D01*
X88940907Y-102342477D01*
X88991201Y-102477322D01*
X88991205Y-102477329D01*
X89077451Y-102592538D01*
X89077454Y-102592541D01*
X89192663Y-102678787D01*
X89192670Y-102678791D01*
X89327516Y-102729085D01*
X89327515Y-102729085D01*
X89334306Y-102729815D01*
X89387126Y-102735494D01*
X90982871Y-102735493D01*
X91042482Y-102729085D01*
X91177330Y-102678790D01*
X91292545Y-102592540D01*
X91330019Y-102542482D01*
X91335484Y-102535182D01*
X91391418Y-102493312D01*
X91434750Y-102485494D01*
X92568926Y-102485494D01*
X92666468Y-102466090D01*
X92713919Y-102456652D01*
X92850501Y-102400078D01*
X92913327Y-102358099D01*
X92973422Y-102317946D01*
X93001905Y-102289461D01*
X93040339Y-102263343D01*
X93044888Y-102261373D01*
X93044900Y-102261370D01*
X93074871Y-102243644D01*
X93142590Y-102226461D01*
X93201113Y-102243645D01*
X93230300Y-102260906D01*
X93230305Y-102260908D01*
X93389216Y-102307077D01*
X93389222Y-102307078D01*
X93426342Y-102309999D01*
X93426358Y-102310000D01*
X93455000Y-102310000D01*
X93455000Y-101714325D01*
X93457383Y-101690133D01*
X93458190Y-101686079D01*
X93478773Y-101582600D01*
X93480500Y-101573918D01*
X93480500Y-101573910D01*
X93481097Y-101567858D01*
X93483736Y-101568117D01*
X93500185Y-101512102D01*
X93516819Y-101491460D01*
X93721960Y-101286319D01*
X93783283Y-101252834D01*
X93809641Y-101250000D01*
X93831000Y-101250000D01*
X93898039Y-101269685D01*
X93943794Y-101322489D01*
X93955000Y-101374000D01*
X93955000Y-102310000D01*
X93983642Y-102310000D01*
X93983657Y-102309999D01*
X94020777Y-102307078D01*
X94020783Y-102307077D01*
X94179694Y-102260908D01*
X94179697Y-102260907D01*
X94322142Y-102176666D01*
X94322150Y-102176660D01*
X94439160Y-102059650D01*
X94439166Y-102059642D01*
X94523407Y-101917197D01*
X94523408Y-101917194D01*
X94569577Y-101758283D01*
X94569578Y-101758277D01*
X94572499Y-101721157D01*
X94572500Y-101721142D01*
X94572500Y-101710271D01*
X94592185Y-101643232D01*
X94644989Y-101597477D01*
X94714147Y-101587533D01*
X94777703Y-101616558D01*
X94815477Y-101675336D01*
X94818117Y-101686079D01*
X94836145Y-101776712D01*
X94836148Y-101776722D01*
X94892717Y-101913293D01*
X94892725Y-101913307D01*
X94918609Y-101952044D01*
X94918610Y-101952047D01*
X94918611Y-101952047D01*
X94964599Y-102020875D01*
X94974856Y-102036225D01*
X94974857Y-102036226D01*
X95908466Y-102969833D01*
X96206583Y-103267950D01*
X96215515Y-103273918D01*
X96329503Y-103350082D01*
X96329504Y-103350082D01*
X96329505Y-103350083D01*
X96386077Y-103373516D01*
X96386078Y-103373516D01*
X96466086Y-103406657D01*
X96582239Y-103429761D01*
X96601466Y-103433585D01*
X96611079Y-103435498D01*
X96611080Y-103435498D01*
X99908917Y-103435498D01*
X100006459Y-103416094D01*
X100053910Y-103406656D01*
X100190492Y-103350082D01*
X100313413Y-103267949D01*
X100417948Y-103163414D01*
X100500081Y-103040493D01*
X100556655Y-102903911D01*
X100570762Y-102832993D01*
X100585497Y-102758918D01*
X100585497Y-102296224D01*
X100605182Y-102229185D01*
X100657986Y-102183430D01*
X100727144Y-102173486D01*
X100790700Y-102202511D01*
X100797178Y-102208543D01*
X102279090Y-103690455D01*
X102303794Y-103706961D01*
X102342137Y-103732581D01*
X102342139Y-103732582D01*
X102342142Y-103732584D01*
X102402011Y-103772587D01*
X102402012Y-103772587D01*
X102402013Y-103772588D01*
X102502078Y-103814036D01*
X102538593Y-103829161D01*
X102538597Y-103829161D01*
X102538598Y-103829162D01*
X102683585Y-103858003D01*
X102683588Y-103858003D01*
X110836412Y-103858003D01*
X110933954Y-103838599D01*
X110981405Y-103829161D01*
X111117987Y-103772587D01*
X111177856Y-103732584D01*
X111177856Y-103732583D01*
X111177858Y-103732583D01*
X111216204Y-103706961D01*
X111240908Y-103690455D01*
X112159545Y-102771816D01*
X112220868Y-102738332D01*
X112247226Y-102735498D01*
X112932867Y-102735498D01*
X112932868Y-102735498D01*
X112992479Y-102729090D01*
X113127327Y-102678795D01*
X113242542Y-102592545D01*
X113328792Y-102477330D01*
X113379087Y-102342482D01*
X113385496Y-102282872D01*
X113385495Y-101187127D01*
X113379087Y-101127516D01*
X113379086Y-101127513D01*
X113325693Y-100984358D01*
X113327262Y-100983772D01*
X113314611Y-100925637D01*
X113326311Y-100885793D01*
X113325250Y-100885397D01*
X113378594Y-100742375D01*
X113378595Y-100742371D01*
X113384996Y-100682843D01*
X113384997Y-100682826D01*
X113384997Y-100595729D01*
X113404682Y-100528690D01*
X113457486Y-100482935D01*
X113526644Y-100472991D01*
X113590200Y-100502016D01*
X113596678Y-100508048D01*
X115048180Y-101959550D01*
X115081665Y-102020873D01*
X115084499Y-102047231D01*
X115084499Y-102758914D01*
X115084499Y-102758916D01*
X115084498Y-102758916D01*
X115113339Y-102903903D01*
X115113342Y-102903913D01*
X115169912Y-103040486D01*
X115169913Y-103040488D01*
X115202662Y-103089500D01*
X115202663Y-103089502D01*
X115252042Y-103163406D01*
X115252046Y-103163411D01*
X116171581Y-104082947D01*
X116171588Y-104082953D01*
X116228830Y-104121200D01*
X116228832Y-104121201D01*
X116228835Y-104121203D01*
X116294508Y-104165084D01*
X116294509Y-104165084D01*
X116294510Y-104165085D01*
X116351082Y-104188518D01*
X116351083Y-104188518D01*
X116431091Y-104221659D01*
X116538381Y-104243000D01*
X116563517Y-104248000D01*
X116576084Y-104250500D01*
X116576085Y-104250500D01*
X123843915Y-104250500D01*
X123941457Y-104231096D01*
X123988908Y-104221658D01*
X124125490Y-104165084D01*
X124191163Y-104121203D01*
X124191166Y-104121200D01*
X124191168Y-104121200D01*
X124219978Y-104101949D01*
X124248411Y-104082952D01*
X125559544Y-102771816D01*
X125620867Y-102738332D01*
X125647225Y-102735498D01*
X126332867Y-102735498D01*
X126332868Y-102735498D01*
X126392479Y-102729090D01*
X126527327Y-102678795D01*
X126642542Y-102592545D01*
X126728792Y-102477330D01*
X126779087Y-102342482D01*
X126785496Y-102282872D01*
X126785495Y-101187127D01*
X126779087Y-101127516D01*
X126779086Y-101127513D01*
X126725693Y-100984358D01*
X126727262Y-100983772D01*
X126714611Y-100925637D01*
X126726311Y-100885793D01*
X126725250Y-100885397D01*
X126778594Y-100742375D01*
X126778595Y-100742371D01*
X126784996Y-100682843D01*
X126784997Y-100682826D01*
X126784997Y-100595729D01*
X126804682Y-100528690D01*
X126857486Y-100482935D01*
X126926644Y-100472991D01*
X126990200Y-100502016D01*
X126996678Y-100508048D01*
X128448180Y-101959550D01*
X128481665Y-102020873D01*
X128484499Y-102047231D01*
X128484499Y-102608917D01*
X128484499Y-102608919D01*
X128484498Y-102608919D01*
X128513339Y-102753906D01*
X128513342Y-102753916D01*
X128569913Y-102890491D01*
X128569914Y-102890493D01*
X128569915Y-102890494D01*
X128596923Y-102930915D01*
X128597537Y-102931833D01*
X128597538Y-102931836D01*
X128652045Y-103013413D01*
X128652051Y-103013420D01*
X129396583Y-103757951D01*
X129396587Y-103757954D01*
X129519501Y-103840083D01*
X129519514Y-103840090D01*
X129656085Y-103896659D01*
X129656090Y-103896661D01*
X129656094Y-103896661D01*
X129656095Y-103896662D01*
X129801082Y-103925503D01*
X129801085Y-103925503D01*
X137468912Y-103925503D01*
X137576196Y-103904162D01*
X137613905Y-103896661D01*
X137750487Y-103840087D01*
X137799721Y-103807189D01*
X137799726Y-103807186D01*
X137826710Y-103789156D01*
X137873408Y-103757955D01*
X138959544Y-102671816D01*
X139020867Y-102638332D01*
X139047225Y-102635498D01*
X139732867Y-102635498D01*
X139732868Y-102635498D01*
X139792479Y-102629090D01*
X139927327Y-102578795D01*
X140042542Y-102492545D01*
X140128792Y-102377330D01*
X140179087Y-102242482D01*
X140185496Y-102182872D01*
X140185495Y-101246224D01*
X140205179Y-101179186D01*
X140257983Y-101133431D01*
X140327142Y-101123487D01*
X140390698Y-101152512D01*
X140397176Y-101158544D01*
X142889086Y-103650454D01*
X142905179Y-103661206D01*
X142931508Y-103678798D01*
X143012005Y-103732584D01*
X143012006Y-103732584D01*
X143012007Y-103732585D01*
X143068579Y-103756018D01*
X143068580Y-103756018D01*
X143148588Y-103789159D01*
X143264741Y-103812263D01*
X143283968Y-103816087D01*
X143293581Y-103818000D01*
X143293582Y-103818000D01*
X150976415Y-103818000D01*
X151073957Y-103798596D01*
X151121408Y-103789158D01*
X151257990Y-103732584D01*
X151338487Y-103678798D01*
X151380911Y-103650452D01*
X152259545Y-102771816D01*
X152320868Y-102738332D01*
X152347226Y-102735498D01*
X153032867Y-102735498D01*
X153032868Y-102735498D01*
X153092479Y-102729090D01*
X153227327Y-102678795D01*
X153342542Y-102592545D01*
X153428792Y-102477330D01*
X153479087Y-102342482D01*
X153485496Y-102282872D01*
X153485495Y-101187127D01*
X153479087Y-101127516D01*
X153479086Y-101127513D01*
X153425693Y-100984358D01*
X153427262Y-100983772D01*
X153414611Y-100925637D01*
X153426311Y-100885793D01*
X153425250Y-100885397D01*
X153478594Y-100742375D01*
X153478595Y-100742371D01*
X153484996Y-100682843D01*
X153484997Y-100682826D01*
X153484997Y-100595729D01*
X153504682Y-100528690D01*
X153557486Y-100482935D01*
X153626644Y-100472991D01*
X153690200Y-100502016D01*
X153696678Y-100508048D01*
X155148180Y-101959550D01*
X155181665Y-102020873D01*
X155184499Y-102047231D01*
X155184499Y-102758914D01*
X155184499Y-102758916D01*
X155184498Y-102758916D01*
X155213339Y-102903903D01*
X155213342Y-102903913D01*
X155269912Y-103040486D01*
X155269913Y-103040488D01*
X155302662Y-103089500D01*
X155302663Y-103089502D01*
X155352044Y-103163410D01*
X155352048Y-103163414D01*
X155954089Y-103765454D01*
X155954093Y-103765457D01*
X156077007Y-103847586D01*
X156077020Y-103847593D01*
X156213591Y-103904162D01*
X156213596Y-103904164D01*
X156213600Y-103904164D01*
X156213601Y-103904165D01*
X156358588Y-103933006D01*
X156358591Y-103933006D01*
X164278909Y-103933006D01*
X164406995Y-103907527D01*
X164423902Y-103904164D01*
X164560484Y-103847590D01*
X164610703Y-103814035D01*
X164610703Y-103814034D01*
X164610705Y-103814034D01*
X164657230Y-103782947D01*
X164683405Y-103765458D01*
X165677045Y-102771816D01*
X165738368Y-102738332D01*
X165764726Y-102735498D01*
X166450367Y-102735498D01*
X166450368Y-102735498D01*
X166509979Y-102729090D01*
X166644827Y-102678795D01*
X166760042Y-102592545D01*
X166846292Y-102477330D01*
X166896587Y-102342482D01*
X166902996Y-102282872D01*
X166902995Y-101187127D01*
X166896587Y-101127516D01*
X166896586Y-101127513D01*
X166843193Y-100984358D01*
X166844762Y-100983772D01*
X166832111Y-100925637D01*
X166843811Y-100885793D01*
X166842750Y-100885397D01*
X166896094Y-100742375D01*
X166896095Y-100742371D01*
X166902496Y-100682843D01*
X166902497Y-100682826D01*
X166902497Y-100595729D01*
X166922182Y-100528690D01*
X166974986Y-100482935D01*
X167044144Y-100472991D01*
X167107700Y-100502016D01*
X167114178Y-100508048D01*
X168565680Y-101959550D01*
X168599165Y-102020873D01*
X168601999Y-102047231D01*
X168601999Y-102526417D01*
X168601999Y-102526419D01*
X168601998Y-102526419D01*
X168630839Y-102671406D01*
X168630842Y-102671416D01*
X168681016Y-102792546D01*
X168687415Y-102807994D01*
X168704119Y-102832993D01*
X168714537Y-102848586D01*
X168769548Y-102930917D01*
X168769551Y-102930920D01*
X169596587Y-103757955D01*
X169596589Y-103757957D01*
X169618480Y-103772583D01*
X169670273Y-103807189D01*
X169719508Y-103840087D01*
X169719509Y-103840087D01*
X169719510Y-103840088D01*
X169719512Y-103840089D01*
X169856085Y-103896659D01*
X169856090Y-103896661D01*
X169856094Y-103896661D01*
X169856095Y-103896662D01*
X170001082Y-103925503D01*
X170001085Y-103925503D01*
X177658917Y-103925503D01*
X177766201Y-103904162D01*
X177803910Y-103896661D01*
X177940492Y-103840087D01*
X177989726Y-103807189D01*
X177989731Y-103807186D01*
X178016715Y-103789156D01*
X178063413Y-103757955D01*
X179049547Y-102771818D01*
X179110870Y-102738334D01*
X179137228Y-102735500D01*
X179822870Y-102735500D01*
X179822871Y-102735500D01*
X179882482Y-102729092D01*
X180017330Y-102678797D01*
X180132545Y-102592547D01*
X180218795Y-102477332D01*
X180269090Y-102342484D01*
X180275499Y-102282874D01*
X180275498Y-101187129D01*
X180269286Y-101129344D01*
X180269090Y-101127517D01*
X180215696Y-100984360D01*
X180217265Y-100983774D01*
X180204614Y-100925639D01*
X180216314Y-100885795D01*
X180215253Y-100885399D01*
X180268597Y-100742377D01*
X180268598Y-100742373D01*
X180274999Y-100682845D01*
X180275000Y-100682828D01*
X180275000Y-100595731D01*
X180294685Y-100528692D01*
X180347489Y-100482937D01*
X180416647Y-100472993D01*
X180480203Y-100502018D01*
X180486681Y-100508050D01*
X181938183Y-101959552D01*
X181971668Y-102020875D01*
X181974502Y-102047231D01*
X181974502Y-102758916D01*
X181974502Y-102758918D01*
X181974501Y-102758918D01*
X182003342Y-102903905D01*
X182003345Y-102903915D01*
X182059915Y-103040486D01*
X182059918Y-103040493D01*
X182061022Y-103042145D01*
X182092662Y-103089499D01*
X182142051Y-103163416D01*
X182761582Y-103782947D01*
X182761589Y-103782953D01*
X182830741Y-103829158D01*
X182830743Y-103829159D01*
X182830746Y-103829161D01*
X182884509Y-103865084D01*
X182884510Y-103865084D01*
X182884511Y-103865085D01*
X183021086Y-103921656D01*
X183021091Y-103921658D01*
X183021095Y-103921658D01*
X183021096Y-103921659D01*
X183166083Y-103950500D01*
X183166086Y-103950500D01*
X191043915Y-103950500D01*
X191169578Y-103925503D01*
X191188908Y-103921658D01*
X191325490Y-103865084D01*
X191379253Y-103829161D01*
X191379253Y-103829160D01*
X191379255Y-103829160D01*
X191439126Y-103789156D01*
X191448411Y-103782952D01*
X192459544Y-102771816D01*
X192520867Y-102738332D01*
X192547225Y-102735498D01*
X193232867Y-102735498D01*
X193232868Y-102735498D01*
X193292479Y-102729090D01*
X193427327Y-102678795D01*
X193542542Y-102592545D01*
X193628792Y-102477330D01*
X193679087Y-102342482D01*
X193685496Y-102282872D01*
X193685495Y-101187127D01*
X193679087Y-101127516D01*
X193679086Y-101127513D01*
X193625693Y-100984358D01*
X193627262Y-100983772D01*
X193614611Y-100925637D01*
X193626311Y-100885793D01*
X193625250Y-100885397D01*
X193678593Y-100742378D01*
X193680174Y-100735688D01*
X193714744Y-100674969D01*
X193776652Y-100642580D01*
X193805067Y-100640802D01*
X193805067Y-100640497D01*
X194025500Y-100640497D01*
X194092539Y-100660182D01*
X194138294Y-100712986D01*
X194149500Y-100764497D01*
X194149500Y-101523915D01*
X194149500Y-101523917D01*
X194149499Y-101523917D01*
X194178340Y-101668904D01*
X194178343Y-101668914D01*
X194234913Y-101805487D01*
X194234915Y-101805490D01*
X194245432Y-101821231D01*
X194245431Y-101821231D01*
X194317046Y-101928411D01*
X194317052Y-101928418D01*
X195611969Y-103223333D01*
X195974554Y-103585918D01*
X195974555Y-103585919D01*
X196030354Y-103641718D01*
X196079091Y-103690455D01*
X196202004Y-103772583D01*
X196202017Y-103772590D01*
X196311648Y-103818000D01*
X196338593Y-103829161D01*
X196338597Y-103829161D01*
X196338598Y-103829162D01*
X196483585Y-103858003D01*
X196483588Y-103858003D01*
X204736412Y-103858003D01*
X204833954Y-103838599D01*
X204881405Y-103829161D01*
X205017987Y-103772587D01*
X205077856Y-103732584D01*
X205077856Y-103732583D01*
X205077858Y-103732583D01*
X205116204Y-103706961D01*
X205140908Y-103690455D01*
X205859545Y-102971816D01*
X205920868Y-102938332D01*
X205947226Y-102935498D01*
X206632867Y-102935498D01*
X206632868Y-102935498D01*
X206692479Y-102929090D01*
X206827327Y-102878795D01*
X206942542Y-102792545D01*
X207028792Y-102677330D01*
X207079087Y-102542482D01*
X207085496Y-102482872D01*
X207085495Y-101796220D01*
X207105179Y-101729183D01*
X207157983Y-101683428D01*
X207227142Y-101673484D01*
X207290698Y-101702509D01*
X207297176Y-101708541D01*
X209671581Y-104082947D01*
X209671588Y-104082953D01*
X209728830Y-104121200D01*
X209728832Y-104121201D01*
X209728835Y-104121203D01*
X209794508Y-104165084D01*
X209794509Y-104165084D01*
X209794510Y-104165085D01*
X209931085Y-104221656D01*
X209931090Y-104221658D01*
X209931094Y-104221658D01*
X209931095Y-104221659D01*
X210076082Y-104250500D01*
X210076085Y-104250500D01*
X217823921Y-104250500D01*
X217921463Y-104231096D01*
X217968914Y-104221658D01*
X218105496Y-104165084D01*
X218171169Y-104121203D01*
X218171172Y-104121200D01*
X218171174Y-104121200D01*
X218199984Y-104101949D01*
X218228417Y-104082952D01*
X219374548Y-102936819D01*
X219435871Y-102903335D01*
X219462229Y-102900501D01*
X220147870Y-102900501D01*
X220147871Y-102900501D01*
X220207482Y-102894093D01*
X220342330Y-102843798D01*
X220457545Y-102757548D01*
X220543795Y-102642333D01*
X220594090Y-102507485D01*
X220600499Y-102447875D01*
X220600498Y-101352130D01*
X220594090Y-101292519D01*
X220587096Y-101273766D01*
X220540696Y-101149361D01*
X220542265Y-101148775D01*
X220529614Y-101090640D01*
X220541314Y-101050796D01*
X220540253Y-101050400D01*
X220593597Y-100907378D01*
X220593598Y-100907374D01*
X220599999Y-100847846D01*
X220600000Y-100847829D01*
X220600000Y-100550002D01*
X218100000Y-100550002D01*
X218100000Y-100847846D01*
X218106401Y-100907374D01*
X218106403Y-100907381D01*
X218159746Y-101050401D01*
X218157930Y-101051078D01*
X218170382Y-101108325D01*
X218158428Y-101149035D01*
X218159302Y-101149361D01*
X218105907Y-101292519D01*
X218099500Y-101352118D01*
X218099500Y-101352126D01*
X218099499Y-101352137D01*
X218099499Y-102037771D01*
X218079814Y-102104810D01*
X218063180Y-102125452D01*
X217475452Y-102713181D01*
X217414129Y-102746666D01*
X217387771Y-102749500D01*
X215250123Y-102749500D01*
X215183084Y-102729815D01*
X215137329Y-102677011D01*
X215127385Y-102607853D01*
X215131047Y-102590905D01*
X215169578Y-102458281D01*
X215170230Y-102450000D01*
X214196570Y-102450000D01*
X214129531Y-102430315D01*
X214083776Y-102377511D01*
X214073832Y-102308353D01*
X214074953Y-102301809D01*
X214080499Y-102273922D01*
X214080500Y-102273920D01*
X214080500Y-102074000D01*
X214100185Y-102006961D01*
X214152989Y-101961206D01*
X214204500Y-101950000D01*
X215170230Y-101950000D01*
X215169578Y-101941718D01*
X215123409Y-101782805D01*
X215123407Y-101782802D01*
X215039166Y-101640357D01*
X215039160Y-101640349D01*
X214922150Y-101523339D01*
X214922142Y-101523333D01*
X214779697Y-101439092D01*
X214779696Y-101439091D01*
X214700175Y-101415988D01*
X214641290Y-101378381D01*
X214612084Y-101314908D01*
X214621830Y-101245722D01*
X214647091Y-101209230D01*
X214667608Y-101188713D01*
X214690452Y-101165869D01*
X214748633Y-101078793D01*
X214772584Y-101042948D01*
X214800629Y-100975238D01*
X214844469Y-100920836D01*
X214851032Y-100916579D01*
X214905335Y-100883753D01*
X215018753Y-100770335D01*
X215069336Y-100686660D01*
X215120860Y-100639475D01*
X215189720Y-100627636D01*
X215193054Y-100628068D01*
X215279499Y-100640497D01*
X215279502Y-100640497D01*
X216847276Y-100640497D01*
X216857422Y-100639952D01*
X216901314Y-100637600D01*
X216901322Y-100637599D01*
X216901324Y-100637599D01*
X216901325Y-100637599D01*
X216908318Y-100636846D01*
X216927672Y-100634766D01*
X216927682Y-100634764D01*
X216927685Y-100634764D01*
X216938145Y-100633069D01*
X216981084Y-100626111D01*
X217115893Y-100575829D01*
X217177216Y-100542344D01*
X217292397Y-100456121D01*
X217577202Y-100171314D01*
X217638523Y-100137831D01*
X217664882Y-100134997D01*
X218057000Y-100134997D01*
X220643000Y-100134997D01*
X221085087Y-100134997D01*
X221152126Y-100154682D01*
X221197881Y-100207486D01*
X221204064Y-100224062D01*
X221218286Y-100272498D01*
X221218289Y-100272504D01*
X221296071Y-100393534D01*
X221296079Y-100393545D01*
X221341823Y-100446337D01*
X221341826Y-100446340D01*
X221341830Y-100446344D01*
X221450564Y-100540564D01*
X221525660Y-100574859D01*
X221561828Y-100599972D01*
X221819953Y-100858097D01*
X221881989Y-100920133D01*
X221941900Y-100980044D01*
X222085286Y-101075852D01*
X222085299Y-101075859D01*
X222244619Y-101141851D01*
X222244624Y-101141853D01*
X222365361Y-101165869D01*
X222413764Y-101175497D01*
X222413767Y-101175498D01*
X222413769Y-101175498D01*
X222586227Y-101175498D01*
X222880446Y-101175498D01*
X222947485Y-101195183D01*
X222993240Y-101247987D01*
X223003735Y-101312753D01*
X222999503Y-101352115D01*
X222999502Y-101352134D01*
X222999502Y-102447869D01*
X222999503Y-102447875D01*
X223005910Y-102507482D01*
X223056204Y-102642327D01*
X223056208Y-102642334D01*
X223142454Y-102757543D01*
X223142457Y-102757546D01*
X223257666Y-102843792D01*
X223257673Y-102843796D01*
X223392519Y-102894090D01*
X223392518Y-102894090D01*
X223399446Y-102894834D01*
X223452129Y-102900499D01*
X224792725Y-102900498D01*
X224859764Y-102920183D01*
X224905519Y-102972986D01*
X224915463Y-103042145D01*
X224907286Y-103071950D01*
X224890646Y-103112121D01*
X224890643Y-103112133D01*
X224857000Y-103281266D01*
X224857000Y-103986228D01*
X224862118Y-104011961D01*
X224864500Y-104036149D01*
X224864500Y-104121190D01*
X224864501Y-104121203D01*
X224867423Y-104158354D01*
X224867423Y-104158357D01*
X224867424Y-104158358D01*
X224869379Y-104165086D01*
X224913630Y-104317400D01*
X224997934Y-104459950D01*
X224997941Y-104459959D01*
X225115040Y-104577058D01*
X225115049Y-104577065D01*
X225160196Y-104603765D01*
X225207880Y-104654834D01*
X225220383Y-104723576D01*
X225193737Y-104788165D01*
X225136402Y-104828095D01*
X225097075Y-104834497D01*
X78509497Y-104834497D01*
X78442458Y-104814812D01*
X78396703Y-104762008D01*
X78385497Y-104710497D01*
X78385497Y-104114000D01*
X78405182Y-104046961D01*
X78457986Y-104001206D01*
X78509497Y-103990000D01*
X79050000Y-103990000D01*
X79050000Y-103073012D01*
X79107007Y-103105925D01*
X79234174Y-103140000D01*
X79365826Y-103140000D01*
X79492993Y-103105925D01*
X79550000Y-103073012D01*
X79550000Y-103990000D01*
X80197828Y-103990000D01*
X80197844Y-103989999D01*
X80257372Y-103983598D01*
X80257379Y-103983596D01*
X80392086Y-103933354D01*
X80392093Y-103933350D01*
X80507187Y-103847190D01*
X80507190Y-103847187D01*
X80593350Y-103732093D01*
X80593354Y-103732086D01*
X80643596Y-103597379D01*
X80643598Y-103597372D01*
X80649999Y-103537844D01*
X80650000Y-103537827D01*
X80650000Y-102890000D01*
X79733012Y-102890000D01*
X79765925Y-102832993D01*
X79800000Y-102705826D01*
X79800000Y-102574174D01*
X79765925Y-102447007D01*
X79733012Y-102390000D01*
X80650000Y-102390000D01*
X80650000Y-102282841D01*
X84034996Y-102282841D01*
X84041397Y-102342369D01*
X84041399Y-102342376D01*
X84091641Y-102477083D01*
X84091645Y-102477090D01*
X84177805Y-102592184D01*
X84177808Y-102592187D01*
X84292902Y-102678347D01*
X84292909Y-102678351D01*
X84427616Y-102728593D01*
X84427623Y-102728595D01*
X84487151Y-102734996D01*
X84487168Y-102734997D01*
X85034996Y-102734997D01*
X85534996Y-102734997D01*
X86082824Y-102734997D01*
X86082840Y-102734996D01*
X86142368Y-102728595D01*
X86142375Y-102728593D01*
X86277082Y-102678351D01*
X86277089Y-102678347D01*
X86392183Y-102592187D01*
X86392186Y-102592184D01*
X86478346Y-102477090D01*
X86478350Y-102477083D01*
X86528592Y-102342376D01*
X86528594Y-102342369D01*
X86534995Y-102282841D01*
X86534996Y-102282824D01*
X86534996Y-101984997D01*
X85534996Y-101984997D01*
X85534996Y-102734997D01*
X85034996Y-102734997D01*
X85034996Y-101984997D01*
X84034996Y-101984997D01*
X84034996Y-102282841D01*
X80650000Y-102282841D01*
X80650000Y-101742172D01*
X80649999Y-101742155D01*
X80643598Y-101682627D01*
X80643596Y-101682620D01*
X80593354Y-101547913D01*
X80593350Y-101547906D01*
X80507190Y-101432812D01*
X80507187Y-101432809D01*
X80392093Y-101346649D01*
X80392088Y-101346646D01*
X80260528Y-101297577D01*
X80204595Y-101255705D01*
X80180178Y-101190241D01*
X80195030Y-101121968D01*
X80216175Y-101093720D01*
X80298079Y-101011816D01*
X80359401Y-100978334D01*
X80385758Y-100975500D01*
X81086231Y-100975500D01*
X81086232Y-100975499D01*
X81255374Y-100941855D01*
X81395411Y-100883850D01*
X81414698Y-100875861D01*
X81414698Y-100875860D01*
X81414705Y-100875858D01*
X81558099Y-100780045D01*
X81885207Y-100452935D01*
X81946526Y-100419453D01*
X82016218Y-100424437D01*
X82054088Y-100446907D01*
X82162169Y-100540561D01*
X82162170Y-100540562D01*
X82162173Y-100540564D01*
X82162175Y-100540565D01*
X82162177Y-100540566D01*
X82288394Y-100598209D01*
X82293050Y-100600335D01*
X82360089Y-100620020D01*
X82360093Y-100620021D01*
X82502509Y-100640497D01*
X82502512Y-100640497D01*
X82596822Y-100640497D01*
X82596823Y-100640497D01*
X82706792Y-100628390D01*
X82732465Y-100622668D01*
X82759450Y-100616654D01*
X82864161Y-100580910D01*
X82984400Y-100501890D01*
X83030406Y-100461194D01*
X83030715Y-100460957D01*
X83036584Y-100455730D01*
X83036734Y-100455598D01*
X83036737Y-100455596D01*
X83086948Y-100396436D01*
X83093783Y-100389020D01*
X83155025Y-100327778D01*
X83176720Y-100310476D01*
X83269419Y-100252231D01*
X83269418Y-100252230D01*
X83275140Y-100248635D01*
X83279450Y-100246047D01*
X83288788Y-100240698D01*
X83288798Y-100240688D01*
X83292006Y-100238363D01*
X83298850Y-100233738D01*
X83304228Y-100230358D01*
X83308391Y-100227076D01*
X83308113Y-100226684D01*
X83310941Y-100224676D01*
X83310950Y-100224668D01*
X83310959Y-100224663D01*
X83389448Y-100162056D01*
X83454132Y-100135643D01*
X83466770Y-100134997D01*
X83910997Y-100134997D01*
X83978036Y-100154682D01*
G37*
G04 #@! TD.AperFunction*
G04 #@! TA.AperFunction,Conductor*
G36*
X227247122Y-100514738D02*
G01*
X227273439Y-100534807D01*
X227350237Y-100611605D01*
X227421584Y-100682952D01*
X227421585Y-100682953D01*
X227489511Y-100728339D01*
X227489512Y-100728339D01*
X227544508Y-100765086D01*
X227665112Y-100815041D01*
X227681087Y-100821658D01*
X227681091Y-100821658D01*
X227681092Y-100821659D01*
X227826079Y-100850500D01*
X227826082Y-100850500D01*
X227826083Y-100850500D01*
X227973918Y-100850500D01*
X228812299Y-100850500D01*
X228879338Y-100870185D01*
X228913873Y-100903376D01*
X228961505Y-100971401D01*
X229128597Y-101138493D01*
X229128603Y-101138498D01*
X229314158Y-101268425D01*
X229357783Y-101323002D01*
X229364977Y-101392500D01*
X229333454Y-101454855D01*
X229314158Y-101471575D01*
X229128597Y-101601505D01*
X228961505Y-101768597D01*
X228825965Y-101962169D01*
X228825964Y-101962171D01*
X228743131Y-102139807D01*
X228727427Y-102173486D01*
X228726098Y-102176335D01*
X228726094Y-102176344D01*
X228664938Y-102404586D01*
X228664936Y-102404596D01*
X228644341Y-102639999D01*
X228644341Y-102640000D01*
X228664936Y-102875403D01*
X228664938Y-102875413D01*
X228726094Y-103103655D01*
X228726096Y-103103659D01*
X228726097Y-103103663D01*
X228805489Y-103273919D01*
X228825965Y-103317830D01*
X228825967Y-103317834D01*
X228934281Y-103472521D01*
X228961505Y-103511401D01*
X229128599Y-103678495D01*
X229225384Y-103746265D01*
X229322165Y-103814032D01*
X229322167Y-103814033D01*
X229322170Y-103814035D01*
X229536337Y-103913903D01*
X229764592Y-103975063D01*
X229935319Y-103990000D01*
X229999999Y-103995659D01*
X230000000Y-103995659D01*
X230000001Y-103995659D01*
X230064681Y-103990000D01*
X230235408Y-103975063D01*
X230463663Y-103913903D01*
X230677830Y-103814035D01*
X230689374Y-103805951D01*
X230755579Y-103783625D01*
X230823347Y-103800635D01*
X230871160Y-103851583D01*
X230884497Y-103907527D01*
X230884497Y-104710497D01*
X230864812Y-104777536D01*
X230812008Y-104823291D01*
X230760497Y-104834497D01*
X227501942Y-104834497D01*
X227434903Y-104814812D01*
X227389148Y-104762008D01*
X227379204Y-104692850D01*
X227408229Y-104629294D01*
X227438822Y-104603765D01*
X227484638Y-104576669D01*
X227484650Y-104576660D01*
X227601660Y-104459650D01*
X227601666Y-104459642D01*
X227685907Y-104317197D01*
X227685909Y-104317194D01*
X227732078Y-104158281D01*
X227732730Y-104150000D01*
X226741500Y-104150000D01*
X226674461Y-104130315D01*
X226628706Y-104077511D01*
X226617500Y-104026000D01*
X226617500Y-103774000D01*
X226637185Y-103706961D01*
X226689989Y-103661206D01*
X226741500Y-103650000D01*
X227732730Y-103650000D01*
X227732078Y-103641718D01*
X227685909Y-103482805D01*
X227685907Y-103482802D01*
X227601666Y-103340357D01*
X227601660Y-103340349D01*
X227484650Y-103223339D01*
X227484642Y-103223333D01*
X227342197Y-103139092D01*
X227342194Y-103139091D01*
X227183284Y-103092923D01*
X227177218Y-103091815D01*
X227114807Y-103060404D01*
X227079285Y-103000237D01*
X227075500Y-102969833D01*
X227075500Y-101898768D01*
X227075499Y-101898766D01*
X227060076Y-101821231D01*
X227041855Y-101729626D01*
X227011448Y-101656218D01*
X227007625Y-101645658D01*
X226966734Y-101514433D01*
X226940825Y-101471575D01*
X226928779Y-101451649D01*
X226910944Y-101384095D01*
X226928780Y-101323350D01*
X226966733Y-101260569D01*
X227007625Y-101129337D01*
X227011448Y-101118780D01*
X227041855Y-101045374D01*
X227075500Y-100876229D01*
X227075500Y-100703771D01*
X227075500Y-100703768D01*
X227064145Y-100646684D01*
X227070372Y-100577092D01*
X227113235Y-100521915D01*
X227179125Y-100498670D01*
X227247122Y-100514738D01*
G37*
G04 #@! TD.AperFunction*
G04 #@! TA.AperFunction,Conductor*
G36*
X124228036Y-100154682D02*
G01*
X124273791Y-100207486D01*
X124284997Y-100258997D01*
X124284997Y-100682843D01*
X124291398Y-100742371D01*
X124291400Y-100742378D01*
X124344743Y-100885398D01*
X124342927Y-100886075D01*
X124355379Y-100943322D01*
X124343425Y-100984032D01*
X124344299Y-100984358D01*
X124290904Y-101127516D01*
X124284497Y-101187115D01*
X124284497Y-101187124D01*
X124284496Y-101187134D01*
X124284496Y-101872768D01*
X124264811Y-101939807D01*
X124248177Y-101960449D01*
X123495446Y-102713181D01*
X123434123Y-102746666D01*
X123407765Y-102749500D01*
X121214073Y-102749500D01*
X121147034Y-102729815D01*
X121101279Y-102677011D01*
X121091335Y-102607853D01*
X121120360Y-102544297D01*
X121150953Y-102518768D01*
X121222138Y-102476669D01*
X121222150Y-102476660D01*
X121339160Y-102359650D01*
X121339166Y-102359642D01*
X121423407Y-102217197D01*
X121423409Y-102217194D01*
X121469578Y-102058281D01*
X121470230Y-102050000D01*
X120479000Y-102050000D01*
X120411961Y-102030315D01*
X120366206Y-101977511D01*
X120355000Y-101926000D01*
X120355000Y-101674000D01*
X120374685Y-101606961D01*
X120427489Y-101561206D01*
X120479000Y-101550000D01*
X121470230Y-101550000D01*
X121469578Y-101541718D01*
X121423409Y-101382805D01*
X121423407Y-101382802D01*
X121339166Y-101240357D01*
X121339160Y-101240349D01*
X121222150Y-101123339D01*
X121222142Y-101123333D01*
X121114777Y-101059838D01*
X121067094Y-101008769D01*
X121054590Y-100940027D01*
X121081235Y-100875438D01*
X121090201Y-100865441D01*
X121277545Y-100678098D01*
X121288406Y-100661842D01*
X121342017Y-100617039D01*
X121411342Y-100608332D01*
X121426439Y-100611757D01*
X121454580Y-100620020D01*
X121454584Y-100620021D01*
X121597000Y-100640497D01*
X121597003Y-100640497D01*
X123042275Y-100640497D01*
X123052421Y-100639952D01*
X123096313Y-100637600D01*
X123096321Y-100637599D01*
X123096323Y-100637599D01*
X123096324Y-100637599D01*
X123103317Y-100636846D01*
X123122671Y-100634766D01*
X123122681Y-100634764D01*
X123122684Y-100634764D01*
X123133144Y-100633069D01*
X123176083Y-100626111D01*
X123310892Y-100575829D01*
X123372215Y-100542344D01*
X123487397Y-100456120D01*
X123772200Y-100171315D01*
X123833522Y-100137831D01*
X123859881Y-100134997D01*
X124160997Y-100134997D01*
X124228036Y-100154682D01*
G37*
G04 #@! TD.AperFunction*
G04 #@! TA.AperFunction,Conductor*
G36*
X191128036Y-100154682D02*
G01*
X191173791Y-100207486D01*
X191184997Y-100258997D01*
X191184997Y-100682843D01*
X191191398Y-100742371D01*
X191191400Y-100742378D01*
X191244743Y-100885398D01*
X191242927Y-100886075D01*
X191255379Y-100943322D01*
X191243425Y-100984032D01*
X191244299Y-100984358D01*
X191190904Y-101127516D01*
X191184497Y-101187115D01*
X191184497Y-101187124D01*
X191184496Y-101187134D01*
X191184496Y-101872768D01*
X191164811Y-101939807D01*
X191148177Y-101960449D01*
X190695446Y-102413181D01*
X190634123Y-102446666D01*
X190607765Y-102449500D01*
X188441676Y-102449500D01*
X188374637Y-102429815D01*
X188328882Y-102377011D01*
X188318938Y-102307853D01*
X188322600Y-102290905D01*
X188332078Y-102258281D01*
X188332730Y-102250000D01*
X187350833Y-102250000D01*
X187283794Y-102230315D01*
X187238039Y-102177511D01*
X187228095Y-102108353D01*
X187257120Y-102044797D01*
X187263152Y-102038319D01*
X187515152Y-101786319D01*
X187576475Y-101752834D01*
X187602833Y-101750000D01*
X188332730Y-101750000D01*
X188332078Y-101741718D01*
X188285909Y-101582805D01*
X188285907Y-101582802D01*
X188201666Y-101440357D01*
X188201660Y-101440349D01*
X188119072Y-101357761D01*
X188085587Y-101296438D01*
X188090571Y-101226746D01*
X188119069Y-101182402D01*
X188177545Y-101123927D01*
X188273358Y-100980533D01*
X188275551Y-100975240D01*
X188302221Y-100910851D01*
X188339355Y-100821202D01*
X188355754Y-100738756D01*
X188388138Y-100676847D01*
X188448854Y-100642273D01*
X188492573Y-100640322D01*
X188492584Y-100640181D01*
X188493800Y-100640268D01*
X188495026Y-100640213D01*
X188497000Y-100640497D01*
X188497007Y-100640497D01*
X189872274Y-100640497D01*
X189882420Y-100639952D01*
X189926312Y-100637600D01*
X189926320Y-100637599D01*
X189926322Y-100637599D01*
X189926323Y-100637599D01*
X189933316Y-100636846D01*
X189952670Y-100634766D01*
X189952680Y-100634764D01*
X189952683Y-100634764D01*
X189963143Y-100633069D01*
X190006082Y-100626111D01*
X190140891Y-100575829D01*
X190202214Y-100542344D01*
X190317395Y-100456120D01*
X190602200Y-100171314D01*
X190663520Y-100137831D01*
X190689879Y-100134997D01*
X191060997Y-100134997D01*
X191128036Y-100154682D01*
G37*
G04 #@! TD.AperFunction*
G04 #@! TA.AperFunction,Conductor*
G36*
X164345536Y-100154682D02*
G01*
X164391291Y-100207486D01*
X164402497Y-100258997D01*
X164402497Y-100682843D01*
X164408898Y-100742371D01*
X164408900Y-100742378D01*
X164462243Y-100885398D01*
X164460427Y-100886075D01*
X164472879Y-100943322D01*
X164460925Y-100984032D01*
X164461799Y-100984358D01*
X164408404Y-101127516D01*
X164401997Y-101187115D01*
X164401997Y-101187124D01*
X164401996Y-101187134D01*
X164401996Y-101872768D01*
X164382311Y-101939807D01*
X164365677Y-101960449D01*
X163930440Y-102395687D01*
X163869117Y-102429172D01*
X163842759Y-102432006D01*
X161555205Y-102432006D01*
X161488166Y-102412321D01*
X161442411Y-102359517D01*
X161432467Y-102290359D01*
X161436129Y-102273410D01*
X161469578Y-102158279D01*
X161470230Y-102150000D01*
X160488333Y-102150000D01*
X160421294Y-102130315D01*
X160375539Y-102077511D01*
X160365595Y-102008353D01*
X160394620Y-101944797D01*
X160400652Y-101938319D01*
X160652652Y-101686319D01*
X160713975Y-101652834D01*
X160740333Y-101650000D01*
X161470230Y-101650000D01*
X161469578Y-101641718D01*
X161423409Y-101482805D01*
X161423407Y-101482802D01*
X161339166Y-101340357D01*
X161339160Y-101340349D01*
X161256572Y-101257761D01*
X161223087Y-101196438D01*
X161228071Y-101126746D01*
X161256569Y-101082402D01*
X161277545Y-101061427D01*
X161373358Y-100918033D01*
X161377772Y-100907378D01*
X161387997Y-100882691D01*
X161439355Y-100758702D01*
X161443667Y-100737022D01*
X161476049Y-100675113D01*
X161536764Y-100640536D01*
X161582930Y-100638474D01*
X161597000Y-100640497D01*
X161597003Y-100640497D01*
X163161667Y-100640497D01*
X163161674Y-100640497D01*
X163301613Y-100620741D01*
X163364041Y-100602756D01*
X163364040Y-100602755D01*
X163365408Y-100602361D01*
X163365409Y-100602362D01*
X163367558Y-100601743D01*
X163367563Y-100601740D01*
X163380721Y-100597950D01*
X163382513Y-100597959D01*
X163392071Y-100594680D01*
X163392627Y-100594519D01*
X163403368Y-100589493D01*
X163418215Y-100583553D01*
X163418216Y-100583555D01*
X163418221Y-100583553D01*
X163436081Y-100575690D01*
X163440272Y-100573938D01*
X163443870Y-100572509D01*
X163443875Y-100572508D01*
X163445160Y-100571888D01*
X163445159Y-100571887D01*
X163447750Y-100570638D01*
X163447872Y-100570582D01*
X163447872Y-100570581D01*
X163449783Y-100569661D01*
X163456053Y-100566642D01*
X163456058Y-100566638D01*
X163457680Y-100565858D01*
X163458216Y-100565588D01*
X163471299Y-100559275D01*
X163484944Y-100550092D01*
X163486427Y-100549242D01*
X163494229Y-100545277D01*
X163496471Y-100544080D01*
X163496478Y-100544077D01*
X163499314Y-100542296D01*
X163499318Y-100542292D01*
X163501331Y-100541029D01*
X163501335Y-100541035D01*
X163507503Y-100537170D01*
X163518674Y-100530773D01*
X163518679Y-100530767D01*
X163520272Y-100529613D01*
X163535442Y-100518130D01*
X163541018Y-100514625D01*
X163629379Y-100444136D01*
X163902199Y-100171316D01*
X163963522Y-100137831D01*
X163989880Y-100134997D01*
X164278497Y-100134997D01*
X164345536Y-100154682D01*
G37*
G04 #@! TD.AperFunction*
G04 #@! TA.AperFunction,Conductor*
G36*
X137628036Y-100154682D02*
G01*
X137673791Y-100207486D01*
X137684997Y-100258997D01*
X137684997Y-100582843D01*
X137691398Y-100642371D01*
X137691400Y-100642378D01*
X137744743Y-100785398D01*
X137742927Y-100786075D01*
X137755379Y-100843322D01*
X137743425Y-100884032D01*
X137744299Y-100884358D01*
X137690904Y-101027516D01*
X137684848Y-101083850D01*
X137684497Y-101087123D01*
X137684496Y-101087134D01*
X137684496Y-101772768D01*
X137664811Y-101839807D01*
X137648177Y-101860449D01*
X137120443Y-102388184D01*
X137059120Y-102421669D01*
X137032762Y-102424503D01*
X134919885Y-102424503D01*
X134852846Y-102404818D01*
X134807091Y-102352014D01*
X134797147Y-102282856D01*
X134800809Y-102265908D01*
X134832078Y-102158280D01*
X134832730Y-102150000D01*
X133850833Y-102150000D01*
X133783794Y-102130315D01*
X133738039Y-102077511D01*
X133728095Y-102008353D01*
X133757120Y-101944797D01*
X133763152Y-101938319D01*
X134015152Y-101686319D01*
X134076475Y-101652834D01*
X134102833Y-101650000D01*
X134832730Y-101650000D01*
X134832078Y-101641718D01*
X134785909Y-101482805D01*
X134785907Y-101482802D01*
X134701666Y-101340357D01*
X134701660Y-101340349D01*
X134619072Y-101257761D01*
X134585587Y-101196438D01*
X134590571Y-101126746D01*
X134619068Y-101082403D01*
X134677545Y-101023927D01*
X134694869Y-100998000D01*
X134773358Y-100880533D01*
X134775295Y-100875858D01*
X134821422Y-100764497D01*
X134839355Y-100721202D01*
X134839355Y-100721201D01*
X134841686Y-100715574D01*
X134843541Y-100716342D01*
X134876783Y-100665613D01*
X134940594Y-100637152D01*
X134974799Y-100637304D01*
X134997000Y-100640497D01*
X134997003Y-100640497D01*
X136066177Y-100640497D01*
X136066184Y-100640497D01*
X136206123Y-100620741D01*
X136272095Y-100601735D01*
X136401031Y-100544052D01*
X136402112Y-100543373D01*
X136402193Y-100543323D01*
X136415890Y-100534716D01*
X136415889Y-100534715D01*
X136453795Y-100510897D01*
X136453794Y-100510897D01*
X136499420Y-100482229D01*
X136499419Y-100482227D01*
X136504970Y-100478740D01*
X136509291Y-100476147D01*
X136518671Y-100470775D01*
X136518679Y-100470767D01*
X136521976Y-100468378D01*
X136528802Y-100463766D01*
X136534269Y-100460330D01*
X136538467Y-100457019D01*
X136538340Y-100456840D01*
X136538302Y-100456792D01*
X136538304Y-100456789D01*
X136538192Y-100456631D01*
X136541006Y-100454631D01*
X136541019Y-100454624D01*
X136629379Y-100384136D01*
X136842199Y-100171316D01*
X136903522Y-100137831D01*
X136929880Y-100134997D01*
X137560997Y-100134997D01*
X137628036Y-100154682D01*
G37*
G04 #@! TD.AperFunction*
G04 #@! TA.AperFunction,Conductor*
G36*
X177718039Y-100154682D02*
G01*
X177763794Y-100207486D01*
X177775000Y-100258997D01*
X177775000Y-100682845D01*
X177781401Y-100742373D01*
X177781403Y-100742380D01*
X177834746Y-100885400D01*
X177832930Y-100886077D01*
X177845382Y-100943324D01*
X177833428Y-100984034D01*
X177834302Y-100984360D01*
X177780907Y-101127518D01*
X177774832Y-101184032D01*
X177774500Y-101187126D01*
X177774499Y-101187136D01*
X177774499Y-101872770D01*
X177754814Y-101939809D01*
X177738180Y-101960451D01*
X177310448Y-102388184D01*
X177249125Y-102421669D01*
X177222767Y-102424503D01*
X175048938Y-102424503D01*
X174981899Y-102404818D01*
X174936144Y-102352014D01*
X174926200Y-102282856D01*
X174929862Y-102265906D01*
X174932078Y-102258277D01*
X174932730Y-102250000D01*
X173950833Y-102250000D01*
X173883794Y-102230315D01*
X173838039Y-102177511D01*
X173828095Y-102108353D01*
X173857120Y-102044797D01*
X173863152Y-102038319D01*
X174115152Y-101786319D01*
X174176475Y-101752834D01*
X174202833Y-101750000D01*
X174932730Y-101750000D01*
X174932078Y-101741718D01*
X174885909Y-101582805D01*
X174885907Y-101582802D01*
X174801666Y-101440357D01*
X174801660Y-101440349D01*
X174719072Y-101357761D01*
X174685587Y-101296438D01*
X174690571Y-101226746D01*
X174719069Y-101182402D01*
X174777545Y-101123927D01*
X174873358Y-100980533D01*
X174875551Y-100975240D01*
X174902221Y-100910851D01*
X174939355Y-100821202D01*
X174955754Y-100738756D01*
X174988138Y-100676847D01*
X175048854Y-100642273D01*
X175092573Y-100640322D01*
X175092584Y-100640181D01*
X175093800Y-100640268D01*
X175095026Y-100640213D01*
X175097000Y-100640497D01*
X175097007Y-100640497D01*
X176672275Y-100640497D01*
X176682421Y-100639952D01*
X176726313Y-100637600D01*
X176726321Y-100637599D01*
X176726323Y-100637599D01*
X176726324Y-100637599D01*
X176733317Y-100636846D01*
X176752671Y-100634766D01*
X176752681Y-100634764D01*
X176752684Y-100634764D01*
X176763144Y-100633069D01*
X176806083Y-100626111D01*
X176940892Y-100575829D01*
X177002215Y-100542344D01*
X177117397Y-100456120D01*
X177402200Y-100171315D01*
X177463522Y-100137831D01*
X177489881Y-100134997D01*
X177651000Y-100134997D01*
X177718039Y-100154682D01*
G37*
G04 #@! TD.AperFunction*
G04 #@! TA.AperFunction,Conductor*
G36*
X110828036Y-100154682D02*
G01*
X110873791Y-100207486D01*
X110884997Y-100258997D01*
X110884997Y-100682843D01*
X110891398Y-100742371D01*
X110891400Y-100742378D01*
X110944743Y-100885398D01*
X110942927Y-100886075D01*
X110955379Y-100943322D01*
X110943425Y-100984032D01*
X110944299Y-100984358D01*
X110890904Y-101127516D01*
X110884497Y-101187115D01*
X110884497Y-101187124D01*
X110884496Y-101187134D01*
X110884496Y-101872768D01*
X110864811Y-101939807D01*
X110848177Y-101960449D01*
X110487943Y-102320684D01*
X110426620Y-102354169D01*
X110400262Y-102357003D01*
X108047943Y-102357003D01*
X107980904Y-102337318D01*
X107935149Y-102284514D01*
X107925205Y-102215356D01*
X107928867Y-102198408D01*
X107969578Y-102058281D01*
X107970230Y-102050000D01*
X106979000Y-102050000D01*
X106911961Y-102030315D01*
X106866206Y-101977511D01*
X106855000Y-101926000D01*
X106855000Y-101674000D01*
X106874685Y-101606961D01*
X106927489Y-101561206D01*
X106979000Y-101550000D01*
X107970230Y-101550000D01*
X107969578Y-101541718D01*
X107923409Y-101382805D01*
X107923407Y-101382802D01*
X107839166Y-101240357D01*
X107839160Y-101240349D01*
X107722150Y-101123339D01*
X107722142Y-101123333D01*
X107614777Y-101059838D01*
X107567094Y-101008769D01*
X107554590Y-100940027D01*
X107581235Y-100875438D01*
X107590210Y-100865432D01*
X107835887Y-100619755D01*
X107897208Y-100586272D01*
X107966900Y-100591256D01*
X107975076Y-100594643D01*
X107986746Y-100599972D01*
X107987541Y-100600335D01*
X108054580Y-100620020D01*
X108054584Y-100620021D01*
X108197000Y-100640497D01*
X108197003Y-100640497D01*
X109762275Y-100640497D01*
X109772421Y-100639952D01*
X109816313Y-100637600D01*
X109816321Y-100637599D01*
X109816323Y-100637599D01*
X109816324Y-100637599D01*
X109823317Y-100636846D01*
X109842671Y-100634766D01*
X109842681Y-100634764D01*
X109842684Y-100634764D01*
X109853144Y-100633069D01*
X109896083Y-100626111D01*
X110030892Y-100575829D01*
X110092215Y-100542344D01*
X110207397Y-100456120D01*
X110492201Y-100171314D01*
X110553522Y-100137831D01*
X110579881Y-100134997D01*
X110760997Y-100134997D01*
X110828036Y-100154682D01*
G37*
G04 #@! TD.AperFunction*
G04 #@! TA.AperFunction,Conductor*
G36*
X206073791Y-100157488D02*
G01*
X206084997Y-100208999D01*
X206084997Y-100460999D01*
X206065312Y-100528038D01*
X206012508Y-100573793D01*
X205960997Y-100584999D01*
X204584997Y-100584999D01*
X204584997Y-100882843D01*
X204591398Y-100942371D01*
X204591400Y-100942378D01*
X204644743Y-101085398D01*
X204642927Y-101086075D01*
X204655379Y-101143322D01*
X204643425Y-101184032D01*
X204644299Y-101184358D01*
X204590904Y-101327516D01*
X204584497Y-101387115D01*
X204584497Y-101387123D01*
X204584496Y-101387134D01*
X204584496Y-102072768D01*
X204564811Y-102139807D01*
X204548181Y-102160444D01*
X204387941Y-102320685D01*
X204326620Y-102354169D01*
X204300262Y-102357003D01*
X201810443Y-102357003D01*
X201743404Y-102337318D01*
X201697649Y-102284514D01*
X201687705Y-102215356D01*
X201691367Y-102198408D01*
X201732078Y-102058281D01*
X201732730Y-102050000D01*
X200741500Y-102050000D01*
X200674461Y-102030315D01*
X200628706Y-101977511D01*
X200617500Y-101926000D01*
X200617500Y-101674000D01*
X200637185Y-101606961D01*
X200689989Y-101561206D01*
X200741500Y-101550000D01*
X201732730Y-101550000D01*
X201732078Y-101541718D01*
X201685909Y-101382805D01*
X201685907Y-101382802D01*
X201601666Y-101240357D01*
X201601660Y-101240349D01*
X201484650Y-101123339D01*
X201484642Y-101123333D01*
X201342197Y-101039092D01*
X201342194Y-101039090D01*
X201280655Y-101021212D01*
X201221769Y-100983606D01*
X201192563Y-100920133D01*
X201202309Y-100850947D01*
X201227566Y-100814458D01*
X201457506Y-100584518D01*
X201518827Y-100551035D01*
X201588519Y-100556019D01*
X201596683Y-100559401D01*
X201651417Y-100584398D01*
X201681657Y-100598209D01*
X201686313Y-100600335D01*
X201753352Y-100620020D01*
X201753356Y-100620021D01*
X201895772Y-100640497D01*
X201895775Y-100640497D01*
X203242276Y-100640497D01*
X203252422Y-100639952D01*
X203296314Y-100637600D01*
X203296322Y-100637599D01*
X203296324Y-100637599D01*
X203296325Y-100637599D01*
X203303318Y-100636846D01*
X203322672Y-100634766D01*
X203322682Y-100634764D01*
X203322685Y-100634764D01*
X203333145Y-100633069D01*
X203376084Y-100626111D01*
X203510893Y-100575829D01*
X203562486Y-100547656D01*
X203568777Y-100544918D01*
X203572213Y-100542345D01*
X203572216Y-100542344D01*
X203572217Y-100542344D01*
X203687399Y-100456119D01*
X203925183Y-100218331D01*
X203943965Y-100202917D01*
X203963797Y-100189665D01*
X203985220Y-100178213D01*
X204007258Y-100169085D01*
X204030508Y-100162033D01*
X204048627Y-100158429D01*
X204053897Y-100157382D01*
X204078080Y-100155001D01*
X204526823Y-100155001D01*
X204532772Y-100154682D01*
X204580863Y-100152104D01*
X204607220Y-100149270D01*
X204660621Y-100140617D01*
X204675689Y-100134997D01*
X206054302Y-100134997D01*
X206073791Y-100157488D01*
G37*
G04 #@! TD.AperFunction*
G04 #@! TA.AperFunction,Conductor*
G36*
X150928036Y-100154682D02*
G01*
X150973791Y-100207486D01*
X150984997Y-100258997D01*
X150984997Y-100682843D01*
X150991398Y-100742371D01*
X150991400Y-100742378D01*
X151044743Y-100885398D01*
X151042927Y-100886075D01*
X151055379Y-100943322D01*
X151043425Y-100984032D01*
X151044299Y-100984358D01*
X150990904Y-101127516D01*
X150984497Y-101187115D01*
X150984497Y-101187124D01*
X150984496Y-101187134D01*
X150984496Y-101872768D01*
X150964811Y-101939807D01*
X150948177Y-101960449D01*
X150627946Y-102280681D01*
X150566623Y-102314166D01*
X150540265Y-102317000D01*
X148259565Y-102317000D01*
X148192526Y-102297315D01*
X148146771Y-102244511D01*
X148136827Y-102175353D01*
X148140489Y-102158405D01*
X148169578Y-102058281D01*
X148170230Y-102050000D01*
X147179000Y-102050000D01*
X147111961Y-102030315D01*
X147066206Y-101977511D01*
X147055000Y-101926000D01*
X147055000Y-101874717D01*
X147074685Y-101807678D01*
X147127489Y-101761923D01*
X147134939Y-101759105D01*
X147140368Y-101756856D01*
X147140374Y-101756855D01*
X147299705Y-101690858D01*
X147443099Y-101595045D01*
X147443102Y-101595042D01*
X147451826Y-101586319D01*
X147513149Y-101552834D01*
X147539507Y-101550000D01*
X148170230Y-101550000D01*
X148169578Y-101541718D01*
X148123409Y-101382805D01*
X148123407Y-101382802D01*
X148039166Y-101240357D01*
X148039160Y-101240349D01*
X148002682Y-101203871D01*
X147969197Y-101142548D01*
X147974181Y-101072856D01*
X147987264Y-101047295D01*
X147993057Y-101038626D01*
X148075854Y-100914711D01*
X148075854Y-100914710D01*
X148075858Y-100914705D01*
X148141855Y-100755374D01*
X148145523Y-100736929D01*
X148177907Y-100675019D01*
X148238621Y-100640443D01*
X148284790Y-100638382D01*
X148299500Y-100640497D01*
X148299501Y-100640497D01*
X149772274Y-100640497D01*
X149782420Y-100639952D01*
X149826312Y-100637600D01*
X149826320Y-100637599D01*
X149826322Y-100637599D01*
X149826323Y-100637599D01*
X149833316Y-100636846D01*
X149852670Y-100634766D01*
X149852680Y-100634764D01*
X149852683Y-100634764D01*
X149863143Y-100633069D01*
X149906082Y-100626111D01*
X150040891Y-100575829D01*
X150102214Y-100542344D01*
X150217395Y-100456120D01*
X150502200Y-100171314D01*
X150563520Y-100137831D01*
X150589879Y-100134997D01*
X150860997Y-100134997D01*
X150928036Y-100154682D01*
G37*
G04 #@! TD.AperFunction*
G04 #@! TA.AperFunction,Conductor*
G36*
X97320423Y-100226926D02*
G01*
X97369829Y-100276331D01*
X97384997Y-100335759D01*
X97384997Y-100682843D01*
X97391398Y-100742371D01*
X97391400Y-100742378D01*
X97419294Y-100817166D01*
X97424278Y-100886858D01*
X97390793Y-100948181D01*
X97329470Y-100981665D01*
X97303112Y-100984499D01*
X97132305Y-100984499D01*
X97065266Y-100964814D01*
X97019511Y-100912010D01*
X97008305Y-100860499D01*
X97008305Y-100344964D01*
X97027990Y-100277925D01*
X97080794Y-100232170D01*
X97123453Y-100221281D01*
X97252153Y-100212075D01*
X97320423Y-100226926D01*
G37*
G04 #@! TD.AperFunction*
G04 #@! TA.AperFunction,Conductor*
G36*
X90575800Y-96870185D02*
G01*
X90621555Y-96922989D01*
X90631499Y-96992147D01*
X90602474Y-97055703D01*
X90596442Y-97062181D01*
X90160447Y-97498174D01*
X90099124Y-97531659D01*
X90072766Y-97534493D01*
X89387127Y-97534493D01*
X89387121Y-97534494D01*
X89327514Y-97540901D01*
X89192669Y-97591195D01*
X89192662Y-97591199D01*
X89077453Y-97677445D01*
X89077450Y-97677448D01*
X88991204Y-97792657D01*
X88991200Y-97792664D01*
X88940906Y-97927510D01*
X88934499Y-97987109D01*
X88934498Y-97987128D01*
X88934498Y-99082863D01*
X88934499Y-99082869D01*
X88940906Y-99142476D01*
X88994301Y-99285634D01*
X88992731Y-99286219D01*
X89005380Y-99344366D01*
X88993685Y-99384199D01*
X88994743Y-99384594D01*
X88941400Y-99527613D01*
X88941398Y-99527620D01*
X88934997Y-99587148D01*
X88934997Y-100010997D01*
X88915312Y-100078036D01*
X88862508Y-100123791D01*
X88810997Y-100134997D01*
X86659496Y-100134997D01*
X86592457Y-100115312D01*
X86546702Y-100062508D01*
X86535496Y-100010997D01*
X86535496Y-99587126D01*
X86535495Y-99587120D01*
X86535441Y-99586620D01*
X86529100Y-99527622D01*
X86529088Y-99527513D01*
X86475694Y-99384356D01*
X86477421Y-99383711D01*
X86464900Y-99326147D01*
X86476687Y-99286008D01*
X86475692Y-99285637D01*
X86511605Y-99189347D01*
X86529086Y-99142479D01*
X86535495Y-99082869D01*
X86535494Y-97987124D01*
X86530294Y-97938753D01*
X86529086Y-97927512D01*
X86478792Y-97792667D01*
X86478788Y-97792660D01*
X86392542Y-97677451D01*
X86392539Y-97677449D01*
X86366901Y-97658256D01*
X86273412Y-97588269D01*
X86231542Y-97532335D01*
X86226558Y-97462643D01*
X86260041Y-97401324D01*
X86774548Y-96886819D01*
X86835871Y-96853334D01*
X86862229Y-96850500D01*
X90508761Y-96850500D01*
X90575800Y-96870185D01*
G37*
G04 #@! TD.AperFunction*
G04 #@! TA.AperFunction,Conductor*
G36*
X94130469Y-98070185D02*
G01*
X94151111Y-98086819D01*
X94770986Y-98706694D01*
X94804471Y-98768017D01*
X94807305Y-98794375D01*
X94807305Y-100010997D01*
X94787620Y-100078036D01*
X94734816Y-100123791D01*
X94683305Y-100134997D01*
X94674500Y-100134997D01*
X94607461Y-100115312D01*
X94561706Y-100062508D01*
X94550500Y-100010997D01*
X94550500Y-99774021D01*
X94551009Y-99762799D01*
X94552838Y-99742669D01*
X94555500Y-99713381D01*
X94555499Y-99286620D01*
X94555499Y-99286619D01*
X94555499Y-99286611D01*
X94549453Y-99220073D01*
X94549452Y-99220070D01*
X94549452Y-99220067D01*
X94509662Y-99092377D01*
X94501734Y-99066933D01*
X94501732Y-99066929D01*
X94418757Y-98929670D01*
X94418753Y-98929665D01*
X94305334Y-98816246D01*
X94305329Y-98816242D01*
X94168070Y-98733267D01*
X94168066Y-98733265D01*
X94014933Y-98685548D01*
X94014935Y-98685548D01*
X93988312Y-98683128D01*
X93948381Y-98679500D01*
X93948378Y-98679500D01*
X93446611Y-98679500D01*
X93380073Y-98685546D01*
X93380066Y-98685548D01*
X93226937Y-98733264D01*
X93226931Y-98733267D01*
X93163664Y-98771512D01*
X93096109Y-98789347D01*
X93035367Y-98771511D01*
X92972863Y-98733726D01*
X92972859Y-98733724D01*
X92819842Y-98686043D01*
X92819843Y-98686043D01*
X92753337Y-98680000D01*
X92752500Y-98680000D01*
X92752500Y-99626000D01*
X92732815Y-99693039D01*
X92680011Y-99738794D01*
X92628500Y-99750000D01*
X91646535Y-99750000D01*
X91590816Y-99783787D01*
X91520970Y-99781964D01*
X91463197Y-99742669D01*
X91435841Y-99678378D01*
X91434997Y-99663939D01*
X91434997Y-99587165D01*
X91434996Y-99587148D01*
X91428595Y-99527620D01*
X91428593Y-99527613D01*
X91375251Y-99384594D01*
X91377066Y-99383916D01*
X91364614Y-99326677D01*
X91376570Y-99285961D01*
X91375695Y-99285635D01*
X91408440Y-99197838D01*
X91409287Y-99196706D01*
X91636708Y-99196706D01*
X91648294Y-99249960D01*
X91648331Y-99250000D01*
X92252500Y-99250000D01*
X92252500Y-98680000D01*
X92251663Y-98680000D01*
X92185156Y-98686043D01*
X92032140Y-98733724D01*
X92032136Y-98733726D01*
X91894980Y-98816639D01*
X91894976Y-98816642D01*
X91781642Y-98929976D01*
X91781639Y-98929980D01*
X91698726Y-99067136D01*
X91698725Y-99067138D01*
X91676631Y-99138042D01*
X91637893Y-99196189D01*
X91636708Y-99196706D01*
X91409287Y-99196706D01*
X91447209Y-99146046D01*
X91434263Y-99099108D01*
X91434956Y-99087904D01*
X91435498Y-99082866D01*
X91435497Y-98397222D01*
X91455181Y-98330184D01*
X91471816Y-98309542D01*
X91694540Y-98086819D01*
X91755863Y-98053334D01*
X91782221Y-98050500D01*
X94063430Y-98050500D01*
X94130469Y-98070185D01*
G37*
G04 #@! TD.AperFunction*
G04 #@! TA.AperFunction,Conductor*
G36*
X230827536Y-95455182D02*
G01*
X230873291Y-95507986D01*
X230884497Y-95559497D01*
X230884497Y-96085500D01*
X230864812Y-96152539D01*
X230812008Y-96198294D01*
X230760497Y-96209500D01*
X229102129Y-96209500D01*
X229102123Y-96209501D01*
X229042516Y-96215908D01*
X228907671Y-96266202D01*
X228907664Y-96266206D01*
X228792455Y-96352452D01*
X228792452Y-96352455D01*
X228706206Y-96467664D01*
X228706204Y-96467669D01*
X228655418Y-96603833D01*
X228613547Y-96659767D01*
X228548083Y-96684184D01*
X228539236Y-96684500D01*
X221592067Y-96684500D01*
X221422932Y-96718143D01*
X221422920Y-96718146D01*
X221263600Y-96784138D01*
X221263587Y-96784145D01*
X221120200Y-96879954D01*
X221120196Y-96879957D01*
X220341901Y-97658253D01*
X220341898Y-97658256D01*
X220326555Y-97673598D01*
X220265231Y-97707081D01*
X220215204Y-97706635D01*
X220215193Y-97706739D01*
X220214138Y-97706625D01*
X220210365Y-97706592D01*
X220207484Y-97705911D01*
X220207481Y-97705910D01*
X220207477Y-97705909D01*
X220207475Y-97705909D01*
X220147881Y-97699502D01*
X220147879Y-97699501D01*
X220147871Y-97699501D01*
X220147863Y-97699501D01*
X219462228Y-97699501D01*
X219395189Y-97679816D01*
X219374547Y-97663182D01*
X218978418Y-97267052D01*
X218978411Y-97267046D01*
X218904726Y-97217812D01*
X218904726Y-97217813D01*
X218855488Y-97184913D01*
X218718914Y-97128343D01*
X218718904Y-97128340D01*
X218573917Y-97099500D01*
X218573915Y-97099500D01*
X211546075Y-97099500D01*
X211546073Y-97099500D01*
X211401085Y-97128340D01*
X211401079Y-97128342D01*
X211264501Y-97184914D01*
X211264489Y-97184921D01*
X211215263Y-97217811D01*
X211215264Y-97217812D01*
X211141574Y-97267049D01*
X210710447Y-97698176D01*
X210649124Y-97731661D01*
X210622766Y-97734495D01*
X209937127Y-97734495D01*
X209937121Y-97734496D01*
X209877514Y-97740903D01*
X209742669Y-97791197D01*
X209742662Y-97791201D01*
X209627453Y-97877447D01*
X209627450Y-97877450D01*
X209541204Y-97992659D01*
X209541200Y-97992666D01*
X209490906Y-98127512D01*
X209484499Y-98187111D01*
X209484498Y-98187130D01*
X209484498Y-99282865D01*
X209484499Y-99282871D01*
X209490906Y-99342478D01*
X209544301Y-99485636D01*
X209542731Y-99486221D01*
X209555380Y-99544368D01*
X209543685Y-99584201D01*
X209544743Y-99584596D01*
X209491400Y-99727615D01*
X209491398Y-99727622D01*
X209484997Y-99787150D01*
X209484997Y-100010997D01*
X209465312Y-100078036D01*
X209412508Y-100123791D01*
X209360997Y-100134997D01*
X207959495Y-100134997D01*
X207892456Y-100115312D01*
X207846701Y-100062508D01*
X207835495Y-100010997D01*
X207835495Y-99361076D01*
X207806654Y-99216089D01*
X207806653Y-99216088D01*
X207806653Y-99216084D01*
X207750079Y-99079502D01*
X207708951Y-99017949D01*
X207708951Y-99017948D01*
X207667945Y-98956578D01*
X207121813Y-98410446D01*
X207088328Y-98349123D01*
X207085494Y-98322765D01*
X207085494Y-98187127D01*
X207085494Y-98187126D01*
X207079086Y-98127515D01*
X207077315Y-98122768D01*
X207028792Y-97992669D01*
X207028788Y-97992662D01*
X206942542Y-97877453D01*
X206942539Y-97877450D01*
X206827330Y-97791204D01*
X206827323Y-97791200D01*
X206692477Y-97740906D01*
X206692478Y-97740906D01*
X206632878Y-97734499D01*
X206632876Y-97734498D01*
X206632868Y-97734498D01*
X206632860Y-97734498D01*
X205947224Y-97734498D01*
X205880185Y-97714813D01*
X205859543Y-97698179D01*
X204678412Y-96517047D01*
X204678410Y-96517045D01*
X204620485Y-96478343D01*
X204604510Y-96467669D01*
X204555492Y-96434916D01*
X204555491Y-96434915D01*
X204555489Y-96434914D01*
X204555487Y-96434913D01*
X204418914Y-96378343D01*
X204418904Y-96378340D01*
X204273917Y-96349500D01*
X204273915Y-96349500D01*
X198843910Y-96349500D01*
X198696075Y-96349500D01*
X198696073Y-96349500D01*
X198551085Y-96378340D01*
X198551075Y-96378343D01*
X198414504Y-96434912D01*
X198414491Y-96434919D01*
X198291577Y-96517048D01*
X198291573Y-96517051D01*
X197310447Y-97498176D01*
X197249124Y-97531661D01*
X197222766Y-97534495D01*
X196537127Y-97534495D01*
X196537121Y-97534496D01*
X196477514Y-97540903D01*
X196342669Y-97591197D01*
X196342662Y-97591201D01*
X196227453Y-97677447D01*
X196227450Y-97677450D01*
X196141204Y-97792659D01*
X196141200Y-97792666D01*
X196090906Y-97927512D01*
X196084499Y-97987109D01*
X196084499Y-97987120D01*
X196084498Y-97987130D01*
X196084498Y-99082865D01*
X196084499Y-99082871D01*
X196090906Y-99142478D01*
X196144301Y-99285636D01*
X196142731Y-99286221D01*
X196155380Y-99344368D01*
X196143685Y-99384201D01*
X196144743Y-99384596D01*
X196091400Y-99527615D01*
X196091398Y-99527622D01*
X196084997Y-99587150D01*
X196084997Y-100010997D01*
X196065312Y-100078036D01*
X196012508Y-100123791D01*
X195960997Y-100134997D01*
X195774500Y-100134997D01*
X195707461Y-100115312D01*
X195661706Y-100062508D01*
X195650500Y-100010997D01*
X195650500Y-99526079D01*
X195621659Y-99381092D01*
X195621658Y-99381091D01*
X195621658Y-99381087D01*
X195615795Y-99366933D01*
X195565087Y-99244511D01*
X195565080Y-99244498D01*
X195482952Y-99121585D01*
X195432878Y-99071511D01*
X195378416Y-99017049D01*
X195113672Y-98752305D01*
X194313416Y-97952047D01*
X194313414Y-97952045D01*
X194264756Y-97919535D01*
X194232462Y-97897957D01*
X194190493Y-97869914D01*
X194190492Y-97869913D01*
X194190490Y-97869912D01*
X194190488Y-97869911D01*
X194053915Y-97813341D01*
X194053905Y-97813338D01*
X193908918Y-97784498D01*
X193908916Y-97784498D01*
X193684746Y-97784498D01*
X193617707Y-97764813D01*
X193585480Y-97734810D01*
X193547816Y-97684498D01*
X193542541Y-97677452D01*
X193537393Y-97673598D01*
X193427330Y-97591204D01*
X193427323Y-97591200D01*
X193292477Y-97540906D01*
X193292478Y-97540906D01*
X193232878Y-97534499D01*
X193232876Y-97534498D01*
X193232868Y-97534498D01*
X193232860Y-97534498D01*
X192547224Y-97534498D01*
X192480185Y-97514813D01*
X192459543Y-97498179D01*
X191778418Y-96817052D01*
X191778411Y-96817046D01*
X191700642Y-96765083D01*
X191700642Y-96765084D01*
X191655492Y-96734916D01*
X191655489Y-96734914D01*
X191655488Y-96734914D01*
X191518914Y-96678343D01*
X191518904Y-96678340D01*
X191373917Y-96649500D01*
X191373915Y-96649500D01*
X185133915Y-96649500D01*
X184986080Y-96649500D01*
X184986078Y-96649500D01*
X184841090Y-96678340D01*
X184841080Y-96678343D01*
X184704509Y-96734912D01*
X184704496Y-96734919D01*
X184581582Y-96817048D01*
X184581578Y-96817051D01*
X183900450Y-97498178D01*
X183839127Y-97531663D01*
X183812769Y-97534497D01*
X183127130Y-97534497D01*
X183127124Y-97534498D01*
X183067517Y-97540905D01*
X182932672Y-97591199D01*
X182932665Y-97591203D01*
X182817456Y-97677449D01*
X182817453Y-97677452D01*
X182731207Y-97792661D01*
X182731203Y-97792668D01*
X182680909Y-97927514D01*
X182674502Y-97987111D01*
X182674502Y-97987122D01*
X182674501Y-97987132D01*
X182674501Y-99082867D01*
X182674502Y-99082873D01*
X182680909Y-99142480D01*
X182734304Y-99285638D01*
X182732734Y-99286223D01*
X182745383Y-99344370D01*
X182733688Y-99384203D01*
X182734746Y-99384598D01*
X182681403Y-99527617D01*
X182681401Y-99527624D01*
X182675000Y-99587152D01*
X182675000Y-100010997D01*
X182655315Y-100078036D01*
X182602511Y-100123791D01*
X182551000Y-100134997D01*
X182287726Y-100134997D01*
X182220687Y-100115312D01*
X182200045Y-100098678D01*
X180311816Y-98210449D01*
X180278331Y-98149126D01*
X180275497Y-98122768D01*
X180275497Y-97987129D01*
X180275497Y-97987126D01*
X180269089Y-97927517D01*
X180269088Y-97927515D01*
X180218795Y-97792671D01*
X180218791Y-97792664D01*
X180132545Y-97677455D01*
X180132542Y-97677452D01*
X180017333Y-97591206D01*
X180017326Y-97591202D01*
X179882480Y-97540908D01*
X179882481Y-97540908D01*
X179822881Y-97534501D01*
X179822879Y-97534500D01*
X179822871Y-97534500D01*
X179822863Y-97534500D01*
X179137228Y-97534500D01*
X179070189Y-97514815D01*
X179049547Y-97498181D01*
X178468419Y-96917052D01*
X178468418Y-96917051D01*
X178458275Y-96910274D01*
X178359845Y-96844506D01*
X178345493Y-96834916D01*
X178345488Y-96834913D01*
X178208915Y-96778343D01*
X178208905Y-96778340D01*
X178063918Y-96749500D01*
X178063916Y-96749500D01*
X171513575Y-96749500D01*
X171513573Y-96749500D01*
X171368585Y-96778340D01*
X171368575Y-96778343D01*
X171232002Y-96834913D01*
X171231993Y-96834918D01*
X171217648Y-96844504D01*
X171217646Y-96844506D01*
X171109075Y-96917049D01*
X171109074Y-96917050D01*
X170527947Y-97498176D01*
X170466624Y-97531661D01*
X170440266Y-97534495D01*
X169754627Y-97534495D01*
X169754621Y-97534496D01*
X169695014Y-97540903D01*
X169560169Y-97591197D01*
X169560162Y-97591201D01*
X169444953Y-97677447D01*
X169444950Y-97677450D01*
X169358704Y-97792659D01*
X169358700Y-97792666D01*
X169308406Y-97927512D01*
X169301999Y-97987109D01*
X169301999Y-97987120D01*
X169301998Y-97987130D01*
X169301998Y-99082865D01*
X169301999Y-99082871D01*
X169308406Y-99142478D01*
X169361801Y-99285636D01*
X169360231Y-99286221D01*
X169372880Y-99344368D01*
X169361185Y-99384201D01*
X169362243Y-99384596D01*
X169308900Y-99527615D01*
X169308898Y-99527622D01*
X169302497Y-99587150D01*
X169302497Y-100010997D01*
X169282812Y-100078036D01*
X169230008Y-100123791D01*
X169178497Y-100134997D01*
X168915225Y-100134997D01*
X168848186Y-100115312D01*
X168827544Y-100098678D01*
X166939313Y-98210447D01*
X166905828Y-98149124D01*
X166902994Y-98122766D01*
X166902994Y-97987127D01*
X166902994Y-97987124D01*
X166896586Y-97927515D01*
X166896585Y-97927513D01*
X166846292Y-97792669D01*
X166846288Y-97792662D01*
X166760042Y-97677453D01*
X166760039Y-97677450D01*
X166644830Y-97591204D01*
X166644823Y-97591200D01*
X166509977Y-97540906D01*
X166509978Y-97540906D01*
X166450378Y-97534499D01*
X166450376Y-97534498D01*
X166450368Y-97534498D01*
X166450360Y-97534498D01*
X165764725Y-97534498D01*
X165697686Y-97514813D01*
X165677044Y-97498179D01*
X164895918Y-96717052D01*
X164895917Y-96717051D01*
X164837985Y-96678343D01*
X164813716Y-96662127D01*
X164813715Y-96662126D01*
X164772997Y-96634919D01*
X164772985Y-96634912D01*
X164636414Y-96578343D01*
X164636404Y-96578340D01*
X164491417Y-96549500D01*
X164491415Y-96549500D01*
X158296075Y-96549500D01*
X158296069Y-96549500D01*
X158267235Y-96555234D01*
X158267236Y-96555235D01*
X158151086Y-96578339D01*
X158151078Y-96578341D01*
X158103742Y-96597948D01*
X158103743Y-96597949D01*
X158014499Y-96634914D01*
X157940290Y-96684500D01*
X157891575Y-96717049D01*
X157891572Y-96717052D01*
X157110447Y-97498176D01*
X157049124Y-97531661D01*
X157022766Y-97534495D01*
X156337127Y-97534495D01*
X156337121Y-97534496D01*
X156277514Y-97540903D01*
X156142669Y-97591197D01*
X156142662Y-97591201D01*
X156027453Y-97677447D01*
X156027450Y-97677450D01*
X155941204Y-97792659D01*
X155941200Y-97792666D01*
X155890906Y-97927512D01*
X155884499Y-97987109D01*
X155884499Y-97987120D01*
X155884498Y-97987130D01*
X155884498Y-99082865D01*
X155884499Y-99082871D01*
X155890906Y-99142478D01*
X155944301Y-99285636D01*
X155942731Y-99286221D01*
X155955380Y-99344368D01*
X155943685Y-99384201D01*
X155944743Y-99384596D01*
X155891400Y-99527615D01*
X155891398Y-99527622D01*
X155884997Y-99587150D01*
X155884997Y-100010997D01*
X155865312Y-100078036D01*
X155812508Y-100123791D01*
X155760997Y-100134997D01*
X155497725Y-100134997D01*
X155430686Y-100115312D01*
X155410044Y-100098678D01*
X153521813Y-98210447D01*
X153488328Y-98149124D01*
X153485494Y-98122766D01*
X153485494Y-97987127D01*
X153485494Y-97987124D01*
X153479086Y-97927515D01*
X153479085Y-97927513D01*
X153428792Y-97792669D01*
X153428788Y-97792662D01*
X153342542Y-97677453D01*
X153342539Y-97677450D01*
X153227330Y-97591204D01*
X153227323Y-97591200D01*
X153092477Y-97540906D01*
X153092478Y-97540906D01*
X153032878Y-97534499D01*
X153032876Y-97534498D01*
X153032868Y-97534498D01*
X153032860Y-97534498D01*
X152347224Y-97534498D01*
X152280185Y-97514813D01*
X152259543Y-97498179D01*
X151378418Y-96617052D01*
X151378417Y-96617051D01*
X151349828Y-96597949D01*
X151299775Y-96564505D01*
X151285903Y-96555236D01*
X151255497Y-96534919D01*
X151255485Y-96534912D01*
X151118914Y-96478343D01*
X151118904Y-96478340D01*
X150973917Y-96449500D01*
X150973915Y-96449500D01*
X144996075Y-96449500D01*
X144996069Y-96449500D01*
X144967235Y-96455234D01*
X144967236Y-96455235D01*
X144851086Y-96478339D01*
X144851076Y-96478342D01*
X144771074Y-96511479D01*
X144771075Y-96511480D01*
X144714499Y-96534915D01*
X144670215Y-96564505D01*
X144591575Y-96617049D01*
X144591572Y-96617052D01*
X143810447Y-97398176D01*
X143749124Y-97431661D01*
X143722766Y-97434495D01*
X143037127Y-97434495D01*
X143037121Y-97434496D01*
X142977514Y-97440903D01*
X142842669Y-97491197D01*
X142842662Y-97491201D01*
X142727453Y-97577447D01*
X142727450Y-97577450D01*
X142641204Y-97692659D01*
X142641200Y-97692666D01*
X142590906Y-97827512D01*
X142584499Y-97887111D01*
X142584498Y-97887130D01*
X142584498Y-98982865D01*
X142584499Y-98982871D01*
X142590906Y-99042478D01*
X142644301Y-99185636D01*
X142642731Y-99186221D01*
X142655380Y-99244368D01*
X142643685Y-99284201D01*
X142644743Y-99284596D01*
X142591400Y-99427615D01*
X142591398Y-99427622D01*
X142584997Y-99487150D01*
X142584997Y-99784995D01*
X143960997Y-99784995D01*
X144028036Y-99804680D01*
X144073791Y-99857484D01*
X144084997Y-99908995D01*
X144084997Y-100134997D01*
X141547727Y-100134997D01*
X141480688Y-100115312D01*
X141460046Y-100098678D01*
X141186819Y-99825451D01*
X141153334Y-99764128D01*
X141150500Y-99737770D01*
X141150500Y-98576082D01*
X141121659Y-98431095D01*
X141121658Y-98431094D01*
X141121658Y-98431090D01*
X141096714Y-98370869D01*
X141065087Y-98294514D01*
X141065083Y-98294507D01*
X141059945Y-98286817D01*
X141028693Y-98240045D01*
X141022105Y-98230185D01*
X140982956Y-98171592D01*
X140982952Y-98171587D01*
X140663416Y-97852050D01*
X140663409Y-97852044D01*
X140574634Y-97792727D01*
X140574535Y-97792662D01*
X140540490Y-97769914D01*
X140540489Y-97769913D01*
X140540487Y-97769912D01*
X140403912Y-97713341D01*
X140403902Y-97713338D01*
X140258915Y-97684498D01*
X140258913Y-97684498D01*
X140184746Y-97684498D01*
X140117707Y-97664813D01*
X140085480Y-97634810D01*
X140042543Y-97577455D01*
X140042541Y-97577452D01*
X139993725Y-97540908D01*
X139927330Y-97491204D01*
X139927323Y-97491200D01*
X139792477Y-97440906D01*
X139792478Y-97440906D01*
X139732878Y-97434499D01*
X139732876Y-97434498D01*
X139732868Y-97434498D01*
X139732860Y-97434498D01*
X139047224Y-97434498D01*
X138980185Y-97414813D01*
X138959543Y-97398179D01*
X137778418Y-96217052D01*
X137778411Y-96217046D01*
X137704726Y-96167812D01*
X137704726Y-96167813D01*
X137655488Y-96134913D01*
X137518914Y-96078343D01*
X137518904Y-96078340D01*
X137373917Y-96049500D01*
X137373915Y-96049500D01*
X132096075Y-96049500D01*
X132096073Y-96049500D01*
X131951085Y-96078340D01*
X131951075Y-96078343D01*
X131814504Y-96134912D01*
X131814491Y-96134919D01*
X131691577Y-96217048D01*
X131691573Y-96217051D01*
X130410447Y-97498176D01*
X130349124Y-97531661D01*
X130322766Y-97534495D01*
X129637127Y-97534495D01*
X129637121Y-97534496D01*
X129577514Y-97540903D01*
X129442669Y-97591197D01*
X129442662Y-97591201D01*
X129327453Y-97677447D01*
X129327450Y-97677450D01*
X129241204Y-97792659D01*
X129241200Y-97792666D01*
X129190906Y-97927512D01*
X129184499Y-97987109D01*
X129184499Y-97987120D01*
X129184498Y-97987130D01*
X129184498Y-99082865D01*
X129184499Y-99082871D01*
X129190906Y-99142478D01*
X129244301Y-99285636D01*
X129242731Y-99286221D01*
X129255380Y-99344368D01*
X129243685Y-99384201D01*
X129244743Y-99384596D01*
X129191400Y-99527615D01*
X129191398Y-99527622D01*
X129184997Y-99587150D01*
X129184997Y-100010997D01*
X129165312Y-100078036D01*
X129112508Y-100123791D01*
X129060997Y-100134997D01*
X128797725Y-100134997D01*
X128730686Y-100115312D01*
X128710044Y-100098678D01*
X126821813Y-98210447D01*
X126788328Y-98149124D01*
X126785494Y-98122766D01*
X126785494Y-97987127D01*
X126785494Y-97987124D01*
X126779086Y-97927515D01*
X126779085Y-97927513D01*
X126728792Y-97792669D01*
X126728788Y-97792662D01*
X126642542Y-97677453D01*
X126642539Y-97677450D01*
X126527330Y-97591204D01*
X126527323Y-97591200D01*
X126392477Y-97540906D01*
X126392478Y-97540906D01*
X126332878Y-97534499D01*
X126332876Y-97534498D01*
X126332868Y-97534498D01*
X126332860Y-97534498D01*
X125647224Y-97534498D01*
X125580185Y-97514813D01*
X125559543Y-97498179D01*
X124678418Y-96617052D01*
X124678417Y-96617051D01*
X124649828Y-96597949D01*
X124599775Y-96564505D01*
X124585903Y-96555236D01*
X124555497Y-96534919D01*
X124555485Y-96534912D01*
X124418914Y-96478343D01*
X124418904Y-96478340D01*
X124273917Y-96449500D01*
X124273915Y-96449500D01*
X118296075Y-96449500D01*
X118296073Y-96449500D01*
X118151085Y-96478340D01*
X118151075Y-96478343D01*
X118014504Y-96534912D01*
X118014492Y-96534919D01*
X117970216Y-96564504D01*
X117970215Y-96564505D01*
X117891575Y-96617049D01*
X117891574Y-96617050D01*
X117010447Y-97498176D01*
X116949124Y-97531661D01*
X116922766Y-97534495D01*
X116237127Y-97534495D01*
X116237121Y-97534496D01*
X116177514Y-97540903D01*
X116042669Y-97591197D01*
X116042662Y-97591201D01*
X115927453Y-97677447D01*
X115927450Y-97677450D01*
X115841204Y-97792659D01*
X115841200Y-97792666D01*
X115790906Y-97927512D01*
X115784499Y-97987109D01*
X115784499Y-97987120D01*
X115784498Y-97987130D01*
X115784498Y-99082865D01*
X115784499Y-99082871D01*
X115790906Y-99142478D01*
X115844301Y-99285636D01*
X115842731Y-99286221D01*
X115855380Y-99344368D01*
X115843685Y-99384201D01*
X115844743Y-99384596D01*
X115791400Y-99527615D01*
X115791398Y-99527622D01*
X115784997Y-99587150D01*
X115784997Y-100010997D01*
X115765312Y-100078036D01*
X115712508Y-100123791D01*
X115660997Y-100134997D01*
X115397725Y-100134997D01*
X115330686Y-100115312D01*
X115310044Y-100098678D01*
X113421813Y-98210447D01*
X113388328Y-98149124D01*
X113385494Y-98122766D01*
X113385494Y-97987127D01*
X113385494Y-97987124D01*
X113379086Y-97927515D01*
X113379085Y-97927513D01*
X113328792Y-97792669D01*
X113328788Y-97792662D01*
X113242542Y-97677453D01*
X113242539Y-97677450D01*
X113127330Y-97591204D01*
X113127323Y-97591200D01*
X112992477Y-97540906D01*
X112992478Y-97540906D01*
X112932878Y-97534499D01*
X112932876Y-97534498D01*
X112932868Y-97534498D01*
X112932860Y-97534498D01*
X112247225Y-97534498D01*
X112180186Y-97514813D01*
X112159544Y-97498179D01*
X111078418Y-96417052D01*
X111078411Y-96417046D01*
X111004726Y-96367812D01*
X111004726Y-96367813D01*
X110955488Y-96334913D01*
X110818914Y-96278343D01*
X110818904Y-96278340D01*
X110673917Y-96249500D01*
X110673915Y-96249500D01*
X104996075Y-96249500D01*
X104996069Y-96249500D01*
X104967235Y-96255234D01*
X104967236Y-96255235D01*
X104851086Y-96278339D01*
X104851076Y-96278342D01*
X104771074Y-96311479D01*
X104771075Y-96311480D01*
X104714495Y-96334917D01*
X104665262Y-96367813D01*
X104591581Y-96417044D01*
X104591573Y-96417050D01*
X103510447Y-97498176D01*
X103449124Y-97531661D01*
X103422766Y-97534495D01*
X102737127Y-97534495D01*
X102737121Y-97534496D01*
X102677514Y-97540903D01*
X102542669Y-97591197D01*
X102542662Y-97591201D01*
X102427453Y-97677447D01*
X102427450Y-97677450D01*
X102341204Y-97792659D01*
X102341200Y-97792666D01*
X102290906Y-97927512D01*
X102284499Y-97987109D01*
X102284499Y-97987120D01*
X102284498Y-97987130D01*
X102284498Y-99082865D01*
X102284499Y-99082871D01*
X102290906Y-99142478D01*
X102344301Y-99285636D01*
X102342731Y-99286221D01*
X102355380Y-99344368D01*
X102343685Y-99384201D01*
X102344743Y-99384596D01*
X102291400Y-99527615D01*
X102291398Y-99527622D01*
X102284997Y-99587150D01*
X102284997Y-100010997D01*
X102265312Y-100078036D01*
X102212508Y-100123791D01*
X102160997Y-100134997D01*
X100897730Y-100134997D01*
X100830691Y-100115312D01*
X100810049Y-100098678D01*
X100621816Y-99910445D01*
X100588331Y-99849122D01*
X100585497Y-99822764D01*
X100585497Y-99111078D01*
X100556656Y-98966091D01*
X100556655Y-98966090D01*
X100556655Y-98966086D01*
X100553365Y-98958143D01*
X100500084Y-98829510D01*
X100500077Y-98829497D01*
X100417949Y-98706584D01*
X100368826Y-98657461D01*
X100313413Y-98602048D01*
X100121811Y-98410446D01*
X99921813Y-98210447D01*
X99888328Y-98149124D01*
X99885494Y-98122766D01*
X99885494Y-97987127D01*
X99885494Y-97987124D01*
X99879086Y-97927515D01*
X99879085Y-97927513D01*
X99828792Y-97792669D01*
X99828788Y-97792662D01*
X99742542Y-97677453D01*
X99742539Y-97677450D01*
X99627330Y-97591204D01*
X99627323Y-97591200D01*
X99492477Y-97540906D01*
X99492478Y-97540906D01*
X99432878Y-97534499D01*
X99432876Y-97534498D01*
X99432868Y-97534498D01*
X99432859Y-97534498D01*
X97837124Y-97534498D01*
X97837118Y-97534499D01*
X97777511Y-97540906D01*
X97642666Y-97591200D01*
X97642659Y-97591204D01*
X97527450Y-97677450D01*
X97527447Y-97677453D01*
X97441201Y-97792662D01*
X97441197Y-97792669D01*
X97390903Y-97927515D01*
X97384496Y-97987113D01*
X97384496Y-97987123D01*
X97384495Y-97987133D01*
X97384495Y-99082868D01*
X97384496Y-99082874D01*
X97390903Y-99142481D01*
X97444298Y-99285639D01*
X97442570Y-99286283D01*
X97455090Y-99343855D01*
X97443307Y-99383987D01*
X97444300Y-99384358D01*
X97409130Y-99478653D01*
X97380630Y-99523001D01*
X97219984Y-99683646D01*
X97158663Y-99717130D01*
X97088972Y-99712146D01*
X97033038Y-99670275D01*
X97008621Y-99604810D01*
X97008305Y-99595964D01*
X97008305Y-98068274D01*
X96979464Y-97923287D01*
X96979463Y-97923286D01*
X96979463Y-97923282D01*
X96968973Y-97897957D01*
X96922891Y-97786704D01*
X96922890Y-97786702D01*
X96921417Y-97784498D01*
X96889991Y-97737465D01*
X96888217Y-97734810D01*
X96840761Y-97663784D01*
X96840757Y-97663779D01*
X94824157Y-95647178D01*
X94790672Y-95585855D01*
X94795656Y-95516163D01*
X94837528Y-95460230D01*
X94902992Y-95435813D01*
X94911838Y-95435497D01*
X230760497Y-95435497D01*
X230827536Y-95455182D01*
G37*
G04 #@! TD.AperFunction*
G04 #@! TA.AperFunction,Conductor*
G36*
X110304806Y-97770185D02*
G01*
X110325448Y-97786819D01*
X110848176Y-98309547D01*
X110881661Y-98370870D01*
X110884495Y-98397228D01*
X110884495Y-99082868D01*
X110884496Y-99082874D01*
X110890903Y-99142480D01*
X110908078Y-99188529D01*
X110913061Y-99258220D01*
X110879575Y-99319543D01*
X110818251Y-99353027D01*
X110816087Y-99353477D01*
X110691092Y-99378341D01*
X110691081Y-99378344D01*
X110554510Y-99434913D01*
X110554497Y-99434920D01*
X110437135Y-99513340D01*
X110431584Y-99517048D01*
X110431577Y-99517054D01*
X109849954Y-100098678D01*
X109788631Y-100132163D01*
X109762273Y-100134997D01*
X108197000Y-100134997D01*
X108129961Y-100115312D01*
X108084206Y-100062508D01*
X108073000Y-100010997D01*
X108073000Y-99613770D01*
X108072999Y-99613767D01*
X108071217Y-99604810D01*
X108062625Y-99561613D01*
X108057882Y-99537766D01*
X108055499Y-99513575D01*
X108055499Y-99486611D01*
X108049453Y-99420073D01*
X108049452Y-99420070D01*
X108049452Y-99420067D01*
X108014369Y-99307481D01*
X108001734Y-99266933D01*
X108001732Y-99266929D01*
X107918757Y-99129670D01*
X107918753Y-99129665D01*
X107805334Y-99016246D01*
X107805329Y-99016242D01*
X107668070Y-98933267D01*
X107668066Y-98933265D01*
X107536849Y-98892377D01*
X107526287Y-98888553D01*
X107452878Y-98858146D01*
X107452866Y-98858143D01*
X107283732Y-98824500D01*
X107283729Y-98824500D01*
X107111271Y-98824500D01*
X107111268Y-98824500D01*
X106942133Y-98858142D01*
X106942129Y-98858144D01*
X106942127Y-98858144D01*
X106942126Y-98858145D01*
X106942124Y-98858146D01*
X106868717Y-98888551D01*
X106858157Y-98892374D01*
X106726932Y-98933266D01*
X106726931Y-98933266D01*
X106663664Y-98971512D01*
X106596109Y-98989347D01*
X106535367Y-98971511D01*
X106472863Y-98933726D01*
X106472859Y-98933724D01*
X106319842Y-98886043D01*
X106319843Y-98886043D01*
X106253337Y-98880000D01*
X106252500Y-98880000D01*
X106252500Y-99675493D01*
X106232815Y-99742532D01*
X106216181Y-99763174D01*
X106065674Y-99913681D01*
X106004351Y-99947166D01*
X105977993Y-99950000D01*
X105148331Y-99950000D01*
X105151043Y-99979844D01*
X105152323Y-99986278D01*
X105149448Y-99986849D01*
X105150434Y-100043870D01*
X105113681Y-100103292D01*
X105050637Y-100133411D01*
X105030871Y-100134997D01*
X104908997Y-100134997D01*
X104841958Y-100115312D01*
X104796203Y-100062508D01*
X104784997Y-100010997D01*
X104784997Y-99587167D01*
X104784996Y-99587150D01*
X104778595Y-99527622D01*
X104778593Y-99527615D01*
X104749645Y-99450000D01*
X105148331Y-99450000D01*
X105752500Y-99450000D01*
X105752500Y-98880000D01*
X105751663Y-98880000D01*
X105685156Y-98886043D01*
X105532140Y-98933724D01*
X105532136Y-98933726D01*
X105394980Y-99016639D01*
X105394976Y-99016642D01*
X105281642Y-99129976D01*
X105281639Y-99129980D01*
X105198726Y-99267136D01*
X105198724Y-99267140D01*
X105151043Y-99420155D01*
X105148331Y-99450000D01*
X104749645Y-99450000D01*
X104725251Y-99384596D01*
X104727066Y-99383918D01*
X104714614Y-99326679D01*
X104726570Y-99285962D01*
X104725695Y-99285636D01*
X104746454Y-99229976D01*
X104779089Y-99142478D01*
X104785498Y-99082868D01*
X104785497Y-98397223D01*
X104805181Y-98330185D01*
X104821814Y-98309546D01*
X105344542Y-97786819D01*
X105405865Y-97753334D01*
X105432223Y-97750500D01*
X110237767Y-97750500D01*
X110304806Y-97770185D01*
G37*
G04 #@! TD.AperFunction*
G04 #@! TA.AperFunction,Conductor*
G36*
X123904806Y-97970185D02*
G01*
X123925448Y-97986819D01*
X124248176Y-98309546D01*
X124281661Y-98370869D01*
X124284495Y-98397227D01*
X124284495Y-99082868D01*
X124284496Y-99082874D01*
X124290903Y-99142481D01*
X124343003Y-99282168D01*
X124347987Y-99351860D01*
X124314502Y-99413183D01*
X124253178Y-99446667D01*
X124226821Y-99449501D01*
X124016079Y-99449501D01*
X123871091Y-99478341D01*
X123871081Y-99478344D01*
X123734510Y-99534913D01*
X123734497Y-99534920D01*
X123611583Y-99617049D01*
X123611579Y-99617052D01*
X123129954Y-100098678D01*
X123068631Y-100132163D01*
X123042273Y-100134997D01*
X121597000Y-100134997D01*
X121529961Y-100115312D01*
X121484206Y-100062508D01*
X121473000Y-100010997D01*
X121473000Y-99713770D01*
X121472999Y-99713767D01*
X121457882Y-99637766D01*
X121455499Y-99613575D01*
X121455499Y-99586611D01*
X121449453Y-99520073D01*
X121449452Y-99520070D01*
X121449452Y-99520067D01*
X121418291Y-99420067D01*
X121401734Y-99366933D01*
X121401732Y-99366929D01*
X121318757Y-99229670D01*
X121318753Y-99229665D01*
X121205334Y-99116246D01*
X121205329Y-99116242D01*
X121068070Y-99033267D01*
X121068066Y-99033265D01*
X120936849Y-98992377D01*
X120926287Y-98988553D01*
X120852878Y-98958146D01*
X120852866Y-98958143D01*
X120683732Y-98924500D01*
X120683729Y-98924500D01*
X120511271Y-98924500D01*
X120511268Y-98924500D01*
X120342133Y-98958142D01*
X120342129Y-98958144D01*
X120342127Y-98958144D01*
X120342126Y-98958145D01*
X120322942Y-98966091D01*
X120268717Y-98988551D01*
X120258157Y-98992374D01*
X120126932Y-99033266D01*
X120126931Y-99033266D01*
X120063664Y-99071512D01*
X119996109Y-99089347D01*
X119935367Y-99071511D01*
X119872863Y-99033726D01*
X119872859Y-99033724D01*
X119719842Y-98986043D01*
X119719843Y-98986043D01*
X119653337Y-98980000D01*
X119652500Y-98980000D01*
X119652500Y-99775493D01*
X119632815Y-99842532D01*
X119616181Y-99863174D01*
X119465674Y-100013681D01*
X119404351Y-100047166D01*
X119377993Y-100050000D01*
X118548331Y-100050000D01*
X118511454Y-100090380D01*
X118510149Y-100089188D01*
X118481786Y-100118666D01*
X118420276Y-100134997D01*
X118408997Y-100134997D01*
X118341958Y-100115312D01*
X118296203Y-100062508D01*
X118284997Y-100010997D01*
X118284997Y-99587167D01*
X118284996Y-99587150D01*
X118281001Y-99550000D01*
X118548331Y-99550000D01*
X119152500Y-99550000D01*
X119152500Y-98980000D01*
X119151663Y-98980000D01*
X119085156Y-98986043D01*
X118932140Y-99033724D01*
X118932136Y-99033726D01*
X118794980Y-99116639D01*
X118794976Y-99116642D01*
X118681642Y-99229976D01*
X118681639Y-99229980D01*
X118598726Y-99367136D01*
X118598725Y-99367139D01*
X118551043Y-99520155D01*
X118548331Y-99550000D01*
X118281001Y-99550000D01*
X118278595Y-99527622D01*
X118278593Y-99527615D01*
X118225251Y-99384596D01*
X118227066Y-99383918D01*
X118214614Y-99326679D01*
X118226570Y-99285962D01*
X118225695Y-99285636D01*
X118246454Y-99229976D01*
X118279089Y-99142478D01*
X118285498Y-99082868D01*
X118285497Y-98397224D01*
X118305181Y-98330186D01*
X118321816Y-98309544D01*
X118644542Y-97986819D01*
X118705865Y-97953334D01*
X118732223Y-97950500D01*
X123837767Y-97950500D01*
X123904806Y-97970185D01*
G37*
G04 #@! TD.AperFunction*
G04 #@! TA.AperFunction,Conductor*
G36*
X137004806Y-97570185D02*
G01*
X137025448Y-97586819D01*
X137648176Y-98209546D01*
X137681661Y-98270869D01*
X137684495Y-98297227D01*
X137684495Y-98982868D01*
X137684496Y-98982874D01*
X137690903Y-99042481D01*
X137705706Y-99082168D01*
X137710690Y-99151860D01*
X137677205Y-99213183D01*
X137615881Y-99246667D01*
X137589524Y-99249501D01*
X137286079Y-99249501D01*
X137141091Y-99278341D01*
X137141081Y-99278344D01*
X137004510Y-99334913D01*
X137004497Y-99334920D01*
X136881583Y-99417049D01*
X136881579Y-99417052D01*
X136271937Y-100026693D01*
X136235873Y-100049370D01*
X136236750Y-100051191D01*
X136230475Y-100054212D01*
X136146934Y-100106705D01*
X136133237Y-100115312D01*
X136132156Y-100115991D01*
X136066184Y-100134997D01*
X134997000Y-100134997D01*
X134929961Y-100115312D01*
X134884206Y-100062508D01*
X134873000Y-100010997D01*
X134873000Y-99813770D01*
X134872999Y-99813767D01*
X134871329Y-99805373D01*
X134863683Y-99766929D01*
X134857882Y-99737766D01*
X134855499Y-99713575D01*
X134855499Y-99686611D01*
X134849453Y-99620073D01*
X134849452Y-99620070D01*
X134849452Y-99620067D01*
X134818291Y-99520067D01*
X134801734Y-99466933D01*
X134801732Y-99466929D01*
X134718757Y-99329670D01*
X134718753Y-99329665D01*
X134605334Y-99216246D01*
X134605329Y-99216242D01*
X134468070Y-99133267D01*
X134468066Y-99133265D01*
X134336849Y-99092377D01*
X134326287Y-99088553D01*
X134252878Y-99058146D01*
X134252866Y-99058143D01*
X134083732Y-99024500D01*
X134083729Y-99024500D01*
X133911271Y-99024500D01*
X133911268Y-99024500D01*
X133742133Y-99058142D01*
X133742129Y-99058144D01*
X133742127Y-99058144D01*
X133742126Y-99058145D01*
X133742124Y-99058146D01*
X133668717Y-99088551D01*
X133658157Y-99092374D01*
X133526932Y-99133266D01*
X133526931Y-99133266D01*
X133463664Y-99171512D01*
X133396109Y-99189347D01*
X133335367Y-99171511D01*
X133272863Y-99133726D01*
X133272859Y-99133724D01*
X133119842Y-99086043D01*
X133119843Y-99086043D01*
X133053337Y-99080000D01*
X133052500Y-99080000D01*
X133052500Y-100026000D01*
X133032815Y-100093039D01*
X132984393Y-100134997D01*
X131808997Y-100134997D01*
X131741958Y-100115312D01*
X131696203Y-100062508D01*
X131684997Y-100010997D01*
X131684997Y-99650000D01*
X131948331Y-99650000D01*
X132552500Y-99650000D01*
X132552500Y-99080000D01*
X132551663Y-99080000D01*
X132485156Y-99086043D01*
X132332140Y-99133724D01*
X132332136Y-99133726D01*
X132194980Y-99216639D01*
X132194976Y-99216642D01*
X132081642Y-99329976D01*
X132081639Y-99329980D01*
X131998726Y-99467136D01*
X131998724Y-99467140D01*
X131951043Y-99620155D01*
X131948331Y-99650000D01*
X131684997Y-99650000D01*
X131684997Y-99587167D01*
X131684996Y-99587150D01*
X131678595Y-99527622D01*
X131678593Y-99527615D01*
X131625251Y-99384596D01*
X131627066Y-99383918D01*
X131614614Y-99326679D01*
X131626570Y-99285962D01*
X131625695Y-99285636D01*
X131646454Y-99229976D01*
X131679089Y-99142478D01*
X131685498Y-99082868D01*
X131685497Y-98397223D01*
X131705181Y-98330185D01*
X131721814Y-98309546D01*
X132444541Y-97586819D01*
X132505864Y-97553334D01*
X132532222Y-97550500D01*
X136937767Y-97550500D01*
X137004806Y-97570185D01*
G37*
G04 #@! TD.AperFunction*
G04 #@! TA.AperFunction,Conductor*
G36*
X150604806Y-97970185D02*
G01*
X150625448Y-97986819D01*
X150948176Y-98309546D01*
X150981661Y-98370869D01*
X150984495Y-98397227D01*
X150984495Y-99082868D01*
X150984496Y-99082874D01*
X150990903Y-99142481D01*
X151043003Y-99282168D01*
X151047987Y-99351860D01*
X151014502Y-99413183D01*
X150953178Y-99446667D01*
X150926821Y-99449501D01*
X150746079Y-99449501D01*
X150601091Y-99478341D01*
X150601081Y-99478344D01*
X150464510Y-99534913D01*
X150464503Y-99534917D01*
X150446917Y-99546668D01*
X150430636Y-99557547D01*
X150341581Y-99617050D01*
X149859953Y-100098678D01*
X149798630Y-100132163D01*
X149772272Y-100134997D01*
X148299500Y-100134997D01*
X148232461Y-100115312D01*
X148186706Y-100062508D01*
X148175500Y-100010997D01*
X148175500Y-99716271D01*
X148171088Y-99694089D01*
X148171088Y-99694087D01*
X148171088Y-99694086D01*
X148157882Y-99627697D01*
X148155499Y-99603505D01*
X148155499Y-99586611D01*
X148149453Y-99520073D01*
X148149452Y-99520070D01*
X148149452Y-99520067D01*
X148118291Y-99420067D01*
X148101734Y-99366933D01*
X148101732Y-99366929D01*
X148018757Y-99229670D01*
X148018753Y-99229665D01*
X147905334Y-99116246D01*
X147905329Y-99116242D01*
X147768070Y-99033267D01*
X147768066Y-99033265D01*
X147636849Y-98992377D01*
X147626287Y-98988553D01*
X147552878Y-98958146D01*
X147552866Y-98958143D01*
X147383732Y-98924500D01*
X147383729Y-98924500D01*
X147211271Y-98924500D01*
X147211268Y-98924500D01*
X147042133Y-98958142D01*
X147042129Y-98958144D01*
X147042127Y-98958144D01*
X147042126Y-98958145D01*
X147022942Y-98966091D01*
X146968717Y-98988551D01*
X146958157Y-98992374D01*
X146826932Y-99033266D01*
X146826931Y-99033266D01*
X146763664Y-99071512D01*
X146696109Y-99089347D01*
X146635367Y-99071511D01*
X146572863Y-99033726D01*
X146572859Y-99033724D01*
X146419842Y-98986043D01*
X146419843Y-98986043D01*
X146353337Y-98980000D01*
X146352500Y-98980000D01*
X146352500Y-99915500D01*
X146332815Y-99982539D01*
X146280011Y-100028294D01*
X146228500Y-100039500D01*
X145976500Y-100039500D01*
X145909461Y-100019815D01*
X145863706Y-99967011D01*
X145852500Y-99915500D01*
X145852500Y-98980000D01*
X145851663Y-98980000D01*
X145785156Y-98986043D01*
X145632140Y-99033724D01*
X145632136Y-99033726D01*
X145494980Y-99116639D01*
X145494976Y-99116642D01*
X145381642Y-99229976D01*
X145381639Y-99229980D01*
X145298726Y-99367136D01*
X145298725Y-99367139D01*
X145296120Y-99375497D01*
X145257379Y-99433643D01*
X145193353Y-99461613D01*
X145124368Y-99450527D01*
X145072328Y-99403906D01*
X145061555Y-99381933D01*
X145025251Y-99284596D01*
X145027066Y-99283918D01*
X145014614Y-99226679D01*
X145026570Y-99185962D01*
X145025695Y-99185636D01*
X145046454Y-99129976D01*
X145079089Y-99042478D01*
X145085498Y-98982868D01*
X145085497Y-98297223D01*
X145105181Y-98230185D01*
X145121814Y-98209546D01*
X145344541Y-97986819D01*
X145405864Y-97953334D01*
X145432222Y-97950500D01*
X150537767Y-97950500D01*
X150604806Y-97970185D01*
G37*
G04 #@! TD.AperFunction*
G04 #@! TA.AperFunction,Conductor*
G36*
X164122306Y-98070185D02*
G01*
X164142948Y-98086819D01*
X164365676Y-98309547D01*
X164399161Y-98370870D01*
X164401995Y-98397228D01*
X164401995Y-99082868D01*
X164401996Y-99082874D01*
X164408403Y-99142481D01*
X164460503Y-99282168D01*
X164465487Y-99351860D01*
X164432002Y-99413183D01*
X164370678Y-99446667D01*
X164344321Y-99449501D01*
X164146079Y-99449501D01*
X164001091Y-99478341D01*
X164001081Y-99478344D01*
X163864510Y-99534913D01*
X163864497Y-99534920D01*
X163741583Y-99617049D01*
X163741579Y-99617052D01*
X163271937Y-100086693D01*
X163235876Y-100109368D01*
X163236753Y-100111189D01*
X163230483Y-100114208D01*
X163230478Y-100114210D01*
X163230478Y-100114211D01*
X163227642Y-100115992D01*
X163225493Y-100116611D01*
X163224208Y-100117231D01*
X163224102Y-100117012D01*
X163161674Y-100134997D01*
X161597000Y-100134997D01*
X161529961Y-100115312D01*
X161484206Y-100062508D01*
X161473000Y-100010997D01*
X161473000Y-99813770D01*
X161472999Y-99813767D01*
X161471329Y-99805373D01*
X161463683Y-99766929D01*
X161457882Y-99737766D01*
X161455499Y-99713575D01*
X161455499Y-99686611D01*
X161449453Y-99620073D01*
X161449452Y-99620070D01*
X161449452Y-99620067D01*
X161418291Y-99520067D01*
X161401734Y-99466933D01*
X161401732Y-99466929D01*
X161318757Y-99329670D01*
X161318753Y-99329665D01*
X161205334Y-99216246D01*
X161205329Y-99216242D01*
X161068070Y-99133267D01*
X161068066Y-99133265D01*
X160936849Y-99092377D01*
X160926287Y-99088553D01*
X160852878Y-99058146D01*
X160852866Y-99058143D01*
X160683732Y-99024500D01*
X160683729Y-99024500D01*
X160511271Y-99024500D01*
X160511268Y-99024500D01*
X160342133Y-99058142D01*
X160342129Y-99058144D01*
X160342127Y-99058144D01*
X160342126Y-99058145D01*
X160342124Y-99058146D01*
X160268717Y-99088551D01*
X160258157Y-99092374D01*
X160126932Y-99133266D01*
X160126931Y-99133266D01*
X160063664Y-99171512D01*
X159996109Y-99189347D01*
X159935367Y-99171511D01*
X159872863Y-99133726D01*
X159872859Y-99133724D01*
X159719842Y-99086043D01*
X159719843Y-99086043D01*
X159653337Y-99080000D01*
X159652500Y-99080000D01*
X159652500Y-100026000D01*
X159632815Y-100093039D01*
X159584393Y-100134997D01*
X159225406Y-100134997D01*
X159209461Y-100130315D01*
X159163706Y-100077511D01*
X159152500Y-100026000D01*
X159152500Y-99080000D01*
X159151663Y-99080000D01*
X159085156Y-99086043D01*
X158932140Y-99133724D01*
X158932136Y-99133726D01*
X158794980Y-99216639D01*
X158794976Y-99216642D01*
X158681642Y-99329976D01*
X158681639Y-99329980D01*
X158598726Y-99467136D01*
X158598723Y-99467142D01*
X158596120Y-99475497D01*
X158557379Y-99533643D01*
X158493353Y-99561613D01*
X158424368Y-99550527D01*
X158372328Y-99503906D01*
X158361555Y-99481933D01*
X158325251Y-99384596D01*
X158327066Y-99383918D01*
X158314614Y-99326679D01*
X158326570Y-99285962D01*
X158325695Y-99285636D01*
X158346454Y-99229976D01*
X158379089Y-99142478D01*
X158385498Y-99082868D01*
X158385497Y-98397223D01*
X158405181Y-98330185D01*
X158421814Y-98309546D01*
X158644541Y-98086819D01*
X158705864Y-98053334D01*
X158732222Y-98050500D01*
X164055267Y-98050500D01*
X164122306Y-98070185D01*
G37*
G04 #@! TD.AperFunction*
G04 #@! TA.AperFunction,Conductor*
G36*
X177694807Y-98270185D02*
G01*
X177715449Y-98286819D01*
X177738179Y-98309549D01*
X177771664Y-98370872D01*
X177774498Y-98397230D01*
X177774498Y-99082870D01*
X177774499Y-99082876D01*
X177780906Y-99142483D01*
X177833006Y-99282168D01*
X177837990Y-99351860D01*
X177804505Y-99413183D01*
X177743182Y-99446667D01*
X177716824Y-99449501D01*
X177646079Y-99449501D01*
X177506201Y-99477325D01*
X177506200Y-99477324D01*
X177501096Y-99478340D01*
X177501082Y-99478344D01*
X177364510Y-99534913D01*
X177364497Y-99534920D01*
X177241583Y-99617049D01*
X177241579Y-99617052D01*
X176759954Y-100098678D01*
X176698631Y-100132163D01*
X176672273Y-100134997D01*
X175097000Y-100134997D01*
X175029961Y-100115312D01*
X174984206Y-100062508D01*
X174973000Y-100010997D01*
X174973000Y-99913770D01*
X174972999Y-99913767D01*
X174970021Y-99898797D01*
X174957882Y-99837766D01*
X174955499Y-99813575D01*
X174955499Y-99786611D01*
X174949453Y-99720073D01*
X174949452Y-99720070D01*
X174949452Y-99720067D01*
X174918291Y-99620067D01*
X174901734Y-99566933D01*
X174901732Y-99566929D01*
X174818757Y-99429670D01*
X174818753Y-99429665D01*
X174705334Y-99316246D01*
X174705329Y-99316242D01*
X174568070Y-99233267D01*
X174568066Y-99233265D01*
X174436849Y-99192377D01*
X174426287Y-99188553D01*
X174352878Y-99158146D01*
X174352866Y-99158143D01*
X174183732Y-99124500D01*
X174183729Y-99124500D01*
X174011271Y-99124500D01*
X174011268Y-99124500D01*
X173842133Y-99158142D01*
X173842129Y-99158144D01*
X173842127Y-99158144D01*
X173842126Y-99158145D01*
X173842124Y-99158146D01*
X173768717Y-99188551D01*
X173758157Y-99192374D01*
X173626932Y-99233266D01*
X173626931Y-99233266D01*
X173563664Y-99271512D01*
X173496109Y-99289347D01*
X173435367Y-99271511D01*
X173372863Y-99233726D01*
X173372859Y-99233724D01*
X173219842Y-99186043D01*
X173219843Y-99186043D01*
X173153337Y-99180000D01*
X173152500Y-99180000D01*
X173152500Y-100126000D01*
X173149858Y-100134997D01*
X172654457Y-100134997D01*
X172652500Y-100126000D01*
X172652500Y-99180000D01*
X172651663Y-99180000D01*
X172585156Y-99186043D01*
X172432140Y-99233724D01*
X172432136Y-99233726D01*
X172294980Y-99316639D01*
X172294976Y-99316642D01*
X172181642Y-99429976D01*
X172181639Y-99429980D01*
X172098726Y-99567136D01*
X172098724Y-99567140D01*
X172051043Y-99720156D01*
X172049988Y-99731771D01*
X172024318Y-99796754D01*
X171967590Y-99837542D01*
X171897815Y-99841186D01*
X171837147Y-99806529D01*
X171804847Y-99744574D01*
X171802497Y-99720549D01*
X171802497Y-99587167D01*
X171802496Y-99587150D01*
X171796095Y-99527622D01*
X171796093Y-99527615D01*
X171742751Y-99384596D01*
X171744566Y-99383918D01*
X171732114Y-99326679D01*
X171744070Y-99285962D01*
X171743195Y-99285636D01*
X171763954Y-99229976D01*
X171796589Y-99142478D01*
X171802998Y-99082868D01*
X171802997Y-98397225D01*
X171822681Y-98330187D01*
X171839318Y-98309543D01*
X171862045Y-98286817D01*
X171923369Y-98253333D01*
X171949724Y-98250500D01*
X177627768Y-98250500D01*
X177694807Y-98270185D01*
G37*
G04 #@! TD.AperFunction*
G04 #@! TA.AperFunction,Conductor*
G36*
X191004806Y-98170185D02*
G01*
X191025443Y-98186814D01*
X191148177Y-98309547D01*
X191181661Y-98370868D01*
X191184495Y-98397227D01*
X191184495Y-99082868D01*
X191184496Y-99082874D01*
X191190903Y-99142481D01*
X191205706Y-99182168D01*
X191210690Y-99251860D01*
X191177205Y-99313183D01*
X191115881Y-99346667D01*
X191089524Y-99349501D01*
X190946079Y-99349501D01*
X190808588Y-99376850D01*
X190801094Y-99378340D01*
X190801079Y-99378345D01*
X190664510Y-99434913D01*
X190664497Y-99434920D01*
X190541583Y-99517049D01*
X190541579Y-99517052D01*
X189959953Y-100098678D01*
X189898630Y-100132163D01*
X189872272Y-100134997D01*
X188497000Y-100134997D01*
X188429961Y-100115312D01*
X188384206Y-100062508D01*
X188373000Y-100010997D01*
X188373000Y-99913770D01*
X188372999Y-99913767D01*
X188370021Y-99898797D01*
X188357882Y-99837766D01*
X188355499Y-99813575D01*
X188355499Y-99786611D01*
X188349453Y-99720073D01*
X188349452Y-99720070D01*
X188349452Y-99720067D01*
X188318291Y-99620067D01*
X188301734Y-99566933D01*
X188301732Y-99566929D01*
X188218757Y-99429670D01*
X188218753Y-99429665D01*
X188105334Y-99316246D01*
X188105329Y-99316242D01*
X187968070Y-99233267D01*
X187968066Y-99233265D01*
X187836849Y-99192377D01*
X187826287Y-99188553D01*
X187752878Y-99158146D01*
X187752866Y-99158143D01*
X187583732Y-99124500D01*
X187583729Y-99124500D01*
X187411271Y-99124500D01*
X187411268Y-99124500D01*
X187242133Y-99158142D01*
X187242129Y-99158144D01*
X187242127Y-99158144D01*
X187242126Y-99158145D01*
X187242124Y-99158146D01*
X187168717Y-99188551D01*
X187158157Y-99192374D01*
X187026932Y-99233266D01*
X187026931Y-99233266D01*
X186963664Y-99271512D01*
X186896109Y-99289347D01*
X186835367Y-99271511D01*
X186772863Y-99233726D01*
X186772859Y-99233724D01*
X186619842Y-99186043D01*
X186619843Y-99186043D01*
X186553337Y-99180000D01*
X186552500Y-99180000D01*
X186552500Y-100126000D01*
X186549858Y-100134997D01*
X185299000Y-100134997D01*
X185231961Y-100115312D01*
X185186206Y-100062508D01*
X185175000Y-100010997D01*
X185175000Y-99750000D01*
X185448331Y-99750000D01*
X186052500Y-99750000D01*
X186052500Y-99180000D01*
X186051663Y-99180000D01*
X185985156Y-99186043D01*
X185832140Y-99233724D01*
X185832136Y-99233726D01*
X185694980Y-99316639D01*
X185694976Y-99316642D01*
X185581642Y-99429976D01*
X185581639Y-99429980D01*
X185498726Y-99567136D01*
X185498724Y-99567140D01*
X185451043Y-99720155D01*
X185448331Y-99750000D01*
X185175000Y-99750000D01*
X185175000Y-99587169D01*
X185174999Y-99587152D01*
X185168598Y-99527624D01*
X185168596Y-99527617D01*
X185115254Y-99384598D01*
X185117069Y-99383920D01*
X185104617Y-99326681D01*
X185116573Y-99285964D01*
X185115698Y-99285638D01*
X185137688Y-99226679D01*
X185169092Y-99142480D01*
X185175501Y-99082870D01*
X185175500Y-98397225D01*
X185195184Y-98330187D01*
X185211810Y-98309554D01*
X185334548Y-98186816D01*
X185395869Y-98153334D01*
X185422227Y-98150500D01*
X190937767Y-98150500D01*
X191004806Y-98170185D01*
G37*
G04 #@! TD.AperFunction*
G04 #@! TA.AperFunction,Conductor*
G36*
X203904806Y-97870185D02*
G01*
X203925448Y-97886819D01*
X204548176Y-98509546D01*
X204581661Y-98570869D01*
X204584495Y-98597227D01*
X204584495Y-99282868D01*
X204584496Y-99282874D01*
X204590903Y-99342481D01*
X204643003Y-99482168D01*
X204647987Y-99551860D01*
X204614502Y-99613183D01*
X204553178Y-99646667D01*
X204526821Y-99649501D01*
X204016079Y-99649501D01*
X203871091Y-99678341D01*
X203871081Y-99678344D01*
X203734510Y-99734913D01*
X203734497Y-99734920D01*
X203649947Y-99791416D01*
X203611580Y-99817051D01*
X203611577Y-99817054D01*
X203329955Y-100098678D01*
X203268632Y-100132163D01*
X203242274Y-100134997D01*
X201895772Y-100134997D01*
X201828733Y-100115312D01*
X201782978Y-100062508D01*
X201773819Y-99998813D01*
X201772403Y-99998674D01*
X201773000Y-99992612D01*
X201773000Y-99613770D01*
X201772999Y-99613767D01*
X201771217Y-99604810D01*
X201762625Y-99561613D01*
X201757882Y-99537766D01*
X201755499Y-99513575D01*
X201755499Y-99486611D01*
X201749453Y-99420073D01*
X201749452Y-99420070D01*
X201749452Y-99420067D01*
X201714369Y-99307481D01*
X201701734Y-99266933D01*
X201701732Y-99266929D01*
X201618757Y-99129670D01*
X201618753Y-99129665D01*
X201505334Y-99016246D01*
X201505329Y-99016242D01*
X201368070Y-98933267D01*
X201368066Y-98933265D01*
X201236849Y-98892377D01*
X201226287Y-98888553D01*
X201152878Y-98858146D01*
X201152866Y-98858143D01*
X200983732Y-98824500D01*
X200983729Y-98824500D01*
X200811271Y-98824500D01*
X200811268Y-98824500D01*
X200642133Y-98858142D01*
X200642129Y-98858144D01*
X200642127Y-98858144D01*
X200642126Y-98858145D01*
X200642124Y-98858146D01*
X200568717Y-98888551D01*
X200558157Y-98892374D01*
X200426932Y-98933266D01*
X200426931Y-98933266D01*
X200363664Y-98971512D01*
X200296109Y-98989347D01*
X200235367Y-98971511D01*
X200172863Y-98933726D01*
X200172859Y-98933724D01*
X200019842Y-98886043D01*
X200019843Y-98886043D01*
X199953337Y-98880000D01*
X199952500Y-98880000D01*
X199952500Y-99561875D01*
X199932815Y-99628914D01*
X199916181Y-99649556D01*
X199652056Y-99913681D01*
X199590733Y-99947166D01*
X199564375Y-99950000D01*
X198848331Y-99950000D01*
X198851043Y-99979844D01*
X198852323Y-99986278D01*
X198849448Y-99986849D01*
X198850434Y-100043870D01*
X198813681Y-100103292D01*
X198750637Y-100133411D01*
X198730871Y-100134997D01*
X198708997Y-100134997D01*
X198641958Y-100115312D01*
X198596203Y-100062508D01*
X198584997Y-100010997D01*
X198584997Y-99587167D01*
X198584996Y-99587150D01*
X198578595Y-99527622D01*
X198578593Y-99527615D01*
X198549645Y-99450000D01*
X198848331Y-99450000D01*
X199452500Y-99450000D01*
X199452500Y-98880000D01*
X199451663Y-98880000D01*
X199385156Y-98886043D01*
X199232140Y-98933724D01*
X199232136Y-98933726D01*
X199094980Y-99016639D01*
X199094976Y-99016642D01*
X198981642Y-99129976D01*
X198981639Y-99129980D01*
X198898726Y-99267136D01*
X198898724Y-99267140D01*
X198851043Y-99420155D01*
X198848331Y-99450000D01*
X198549645Y-99450000D01*
X198525251Y-99384596D01*
X198527066Y-99383918D01*
X198514614Y-99326679D01*
X198526570Y-99285962D01*
X198525695Y-99285636D01*
X198546454Y-99229976D01*
X198579089Y-99142478D01*
X198585498Y-99082868D01*
X198585497Y-98397223D01*
X198605181Y-98330185D01*
X198621814Y-98309546D01*
X199044541Y-97886819D01*
X199105864Y-97853334D01*
X199132222Y-97850500D01*
X203837767Y-97850500D01*
X203904806Y-97870185D01*
G37*
G04 #@! TD.AperFunction*
G04 #@! TA.AperFunction,Conductor*
G36*
X218042537Y-98620185D02*
G01*
X218088292Y-98672989D01*
X218099498Y-98724500D01*
X218099498Y-99247871D01*
X218099499Y-99247877D01*
X218105907Y-99307485D01*
X218133762Y-99382170D01*
X218138746Y-99451861D01*
X218105260Y-99513184D01*
X218043937Y-99546668D01*
X218017580Y-99549502D01*
X217721080Y-99549502D01*
X217576092Y-99578342D01*
X217576082Y-99578345D01*
X217439511Y-99634914D01*
X217439498Y-99634921D01*
X217341353Y-99700501D01*
X217316585Y-99717050D01*
X217316581Y-99717053D01*
X216934955Y-100098678D01*
X216873632Y-100132163D01*
X216847274Y-100134997D01*
X215279499Y-100134997D01*
X215212460Y-100115312D01*
X215166705Y-100062508D01*
X215155499Y-100010997D01*
X215155499Y-99986611D01*
X215149453Y-99920073D01*
X215149452Y-99920070D01*
X215149452Y-99920067D01*
X215117351Y-99817050D01*
X215101734Y-99766933D01*
X215101732Y-99766929D01*
X215018757Y-99629670D01*
X215018753Y-99629665D01*
X214905334Y-99516246D01*
X214905329Y-99516242D01*
X214768070Y-99433267D01*
X214768066Y-99433265D01*
X214614933Y-99385548D01*
X214614935Y-99385548D01*
X214588312Y-99383128D01*
X214548381Y-99379500D01*
X214548378Y-99379500D01*
X214046611Y-99379500D01*
X213980073Y-99385546D01*
X213980066Y-99385548D01*
X213826937Y-99433264D01*
X213826931Y-99433267D01*
X213763664Y-99471512D01*
X213696109Y-99489347D01*
X213635367Y-99471511D01*
X213572863Y-99433726D01*
X213572859Y-99433724D01*
X213419842Y-99386043D01*
X213419843Y-99386043D01*
X213353337Y-99380000D01*
X213352500Y-99380000D01*
X213352500Y-100134997D01*
X212852500Y-100134997D01*
X212852500Y-99380000D01*
X212851663Y-99380000D01*
X212785156Y-99386043D01*
X212632140Y-99433724D01*
X212632136Y-99433726D01*
X212494980Y-99516639D01*
X212494976Y-99516642D01*
X212381642Y-99629976D01*
X212381639Y-99629980D01*
X212298726Y-99767136D01*
X212298724Y-99767140D01*
X212251043Y-99920156D01*
X212245000Y-99986662D01*
X212245000Y-100010997D01*
X212225315Y-100078036D01*
X212172511Y-100123791D01*
X212121000Y-100134997D01*
X212108997Y-100134997D01*
X212041958Y-100115312D01*
X211996203Y-100062508D01*
X211984997Y-100010997D01*
X211984997Y-99787167D01*
X211984996Y-99787150D01*
X211978595Y-99727622D01*
X211978593Y-99727615D01*
X211925251Y-99584596D01*
X211927066Y-99583918D01*
X211914614Y-99526679D01*
X211926570Y-99485962D01*
X211925695Y-99485636D01*
X211944610Y-99434920D01*
X211979089Y-99342478D01*
X211985498Y-99282868D01*
X211985497Y-98724499D01*
X212005181Y-98657461D01*
X212057985Y-98611706D01*
X212109497Y-98600500D01*
X217975498Y-98600500D01*
X218042537Y-98620185D01*
G37*
G04 #@! TD.AperFunction*
G04 #@! TA.AperFunction,Conductor*
G36*
X222942540Y-98455185D02*
G01*
X222988295Y-98507989D01*
X222999501Y-98559500D01*
X222999501Y-99247868D01*
X222999502Y-99247874D01*
X223005909Y-99307481D01*
X223059304Y-99450639D01*
X223057734Y-99451224D01*
X223070383Y-99509371D01*
X223058688Y-99549204D01*
X223059746Y-99549599D01*
X223006403Y-99692618D01*
X223006401Y-99692625D01*
X223000000Y-99752153D01*
X223000000Y-100010997D01*
X222980315Y-100078036D01*
X222927511Y-100123791D01*
X222876000Y-100134997D01*
X221790900Y-100134997D01*
X221723861Y-100115312D01*
X221678106Y-100062508D01*
X221668162Y-99993350D01*
X221676339Y-99963545D01*
X221735304Y-99821188D01*
X221741855Y-99805373D01*
X221775500Y-99636228D01*
X221775500Y-99463770D01*
X221775500Y-98752305D01*
X221795185Y-98685266D01*
X221811819Y-98664624D01*
X222004624Y-98471819D01*
X222065947Y-98438334D01*
X222092305Y-98435500D01*
X222875501Y-98435500D01*
X222942540Y-98455185D01*
G37*
G04 #@! TD.AperFunction*
G04 #@! TA.AperFunction,Conductor*
G36*
X85870812Y-95455182D02*
G01*
X85916567Y-95507986D01*
X85926511Y-95577144D01*
X85897486Y-95640700D01*
X85891454Y-95647178D01*
X84702045Y-96836585D01*
X84702039Y-96836593D01*
X84652807Y-96910273D01*
X84652808Y-96910274D01*
X84619916Y-96959501D01*
X84619909Y-96959513D01*
X84563337Y-97096091D01*
X84563335Y-97096097D01*
X84534495Y-97241084D01*
X84534495Y-97418019D01*
X84514810Y-97485058D01*
X84462006Y-97530813D01*
X84434860Y-97538262D01*
X84435063Y-97539120D01*
X84427515Y-97540903D01*
X84292666Y-97591198D01*
X84292663Y-97591200D01*
X84234471Y-97634763D01*
X84169006Y-97659180D01*
X84160160Y-97659496D01*
X82478772Y-97659496D01*
X82309637Y-97693139D01*
X82309625Y-97693142D01*
X82150305Y-97759134D01*
X82150292Y-97759141D01*
X82006905Y-97854950D01*
X82006901Y-97854953D01*
X80673675Y-99188181D01*
X80612352Y-99221666D01*
X80585994Y-99224500D01*
X80385758Y-99224500D01*
X80318719Y-99204815D01*
X80298077Y-99188181D01*
X80171402Y-99061506D01*
X80171401Y-99061505D01*
X79988257Y-98933266D01*
X79985405Y-98931269D01*
X79941781Y-98876692D01*
X79934588Y-98807193D01*
X79966110Y-98744839D01*
X79985405Y-98728119D01*
X80171082Y-98598105D01*
X80338105Y-98431082D01*
X80473600Y-98237578D01*
X80573429Y-98023492D01*
X80573432Y-98023486D01*
X80630636Y-97810000D01*
X79733012Y-97810000D01*
X79765925Y-97752993D01*
X79800000Y-97625826D01*
X79800000Y-97494174D01*
X79765925Y-97367007D01*
X79733012Y-97310000D01*
X80630636Y-97310000D01*
X80630635Y-97309999D01*
X80573432Y-97096513D01*
X80573429Y-97096507D01*
X80473600Y-96882422D01*
X80473599Y-96882420D01*
X80338113Y-96688926D01*
X80338108Y-96688920D01*
X80171082Y-96521894D01*
X79977578Y-96386399D01*
X79763492Y-96286570D01*
X79763486Y-96286567D01*
X79550000Y-96229364D01*
X79550000Y-97126988D01*
X79492993Y-97094075D01*
X79365826Y-97060000D01*
X79234174Y-97060000D01*
X79107007Y-97094075D01*
X79050000Y-97126988D01*
X79050000Y-96229364D01*
X79049999Y-96229364D01*
X78836513Y-96286567D01*
X78836507Y-96286570D01*
X78622422Y-96386399D01*
X78580619Y-96415670D01*
X78514413Y-96437997D01*
X78446646Y-96420985D01*
X78398833Y-96370037D01*
X78385497Y-96314094D01*
X78385497Y-95559497D01*
X78405182Y-95492458D01*
X78457986Y-95446703D01*
X78509497Y-95435497D01*
X85803773Y-95435497D01*
X85870812Y-95455182D01*
G37*
G04 #@! TD.AperFunction*
M02*
