G04 #@! TF.GenerationSoftware,KiCad,Pcbnew,(5.1.6-0-10_14)*
G04 #@! TF.CreationDate,2022-02-17T20:51:05-06:00*
G04 #@! TF.ProjectId,opto_isolator_with_micr,6f70746f-5f69-4736-9f6c-61746f725f77,rev?*
G04 #@! TF.SameCoordinates,Original*
G04 #@! TF.FileFunction,Copper,L1,Top*
G04 #@! TF.FilePolarity,Positive*
%FSLAX46Y46*%
G04 Gerber Fmt 4.6, Leading zero omitted, Abs format (unit mm)*
G04 Created by KiCad (PCBNEW (5.1.6-0-10_14)) date 2022-02-17 20:51:05*
%MOMM*%
%LPD*%
G01*
G04 APERTURE LIST*
G04 #@! TA.AperFunction,ComponentPad*
%ADD10C,2.600000*%
G04 #@! TD*
G04 #@! TA.AperFunction,ComponentPad*
%ADD11R,1.700000X1.700000*%
G04 #@! TD*
G04 #@! TA.AperFunction,ComponentPad*
%ADD12O,1.700000X1.700000*%
G04 #@! TD*
G04 #@! TA.AperFunction,SMDPad,CuDef*
%ADD13R,0.800000X0.900000*%
G04 #@! TD*
G04 #@! TA.AperFunction,ComponentPad*
%ADD14R,2.400000X1.600000*%
G04 #@! TD*
G04 #@! TA.AperFunction,ComponentPad*
%ADD15O,2.400000X1.600000*%
G04 #@! TD*
G04 #@! TA.AperFunction,SMDPad,CuDef*
%ADD16R,1.060000X0.650000*%
G04 #@! TD*
G04 #@! TA.AperFunction,ComponentPad*
%ADD17C,1.500000*%
G04 #@! TD*
G04 #@! TA.AperFunction,SMDPad,CuDef*
%ADD18R,1.800000X1.000000*%
G04 #@! TD*
G04 #@! TA.AperFunction,ComponentPad*
%ADD19C,1.600000*%
G04 #@! TD*
G04 #@! TA.AperFunction,ComponentPad*
%ADD20C,0.100000*%
G04 #@! TD*
G04 #@! TA.AperFunction,ComponentPad*
%ADD21R,1.600000X1.600000*%
G04 #@! TD*
G04 #@! TA.AperFunction,ComponentPad*
%ADD22C,5.000000*%
G04 #@! TD*
G04 #@! TA.AperFunction,ViaPad*
%ADD23C,0.800000*%
G04 #@! TD*
G04 #@! TA.AperFunction,ViaPad*
%ADD24C,1.200000*%
G04 #@! TD*
G04 #@! TA.AperFunction,Conductor*
%ADD25C,0.250000*%
G04 #@! TD*
G04 #@! TA.AperFunction,Conductor*
%ADD26C,0.750000*%
G04 #@! TD*
G04 #@! TA.AperFunction,Conductor*
%ADD27C,1.000000*%
G04 #@! TD*
G04 #@! TA.AperFunction,Conductor*
%ADD28C,0.500000*%
G04 #@! TD*
G04 APERTURE END LIST*
D10*
X135890000Y-119888000D03*
G04 #@! TA.AperFunction,SMDPad,CuDef*
G36*
G01*
X181085500Y-91090000D02*
X180610500Y-91090000D01*
G75*
G02*
X180373000Y-90852500I0J237500D01*
G01*
X180373000Y-90277500D01*
G75*
G02*
X180610500Y-90040000I237500J0D01*
G01*
X181085500Y-90040000D01*
G75*
G02*
X181323000Y-90277500I0J-237500D01*
G01*
X181323000Y-90852500D01*
G75*
G02*
X181085500Y-91090000I-237500J0D01*
G01*
G37*
G04 #@! TD.AperFunction*
G04 #@! TA.AperFunction,SMDPad,CuDef*
G36*
G01*
X181085500Y-92840000D02*
X180610500Y-92840000D01*
G75*
G02*
X180373000Y-92602500I0J237500D01*
G01*
X180373000Y-92027500D01*
G75*
G02*
X180610500Y-91790000I237500J0D01*
G01*
X181085500Y-91790000D01*
G75*
G02*
X181323000Y-92027500I0J-237500D01*
G01*
X181323000Y-92602500D01*
G75*
G02*
X181085500Y-92840000I-237500J0D01*
G01*
G37*
G04 #@! TD.AperFunction*
G04 #@! TA.AperFunction,SMDPad,CuDef*
G36*
G01*
X182863500Y-91090000D02*
X182388500Y-91090000D01*
G75*
G02*
X182151000Y-90852500I0J237500D01*
G01*
X182151000Y-90277500D01*
G75*
G02*
X182388500Y-90040000I237500J0D01*
G01*
X182863500Y-90040000D01*
G75*
G02*
X183101000Y-90277500I0J-237500D01*
G01*
X183101000Y-90852500D01*
G75*
G02*
X182863500Y-91090000I-237500J0D01*
G01*
G37*
G04 #@! TD.AperFunction*
G04 #@! TA.AperFunction,SMDPad,CuDef*
G36*
G01*
X182863500Y-92840000D02*
X182388500Y-92840000D01*
G75*
G02*
X182151000Y-92602500I0J237500D01*
G01*
X182151000Y-92027500D01*
G75*
G02*
X182388500Y-91790000I237500J0D01*
G01*
X182863500Y-91790000D01*
G75*
G02*
X183101000Y-92027500I0J-237500D01*
G01*
X183101000Y-92602500D01*
G75*
G02*
X182863500Y-92840000I-237500J0D01*
G01*
G37*
G04 #@! TD.AperFunction*
G04 #@! TA.AperFunction,SMDPad,CuDef*
G36*
G01*
X160559169Y-102565293D02*
X160223293Y-102901169D01*
G75*
G02*
X159887417Y-102901169I-167938J167938D01*
G01*
X159480831Y-102494583D01*
G75*
G02*
X159480831Y-102158707I167938J167938D01*
G01*
X159816707Y-101822831D01*
G75*
G02*
X160152583Y-101822831I167938J-167938D01*
G01*
X160559169Y-102229417D01*
G75*
G02*
X160559169Y-102565293I-167938J-167938D01*
G01*
G37*
G04 #@! TD.AperFunction*
G04 #@! TA.AperFunction,SMDPad,CuDef*
G36*
G01*
X159321733Y-101327857D02*
X158985857Y-101663733D01*
G75*
G02*
X158649981Y-101663733I-167938J167938D01*
G01*
X158243395Y-101257147D01*
G75*
G02*
X158243395Y-100921271I167938J167938D01*
G01*
X158579271Y-100585395D01*
G75*
G02*
X158915147Y-100585395I167938J-167938D01*
G01*
X159321733Y-100991981D01*
G75*
G02*
X159321733Y-101327857I-167938J-167938D01*
G01*
G37*
G04 #@! TD.AperFunction*
G04 #@! TA.AperFunction,SMDPad,CuDef*
G36*
G01*
X176546500Y-99946000D02*
X177021500Y-99946000D01*
G75*
G02*
X177259000Y-100183500I0J-237500D01*
G01*
X177259000Y-100758500D01*
G75*
G02*
X177021500Y-100996000I-237500J0D01*
G01*
X176546500Y-100996000D01*
G75*
G02*
X176309000Y-100758500I0J237500D01*
G01*
X176309000Y-100183500D01*
G75*
G02*
X176546500Y-99946000I237500J0D01*
G01*
G37*
G04 #@! TD.AperFunction*
G04 #@! TA.AperFunction,SMDPad,CuDef*
G36*
G01*
X176546500Y-101696000D02*
X177021500Y-101696000D01*
G75*
G02*
X177259000Y-101933500I0J-237500D01*
G01*
X177259000Y-102508500D01*
G75*
G02*
X177021500Y-102746000I-237500J0D01*
G01*
X176546500Y-102746000D01*
G75*
G02*
X176309000Y-102508500I0J237500D01*
G01*
X176309000Y-101933500D01*
G75*
G02*
X176546500Y-101696000I237500J0D01*
G01*
G37*
G04 #@! TD.AperFunction*
G04 #@! TA.AperFunction,SMDPad,CuDef*
G36*
G01*
X181085500Y-100996000D02*
X180610500Y-100996000D01*
G75*
G02*
X180373000Y-100758500I0J237500D01*
G01*
X180373000Y-100183500D01*
G75*
G02*
X180610500Y-99946000I237500J0D01*
G01*
X181085500Y-99946000D01*
G75*
G02*
X181323000Y-100183500I0J-237500D01*
G01*
X181323000Y-100758500D01*
G75*
G02*
X181085500Y-100996000I-237500J0D01*
G01*
G37*
G04 #@! TD.AperFunction*
G04 #@! TA.AperFunction,SMDPad,CuDef*
G36*
G01*
X181085500Y-102746000D02*
X180610500Y-102746000D01*
G75*
G02*
X180373000Y-102508500I0J237500D01*
G01*
X180373000Y-101933500D01*
G75*
G02*
X180610500Y-101696000I237500J0D01*
G01*
X181085500Y-101696000D01*
G75*
G02*
X181323000Y-101933500I0J-237500D01*
G01*
X181323000Y-102508500D01*
G75*
G02*
X181085500Y-102746000I-237500J0D01*
G01*
G37*
G04 #@! TD.AperFunction*
G04 #@! TA.AperFunction,SMDPad,CuDef*
G36*
G01*
X168385500Y-99218000D02*
X167910500Y-99218000D01*
G75*
G02*
X167673000Y-98980500I0J237500D01*
G01*
X167673000Y-98405500D01*
G75*
G02*
X167910500Y-98168000I237500J0D01*
G01*
X168385500Y-98168000D01*
G75*
G02*
X168623000Y-98405500I0J-237500D01*
G01*
X168623000Y-98980500D01*
G75*
G02*
X168385500Y-99218000I-237500J0D01*
G01*
G37*
G04 #@! TD.AperFunction*
G04 #@! TA.AperFunction,SMDPad,CuDef*
G36*
G01*
X168385500Y-100968000D02*
X167910500Y-100968000D01*
G75*
G02*
X167673000Y-100730500I0J237500D01*
G01*
X167673000Y-100155500D01*
G75*
G02*
X167910500Y-99918000I237500J0D01*
G01*
X168385500Y-99918000D01*
G75*
G02*
X168623000Y-100155500I0J-237500D01*
G01*
X168623000Y-100730500D01*
G75*
G02*
X168385500Y-100968000I-237500J0D01*
G01*
G37*
G04 #@! TD.AperFunction*
G04 #@! TA.AperFunction,SMDPad,CuDef*
G36*
G01*
X177528999Y-105139500D02*
X177528999Y-104664500D01*
G75*
G02*
X177766499Y-104427000I237500J0D01*
G01*
X178341499Y-104427000D01*
G75*
G02*
X178578999Y-104664500I0J-237500D01*
G01*
X178578999Y-105139500D01*
G75*
G02*
X178341499Y-105377000I-237500J0D01*
G01*
X177766499Y-105377000D01*
G75*
G02*
X177528999Y-105139500I0J237500D01*
G01*
G37*
G04 #@! TD.AperFunction*
G04 #@! TA.AperFunction,SMDPad,CuDef*
G36*
G01*
X179278999Y-105139500D02*
X179278999Y-104664500D01*
G75*
G02*
X179516499Y-104427000I237500J0D01*
G01*
X180091499Y-104427000D01*
G75*
G02*
X180328999Y-104664500I0J-237500D01*
G01*
X180328999Y-105139500D01*
G75*
G02*
X180091499Y-105377000I-237500J0D01*
G01*
X179516499Y-105377000D01*
G75*
G02*
X179278999Y-105139500I0J237500D01*
G01*
G37*
G04 #@! TD.AperFunction*
G04 #@! TA.AperFunction,SMDPad,CuDef*
G36*
G01*
X163766267Y-115334143D02*
X164102143Y-114998267D01*
G75*
G02*
X164438019Y-114998267I167938J-167938D01*
G01*
X164844605Y-115404853D01*
G75*
G02*
X164844605Y-115740729I-167938J-167938D01*
G01*
X164508729Y-116076605D01*
G75*
G02*
X164172853Y-116076605I-167938J167938D01*
G01*
X163766267Y-115670019D01*
G75*
G02*
X163766267Y-115334143I167938J167938D01*
G01*
G37*
G04 #@! TD.AperFunction*
G04 #@! TA.AperFunction,SMDPad,CuDef*
G36*
G01*
X162528831Y-114096707D02*
X162864707Y-113760831D01*
G75*
G02*
X163200583Y-113760831I167938J-167938D01*
G01*
X163607169Y-114167417D01*
G75*
G02*
X163607169Y-114503293I-167938J-167938D01*
G01*
X163271293Y-114839169D01*
G75*
G02*
X162935417Y-114839169I-167938J167938D01*
G01*
X162528831Y-114432583D01*
G75*
G02*
X162528831Y-114096707I167938J167938D01*
G01*
G37*
G04 #@! TD.AperFunction*
G04 #@! TA.AperFunction,SMDPad,CuDef*
G36*
G01*
X143018500Y-100680000D02*
X143493500Y-100680000D01*
G75*
G02*
X143731000Y-100917500I0J-237500D01*
G01*
X143731000Y-101492500D01*
G75*
G02*
X143493500Y-101730000I-237500J0D01*
G01*
X143018500Y-101730000D01*
G75*
G02*
X142781000Y-101492500I0J237500D01*
G01*
X142781000Y-100917500D01*
G75*
G02*
X143018500Y-100680000I237500J0D01*
G01*
G37*
G04 #@! TD.AperFunction*
G04 #@! TA.AperFunction,SMDPad,CuDef*
G36*
G01*
X143018500Y-98930000D02*
X143493500Y-98930000D01*
G75*
G02*
X143731000Y-99167500I0J-237500D01*
G01*
X143731000Y-99742500D01*
G75*
G02*
X143493500Y-99980000I-237500J0D01*
G01*
X143018500Y-99980000D01*
G75*
G02*
X142781000Y-99742500I0J237500D01*
G01*
X142781000Y-99167500D01*
G75*
G02*
X143018500Y-98930000I237500J0D01*
G01*
G37*
G04 #@! TD.AperFunction*
G04 #@! TA.AperFunction,SMDPad,CuDef*
G36*
G01*
X145412000Y-88121500D02*
X145412000Y-87646500D01*
G75*
G02*
X145649500Y-87409000I237500J0D01*
G01*
X146224500Y-87409000D01*
G75*
G02*
X146462000Y-87646500I0J-237500D01*
G01*
X146462000Y-88121500D01*
G75*
G02*
X146224500Y-88359000I-237500J0D01*
G01*
X145649500Y-88359000D01*
G75*
G02*
X145412000Y-88121500I0J237500D01*
G01*
G37*
G04 #@! TD.AperFunction*
G04 #@! TA.AperFunction,SMDPad,CuDef*
G36*
G01*
X147162000Y-88121500D02*
X147162000Y-87646500D01*
G75*
G02*
X147399500Y-87409000I237500J0D01*
G01*
X147974500Y-87409000D01*
G75*
G02*
X148212000Y-87646500I0J-237500D01*
G01*
X148212000Y-88121500D01*
G75*
G02*
X147974500Y-88359000I-237500J0D01*
G01*
X147399500Y-88359000D01*
G75*
G02*
X147162000Y-88121500I0J237500D01*
G01*
G37*
G04 #@! TD.AperFunction*
G04 #@! TA.AperFunction,SMDPad,CuDef*
G36*
G01*
X184166500Y-109457000D02*
X184641500Y-109457000D01*
G75*
G02*
X184879000Y-109694500I0J-237500D01*
G01*
X184879000Y-110269500D01*
G75*
G02*
X184641500Y-110507000I-237500J0D01*
G01*
X184166500Y-110507000D01*
G75*
G02*
X183929000Y-110269500I0J237500D01*
G01*
X183929000Y-109694500D01*
G75*
G02*
X184166500Y-109457000I237500J0D01*
G01*
G37*
G04 #@! TD.AperFunction*
G04 #@! TA.AperFunction,SMDPad,CuDef*
G36*
G01*
X184166500Y-111207000D02*
X184641500Y-111207000D01*
G75*
G02*
X184879000Y-111444500I0J-237500D01*
G01*
X184879000Y-112019500D01*
G75*
G02*
X184641500Y-112257000I-237500J0D01*
G01*
X184166500Y-112257000D01*
G75*
G02*
X183929000Y-112019500I0J237500D01*
G01*
X183929000Y-111444500D01*
G75*
G02*
X184166500Y-111207000I237500J0D01*
G01*
G37*
G04 #@! TD.AperFunction*
G04 #@! TA.AperFunction,SMDPad,CuDef*
G36*
G01*
X161047000Y-120887500D02*
X161047000Y-120412500D01*
G75*
G02*
X161284500Y-120175000I237500J0D01*
G01*
X161859500Y-120175000D01*
G75*
G02*
X162097000Y-120412500I0J-237500D01*
G01*
X162097000Y-120887500D01*
G75*
G02*
X161859500Y-121125000I-237500J0D01*
G01*
X161284500Y-121125000D01*
G75*
G02*
X161047000Y-120887500I0J237500D01*
G01*
G37*
G04 #@! TD.AperFunction*
G04 #@! TA.AperFunction,SMDPad,CuDef*
G36*
G01*
X162797000Y-120887500D02*
X162797000Y-120412500D01*
G75*
G02*
X163034500Y-120175000I237500J0D01*
G01*
X163609500Y-120175000D01*
G75*
G02*
X163847000Y-120412500I0J-237500D01*
G01*
X163847000Y-120887500D01*
G75*
G02*
X163609500Y-121125000I-237500J0D01*
G01*
X163034500Y-121125000D01*
G75*
G02*
X162797000Y-120887500I0J237500D01*
G01*
G37*
G04 #@! TD.AperFunction*
G04 #@! TA.AperFunction,SMDPad,CuDef*
G36*
G01*
X173879500Y-65972200D02*
X174354500Y-65972200D01*
G75*
G02*
X174592000Y-66209700I0J-237500D01*
G01*
X174592000Y-66784700D01*
G75*
G02*
X174354500Y-67022200I-237500J0D01*
G01*
X173879500Y-67022200D01*
G75*
G02*
X173642000Y-66784700I0J237500D01*
G01*
X173642000Y-66209700D01*
G75*
G02*
X173879500Y-65972200I237500J0D01*
G01*
G37*
G04 #@! TD.AperFunction*
G04 #@! TA.AperFunction,SMDPad,CuDef*
G36*
G01*
X173879500Y-67722200D02*
X174354500Y-67722200D01*
G75*
G02*
X174592000Y-67959700I0J-237500D01*
G01*
X174592000Y-68534700D01*
G75*
G02*
X174354500Y-68772200I-237500J0D01*
G01*
X173879500Y-68772200D01*
G75*
G02*
X173642000Y-68534700I0J237500D01*
G01*
X173642000Y-67959700D01*
G75*
G02*
X173879500Y-67722200I237500J0D01*
G01*
G37*
G04 #@! TD.AperFunction*
G04 #@! TA.AperFunction,SMDPad,CuDef*
G36*
G01*
X172420800Y-62652900D02*
X172420800Y-63127900D01*
G75*
G02*
X172183300Y-63365400I-237500J0D01*
G01*
X171608300Y-63365400D01*
G75*
G02*
X171370800Y-63127900I0J237500D01*
G01*
X171370800Y-62652900D01*
G75*
G02*
X171608300Y-62415400I237500J0D01*
G01*
X172183300Y-62415400D01*
G75*
G02*
X172420800Y-62652900I0J-237500D01*
G01*
G37*
G04 #@! TD.AperFunction*
G04 #@! TA.AperFunction,SMDPad,CuDef*
G36*
G01*
X174170800Y-62652900D02*
X174170800Y-63127900D01*
G75*
G02*
X173933300Y-63365400I-237500J0D01*
G01*
X173358300Y-63365400D01*
G75*
G02*
X173120800Y-63127900I0J237500D01*
G01*
X173120800Y-62652900D01*
G75*
G02*
X173358300Y-62415400I237500J0D01*
G01*
X173933300Y-62415400D01*
G75*
G02*
X174170800Y-62652900I0J-237500D01*
G01*
G37*
G04 #@! TD.AperFunction*
D11*
X170434000Y-121666000D03*
D12*
X170434000Y-124206000D03*
X170434000Y-126746000D03*
X170434000Y-129286000D03*
X170434000Y-131826000D03*
X170434000Y-134366000D03*
D11*
X200406000Y-90678000D03*
D12*
X200406000Y-88138000D03*
D11*
X205232000Y-108204000D03*
D12*
X205232000Y-110744000D03*
X205232000Y-113284000D03*
X205232000Y-115824000D03*
X205232000Y-118364000D03*
X205232000Y-120904000D03*
X139700000Y-120142000D03*
D11*
X142240000Y-120142000D03*
D12*
X196342000Y-90424000D03*
X196342000Y-87884000D03*
X196342000Y-85344000D03*
X196342000Y-82804000D03*
X196342000Y-80264000D03*
D11*
X196342000Y-77724000D03*
D12*
X139700000Y-115570000D03*
D11*
X142240000Y-115570000D03*
X139954000Y-89662000D03*
D12*
X139954000Y-92202000D03*
X139954000Y-94742000D03*
X139954000Y-97282000D03*
X139954000Y-99822000D03*
X139954000Y-102362000D03*
X139954000Y-104902000D03*
X139954000Y-107442000D03*
D13*
X150114000Y-99330000D03*
X151064000Y-101330000D03*
X149164000Y-101330000D03*
X145354000Y-101330000D03*
X147254000Y-101330000D03*
X146304000Y-99330000D03*
G04 #@! TA.AperFunction,SMDPad,CuDef*
G36*
G01*
X166437300Y-123364800D02*
X166912300Y-123364800D01*
G75*
G02*
X167149800Y-123602300I0J-237500D01*
G01*
X167149800Y-124177300D01*
G75*
G02*
X166912300Y-124414800I-237500J0D01*
G01*
X166437300Y-124414800D01*
G75*
G02*
X166199800Y-124177300I0J237500D01*
G01*
X166199800Y-123602300D01*
G75*
G02*
X166437300Y-123364800I237500J0D01*
G01*
G37*
G04 #@! TD.AperFunction*
G04 #@! TA.AperFunction,SMDPad,CuDef*
G36*
G01*
X166437300Y-125114800D02*
X166912300Y-125114800D01*
G75*
G02*
X167149800Y-125352300I0J-237500D01*
G01*
X167149800Y-125927300D01*
G75*
G02*
X166912300Y-126164800I-237500J0D01*
G01*
X166437300Y-126164800D01*
G75*
G02*
X166199800Y-125927300I0J237500D01*
G01*
X166199800Y-125352300D01*
G75*
G02*
X166437300Y-125114800I237500J0D01*
G01*
G37*
G04 #@! TD.AperFunction*
G04 #@! TA.AperFunction,SMDPad,CuDef*
G36*
G01*
X166607000Y-63356500D02*
X166607000Y-62881500D01*
G75*
G02*
X166844500Y-62644000I237500J0D01*
G01*
X167419500Y-62644000D01*
G75*
G02*
X167657000Y-62881500I0J-237500D01*
G01*
X167657000Y-63356500D01*
G75*
G02*
X167419500Y-63594000I-237500J0D01*
G01*
X166844500Y-63594000D01*
G75*
G02*
X166607000Y-63356500I0J237500D01*
G01*
G37*
G04 #@! TD.AperFunction*
G04 #@! TA.AperFunction,SMDPad,CuDef*
G36*
G01*
X168357000Y-63356500D02*
X168357000Y-62881500D01*
G75*
G02*
X168594500Y-62644000I237500J0D01*
G01*
X169169500Y-62644000D01*
G75*
G02*
X169407000Y-62881500I0J-237500D01*
G01*
X169407000Y-63356500D01*
G75*
G02*
X169169500Y-63594000I-237500J0D01*
G01*
X168594500Y-63594000D01*
G75*
G02*
X168357000Y-63356500I0J237500D01*
G01*
G37*
G04 #@! TD.AperFunction*
G04 #@! TA.AperFunction,SMDPad,CuDef*
G36*
G01*
X203902300Y-69110400D02*
X204377300Y-69110400D01*
G75*
G02*
X204614800Y-69347900I0J-237500D01*
G01*
X204614800Y-69922900D01*
G75*
G02*
X204377300Y-70160400I-237500J0D01*
G01*
X203902300Y-70160400D01*
G75*
G02*
X203664800Y-69922900I0J237500D01*
G01*
X203664800Y-69347900D01*
G75*
G02*
X203902300Y-69110400I237500J0D01*
G01*
G37*
G04 #@! TD.AperFunction*
G04 #@! TA.AperFunction,SMDPad,CuDef*
G36*
G01*
X203902300Y-70860400D02*
X204377300Y-70860400D01*
G75*
G02*
X204614800Y-71097900I0J-237500D01*
G01*
X204614800Y-71672900D01*
G75*
G02*
X204377300Y-71910400I-237500J0D01*
G01*
X203902300Y-71910400D01*
G75*
G02*
X203664800Y-71672900I0J237500D01*
G01*
X203664800Y-71097900D01*
G75*
G02*
X203902300Y-70860400I237500J0D01*
G01*
G37*
G04 #@! TD.AperFunction*
G04 #@! TA.AperFunction,SMDPad,CuDef*
G36*
G01*
X202104800Y-125027700D02*
X202104800Y-124552700D01*
G75*
G02*
X202342300Y-124315200I237500J0D01*
G01*
X202917300Y-124315200D01*
G75*
G02*
X203154800Y-124552700I0J-237500D01*
G01*
X203154800Y-125027700D01*
G75*
G02*
X202917300Y-125265200I-237500J0D01*
G01*
X202342300Y-125265200D01*
G75*
G02*
X202104800Y-125027700I0J237500D01*
G01*
G37*
G04 #@! TD.AperFunction*
G04 #@! TA.AperFunction,SMDPad,CuDef*
G36*
G01*
X203854800Y-125027700D02*
X203854800Y-124552700D01*
G75*
G02*
X204092300Y-124315200I237500J0D01*
G01*
X204667300Y-124315200D01*
G75*
G02*
X204904800Y-124552700I0J-237500D01*
G01*
X204904800Y-125027700D01*
G75*
G02*
X204667300Y-125265200I-237500J0D01*
G01*
X204092300Y-125265200D01*
G75*
G02*
X203854800Y-125027700I0J237500D01*
G01*
G37*
G04 #@! TD.AperFunction*
G04 #@! TA.AperFunction,SMDPad,CuDef*
G36*
G01*
X163629800Y-79467700D02*
X163629800Y-79942700D01*
G75*
G02*
X163392300Y-80180200I-237500J0D01*
G01*
X162817300Y-80180200D01*
G75*
G02*
X162579800Y-79942700I0J237500D01*
G01*
X162579800Y-79467700D01*
G75*
G02*
X162817300Y-79230200I237500J0D01*
G01*
X163392300Y-79230200D01*
G75*
G02*
X163629800Y-79467700I0J-237500D01*
G01*
G37*
G04 #@! TD.AperFunction*
G04 #@! TA.AperFunction,SMDPad,CuDef*
G36*
G01*
X161879800Y-79467700D02*
X161879800Y-79942700D01*
G75*
G02*
X161642300Y-80180200I-237500J0D01*
G01*
X161067300Y-80180200D01*
G75*
G02*
X160829800Y-79942700I0J237500D01*
G01*
X160829800Y-79467700D01*
G75*
G02*
X161067300Y-79230200I237500J0D01*
G01*
X161642300Y-79230200D01*
G75*
G02*
X161879800Y-79467700I0J-237500D01*
G01*
G37*
G04 #@! TD.AperFunction*
G04 #@! TA.AperFunction,SMDPad,CuDef*
G36*
G01*
X161981400Y-84725500D02*
X161981400Y-85200500D01*
G75*
G02*
X161743900Y-85438000I-237500J0D01*
G01*
X161168900Y-85438000D01*
G75*
G02*
X160931400Y-85200500I0J237500D01*
G01*
X160931400Y-84725500D01*
G75*
G02*
X161168900Y-84488000I237500J0D01*
G01*
X161743900Y-84488000D01*
G75*
G02*
X161981400Y-84725500I0J-237500D01*
G01*
G37*
G04 #@! TD.AperFunction*
G04 #@! TA.AperFunction,SMDPad,CuDef*
G36*
G01*
X163731400Y-84725500D02*
X163731400Y-85200500D01*
G75*
G02*
X163493900Y-85438000I-237500J0D01*
G01*
X162918900Y-85438000D01*
G75*
G02*
X162681400Y-85200500I0J237500D01*
G01*
X162681400Y-84725500D01*
G75*
G02*
X162918900Y-84488000I237500J0D01*
G01*
X163493900Y-84488000D01*
G75*
G02*
X163731400Y-84725500I0J-237500D01*
G01*
G37*
G04 #@! TD.AperFunction*
G04 #@! TA.AperFunction,SMDPad,CuDef*
G36*
G01*
X160843800Y-77402700D02*
X160843800Y-76927700D01*
G75*
G02*
X161081300Y-76690200I237500J0D01*
G01*
X161656300Y-76690200D01*
G75*
G02*
X161893800Y-76927700I0J-237500D01*
G01*
X161893800Y-77402700D01*
G75*
G02*
X161656300Y-77640200I-237500J0D01*
G01*
X161081300Y-77640200D01*
G75*
G02*
X160843800Y-77402700I0J237500D01*
G01*
G37*
G04 #@! TD.AperFunction*
G04 #@! TA.AperFunction,SMDPad,CuDef*
G36*
G01*
X162593800Y-77402700D02*
X162593800Y-76927700D01*
G75*
G02*
X162831300Y-76690200I237500J0D01*
G01*
X163406300Y-76690200D01*
G75*
G02*
X163643800Y-76927700I0J-237500D01*
G01*
X163643800Y-77402700D01*
G75*
G02*
X163406300Y-77640200I-237500J0D01*
G01*
X162831300Y-77640200D01*
G75*
G02*
X162593800Y-77402700I0J237500D01*
G01*
G37*
G04 #@! TD.AperFunction*
G04 #@! TA.AperFunction,SMDPad,CuDef*
G36*
G01*
X162619200Y-82304900D02*
X162619200Y-81829900D01*
G75*
G02*
X162856700Y-81592400I237500J0D01*
G01*
X163431700Y-81592400D01*
G75*
G02*
X163669200Y-81829900I0J-237500D01*
G01*
X163669200Y-82304900D01*
G75*
G02*
X163431700Y-82542400I-237500J0D01*
G01*
X162856700Y-82542400D01*
G75*
G02*
X162619200Y-82304900I0J237500D01*
G01*
G37*
G04 #@! TD.AperFunction*
G04 #@! TA.AperFunction,SMDPad,CuDef*
G36*
G01*
X160869200Y-82304900D02*
X160869200Y-81829900D01*
G75*
G02*
X161106700Y-81592400I237500J0D01*
G01*
X161681700Y-81592400D01*
G75*
G02*
X161919200Y-81829900I0J-237500D01*
G01*
X161919200Y-82304900D01*
G75*
G02*
X161681700Y-82542400I-237500J0D01*
G01*
X161106700Y-82542400D01*
G75*
G02*
X160869200Y-82304900I0J237500D01*
G01*
G37*
G04 #@! TD.AperFunction*
G04 #@! TA.AperFunction,SMDPad,CuDef*
G36*
G01*
X160931400Y-87435700D02*
X160931400Y-86960700D01*
G75*
G02*
X161168900Y-86723200I237500J0D01*
G01*
X161743900Y-86723200D01*
G75*
G02*
X161981400Y-86960700I0J-237500D01*
G01*
X161981400Y-87435700D01*
G75*
G02*
X161743900Y-87673200I-237500J0D01*
G01*
X161168900Y-87673200D01*
G75*
G02*
X160931400Y-87435700I0J237500D01*
G01*
G37*
G04 #@! TD.AperFunction*
G04 #@! TA.AperFunction,SMDPad,CuDef*
G36*
G01*
X162681400Y-87435700D02*
X162681400Y-86960700D01*
G75*
G02*
X162918900Y-86723200I237500J0D01*
G01*
X163493900Y-86723200D01*
G75*
G02*
X163731400Y-86960700I0J-237500D01*
G01*
X163731400Y-87435700D01*
G75*
G02*
X163493900Y-87673200I-237500J0D01*
G01*
X162918900Y-87673200D01*
G75*
G02*
X162681400Y-87435700I0J237500D01*
G01*
G37*
G04 #@! TD.AperFunction*
G04 #@! TA.AperFunction,SMDPad,CuDef*
G36*
G01*
X162695400Y-92617300D02*
X162695400Y-92142300D01*
G75*
G02*
X162932900Y-91904800I237500J0D01*
G01*
X163507900Y-91904800D01*
G75*
G02*
X163745400Y-92142300I0J-237500D01*
G01*
X163745400Y-92617300D01*
G75*
G02*
X163507900Y-92854800I-237500J0D01*
G01*
X162932900Y-92854800D01*
G75*
G02*
X162695400Y-92617300I0J237500D01*
G01*
G37*
G04 #@! TD.AperFunction*
G04 #@! TA.AperFunction,SMDPad,CuDef*
G36*
G01*
X160945400Y-92617300D02*
X160945400Y-92142300D01*
G75*
G02*
X161182900Y-91904800I237500J0D01*
G01*
X161757900Y-91904800D01*
G75*
G02*
X161995400Y-92142300I0J-237500D01*
G01*
X161995400Y-92617300D01*
G75*
G02*
X161757900Y-92854800I-237500J0D01*
G01*
X161182900Y-92854800D01*
G75*
G02*
X160945400Y-92617300I0J237500D01*
G01*
G37*
G04 #@! TD.AperFunction*
G04 #@! TA.AperFunction,SMDPad,CuDef*
G36*
G01*
X163833000Y-89602300D02*
X163833000Y-90077300D01*
G75*
G02*
X163595500Y-90314800I-237500J0D01*
G01*
X163020500Y-90314800D01*
G75*
G02*
X162783000Y-90077300I0J237500D01*
G01*
X162783000Y-89602300D01*
G75*
G02*
X163020500Y-89364800I237500J0D01*
G01*
X163595500Y-89364800D01*
G75*
G02*
X163833000Y-89602300I0J-237500D01*
G01*
G37*
G04 #@! TD.AperFunction*
G04 #@! TA.AperFunction,SMDPad,CuDef*
G36*
G01*
X162083000Y-89602300D02*
X162083000Y-90077300D01*
G75*
G02*
X161845500Y-90314800I-237500J0D01*
G01*
X161270500Y-90314800D01*
G75*
G02*
X161033000Y-90077300I0J237500D01*
G01*
X161033000Y-89602300D01*
G75*
G02*
X161270500Y-89364800I237500J0D01*
G01*
X161845500Y-89364800D01*
G75*
G02*
X162083000Y-89602300I0J-237500D01*
G01*
G37*
G04 #@! TD.AperFunction*
G04 #@! TA.AperFunction,SMDPad,CuDef*
G36*
G01*
X161990000Y-94842500D02*
X161990000Y-95317500D01*
G75*
G02*
X161752500Y-95555000I-237500J0D01*
G01*
X161177500Y-95555000D01*
G75*
G02*
X160940000Y-95317500I0J237500D01*
G01*
X160940000Y-94842500D01*
G75*
G02*
X161177500Y-94605000I237500J0D01*
G01*
X161752500Y-94605000D01*
G75*
G02*
X161990000Y-94842500I0J-237500D01*
G01*
G37*
G04 #@! TD.AperFunction*
G04 #@! TA.AperFunction,SMDPad,CuDef*
G36*
G01*
X163740000Y-94842500D02*
X163740000Y-95317500D01*
G75*
G02*
X163502500Y-95555000I-237500J0D01*
G01*
X162927500Y-95555000D01*
G75*
G02*
X162690000Y-95317500I0J237500D01*
G01*
X162690000Y-94842500D01*
G75*
G02*
X162927500Y-94605000I237500J0D01*
G01*
X163502500Y-94605000D01*
G75*
G02*
X163740000Y-94842500I0J-237500D01*
G01*
G37*
G04 #@! TD.AperFunction*
G04 #@! TA.AperFunction,SMDPad,CuDef*
G36*
G01*
X179440000Y-76902300D02*
X179440000Y-77377300D01*
G75*
G02*
X179202500Y-77614800I-237500J0D01*
G01*
X178627500Y-77614800D01*
G75*
G02*
X178390000Y-77377300I0J237500D01*
G01*
X178390000Y-76902300D01*
G75*
G02*
X178627500Y-76664800I237500J0D01*
G01*
X179202500Y-76664800D01*
G75*
G02*
X179440000Y-76902300I0J-237500D01*
G01*
G37*
G04 #@! TD.AperFunction*
G04 #@! TA.AperFunction,SMDPad,CuDef*
G36*
G01*
X177690000Y-76902300D02*
X177690000Y-77377300D01*
G75*
G02*
X177452500Y-77614800I-237500J0D01*
G01*
X176877500Y-77614800D01*
G75*
G02*
X176640000Y-77377300I0J237500D01*
G01*
X176640000Y-76902300D01*
G75*
G02*
X176877500Y-76664800I237500J0D01*
G01*
X177452500Y-76664800D01*
G75*
G02*
X177690000Y-76902300I0J-237500D01*
G01*
G37*
G04 #@! TD.AperFunction*
G04 #@! TA.AperFunction,SMDPad,CuDef*
G36*
G01*
X177740800Y-81982300D02*
X177740800Y-82457300D01*
G75*
G02*
X177503300Y-82694800I-237500J0D01*
G01*
X176928300Y-82694800D01*
G75*
G02*
X176690800Y-82457300I0J237500D01*
G01*
X176690800Y-81982300D01*
G75*
G02*
X176928300Y-81744800I237500J0D01*
G01*
X177503300Y-81744800D01*
G75*
G02*
X177740800Y-81982300I0J-237500D01*
G01*
G37*
G04 #@! TD.AperFunction*
G04 #@! TA.AperFunction,SMDPad,CuDef*
G36*
G01*
X179490800Y-81982300D02*
X179490800Y-82457300D01*
G75*
G02*
X179253300Y-82694800I-237500J0D01*
G01*
X178678300Y-82694800D01*
G75*
G02*
X178440800Y-82457300I0J237500D01*
G01*
X178440800Y-81982300D01*
G75*
G02*
X178678300Y-81744800I237500J0D01*
G01*
X179253300Y-81744800D01*
G75*
G02*
X179490800Y-81982300I0J-237500D01*
G01*
G37*
G04 #@! TD.AperFunction*
G04 #@! TA.AperFunction,SMDPad,CuDef*
G36*
G01*
X179504800Y-86986100D02*
X179504800Y-87461100D01*
G75*
G02*
X179267300Y-87698600I-237500J0D01*
G01*
X178692300Y-87698600D01*
G75*
G02*
X178454800Y-87461100I0J237500D01*
G01*
X178454800Y-86986100D01*
G75*
G02*
X178692300Y-86748600I237500J0D01*
G01*
X179267300Y-86748600D01*
G75*
G02*
X179504800Y-86986100I0J-237500D01*
G01*
G37*
G04 #@! TD.AperFunction*
G04 #@! TA.AperFunction,SMDPad,CuDef*
G36*
G01*
X177754800Y-86986100D02*
X177754800Y-87461100D01*
G75*
G02*
X177517300Y-87698600I-237500J0D01*
G01*
X176942300Y-87698600D01*
G75*
G02*
X176704800Y-87461100I0J237500D01*
G01*
X176704800Y-86986100D01*
G75*
G02*
X176942300Y-86748600I237500J0D01*
G01*
X177517300Y-86748600D01*
G75*
G02*
X177754800Y-86986100I0J-237500D01*
G01*
G37*
G04 #@! TD.AperFunction*
G04 #@! TA.AperFunction,SMDPad,CuDef*
G36*
G01*
X177817000Y-92167700D02*
X177817000Y-92642700D01*
G75*
G02*
X177579500Y-92880200I-237500J0D01*
G01*
X177004500Y-92880200D01*
G75*
G02*
X176767000Y-92642700I0J237500D01*
G01*
X176767000Y-92167700D01*
G75*
G02*
X177004500Y-91930200I237500J0D01*
G01*
X177579500Y-91930200D01*
G75*
G02*
X177817000Y-92167700I0J-237500D01*
G01*
G37*
G04 #@! TD.AperFunction*
G04 #@! TA.AperFunction,SMDPad,CuDef*
G36*
G01*
X179567000Y-92167700D02*
X179567000Y-92642700D01*
G75*
G02*
X179329500Y-92880200I-237500J0D01*
G01*
X178754500Y-92880200D01*
G75*
G02*
X178517000Y-92642700I0J237500D01*
G01*
X178517000Y-92167700D01*
G75*
G02*
X178754500Y-91930200I237500J0D01*
G01*
X179329500Y-91930200D01*
G75*
G02*
X179567000Y-92167700I0J-237500D01*
G01*
G37*
G04 #@! TD.AperFunction*
G04 #@! TA.AperFunction,SMDPad,CuDef*
G36*
G01*
X166912300Y-129797000D02*
X166437300Y-129797000D01*
G75*
G02*
X166199800Y-129559500I0J237500D01*
G01*
X166199800Y-128984500D01*
G75*
G02*
X166437300Y-128747000I237500J0D01*
G01*
X166912300Y-128747000D01*
G75*
G02*
X167149800Y-128984500I0J-237500D01*
G01*
X167149800Y-129559500D01*
G75*
G02*
X166912300Y-129797000I-237500J0D01*
G01*
G37*
G04 #@! TD.AperFunction*
G04 #@! TA.AperFunction,SMDPad,CuDef*
G36*
G01*
X166912300Y-128047000D02*
X166437300Y-128047000D01*
G75*
G02*
X166199800Y-127809500I0J237500D01*
G01*
X166199800Y-127234500D01*
G75*
G02*
X166437300Y-126997000I237500J0D01*
G01*
X166912300Y-126997000D01*
G75*
G02*
X167149800Y-127234500I0J-237500D01*
G01*
X167149800Y-127809500D01*
G75*
G02*
X166912300Y-128047000I-237500J0D01*
G01*
G37*
G04 #@! TD.AperFunction*
G04 #@! TA.AperFunction,SMDPad,CuDef*
G36*
G01*
X202650100Y-70121000D02*
X202175100Y-70121000D01*
G75*
G02*
X201937600Y-69883500I0J237500D01*
G01*
X201937600Y-69308500D01*
G75*
G02*
X202175100Y-69071000I237500J0D01*
G01*
X202650100Y-69071000D01*
G75*
G02*
X202887600Y-69308500I0J-237500D01*
G01*
X202887600Y-69883500D01*
G75*
G02*
X202650100Y-70121000I-237500J0D01*
G01*
G37*
G04 #@! TD.AperFunction*
G04 #@! TA.AperFunction,SMDPad,CuDef*
G36*
G01*
X202650100Y-71871000D02*
X202175100Y-71871000D01*
G75*
G02*
X201937600Y-71633500I0J237500D01*
G01*
X201937600Y-71058500D01*
G75*
G02*
X202175100Y-70821000I237500J0D01*
G01*
X202650100Y-70821000D01*
G75*
G02*
X202887600Y-71058500I0J-237500D01*
G01*
X202887600Y-71633500D01*
G75*
G02*
X202650100Y-71871000I-237500J0D01*
G01*
G37*
G04 #@! TD.AperFunction*
G04 #@! TA.AperFunction,SMDPad,CuDef*
G36*
G01*
X202827900Y-129111200D02*
X202352900Y-129111200D01*
G75*
G02*
X202115400Y-128873700I0J237500D01*
G01*
X202115400Y-128298700D01*
G75*
G02*
X202352900Y-128061200I237500J0D01*
G01*
X202827900Y-128061200D01*
G75*
G02*
X203065400Y-128298700I0J-237500D01*
G01*
X203065400Y-128873700D01*
G75*
G02*
X202827900Y-129111200I-237500J0D01*
G01*
G37*
G04 #@! TD.AperFunction*
G04 #@! TA.AperFunction,SMDPad,CuDef*
G36*
G01*
X202827900Y-127361200D02*
X202352900Y-127361200D01*
G75*
G02*
X202115400Y-127123700I0J237500D01*
G01*
X202115400Y-126548700D01*
G75*
G02*
X202352900Y-126311200I237500J0D01*
G01*
X202827900Y-126311200D01*
G75*
G02*
X203065400Y-126548700I0J-237500D01*
G01*
X203065400Y-127123700D01*
G75*
G02*
X202827900Y-127361200I-237500J0D01*
G01*
G37*
G04 #@! TD.AperFunction*
G04 #@! TA.AperFunction,SMDPad,CuDef*
G36*
G01*
X167344100Y-66579000D02*
X166869100Y-66579000D01*
G75*
G02*
X166631600Y-66341500I0J237500D01*
G01*
X166631600Y-65766500D01*
G75*
G02*
X166869100Y-65529000I237500J0D01*
G01*
X167344100Y-65529000D01*
G75*
G02*
X167581600Y-65766500I0J-237500D01*
G01*
X167581600Y-66341500D01*
G75*
G02*
X167344100Y-66579000I-237500J0D01*
G01*
G37*
G04 #@! TD.AperFunction*
G04 #@! TA.AperFunction,SMDPad,CuDef*
G36*
G01*
X167344100Y-68329000D02*
X166869100Y-68329000D01*
G75*
G02*
X166631600Y-68091500I0J237500D01*
G01*
X166631600Y-67516500D01*
G75*
G02*
X166869100Y-67279000I237500J0D01*
G01*
X167344100Y-67279000D01*
G75*
G02*
X167581600Y-67516500I0J-237500D01*
G01*
X167581600Y-68091500D01*
G75*
G02*
X167344100Y-68329000I-237500J0D01*
G01*
G37*
G04 #@! TD.AperFunction*
G04 #@! TA.AperFunction,SMDPad,CuDef*
G36*
G01*
X169147000Y-70087500D02*
X169147000Y-69612500D01*
G75*
G02*
X169384500Y-69375000I237500J0D01*
G01*
X169959500Y-69375000D01*
G75*
G02*
X170197000Y-69612500I0J-237500D01*
G01*
X170197000Y-70087500D01*
G75*
G02*
X169959500Y-70325000I-237500J0D01*
G01*
X169384500Y-70325000D01*
G75*
G02*
X169147000Y-70087500I0J237500D01*
G01*
G37*
G04 #@! TD.AperFunction*
G04 #@! TA.AperFunction,SMDPad,CuDef*
G36*
G01*
X167397000Y-70087500D02*
X167397000Y-69612500D01*
G75*
G02*
X167634500Y-69375000I237500J0D01*
G01*
X168209500Y-69375000D01*
G75*
G02*
X168447000Y-69612500I0J-237500D01*
G01*
X168447000Y-70087500D01*
G75*
G02*
X168209500Y-70325000I-237500J0D01*
G01*
X167634500Y-70325000D01*
G75*
G02*
X167397000Y-70087500I0J237500D01*
G01*
G37*
G04 #@! TD.AperFunction*
G04 #@! TA.AperFunction,SMDPad,CuDef*
G36*
G01*
X189755000Y-82058500D02*
X189755000Y-82533500D01*
G75*
G02*
X189517500Y-82771000I-237500J0D01*
G01*
X188942500Y-82771000D01*
G75*
G02*
X188705000Y-82533500I0J237500D01*
G01*
X188705000Y-82058500D01*
G75*
G02*
X188942500Y-81821000I237500J0D01*
G01*
X189517500Y-81821000D01*
G75*
G02*
X189755000Y-82058500I0J-237500D01*
G01*
G37*
G04 #@! TD.AperFunction*
G04 #@! TA.AperFunction,SMDPad,CuDef*
G36*
G01*
X191505000Y-82058500D02*
X191505000Y-82533500D01*
G75*
G02*
X191267500Y-82771000I-237500J0D01*
G01*
X190692500Y-82771000D01*
G75*
G02*
X190455000Y-82533500I0J237500D01*
G01*
X190455000Y-82058500D01*
G75*
G02*
X190692500Y-81821000I237500J0D01*
G01*
X191267500Y-81821000D01*
G75*
G02*
X191505000Y-82058500I0J-237500D01*
G01*
G37*
G04 #@! TD.AperFunction*
G04 #@! TA.AperFunction,SMDPad,CuDef*
G36*
G01*
X191505000Y-80280500D02*
X191505000Y-80755500D01*
G75*
G02*
X191267500Y-80993000I-237500J0D01*
G01*
X190692500Y-80993000D01*
G75*
G02*
X190455000Y-80755500I0J237500D01*
G01*
X190455000Y-80280500D01*
G75*
G02*
X190692500Y-80043000I237500J0D01*
G01*
X191267500Y-80043000D01*
G75*
G02*
X191505000Y-80280500I0J-237500D01*
G01*
G37*
G04 #@! TD.AperFunction*
G04 #@! TA.AperFunction,SMDPad,CuDef*
G36*
G01*
X189755000Y-80280500D02*
X189755000Y-80755500D01*
G75*
G02*
X189517500Y-80993000I-237500J0D01*
G01*
X188942500Y-80993000D01*
G75*
G02*
X188705000Y-80755500I0J237500D01*
G01*
X188705000Y-80280500D01*
G75*
G02*
X188942500Y-80043000I237500J0D01*
G01*
X189517500Y-80043000D01*
G75*
G02*
X189755000Y-80280500I0J-237500D01*
G01*
G37*
G04 #@! TD.AperFunction*
G04 #@! TA.AperFunction,SMDPad,CuDef*
G36*
G01*
X189755000Y-78502500D02*
X189755000Y-78977500D01*
G75*
G02*
X189517500Y-79215000I-237500J0D01*
G01*
X188942500Y-79215000D01*
G75*
G02*
X188705000Y-78977500I0J237500D01*
G01*
X188705000Y-78502500D01*
G75*
G02*
X188942500Y-78265000I237500J0D01*
G01*
X189517500Y-78265000D01*
G75*
G02*
X189755000Y-78502500I0J-237500D01*
G01*
G37*
G04 #@! TD.AperFunction*
G04 #@! TA.AperFunction,SMDPad,CuDef*
G36*
G01*
X191505000Y-78502500D02*
X191505000Y-78977500D01*
G75*
G02*
X191267500Y-79215000I-237500J0D01*
G01*
X190692500Y-79215000D01*
G75*
G02*
X190455000Y-78977500I0J237500D01*
G01*
X190455000Y-78502500D01*
G75*
G02*
X190692500Y-78265000I237500J0D01*
G01*
X191267500Y-78265000D01*
G75*
G02*
X191505000Y-78502500I0J-237500D01*
G01*
G37*
G04 #@! TD.AperFunction*
G04 #@! TA.AperFunction,SMDPad,CuDef*
G36*
G01*
X191533000Y-76724500D02*
X191533000Y-77199500D01*
G75*
G02*
X191295500Y-77437000I-237500J0D01*
G01*
X190720500Y-77437000D01*
G75*
G02*
X190483000Y-77199500I0J237500D01*
G01*
X190483000Y-76724500D01*
G75*
G02*
X190720500Y-76487000I237500J0D01*
G01*
X191295500Y-76487000D01*
G75*
G02*
X191533000Y-76724500I0J-237500D01*
G01*
G37*
G04 #@! TD.AperFunction*
G04 #@! TA.AperFunction,SMDPad,CuDef*
G36*
G01*
X189783000Y-76724500D02*
X189783000Y-77199500D01*
G75*
G02*
X189545500Y-77437000I-237500J0D01*
G01*
X188970500Y-77437000D01*
G75*
G02*
X188733000Y-77199500I0J237500D01*
G01*
X188733000Y-76724500D01*
G75*
G02*
X188970500Y-76487000I237500J0D01*
G01*
X189545500Y-76487000D01*
G75*
G02*
X189783000Y-76724500I0J-237500D01*
G01*
G37*
G04 #@! TD.AperFunction*
G04 #@! TA.AperFunction,SMDPad,CuDef*
G36*
G01*
X179533000Y-108695500D02*
X179533000Y-108220500D01*
G75*
G02*
X179770500Y-107983000I237500J0D01*
G01*
X180345500Y-107983000D01*
G75*
G02*
X180583000Y-108220500I0J-237500D01*
G01*
X180583000Y-108695500D01*
G75*
G02*
X180345500Y-108933000I-237500J0D01*
G01*
X179770500Y-108933000D01*
G75*
G02*
X179533000Y-108695500I0J237500D01*
G01*
G37*
G04 #@! TD.AperFunction*
G04 #@! TA.AperFunction,SMDPad,CuDef*
G36*
G01*
X177783000Y-108695500D02*
X177783000Y-108220500D01*
G75*
G02*
X178020500Y-107983000I237500J0D01*
G01*
X178595500Y-107983000D01*
G75*
G02*
X178833000Y-108220500I0J-237500D01*
G01*
X178833000Y-108695500D01*
G75*
G02*
X178595500Y-108933000I-237500J0D01*
G01*
X178020500Y-108933000D01*
G75*
G02*
X177783000Y-108695500I0J237500D01*
G01*
G37*
G04 #@! TD.AperFunction*
G04 #@! TA.AperFunction,SMDPad,CuDef*
G36*
G01*
X180611000Y-106442500D02*
X180611000Y-106917500D01*
G75*
G02*
X180373500Y-107155000I-237500J0D01*
G01*
X179798500Y-107155000D01*
G75*
G02*
X179561000Y-106917500I0J237500D01*
G01*
X179561000Y-106442500D01*
G75*
G02*
X179798500Y-106205000I237500J0D01*
G01*
X180373500Y-106205000D01*
G75*
G02*
X180611000Y-106442500I0J-237500D01*
G01*
G37*
G04 #@! TD.AperFunction*
G04 #@! TA.AperFunction,SMDPad,CuDef*
G36*
G01*
X178861000Y-106442500D02*
X178861000Y-106917500D01*
G75*
G02*
X178623500Y-107155000I-237500J0D01*
G01*
X178048500Y-107155000D01*
G75*
G02*
X177811000Y-106917500I0J237500D01*
G01*
X177811000Y-106442500D01*
G75*
G02*
X178048500Y-106205000I237500J0D01*
G01*
X178623500Y-106205000D01*
G75*
G02*
X178861000Y-106442500I0J-237500D01*
G01*
G37*
G04 #@! TD.AperFunction*
G04 #@! TA.AperFunction,SMDPad,CuDef*
G36*
G01*
X166607500Y-100968000D02*
X166132500Y-100968000D01*
G75*
G02*
X165895000Y-100730500I0J237500D01*
G01*
X165895000Y-100155500D01*
G75*
G02*
X166132500Y-99918000I237500J0D01*
G01*
X166607500Y-99918000D01*
G75*
G02*
X166845000Y-100155500I0J-237500D01*
G01*
X166845000Y-100730500D01*
G75*
G02*
X166607500Y-100968000I-237500J0D01*
G01*
G37*
G04 #@! TD.AperFunction*
G04 #@! TA.AperFunction,SMDPad,CuDef*
G36*
G01*
X166607500Y-99218000D02*
X166132500Y-99218000D01*
G75*
G02*
X165895000Y-98980500I0J237500D01*
G01*
X165895000Y-98405500D01*
G75*
G02*
X166132500Y-98168000I237500J0D01*
G01*
X166607500Y-98168000D01*
G75*
G02*
X166845000Y-98405500I0J-237500D01*
G01*
X166845000Y-98980500D01*
G75*
G02*
X166607500Y-99218000I-237500J0D01*
G01*
G37*
G04 #@! TD.AperFunction*
G04 #@! TA.AperFunction,SMDPad,CuDef*
G36*
G01*
X176479293Y-115538831D02*
X176815169Y-115874707D01*
G75*
G02*
X176815169Y-116210583I-167938J-167938D01*
G01*
X176408583Y-116617169D01*
G75*
G02*
X176072707Y-116617169I-167938J167938D01*
G01*
X175736831Y-116281293D01*
G75*
G02*
X175736831Y-115945417I167938J167938D01*
G01*
X176143417Y-115538831D01*
G75*
G02*
X176479293Y-115538831I167938J-167938D01*
G01*
G37*
G04 #@! TD.AperFunction*
G04 #@! TA.AperFunction,SMDPad,CuDef*
G36*
G01*
X177716729Y-114301395D02*
X178052605Y-114637271D01*
G75*
G02*
X178052605Y-114973147I-167938J-167938D01*
G01*
X177646019Y-115379733D01*
G75*
G02*
X177310143Y-115379733I-167938J167938D01*
G01*
X176974267Y-115043857D01*
G75*
G02*
X176974267Y-114707981I167938J167938D01*
G01*
X177380853Y-114301395D01*
G75*
G02*
X177716729Y-114301395I167938J-167938D01*
G01*
G37*
G04 #@! TD.AperFunction*
G04 #@! TA.AperFunction,SMDPad,CuDef*
G36*
G01*
X199802000Y-77486500D02*
X199802000Y-77961500D01*
G75*
G02*
X199564500Y-78199000I-237500J0D01*
G01*
X198989500Y-78199000D01*
G75*
G02*
X198752000Y-77961500I0J237500D01*
G01*
X198752000Y-77486500D01*
G75*
G02*
X198989500Y-77249000I237500J0D01*
G01*
X199564500Y-77249000D01*
G75*
G02*
X199802000Y-77486500I0J-237500D01*
G01*
G37*
G04 #@! TD.AperFunction*
G04 #@! TA.AperFunction,SMDPad,CuDef*
G36*
G01*
X201552000Y-77486500D02*
X201552000Y-77961500D01*
G75*
G02*
X201314500Y-78199000I-237500J0D01*
G01*
X200739500Y-78199000D01*
G75*
G02*
X200502000Y-77961500I0J237500D01*
G01*
X200502000Y-77486500D01*
G75*
G02*
X200739500Y-77249000I237500J0D01*
G01*
X201314500Y-77249000D01*
G75*
G02*
X201552000Y-77486500I0J-237500D01*
G01*
G37*
G04 #@! TD.AperFunction*
G04 #@! TA.AperFunction,SMDPad,CuDef*
G36*
G01*
X155685500Y-109999000D02*
X155210500Y-109999000D01*
G75*
G02*
X154973000Y-109761500I0J237500D01*
G01*
X154973000Y-109186500D01*
G75*
G02*
X155210500Y-108949000I237500J0D01*
G01*
X155685500Y-108949000D01*
G75*
G02*
X155923000Y-109186500I0J-237500D01*
G01*
X155923000Y-109761500D01*
G75*
G02*
X155685500Y-109999000I-237500J0D01*
G01*
G37*
G04 #@! TD.AperFunction*
G04 #@! TA.AperFunction,SMDPad,CuDef*
G36*
G01*
X155685500Y-111749000D02*
X155210500Y-111749000D01*
G75*
G02*
X154973000Y-111511500I0J237500D01*
G01*
X154973000Y-110936500D01*
G75*
G02*
X155210500Y-110699000I237500J0D01*
G01*
X155685500Y-110699000D01*
G75*
G02*
X155923000Y-110936500I0J-237500D01*
G01*
X155923000Y-111511500D01*
G75*
G02*
X155685500Y-111749000I-237500J0D01*
G01*
G37*
G04 #@! TD.AperFunction*
G04 #@! TA.AperFunction,SMDPad,CuDef*
G36*
G01*
X145525500Y-117083000D02*
X145050500Y-117083000D01*
G75*
G02*
X144813000Y-116845500I0J237500D01*
G01*
X144813000Y-116270500D01*
G75*
G02*
X145050500Y-116033000I237500J0D01*
G01*
X145525500Y-116033000D01*
G75*
G02*
X145763000Y-116270500I0J-237500D01*
G01*
X145763000Y-116845500D01*
G75*
G02*
X145525500Y-117083000I-237500J0D01*
G01*
G37*
G04 #@! TD.AperFunction*
G04 #@! TA.AperFunction,SMDPad,CuDef*
G36*
G01*
X145525500Y-115333000D02*
X145050500Y-115333000D01*
G75*
G02*
X144813000Y-115095500I0J237500D01*
G01*
X144813000Y-114520500D01*
G75*
G02*
X145050500Y-114283000I237500J0D01*
G01*
X145525500Y-114283000D01*
G75*
G02*
X145763000Y-114520500I0J-237500D01*
G01*
X145763000Y-115095500D01*
G75*
G02*
X145525500Y-115333000I-237500J0D01*
G01*
G37*
G04 #@! TD.AperFunction*
G04 #@! TA.AperFunction,SMDPad,CuDef*
G36*
G01*
X157463500Y-112031000D02*
X156988500Y-112031000D01*
G75*
G02*
X156751000Y-111793500I0J237500D01*
G01*
X156751000Y-111218500D01*
G75*
G02*
X156988500Y-110981000I237500J0D01*
G01*
X157463500Y-110981000D01*
G75*
G02*
X157701000Y-111218500I0J-237500D01*
G01*
X157701000Y-111793500D01*
G75*
G02*
X157463500Y-112031000I-237500J0D01*
G01*
G37*
G04 #@! TD.AperFunction*
G04 #@! TA.AperFunction,SMDPad,CuDef*
G36*
G01*
X157463500Y-110281000D02*
X156988500Y-110281000D01*
G75*
G02*
X156751000Y-110043500I0J237500D01*
G01*
X156751000Y-109468500D01*
G75*
G02*
X156988500Y-109231000I237500J0D01*
G01*
X157463500Y-109231000D01*
G75*
G02*
X157701000Y-109468500I0J-237500D01*
G01*
X157701000Y-110043500D01*
G75*
G02*
X157463500Y-110281000I-237500J0D01*
G01*
G37*
G04 #@! TD.AperFunction*
G04 #@! TA.AperFunction,SMDPad,CuDef*
G36*
G01*
X143013000Y-113013500D02*
X143013000Y-112538500D01*
G75*
G02*
X143250500Y-112301000I237500J0D01*
G01*
X143825500Y-112301000D01*
G75*
G02*
X144063000Y-112538500I0J-237500D01*
G01*
X144063000Y-113013500D01*
G75*
G02*
X143825500Y-113251000I-237500J0D01*
G01*
X143250500Y-113251000D01*
G75*
G02*
X143013000Y-113013500I0J237500D01*
G01*
G37*
G04 #@! TD.AperFunction*
G04 #@! TA.AperFunction,SMDPad,CuDef*
G36*
G01*
X144763000Y-113013500D02*
X144763000Y-112538500D01*
G75*
G02*
X145000500Y-112301000I237500J0D01*
G01*
X145575500Y-112301000D01*
G75*
G02*
X145813000Y-112538500I0J-237500D01*
G01*
X145813000Y-113013500D01*
G75*
G02*
X145575500Y-113251000I-237500J0D01*
G01*
X145000500Y-113251000D01*
G75*
G02*
X144763000Y-113013500I0J237500D01*
G01*
G37*
G04 #@! TD.AperFunction*
G04 #@! TA.AperFunction,SMDPad,CuDef*
G36*
G01*
X144442729Y-84837395D02*
X144778605Y-85173271D01*
G75*
G02*
X144778605Y-85509147I-167938J-167938D01*
G01*
X144372019Y-85915733D01*
G75*
G02*
X144036143Y-85915733I-167938J167938D01*
G01*
X143700267Y-85579857D01*
G75*
G02*
X143700267Y-85243981I167938J167938D01*
G01*
X144106853Y-84837395D01*
G75*
G02*
X144442729Y-84837395I167938J-167938D01*
G01*
G37*
G04 #@! TD.AperFunction*
G04 #@! TA.AperFunction,SMDPad,CuDef*
G36*
G01*
X143205293Y-86074831D02*
X143541169Y-86410707D01*
G75*
G02*
X143541169Y-86746583I-167938J-167938D01*
G01*
X143134583Y-87153169D01*
G75*
G02*
X142798707Y-87153169I-167938J167938D01*
G01*
X142462831Y-86817293D01*
G75*
G02*
X142462831Y-86481417I167938J167938D01*
G01*
X142869417Y-86074831D01*
G75*
G02*
X143205293Y-86074831I167938J-167938D01*
G01*
G37*
G04 #@! TD.AperFunction*
G04 #@! TA.AperFunction,SMDPad,CuDef*
G36*
G01*
X199802000Y-80026500D02*
X199802000Y-80501500D01*
G75*
G02*
X199564500Y-80739000I-237500J0D01*
G01*
X198989500Y-80739000D01*
G75*
G02*
X198752000Y-80501500I0J237500D01*
G01*
X198752000Y-80026500D01*
G75*
G02*
X198989500Y-79789000I237500J0D01*
G01*
X199564500Y-79789000D01*
G75*
G02*
X199802000Y-80026500I0J-237500D01*
G01*
G37*
G04 #@! TD.AperFunction*
G04 #@! TA.AperFunction,SMDPad,CuDef*
G36*
G01*
X201552000Y-80026500D02*
X201552000Y-80501500D01*
G75*
G02*
X201314500Y-80739000I-237500J0D01*
G01*
X200739500Y-80739000D01*
G75*
G02*
X200502000Y-80501500I0J237500D01*
G01*
X200502000Y-80026500D01*
G75*
G02*
X200739500Y-79789000I237500J0D01*
G01*
X201314500Y-79789000D01*
G75*
G02*
X201552000Y-80026500I0J-237500D01*
G01*
G37*
G04 #@! TD.AperFunction*
G04 #@! TA.AperFunction,SMDPad,CuDef*
G36*
G01*
X199802000Y-82566500D02*
X199802000Y-83041500D01*
G75*
G02*
X199564500Y-83279000I-237500J0D01*
G01*
X198989500Y-83279000D01*
G75*
G02*
X198752000Y-83041500I0J237500D01*
G01*
X198752000Y-82566500D01*
G75*
G02*
X198989500Y-82329000I237500J0D01*
G01*
X199564500Y-82329000D01*
G75*
G02*
X199802000Y-82566500I0J-237500D01*
G01*
G37*
G04 #@! TD.AperFunction*
G04 #@! TA.AperFunction,SMDPad,CuDef*
G36*
G01*
X201552000Y-82566500D02*
X201552000Y-83041500D01*
G75*
G02*
X201314500Y-83279000I-237500J0D01*
G01*
X200739500Y-83279000D01*
G75*
G02*
X200502000Y-83041500I0J237500D01*
G01*
X200502000Y-82566500D01*
G75*
G02*
X200739500Y-82329000I237500J0D01*
G01*
X201314500Y-82329000D01*
G75*
G02*
X201552000Y-82566500I0J-237500D01*
G01*
G37*
G04 #@! TD.AperFunction*
G04 #@! TA.AperFunction,SMDPad,CuDef*
G36*
G01*
X199802000Y-85106500D02*
X199802000Y-85581500D01*
G75*
G02*
X199564500Y-85819000I-237500J0D01*
G01*
X198989500Y-85819000D01*
G75*
G02*
X198752000Y-85581500I0J237500D01*
G01*
X198752000Y-85106500D01*
G75*
G02*
X198989500Y-84869000I237500J0D01*
G01*
X199564500Y-84869000D01*
G75*
G02*
X199802000Y-85106500I0J-237500D01*
G01*
G37*
G04 #@! TD.AperFunction*
G04 #@! TA.AperFunction,SMDPad,CuDef*
G36*
G01*
X201552000Y-85106500D02*
X201552000Y-85581500D01*
G75*
G02*
X201314500Y-85819000I-237500J0D01*
G01*
X200739500Y-85819000D01*
G75*
G02*
X200502000Y-85581500I0J237500D01*
G01*
X200502000Y-85106500D01*
G75*
G02*
X200739500Y-84869000I237500J0D01*
G01*
X201314500Y-84869000D01*
G75*
G02*
X201552000Y-85106500I0J-237500D01*
G01*
G37*
G04 #@! TD.AperFunction*
G04 #@! TA.AperFunction,SMDPad,CuDef*
G36*
G01*
X182388500Y-109485000D02*
X182863500Y-109485000D01*
G75*
G02*
X183101000Y-109722500I0J-237500D01*
G01*
X183101000Y-110297500D01*
G75*
G02*
X182863500Y-110535000I-237500J0D01*
G01*
X182388500Y-110535000D01*
G75*
G02*
X182151000Y-110297500I0J237500D01*
G01*
X182151000Y-109722500D01*
G75*
G02*
X182388500Y-109485000I237500J0D01*
G01*
G37*
G04 #@! TD.AperFunction*
G04 #@! TA.AperFunction,SMDPad,CuDef*
G36*
G01*
X182388500Y-111235000D02*
X182863500Y-111235000D01*
G75*
G02*
X183101000Y-111472500I0J-237500D01*
G01*
X183101000Y-112047500D01*
G75*
G02*
X182863500Y-112285000I-237500J0D01*
G01*
X182388500Y-112285000D01*
G75*
G02*
X182151000Y-112047500I0J237500D01*
G01*
X182151000Y-111472500D01*
G75*
G02*
X182388500Y-111235000I237500J0D01*
G01*
G37*
G04 #@! TD.AperFunction*
D11*
X204978000Y-76454000D03*
D12*
X204978000Y-78994000D03*
D11*
X163830000Y-134620000D03*
D12*
X163830000Y-132080000D03*
X163830000Y-129540000D03*
X163830000Y-127000000D03*
X163830000Y-124460000D03*
X163957000Y-63093600D03*
X163957000Y-65633600D03*
X163957000Y-68173600D03*
X163957000Y-70713600D03*
D11*
X163957000Y-73253600D03*
X198678800Y-73456800D03*
D12*
X198678800Y-70916800D03*
X198678800Y-68376800D03*
X198678800Y-65836800D03*
X198678800Y-63296800D03*
X199161400Y-124383800D03*
X199161400Y-126923800D03*
X199161400Y-129463800D03*
X199161400Y-132003800D03*
D11*
X199161400Y-134543800D03*
D14*
X166395400Y-77089000D03*
D15*
X174015400Y-94869000D03*
X166395400Y-79629000D03*
X174015400Y-92329000D03*
X166395400Y-82169000D03*
X174015400Y-89789000D03*
X166395400Y-84709000D03*
X174015400Y-87249000D03*
X166395400Y-87249000D03*
X174015400Y-84709000D03*
X166395400Y-89789000D03*
X174015400Y-82169000D03*
X166395400Y-92329000D03*
X174015400Y-79629000D03*
X166395400Y-94869000D03*
X174015400Y-77089000D03*
D16*
X169951400Y-66116200D03*
X169951400Y-67066200D03*
X169951400Y-68016200D03*
X172151400Y-68016200D03*
X172151400Y-66116200D03*
G04 #@! TA.AperFunction,SMDPad,CuDef*
G36*
G01*
X182650000Y-83416000D02*
X182650000Y-83716000D01*
G75*
G02*
X182500000Y-83866000I-150000J0D01*
G01*
X180850000Y-83866000D01*
G75*
G02*
X180700000Y-83716000I0J150000D01*
G01*
X180700000Y-83416000D01*
G75*
G02*
X180850000Y-83266000I150000J0D01*
G01*
X182500000Y-83266000D01*
G75*
G02*
X182650000Y-83416000I0J-150000D01*
G01*
G37*
G04 #@! TD.AperFunction*
G04 #@! TA.AperFunction,SMDPad,CuDef*
G36*
G01*
X182650000Y-82146000D02*
X182650000Y-82446000D01*
G75*
G02*
X182500000Y-82596000I-150000J0D01*
G01*
X180850000Y-82596000D01*
G75*
G02*
X180700000Y-82446000I0J150000D01*
G01*
X180700000Y-82146000D01*
G75*
G02*
X180850000Y-81996000I150000J0D01*
G01*
X182500000Y-81996000D01*
G75*
G02*
X182650000Y-82146000I0J-150000D01*
G01*
G37*
G04 #@! TD.AperFunction*
G04 #@! TA.AperFunction,SMDPad,CuDef*
G36*
G01*
X182650000Y-80876000D02*
X182650000Y-81176000D01*
G75*
G02*
X182500000Y-81326000I-150000J0D01*
G01*
X180850000Y-81326000D01*
G75*
G02*
X180700000Y-81176000I0J150000D01*
G01*
X180700000Y-80876000D01*
G75*
G02*
X180850000Y-80726000I150000J0D01*
G01*
X182500000Y-80726000D01*
G75*
G02*
X182650000Y-80876000I0J-150000D01*
G01*
G37*
G04 #@! TD.AperFunction*
G04 #@! TA.AperFunction,SMDPad,CuDef*
G36*
G01*
X182650000Y-79606000D02*
X182650000Y-79906000D01*
G75*
G02*
X182500000Y-80056000I-150000J0D01*
G01*
X180850000Y-80056000D01*
G75*
G02*
X180700000Y-79906000I0J150000D01*
G01*
X180700000Y-79606000D01*
G75*
G02*
X180850000Y-79456000I150000J0D01*
G01*
X182500000Y-79456000D01*
G75*
G02*
X182650000Y-79606000I0J-150000D01*
G01*
G37*
G04 #@! TD.AperFunction*
G04 #@! TA.AperFunction,SMDPad,CuDef*
G36*
G01*
X182650000Y-78336000D02*
X182650000Y-78636000D01*
G75*
G02*
X182500000Y-78786000I-150000J0D01*
G01*
X180850000Y-78786000D01*
G75*
G02*
X180700000Y-78636000I0J150000D01*
G01*
X180700000Y-78336000D01*
G75*
G02*
X180850000Y-78186000I150000J0D01*
G01*
X182500000Y-78186000D01*
G75*
G02*
X182650000Y-78336000I0J-150000D01*
G01*
G37*
G04 #@! TD.AperFunction*
G04 #@! TA.AperFunction,SMDPad,CuDef*
G36*
G01*
X182650000Y-77066000D02*
X182650000Y-77366000D01*
G75*
G02*
X182500000Y-77516000I-150000J0D01*
G01*
X180850000Y-77516000D01*
G75*
G02*
X180700000Y-77366000I0J150000D01*
G01*
X180700000Y-77066000D01*
G75*
G02*
X180850000Y-76916000I150000J0D01*
G01*
X182500000Y-76916000D01*
G75*
G02*
X182650000Y-77066000I0J-150000D01*
G01*
G37*
G04 #@! TD.AperFunction*
G04 #@! TA.AperFunction,SMDPad,CuDef*
G36*
G01*
X182650000Y-75796000D02*
X182650000Y-76096000D01*
G75*
G02*
X182500000Y-76246000I-150000J0D01*
G01*
X180850000Y-76246000D01*
G75*
G02*
X180700000Y-76096000I0J150000D01*
G01*
X180700000Y-75796000D01*
G75*
G02*
X180850000Y-75646000I150000J0D01*
G01*
X182500000Y-75646000D01*
G75*
G02*
X182650000Y-75796000I0J-150000D01*
G01*
G37*
G04 #@! TD.AperFunction*
G04 #@! TA.AperFunction,SMDPad,CuDef*
G36*
G01*
X187600000Y-75796000D02*
X187600000Y-76096000D01*
G75*
G02*
X187450000Y-76246000I-150000J0D01*
G01*
X185800000Y-76246000D01*
G75*
G02*
X185650000Y-76096000I0J150000D01*
G01*
X185650000Y-75796000D01*
G75*
G02*
X185800000Y-75646000I150000J0D01*
G01*
X187450000Y-75646000D01*
G75*
G02*
X187600000Y-75796000I0J-150000D01*
G01*
G37*
G04 #@! TD.AperFunction*
G04 #@! TA.AperFunction,SMDPad,CuDef*
G36*
G01*
X187600000Y-77066000D02*
X187600000Y-77366000D01*
G75*
G02*
X187450000Y-77516000I-150000J0D01*
G01*
X185800000Y-77516000D01*
G75*
G02*
X185650000Y-77366000I0J150000D01*
G01*
X185650000Y-77066000D01*
G75*
G02*
X185800000Y-76916000I150000J0D01*
G01*
X187450000Y-76916000D01*
G75*
G02*
X187600000Y-77066000I0J-150000D01*
G01*
G37*
G04 #@! TD.AperFunction*
G04 #@! TA.AperFunction,SMDPad,CuDef*
G36*
G01*
X187600000Y-78336000D02*
X187600000Y-78636000D01*
G75*
G02*
X187450000Y-78786000I-150000J0D01*
G01*
X185800000Y-78786000D01*
G75*
G02*
X185650000Y-78636000I0J150000D01*
G01*
X185650000Y-78336000D01*
G75*
G02*
X185800000Y-78186000I150000J0D01*
G01*
X187450000Y-78186000D01*
G75*
G02*
X187600000Y-78336000I0J-150000D01*
G01*
G37*
G04 #@! TD.AperFunction*
G04 #@! TA.AperFunction,SMDPad,CuDef*
G36*
G01*
X187600000Y-79606000D02*
X187600000Y-79906000D01*
G75*
G02*
X187450000Y-80056000I-150000J0D01*
G01*
X185800000Y-80056000D01*
G75*
G02*
X185650000Y-79906000I0J150000D01*
G01*
X185650000Y-79606000D01*
G75*
G02*
X185800000Y-79456000I150000J0D01*
G01*
X187450000Y-79456000D01*
G75*
G02*
X187600000Y-79606000I0J-150000D01*
G01*
G37*
G04 #@! TD.AperFunction*
G04 #@! TA.AperFunction,SMDPad,CuDef*
G36*
G01*
X187600000Y-80876000D02*
X187600000Y-81176000D01*
G75*
G02*
X187450000Y-81326000I-150000J0D01*
G01*
X185800000Y-81326000D01*
G75*
G02*
X185650000Y-81176000I0J150000D01*
G01*
X185650000Y-80876000D01*
G75*
G02*
X185800000Y-80726000I150000J0D01*
G01*
X187450000Y-80726000D01*
G75*
G02*
X187600000Y-80876000I0J-150000D01*
G01*
G37*
G04 #@! TD.AperFunction*
G04 #@! TA.AperFunction,SMDPad,CuDef*
G36*
G01*
X187600000Y-82146000D02*
X187600000Y-82446000D01*
G75*
G02*
X187450000Y-82596000I-150000J0D01*
G01*
X185800000Y-82596000D01*
G75*
G02*
X185650000Y-82446000I0J150000D01*
G01*
X185650000Y-82146000D01*
G75*
G02*
X185800000Y-81996000I150000J0D01*
G01*
X187450000Y-81996000D01*
G75*
G02*
X187600000Y-82146000I0J-150000D01*
G01*
G37*
G04 #@! TD.AperFunction*
G04 #@! TA.AperFunction,SMDPad,CuDef*
G36*
G01*
X187600000Y-83416000D02*
X187600000Y-83716000D01*
G75*
G02*
X187450000Y-83866000I-150000J0D01*
G01*
X185800000Y-83866000D01*
G75*
G02*
X185650000Y-83716000I0J150000D01*
G01*
X185650000Y-83416000D01*
G75*
G02*
X185800000Y-83266000I150000J0D01*
G01*
X187450000Y-83266000D01*
G75*
G02*
X187600000Y-83416000I0J-150000D01*
G01*
G37*
G04 #@! TD.AperFunction*
G04 #@! TA.AperFunction,SMDPad,CuDef*
G36*
G01*
X173675000Y-102090000D02*
X173825000Y-102090000D01*
G75*
G02*
X173900000Y-102165000I0J-75000D01*
G01*
X173900000Y-103565000D01*
G75*
G02*
X173825000Y-103640000I-75000J0D01*
G01*
X173675000Y-103640000D01*
G75*
G02*
X173600000Y-103565000I0J75000D01*
G01*
X173600000Y-102165000D01*
G75*
G02*
X173675000Y-102090000I75000J0D01*
G01*
G37*
G04 #@! TD.AperFunction*
G04 #@! TA.AperFunction,SMDPad,CuDef*
G36*
G01*
X173175000Y-102090000D02*
X173325000Y-102090000D01*
G75*
G02*
X173400000Y-102165000I0J-75000D01*
G01*
X173400000Y-103565000D01*
G75*
G02*
X173325000Y-103640000I-75000J0D01*
G01*
X173175000Y-103640000D01*
G75*
G02*
X173100000Y-103565000I0J75000D01*
G01*
X173100000Y-102165000D01*
G75*
G02*
X173175000Y-102090000I75000J0D01*
G01*
G37*
G04 #@! TD.AperFunction*
G04 #@! TA.AperFunction,SMDPad,CuDef*
G36*
G01*
X172675000Y-102090000D02*
X172825000Y-102090000D01*
G75*
G02*
X172900000Y-102165000I0J-75000D01*
G01*
X172900000Y-103565000D01*
G75*
G02*
X172825000Y-103640000I-75000J0D01*
G01*
X172675000Y-103640000D01*
G75*
G02*
X172600000Y-103565000I0J75000D01*
G01*
X172600000Y-102165000D01*
G75*
G02*
X172675000Y-102090000I75000J0D01*
G01*
G37*
G04 #@! TD.AperFunction*
G04 #@! TA.AperFunction,SMDPad,CuDef*
G36*
G01*
X172175000Y-102090000D02*
X172325000Y-102090000D01*
G75*
G02*
X172400000Y-102165000I0J-75000D01*
G01*
X172400000Y-103565000D01*
G75*
G02*
X172325000Y-103640000I-75000J0D01*
G01*
X172175000Y-103640000D01*
G75*
G02*
X172100000Y-103565000I0J75000D01*
G01*
X172100000Y-102165000D01*
G75*
G02*
X172175000Y-102090000I75000J0D01*
G01*
G37*
G04 #@! TD.AperFunction*
G04 #@! TA.AperFunction,SMDPad,CuDef*
G36*
G01*
X171675000Y-102090000D02*
X171825000Y-102090000D01*
G75*
G02*
X171900000Y-102165000I0J-75000D01*
G01*
X171900000Y-103565000D01*
G75*
G02*
X171825000Y-103640000I-75000J0D01*
G01*
X171675000Y-103640000D01*
G75*
G02*
X171600000Y-103565000I0J75000D01*
G01*
X171600000Y-102165000D01*
G75*
G02*
X171675000Y-102090000I75000J0D01*
G01*
G37*
G04 #@! TD.AperFunction*
G04 #@! TA.AperFunction,SMDPad,CuDef*
G36*
G01*
X171175000Y-102090000D02*
X171325000Y-102090000D01*
G75*
G02*
X171400000Y-102165000I0J-75000D01*
G01*
X171400000Y-103565000D01*
G75*
G02*
X171325000Y-103640000I-75000J0D01*
G01*
X171175000Y-103640000D01*
G75*
G02*
X171100000Y-103565000I0J75000D01*
G01*
X171100000Y-102165000D01*
G75*
G02*
X171175000Y-102090000I75000J0D01*
G01*
G37*
G04 #@! TD.AperFunction*
G04 #@! TA.AperFunction,SMDPad,CuDef*
G36*
G01*
X170675000Y-102090000D02*
X170825000Y-102090000D01*
G75*
G02*
X170900000Y-102165000I0J-75000D01*
G01*
X170900000Y-103565000D01*
G75*
G02*
X170825000Y-103640000I-75000J0D01*
G01*
X170675000Y-103640000D01*
G75*
G02*
X170600000Y-103565000I0J75000D01*
G01*
X170600000Y-102165000D01*
G75*
G02*
X170675000Y-102090000I75000J0D01*
G01*
G37*
G04 #@! TD.AperFunction*
G04 #@! TA.AperFunction,SMDPad,CuDef*
G36*
G01*
X170175000Y-102090000D02*
X170325000Y-102090000D01*
G75*
G02*
X170400000Y-102165000I0J-75000D01*
G01*
X170400000Y-103565000D01*
G75*
G02*
X170325000Y-103640000I-75000J0D01*
G01*
X170175000Y-103640000D01*
G75*
G02*
X170100000Y-103565000I0J75000D01*
G01*
X170100000Y-102165000D01*
G75*
G02*
X170175000Y-102090000I75000J0D01*
G01*
G37*
G04 #@! TD.AperFunction*
G04 #@! TA.AperFunction,SMDPad,CuDef*
G36*
G01*
X169675000Y-102090000D02*
X169825000Y-102090000D01*
G75*
G02*
X169900000Y-102165000I0J-75000D01*
G01*
X169900000Y-103565000D01*
G75*
G02*
X169825000Y-103640000I-75000J0D01*
G01*
X169675000Y-103640000D01*
G75*
G02*
X169600000Y-103565000I0J75000D01*
G01*
X169600000Y-102165000D01*
G75*
G02*
X169675000Y-102090000I75000J0D01*
G01*
G37*
G04 #@! TD.AperFunction*
G04 #@! TA.AperFunction,SMDPad,CuDef*
G36*
G01*
X169175000Y-102090000D02*
X169325000Y-102090000D01*
G75*
G02*
X169400000Y-102165000I0J-75000D01*
G01*
X169400000Y-103565000D01*
G75*
G02*
X169325000Y-103640000I-75000J0D01*
G01*
X169175000Y-103640000D01*
G75*
G02*
X169100000Y-103565000I0J75000D01*
G01*
X169100000Y-102165000D01*
G75*
G02*
X169175000Y-102090000I75000J0D01*
G01*
G37*
G04 #@! TD.AperFunction*
G04 #@! TA.AperFunction,SMDPad,CuDef*
G36*
G01*
X168675000Y-102090000D02*
X168825000Y-102090000D01*
G75*
G02*
X168900000Y-102165000I0J-75000D01*
G01*
X168900000Y-103565000D01*
G75*
G02*
X168825000Y-103640000I-75000J0D01*
G01*
X168675000Y-103640000D01*
G75*
G02*
X168600000Y-103565000I0J75000D01*
G01*
X168600000Y-102165000D01*
G75*
G02*
X168675000Y-102090000I75000J0D01*
G01*
G37*
G04 #@! TD.AperFunction*
G04 #@! TA.AperFunction,SMDPad,CuDef*
G36*
G01*
X168175000Y-102090000D02*
X168325000Y-102090000D01*
G75*
G02*
X168400000Y-102165000I0J-75000D01*
G01*
X168400000Y-103565000D01*
G75*
G02*
X168325000Y-103640000I-75000J0D01*
G01*
X168175000Y-103640000D01*
G75*
G02*
X168100000Y-103565000I0J75000D01*
G01*
X168100000Y-102165000D01*
G75*
G02*
X168175000Y-102090000I75000J0D01*
G01*
G37*
G04 #@! TD.AperFunction*
G04 #@! TA.AperFunction,SMDPad,CuDef*
G36*
G01*
X167675000Y-102090000D02*
X167825000Y-102090000D01*
G75*
G02*
X167900000Y-102165000I0J-75000D01*
G01*
X167900000Y-103565000D01*
G75*
G02*
X167825000Y-103640000I-75000J0D01*
G01*
X167675000Y-103640000D01*
G75*
G02*
X167600000Y-103565000I0J75000D01*
G01*
X167600000Y-102165000D01*
G75*
G02*
X167675000Y-102090000I75000J0D01*
G01*
G37*
G04 #@! TD.AperFunction*
G04 #@! TA.AperFunction,SMDPad,CuDef*
G36*
G01*
X167175000Y-102090000D02*
X167325000Y-102090000D01*
G75*
G02*
X167400000Y-102165000I0J-75000D01*
G01*
X167400000Y-103565000D01*
G75*
G02*
X167325000Y-103640000I-75000J0D01*
G01*
X167175000Y-103640000D01*
G75*
G02*
X167100000Y-103565000I0J75000D01*
G01*
X167100000Y-102165000D01*
G75*
G02*
X167175000Y-102090000I75000J0D01*
G01*
G37*
G04 #@! TD.AperFunction*
G04 #@! TA.AperFunction,SMDPad,CuDef*
G36*
G01*
X166675000Y-102090000D02*
X166825000Y-102090000D01*
G75*
G02*
X166900000Y-102165000I0J-75000D01*
G01*
X166900000Y-103565000D01*
G75*
G02*
X166825000Y-103640000I-75000J0D01*
G01*
X166675000Y-103640000D01*
G75*
G02*
X166600000Y-103565000I0J75000D01*
G01*
X166600000Y-102165000D01*
G75*
G02*
X166675000Y-102090000I75000J0D01*
G01*
G37*
G04 #@! TD.AperFunction*
G04 #@! TA.AperFunction,SMDPad,CuDef*
G36*
G01*
X166175000Y-102090000D02*
X166325000Y-102090000D01*
G75*
G02*
X166400000Y-102165000I0J-75000D01*
G01*
X166400000Y-103565000D01*
G75*
G02*
X166325000Y-103640000I-75000J0D01*
G01*
X166175000Y-103640000D01*
G75*
G02*
X166100000Y-103565000I0J75000D01*
G01*
X166100000Y-102165000D01*
G75*
G02*
X166175000Y-102090000I75000J0D01*
G01*
G37*
G04 #@! TD.AperFunction*
G04 #@! TA.AperFunction,SMDPad,CuDef*
G36*
G01*
X163625000Y-104640000D02*
X165025000Y-104640000D01*
G75*
G02*
X165100000Y-104715000I0J-75000D01*
G01*
X165100000Y-104865000D01*
G75*
G02*
X165025000Y-104940000I-75000J0D01*
G01*
X163625000Y-104940000D01*
G75*
G02*
X163550000Y-104865000I0J75000D01*
G01*
X163550000Y-104715000D01*
G75*
G02*
X163625000Y-104640000I75000J0D01*
G01*
G37*
G04 #@! TD.AperFunction*
G04 #@! TA.AperFunction,SMDPad,CuDef*
G36*
G01*
X163625000Y-105140000D02*
X165025000Y-105140000D01*
G75*
G02*
X165100000Y-105215000I0J-75000D01*
G01*
X165100000Y-105365000D01*
G75*
G02*
X165025000Y-105440000I-75000J0D01*
G01*
X163625000Y-105440000D01*
G75*
G02*
X163550000Y-105365000I0J75000D01*
G01*
X163550000Y-105215000D01*
G75*
G02*
X163625000Y-105140000I75000J0D01*
G01*
G37*
G04 #@! TD.AperFunction*
G04 #@! TA.AperFunction,SMDPad,CuDef*
G36*
G01*
X163625000Y-105640000D02*
X165025000Y-105640000D01*
G75*
G02*
X165100000Y-105715000I0J-75000D01*
G01*
X165100000Y-105865000D01*
G75*
G02*
X165025000Y-105940000I-75000J0D01*
G01*
X163625000Y-105940000D01*
G75*
G02*
X163550000Y-105865000I0J75000D01*
G01*
X163550000Y-105715000D01*
G75*
G02*
X163625000Y-105640000I75000J0D01*
G01*
G37*
G04 #@! TD.AperFunction*
G04 #@! TA.AperFunction,SMDPad,CuDef*
G36*
G01*
X163625000Y-106140000D02*
X165025000Y-106140000D01*
G75*
G02*
X165100000Y-106215000I0J-75000D01*
G01*
X165100000Y-106365000D01*
G75*
G02*
X165025000Y-106440000I-75000J0D01*
G01*
X163625000Y-106440000D01*
G75*
G02*
X163550000Y-106365000I0J75000D01*
G01*
X163550000Y-106215000D01*
G75*
G02*
X163625000Y-106140000I75000J0D01*
G01*
G37*
G04 #@! TD.AperFunction*
G04 #@! TA.AperFunction,SMDPad,CuDef*
G36*
G01*
X163625000Y-106640000D02*
X165025000Y-106640000D01*
G75*
G02*
X165100000Y-106715000I0J-75000D01*
G01*
X165100000Y-106865000D01*
G75*
G02*
X165025000Y-106940000I-75000J0D01*
G01*
X163625000Y-106940000D01*
G75*
G02*
X163550000Y-106865000I0J75000D01*
G01*
X163550000Y-106715000D01*
G75*
G02*
X163625000Y-106640000I75000J0D01*
G01*
G37*
G04 #@! TD.AperFunction*
G04 #@! TA.AperFunction,SMDPad,CuDef*
G36*
G01*
X163625000Y-107140000D02*
X165025000Y-107140000D01*
G75*
G02*
X165100000Y-107215000I0J-75000D01*
G01*
X165100000Y-107365000D01*
G75*
G02*
X165025000Y-107440000I-75000J0D01*
G01*
X163625000Y-107440000D01*
G75*
G02*
X163550000Y-107365000I0J75000D01*
G01*
X163550000Y-107215000D01*
G75*
G02*
X163625000Y-107140000I75000J0D01*
G01*
G37*
G04 #@! TD.AperFunction*
G04 #@! TA.AperFunction,SMDPad,CuDef*
G36*
G01*
X163625000Y-107640000D02*
X165025000Y-107640000D01*
G75*
G02*
X165100000Y-107715000I0J-75000D01*
G01*
X165100000Y-107865000D01*
G75*
G02*
X165025000Y-107940000I-75000J0D01*
G01*
X163625000Y-107940000D01*
G75*
G02*
X163550000Y-107865000I0J75000D01*
G01*
X163550000Y-107715000D01*
G75*
G02*
X163625000Y-107640000I75000J0D01*
G01*
G37*
G04 #@! TD.AperFunction*
G04 #@! TA.AperFunction,SMDPad,CuDef*
G36*
G01*
X163625000Y-108140000D02*
X165025000Y-108140000D01*
G75*
G02*
X165100000Y-108215000I0J-75000D01*
G01*
X165100000Y-108365000D01*
G75*
G02*
X165025000Y-108440000I-75000J0D01*
G01*
X163625000Y-108440000D01*
G75*
G02*
X163550000Y-108365000I0J75000D01*
G01*
X163550000Y-108215000D01*
G75*
G02*
X163625000Y-108140000I75000J0D01*
G01*
G37*
G04 #@! TD.AperFunction*
G04 #@! TA.AperFunction,SMDPad,CuDef*
G36*
G01*
X163625000Y-108640000D02*
X165025000Y-108640000D01*
G75*
G02*
X165100000Y-108715000I0J-75000D01*
G01*
X165100000Y-108865000D01*
G75*
G02*
X165025000Y-108940000I-75000J0D01*
G01*
X163625000Y-108940000D01*
G75*
G02*
X163550000Y-108865000I0J75000D01*
G01*
X163550000Y-108715000D01*
G75*
G02*
X163625000Y-108640000I75000J0D01*
G01*
G37*
G04 #@! TD.AperFunction*
G04 #@! TA.AperFunction,SMDPad,CuDef*
G36*
G01*
X163625000Y-109140000D02*
X165025000Y-109140000D01*
G75*
G02*
X165100000Y-109215000I0J-75000D01*
G01*
X165100000Y-109365000D01*
G75*
G02*
X165025000Y-109440000I-75000J0D01*
G01*
X163625000Y-109440000D01*
G75*
G02*
X163550000Y-109365000I0J75000D01*
G01*
X163550000Y-109215000D01*
G75*
G02*
X163625000Y-109140000I75000J0D01*
G01*
G37*
G04 #@! TD.AperFunction*
G04 #@! TA.AperFunction,SMDPad,CuDef*
G36*
G01*
X163625000Y-109640000D02*
X165025000Y-109640000D01*
G75*
G02*
X165100000Y-109715000I0J-75000D01*
G01*
X165100000Y-109865000D01*
G75*
G02*
X165025000Y-109940000I-75000J0D01*
G01*
X163625000Y-109940000D01*
G75*
G02*
X163550000Y-109865000I0J75000D01*
G01*
X163550000Y-109715000D01*
G75*
G02*
X163625000Y-109640000I75000J0D01*
G01*
G37*
G04 #@! TD.AperFunction*
G04 #@! TA.AperFunction,SMDPad,CuDef*
G36*
G01*
X163625000Y-110140000D02*
X165025000Y-110140000D01*
G75*
G02*
X165100000Y-110215000I0J-75000D01*
G01*
X165100000Y-110365000D01*
G75*
G02*
X165025000Y-110440000I-75000J0D01*
G01*
X163625000Y-110440000D01*
G75*
G02*
X163550000Y-110365000I0J75000D01*
G01*
X163550000Y-110215000D01*
G75*
G02*
X163625000Y-110140000I75000J0D01*
G01*
G37*
G04 #@! TD.AperFunction*
G04 #@! TA.AperFunction,SMDPad,CuDef*
G36*
G01*
X163625000Y-110640000D02*
X165025000Y-110640000D01*
G75*
G02*
X165100000Y-110715000I0J-75000D01*
G01*
X165100000Y-110865000D01*
G75*
G02*
X165025000Y-110940000I-75000J0D01*
G01*
X163625000Y-110940000D01*
G75*
G02*
X163550000Y-110865000I0J75000D01*
G01*
X163550000Y-110715000D01*
G75*
G02*
X163625000Y-110640000I75000J0D01*
G01*
G37*
G04 #@! TD.AperFunction*
G04 #@! TA.AperFunction,SMDPad,CuDef*
G36*
G01*
X163625000Y-111140000D02*
X165025000Y-111140000D01*
G75*
G02*
X165100000Y-111215000I0J-75000D01*
G01*
X165100000Y-111365000D01*
G75*
G02*
X165025000Y-111440000I-75000J0D01*
G01*
X163625000Y-111440000D01*
G75*
G02*
X163550000Y-111365000I0J75000D01*
G01*
X163550000Y-111215000D01*
G75*
G02*
X163625000Y-111140000I75000J0D01*
G01*
G37*
G04 #@! TD.AperFunction*
G04 #@! TA.AperFunction,SMDPad,CuDef*
G36*
G01*
X163625000Y-111640000D02*
X165025000Y-111640000D01*
G75*
G02*
X165100000Y-111715000I0J-75000D01*
G01*
X165100000Y-111865000D01*
G75*
G02*
X165025000Y-111940000I-75000J0D01*
G01*
X163625000Y-111940000D01*
G75*
G02*
X163550000Y-111865000I0J75000D01*
G01*
X163550000Y-111715000D01*
G75*
G02*
X163625000Y-111640000I75000J0D01*
G01*
G37*
G04 #@! TD.AperFunction*
G04 #@! TA.AperFunction,SMDPad,CuDef*
G36*
G01*
X163625000Y-112140000D02*
X165025000Y-112140000D01*
G75*
G02*
X165100000Y-112215000I0J-75000D01*
G01*
X165100000Y-112365000D01*
G75*
G02*
X165025000Y-112440000I-75000J0D01*
G01*
X163625000Y-112440000D01*
G75*
G02*
X163550000Y-112365000I0J75000D01*
G01*
X163550000Y-112215000D01*
G75*
G02*
X163625000Y-112140000I75000J0D01*
G01*
G37*
G04 #@! TD.AperFunction*
G04 #@! TA.AperFunction,SMDPad,CuDef*
G36*
G01*
X166175000Y-113440000D02*
X166325000Y-113440000D01*
G75*
G02*
X166400000Y-113515000I0J-75000D01*
G01*
X166400000Y-114915000D01*
G75*
G02*
X166325000Y-114990000I-75000J0D01*
G01*
X166175000Y-114990000D01*
G75*
G02*
X166100000Y-114915000I0J75000D01*
G01*
X166100000Y-113515000D01*
G75*
G02*
X166175000Y-113440000I75000J0D01*
G01*
G37*
G04 #@! TD.AperFunction*
G04 #@! TA.AperFunction,SMDPad,CuDef*
G36*
G01*
X166675000Y-113440000D02*
X166825000Y-113440000D01*
G75*
G02*
X166900000Y-113515000I0J-75000D01*
G01*
X166900000Y-114915000D01*
G75*
G02*
X166825000Y-114990000I-75000J0D01*
G01*
X166675000Y-114990000D01*
G75*
G02*
X166600000Y-114915000I0J75000D01*
G01*
X166600000Y-113515000D01*
G75*
G02*
X166675000Y-113440000I75000J0D01*
G01*
G37*
G04 #@! TD.AperFunction*
G04 #@! TA.AperFunction,SMDPad,CuDef*
G36*
G01*
X167175000Y-113440000D02*
X167325000Y-113440000D01*
G75*
G02*
X167400000Y-113515000I0J-75000D01*
G01*
X167400000Y-114915000D01*
G75*
G02*
X167325000Y-114990000I-75000J0D01*
G01*
X167175000Y-114990000D01*
G75*
G02*
X167100000Y-114915000I0J75000D01*
G01*
X167100000Y-113515000D01*
G75*
G02*
X167175000Y-113440000I75000J0D01*
G01*
G37*
G04 #@! TD.AperFunction*
G04 #@! TA.AperFunction,SMDPad,CuDef*
G36*
G01*
X167675000Y-113440000D02*
X167825000Y-113440000D01*
G75*
G02*
X167900000Y-113515000I0J-75000D01*
G01*
X167900000Y-114915000D01*
G75*
G02*
X167825000Y-114990000I-75000J0D01*
G01*
X167675000Y-114990000D01*
G75*
G02*
X167600000Y-114915000I0J75000D01*
G01*
X167600000Y-113515000D01*
G75*
G02*
X167675000Y-113440000I75000J0D01*
G01*
G37*
G04 #@! TD.AperFunction*
G04 #@! TA.AperFunction,SMDPad,CuDef*
G36*
G01*
X168175000Y-113440000D02*
X168325000Y-113440000D01*
G75*
G02*
X168400000Y-113515000I0J-75000D01*
G01*
X168400000Y-114915000D01*
G75*
G02*
X168325000Y-114990000I-75000J0D01*
G01*
X168175000Y-114990000D01*
G75*
G02*
X168100000Y-114915000I0J75000D01*
G01*
X168100000Y-113515000D01*
G75*
G02*
X168175000Y-113440000I75000J0D01*
G01*
G37*
G04 #@! TD.AperFunction*
G04 #@! TA.AperFunction,SMDPad,CuDef*
G36*
G01*
X168675000Y-113440000D02*
X168825000Y-113440000D01*
G75*
G02*
X168900000Y-113515000I0J-75000D01*
G01*
X168900000Y-114915000D01*
G75*
G02*
X168825000Y-114990000I-75000J0D01*
G01*
X168675000Y-114990000D01*
G75*
G02*
X168600000Y-114915000I0J75000D01*
G01*
X168600000Y-113515000D01*
G75*
G02*
X168675000Y-113440000I75000J0D01*
G01*
G37*
G04 #@! TD.AperFunction*
G04 #@! TA.AperFunction,SMDPad,CuDef*
G36*
G01*
X169175000Y-113440000D02*
X169325000Y-113440000D01*
G75*
G02*
X169400000Y-113515000I0J-75000D01*
G01*
X169400000Y-114915000D01*
G75*
G02*
X169325000Y-114990000I-75000J0D01*
G01*
X169175000Y-114990000D01*
G75*
G02*
X169100000Y-114915000I0J75000D01*
G01*
X169100000Y-113515000D01*
G75*
G02*
X169175000Y-113440000I75000J0D01*
G01*
G37*
G04 #@! TD.AperFunction*
G04 #@! TA.AperFunction,SMDPad,CuDef*
G36*
G01*
X169675000Y-113440000D02*
X169825000Y-113440000D01*
G75*
G02*
X169900000Y-113515000I0J-75000D01*
G01*
X169900000Y-114915000D01*
G75*
G02*
X169825000Y-114990000I-75000J0D01*
G01*
X169675000Y-114990000D01*
G75*
G02*
X169600000Y-114915000I0J75000D01*
G01*
X169600000Y-113515000D01*
G75*
G02*
X169675000Y-113440000I75000J0D01*
G01*
G37*
G04 #@! TD.AperFunction*
G04 #@! TA.AperFunction,SMDPad,CuDef*
G36*
G01*
X170175000Y-113440000D02*
X170325000Y-113440000D01*
G75*
G02*
X170400000Y-113515000I0J-75000D01*
G01*
X170400000Y-114915000D01*
G75*
G02*
X170325000Y-114990000I-75000J0D01*
G01*
X170175000Y-114990000D01*
G75*
G02*
X170100000Y-114915000I0J75000D01*
G01*
X170100000Y-113515000D01*
G75*
G02*
X170175000Y-113440000I75000J0D01*
G01*
G37*
G04 #@! TD.AperFunction*
G04 #@! TA.AperFunction,SMDPad,CuDef*
G36*
G01*
X170675000Y-113440000D02*
X170825000Y-113440000D01*
G75*
G02*
X170900000Y-113515000I0J-75000D01*
G01*
X170900000Y-114915000D01*
G75*
G02*
X170825000Y-114990000I-75000J0D01*
G01*
X170675000Y-114990000D01*
G75*
G02*
X170600000Y-114915000I0J75000D01*
G01*
X170600000Y-113515000D01*
G75*
G02*
X170675000Y-113440000I75000J0D01*
G01*
G37*
G04 #@! TD.AperFunction*
G04 #@! TA.AperFunction,SMDPad,CuDef*
G36*
G01*
X171175000Y-113440000D02*
X171325000Y-113440000D01*
G75*
G02*
X171400000Y-113515000I0J-75000D01*
G01*
X171400000Y-114915000D01*
G75*
G02*
X171325000Y-114990000I-75000J0D01*
G01*
X171175000Y-114990000D01*
G75*
G02*
X171100000Y-114915000I0J75000D01*
G01*
X171100000Y-113515000D01*
G75*
G02*
X171175000Y-113440000I75000J0D01*
G01*
G37*
G04 #@! TD.AperFunction*
G04 #@! TA.AperFunction,SMDPad,CuDef*
G36*
G01*
X171675000Y-113440000D02*
X171825000Y-113440000D01*
G75*
G02*
X171900000Y-113515000I0J-75000D01*
G01*
X171900000Y-114915000D01*
G75*
G02*
X171825000Y-114990000I-75000J0D01*
G01*
X171675000Y-114990000D01*
G75*
G02*
X171600000Y-114915000I0J75000D01*
G01*
X171600000Y-113515000D01*
G75*
G02*
X171675000Y-113440000I75000J0D01*
G01*
G37*
G04 #@! TD.AperFunction*
G04 #@! TA.AperFunction,SMDPad,CuDef*
G36*
G01*
X172175000Y-113440000D02*
X172325000Y-113440000D01*
G75*
G02*
X172400000Y-113515000I0J-75000D01*
G01*
X172400000Y-114915000D01*
G75*
G02*
X172325000Y-114990000I-75000J0D01*
G01*
X172175000Y-114990000D01*
G75*
G02*
X172100000Y-114915000I0J75000D01*
G01*
X172100000Y-113515000D01*
G75*
G02*
X172175000Y-113440000I75000J0D01*
G01*
G37*
G04 #@! TD.AperFunction*
G04 #@! TA.AperFunction,SMDPad,CuDef*
G36*
G01*
X172675000Y-113440000D02*
X172825000Y-113440000D01*
G75*
G02*
X172900000Y-113515000I0J-75000D01*
G01*
X172900000Y-114915000D01*
G75*
G02*
X172825000Y-114990000I-75000J0D01*
G01*
X172675000Y-114990000D01*
G75*
G02*
X172600000Y-114915000I0J75000D01*
G01*
X172600000Y-113515000D01*
G75*
G02*
X172675000Y-113440000I75000J0D01*
G01*
G37*
G04 #@! TD.AperFunction*
G04 #@! TA.AperFunction,SMDPad,CuDef*
G36*
G01*
X173175000Y-113440000D02*
X173325000Y-113440000D01*
G75*
G02*
X173400000Y-113515000I0J-75000D01*
G01*
X173400000Y-114915000D01*
G75*
G02*
X173325000Y-114990000I-75000J0D01*
G01*
X173175000Y-114990000D01*
G75*
G02*
X173100000Y-114915000I0J75000D01*
G01*
X173100000Y-113515000D01*
G75*
G02*
X173175000Y-113440000I75000J0D01*
G01*
G37*
G04 #@! TD.AperFunction*
G04 #@! TA.AperFunction,SMDPad,CuDef*
G36*
G01*
X173675000Y-113440000D02*
X173825000Y-113440000D01*
G75*
G02*
X173900000Y-113515000I0J-75000D01*
G01*
X173900000Y-114915000D01*
G75*
G02*
X173825000Y-114990000I-75000J0D01*
G01*
X173675000Y-114990000D01*
G75*
G02*
X173600000Y-114915000I0J75000D01*
G01*
X173600000Y-113515000D01*
G75*
G02*
X173675000Y-113440000I75000J0D01*
G01*
G37*
G04 #@! TD.AperFunction*
G04 #@! TA.AperFunction,SMDPad,CuDef*
G36*
G01*
X174975000Y-112140000D02*
X176375000Y-112140000D01*
G75*
G02*
X176450000Y-112215000I0J-75000D01*
G01*
X176450000Y-112365000D01*
G75*
G02*
X176375000Y-112440000I-75000J0D01*
G01*
X174975000Y-112440000D01*
G75*
G02*
X174900000Y-112365000I0J75000D01*
G01*
X174900000Y-112215000D01*
G75*
G02*
X174975000Y-112140000I75000J0D01*
G01*
G37*
G04 #@! TD.AperFunction*
G04 #@! TA.AperFunction,SMDPad,CuDef*
G36*
G01*
X174975000Y-111640000D02*
X176375000Y-111640000D01*
G75*
G02*
X176450000Y-111715000I0J-75000D01*
G01*
X176450000Y-111865000D01*
G75*
G02*
X176375000Y-111940000I-75000J0D01*
G01*
X174975000Y-111940000D01*
G75*
G02*
X174900000Y-111865000I0J75000D01*
G01*
X174900000Y-111715000D01*
G75*
G02*
X174975000Y-111640000I75000J0D01*
G01*
G37*
G04 #@! TD.AperFunction*
G04 #@! TA.AperFunction,SMDPad,CuDef*
G36*
G01*
X174975000Y-111140000D02*
X176375000Y-111140000D01*
G75*
G02*
X176450000Y-111215000I0J-75000D01*
G01*
X176450000Y-111365000D01*
G75*
G02*
X176375000Y-111440000I-75000J0D01*
G01*
X174975000Y-111440000D01*
G75*
G02*
X174900000Y-111365000I0J75000D01*
G01*
X174900000Y-111215000D01*
G75*
G02*
X174975000Y-111140000I75000J0D01*
G01*
G37*
G04 #@! TD.AperFunction*
G04 #@! TA.AperFunction,SMDPad,CuDef*
G36*
G01*
X174975000Y-110640000D02*
X176375000Y-110640000D01*
G75*
G02*
X176450000Y-110715000I0J-75000D01*
G01*
X176450000Y-110865000D01*
G75*
G02*
X176375000Y-110940000I-75000J0D01*
G01*
X174975000Y-110940000D01*
G75*
G02*
X174900000Y-110865000I0J75000D01*
G01*
X174900000Y-110715000D01*
G75*
G02*
X174975000Y-110640000I75000J0D01*
G01*
G37*
G04 #@! TD.AperFunction*
G04 #@! TA.AperFunction,SMDPad,CuDef*
G36*
G01*
X174975000Y-110140000D02*
X176375000Y-110140000D01*
G75*
G02*
X176450000Y-110215000I0J-75000D01*
G01*
X176450000Y-110365000D01*
G75*
G02*
X176375000Y-110440000I-75000J0D01*
G01*
X174975000Y-110440000D01*
G75*
G02*
X174900000Y-110365000I0J75000D01*
G01*
X174900000Y-110215000D01*
G75*
G02*
X174975000Y-110140000I75000J0D01*
G01*
G37*
G04 #@! TD.AperFunction*
G04 #@! TA.AperFunction,SMDPad,CuDef*
G36*
G01*
X174975000Y-109640000D02*
X176375000Y-109640000D01*
G75*
G02*
X176450000Y-109715000I0J-75000D01*
G01*
X176450000Y-109865000D01*
G75*
G02*
X176375000Y-109940000I-75000J0D01*
G01*
X174975000Y-109940000D01*
G75*
G02*
X174900000Y-109865000I0J75000D01*
G01*
X174900000Y-109715000D01*
G75*
G02*
X174975000Y-109640000I75000J0D01*
G01*
G37*
G04 #@! TD.AperFunction*
G04 #@! TA.AperFunction,SMDPad,CuDef*
G36*
G01*
X174975000Y-109140000D02*
X176375000Y-109140000D01*
G75*
G02*
X176450000Y-109215000I0J-75000D01*
G01*
X176450000Y-109365000D01*
G75*
G02*
X176375000Y-109440000I-75000J0D01*
G01*
X174975000Y-109440000D01*
G75*
G02*
X174900000Y-109365000I0J75000D01*
G01*
X174900000Y-109215000D01*
G75*
G02*
X174975000Y-109140000I75000J0D01*
G01*
G37*
G04 #@! TD.AperFunction*
G04 #@! TA.AperFunction,SMDPad,CuDef*
G36*
G01*
X174975000Y-108640000D02*
X176375000Y-108640000D01*
G75*
G02*
X176450000Y-108715000I0J-75000D01*
G01*
X176450000Y-108865000D01*
G75*
G02*
X176375000Y-108940000I-75000J0D01*
G01*
X174975000Y-108940000D01*
G75*
G02*
X174900000Y-108865000I0J75000D01*
G01*
X174900000Y-108715000D01*
G75*
G02*
X174975000Y-108640000I75000J0D01*
G01*
G37*
G04 #@! TD.AperFunction*
G04 #@! TA.AperFunction,SMDPad,CuDef*
G36*
G01*
X174975000Y-108140000D02*
X176375000Y-108140000D01*
G75*
G02*
X176450000Y-108215000I0J-75000D01*
G01*
X176450000Y-108365000D01*
G75*
G02*
X176375000Y-108440000I-75000J0D01*
G01*
X174975000Y-108440000D01*
G75*
G02*
X174900000Y-108365000I0J75000D01*
G01*
X174900000Y-108215000D01*
G75*
G02*
X174975000Y-108140000I75000J0D01*
G01*
G37*
G04 #@! TD.AperFunction*
G04 #@! TA.AperFunction,SMDPad,CuDef*
G36*
G01*
X174975000Y-107640000D02*
X176375000Y-107640000D01*
G75*
G02*
X176450000Y-107715000I0J-75000D01*
G01*
X176450000Y-107865000D01*
G75*
G02*
X176375000Y-107940000I-75000J0D01*
G01*
X174975000Y-107940000D01*
G75*
G02*
X174900000Y-107865000I0J75000D01*
G01*
X174900000Y-107715000D01*
G75*
G02*
X174975000Y-107640000I75000J0D01*
G01*
G37*
G04 #@! TD.AperFunction*
G04 #@! TA.AperFunction,SMDPad,CuDef*
G36*
G01*
X174975000Y-107140000D02*
X176375000Y-107140000D01*
G75*
G02*
X176450000Y-107215000I0J-75000D01*
G01*
X176450000Y-107365000D01*
G75*
G02*
X176375000Y-107440000I-75000J0D01*
G01*
X174975000Y-107440000D01*
G75*
G02*
X174900000Y-107365000I0J75000D01*
G01*
X174900000Y-107215000D01*
G75*
G02*
X174975000Y-107140000I75000J0D01*
G01*
G37*
G04 #@! TD.AperFunction*
G04 #@! TA.AperFunction,SMDPad,CuDef*
G36*
G01*
X174975000Y-106640000D02*
X176375000Y-106640000D01*
G75*
G02*
X176450000Y-106715000I0J-75000D01*
G01*
X176450000Y-106865000D01*
G75*
G02*
X176375000Y-106940000I-75000J0D01*
G01*
X174975000Y-106940000D01*
G75*
G02*
X174900000Y-106865000I0J75000D01*
G01*
X174900000Y-106715000D01*
G75*
G02*
X174975000Y-106640000I75000J0D01*
G01*
G37*
G04 #@! TD.AperFunction*
G04 #@! TA.AperFunction,SMDPad,CuDef*
G36*
G01*
X174975000Y-106140000D02*
X176375000Y-106140000D01*
G75*
G02*
X176450000Y-106215000I0J-75000D01*
G01*
X176450000Y-106365000D01*
G75*
G02*
X176375000Y-106440000I-75000J0D01*
G01*
X174975000Y-106440000D01*
G75*
G02*
X174900000Y-106365000I0J75000D01*
G01*
X174900000Y-106215000D01*
G75*
G02*
X174975000Y-106140000I75000J0D01*
G01*
G37*
G04 #@! TD.AperFunction*
G04 #@! TA.AperFunction,SMDPad,CuDef*
G36*
G01*
X174975000Y-105640000D02*
X176375000Y-105640000D01*
G75*
G02*
X176450000Y-105715000I0J-75000D01*
G01*
X176450000Y-105865000D01*
G75*
G02*
X176375000Y-105940000I-75000J0D01*
G01*
X174975000Y-105940000D01*
G75*
G02*
X174900000Y-105865000I0J75000D01*
G01*
X174900000Y-105715000D01*
G75*
G02*
X174975000Y-105640000I75000J0D01*
G01*
G37*
G04 #@! TD.AperFunction*
G04 #@! TA.AperFunction,SMDPad,CuDef*
G36*
G01*
X174975000Y-105140000D02*
X176375000Y-105140000D01*
G75*
G02*
X176450000Y-105215000I0J-75000D01*
G01*
X176450000Y-105365000D01*
G75*
G02*
X176375000Y-105440000I-75000J0D01*
G01*
X174975000Y-105440000D01*
G75*
G02*
X174900000Y-105365000I0J75000D01*
G01*
X174900000Y-105215000D01*
G75*
G02*
X174975000Y-105140000I75000J0D01*
G01*
G37*
G04 #@! TD.AperFunction*
G04 #@! TA.AperFunction,SMDPad,CuDef*
G36*
G01*
X174975000Y-104640000D02*
X176375000Y-104640000D01*
G75*
G02*
X176450000Y-104715000I0J-75000D01*
G01*
X176450000Y-104865000D01*
G75*
G02*
X176375000Y-104940000I-75000J0D01*
G01*
X174975000Y-104940000D01*
G75*
G02*
X174900000Y-104865000I0J75000D01*
G01*
X174900000Y-104715000D01*
G75*
G02*
X174975000Y-104640000I75000J0D01*
G01*
G37*
G04 #@! TD.AperFunction*
G04 #@! TA.AperFunction,SMDPad,CuDef*
G36*
G01*
X150008000Y-110594000D02*
X150008000Y-110894000D01*
G75*
G02*
X149858000Y-111044000I-150000J0D01*
G01*
X148208000Y-111044000D01*
G75*
G02*
X148058000Y-110894000I0J150000D01*
G01*
X148058000Y-110594000D01*
G75*
G02*
X148208000Y-110444000I150000J0D01*
G01*
X149858000Y-110444000D01*
G75*
G02*
X150008000Y-110594000I0J-150000D01*
G01*
G37*
G04 #@! TD.AperFunction*
G04 #@! TA.AperFunction,SMDPad,CuDef*
G36*
G01*
X150008000Y-109324000D02*
X150008000Y-109624000D01*
G75*
G02*
X149858000Y-109774000I-150000J0D01*
G01*
X148208000Y-109774000D01*
G75*
G02*
X148058000Y-109624000I0J150000D01*
G01*
X148058000Y-109324000D01*
G75*
G02*
X148208000Y-109174000I150000J0D01*
G01*
X149858000Y-109174000D01*
G75*
G02*
X150008000Y-109324000I0J-150000D01*
G01*
G37*
G04 #@! TD.AperFunction*
G04 #@! TA.AperFunction,SMDPad,CuDef*
G36*
G01*
X150008000Y-108054000D02*
X150008000Y-108354000D01*
G75*
G02*
X149858000Y-108504000I-150000J0D01*
G01*
X148208000Y-108504000D01*
G75*
G02*
X148058000Y-108354000I0J150000D01*
G01*
X148058000Y-108054000D01*
G75*
G02*
X148208000Y-107904000I150000J0D01*
G01*
X149858000Y-107904000D01*
G75*
G02*
X150008000Y-108054000I0J-150000D01*
G01*
G37*
G04 #@! TD.AperFunction*
G04 #@! TA.AperFunction,SMDPad,CuDef*
G36*
G01*
X150008000Y-106784000D02*
X150008000Y-107084000D01*
G75*
G02*
X149858000Y-107234000I-150000J0D01*
G01*
X148208000Y-107234000D01*
G75*
G02*
X148058000Y-107084000I0J150000D01*
G01*
X148058000Y-106784000D01*
G75*
G02*
X148208000Y-106634000I150000J0D01*
G01*
X149858000Y-106634000D01*
G75*
G02*
X150008000Y-106784000I0J-150000D01*
G01*
G37*
G04 #@! TD.AperFunction*
G04 #@! TA.AperFunction,SMDPad,CuDef*
G36*
G01*
X150008000Y-105514000D02*
X150008000Y-105814000D01*
G75*
G02*
X149858000Y-105964000I-150000J0D01*
G01*
X148208000Y-105964000D01*
G75*
G02*
X148058000Y-105814000I0J150000D01*
G01*
X148058000Y-105514000D01*
G75*
G02*
X148208000Y-105364000I150000J0D01*
G01*
X149858000Y-105364000D01*
G75*
G02*
X150008000Y-105514000I0J-150000D01*
G01*
G37*
G04 #@! TD.AperFunction*
G04 #@! TA.AperFunction,SMDPad,CuDef*
G36*
G01*
X150008000Y-104244000D02*
X150008000Y-104544000D01*
G75*
G02*
X149858000Y-104694000I-150000J0D01*
G01*
X148208000Y-104694000D01*
G75*
G02*
X148058000Y-104544000I0J150000D01*
G01*
X148058000Y-104244000D01*
G75*
G02*
X148208000Y-104094000I150000J0D01*
G01*
X149858000Y-104094000D01*
G75*
G02*
X150008000Y-104244000I0J-150000D01*
G01*
G37*
G04 #@! TD.AperFunction*
G04 #@! TA.AperFunction,SMDPad,CuDef*
G36*
G01*
X150008000Y-102974000D02*
X150008000Y-103274000D01*
G75*
G02*
X149858000Y-103424000I-150000J0D01*
G01*
X148208000Y-103424000D01*
G75*
G02*
X148058000Y-103274000I0J150000D01*
G01*
X148058000Y-102974000D01*
G75*
G02*
X148208000Y-102824000I150000J0D01*
G01*
X149858000Y-102824000D01*
G75*
G02*
X150008000Y-102974000I0J-150000D01*
G01*
G37*
G04 #@! TD.AperFunction*
G04 #@! TA.AperFunction,SMDPad,CuDef*
G36*
G01*
X145058000Y-102974000D02*
X145058000Y-103274000D01*
G75*
G02*
X144908000Y-103424000I-150000J0D01*
G01*
X143258000Y-103424000D01*
G75*
G02*
X143108000Y-103274000I0J150000D01*
G01*
X143108000Y-102974000D01*
G75*
G02*
X143258000Y-102824000I150000J0D01*
G01*
X144908000Y-102824000D01*
G75*
G02*
X145058000Y-102974000I0J-150000D01*
G01*
G37*
G04 #@! TD.AperFunction*
G04 #@! TA.AperFunction,SMDPad,CuDef*
G36*
G01*
X145058000Y-104244000D02*
X145058000Y-104544000D01*
G75*
G02*
X144908000Y-104694000I-150000J0D01*
G01*
X143258000Y-104694000D01*
G75*
G02*
X143108000Y-104544000I0J150000D01*
G01*
X143108000Y-104244000D01*
G75*
G02*
X143258000Y-104094000I150000J0D01*
G01*
X144908000Y-104094000D01*
G75*
G02*
X145058000Y-104244000I0J-150000D01*
G01*
G37*
G04 #@! TD.AperFunction*
G04 #@! TA.AperFunction,SMDPad,CuDef*
G36*
G01*
X145058000Y-105514000D02*
X145058000Y-105814000D01*
G75*
G02*
X144908000Y-105964000I-150000J0D01*
G01*
X143258000Y-105964000D01*
G75*
G02*
X143108000Y-105814000I0J150000D01*
G01*
X143108000Y-105514000D01*
G75*
G02*
X143258000Y-105364000I150000J0D01*
G01*
X144908000Y-105364000D01*
G75*
G02*
X145058000Y-105514000I0J-150000D01*
G01*
G37*
G04 #@! TD.AperFunction*
G04 #@! TA.AperFunction,SMDPad,CuDef*
G36*
G01*
X145058000Y-106784000D02*
X145058000Y-107084000D01*
G75*
G02*
X144908000Y-107234000I-150000J0D01*
G01*
X143258000Y-107234000D01*
G75*
G02*
X143108000Y-107084000I0J150000D01*
G01*
X143108000Y-106784000D01*
G75*
G02*
X143258000Y-106634000I150000J0D01*
G01*
X144908000Y-106634000D01*
G75*
G02*
X145058000Y-106784000I0J-150000D01*
G01*
G37*
G04 #@! TD.AperFunction*
G04 #@! TA.AperFunction,SMDPad,CuDef*
G36*
G01*
X145058000Y-108054000D02*
X145058000Y-108354000D01*
G75*
G02*
X144908000Y-108504000I-150000J0D01*
G01*
X143258000Y-108504000D01*
G75*
G02*
X143108000Y-108354000I0J150000D01*
G01*
X143108000Y-108054000D01*
G75*
G02*
X143258000Y-107904000I150000J0D01*
G01*
X144908000Y-107904000D01*
G75*
G02*
X145058000Y-108054000I0J-150000D01*
G01*
G37*
G04 #@! TD.AperFunction*
G04 #@! TA.AperFunction,SMDPad,CuDef*
G36*
G01*
X145058000Y-109324000D02*
X145058000Y-109624000D01*
G75*
G02*
X144908000Y-109774000I-150000J0D01*
G01*
X143258000Y-109774000D01*
G75*
G02*
X143108000Y-109624000I0J150000D01*
G01*
X143108000Y-109324000D01*
G75*
G02*
X143258000Y-109174000I150000J0D01*
G01*
X144908000Y-109174000D01*
G75*
G02*
X145058000Y-109324000I0J-150000D01*
G01*
G37*
G04 #@! TD.AperFunction*
G04 #@! TA.AperFunction,SMDPad,CuDef*
G36*
G01*
X145058000Y-110594000D02*
X145058000Y-110894000D01*
G75*
G02*
X144908000Y-111044000I-150000J0D01*
G01*
X143258000Y-111044000D01*
G75*
G02*
X143108000Y-110894000I0J150000D01*
G01*
X143108000Y-110594000D01*
G75*
G02*
X143258000Y-110444000I150000J0D01*
G01*
X144908000Y-110444000D01*
G75*
G02*
X145058000Y-110594000I0J-150000D01*
G01*
G37*
G04 #@! TD.AperFunction*
G04 #@! TA.AperFunction,SMDPad,CuDef*
G36*
G01*
X145058000Y-97386000D02*
X145058000Y-97686000D01*
G75*
G02*
X144908000Y-97836000I-150000J0D01*
G01*
X143258000Y-97836000D01*
G75*
G02*
X143108000Y-97686000I0J150000D01*
G01*
X143108000Y-97386000D01*
G75*
G02*
X143258000Y-97236000I150000J0D01*
G01*
X144908000Y-97236000D01*
G75*
G02*
X145058000Y-97386000I0J-150000D01*
G01*
G37*
G04 #@! TD.AperFunction*
G04 #@! TA.AperFunction,SMDPad,CuDef*
G36*
G01*
X145058000Y-96116000D02*
X145058000Y-96416000D01*
G75*
G02*
X144908000Y-96566000I-150000J0D01*
G01*
X143258000Y-96566000D01*
G75*
G02*
X143108000Y-96416000I0J150000D01*
G01*
X143108000Y-96116000D01*
G75*
G02*
X143258000Y-95966000I150000J0D01*
G01*
X144908000Y-95966000D01*
G75*
G02*
X145058000Y-96116000I0J-150000D01*
G01*
G37*
G04 #@! TD.AperFunction*
G04 #@! TA.AperFunction,SMDPad,CuDef*
G36*
G01*
X145058000Y-94846000D02*
X145058000Y-95146000D01*
G75*
G02*
X144908000Y-95296000I-150000J0D01*
G01*
X143258000Y-95296000D01*
G75*
G02*
X143108000Y-95146000I0J150000D01*
G01*
X143108000Y-94846000D01*
G75*
G02*
X143258000Y-94696000I150000J0D01*
G01*
X144908000Y-94696000D01*
G75*
G02*
X145058000Y-94846000I0J-150000D01*
G01*
G37*
G04 #@! TD.AperFunction*
G04 #@! TA.AperFunction,SMDPad,CuDef*
G36*
G01*
X145058000Y-93576000D02*
X145058000Y-93876000D01*
G75*
G02*
X144908000Y-94026000I-150000J0D01*
G01*
X143258000Y-94026000D01*
G75*
G02*
X143108000Y-93876000I0J150000D01*
G01*
X143108000Y-93576000D01*
G75*
G02*
X143258000Y-93426000I150000J0D01*
G01*
X144908000Y-93426000D01*
G75*
G02*
X145058000Y-93576000I0J-150000D01*
G01*
G37*
G04 #@! TD.AperFunction*
G04 #@! TA.AperFunction,SMDPad,CuDef*
G36*
G01*
X145058000Y-92306000D02*
X145058000Y-92606000D01*
G75*
G02*
X144908000Y-92756000I-150000J0D01*
G01*
X143258000Y-92756000D01*
G75*
G02*
X143108000Y-92606000I0J150000D01*
G01*
X143108000Y-92306000D01*
G75*
G02*
X143258000Y-92156000I150000J0D01*
G01*
X144908000Y-92156000D01*
G75*
G02*
X145058000Y-92306000I0J-150000D01*
G01*
G37*
G04 #@! TD.AperFunction*
G04 #@! TA.AperFunction,SMDPad,CuDef*
G36*
G01*
X145058000Y-91036000D02*
X145058000Y-91336000D01*
G75*
G02*
X144908000Y-91486000I-150000J0D01*
G01*
X143258000Y-91486000D01*
G75*
G02*
X143108000Y-91336000I0J150000D01*
G01*
X143108000Y-91036000D01*
G75*
G02*
X143258000Y-90886000I150000J0D01*
G01*
X144908000Y-90886000D01*
G75*
G02*
X145058000Y-91036000I0J-150000D01*
G01*
G37*
G04 #@! TD.AperFunction*
G04 #@! TA.AperFunction,SMDPad,CuDef*
G36*
G01*
X145058000Y-89766000D02*
X145058000Y-90066000D01*
G75*
G02*
X144908000Y-90216000I-150000J0D01*
G01*
X143258000Y-90216000D01*
G75*
G02*
X143108000Y-90066000I0J150000D01*
G01*
X143108000Y-89766000D01*
G75*
G02*
X143258000Y-89616000I150000J0D01*
G01*
X144908000Y-89616000D01*
G75*
G02*
X145058000Y-89766000I0J-150000D01*
G01*
G37*
G04 #@! TD.AperFunction*
G04 #@! TA.AperFunction,SMDPad,CuDef*
G36*
G01*
X150008000Y-89766000D02*
X150008000Y-90066000D01*
G75*
G02*
X149858000Y-90216000I-150000J0D01*
G01*
X148208000Y-90216000D01*
G75*
G02*
X148058000Y-90066000I0J150000D01*
G01*
X148058000Y-89766000D01*
G75*
G02*
X148208000Y-89616000I150000J0D01*
G01*
X149858000Y-89616000D01*
G75*
G02*
X150008000Y-89766000I0J-150000D01*
G01*
G37*
G04 #@! TD.AperFunction*
G04 #@! TA.AperFunction,SMDPad,CuDef*
G36*
G01*
X150008000Y-91036000D02*
X150008000Y-91336000D01*
G75*
G02*
X149858000Y-91486000I-150000J0D01*
G01*
X148208000Y-91486000D01*
G75*
G02*
X148058000Y-91336000I0J150000D01*
G01*
X148058000Y-91036000D01*
G75*
G02*
X148208000Y-90886000I150000J0D01*
G01*
X149858000Y-90886000D01*
G75*
G02*
X150008000Y-91036000I0J-150000D01*
G01*
G37*
G04 #@! TD.AperFunction*
G04 #@! TA.AperFunction,SMDPad,CuDef*
G36*
G01*
X150008000Y-92306000D02*
X150008000Y-92606000D01*
G75*
G02*
X149858000Y-92756000I-150000J0D01*
G01*
X148208000Y-92756000D01*
G75*
G02*
X148058000Y-92606000I0J150000D01*
G01*
X148058000Y-92306000D01*
G75*
G02*
X148208000Y-92156000I150000J0D01*
G01*
X149858000Y-92156000D01*
G75*
G02*
X150008000Y-92306000I0J-150000D01*
G01*
G37*
G04 #@! TD.AperFunction*
G04 #@! TA.AperFunction,SMDPad,CuDef*
G36*
G01*
X150008000Y-93576000D02*
X150008000Y-93876000D01*
G75*
G02*
X149858000Y-94026000I-150000J0D01*
G01*
X148208000Y-94026000D01*
G75*
G02*
X148058000Y-93876000I0J150000D01*
G01*
X148058000Y-93576000D01*
G75*
G02*
X148208000Y-93426000I150000J0D01*
G01*
X149858000Y-93426000D01*
G75*
G02*
X150008000Y-93576000I0J-150000D01*
G01*
G37*
G04 #@! TD.AperFunction*
G04 #@! TA.AperFunction,SMDPad,CuDef*
G36*
G01*
X150008000Y-94846000D02*
X150008000Y-95146000D01*
G75*
G02*
X149858000Y-95296000I-150000J0D01*
G01*
X148208000Y-95296000D01*
G75*
G02*
X148058000Y-95146000I0J150000D01*
G01*
X148058000Y-94846000D01*
G75*
G02*
X148208000Y-94696000I150000J0D01*
G01*
X149858000Y-94696000D01*
G75*
G02*
X150008000Y-94846000I0J-150000D01*
G01*
G37*
G04 #@! TD.AperFunction*
G04 #@! TA.AperFunction,SMDPad,CuDef*
G36*
G01*
X150008000Y-96116000D02*
X150008000Y-96416000D01*
G75*
G02*
X149858000Y-96566000I-150000J0D01*
G01*
X148208000Y-96566000D01*
G75*
G02*
X148058000Y-96416000I0J150000D01*
G01*
X148058000Y-96116000D01*
G75*
G02*
X148208000Y-95966000I150000J0D01*
G01*
X149858000Y-95966000D01*
G75*
G02*
X150008000Y-96116000I0J-150000D01*
G01*
G37*
G04 #@! TD.AperFunction*
G04 #@! TA.AperFunction,SMDPad,CuDef*
G36*
G01*
X150008000Y-97386000D02*
X150008000Y-97686000D01*
G75*
G02*
X149858000Y-97836000I-150000J0D01*
G01*
X148208000Y-97836000D01*
G75*
G02*
X148058000Y-97686000I0J150000D01*
G01*
X148058000Y-97386000D01*
G75*
G02*
X148208000Y-97236000I150000J0D01*
G01*
X149858000Y-97236000D01*
G75*
G02*
X150008000Y-97386000I0J-150000D01*
G01*
G37*
G04 #@! TD.AperFunction*
G04 #@! TA.AperFunction,SMDPad,CuDef*
G36*
G01*
X180446000Y-113942000D02*
X180446000Y-113642000D01*
G75*
G02*
X180596000Y-113492000I150000J0D01*
G01*
X182246000Y-113492000D01*
G75*
G02*
X182396000Y-113642000I0J-150000D01*
G01*
X182396000Y-113942000D01*
G75*
G02*
X182246000Y-114092000I-150000J0D01*
G01*
X180596000Y-114092000D01*
G75*
G02*
X180446000Y-113942000I0J150000D01*
G01*
G37*
G04 #@! TD.AperFunction*
G04 #@! TA.AperFunction,SMDPad,CuDef*
G36*
G01*
X180446000Y-115212000D02*
X180446000Y-114912000D01*
G75*
G02*
X180596000Y-114762000I150000J0D01*
G01*
X182246000Y-114762000D01*
G75*
G02*
X182396000Y-114912000I0J-150000D01*
G01*
X182396000Y-115212000D01*
G75*
G02*
X182246000Y-115362000I-150000J0D01*
G01*
X180596000Y-115362000D01*
G75*
G02*
X180446000Y-115212000I0J150000D01*
G01*
G37*
G04 #@! TD.AperFunction*
G04 #@! TA.AperFunction,SMDPad,CuDef*
G36*
G01*
X180446000Y-116482000D02*
X180446000Y-116182000D01*
G75*
G02*
X180596000Y-116032000I150000J0D01*
G01*
X182246000Y-116032000D01*
G75*
G02*
X182396000Y-116182000I0J-150000D01*
G01*
X182396000Y-116482000D01*
G75*
G02*
X182246000Y-116632000I-150000J0D01*
G01*
X180596000Y-116632000D01*
G75*
G02*
X180446000Y-116482000I0J150000D01*
G01*
G37*
G04 #@! TD.AperFunction*
G04 #@! TA.AperFunction,SMDPad,CuDef*
G36*
G01*
X180446000Y-117752000D02*
X180446000Y-117452000D01*
G75*
G02*
X180596000Y-117302000I150000J0D01*
G01*
X182246000Y-117302000D01*
G75*
G02*
X182396000Y-117452000I0J-150000D01*
G01*
X182396000Y-117752000D01*
G75*
G02*
X182246000Y-117902000I-150000J0D01*
G01*
X180596000Y-117902000D01*
G75*
G02*
X180446000Y-117752000I0J150000D01*
G01*
G37*
G04 #@! TD.AperFunction*
G04 #@! TA.AperFunction,SMDPad,CuDef*
G36*
G01*
X180446000Y-119022000D02*
X180446000Y-118722000D01*
G75*
G02*
X180596000Y-118572000I150000J0D01*
G01*
X182246000Y-118572000D01*
G75*
G02*
X182396000Y-118722000I0J-150000D01*
G01*
X182396000Y-119022000D01*
G75*
G02*
X182246000Y-119172000I-150000J0D01*
G01*
X180596000Y-119172000D01*
G75*
G02*
X180446000Y-119022000I0J150000D01*
G01*
G37*
G04 #@! TD.AperFunction*
G04 #@! TA.AperFunction,SMDPad,CuDef*
G36*
G01*
X180446000Y-120292000D02*
X180446000Y-119992000D01*
G75*
G02*
X180596000Y-119842000I150000J0D01*
G01*
X182246000Y-119842000D01*
G75*
G02*
X182396000Y-119992000I0J-150000D01*
G01*
X182396000Y-120292000D01*
G75*
G02*
X182246000Y-120442000I-150000J0D01*
G01*
X180596000Y-120442000D01*
G75*
G02*
X180446000Y-120292000I0J150000D01*
G01*
G37*
G04 #@! TD.AperFunction*
G04 #@! TA.AperFunction,SMDPad,CuDef*
G36*
G01*
X180446000Y-121562000D02*
X180446000Y-121262000D01*
G75*
G02*
X180596000Y-121112000I150000J0D01*
G01*
X182246000Y-121112000D01*
G75*
G02*
X182396000Y-121262000I0J-150000D01*
G01*
X182396000Y-121562000D01*
G75*
G02*
X182246000Y-121712000I-150000J0D01*
G01*
X180596000Y-121712000D01*
G75*
G02*
X180446000Y-121562000I0J150000D01*
G01*
G37*
G04 #@! TD.AperFunction*
G04 #@! TA.AperFunction,SMDPad,CuDef*
G36*
G01*
X185396000Y-121562000D02*
X185396000Y-121262000D01*
G75*
G02*
X185546000Y-121112000I150000J0D01*
G01*
X187196000Y-121112000D01*
G75*
G02*
X187346000Y-121262000I0J-150000D01*
G01*
X187346000Y-121562000D01*
G75*
G02*
X187196000Y-121712000I-150000J0D01*
G01*
X185546000Y-121712000D01*
G75*
G02*
X185396000Y-121562000I0J150000D01*
G01*
G37*
G04 #@! TD.AperFunction*
G04 #@! TA.AperFunction,SMDPad,CuDef*
G36*
G01*
X185396000Y-120292000D02*
X185396000Y-119992000D01*
G75*
G02*
X185546000Y-119842000I150000J0D01*
G01*
X187196000Y-119842000D01*
G75*
G02*
X187346000Y-119992000I0J-150000D01*
G01*
X187346000Y-120292000D01*
G75*
G02*
X187196000Y-120442000I-150000J0D01*
G01*
X185546000Y-120442000D01*
G75*
G02*
X185396000Y-120292000I0J150000D01*
G01*
G37*
G04 #@! TD.AperFunction*
G04 #@! TA.AperFunction,SMDPad,CuDef*
G36*
G01*
X185396000Y-119022000D02*
X185396000Y-118722000D01*
G75*
G02*
X185546000Y-118572000I150000J0D01*
G01*
X187196000Y-118572000D01*
G75*
G02*
X187346000Y-118722000I0J-150000D01*
G01*
X187346000Y-119022000D01*
G75*
G02*
X187196000Y-119172000I-150000J0D01*
G01*
X185546000Y-119172000D01*
G75*
G02*
X185396000Y-119022000I0J150000D01*
G01*
G37*
G04 #@! TD.AperFunction*
G04 #@! TA.AperFunction,SMDPad,CuDef*
G36*
G01*
X185396000Y-117752000D02*
X185396000Y-117452000D01*
G75*
G02*
X185546000Y-117302000I150000J0D01*
G01*
X187196000Y-117302000D01*
G75*
G02*
X187346000Y-117452000I0J-150000D01*
G01*
X187346000Y-117752000D01*
G75*
G02*
X187196000Y-117902000I-150000J0D01*
G01*
X185546000Y-117902000D01*
G75*
G02*
X185396000Y-117752000I0J150000D01*
G01*
G37*
G04 #@! TD.AperFunction*
G04 #@! TA.AperFunction,SMDPad,CuDef*
G36*
G01*
X185396000Y-116482000D02*
X185396000Y-116182000D01*
G75*
G02*
X185546000Y-116032000I150000J0D01*
G01*
X187196000Y-116032000D01*
G75*
G02*
X187346000Y-116182000I0J-150000D01*
G01*
X187346000Y-116482000D01*
G75*
G02*
X187196000Y-116632000I-150000J0D01*
G01*
X185546000Y-116632000D01*
G75*
G02*
X185396000Y-116482000I0J150000D01*
G01*
G37*
G04 #@! TD.AperFunction*
G04 #@! TA.AperFunction,SMDPad,CuDef*
G36*
G01*
X185396000Y-115212000D02*
X185396000Y-114912000D01*
G75*
G02*
X185546000Y-114762000I150000J0D01*
G01*
X187196000Y-114762000D01*
G75*
G02*
X187346000Y-114912000I0J-150000D01*
G01*
X187346000Y-115212000D01*
G75*
G02*
X187196000Y-115362000I-150000J0D01*
G01*
X185546000Y-115362000D01*
G75*
G02*
X185396000Y-115212000I0J150000D01*
G01*
G37*
G04 #@! TD.AperFunction*
G04 #@! TA.AperFunction,SMDPad,CuDef*
G36*
G01*
X185396000Y-113942000D02*
X185396000Y-113642000D01*
G75*
G02*
X185546000Y-113492000I150000J0D01*
G01*
X187196000Y-113492000D01*
G75*
G02*
X187346000Y-113642000I0J-150000D01*
G01*
X187346000Y-113942000D01*
G75*
G02*
X187196000Y-114092000I-150000J0D01*
G01*
X185546000Y-114092000D01*
G75*
G02*
X185396000Y-113942000I0J150000D01*
G01*
G37*
G04 #@! TD.AperFunction*
G04 #@! TA.AperFunction,SMDPad,CuDef*
G36*
G01*
X155088000Y-120754000D02*
X155088000Y-121054000D01*
G75*
G02*
X154938000Y-121204000I-150000J0D01*
G01*
X153288000Y-121204000D01*
G75*
G02*
X153138000Y-121054000I0J150000D01*
G01*
X153138000Y-120754000D01*
G75*
G02*
X153288000Y-120604000I150000J0D01*
G01*
X154938000Y-120604000D01*
G75*
G02*
X155088000Y-120754000I0J-150000D01*
G01*
G37*
G04 #@! TD.AperFunction*
G04 #@! TA.AperFunction,SMDPad,CuDef*
G36*
G01*
X155088000Y-119484000D02*
X155088000Y-119784000D01*
G75*
G02*
X154938000Y-119934000I-150000J0D01*
G01*
X153288000Y-119934000D01*
G75*
G02*
X153138000Y-119784000I0J150000D01*
G01*
X153138000Y-119484000D01*
G75*
G02*
X153288000Y-119334000I150000J0D01*
G01*
X154938000Y-119334000D01*
G75*
G02*
X155088000Y-119484000I0J-150000D01*
G01*
G37*
G04 #@! TD.AperFunction*
G04 #@! TA.AperFunction,SMDPad,CuDef*
G36*
G01*
X155088000Y-118214000D02*
X155088000Y-118514000D01*
G75*
G02*
X154938000Y-118664000I-150000J0D01*
G01*
X153288000Y-118664000D01*
G75*
G02*
X153138000Y-118514000I0J150000D01*
G01*
X153138000Y-118214000D01*
G75*
G02*
X153288000Y-118064000I150000J0D01*
G01*
X154938000Y-118064000D01*
G75*
G02*
X155088000Y-118214000I0J-150000D01*
G01*
G37*
G04 #@! TD.AperFunction*
G04 #@! TA.AperFunction,SMDPad,CuDef*
G36*
G01*
X155088000Y-116944000D02*
X155088000Y-117244000D01*
G75*
G02*
X154938000Y-117394000I-150000J0D01*
G01*
X153288000Y-117394000D01*
G75*
G02*
X153138000Y-117244000I0J150000D01*
G01*
X153138000Y-116944000D01*
G75*
G02*
X153288000Y-116794000I150000J0D01*
G01*
X154938000Y-116794000D01*
G75*
G02*
X155088000Y-116944000I0J-150000D01*
G01*
G37*
G04 #@! TD.AperFunction*
G04 #@! TA.AperFunction,SMDPad,CuDef*
G36*
G01*
X155088000Y-115674000D02*
X155088000Y-115974000D01*
G75*
G02*
X154938000Y-116124000I-150000J0D01*
G01*
X153288000Y-116124000D01*
G75*
G02*
X153138000Y-115974000I0J150000D01*
G01*
X153138000Y-115674000D01*
G75*
G02*
X153288000Y-115524000I150000J0D01*
G01*
X154938000Y-115524000D01*
G75*
G02*
X155088000Y-115674000I0J-150000D01*
G01*
G37*
G04 #@! TD.AperFunction*
G04 #@! TA.AperFunction,SMDPad,CuDef*
G36*
G01*
X155088000Y-114404000D02*
X155088000Y-114704000D01*
G75*
G02*
X154938000Y-114854000I-150000J0D01*
G01*
X153288000Y-114854000D01*
G75*
G02*
X153138000Y-114704000I0J150000D01*
G01*
X153138000Y-114404000D01*
G75*
G02*
X153288000Y-114254000I150000J0D01*
G01*
X154938000Y-114254000D01*
G75*
G02*
X155088000Y-114404000I0J-150000D01*
G01*
G37*
G04 #@! TD.AperFunction*
G04 #@! TA.AperFunction,SMDPad,CuDef*
G36*
G01*
X155088000Y-113134000D02*
X155088000Y-113434000D01*
G75*
G02*
X154938000Y-113584000I-150000J0D01*
G01*
X153288000Y-113584000D01*
G75*
G02*
X153138000Y-113434000I0J150000D01*
G01*
X153138000Y-113134000D01*
G75*
G02*
X153288000Y-112984000I150000J0D01*
G01*
X154938000Y-112984000D01*
G75*
G02*
X155088000Y-113134000I0J-150000D01*
G01*
G37*
G04 #@! TD.AperFunction*
G04 #@! TA.AperFunction,SMDPad,CuDef*
G36*
G01*
X150138000Y-113134000D02*
X150138000Y-113434000D01*
G75*
G02*
X149988000Y-113584000I-150000J0D01*
G01*
X148338000Y-113584000D01*
G75*
G02*
X148188000Y-113434000I0J150000D01*
G01*
X148188000Y-113134000D01*
G75*
G02*
X148338000Y-112984000I150000J0D01*
G01*
X149988000Y-112984000D01*
G75*
G02*
X150138000Y-113134000I0J-150000D01*
G01*
G37*
G04 #@! TD.AperFunction*
G04 #@! TA.AperFunction,SMDPad,CuDef*
G36*
G01*
X150138000Y-114404000D02*
X150138000Y-114704000D01*
G75*
G02*
X149988000Y-114854000I-150000J0D01*
G01*
X148338000Y-114854000D01*
G75*
G02*
X148188000Y-114704000I0J150000D01*
G01*
X148188000Y-114404000D01*
G75*
G02*
X148338000Y-114254000I150000J0D01*
G01*
X149988000Y-114254000D01*
G75*
G02*
X150138000Y-114404000I0J-150000D01*
G01*
G37*
G04 #@! TD.AperFunction*
G04 #@! TA.AperFunction,SMDPad,CuDef*
G36*
G01*
X150138000Y-115674000D02*
X150138000Y-115974000D01*
G75*
G02*
X149988000Y-116124000I-150000J0D01*
G01*
X148338000Y-116124000D01*
G75*
G02*
X148188000Y-115974000I0J150000D01*
G01*
X148188000Y-115674000D01*
G75*
G02*
X148338000Y-115524000I150000J0D01*
G01*
X149988000Y-115524000D01*
G75*
G02*
X150138000Y-115674000I0J-150000D01*
G01*
G37*
G04 #@! TD.AperFunction*
G04 #@! TA.AperFunction,SMDPad,CuDef*
G36*
G01*
X150138000Y-116944000D02*
X150138000Y-117244000D01*
G75*
G02*
X149988000Y-117394000I-150000J0D01*
G01*
X148338000Y-117394000D01*
G75*
G02*
X148188000Y-117244000I0J150000D01*
G01*
X148188000Y-116944000D01*
G75*
G02*
X148338000Y-116794000I150000J0D01*
G01*
X149988000Y-116794000D01*
G75*
G02*
X150138000Y-116944000I0J-150000D01*
G01*
G37*
G04 #@! TD.AperFunction*
G04 #@! TA.AperFunction,SMDPad,CuDef*
G36*
G01*
X150138000Y-118214000D02*
X150138000Y-118514000D01*
G75*
G02*
X149988000Y-118664000I-150000J0D01*
G01*
X148338000Y-118664000D01*
G75*
G02*
X148188000Y-118514000I0J150000D01*
G01*
X148188000Y-118214000D01*
G75*
G02*
X148338000Y-118064000I150000J0D01*
G01*
X149988000Y-118064000D01*
G75*
G02*
X150138000Y-118214000I0J-150000D01*
G01*
G37*
G04 #@! TD.AperFunction*
G04 #@! TA.AperFunction,SMDPad,CuDef*
G36*
G01*
X150138000Y-119484000D02*
X150138000Y-119784000D01*
G75*
G02*
X149988000Y-119934000I-150000J0D01*
G01*
X148338000Y-119934000D01*
G75*
G02*
X148188000Y-119784000I0J150000D01*
G01*
X148188000Y-119484000D01*
G75*
G02*
X148338000Y-119334000I150000J0D01*
G01*
X149988000Y-119334000D01*
G75*
G02*
X150138000Y-119484000I0J-150000D01*
G01*
G37*
G04 #@! TD.AperFunction*
G04 #@! TA.AperFunction,SMDPad,CuDef*
G36*
G01*
X150138000Y-120754000D02*
X150138000Y-121054000D01*
G75*
G02*
X149988000Y-121204000I-150000J0D01*
G01*
X148338000Y-121204000D01*
G75*
G02*
X148188000Y-121054000I0J150000D01*
G01*
X148188000Y-120754000D01*
G75*
G02*
X148338000Y-120604000I150000J0D01*
G01*
X149988000Y-120604000D01*
G75*
G02*
X150138000Y-120754000I0J-150000D01*
G01*
G37*
G04 #@! TD.AperFunction*
D17*
X179578000Y-96266000D03*
X184458000Y-96266000D03*
D18*
X178816000Y-100116000D03*
X178816000Y-102616000D03*
G04 #@! TA.AperFunction,SMDPad,CuDef*
G36*
G01*
X153913000Y-91202500D02*
X153913000Y-91677500D01*
G75*
G02*
X153675500Y-91915000I-237500J0D01*
G01*
X153100500Y-91915000D01*
G75*
G02*
X152863000Y-91677500I0J237500D01*
G01*
X152863000Y-91202500D01*
G75*
G02*
X153100500Y-90965000I237500J0D01*
G01*
X153675500Y-90965000D01*
G75*
G02*
X153913000Y-91202500I0J-237500D01*
G01*
G37*
G04 #@! TD.AperFunction*
G04 #@! TA.AperFunction,SMDPad,CuDef*
G36*
G01*
X152163000Y-91202500D02*
X152163000Y-91677500D01*
G75*
G02*
X151925500Y-91915000I-237500J0D01*
G01*
X151350500Y-91915000D01*
G75*
G02*
X151113000Y-91677500I0J237500D01*
G01*
X151113000Y-91202500D01*
G75*
G02*
X151350500Y-90965000I237500J0D01*
G01*
X151925500Y-90965000D01*
G75*
G02*
X152163000Y-91202500I0J-237500D01*
G01*
G37*
G04 #@! TD.AperFunction*
G04 #@! TA.AperFunction,SMDPad,CuDef*
G36*
G01*
X153913000Y-92980500D02*
X153913000Y-93455500D01*
G75*
G02*
X153675500Y-93693000I-237500J0D01*
G01*
X153100500Y-93693000D01*
G75*
G02*
X152863000Y-93455500I0J237500D01*
G01*
X152863000Y-92980500D01*
G75*
G02*
X153100500Y-92743000I237500J0D01*
G01*
X153675500Y-92743000D01*
G75*
G02*
X153913000Y-92980500I0J-237500D01*
G01*
G37*
G04 #@! TD.AperFunction*
G04 #@! TA.AperFunction,SMDPad,CuDef*
G36*
G01*
X152163000Y-92980500D02*
X152163000Y-93455500D01*
G75*
G02*
X151925500Y-93693000I-237500J0D01*
G01*
X151350500Y-93693000D01*
G75*
G02*
X151113000Y-93455500I0J237500D01*
G01*
X151113000Y-92980500D01*
G75*
G02*
X151350500Y-92743000I237500J0D01*
G01*
X151925500Y-92743000D01*
G75*
G02*
X152163000Y-92980500I0J-237500D01*
G01*
G37*
G04 #@! TD.AperFunction*
G04 #@! TA.AperFunction,SMDPad,CuDef*
G36*
G01*
X153659000Y-106442500D02*
X153659000Y-106917500D01*
G75*
G02*
X153421500Y-107155000I-237500J0D01*
G01*
X152846500Y-107155000D01*
G75*
G02*
X152609000Y-106917500I0J237500D01*
G01*
X152609000Y-106442500D01*
G75*
G02*
X152846500Y-106205000I237500J0D01*
G01*
X153421500Y-106205000D01*
G75*
G02*
X153659000Y-106442500I0J-237500D01*
G01*
G37*
G04 #@! TD.AperFunction*
G04 #@! TA.AperFunction,SMDPad,CuDef*
G36*
G01*
X151909000Y-106442500D02*
X151909000Y-106917500D01*
G75*
G02*
X151671500Y-107155000I-237500J0D01*
G01*
X151096500Y-107155000D01*
G75*
G02*
X150859000Y-106917500I0J237500D01*
G01*
X150859000Y-106442500D01*
G75*
G02*
X151096500Y-106205000I237500J0D01*
G01*
X151671500Y-106205000D01*
G75*
G02*
X151909000Y-106442500I0J-237500D01*
G01*
G37*
G04 #@! TD.AperFunction*
G04 #@! TA.AperFunction,SMDPad,CuDef*
G36*
G01*
X151909000Y-104918500D02*
X151909000Y-105393500D01*
G75*
G02*
X151671500Y-105631000I-237500J0D01*
G01*
X151096500Y-105631000D01*
G75*
G02*
X150859000Y-105393500I0J237500D01*
G01*
X150859000Y-104918500D01*
G75*
G02*
X151096500Y-104681000I237500J0D01*
G01*
X151671500Y-104681000D01*
G75*
G02*
X151909000Y-104918500I0J-237500D01*
G01*
G37*
G04 #@! TD.AperFunction*
G04 #@! TA.AperFunction,SMDPad,CuDef*
G36*
G01*
X153659000Y-104918500D02*
X153659000Y-105393500D01*
G75*
G02*
X153421500Y-105631000I-237500J0D01*
G01*
X152846500Y-105631000D01*
G75*
G02*
X152609000Y-105393500I0J237500D01*
G01*
X152609000Y-104918500D01*
G75*
G02*
X152846500Y-104681000I237500J0D01*
G01*
X153421500Y-104681000D01*
G75*
G02*
X153659000Y-104918500I0J-237500D01*
G01*
G37*
G04 #@! TD.AperFunction*
G04 #@! TA.AperFunction,SMDPad,CuDef*
G36*
G01*
X153913000Y-96536500D02*
X153913000Y-97011500D01*
G75*
G02*
X153675500Y-97249000I-237500J0D01*
G01*
X153100500Y-97249000D01*
G75*
G02*
X152863000Y-97011500I0J237500D01*
G01*
X152863000Y-96536500D01*
G75*
G02*
X153100500Y-96299000I237500J0D01*
G01*
X153675500Y-96299000D01*
G75*
G02*
X153913000Y-96536500I0J-237500D01*
G01*
G37*
G04 #@! TD.AperFunction*
G04 #@! TA.AperFunction,SMDPad,CuDef*
G36*
G01*
X152163000Y-96536500D02*
X152163000Y-97011500D01*
G75*
G02*
X151925500Y-97249000I-237500J0D01*
G01*
X151350500Y-97249000D01*
G75*
G02*
X151113000Y-97011500I0J237500D01*
G01*
X151113000Y-96536500D01*
G75*
G02*
X151350500Y-96299000I237500J0D01*
G01*
X151925500Y-96299000D01*
G75*
G02*
X152163000Y-96536500I0J-237500D01*
G01*
G37*
G04 #@! TD.AperFunction*
G04 #@! TA.AperFunction,SMDPad,CuDef*
G36*
G01*
X152163000Y-94758500D02*
X152163000Y-95233500D01*
G75*
G02*
X151925500Y-95471000I-237500J0D01*
G01*
X151350500Y-95471000D01*
G75*
G02*
X151113000Y-95233500I0J237500D01*
G01*
X151113000Y-94758500D01*
G75*
G02*
X151350500Y-94521000I237500J0D01*
G01*
X151925500Y-94521000D01*
G75*
G02*
X152163000Y-94758500I0J-237500D01*
G01*
G37*
G04 #@! TD.AperFunction*
G04 #@! TA.AperFunction,SMDPad,CuDef*
G36*
G01*
X153913000Y-94758500D02*
X153913000Y-95233500D01*
G75*
G02*
X153675500Y-95471000I-237500J0D01*
G01*
X153100500Y-95471000D01*
G75*
G02*
X152863000Y-95233500I0J237500D01*
G01*
X152863000Y-94758500D01*
G75*
G02*
X153100500Y-94521000I237500J0D01*
G01*
X153675500Y-94521000D01*
G75*
G02*
X153913000Y-94758500I0J-237500D01*
G01*
G37*
G04 #@! TD.AperFunction*
G04 #@! TA.AperFunction,SMDPad,CuDef*
G36*
G01*
X151909000Y-109490500D02*
X151909000Y-109965500D01*
G75*
G02*
X151671500Y-110203000I-237500J0D01*
G01*
X151096500Y-110203000D01*
G75*
G02*
X150859000Y-109965500I0J237500D01*
G01*
X150859000Y-109490500D01*
G75*
G02*
X151096500Y-109253000I237500J0D01*
G01*
X151671500Y-109253000D01*
G75*
G02*
X151909000Y-109490500I0J-237500D01*
G01*
G37*
G04 #@! TD.AperFunction*
G04 #@! TA.AperFunction,SMDPad,CuDef*
G36*
G01*
X153659000Y-109490500D02*
X153659000Y-109965500D01*
G75*
G02*
X153421500Y-110203000I-237500J0D01*
G01*
X152846500Y-110203000D01*
G75*
G02*
X152609000Y-109965500I0J237500D01*
G01*
X152609000Y-109490500D01*
G75*
G02*
X152846500Y-109253000I237500J0D01*
G01*
X153421500Y-109253000D01*
G75*
G02*
X153659000Y-109490500I0J-237500D01*
G01*
G37*
G04 #@! TD.AperFunction*
G04 #@! TA.AperFunction,SMDPad,CuDef*
G36*
G01*
X151909000Y-107966500D02*
X151909000Y-108441500D01*
G75*
G02*
X151671500Y-108679000I-237500J0D01*
G01*
X151096500Y-108679000D01*
G75*
G02*
X150859000Y-108441500I0J237500D01*
G01*
X150859000Y-107966500D01*
G75*
G02*
X151096500Y-107729000I237500J0D01*
G01*
X151671500Y-107729000D01*
G75*
G02*
X151909000Y-107966500I0J-237500D01*
G01*
G37*
G04 #@! TD.AperFunction*
G04 #@! TA.AperFunction,SMDPad,CuDef*
G36*
G01*
X153659000Y-107966500D02*
X153659000Y-108441500D01*
G75*
G02*
X153421500Y-108679000I-237500J0D01*
G01*
X152846500Y-108679000D01*
G75*
G02*
X152609000Y-108441500I0J237500D01*
G01*
X152609000Y-107966500D01*
G75*
G02*
X152846500Y-107729000I237500J0D01*
G01*
X153421500Y-107729000D01*
G75*
G02*
X153659000Y-107966500I0J-237500D01*
G01*
G37*
G04 #@! TD.AperFunction*
D11*
X205232000Y-103886000D03*
D12*
X205232000Y-101346000D03*
X205232000Y-98806000D03*
X205232000Y-96266000D03*
X205232000Y-93726000D03*
X205232000Y-91186000D03*
X205232000Y-88646000D03*
X205232000Y-86106000D03*
D19*
X188996466Y-105684466D03*
G04 #@! TA.AperFunction,ComponentPad*
D20*
G36*
X193663371Y-109220000D02*
G01*
X192532000Y-110351371D01*
X191400629Y-109220000D01*
X192532000Y-108088629D01*
X193663371Y-109220000D01*
G37*
G04 #@! TD.AperFunction*
D19*
X157146000Y-84582000D03*
D21*
X152146000Y-84582000D03*
G04 #@! TA.AperFunction,ComponentPad*
D20*
G36*
X200500905Y-118618000D02*
G01*
X199369534Y-119749371D01*
X198238163Y-118618000D01*
X199369534Y-117486629D01*
X200500905Y-118618000D01*
G37*
G04 #@! TD.AperFunction*
D19*
X195834000Y-115082466D03*
G04 #@! TA.AperFunction,ComponentPad*
D20*
G36*
X200267371Y-99801534D02*
G01*
X199136000Y-100932905D01*
X198004629Y-99801534D01*
X199136000Y-98670163D01*
X200267371Y-99801534D01*
G37*
G04 #@! TD.AperFunction*
D19*
X195600466Y-96266000D03*
D10*
X136652000Y-79756000D03*
X136652000Y-73152000D03*
X136652000Y-86614000D03*
X136144000Y-111252000D03*
X136398000Y-94742000D03*
X136398000Y-127762000D03*
X136398000Y-102870000D03*
X134366000Y-69850000D03*
X134366000Y-83312000D03*
X134366000Y-123952000D03*
X134366000Y-76454000D03*
X134112000Y-98806000D03*
X134366000Y-115824000D03*
X134366000Y-106934000D03*
X134366000Y-90678000D03*
D22*
X141732000Y-77978000D03*
X148336000Y-77978000D03*
D23*
X205700600Y-71385400D03*
X170459400Y-62839600D03*
X204774800Y-126314200D03*
X161544000Y-125476000D03*
D24*
X168513800Y-67066200D03*
X170916600Y-64643000D03*
X174117000Y-70002400D03*
D23*
X179400000Y-84580000D03*
X160004800Y-79705200D03*
X159907000Y-84963000D03*
X160110200Y-89839800D03*
X151130000Y-102616000D03*
X151384000Y-89662000D03*
X166086000Y-111790000D03*
X173250000Y-112544000D03*
X181356000Y-105156000D03*
X163830000Y-103632000D03*
X167894000Y-104648000D03*
X152146000Y-113284000D03*
X179832000Y-121412000D03*
X160020000Y-94996000D03*
X181864000Y-88900000D03*
X175895000Y-103251000D03*
X165100000Y-120650000D03*
X144526000Y-100076000D03*
X185740010Y-110931990D03*
X182372000Y-100076000D03*
X184150000Y-76708000D03*
X168402000Y-97282000D03*
D24*
X173228000Y-64770000D03*
D23*
X187895000Y-75184000D03*
X190754000Y-74930000D03*
X192405000Y-78613000D03*
X192532000Y-80518000D03*
X192532000Y-82550000D03*
X161290000Y-117602000D03*
X164592000Y-113792000D03*
X146617020Y-97341020D03*
X148590000Y-112014000D03*
X179070000Y-115316000D03*
X175006000Y-102108000D03*
X173482000Y-104902000D03*
X200406000Y-76200000D03*
X160528000Y-104140000D03*
X164592000Y-99822000D03*
X166878000Y-115824000D03*
X186182000Y-67564000D03*
D24*
X168656000Y-64770000D03*
D23*
X141986000Y-97536000D03*
X141986000Y-110744000D03*
X169418000Y-73406000D03*
X171704000Y-90932000D03*
X171704000Y-87376000D03*
X175006000Y-74930000D03*
X180594000Y-74422000D03*
X167386000Y-106934000D03*
X194310000Y-85090000D03*
X192278000Y-85598000D03*
X179832000Y-89662000D03*
X171450000Y-95250000D03*
X194310000Y-83566000D03*
X192278000Y-84074000D03*
X180086000Y-88392000D03*
X163322000Y-98298000D03*
X177038000Y-88392000D03*
X147574000Y-100076000D03*
X147066000Y-104648000D03*
X159512000Y-112014000D03*
X167894000Y-108966000D03*
X158750000Y-110998000D03*
X166878000Y-108712000D03*
X145796000Y-102870000D03*
X145796000Y-104648000D03*
X157747801Y-78980199D03*
X149352000Y-126238000D03*
X152400000Y-125984000D03*
X160020000Y-78486000D03*
X160070800Y-77165200D03*
X157988000Y-77216000D03*
X153162000Y-127254000D03*
X149860000Y-127508000D03*
X169926000Y-76200000D03*
X157480000Y-75692000D03*
X195072000Y-69596000D03*
X156210000Y-73914000D03*
X156210000Y-80010000D03*
X161290000Y-96520000D03*
X177229800Y-83940200D03*
X170180000Y-95250000D03*
X172212000Y-104648000D03*
X172212000Y-116840000D03*
X169418000Y-116078000D03*
X183388000Y-115824000D03*
X165862000Y-106934000D03*
X169926000Y-106680000D03*
X168656000Y-105410000D03*
X158496000Y-118364000D03*
X167894000Y-110236000D03*
X160528000Y-116840000D03*
X167386000Y-111252000D03*
X171958000Y-112522000D03*
X178181000Y-119253000D03*
X156464000Y-118618000D03*
X170180000Y-111252000D03*
X157173000Y-117909000D03*
X170434000Y-109982000D03*
X166392056Y-104879944D03*
X168656000Y-106934000D03*
X155194000Y-105918000D03*
X166370000Y-105918000D03*
X183896000Y-83566000D03*
X169418000Y-96774000D03*
X183896000Y-82042000D03*
X169926000Y-97790000D03*
X183896000Y-80772000D03*
X170434000Y-98806000D03*
X184658000Y-78486000D03*
X172720000Y-97790000D03*
D25*
X204139800Y-71385400D02*
X205700600Y-71385400D01*
X205700600Y-71385400D02*
X205700600Y-71385400D01*
X168882000Y-63119000D02*
X170180000Y-63119000D01*
X170180000Y-63119000D02*
X170459400Y-62839600D01*
X170459400Y-62839600D02*
X170459400Y-62839600D01*
X204379800Y-124790200D02*
X204379800Y-125919200D01*
X204379800Y-125919200D02*
X204774800Y-126314200D01*
X204774800Y-126314200D02*
X204774800Y-126314200D01*
D26*
X169951400Y-67066200D02*
X168513800Y-67066200D01*
X168513800Y-67066200D02*
X168513800Y-67066200D01*
X171895800Y-62890400D02*
X171895800Y-63486000D01*
X171895800Y-63486000D02*
X171895800Y-63663800D01*
X171895800Y-63663800D02*
X170916600Y-64643000D01*
X170916600Y-64643000D02*
X170916600Y-64643000D01*
X174117000Y-68247200D02*
X174117000Y-70002400D01*
X174117000Y-70002400D02*
X174117000Y-70053200D01*
D25*
X179400000Y-84580000D02*
X179380000Y-84600000D01*
X161354800Y-79705200D02*
X160004800Y-79705200D01*
X161456400Y-84963000D02*
X159907000Y-84963000D01*
X159907000Y-84963000D02*
X159907000Y-84963000D01*
X161558000Y-89839800D02*
X160110200Y-89839800D01*
X160110200Y-89839800D02*
X159820200Y-89839800D01*
X149033000Y-103124000D02*
X150622000Y-103124000D01*
X150622000Y-103124000D02*
X151130000Y-102616000D01*
X151130000Y-102616000D02*
X151130000Y-102616000D01*
X149033000Y-89916000D02*
X151130000Y-89916000D01*
X151130000Y-89916000D02*
X151384000Y-89662000D01*
X151384000Y-89662000D02*
X151384000Y-89662000D01*
X164325000Y-111790000D02*
X166086000Y-111790000D01*
X166086000Y-111790000D02*
X166086000Y-111790000D01*
X173250000Y-114215000D02*
X173250000Y-112544000D01*
X173250000Y-112544000D02*
X173250000Y-112544000D01*
X175648000Y-105290000D02*
X175623010Y-105265010D01*
X175675000Y-105290000D02*
X175648000Y-105290000D01*
X168250000Y-102865000D02*
X168250000Y-104292000D01*
X168250000Y-104292000D02*
X167894000Y-104648000D01*
X167894000Y-104648000D02*
X167894000Y-104648000D01*
X165425010Y-104549308D02*
X164507702Y-103632000D01*
X165425010Y-105030692D02*
X165425010Y-104549308D01*
X165165702Y-105290000D02*
X165425010Y-105030692D01*
X164325000Y-105290000D02*
X165165702Y-105290000D01*
X164507702Y-103632000D02*
X163830000Y-103632000D01*
X151130000Y-101396000D02*
X151064000Y-101330000D01*
X151130000Y-102616000D02*
X151130000Y-101396000D01*
X147254000Y-101345000D02*
X147254000Y-101330000D01*
X149033000Y-103124000D02*
X147254000Y-101345000D01*
X177533499Y-105702010D02*
X179003989Y-105702010D01*
X179003989Y-105702010D02*
X179803999Y-104902000D01*
X177121489Y-105290000D02*
X177533499Y-105702010D01*
X175675000Y-105290000D02*
X177121489Y-105290000D01*
X162134259Y-113140039D02*
X163459308Y-111814990D01*
X162134259Y-114497647D02*
X162134259Y-113140039D01*
X164300010Y-111814990D02*
X164325000Y-111790000D01*
X163174048Y-115537436D02*
X162134259Y-114497647D01*
X163459308Y-111814990D02*
X164300010Y-111814990D01*
X164305436Y-115537436D02*
X163174048Y-115537436D01*
X161707800Y-125639800D02*
X161544000Y-125476000D01*
X166674800Y-125639800D02*
X161707800Y-125639800D01*
X181421000Y-121412000D02*
X179832000Y-121412000D01*
X161465000Y-95080000D02*
X160104000Y-95080000D01*
X160104000Y-95080000D02*
X160020000Y-94996000D01*
X160020000Y-94996000D02*
X160020000Y-94996000D01*
X154113000Y-113284000D02*
X152146000Y-113284000D01*
X155730000Y-109756000D02*
X155448000Y-109474000D01*
X157226000Y-109756000D02*
X155730000Y-109756000D01*
X154113000Y-110809000D02*
X155448000Y-109474000D01*
X154113000Y-113284000D02*
X154113000Y-110809000D01*
X149033000Y-89230000D02*
X147687000Y-87884000D01*
X149033000Y-89916000D02*
X149033000Y-89230000D01*
X179578000Y-105127999D02*
X179803999Y-104902000D01*
X182626000Y-90565000D02*
X182626000Y-89662000D01*
X182626000Y-89662000D02*
X181864000Y-88900000D01*
X181864000Y-88900000D02*
X181864000Y-88900000D01*
X180848000Y-89916000D02*
X181864000Y-88900000D01*
X180848000Y-90565000D02*
X180848000Y-89916000D01*
X176784000Y-102221000D02*
X176784000Y-102362000D01*
X176784000Y-102362000D02*
X175895000Y-103251000D01*
X175895000Y-103251000D02*
X175768000Y-103378000D01*
X163322000Y-120650000D02*
X165100000Y-120650000D01*
X165100000Y-120650000D02*
X165100000Y-120650000D01*
X143256000Y-101205000D02*
X143397000Y-101205000D01*
X143397000Y-101205000D02*
X144526000Y-100076000D01*
X144526000Y-100076000D02*
X144526000Y-100076000D01*
X185204010Y-110931990D02*
X185740010Y-110931990D01*
X184404000Y-111732000D02*
X185204010Y-110931990D01*
X185740010Y-110931990D02*
X185740010Y-110931990D01*
X180057999Y-105156000D02*
X179803999Y-104902000D01*
X181356000Y-105156000D02*
X180057999Y-105156000D01*
X180086000Y-105184001D02*
X179803999Y-104902000D01*
X180086000Y-106680000D02*
X180086000Y-105184001D01*
X159913952Y-101124564D02*
X158782564Y-101124564D01*
X162052000Y-103262612D02*
X159913952Y-101124564D01*
X163413590Y-105290000D02*
X162052000Y-103928410D01*
X162052000Y-103928410D02*
X162052000Y-103262612D01*
X164325000Y-105290000D02*
X163413590Y-105290000D01*
X180848000Y-100471000D02*
X181977000Y-100471000D01*
X181977000Y-100471000D02*
X182372000Y-100076000D01*
X186625000Y-75946000D02*
X184912000Y-75946000D01*
X184912000Y-75946000D02*
X184150000Y-76708000D01*
X184150000Y-76708000D02*
X184150000Y-76708000D01*
X168148000Y-98693000D02*
X168148000Y-97536000D01*
X168148000Y-97536000D02*
X168402000Y-97282000D01*
X168402000Y-97282000D02*
X168402000Y-97282000D01*
X179578000Y-93585000D02*
X180848000Y-92315000D01*
X179578000Y-96266000D02*
X179578000Y-93585000D01*
X176147590Y-96266000D02*
X179578000Y-96266000D01*
X171250000Y-102865000D02*
X171250000Y-101163590D01*
X171250000Y-101163590D02*
X176147590Y-96266000D01*
X184458000Y-94147000D02*
X182626000Y-92315000D01*
X184458000Y-96266000D02*
X184458000Y-94147000D01*
X183382999Y-97341001D02*
X184458000Y-96266000D01*
X175708999Y-97341001D02*
X183382999Y-97341001D01*
X171750000Y-102865000D02*
X171750000Y-101300000D01*
X171750000Y-101300000D02*
X175708999Y-97341001D01*
D27*
X172151400Y-66116200D02*
X172151400Y-65846600D01*
X172151400Y-65846600D02*
X173228000Y-64770000D01*
X173228000Y-64770000D02*
X173228000Y-64770000D01*
D26*
X173228000Y-63308200D02*
X173645800Y-62890400D01*
X173228000Y-64770000D02*
X173228000Y-63308200D01*
D25*
X187895000Y-75184000D02*
X187895000Y-75184000D01*
X190754000Y-74930000D02*
X190754000Y-74930000D01*
X192405000Y-78613000D02*
X192532000Y-78486000D01*
X192532000Y-80518000D02*
X192532000Y-80518000D01*
X192532000Y-82550000D02*
X192532000Y-82550000D01*
X167750000Y-100841000D02*
X168148000Y-100443000D01*
X167750000Y-102865000D02*
X167750000Y-100841000D01*
X177941999Y-104790000D02*
X175675000Y-104790000D01*
X178053999Y-104902000D02*
X177941999Y-104790000D01*
X163068000Y-113547000D02*
X164325000Y-112290000D01*
X163068000Y-114300000D02*
X163068000Y-113547000D01*
X180654009Y-111699991D02*
X177513436Y-114840564D01*
X150164778Y-115179010D02*
X148141242Y-115179010D01*
X148141242Y-115179010D02*
X147862990Y-114900758D01*
X150622000Y-120142000D02*
X150622000Y-115636232D01*
X150622000Y-115636232D02*
X150164778Y-115179010D01*
X151384000Y-120904000D02*
X150622000Y-120142000D01*
X154113000Y-120904000D02*
X151384000Y-120904000D01*
X147862990Y-114207242D02*
X147862990Y-114900758D01*
X148141242Y-113928990D02*
X147862990Y-114207242D01*
X150184758Y-113928990D02*
X148141242Y-113928990D01*
X150463010Y-113650738D02*
X150184758Y-113928990D01*
X150463010Y-112174010D02*
X150463010Y-113650738D01*
X149033000Y-110744000D02*
X150463010Y-112174010D01*
X154113000Y-120904000D02*
X157988000Y-120904000D01*
X157988000Y-120904000D02*
X161290000Y-117602000D01*
X164084000Y-114300000D02*
X164592000Y-113792000D01*
X163068000Y-114300000D02*
X164084000Y-114300000D01*
X181421000Y-112466982D02*
X180654009Y-111699991D01*
X181421000Y-113792000D02*
X181421000Y-112466982D01*
X148903020Y-97341020D02*
X146617020Y-97341020D01*
X149033000Y-97471000D02*
X148903020Y-97341020D01*
X149033000Y-97536000D02*
X149033000Y-97471000D01*
X146617020Y-97341020D02*
X146558000Y-97282000D01*
X146617020Y-97341020D02*
X146617020Y-97341020D01*
X149033000Y-111571000D02*
X148590000Y-112014000D01*
X149033000Y-110744000D02*
X149033000Y-111571000D01*
X181421000Y-111215000D02*
X181421000Y-113792000D01*
X182626000Y-110010000D02*
X181421000Y-111215000D01*
X177513436Y-114840564D02*
X178594564Y-114840564D01*
X178594564Y-114840564D02*
X179070000Y-115316000D01*
X179070000Y-115316000D02*
X179070000Y-115316000D01*
X145937000Y-96661000D02*
X146617020Y-97341020D01*
X145937000Y-87884000D02*
X145937000Y-96661000D01*
X173594000Y-104790000D02*
X173482000Y-104902000D01*
X175675000Y-104790000D02*
X173594000Y-104790000D01*
X174249000Y-102865000D02*
X175006000Y-102108000D01*
X173750000Y-102865000D02*
X174249000Y-102865000D01*
X158242000Y-120650000D02*
X157988000Y-120904000D01*
X161572000Y-120650000D02*
X158242000Y-120650000D01*
X144239436Y-85376564D02*
X145066564Y-85376564D01*
X145937000Y-86247000D02*
X145937000Y-87884000D01*
X145066564Y-85376564D02*
X145937000Y-86247000D01*
X145924748Y-97341020D02*
X146617020Y-97341020D01*
X143810768Y-99455000D02*
X145924748Y-97341020D01*
X143256000Y-99455000D02*
X143810768Y-99455000D01*
X182654000Y-109982000D02*
X182626000Y-110010000D01*
X184404000Y-109982000D02*
X182654000Y-109982000D01*
X178854009Y-104101990D02*
X178053999Y-104902000D01*
X182081001Y-104807999D02*
X181374992Y-104101990D01*
X182081001Y-106434999D02*
X182081001Y-104807999D01*
X181374992Y-104101990D02*
X178854009Y-104101990D01*
X180058000Y-108458000D02*
X182081001Y-106434999D01*
X201027000Y-85344000D02*
X201027000Y-82804000D01*
X201027000Y-80264000D02*
X201027000Y-82804000D01*
X201027000Y-77724000D02*
X201027000Y-80264000D01*
X201027000Y-77724000D02*
X201027000Y-76821000D01*
X201027000Y-76821000D02*
X200406000Y-76200000D01*
X200406000Y-76200000D02*
X200406000Y-76200000D01*
X163277180Y-105790000D02*
X161544000Y-104056820D01*
X161544000Y-104056820D02*
X161544000Y-103391022D01*
X164325000Y-105790000D02*
X163277180Y-105790000D01*
X160514978Y-102362000D02*
X160020000Y-102362000D01*
X161544000Y-103391022D02*
X160514978Y-102362000D01*
X166370000Y-100443000D02*
X168148000Y-100443000D01*
X160020000Y-102362000D02*
X160020000Y-103632000D01*
X160020000Y-103632000D02*
X160528000Y-104140000D01*
X160528000Y-104140000D02*
X160528000Y-104140000D01*
X165213000Y-100443000D02*
X164592000Y-99822000D01*
X166370000Y-100443000D02*
X165213000Y-100443000D01*
X164592000Y-113792000D02*
X164592000Y-114357685D01*
X165960157Y-115725843D02*
X166779843Y-115725843D01*
X164592000Y-114357685D02*
X165960157Y-115725843D01*
X166779843Y-115725843D02*
X166878000Y-115824000D01*
D27*
X174117000Y-65659000D02*
X173228000Y-64770000D01*
X174117000Y-66497200D02*
X174117000Y-65659000D01*
D25*
X174117000Y-66497200D02*
X185115200Y-66497200D01*
X185115200Y-66497200D02*
X186182000Y-67564000D01*
X186182000Y-67564000D02*
X186182000Y-67564000D01*
X182437000Y-75184000D02*
X187895000Y-75184000D01*
X181675000Y-75946000D02*
X182437000Y-75184000D01*
X191008000Y-75184000D02*
X190754000Y-74930000D01*
X191008000Y-76962000D02*
X191008000Y-75184000D01*
X192278000Y-78740000D02*
X192405000Y-78613000D01*
X190980000Y-78740000D02*
X192278000Y-78740000D01*
X192532000Y-80518000D02*
X190980000Y-80518000D01*
X191234000Y-82550000D02*
X190980000Y-82296000D01*
X192532000Y-82550000D02*
X191234000Y-82550000D01*
X189710000Y-83566000D02*
X190980000Y-82296000D01*
X186625000Y-83566000D02*
X189710000Y-83566000D01*
X172274990Y-102629010D02*
X172274990Y-101791010D01*
X172250000Y-102654000D02*
X172274990Y-102629010D01*
X172250000Y-102865000D02*
X172250000Y-102654000D01*
X172274990Y-101468210D02*
X172974000Y-100769200D01*
X172274990Y-101791010D02*
X172274990Y-101468210D01*
X177139000Y-100116000D02*
X176784000Y-100471000D01*
X178816000Y-100116000D02*
X177139000Y-100116000D01*
X176485800Y-100769200D02*
X176784000Y-100471000D01*
X172974000Y-100769200D02*
X176485800Y-100769200D01*
X172750000Y-102865000D02*
X172750000Y-101629610D01*
X179211000Y-102221000D02*
X178816000Y-102616000D01*
X180848000Y-102221000D02*
X179211000Y-102221000D01*
X177521010Y-101321010D02*
X178816000Y-102616000D01*
X173058600Y-101321010D02*
X177521010Y-101321010D01*
X172750000Y-101629610D02*
X173058600Y-101321010D01*
D26*
X169951400Y-66116200D02*
X169951400Y-66065400D01*
X169951400Y-66065400D02*
X168656000Y-64770000D01*
X168656000Y-64770000D02*
X168656000Y-64770000D01*
D25*
X164820600Y-69850000D02*
X163957000Y-70713600D01*
X167922000Y-69850000D02*
X164820600Y-69850000D01*
X179042000Y-90908000D02*
X179042000Y-90908000D01*
X144083000Y-97536000D02*
X141986000Y-97536000D01*
X141986000Y-97536000D02*
X141986000Y-97536000D01*
X144083000Y-110744000D02*
X141986000Y-110744000D01*
X141986000Y-110744000D02*
X141986000Y-110744000D01*
X178979800Y-87223600D02*
X180172168Y-87223600D01*
X179042000Y-87285800D02*
X178979800Y-87223600D01*
X179042000Y-92405200D02*
X179042000Y-87285800D01*
X178915000Y-77139800D02*
X178915000Y-75283000D01*
X178915000Y-77139800D02*
X175181200Y-73406000D01*
X175181200Y-73406000D02*
X169418000Y-73406000D01*
X169418000Y-73406000D02*
X169418000Y-73406000D01*
X199161400Y-132003800D02*
X195656200Y-132003800D01*
X195656200Y-132003800D02*
X192569009Y-135090991D01*
X169800410Y-133096000D02*
X168784410Y-132080000D01*
X168784410Y-132080000D02*
X163830000Y-132080000D01*
X170903002Y-133096000D02*
X169800410Y-133096000D01*
X172897993Y-135090991D02*
X170903002Y-133096000D01*
X192569009Y-135090991D02*
X172897993Y-135090991D01*
X198678800Y-70916800D02*
X197768179Y-71827421D01*
X197768179Y-71827421D02*
X179886579Y-71827421D01*
X178915000Y-72799000D02*
X178915000Y-75283000D01*
X179886579Y-71827421D02*
X178915000Y-72799000D01*
X182676778Y-80400990D02*
X180653242Y-80400990D01*
X182975010Y-78139242D02*
X182975010Y-80102758D01*
X178965800Y-82088432D02*
X178965800Y-82219800D01*
X182696758Y-77860990D02*
X182975010Y-78139242D01*
X180653242Y-80400990D02*
X178965800Y-82088432D01*
X179636190Y-77860990D02*
X182696758Y-77860990D01*
X182975010Y-80102758D02*
X182676778Y-80400990D01*
X178915000Y-77139800D02*
X179636190Y-77860990D01*
X182696758Y-80400990D02*
X182676778Y-80400990D01*
X182975010Y-80679242D02*
X182696758Y-80400990D01*
X182975010Y-84420758D02*
X182975010Y-80679242D01*
X182719884Y-84610884D02*
X182719884Y-84675884D01*
X181675000Y-83566000D02*
X182719884Y-84610884D01*
X182719884Y-84675884D02*
X182975010Y-84420758D01*
X180172168Y-87223600D02*
X182719884Y-84675884D01*
X149163000Y-120904000D02*
X149163000Y-121223000D01*
X149925000Y-121666000D02*
X149163000Y-120904000D01*
X170434000Y-121666000D02*
X149925000Y-121666000D01*
X170434000Y-126328490D02*
X169164000Y-125058490D01*
X170434000Y-126746000D02*
X170434000Y-126328490D01*
X169164000Y-125058490D02*
X169164000Y-123190000D01*
X148786232Y-119634000D02*
X149163000Y-119634000D01*
X147862990Y-121250758D02*
X147862990Y-120557242D01*
X148728241Y-122116009D02*
X147862990Y-121250758D01*
X168090010Y-122116010D02*
X148728241Y-122116009D01*
X147862990Y-120557242D02*
X148786232Y-119634000D01*
X169164000Y-123190000D02*
X168090010Y-122116010D01*
X169258999Y-125789899D02*
X168656000Y-125186900D01*
X169258999Y-128110999D02*
X169258999Y-125789899D01*
X170434000Y-129286000D02*
X169258999Y-128110999D01*
X168656000Y-125186900D02*
X168656000Y-123318410D01*
X147412980Y-119737252D02*
X148786232Y-118364000D01*
X148786232Y-118364000D02*
X149163000Y-118364000D01*
X147412980Y-121437158D02*
X147412980Y-119737252D01*
X148541840Y-122566018D02*
X147412980Y-121437158D01*
X167903609Y-122566019D02*
X148541840Y-122566018D01*
X168656000Y-123318410D02*
X167903609Y-122566019D01*
X170434000Y-131826000D02*
X168656000Y-130048000D01*
X168656000Y-125823310D02*
X168205990Y-125373300D01*
X168656000Y-130048000D02*
X168656000Y-125823310D01*
X168205990Y-125373300D02*
X168205990Y-123504810D01*
X148786232Y-117094000D02*
X149163000Y-117094000D01*
X146962970Y-121623558D02*
X146962970Y-118917262D01*
X146962970Y-118917262D02*
X148786232Y-117094000D01*
X148355439Y-123016027D02*
X146962970Y-121623558D01*
X167717208Y-123016028D02*
X148355439Y-123016027D01*
X168205990Y-123504810D02*
X167717208Y-123016028D01*
X148188000Y-115824000D02*
X149163000Y-115824000D01*
X146512960Y-121809958D02*
X146512960Y-117499040D01*
X155418003Y-130715001D02*
X146512960Y-121809958D01*
X146512960Y-117499040D02*
X148188000Y-115824000D01*
X169323001Y-133255001D02*
X159417001Y-133255001D01*
X170434000Y-134366000D02*
X169323001Y-133255001D01*
X159417001Y-133255001D02*
X156877001Y-130715001D01*
X156877001Y-130715001D02*
X155418003Y-130715001D01*
X199277000Y-77724000D02*
X196342000Y-77724000D01*
X200176990Y-78623990D02*
X199277000Y-77724000D01*
X200176990Y-87908990D02*
X200176990Y-78623990D01*
X200406000Y-88138000D02*
X200176990Y-87908990D01*
X163866999Y-100170001D02*
X163866999Y-99473999D01*
X164990008Y-101293010D02*
X163866999Y-100170001D01*
X166518712Y-101293010D02*
X164990008Y-101293010D01*
X163866999Y-99473999D02*
X166058998Y-97282000D01*
X167250000Y-102024298D02*
X166518712Y-101293010D01*
X167250000Y-102865000D02*
X167250000Y-102024298D01*
X166058998Y-97196406D02*
X171704000Y-91551404D01*
X166058998Y-97282000D02*
X166058998Y-97196406D01*
X171704000Y-91551404D02*
X171704000Y-90932000D01*
X171704000Y-90932000D02*
X171704000Y-90932000D01*
X171704000Y-77409396D02*
X174183396Y-74930000D01*
X171704000Y-87376000D02*
X171704000Y-77409396D01*
X174183396Y-74930000D02*
X175006000Y-74930000D01*
X175006000Y-74930000D02*
X175006000Y-74930000D01*
X192640001Y-74022001D02*
X196342000Y-77724000D01*
X180993999Y-74022001D02*
X192640001Y-74022001D01*
X180594000Y-74422000D02*
X180993999Y-74022001D01*
X199644000Y-113792000D02*
X205232000Y-108204000D01*
X199644000Y-113792000D02*
X186371000Y-113792000D01*
X196374001Y-116207467D02*
X197612000Y-114969468D01*
X195293999Y-116207467D02*
X196374001Y-116207467D01*
X194148532Y-115062000D02*
X195293999Y-116207467D01*
X186371000Y-115062000D02*
X194148532Y-115062000D01*
X204273990Y-114242010D02*
X205232000Y-113284000D01*
X199193990Y-114242010D02*
X204273990Y-114242010D01*
X198466532Y-114969468D02*
X199193990Y-114242010D01*
X197612000Y-114969468D02*
X198466532Y-114969468D01*
X186879000Y-115824000D02*
X186371000Y-116332000D01*
X204848533Y-116207467D02*
X205232000Y-115824000D01*
X204398523Y-116657477D02*
X205232000Y-115824000D01*
X195107599Y-116657477D02*
X204398523Y-116657477D01*
X194274122Y-115824000D02*
X195107599Y-116657477D01*
X186879000Y-115824000D02*
X194274122Y-115824000D01*
X204724000Y-118872000D02*
X205232000Y-118364000D01*
X197524528Y-118872000D02*
X186371000Y-118872000D01*
X199234909Y-117161619D02*
X197524528Y-118872000D01*
X204029619Y-117161619D02*
X199234909Y-117161619D01*
X205232000Y-118364000D02*
X204029619Y-117161619D01*
X185070990Y-118525242D02*
X185994232Y-117602000D01*
X185994232Y-117602000D02*
X186371000Y-117602000D01*
X185070990Y-120488758D02*
X185070990Y-118525242D01*
X185349242Y-120767010D02*
X185070990Y-120488758D01*
X192816997Y-120054001D02*
X192103988Y-120767010D01*
X205232000Y-120904000D02*
X204382001Y-120054001D01*
X192103988Y-120767010D02*
X185349242Y-120767010D01*
X204361621Y-120074381D02*
X192837377Y-120074381D01*
X192837377Y-120074381D02*
X192816997Y-120054001D01*
X204382001Y-120054001D02*
X204361621Y-120074381D01*
X142240000Y-119606000D02*
X145288000Y-116558000D01*
X142240000Y-120142000D02*
X142240000Y-119606000D01*
X164325000Y-108790000D02*
X165276000Y-108790000D01*
X165276000Y-108790000D02*
X166116000Y-107950000D01*
X166116000Y-107950000D02*
X166116000Y-107950000D01*
X199277000Y-85344000D02*
X196342000Y-85344000D01*
X196342000Y-85344000D02*
X194564000Y-85344000D01*
X194564000Y-85344000D02*
X194310000Y-85090000D01*
X194310000Y-85090000D02*
X194310000Y-85090000D01*
X166370000Y-107950000D02*
X167386000Y-106934000D01*
X166116000Y-107950000D02*
X166370000Y-107950000D01*
X180028998Y-89662000D02*
X179832000Y-89662000D01*
X184092998Y-85598000D02*
X180028998Y-89662000D01*
X192278000Y-85598000D02*
X184092998Y-85598000D01*
X199277000Y-82804000D02*
X196342000Y-82804000D01*
X165257020Y-101743020D02*
X164070530Y-101743020D01*
X164070530Y-101743020D02*
X163416989Y-101089479D01*
X166250000Y-102736000D02*
X165257020Y-101743020D01*
X166250000Y-102865000D02*
X166250000Y-102736000D01*
X196342000Y-82804000D02*
X195072000Y-82804000D01*
X195072000Y-82804000D02*
X194310000Y-83566000D01*
X194310000Y-83566000D02*
X194310000Y-83566000D01*
X191652990Y-84699010D02*
X183333168Y-84699010D01*
X192278000Y-84074000D02*
X191652990Y-84699010D01*
X183333168Y-84699010D02*
X180086000Y-87946178D01*
X180086000Y-87946178D02*
X180086000Y-88392000D01*
X180086000Y-88392000D02*
X180086000Y-88392000D01*
X163416989Y-98392989D02*
X163322000Y-98298000D01*
X163416989Y-101089479D02*
X163416989Y-98392989D01*
X162315010Y-97291010D02*
X163322000Y-98298000D01*
X162315010Y-94659480D02*
X162315010Y-97291010D01*
X163520480Y-93454010D02*
X162315010Y-94659480D01*
X167403990Y-93454010D02*
X163520480Y-93454010D01*
X177038000Y-88392000D02*
X172466000Y-88392000D01*
X172466000Y-88392000D02*
X167403990Y-93454010D01*
X193257001Y-91132509D02*
X193257001Y-82201999D01*
X176995010Y-104101990D02*
X177655999Y-103441001D01*
X177655999Y-103441001D02*
X180948509Y-103441001D01*
X173250000Y-103705702D02*
X173646288Y-104101990D01*
X180948509Y-103441001D02*
X193257001Y-91132509D01*
X173646288Y-104101990D02*
X176995010Y-104101990D01*
X173250000Y-102865000D02*
X173250000Y-103705702D01*
X195195000Y-80264000D02*
X196342000Y-80264000D01*
X193257001Y-82201999D02*
X195195000Y-80264000D01*
X199277000Y-80264000D02*
X196342000Y-80264000D01*
X142240000Y-114074000D02*
X143538000Y-112776000D01*
X142240000Y-115570000D02*
X142240000Y-114074000D01*
X140970000Y-96266000D02*
X139954000Y-97282000D01*
X144083000Y-96266000D02*
X140970000Y-96266000D01*
X140208000Y-94996000D02*
X139954000Y-94742000D01*
X144083000Y-94996000D02*
X140208000Y-94996000D01*
X141478000Y-93726000D02*
X139954000Y-92202000D01*
X144083000Y-93726000D02*
X141478000Y-93726000D01*
X140314000Y-89662000D02*
X139954000Y-89662000D01*
X143108000Y-92456000D02*
X140314000Y-89662000D01*
X144083000Y-92456000D02*
X143108000Y-92456000D01*
X141076000Y-107442000D02*
X139954000Y-107442000D01*
X143108000Y-109474000D02*
X141076000Y-107442000D01*
X144083000Y-109474000D02*
X143108000Y-109474000D01*
X139954000Y-105050000D02*
X139954000Y-104902000D01*
X143108000Y-108204000D02*
X139954000Y-105050000D01*
X144083000Y-108204000D02*
X143108000Y-108204000D01*
X139954000Y-103181768D02*
X139954000Y-102362000D01*
X143706232Y-106934000D02*
X139954000Y-103181768D01*
X144083000Y-106934000D02*
X143706232Y-106934000D01*
X141129001Y-100997001D02*
X139954000Y-99822000D01*
X143108000Y-105664000D02*
X141129001Y-103685001D01*
X141129001Y-103685001D02*
X141129001Y-100997001D01*
X144083000Y-105664000D02*
X143108000Y-105664000D01*
X150114000Y-99330000D02*
X148320000Y-99330000D01*
X148320000Y-99330000D02*
X147574000Y-100076000D01*
X147574000Y-100076000D02*
X147574000Y-100076000D01*
X145288000Y-114808000D02*
X146304000Y-113792000D01*
X146304000Y-109728000D02*
X146246010Y-109670010D01*
X146304000Y-113792000D02*
X146304000Y-109728000D01*
X146246010Y-105467990D02*
X147066000Y-104648000D01*
X146246010Y-109670010D02*
X146246010Y-105467990D01*
X164325000Y-109790000D02*
X161757118Y-109790000D01*
X149939001Y-100554999D02*
X149164000Y-101330000D01*
X152522117Y-100554999D02*
X149939001Y-100554999D01*
X161757118Y-109790000D02*
X152522117Y-100554999D01*
X155448000Y-111224000D02*
X155448000Y-112014000D01*
X155448000Y-112014000D02*
X156718000Y-113284000D01*
X156718000Y-113284000D02*
X158242000Y-113284000D01*
X158242000Y-113284000D02*
X159512000Y-112014000D01*
X159512000Y-112014000D02*
X159512000Y-112014000D01*
X167070000Y-109790000D02*
X164325000Y-109790000D01*
X167894000Y-108966000D02*
X167070000Y-109790000D01*
X164325000Y-109290000D02*
X161893528Y-109290000D01*
X145643999Y-98554999D02*
X145354000Y-98844998D01*
X151158527Y-98554999D02*
X145643999Y-98554999D01*
X145354000Y-98844998D02*
X145354000Y-101330000D01*
X161893528Y-109290000D02*
X151158527Y-98554999D01*
X157226000Y-111506000D02*
X158242000Y-111506000D01*
X158242000Y-111506000D02*
X158750000Y-110998000D01*
X158750000Y-110998000D02*
X158750000Y-110998000D01*
X166300000Y-109290000D02*
X166878000Y-108712000D01*
X164325000Y-109290000D02*
X166300000Y-109290000D01*
X146304000Y-101815002D02*
X145796000Y-102323002D01*
X146304000Y-99330000D02*
X146304000Y-101815002D01*
X145796000Y-102323002D02*
X145796000Y-102870000D01*
X145796000Y-102870000D02*
X145796000Y-102870000D01*
X145796000Y-112268000D02*
X145796000Y-104648000D01*
X145288000Y-112776000D02*
X145796000Y-112268000D01*
X166104600Y-124460000D02*
X166674800Y-123889800D01*
X163830000Y-124460000D02*
X166104600Y-124460000D01*
X167106600Y-63093600D02*
X167132000Y-63119000D01*
X163957000Y-63093600D02*
X167106600Y-63093600D01*
X204139800Y-68757800D02*
X198678800Y-63296800D01*
X204139800Y-69635400D02*
X204139800Y-68757800D01*
X199567800Y-124790200D02*
X199161400Y-124383800D01*
X202629800Y-124790200D02*
X199567800Y-124790200D01*
X163181000Y-79629000D02*
X163104800Y-79705200D01*
X166395400Y-79629000D02*
X163181000Y-79629000D01*
X164352000Y-127522000D02*
X163830000Y-127000000D01*
X166674800Y-127522000D02*
X164352000Y-127522000D01*
X163104800Y-79705200D02*
X163118800Y-79705200D01*
X149352000Y-126238000D02*
X149352000Y-126238000D01*
X163830000Y-127000000D02*
X161798000Y-127000000D01*
X160782000Y-125984000D02*
X152400000Y-125984000D01*
X161798000Y-127000000D02*
X160782000Y-125984000D01*
X163104800Y-79705200D02*
X161885600Y-78486000D01*
X161885600Y-78486000D02*
X160020000Y-78486000D01*
X160020000Y-78486000D02*
X160020000Y-78486000D01*
X157443001Y-79284999D02*
X157747801Y-78980199D01*
X138328989Y-88365599D02*
X138810588Y-87884000D01*
X149352000Y-126238000D02*
X144056998Y-126238000D01*
X139421408Y-87884000D02*
X138810588Y-87884000D01*
X143398399Y-83907009D02*
X139421408Y-87884000D01*
X152567999Y-79661999D02*
X148322989Y-83907009D01*
X148322989Y-83907009D02*
X143398399Y-83907009D01*
X155484999Y-79661999D02*
X152567999Y-79661999D01*
X155861999Y-79284999D02*
X155484999Y-79661999D01*
X157443001Y-79284999D02*
X155861999Y-79284999D01*
X138328989Y-105015991D02*
X138328989Y-88365599D01*
X139389999Y-106077001D02*
X138328989Y-105015991D01*
X139389999Y-106228001D02*
X139389999Y-106077001D01*
X140875001Y-110102003D02*
X138778999Y-108006001D01*
X138778999Y-108006001D02*
X138778999Y-106839001D01*
X140875001Y-123056003D02*
X140875001Y-110102003D01*
X138778999Y-106839001D02*
X139389999Y-106228001D01*
X144056998Y-126238000D02*
X140875001Y-123056003D01*
X163460400Y-84709000D02*
X163206400Y-84963000D01*
X166395400Y-84709000D02*
X163460400Y-84709000D01*
X164377400Y-66054000D02*
X163957000Y-65633600D01*
X167106600Y-66054000D02*
X164377400Y-66054000D01*
X163957000Y-65633600D02*
X162560000Y-67030600D01*
X162560000Y-67030600D02*
X162560000Y-68326000D01*
X158829789Y-72056212D02*
X158829789Y-80823499D01*
X158829789Y-80823499D02*
X161064290Y-83058000D01*
X162560000Y-68326000D02*
X158829789Y-72056212D01*
X164744400Y-83058000D02*
X166395400Y-84709000D01*
X161064290Y-83058000D02*
X164744400Y-83058000D01*
X164098000Y-129272000D02*
X163830000Y-129540000D01*
X166674800Y-129272000D02*
X164098000Y-129272000D01*
X161368800Y-77165200D02*
X160070800Y-77165200D01*
X163830000Y-129540000D02*
X155448000Y-129540000D01*
X155448000Y-129540000D02*
X153162000Y-127254000D01*
X153162000Y-127254000D02*
X153162000Y-127254000D01*
X157988000Y-77216000D02*
X157734000Y-77216000D01*
X157734000Y-77216000D02*
X156115011Y-78834989D01*
X152758599Y-78834989D02*
X156115011Y-78834989D01*
X142857001Y-83456999D02*
X148136589Y-83456999D01*
X148136589Y-83456999D02*
X152758599Y-78834989D01*
X142748000Y-83566000D02*
X142857001Y-83456999D01*
X137040998Y-89017180D02*
X142492178Y-83566000D01*
X137040998Y-91694000D02*
X137040998Y-89017180D01*
X134772999Y-93961999D02*
X137040998Y-91694000D01*
X142492178Y-83566000D02*
X142748000Y-83566000D01*
X134772999Y-95522001D02*
X134772999Y-93961999D01*
X138328989Y-107205991D02*
X134772999Y-103650001D01*
X138328989Y-121146401D02*
X138328989Y-107205991D01*
X137878979Y-99103021D02*
X137878979Y-98627981D01*
X136398000Y-100584000D02*
X137878979Y-99103021D01*
X134772999Y-102089999D02*
X136278998Y-100584000D01*
X137878979Y-98627981D02*
X134772999Y-95522001D01*
X144690588Y-127508000D02*
X138328989Y-121146401D01*
X136278998Y-100584000D02*
X136398000Y-100584000D01*
X149860000Y-127508000D02*
X144690588Y-127508000D01*
X134772999Y-103650001D02*
X134772999Y-102089999D01*
D28*
X163195000Y-77089000D02*
X163118800Y-77165200D01*
X166395400Y-77089000D02*
X163195000Y-77089000D01*
X163245800Y-82169000D02*
X163144200Y-82067400D01*
X166395400Y-82169000D02*
X163245800Y-82169000D01*
D25*
X164326600Y-67804000D02*
X163957000Y-68173600D01*
X167106600Y-67804000D02*
X164326600Y-67804000D01*
X160869200Y-82067400D02*
X161394200Y-82067400D01*
X159279799Y-72850801D02*
X159279799Y-80477999D01*
X159279799Y-80477999D02*
X160869200Y-82067400D01*
X163957000Y-68173600D02*
X159279799Y-72850801D01*
X201648000Y-71346000D02*
X198678800Y-68376800D01*
X202412600Y-71346000D02*
X201648000Y-71346000D01*
X169610599Y-70927401D02*
X175452599Y-70927401D01*
X168242989Y-72295011D02*
X169610599Y-70927401D01*
X168242989Y-73940401D02*
X168242989Y-72295011D01*
X168402000Y-74099412D02*
X168242989Y-73940401D01*
X168402000Y-76057404D02*
X168402000Y-74099412D01*
X168076702Y-76382702D02*
X168402000Y-76057404D01*
X161456400Y-86723200D02*
X162327600Y-85852000D01*
X178003200Y-68376800D02*
X198678800Y-68376800D01*
X168076702Y-85018702D02*
X168076702Y-76382702D01*
X175452599Y-70927401D02*
X178003200Y-68376800D01*
X162327600Y-85852000D02*
X167243404Y-85852000D01*
X167243404Y-85852000D02*
X168076702Y-85018702D01*
X161456400Y-87198200D02*
X161456400Y-86723200D01*
D28*
X163257200Y-87249000D02*
X163206400Y-87198200D01*
X166395400Y-87249000D02*
X163257200Y-87249000D01*
X163271200Y-92329000D02*
X163220400Y-92379800D01*
X166395400Y-92329000D02*
X163271200Y-92329000D01*
D25*
X201712800Y-129463800D02*
X202590400Y-128586200D01*
X199161400Y-129463800D02*
X201712800Y-129463800D01*
X167261394Y-90914010D02*
X169926000Y-88249404D01*
X162936190Y-90914010D02*
X167261394Y-90914010D01*
X161470400Y-92379800D02*
X162936190Y-90914010D01*
X169926000Y-88249404D02*
X169926000Y-76200000D01*
X169926000Y-76200000D02*
X169926000Y-76200000D01*
X169869999Y-135541001D02*
X193084199Y-135541001D01*
X149878089Y-133331911D02*
X149991177Y-133444999D01*
X152341179Y-135795001D02*
X149878089Y-133331911D01*
X169615999Y-135795001D02*
X152341179Y-135795001D01*
X169869999Y-135541001D02*
X169615999Y-135795001D01*
X199879201Y-133368799D02*
X195256401Y-133368799D01*
X200336401Y-132911599D02*
X199879201Y-133368799D01*
X195256401Y-133368799D02*
X193084199Y-135541001D01*
X200336401Y-130638801D02*
X200336401Y-132911599D01*
X199161400Y-129463800D02*
X200336401Y-130638801D01*
X135890000Y-97275412D02*
X134322989Y-95708401D01*
X134322989Y-103836401D02*
X134322990Y-101903598D01*
X134322990Y-101903598D02*
X135890000Y-100336588D01*
X135890000Y-100336588D02*
X135890000Y-97275412D01*
X137878979Y-116256019D02*
X137878979Y-107392391D01*
X155702000Y-77470000D02*
X157480000Y-75692000D01*
X137878979Y-107392391D02*
X134322989Y-103836401D01*
X149878089Y-133331911D02*
X147182909Y-133331911D01*
X147182909Y-133331911D02*
X137878979Y-124027981D01*
X137878979Y-124027981D02*
X137878979Y-121332801D01*
X137878979Y-121332801D02*
X137878979Y-116332000D01*
X134576990Y-86155598D02*
X139706588Y-81026000D01*
X135991001Y-89341021D02*
X134576990Y-87927010D01*
X135991001Y-91506977D02*
X135991001Y-89341021D01*
X134322989Y-93174989D02*
X135991001Y-91506977D01*
X134576990Y-87927010D02*
X134576990Y-86155598D01*
X134322989Y-95708401D02*
X134322989Y-93174989D01*
X149469002Y-81026000D02*
X139706588Y-81026000D01*
X153025002Y-77470000D02*
X149469002Y-81026000D01*
X155702000Y-77470000D02*
X153025002Y-77470000D01*
X163308000Y-89839800D02*
X163398200Y-89839800D01*
X166344600Y-89839800D02*
X166395400Y-89789000D01*
X163308000Y-89839800D02*
X166344600Y-89839800D01*
X202412600Y-69570600D02*
X198678800Y-65836800D01*
X202412600Y-69596000D02*
X202412600Y-69570600D01*
X168692999Y-73754001D02*
X168692999Y-73057999D01*
X168852009Y-87332391D02*
X168852009Y-73913011D01*
X168852009Y-73913011D02*
X168692999Y-73754001D01*
X170373587Y-71377411D02*
X193290589Y-71377411D01*
X168692999Y-73057999D02*
X170373587Y-71377411D01*
X166395400Y-89789000D02*
X168852009Y-87332391D01*
X193290589Y-71377411D02*
X195072000Y-69596000D01*
X195072000Y-69596000D02*
X195072000Y-69596000D01*
X202502800Y-126923800D02*
X202590400Y-126836200D01*
X199161400Y-126923800D02*
X202502800Y-126923800D01*
X163426000Y-94869000D02*
X163215000Y-95080000D01*
X166395400Y-94869000D02*
X163426000Y-94869000D01*
X163392999Y-61918599D02*
X156210000Y-69101598D01*
X204345001Y-61918599D02*
X163392999Y-61918599D01*
X205122801Y-127039201D02*
X207307021Y-124854981D01*
X207307021Y-64880619D02*
X204345001Y-61918599D01*
X207307021Y-124854981D02*
X207307021Y-64880619D01*
X202793401Y-127039201D02*
X205122801Y-127039201D01*
X202590400Y-126836200D02*
X202793401Y-127039201D01*
X156210000Y-69101598D02*
X156210000Y-73914000D01*
X156210000Y-73914000D02*
X156210000Y-73914000D01*
X160470998Y-96520000D02*
X161290000Y-96520000D01*
X155810001Y-91859003D02*
X160470998Y-96520000D01*
X155810001Y-80409999D02*
X155810001Y-91859003D01*
X156210000Y-80010000D02*
X155810001Y-80409999D01*
X177114200Y-77089000D02*
X177165000Y-77139800D01*
X174015400Y-77089000D02*
X177114200Y-77089000D01*
X178511200Y-78486000D02*
X177165000Y-77139800D01*
X181675000Y-78486000D02*
X178511200Y-78486000D01*
X174066200Y-82219800D02*
X174015400Y-82169000D01*
X177215800Y-82219800D02*
X174066200Y-82219800D01*
X176428400Y-79756000D02*
X174015400Y-82169000D01*
X181675000Y-79756000D02*
X176428400Y-79756000D01*
X174040800Y-87223600D02*
X174015400Y-87249000D01*
X179815810Y-82690300D02*
X179286110Y-83220000D01*
X179286110Y-83220000D02*
X177950000Y-83220000D01*
X177229800Y-83940200D02*
X177229800Y-83940200D01*
X177950000Y-83220000D02*
X177229800Y-83940200D01*
X179815810Y-81910190D02*
X179815810Y-82690300D01*
X180700000Y-81026000D02*
X179815810Y-81910190D01*
X181675000Y-81026000D02*
X180700000Y-81026000D01*
X177229800Y-83940200D02*
X177229800Y-87223600D01*
X174091600Y-92405200D02*
X174015400Y-92329000D01*
X177292000Y-92405200D02*
X174091600Y-92405200D01*
X179472510Y-83670010D02*
X178389990Y-83670010D01*
X178079810Y-91617390D02*
X177292000Y-92405200D01*
X178079810Y-83980190D02*
X178079810Y-91617390D01*
X178389990Y-83670010D02*
X178079810Y-83980190D01*
X180846520Y-82296000D02*
X179472511Y-83670009D01*
X181675000Y-82296000D02*
X180846520Y-82296000D01*
X169672000Y-68295600D02*
X169951400Y-68016200D01*
X169672000Y-69850000D02*
X169672000Y-68295600D01*
X178250990Y-106765010D02*
X178336000Y-106680000D01*
X175936990Y-106765010D02*
X178250990Y-106765010D01*
X175912000Y-106790000D02*
X175936990Y-106765010D01*
X175675000Y-106790000D02*
X175912000Y-106790000D01*
X178183702Y-108458000D02*
X178308000Y-108458000D01*
X176515702Y-106790000D02*
X178183702Y-108458000D01*
X175675000Y-106790000D02*
X176515702Y-106790000D01*
X206857011Y-80873011D02*
X204978000Y-78994000D01*
X206857011Y-98919991D02*
X206857011Y-80873011D01*
X205796001Y-99981001D02*
X206857011Y-98919991D01*
X204857997Y-99981001D02*
X205796001Y-99981001D01*
X203772205Y-101066793D02*
X204857997Y-99981001D01*
X203772205Y-102426205D02*
X203772205Y-101066793D01*
X205232000Y-103886000D02*
X203772205Y-102426205D01*
X170750000Y-103705702D02*
X171692298Y-104648000D01*
X170750000Y-102865000D02*
X170750000Y-103705702D01*
X171692298Y-104648000D02*
X172212000Y-104648000D01*
X172212000Y-104648000D02*
X172212000Y-104648000D01*
X168910000Y-95250000D02*
X170180000Y-95250000D01*
X166370000Y-97790000D02*
X168910000Y-95250000D01*
X166370000Y-98693000D02*
X166370000Y-97790000D01*
X170750000Y-101027180D02*
X176019180Y-95758000D01*
X170750000Y-102865000D02*
X170750000Y-101027180D01*
X174881394Y-93743990D02*
X171686010Y-93743990D01*
X171686010Y-93743990D02*
X170180000Y-95250000D01*
X176019180Y-94881776D02*
X174881394Y-93743990D01*
X176019180Y-95758000D02*
X176019180Y-94881776D01*
X175613000Y-116078000D02*
X173750000Y-114215000D01*
X176276000Y-116078000D02*
X175613000Y-116078000D01*
X138778999Y-97846001D02*
X139579997Y-98646999D01*
X138778999Y-88551999D02*
X138778999Y-97846001D01*
X138843999Y-88486999D02*
X138778999Y-88551999D01*
X142653999Y-88486999D02*
X138843999Y-88486999D01*
X139579997Y-98646999D02*
X140518001Y-98646999D01*
X144083000Y-89916000D02*
X142653999Y-88486999D01*
X144708010Y-103749010D02*
X144083000Y-103124000D01*
X150171768Y-103632000D02*
X150054758Y-103749010D01*
X150054758Y-103749010D02*
X144708010Y-103749010D01*
X168741000Y-114215000D02*
X168725010Y-114230990D01*
X168750000Y-114215000D02*
X168741000Y-114215000D01*
X151441768Y-103632000D02*
X152400000Y-103632000D01*
X147767992Y-105019010D02*
X150054758Y-105019010D01*
X147320000Y-105467002D02*
X147767992Y-105019010D01*
X147320000Y-112416000D02*
X147320000Y-105467002D01*
X148188000Y-113284000D02*
X147320000Y-112416000D01*
X149163000Y-113284000D02*
X148188000Y-113284000D01*
X150054758Y-105019010D02*
X151441768Y-103632000D01*
X152400000Y-103632000D02*
X150171768Y-103632000D01*
X168750000Y-115055702D02*
X168750000Y-114215000D01*
X168692999Y-115112703D02*
X168750000Y-115055702D01*
X182422778Y-119497010D02*
X179949010Y-119497010D01*
X184337768Y-121412000D02*
X182422778Y-119497010D01*
X186371000Y-121412000D02*
X184337768Y-121412000D01*
X178954019Y-118502019D02*
X173874019Y-118502019D01*
X179949010Y-119497010D02*
X178954019Y-118502019D01*
X173874019Y-118502019D02*
X172212000Y-116840000D01*
X172212000Y-116840000D02*
X172212000Y-116840000D01*
X168692999Y-115352999D02*
X169418000Y-116078000D01*
X168692999Y-115112703D02*
X168692999Y-115352999D01*
X168852010Y-116643990D02*
X169418000Y-116078000D01*
X163644192Y-116643990D02*
X168852010Y-116643990D01*
X162814000Y-111823888D02*
X161684250Y-112953638D01*
X161684249Y-114684047D02*
X163644192Y-116643990D01*
X162814000Y-111483292D02*
X162814000Y-111823888D01*
X154962708Y-103632000D02*
X162814000Y-111483292D01*
X161684250Y-112953638D02*
X161684249Y-114684047D01*
X152400000Y-103632000D02*
X154962708Y-103632000D01*
X144083000Y-87695000D02*
X143002000Y-86614000D01*
X144083000Y-89916000D02*
X144083000Y-87695000D01*
X142240000Y-100368998D02*
X140518001Y-98646999D01*
X142240000Y-102256000D02*
X142240000Y-100368998D01*
X143108000Y-103124000D02*
X142240000Y-102256000D01*
X144083000Y-103124000D02*
X143108000Y-103124000D01*
X165165702Y-106290000D02*
X165809702Y-106934000D01*
X164325000Y-106290000D02*
X165165702Y-106290000D01*
X181797768Y-115062000D02*
X181421000Y-115062000D01*
X182721010Y-111855010D02*
X182626000Y-111760000D01*
X182721010Y-114736990D02*
X182721010Y-111855010D01*
X182396000Y-115062000D02*
X182721010Y-114736990D01*
X181421000Y-115062000D02*
X182396000Y-115062000D01*
X181421000Y-115062000D02*
X182626000Y-115062000D01*
X182626000Y-115062000D02*
X183388000Y-115824000D01*
X183388000Y-115824000D02*
X183388000Y-115824000D01*
X167582998Y-105410000D02*
X168656000Y-105410000D01*
X167168999Y-104996001D02*
X167582998Y-105410000D01*
X167168999Y-104124701D02*
X167168999Y-104996001D01*
X166750000Y-103705702D02*
X167168999Y-104124701D01*
X166750000Y-102865000D02*
X166750000Y-103705702D01*
X177732096Y-116332000D02*
X181421000Y-116332000D01*
X173975001Y-112574905D02*
X177732096Y-116332000D01*
X173975001Y-112195999D02*
X173975001Y-112574905D01*
X169926000Y-107188000D02*
X169106010Y-108007990D01*
X173598001Y-111818999D02*
X173975001Y-112195999D01*
X169926000Y-106680000D02*
X169926000Y-107188000D01*
X169635001Y-111977001D02*
X170528001Y-111977001D01*
X169106010Y-111448010D02*
X169635001Y-111977001D01*
X169106010Y-108007990D02*
X169106010Y-111448010D01*
X170528001Y-111977001D02*
X170905001Y-111600001D01*
X170905001Y-111600001D02*
X171101999Y-111600001D01*
X171101999Y-111600001D02*
X171196000Y-111506000D01*
X171196000Y-111506000D02*
X173228000Y-111506000D01*
X173540999Y-111818999D02*
X173228000Y-111506000D01*
X173598001Y-111818999D02*
X173540999Y-111818999D01*
X149033000Y-96266000D02*
X149606000Y-95693000D01*
X150557000Y-95693000D02*
X151638000Y-96774000D01*
X149606000Y-95693000D02*
X150557000Y-95693000D01*
X151638000Y-94996000D02*
X149033000Y-94996000D01*
X149541000Y-93218000D02*
X149033000Y-93726000D01*
X151638000Y-93218000D02*
X149541000Y-93218000D01*
X157226000Y-119634000D02*
X158496000Y-118364000D01*
X154113000Y-119634000D02*
X157226000Y-119634000D01*
X165551599Y-110614989D02*
X167007011Y-110614989D01*
X165376588Y-110790000D02*
X165551599Y-110614989D01*
X164325000Y-110790000D02*
X165376588Y-110790000D01*
X167386000Y-110236000D02*
X167007011Y-110614989D01*
X167894000Y-110236000D02*
X167386000Y-110236000D01*
X152812990Y-118689010D02*
X152812990Y-119980758D01*
X153091242Y-120259010D02*
X157870990Y-120259010D01*
X152812990Y-119980758D02*
X153091242Y-120259010D01*
X153138000Y-118364000D02*
X152812990Y-118689010D01*
X154113000Y-118364000D02*
X153138000Y-118364000D01*
X157870990Y-120259010D02*
X160274000Y-117856000D01*
X160274000Y-117856000D02*
X160274000Y-117094000D01*
X160274000Y-117094000D02*
X160528000Y-116840000D01*
X160528000Y-116840000D02*
X160528000Y-116840000D01*
X167198999Y-111064999D02*
X167386000Y-111252000D01*
X164325000Y-111290000D02*
X165165702Y-111290000D01*
X167198999Y-111064999D02*
X165737999Y-111064999D01*
X165512998Y-111290000D02*
X164325000Y-111290000D01*
X165737999Y-111064999D02*
X165512998Y-111290000D01*
X150622000Y-92456000D02*
X149033000Y-92456000D01*
X151638000Y-91440000D02*
X150622000Y-92456000D01*
X149287000Y-109728000D02*
X149033000Y-109474000D01*
X151384000Y-109728000D02*
X149287000Y-109728000D01*
X151384000Y-108204000D02*
X149033000Y-108204000D01*
X151130000Y-106934000D02*
X151384000Y-106680000D01*
X149033000Y-106934000D02*
X151130000Y-106934000D01*
X181421000Y-118872000D02*
X180086000Y-118872000D01*
X180086000Y-118872000D02*
X179266010Y-118052010D01*
X171750000Y-115192112D02*
X171750000Y-114215000D01*
X174609897Y-118052009D02*
X171750000Y-115192112D01*
X179266010Y-118052010D02*
X174609897Y-118052009D01*
X174796298Y-117602000D02*
X181421000Y-117602000D01*
X172250000Y-115055702D02*
X174796298Y-117602000D01*
X172250000Y-114215000D02*
X172250000Y-115055702D01*
X206407001Y-102521001D02*
X206407001Y-121468001D01*
X206407001Y-121468001D02*
X205701002Y-122174000D01*
X205232000Y-101346000D02*
X206407001Y-102521001D01*
X179520998Y-122174000D02*
X177800000Y-120453002D01*
X205701002Y-122174000D02*
X179520998Y-122174000D01*
X172750000Y-114215000D02*
X172750000Y-113314000D01*
X172750000Y-113314000D02*
X171958000Y-112522000D01*
X171958000Y-112522000D02*
X171958000Y-112522000D01*
X177800000Y-120453002D02*
X177800000Y-119634000D01*
X177800000Y-119634000D02*
X178181000Y-119253000D01*
X179048000Y-112290000D02*
X175675000Y-112290000D01*
X180340000Y-110998000D02*
X179048000Y-112290000D01*
X181001590Y-110998000D02*
X180340000Y-110998000D01*
X181825990Y-109489500D02*
X181825990Y-110173600D01*
X187452000Y-111570978D02*
X185013012Y-109131990D01*
X187452000Y-112776000D02*
X187452000Y-111570978D01*
X188017990Y-113341990D02*
X187452000Y-112776000D01*
X203322195Y-100715805D02*
X203322195Y-108834195D01*
X185013012Y-109131990D02*
X182183500Y-109131990D01*
X181825990Y-110173600D02*
X181001590Y-110998000D01*
X199078010Y-113341990D02*
X188017990Y-113341990D01*
X202692000Y-109728000D02*
X199078010Y-113341990D01*
X182183500Y-109131990D02*
X181825990Y-109489500D01*
X203322195Y-108834195D02*
X202692000Y-109464390D01*
X202692000Y-109464390D02*
X202692000Y-109728000D01*
X205232000Y-98806000D02*
X203322195Y-100715805D01*
X180153599Y-110547991D02*
X178911590Y-111790000D01*
X180815190Y-110547990D02*
X180153599Y-110547991D01*
X181356000Y-110007180D02*
X180815190Y-110547990D01*
X181356000Y-109323080D02*
X181356000Y-110007180D01*
X181997099Y-108681981D02*
X181356000Y-109323080D01*
X178911590Y-111790000D02*
X175675000Y-111790000D01*
X202872185Y-108647795D02*
X198743980Y-112776000D01*
X185199413Y-108681981D02*
X181997099Y-108681981D01*
X187902009Y-111384577D02*
X185199413Y-108681981D01*
X198743980Y-112776000D02*
X188722000Y-112776000D01*
X187902010Y-111956010D02*
X187902009Y-111384577D01*
X202872185Y-100529405D02*
X202872185Y-108647795D01*
X205232000Y-96266000D02*
X203200000Y-98298000D01*
X203200000Y-100201590D02*
X202872185Y-100529405D01*
X188722000Y-112776000D02*
X187902010Y-111956010D01*
X203200000Y-98298000D02*
X203200000Y-100201590D01*
X177787500Y-109258010D02*
X177319490Y-108790000D01*
X180784660Y-109258010D02*
X177787500Y-109258010D01*
X182092670Y-107950000D02*
X180784660Y-109258010D01*
X185103842Y-107950000D02*
X182092670Y-107950000D01*
X189230000Y-112268000D02*
X188352018Y-111390018D01*
X202422175Y-97336823D02*
X202422175Y-108461395D01*
X188352018Y-111390018D02*
X188352018Y-111198176D01*
X202422175Y-108461395D02*
X198615570Y-112268000D01*
X188352018Y-111198176D02*
X185103842Y-107950000D01*
X204667999Y-95090999D02*
X202422175Y-97336823D01*
X198615570Y-112268000D02*
X189230000Y-112268000D01*
X205606003Y-95090999D02*
X204667999Y-95090999D01*
X177319490Y-108790000D02*
X175675000Y-108790000D01*
X206407001Y-94290001D02*
X205606003Y-95090999D01*
X206407001Y-92361001D02*
X206407001Y-94290001D01*
X205232000Y-91186000D02*
X206407001Y-92361001D01*
X155088000Y-117094000D02*
X156464000Y-118470000D01*
X154113000Y-117094000D02*
X155088000Y-117094000D01*
X156464000Y-118470000D02*
X156464000Y-118618000D01*
X156464000Y-118618000D02*
X156464000Y-118618000D01*
X170237002Y-111252000D02*
X170180000Y-111252000D01*
X173699002Y-107790000D02*
X170237002Y-111252000D01*
X175675000Y-107790000D02*
X173699002Y-107790000D01*
X155088000Y-115824000D02*
X157173000Y-117909000D01*
X154113000Y-115824000D02*
X155088000Y-115824000D01*
X157173000Y-117909000D02*
X157226000Y-117962000D01*
X173126000Y-107290000D02*
X170434000Y-109982000D01*
X175675000Y-107290000D02*
X173126000Y-107290000D01*
X150876000Y-105664000D02*
X151384000Y-105156000D01*
X149033000Y-105664000D02*
X150876000Y-105664000D01*
X181421000Y-120142000D02*
X180594000Y-120142000D01*
X153388000Y-91875888D02*
X153388000Y-91440000D01*
X166392056Y-104879944D02*
X153388000Y-91875888D01*
X167250000Y-113374298D02*
X167250000Y-114215000D01*
X168111001Y-112513297D02*
X167250000Y-113374298D01*
X168111001Y-112513297D02*
X168156703Y-112513297D01*
X168156703Y-112513297D02*
X168656000Y-112014000D01*
X168656000Y-112014000D02*
X168656000Y-108458000D01*
X168656000Y-108458000D02*
X168656000Y-106934000D01*
X152410010Y-94195990D02*
X153388000Y-93218000D01*
X147732990Y-94649242D02*
X148011242Y-94370990D01*
X148011242Y-96891010D02*
X147732990Y-96612758D01*
X147732990Y-96612758D02*
X147732990Y-94649242D01*
X164325000Y-107290000D02*
X162966000Y-107290000D01*
X162966000Y-107290000D02*
X162306000Y-107950000D01*
X161189938Y-107950000D02*
X150267938Y-97028000D01*
X162306000Y-107950000D02*
X161189938Y-107950000D01*
X150034778Y-96891010D02*
X148011242Y-96891010D01*
X150171768Y-97028000D02*
X150034778Y-96891010D01*
X150267938Y-97028000D02*
X150171768Y-97028000D01*
X150425990Y-94195990D02*
X152410010Y-94195990D01*
X150270970Y-94351010D02*
X150425990Y-94195990D01*
X148218990Y-94351010D02*
X150270970Y-94351010D01*
X148199010Y-94370990D02*
X148218990Y-94351010D01*
X148011242Y-94370990D02*
X148199010Y-94370990D01*
X156737888Y-106680000D02*
X153134000Y-106680000D01*
X156737888Y-106680000D02*
X156718000Y-106680000D01*
X161347990Y-111290102D02*
X156737888Y-106680000D01*
X161544000Y-111486112D02*
X161347990Y-111290102D01*
X161544000Y-111821068D02*
X161544000Y-111486112D01*
X170750000Y-114215000D02*
X170750000Y-116652410D01*
X160784231Y-115056845D02*
X160784232Y-112580836D01*
X169858400Y-117544010D02*
X163271392Y-117544008D01*
X170750000Y-116652410D02*
X169858400Y-117544010D01*
X160784232Y-112580836D02*
X161544000Y-111821068D01*
X163271392Y-117544008D02*
X160784231Y-115056845D01*
X153134000Y-105156000D02*
X154432000Y-105156000D01*
X154432000Y-105156000D02*
X155194000Y-105918000D01*
X155194000Y-105918000D02*
X155194000Y-105918000D01*
X174050998Y-106290000D02*
X175675000Y-106290000D01*
X173518999Y-105758001D02*
X174050998Y-106290000D01*
X169381001Y-105758001D02*
X173518999Y-105758001D01*
X169004001Y-106135001D02*
X169381001Y-105758001D01*
X168307999Y-106135001D02*
X169004001Y-106135001D01*
X168090998Y-105918000D02*
X168307999Y-106135001D01*
X166370000Y-105918000D02*
X168090998Y-105918000D01*
X163550000Y-104790000D02*
X162814000Y-104054000D01*
X164325000Y-104790000D02*
X163550000Y-104790000D01*
X162814000Y-104054000D02*
X162814000Y-103124000D01*
X156464000Y-96774000D02*
X153388000Y-96774000D01*
X162814000Y-103124000D02*
X156464000Y-96774000D01*
X152537990Y-95846010D02*
X153388000Y-94996000D01*
X152537990Y-98661642D02*
X152537990Y-95846010D01*
X162431590Y-107188000D02*
X161064348Y-107188000D01*
X161064348Y-107188000D02*
X152537990Y-98661642D01*
X162829590Y-106790000D02*
X162431590Y-107188000D01*
X164325000Y-106790000D02*
X162829590Y-106790000D01*
X152234010Y-108828010D02*
X153134000Y-109728000D01*
X152829490Y-104140000D02*
X152234010Y-104735480D01*
X163457793Y-117093999D02*
X161234240Y-114870446D01*
X152234010Y-104735480D02*
X152234010Y-108828010D01*
X161234241Y-112767237D02*
X162052000Y-111949478D01*
X154834298Y-104140000D02*
X152829490Y-104140000D01*
X162052000Y-111357702D02*
X154834298Y-104140000D01*
X161234240Y-114870446D02*
X161234241Y-112767237D01*
X162052000Y-111949478D02*
X162052000Y-111357702D01*
X169672000Y-117094000D02*
X163457793Y-117093999D01*
X170250000Y-116516000D02*
X170250000Y-114215000D01*
X169672000Y-117094000D02*
X170250000Y-116516000D01*
X157625478Y-108204000D02*
X153134000Y-108204000D01*
X160897980Y-111830678D02*
X160897980Y-111476502D01*
X160334223Y-112394435D02*
X160897980Y-111830678D01*
X160334222Y-115243244D02*
X160334223Y-112394435D01*
X160897980Y-111476502D02*
X157625478Y-108204000D01*
X170044801Y-117994019D02*
X163084991Y-117994016D01*
X171250000Y-114215000D02*
X171250000Y-116788820D01*
X163084991Y-117994016D02*
X160334222Y-115243244D01*
X171250000Y-116788820D02*
X170044801Y-117994019D01*
X189230000Y-82296000D02*
X186625000Y-82296000D01*
X186625000Y-82296000D02*
X185420000Y-82296000D01*
X185420000Y-82296000D02*
X184150000Y-83566000D01*
X184150000Y-83566000D02*
X184150000Y-83566000D01*
X168750000Y-101161510D02*
X168948010Y-100963500D01*
X168948010Y-100963500D02*
X168948010Y-99213500D01*
X168750000Y-102865000D02*
X168750000Y-101161510D01*
X168948010Y-99213500D02*
X168948010Y-98005990D01*
X168948010Y-98005990D02*
X168948010Y-97808992D01*
X169127001Y-97630001D02*
X169127001Y-97064999D01*
X168948010Y-97808992D02*
X169127001Y-97630001D01*
X169127001Y-97064999D02*
X169418000Y-96774000D01*
X184150000Y-83566000D02*
X183896000Y-83566000D01*
X187133000Y-80518000D02*
X186625000Y-81026000D01*
X189230000Y-80518000D02*
X187133000Y-80518000D01*
X184150000Y-81788000D02*
X184150000Y-81788000D01*
X184912000Y-81026000D02*
X186625000Y-81026000D01*
X183896000Y-82042000D02*
X184912000Y-81026000D01*
X169200010Y-101347910D02*
X169398020Y-101149900D01*
X169418000Y-98298000D02*
X169926000Y-97790000D01*
X169398020Y-101149900D02*
X169398020Y-98298000D01*
X169398020Y-98298000D02*
X169418000Y-98298000D01*
X169200010Y-101974308D02*
X169200010Y-101347910D01*
X169250000Y-102024298D02*
X169200010Y-101974308D01*
X169250000Y-102865000D02*
X169250000Y-102024298D01*
X188214000Y-79756000D02*
X186625000Y-79756000D01*
X189230000Y-78740000D02*
X188214000Y-79756000D01*
X186625000Y-79756000D02*
X184658000Y-79756000D01*
X184658000Y-79756000D02*
X184150000Y-80264000D01*
X184150000Y-80264000D02*
X184150000Y-80264000D01*
X169848030Y-101336300D02*
X169848030Y-99586300D01*
X169750000Y-101434330D02*
X169848030Y-101336300D01*
X169750000Y-102865000D02*
X169750000Y-101434330D01*
X184150000Y-80518000D02*
X183896000Y-80772000D01*
X184150000Y-80264000D02*
X184150000Y-80518000D01*
X169848030Y-99586300D02*
X169848030Y-99391970D01*
X169848030Y-99391970D02*
X170434000Y-98806000D01*
X170434000Y-98806000D02*
X170434000Y-98806000D01*
X187734000Y-78486000D02*
X189258000Y-76962000D01*
X186625000Y-78486000D02*
X187734000Y-78486000D01*
X186625000Y-78486000D02*
X184658000Y-78486000D01*
X171646998Y-98863002D02*
X172720000Y-97790000D01*
X171450000Y-98863002D02*
X171646998Y-98863002D01*
X170298040Y-100014962D02*
X171450000Y-98863002D01*
X170298040Y-101522700D02*
X170298040Y-100014962D01*
X170250000Y-101570740D02*
X170298040Y-101522700D01*
X170250000Y-102865000D02*
X170250000Y-101570740D01*
M02*
