%TF.GenerationSoftware,KiCad,Pcbnew,(5.1.6-0-10_14)*%
%TF.CreationDate,2022-03-25T15:42:39-05:00*%
%TF.ProjectId,ws2812b_hexagon_BACKUP_20220323,77733238-3132-4625-9f68-657861676f6e,rev?*%
%TF.SameCoordinates,Original*%
%TF.FileFunction,Copper,L4,Bot*%
%TF.FilePolarity,Positive*%
%FSLAX46Y46*%
G04 Gerber Fmt 4.6, Leading zero omitted, Abs format (unit mm)*
G04 Created by KiCad (PCBNEW (5.1.6-0-10_14)) date 2022-03-25 15:42:39*
%MOMM*%
%LPD*%
G01*
G04 APERTURE LIST*
%TA.AperFunction,ComponentPad*%
%ADD10C,0.100000*%
%TD*%
%TA.AperFunction,ComponentPad*%
%ADD11R,1.700000X1.700000*%
%TD*%
%TA.AperFunction,ComponentPad*%
%ADD12O,1.700000X1.700000*%
%TD*%
%TA.AperFunction,ViaPad*%
%ADD13C,1.200000*%
%TD*%
%TA.AperFunction,ViaPad*%
%ADD14C,1.000000*%
%TD*%
%TA.AperFunction,Conductor*%
%ADD15C,0.250000*%
%TD*%
%TA.AperFunction,Conductor*%
%ADD16C,1.000000*%
%TD*%
%TA.AperFunction,Conductor*%
%ADD17C,0.750000*%
%TD*%
G04 APERTURE END LIST*
%TO.P,J22,2*%
%TO.N,GND*%
%TA.AperFunction,ComponentPad*%
G36*
G01*
X132110329Y-136301694D02*
X132110329Y-136301694D01*
G75*
G02*
X132421451Y-135140572I736122J425000D01*
G01*
X132421451Y-135140572D01*
G75*
G02*
X133582573Y-135451694I425000J-736122D01*
G01*
X133582573Y-135451694D01*
G75*
G02*
X133271451Y-136612816I-736122J-425000D01*
G01*
X133271451Y-136612816D01*
G75*
G02*
X132110329Y-136301694I-425000J736122D01*
G01*
G37*
%TD.AperFunction*%
%TA.AperFunction,ComponentPad*%
D10*
%TO.P,J22,1*%
%TO.N,+5V*%
G36*
X131265329Y-134838111D02*
G01*
X130415329Y-133365867D01*
X131887573Y-132515867D01*
X132737573Y-133988111D01*
X131265329Y-134838111D01*
G37*
%TD.AperFunction*%
%TD*%
D11*
%TO.P,J18,1*%
%TO.N,+5V*%
X171862651Y-149293748D03*
D12*
%TO.P,J18,2*%
%TO.N,GND*%
X174402651Y-149293748D03*
%TD*%
D11*
%TO.P,J17,1*%
%TO.N,/in*%
X186284307Y-149292789D03*
%TD*%
%TO.P,J20,1*%
%TO.N,/in*%
X144197683Y-149296615D03*
%TD*%
%TA.AperFunction,ComponentPad*%
D10*
%TO.P,J21,1*%
%TO.N,/in*%
G36*
X139099231Y-145004909D02*
G01*
X139949231Y-146477153D01*
X138476987Y-147327153D01*
X137626987Y-145854909D01*
X139099231Y-145004909D01*
G37*
%TD.AperFunction*%
%TD*%
%TA.AperFunction,ComponentPad*%
%TO.P,J23,1*%
%TO.N,GND*%
G36*
X123368103Y-121156510D02*
G01*
X122518103Y-119684266D01*
X123990347Y-118834266D01*
X124840347Y-120306510D01*
X123368103Y-121156510D01*
G37*
%TD.AperFunction*%
%TO.P,J23,2*%
%TO.N,+5V*%
%TA.AperFunction,ComponentPad*%
G36*
G01*
X124213103Y-122620093D02*
X124213103Y-122620093D01*
G75*
G02*
X124524225Y-121458971I736122J425000D01*
G01*
X124524225Y-121458971D01*
G75*
G02*
X125685347Y-121770093I425000J-736122D01*
G01*
X125685347Y-121770093D01*
G75*
G02*
X125374225Y-122931215I-736122J-425000D01*
G01*
X125374225Y-122931215D01*
G75*
G02*
X124213103Y-122620093I-425000J736122D01*
G01*
G37*
%TD.AperFunction*%
%TD*%
%TA.AperFunction,ComponentPad*%
%TO.P,J24,1*%
%TO.N,/in*%
G36*
X118052605Y-108558736D02*
G01*
X118902605Y-110030980D01*
X117430361Y-110880980D01*
X116580361Y-109408736D01*
X118052605Y-108558736D01*
G37*
%TD.AperFunction*%
%TD*%
D12*
%TO.P,J19,2*%
%TO.N,+5V*%
X158605424Y-149292147D03*
D11*
%TO.P,J19,1*%
%TO.N,GND*%
X156065424Y-149292147D03*
%TD*%
%TO.P,J14,2*%
%TO.N,GND*%
%TA.AperFunction,ComponentPad*%
G36*
G01*
X207541395Y-120448840D02*
X207541395Y-120448840D01*
G75*
G02*
X206380273Y-120759962I-736122J425000D01*
G01*
X206380273Y-120759962D01*
G75*
G02*
X206069151Y-119598840I425000J736122D01*
G01*
X206069151Y-119598840D01*
G75*
G02*
X207230273Y-119287718I736122J-425000D01*
G01*
X207230273Y-119287718D01*
G75*
G02*
X207541395Y-120448840I-425000J-736122D01*
G01*
G37*
%TD.AperFunction*%
%TA.AperFunction,ComponentPad*%
D10*
%TO.P,J14,1*%
%TO.N,+5V*%
G36*
X206696395Y-121912423D02*
G01*
X205846395Y-123384667D01*
X204374151Y-122534667D01*
X205224151Y-121062423D01*
X206696395Y-121912423D01*
G37*
%TD.AperFunction*%
%TD*%
%TA.AperFunction,ComponentPad*%
%TO.P,J15,1*%
%TO.N,GND*%
G36*
X198796395Y-135592422D02*
G01*
X197946395Y-137064666D01*
X196474151Y-136214666D01*
X197324151Y-134742422D01*
X198796395Y-135592422D01*
G37*
%TD.AperFunction*%
%TO.P,J15,2*%
%TO.N,+5V*%
%TA.AperFunction,ComponentPad*%
G36*
G01*
X199641395Y-134128839D02*
X199641395Y-134128839D01*
G75*
G02*
X198480273Y-134439961I-736122J425000D01*
G01*
X198480273Y-134439961D01*
G75*
G02*
X198169151Y-133278839I425000J736122D01*
G01*
X198169151Y-133278839D01*
G75*
G02*
X199330273Y-132967717I736122J-425000D01*
G01*
X199330273Y-132967717D01*
G75*
G02*
X199641395Y-134128839I-425000J-736122D01*
G01*
G37*
%TD.AperFunction*%
%TD*%
%TA.AperFunction,ComponentPad*%
%TO.P,J13,1*%
%TO.N,/out*%
G36*
X211584150Y-110044667D02*
G01*
X212434150Y-108572423D01*
X213906394Y-109422423D01*
X213056394Y-110894667D01*
X211584150Y-110044667D01*
G37*
%TD.AperFunction*%
%TD*%
%TA.AperFunction,ComponentPad*%
%TO.P,J16,1*%
%TO.N,/in*%
G36*
X190544151Y-146494666D02*
G01*
X191394151Y-145022422D01*
X192866395Y-145872422D01*
X192016395Y-147344666D01*
X190544151Y-146494666D01*
G37*
%TD.AperFunction*%
%TD*%
%TA.AperFunction,ComponentPad*%
%TO.P,J12,1*%
%TO.N,/out*%
G36*
X212440528Y-104644546D02*
G01*
X211590528Y-103172302D01*
X213062772Y-102322302D01*
X213912772Y-103794546D01*
X212440528Y-104644546D01*
G37*
%TD.AperFunction*%
%TD*%
%TA.AperFunction,ComponentPad*%
%TO.P,J9,1*%
%TO.N,/in*%
G36*
X191393903Y-68198374D02*
G01*
X190543903Y-66726130D01*
X192016147Y-65876130D01*
X192866147Y-67348374D01*
X191393903Y-68198374D01*
G37*
%TD.AperFunction*%
%TD*%
%TA.AperFunction,ComponentPad*%
%TO.P,J10,1*%
%TO.N,+5V*%
G36*
X199227805Y-78365171D02*
G01*
X200077805Y-79837415D01*
X198605561Y-80687415D01*
X197755561Y-79215171D01*
X199227805Y-78365171D01*
G37*
%TD.AperFunction*%
%TO.P,J10,2*%
%TO.N,GND*%
%TA.AperFunction,ComponentPad*%
G36*
G01*
X198382805Y-76901588D02*
X198382805Y-76901588D01*
G75*
G02*
X198071683Y-78062710I-736122J-425000D01*
G01*
X198071683Y-78062710D01*
G75*
G02*
X196910561Y-77751588I-425000J736122D01*
G01*
X196910561Y-77751588D01*
G75*
G02*
X197221683Y-76590466I736122J425000D01*
G01*
X197221683Y-76590466D01*
G75*
G02*
X198382805Y-76901588I425000J-736122D01*
G01*
G37*
%TD.AperFunction*%
%TD*%
%TO.P,J11,2*%
%TO.N,+5V*%
%TA.AperFunction,ComponentPad*%
G36*
G01*
X206280032Y-90583188D02*
X206280032Y-90583188D01*
G75*
G02*
X205968910Y-91744310I-736122J-425000D01*
G01*
X205968910Y-91744310D01*
G75*
G02*
X204807788Y-91433188I-425000J736122D01*
G01*
X204807788Y-91433188D01*
G75*
G02*
X205118910Y-90272066I736122J425000D01*
G01*
X205118910Y-90272066D01*
G75*
G02*
X206280032Y-90583188I425000J-736122D01*
G01*
G37*
%TD.AperFunction*%
%TA.AperFunction,ComponentPad*%
%TO.P,J11,1*%
%TO.N,GND*%
G36*
X207125032Y-92046771D02*
G01*
X207975032Y-93519015D01*
X206502788Y-94369015D01*
X205652788Y-92896771D01*
X207125032Y-92046771D01*
G37*
%TD.AperFunction*%
%TD*%
D12*
%TO.P,J6,2*%
%TO.N,GND*%
X156074808Y-63896332D03*
D11*
%TO.P,J6,1*%
%TO.N,+5V*%
X158614808Y-63896332D03*
%TD*%
%TO.P,J7,1*%
%TO.N,GND*%
X174412035Y-63897933D03*
D12*
%TO.P,J7,2*%
%TO.N,+5V*%
X171872035Y-63897933D03*
%TD*%
D11*
%TO.P,J5,1*%
%TO.N,/in*%
X144193151Y-63897289D03*
%TD*%
%TO.P,J8,1*%
%TO.N,/in*%
X186279776Y-63893464D03*
%TD*%
%TA.AperFunction,ComponentPad*%
D10*
%TO.P,J4,1*%
%TO.N,/in*%
G36*
X139938321Y-66705704D02*
G01*
X139088321Y-68177948D01*
X137616077Y-67327948D01*
X138466077Y-65855704D01*
X139938321Y-66705704D01*
G37*
%TD.AperFunction*%
%TD*%
%TA.AperFunction,ComponentPad*%
%TO.P,J1,1*%
%TO.N,/in*%
G36*
X118898322Y-103155702D02*
G01*
X118048322Y-104627946D01*
X116576078Y-103777946D01*
X117426078Y-102305702D01*
X118898322Y-103155702D01*
G37*
%TD.AperFunction*%
%TD*%
%TA.AperFunction,ComponentPad*%
%TO.P,J2,1*%
%TO.N,+5V*%
G36*
X123786076Y-91287947D02*
G01*
X124636076Y-89815703D01*
X126108320Y-90665703D01*
X125258320Y-92137947D01*
X123786076Y-91287947D01*
G37*
%TD.AperFunction*%
%TO.P,J2,2*%
%TO.N,GND*%
%TA.AperFunction,ComponentPad*%
G36*
G01*
X122941076Y-92751530D02*
X122941076Y-92751530D01*
G75*
G02*
X124102198Y-92440408I736122J-425000D01*
G01*
X124102198Y-92440408D01*
G75*
G02*
X124413320Y-93601530I-425000J-736122D01*
G01*
X124413320Y-93601530D01*
G75*
G02*
X123252198Y-93912652I-736122J425000D01*
G01*
X123252198Y-93912652D01*
G75*
G02*
X122941076Y-92751530I425000J736122D01*
G01*
G37*
%TD.AperFunction*%
%TD*%
%TO.P,J3,2*%
%TO.N,+5V*%
%TA.AperFunction,ComponentPad*%
G36*
G01*
X130841076Y-79071531D02*
X130841076Y-79071531D01*
G75*
G02*
X132002198Y-78760409I736122J-425000D01*
G01*
X132002198Y-78760409D01*
G75*
G02*
X132313320Y-79921531I-425000J-736122D01*
G01*
X132313320Y-79921531D01*
G75*
G02*
X131152198Y-80232653I-736122J425000D01*
G01*
X131152198Y-80232653D01*
G75*
G02*
X130841076Y-79071531I425000J736122D01*
G01*
G37*
%TD.AperFunction*%
%TA.AperFunction,ComponentPad*%
%TO.P,J3,1*%
%TO.N,GND*%
G36*
X131686076Y-77607948D02*
G01*
X132536076Y-76135704D01*
X134008320Y-76985704D01*
X133158320Y-78457948D01*
X131686076Y-77607948D01*
G37*
%TD.AperFunction*%
%TD*%
D13*
%TO.N,GND*%
X118640000Y-101525145D03*
X125800000Y-88835146D03*
X133780000Y-75115145D03*
X145898181Y-64021819D03*
X160975216Y-64075216D03*
X194619336Y-71330664D03*
X202180000Y-84567209D03*
X210320000Y-114500000D03*
X204390000Y-124070000D03*
X181098606Y-149171394D03*
X169842002Y-149117998D03*
X135690000Y-141698488D03*
X130470000Y-131730000D03*
X120030000Y-105890000D03*
X128020000Y-93260000D03*
X135810000Y-79540000D03*
X143200000Y-67010000D03*
X157910000Y-67210000D03*
X173250000Y-67390000D03*
X188560000Y-68560000D03*
X195145000Y-80555000D03*
X203640000Y-95120000D03*
X202515000Y-119845000D03*
X193690000Y-134940000D03*
X186680000Y-145730000D03*
X171860000Y-145330000D03*
X141990000Y-144620000D03*
X134050000Y-130370000D03*
X126310000Y-116790000D03*
X210025000Y-107095000D03*
X155570000Y-145410000D03*
%TO.N,+5V*%
X124490000Y-95920000D03*
X132417840Y-82657840D03*
X140027839Y-69102161D03*
X152396174Y-65763826D03*
X167610000Y-65720000D03*
X184340000Y-66110000D03*
X194385000Y-75725000D03*
X202670000Y-89770000D03*
X206470000Y-113560000D03*
X198900000Y-126840000D03*
X177730000Y-147380000D03*
X146470000Y-147190000D03*
X135880000Y-137430000D03*
X120595000Y-111105000D03*
X207320000Y-101381027D03*
X165210000Y-149090000D03*
D14*
X128019478Y-124119478D03*
D13*
X191140000Y-140010000D03*
D14*
%TO.N,/out*%
X123110000Y-112960000D03*
%TD*%
D15*
%TO.N,/in*%
X117737200Y-103466824D02*
X118067323Y-103466824D01*
D16*
X141896736Y-63897289D02*
X138777199Y-67016826D01*
X144193151Y-63897289D02*
X141896736Y-63897289D01*
X118867178Y-103466824D02*
X117737200Y-103466824D01*
X125790001Y-93357729D02*
X125790001Y-96544001D01*
X125790001Y-96544001D02*
X118867178Y-103466824D01*
X131117839Y-82033839D02*
X131117839Y-88029891D01*
X135607065Y-77760666D02*
X132321199Y-81046532D01*
X131117839Y-88029891D02*
X125790001Y-93357729D01*
X135607065Y-71382935D02*
X135607065Y-77760666D01*
X132105146Y-81046532D02*
X131117839Y-82033839D01*
X132321199Y-81046532D02*
X132105146Y-81046532D01*
X138777199Y-68212801D02*
X135607065Y-71382935D01*
X138777199Y-67016826D02*
X138777199Y-68212801D01*
X117737200Y-109715575D02*
X117741483Y-109719858D01*
X117737200Y-103466824D02*
X117737200Y-109715575D01*
X141918693Y-149296615D02*
X138788109Y-146166031D01*
X144197683Y-149296615D02*
X141918693Y-149296615D01*
X184862911Y-147871393D02*
X186284307Y-149292789D01*
X179053209Y-149292789D02*
X180474605Y-147871393D01*
X176695694Y-149292789D02*
X179053209Y-149292789D01*
X175145051Y-147742146D02*
X176695694Y-149292789D01*
X154655423Y-147742146D02*
X175145051Y-147742146D01*
X144738787Y-149292789D02*
X153104780Y-149292789D01*
X153104780Y-149292789D02*
X154655423Y-147742146D01*
X180474605Y-147871393D02*
X184862911Y-147871393D01*
X188596028Y-149292789D02*
X191705273Y-146183544D01*
X186284307Y-149292789D02*
X188596028Y-149292789D01*
X189423564Y-67037252D02*
X186279776Y-63893464D01*
X191705025Y-67037252D02*
X189423564Y-67037252D01*
X191705273Y-146183544D02*
X191705273Y-146174727D01*
X117741483Y-110872226D02*
X117741483Y-109719858D01*
X120996047Y-114126790D02*
X117741483Y-110872226D01*
X120996047Y-114850000D02*
X120996047Y-114126790D01*
X125540357Y-119394310D02*
X120996047Y-114850000D01*
X126499226Y-121379226D02*
X125540357Y-120420357D01*
X126499226Y-124979226D02*
X126499226Y-121379226D01*
X128884002Y-128220000D02*
X128884002Y-127364002D01*
X131770001Y-131105999D02*
X128884002Y-128220000D01*
X131770001Y-131408329D02*
X131770001Y-131105999D01*
X134396452Y-134410182D02*
X133129999Y-133143729D01*
X133129999Y-132768327D02*
X131770001Y-131408329D01*
X134396452Y-138480938D02*
X134396452Y-134410182D01*
X125540357Y-120420357D02*
X125540357Y-119394310D01*
X133129999Y-133143729D02*
X133129999Y-132768327D01*
X128884002Y-127364002D02*
X126499226Y-124979226D01*
X138788109Y-146166031D02*
X138788109Y-142872595D01*
X138788109Y-142872595D02*
X134396452Y-138480938D01*
X147784002Y-64060000D02*
X146522182Y-65321820D01*
X146522182Y-65321820D02*
X145274180Y-65321820D01*
X152616350Y-64060000D02*
X147784002Y-64060000D01*
X145274180Y-65321820D02*
X144193151Y-64240791D01*
X154002683Y-65446333D02*
X152616350Y-64060000D01*
X162554435Y-64419999D02*
X161528101Y-65446333D01*
X169829999Y-64419999D02*
X162554435Y-64419999D01*
X161528101Y-65446333D02*
X154002683Y-65446333D01*
X170857934Y-65447934D02*
X169829999Y-64419999D01*
X175822036Y-65447934D02*
X170857934Y-65447934D01*
X144193151Y-64240791D02*
X144193151Y-63897289D01*
X177376506Y-63893464D02*
X175822036Y-65447934D01*
X186279776Y-63893464D02*
X177376506Y-63893464D01*
%TO.N,/out*%
X212745272Y-103489802D02*
X212751650Y-103483424D01*
D17*
X212751650Y-109727167D02*
X212745272Y-109733545D01*
X212751650Y-103483424D02*
X212751650Y-109727167D01*
X132845011Y-130945011D02*
X132845011Y-127505037D01*
X135471462Y-133571462D02*
X132845011Y-130945011D01*
X135471462Y-135282460D02*
X135471462Y-133571462D01*
X126175999Y-118445001D02*
X123110000Y-115379002D01*
X139863119Y-144232121D02*
X139863119Y-139674117D01*
X141425999Y-145795001D02*
X139863119Y-144232121D01*
X174152864Y-146667136D02*
X147686138Y-146667136D01*
X174615001Y-146204999D02*
X174152864Y-146667136D01*
X184716810Y-146204999D02*
X174615001Y-146204999D01*
X185416812Y-146905001D02*
X184716810Y-146204999D01*
X187244001Y-146905001D02*
X185416812Y-146905001D01*
X192315001Y-141834001D02*
X187244001Y-146905001D01*
X192315001Y-138081262D02*
X192315001Y-141834001D01*
X139863119Y-139674117D02*
X135471462Y-135282460D01*
X203214999Y-127181264D02*
X192315001Y-138081262D01*
X146814003Y-145795001D02*
X141425999Y-145795001D01*
X203214999Y-123505999D02*
X203214999Y-127181264D01*
X203799141Y-122921857D02*
X203214999Y-123505999D01*
X127304001Y-118445001D02*
X126175999Y-118445001D01*
X147686138Y-146667136D02*
X146814003Y-145795001D01*
X203799141Y-118679676D02*
X203799141Y-122921857D01*
X123110000Y-115379002D02*
X123110000Y-112960000D01*
X212745272Y-109733545D02*
X203799141Y-118679676D01*
X127574236Y-122083234D02*
X132638290Y-127147288D01*
X127574236Y-118715236D02*
X127574236Y-122083234D01*
X132638290Y-127147288D02*
X132845012Y-127505037D01*
X127304001Y-118445001D02*
X127574236Y-118715236D01*
%TD*%
M02*
