%TF.GenerationSoftware,KiCad,Pcbnew,8.0.5*%
%TF.CreationDate,2025-05-16T22:00:09-05:00*%
%TF.ProjectId,spudglo_baby_dinosaur_v1p0,73707564-676c-46f5-9f62-6162795f6469,rev?*%
%TF.SameCoordinates,Original*%
%TF.FileFunction,Paste,Bot*%
%TF.FilePolarity,Positive*%
%FSLAX46Y46*%
G04 Gerber Fmt 4.6, Leading zero omitted, Abs format (unit mm)*
G04 Created by KiCad (PCBNEW 8.0.5) date 2025-05-16 22:00:09*
%MOMM*%
%LPD*%
G01*
G04 APERTURE LIST*
G04 Aperture macros list*
%AMRoundRect*
0 Rectangle with rounded corners*
0 $1 Rounding radius*
0 $2 $3 $4 $5 $6 $7 $8 $9 X,Y pos of 4 corners*
0 Add a 4 corners polygon primitive as box body*
4,1,4,$2,$3,$4,$5,$6,$7,$8,$9,$2,$3,0*
0 Add four circle primitives for the rounded corners*
1,1,$1+$1,$2,$3*
1,1,$1+$1,$4,$5*
1,1,$1+$1,$6,$7*
1,1,$1+$1,$8,$9*
0 Add four rect primitives between the rounded corners*
20,1,$1+$1,$2,$3,$4,$5,0*
20,1,$1+$1,$4,$5,$6,$7,0*
20,1,$1+$1,$6,$7,$8,$9,0*
20,1,$1+$1,$8,$9,$2,$3,0*%
G04 Aperture macros list end*
%ADD10R,0.500000X2.300000*%
%ADD11R,2.000000X2.500000*%
%ADD12RoundRect,0.140000X-0.140000X-0.170000X0.140000X-0.170000X0.140000X0.170000X-0.140000X0.170000X0*%
%ADD13RoundRect,0.140000X0.140000X0.170000X-0.140000X0.170000X-0.140000X-0.170000X0.140000X-0.170000X0*%
%ADD14RoundRect,0.140000X-0.170000X0.140000X-0.170000X-0.140000X0.170000X-0.140000X0.170000X0.140000X0*%
%ADD15R,1.000000X1.200000*%
%ADD16RoundRect,0.140000X0.170000X-0.140000X0.170000X0.140000X-0.170000X0.140000X-0.170000X-0.140000X0*%
%ADD17RoundRect,0.150000X-0.512500X-0.150000X0.512500X-0.150000X0.512500X0.150000X-0.512500X0.150000X0*%
%ADD18RoundRect,0.150000X0.150000X-0.512500X0.150000X0.512500X-0.150000X0.512500X-0.150000X-0.512500X0*%
G04 APERTURE END LIST*
D10*
%TO.C,J7*%
X181875001Y-102200001D03*
X181075001Y-102200001D03*
X180275001Y-102200001D03*
X179475001Y-102200001D03*
X178675001Y-102200001D03*
D11*
X184725001Y-102300001D03*
X175825001Y-102300001D03*
X175825001Y-107800001D03*
X184725001Y-107800001D03*
%TD*%
D12*
%TO.C,C11*%
X182660000Y-99960000D03*
X183620000Y-99960000D03*
%TD*%
%TO.C,C12*%
X178570000Y-96560000D03*
X179530000Y-96560000D03*
%TD*%
D13*
%TO.C,C8*%
X185070000Y-95510000D03*
X184110000Y-95510000D03*
%TD*%
%TO.C,C13*%
X181410000Y-96560000D03*
X180450000Y-96560000D03*
%TD*%
D14*
%TO.C,C10*%
X177540000Y-97170000D03*
X177540000Y-98130000D03*
%TD*%
D15*
%TO.C,U2*%
X184879999Y-96870003D03*
X184880000Y-98570000D03*
X183580001Y-98570003D03*
X183580000Y-96870006D03*
%TD*%
D16*
%TO.C,C9*%
X177530000Y-100000000D03*
X177530000Y-99040000D03*
%TD*%
D12*
%TO.C,C7*%
X185130000Y-105490000D03*
X186090000Y-105490000D03*
%TD*%
D17*
%TO.C,U4*%
X178965000Y-99680000D03*
X178965000Y-98730000D03*
X178965000Y-97780000D03*
X181240000Y-97780000D03*
X181240000Y-99680000D03*
%TD*%
D13*
%TO.C,C5*%
X184540000Y-99960000D03*
X185500000Y-99960000D03*
%TD*%
D12*
%TO.C,C6*%
X185130000Y-104520000D03*
X186090000Y-104520000D03*
%TD*%
D18*
%TO.C,U3*%
X176240000Y-99510000D03*
X175290000Y-99510000D03*
X174340000Y-99510000D03*
X174340000Y-97235000D03*
X175290000Y-97235000D03*
X176240000Y-97235000D03*
%TD*%
D16*
%TO.C,C1*%
X186140000Y-97110000D03*
X186140000Y-96150000D03*
%TD*%
M02*
