%TF.GenerationSoftware,KiCad,Pcbnew,(5.1.6-0-10_14)*%
%TF.CreationDate,2022-03-25T15:42:39-05:00*%
%TF.ProjectId,ws2812b_hexagon_BACKUP_20220323,77733238-3132-4625-9f68-657861676f6e,rev?*%
%TF.SameCoordinates,Original*%
%TF.FileFunction,Copper,L3,Inr*%
%TF.FilePolarity,Positive*%
%FSLAX46Y46*%
G04 Gerber Fmt 4.6, Leading zero omitted, Abs format (unit mm)*
G04 Created by KiCad (PCBNEW (5.1.6-0-10_14)) date 2022-03-25 15:42:39*
%MOMM*%
%LPD*%
G01*
G04 APERTURE LIST*
%TA.AperFunction,ViaPad*%
%ADD10C,0.100000*%
%TD*%
%TA.AperFunction,ViaPad*%
%ADD11R,1.700000X1.700000*%
%TD*%
%TA.AperFunction,ViaPad*%
%ADD12O,1.700000X1.700000*%
%TD*%
%TA.AperFunction,ViaPad*%
%ADD13C,1.200000*%
%TD*%
%TA.AperFunction,ViaPad*%
%ADD14C,1.000000*%
%TD*%
%TA.AperFunction,Conductor*%
%ADD15C,0.254000*%
%TD*%
G04 APERTURE END LIST*
%TO.N,GND*%
%TO.C,J22*%
%TA.AperFunction,ViaPad*%
G36*
G01*
X132110329Y-136301694D02*
X132110329Y-136301694D01*
G75*
G02*
X132421451Y-135140572I736122J425000D01*
G01*
X132421451Y-135140572D01*
G75*
G02*
X133582573Y-135451694I425000J-736122D01*
G01*
X133582573Y-135451694D01*
G75*
G02*
X133271451Y-136612816I-736122J-425000D01*
G01*
X133271451Y-136612816D01*
G75*
G02*
X132110329Y-136301694I-425000J736122D01*
G01*
G37*
%TD.AperFunction*%
%TA.AperFunction,ViaPad*%
D10*
%TO.N,+5V*%
G36*
X131265329Y-134838111D02*
G01*
X130415329Y-133365867D01*
X131887573Y-132515867D01*
X132737573Y-133988111D01*
X131265329Y-134838111D01*
G37*
%TD.AperFunction*%
%TD*%
D11*
%TO.N,+5V*%
%TO.C,J18*%
X171862651Y-149293748D03*
D12*
%TO.N,GND*%
X174402651Y-149293748D03*
%TD*%
D11*
%TO.N,/in*%
%TO.C,J17*%
X186284307Y-149292789D03*
%TD*%
%TO.N,/in*%
%TO.C,J20*%
X144197683Y-149296615D03*
%TD*%
%TA.AperFunction,ViaPad*%
D10*
%TO.N,/in*%
%TO.C,J21*%
G36*
X139099231Y-145004909D02*
G01*
X139949231Y-146477153D01*
X138476987Y-147327153D01*
X137626987Y-145854909D01*
X139099231Y-145004909D01*
G37*
%TD.AperFunction*%
%TD*%
%TA.AperFunction,ViaPad*%
%TO.N,GND*%
%TO.C,J23*%
G36*
X123368103Y-121156510D02*
G01*
X122518103Y-119684266D01*
X123990347Y-118834266D01*
X124840347Y-120306510D01*
X123368103Y-121156510D01*
G37*
%TD.AperFunction*%
%TO.N,+5V*%
%TA.AperFunction,ViaPad*%
G36*
G01*
X124213103Y-122620093D02*
X124213103Y-122620093D01*
G75*
G02*
X124524225Y-121458971I736122J425000D01*
G01*
X124524225Y-121458971D01*
G75*
G02*
X125685347Y-121770093I425000J-736122D01*
G01*
X125685347Y-121770093D01*
G75*
G02*
X125374225Y-122931215I-736122J-425000D01*
G01*
X125374225Y-122931215D01*
G75*
G02*
X124213103Y-122620093I-425000J736122D01*
G01*
G37*
%TD.AperFunction*%
%TD*%
%TA.AperFunction,ViaPad*%
%TO.N,/in*%
%TO.C,J24*%
G36*
X118052605Y-108558736D02*
G01*
X118902605Y-110030980D01*
X117430361Y-110880980D01*
X116580361Y-109408736D01*
X118052605Y-108558736D01*
G37*
%TD.AperFunction*%
%TD*%
D12*
%TO.N,+5V*%
%TO.C,J19*%
X158605424Y-149292147D03*
D11*
%TO.N,GND*%
X156065424Y-149292147D03*
%TD*%
%TO.N,GND*%
%TO.C,J14*%
%TA.AperFunction,ViaPad*%
G36*
G01*
X207541395Y-120448840D02*
X207541395Y-120448840D01*
G75*
G02*
X206380273Y-120759962I-736122J425000D01*
G01*
X206380273Y-120759962D01*
G75*
G02*
X206069151Y-119598840I425000J736122D01*
G01*
X206069151Y-119598840D01*
G75*
G02*
X207230273Y-119287718I736122J-425000D01*
G01*
X207230273Y-119287718D01*
G75*
G02*
X207541395Y-120448840I-425000J-736122D01*
G01*
G37*
%TD.AperFunction*%
%TA.AperFunction,ViaPad*%
D10*
%TO.N,+5V*%
G36*
X206696395Y-121912423D02*
G01*
X205846395Y-123384667D01*
X204374151Y-122534667D01*
X205224151Y-121062423D01*
X206696395Y-121912423D01*
G37*
%TD.AperFunction*%
%TD*%
%TA.AperFunction,ViaPad*%
%TO.N,GND*%
%TO.C,J15*%
G36*
X198796395Y-135592422D02*
G01*
X197946395Y-137064666D01*
X196474151Y-136214666D01*
X197324151Y-134742422D01*
X198796395Y-135592422D01*
G37*
%TD.AperFunction*%
%TO.N,+5V*%
%TA.AperFunction,ViaPad*%
G36*
G01*
X199641395Y-134128839D02*
X199641395Y-134128839D01*
G75*
G02*
X198480273Y-134439961I-736122J425000D01*
G01*
X198480273Y-134439961D01*
G75*
G02*
X198169151Y-133278839I425000J736122D01*
G01*
X198169151Y-133278839D01*
G75*
G02*
X199330273Y-132967717I736122J-425000D01*
G01*
X199330273Y-132967717D01*
G75*
G02*
X199641395Y-134128839I-425000J-736122D01*
G01*
G37*
%TD.AperFunction*%
%TD*%
%TA.AperFunction,ViaPad*%
%TO.N,/out*%
%TO.C,J13*%
G36*
X211584150Y-110044667D02*
G01*
X212434150Y-108572423D01*
X213906394Y-109422423D01*
X213056394Y-110894667D01*
X211584150Y-110044667D01*
G37*
%TD.AperFunction*%
%TD*%
%TA.AperFunction,ViaPad*%
%TO.N,/in*%
%TO.C,J16*%
G36*
X190544151Y-146494666D02*
G01*
X191394151Y-145022422D01*
X192866395Y-145872422D01*
X192016395Y-147344666D01*
X190544151Y-146494666D01*
G37*
%TD.AperFunction*%
%TD*%
%TA.AperFunction,ViaPad*%
%TO.N,/out*%
%TO.C,J12*%
G36*
X212440528Y-104644546D02*
G01*
X211590528Y-103172302D01*
X213062772Y-102322302D01*
X213912772Y-103794546D01*
X212440528Y-104644546D01*
G37*
%TD.AperFunction*%
%TD*%
%TA.AperFunction,ViaPad*%
%TO.N,/in*%
%TO.C,J9*%
G36*
X191393903Y-68198374D02*
G01*
X190543903Y-66726130D01*
X192016147Y-65876130D01*
X192866147Y-67348374D01*
X191393903Y-68198374D01*
G37*
%TD.AperFunction*%
%TD*%
%TA.AperFunction,ViaPad*%
%TO.N,+5V*%
%TO.C,J10*%
G36*
X199227805Y-78365171D02*
G01*
X200077805Y-79837415D01*
X198605561Y-80687415D01*
X197755561Y-79215171D01*
X199227805Y-78365171D01*
G37*
%TD.AperFunction*%
%TO.N,GND*%
%TA.AperFunction,ViaPad*%
G36*
G01*
X198382805Y-76901588D02*
X198382805Y-76901588D01*
G75*
G02*
X198071683Y-78062710I-736122J-425000D01*
G01*
X198071683Y-78062710D01*
G75*
G02*
X196910561Y-77751588I-425000J736122D01*
G01*
X196910561Y-77751588D01*
G75*
G02*
X197221683Y-76590466I736122J425000D01*
G01*
X197221683Y-76590466D01*
G75*
G02*
X198382805Y-76901588I425000J-736122D01*
G01*
G37*
%TD.AperFunction*%
%TD*%
%TO.N,+5V*%
%TO.C,J11*%
%TA.AperFunction,ViaPad*%
G36*
G01*
X206280032Y-90583188D02*
X206280032Y-90583188D01*
G75*
G02*
X205968910Y-91744310I-736122J-425000D01*
G01*
X205968910Y-91744310D01*
G75*
G02*
X204807788Y-91433188I-425000J736122D01*
G01*
X204807788Y-91433188D01*
G75*
G02*
X205118910Y-90272066I736122J425000D01*
G01*
X205118910Y-90272066D01*
G75*
G02*
X206280032Y-90583188I425000J-736122D01*
G01*
G37*
%TD.AperFunction*%
%TA.AperFunction,ViaPad*%
%TO.N,GND*%
G36*
X207125032Y-92046771D02*
G01*
X207975032Y-93519015D01*
X206502788Y-94369015D01*
X205652788Y-92896771D01*
X207125032Y-92046771D01*
G37*
%TD.AperFunction*%
%TD*%
D12*
%TO.N,GND*%
%TO.C,J6*%
X156074808Y-63896332D03*
D11*
%TO.N,+5V*%
X158614808Y-63896332D03*
%TD*%
%TO.N,GND*%
%TO.C,J7*%
X174412035Y-63897933D03*
D12*
%TO.N,+5V*%
X171872035Y-63897933D03*
%TD*%
D11*
%TO.N,/in*%
%TO.C,J5*%
X144193151Y-63897289D03*
%TD*%
%TO.N,/in*%
%TO.C,J8*%
X186279776Y-63893464D03*
%TD*%
%TA.AperFunction,ViaPad*%
D10*
%TO.N,/in*%
%TO.C,J4*%
G36*
X139938321Y-66705704D02*
G01*
X139088321Y-68177948D01*
X137616077Y-67327948D01*
X138466077Y-65855704D01*
X139938321Y-66705704D01*
G37*
%TD.AperFunction*%
%TD*%
%TA.AperFunction,ViaPad*%
%TO.N,/in*%
%TO.C,J1*%
G36*
X118898322Y-103155702D02*
G01*
X118048322Y-104627946D01*
X116576078Y-103777946D01*
X117426078Y-102305702D01*
X118898322Y-103155702D01*
G37*
%TD.AperFunction*%
%TD*%
%TA.AperFunction,ViaPad*%
%TO.N,+5V*%
%TO.C,J2*%
G36*
X123786076Y-91287947D02*
G01*
X124636076Y-89815703D01*
X126108320Y-90665703D01*
X125258320Y-92137947D01*
X123786076Y-91287947D01*
G37*
%TD.AperFunction*%
%TO.N,GND*%
%TA.AperFunction,ViaPad*%
G36*
G01*
X122941076Y-92751530D02*
X122941076Y-92751530D01*
G75*
G02*
X124102198Y-92440408I736122J-425000D01*
G01*
X124102198Y-92440408D01*
G75*
G02*
X124413320Y-93601530I-425000J-736122D01*
G01*
X124413320Y-93601530D01*
G75*
G02*
X123252198Y-93912652I-736122J425000D01*
G01*
X123252198Y-93912652D01*
G75*
G02*
X122941076Y-92751530I425000J736122D01*
G01*
G37*
%TD.AperFunction*%
%TD*%
%TO.N,+5V*%
%TO.C,J3*%
%TA.AperFunction,ViaPad*%
G36*
G01*
X130841076Y-79071531D02*
X130841076Y-79071531D01*
G75*
G02*
X132002198Y-78760409I736122J-425000D01*
G01*
X132002198Y-78760409D01*
G75*
G02*
X132313320Y-79921531I-425000J-736122D01*
G01*
X132313320Y-79921531D01*
G75*
G02*
X131152198Y-80232653I-736122J425000D01*
G01*
X131152198Y-80232653D01*
G75*
G02*
X130841076Y-79071531I425000J736122D01*
G01*
G37*
%TD.AperFunction*%
%TA.AperFunction,ViaPad*%
%TO.N,GND*%
G36*
X131686076Y-77607948D02*
G01*
X132536076Y-76135704D01*
X134008320Y-76985704D01*
X133158320Y-78457948D01*
X131686076Y-77607948D01*
G37*
%TD.AperFunction*%
%TD*%
D13*
%TO.N,GND*%
X118640000Y-101525145D03*
X125800000Y-88835146D03*
X133780000Y-75115145D03*
X145898181Y-64021819D03*
X160975216Y-64075216D03*
X194619336Y-71330664D03*
X202180000Y-84567209D03*
X210320000Y-114500000D03*
X204390000Y-124070000D03*
X181098606Y-149171394D03*
X169842002Y-149117998D03*
X135690000Y-141698488D03*
X130470000Y-131730000D03*
X120030000Y-105890000D03*
X128020000Y-93260000D03*
X135810000Y-79540000D03*
X143200000Y-67010000D03*
X157910000Y-67210000D03*
X173250000Y-67390000D03*
X188560000Y-68560000D03*
X195145000Y-80555000D03*
X203640000Y-95120000D03*
X202515000Y-119845000D03*
X193690000Y-134940000D03*
X186680000Y-145730000D03*
X171860000Y-145330000D03*
X141990000Y-144620000D03*
X134050000Y-130370000D03*
X126310000Y-116790000D03*
X210025000Y-107095000D03*
X155570000Y-145410000D03*
%TO.N,+5V*%
X124490000Y-95920000D03*
X132417840Y-82657840D03*
X140027839Y-69102161D03*
X152396174Y-65763826D03*
X167610000Y-65720000D03*
X184340000Y-66110000D03*
X194385000Y-75725000D03*
X202670000Y-89770000D03*
X206470000Y-113560000D03*
X198900000Y-126840000D03*
X177730000Y-147380000D03*
X146470000Y-147190000D03*
X135880000Y-137430000D03*
X120595000Y-111105000D03*
X207320000Y-101381027D03*
X165210000Y-149090000D03*
D14*
X128019478Y-124119478D03*
D13*
X191140000Y-140010000D03*
D14*
%TO.N,/out*%
X123110000Y-112960000D03*
%TD*%
D15*
%TO.N,+5V*%
G36*
X142705079Y-64747289D02*
G01*
X142717339Y-64871771D01*
X142753649Y-64991469D01*
X142812614Y-65101783D01*
X142891966Y-65198474D01*
X142988657Y-65277826D01*
X143098971Y-65336791D01*
X143218669Y-65373101D01*
X143343151Y-65385361D01*
X145043151Y-65385361D01*
X145167633Y-65373101D01*
X145287331Y-65336791D01*
X145397645Y-65277826D01*
X145494336Y-65198474D01*
X145498733Y-65193117D01*
X145537945Y-65209359D01*
X145776544Y-65256819D01*
X146019818Y-65256819D01*
X146258417Y-65209359D01*
X146483173Y-65116262D01*
X146685448Y-64981106D01*
X146857468Y-64809086D01*
X146992624Y-64606811D01*
X147085721Y-64382055D01*
X147133181Y-64143456D01*
X147133181Y-63900182D01*
X147085721Y-63661583D01*
X146992624Y-63436827D01*
X146878172Y-63265538D01*
X154728739Y-63265538D01*
X154646876Y-63463174D01*
X154589808Y-63750072D01*
X154589808Y-64042592D01*
X154646876Y-64329490D01*
X154758818Y-64599743D01*
X154921333Y-64842964D01*
X155128176Y-65049807D01*
X155371397Y-65212322D01*
X155641650Y-65324264D01*
X155928548Y-65381332D01*
X156221068Y-65381332D01*
X156507966Y-65324264D01*
X156778219Y-65212322D01*
X157021440Y-65049807D01*
X157153295Y-64917952D01*
X157175306Y-64990512D01*
X157234271Y-65100826D01*
X157313623Y-65197517D01*
X157410314Y-65276869D01*
X157520628Y-65335834D01*
X157640326Y-65372144D01*
X157764808Y-65384404D01*
X158329058Y-65381332D01*
X158487808Y-65222582D01*
X158487808Y-64023332D01*
X158467808Y-64023332D01*
X158467808Y-63769332D01*
X158487808Y-63769332D01*
X158487808Y-63749332D01*
X158741808Y-63749332D01*
X158741808Y-63769332D01*
X158761808Y-63769332D01*
X158761808Y-64023332D01*
X158741808Y-64023332D01*
X158741808Y-65222582D01*
X158900558Y-65381332D01*
X159464808Y-65384404D01*
X159589290Y-65372144D01*
X159708988Y-65335834D01*
X159819302Y-65276869D01*
X159915993Y-65197517D01*
X159995345Y-65100826D01*
X160054310Y-64990512D01*
X160075175Y-64921729D01*
X160187949Y-65034503D01*
X160390224Y-65169659D01*
X160614980Y-65262756D01*
X160853579Y-65310216D01*
X161096853Y-65310216D01*
X161335452Y-65262756D01*
X161560208Y-65169659D01*
X161762483Y-65034503D01*
X161934503Y-64862483D01*
X162069659Y-64660208D01*
X162162756Y-64435452D01*
X162198684Y-64254824D01*
X170430554Y-64254824D01*
X170527878Y-64529185D01*
X170676857Y-64779288D01*
X170871766Y-64995521D01*
X171105115Y-65169574D01*
X171367936Y-65294758D01*
X171515145Y-65339409D01*
X171745035Y-65218088D01*
X171745035Y-64024933D01*
X170551221Y-64024933D01*
X170430554Y-64254824D01*
X162198684Y-64254824D01*
X162210216Y-64196853D01*
X162210216Y-63953579D01*
X162162756Y-63714980D01*
X162069659Y-63490224D01*
X161934503Y-63287949D01*
X161912092Y-63265538D01*
X170528559Y-63265538D01*
X170527878Y-63266681D01*
X170430554Y-63541042D01*
X170551221Y-63770933D01*
X171745035Y-63770933D01*
X171745035Y-63750933D01*
X171999035Y-63750933D01*
X171999035Y-63770933D01*
X172019035Y-63770933D01*
X172019035Y-64024933D01*
X171999035Y-64024933D01*
X171999035Y-65218088D01*
X172228925Y-65339409D01*
X172376134Y-65294758D01*
X172638955Y-65169574D01*
X172872304Y-64995521D01*
X172948069Y-64911467D01*
X172972533Y-64992113D01*
X173031498Y-65102427D01*
X173110850Y-65199118D01*
X173207541Y-65278470D01*
X173317855Y-65337435D01*
X173437553Y-65373745D01*
X173562035Y-65386005D01*
X175262035Y-65386005D01*
X175386517Y-65373745D01*
X175506215Y-65337435D01*
X175616529Y-65278470D01*
X175713220Y-65199118D01*
X175792572Y-65102427D01*
X175851537Y-64992113D01*
X175887847Y-64872415D01*
X175900107Y-64747933D01*
X175900107Y-63265538D01*
X184791704Y-63265538D01*
X184791704Y-64743464D01*
X184803964Y-64867946D01*
X184840274Y-64987644D01*
X184899239Y-65097958D01*
X184978591Y-65194649D01*
X185075282Y-65274001D01*
X185185596Y-65332966D01*
X185305294Y-65369276D01*
X185429776Y-65381536D01*
X187129776Y-65381536D01*
X187254258Y-65369276D01*
X187373956Y-65332966D01*
X187484270Y-65274001D01*
X187580961Y-65194649D01*
X187660313Y-65097958D01*
X187719278Y-64987644D01*
X187755588Y-64867946D01*
X187767848Y-64743464D01*
X187767848Y-63265538D01*
X190256478Y-63265538D01*
X191507779Y-65432854D01*
X190224867Y-66173543D01*
X190123193Y-66246402D01*
X190037687Y-66337696D01*
X189971634Y-66443918D01*
X189927573Y-66560985D01*
X189907197Y-66684398D01*
X189911290Y-66809415D01*
X189939693Y-66931231D01*
X189991316Y-67045166D01*
X190841316Y-68517410D01*
X190914175Y-68619084D01*
X191005469Y-68704590D01*
X191111691Y-68770643D01*
X191228758Y-68814704D01*
X191352171Y-68835080D01*
X191477188Y-68830987D01*
X191599004Y-68802584D01*
X191712939Y-68750961D01*
X192995851Y-68010272D01*
X194233400Y-70153769D01*
X194034344Y-70236221D01*
X193832069Y-70371377D01*
X193660049Y-70543397D01*
X193524893Y-70745672D01*
X193431796Y-70970428D01*
X193384336Y-71209027D01*
X193384336Y-71452301D01*
X193431796Y-71690900D01*
X193524893Y-71915656D01*
X193660049Y-72117931D01*
X193832069Y-72289951D01*
X194034344Y-72425107D01*
X194259100Y-72518204D01*
X194497699Y-72565664D01*
X194740973Y-72565664D01*
X194979572Y-72518204D01*
X195204328Y-72425107D01*
X195406603Y-72289951D01*
X195444719Y-72251835D01*
X197517264Y-75841588D01*
X197500423Y-75841588D01*
X197213525Y-75898656D01*
X196943272Y-76010598D01*
X196700051Y-76173113D01*
X196493208Y-76379956D01*
X196330693Y-76623177D01*
X196218751Y-76893430D01*
X196161683Y-77180328D01*
X196161683Y-77472848D01*
X196218751Y-77759746D01*
X196330693Y-78029999D01*
X196493208Y-78273220D01*
X196700051Y-78480063D01*
X196943272Y-78642578D01*
X197213525Y-78754520D01*
X197300736Y-78771867D01*
X197249344Y-78826738D01*
X197183292Y-78932960D01*
X197139231Y-79050026D01*
X197118856Y-79173439D01*
X197122948Y-79298456D01*
X197151351Y-79420273D01*
X197202975Y-79534207D01*
X197487760Y-80021326D01*
X197704617Y-80079433D01*
X198743198Y-79479808D01*
X198733198Y-79462487D01*
X198953168Y-79335487D01*
X198963168Y-79352808D01*
X198980489Y-79342808D01*
X199107489Y-79562778D01*
X199090168Y-79572778D01*
X199689793Y-80611359D01*
X199906650Y-80669466D01*
X200206081Y-80498756D01*
X201864266Y-83370817D01*
X201819764Y-83379669D01*
X201595008Y-83472766D01*
X201392733Y-83607922D01*
X201220713Y-83779942D01*
X201085557Y-83982217D01*
X200992460Y-84206973D01*
X200945000Y-84445572D01*
X200945000Y-84688846D01*
X200992460Y-84927445D01*
X201085557Y-85152201D01*
X201220713Y-85354476D01*
X201392733Y-85526496D01*
X201595008Y-85661652D01*
X201819764Y-85754749D01*
X202058363Y-85802209D01*
X202301637Y-85802209D01*
X202540236Y-85754749D01*
X202764992Y-85661652D01*
X202967267Y-85526496D01*
X203057026Y-85436737D01*
X205419406Y-89528500D01*
X205418512Y-89528488D01*
X205132246Y-89581383D01*
X204993488Y-89800830D01*
X205590395Y-90834703D01*
X205607716Y-90824703D01*
X205734716Y-91044673D01*
X205717395Y-91054673D01*
X205727395Y-91071994D01*
X205507425Y-91198994D01*
X205497425Y-91181673D01*
X204464122Y-91778251D01*
X204474000Y-92038002D01*
X204586274Y-92143163D01*
X204826097Y-92308181D01*
X205093505Y-92423240D01*
X205204182Y-92446828D01*
X205146572Y-92508337D01*
X205080519Y-92614559D01*
X205036458Y-92731626D01*
X205016082Y-92855039D01*
X205020175Y-92980056D01*
X205048578Y-93101872D01*
X205100201Y-93215807D01*
X205950201Y-94688051D01*
X206023060Y-94789725D01*
X206114354Y-94875231D01*
X206220576Y-94941284D01*
X206337643Y-94985345D01*
X206461056Y-95005721D01*
X206586073Y-95001628D01*
X206707889Y-94973225D01*
X206821824Y-94921602D01*
X208105292Y-94180592D01*
X212551090Y-101880939D01*
X211271492Y-102619715D01*
X211169818Y-102692574D01*
X211084312Y-102783868D01*
X211018259Y-102890090D01*
X210974198Y-103007157D01*
X210953822Y-103130570D01*
X210957915Y-103255587D01*
X210986318Y-103377403D01*
X211037941Y-103491338D01*
X211887941Y-104963582D01*
X211960800Y-105065256D01*
X212052094Y-105150762D01*
X212158316Y-105216815D01*
X212275383Y-105260876D01*
X212398796Y-105281252D01*
X212523813Y-105277159D01*
X212645629Y-105248756D01*
X212759564Y-105197133D01*
X214039162Y-104458357D01*
X215275426Y-106599629D01*
X214029899Y-108756946D01*
X212753186Y-108019836D01*
X212639251Y-107968213D01*
X212517435Y-107939810D01*
X212392418Y-107935717D01*
X212269005Y-107956093D01*
X212151938Y-108000154D01*
X212045716Y-108066207D01*
X211954422Y-108151713D01*
X211881563Y-108253387D01*
X211031563Y-109725631D01*
X210979940Y-109839566D01*
X210951537Y-109961382D01*
X210947444Y-110086399D01*
X210967820Y-110209812D01*
X211011881Y-110326879D01*
X211077934Y-110433101D01*
X211163440Y-110524395D01*
X211265114Y-110597254D01*
X212541826Y-111334364D01*
X211209161Y-113642607D01*
X211107267Y-113540713D01*
X210904992Y-113405557D01*
X210680236Y-113312460D01*
X210441637Y-113265000D01*
X210198363Y-113265000D01*
X209959764Y-113312460D01*
X209735008Y-113405557D01*
X209532733Y-113540713D01*
X209360713Y-113712733D01*
X209225557Y-113915008D01*
X209132460Y-114139764D01*
X209085000Y-114378363D01*
X209085000Y-114621637D01*
X209132460Y-114860236D01*
X209225557Y-115084992D01*
X209360713Y-115287267D01*
X209532733Y-115459287D01*
X209735008Y-115594443D01*
X209959764Y-115687540D01*
X210021436Y-115699807D01*
X208019231Y-119167728D01*
X207958748Y-119077208D01*
X207751905Y-118870365D01*
X207508684Y-118707850D01*
X207238431Y-118595908D01*
X206951533Y-118538840D01*
X206659013Y-118538840D01*
X206372115Y-118595908D01*
X206101862Y-118707850D01*
X205858641Y-118870365D01*
X205651798Y-119077208D01*
X205489283Y-119320429D01*
X205377341Y-119590682D01*
X205320273Y-119877580D01*
X205320273Y-120170100D01*
X205375070Y-120445580D01*
X205307436Y-120429810D01*
X205182419Y-120425718D01*
X205059006Y-120446093D01*
X204941940Y-120490154D01*
X204835718Y-120556206D01*
X204744423Y-120641713D01*
X204671565Y-120743387D01*
X204392100Y-121233578D01*
X204450207Y-121450435D01*
X205488788Y-122050060D01*
X205498788Y-122032739D01*
X205718758Y-122159739D01*
X205708758Y-122177060D01*
X205726079Y-122187060D01*
X205599079Y-122407030D01*
X205581758Y-122397030D01*
X205571758Y-122414351D01*
X205351788Y-122287351D01*
X205361788Y-122270030D01*
X204323207Y-121670405D01*
X204106350Y-121728512D01*
X203821565Y-122215631D01*
X203769941Y-122329565D01*
X203741538Y-122451382D01*
X203737446Y-122576399D01*
X203757821Y-122699812D01*
X203801882Y-122816878D01*
X203867934Y-122923100D01*
X203885744Y-122942115D01*
X203805008Y-122975557D01*
X203602733Y-123110713D01*
X203430713Y-123282733D01*
X203295557Y-123485008D01*
X203202460Y-123709764D01*
X203155000Y-123948363D01*
X203155000Y-124191637D01*
X203202460Y-124430236D01*
X203295557Y-124654992D01*
X203430713Y-124857267D01*
X203602733Y-125029287D01*
X203805008Y-125164443D01*
X204029764Y-125257540D01*
X204268363Y-125305000D01*
X204475876Y-125305000D01*
X200119633Y-132850235D01*
X199935090Y-132633925D01*
X199675665Y-132623481D01*
X199078758Y-133657354D01*
X199096079Y-133667354D01*
X198969079Y-133887324D01*
X198951758Y-133877324D01*
X198941758Y-133894645D01*
X198721788Y-133767645D01*
X198731788Y-133750324D01*
X197698485Y-133153747D01*
X197478473Y-133292177D01*
X197443538Y-133441989D01*
X197420540Y-133732191D01*
X197454599Y-134021303D01*
X197489510Y-134128946D01*
X197407436Y-134109809D01*
X197282419Y-134105716D01*
X197159006Y-134126092D01*
X197041939Y-134170153D01*
X196935717Y-134236206D01*
X196844423Y-134321712D01*
X196771564Y-134423386D01*
X195921564Y-135895630D01*
X195869941Y-136009565D01*
X195841538Y-136131381D01*
X195837445Y-136256398D01*
X195857821Y-136379811D01*
X195901882Y-136496878D01*
X195967935Y-136603100D01*
X196053441Y-136694394D01*
X196155115Y-136767253D01*
X197432385Y-137504685D01*
X192986587Y-145205033D01*
X191713187Y-144469835D01*
X191599252Y-144418212D01*
X191477436Y-144389809D01*
X191352419Y-144385716D01*
X191229006Y-144406092D01*
X191111939Y-144450153D01*
X191005717Y-144516206D01*
X190914423Y-144601712D01*
X190841564Y-144703386D01*
X189991564Y-146175630D01*
X189939941Y-146289565D01*
X189911538Y-146411381D01*
X189907445Y-146536398D01*
X189927821Y-146659811D01*
X189971882Y-146776878D01*
X190037935Y-146883100D01*
X190123441Y-146974394D01*
X190225115Y-147047253D01*
X191498514Y-147782450D01*
X190256478Y-149933720D01*
X187772379Y-149933720D01*
X187772379Y-148442789D01*
X187760119Y-148318307D01*
X187723809Y-148198609D01*
X187664844Y-148088295D01*
X187585492Y-147991604D01*
X187488801Y-147912252D01*
X187378487Y-147853287D01*
X187258789Y-147816977D01*
X187134307Y-147804717D01*
X185434307Y-147804717D01*
X185309825Y-147816977D01*
X185190127Y-147853287D01*
X185079813Y-147912252D01*
X184983122Y-147991604D01*
X184903770Y-148088295D01*
X184844805Y-148198609D01*
X184808495Y-148318307D01*
X184796235Y-148442789D01*
X184796235Y-149933720D01*
X182074558Y-149933720D01*
X182193049Y-149756386D01*
X182286146Y-149531630D01*
X182333606Y-149293031D01*
X182333606Y-149049757D01*
X182286146Y-148811158D01*
X182193049Y-148586402D01*
X182057893Y-148384127D01*
X181885873Y-148212107D01*
X181683598Y-148076951D01*
X181458842Y-147983854D01*
X181220243Y-147936394D01*
X180976969Y-147936394D01*
X180738370Y-147983854D01*
X180513614Y-148076951D01*
X180311339Y-148212107D01*
X180139319Y-148384127D01*
X180004163Y-148586402D01*
X179911066Y-148811158D01*
X179863606Y-149049757D01*
X179863606Y-149293031D01*
X179911066Y-149531630D01*
X180004163Y-149756386D01*
X180122654Y-149933720D01*
X175744918Y-149933720D01*
X175830583Y-149726906D01*
X175887651Y-149440008D01*
X175887651Y-149147488D01*
X175830583Y-148860590D01*
X175718641Y-148590337D01*
X175556126Y-148347116D01*
X175349283Y-148140273D01*
X175106062Y-147977758D01*
X174835809Y-147865816D01*
X174548911Y-147808748D01*
X174256391Y-147808748D01*
X173969493Y-147865816D01*
X173699240Y-147977758D01*
X173456019Y-148140273D01*
X173324164Y-148272128D01*
X173302153Y-148199568D01*
X173243188Y-148089254D01*
X173163836Y-147992563D01*
X173067145Y-147913211D01*
X172956831Y-147854246D01*
X172837133Y-147817936D01*
X172712651Y-147805676D01*
X172148401Y-147808748D01*
X171989651Y-147967498D01*
X171989651Y-149166748D01*
X172009651Y-149166748D01*
X172009651Y-149420748D01*
X171989651Y-149420748D01*
X171989651Y-149440748D01*
X171735651Y-149440748D01*
X171735651Y-149420748D01*
X171715651Y-149420748D01*
X171715651Y-149166748D01*
X171735651Y-149166748D01*
X171735651Y-147967498D01*
X171576901Y-147808748D01*
X171012651Y-147805676D01*
X170888169Y-147817936D01*
X170768471Y-147854246D01*
X170658157Y-147913211D01*
X170561466Y-147992563D01*
X170497415Y-148070609D01*
X170426994Y-148023555D01*
X170202238Y-147930458D01*
X169963639Y-147882998D01*
X169720365Y-147882998D01*
X169481766Y-147930458D01*
X169257010Y-148023555D01*
X169054735Y-148158711D01*
X168882715Y-148330731D01*
X168747559Y-148533006D01*
X168654462Y-148757762D01*
X168607002Y-148996361D01*
X168607002Y-149239635D01*
X168654462Y-149478234D01*
X168747559Y-149702990D01*
X168882715Y-149905265D01*
X168911170Y-149933720D01*
X159943433Y-149933720D01*
X159949581Y-149923399D01*
X160046905Y-149649038D01*
X159926238Y-149419147D01*
X158732424Y-149419147D01*
X158732424Y-149439147D01*
X158478424Y-149439147D01*
X158478424Y-149419147D01*
X158458424Y-149419147D01*
X158458424Y-149165147D01*
X158478424Y-149165147D01*
X158478424Y-147971992D01*
X158732424Y-147971992D01*
X158732424Y-149165147D01*
X159926238Y-149165147D01*
X160046905Y-148935256D01*
X159949581Y-148660895D01*
X159800602Y-148410792D01*
X159605693Y-148194559D01*
X159372344Y-148020506D01*
X159109523Y-147895322D01*
X158962314Y-147850671D01*
X158732424Y-147971992D01*
X158478424Y-147971992D01*
X158248534Y-147850671D01*
X158101325Y-147895322D01*
X157838504Y-148020506D01*
X157605155Y-148194559D01*
X157529390Y-148278613D01*
X157504926Y-148197967D01*
X157445961Y-148087653D01*
X157366609Y-147990962D01*
X157269918Y-147911610D01*
X157159604Y-147852645D01*
X157039906Y-147816335D01*
X156915424Y-147804075D01*
X155215424Y-147804075D01*
X155090942Y-147816335D01*
X154971244Y-147852645D01*
X154860930Y-147911610D01*
X154764239Y-147990962D01*
X154684887Y-148087653D01*
X154625922Y-148197967D01*
X154589612Y-148317665D01*
X154577352Y-148442147D01*
X154577352Y-149933720D01*
X145685755Y-149933720D01*
X145685755Y-148446615D01*
X145673495Y-148322133D01*
X145637185Y-148202435D01*
X145578220Y-148092121D01*
X145498868Y-147995430D01*
X145402177Y-147916078D01*
X145291863Y-147857113D01*
X145172165Y-147820803D01*
X145047683Y-147808543D01*
X143347683Y-147808543D01*
X143223201Y-147820803D01*
X143103503Y-147857113D01*
X142993189Y-147916078D01*
X142896498Y-147995430D01*
X142817146Y-148092121D01*
X142758181Y-148202435D01*
X142721871Y-148322133D01*
X142709611Y-148446615D01*
X142709611Y-149933720D01*
X140218580Y-149933720D01*
X138973541Y-147777250D01*
X140268267Y-147029740D01*
X140369941Y-146956881D01*
X140455447Y-146865587D01*
X140521500Y-146759365D01*
X140565561Y-146642298D01*
X140585937Y-146518885D01*
X140581844Y-146393868D01*
X140553441Y-146272052D01*
X140501818Y-146158117D01*
X139651818Y-144685873D01*
X139578959Y-144584199D01*
X139487665Y-144498693D01*
X139381443Y-144432640D01*
X139264376Y-144388579D01*
X139140963Y-144368203D01*
X139015946Y-144372296D01*
X138894130Y-144400699D01*
X138780195Y-144452322D01*
X137485468Y-145199832D01*
X136130418Y-142852816D01*
X136274992Y-142792931D01*
X136477267Y-142657775D01*
X136649287Y-142485755D01*
X136784443Y-142283480D01*
X136877540Y-142058724D01*
X136925000Y-141820125D01*
X136925000Y-141576851D01*
X136877540Y-141338252D01*
X136784443Y-141113496D01*
X136649287Y-140911221D01*
X136477267Y-140739201D01*
X136274992Y-140604045D01*
X136050236Y-140510948D01*
X135811637Y-140463488D01*
X135568363Y-140463488D01*
X135329764Y-140510948D01*
X135105008Y-140604045D01*
X134908065Y-140735638D01*
X132960117Y-137361694D01*
X132992711Y-137361694D01*
X133279609Y-137304626D01*
X133549862Y-137192684D01*
X133793083Y-137030169D01*
X133999926Y-136823326D01*
X134162441Y-136580105D01*
X134274383Y-136309852D01*
X134331451Y-136022954D01*
X134331451Y-135730434D01*
X134274383Y-135443536D01*
X134162441Y-135173283D01*
X133999926Y-134930062D01*
X133793083Y-134723219D01*
X133549862Y-134560704D01*
X133279609Y-134448762D01*
X133192398Y-134431415D01*
X133243790Y-134376544D01*
X133309842Y-134270322D01*
X133353903Y-134153256D01*
X133374278Y-134029843D01*
X133370186Y-133904826D01*
X133341783Y-133783009D01*
X133290159Y-133669075D01*
X133005374Y-133181956D01*
X132788517Y-133123849D01*
X131749936Y-133723474D01*
X131759936Y-133740795D01*
X131539966Y-133867795D01*
X131529966Y-133850474D01*
X131512645Y-133860474D01*
X131385645Y-133640504D01*
X131402966Y-133630504D01*
X131392966Y-133613183D01*
X131612936Y-133486183D01*
X131622936Y-133503504D01*
X132661517Y-132903879D01*
X132719624Y-132687022D01*
X132440159Y-132196831D01*
X132367301Y-132095157D01*
X132276006Y-132009650D01*
X132169784Y-131943598D01*
X132052718Y-131899537D01*
X131929305Y-131879162D01*
X131804288Y-131883254D01*
X131693576Y-131909068D01*
X131705000Y-131851637D01*
X131705000Y-131608363D01*
X131657540Y-131369764D01*
X131564443Y-131145008D01*
X131429287Y-130942733D01*
X131257267Y-130770713D01*
X131054992Y-130635557D01*
X130830236Y-130542460D01*
X130591637Y-130495000D01*
X130348363Y-130495000D01*
X130109764Y-130542460D01*
X129885008Y-130635557D01*
X129682733Y-130770713D01*
X129510713Y-130942733D01*
X129375557Y-131145008D01*
X129373616Y-131149693D01*
X125057849Y-123674564D01*
X125074623Y-123674793D01*
X125360889Y-123621898D01*
X125499647Y-123402451D01*
X124902740Y-122368578D01*
X124885419Y-122378578D01*
X124806322Y-122241578D01*
X125122710Y-122241578D01*
X125719617Y-123275451D01*
X125979042Y-123265007D01*
X126167984Y-123043541D01*
X126310090Y-122789470D01*
X126399899Y-122512557D01*
X126433958Y-122223445D01*
X126410960Y-121933243D01*
X126376025Y-121783431D01*
X126156013Y-121645001D01*
X125122710Y-122241578D01*
X124806322Y-122241578D01*
X124758419Y-122158608D01*
X124775740Y-122148608D01*
X124765740Y-122131287D01*
X124985710Y-122004287D01*
X124995710Y-122021608D01*
X126029013Y-121425030D01*
X126019135Y-121165279D01*
X125906861Y-121060118D01*
X125667038Y-120895100D01*
X125399630Y-120780041D01*
X125288953Y-120756453D01*
X125346563Y-120694944D01*
X125412616Y-120588722D01*
X125456677Y-120471655D01*
X125477053Y-120348242D01*
X125472960Y-120223225D01*
X125444557Y-120101409D01*
X125392934Y-119987474D01*
X124542934Y-118515230D01*
X124470075Y-118413556D01*
X124378781Y-118328050D01*
X124272559Y-118261997D01*
X124155492Y-118217936D01*
X124032079Y-118197560D01*
X123907062Y-118201653D01*
X123785246Y-118230056D01*
X123671311Y-118281679D01*
X122376026Y-119029512D01*
X117930228Y-111329164D01*
X119221641Y-110583567D01*
X119323315Y-110510708D01*
X119408821Y-110419414D01*
X119474874Y-110313192D01*
X119518935Y-110196125D01*
X119539311Y-110072712D01*
X119535218Y-109947695D01*
X119506815Y-109825879D01*
X119455192Y-109711944D01*
X118605192Y-108239700D01*
X118532333Y-108138026D01*
X118441039Y-108052520D01*
X118334817Y-107986467D01*
X118217750Y-107942406D01*
X118094337Y-107922030D01*
X117969320Y-107926123D01*
X117847504Y-107954526D01*
X117733569Y-108006149D01*
X116442156Y-108751746D01*
X115199630Y-106599630D01*
X115679562Y-105768363D01*
X118795000Y-105768363D01*
X118795000Y-106011637D01*
X118842460Y-106250236D01*
X118935557Y-106474992D01*
X119070713Y-106677267D01*
X119242733Y-106849287D01*
X119445008Y-106984443D01*
X119669764Y-107077540D01*
X119908363Y-107125000D01*
X120151637Y-107125000D01*
X120390236Y-107077540D01*
X120614992Y-106984443D01*
X120817267Y-106849287D01*
X120838063Y-106828491D01*
X120852510Y-106860344D01*
X120867782Y-106900900D01*
X120896435Y-106946959D01*
X123899994Y-112144862D01*
X123833520Y-112078388D01*
X123647624Y-111954176D01*
X123441067Y-111868617D01*
X123221788Y-111825000D01*
X122998212Y-111825000D01*
X122778933Y-111868617D01*
X122572376Y-111954176D01*
X122386480Y-112078388D01*
X122228388Y-112236480D01*
X122104176Y-112422376D01*
X122018617Y-112628933D01*
X121975000Y-112848212D01*
X121975000Y-113071788D01*
X122018617Y-113291067D01*
X122104176Y-113497624D01*
X122228388Y-113683520D01*
X122386480Y-113841612D01*
X122572376Y-113965824D01*
X122778933Y-114051383D01*
X122998212Y-114095000D01*
X123221788Y-114095000D01*
X123441067Y-114051383D01*
X123647624Y-113965824D01*
X123833520Y-113841612D01*
X123991612Y-113683520D01*
X124115824Y-113497624D01*
X124201383Y-113291067D01*
X124245000Y-113071788D01*
X124245000Y-112848212D01*
X124212760Y-112686128D01*
X125907944Y-115619782D01*
X125725008Y-115695557D01*
X125522733Y-115830713D01*
X125350713Y-116002733D01*
X125215557Y-116205008D01*
X125122460Y-116429764D01*
X125075000Y-116668363D01*
X125075000Y-116911637D01*
X125122460Y-117150236D01*
X125215557Y-117374992D01*
X125350713Y-117577267D01*
X125522733Y-117749287D01*
X125725008Y-117884443D01*
X125949764Y-117977540D01*
X126188363Y-118025000D01*
X126431637Y-118025000D01*
X126670236Y-117977540D01*
X126894992Y-117884443D01*
X127097267Y-117749287D01*
X127123373Y-117723181D01*
X133739314Y-129172604D01*
X133689764Y-129182460D01*
X133465008Y-129275557D01*
X133262733Y-129410713D01*
X133090713Y-129582733D01*
X132955557Y-129785008D01*
X132862460Y-130009764D01*
X132815000Y-130248363D01*
X132815000Y-130491637D01*
X132862460Y-130730236D01*
X132955557Y-130954992D01*
X133090713Y-131157267D01*
X133262733Y-131329287D01*
X133465008Y-131464443D01*
X133689764Y-131557540D01*
X133928363Y-131605000D01*
X134171637Y-131605000D01*
X134410236Y-131557540D01*
X134634992Y-131464443D01*
X134837267Y-131329287D01*
X134931234Y-131235320D01*
X141951812Y-143385000D01*
X141868363Y-143385000D01*
X141629764Y-143432460D01*
X141405008Y-143525557D01*
X141202733Y-143660713D01*
X141030713Y-143832733D01*
X140895557Y-144035008D01*
X140802460Y-144259764D01*
X140755000Y-144498363D01*
X140755000Y-144741637D01*
X140802460Y-144980236D01*
X140895557Y-145204992D01*
X141030713Y-145407267D01*
X141202733Y-145579287D01*
X141405008Y-145714443D01*
X141629764Y-145807540D01*
X141868363Y-145855000D01*
X142111637Y-145855000D01*
X142350236Y-145807540D01*
X142574992Y-145714443D01*
X142777267Y-145579287D01*
X142949287Y-145407267D01*
X143084443Y-145204992D01*
X143118836Y-145121960D01*
X143149670Y-145131314D01*
X143190407Y-145146629D01*
X143211742Y-145150143D01*
X143232436Y-145156421D01*
X143275747Y-145160687D01*
X143318687Y-145167760D01*
X143372722Y-145165971D01*
X154359345Y-145165971D01*
X154335000Y-145288363D01*
X154335000Y-145531637D01*
X154382460Y-145770236D01*
X154475557Y-145994992D01*
X154610713Y-146197267D01*
X154782733Y-146369287D01*
X154985008Y-146504443D01*
X155209764Y-146597540D01*
X155448363Y-146645000D01*
X155691637Y-146645000D01*
X155930236Y-146597540D01*
X156154992Y-146504443D01*
X156357267Y-146369287D01*
X156529287Y-146197267D01*
X156664443Y-145994992D01*
X156757540Y-145770236D01*
X156805000Y-145531637D01*
X156805000Y-145288363D01*
X156780655Y-145165971D01*
X170633432Y-145165971D01*
X170625000Y-145208363D01*
X170625000Y-145451637D01*
X170672460Y-145690236D01*
X170765557Y-145914992D01*
X170900713Y-146117267D01*
X171072733Y-146289287D01*
X171275008Y-146424443D01*
X171499764Y-146517540D01*
X171738363Y-146565000D01*
X171981637Y-146565000D01*
X172220236Y-146517540D01*
X172444992Y-146424443D01*
X172647267Y-146289287D01*
X172819287Y-146117267D01*
X172954443Y-145914992D01*
X173047540Y-145690236D01*
X173095000Y-145451637D01*
X173095000Y-145208363D01*
X173086568Y-145165971D01*
X185576874Y-145165971D01*
X185492460Y-145369764D01*
X185445000Y-145608363D01*
X185445000Y-145851637D01*
X185492460Y-146090236D01*
X185585557Y-146314992D01*
X185720713Y-146517267D01*
X185892733Y-146689287D01*
X186095008Y-146824443D01*
X186319764Y-146917540D01*
X186558363Y-146965000D01*
X186801637Y-146965000D01*
X187040236Y-146917540D01*
X187264992Y-146824443D01*
X187467267Y-146689287D01*
X187639287Y-146517267D01*
X187774443Y-146314992D01*
X187867540Y-146090236D01*
X187915000Y-145851637D01*
X187915000Y-145608363D01*
X187867540Y-145369764D01*
X187774443Y-145145008D01*
X187639287Y-144942733D01*
X187634359Y-144937805D01*
X187655784Y-144907882D01*
X187683245Y-144874421D01*
X187708859Y-144826500D01*
X192874753Y-135871307D01*
X192902733Y-135899287D01*
X193105008Y-136034443D01*
X193329764Y-136127540D01*
X193568363Y-136175000D01*
X193811637Y-136175000D01*
X194050236Y-136127540D01*
X194274992Y-136034443D01*
X194477267Y-135899287D01*
X194649287Y-135727267D01*
X194784443Y-135524992D01*
X194877540Y-135300236D01*
X194925000Y-135061637D01*
X194925000Y-134818363D01*
X194877540Y-134579764D01*
X194784443Y-134355008D01*
X194649287Y-134152733D01*
X194477267Y-133980713D01*
X194274992Y-133845557D01*
X194088007Y-133768105D01*
X194569298Y-132933776D01*
X197825485Y-132933776D01*
X198858788Y-133530354D01*
X199455695Y-132496481D01*
X199316937Y-132277034D01*
X199030671Y-132224139D01*
X198739586Y-132228107D01*
X198454868Y-132288787D01*
X198187460Y-132403846D01*
X197947637Y-132568864D01*
X197835363Y-132674025D01*
X197825485Y-132933776D01*
X194569298Y-132933776D01*
X201625368Y-120701922D01*
X201727733Y-120804287D01*
X201930008Y-120939443D01*
X202154764Y-121032540D01*
X202393363Y-121080000D01*
X202636637Y-121080000D01*
X202875236Y-121032540D01*
X203099992Y-120939443D01*
X203302267Y-120804287D01*
X203474287Y-120632267D01*
X203609443Y-120429992D01*
X203702540Y-120205236D01*
X203750000Y-119966637D01*
X203750000Y-119723363D01*
X203702540Y-119484764D01*
X203609443Y-119260008D01*
X203474287Y-119057733D01*
X203302267Y-118885713D01*
X203099992Y-118750557D01*
X202875236Y-118657460D01*
X202811993Y-118644880D01*
X209041457Y-107845965D01*
X209065713Y-107882267D01*
X209237733Y-108054287D01*
X209440008Y-108189443D01*
X209664764Y-108282540D01*
X209903363Y-108330000D01*
X210146637Y-108330000D01*
X210385236Y-108282540D01*
X210609992Y-108189443D01*
X210812267Y-108054287D01*
X210984287Y-107882267D01*
X211119443Y-107679992D01*
X211212540Y-107455236D01*
X211260000Y-107216637D01*
X211260000Y-106973363D01*
X211212540Y-106734764D01*
X211119443Y-106510008D01*
X210984287Y-106307733D01*
X210812267Y-106135713D01*
X210609992Y-106000557D01*
X210385236Y-105907460D01*
X210146637Y-105860000D01*
X209903363Y-105860000D01*
X209664764Y-105907460D01*
X209440008Y-106000557D01*
X209428576Y-106008196D01*
X203843472Y-96338722D01*
X204000236Y-96307540D01*
X204224992Y-96214443D01*
X204427267Y-96079287D01*
X204599287Y-95907267D01*
X204734443Y-95704992D01*
X204827540Y-95480236D01*
X204875000Y-95241637D01*
X204875000Y-94998363D01*
X204827540Y-94759764D01*
X204734443Y-94535008D01*
X204599287Y-94332733D01*
X204427267Y-94160713D01*
X204224992Y-94025557D01*
X204000236Y-93932460D01*
X203761637Y-93885000D01*
X203518363Y-93885000D01*
X203279764Y-93932460D01*
X203055008Y-94025557D01*
X202852733Y-94160713D01*
X202683310Y-94330136D01*
X200748172Y-90979836D01*
X204059177Y-90979836D01*
X204082175Y-91270038D01*
X204117110Y-91419850D01*
X204337122Y-91558280D01*
X205370425Y-90961703D01*
X204773518Y-89927830D01*
X204514093Y-89938274D01*
X204325151Y-90159740D01*
X204183045Y-90413811D01*
X204093236Y-90690724D01*
X204059177Y-90979836D01*
X200748172Y-90979836D01*
X195422230Y-81759051D01*
X195505236Y-81742540D01*
X195729992Y-81649443D01*
X195932267Y-81514287D01*
X196104287Y-81342267D01*
X196239443Y-81139992D01*
X196332540Y-80915236D01*
X196380000Y-80676637D01*
X196380000Y-80516260D01*
X197773510Y-80516260D01*
X198052975Y-81006451D01*
X198125833Y-81108125D01*
X198217128Y-81193632D01*
X198323350Y-81259684D01*
X198440416Y-81303745D01*
X198563829Y-81324120D01*
X198688846Y-81320028D01*
X198810663Y-81291625D01*
X198924597Y-81240001D01*
X199411716Y-80955216D01*
X199469823Y-80738359D01*
X198870198Y-79699778D01*
X197831617Y-80299403D01*
X197773510Y-80516260D01*
X196380000Y-80516260D01*
X196380000Y-80433363D01*
X196332540Y-80194764D01*
X196239443Y-79970008D01*
X196104287Y-79767733D01*
X195932267Y-79595713D01*
X195729992Y-79460557D01*
X195505236Y-79367460D01*
X195266637Y-79320000D01*
X195023363Y-79320000D01*
X194784764Y-79367460D01*
X194560008Y-79460557D01*
X194357733Y-79595713D01*
X194240434Y-79713012D01*
X188511775Y-69795000D01*
X188681637Y-69795000D01*
X188920236Y-69747540D01*
X189144992Y-69654443D01*
X189347267Y-69519287D01*
X189519287Y-69347267D01*
X189654443Y-69144992D01*
X189747540Y-68920236D01*
X189795000Y-68681637D01*
X189795000Y-68438363D01*
X189747540Y-68199764D01*
X189654443Y-67975008D01*
X189519287Y-67772733D01*
X189347267Y-67600713D01*
X189144992Y-67465557D01*
X188920236Y-67372460D01*
X188681637Y-67325000D01*
X188438363Y-67325000D01*
X188199764Y-67372460D01*
X187975008Y-67465557D01*
X187772733Y-67600713D01*
X187600713Y-67772733D01*
X187465557Y-67975008D01*
X187412798Y-68102379D01*
X187406449Y-68098433D01*
X187386160Y-68090801D01*
X187367032Y-68080577D01*
X187325434Y-68067958D01*
X187284765Y-68052660D01*
X187263376Y-68049133D01*
X187242622Y-68042837D01*
X187199362Y-68038576D01*
X187156488Y-68031506D01*
X187102406Y-68033287D01*
X174305491Y-68033287D01*
X174344443Y-67974992D01*
X174437540Y-67750236D01*
X174485000Y-67511637D01*
X174485000Y-67268363D01*
X174437540Y-67029764D01*
X174344443Y-66805008D01*
X174209287Y-66602733D01*
X174037267Y-66430713D01*
X173834992Y-66295557D01*
X173610236Y-66202460D01*
X173371637Y-66155000D01*
X173128363Y-66155000D01*
X172889764Y-66202460D01*
X172665008Y-66295557D01*
X172462733Y-66430713D01*
X172290713Y-66602733D01*
X172155557Y-66805008D01*
X172062460Y-67029764D01*
X172015000Y-67268363D01*
X172015000Y-67511637D01*
X172062460Y-67750236D01*
X172155557Y-67974992D01*
X172194509Y-68033287D01*
X158833267Y-68033287D01*
X158869287Y-67997267D01*
X159004443Y-67794992D01*
X159097540Y-67570236D01*
X159145000Y-67331637D01*
X159145000Y-67088363D01*
X159097540Y-66849764D01*
X159004443Y-66625008D01*
X158869287Y-66422733D01*
X158697267Y-66250713D01*
X158494992Y-66115557D01*
X158270236Y-66022460D01*
X158031637Y-65975000D01*
X157788363Y-65975000D01*
X157549764Y-66022460D01*
X157325008Y-66115557D01*
X157122733Y-66250713D01*
X156950713Y-66422733D01*
X156815557Y-66625008D01*
X156722460Y-66849764D01*
X156675000Y-67088363D01*
X156675000Y-67331637D01*
X156722460Y-67570236D01*
X156815557Y-67794992D01*
X156950713Y-67997267D01*
X156986733Y-68033287D01*
X143891484Y-68033287D01*
X143987267Y-67969287D01*
X144159287Y-67797267D01*
X144294443Y-67594992D01*
X144387540Y-67370236D01*
X144435000Y-67131637D01*
X144435000Y-66888363D01*
X144387540Y-66649764D01*
X144294443Y-66425008D01*
X144159287Y-66222733D01*
X143987267Y-66050713D01*
X143784992Y-65915557D01*
X143560236Y-65822460D01*
X143321637Y-65775000D01*
X143078363Y-65775000D01*
X142839764Y-65822460D01*
X142615008Y-65915557D01*
X142412733Y-66050713D01*
X142240713Y-66222733D01*
X142105557Y-66425008D01*
X142012460Y-66649764D01*
X141965000Y-66888363D01*
X141965000Y-67131637D01*
X142012460Y-67370236D01*
X142105557Y-67594992D01*
X142240713Y-67797267D01*
X142412733Y-67969287D01*
X142615008Y-68104443D01*
X142839764Y-68197540D01*
X142893838Y-68208296D01*
X142874290Y-68224339D01*
X142860458Y-68241194D01*
X142844545Y-68256103D01*
X142819306Y-68291337D01*
X142791813Y-68324837D01*
X142766249Y-68372665D01*
X136772778Y-78757957D01*
X136769287Y-78752733D01*
X136597267Y-78580713D01*
X136394992Y-78445557D01*
X136170236Y-78352460D01*
X135931637Y-78305000D01*
X135688363Y-78305000D01*
X135449764Y-78352460D01*
X135225008Y-78445557D01*
X135022733Y-78580713D01*
X134850713Y-78752733D01*
X134715557Y-78955008D01*
X134622460Y-79179764D01*
X134575000Y-79418363D01*
X134575000Y-79661637D01*
X134622460Y-79900236D01*
X134715557Y-80124992D01*
X134850713Y-80327267D01*
X135022733Y-80499287D01*
X135225008Y-80634443D01*
X135449764Y-80727540D01*
X135616921Y-80760789D01*
X128902271Y-92395717D01*
X128807267Y-92300713D01*
X128604992Y-92165557D01*
X128380236Y-92072460D01*
X128141637Y-92025000D01*
X127898363Y-92025000D01*
X127659764Y-92072460D01*
X127435008Y-92165557D01*
X127232733Y-92300713D01*
X127060713Y-92472733D01*
X126925557Y-92675008D01*
X126832460Y-92899764D01*
X126785000Y-93138363D01*
X126785000Y-93381637D01*
X126832460Y-93620236D01*
X126925557Y-93844992D01*
X127060713Y-94047267D01*
X127232733Y-94219287D01*
X127435008Y-94354443D01*
X127659764Y-94447540D01*
X127712129Y-94457956D01*
X121244434Y-105664970D01*
X121217540Y-105529764D01*
X121124443Y-105305008D01*
X120989287Y-105102733D01*
X120817267Y-104930713D01*
X120614992Y-104795557D01*
X120390236Y-104702460D01*
X120151637Y-104655000D01*
X119908363Y-104655000D01*
X119669764Y-104702460D01*
X119445008Y-104795557D01*
X119242733Y-104930713D01*
X119070713Y-105102733D01*
X118935557Y-105305008D01*
X118842460Y-105529764D01*
X118795000Y-105768363D01*
X115679562Y-105768363D01*
X116446531Y-104439934D01*
X117729286Y-105180533D01*
X117843221Y-105232156D01*
X117965037Y-105260559D01*
X118090054Y-105264652D01*
X118213467Y-105244276D01*
X118330534Y-105200215D01*
X118436756Y-105134162D01*
X118528050Y-105048656D01*
X118600909Y-104946982D01*
X119450909Y-103474738D01*
X119502532Y-103360803D01*
X119530935Y-103238987D01*
X119535028Y-103113970D01*
X119514652Y-102990557D01*
X119470591Y-102873490D01*
X119404538Y-102767268D01*
X119319032Y-102675974D01*
X119232937Y-102614279D01*
X119427267Y-102484432D01*
X119599287Y-102312412D01*
X119734443Y-102110137D01*
X119827540Y-101885381D01*
X119875000Y-101646782D01*
X119875000Y-101403508D01*
X119827540Y-101164909D01*
X119734443Y-100940153D01*
X119599287Y-100737878D01*
X119427267Y-100565858D01*
X119224992Y-100430702D01*
X119000236Y-100337605D01*
X118834092Y-100304557D01*
X122458918Y-94026175D01*
X122523723Y-94123162D01*
X122730566Y-94330005D01*
X122973787Y-94492520D01*
X123244040Y-94604462D01*
X123530938Y-94661530D01*
X123823458Y-94661530D01*
X124110356Y-94604462D01*
X124380609Y-94492520D01*
X124623830Y-94330005D01*
X124830673Y-94123162D01*
X124993188Y-93879941D01*
X125105130Y-93609688D01*
X125162198Y-93322790D01*
X125162198Y-93030270D01*
X125107401Y-92754790D01*
X125175035Y-92770560D01*
X125300052Y-92774652D01*
X125423465Y-92754277D01*
X125540531Y-92710216D01*
X125646753Y-92644164D01*
X125738048Y-92558657D01*
X125810906Y-92456983D01*
X126090371Y-91966792D01*
X126032264Y-91749935D01*
X124993683Y-91150310D01*
X124983683Y-91167631D01*
X124763713Y-91040631D01*
X124773713Y-91023310D01*
X124756392Y-91013310D01*
X124883392Y-90793340D01*
X124900713Y-90803340D01*
X124910713Y-90786019D01*
X125130683Y-90913019D01*
X125120683Y-90930340D01*
X126159264Y-91529965D01*
X126376121Y-91471858D01*
X126660906Y-90984739D01*
X126712530Y-90870805D01*
X126740933Y-90748988D01*
X126745025Y-90623971D01*
X126724650Y-90500558D01*
X126680589Y-90383492D01*
X126614537Y-90277270D01*
X126529030Y-90185975D01*
X126427356Y-90113117D01*
X126223079Y-89996656D01*
X126384992Y-89929589D01*
X126587267Y-89794433D01*
X126759287Y-89622413D01*
X126894443Y-89420138D01*
X126987540Y-89195382D01*
X127035000Y-88956783D01*
X127035000Y-88713509D01*
X126987540Y-88474910D01*
X126894443Y-88250154D01*
X126759287Y-88047879D01*
X126587267Y-87875859D01*
X126384992Y-87740703D01*
X126160236Y-87647606D01*
X126143508Y-87644279D01*
X130150543Y-80703889D01*
X131026776Y-80703889D01*
X131165534Y-80923336D01*
X131451800Y-80976231D01*
X131742885Y-80972263D01*
X132027603Y-80911583D01*
X132295011Y-80796524D01*
X132534834Y-80631506D01*
X132647108Y-80526345D01*
X132656986Y-80266594D01*
X131623683Y-79670016D01*
X131026776Y-80703889D01*
X130150543Y-80703889D01*
X130358105Y-80344382D01*
X130358439Y-80344979D01*
X130547381Y-80566445D01*
X130806806Y-80576889D01*
X131403713Y-79543016D01*
X131386392Y-79533016D01*
X131513392Y-79313046D01*
X131530713Y-79323046D01*
X131540713Y-79305725D01*
X131760683Y-79432725D01*
X131750683Y-79450046D01*
X132783986Y-80046623D01*
X133003998Y-79908193D01*
X133038933Y-79758381D01*
X133061931Y-79468179D01*
X133027872Y-79179067D01*
X132992961Y-79071424D01*
X133075035Y-79090561D01*
X133200052Y-79094654D01*
X133323465Y-79074278D01*
X133440532Y-79030217D01*
X133546754Y-78964164D01*
X133638048Y-78878658D01*
X133710907Y-78776984D01*
X134560907Y-77304740D01*
X134612530Y-77190805D01*
X134640933Y-77068989D01*
X134645026Y-76943972D01*
X134624650Y-76820559D01*
X134580589Y-76703492D01*
X134514536Y-76597270D01*
X134429030Y-76505976D01*
X134327356Y-76433117D01*
X134111382Y-76308424D01*
X134140236Y-76302685D01*
X134364992Y-76209588D01*
X134567267Y-76074432D01*
X134739287Y-75902412D01*
X134874443Y-75700137D01*
X134967540Y-75475381D01*
X135015000Y-75236782D01*
X135015000Y-74993508D01*
X134967540Y-74754909D01*
X134874443Y-74530153D01*
X134739287Y-74327878D01*
X134567267Y-74155858D01*
X134364992Y-74020702D01*
X134140236Y-73927605D01*
X134070806Y-73913795D01*
X137489843Y-67991849D01*
X138769285Y-68730535D01*
X138883220Y-68782158D01*
X139005036Y-68810561D01*
X139130053Y-68814654D01*
X139253466Y-68794278D01*
X139370533Y-68750217D01*
X139476755Y-68684164D01*
X139568049Y-68598658D01*
X139640908Y-68496984D01*
X140490908Y-67024740D01*
X140542531Y-66910805D01*
X140570934Y-66788989D01*
X140575027Y-66663972D01*
X140554651Y-66540559D01*
X140510590Y-66423492D01*
X140444537Y-66317270D01*
X140359031Y-66225976D01*
X140257357Y-66153117D01*
X138977916Y-65414432D01*
X140218580Y-63265538D01*
X142705079Y-63265538D01*
X142705079Y-64747289D01*
G37*
X142705079Y-64747289D02*
X142717339Y-64871771D01*
X142753649Y-64991469D01*
X142812614Y-65101783D01*
X142891966Y-65198474D01*
X142988657Y-65277826D01*
X143098971Y-65336791D01*
X143218669Y-65373101D01*
X143343151Y-65385361D01*
X145043151Y-65385361D01*
X145167633Y-65373101D01*
X145287331Y-65336791D01*
X145397645Y-65277826D01*
X145494336Y-65198474D01*
X145498733Y-65193117D01*
X145537945Y-65209359D01*
X145776544Y-65256819D01*
X146019818Y-65256819D01*
X146258417Y-65209359D01*
X146483173Y-65116262D01*
X146685448Y-64981106D01*
X146857468Y-64809086D01*
X146992624Y-64606811D01*
X147085721Y-64382055D01*
X147133181Y-64143456D01*
X147133181Y-63900182D01*
X147085721Y-63661583D01*
X146992624Y-63436827D01*
X146878172Y-63265538D01*
X154728739Y-63265538D01*
X154646876Y-63463174D01*
X154589808Y-63750072D01*
X154589808Y-64042592D01*
X154646876Y-64329490D01*
X154758818Y-64599743D01*
X154921333Y-64842964D01*
X155128176Y-65049807D01*
X155371397Y-65212322D01*
X155641650Y-65324264D01*
X155928548Y-65381332D01*
X156221068Y-65381332D01*
X156507966Y-65324264D01*
X156778219Y-65212322D01*
X157021440Y-65049807D01*
X157153295Y-64917952D01*
X157175306Y-64990512D01*
X157234271Y-65100826D01*
X157313623Y-65197517D01*
X157410314Y-65276869D01*
X157520628Y-65335834D01*
X157640326Y-65372144D01*
X157764808Y-65384404D01*
X158329058Y-65381332D01*
X158487808Y-65222582D01*
X158487808Y-64023332D01*
X158467808Y-64023332D01*
X158467808Y-63769332D01*
X158487808Y-63769332D01*
X158487808Y-63749332D01*
X158741808Y-63749332D01*
X158741808Y-63769332D01*
X158761808Y-63769332D01*
X158761808Y-64023332D01*
X158741808Y-64023332D01*
X158741808Y-65222582D01*
X158900558Y-65381332D01*
X159464808Y-65384404D01*
X159589290Y-65372144D01*
X159708988Y-65335834D01*
X159819302Y-65276869D01*
X159915993Y-65197517D01*
X159995345Y-65100826D01*
X160054310Y-64990512D01*
X160075175Y-64921729D01*
X160187949Y-65034503D01*
X160390224Y-65169659D01*
X160614980Y-65262756D01*
X160853579Y-65310216D01*
X161096853Y-65310216D01*
X161335452Y-65262756D01*
X161560208Y-65169659D01*
X161762483Y-65034503D01*
X161934503Y-64862483D01*
X162069659Y-64660208D01*
X162162756Y-64435452D01*
X162198684Y-64254824D01*
X170430554Y-64254824D01*
X170527878Y-64529185D01*
X170676857Y-64779288D01*
X170871766Y-64995521D01*
X171105115Y-65169574D01*
X171367936Y-65294758D01*
X171515145Y-65339409D01*
X171745035Y-65218088D01*
X171745035Y-64024933D01*
X170551221Y-64024933D01*
X170430554Y-64254824D01*
X162198684Y-64254824D01*
X162210216Y-64196853D01*
X162210216Y-63953579D01*
X162162756Y-63714980D01*
X162069659Y-63490224D01*
X161934503Y-63287949D01*
X161912092Y-63265538D01*
X170528559Y-63265538D01*
X170527878Y-63266681D01*
X170430554Y-63541042D01*
X170551221Y-63770933D01*
X171745035Y-63770933D01*
X171745035Y-63750933D01*
X171999035Y-63750933D01*
X171999035Y-63770933D01*
X172019035Y-63770933D01*
X172019035Y-64024933D01*
X171999035Y-64024933D01*
X171999035Y-65218088D01*
X172228925Y-65339409D01*
X172376134Y-65294758D01*
X172638955Y-65169574D01*
X172872304Y-64995521D01*
X172948069Y-64911467D01*
X172972533Y-64992113D01*
X173031498Y-65102427D01*
X173110850Y-65199118D01*
X173207541Y-65278470D01*
X173317855Y-65337435D01*
X173437553Y-65373745D01*
X173562035Y-65386005D01*
X175262035Y-65386005D01*
X175386517Y-65373745D01*
X175506215Y-65337435D01*
X175616529Y-65278470D01*
X175713220Y-65199118D01*
X175792572Y-65102427D01*
X175851537Y-64992113D01*
X175887847Y-64872415D01*
X175900107Y-64747933D01*
X175900107Y-63265538D01*
X184791704Y-63265538D01*
X184791704Y-64743464D01*
X184803964Y-64867946D01*
X184840274Y-64987644D01*
X184899239Y-65097958D01*
X184978591Y-65194649D01*
X185075282Y-65274001D01*
X185185596Y-65332966D01*
X185305294Y-65369276D01*
X185429776Y-65381536D01*
X187129776Y-65381536D01*
X187254258Y-65369276D01*
X187373956Y-65332966D01*
X187484270Y-65274001D01*
X187580961Y-65194649D01*
X187660313Y-65097958D01*
X187719278Y-64987644D01*
X187755588Y-64867946D01*
X187767848Y-64743464D01*
X187767848Y-63265538D01*
X190256478Y-63265538D01*
X191507779Y-65432854D01*
X190224867Y-66173543D01*
X190123193Y-66246402D01*
X190037687Y-66337696D01*
X189971634Y-66443918D01*
X189927573Y-66560985D01*
X189907197Y-66684398D01*
X189911290Y-66809415D01*
X189939693Y-66931231D01*
X189991316Y-67045166D01*
X190841316Y-68517410D01*
X190914175Y-68619084D01*
X191005469Y-68704590D01*
X191111691Y-68770643D01*
X191228758Y-68814704D01*
X191352171Y-68835080D01*
X191477188Y-68830987D01*
X191599004Y-68802584D01*
X191712939Y-68750961D01*
X192995851Y-68010272D01*
X194233400Y-70153769D01*
X194034344Y-70236221D01*
X193832069Y-70371377D01*
X193660049Y-70543397D01*
X193524893Y-70745672D01*
X193431796Y-70970428D01*
X193384336Y-71209027D01*
X193384336Y-71452301D01*
X193431796Y-71690900D01*
X193524893Y-71915656D01*
X193660049Y-72117931D01*
X193832069Y-72289951D01*
X194034344Y-72425107D01*
X194259100Y-72518204D01*
X194497699Y-72565664D01*
X194740973Y-72565664D01*
X194979572Y-72518204D01*
X195204328Y-72425107D01*
X195406603Y-72289951D01*
X195444719Y-72251835D01*
X197517264Y-75841588D01*
X197500423Y-75841588D01*
X197213525Y-75898656D01*
X196943272Y-76010598D01*
X196700051Y-76173113D01*
X196493208Y-76379956D01*
X196330693Y-76623177D01*
X196218751Y-76893430D01*
X196161683Y-77180328D01*
X196161683Y-77472848D01*
X196218751Y-77759746D01*
X196330693Y-78029999D01*
X196493208Y-78273220D01*
X196700051Y-78480063D01*
X196943272Y-78642578D01*
X197213525Y-78754520D01*
X197300736Y-78771867D01*
X197249344Y-78826738D01*
X197183292Y-78932960D01*
X197139231Y-79050026D01*
X197118856Y-79173439D01*
X197122948Y-79298456D01*
X197151351Y-79420273D01*
X197202975Y-79534207D01*
X197487760Y-80021326D01*
X197704617Y-80079433D01*
X198743198Y-79479808D01*
X198733198Y-79462487D01*
X198953168Y-79335487D01*
X198963168Y-79352808D01*
X198980489Y-79342808D01*
X199107489Y-79562778D01*
X199090168Y-79572778D01*
X199689793Y-80611359D01*
X199906650Y-80669466D01*
X200206081Y-80498756D01*
X201864266Y-83370817D01*
X201819764Y-83379669D01*
X201595008Y-83472766D01*
X201392733Y-83607922D01*
X201220713Y-83779942D01*
X201085557Y-83982217D01*
X200992460Y-84206973D01*
X200945000Y-84445572D01*
X200945000Y-84688846D01*
X200992460Y-84927445D01*
X201085557Y-85152201D01*
X201220713Y-85354476D01*
X201392733Y-85526496D01*
X201595008Y-85661652D01*
X201819764Y-85754749D01*
X202058363Y-85802209D01*
X202301637Y-85802209D01*
X202540236Y-85754749D01*
X202764992Y-85661652D01*
X202967267Y-85526496D01*
X203057026Y-85436737D01*
X205419406Y-89528500D01*
X205418512Y-89528488D01*
X205132246Y-89581383D01*
X204993488Y-89800830D01*
X205590395Y-90834703D01*
X205607716Y-90824703D01*
X205734716Y-91044673D01*
X205717395Y-91054673D01*
X205727395Y-91071994D01*
X205507425Y-91198994D01*
X205497425Y-91181673D01*
X204464122Y-91778251D01*
X204474000Y-92038002D01*
X204586274Y-92143163D01*
X204826097Y-92308181D01*
X205093505Y-92423240D01*
X205204182Y-92446828D01*
X205146572Y-92508337D01*
X205080519Y-92614559D01*
X205036458Y-92731626D01*
X205016082Y-92855039D01*
X205020175Y-92980056D01*
X205048578Y-93101872D01*
X205100201Y-93215807D01*
X205950201Y-94688051D01*
X206023060Y-94789725D01*
X206114354Y-94875231D01*
X206220576Y-94941284D01*
X206337643Y-94985345D01*
X206461056Y-95005721D01*
X206586073Y-95001628D01*
X206707889Y-94973225D01*
X206821824Y-94921602D01*
X208105292Y-94180592D01*
X212551090Y-101880939D01*
X211271492Y-102619715D01*
X211169818Y-102692574D01*
X211084312Y-102783868D01*
X211018259Y-102890090D01*
X210974198Y-103007157D01*
X210953822Y-103130570D01*
X210957915Y-103255587D01*
X210986318Y-103377403D01*
X211037941Y-103491338D01*
X211887941Y-104963582D01*
X211960800Y-105065256D01*
X212052094Y-105150762D01*
X212158316Y-105216815D01*
X212275383Y-105260876D01*
X212398796Y-105281252D01*
X212523813Y-105277159D01*
X212645629Y-105248756D01*
X212759564Y-105197133D01*
X214039162Y-104458357D01*
X215275426Y-106599629D01*
X214029899Y-108756946D01*
X212753186Y-108019836D01*
X212639251Y-107968213D01*
X212517435Y-107939810D01*
X212392418Y-107935717D01*
X212269005Y-107956093D01*
X212151938Y-108000154D01*
X212045716Y-108066207D01*
X211954422Y-108151713D01*
X211881563Y-108253387D01*
X211031563Y-109725631D01*
X210979940Y-109839566D01*
X210951537Y-109961382D01*
X210947444Y-110086399D01*
X210967820Y-110209812D01*
X211011881Y-110326879D01*
X211077934Y-110433101D01*
X211163440Y-110524395D01*
X211265114Y-110597254D01*
X212541826Y-111334364D01*
X211209161Y-113642607D01*
X211107267Y-113540713D01*
X210904992Y-113405557D01*
X210680236Y-113312460D01*
X210441637Y-113265000D01*
X210198363Y-113265000D01*
X209959764Y-113312460D01*
X209735008Y-113405557D01*
X209532733Y-113540713D01*
X209360713Y-113712733D01*
X209225557Y-113915008D01*
X209132460Y-114139764D01*
X209085000Y-114378363D01*
X209085000Y-114621637D01*
X209132460Y-114860236D01*
X209225557Y-115084992D01*
X209360713Y-115287267D01*
X209532733Y-115459287D01*
X209735008Y-115594443D01*
X209959764Y-115687540D01*
X210021436Y-115699807D01*
X208019231Y-119167728D01*
X207958748Y-119077208D01*
X207751905Y-118870365D01*
X207508684Y-118707850D01*
X207238431Y-118595908D01*
X206951533Y-118538840D01*
X206659013Y-118538840D01*
X206372115Y-118595908D01*
X206101862Y-118707850D01*
X205858641Y-118870365D01*
X205651798Y-119077208D01*
X205489283Y-119320429D01*
X205377341Y-119590682D01*
X205320273Y-119877580D01*
X205320273Y-120170100D01*
X205375070Y-120445580D01*
X205307436Y-120429810D01*
X205182419Y-120425718D01*
X205059006Y-120446093D01*
X204941940Y-120490154D01*
X204835718Y-120556206D01*
X204744423Y-120641713D01*
X204671565Y-120743387D01*
X204392100Y-121233578D01*
X204450207Y-121450435D01*
X205488788Y-122050060D01*
X205498788Y-122032739D01*
X205718758Y-122159739D01*
X205708758Y-122177060D01*
X205726079Y-122187060D01*
X205599079Y-122407030D01*
X205581758Y-122397030D01*
X205571758Y-122414351D01*
X205351788Y-122287351D01*
X205361788Y-122270030D01*
X204323207Y-121670405D01*
X204106350Y-121728512D01*
X203821565Y-122215631D01*
X203769941Y-122329565D01*
X203741538Y-122451382D01*
X203737446Y-122576399D01*
X203757821Y-122699812D01*
X203801882Y-122816878D01*
X203867934Y-122923100D01*
X203885744Y-122942115D01*
X203805008Y-122975557D01*
X203602733Y-123110713D01*
X203430713Y-123282733D01*
X203295557Y-123485008D01*
X203202460Y-123709764D01*
X203155000Y-123948363D01*
X203155000Y-124191637D01*
X203202460Y-124430236D01*
X203295557Y-124654992D01*
X203430713Y-124857267D01*
X203602733Y-125029287D01*
X203805008Y-125164443D01*
X204029764Y-125257540D01*
X204268363Y-125305000D01*
X204475876Y-125305000D01*
X200119633Y-132850235D01*
X199935090Y-132633925D01*
X199675665Y-132623481D01*
X199078758Y-133657354D01*
X199096079Y-133667354D01*
X198969079Y-133887324D01*
X198951758Y-133877324D01*
X198941758Y-133894645D01*
X198721788Y-133767645D01*
X198731788Y-133750324D01*
X197698485Y-133153747D01*
X197478473Y-133292177D01*
X197443538Y-133441989D01*
X197420540Y-133732191D01*
X197454599Y-134021303D01*
X197489510Y-134128946D01*
X197407436Y-134109809D01*
X197282419Y-134105716D01*
X197159006Y-134126092D01*
X197041939Y-134170153D01*
X196935717Y-134236206D01*
X196844423Y-134321712D01*
X196771564Y-134423386D01*
X195921564Y-135895630D01*
X195869941Y-136009565D01*
X195841538Y-136131381D01*
X195837445Y-136256398D01*
X195857821Y-136379811D01*
X195901882Y-136496878D01*
X195967935Y-136603100D01*
X196053441Y-136694394D01*
X196155115Y-136767253D01*
X197432385Y-137504685D01*
X192986587Y-145205033D01*
X191713187Y-144469835D01*
X191599252Y-144418212D01*
X191477436Y-144389809D01*
X191352419Y-144385716D01*
X191229006Y-144406092D01*
X191111939Y-144450153D01*
X191005717Y-144516206D01*
X190914423Y-144601712D01*
X190841564Y-144703386D01*
X189991564Y-146175630D01*
X189939941Y-146289565D01*
X189911538Y-146411381D01*
X189907445Y-146536398D01*
X189927821Y-146659811D01*
X189971882Y-146776878D01*
X190037935Y-146883100D01*
X190123441Y-146974394D01*
X190225115Y-147047253D01*
X191498514Y-147782450D01*
X190256478Y-149933720D01*
X187772379Y-149933720D01*
X187772379Y-148442789D01*
X187760119Y-148318307D01*
X187723809Y-148198609D01*
X187664844Y-148088295D01*
X187585492Y-147991604D01*
X187488801Y-147912252D01*
X187378487Y-147853287D01*
X187258789Y-147816977D01*
X187134307Y-147804717D01*
X185434307Y-147804717D01*
X185309825Y-147816977D01*
X185190127Y-147853287D01*
X185079813Y-147912252D01*
X184983122Y-147991604D01*
X184903770Y-148088295D01*
X184844805Y-148198609D01*
X184808495Y-148318307D01*
X184796235Y-148442789D01*
X184796235Y-149933720D01*
X182074558Y-149933720D01*
X182193049Y-149756386D01*
X182286146Y-149531630D01*
X182333606Y-149293031D01*
X182333606Y-149049757D01*
X182286146Y-148811158D01*
X182193049Y-148586402D01*
X182057893Y-148384127D01*
X181885873Y-148212107D01*
X181683598Y-148076951D01*
X181458842Y-147983854D01*
X181220243Y-147936394D01*
X180976969Y-147936394D01*
X180738370Y-147983854D01*
X180513614Y-148076951D01*
X180311339Y-148212107D01*
X180139319Y-148384127D01*
X180004163Y-148586402D01*
X179911066Y-148811158D01*
X179863606Y-149049757D01*
X179863606Y-149293031D01*
X179911066Y-149531630D01*
X180004163Y-149756386D01*
X180122654Y-149933720D01*
X175744918Y-149933720D01*
X175830583Y-149726906D01*
X175887651Y-149440008D01*
X175887651Y-149147488D01*
X175830583Y-148860590D01*
X175718641Y-148590337D01*
X175556126Y-148347116D01*
X175349283Y-148140273D01*
X175106062Y-147977758D01*
X174835809Y-147865816D01*
X174548911Y-147808748D01*
X174256391Y-147808748D01*
X173969493Y-147865816D01*
X173699240Y-147977758D01*
X173456019Y-148140273D01*
X173324164Y-148272128D01*
X173302153Y-148199568D01*
X173243188Y-148089254D01*
X173163836Y-147992563D01*
X173067145Y-147913211D01*
X172956831Y-147854246D01*
X172837133Y-147817936D01*
X172712651Y-147805676D01*
X172148401Y-147808748D01*
X171989651Y-147967498D01*
X171989651Y-149166748D01*
X172009651Y-149166748D01*
X172009651Y-149420748D01*
X171989651Y-149420748D01*
X171989651Y-149440748D01*
X171735651Y-149440748D01*
X171735651Y-149420748D01*
X171715651Y-149420748D01*
X171715651Y-149166748D01*
X171735651Y-149166748D01*
X171735651Y-147967498D01*
X171576901Y-147808748D01*
X171012651Y-147805676D01*
X170888169Y-147817936D01*
X170768471Y-147854246D01*
X170658157Y-147913211D01*
X170561466Y-147992563D01*
X170497415Y-148070609D01*
X170426994Y-148023555D01*
X170202238Y-147930458D01*
X169963639Y-147882998D01*
X169720365Y-147882998D01*
X169481766Y-147930458D01*
X169257010Y-148023555D01*
X169054735Y-148158711D01*
X168882715Y-148330731D01*
X168747559Y-148533006D01*
X168654462Y-148757762D01*
X168607002Y-148996361D01*
X168607002Y-149239635D01*
X168654462Y-149478234D01*
X168747559Y-149702990D01*
X168882715Y-149905265D01*
X168911170Y-149933720D01*
X159943433Y-149933720D01*
X159949581Y-149923399D01*
X160046905Y-149649038D01*
X159926238Y-149419147D01*
X158732424Y-149419147D01*
X158732424Y-149439147D01*
X158478424Y-149439147D01*
X158478424Y-149419147D01*
X158458424Y-149419147D01*
X158458424Y-149165147D01*
X158478424Y-149165147D01*
X158478424Y-147971992D01*
X158732424Y-147971992D01*
X158732424Y-149165147D01*
X159926238Y-149165147D01*
X160046905Y-148935256D01*
X159949581Y-148660895D01*
X159800602Y-148410792D01*
X159605693Y-148194559D01*
X159372344Y-148020506D01*
X159109523Y-147895322D01*
X158962314Y-147850671D01*
X158732424Y-147971992D01*
X158478424Y-147971992D01*
X158248534Y-147850671D01*
X158101325Y-147895322D01*
X157838504Y-148020506D01*
X157605155Y-148194559D01*
X157529390Y-148278613D01*
X157504926Y-148197967D01*
X157445961Y-148087653D01*
X157366609Y-147990962D01*
X157269918Y-147911610D01*
X157159604Y-147852645D01*
X157039906Y-147816335D01*
X156915424Y-147804075D01*
X155215424Y-147804075D01*
X155090942Y-147816335D01*
X154971244Y-147852645D01*
X154860930Y-147911610D01*
X154764239Y-147990962D01*
X154684887Y-148087653D01*
X154625922Y-148197967D01*
X154589612Y-148317665D01*
X154577352Y-148442147D01*
X154577352Y-149933720D01*
X145685755Y-149933720D01*
X145685755Y-148446615D01*
X145673495Y-148322133D01*
X145637185Y-148202435D01*
X145578220Y-148092121D01*
X145498868Y-147995430D01*
X145402177Y-147916078D01*
X145291863Y-147857113D01*
X145172165Y-147820803D01*
X145047683Y-147808543D01*
X143347683Y-147808543D01*
X143223201Y-147820803D01*
X143103503Y-147857113D01*
X142993189Y-147916078D01*
X142896498Y-147995430D01*
X142817146Y-148092121D01*
X142758181Y-148202435D01*
X142721871Y-148322133D01*
X142709611Y-148446615D01*
X142709611Y-149933720D01*
X140218580Y-149933720D01*
X138973541Y-147777250D01*
X140268267Y-147029740D01*
X140369941Y-146956881D01*
X140455447Y-146865587D01*
X140521500Y-146759365D01*
X140565561Y-146642298D01*
X140585937Y-146518885D01*
X140581844Y-146393868D01*
X140553441Y-146272052D01*
X140501818Y-146158117D01*
X139651818Y-144685873D01*
X139578959Y-144584199D01*
X139487665Y-144498693D01*
X139381443Y-144432640D01*
X139264376Y-144388579D01*
X139140963Y-144368203D01*
X139015946Y-144372296D01*
X138894130Y-144400699D01*
X138780195Y-144452322D01*
X137485468Y-145199832D01*
X136130418Y-142852816D01*
X136274992Y-142792931D01*
X136477267Y-142657775D01*
X136649287Y-142485755D01*
X136784443Y-142283480D01*
X136877540Y-142058724D01*
X136925000Y-141820125D01*
X136925000Y-141576851D01*
X136877540Y-141338252D01*
X136784443Y-141113496D01*
X136649287Y-140911221D01*
X136477267Y-140739201D01*
X136274992Y-140604045D01*
X136050236Y-140510948D01*
X135811637Y-140463488D01*
X135568363Y-140463488D01*
X135329764Y-140510948D01*
X135105008Y-140604045D01*
X134908065Y-140735638D01*
X132960117Y-137361694D01*
X132992711Y-137361694D01*
X133279609Y-137304626D01*
X133549862Y-137192684D01*
X133793083Y-137030169D01*
X133999926Y-136823326D01*
X134162441Y-136580105D01*
X134274383Y-136309852D01*
X134331451Y-136022954D01*
X134331451Y-135730434D01*
X134274383Y-135443536D01*
X134162441Y-135173283D01*
X133999926Y-134930062D01*
X133793083Y-134723219D01*
X133549862Y-134560704D01*
X133279609Y-134448762D01*
X133192398Y-134431415D01*
X133243790Y-134376544D01*
X133309842Y-134270322D01*
X133353903Y-134153256D01*
X133374278Y-134029843D01*
X133370186Y-133904826D01*
X133341783Y-133783009D01*
X133290159Y-133669075D01*
X133005374Y-133181956D01*
X132788517Y-133123849D01*
X131749936Y-133723474D01*
X131759936Y-133740795D01*
X131539966Y-133867795D01*
X131529966Y-133850474D01*
X131512645Y-133860474D01*
X131385645Y-133640504D01*
X131402966Y-133630504D01*
X131392966Y-133613183D01*
X131612936Y-133486183D01*
X131622936Y-133503504D01*
X132661517Y-132903879D01*
X132719624Y-132687022D01*
X132440159Y-132196831D01*
X132367301Y-132095157D01*
X132276006Y-132009650D01*
X132169784Y-131943598D01*
X132052718Y-131899537D01*
X131929305Y-131879162D01*
X131804288Y-131883254D01*
X131693576Y-131909068D01*
X131705000Y-131851637D01*
X131705000Y-131608363D01*
X131657540Y-131369764D01*
X131564443Y-131145008D01*
X131429287Y-130942733D01*
X131257267Y-130770713D01*
X131054992Y-130635557D01*
X130830236Y-130542460D01*
X130591637Y-130495000D01*
X130348363Y-130495000D01*
X130109764Y-130542460D01*
X129885008Y-130635557D01*
X129682733Y-130770713D01*
X129510713Y-130942733D01*
X129375557Y-131145008D01*
X129373616Y-131149693D01*
X125057849Y-123674564D01*
X125074623Y-123674793D01*
X125360889Y-123621898D01*
X125499647Y-123402451D01*
X124902740Y-122368578D01*
X124885419Y-122378578D01*
X124806322Y-122241578D01*
X125122710Y-122241578D01*
X125719617Y-123275451D01*
X125979042Y-123265007D01*
X126167984Y-123043541D01*
X126310090Y-122789470D01*
X126399899Y-122512557D01*
X126433958Y-122223445D01*
X126410960Y-121933243D01*
X126376025Y-121783431D01*
X126156013Y-121645001D01*
X125122710Y-122241578D01*
X124806322Y-122241578D01*
X124758419Y-122158608D01*
X124775740Y-122148608D01*
X124765740Y-122131287D01*
X124985710Y-122004287D01*
X124995710Y-122021608D01*
X126029013Y-121425030D01*
X126019135Y-121165279D01*
X125906861Y-121060118D01*
X125667038Y-120895100D01*
X125399630Y-120780041D01*
X125288953Y-120756453D01*
X125346563Y-120694944D01*
X125412616Y-120588722D01*
X125456677Y-120471655D01*
X125477053Y-120348242D01*
X125472960Y-120223225D01*
X125444557Y-120101409D01*
X125392934Y-119987474D01*
X124542934Y-118515230D01*
X124470075Y-118413556D01*
X124378781Y-118328050D01*
X124272559Y-118261997D01*
X124155492Y-118217936D01*
X124032079Y-118197560D01*
X123907062Y-118201653D01*
X123785246Y-118230056D01*
X123671311Y-118281679D01*
X122376026Y-119029512D01*
X117930228Y-111329164D01*
X119221641Y-110583567D01*
X119323315Y-110510708D01*
X119408821Y-110419414D01*
X119474874Y-110313192D01*
X119518935Y-110196125D01*
X119539311Y-110072712D01*
X119535218Y-109947695D01*
X119506815Y-109825879D01*
X119455192Y-109711944D01*
X118605192Y-108239700D01*
X118532333Y-108138026D01*
X118441039Y-108052520D01*
X118334817Y-107986467D01*
X118217750Y-107942406D01*
X118094337Y-107922030D01*
X117969320Y-107926123D01*
X117847504Y-107954526D01*
X117733569Y-108006149D01*
X116442156Y-108751746D01*
X115199630Y-106599630D01*
X115679562Y-105768363D01*
X118795000Y-105768363D01*
X118795000Y-106011637D01*
X118842460Y-106250236D01*
X118935557Y-106474992D01*
X119070713Y-106677267D01*
X119242733Y-106849287D01*
X119445008Y-106984443D01*
X119669764Y-107077540D01*
X119908363Y-107125000D01*
X120151637Y-107125000D01*
X120390236Y-107077540D01*
X120614992Y-106984443D01*
X120817267Y-106849287D01*
X120838063Y-106828491D01*
X120852510Y-106860344D01*
X120867782Y-106900900D01*
X120896435Y-106946959D01*
X123899994Y-112144862D01*
X123833520Y-112078388D01*
X123647624Y-111954176D01*
X123441067Y-111868617D01*
X123221788Y-111825000D01*
X122998212Y-111825000D01*
X122778933Y-111868617D01*
X122572376Y-111954176D01*
X122386480Y-112078388D01*
X122228388Y-112236480D01*
X122104176Y-112422376D01*
X122018617Y-112628933D01*
X121975000Y-112848212D01*
X121975000Y-113071788D01*
X122018617Y-113291067D01*
X122104176Y-113497624D01*
X122228388Y-113683520D01*
X122386480Y-113841612D01*
X122572376Y-113965824D01*
X122778933Y-114051383D01*
X122998212Y-114095000D01*
X123221788Y-114095000D01*
X123441067Y-114051383D01*
X123647624Y-113965824D01*
X123833520Y-113841612D01*
X123991612Y-113683520D01*
X124115824Y-113497624D01*
X124201383Y-113291067D01*
X124245000Y-113071788D01*
X124245000Y-112848212D01*
X124212760Y-112686128D01*
X125907944Y-115619782D01*
X125725008Y-115695557D01*
X125522733Y-115830713D01*
X125350713Y-116002733D01*
X125215557Y-116205008D01*
X125122460Y-116429764D01*
X125075000Y-116668363D01*
X125075000Y-116911637D01*
X125122460Y-117150236D01*
X125215557Y-117374992D01*
X125350713Y-117577267D01*
X125522733Y-117749287D01*
X125725008Y-117884443D01*
X125949764Y-117977540D01*
X126188363Y-118025000D01*
X126431637Y-118025000D01*
X126670236Y-117977540D01*
X126894992Y-117884443D01*
X127097267Y-117749287D01*
X127123373Y-117723181D01*
X133739314Y-129172604D01*
X133689764Y-129182460D01*
X133465008Y-129275557D01*
X133262733Y-129410713D01*
X133090713Y-129582733D01*
X132955557Y-129785008D01*
X132862460Y-130009764D01*
X132815000Y-130248363D01*
X132815000Y-130491637D01*
X132862460Y-130730236D01*
X132955557Y-130954992D01*
X133090713Y-131157267D01*
X133262733Y-131329287D01*
X133465008Y-131464443D01*
X133689764Y-131557540D01*
X133928363Y-131605000D01*
X134171637Y-131605000D01*
X134410236Y-131557540D01*
X134634992Y-131464443D01*
X134837267Y-131329287D01*
X134931234Y-131235320D01*
X141951812Y-143385000D01*
X141868363Y-143385000D01*
X141629764Y-143432460D01*
X141405008Y-143525557D01*
X141202733Y-143660713D01*
X141030713Y-143832733D01*
X140895557Y-144035008D01*
X140802460Y-144259764D01*
X140755000Y-144498363D01*
X140755000Y-144741637D01*
X140802460Y-144980236D01*
X140895557Y-145204992D01*
X141030713Y-145407267D01*
X141202733Y-145579287D01*
X141405008Y-145714443D01*
X141629764Y-145807540D01*
X141868363Y-145855000D01*
X142111637Y-145855000D01*
X142350236Y-145807540D01*
X142574992Y-145714443D01*
X142777267Y-145579287D01*
X142949287Y-145407267D01*
X143084443Y-145204992D01*
X143118836Y-145121960D01*
X143149670Y-145131314D01*
X143190407Y-145146629D01*
X143211742Y-145150143D01*
X143232436Y-145156421D01*
X143275747Y-145160687D01*
X143318687Y-145167760D01*
X143372722Y-145165971D01*
X154359345Y-145165971D01*
X154335000Y-145288363D01*
X154335000Y-145531637D01*
X154382460Y-145770236D01*
X154475557Y-145994992D01*
X154610713Y-146197267D01*
X154782733Y-146369287D01*
X154985008Y-146504443D01*
X155209764Y-146597540D01*
X155448363Y-146645000D01*
X155691637Y-146645000D01*
X155930236Y-146597540D01*
X156154992Y-146504443D01*
X156357267Y-146369287D01*
X156529287Y-146197267D01*
X156664443Y-145994992D01*
X156757540Y-145770236D01*
X156805000Y-145531637D01*
X156805000Y-145288363D01*
X156780655Y-145165971D01*
X170633432Y-145165971D01*
X170625000Y-145208363D01*
X170625000Y-145451637D01*
X170672460Y-145690236D01*
X170765557Y-145914992D01*
X170900713Y-146117267D01*
X171072733Y-146289287D01*
X171275008Y-146424443D01*
X171499764Y-146517540D01*
X171738363Y-146565000D01*
X171981637Y-146565000D01*
X172220236Y-146517540D01*
X172444992Y-146424443D01*
X172647267Y-146289287D01*
X172819287Y-146117267D01*
X172954443Y-145914992D01*
X173047540Y-145690236D01*
X173095000Y-145451637D01*
X173095000Y-145208363D01*
X173086568Y-145165971D01*
X185576874Y-145165971D01*
X185492460Y-145369764D01*
X185445000Y-145608363D01*
X185445000Y-145851637D01*
X185492460Y-146090236D01*
X185585557Y-146314992D01*
X185720713Y-146517267D01*
X185892733Y-146689287D01*
X186095008Y-146824443D01*
X186319764Y-146917540D01*
X186558363Y-146965000D01*
X186801637Y-146965000D01*
X187040236Y-146917540D01*
X187264992Y-146824443D01*
X187467267Y-146689287D01*
X187639287Y-146517267D01*
X187774443Y-146314992D01*
X187867540Y-146090236D01*
X187915000Y-145851637D01*
X187915000Y-145608363D01*
X187867540Y-145369764D01*
X187774443Y-145145008D01*
X187639287Y-144942733D01*
X187634359Y-144937805D01*
X187655784Y-144907882D01*
X187683245Y-144874421D01*
X187708859Y-144826500D01*
X192874753Y-135871307D01*
X192902733Y-135899287D01*
X193105008Y-136034443D01*
X193329764Y-136127540D01*
X193568363Y-136175000D01*
X193811637Y-136175000D01*
X194050236Y-136127540D01*
X194274992Y-136034443D01*
X194477267Y-135899287D01*
X194649287Y-135727267D01*
X194784443Y-135524992D01*
X194877540Y-135300236D01*
X194925000Y-135061637D01*
X194925000Y-134818363D01*
X194877540Y-134579764D01*
X194784443Y-134355008D01*
X194649287Y-134152733D01*
X194477267Y-133980713D01*
X194274992Y-133845557D01*
X194088007Y-133768105D01*
X194569298Y-132933776D01*
X197825485Y-132933776D01*
X198858788Y-133530354D01*
X199455695Y-132496481D01*
X199316937Y-132277034D01*
X199030671Y-132224139D01*
X198739586Y-132228107D01*
X198454868Y-132288787D01*
X198187460Y-132403846D01*
X197947637Y-132568864D01*
X197835363Y-132674025D01*
X197825485Y-132933776D01*
X194569298Y-132933776D01*
X201625368Y-120701922D01*
X201727733Y-120804287D01*
X201930008Y-120939443D01*
X202154764Y-121032540D01*
X202393363Y-121080000D01*
X202636637Y-121080000D01*
X202875236Y-121032540D01*
X203099992Y-120939443D01*
X203302267Y-120804287D01*
X203474287Y-120632267D01*
X203609443Y-120429992D01*
X203702540Y-120205236D01*
X203750000Y-119966637D01*
X203750000Y-119723363D01*
X203702540Y-119484764D01*
X203609443Y-119260008D01*
X203474287Y-119057733D01*
X203302267Y-118885713D01*
X203099992Y-118750557D01*
X202875236Y-118657460D01*
X202811993Y-118644880D01*
X209041457Y-107845965D01*
X209065713Y-107882267D01*
X209237733Y-108054287D01*
X209440008Y-108189443D01*
X209664764Y-108282540D01*
X209903363Y-108330000D01*
X210146637Y-108330000D01*
X210385236Y-108282540D01*
X210609992Y-108189443D01*
X210812267Y-108054287D01*
X210984287Y-107882267D01*
X211119443Y-107679992D01*
X211212540Y-107455236D01*
X211260000Y-107216637D01*
X211260000Y-106973363D01*
X211212540Y-106734764D01*
X211119443Y-106510008D01*
X210984287Y-106307733D01*
X210812267Y-106135713D01*
X210609992Y-106000557D01*
X210385236Y-105907460D01*
X210146637Y-105860000D01*
X209903363Y-105860000D01*
X209664764Y-105907460D01*
X209440008Y-106000557D01*
X209428576Y-106008196D01*
X203843472Y-96338722D01*
X204000236Y-96307540D01*
X204224992Y-96214443D01*
X204427267Y-96079287D01*
X204599287Y-95907267D01*
X204734443Y-95704992D01*
X204827540Y-95480236D01*
X204875000Y-95241637D01*
X204875000Y-94998363D01*
X204827540Y-94759764D01*
X204734443Y-94535008D01*
X204599287Y-94332733D01*
X204427267Y-94160713D01*
X204224992Y-94025557D01*
X204000236Y-93932460D01*
X203761637Y-93885000D01*
X203518363Y-93885000D01*
X203279764Y-93932460D01*
X203055008Y-94025557D01*
X202852733Y-94160713D01*
X202683310Y-94330136D01*
X200748172Y-90979836D01*
X204059177Y-90979836D01*
X204082175Y-91270038D01*
X204117110Y-91419850D01*
X204337122Y-91558280D01*
X205370425Y-90961703D01*
X204773518Y-89927830D01*
X204514093Y-89938274D01*
X204325151Y-90159740D01*
X204183045Y-90413811D01*
X204093236Y-90690724D01*
X204059177Y-90979836D01*
X200748172Y-90979836D01*
X195422230Y-81759051D01*
X195505236Y-81742540D01*
X195729992Y-81649443D01*
X195932267Y-81514287D01*
X196104287Y-81342267D01*
X196239443Y-81139992D01*
X196332540Y-80915236D01*
X196380000Y-80676637D01*
X196380000Y-80516260D01*
X197773510Y-80516260D01*
X198052975Y-81006451D01*
X198125833Y-81108125D01*
X198217128Y-81193632D01*
X198323350Y-81259684D01*
X198440416Y-81303745D01*
X198563829Y-81324120D01*
X198688846Y-81320028D01*
X198810663Y-81291625D01*
X198924597Y-81240001D01*
X199411716Y-80955216D01*
X199469823Y-80738359D01*
X198870198Y-79699778D01*
X197831617Y-80299403D01*
X197773510Y-80516260D01*
X196380000Y-80516260D01*
X196380000Y-80433363D01*
X196332540Y-80194764D01*
X196239443Y-79970008D01*
X196104287Y-79767733D01*
X195932267Y-79595713D01*
X195729992Y-79460557D01*
X195505236Y-79367460D01*
X195266637Y-79320000D01*
X195023363Y-79320000D01*
X194784764Y-79367460D01*
X194560008Y-79460557D01*
X194357733Y-79595713D01*
X194240434Y-79713012D01*
X188511775Y-69795000D01*
X188681637Y-69795000D01*
X188920236Y-69747540D01*
X189144992Y-69654443D01*
X189347267Y-69519287D01*
X189519287Y-69347267D01*
X189654443Y-69144992D01*
X189747540Y-68920236D01*
X189795000Y-68681637D01*
X189795000Y-68438363D01*
X189747540Y-68199764D01*
X189654443Y-67975008D01*
X189519287Y-67772733D01*
X189347267Y-67600713D01*
X189144992Y-67465557D01*
X188920236Y-67372460D01*
X188681637Y-67325000D01*
X188438363Y-67325000D01*
X188199764Y-67372460D01*
X187975008Y-67465557D01*
X187772733Y-67600713D01*
X187600713Y-67772733D01*
X187465557Y-67975008D01*
X187412798Y-68102379D01*
X187406449Y-68098433D01*
X187386160Y-68090801D01*
X187367032Y-68080577D01*
X187325434Y-68067958D01*
X187284765Y-68052660D01*
X187263376Y-68049133D01*
X187242622Y-68042837D01*
X187199362Y-68038576D01*
X187156488Y-68031506D01*
X187102406Y-68033287D01*
X174305491Y-68033287D01*
X174344443Y-67974992D01*
X174437540Y-67750236D01*
X174485000Y-67511637D01*
X174485000Y-67268363D01*
X174437540Y-67029764D01*
X174344443Y-66805008D01*
X174209287Y-66602733D01*
X174037267Y-66430713D01*
X173834992Y-66295557D01*
X173610236Y-66202460D01*
X173371637Y-66155000D01*
X173128363Y-66155000D01*
X172889764Y-66202460D01*
X172665008Y-66295557D01*
X172462733Y-66430713D01*
X172290713Y-66602733D01*
X172155557Y-66805008D01*
X172062460Y-67029764D01*
X172015000Y-67268363D01*
X172015000Y-67511637D01*
X172062460Y-67750236D01*
X172155557Y-67974992D01*
X172194509Y-68033287D01*
X158833267Y-68033287D01*
X158869287Y-67997267D01*
X159004443Y-67794992D01*
X159097540Y-67570236D01*
X159145000Y-67331637D01*
X159145000Y-67088363D01*
X159097540Y-66849764D01*
X159004443Y-66625008D01*
X158869287Y-66422733D01*
X158697267Y-66250713D01*
X158494992Y-66115557D01*
X158270236Y-66022460D01*
X158031637Y-65975000D01*
X157788363Y-65975000D01*
X157549764Y-66022460D01*
X157325008Y-66115557D01*
X157122733Y-66250713D01*
X156950713Y-66422733D01*
X156815557Y-66625008D01*
X156722460Y-66849764D01*
X156675000Y-67088363D01*
X156675000Y-67331637D01*
X156722460Y-67570236D01*
X156815557Y-67794992D01*
X156950713Y-67997267D01*
X156986733Y-68033287D01*
X143891484Y-68033287D01*
X143987267Y-67969287D01*
X144159287Y-67797267D01*
X144294443Y-67594992D01*
X144387540Y-67370236D01*
X144435000Y-67131637D01*
X144435000Y-66888363D01*
X144387540Y-66649764D01*
X144294443Y-66425008D01*
X144159287Y-66222733D01*
X143987267Y-66050713D01*
X143784992Y-65915557D01*
X143560236Y-65822460D01*
X143321637Y-65775000D01*
X143078363Y-65775000D01*
X142839764Y-65822460D01*
X142615008Y-65915557D01*
X142412733Y-66050713D01*
X142240713Y-66222733D01*
X142105557Y-66425008D01*
X142012460Y-66649764D01*
X141965000Y-66888363D01*
X141965000Y-67131637D01*
X142012460Y-67370236D01*
X142105557Y-67594992D01*
X142240713Y-67797267D01*
X142412733Y-67969287D01*
X142615008Y-68104443D01*
X142839764Y-68197540D01*
X142893838Y-68208296D01*
X142874290Y-68224339D01*
X142860458Y-68241194D01*
X142844545Y-68256103D01*
X142819306Y-68291337D01*
X142791813Y-68324837D01*
X142766249Y-68372665D01*
X136772778Y-78757957D01*
X136769287Y-78752733D01*
X136597267Y-78580713D01*
X136394992Y-78445557D01*
X136170236Y-78352460D01*
X135931637Y-78305000D01*
X135688363Y-78305000D01*
X135449764Y-78352460D01*
X135225008Y-78445557D01*
X135022733Y-78580713D01*
X134850713Y-78752733D01*
X134715557Y-78955008D01*
X134622460Y-79179764D01*
X134575000Y-79418363D01*
X134575000Y-79661637D01*
X134622460Y-79900236D01*
X134715557Y-80124992D01*
X134850713Y-80327267D01*
X135022733Y-80499287D01*
X135225008Y-80634443D01*
X135449764Y-80727540D01*
X135616921Y-80760789D01*
X128902271Y-92395717D01*
X128807267Y-92300713D01*
X128604992Y-92165557D01*
X128380236Y-92072460D01*
X128141637Y-92025000D01*
X127898363Y-92025000D01*
X127659764Y-92072460D01*
X127435008Y-92165557D01*
X127232733Y-92300713D01*
X127060713Y-92472733D01*
X126925557Y-92675008D01*
X126832460Y-92899764D01*
X126785000Y-93138363D01*
X126785000Y-93381637D01*
X126832460Y-93620236D01*
X126925557Y-93844992D01*
X127060713Y-94047267D01*
X127232733Y-94219287D01*
X127435008Y-94354443D01*
X127659764Y-94447540D01*
X127712129Y-94457956D01*
X121244434Y-105664970D01*
X121217540Y-105529764D01*
X121124443Y-105305008D01*
X120989287Y-105102733D01*
X120817267Y-104930713D01*
X120614992Y-104795557D01*
X120390236Y-104702460D01*
X120151637Y-104655000D01*
X119908363Y-104655000D01*
X119669764Y-104702460D01*
X119445008Y-104795557D01*
X119242733Y-104930713D01*
X119070713Y-105102733D01*
X118935557Y-105305008D01*
X118842460Y-105529764D01*
X118795000Y-105768363D01*
X115679562Y-105768363D01*
X116446531Y-104439934D01*
X117729286Y-105180533D01*
X117843221Y-105232156D01*
X117965037Y-105260559D01*
X118090054Y-105264652D01*
X118213467Y-105244276D01*
X118330534Y-105200215D01*
X118436756Y-105134162D01*
X118528050Y-105048656D01*
X118600909Y-104946982D01*
X119450909Y-103474738D01*
X119502532Y-103360803D01*
X119530935Y-103238987D01*
X119535028Y-103113970D01*
X119514652Y-102990557D01*
X119470591Y-102873490D01*
X119404538Y-102767268D01*
X119319032Y-102675974D01*
X119232937Y-102614279D01*
X119427267Y-102484432D01*
X119599287Y-102312412D01*
X119734443Y-102110137D01*
X119827540Y-101885381D01*
X119875000Y-101646782D01*
X119875000Y-101403508D01*
X119827540Y-101164909D01*
X119734443Y-100940153D01*
X119599287Y-100737878D01*
X119427267Y-100565858D01*
X119224992Y-100430702D01*
X119000236Y-100337605D01*
X118834092Y-100304557D01*
X122458918Y-94026175D01*
X122523723Y-94123162D01*
X122730566Y-94330005D01*
X122973787Y-94492520D01*
X123244040Y-94604462D01*
X123530938Y-94661530D01*
X123823458Y-94661530D01*
X124110356Y-94604462D01*
X124380609Y-94492520D01*
X124623830Y-94330005D01*
X124830673Y-94123162D01*
X124993188Y-93879941D01*
X125105130Y-93609688D01*
X125162198Y-93322790D01*
X125162198Y-93030270D01*
X125107401Y-92754790D01*
X125175035Y-92770560D01*
X125300052Y-92774652D01*
X125423465Y-92754277D01*
X125540531Y-92710216D01*
X125646753Y-92644164D01*
X125738048Y-92558657D01*
X125810906Y-92456983D01*
X126090371Y-91966792D01*
X126032264Y-91749935D01*
X124993683Y-91150310D01*
X124983683Y-91167631D01*
X124763713Y-91040631D01*
X124773713Y-91023310D01*
X124756392Y-91013310D01*
X124883392Y-90793340D01*
X124900713Y-90803340D01*
X124910713Y-90786019D01*
X125130683Y-90913019D01*
X125120683Y-90930340D01*
X126159264Y-91529965D01*
X126376121Y-91471858D01*
X126660906Y-90984739D01*
X126712530Y-90870805D01*
X126740933Y-90748988D01*
X126745025Y-90623971D01*
X126724650Y-90500558D01*
X126680589Y-90383492D01*
X126614537Y-90277270D01*
X126529030Y-90185975D01*
X126427356Y-90113117D01*
X126223079Y-89996656D01*
X126384992Y-89929589D01*
X126587267Y-89794433D01*
X126759287Y-89622413D01*
X126894443Y-89420138D01*
X126987540Y-89195382D01*
X127035000Y-88956783D01*
X127035000Y-88713509D01*
X126987540Y-88474910D01*
X126894443Y-88250154D01*
X126759287Y-88047879D01*
X126587267Y-87875859D01*
X126384992Y-87740703D01*
X126160236Y-87647606D01*
X126143508Y-87644279D01*
X130150543Y-80703889D01*
X131026776Y-80703889D01*
X131165534Y-80923336D01*
X131451800Y-80976231D01*
X131742885Y-80972263D01*
X132027603Y-80911583D01*
X132295011Y-80796524D01*
X132534834Y-80631506D01*
X132647108Y-80526345D01*
X132656986Y-80266594D01*
X131623683Y-79670016D01*
X131026776Y-80703889D01*
X130150543Y-80703889D01*
X130358105Y-80344382D01*
X130358439Y-80344979D01*
X130547381Y-80566445D01*
X130806806Y-80576889D01*
X131403713Y-79543016D01*
X131386392Y-79533016D01*
X131513392Y-79313046D01*
X131530713Y-79323046D01*
X131540713Y-79305725D01*
X131760683Y-79432725D01*
X131750683Y-79450046D01*
X132783986Y-80046623D01*
X133003998Y-79908193D01*
X133038933Y-79758381D01*
X133061931Y-79468179D01*
X133027872Y-79179067D01*
X132992961Y-79071424D01*
X133075035Y-79090561D01*
X133200052Y-79094654D01*
X133323465Y-79074278D01*
X133440532Y-79030217D01*
X133546754Y-78964164D01*
X133638048Y-78878658D01*
X133710907Y-78776984D01*
X134560907Y-77304740D01*
X134612530Y-77190805D01*
X134640933Y-77068989D01*
X134645026Y-76943972D01*
X134624650Y-76820559D01*
X134580589Y-76703492D01*
X134514536Y-76597270D01*
X134429030Y-76505976D01*
X134327356Y-76433117D01*
X134111382Y-76308424D01*
X134140236Y-76302685D01*
X134364992Y-76209588D01*
X134567267Y-76074432D01*
X134739287Y-75902412D01*
X134874443Y-75700137D01*
X134967540Y-75475381D01*
X135015000Y-75236782D01*
X135015000Y-74993508D01*
X134967540Y-74754909D01*
X134874443Y-74530153D01*
X134739287Y-74327878D01*
X134567267Y-74155858D01*
X134364992Y-74020702D01*
X134140236Y-73927605D01*
X134070806Y-73913795D01*
X137489843Y-67991849D01*
X138769285Y-68730535D01*
X138883220Y-68782158D01*
X139005036Y-68810561D01*
X139130053Y-68814654D01*
X139253466Y-68794278D01*
X139370533Y-68750217D01*
X139476755Y-68684164D01*
X139568049Y-68598658D01*
X139640908Y-68496984D01*
X140490908Y-67024740D01*
X140542531Y-66910805D01*
X140570934Y-66788989D01*
X140575027Y-66663972D01*
X140554651Y-66540559D01*
X140510590Y-66423492D01*
X140444537Y-66317270D01*
X140359031Y-66225976D01*
X140257357Y-66153117D01*
X138977916Y-65414432D01*
X140218580Y-63265538D01*
X142705079Y-63265538D01*
X142705079Y-64747289D01*
%TD*%
M02*
