G04 #@! TF.GenerationSoftware,KiCad,Pcbnew,7.0.2-0*
G04 #@! TF.CreationDate,2023-09-20T20:36:23-05:00*
G04 #@! TF.ProjectId,spudglo_driver_v5p0,73707564-676c-46f5-9f64-72697665725f,rev?*
G04 #@! TF.SameCoordinates,Original*
G04 #@! TF.FileFunction,Soldermask,Top*
G04 #@! TF.FilePolarity,Negative*
%FSLAX46Y46*%
G04 Gerber Fmt 4.6, Leading zero omitted, Abs format (unit mm)*
G04 Created by KiCad (PCBNEW 7.0.2-0) date 2023-09-20 20:36:23*
%MOMM*%
%LPD*%
G01*
G04 APERTURE LIST*
G04 Aperture macros list*
%AMRoundRect*
0 Rectangle with rounded corners*
0 $1 Rounding radius*
0 $2 $3 $4 $5 $6 $7 $8 $9 X,Y pos of 4 corners*
0 Add a 4 corners polygon primitive as box body*
4,1,4,$2,$3,$4,$5,$6,$7,$8,$9,$2,$3,0*
0 Add four circle primitives for the rounded corners*
1,1,$1+$1,$2,$3*
1,1,$1+$1,$4,$5*
1,1,$1+$1,$6,$7*
1,1,$1+$1,$8,$9*
0 Add four rect primitives between the rounded corners*
20,1,$1+$1,$2,$3,$4,$5,0*
20,1,$1+$1,$4,$5,$6,$7,0*
20,1,$1+$1,$6,$7,$8,$9,0*
20,1,$1+$1,$8,$9,$2,$3,0*%
%AMRotRect*
0 Rectangle, with rotation*
0 The origin of the aperture is its center*
0 $1 length*
0 $2 width*
0 $3 Rotation angle, in degrees counterclockwise*
0 Add horizontal line*
21,1,$1,$2,0,0,$3*%
G04 Aperture macros list end*
%ADD10RoundRect,0.237500X-0.237500X0.250000X-0.237500X-0.250000X0.237500X-0.250000X0.237500X0.250000X0*%
%ADD11RoundRect,0.237500X0.300000X0.237500X-0.300000X0.237500X-0.300000X-0.237500X0.300000X-0.237500X0*%
%ADD12R,1.700000X1.700000*%
%ADD13O,1.700000X1.700000*%
%ADD14RotRect,0.575000X1.140000X135.000000*%
%ADD15RoundRect,0.237500X0.237500X-0.250000X0.237500X0.250000X-0.237500X0.250000X-0.237500X-0.250000X0*%
%ADD16RoundRect,0.075000X-0.075000X0.700000X-0.075000X-0.700000X0.075000X-0.700000X0.075000X0.700000X0*%
%ADD17RoundRect,0.075000X-0.700000X0.075000X-0.700000X-0.075000X0.700000X-0.075000X0.700000X0.075000X0*%
%ADD18RoundRect,0.237500X0.380070X-0.044194X-0.044194X0.380070X-0.380070X0.044194X0.044194X-0.380070X0*%
%ADD19RoundRect,0.237500X-0.237500X0.300000X-0.237500X-0.300000X0.237500X-0.300000X0.237500X0.300000X0*%
%ADD20RoundRect,0.237500X0.250000X0.237500X-0.250000X0.237500X-0.250000X-0.237500X0.250000X-0.237500X0*%
%ADD21C,5.500000*%
%ADD22R,4.000000X3.000000*%
%ADD23RotRect,1.000000X1.200000X45.000000*%
%ADD24RoundRect,0.237500X0.237500X-0.300000X0.237500X0.300000X-0.237500X0.300000X-0.237500X-0.300000X0*%
%ADD25RoundRect,0.237500X-0.250000X-0.237500X0.250000X-0.237500X0.250000X0.237500X-0.250000X0.237500X0*%
%ADD26RoundRect,0.237500X-0.300000X-0.237500X0.300000X-0.237500X0.300000X0.237500X-0.300000X0.237500X0*%
%ADD27RoundRect,0.237500X-0.044194X-0.380070X0.380070X0.044194X0.044194X0.380070X-0.380070X-0.044194X0*%
%ADD28C,2.000000*%
%ADD29RoundRect,0.150000X0.150000X-0.512500X0.150000X0.512500X-0.150000X0.512500X-0.150000X-0.512500X0*%
%ADD30RoundRect,0.218750X-0.256250X0.218750X-0.256250X-0.218750X0.256250X-0.218750X0.256250X0.218750X0*%
%ADD31RoundRect,0.135000X-0.185000X0.135000X-0.185000X-0.135000X0.185000X-0.135000X0.185000X0.135000X0*%
%ADD32R,1.800000X4.400000*%
%ADD33O,1.800000X4.000000*%
%ADD34O,4.000000X1.800000*%
%ADD35C,0.650000*%
%ADD36R,1.450000X0.600000*%
%ADD37R,1.450000X0.300000*%
%ADD38O,2.100000X1.000000*%
%ADD39O,1.600000X1.000000*%
%ADD40R,1.000000X2.500000*%
%ADD41R,1.800000X1.000000*%
%ADD42R,0.400000X0.470000*%
%ADD43R,1.700000X0.950000*%
%ADD44R,0.625000X0.300000*%
%ADD45R,0.300000X0.625000*%
%ADD46RoundRect,0.250001X-0.462499X-0.849999X0.462499X-0.849999X0.462499X0.849999X-0.462499X0.849999X0*%
%ADD47R,0.250000X0.500000*%
%ADD48R,1.600000X0.900000*%
%ADD49RoundRect,0.150000X-0.512500X-0.150000X0.512500X-0.150000X0.512500X0.150000X-0.512500X0.150000X0*%
%ADD50RoundRect,0.100000X-0.100000X0.637500X-0.100000X-0.637500X0.100000X-0.637500X0.100000X0.637500X0*%
G04 APERTURE END LIST*
D10*
X124180000Y-141897500D03*
X124180000Y-143722500D03*
D11*
X106410812Y-165400000D03*
X104685812Y-165400000D03*
D12*
X108610985Y-135770481D03*
D13*
X106070985Y-135770481D03*
X103530985Y-135770481D03*
X100990985Y-135770481D03*
X98450985Y-135770481D03*
D14*
X113970812Y-143630000D03*
X113387448Y-143046636D03*
D15*
X87650812Y-158290000D03*
X87650812Y-156465000D03*
D16*
X113675812Y-146135000D03*
X113175812Y-146135000D03*
X112675812Y-146135000D03*
X112175812Y-146135000D03*
X111675812Y-146135000D03*
X111175812Y-146135000D03*
X110675812Y-146135000D03*
X110175812Y-146135000D03*
X109675812Y-146135000D03*
X109175812Y-146135000D03*
X108675812Y-146135000D03*
X108175812Y-146135000D03*
X107675812Y-146135000D03*
X107175812Y-146135000D03*
X106675812Y-146135000D03*
X106175812Y-146135000D03*
D17*
X104250812Y-148060000D03*
X104250812Y-148560000D03*
X104250812Y-149060000D03*
X104250812Y-149560000D03*
X104250812Y-150060000D03*
X104250812Y-150560000D03*
X104250812Y-151060000D03*
X104250812Y-151560000D03*
X104250812Y-152060000D03*
X104250812Y-152560000D03*
X104250812Y-153060000D03*
X104250812Y-153560000D03*
X104250812Y-154060000D03*
X104250812Y-154560000D03*
X104250812Y-155060000D03*
X104250812Y-155560000D03*
D16*
X106175812Y-157485000D03*
X106675812Y-157485000D03*
X107175812Y-157485000D03*
X107675812Y-157485000D03*
X108175812Y-157485000D03*
X108675812Y-157485000D03*
X109175812Y-157485000D03*
X109675812Y-157485000D03*
X110175812Y-157485000D03*
X110675812Y-157485000D03*
X111175812Y-157485000D03*
X111675812Y-157485000D03*
X112175812Y-157485000D03*
X112675812Y-157485000D03*
X113175812Y-157485000D03*
X113675812Y-157485000D03*
D17*
X115600812Y-155560000D03*
X115600812Y-155060000D03*
X115600812Y-154560000D03*
X115600812Y-154060000D03*
X115600812Y-153560000D03*
X115600812Y-153060000D03*
X115600812Y-152560000D03*
X115600812Y-152060000D03*
X115600812Y-151560000D03*
X115600812Y-151060000D03*
X115600812Y-150560000D03*
X115600812Y-150060000D03*
X115600812Y-149560000D03*
X115600812Y-149060000D03*
X115600812Y-148560000D03*
X115600812Y-148060000D03*
D18*
X107010572Y-141739760D03*
X105790812Y-140520000D03*
D11*
X123473312Y-145940000D03*
X121748312Y-145940000D03*
D12*
X126080812Y-154670000D03*
D13*
X126080812Y-157210000D03*
D19*
X92947812Y-153789000D03*
X92947812Y-155514000D03*
D12*
X94626961Y-135763288D03*
D13*
X92086961Y-135763288D03*
X89546961Y-135763288D03*
X87006961Y-135763288D03*
X84466961Y-135763288D03*
D20*
X115645812Y-138460000D03*
X113820812Y-138460000D03*
D10*
X96960812Y-148020000D03*
X96960812Y-149845000D03*
D21*
X139570812Y-174950000D03*
D22*
X130390812Y-154530000D03*
X130390812Y-160130000D03*
D23*
X109270812Y-141750000D03*
X110472893Y-142952081D03*
X111392132Y-142032842D03*
X110190051Y-140830761D03*
D10*
X100750812Y-153560000D03*
X100750812Y-155385000D03*
D24*
X102210812Y-148695000D03*
X102210812Y-146970000D03*
D12*
X117070812Y-163770000D03*
D13*
X119610812Y-163770000D03*
X122150812Y-163770000D03*
D25*
X139950812Y-154770000D03*
X141775812Y-154770000D03*
X75315812Y-154820000D03*
X77140812Y-154820000D03*
D24*
X102320812Y-155310000D03*
X102320812Y-153585000D03*
D25*
X100330812Y-145320000D03*
X102155812Y-145320000D03*
D10*
X122540812Y-138510000D03*
X122540812Y-140335000D03*
D26*
X114978312Y-157920000D03*
X116703312Y-157920000D03*
D27*
X114480240Y-141694760D03*
X115700000Y-140475000D03*
D20*
X102175812Y-143720000D03*
X100350812Y-143720000D03*
D12*
X70691547Y-157988904D03*
D13*
X73231547Y-157988904D03*
X75771547Y-157988904D03*
X78311547Y-157988904D03*
X80851547Y-157988904D03*
D15*
X119700812Y-154962500D03*
X119700812Y-153137500D03*
D28*
X134780813Y-174489989D03*
X131280813Y-174489989D03*
X127780813Y-174489989D03*
X124280813Y-174489989D03*
X120780813Y-174489989D03*
X117280813Y-174489989D03*
X113780813Y-174489989D03*
X110280813Y-174489989D03*
X106780813Y-174489989D03*
X103280813Y-174489989D03*
X99780813Y-174489989D03*
X96280813Y-174489989D03*
D26*
X121290812Y-154380000D03*
X123015812Y-154380000D03*
D20*
X103135812Y-138490000D03*
X101310812Y-138490000D03*
D15*
X85660812Y-158310000D03*
X85660812Y-156485000D03*
D29*
X108160812Y-165265000D03*
X109110812Y-165265000D03*
X110060812Y-165265000D03*
X110060812Y-162990000D03*
X108160812Y-162990000D03*
D27*
X107990932Y-140539880D03*
X109210692Y-139320120D03*
D26*
X106535812Y-144170000D03*
X108260812Y-144170000D03*
D12*
X134760000Y-136730000D03*
D13*
X134760000Y-139270000D03*
X132220000Y-136730000D03*
X132220000Y-139270000D03*
X129680000Y-136730000D03*
X129680000Y-139270000D03*
X127140000Y-136730000D03*
X127140000Y-139270000D03*
D30*
X141770000Y-140350000D03*
X141770000Y-141925000D03*
D10*
X98740812Y-143547500D03*
X98740812Y-145372500D03*
D31*
X138700000Y-141200000D03*
X138700000Y-142220000D03*
D15*
X99150812Y-148762500D03*
X99150812Y-146937500D03*
X99190812Y-155365000D03*
X99190812Y-153540000D03*
D21*
X139570812Y-136950000D03*
D26*
X140000812Y-156580000D03*
X141725812Y-156580000D03*
D32*
X128050812Y-147710000D03*
D33*
X133850812Y-147710000D03*
D34*
X131050812Y-142910000D03*
D27*
X115520932Y-145079880D03*
X116740692Y-143860120D03*
D15*
X95320812Y-151095000D03*
X95320812Y-149270000D03*
D12*
X125880812Y-163810000D03*
D13*
X128420812Y-163810000D03*
X130960812Y-163810000D03*
D35*
X135840812Y-165690000D03*
X135840812Y-159910000D03*
D36*
X134395812Y-166050000D03*
X134395812Y-165250000D03*
D37*
X134395812Y-164050000D03*
X134395812Y-163050000D03*
X134395812Y-162550000D03*
X134395812Y-161550000D03*
D36*
X134395812Y-160350000D03*
X134395812Y-159550000D03*
X134395812Y-159550000D03*
X134395812Y-160350000D03*
D37*
X134395812Y-161050000D03*
X134395812Y-162050000D03*
X134395812Y-163550000D03*
X134395812Y-164550000D03*
D36*
X134395812Y-165250000D03*
X134395812Y-166050000D03*
D38*
X135310812Y-167120000D03*
D39*
X139490812Y-167120000D03*
D38*
X135310812Y-158480000D03*
D39*
X139490812Y-158480000D03*
D40*
X77590812Y-176460000D03*
X79590812Y-176460000D03*
X81590812Y-176460000D03*
X83590812Y-176460000D03*
X85590812Y-176460000D03*
X87590812Y-176460000D03*
X89590812Y-176460000D03*
X91590812Y-176460000D03*
D41*
X93090812Y-173860000D03*
X93090812Y-171860000D03*
X93090812Y-169860000D03*
X93090812Y-167860000D03*
X93090812Y-165860000D03*
X93090812Y-163860000D03*
D40*
X91590812Y-161260000D03*
X89590812Y-161260000D03*
X87590812Y-161260000D03*
X85590812Y-161260000D03*
X83590812Y-161260000D03*
X81590812Y-161260000D03*
X79590812Y-161260000D03*
X77590812Y-161260000D03*
D11*
X106408312Y-163825000D03*
X104683312Y-163825000D03*
D26*
X140055812Y-169100000D03*
X141780812Y-169100000D03*
D12*
X122570073Y-135769092D03*
D13*
X120030073Y-135769092D03*
X117490073Y-135769092D03*
X114950073Y-135769092D03*
X112410073Y-135769092D03*
D26*
X114940812Y-159450000D03*
X116665812Y-159450000D03*
D10*
X89670812Y-156485000D03*
X89670812Y-158310000D03*
D42*
X138640812Y-169040000D03*
X137990812Y-169040000D03*
X137340812Y-169040000D03*
X137340812Y-170870000D03*
X137990812Y-170870000D03*
X138640812Y-170870000D03*
D43*
X137990812Y-169955000D03*
D27*
X115575000Y-142800000D03*
X116794760Y-141580240D03*
D15*
X96800812Y-146380000D03*
X96800812Y-144555000D03*
D44*
X138373312Y-156135000D03*
X138373312Y-155635000D03*
X138373312Y-155135000D03*
X138373312Y-154635000D03*
D45*
X137765812Y-153967500D03*
X137265812Y-153967500D03*
X136765812Y-153967500D03*
X136265812Y-153967500D03*
D44*
X135598312Y-154635000D03*
X135598312Y-155135000D03*
X135598312Y-155635000D03*
X135598312Y-156135000D03*
D45*
X136265812Y-156742500D03*
X136765812Y-156742500D03*
X137265812Y-156742500D03*
X137765812Y-156742500D03*
D12*
X136990812Y-155360000D03*
D19*
X83260812Y-152815000D03*
X83260812Y-154540000D03*
D46*
X121210812Y-148230000D03*
X123535812Y-148230000D03*
D18*
X112610572Y-140849760D03*
X111390812Y-139630000D03*
D20*
X88800812Y-138670000D03*
X86975812Y-138670000D03*
D24*
X100660812Y-148705000D03*
X100660812Y-146980000D03*
D21*
X71570812Y-174950000D03*
D24*
X92890812Y-158845000D03*
X92890812Y-157120000D03*
D19*
X117640812Y-147950000D03*
X117640812Y-149675000D03*
D47*
X121130812Y-152790000D03*
X121630812Y-152790000D03*
X122130812Y-152790000D03*
X122630812Y-152790000D03*
X122630812Y-150890000D03*
X122130812Y-150890000D03*
X121630812Y-150890000D03*
X121130812Y-150890000D03*
D48*
X121880812Y-151840000D03*
D49*
X85043312Y-152740000D03*
X85043312Y-153690000D03*
X85043312Y-154640000D03*
X87318312Y-154640000D03*
X87318312Y-152740000D03*
D50*
X101870812Y-159775000D03*
X101220812Y-159775000D03*
X100570812Y-159775000D03*
X99920812Y-159775000D03*
X99270812Y-159775000D03*
X98620812Y-159775000D03*
X97970812Y-159775000D03*
X97320812Y-159775000D03*
X96670812Y-159775000D03*
X96020812Y-159775000D03*
X96020812Y-165500000D03*
X96670812Y-165500000D03*
X97320812Y-165500000D03*
X97970812Y-165500000D03*
X98620812Y-165500000D03*
X99270812Y-165500000D03*
X99920812Y-165500000D03*
X100570812Y-165500000D03*
X101220812Y-165500000D03*
X101870812Y-165500000D03*
D10*
X124160812Y-138465000D03*
X124160812Y-140290000D03*
D30*
X137420000Y-140375000D03*
X137420000Y-141950000D03*
D21*
X71570812Y-136950000D03*
D26*
X140055812Y-170700000D03*
X141780812Y-170700000D03*
D19*
X89120812Y-152785000D03*
X89120812Y-154510000D03*
D10*
X119290812Y-138507500D03*
X119290812Y-140332500D03*
X120910812Y-138520000D03*
X120910812Y-140345000D03*
D24*
X94471812Y-158816000D03*
X94471812Y-157091000D03*
D31*
X140500000Y-141200000D03*
X140500000Y-142220000D03*
D24*
X133980812Y-156345000D03*
X133980812Y-154620000D03*
M02*
