G04 #@! TF.GenerationSoftware,KiCad,Pcbnew,7.0.2-0*
G04 #@! TF.CreationDate,2023-09-20T20:36:22-05:00*
G04 #@! TF.ProjectId,spudglo_driver_v5p0,73707564-676c-46f5-9f64-72697665725f,rev?*
G04 #@! TF.SameCoordinates,Original*
G04 #@! TF.FileFunction,Copper,L3,Inr*
G04 #@! TF.FilePolarity,Positive*
%FSLAX46Y46*%
G04 Gerber Fmt 4.6, Leading zero omitted, Abs format (unit mm)*
G04 Created by KiCad (PCBNEW 7.0.2-0) date 2023-09-20 20:36:22*
%MOMM*%
%LPD*%
G01*
G04 APERTURE LIST*
G04 #@! TA.AperFunction,ComponentPad*
%ADD10R,1.700000X1.700000*%
G04 #@! TD*
G04 #@! TA.AperFunction,ComponentPad*
%ADD11O,1.700000X1.700000*%
G04 #@! TD*
G04 #@! TA.AperFunction,ComponentPad*
%ADD12C,2.000000*%
G04 #@! TD*
G04 #@! TA.AperFunction,ComponentPad*
%ADD13R,1.800000X4.400000*%
G04 #@! TD*
G04 #@! TA.AperFunction,ComponentPad*
%ADD14O,1.800000X4.000000*%
G04 #@! TD*
G04 #@! TA.AperFunction,ComponentPad*
%ADD15O,4.000000X1.800000*%
G04 #@! TD*
G04 #@! TA.AperFunction,ComponentPad*
%ADD16O,2.100000X1.000000*%
G04 #@! TD*
G04 #@! TA.AperFunction,ComponentPad*
%ADD17O,1.600000X1.000000*%
G04 #@! TD*
G04 #@! TA.AperFunction,ComponentPad*
%ADD18C,0.600000*%
G04 #@! TD*
G04 #@! TA.AperFunction,ViaPad*
%ADD19C,1.600000*%
G04 #@! TD*
G04 #@! TA.AperFunction,ViaPad*
%ADD20C,0.800000*%
G04 #@! TD*
G04 #@! TA.AperFunction,Conductor*
%ADD21C,2.000000*%
G04 #@! TD*
G04 #@! TA.AperFunction,Conductor*
%ADD22C,2.500000*%
G04 #@! TD*
G04 APERTURE END LIST*
D10*
X108610985Y-135770481D03*
D11*
X106070985Y-135770481D03*
X103530985Y-135770481D03*
X100990985Y-135770481D03*
X98450985Y-135770481D03*
D10*
X126080812Y-154670000D03*
D11*
X126080812Y-157210000D03*
D10*
X94626961Y-135763288D03*
D11*
X92086961Y-135763288D03*
X89546961Y-135763288D03*
X87006961Y-135763288D03*
X84466961Y-135763288D03*
D10*
X117070812Y-163770000D03*
D11*
X119610812Y-163770000D03*
X122150812Y-163770000D03*
D10*
X70691547Y-157988904D03*
D11*
X73231547Y-157988904D03*
X75771547Y-157988904D03*
X78311547Y-157988904D03*
X80851547Y-157988904D03*
D12*
X134780813Y-174489989D03*
X131280813Y-174489989D03*
X127780813Y-174489989D03*
X124280813Y-174489989D03*
X120780813Y-174489989D03*
X117280813Y-174489989D03*
X113780813Y-174489989D03*
X110280813Y-174489989D03*
X106780813Y-174489989D03*
X103280813Y-174489989D03*
X99780813Y-174489989D03*
X96280813Y-174489989D03*
D10*
X134760000Y-136730000D03*
D11*
X134760000Y-139270000D03*
X132220000Y-136730000D03*
X132220000Y-139270000D03*
X129680000Y-136730000D03*
X129680000Y-139270000D03*
X127140000Y-136730000D03*
X127140000Y-139270000D03*
D13*
X128050812Y-147710000D03*
D14*
X133850812Y-147710000D03*
D15*
X131050812Y-142910000D03*
D10*
X125880812Y-163810000D03*
D11*
X128420812Y-163810000D03*
X130960812Y-163810000D03*
D16*
X135310812Y-167120000D03*
D17*
X139490812Y-167120000D03*
D16*
X135310812Y-158480000D03*
D17*
X139490812Y-158480000D03*
D10*
X122570073Y-135769092D03*
D11*
X120030073Y-135769092D03*
X117490073Y-135769092D03*
X114950073Y-135769092D03*
X112410073Y-135769092D03*
D18*
X121380812Y-151840000D03*
X122380812Y-151840000D03*
D19*
X130155812Y-149815000D03*
X130155812Y-149815000D03*
X130390812Y-152140000D03*
X131305812Y-150965000D03*
D20*
X94870812Y-165850000D03*
D19*
X107120812Y-166940000D03*
D20*
X81940812Y-154570000D03*
D19*
X113565406Y-164915406D03*
D20*
X110840812Y-164719000D03*
D19*
X114800812Y-166220000D03*
D20*
X106270812Y-142740000D03*
X123590812Y-152340000D03*
X104650000Y-168825000D03*
X135360812Y-157100000D03*
X82004500Y-145288000D03*
X98870812Y-161140000D03*
D19*
X104700000Y-167510000D03*
D20*
X111250812Y-143830000D03*
X122150000Y-171825000D03*
X118010812Y-158320000D03*
X102020812Y-152150000D03*
X110360812Y-139030000D03*
X131860812Y-156900000D03*
X80590811Y-174879241D03*
X101225000Y-170025000D03*
X117710812Y-142370000D03*
X123650000Y-176825000D03*
X95150812Y-147850000D03*
X108390812Y-138660000D03*
X97000812Y-158150000D03*
X104963809Y-158332003D03*
X112850812Y-153360000D03*
X115325000Y-168750000D03*
X100175000Y-168750000D03*
X138290000Y-143410000D03*
X90280812Y-154760000D03*
X111060812Y-162210000D03*
X117960812Y-143410000D03*
X133130812Y-167090000D03*
X139790812Y-161520000D03*
X125975000Y-169400000D03*
X112200812Y-138920000D03*
X91423812Y-156911000D03*
X101170053Y-162149241D03*
X136530812Y-154960000D03*
X93350000Y-175375000D03*
X116025000Y-176875000D03*
X103320812Y-147010000D03*
X117480812Y-150940000D03*
X110805312Y-166620000D03*
X96175000Y-163875000D03*
X128250000Y-157775000D03*
X123590812Y-152340000D03*
X114856702Y-139731703D03*
X115850000Y-171900000D03*
X78070812Y-163700000D03*
X123450812Y-151300000D03*
X95946312Y-168480000D03*
X103124000Y-164465000D03*
X90950812Y-164730000D03*
X135325000Y-168875000D03*
X98670812Y-157875000D03*
X94240812Y-155820000D03*
X103300000Y-167525000D03*
X95225000Y-171475000D03*
X136230812Y-169955000D03*
D19*
X120849522Y-145046068D03*
D20*
X84590813Y-174879241D03*
X106680000Y-168850000D03*
X111620812Y-161200000D03*
X141340312Y-157988000D03*
D19*
X122890812Y-156360000D03*
X121140812Y-156360000D03*
D20*
X105933312Y-162825001D03*
X103490205Y-156410607D03*
X116376927Y-147277540D03*
X104885812Y-162575000D03*
X105530812Y-143770000D03*
X113910812Y-160440000D03*
X117740812Y-138680000D03*
X132990812Y-156820000D03*
X103490205Y-156410607D03*
X131200812Y-167780000D03*
X103183812Y-162575000D03*
X106970812Y-163000000D03*
X103996812Y-162575000D03*
X98160812Y-147720000D03*
X114290812Y-144780000D03*
X136478413Y-168986651D03*
X133314487Y-157765640D03*
X103066312Y-141267832D03*
X133270000Y-141400000D03*
X106565459Y-138554647D03*
X118015812Y-140655000D03*
X105632689Y-148409500D03*
X105272139Y-142780701D03*
X117040812Y-146390000D03*
X114231957Y-148397912D03*
X125940000Y-145950000D03*
X113170812Y-148900000D03*
X136091312Y-161160000D03*
X137230812Y-163050000D03*
X136060812Y-152240000D03*
X138510812Y-150970000D03*
X96770812Y-143060000D03*
X105020812Y-137740000D03*
X138413812Y-159451000D03*
X134100312Y-143110500D03*
X106175812Y-155655000D03*
X100580812Y-142520000D03*
X106010812Y-154010000D03*
X113450812Y-139690000D03*
X132601741Y-135331668D03*
X138940357Y-149349642D03*
X101480812Y-141200000D03*
X138159812Y-157673000D03*
X118385812Y-155685000D03*
X138020812Y-153050000D03*
X129373604Y-140780000D03*
X125190000Y-143855500D03*
X90600812Y-152570000D03*
X90407812Y-153609000D03*
X88280812Y-155560000D03*
X87075812Y-164425000D03*
X88010812Y-164220000D03*
X94276015Y-150623997D03*
X96150812Y-155610000D03*
X88900812Y-164220000D03*
X120120812Y-149910000D03*
X122796470Y-143741030D03*
X124836848Y-147243957D03*
X97830812Y-148840000D03*
X106346377Y-151825485D03*
X101130812Y-161112000D03*
X98960812Y-141622000D03*
X107148432Y-148639316D03*
X97536000Y-163957000D03*
X108310812Y-153650000D03*
X96470812Y-151110000D03*
X105641743Y-152534353D03*
X119755812Y-148095000D03*
X122936000Y-141732000D03*
X119457463Y-146548559D03*
X120240812Y-141620000D03*
X118504500Y-146850000D03*
X119420812Y-142530000D03*
X81230312Y-152940000D03*
X77762174Y-153449470D03*
X100190812Y-151310000D03*
X98466312Y-151431779D03*
X87630812Y-166230000D03*
X77770000Y-152450000D03*
X72125000Y-160100000D03*
X81361213Y-151084213D03*
X111200000Y-171850000D03*
X110080812Y-155880000D03*
X112425000Y-171849500D03*
X109670812Y-154690000D03*
X83950812Y-163520000D03*
X78761547Y-154500000D03*
X83700812Y-158140000D03*
X84627065Y-159741744D03*
X104350812Y-147170000D03*
X106357189Y-149250000D03*
X108100812Y-148942594D03*
X102690812Y-142440000D03*
X112020812Y-149300000D03*
X138550953Y-144797100D03*
X110930812Y-149400000D03*
X136755497Y-142924503D03*
D21*
X120622406Y-158468406D02*
X117070812Y-162020000D01*
X121935812Y-157155000D02*
X120622406Y-158468406D01*
X120622406Y-158468406D02*
X121140812Y-157950000D01*
X121140812Y-157950000D02*
X121140812Y-156360000D01*
X124185906Y-159405094D02*
X125943812Y-161163000D01*
X122890812Y-158110000D02*
X122890812Y-156360000D01*
X121935812Y-157155000D02*
X124185906Y-159405094D01*
X124185906Y-159405094D02*
X122890812Y-158110000D01*
X125943812Y-161163000D02*
X129540000Y-161163000D01*
X130960812Y-162583812D02*
X130960812Y-163810000D01*
X129540000Y-161163000D02*
X130960812Y-162583812D01*
X122150812Y-163770000D02*
X125840812Y-163770000D01*
X125840812Y-163770000D02*
X125880812Y-163810000D01*
X121935812Y-157155000D02*
X121140812Y-156360000D01*
X117070812Y-162020000D02*
X117070812Y-163770000D01*
X122890812Y-156360000D02*
X121140812Y-156360000D01*
D22*
X119610812Y-163770000D02*
X119610812Y-166940000D01*
X128420812Y-163810000D02*
X128420812Y-166870000D01*
X128420812Y-166870000D02*
X128170812Y-167120000D01*
G04 #@! TA.AperFunction,Conductor*
G36*
X124446833Y-133948543D02*
G01*
X124513865Y-133968235D01*
X124559613Y-134021045D01*
X124570812Y-134072542D01*
X124570812Y-137356000D01*
X124551127Y-137423039D01*
X124498323Y-137468794D01*
X124446812Y-137480000D01*
X105981677Y-137480000D01*
X105914638Y-137460315D01*
X105868883Y-137407511D01*
X105863746Y-137394317D01*
X105855339Y-137368444D01*
X105792207Y-137259095D01*
X105775734Y-137191195D01*
X105798587Y-137125168D01*
X105820985Y-137101955D01*
X105820985Y-136205982D01*
X105928670Y-136255161D01*
X106035222Y-136270481D01*
X106106748Y-136270481D01*
X106213300Y-136255161D01*
X106320985Y-136205982D01*
X106320985Y-137101114D01*
X106534475Y-137043911D01*
X106748561Y-136944081D01*
X106942062Y-136808590D01*
X107057899Y-136692753D01*
X107119222Y-136659268D01*
X107188914Y-136664252D01*
X107244848Y-136706123D01*
X107261762Y-136737100D01*
X107310095Y-136866684D01*
X107397723Y-136983742D01*
X107514781Y-137071370D01*
X107651779Y-137122469D01*
X107651782Y-137122469D01*
X107651784Y-137122470D01*
X107712347Y-137128981D01*
X107715657Y-137128981D01*
X109506313Y-137128981D01*
X109509623Y-137128981D01*
X109570186Y-137122470D01*
X109570188Y-137122469D01*
X109570190Y-137122469D01*
X109671367Y-137084731D01*
X109707189Y-137071370D01*
X109824246Y-136983742D01*
X109911874Y-136866685D01*
X109936227Y-136801394D01*
X109962973Y-136729686D01*
X109962973Y-136729684D01*
X109962974Y-136729682D01*
X109969485Y-136669119D01*
X109969485Y-135769091D01*
X111046916Y-135769091D01*
X111065508Y-135993455D01*
X111065508Y-135993458D01*
X111065509Y-135993460D01*
X111119307Y-136205904D01*
X111120778Y-136211710D01*
X111211211Y-136417880D01*
X111215588Y-136424579D01*
X111334351Y-136606360D01*
X111486833Y-136771998D01*
X111664497Y-136910281D01*
X111862499Y-137017434D01*
X112075438Y-137090536D01*
X112297504Y-137127592D01*
X112522642Y-137127592D01*
X112744708Y-137090536D01*
X112957647Y-137017434D01*
X113155649Y-136910281D01*
X113333313Y-136771998D01*
X113485795Y-136606360D01*
X113566578Y-136482712D01*
X113576264Y-136467887D01*
X113629410Y-136422530D01*
X113698642Y-136413106D01*
X113761978Y-136442608D01*
X113783882Y-136467887D01*
X113870559Y-136600557D01*
X113874351Y-136606360D01*
X114026833Y-136771998D01*
X114204497Y-136910281D01*
X114402499Y-137017434D01*
X114615438Y-137090536D01*
X114837504Y-137127592D01*
X115062642Y-137127592D01*
X115284708Y-137090536D01*
X115497647Y-137017434D01*
X115695649Y-136910281D01*
X115873313Y-136771998D01*
X116025795Y-136606360D01*
X116106578Y-136482712D01*
X116116264Y-136467887D01*
X116169410Y-136422530D01*
X116238642Y-136413106D01*
X116301978Y-136442608D01*
X116323882Y-136467887D01*
X116410559Y-136600557D01*
X116414351Y-136606360D01*
X116566833Y-136771998D01*
X116744497Y-136910281D01*
X116942499Y-137017434D01*
X117155438Y-137090536D01*
X117377504Y-137127592D01*
X117602642Y-137127592D01*
X117824708Y-137090536D01*
X118037647Y-137017434D01*
X118235649Y-136910281D01*
X118413313Y-136771998D01*
X118565795Y-136606360D01*
X118659821Y-136462441D01*
X118712966Y-136417086D01*
X118782197Y-136407662D01*
X118845533Y-136437164D01*
X118865204Y-136459140D01*
X118991965Y-136640172D01*
X119158991Y-136807198D01*
X119352496Y-136942692D01*
X119566582Y-137042522D01*
X119780073Y-137099726D01*
X119780073Y-136204593D01*
X119887758Y-136253772D01*
X119994310Y-136269092D01*
X120065836Y-136269092D01*
X120172388Y-136253772D01*
X120280073Y-136204593D01*
X120280073Y-137099725D01*
X120493563Y-137042522D01*
X120707649Y-136942692D01*
X120901150Y-136807201D01*
X121016987Y-136691364D01*
X121078310Y-136657879D01*
X121148002Y-136662863D01*
X121203936Y-136704734D01*
X121220850Y-136735711D01*
X121269183Y-136865295D01*
X121356811Y-136982353D01*
X121473869Y-137069981D01*
X121610867Y-137121080D01*
X121610870Y-137121080D01*
X121610872Y-137121081D01*
X121671435Y-137127592D01*
X121674745Y-137127592D01*
X123465401Y-137127592D01*
X123468711Y-137127592D01*
X123529274Y-137121081D01*
X123529276Y-137121080D01*
X123529278Y-137121080D01*
X123626731Y-137084731D01*
X123666277Y-137069981D01*
X123783334Y-136982353D01*
X123870962Y-136865296D01*
X123910086Y-136760402D01*
X123922061Y-136728297D01*
X123922061Y-136728295D01*
X123922062Y-136728293D01*
X123928573Y-136667730D01*
X123928573Y-134870454D01*
X123922062Y-134809891D01*
X123922061Y-134809889D01*
X123922061Y-134809886D01*
X123870962Y-134672888D01*
X123783334Y-134555830D01*
X123666276Y-134468202D01*
X123529278Y-134417103D01*
X123471997Y-134410945D01*
X123471991Y-134410944D01*
X123468711Y-134410592D01*
X121671435Y-134410592D01*
X121668155Y-134410944D01*
X121668148Y-134410945D01*
X121610867Y-134417103D01*
X121473869Y-134468202D01*
X121356811Y-134555830D01*
X121269184Y-134672887D01*
X121220850Y-134802473D01*
X121178979Y-134858406D01*
X121113514Y-134882822D01*
X121045241Y-134867970D01*
X121016988Y-134846819D01*
X120901154Y-134730985D01*
X120707649Y-134595491D01*
X120493565Y-134495661D01*
X120280073Y-134438456D01*
X120280073Y-135333590D01*
X120172388Y-135284412D01*
X120065836Y-135269092D01*
X119994310Y-135269092D01*
X119887758Y-135284412D01*
X119780073Y-135333590D01*
X119780073Y-134438456D01*
X119780072Y-134438456D01*
X119566580Y-134495661D01*
X119352494Y-134595492D01*
X119158994Y-134730982D01*
X118991966Y-134898010D01*
X118865205Y-135079044D01*
X118810628Y-135122668D01*
X118741129Y-135129861D01*
X118678775Y-135098339D01*
X118659821Y-135075741D01*
X118565796Y-134931824D01*
X118454825Y-134811280D01*
X118413313Y-134766186D01*
X118235649Y-134627903D01*
X118037647Y-134520750D01*
X118037646Y-134520749D01*
X118037645Y-134520749D01*
X117824709Y-134447648D01*
X117602642Y-134410592D01*
X117377504Y-134410592D01*
X117155436Y-134447648D01*
X116942500Y-134520749D01*
X116744497Y-134627903D01*
X116566833Y-134766186D01*
X116414352Y-134931822D01*
X116323882Y-135070297D01*
X116270735Y-135115653D01*
X116201504Y-135125077D01*
X116138168Y-135095575D01*
X116116264Y-135070297D01*
X116096116Y-135039459D01*
X116025795Y-134931824D01*
X115873313Y-134766186D01*
X115695649Y-134627903D01*
X115497647Y-134520750D01*
X115497646Y-134520749D01*
X115497645Y-134520749D01*
X115284709Y-134447648D01*
X115062642Y-134410592D01*
X114837504Y-134410592D01*
X114615436Y-134447648D01*
X114402500Y-134520749D01*
X114204497Y-134627903D01*
X114026833Y-134766186D01*
X113874352Y-134931822D01*
X113783882Y-135070297D01*
X113730735Y-135115653D01*
X113661504Y-135125077D01*
X113598168Y-135095575D01*
X113576264Y-135070297D01*
X113556116Y-135039459D01*
X113485795Y-134931824D01*
X113333313Y-134766186D01*
X113155649Y-134627903D01*
X112957647Y-134520750D01*
X112957646Y-134520749D01*
X112957645Y-134520749D01*
X112744709Y-134447648D01*
X112522642Y-134410592D01*
X112297504Y-134410592D01*
X112075436Y-134447648D01*
X111862500Y-134520749D01*
X111664497Y-134627903D01*
X111486833Y-134766186D01*
X111334352Y-134931822D01*
X111211211Y-135120303D01*
X111123324Y-135320669D01*
X111120777Y-135326476D01*
X111089386Y-135450436D01*
X111065508Y-135544728D01*
X111046916Y-135769091D01*
X109969485Y-135769091D01*
X109969485Y-134871843D01*
X109962974Y-134811280D01*
X109962973Y-134811278D01*
X109962973Y-134811275D01*
X109911874Y-134674277D01*
X109824246Y-134557219D01*
X109707188Y-134469591D01*
X109570190Y-134418492D01*
X109512909Y-134412334D01*
X109512903Y-134412333D01*
X109509623Y-134411981D01*
X107712347Y-134411981D01*
X107709067Y-134412333D01*
X107709060Y-134412334D01*
X107651779Y-134418492D01*
X107514781Y-134469591D01*
X107397723Y-134557219D01*
X107310096Y-134674276D01*
X107261762Y-134803862D01*
X107219891Y-134859795D01*
X107154426Y-134884211D01*
X107086153Y-134869359D01*
X107057900Y-134848208D01*
X106942066Y-134732374D01*
X106748561Y-134596880D01*
X106534477Y-134497050D01*
X106320985Y-134439845D01*
X106320985Y-135334979D01*
X106213300Y-135285801D01*
X106106748Y-135270481D01*
X106035222Y-135270481D01*
X105928670Y-135285801D01*
X105820985Y-135334979D01*
X105820985Y-134439845D01*
X105820984Y-134439845D01*
X105607492Y-134497050D01*
X105393406Y-134596881D01*
X105199906Y-134732371D01*
X105032878Y-134899399D01*
X104906117Y-135080433D01*
X104851540Y-135124057D01*
X104782041Y-135131250D01*
X104719687Y-135099728D01*
X104700733Y-135077130D01*
X104606708Y-134933213D01*
X104504106Y-134821760D01*
X104454225Y-134767575D01*
X104276561Y-134629292D01*
X104078559Y-134522139D01*
X104078558Y-134522138D01*
X104078557Y-134522138D01*
X103865621Y-134449037D01*
X103643554Y-134411981D01*
X103418416Y-134411981D01*
X103196348Y-134449037D01*
X102983412Y-134522138D01*
X102785409Y-134629292D01*
X102607745Y-134767575D01*
X102455264Y-134933211D01*
X102364794Y-135071686D01*
X102311647Y-135117042D01*
X102242416Y-135126466D01*
X102179080Y-135096964D01*
X102157176Y-135071686D01*
X102137028Y-135040848D01*
X102066707Y-134933213D01*
X101914225Y-134767575D01*
X101736561Y-134629292D01*
X101538559Y-134522139D01*
X101538558Y-134522138D01*
X101538557Y-134522138D01*
X101325621Y-134449037D01*
X101103554Y-134411981D01*
X100878416Y-134411981D01*
X100656348Y-134449037D01*
X100443412Y-134522138D01*
X100245409Y-134629292D01*
X100067745Y-134767575D01*
X99915264Y-134933211D01*
X99824794Y-135071686D01*
X99771647Y-135117042D01*
X99702416Y-135126466D01*
X99639080Y-135096964D01*
X99617176Y-135071686D01*
X99597028Y-135040848D01*
X99526707Y-134933213D01*
X99374225Y-134767575D01*
X99196561Y-134629292D01*
X98998559Y-134522139D01*
X98998558Y-134522138D01*
X98998557Y-134522138D01*
X98785621Y-134449037D01*
X98563554Y-134411981D01*
X98338416Y-134411981D01*
X98116348Y-134449037D01*
X97903412Y-134522138D01*
X97705409Y-134629292D01*
X97527745Y-134767575D01*
X97375264Y-134933211D01*
X97252123Y-135121692D01*
X97162298Y-135326476D01*
X97161689Y-135327865D01*
X97130879Y-135449530D01*
X97106420Y-135546117D01*
X97087828Y-135770480D01*
X97106420Y-135994844D01*
X97106420Y-135994847D01*
X97106421Y-135994849D01*
X97161337Y-136211708D01*
X97161690Y-136213099D01*
X97252123Y-136419269D01*
X97252125Y-136419272D01*
X97375263Y-136607749D01*
X97527745Y-136773387D01*
X97705409Y-136911670D01*
X97903411Y-137018823D01*
X98116350Y-137091925D01*
X98338416Y-137128981D01*
X98563554Y-137128981D01*
X98785620Y-137091925D01*
X98998559Y-137018823D01*
X99196561Y-136911670D01*
X99374225Y-136773387D01*
X99526707Y-136607749D01*
X99617176Y-136469274D01*
X99670321Y-136423919D01*
X99739552Y-136414495D01*
X99802888Y-136443996D01*
X99824792Y-136469275D01*
X99915260Y-136607746D01*
X99915262Y-136607748D01*
X99915263Y-136607749D01*
X100067745Y-136773387D01*
X100245409Y-136911670D01*
X100443411Y-137018823D01*
X100656350Y-137091925D01*
X100878416Y-137128981D01*
X101103554Y-137128981D01*
X101325620Y-137091925D01*
X101538559Y-137018823D01*
X101736561Y-136911670D01*
X101914225Y-136773387D01*
X102066707Y-136607749D01*
X102157175Y-136469276D01*
X102210322Y-136423919D01*
X102279554Y-136414495D01*
X102342890Y-136443997D01*
X102364794Y-136469276D01*
X102454355Y-136606360D01*
X102455263Y-136607749D01*
X102607745Y-136773387D01*
X102785409Y-136911670D01*
X102983411Y-137018823D01*
X103196350Y-137091925D01*
X103418416Y-137128981D01*
X103643554Y-137128981D01*
X103865620Y-137091925D01*
X104078559Y-137018823D01*
X104166380Y-136971296D01*
X104234706Y-136956701D01*
X104300078Y-136981363D01*
X104341739Y-137037453D01*
X104346463Y-137107163D01*
X104317547Y-137163322D01*
X104281771Y-137203055D01*
X104186284Y-137368444D01*
X104177878Y-137394317D01*
X104138441Y-137451993D01*
X104074083Y-137479192D01*
X104059947Y-137480000D01*
X74528819Y-137480000D01*
X74530735Y-137471914D01*
X74571312Y-137124759D01*
X74571312Y-136775241D01*
X74530735Y-136428086D01*
X74529747Y-136423919D01*
X74478077Y-136205904D01*
X74450131Y-136087989D01*
X74331950Y-135763288D01*
X83103804Y-135763288D01*
X83122396Y-135987651D01*
X83122396Y-135987654D01*
X83122397Y-135987656D01*
X83175013Y-136195433D01*
X83177666Y-136205906D01*
X83268099Y-136412076D01*
X83268101Y-136412079D01*
X83391239Y-136600556D01*
X83543721Y-136766194D01*
X83721385Y-136904477D01*
X83919387Y-137011630D01*
X84132326Y-137084732D01*
X84354392Y-137121788D01*
X84579530Y-137121788D01*
X84801596Y-137084732D01*
X85014535Y-137011630D01*
X85212537Y-136904477D01*
X85390201Y-136766194D01*
X85542683Y-136600556D01*
X85619674Y-136482712D01*
X85633152Y-136462083D01*
X85686298Y-136416726D01*
X85755530Y-136407302D01*
X85818866Y-136436804D01*
X85840770Y-136462083D01*
X85845469Y-136469276D01*
X85931239Y-136600556D01*
X86083721Y-136766194D01*
X86261385Y-136904477D01*
X86459387Y-137011630D01*
X86672326Y-137084732D01*
X86894392Y-137121788D01*
X87119530Y-137121788D01*
X87341596Y-137084732D01*
X87554535Y-137011630D01*
X87752537Y-136904477D01*
X87930201Y-136766194D01*
X88082683Y-136600556D01*
X88159674Y-136482712D01*
X88173152Y-136462083D01*
X88226298Y-136416726D01*
X88295530Y-136407302D01*
X88358866Y-136436804D01*
X88380770Y-136462083D01*
X88385469Y-136469276D01*
X88471239Y-136600556D01*
X88623721Y-136766194D01*
X88801385Y-136904477D01*
X88999387Y-137011630D01*
X89212326Y-137084732D01*
X89434392Y-137121788D01*
X89659530Y-137121788D01*
X89881596Y-137084732D01*
X90094535Y-137011630D01*
X90292537Y-136904477D01*
X90470201Y-136766194D01*
X90622683Y-136600556D01*
X90716709Y-136456637D01*
X90769854Y-136411282D01*
X90839085Y-136401858D01*
X90902421Y-136431360D01*
X90922092Y-136453336D01*
X91048853Y-136634368D01*
X91215879Y-136801394D01*
X91409384Y-136936888D01*
X91623470Y-137036718D01*
X91836961Y-137093922D01*
X91836961Y-136198789D01*
X91944646Y-136247968D01*
X92051198Y-136263288D01*
X92122724Y-136263288D01*
X92229276Y-136247968D01*
X92336961Y-136198789D01*
X92336961Y-137093921D01*
X92550451Y-137036718D01*
X92764537Y-136936888D01*
X92958038Y-136801397D01*
X93073875Y-136685560D01*
X93135198Y-136652075D01*
X93204890Y-136657059D01*
X93260824Y-136698930D01*
X93277738Y-136729907D01*
X93326071Y-136859491D01*
X93413699Y-136976549D01*
X93530757Y-137064177D01*
X93667755Y-137115276D01*
X93667758Y-137115276D01*
X93667760Y-137115277D01*
X93728323Y-137121788D01*
X93731633Y-137121788D01*
X95522289Y-137121788D01*
X95525599Y-137121788D01*
X95586162Y-137115277D01*
X95586164Y-137115276D01*
X95586166Y-137115276D01*
X95668058Y-137084731D01*
X95723165Y-137064177D01*
X95840222Y-136976549D01*
X95927850Y-136859492D01*
X95964809Y-136760402D01*
X95978949Y-136722493D01*
X95978949Y-136722491D01*
X95978950Y-136722489D01*
X95985461Y-136661926D01*
X95985461Y-134864650D01*
X95978950Y-134804087D01*
X95978949Y-134804085D01*
X95978949Y-134804082D01*
X95927850Y-134667084D01*
X95840222Y-134550026D01*
X95723164Y-134462398D01*
X95586166Y-134411299D01*
X95528885Y-134405141D01*
X95528879Y-134405140D01*
X95525599Y-134404788D01*
X93728323Y-134404788D01*
X93725043Y-134405140D01*
X93725036Y-134405141D01*
X93667755Y-134411299D01*
X93530757Y-134462398D01*
X93413699Y-134550026D01*
X93326072Y-134667083D01*
X93277738Y-134796669D01*
X93235867Y-134852602D01*
X93170402Y-134877018D01*
X93102129Y-134862166D01*
X93073876Y-134841015D01*
X92958042Y-134725181D01*
X92764537Y-134589687D01*
X92550453Y-134489857D01*
X92336961Y-134432652D01*
X92336961Y-135327786D01*
X92229276Y-135278608D01*
X92122724Y-135263288D01*
X92051198Y-135263288D01*
X91944646Y-135278608D01*
X91836961Y-135327786D01*
X91836961Y-134432652D01*
X91836960Y-134432652D01*
X91623468Y-134489857D01*
X91409382Y-134589688D01*
X91215882Y-134725178D01*
X91048854Y-134892206D01*
X90922093Y-135073240D01*
X90867516Y-135116864D01*
X90798017Y-135124057D01*
X90735663Y-135092535D01*
X90716709Y-135069937D01*
X90622684Y-134926020D01*
X90517056Y-134811280D01*
X90470201Y-134760382D01*
X90292537Y-134622099D01*
X90094535Y-134514946D01*
X90094534Y-134514945D01*
X90094533Y-134514945D01*
X89881597Y-134441844D01*
X89659530Y-134404788D01*
X89434392Y-134404788D01*
X89212324Y-134441844D01*
X88999388Y-134514945D01*
X88801385Y-134622099D01*
X88623721Y-134760382D01*
X88471240Y-134926018D01*
X88380770Y-135064493D01*
X88327623Y-135109849D01*
X88258392Y-135119273D01*
X88195056Y-135089771D01*
X88173152Y-135064493D01*
X88153004Y-135033655D01*
X88082683Y-134926020D01*
X87930201Y-134760382D01*
X87752537Y-134622099D01*
X87554535Y-134514946D01*
X87554534Y-134514945D01*
X87554533Y-134514945D01*
X87341597Y-134441844D01*
X87119530Y-134404788D01*
X86894392Y-134404788D01*
X86672324Y-134441844D01*
X86459388Y-134514945D01*
X86261385Y-134622099D01*
X86083721Y-134760382D01*
X85931240Y-134926018D01*
X85840770Y-135064493D01*
X85787623Y-135109849D01*
X85718392Y-135119273D01*
X85655056Y-135089771D01*
X85633152Y-135064493D01*
X85613004Y-135033655D01*
X85542683Y-134926020D01*
X85390201Y-134760382D01*
X85212537Y-134622099D01*
X85014535Y-134514946D01*
X85014534Y-134514945D01*
X85014533Y-134514945D01*
X84801597Y-134441844D01*
X84579530Y-134404788D01*
X84354392Y-134404788D01*
X84132324Y-134441844D01*
X83919388Y-134514945D01*
X83721385Y-134622099D01*
X83543721Y-134760382D01*
X83391240Y-134926018D01*
X83268099Y-135114499D01*
X83177666Y-135320669D01*
X83177665Y-135320672D01*
X83149349Y-135432490D01*
X83122396Y-135538924D01*
X83103804Y-135763288D01*
X74331950Y-135763288D01*
X74330589Y-135759549D01*
X74173725Y-135447207D01*
X74168776Y-135439683D01*
X74052759Y-135263288D01*
X73981661Y-135155189D01*
X73800970Y-134939849D01*
X73759313Y-134890204D01*
X73759309Y-134890200D01*
X73756995Y-134887442D01*
X73502765Y-134647588D01*
X73499881Y-134645441D01*
X73499874Y-134645435D01*
X73225308Y-134441029D01*
X73222408Y-134438870D01*
X73219285Y-134437067D01*
X73219276Y-134437061D01*
X72922841Y-134265915D01*
X72922838Y-134265913D01*
X72919716Y-134264111D01*
X72916415Y-134262687D01*
X72916405Y-134262682D01*
X72724074Y-134179719D01*
X72670314Y-134135091D01*
X72649216Y-134068483D01*
X72667478Y-134001042D01*
X72719302Y-133954180D01*
X72773201Y-133941860D01*
X124446833Y-133948543D01*
G37*
G04 #@! TD.AperFunction*
G04 #@! TA.AperFunction,Conductor*
G36*
X100445644Y-170519685D02*
G01*
X100476950Y-170552518D01*
X100477239Y-170552258D01*
X100485959Y-170561942D01*
X100485960Y-170561944D01*
X100613747Y-170703866D01*
X100765775Y-170814321D01*
X100768248Y-170816118D01*
X100942714Y-170893795D01*
X101129511Y-170933500D01*
X101129513Y-170933500D01*
X101320489Y-170933500D01*
X101507285Y-170893795D01*
X101507286Y-170893794D01*
X101507288Y-170893794D01*
X101681752Y-170816118D01*
X101836253Y-170703866D01*
X101964040Y-170561944D01*
X101964040Y-170561942D01*
X101972761Y-170552258D01*
X101973514Y-170552936D01*
X102014573Y-170513785D01*
X102071395Y-170500000D01*
X115680812Y-170500000D01*
X135499025Y-170500000D01*
X135516750Y-170519685D01*
X135619559Y-170633866D01*
X135717746Y-170705203D01*
X135774060Y-170746118D01*
X135927247Y-170814321D01*
X135980484Y-170859571D01*
X136000806Y-170926420D01*
X136000812Y-170927601D01*
X136000812Y-173556764D01*
X135999817Y-173556764D01*
X136000812Y-173566019D01*
X136000812Y-173594766D01*
X135972080Y-173652163D01*
X135969008Y-173655346D01*
X135420952Y-174203401D01*
X135361133Y-174089423D01*
X135248408Y-173962183D01*
X135108508Y-173865618D01*
X135067270Y-173849978D01*
X135650870Y-173266379D01*
X135650869Y-173266377D01*
X135604048Y-173229936D01*
X135385419Y-173111620D01*
X135150306Y-173030905D01*
X134905106Y-172989989D01*
X134656520Y-172989989D01*
X134411319Y-173030905D01*
X134176206Y-173111620D01*
X133957577Y-173229935D01*
X133910755Y-173266377D01*
X133910755Y-173266379D01*
X134494355Y-173849978D01*
X134453118Y-173865618D01*
X134313218Y-173962183D01*
X134200493Y-174089423D01*
X134140673Y-174203401D01*
X133557377Y-173620105D01*
X133457079Y-173773623D01*
X133357226Y-174001267D01*
X133296199Y-174242256D01*
X133275671Y-174489989D01*
X133296199Y-174737721D01*
X133357226Y-174978710D01*
X133457081Y-175206359D01*
X133557376Y-175359871D01*
X133557377Y-175359871D01*
X134140672Y-174776575D01*
X134200493Y-174890555D01*
X134313218Y-175017795D01*
X134453118Y-175114360D01*
X134494355Y-175129999D01*
X133910755Y-175713598D01*
X133910755Y-175713599D01*
X133957579Y-175750044D01*
X134176206Y-175868357D01*
X134411319Y-175949072D01*
X134656520Y-175989989D01*
X134905106Y-175989989D01*
X135150306Y-175949072D01*
X135385419Y-175868357D01*
X135604046Y-175750042D01*
X135650869Y-175713598D01*
X135067270Y-175129999D01*
X135108508Y-175114360D01*
X135248408Y-175017795D01*
X135361133Y-174890555D01*
X135420953Y-174776576D01*
X135969008Y-175324631D01*
X136000812Y-175382875D01*
X136000812Y-175409455D01*
X135999828Y-175423213D01*
X136000812Y-175423213D01*
X136000812Y-176726000D01*
X135981127Y-176793039D01*
X135928323Y-176838794D01*
X135876812Y-176850000D01*
X124677782Y-176850000D01*
X124610743Y-176830315D01*
X124564988Y-176777511D01*
X124554461Y-176738962D01*
X124548797Y-176685072D01*
X124543542Y-176635072D01*
X124484527Y-176453444D01*
X124484527Y-176453443D01*
X124389040Y-176288055D01*
X124307018Y-176196961D01*
X124276788Y-176133970D01*
X124285413Y-176064635D01*
X124330154Y-176010969D01*
X124396807Y-175990011D01*
X124399168Y-175989989D01*
X124405106Y-175989989D01*
X124650306Y-175949072D01*
X124885419Y-175868357D01*
X125104046Y-175750042D01*
X125150869Y-175713598D01*
X124567270Y-175129999D01*
X124608508Y-175114360D01*
X124748408Y-175017795D01*
X124861133Y-174890555D01*
X124920952Y-174776576D01*
X125504247Y-175359871D01*
X125604543Y-175206358D01*
X125704399Y-174978710D01*
X125765426Y-174737721D01*
X125785954Y-174489989D01*
X125785954Y-174489988D01*
X126267648Y-174489988D01*
X126286278Y-174726701D01*
X126341707Y-174957582D01*
X126360704Y-175003444D01*
X126432573Y-175176952D01*
X126556637Y-175379405D01*
X126710844Y-175559958D01*
X126891397Y-175714165D01*
X127093850Y-175838229D01*
X127313219Y-175929094D01*
X127544102Y-175984524D01*
X127780813Y-176003154D01*
X128017524Y-175984524D01*
X128248407Y-175929094D01*
X128467776Y-175838229D01*
X128670229Y-175714165D01*
X128850782Y-175559958D01*
X129004989Y-175379405D01*
X129129053Y-175176952D01*
X129219918Y-174957583D01*
X129275348Y-174726700D01*
X129293978Y-174489989D01*
X129293978Y-174489988D01*
X129775671Y-174489988D01*
X129796199Y-174737721D01*
X129857226Y-174978710D01*
X129957081Y-175206359D01*
X130057376Y-175359871D01*
X130057377Y-175359871D01*
X130640672Y-174776575D01*
X130700493Y-174890555D01*
X130813218Y-175017795D01*
X130953118Y-175114360D01*
X130994355Y-175129999D01*
X130410755Y-175713598D01*
X130410755Y-175713599D01*
X130457579Y-175750044D01*
X130676206Y-175868357D01*
X130911319Y-175949072D01*
X131156520Y-175989989D01*
X131405106Y-175989989D01*
X131650306Y-175949072D01*
X131885419Y-175868357D01*
X132104046Y-175750042D01*
X132150869Y-175713598D01*
X131567270Y-175129999D01*
X131608508Y-175114360D01*
X131748408Y-175017795D01*
X131861133Y-174890555D01*
X131920953Y-174776575D01*
X132504247Y-175359871D01*
X132604543Y-175206358D01*
X132704399Y-174978710D01*
X132765426Y-174737721D01*
X132785954Y-174489989D01*
X132765426Y-174242256D01*
X132704399Y-174001267D01*
X132604543Y-173773619D01*
X132504247Y-173620105D01*
X131920952Y-174203400D01*
X131861133Y-174089423D01*
X131748408Y-173962183D01*
X131608508Y-173865618D01*
X131567270Y-173849978D01*
X132150870Y-173266379D01*
X132150869Y-173266377D01*
X132104048Y-173229936D01*
X131885419Y-173111620D01*
X131650306Y-173030905D01*
X131405106Y-172989989D01*
X131156520Y-172989989D01*
X130911319Y-173030905D01*
X130676206Y-173111620D01*
X130457577Y-173229935D01*
X130410755Y-173266377D01*
X130410755Y-173266379D01*
X130994355Y-173849978D01*
X130953118Y-173865618D01*
X130813218Y-173962183D01*
X130700493Y-174089423D01*
X130640673Y-174203401D01*
X130057377Y-173620105D01*
X129957079Y-173773623D01*
X129857226Y-174001267D01*
X129796199Y-174242256D01*
X129775671Y-174489988D01*
X129293978Y-174489988D01*
X129275348Y-174253278D01*
X129219918Y-174022395D01*
X129129053Y-173803026D01*
X129004989Y-173600573D01*
X128850782Y-173420020D01*
X128670229Y-173265813D01*
X128467776Y-173141749D01*
X128358091Y-173096316D01*
X128248406Y-173050883D01*
X128017525Y-172995454D01*
X127780813Y-172976824D01*
X127544100Y-172995454D01*
X127313219Y-173050883D01*
X127093848Y-173141750D01*
X126891398Y-173265812D01*
X126710844Y-173420020D01*
X126556636Y-173600574D01*
X126450591Y-173773623D01*
X126432573Y-173803026D01*
X126419266Y-173835151D01*
X126341707Y-174022395D01*
X126286278Y-174253276D01*
X126267648Y-174489988D01*
X125785954Y-174489988D01*
X125765426Y-174242256D01*
X125704399Y-174001267D01*
X125604543Y-173773619D01*
X125504247Y-173620105D01*
X124920952Y-174203400D01*
X124861133Y-174089423D01*
X124748408Y-173962183D01*
X124608508Y-173865618D01*
X124567270Y-173849978D01*
X125150870Y-173266379D01*
X125150869Y-173266377D01*
X125104048Y-173229936D01*
X124885419Y-173111620D01*
X124650306Y-173030905D01*
X124405106Y-172989989D01*
X124156520Y-172989989D01*
X123911319Y-173030905D01*
X123676206Y-173111620D01*
X123457577Y-173229935D01*
X123410755Y-173266377D01*
X123410755Y-173266379D01*
X123994355Y-173849978D01*
X123953118Y-173865618D01*
X123813218Y-173962183D01*
X123700493Y-174089423D01*
X123640673Y-174203401D01*
X123057377Y-173620105D01*
X122957079Y-173773623D01*
X122857226Y-174001267D01*
X122796199Y-174242256D01*
X122775671Y-174489988D01*
X122796199Y-174737721D01*
X122857226Y-174978710D01*
X122957081Y-175206359D01*
X123057376Y-175359871D01*
X123057377Y-175359871D01*
X123640672Y-174776575D01*
X123700493Y-174890555D01*
X123813218Y-175017795D01*
X123953118Y-175114360D01*
X123994355Y-175129999D01*
X123410755Y-175713598D01*
X123410755Y-175713599D01*
X123436007Y-175733253D01*
X123476820Y-175789964D01*
X123480495Y-175859737D01*
X123445864Y-175920420D01*
X123385628Y-175952397D01*
X123367713Y-175956205D01*
X123193248Y-176033881D01*
X123038748Y-176146133D01*
X122910957Y-176288058D01*
X122815472Y-176453443D01*
X122756458Y-176635070D01*
X122745539Y-176738962D01*
X122718954Y-176803577D01*
X122661657Y-176843561D01*
X122622218Y-176850000D01*
X117047526Y-176850000D01*
X116980487Y-176830315D01*
X116934732Y-176777511D01*
X116924206Y-176738966D01*
X116918542Y-176685072D01*
X116859527Y-176503444D01*
X116859527Y-176503443D01*
X116764042Y-176338058D01*
X116744442Y-176316291D01*
X116636253Y-176196134D01*
X116481752Y-176083882D01*
X116481751Y-176083881D01*
X116307285Y-176006204D01*
X116120489Y-175966500D01*
X116120487Y-175966500D01*
X115929513Y-175966500D01*
X115929511Y-175966500D01*
X115742714Y-176006204D01*
X115568248Y-176083881D01*
X115413748Y-176196133D01*
X115285957Y-176338058D01*
X115190472Y-176503443D01*
X115131458Y-176685070D01*
X115131457Y-176685072D01*
X115131458Y-176685072D01*
X115125793Y-176738963D01*
X115099211Y-176803576D01*
X115041914Y-176843561D01*
X115002474Y-176850000D01*
X94214812Y-176850000D01*
X94147773Y-176830315D01*
X94102018Y-176777511D01*
X94090812Y-176726000D01*
X94090812Y-175942099D01*
X94107424Y-175880101D01*
X94184527Y-175746556D01*
X94243542Y-175564928D01*
X94263504Y-175375000D01*
X94243542Y-175185072D01*
X94184527Y-175003444D01*
X94184527Y-175003443D01*
X94107425Y-174869899D01*
X94090812Y-174807899D01*
X94090812Y-174489988D01*
X94767648Y-174489988D01*
X94786278Y-174726701D01*
X94841707Y-174957582D01*
X94860704Y-175003444D01*
X94932573Y-175176952D01*
X95056637Y-175379405D01*
X95210844Y-175559958D01*
X95391397Y-175714165D01*
X95593850Y-175838229D01*
X95813219Y-175929094D01*
X96044102Y-175984524D01*
X96280813Y-176003154D01*
X96517524Y-175984524D01*
X96748407Y-175929094D01*
X96967776Y-175838229D01*
X97170229Y-175714165D01*
X97350782Y-175559958D01*
X97504989Y-175379405D01*
X97629053Y-175176952D01*
X97719918Y-174957583D01*
X97775348Y-174726700D01*
X97793978Y-174489989D01*
X97793978Y-174489988D01*
X98267648Y-174489988D01*
X98286278Y-174726701D01*
X98341707Y-174957582D01*
X98360704Y-175003444D01*
X98432573Y-175176952D01*
X98556637Y-175379405D01*
X98710844Y-175559958D01*
X98891397Y-175714165D01*
X99093850Y-175838229D01*
X99313219Y-175929094D01*
X99544102Y-175984524D01*
X99780813Y-176003154D01*
X100017524Y-175984524D01*
X100248407Y-175929094D01*
X100467776Y-175838229D01*
X100670229Y-175714165D01*
X100850782Y-175559958D01*
X101004989Y-175379405D01*
X101129053Y-175176952D01*
X101219918Y-174957583D01*
X101275348Y-174726700D01*
X101293978Y-174489989D01*
X101775671Y-174489989D01*
X101796199Y-174737721D01*
X101857226Y-174978710D01*
X101957081Y-175206359D01*
X102057376Y-175359871D01*
X102057377Y-175359871D01*
X102640672Y-174776575D01*
X102700493Y-174890555D01*
X102813218Y-175017795D01*
X102953118Y-175114360D01*
X102994355Y-175129999D01*
X102410755Y-175713598D01*
X102410755Y-175713599D01*
X102457579Y-175750044D01*
X102676206Y-175868357D01*
X102911319Y-175949072D01*
X103156520Y-175989989D01*
X103405106Y-175989989D01*
X103650306Y-175949072D01*
X103885419Y-175868357D01*
X104104046Y-175750042D01*
X104150869Y-175713598D01*
X103567270Y-175129999D01*
X103608508Y-175114360D01*
X103748408Y-175017795D01*
X103861133Y-174890555D01*
X103920952Y-174776576D01*
X104504247Y-175359871D01*
X104604543Y-175206358D01*
X104704399Y-174978710D01*
X104765426Y-174737721D01*
X104785954Y-174489989D01*
X104785954Y-174489988D01*
X105267648Y-174489988D01*
X105286278Y-174726701D01*
X105341707Y-174957582D01*
X105360704Y-175003444D01*
X105432573Y-175176952D01*
X105556637Y-175379405D01*
X105710844Y-175559958D01*
X105891397Y-175714165D01*
X106093850Y-175838229D01*
X106313219Y-175929094D01*
X106544102Y-175984524D01*
X106780813Y-176003154D01*
X107017524Y-175984524D01*
X107248407Y-175929094D01*
X107467776Y-175838229D01*
X107670229Y-175714165D01*
X107850782Y-175559958D01*
X108004989Y-175379405D01*
X108129053Y-175176952D01*
X108219918Y-174957583D01*
X108275348Y-174726700D01*
X108293978Y-174489989D01*
X108293978Y-174489988D01*
X108767648Y-174489988D01*
X108786278Y-174726701D01*
X108841707Y-174957582D01*
X108860704Y-175003444D01*
X108932573Y-175176952D01*
X109056637Y-175379405D01*
X109210844Y-175559958D01*
X109391397Y-175714165D01*
X109593850Y-175838229D01*
X109813219Y-175929094D01*
X110044102Y-175984524D01*
X110280813Y-176003154D01*
X110517524Y-175984524D01*
X110748407Y-175929094D01*
X110967776Y-175838229D01*
X111170229Y-175714165D01*
X111350782Y-175559958D01*
X111504989Y-175379405D01*
X111629053Y-175176952D01*
X111719918Y-174957583D01*
X111775348Y-174726700D01*
X111793978Y-174489989D01*
X111793978Y-174489988D01*
X112275671Y-174489988D01*
X112296199Y-174737721D01*
X112357226Y-174978710D01*
X112457081Y-175206359D01*
X112557376Y-175359871D01*
X112557377Y-175359871D01*
X113140672Y-174776575D01*
X113200493Y-174890555D01*
X113313218Y-175017795D01*
X113453118Y-175114360D01*
X113494355Y-175129999D01*
X112910755Y-175713598D01*
X112910755Y-175713599D01*
X112957579Y-175750044D01*
X113176206Y-175868357D01*
X113411319Y-175949072D01*
X113656520Y-175989989D01*
X113905106Y-175989989D01*
X114150306Y-175949072D01*
X114385419Y-175868357D01*
X114604046Y-175750042D01*
X114650869Y-175713598D01*
X114067270Y-175129999D01*
X114108508Y-175114360D01*
X114248408Y-175017795D01*
X114361133Y-174890555D01*
X114420952Y-174776577D01*
X115004247Y-175359871D01*
X115104543Y-175206358D01*
X115204399Y-174978710D01*
X115265426Y-174737721D01*
X115285954Y-174489989D01*
X115767648Y-174489989D01*
X115786278Y-174726701D01*
X115841707Y-174957582D01*
X115860704Y-175003444D01*
X115932573Y-175176952D01*
X116056637Y-175379405D01*
X116210844Y-175559958D01*
X116391397Y-175714165D01*
X116593850Y-175838229D01*
X116813219Y-175929094D01*
X117044102Y-175984524D01*
X117280813Y-176003154D01*
X117517524Y-175984524D01*
X117748407Y-175929094D01*
X117967776Y-175838229D01*
X118170229Y-175714165D01*
X118350782Y-175559958D01*
X118504989Y-175379405D01*
X118629053Y-175176952D01*
X118719918Y-174957583D01*
X118775348Y-174726700D01*
X118793978Y-174489989D01*
X118793978Y-174489988D01*
X119267648Y-174489988D01*
X119286278Y-174726701D01*
X119341707Y-174957582D01*
X119360704Y-175003444D01*
X119432573Y-175176952D01*
X119556637Y-175379405D01*
X119710844Y-175559958D01*
X119891397Y-175714165D01*
X120093850Y-175838229D01*
X120313219Y-175929094D01*
X120544102Y-175984524D01*
X120780813Y-176003154D01*
X121017524Y-175984524D01*
X121248407Y-175929094D01*
X121467776Y-175838229D01*
X121670229Y-175714165D01*
X121850782Y-175559958D01*
X122004989Y-175379405D01*
X122129053Y-175176952D01*
X122219918Y-174957583D01*
X122275348Y-174726700D01*
X122293978Y-174489989D01*
X122275348Y-174253278D01*
X122219918Y-174022395D01*
X122129053Y-173803026D01*
X122004989Y-173600573D01*
X121850782Y-173420020D01*
X121670229Y-173265813D01*
X121467776Y-173141749D01*
X121358091Y-173096316D01*
X121248406Y-173050883D01*
X121017525Y-172995454D01*
X120780813Y-172976824D01*
X120544100Y-172995454D01*
X120313219Y-173050883D01*
X120093848Y-173141750D01*
X119891398Y-173265812D01*
X119710844Y-173420020D01*
X119556636Y-173600574D01*
X119450591Y-173773623D01*
X119432573Y-173803026D01*
X119419266Y-173835151D01*
X119341707Y-174022395D01*
X119286278Y-174253276D01*
X119267648Y-174489988D01*
X118793978Y-174489988D01*
X118775348Y-174253278D01*
X118719918Y-174022395D01*
X118629053Y-173803026D01*
X118504989Y-173600573D01*
X118350782Y-173420020D01*
X118170229Y-173265813D01*
X117967776Y-173141749D01*
X117858091Y-173096316D01*
X117748406Y-173050883D01*
X117517525Y-172995454D01*
X117280813Y-172976824D01*
X117044100Y-172995454D01*
X116813219Y-173050883D01*
X116593848Y-173141750D01*
X116391398Y-173265812D01*
X116210844Y-173420020D01*
X116056636Y-173600574D01*
X115950591Y-173773623D01*
X115932573Y-173803026D01*
X115919266Y-173835151D01*
X115841707Y-174022395D01*
X115786278Y-174253276D01*
X115767648Y-174489989D01*
X115285954Y-174489989D01*
X115265426Y-174242256D01*
X115204399Y-174001267D01*
X115104543Y-173773619D01*
X115004247Y-173620105D01*
X114420952Y-174203400D01*
X114361133Y-174089423D01*
X114248408Y-173962183D01*
X114108508Y-173865618D01*
X114067270Y-173849978D01*
X114650870Y-173266379D01*
X114650869Y-173266377D01*
X114604048Y-173229936D01*
X114385419Y-173111620D01*
X114150306Y-173030905D01*
X113905106Y-172989989D01*
X113656520Y-172989989D01*
X113411319Y-173030905D01*
X113176206Y-173111620D01*
X112957577Y-173229935D01*
X112910755Y-173266377D01*
X112910755Y-173266379D01*
X113494355Y-173849978D01*
X113453118Y-173865618D01*
X113313218Y-173962183D01*
X113200493Y-174089423D01*
X113140672Y-174203402D01*
X112557377Y-173620105D01*
X112457079Y-173773623D01*
X112357226Y-174001267D01*
X112296199Y-174242256D01*
X112275671Y-174489988D01*
X111793978Y-174489988D01*
X111775348Y-174253278D01*
X111719918Y-174022395D01*
X111629053Y-173803026D01*
X111504989Y-173600573D01*
X111350782Y-173420020D01*
X111170229Y-173265813D01*
X110967776Y-173141749D01*
X110858091Y-173096316D01*
X110748406Y-173050883D01*
X110517525Y-172995454D01*
X110280813Y-172976824D01*
X110044100Y-172995454D01*
X109813219Y-173050883D01*
X109593848Y-173141750D01*
X109391398Y-173265812D01*
X109210844Y-173420020D01*
X109056636Y-173600574D01*
X108950591Y-173773623D01*
X108932573Y-173803026D01*
X108919266Y-173835151D01*
X108841707Y-174022395D01*
X108786278Y-174253276D01*
X108767648Y-174489988D01*
X108293978Y-174489988D01*
X108275348Y-174253278D01*
X108219918Y-174022395D01*
X108129053Y-173803026D01*
X108004989Y-173600573D01*
X107850782Y-173420020D01*
X107670229Y-173265813D01*
X107467776Y-173141749D01*
X107358091Y-173096316D01*
X107248406Y-173050883D01*
X107017525Y-172995454D01*
X106780813Y-172976824D01*
X106544100Y-172995454D01*
X106313219Y-173050883D01*
X106093848Y-173141750D01*
X105891398Y-173265812D01*
X105710844Y-173420020D01*
X105556636Y-173600574D01*
X105450591Y-173773623D01*
X105432573Y-173803026D01*
X105419266Y-173835151D01*
X105341707Y-174022395D01*
X105286278Y-174253276D01*
X105267648Y-174489988D01*
X104785954Y-174489988D01*
X104765426Y-174242256D01*
X104704399Y-174001267D01*
X104604543Y-173773619D01*
X104504247Y-173620105D01*
X103920952Y-174203400D01*
X103861133Y-174089423D01*
X103748408Y-173962183D01*
X103608508Y-173865618D01*
X103567270Y-173849978D01*
X104150870Y-173266379D01*
X104150869Y-173266377D01*
X104104048Y-173229936D01*
X103885419Y-173111620D01*
X103650306Y-173030905D01*
X103405106Y-172989989D01*
X103156520Y-172989989D01*
X102911319Y-173030905D01*
X102676206Y-173111620D01*
X102457577Y-173229935D01*
X102410755Y-173266377D01*
X102410755Y-173266379D01*
X102994355Y-173849978D01*
X102953118Y-173865618D01*
X102813218Y-173962183D01*
X102700493Y-174089423D01*
X102640673Y-174203401D01*
X102057377Y-173620105D01*
X101957079Y-173773623D01*
X101857226Y-174001267D01*
X101796199Y-174242256D01*
X101775671Y-174489989D01*
X101293978Y-174489989D01*
X101275348Y-174253278D01*
X101219918Y-174022395D01*
X101129053Y-173803026D01*
X101004989Y-173600573D01*
X100850782Y-173420020D01*
X100670229Y-173265813D01*
X100467776Y-173141749D01*
X100358091Y-173096316D01*
X100248406Y-173050883D01*
X100017525Y-172995454D01*
X99899168Y-172986138D01*
X99780813Y-172976824D01*
X99780812Y-172976824D01*
X99544100Y-172995454D01*
X99313219Y-173050883D01*
X99093848Y-173141750D01*
X98891398Y-173265812D01*
X98710844Y-173420020D01*
X98556636Y-173600574D01*
X98450591Y-173773623D01*
X98432573Y-173803026D01*
X98419266Y-173835151D01*
X98341707Y-174022395D01*
X98286278Y-174253276D01*
X98267648Y-174489988D01*
X97793978Y-174489988D01*
X97775348Y-174253278D01*
X97719918Y-174022395D01*
X97629053Y-173803026D01*
X97504989Y-173600573D01*
X97350782Y-173420020D01*
X97170229Y-173265813D01*
X96967776Y-173141749D01*
X96858091Y-173096316D01*
X96748406Y-173050883D01*
X96517525Y-172995454D01*
X96399168Y-172986138D01*
X96280813Y-172976824D01*
X96280812Y-172976824D01*
X96044100Y-172995454D01*
X95813219Y-173050883D01*
X95593848Y-173141750D01*
X95391398Y-173265812D01*
X95210844Y-173420020D01*
X95056636Y-173600574D01*
X94950591Y-173773623D01*
X94932573Y-173803026D01*
X94919266Y-173835151D01*
X94841707Y-174022395D01*
X94786278Y-174253276D01*
X94767648Y-174489988D01*
X94090812Y-174489988D01*
X94090812Y-171707199D01*
X94110497Y-171640160D01*
X94163301Y-171594405D01*
X94232459Y-171584461D01*
X94296015Y-171613486D01*
X94332741Y-171668879D01*
X94353977Y-171734236D01*
X94390472Y-171846556D01*
X94485957Y-172011941D01*
X94510707Y-172039428D01*
X94613747Y-172153866D01*
X94672505Y-172196556D01*
X94768248Y-172266118D01*
X94942714Y-172343795D01*
X95129511Y-172383500D01*
X95129513Y-172383500D01*
X95320489Y-172383500D01*
X95507285Y-172343795D01*
X95507286Y-172343794D01*
X95507288Y-172343794D01*
X95681752Y-172266118D01*
X95836253Y-172153866D01*
X95964040Y-172011944D01*
X96057539Y-171850000D01*
X110286496Y-171850000D01*
X110306458Y-172039929D01*
X110365472Y-172221556D01*
X110460957Y-172386941D01*
X110460960Y-172386944D01*
X110588747Y-172528866D01*
X110657566Y-172578866D01*
X110743248Y-172641118D01*
X110917714Y-172718795D01*
X111104511Y-172758500D01*
X111104513Y-172758500D01*
X111295489Y-172758500D01*
X111482285Y-172718795D01*
X111482286Y-172718794D01*
X111482288Y-172718794D01*
X111656752Y-172641118D01*
X111739959Y-172580664D01*
X111805764Y-172557184D01*
X111873818Y-172573009D01*
X111885730Y-172580665D01*
X111968244Y-172640616D01*
X111968247Y-172640617D01*
X111968248Y-172640618D01*
X112081673Y-172691118D01*
X112142714Y-172718295D01*
X112329511Y-172758000D01*
X112329513Y-172758000D01*
X112520489Y-172758000D01*
X112707285Y-172718295D01*
X112707286Y-172718294D01*
X112707288Y-172718294D01*
X112881752Y-172640618D01*
X113036253Y-172528366D01*
X113164040Y-172386444D01*
X113188664Y-172343795D01*
X113259527Y-172221056D01*
X113267488Y-172196556D01*
X113318542Y-172039428D01*
X113333196Y-171900000D01*
X114936496Y-171900000D01*
X114956458Y-172089929D01*
X115015472Y-172271556D01*
X115110957Y-172436941D01*
X115110960Y-172436944D01*
X115238747Y-172578866D01*
X115393248Y-172691117D01*
X115393248Y-172691118D01*
X115567714Y-172768795D01*
X115754511Y-172808500D01*
X115754513Y-172808500D01*
X115945489Y-172808500D01*
X116132285Y-172768795D01*
X116132286Y-172768794D01*
X116132288Y-172768794D01*
X116306752Y-172691118D01*
X116461253Y-172578866D01*
X116589040Y-172436944D01*
X116632342Y-172361944D01*
X116684527Y-172271556D01*
X116700773Y-172221556D01*
X116743542Y-172089928D01*
X116763504Y-171900000D01*
X116755621Y-171824999D01*
X121236496Y-171824999D01*
X121256458Y-172014929D01*
X121315472Y-172196556D01*
X121410957Y-172361941D01*
X121410960Y-172361944D01*
X121538747Y-172503866D01*
X121693248Y-172616117D01*
X121693248Y-172616118D01*
X121867714Y-172693795D01*
X122054511Y-172733500D01*
X122054513Y-172733500D01*
X122245489Y-172733500D01*
X122432285Y-172693795D01*
X122432286Y-172693794D01*
X122432288Y-172693794D01*
X122606752Y-172616118D01*
X122761253Y-172503866D01*
X122889040Y-172361944D01*
X122899519Y-172343795D01*
X122984527Y-172196556D01*
X123019172Y-172089929D01*
X123043542Y-172014928D01*
X123063504Y-171825000D01*
X123043542Y-171635072D01*
X122992488Y-171477944D01*
X122984527Y-171453443D01*
X122889042Y-171288058D01*
X122828782Y-171221133D01*
X122761253Y-171146134D01*
X122641163Y-171058883D01*
X122606751Y-171033881D01*
X122432285Y-170956204D01*
X122245489Y-170916500D01*
X122245487Y-170916500D01*
X122054513Y-170916500D01*
X122054511Y-170916500D01*
X121867714Y-170956204D01*
X121693248Y-171033881D01*
X121538748Y-171146133D01*
X121410957Y-171288058D01*
X121315472Y-171453443D01*
X121256458Y-171635070D01*
X121236496Y-171824999D01*
X116755621Y-171824999D01*
X116743542Y-171710072D01*
X116684527Y-171528444D01*
X116684527Y-171528443D01*
X116589042Y-171363058D01*
X116569442Y-171341291D01*
X116461253Y-171221134D01*
X116306752Y-171108882D01*
X116306751Y-171108881D01*
X116132285Y-171031204D01*
X115945489Y-170991500D01*
X115945487Y-170991500D01*
X115754513Y-170991500D01*
X115754511Y-170991500D01*
X115567714Y-171031204D01*
X115393248Y-171108881D01*
X115238748Y-171221133D01*
X115110957Y-171363058D01*
X115015472Y-171528443D01*
X114956458Y-171710070D01*
X114936496Y-171900000D01*
X113333196Y-171900000D01*
X113338504Y-171849500D01*
X113318542Y-171659572D01*
X113275935Y-171528443D01*
X113259527Y-171477943D01*
X113164042Y-171312558D01*
X113139293Y-171285072D01*
X113036253Y-171170634D01*
X112882442Y-171058883D01*
X112881751Y-171058381D01*
X112707285Y-170980704D01*
X112520489Y-170941000D01*
X112520487Y-170941000D01*
X112329513Y-170941000D01*
X112329511Y-170941000D01*
X112142714Y-170980704D01*
X111968245Y-171058382D01*
X111885040Y-171118835D01*
X111819234Y-171142315D01*
X111751180Y-171126489D01*
X111739269Y-171118834D01*
X111656755Y-171058883D01*
X111482285Y-170981204D01*
X111295489Y-170941500D01*
X111295487Y-170941500D01*
X111104513Y-170941500D01*
X111104511Y-170941500D01*
X110917714Y-170981204D01*
X110743248Y-171058881D01*
X110588748Y-171171133D01*
X110460957Y-171313058D01*
X110365472Y-171478443D01*
X110306458Y-171660070D01*
X110286496Y-171850000D01*
X96057539Y-171850000D01*
X96059527Y-171846556D01*
X96118542Y-171664928D01*
X96138504Y-171475000D01*
X96118542Y-171285072D01*
X96087931Y-171190862D01*
X96059527Y-171103443D01*
X95964042Y-170938058D01*
X95924186Y-170893794D01*
X95836253Y-170796134D01*
X95737406Y-170724317D01*
X95694742Y-170668987D01*
X95688763Y-170599374D01*
X95721369Y-170537579D01*
X95782208Y-170503222D01*
X95810293Y-170500000D01*
X100378605Y-170500000D01*
X100445644Y-170519685D01*
G37*
G04 #@! TD.AperFunction*
G04 #@! TA.AperFunction,Conductor*
G36*
X114496348Y-164297065D02*
G01*
X114542451Y-164349565D01*
X114554000Y-164401822D01*
X114554000Y-168235186D01*
X114537387Y-168297186D01*
X114490472Y-168378443D01*
X114431458Y-168560070D01*
X114411496Y-168750000D01*
X114431458Y-168939929D01*
X114451769Y-169002437D01*
X114453764Y-169072278D01*
X114417684Y-169132111D01*
X114354983Y-169162939D01*
X114334264Y-169164754D01*
X107696164Y-169187581D01*
X107629058Y-169168127D01*
X107583121Y-169115481D01*
X107572417Y-169050620D01*
X107573540Y-169039933D01*
X107573542Y-169039928D01*
X107593504Y-168850000D01*
X107573542Y-168660072D01*
X107514527Y-168478444D01*
X107514527Y-168478443D01*
X107419042Y-168313058D01*
X107398343Y-168290070D01*
X107291253Y-168171134D01*
X107194901Y-168101130D01*
X107136751Y-168058881D01*
X106962285Y-167981204D01*
X106775489Y-167941500D01*
X106775487Y-167941500D01*
X106584513Y-167941500D01*
X106584511Y-167941500D01*
X106397714Y-167981204D01*
X106223245Y-168058882D01*
X106103854Y-168145626D01*
X106038048Y-168169106D01*
X105969994Y-168153281D01*
X105921299Y-168103175D01*
X105907424Y-168034697D01*
X105918586Y-167992906D01*
X105934284Y-167959243D01*
X105993543Y-167738087D01*
X106013498Y-167510000D01*
X105993543Y-167281913D01*
X105934284Y-167060757D01*
X105837523Y-166853251D01*
X105706198Y-166665700D01*
X105660498Y-166620000D01*
X109891808Y-166620000D01*
X109911770Y-166809929D01*
X109970784Y-166991556D01*
X110066269Y-167156941D01*
X110066272Y-167156944D01*
X110194059Y-167298866D01*
X110348560Y-167411117D01*
X110348560Y-167411118D01*
X110523026Y-167488795D01*
X110709823Y-167528500D01*
X110709825Y-167528500D01*
X110900801Y-167528500D01*
X111087597Y-167488795D01*
X111087598Y-167488794D01*
X111087600Y-167488794D01*
X111262064Y-167411118D01*
X111416565Y-167298866D01*
X111544352Y-167156944D01*
X111546374Y-167153443D01*
X111639839Y-166991556D01*
X111684777Y-166853251D01*
X111698854Y-166809928D01*
X111718816Y-166620000D01*
X111698854Y-166430072D01*
X111648701Y-166275717D01*
X111639839Y-166248443D01*
X111544354Y-166083058D01*
X111524754Y-166061291D01*
X111416565Y-165941134D01*
X111262064Y-165828882D01*
X111262063Y-165828881D01*
X111087597Y-165751204D01*
X110900801Y-165711500D01*
X110900799Y-165711500D01*
X110709825Y-165711500D01*
X110709823Y-165711500D01*
X110523026Y-165751204D01*
X110348560Y-165828881D01*
X110194060Y-165941133D01*
X110066269Y-166083058D01*
X109970784Y-166248443D01*
X109911770Y-166430070D01*
X109891808Y-166620000D01*
X105660498Y-166620000D01*
X105544300Y-166503802D01*
X105356749Y-166372477D01*
X105356746Y-166372476D01*
X105356744Y-166372474D01*
X105149246Y-166275717D01*
X105149243Y-166275716D01*
X105038664Y-166246086D01*
X104928084Y-166216456D01*
X104699999Y-166196501D01*
X104471915Y-166216456D01*
X104250753Y-166275717D01*
X104043255Y-166372474D01*
X103855700Y-166503802D01*
X103726279Y-166633223D01*
X103664956Y-166666707D01*
X103595264Y-166661723D01*
X103588166Y-166658822D01*
X103582288Y-166656205D01*
X103395489Y-166616500D01*
X103395487Y-166616500D01*
X103204513Y-166616500D01*
X103204511Y-166616500D01*
X103017714Y-166656204D01*
X102843248Y-166733881D01*
X102688748Y-166846133D01*
X102560957Y-166988058D01*
X102465472Y-167153443D01*
X102406458Y-167335070D01*
X102386496Y-167525000D01*
X102406458Y-167714929D01*
X102465472Y-167896556D01*
X102560957Y-168061941D01*
X102590355Y-168094591D01*
X102688747Y-168203866D01*
X102839034Y-168313056D01*
X102843248Y-168316118D01*
X103017714Y-168393795D01*
X103204511Y-168433500D01*
X103204513Y-168433500D01*
X103395489Y-168433500D01*
X103520020Y-168407029D01*
X103582288Y-168393794D01*
X103596007Y-168387685D01*
X103608920Y-168381937D01*
X103678170Y-168372652D01*
X103741447Y-168402280D01*
X103747037Y-168407535D01*
X103756216Y-168416714D01*
X103789701Y-168478037D01*
X103786467Y-168542711D01*
X103756458Y-168635071D01*
X103752794Y-168669929D01*
X103736496Y-168825000D01*
X103756458Y-169014928D01*
X103756459Y-169014931D01*
X103764341Y-169039190D01*
X103766336Y-169109031D01*
X103730255Y-169168863D01*
X103667554Y-169199691D01*
X103646836Y-169201506D01*
X101651233Y-169208368D01*
X101600372Y-169197649D01*
X101507285Y-169156204D01*
X101320489Y-169116500D01*
X101320487Y-169116500D01*
X101181841Y-169116500D01*
X101114802Y-169096815D01*
X101069047Y-169044011D01*
X101059103Y-168974853D01*
X101063907Y-168954190D01*
X101068542Y-168939928D01*
X101088504Y-168750000D01*
X101068542Y-168560072D01*
X101021962Y-168416714D01*
X101009527Y-168378443D01*
X100914042Y-168213058D01*
X100860218Y-168153281D01*
X100786253Y-168071134D01*
X100662478Y-167981206D01*
X100631751Y-167958881D01*
X100457285Y-167881204D01*
X100270489Y-167841500D01*
X100270487Y-167841500D01*
X100079513Y-167841500D01*
X100079511Y-167841500D01*
X99892714Y-167881204D01*
X99718248Y-167958881D01*
X99563748Y-168071133D01*
X99435957Y-168213058D01*
X99340472Y-168378443D01*
X99281458Y-168560070D01*
X99261496Y-168749999D01*
X99281458Y-168939929D01*
X99318677Y-169054476D01*
X99320672Y-169124317D01*
X99284592Y-169184150D01*
X99221891Y-169214978D01*
X99201172Y-169216793D01*
X96776834Y-169225130D01*
X96709728Y-169205676D01*
X96663791Y-169153030D01*
X96653610Y-169083906D01*
X96682416Y-169020251D01*
X96684261Y-169018156D01*
X96684525Y-169017861D01*
X96685352Y-169016944D01*
X96780839Y-168851556D01*
X96839854Y-168669928D01*
X96859816Y-168480000D01*
X96839854Y-168290072D01*
X96801208Y-168171133D01*
X96780839Y-168108443D01*
X96685354Y-167943058D01*
X96629660Y-167881204D01*
X96557565Y-167801134D01*
X96461213Y-167731129D01*
X96403063Y-167688881D01*
X96228597Y-167611204D01*
X96041801Y-167571500D01*
X96041799Y-167571500D01*
X95850825Y-167571500D01*
X95850823Y-167571500D01*
X95664026Y-167611204D01*
X95489560Y-167688881D01*
X95360812Y-167782423D01*
X95360812Y-165461284D01*
X95768521Y-165462757D01*
X95881005Y-165450701D01*
X95934037Y-165439001D01*
X96041167Y-165402601D01*
X96163364Y-165322414D01*
X96215729Y-165276158D01*
X96310382Y-165164795D01*
X96369829Y-165031273D01*
X96388874Y-164964049D01*
X96406733Y-164830837D01*
X96435149Y-164767014D01*
X96479195Y-164734040D01*
X96631752Y-164666118D01*
X96735016Y-164591091D01*
X96800821Y-164567612D01*
X96868875Y-164583437D01*
X96900046Y-164608433D01*
X96924747Y-164635866D01*
X97054308Y-164729998D01*
X97079248Y-164748118D01*
X97253714Y-164825795D01*
X97440511Y-164865500D01*
X97440513Y-164865500D01*
X97631489Y-164865500D01*
X97818285Y-164825795D01*
X97818286Y-164825794D01*
X97818288Y-164825794D01*
X97992752Y-164748118D01*
X98147253Y-164635866D01*
X98275040Y-164493944D01*
X98302823Y-164445821D01*
X98353385Y-164397609D01*
X98409380Y-164383827D01*
X102086938Y-164359493D01*
X102154104Y-164378733D01*
X102200207Y-164431233D01*
X102211077Y-164470528D01*
X102230458Y-164654929D01*
X102289472Y-164836556D01*
X102384957Y-165001941D01*
X102384960Y-165001944D01*
X102512747Y-165143866D01*
X102627709Y-165227391D01*
X102667248Y-165256118D01*
X102841714Y-165333795D01*
X103028511Y-165373500D01*
X103028513Y-165373500D01*
X103219489Y-165373500D01*
X103406285Y-165333795D01*
X103406286Y-165333794D01*
X103406288Y-165333794D01*
X103580752Y-165256118D01*
X103735253Y-165143866D01*
X103863040Y-165001944D01*
X103895561Y-164945617D01*
X103958527Y-164836556D01*
X103975957Y-164782911D01*
X104017542Y-164654928D01*
X104037504Y-164465000D01*
X104037503Y-164464994D01*
X104038364Y-164456806D01*
X104064948Y-164392191D01*
X104122245Y-164352206D01*
X104160860Y-164345770D01*
X114429183Y-164277825D01*
X114496348Y-164297065D01*
G37*
G04 #@! TD.AperFunction*
G04 #@! TA.AperFunction,Conductor*
G36*
X95660493Y-150343404D02*
G01*
X95727459Y-150363330D01*
X95773023Y-150416299D01*
X95782716Y-150485493D01*
X95753462Y-150548944D01*
X95752194Y-150550374D01*
X95731771Y-150573055D01*
X95636284Y-150738443D01*
X95577270Y-150920070D01*
X95557308Y-151110000D01*
X95577270Y-151299929D01*
X95636284Y-151481556D01*
X95731769Y-151646941D01*
X95731772Y-151646944D01*
X95859559Y-151788866D01*
X96014060Y-151901117D01*
X96014060Y-151901118D01*
X96188526Y-151978795D01*
X96375323Y-152018500D01*
X96516195Y-152018500D01*
X96583234Y-152038185D01*
X96628989Y-152090989D01*
X96640190Y-152143578D01*
X96595704Y-157259253D01*
X96575438Y-157326119D01*
X96544595Y-157358493D01*
X96389560Y-157471133D01*
X96261769Y-157613058D01*
X96166284Y-157778443D01*
X96107270Y-157960070D01*
X96087308Y-158150000D01*
X96107270Y-158339929D01*
X96166284Y-158521556D01*
X96261769Y-158686941D01*
X96261772Y-158686944D01*
X96389559Y-158828866D01*
X96529182Y-158930309D01*
X96571848Y-158985638D01*
X96580292Y-159031704D01*
X96546887Y-162873202D01*
X96526621Y-162940068D01*
X96473421Y-162985362D01*
X96404178Y-162994704D01*
X96397111Y-162993414D01*
X96270489Y-162966500D01*
X96270487Y-162966500D01*
X96079513Y-162966500D01*
X96079511Y-162966500D01*
X95892714Y-163006204D01*
X95718248Y-163083881D01*
X95563748Y-163196133D01*
X95435957Y-163338058D01*
X95340472Y-163503443D01*
X95281458Y-163685070D01*
X95261496Y-163875000D01*
X95281458Y-164064929D01*
X95340472Y-164246556D01*
X95435957Y-164411941D01*
X95435960Y-164411944D01*
X95563747Y-164553866D01*
X95718248Y-164666118D01*
X95821259Y-164711981D01*
X95874496Y-164757231D01*
X95894818Y-164824080D01*
X95875773Y-164891304D01*
X95823408Y-164937560D01*
X95770376Y-164949260D01*
X95002346Y-164946486D01*
X94977013Y-164943777D01*
X94966301Y-164941500D01*
X94966299Y-164941500D01*
X94775325Y-164941500D01*
X94775324Y-164941500D01*
X94769018Y-164942840D01*
X94742794Y-164945548D01*
X91979977Y-164935568D01*
X91913009Y-164915642D01*
X91867445Y-164862673D01*
X91857104Y-164798610D01*
X91864316Y-164730000D01*
X91844354Y-164540072D01*
X91785339Y-164358444D01*
X91785339Y-164358443D01*
X91689854Y-164193058D01*
X91648318Y-164146928D01*
X91562065Y-164051134D01*
X91407564Y-163938882D01*
X91407563Y-163938881D01*
X91233097Y-163861204D01*
X91046301Y-163821500D01*
X91046299Y-163821500D01*
X90855325Y-163821500D01*
X90855323Y-163821500D01*
X90668526Y-163861204D01*
X90494060Y-163938881D01*
X90339560Y-164051133D01*
X90211769Y-164193058D01*
X90116284Y-164358443D01*
X90057270Y-164540070D01*
X90057269Y-164540072D01*
X90057270Y-164540072D01*
X90037308Y-164730000D01*
X90043338Y-164787376D01*
X90043737Y-164791167D01*
X90031167Y-164859897D01*
X89983435Y-164910920D01*
X89919968Y-164928127D01*
X85579442Y-164912450D01*
X85512474Y-164892524D01*
X85466910Y-164839555D01*
X85455895Y-164787376D01*
X85497334Y-160021865D01*
X85503397Y-159984636D01*
X85520607Y-159931672D01*
X85540569Y-159741744D01*
X85520607Y-159551816D01*
X85508160Y-159513509D01*
X85502097Y-159474122D01*
X85524385Y-156911000D01*
X90510308Y-156911000D01*
X90530270Y-157100929D01*
X90589284Y-157282556D01*
X90684769Y-157447941D01*
X90684772Y-157447944D01*
X90812559Y-157589866D01*
X90967059Y-157702118D01*
X90967060Y-157702118D01*
X91141526Y-157779795D01*
X91328323Y-157819500D01*
X91328325Y-157819500D01*
X91519301Y-157819500D01*
X91706097Y-157779795D01*
X91706098Y-157779794D01*
X91706100Y-157779794D01*
X91880564Y-157702118D01*
X92035065Y-157589866D01*
X92162852Y-157447944D01*
X92258339Y-157282556D01*
X92317354Y-157100928D01*
X92337316Y-156911000D01*
X92317354Y-156721072D01*
X92286743Y-156626862D01*
X92258339Y-156539443D01*
X92162854Y-156374058D01*
X92143254Y-156352291D01*
X92035065Y-156232134D01*
X91880564Y-156119882D01*
X91880563Y-156119881D01*
X91706097Y-156042204D01*
X91519301Y-156002500D01*
X91519299Y-156002500D01*
X91328325Y-156002500D01*
X91328323Y-156002500D01*
X91141526Y-156042204D01*
X90967060Y-156119881D01*
X90812560Y-156232133D01*
X90684769Y-156374058D01*
X90589284Y-156539443D01*
X90530270Y-156721070D01*
X90510308Y-156911000D01*
X85524385Y-156911000D01*
X85533872Y-155820000D01*
X93327308Y-155820000D01*
X93347270Y-156009929D01*
X93406284Y-156191556D01*
X93501769Y-156356941D01*
X93501772Y-156356944D01*
X93629559Y-156498866D01*
X93685410Y-156539444D01*
X93784060Y-156611118D01*
X93958526Y-156688795D01*
X94145323Y-156728500D01*
X94145325Y-156728500D01*
X94336301Y-156728500D01*
X94523097Y-156688795D01*
X94523098Y-156688794D01*
X94523100Y-156688794D01*
X94697564Y-156611118D01*
X94852065Y-156498866D01*
X94979852Y-156356944D01*
X95075339Y-156191556D01*
X95134354Y-156009928D01*
X95154316Y-155820000D01*
X95134354Y-155630072D01*
X95075339Y-155448444D01*
X95075339Y-155448443D01*
X94979854Y-155283058D01*
X94960254Y-155261291D01*
X94852065Y-155141134D01*
X94697564Y-155028882D01*
X94697563Y-155028881D01*
X94523097Y-154951204D01*
X94336301Y-154911500D01*
X94336299Y-154911500D01*
X94145325Y-154911500D01*
X94145323Y-154911500D01*
X93958526Y-154951204D01*
X93784060Y-155028881D01*
X93629560Y-155141133D01*
X93501769Y-155283058D01*
X93406284Y-155448443D01*
X93347270Y-155630070D01*
X93327308Y-155820000D01*
X85533872Y-155820000D01*
X85543090Y-154760000D01*
X89367308Y-154760000D01*
X89387270Y-154949929D01*
X89446284Y-155131556D01*
X89541769Y-155296941D01*
X89541772Y-155296944D01*
X89669559Y-155438866D01*
X89824059Y-155551118D01*
X89824060Y-155551118D01*
X89998526Y-155628795D01*
X90185323Y-155668500D01*
X90185325Y-155668500D01*
X90376301Y-155668500D01*
X90563097Y-155628795D01*
X90563098Y-155628794D01*
X90563100Y-155628794D01*
X90737564Y-155551118D01*
X90892065Y-155438866D01*
X91019852Y-155296944D01*
X91027871Y-155283056D01*
X91115339Y-155131556D01*
X91148700Y-155028881D01*
X91174354Y-154949928D01*
X91194316Y-154760000D01*
X91174354Y-154570072D01*
X91115339Y-154388444D01*
X91115339Y-154388443D01*
X91019854Y-154223058D01*
X91000254Y-154201291D01*
X90892065Y-154081134D01*
X90737564Y-153968882D01*
X90737563Y-153968881D01*
X90563097Y-153891204D01*
X90376301Y-153851500D01*
X90376299Y-153851500D01*
X90185325Y-153851500D01*
X90185323Y-153851500D01*
X89998526Y-153891204D01*
X89824060Y-153968881D01*
X89669560Y-154081133D01*
X89541769Y-154223058D01*
X89446284Y-154388443D01*
X89387270Y-154570070D01*
X89367308Y-154760000D01*
X85543090Y-154760000D01*
X85580739Y-150430365D01*
X85601005Y-150363500D01*
X85654205Y-150318206D01*
X85705179Y-150307445D01*
X95660493Y-150343404D01*
G37*
G04 #@! TD.AperFunction*
G04 #@! TA.AperFunction,Conductor*
G36*
X77038194Y-154009685D02*
G01*
X77063303Y-154031026D01*
X77150921Y-154128336D01*
X77305422Y-154240588D01*
X77479888Y-154318265D01*
X77666685Y-154357970D01*
X77725255Y-154357970D01*
X77792294Y-154377655D01*
X77838049Y-154430459D01*
X77848576Y-154494931D01*
X77848043Y-154499999D01*
X77868005Y-154689929D01*
X77927019Y-154871556D01*
X78022504Y-155036941D01*
X78022507Y-155036944D01*
X78150294Y-155178866D01*
X78304795Y-155291118D01*
X78479261Y-155368795D01*
X78666058Y-155408500D01*
X78666060Y-155408500D01*
X78857036Y-155408500D01*
X79043832Y-155368795D01*
X79043833Y-155368794D01*
X79043835Y-155368794D01*
X79218299Y-155291118D01*
X79372800Y-155178866D01*
X79500587Y-155036944D01*
X79596074Y-154871556D01*
X79655089Y-154689928D01*
X79675051Y-154500000D01*
X79655089Y-154310072D01*
X79603830Y-154152317D01*
X79601836Y-154082477D01*
X79637916Y-154022644D01*
X79700617Y-153991816D01*
X79721762Y-153990000D01*
X83806812Y-153990000D01*
X83873851Y-154009685D01*
X83919606Y-154062489D01*
X83930812Y-154114000D01*
X83930812Y-157107500D01*
X83911127Y-157174539D01*
X83858323Y-157220294D01*
X83806812Y-157231500D01*
X83605323Y-157231500D01*
X83418526Y-157271204D01*
X83244060Y-157348881D01*
X83089560Y-157461133D01*
X82961769Y-157603058D01*
X82866284Y-157768443D01*
X82807270Y-157950070D01*
X82787308Y-158140000D01*
X82807270Y-158329929D01*
X82866284Y-158511556D01*
X82961769Y-158676941D01*
X82961772Y-158676944D01*
X83089559Y-158818866D01*
X83184083Y-158887542D01*
X83244060Y-158931118D01*
X83418526Y-159008795D01*
X83605323Y-159048500D01*
X83763490Y-159048500D01*
X83830529Y-159068185D01*
X83876284Y-159120989D01*
X83886228Y-159190147D01*
X83870877Y-159234500D01*
X83792537Y-159370187D01*
X83733523Y-159551814D01*
X83713561Y-159741744D01*
X83733523Y-159931673D01*
X83792537Y-160113300D01*
X83853073Y-160218151D01*
X83888025Y-160278688D01*
X83898961Y-160290834D01*
X83929191Y-160353825D01*
X83930812Y-160373806D01*
X83930812Y-162495041D01*
X83911127Y-162562080D01*
X83858323Y-162607835D01*
X83832593Y-162616331D01*
X83668526Y-162651204D01*
X83494060Y-162728881D01*
X83339560Y-162841133D01*
X83211769Y-162983058D01*
X83116284Y-163148443D01*
X83057270Y-163330070D01*
X83037308Y-163520000D01*
X83057270Y-163709929D01*
X83116284Y-163891556D01*
X83211769Y-164056941D01*
X83211772Y-164056944D01*
X83339559Y-164198866D01*
X83494060Y-164311118D01*
X83668526Y-164388795D01*
X83800970Y-164416946D01*
X83832593Y-164423668D01*
X83894075Y-164456860D01*
X83927851Y-164518023D01*
X83930812Y-164544958D01*
X83930812Y-165420000D01*
X85528168Y-165420000D01*
X85546256Y-165421326D01*
X85577587Y-165425947D01*
X86850081Y-165430542D01*
X86917048Y-165450468D01*
X86962612Y-165503437D01*
X86972305Y-165572631D01*
X86943051Y-165636082D01*
X86941782Y-165637513D01*
X86891771Y-165693055D01*
X86796284Y-165858443D01*
X86737270Y-166040070D01*
X86717308Y-166229999D01*
X86737270Y-166419929D01*
X86796284Y-166601556D01*
X86891769Y-166766941D01*
X86891772Y-166766944D01*
X87019559Y-166908866D01*
X87174059Y-167021117D01*
X87174060Y-167021118D01*
X87348526Y-167098795D01*
X87535323Y-167138500D01*
X87535325Y-167138500D01*
X87726301Y-167138500D01*
X87913097Y-167098795D01*
X87913098Y-167098794D01*
X87913100Y-167098794D01*
X88087564Y-167021118D01*
X88242065Y-166908866D01*
X88369852Y-166766944D01*
X88465339Y-166601556D01*
X88524354Y-166419928D01*
X88544316Y-166230000D01*
X88524354Y-166040072D01*
X88465339Y-165858444D01*
X88465339Y-165858443D01*
X88369852Y-165693055D01*
X88324939Y-165643175D01*
X88294708Y-165580183D01*
X88303333Y-165510848D01*
X88348074Y-165457182D01*
X88414726Y-165436224D01*
X88417483Y-165436203D01*
X89918113Y-165441624D01*
X90054336Y-165423735D01*
X90058362Y-165422643D01*
X90059508Y-165422414D01*
X90083858Y-165420000D01*
X90314593Y-165420000D01*
X90381632Y-165439685D01*
X90387477Y-165443681D01*
X90406060Y-165457182D01*
X90494060Y-165521118D01*
X90668526Y-165598795D01*
X90855323Y-165638500D01*
X90855325Y-165638500D01*
X91046301Y-165638500D01*
X91233097Y-165598795D01*
X91233098Y-165598794D01*
X91233100Y-165598794D01*
X91407564Y-165521118D01*
X91514145Y-165443681D01*
X91579951Y-165420202D01*
X91587031Y-165420000D01*
X91789454Y-165420000D01*
X91824816Y-165425149D01*
X91833533Y-165427743D01*
X91833538Y-165427743D01*
X91833539Y-165427744D01*
X91978121Y-165449065D01*
X92284498Y-165450171D01*
X94740939Y-165459045D01*
X94795540Y-165456332D01*
X94802087Y-165455655D01*
X94814823Y-165455000D01*
X94921731Y-165455000D01*
X94934915Y-165455702D01*
X94947746Y-165457075D01*
X95000491Y-165459983D01*
X95360812Y-165461284D01*
X95360812Y-167782422D01*
X95335060Y-167801133D01*
X95207269Y-167943058D01*
X95111784Y-168108443D01*
X95052770Y-168290070D01*
X95032808Y-168480000D01*
X95052770Y-168669929D01*
X95111784Y-168851556D01*
X95207271Y-169016943D01*
X95212748Y-169023026D01*
X95242979Y-169086017D01*
X95234356Y-169155353D01*
X95189615Y-169209019D01*
X95122963Y-169229977D01*
X95120600Y-169230000D01*
X77704812Y-169230000D01*
X77637773Y-169210315D01*
X77592018Y-169157511D01*
X77580812Y-169106000D01*
X77580812Y-164667258D01*
X77600497Y-164600219D01*
X77653301Y-164554464D01*
X77722459Y-164544520D01*
X77755248Y-164553979D01*
X77788524Y-164568794D01*
X77975323Y-164608500D01*
X77975325Y-164608500D01*
X78166301Y-164608500D01*
X78353097Y-164568795D01*
X78353098Y-164568794D01*
X78353100Y-164568794D01*
X78527564Y-164491118D01*
X78682065Y-164378866D01*
X78809852Y-164236944D01*
X78831837Y-164198866D01*
X78905339Y-164071556D01*
X78910088Y-164056941D01*
X78964354Y-163889928D01*
X78984316Y-163700000D01*
X78964354Y-163510072D01*
X78905868Y-163330072D01*
X78905339Y-163328443D01*
X78809854Y-163163058D01*
X78790254Y-163141291D01*
X78682065Y-163021134D01*
X78527564Y-162908882D01*
X78527563Y-162908881D01*
X78353097Y-162831204D01*
X78166301Y-162791500D01*
X78166299Y-162791500D01*
X77975325Y-162791500D01*
X77975323Y-162791500D01*
X77788523Y-162831205D01*
X77755246Y-162846021D01*
X77685996Y-162855305D01*
X77622719Y-162825676D01*
X77585507Y-162766540D01*
X77580812Y-162732741D01*
X77580812Y-160340000D01*
X75040812Y-160340000D01*
X75038800Y-160340132D01*
X75038787Y-160340133D01*
X73140318Y-160465237D01*
X73072129Y-160450003D01*
X73023001Y-160400322D01*
X73008531Y-160331967D01*
X73014233Y-160303188D01*
X73018542Y-160289928D01*
X73038504Y-160100000D01*
X73018542Y-159910072D01*
X72987931Y-159815862D01*
X72959527Y-159728443D01*
X72864042Y-159563058D01*
X72853918Y-159551814D01*
X72817798Y-159511699D01*
X72787569Y-159448709D01*
X72796194Y-159379374D01*
X72840935Y-159325708D01*
X72907588Y-159304750D01*
X72942043Y-159308953D01*
X72981547Y-159319538D01*
X72981547Y-158424405D01*
X73089232Y-158473584D01*
X73195784Y-158488904D01*
X73267310Y-158488904D01*
X73373862Y-158473584D01*
X73481547Y-158424405D01*
X73481547Y-159319537D01*
X73695037Y-159262334D01*
X73909123Y-159162504D01*
X74102628Y-159027010D01*
X74269653Y-158859985D01*
X74396415Y-158678952D01*
X74450992Y-158635328D01*
X74520491Y-158628135D01*
X74582845Y-158659657D01*
X74601799Y-158682255D01*
X74695823Y-158826171D01*
X74773368Y-158910405D01*
X74848307Y-158991810D01*
X75025971Y-159130093D01*
X75223973Y-159237246D01*
X75436912Y-159310348D01*
X75658978Y-159347404D01*
X75884116Y-159347404D01*
X76106182Y-159310348D01*
X76319121Y-159237246D01*
X76517123Y-159130093D01*
X76694787Y-158991810D01*
X76847269Y-158826172D01*
X76937737Y-158687699D01*
X76990884Y-158642342D01*
X77060116Y-158632918D01*
X77123452Y-158662420D01*
X77145356Y-158687699D01*
X77231051Y-158818866D01*
X77235825Y-158826172D01*
X77388307Y-158991810D01*
X77565971Y-159130093D01*
X77763973Y-159237246D01*
X77976912Y-159310348D01*
X78198978Y-159347404D01*
X78424116Y-159347404D01*
X78646182Y-159310348D01*
X78859121Y-159237246D01*
X79057123Y-159130093D01*
X79234787Y-158991810D01*
X79387269Y-158826172D01*
X79477737Y-158687699D01*
X79530884Y-158642342D01*
X79600116Y-158632918D01*
X79663452Y-158662420D01*
X79685356Y-158687699D01*
X79771051Y-158818866D01*
X79775825Y-158826172D01*
X79928307Y-158991810D01*
X80105971Y-159130093D01*
X80303973Y-159237246D01*
X80516912Y-159310348D01*
X80738978Y-159347404D01*
X80964116Y-159347404D01*
X81186182Y-159310348D01*
X81399121Y-159237246D01*
X81597123Y-159130093D01*
X81774787Y-158991810D01*
X81927269Y-158826172D01*
X82050407Y-158637695D01*
X82140843Y-158431520D01*
X82196111Y-158213272D01*
X82214703Y-157988904D01*
X82196111Y-157764536D01*
X82140843Y-157546288D01*
X82050407Y-157340113D01*
X81927269Y-157151636D01*
X81774787Y-156985998D01*
X81597123Y-156847715D01*
X81399121Y-156740562D01*
X81399120Y-156740561D01*
X81399119Y-156740561D01*
X81186183Y-156667460D01*
X80964116Y-156630404D01*
X80738978Y-156630404D01*
X80516910Y-156667460D01*
X80303974Y-156740561D01*
X80105971Y-156847715D01*
X79928307Y-156985998D01*
X79775826Y-157151634D01*
X79685356Y-157290109D01*
X79632209Y-157335465D01*
X79562978Y-157344889D01*
X79499642Y-157315387D01*
X79477738Y-157290109D01*
X79387270Y-157151638D01*
X79387269Y-157151636D01*
X79234787Y-156985998D01*
X79057123Y-156847715D01*
X78859121Y-156740562D01*
X78859120Y-156740561D01*
X78859119Y-156740561D01*
X78646183Y-156667460D01*
X78424116Y-156630404D01*
X78198978Y-156630404D01*
X77976910Y-156667460D01*
X77763974Y-156740561D01*
X77565971Y-156847715D01*
X77388307Y-156985998D01*
X77235826Y-157151634D01*
X77145356Y-157290109D01*
X77092209Y-157335465D01*
X77022978Y-157344889D01*
X76959642Y-157315387D01*
X76937738Y-157290109D01*
X76847270Y-157151638D01*
X76847269Y-157151636D01*
X76694787Y-156985998D01*
X76517123Y-156847715D01*
X76319121Y-156740562D01*
X76319120Y-156740561D01*
X76319119Y-156740561D01*
X76106183Y-156667460D01*
X75884116Y-156630404D01*
X75658978Y-156630404D01*
X75436910Y-156667460D01*
X75223974Y-156740561D01*
X75025971Y-156847715D01*
X74848307Y-156985998D01*
X74695822Y-157151638D01*
X74601797Y-157295554D01*
X74548651Y-157340910D01*
X74479420Y-157350334D01*
X74416084Y-157320832D01*
X74396414Y-157298855D01*
X74269656Y-157117825D01*
X74102628Y-156950797D01*
X73909123Y-156815303D01*
X73695039Y-156715473D01*
X73481547Y-156658268D01*
X73481547Y-157553402D01*
X73373862Y-157504224D01*
X73267310Y-157488904D01*
X73195784Y-157488904D01*
X73089232Y-157504224D01*
X72981547Y-157553402D01*
X72981547Y-156658268D01*
X72981546Y-156658268D01*
X72768054Y-156715473D01*
X72553968Y-156815304D01*
X72360471Y-156950792D01*
X72244631Y-157066632D01*
X72183308Y-157100116D01*
X72113616Y-157095132D01*
X72057683Y-157053260D01*
X72040770Y-157022288D01*
X71992436Y-156892700D01*
X71958761Y-156847715D01*
X71904808Y-156775642D01*
X71787750Y-156688014D01*
X71650752Y-156636915D01*
X71593471Y-156630757D01*
X71593465Y-156630756D01*
X71590185Y-156630404D01*
X69792909Y-156630404D01*
X69789629Y-156630756D01*
X69789622Y-156630757D01*
X69732341Y-156636915D01*
X69595343Y-156688014D01*
X69561373Y-156713443D01*
X69960812Y-153990000D01*
X75040812Y-153990000D01*
X76971155Y-153990000D01*
X77038194Y-154009685D01*
G37*
G04 #@! TD.AperFunction*
G04 #@! TA.AperFunction,Conductor*
G36*
X69333047Y-158887542D02*
G01*
X69333399Y-158890822D01*
X69333400Y-158890828D01*
X69339558Y-158948109D01*
X69390657Y-159085107D01*
X69478285Y-159202165D01*
X69595343Y-159289793D01*
X69732341Y-159340892D01*
X69732344Y-159340892D01*
X69732346Y-159340893D01*
X69792909Y-159347404D01*
X69796219Y-159347404D01*
X71301625Y-159347404D01*
X71368664Y-159367089D01*
X71414419Y-159419893D01*
X71424363Y-159489051D01*
X71395338Y-159552607D01*
X71393775Y-159554376D01*
X71385959Y-159563056D01*
X71290472Y-159728443D01*
X71231458Y-159910070D01*
X71211496Y-160100000D01*
X71231458Y-160289929D01*
X71277991Y-160433143D01*
X71279986Y-160502985D01*
X71243905Y-160562817D01*
X71181204Y-160593645D01*
X71168214Y-160595193D01*
X69123920Y-160729907D01*
X69055731Y-160714673D01*
X69006603Y-160664992D01*
X68992133Y-160596637D01*
X68993079Y-160588181D01*
X69005575Y-160502985D01*
X69333047Y-158270218D01*
X69333047Y-158887542D01*
G37*
G04 #@! TD.AperFunction*
G04 #@! TA.AperFunction,Conductor*
G36*
X128485515Y-142706685D02*
G01*
X128531270Y-142759489D01*
X128541472Y-142826749D01*
X128538493Y-142850007D01*
X128548668Y-143089548D01*
X128599182Y-143323933D01*
X128663480Y-143483943D01*
X128688579Y-143546404D01*
X128814288Y-143750569D01*
X128814289Y-143750570D01*
X128972692Y-143930550D01*
X129159235Y-144081175D01*
X129368550Y-144198104D01*
X129368552Y-144198105D01*
X129594618Y-144277980D01*
X129594620Y-144277980D01*
X129594622Y-144277981D01*
X129830929Y-144318500D01*
X129830931Y-144318500D01*
X132208008Y-144318500D01*
X132210639Y-144318500D01*
X132389710Y-144303259D01*
X132544393Y-144262982D01*
X132621737Y-144242844D01*
X132730974Y-144193464D01*
X132840214Y-144144086D01*
X133038859Y-144009825D01*
X133211956Y-143843925D01*
X133237116Y-143809905D01*
X133292806Y-143767711D01*
X133362467Y-143762323D01*
X133423983Y-143795452D01*
X133457823Y-143856580D01*
X133460812Y-143883640D01*
X133460812Y-145164944D01*
X133441127Y-145231983D01*
X133388323Y-145277738D01*
X133383046Y-145280002D01*
X133214411Y-145347765D01*
X133010241Y-145473477D01*
X132830261Y-145631880D01*
X132679636Y-145818423D01*
X132562707Y-146027738D01*
X132482830Y-146253810D01*
X132442312Y-146490116D01*
X132442312Y-146490118D01*
X132442312Y-146490119D01*
X132442312Y-148869827D01*
X132442534Y-148872442D01*
X132442535Y-148872452D01*
X132457552Y-149048896D01*
X132517967Y-149280925D01*
X132616725Y-149499401D01*
X132685784Y-149601576D01*
X132750987Y-149698047D01*
X132916887Y-149871144D01*
X133109655Y-150013715D01*
X133323745Y-150121657D01*
X133373122Y-150136778D01*
X133431458Y-150175228D01*
X133459746Y-150239116D01*
X133460812Y-150255342D01*
X133460812Y-155843837D01*
X133441127Y-155910876D01*
X133388323Y-155956631D01*
X133319165Y-155966575D01*
X133286377Y-155957117D01*
X133273098Y-155951204D01*
X133086301Y-155911500D01*
X133086299Y-155911500D01*
X132895325Y-155911500D01*
X132895323Y-155911500D01*
X132708526Y-155951204D01*
X132534057Y-156028883D01*
X132441445Y-156096169D01*
X132375638Y-156119649D01*
X132318125Y-156109131D01*
X132143097Y-156031204D01*
X131956301Y-155991500D01*
X131956299Y-155991500D01*
X131765325Y-155991500D01*
X131765323Y-155991500D01*
X131578526Y-156031204D01*
X131404060Y-156108881D01*
X131249560Y-156221133D01*
X131121769Y-156363058D01*
X131026284Y-156528443D01*
X130967270Y-156710070D01*
X130947308Y-156899999D01*
X130967270Y-157089929D01*
X131026284Y-157271556D01*
X131121769Y-157436941D01*
X131121772Y-157436944D01*
X131249559Y-157578866D01*
X131249562Y-157578868D01*
X131258280Y-157588550D01*
X131256403Y-157590239D01*
X131287843Y-157631012D01*
X131293822Y-157700626D01*
X131261216Y-157762421D01*
X131200377Y-157796778D01*
X131172292Y-157800000D01*
X129650812Y-157800000D01*
X129277782Y-157800000D01*
X129210743Y-157780315D01*
X129164988Y-157727511D01*
X129154461Y-157688962D01*
X129152549Y-157670770D01*
X129143542Y-157585072D01*
X129084527Y-157403444D01*
X129084527Y-157403443D01*
X128989042Y-157238058D01*
X128963778Y-157210000D01*
X128861253Y-157096134D01*
X128742601Y-157009928D01*
X128706751Y-156983881D01*
X128532285Y-156906204D01*
X128345489Y-156866500D01*
X128345487Y-156866500D01*
X128154513Y-156866500D01*
X128154511Y-156866500D01*
X127967714Y-156906204D01*
X127793248Y-156983881D01*
X127746532Y-157017823D01*
X127638747Y-157096134D01*
X127638744Y-157096136D01*
X127628204Y-157103795D01*
X127626373Y-157101275D01*
X127584268Y-157127208D01*
X127514411Y-157125869D01*
X127456368Y-157086975D01*
X127428566Y-157022874D01*
X127428044Y-157017823D01*
X127425376Y-156985636D01*
X127425376Y-156985632D01*
X127370108Y-156767384D01*
X127279672Y-156561209D01*
X127156534Y-156372732D01*
X127156533Y-156372731D01*
X127156530Y-156372726D01*
X127011322Y-156214990D01*
X126980399Y-156152336D01*
X126988259Y-156082910D01*
X127032406Y-156028754D01*
X127059208Y-156014829D01*
X127177016Y-155970889D01*
X127294073Y-155883261D01*
X127381701Y-155766204D01*
X127403736Y-155707124D01*
X127432800Y-155629205D01*
X127432800Y-155629203D01*
X127432801Y-155629201D01*
X127439312Y-155568638D01*
X127439312Y-153771362D01*
X127432801Y-153710799D01*
X127432800Y-153710797D01*
X127432800Y-153710794D01*
X127381701Y-153573796D01*
X127294073Y-153456738D01*
X127177015Y-153369110D01*
X127040017Y-153318011D01*
X126982736Y-153311853D01*
X126982730Y-153311852D01*
X126979450Y-153311500D01*
X125182174Y-153311500D01*
X125178894Y-153311852D01*
X125178887Y-153311853D01*
X125121606Y-153318011D01*
X124984608Y-153369110D01*
X124867550Y-153456738D01*
X124779922Y-153573796D01*
X124728823Y-153710794D01*
X124722665Y-153768075D01*
X124722312Y-153771362D01*
X124722312Y-155568638D01*
X124722664Y-155571918D01*
X124722665Y-155571924D01*
X124728823Y-155629205D01*
X124779922Y-155766203D01*
X124867550Y-155883261D01*
X124982755Y-155969502D01*
X124984608Y-155970889D01*
X125102408Y-156014826D01*
X125158339Y-156056697D01*
X125182756Y-156122161D01*
X125167904Y-156190434D01*
X125150302Y-156214990D01*
X125005091Y-156372730D01*
X124881950Y-156561211D01*
X124816656Y-156710070D01*
X124791516Y-156767384D01*
X124736691Y-156983881D01*
X124736247Y-156985636D01*
X124717655Y-157210000D01*
X124736247Y-157434364D01*
X124757177Y-157517016D01*
X124754551Y-157586837D01*
X124714595Y-157644154D01*
X124649994Y-157670770D01*
X124581258Y-157658235D01*
X124549290Y-157635137D01*
X124435630Y-157521477D01*
X124402145Y-157460154D01*
X124399311Y-157433796D01*
X124399311Y-156983881D01*
X124399311Y-156392841D01*
X124399410Y-156387949D01*
X124402993Y-156299061D01*
X124392271Y-156210758D01*
X124391778Y-156205877D01*
X124384622Y-156117232D01*
X124379105Y-156094852D01*
X124376411Y-156080148D01*
X124373635Y-156057280D01*
X124348897Y-155971875D01*
X124347620Y-155967109D01*
X124326335Y-155880752D01*
X124326334Y-155880750D01*
X124323939Y-155871032D01*
X124324529Y-155870886D01*
X124316812Y-155833086D01*
X124316812Y-152932755D01*
X124333425Y-152870755D01*
X124425339Y-152711556D01*
X124484354Y-152529928D01*
X124504316Y-152340000D01*
X124484354Y-152150072D01*
X124425339Y-151968444D01*
X124333422Y-151809241D01*
X124316812Y-151747246D01*
X124316811Y-151594331D01*
X124322881Y-151556014D01*
X124344354Y-151489928D01*
X124364316Y-151300000D01*
X124344354Y-151110072D01*
X124322881Y-151043985D01*
X124316812Y-151005667D01*
X124316812Y-148197842D01*
X124336497Y-148130803D01*
X124389301Y-148085048D01*
X124458459Y-148075104D01*
X124491248Y-148084563D01*
X124554560Y-148112751D01*
X124741359Y-148152457D01*
X124741361Y-148152457D01*
X124932337Y-148152457D01*
X125119133Y-148112752D01*
X125119134Y-148112751D01*
X125119136Y-148112751D01*
X125293600Y-148035075D01*
X125448101Y-147922823D01*
X125575888Y-147780901D01*
X125671375Y-147615513D01*
X125730390Y-147433885D01*
X125750352Y-147243957D01*
X125730390Y-147054029D01*
X125719599Y-147020817D01*
X125717604Y-146950976D01*
X125753685Y-146891144D01*
X125816386Y-146860316D01*
X125837530Y-146858500D01*
X126035489Y-146858500D01*
X126222285Y-146818795D01*
X126222286Y-146818794D01*
X126222288Y-146818794D01*
X126396752Y-146741118D01*
X126453926Y-146699578D01*
X126519730Y-146676098D01*
X126587784Y-146691922D01*
X126636480Y-146742027D01*
X126650811Y-146799896D01*
X126650811Y-147459999D01*
X126650812Y-147460000D01*
X127650812Y-147460000D01*
X127650812Y-147960000D01*
X126650812Y-147960000D01*
X126650812Y-149954518D01*
X126651166Y-149961132D01*
X126657212Y-150017371D01*
X126707459Y-150152089D01*
X126793623Y-150267188D01*
X126908722Y-150353352D01*
X127043440Y-150403599D01*
X127099679Y-150409645D01*
X127106294Y-150410000D01*
X127800812Y-150410000D01*
X127800812Y-149325686D01*
X127812767Y-149337641D01*
X127925664Y-149395165D01*
X128050812Y-149414986D01*
X128175960Y-149395165D01*
X128288857Y-149337641D01*
X128300811Y-149325686D01*
X128300811Y-150410000D01*
X128995330Y-150410000D01*
X129001944Y-150409645D01*
X129058183Y-150403599D01*
X129192901Y-150353352D01*
X129308000Y-150267188D01*
X129394164Y-150152089D01*
X129444411Y-150017371D01*
X129450457Y-149961132D01*
X129450812Y-149954518D01*
X129450812Y-147960000D01*
X128450812Y-147960000D01*
X128450812Y-147460000D01*
X129450812Y-147460000D01*
X129450812Y-145465481D01*
X129450457Y-145458867D01*
X129444411Y-145402628D01*
X129394164Y-145267910D01*
X129308000Y-145152811D01*
X129192901Y-145066647D01*
X129058183Y-145016400D01*
X129001944Y-145010354D01*
X128995330Y-145010000D01*
X128300812Y-145010000D01*
X128300811Y-146094313D01*
X128288857Y-146082359D01*
X128175960Y-146024835D01*
X128050812Y-146005014D01*
X127925664Y-146024835D01*
X127812767Y-146082359D01*
X127800812Y-146094314D01*
X127800812Y-145010000D01*
X127106294Y-145010000D01*
X127099679Y-145010354D01*
X127043440Y-145016400D01*
X126908722Y-145066647D01*
X126793621Y-145152811D01*
X126724122Y-145245650D01*
X126668188Y-145287520D01*
X126598496Y-145292504D01*
X126551970Y-145271656D01*
X126551255Y-145271137D01*
X126551253Y-145271134D01*
X126396752Y-145158882D01*
X126396751Y-145158881D01*
X126222285Y-145081204D01*
X126035489Y-145041500D01*
X126035487Y-145041500D01*
X125844513Y-145041500D01*
X125844511Y-145041500D01*
X125657714Y-145081204D01*
X125483248Y-145158881D01*
X125328748Y-145271133D01*
X125200957Y-145413058D01*
X125105472Y-145578443D01*
X125046458Y-145760070D01*
X125046457Y-145760072D01*
X125046458Y-145760072D01*
X125026496Y-145950000D01*
X125046458Y-146139928D01*
X125046459Y-146139931D01*
X125057249Y-146173140D01*
X125059244Y-146242981D01*
X125023163Y-146302813D01*
X124960462Y-146333641D01*
X124939318Y-146335457D01*
X124741359Y-146335457D01*
X124554561Y-146375161D01*
X124491247Y-146403351D01*
X124421996Y-146412635D01*
X124358720Y-146383006D01*
X124321507Y-146323871D01*
X124316812Y-146290071D01*
X124316812Y-144566488D01*
X124336497Y-144499449D01*
X124389301Y-144453694D01*
X124458459Y-144443750D01*
X124522015Y-144472775D01*
X124532957Y-144483511D01*
X124578747Y-144534366D01*
X124733248Y-144646618D01*
X124907714Y-144724295D01*
X125094511Y-144764000D01*
X125094513Y-144764000D01*
X125285489Y-144764000D01*
X125472285Y-144724295D01*
X125472286Y-144724294D01*
X125472288Y-144724294D01*
X125646752Y-144646618D01*
X125801253Y-144534366D01*
X125929040Y-144392444D01*
X126024527Y-144227056D01*
X126083542Y-144045428D01*
X126103504Y-143855500D01*
X126083542Y-143665572D01*
X126024527Y-143483944D01*
X126024527Y-143483943D01*
X125929042Y-143318558D01*
X125847038Y-143227484D01*
X125801253Y-143176634D01*
X125646752Y-143064382D01*
X125646751Y-143064381D01*
X125472285Y-142986704D01*
X125285489Y-142947000D01*
X125285487Y-142947000D01*
X125094513Y-142947000D01*
X125094511Y-142947000D01*
X124907714Y-142986704D01*
X124733248Y-143064381D01*
X124669772Y-143110500D01*
X124578747Y-143176634D01*
X124578745Y-143176635D01*
X124578745Y-143176636D01*
X124532961Y-143227484D01*
X124473474Y-143264132D01*
X124403617Y-143262801D01*
X124345569Y-143223914D01*
X124317760Y-143159817D01*
X124316812Y-143144511D01*
X124316812Y-142811000D01*
X124336497Y-142743961D01*
X124389301Y-142698206D01*
X124440812Y-142687000D01*
X128418476Y-142687000D01*
X128485515Y-142706685D01*
G37*
G04 #@! TD.AperFunction*
G04 #@! TA.AperFunction,Conductor*
G36*
X75040812Y-153990000D02*
G01*
X69960812Y-153990000D01*
X69561373Y-156713442D01*
X69478285Y-156775642D01*
X69390657Y-156892700D01*
X69339558Y-157029698D01*
X69333400Y-157086979D01*
X69333047Y-157090266D01*
X69333047Y-158270218D01*
X69029479Y-160340000D01*
X68687833Y-160340000D01*
X68620794Y-160320315D01*
X68575039Y-160267511D01*
X68563833Y-160216024D01*
X68559538Y-138152730D01*
X68579210Y-138085689D01*
X68632005Y-138039924D01*
X68701161Y-138029967D01*
X68764722Y-138058979D01*
X68800059Y-138110296D01*
X68811035Y-138140451D01*
X68812655Y-138143678D01*
X68812660Y-138143688D01*
X68936137Y-138389550D01*
X68967899Y-138452793D01*
X68969879Y-138455804D01*
X68969884Y-138455812D01*
X69157978Y-138741793D01*
X69159963Y-138744811D01*
X69162277Y-138747569D01*
X69162278Y-138747570D01*
X69382310Y-139009795D01*
X69382315Y-139009800D01*
X69384629Y-139012558D01*
X69638859Y-139252412D01*
X69641743Y-139254559D01*
X69641749Y-139254564D01*
X69813147Y-139382164D01*
X69919216Y-139461130D01*
X69922343Y-139462935D01*
X69922347Y-139462938D01*
X70102494Y-139566945D01*
X70221908Y-139635889D01*
X70542841Y-139774326D01*
X70877676Y-139874569D01*
X71221885Y-139935262D01*
X71483507Y-139950500D01*
X71485297Y-139950500D01*
X71656327Y-139950500D01*
X71658117Y-139950500D01*
X71919739Y-139935262D01*
X72263948Y-139874569D01*
X72598783Y-139774326D01*
X72919716Y-139635889D01*
X73222408Y-139461130D01*
X73502765Y-139252412D01*
X73756995Y-139012558D01*
X73981661Y-138744811D01*
X74173725Y-138452793D01*
X74330589Y-138140451D01*
X74450131Y-137812011D01*
X74528819Y-137480000D01*
X75040812Y-137480000D01*
X75040812Y-153990000D01*
G37*
G04 #@! TD.AperFunction*
G04 #@! TA.AperFunction,Conductor*
G36*
X136352151Y-162518685D02*
G01*
X136397906Y-162571489D01*
X136407850Y-162640647D01*
X136399186Y-162665683D01*
X136400312Y-162666049D01*
X136337270Y-162860070D01*
X136317308Y-163050000D01*
X136337270Y-163239929D01*
X136396284Y-163421556D01*
X136491769Y-163586941D01*
X136503668Y-163600156D01*
X136619559Y-163728866D01*
X136760050Y-163830939D01*
X136774060Y-163841118D01*
X136948526Y-163918795D01*
X137135323Y-163958500D01*
X137146812Y-163958500D01*
X137213851Y-163978185D01*
X137259606Y-164030989D01*
X137270812Y-164082500D01*
X137270812Y-168196032D01*
X137251127Y-168263071D01*
X137198323Y-168308826D01*
X137129165Y-168318770D01*
X137073928Y-168296351D01*
X136959085Y-168212912D01*
X136935164Y-168195532D01*
X136760698Y-168117855D01*
X136595014Y-168082638D01*
X136533532Y-168049445D01*
X136499756Y-167988282D01*
X136504408Y-167918568D01*
X136542129Y-167865497D01*
X136577380Y-167836568D01*
X136703407Y-167683004D01*
X136797053Y-167507804D01*
X136854720Y-167317701D01*
X136874192Y-167120000D01*
X136854720Y-166922299D01*
X136797053Y-166732196D01*
X136703407Y-166556996D01*
X136577380Y-166403432D01*
X136423816Y-166277405D01*
X136423815Y-166277404D01*
X136334055Y-166229427D01*
X136284211Y-166180465D01*
X136268750Y-166112328D01*
X136292581Y-166046648D01*
X136294133Y-166044582D01*
X136321039Y-166009517D01*
X136343510Y-165980233D01*
X136401499Y-165840236D01*
X136421278Y-165690000D01*
X136401499Y-165539764D01*
X136343510Y-165399767D01*
X136251263Y-165279549D01*
X136131045Y-165187302D01*
X135991048Y-165129313D01*
X135925231Y-165120648D01*
X135882551Y-165115029D01*
X135882549Y-165115028D01*
X135878532Y-165114500D01*
X135803092Y-165114500D01*
X135799075Y-165115028D01*
X135799072Y-165115029D01*
X135690576Y-165129313D01*
X135550580Y-165187301D01*
X135430361Y-165279549D01*
X135338113Y-165399768D01*
X135280124Y-165539764D01*
X135260345Y-165690000D01*
X135280124Y-165840235D01*
X135321468Y-165940047D01*
X135328937Y-166009517D01*
X135297662Y-166071996D01*
X135237573Y-166107648D01*
X135206907Y-166111500D01*
X134711265Y-166111500D01*
X134708248Y-166111797D01*
X134708230Y-166111798D01*
X134563113Y-166126091D01*
X134499743Y-166145314D01*
X134373008Y-166183759D01*
X134373004Y-166183760D01*
X134373004Y-166183761D01*
X134197808Y-166277404D01*
X134044243Y-166403433D01*
X133988341Y-166471549D01*
X133930595Y-166510883D01*
X133860751Y-166512752D01*
X133800983Y-166476564D01*
X133800451Y-166475979D01*
X133742065Y-166411134D01*
X133587564Y-166298882D01*
X133587563Y-166298881D01*
X133413097Y-166221204D01*
X133226301Y-166181500D01*
X133226299Y-166181500D01*
X133035325Y-166181500D01*
X133035323Y-166181500D01*
X132848526Y-166221204D01*
X132674060Y-166298881D01*
X132519560Y-166411133D01*
X132391769Y-166553058D01*
X132296284Y-166718443D01*
X132237270Y-166900070D01*
X132217308Y-167090000D01*
X132237747Y-167284466D01*
X132225177Y-167353196D01*
X132177445Y-167404219D01*
X132109705Y-167421337D01*
X132043464Y-167399114D01*
X132007039Y-167359427D01*
X131939854Y-167243058D01*
X131878413Y-167174821D01*
X131812065Y-167101134D01*
X131657564Y-166988882D01*
X131657563Y-166988881D01*
X131483097Y-166911204D01*
X131296301Y-166871500D01*
X131296299Y-166871500D01*
X131105325Y-166871500D01*
X131105323Y-166871500D01*
X130918526Y-166911204D01*
X130744060Y-166988881D01*
X130589560Y-167101133D01*
X130461769Y-167243058D01*
X130366284Y-167408443D01*
X130307270Y-167590070D01*
X130287308Y-167780000D01*
X130307270Y-167969929D01*
X130366284Y-168151556D01*
X130461769Y-168316941D01*
X130461772Y-168316944D01*
X130589559Y-168458866D01*
X130689126Y-168531206D01*
X130744060Y-168571118D01*
X130918526Y-168648795D01*
X131105323Y-168688500D01*
X131105325Y-168688500D01*
X131296301Y-168688500D01*
X131483097Y-168648795D01*
X131483098Y-168648794D01*
X131483100Y-168648794D01*
X131657564Y-168571118D01*
X131812065Y-168458866D01*
X131939852Y-168316944D01*
X132035339Y-168151556D01*
X132094354Y-167969928D01*
X132114316Y-167780000D01*
X132094354Y-167590072D01*
X132094352Y-167590067D01*
X132093876Y-167585534D01*
X132106445Y-167516804D01*
X132154177Y-167465780D01*
X132221918Y-167448662D01*
X132288159Y-167470884D01*
X132324584Y-167510572D01*
X132391769Y-167626941D01*
X132391772Y-167626944D01*
X132519559Y-167768866D01*
X132674060Y-167881118D01*
X132848526Y-167958795D01*
X133035323Y-167998500D01*
X133035325Y-167998500D01*
X133226301Y-167998500D01*
X133413097Y-167958795D01*
X133413098Y-167958794D01*
X133413100Y-167958794D01*
X133587564Y-167881118D01*
X133742065Y-167768866D01*
X133774580Y-167732753D01*
X133834063Y-167696107D01*
X133903920Y-167697436D01*
X133961969Y-167736322D01*
X133962581Y-167737062D01*
X134044244Y-167836568D01*
X134197808Y-167962595D01*
X134373008Y-168056241D01*
X134552873Y-168110802D01*
X134611312Y-168149100D01*
X134639768Y-168212912D01*
X134629208Y-168281979D01*
X134609029Y-168312434D01*
X134585959Y-168338055D01*
X134490472Y-168503443D01*
X134431458Y-168685070D01*
X134411496Y-168874999D01*
X134431458Y-169064929D01*
X134490472Y-169246556D01*
X134585957Y-169411941D01*
X134615355Y-169444591D01*
X134713747Y-169553866D01*
X134857763Y-169658500D01*
X134868248Y-169666118D01*
X135042714Y-169743795D01*
X135223810Y-169782288D01*
X135285292Y-169815480D01*
X135319068Y-169876643D01*
X135321350Y-169916538D01*
X135317308Y-169954998D01*
X135337270Y-170144929D01*
X135396284Y-170326556D01*
X135491771Y-170491943D01*
X135499026Y-170500000D01*
X115680812Y-170500000D01*
X115680812Y-169666585D01*
X115700497Y-169599546D01*
X115753301Y-169553791D01*
X115754197Y-169553385D01*
X115781752Y-169541118D01*
X115936253Y-169428866D01*
X115962244Y-169400000D01*
X125061496Y-169400000D01*
X125081458Y-169589929D01*
X125140472Y-169771556D01*
X125235957Y-169936941D01*
X125235960Y-169936944D01*
X125363747Y-170078866D01*
X125454675Y-170144929D01*
X125518248Y-170191118D01*
X125692714Y-170268795D01*
X125879511Y-170308500D01*
X125879513Y-170308500D01*
X126070489Y-170308500D01*
X126257285Y-170268795D01*
X126257286Y-170268794D01*
X126257288Y-170268794D01*
X126431752Y-170191118D01*
X126586253Y-170078866D01*
X126714040Y-169936944D01*
X126725822Y-169916538D01*
X126809527Y-169771556D01*
X126846261Y-169658500D01*
X126868542Y-169589928D01*
X126888504Y-169400000D01*
X126868542Y-169210072D01*
X126821382Y-169064929D01*
X126809527Y-169028443D01*
X126714042Y-168863058D01*
X126694442Y-168841291D01*
X126586253Y-168721134D01*
X126486686Y-168648794D01*
X126431751Y-168608881D01*
X126257285Y-168531204D01*
X126070489Y-168491500D01*
X126070487Y-168491500D01*
X125879513Y-168491500D01*
X125879511Y-168491500D01*
X125692714Y-168531204D01*
X125518248Y-168608881D01*
X125363748Y-168721133D01*
X125235957Y-168863058D01*
X125140472Y-169028443D01*
X125081458Y-169210070D01*
X125061496Y-169400000D01*
X115962244Y-169400000D01*
X116064040Y-169286944D01*
X116159527Y-169121556D01*
X116218542Y-168939928D01*
X116238504Y-168750000D01*
X116218542Y-168560072D01*
X116159527Y-168378444D01*
X116159527Y-168378443D01*
X116064042Y-168213058D01*
X116008665Y-168151556D01*
X115936253Y-168071134D01*
X115781752Y-167958882D01*
X115781554Y-167958794D01*
X115754375Y-167946693D01*
X115701139Y-167901442D01*
X115680818Y-167834593D01*
X115680812Y-167833414D01*
X115680812Y-167241860D01*
X115700497Y-167174821D01*
X115717131Y-167154179D01*
X115751310Y-167120000D01*
X115807010Y-167064300D01*
X115938335Y-166876749D01*
X116035096Y-166669243D01*
X116094355Y-166448087D01*
X116114310Y-166220000D01*
X116094355Y-165991913D01*
X116035096Y-165770757D01*
X115938335Y-165563251D01*
X115807010Y-165375700D01*
X115717131Y-165285821D01*
X115683646Y-165224498D01*
X115680812Y-165198140D01*
X115680812Y-165098676D01*
X115700497Y-165031637D01*
X115753301Y-164985882D01*
X115822459Y-164975938D01*
X115879121Y-164999408D01*
X115974608Y-165070889D01*
X115974609Y-165070889D01*
X115974610Y-165070890D01*
X116111606Y-165121988D01*
X116111609Y-165121988D01*
X116111611Y-165121989D01*
X116172174Y-165128500D01*
X116376127Y-165128500D01*
X116420098Y-165136558D01*
X116422024Y-165137288D01*
X116422025Y-165137289D01*
X116649755Y-165223656D01*
X116888391Y-165272374D01*
X116969510Y-165275643D01*
X117131747Y-165282181D01*
X117131747Y-165282180D01*
X117131751Y-165282181D01*
X117373532Y-165252823D01*
X117607474Y-165185061D01*
X117701443Y-165140471D01*
X117754601Y-165128500D01*
X117966140Y-165128500D01*
X117969450Y-165128500D01*
X118030013Y-165121989D01*
X118030015Y-165121988D01*
X118030017Y-165121988D01*
X118107936Y-165092924D01*
X118167016Y-165070889D01*
X118284073Y-164983261D01*
X118371701Y-164866204D01*
X118420035Y-164736615D01*
X118461905Y-164680686D01*
X118527369Y-164656269D01*
X118595642Y-164671121D01*
X118623896Y-164692272D01*
X118739730Y-164808106D01*
X118933235Y-164943600D01*
X119147321Y-165043430D01*
X119360812Y-165100634D01*
X119360812Y-164205501D01*
X119468497Y-164254680D01*
X119575049Y-164270000D01*
X119646575Y-164270000D01*
X119753127Y-164254680D01*
X119860811Y-164205501D01*
X119860811Y-165100633D01*
X120074303Y-165043430D01*
X120288388Y-164943600D01*
X120481893Y-164808106D01*
X120648920Y-164641079D01*
X120682678Y-164592868D01*
X120737254Y-164549243D01*
X120806752Y-164542049D01*
X120869107Y-164573571D01*
X120886301Y-164593547D01*
X120978519Y-164727148D01*
X121147237Y-164902802D01*
X121151767Y-164906206D01*
X121254308Y-164983261D01*
X121341947Y-165049117D01*
X121557607Y-165162304D01*
X121788630Y-165239431D01*
X121937694Y-165263656D01*
X122029032Y-165278500D01*
X122029033Y-165278500D01*
X125521641Y-165278500D01*
X125548885Y-165281530D01*
X125551776Y-165282181D01*
X125668175Y-165308396D01*
X125911288Y-165323102D01*
X126153611Y-165298618D01*
X126388870Y-165235581D01*
X126496143Y-165187302D01*
X126513648Y-165179424D01*
X126564538Y-165168500D01*
X126776140Y-165168500D01*
X126779450Y-165168500D01*
X126840013Y-165161989D01*
X126840015Y-165161988D01*
X126840017Y-165161988D01*
X126927620Y-165129313D01*
X126977016Y-165110889D01*
X127094073Y-165023261D01*
X127181701Y-164906204D01*
X127230035Y-164776615D01*
X127271905Y-164720686D01*
X127337369Y-164696269D01*
X127405642Y-164711121D01*
X127433896Y-164732272D01*
X127549730Y-164848106D01*
X127743235Y-164983600D01*
X127957321Y-165083430D01*
X128170811Y-165140633D01*
X128170811Y-164245501D01*
X128278497Y-164294680D01*
X128385049Y-164310000D01*
X128456575Y-164310000D01*
X128563127Y-164294680D01*
X128670811Y-164245501D01*
X128670812Y-165140633D01*
X128884302Y-165083430D01*
X129098388Y-164983600D01*
X129291893Y-164848106D01*
X129458920Y-164681079D01*
X129492871Y-164632593D01*
X129547448Y-164588968D01*
X129616946Y-164581774D01*
X129679301Y-164613297D01*
X129699243Y-164637434D01*
X129750929Y-164719168D01*
X129912437Y-164901474D01*
X129912439Y-164901476D01*
X130013024Y-164983600D01*
X130101098Y-165055510D01*
X130312025Y-165177289D01*
X130539755Y-165263656D01*
X130778391Y-165312374D01*
X130859511Y-165315643D01*
X131021747Y-165322181D01*
X131021747Y-165322180D01*
X131021751Y-165322181D01*
X131263532Y-165292823D01*
X131497474Y-165225061D01*
X131717516Y-165120650D01*
X131917960Y-164982293D01*
X132093614Y-164813575D01*
X132239929Y-164618865D01*
X132353116Y-164403205D01*
X132430243Y-164172182D01*
X132464379Y-163962131D01*
X132469312Y-163931780D01*
X132469312Y-162623000D01*
X132488997Y-162555961D01*
X132541801Y-162510206D01*
X132593312Y-162499000D01*
X136285112Y-162499000D01*
X136352151Y-162518685D01*
G37*
G04 #@! TD.AperFunction*
G04 #@! TA.AperFunction,Conductor*
G36*
X104818107Y-138625710D02*
G01*
X104925324Y-138648500D01*
X104925325Y-138648500D01*
X105116300Y-138648500D01*
X105223517Y-138625710D01*
X105249298Y-138623000D01*
X105547489Y-138623000D01*
X105614528Y-138642685D01*
X105660283Y-138695489D01*
X105670809Y-138734033D01*
X105671745Y-138742947D01*
X105671917Y-138744576D01*
X105730931Y-138926203D01*
X105826416Y-139091588D01*
X105826419Y-139091591D01*
X105954206Y-139233513D01*
X106034095Y-139291556D01*
X106108707Y-139345765D01*
X106283173Y-139423442D01*
X106469970Y-139463147D01*
X106469972Y-139463147D01*
X106660948Y-139463147D01*
X106847744Y-139423442D01*
X106847745Y-139423441D01*
X106847747Y-139423441D01*
X107022211Y-139345765D01*
X107176712Y-139233513D01*
X107304499Y-139091591D01*
X107340335Y-139029520D01*
X107390901Y-138981306D01*
X107459508Y-138968082D01*
X107524373Y-138994050D01*
X107555109Y-139029521D01*
X107651769Y-139196940D01*
X107651770Y-139196942D01*
X107651772Y-139196944D01*
X107779559Y-139338866D01*
X107934059Y-139451117D01*
X107934060Y-139451118D01*
X108108526Y-139528795D01*
X108295323Y-139568500D01*
X108295325Y-139568500D01*
X108486301Y-139568500D01*
X108673097Y-139528795D01*
X108673098Y-139528794D01*
X108673100Y-139528794D01*
X108847564Y-139451118D01*
X109002065Y-139338866D01*
X109129852Y-139196944D01*
X109222444Y-139036569D01*
X109273010Y-138988354D01*
X109341617Y-138975130D01*
X109406482Y-139001098D01*
X109447011Y-139058012D01*
X109453152Y-139085607D01*
X109467270Y-139219929D01*
X109526284Y-139401556D01*
X109621769Y-139566941D01*
X109621772Y-139566944D01*
X109749559Y-139708866D01*
X109879327Y-139803148D01*
X109904060Y-139821118D01*
X110078526Y-139898795D01*
X110265323Y-139938500D01*
X110265325Y-139938500D01*
X110456301Y-139938500D01*
X110643097Y-139898795D01*
X110643098Y-139898794D01*
X110643100Y-139898794D01*
X110817564Y-139821118D01*
X110972065Y-139708866D01*
X111099852Y-139566944D01*
X111099854Y-139566941D01*
X111201856Y-139390269D01*
X111204011Y-139391513D01*
X111233134Y-139348915D01*
X111297491Y-139321711D01*
X111366338Y-139333620D01*
X111417818Y-139380860D01*
X111419023Y-139382902D01*
X111461769Y-139456941D01*
X111461772Y-139456944D01*
X111589559Y-139598866D01*
X111713407Y-139688847D01*
X111744060Y-139711118D01*
X111918526Y-139788795D01*
X112105323Y-139828500D01*
X112105325Y-139828500D01*
X112296300Y-139828500D01*
X112415570Y-139803148D01*
X112485237Y-139808464D01*
X112540970Y-139850601D01*
X112559282Y-139886120D01*
X112616284Y-140061556D01*
X112711769Y-140226941D01*
X112711772Y-140226944D01*
X112839559Y-140368866D01*
X112971972Y-140465070D01*
X112994060Y-140481118D01*
X113168526Y-140558795D01*
X113355323Y-140598500D01*
X113355325Y-140598500D01*
X113546301Y-140598500D01*
X113733097Y-140558795D01*
X113733098Y-140558794D01*
X113733100Y-140558794D01*
X113907564Y-140481118D01*
X114059899Y-140370439D01*
X114125704Y-140346959D01*
X114193758Y-140362784D01*
X114224934Y-140387784D01*
X114245449Y-140410569D01*
X114397627Y-140521133D01*
X114399950Y-140522821D01*
X114574416Y-140600498D01*
X114761213Y-140640203D01*
X114761215Y-140640203D01*
X114952191Y-140640203D01*
X115138987Y-140600498D01*
X115138988Y-140600497D01*
X115138990Y-140600497D01*
X115313454Y-140522821D01*
X115467955Y-140410569D01*
X115595742Y-140268647D01*
X115691229Y-140103259D01*
X115750244Y-139921631D01*
X115770206Y-139731703D01*
X115750244Y-139541775D01*
X115701421Y-139391513D01*
X115691229Y-139360146D01*
X115595744Y-139194761D01*
X115540871Y-139133819D01*
X115467955Y-139052837D01*
X115313454Y-138940585D01*
X115313453Y-138940584D01*
X115133085Y-138860280D01*
X115079848Y-138815030D01*
X115059526Y-138748181D01*
X115078571Y-138680957D01*
X115130937Y-138634701D01*
X115183520Y-138623000D01*
X117970631Y-138623000D01*
X118037670Y-138642685D01*
X118083425Y-138695489D01*
X118094627Y-138746177D01*
X118095639Y-138898881D01*
X118100425Y-139621679D01*
X118081185Y-139688847D01*
X118028685Y-139734951D01*
X117976428Y-139746500D01*
X117920323Y-139746500D01*
X117733526Y-139786204D01*
X117559060Y-139863881D01*
X117404560Y-139976133D01*
X117276769Y-140118058D01*
X117181284Y-140283443D01*
X117122270Y-140465070D01*
X117102308Y-140655000D01*
X117122270Y-140844929D01*
X117181284Y-141026556D01*
X117276771Y-141191943D01*
X117404771Y-141334101D01*
X117435001Y-141397092D01*
X117426376Y-141466427D01*
X117381635Y-141520093D01*
X117363057Y-141530352D01*
X117254062Y-141578879D01*
X117099560Y-141691133D01*
X116971769Y-141833058D01*
X116876284Y-141998443D01*
X116817270Y-142180070D01*
X116797308Y-142370000D01*
X116817270Y-142559929D01*
X116876284Y-142741556D01*
X116971771Y-142906943D01*
X117068805Y-143014710D01*
X117099035Y-143077701D01*
X117094586Y-143135999D01*
X117089304Y-143152257D01*
X117067270Y-143220072D01*
X117059599Y-143293058D01*
X117047308Y-143410000D01*
X117067270Y-143599929D01*
X117126284Y-143781556D01*
X117221769Y-143946941D01*
X117221772Y-143946944D01*
X117349559Y-144088866D01*
X117504059Y-144201117D01*
X117504060Y-144201118D01*
X117678526Y-144278795D01*
X117865323Y-144318500D01*
X118008349Y-144318500D01*
X118075388Y-144338185D01*
X118121143Y-144390989D01*
X118132346Y-144441679D01*
X118142238Y-145935463D01*
X118122998Y-146002631D01*
X118070498Y-146048735D01*
X118068679Y-146049562D01*
X118035844Y-146064182D01*
X118034531Y-146061233D01*
X117988317Y-146077711D01*
X117920266Y-146061872D01*
X117873877Y-146015912D01*
X117779854Y-145853058D01*
X117760254Y-145831291D01*
X117652065Y-145711134D01*
X117497564Y-145598882D01*
X117497563Y-145598881D01*
X117323097Y-145521204D01*
X117136301Y-145481500D01*
X117136299Y-145481500D01*
X116945325Y-145481500D01*
X116945323Y-145481500D01*
X116758526Y-145521204D01*
X116584060Y-145598881D01*
X116429560Y-145711133D01*
X116301769Y-145853058D01*
X116206284Y-146018443D01*
X116147270Y-146200070D01*
X116127308Y-146389999D01*
X116147270Y-146579929D01*
X116206284Y-146761556D01*
X116301769Y-146926941D01*
X116301772Y-146926944D01*
X116429559Y-147068866D01*
X116576764Y-147175817D01*
X116584060Y-147181118D01*
X116758526Y-147258795D01*
X116945323Y-147298500D01*
X116945325Y-147298500D01*
X117136301Y-147298500D01*
X117323097Y-147258795D01*
X117323098Y-147258794D01*
X117323100Y-147258794D01*
X117455316Y-147199928D01*
X117509471Y-147175817D01*
X117510785Y-147178770D01*
X117556941Y-147162291D01*
X117624998Y-147178101D01*
X117671434Y-147224087D01*
X117765457Y-147386941D01*
X117765460Y-147386944D01*
X117893247Y-147528866D01*
X118047748Y-147641118D01*
X118080814Y-147655839D01*
X118134050Y-147701088D01*
X118154373Y-147767937D01*
X118154376Y-147768298D01*
X118169641Y-150073313D01*
X118150401Y-150140481D01*
X118097901Y-150186585D01*
X118028810Y-150196986D01*
X117972758Y-150174452D01*
X117937563Y-150148881D01*
X117763097Y-150071204D01*
X117576301Y-150031500D01*
X117576299Y-150031500D01*
X117385325Y-150031500D01*
X117385323Y-150031500D01*
X117198526Y-150071204D01*
X117024060Y-150148881D01*
X116869560Y-150261133D01*
X116741769Y-150403058D01*
X116646284Y-150568443D01*
X116587270Y-150750070D01*
X116567308Y-150939999D01*
X116587270Y-151129929D01*
X116646284Y-151311556D01*
X116741769Y-151476941D01*
X116741772Y-151476944D01*
X116869559Y-151618866D01*
X116955844Y-151681556D01*
X117024060Y-151731118D01*
X117198526Y-151808795D01*
X117385323Y-151848500D01*
X117385325Y-151848500D01*
X117576301Y-151848500D01*
X117763097Y-151808795D01*
X117763098Y-151808794D01*
X117763100Y-151808794D01*
X117937564Y-151731118D01*
X117984172Y-151697254D01*
X118049978Y-151673775D01*
X118118032Y-151689600D01*
X118166727Y-151739705D01*
X118181055Y-151796752D01*
X118200244Y-154694412D01*
X118181004Y-154761580D01*
X118128504Y-154807684D01*
X118105152Y-154815481D01*
X117929060Y-154893881D01*
X117774560Y-155006133D01*
X117646769Y-155148058D01*
X117551284Y-155313443D01*
X117492270Y-155495070D01*
X117472308Y-155685000D01*
X117492270Y-155874929D01*
X117551284Y-156056556D01*
X117646769Y-156221941D01*
X117646772Y-156221944D01*
X117774559Y-156363866D01*
X117887769Y-156446118D01*
X117929060Y-156476118D01*
X118103523Y-156553794D01*
X118107499Y-156554639D01*
X118115152Y-156556265D01*
X118176634Y-156589455D01*
X118210413Y-156650616D01*
X118213372Y-156676735D01*
X118217412Y-157286679D01*
X118198172Y-157353847D01*
X118145672Y-157399951D01*
X118093415Y-157411500D01*
X117915323Y-157411500D01*
X117728526Y-157451204D01*
X117554060Y-157528881D01*
X117399560Y-157641133D01*
X117399559Y-157641134D01*
X117293455Y-157758973D01*
X117233970Y-157795621D01*
X117201307Y-157800000D01*
X116950812Y-157800000D01*
X116950812Y-159955294D01*
X116931127Y-160022333D01*
X116914493Y-160042975D01*
X116653788Y-160303681D01*
X116592465Y-160337166D01*
X116566107Y-160340000D01*
X114410812Y-160340000D01*
X114410812Y-163518000D01*
X114391127Y-163585039D01*
X114338323Y-163630794D01*
X114286812Y-163642000D01*
X113884971Y-163642000D01*
X113852877Y-163637775D01*
X113793490Y-163621862D01*
X113565406Y-163601907D01*
X113337321Y-163621862D01*
X113277935Y-163637775D01*
X113245841Y-163642000D01*
X103535501Y-163642000D01*
X103485066Y-163631280D01*
X103406285Y-163596204D01*
X103219489Y-163556500D01*
X103219487Y-163556500D01*
X103028513Y-163556500D01*
X103028511Y-163556500D01*
X102841714Y-163596204D01*
X102762934Y-163631280D01*
X102712499Y-163642000D01*
X98474771Y-163642000D01*
X98407732Y-163622315D01*
X98367384Y-163580000D01*
X98275042Y-163420058D01*
X98255442Y-163398291D01*
X98147253Y-163278134D01*
X98087909Y-163235018D01*
X97992753Y-163165882D01*
X97971336Y-163156347D01*
X97918099Y-163111096D01*
X97897778Y-163044247D01*
X97897777Y-163044119D01*
X97891073Y-161723437D01*
X97910416Y-161656303D01*
X97962987Y-161610281D01*
X98032094Y-161599986D01*
X98095796Y-161628688D01*
X98122456Y-161660810D01*
X98131769Y-161676940D01*
X98131770Y-161676941D01*
X98131772Y-161676944D01*
X98259559Y-161818866D01*
X98414059Y-161931118D01*
X98414060Y-161931118D01*
X98588526Y-162008795D01*
X98775323Y-162048500D01*
X98775325Y-162048500D01*
X98966301Y-162048500D01*
X99153097Y-162008795D01*
X99153098Y-162008794D01*
X99153100Y-162008794D01*
X99327564Y-161931118D01*
X99482065Y-161818866D01*
X99609852Y-161676944D01*
X99609855Y-161676940D01*
X99705339Y-161511556D01*
X99714438Y-161483553D01*
X99764354Y-161329928D01*
X99784316Y-161140000D01*
X99781373Y-161112000D01*
X100217308Y-161112000D01*
X100237270Y-161301929D01*
X100296284Y-161483556D01*
X100365017Y-161602603D01*
X100381490Y-161670503D01*
X100365018Y-161726602D01*
X100335525Y-161777685D01*
X100276511Y-161959311D01*
X100256549Y-162149240D01*
X100276511Y-162339170D01*
X100335525Y-162520797D01*
X100431010Y-162686182D01*
X100431013Y-162686185D01*
X100558800Y-162828107D01*
X100713300Y-162940359D01*
X100713301Y-162940359D01*
X100887767Y-163018036D01*
X101074564Y-163057741D01*
X101074566Y-163057741D01*
X101265542Y-163057741D01*
X101452338Y-163018036D01*
X101452339Y-163018035D01*
X101452341Y-163018035D01*
X101626805Y-162940359D01*
X101781306Y-162828107D01*
X101909093Y-162686185D01*
X102004580Y-162520797D01*
X102063595Y-162339169D01*
X102077171Y-162210000D01*
X110147308Y-162210000D01*
X110167270Y-162399929D01*
X110226284Y-162581556D01*
X110321769Y-162746941D01*
X110321772Y-162746944D01*
X110449559Y-162888866D01*
X110520433Y-162940359D01*
X110604060Y-163001118D01*
X110778526Y-163078795D01*
X110965323Y-163118500D01*
X110965325Y-163118500D01*
X111156301Y-163118500D01*
X111343097Y-163078795D01*
X111343098Y-163078794D01*
X111343100Y-163078794D01*
X111517564Y-163001118D01*
X111672065Y-162888866D01*
X111799852Y-162746944D01*
X111895339Y-162581556D01*
X111954354Y-162399928D01*
X111974316Y-162210000D01*
X111966371Y-162134412D01*
X111978940Y-162065684D01*
X112026672Y-162014660D01*
X112039242Y-162008179D01*
X112077564Y-161991118D01*
X112232065Y-161878866D01*
X112359852Y-161736944D01*
X112362113Y-161733029D01*
X112455339Y-161571556D01*
X112504946Y-161418882D01*
X112514354Y-161389928D01*
X112534316Y-161200000D01*
X112514354Y-161010072D01*
X112455339Y-160828444D01*
X112455339Y-160828443D01*
X112359854Y-160663058D01*
X112310192Y-160607903D01*
X112232065Y-160521134D01*
X112077564Y-160408882D01*
X112077563Y-160408881D01*
X111903097Y-160331204D01*
X111716301Y-160291500D01*
X111716299Y-160291500D01*
X111525325Y-160291500D01*
X111525323Y-160291500D01*
X111338526Y-160331204D01*
X111164060Y-160408881D01*
X111009560Y-160521133D01*
X110881769Y-160663058D01*
X110786284Y-160828443D01*
X110727270Y-161010070D01*
X110707308Y-161200000D01*
X110715252Y-161275585D01*
X110702682Y-161344315D01*
X110654950Y-161395338D01*
X110642368Y-161401825D01*
X110604061Y-161418880D01*
X110449560Y-161531133D01*
X110321769Y-161673058D01*
X110226284Y-161838443D01*
X110167270Y-162020070D01*
X110147308Y-162210000D01*
X102077171Y-162210000D01*
X102083557Y-162149241D01*
X102063595Y-161959313D01*
X102004580Y-161777685D01*
X102004580Y-161777684D01*
X101935847Y-161658636D01*
X101919374Y-161590736D01*
X101935845Y-161534639D01*
X101965339Y-161483556D01*
X102024354Y-161301928D01*
X102044316Y-161112000D01*
X102024354Y-160922072D01*
X101965339Y-160740444D01*
X101965339Y-160740443D01*
X101869854Y-160575058D01*
X101821300Y-160521134D01*
X101742065Y-160433134D01*
X101587564Y-160320882D01*
X101587563Y-160320881D01*
X101413097Y-160243204D01*
X101226301Y-160203500D01*
X101226299Y-160203500D01*
X101035325Y-160203500D01*
X101035323Y-160203500D01*
X100848526Y-160243204D01*
X100674060Y-160320881D01*
X100519560Y-160433133D01*
X100391769Y-160575058D01*
X100296284Y-160740443D01*
X100237270Y-160922070D01*
X100217308Y-161112000D01*
X99781373Y-161112000D01*
X99764354Y-160950072D01*
X99705339Y-160768444D01*
X99705339Y-160768443D01*
X99609854Y-160603058D01*
X99590254Y-160581291D01*
X99482065Y-160461134D01*
X99327564Y-160348882D01*
X99327563Y-160348881D01*
X99153097Y-160271204D01*
X98966301Y-160231500D01*
X98966299Y-160231500D01*
X98775325Y-160231500D01*
X98775323Y-160231500D01*
X98588526Y-160271204D01*
X98414060Y-160348881D01*
X98259560Y-160461133D01*
X98131771Y-160603057D01*
X98116592Y-160629348D01*
X98066024Y-160677563D01*
X97997417Y-160690785D01*
X97932553Y-160664817D01*
X97892025Y-160607903D01*
X97885207Y-160567980D01*
X97875543Y-158664158D01*
X97894887Y-158597023D01*
X97947458Y-158551001D01*
X98016565Y-158540706D01*
X98072427Y-158563215D01*
X98214056Y-158666116D01*
X98388526Y-158743795D01*
X98575323Y-158783500D01*
X98575325Y-158783500D01*
X98766301Y-158783500D01*
X98953097Y-158743795D01*
X98953098Y-158743794D01*
X98953100Y-158743794D01*
X99127564Y-158666118D01*
X99282065Y-158553866D01*
X99409852Y-158411944D01*
X99448769Y-158344539D01*
X99456007Y-158332003D01*
X104050305Y-158332003D01*
X104070267Y-158521932D01*
X104129281Y-158703559D01*
X104224766Y-158868944D01*
X104224769Y-158868947D01*
X104352556Y-159010869D01*
X104490536Y-159111118D01*
X104507057Y-159123121D01*
X104681523Y-159200798D01*
X104868320Y-159240503D01*
X104868322Y-159240503D01*
X105059298Y-159240503D01*
X105246094Y-159200798D01*
X105246095Y-159200797D01*
X105246097Y-159200797D01*
X105420561Y-159123121D01*
X105575062Y-159010869D01*
X105702849Y-158868947D01*
X105798336Y-158703559D01*
X105857351Y-158521931D01*
X105877313Y-158332003D01*
X105857351Y-158142075D01*
X105798336Y-157960447D01*
X105798336Y-157960446D01*
X105702851Y-157795061D01*
X105603816Y-157685072D01*
X105575062Y-157653137D01*
X105420561Y-157540885D01*
X105420560Y-157540884D01*
X105246094Y-157463207D01*
X105059298Y-157423503D01*
X105059296Y-157423503D01*
X104868322Y-157423503D01*
X104868320Y-157423503D01*
X104681523Y-157463207D01*
X104507057Y-157540884D01*
X104352557Y-157653136D01*
X104224766Y-157795061D01*
X104129281Y-157960446D01*
X104070267Y-158142073D01*
X104050305Y-158332003D01*
X99456007Y-158332003D01*
X99505339Y-158246556D01*
X99539287Y-158142075D01*
X99564354Y-158064928D01*
X99584316Y-157875000D01*
X99564354Y-157685072D01*
X99533743Y-157590862D01*
X99505339Y-157503443D01*
X99409854Y-157338058D01*
X99358664Y-157281206D01*
X99282065Y-157196134D01*
X99127564Y-157083882D01*
X99127563Y-157083881D01*
X98953097Y-157006204D01*
X98766301Y-156966500D01*
X98766299Y-156966500D01*
X98575325Y-156966500D01*
X98575323Y-156966500D01*
X98388526Y-157006204D01*
X98214060Y-157083881D01*
X98064451Y-157192580D01*
X97998645Y-157216060D01*
X97930591Y-157200235D01*
X97881896Y-157150129D01*
X97867567Y-157092894D01*
X97843444Y-152340504D01*
X97862787Y-152273370D01*
X97915358Y-152227348D01*
X97984465Y-152217053D01*
X98017872Y-152226598D01*
X98122925Y-152273370D01*
X98184026Y-152300574D01*
X98370823Y-152340279D01*
X98370825Y-152340279D01*
X98561801Y-152340279D01*
X98748597Y-152300574D01*
X98748598Y-152300573D01*
X98748600Y-152300573D01*
X98923064Y-152222897D01*
X99077565Y-152110645D01*
X99205352Y-151968723D01*
X99224803Y-151935034D01*
X99259131Y-151875575D01*
X99309697Y-151827360D01*
X99378304Y-151814136D01*
X99443169Y-151840104D01*
X99458668Y-151854603D01*
X99579559Y-151988866D01*
X99734060Y-152101118D01*
X99908526Y-152178795D01*
X100095323Y-152218500D01*
X100095325Y-152218500D01*
X100286301Y-152218500D01*
X100473097Y-152178795D01*
X100473098Y-152178794D01*
X100473100Y-152178794D01*
X100647564Y-152101118D01*
X100802065Y-151988866D01*
X100911462Y-151867368D01*
X100970945Y-151830721D01*
X101040802Y-151832051D01*
X101098851Y-151870938D01*
X101126661Y-151935034D01*
X101126930Y-151963303D01*
X101111444Y-152110645D01*
X101107308Y-152150000D01*
X101114508Y-152218500D01*
X101127270Y-152339929D01*
X101186284Y-152521556D01*
X101281769Y-152686941D01*
X101288376Y-152694279D01*
X101409559Y-152828866D01*
X101515595Y-152905906D01*
X101564060Y-152941118D01*
X101738526Y-153018795D01*
X101925323Y-153058500D01*
X101925325Y-153058500D01*
X102116301Y-153058500D01*
X102303097Y-153018795D01*
X102303098Y-153018794D01*
X102303100Y-153018794D01*
X102477564Y-152941118D01*
X102632065Y-152828866D01*
X102759852Y-152686944D01*
X102763207Y-152681134D01*
X102847951Y-152534353D01*
X104728239Y-152534353D01*
X104748201Y-152724282D01*
X104807215Y-152905909D01*
X104902700Y-153071294D01*
X104902703Y-153071297D01*
X105030490Y-153213219D01*
X105184991Y-153325471D01*
X105195999Y-153330372D01*
X105249237Y-153375623D01*
X105269558Y-153442472D01*
X105252951Y-153505651D01*
X105176285Y-153638441D01*
X105117270Y-153820070D01*
X105097308Y-154010000D01*
X105117270Y-154199929D01*
X105176284Y-154381556D01*
X105271769Y-154546941D01*
X105271772Y-154546944D01*
X105399559Y-154688866D01*
X105478278Y-154746059D01*
X105544257Y-154793996D01*
X105586922Y-154849327D01*
X105592901Y-154918940D01*
X105563521Y-154977286D01*
X105436771Y-155118055D01*
X105341284Y-155283443D01*
X105282270Y-155465070D01*
X105262308Y-155655000D01*
X105282270Y-155844929D01*
X105341284Y-156026556D01*
X105436769Y-156191941D01*
X105436772Y-156191944D01*
X105564559Y-156333866D01*
X105678906Y-156416944D01*
X105719060Y-156446118D01*
X105893526Y-156523795D01*
X106080323Y-156563500D01*
X106080325Y-156563500D01*
X106271301Y-156563500D01*
X106458097Y-156523795D01*
X106458098Y-156523794D01*
X106458100Y-156523794D01*
X106632564Y-156446118D01*
X106787065Y-156333866D01*
X106914852Y-156191944D01*
X106993019Y-156056556D01*
X107010339Y-156026556D01*
X107057958Y-155880000D01*
X107069354Y-155844928D01*
X107089316Y-155655000D01*
X107069354Y-155465072D01*
X107038743Y-155370862D01*
X107010339Y-155283443D01*
X106914854Y-155118058D01*
X106873275Y-155071880D01*
X106787065Y-154976134D01*
X106787060Y-154976131D01*
X106787060Y-154976130D01*
X106642366Y-154871002D01*
X106599700Y-154815672D01*
X106593722Y-154746059D01*
X106623101Y-154687714D01*
X106749852Y-154546944D01*
X106845339Y-154381556D01*
X106904354Y-154199928D01*
X106924316Y-154010000D01*
X106904354Y-153820072D01*
X106849094Y-153650000D01*
X107397308Y-153650000D01*
X107417270Y-153839929D01*
X107476284Y-154021556D01*
X107571769Y-154186941D01*
X107571772Y-154186944D01*
X107699559Y-154328866D01*
X107854059Y-154441118D01*
X107854060Y-154441118D01*
X108028526Y-154518795D01*
X108215323Y-154558500D01*
X108215325Y-154558500D01*
X108406301Y-154558500D01*
X108605848Y-154516085D01*
X108606380Y-154518588D01*
X108657283Y-154511761D01*
X108720561Y-154541385D01*
X108757778Y-154600518D01*
X108761797Y-154647286D01*
X108757308Y-154689998D01*
X108777270Y-154879929D01*
X108836284Y-155061556D01*
X108931769Y-155226941D01*
X108931772Y-155226944D01*
X109059559Y-155368866D01*
X109059562Y-155368868D01*
X109059563Y-155368869D01*
X109174428Y-155452325D01*
X109217094Y-155507655D01*
X109223072Y-155577268D01*
X109219473Y-155590959D01*
X109188918Y-155685000D01*
X109187270Y-155690072D01*
X109170994Y-155844928D01*
X109167308Y-155880000D01*
X109187270Y-156069929D01*
X109246284Y-156251556D01*
X109341769Y-156416941D01*
X109341772Y-156416944D01*
X109469559Y-156558866D01*
X109595842Y-156650616D01*
X109624060Y-156671118D01*
X109798526Y-156748795D01*
X109985323Y-156788500D01*
X109985325Y-156788500D01*
X110176301Y-156788500D01*
X110363097Y-156748795D01*
X110363098Y-156748794D01*
X110363100Y-156748794D01*
X110537564Y-156671118D01*
X110692065Y-156558866D01*
X110819852Y-156416944D01*
X110915339Y-156251556D01*
X110974354Y-156069928D01*
X110994316Y-155880000D01*
X110974354Y-155690072D01*
X110942150Y-155590959D01*
X110915339Y-155508443D01*
X110819854Y-155343058D01*
X110715304Y-155226944D01*
X110692065Y-155201134D01*
X110577192Y-155117673D01*
X110534529Y-155062346D01*
X110528550Y-154992733D01*
X110532142Y-154979065D01*
X110564354Y-154879928D01*
X110584316Y-154690000D01*
X110564354Y-154500072D01*
X110525846Y-154381556D01*
X110505339Y-154318443D01*
X110409854Y-154153058D01*
X110390254Y-154131291D01*
X110282065Y-154011134D01*
X110127564Y-153898882D01*
X110127563Y-153898881D01*
X109953097Y-153821204D01*
X109766301Y-153781500D01*
X109766299Y-153781500D01*
X109575325Y-153781500D01*
X109575323Y-153781500D01*
X109375776Y-153823915D01*
X109375244Y-153821412D01*
X109324318Y-153828235D01*
X109261045Y-153798599D01*
X109223839Y-153739460D01*
X109219826Y-153692715D01*
X109224316Y-153650000D01*
X109204354Y-153460072D01*
X109171838Y-153360000D01*
X111937308Y-153360000D01*
X111957270Y-153549929D01*
X112016284Y-153731556D01*
X112111769Y-153896941D01*
X112111772Y-153896944D01*
X112239559Y-154038866D01*
X112394060Y-154151118D01*
X112568526Y-154228795D01*
X112755323Y-154268500D01*
X112755325Y-154268500D01*
X112946301Y-154268500D01*
X113133097Y-154228795D01*
X113133098Y-154228794D01*
X113133100Y-154228794D01*
X113307564Y-154151118D01*
X113462065Y-154038866D01*
X113589852Y-153896944D01*
X113632016Y-153823915D01*
X113685339Y-153731556D01*
X113715594Y-153638441D01*
X113744354Y-153549928D01*
X113764316Y-153360000D01*
X113744354Y-153170072D01*
X113695201Y-153018795D01*
X113685339Y-152988443D01*
X113589854Y-152823058D01*
X113552168Y-152781204D01*
X113462065Y-152681134D01*
X113307564Y-152568882D01*
X113307563Y-152568881D01*
X113133097Y-152491204D01*
X112946301Y-152451500D01*
X112946299Y-152451500D01*
X112755325Y-152451500D01*
X112755323Y-152451500D01*
X112568526Y-152491204D01*
X112394060Y-152568881D01*
X112239560Y-152681133D01*
X112111769Y-152823058D01*
X112016284Y-152988443D01*
X111957270Y-153170070D01*
X111937308Y-153360000D01*
X109171838Y-153360000D01*
X109145339Y-153278444D01*
X109145339Y-153278443D01*
X109049854Y-153113058D01*
X109012249Y-153071294D01*
X108922065Y-152971134D01*
X108767564Y-152858882D01*
X108767563Y-152858881D01*
X108593097Y-152781204D01*
X108406301Y-152741500D01*
X108406299Y-152741500D01*
X108215325Y-152741500D01*
X108215323Y-152741500D01*
X108028526Y-152781204D01*
X107854060Y-152858881D01*
X107699560Y-152971133D01*
X107571769Y-153113058D01*
X107476284Y-153278443D01*
X107417270Y-153460070D01*
X107397308Y-153650000D01*
X106849094Y-153650000D01*
X106845339Y-153638444D01*
X106845339Y-153638443D01*
X106749854Y-153473058D01*
X106722314Y-153442472D01*
X106622065Y-153331134D01*
X106549542Y-153278443D01*
X106467562Y-153218880D01*
X106456555Y-153213980D01*
X106403317Y-153168731D01*
X106382995Y-153101882D01*
X106399600Y-153038703D01*
X106476270Y-152905909D01*
X106516705Y-152781461D01*
X106556143Y-152723785D01*
X106608857Y-152698488D01*
X106628665Y-152694279D01*
X106803129Y-152616603D01*
X106957630Y-152504351D01*
X107085417Y-152362429D01*
X107098076Y-152340504D01*
X107180904Y-152197041D01*
X107180903Y-152197040D01*
X107239919Y-152015413D01*
X107259881Y-151825485D01*
X107239919Y-151635557D01*
X107188381Y-151476941D01*
X107180904Y-151453928D01*
X107085419Y-151288543D01*
X107043061Y-151241500D01*
X106957630Y-151146619D01*
X106803129Y-151034367D01*
X106803128Y-151034366D01*
X106628662Y-150956689D01*
X106441866Y-150916985D01*
X106441864Y-150916985D01*
X106250890Y-150916985D01*
X106250888Y-150916985D01*
X106064091Y-150956689D01*
X105889625Y-151034366D01*
X105735125Y-151146618D01*
X105607334Y-151288543D01*
X105511849Y-151453928D01*
X105471414Y-151578376D01*
X105431976Y-151636052D01*
X105379268Y-151661347D01*
X105359454Y-151665558D01*
X105359455Y-151665559D01*
X105184991Y-151743234D01*
X105030491Y-151855486D01*
X104902700Y-151997411D01*
X104807215Y-152162796D01*
X104748201Y-152344423D01*
X104728239Y-152534353D01*
X102847951Y-152534353D01*
X102855339Y-152521556D01*
X102878102Y-152451500D01*
X102914354Y-152339928D01*
X102934316Y-152150000D01*
X102914354Y-151960072D01*
X102865201Y-151808795D01*
X102855339Y-151778443D01*
X102759854Y-151613058D01*
X102728626Y-151578376D01*
X102632065Y-151471134D01*
X102477564Y-151358882D01*
X102477563Y-151358881D01*
X102303097Y-151281204D01*
X102116301Y-151241500D01*
X102116299Y-151241500D01*
X101925325Y-151241500D01*
X101925323Y-151241500D01*
X101738526Y-151281204D01*
X101564060Y-151358881D01*
X101409560Y-151471133D01*
X101409559Y-151471134D01*
X101361091Y-151524964D01*
X101300164Y-151592630D01*
X101240677Y-151629278D01*
X101170820Y-151627947D01*
X101112772Y-151589060D01*
X101084962Y-151524964D01*
X101084693Y-151496701D01*
X101104316Y-151310000D01*
X101084354Y-151120072D01*
X101025845Y-150940000D01*
X101025339Y-150938443D01*
X100929854Y-150773058D01*
X100819355Y-150650337D01*
X100802065Y-150631134D01*
X100705713Y-150561130D01*
X100647563Y-150518881D01*
X100473097Y-150441204D01*
X100286301Y-150401500D01*
X100286299Y-150401500D01*
X100095325Y-150401500D01*
X100095323Y-150401500D01*
X99908526Y-150441204D01*
X99734060Y-150518881D01*
X99579560Y-150631133D01*
X99451771Y-150773057D01*
X99397992Y-150866204D01*
X99347424Y-150914419D01*
X99278817Y-150927641D01*
X99213953Y-150901673D01*
X99198455Y-150887175D01*
X99187772Y-150875311D01*
X99077565Y-150752913D01*
X98923064Y-150640661D01*
X98923063Y-150640660D01*
X98748597Y-150562983D01*
X98561801Y-150523279D01*
X98561799Y-150523279D01*
X98370825Y-150523279D01*
X98370823Y-150523279D01*
X98184026Y-150562983D01*
X98008678Y-150641053D01*
X97939428Y-150650337D01*
X97876151Y-150620708D01*
X97838939Y-150561573D01*
X97834245Y-150528405D01*
X97830902Y-149869817D01*
X97850246Y-149802681D01*
X97902817Y-149756659D01*
X97929116Y-149747901D01*
X98022639Y-149728022D01*
X98113097Y-149708795D01*
X98113098Y-149708794D01*
X98113100Y-149708794D01*
X98287564Y-149631118D01*
X98442065Y-149518866D01*
X98569852Y-149376944D01*
X98614726Y-149299221D01*
X98665339Y-149211556D01*
X98672658Y-149189030D01*
X98724354Y-149029928D01*
X98744316Y-148840000D01*
X98724354Y-148650072D01*
X98678478Y-148508882D01*
X98665339Y-148468443D01*
X98569854Y-148303058D01*
X98496089Y-148221134D01*
X98442065Y-148161134D01*
X98290760Y-148051204D01*
X98287563Y-148048881D01*
X98113097Y-147971204D01*
X97918659Y-147929875D01*
X97857177Y-147896682D01*
X97823401Y-147835519D01*
X97820442Y-147809218D01*
X97816385Y-147010000D01*
X102407308Y-147010000D01*
X102427270Y-147199929D01*
X102486284Y-147381556D01*
X102581769Y-147546941D01*
X102581772Y-147546944D01*
X102709559Y-147688866D01*
X102864059Y-147801118D01*
X102864060Y-147801118D01*
X103038526Y-147878795D01*
X103225323Y-147918500D01*
X103225325Y-147918500D01*
X103416301Y-147918500D01*
X103603097Y-147878795D01*
X103603098Y-147878794D01*
X103603100Y-147878794D01*
X103647848Y-147858870D01*
X103717096Y-147849585D01*
X103771168Y-147871831D01*
X103862533Y-147938212D01*
X103894060Y-147961118D01*
X104068526Y-148038795D01*
X104255323Y-148078500D01*
X104255325Y-148078500D01*
X104446299Y-148078500D01*
X104600030Y-148045823D01*
X104669695Y-148051139D01*
X104725429Y-148093275D01*
X104749535Y-148158855D01*
X104743742Y-148205427D01*
X104739148Y-148219566D01*
X104739147Y-148219570D01*
X104739147Y-148219572D01*
X104724066Y-148363056D01*
X104719185Y-148409499D01*
X104739147Y-148599429D01*
X104798161Y-148781056D01*
X104893646Y-148946441D01*
X104893649Y-148946444D01*
X105021436Y-149088366D01*
X105175937Y-149200618D01*
X105350401Y-149278294D01*
X105360734Y-149280490D01*
X105422216Y-149313683D01*
X105455993Y-149374845D01*
X105458275Y-149388818D01*
X105463647Y-149439929D01*
X105522661Y-149621556D01*
X105618146Y-149786941D01*
X105637558Y-149808500D01*
X105745936Y-149928866D01*
X105814755Y-149978866D01*
X105900437Y-150041118D01*
X106074903Y-150118795D01*
X106261700Y-150158500D01*
X106261702Y-150158500D01*
X106452678Y-150158500D01*
X106639474Y-150118795D01*
X106639475Y-150118794D01*
X106639477Y-150118794D01*
X106813941Y-150041118D01*
X106968442Y-149928866D01*
X107096229Y-149786944D01*
X107106708Y-149768795D01*
X107186195Y-149631118D01*
X107191716Y-149621556D01*
X107191716Y-149621553D01*
X107198232Y-149610269D01*
X107199298Y-149610884D01*
X107230888Y-149564681D01*
X107283600Y-149539381D01*
X107324416Y-149530705D01*
X107394078Y-149536020D01*
X107442343Y-149569021D01*
X107489559Y-149621460D01*
X107609765Y-149708795D01*
X107644060Y-149733712D01*
X107818526Y-149811389D01*
X108005323Y-149851094D01*
X108005325Y-149851094D01*
X108196301Y-149851094D01*
X108383097Y-149811389D01*
X108383098Y-149811388D01*
X108383100Y-149811388D01*
X108557564Y-149733712D01*
X108712065Y-149621460D01*
X108839852Y-149479538D01*
X108862721Y-149439929D01*
X108885774Y-149400000D01*
X110017308Y-149400000D01*
X110037270Y-149589929D01*
X110096284Y-149771556D01*
X110191769Y-149936941D01*
X110191772Y-149936944D01*
X110319559Y-150078866D01*
X110443334Y-150168794D01*
X110474060Y-150191118D01*
X110648526Y-150268795D01*
X110835323Y-150308500D01*
X110835325Y-150308500D01*
X111026301Y-150308500D01*
X111213097Y-150268795D01*
X111213098Y-150268794D01*
X111213100Y-150268794D01*
X111387564Y-150191118D01*
X111482046Y-150122472D01*
X111547853Y-150098991D01*
X111605366Y-150109508D01*
X111693801Y-150148882D01*
X111738526Y-150168795D01*
X111925323Y-150208500D01*
X111925325Y-150208500D01*
X112116301Y-150208500D01*
X112303097Y-150168795D01*
X112303098Y-150168794D01*
X112303100Y-150168794D01*
X112477564Y-150091118D01*
X112632065Y-149978866D01*
X112759852Y-149836944D01*
X112763914Y-149829907D01*
X112814478Y-149781691D01*
X112883084Y-149768465D01*
X112897084Y-149770614D01*
X113075323Y-149808500D01*
X113075325Y-149808500D01*
X113266301Y-149808500D01*
X113453097Y-149768795D01*
X113453098Y-149768794D01*
X113453100Y-149768794D01*
X113627564Y-149691118D01*
X113782065Y-149578866D01*
X113909852Y-149436944D01*
X113956702Y-149355795D01*
X114007268Y-149307581D01*
X114075875Y-149294357D01*
X114089854Y-149296503D01*
X114136470Y-149306412D01*
X114136472Y-149306412D01*
X114327446Y-149306412D01*
X114514242Y-149266707D01*
X114514243Y-149266706D01*
X114514245Y-149266706D01*
X114688709Y-149189030D01*
X114843210Y-149076778D01*
X114970997Y-148934856D01*
X115066484Y-148769468D01*
X115125499Y-148587840D01*
X115145461Y-148397912D01*
X115125499Y-148207984D01*
X115093298Y-148108881D01*
X115066484Y-148026355D01*
X114970999Y-147860970D01*
X114889557Y-147770520D01*
X114843210Y-147719046D01*
X114735952Y-147641118D01*
X114688708Y-147606793D01*
X114514242Y-147529116D01*
X114327446Y-147489412D01*
X114327444Y-147489412D01*
X114136470Y-147489412D01*
X114136468Y-147489412D01*
X113949671Y-147529116D01*
X113775205Y-147606793D01*
X113620705Y-147719045D01*
X113620704Y-147719046D01*
X113576682Y-147767937D01*
X113492916Y-147860969D01*
X113446066Y-147942115D01*
X113395498Y-147990330D01*
X113326891Y-148003552D01*
X113312899Y-148001405D01*
X113302628Y-147999222D01*
X113266299Y-147991500D01*
X113075325Y-147991500D01*
X113075323Y-147991500D01*
X112888526Y-148031204D01*
X112714060Y-148108881D01*
X112592734Y-148197030D01*
X112561718Y-148219566D01*
X112559558Y-148221135D01*
X112431768Y-148363060D01*
X112427703Y-148370101D01*
X112377133Y-148418314D01*
X112308526Y-148431533D01*
X112294539Y-148429385D01*
X112116301Y-148391500D01*
X112116299Y-148391500D01*
X111925325Y-148391500D01*
X111925323Y-148391500D01*
X111738526Y-148431204D01*
X111564057Y-148508882D01*
X111469575Y-148577528D01*
X111403769Y-148601008D01*
X111346255Y-148590490D01*
X111213097Y-148531204D01*
X111026301Y-148491500D01*
X111026299Y-148491500D01*
X110835325Y-148491500D01*
X110835323Y-148491500D01*
X110648526Y-148531204D01*
X110474060Y-148608881D01*
X110319560Y-148721133D01*
X110191769Y-148863058D01*
X110096284Y-149028443D01*
X110037270Y-149210070D01*
X110017308Y-149400000D01*
X108885774Y-149400000D01*
X108935339Y-149314150D01*
X108950754Y-149266707D01*
X108994354Y-149132522D01*
X109014316Y-148942594D01*
X108994354Y-148752666D01*
X108951616Y-148621134D01*
X108935339Y-148571037D01*
X108839854Y-148405652D01*
X108820254Y-148383885D01*
X108712065Y-148263728D01*
X108570856Y-148161133D01*
X108557563Y-148151475D01*
X108383097Y-148073798D01*
X108196301Y-148034094D01*
X108196299Y-148034094D01*
X108005325Y-148034094D01*
X107924827Y-148051204D01*
X107855160Y-148045887D01*
X107806898Y-148012886D01*
X107759685Y-147960450D01*
X107622762Y-147860969D01*
X107605183Y-147848197D01*
X107430717Y-147770520D01*
X107243921Y-147730816D01*
X107243919Y-147730816D01*
X107052945Y-147730816D01*
X107052943Y-147730816D01*
X106866146Y-147770520D01*
X106691677Y-147848198D01*
X106567785Y-147938212D01*
X106501979Y-147961692D01*
X106433925Y-147945867D01*
X106387513Y-147899894D01*
X106371731Y-147872558D01*
X106279855Y-147770520D01*
X106243942Y-147730634D01*
X106089441Y-147618382D01*
X106089440Y-147618381D01*
X105914974Y-147540704D01*
X105728178Y-147501000D01*
X105728176Y-147501000D01*
X105537202Y-147501000D01*
X105537200Y-147501000D01*
X105383471Y-147533676D01*
X105313804Y-147528360D01*
X105258070Y-147486223D01*
X105233965Y-147420643D01*
X105239758Y-147374071D01*
X105244354Y-147359928D01*
X105264316Y-147170000D01*
X105244354Y-146980072D01*
X105202091Y-146850000D01*
X105185339Y-146798443D01*
X105089854Y-146633058D01*
X105042015Y-146579928D01*
X104962065Y-146491134D01*
X104807564Y-146378882D01*
X104807563Y-146378881D01*
X104633097Y-146301204D01*
X104446301Y-146261500D01*
X104446299Y-146261500D01*
X104255325Y-146261500D01*
X104255323Y-146261500D01*
X104068523Y-146301205D01*
X104023773Y-146321129D01*
X103954523Y-146330413D01*
X103900454Y-146308167D01*
X103777564Y-146218882D01*
X103777563Y-146218881D01*
X103603097Y-146141204D01*
X103416301Y-146101500D01*
X103416299Y-146101500D01*
X103225325Y-146101500D01*
X103225323Y-146101500D01*
X103038526Y-146141204D01*
X102864060Y-146218881D01*
X102709560Y-146331133D01*
X102581769Y-146473058D01*
X102486284Y-146638443D01*
X102427270Y-146820070D01*
X102407308Y-147010000D01*
X97816385Y-147010000D01*
X97800244Y-143829999D01*
X110337308Y-143829999D01*
X110357270Y-144019929D01*
X110416284Y-144201556D01*
X110511769Y-144366941D01*
X110511772Y-144366944D01*
X110639559Y-144508866D01*
X110794060Y-144621117D01*
X110794060Y-144621118D01*
X110968526Y-144698795D01*
X111155323Y-144738500D01*
X111155325Y-144738500D01*
X111346301Y-144738500D01*
X111533097Y-144698795D01*
X111533098Y-144698794D01*
X111533100Y-144698794D01*
X111707564Y-144621118D01*
X111862065Y-144508866D01*
X111989852Y-144366944D01*
X112085339Y-144201556D01*
X112144354Y-144019928D01*
X112164316Y-143830000D01*
X112144354Y-143640072D01*
X112108952Y-143531118D01*
X112085339Y-143458443D01*
X111989854Y-143293058D01*
X111970254Y-143271291D01*
X111862065Y-143151134D01*
X111707564Y-143038882D01*
X111707563Y-143038881D01*
X111533097Y-142961204D01*
X111346301Y-142921500D01*
X111346299Y-142921500D01*
X111155325Y-142921500D01*
X111155323Y-142921500D01*
X110968526Y-142961204D01*
X110794060Y-143038881D01*
X110639560Y-143151133D01*
X110511769Y-143293058D01*
X110416284Y-143458443D01*
X110357270Y-143640070D01*
X110337308Y-143829999D01*
X97800244Y-143829999D01*
X97792224Y-142250070D01*
X97789036Y-141622000D01*
X98047308Y-141622000D01*
X98067270Y-141811929D01*
X98126284Y-141993556D01*
X98221769Y-142158941D01*
X98221772Y-142158944D01*
X98349559Y-142300866D01*
X98446825Y-142371534D01*
X98504060Y-142413118D01*
X98678526Y-142490795D01*
X98865323Y-142530500D01*
X98865325Y-142530500D01*
X99056301Y-142530500D01*
X99243097Y-142490795D01*
X99243098Y-142490794D01*
X99243100Y-142490794D01*
X99417564Y-142413118D01*
X99474800Y-142371533D01*
X99540604Y-142348053D01*
X99608658Y-142363878D01*
X99657354Y-142413982D01*
X99671230Y-142482460D01*
X99671006Y-142484811D01*
X99667308Y-142519998D01*
X99667308Y-142520000D01*
X99678862Y-142629928D01*
X99687270Y-142709929D01*
X99746284Y-142891556D01*
X99841769Y-143056941D01*
X99841772Y-143056944D01*
X99969559Y-143198866D01*
X100077020Y-143276941D01*
X100124060Y-143311118D01*
X100298526Y-143388795D01*
X100485323Y-143428500D01*
X100485325Y-143428500D01*
X100676301Y-143428500D01*
X100863097Y-143388795D01*
X100863098Y-143388794D01*
X100863100Y-143388794D01*
X101037564Y-143311118D01*
X101192065Y-143198866D01*
X101319852Y-143056944D01*
X101375127Y-142961206D01*
X101415339Y-142891556D01*
X101421350Y-142873056D01*
X101474354Y-142709928D01*
X101494316Y-142520000D01*
X101474354Y-142330072D01*
X101455100Y-142270817D01*
X101453106Y-142200977D01*
X101489187Y-142141144D01*
X101551888Y-142110316D01*
X101573032Y-142108500D01*
X101576300Y-142108500D01*
X101652994Y-142092198D01*
X101722661Y-142097514D01*
X101778394Y-142139651D01*
X101802500Y-142205230D01*
X101798536Y-142237100D01*
X101798633Y-142237111D01*
X101797271Y-142250068D01*
X101797270Y-142250072D01*
X101788862Y-142330070D01*
X101777308Y-142440000D01*
X101797270Y-142629929D01*
X101856284Y-142811556D01*
X101951769Y-142976941D01*
X101951772Y-142976944D01*
X102079559Y-143118866D01*
X102125518Y-143152257D01*
X102234060Y-143231118D01*
X102408526Y-143308795D01*
X102595323Y-143348500D01*
X102595325Y-143348500D01*
X102786301Y-143348500D01*
X102973097Y-143308795D01*
X102973098Y-143308794D01*
X102973100Y-143308794D01*
X103147564Y-143231118D01*
X103302065Y-143118866D01*
X103429852Y-142976944D01*
X103433498Y-142970630D01*
X103525339Y-142811556D01*
X103535364Y-142780701D01*
X104358635Y-142780701D01*
X104378597Y-142970630D01*
X104437611Y-143152257D01*
X104533096Y-143317642D01*
X104533099Y-143317645D01*
X104660886Y-143459567D01*
X104815387Y-143571818D01*
X104815387Y-143571819D01*
X104989853Y-143649496D01*
X105176650Y-143689201D01*
X105176652Y-143689201D01*
X105367628Y-143689201D01*
X105554422Y-143649496D01*
X105554421Y-143649496D01*
X105554427Y-143649495D01*
X105728891Y-143571819D01*
X105738066Y-143565152D01*
X105803868Y-143541672D01*
X105861386Y-143552188D01*
X105948175Y-143590829D01*
X105988526Y-143608795D01*
X106175323Y-143648500D01*
X106175325Y-143648500D01*
X106366301Y-143648500D01*
X106553097Y-143608795D01*
X106553098Y-143608794D01*
X106553100Y-143608794D01*
X106727564Y-143531118D01*
X106882065Y-143418866D01*
X107009852Y-143276944D01*
X107042690Y-143220068D01*
X107105339Y-143111556D01*
X107121251Y-143062584D01*
X107164354Y-142929928D01*
X107184316Y-142740000D01*
X107164354Y-142550072D01*
X107118564Y-142409145D01*
X107105339Y-142368443D01*
X107009854Y-142203058D01*
X106960679Y-142148444D01*
X106882065Y-142061134D01*
X106736743Y-141955551D01*
X106727563Y-141948881D01*
X106553097Y-141871204D01*
X106366301Y-141831500D01*
X106366299Y-141831500D01*
X106175325Y-141831500D01*
X106175323Y-141831500D01*
X105988526Y-141871204D01*
X105814056Y-141948883D01*
X105804879Y-141955551D01*
X105739072Y-141979029D01*
X105681562Y-141968511D01*
X105554424Y-141911905D01*
X105367628Y-141872201D01*
X105367626Y-141872201D01*
X105176652Y-141872201D01*
X105176650Y-141872201D01*
X104989853Y-141911905D01*
X104815387Y-141989582D01*
X104660887Y-142101834D01*
X104533096Y-142243759D01*
X104437611Y-142409144D01*
X104378597Y-142590771D01*
X104358635Y-142780701D01*
X103535364Y-142780701D01*
X103584354Y-142629928D01*
X103604316Y-142440000D01*
X103584354Y-142250072D01*
X103550247Y-142145105D01*
X103548253Y-142075266D01*
X103584333Y-142015433D01*
X103595287Y-142006476D01*
X103677565Y-141946698D01*
X103805352Y-141804776D01*
X103900839Y-141639388D01*
X103959854Y-141457760D01*
X103979816Y-141267832D01*
X103959854Y-141077904D01*
X103900839Y-140896276D01*
X103900839Y-140896275D01*
X103805354Y-140730890D01*
X103768174Y-140689598D01*
X103677565Y-140588966D01*
X103523064Y-140476714D01*
X103523063Y-140476713D01*
X103348597Y-140399036D01*
X103161801Y-140359332D01*
X103161799Y-140359332D01*
X102970825Y-140359332D01*
X102970823Y-140359332D01*
X102784026Y-140399036D01*
X102609560Y-140476713D01*
X102455060Y-140588965D01*
X102455059Y-140588966D01*
X102396248Y-140654282D01*
X102336763Y-140690929D01*
X102266906Y-140689598D01*
X102211950Y-140654280D01*
X102199275Y-140640203D01*
X102092065Y-140521134D01*
X101937564Y-140408882D01*
X101937563Y-140408881D01*
X101763097Y-140331204D01*
X101576301Y-140291500D01*
X101576299Y-140291500D01*
X101385325Y-140291500D01*
X101385323Y-140291500D01*
X101198526Y-140331204D01*
X101024060Y-140408881D01*
X100869560Y-140521133D01*
X100741769Y-140663058D01*
X100646284Y-140828443D01*
X100587270Y-141010070D01*
X100567308Y-141199999D01*
X100587270Y-141389929D01*
X100606523Y-141449182D01*
X100608518Y-141519023D01*
X100572437Y-141578856D01*
X100509736Y-141609684D01*
X100488592Y-141611500D01*
X100485323Y-141611500D01*
X100298526Y-141651204D01*
X100124057Y-141728882D01*
X100066823Y-141770466D01*
X100001017Y-141793946D01*
X99932963Y-141778120D01*
X99884268Y-141728015D01*
X99870393Y-141659537D01*
X99870607Y-141657281D01*
X99874316Y-141622000D01*
X99854354Y-141432072D01*
X99795339Y-141250444D01*
X99795339Y-141250443D01*
X99699854Y-141085058D01*
X99632334Y-141010070D01*
X99572065Y-140943134D01*
X99417564Y-140830882D01*
X99417563Y-140830881D01*
X99243097Y-140753204D01*
X99056301Y-140713500D01*
X99056299Y-140713500D01*
X98865325Y-140713500D01*
X98865323Y-140713500D01*
X98678526Y-140753204D01*
X98504060Y-140830881D01*
X98349560Y-140943133D01*
X98221769Y-141085058D01*
X98126284Y-141250443D01*
X98067270Y-141432070D01*
X98047308Y-141622000D01*
X97789036Y-141622000D01*
X97774445Y-138747629D01*
X97793789Y-138680491D01*
X97846360Y-138634469D01*
X97898443Y-138623000D01*
X104792326Y-138623000D01*
X104818107Y-138625710D01*
G37*
G04 #@! TD.AperFunction*
M02*
