G04 #@! TF.GenerationSoftware,KiCad,Pcbnew,7.0.2-0*
G04 #@! TF.CreationDate,2023-05-07T22:08:19-05:00*
G04 #@! TF.ProjectId,spudglo_driver_v4p3,73707564-676c-46f5-9f64-72697665725f,rev?*
G04 #@! TF.SameCoordinates,Original*
G04 #@! TF.FileFunction,Copper,L3,Inr*
G04 #@! TF.FilePolarity,Positive*
%FSLAX46Y46*%
G04 Gerber Fmt 4.6, Leading zero omitted, Abs format (unit mm)*
G04 Created by KiCad (PCBNEW 7.0.2-0) date 2023-05-07 22:08:19*
%MOMM*%
%LPD*%
G01*
G04 APERTURE LIST*
G04 #@! TA.AperFunction,ComponentPad*
%ADD10R,1.700000X1.700000*%
G04 #@! TD*
G04 #@! TA.AperFunction,ComponentPad*
%ADD11O,1.700000X1.700000*%
G04 #@! TD*
G04 #@! TA.AperFunction,ComponentPad*
%ADD12C,2.000000*%
G04 #@! TD*
G04 #@! TA.AperFunction,ComponentPad*
%ADD13R,4.400000X1.800000*%
G04 #@! TD*
G04 #@! TA.AperFunction,ComponentPad*
%ADD14O,4.000000X1.800000*%
G04 #@! TD*
G04 #@! TA.AperFunction,ComponentPad*
%ADD15O,1.800000X4.000000*%
G04 #@! TD*
G04 #@! TA.AperFunction,ComponentPad*
%ADD16O,2.100000X1.000000*%
G04 #@! TD*
G04 #@! TA.AperFunction,ComponentPad*
%ADD17O,1.600000X1.000000*%
G04 #@! TD*
G04 #@! TA.AperFunction,ViaPad*
%ADD18C,0.800000*%
G04 #@! TD*
G04 #@! TA.AperFunction,ViaPad*
%ADD19C,2.000000*%
G04 #@! TD*
G04 #@! TA.AperFunction,ViaPad*
%ADD20C,1.600000*%
G04 #@! TD*
G04 #@! TA.AperFunction,Conductor*
%ADD21C,2.000000*%
G04 #@! TD*
G04 APERTURE END LIST*
D10*
X200914000Y-64008000D03*
D11*
X200914000Y-66548000D03*
X200914000Y-69088000D03*
X200914000Y-71628000D03*
X200914000Y-74168000D03*
D10*
X197160000Y-77375000D03*
D11*
X197160000Y-74835000D03*
X197160000Y-72295000D03*
X197160000Y-69755000D03*
X197160000Y-67215000D03*
X197160000Y-64675000D03*
X197160000Y-62135000D03*
X197160000Y-59595000D03*
D10*
X227076000Y-50038000D03*
D11*
X227076000Y-52578000D03*
X227076000Y-55118000D03*
X227076000Y-57658000D03*
X227076000Y-60198000D03*
D10*
X200914000Y-50038000D03*
D11*
X200914000Y-52578000D03*
X200914000Y-55118000D03*
X200914000Y-57658000D03*
X200914000Y-60198000D03*
D12*
X212130000Y-83040000D03*
X215630000Y-83040000D03*
X219130000Y-83040000D03*
X222630000Y-83040000D03*
X226130000Y-83040000D03*
X229630000Y-83040000D03*
X233130000Y-83040000D03*
X236630000Y-83040000D03*
X240130000Y-83040000D03*
X243630000Y-83040000D03*
X247130000Y-83040000D03*
X250630000Y-83040000D03*
D10*
X198755000Y-84190000D03*
D11*
X198755000Y-81650000D03*
X201295000Y-84190000D03*
X201295000Y-81650000D03*
X203835000Y-84190000D03*
X203835000Y-81650000D03*
X206375000Y-84190000D03*
X206375000Y-81650000D03*
D13*
X258930000Y-74950000D03*
D14*
X258930000Y-80750000D03*
D15*
X263730000Y-77950000D03*
D16*
X260080000Y-72190000D03*
D17*
X264260000Y-72190000D03*
D16*
X260080000Y-63550000D03*
D17*
X264260000Y-63550000D03*
D10*
X227076000Y-64008000D03*
D11*
X227076000Y-66548000D03*
X227076000Y-69088000D03*
X227076000Y-71628000D03*
X227076000Y-74168000D03*
D18*
X255375000Y-56150000D03*
X256525000Y-57000000D03*
X242000000Y-54175000D03*
X241125000Y-57725000D03*
X249626372Y-69488779D03*
X261475000Y-68850000D03*
X262305000Y-74075000D03*
X260775000Y-67250000D03*
X235169664Y-71145970D03*
X237780000Y-79020000D03*
D19*
X241660000Y-76640000D03*
X241660000Y-78760000D03*
D20*
X207680000Y-60410000D03*
D18*
X249770000Y-63430000D03*
X258415000Y-58987500D03*
X242010000Y-71200000D03*
X259337500Y-60395000D03*
X236740000Y-73120000D03*
X206897500Y-50457500D03*
X209360000Y-81350000D03*
X250136961Y-52129500D03*
X256840000Y-81750000D03*
X255470000Y-57680000D03*
X239480000Y-68910000D03*
X221255378Y-49844622D03*
X240350000Y-70360000D03*
D20*
X213200000Y-60790000D03*
D18*
X246340000Y-49400500D03*
D20*
X218045000Y-61005000D03*
D18*
X261845000Y-78215000D03*
X216250000Y-81300000D03*
X263030000Y-70460000D03*
D20*
X223880000Y-56600000D03*
D18*
X245574647Y-49400500D03*
X253000000Y-65770000D03*
X261605000Y-79755000D03*
X237790000Y-58700000D03*
X247140000Y-73600000D03*
X253020000Y-64950000D03*
X209460000Y-65690000D03*
X246025000Y-63150000D03*
X260140000Y-85410000D03*
X250840500Y-57664098D03*
X233600000Y-67610000D03*
X210700000Y-71060000D03*
X258290000Y-63640000D03*
X234220000Y-51300000D03*
X258330000Y-72060000D03*
X220380000Y-73810000D03*
X252170000Y-64980000D03*
X222220000Y-70090000D03*
X260147500Y-60395000D03*
X261090000Y-78970000D03*
X231600000Y-74770000D03*
X251830000Y-75060498D03*
X225168126Y-81762031D03*
X249480000Y-52430000D03*
D20*
X252420000Y-71590000D03*
D18*
X240766521Y-59476088D03*
X243560000Y-53650000D03*
X238200000Y-82050000D03*
X239743256Y-49196744D03*
X237770000Y-64180000D03*
X210570000Y-53720000D03*
X225205826Y-64406326D03*
X239889500Y-58895701D03*
X231140000Y-59990000D03*
X250840000Y-56640000D03*
D20*
X249470000Y-71390000D03*
D18*
X209520000Y-53567918D03*
X248300000Y-70760000D03*
X250476027Y-68553876D03*
D20*
X210320000Y-62190000D03*
D18*
X238470000Y-50680500D03*
X231470000Y-73690000D03*
X246045000Y-54235000D03*
X233225000Y-64955000D03*
X233253028Y-50217067D03*
X213600000Y-52980000D03*
X208890000Y-76290000D03*
X242362646Y-65454500D03*
X238060000Y-75000000D03*
X242680000Y-72820000D03*
X236770000Y-74870000D03*
X241074858Y-65514858D03*
X238875000Y-57435000D03*
X251571500Y-58845906D03*
X239889500Y-59955500D03*
X230060000Y-52250000D03*
X223480000Y-50610000D03*
X244813008Y-57337393D03*
X237310000Y-55640000D03*
X238440000Y-59830000D03*
X244455000Y-71385000D03*
X245440000Y-80530000D03*
X247361500Y-66997503D03*
X248630000Y-77530000D03*
X248145636Y-69709730D03*
X247560000Y-79420000D03*
X238980000Y-63950000D03*
X238390000Y-63100000D03*
X219530000Y-68940000D03*
X223230000Y-64740000D03*
X244620000Y-60100000D03*
X250970000Y-63630000D03*
X249390000Y-67590000D03*
X243810000Y-60740000D03*
X243050000Y-57210000D03*
X245192794Y-58802794D03*
X238705740Y-53364500D03*
X250725769Y-59378583D03*
X253060000Y-59110000D03*
X238250000Y-65660000D03*
X239530000Y-65610000D03*
X242150000Y-62180000D03*
X257170000Y-62650000D03*
X261580500Y-70100000D03*
X261670000Y-64410000D03*
X255590000Y-65560000D03*
X261150000Y-58860000D03*
X205440000Y-60140000D03*
X230010000Y-62730000D03*
X223760000Y-60080000D03*
X245791645Y-65454500D03*
X244505000Y-81255000D03*
X236195969Y-54145500D03*
X204790000Y-72180000D03*
X231240000Y-53780000D03*
X230690000Y-66220000D03*
X228930000Y-64200000D03*
X221470000Y-62450000D03*
X205460000Y-64350000D03*
X230280000Y-64510000D03*
X205410000Y-61500000D03*
X220620000Y-61484500D03*
D21*
X200914000Y-52578000D02*
X203835000Y-52578000D01*
X200914000Y-66548000D02*
X202819000Y-66548000D01*
X202819000Y-66548000D02*
X202946000Y-66421000D01*
G04 #@! TA.AperFunction,Conductor*
G36*
X246948747Y-78741133D02*
G01*
X246820958Y-78883057D01*
X246725472Y-79048443D01*
X246666458Y-79230070D01*
X246646496Y-79420000D01*
X246666458Y-79609929D01*
X246725472Y-79791556D01*
X246820958Y-79956942D01*
X246867690Y-80008843D01*
X246948747Y-80098866D01*
X247103248Y-80211118D01*
X247277712Y-80288794D01*
X247464513Y-80328500D01*
X247464515Y-80328500D01*
X247655485Y-80328500D01*
X247655487Y-80328500D01*
X247842288Y-80288794D01*
X248016752Y-80211118D01*
X248171253Y-80098866D01*
X248299040Y-79956944D01*
X248394527Y-79791556D01*
X248453542Y-79609928D01*
X248473504Y-79420000D01*
X248453542Y-79230072D01*
X248394527Y-79048444D01*
X248325566Y-78929000D01*
X248308828Y-78860005D01*
X248332048Y-78792913D01*
X248387855Y-78749026D01*
X248434685Y-78740000D01*
X252910000Y-78740000D01*
X260209478Y-78740000D01*
X260196458Y-78780070D01*
X260196457Y-78780072D01*
X260196458Y-78780072D01*
X260176496Y-78970000D01*
X260196458Y-79159928D01*
X260201864Y-79176566D01*
X260203892Y-79247530D01*
X260167230Y-79308329D01*
X260103518Y-79339654D01*
X260082031Y-79341500D01*
X257770173Y-79341500D01*
X257767520Y-79341725D01*
X257767515Y-79341726D01*
X257591101Y-79356740D01*
X257359077Y-79417155D01*
X257140597Y-79515914D01*
X256941954Y-79650174D01*
X256768853Y-79816077D01*
X256626287Y-80008838D01*
X256518341Y-80222936D01*
X256448135Y-80452186D01*
X256417681Y-80690006D01*
X256424860Y-80859018D01*
X256407767Y-80927926D01*
X256373036Y-80966301D01*
X256356323Y-80978444D01*
X256237094Y-81065070D01*
X256228746Y-81071135D01*
X256100958Y-81213057D01*
X256005472Y-81378443D01*
X255946458Y-81560070D01*
X255926496Y-81750000D01*
X255946458Y-81939929D01*
X256005472Y-82121556D01*
X256100958Y-82286942D01*
X256111626Y-82298790D01*
X256228747Y-82428866D01*
X256383248Y-82541118D01*
X256557712Y-82618794D01*
X256744513Y-82658500D01*
X256744515Y-82658500D01*
X256935485Y-82658500D01*
X256935487Y-82658500D01*
X257122288Y-82618794D01*
X257296752Y-82541118D01*
X257451253Y-82428866D01*
X257579040Y-82286944D01*
X257616822Y-82221501D01*
X257668206Y-82172507D01*
X257725943Y-82158500D01*
X260087161Y-82158500D01*
X260089827Y-82158500D01*
X260268898Y-82143259D01*
X260500924Y-82082844D01*
X260719402Y-81984086D01*
X260918047Y-81849825D01*
X261091144Y-81683925D01*
X261233715Y-81491157D01*
X261341657Y-81277067D01*
X261411864Y-81047815D01*
X261442318Y-80809995D01*
X261441675Y-80794850D01*
X261458766Y-80725941D01*
X261510400Y-80677212D01*
X261567561Y-80663500D01*
X261700485Y-80663500D01*
X261700487Y-80663500D01*
X261887288Y-80623794D01*
X262061752Y-80546118D01*
X262216253Y-80433866D01*
X262344040Y-80291944D01*
X262439527Y-80126556D01*
X262468460Y-80037507D01*
X262508533Y-79978904D01*
X262573930Y-79951266D01*
X262643886Y-79963373D01*
X262679258Y-79989260D01*
X262796075Y-80111144D01*
X262796077Y-80111146D01*
X262988838Y-80253712D01*
X262988840Y-80253713D01*
X262988843Y-80253715D01*
X263202933Y-80361657D01*
X263432185Y-80431864D01*
X263670005Y-80462318D01*
X263909551Y-80452143D01*
X264143932Y-80401630D01*
X264159999Y-80395173D01*
X264159999Y-87499604D01*
X198120000Y-87509267D01*
X198120000Y-85548500D01*
X199650269Y-85548500D01*
X199653638Y-85548500D01*
X199714201Y-85541989D01*
X199851204Y-85490889D01*
X199968261Y-85403261D01*
X200055889Y-85286204D01*
X200099999Y-85167941D01*
X200142545Y-85111107D01*
X200209065Y-85086296D01*
X200278439Y-85101387D01*
X200310753Y-85126635D01*
X200348780Y-85167943D01*
X200371762Y-85192908D01*
X200491629Y-85286205D01*
X200549424Y-85331189D01*
X200747426Y-85438342D01*
X200960365Y-85511444D01*
X201182431Y-85548500D01*
X201182434Y-85548500D01*
X201407566Y-85548500D01*
X201407569Y-85548500D01*
X201629635Y-85511444D01*
X201842574Y-85438342D01*
X202040576Y-85331189D01*
X202218240Y-85192906D01*
X202370722Y-85027268D01*
X202459518Y-84891354D01*
X202513521Y-84845268D01*
X202583869Y-84835693D01*
X202648226Y-84865670D01*
X202670480Y-84891353D01*
X202759278Y-85027268D01*
X202850754Y-85126637D01*
X202911762Y-85192908D01*
X203031629Y-85286205D01*
X203089424Y-85331189D01*
X203287426Y-85438342D01*
X203500365Y-85511444D01*
X203722431Y-85548500D01*
X203722434Y-85548500D01*
X203947566Y-85548500D01*
X203947569Y-85548500D01*
X204169635Y-85511444D01*
X204382574Y-85438342D01*
X204580576Y-85331189D01*
X204758240Y-85192906D01*
X204910722Y-85027268D01*
X204999518Y-84891354D01*
X205053521Y-84845268D01*
X205123869Y-84835693D01*
X205188226Y-84865670D01*
X205210480Y-84891353D01*
X205299278Y-85027268D01*
X205390754Y-85126637D01*
X205451762Y-85192908D01*
X205571629Y-85286205D01*
X205629424Y-85331189D01*
X205827426Y-85438342D01*
X206040365Y-85511444D01*
X206262431Y-85548500D01*
X206262434Y-85548500D01*
X206487566Y-85548500D01*
X206487569Y-85548500D01*
X206709635Y-85511444D01*
X206922574Y-85438342D01*
X206974947Y-85409999D01*
X259226496Y-85409999D01*
X259246458Y-85599929D01*
X259305472Y-85781556D01*
X259400958Y-85946942D01*
X259400960Y-85946944D01*
X259528747Y-86088866D01*
X259683248Y-86201118D01*
X259857712Y-86278794D01*
X260044513Y-86318500D01*
X260044515Y-86318500D01*
X260235485Y-86318500D01*
X260235487Y-86318500D01*
X260422288Y-86278794D01*
X260596752Y-86201118D01*
X260751253Y-86088866D01*
X260879040Y-85946944D01*
X260974527Y-85781556D01*
X261033542Y-85599928D01*
X261053504Y-85410000D01*
X261033542Y-85220072D01*
X260974527Y-85038444D01*
X260974527Y-85038443D01*
X260879041Y-84873057D01*
X260751252Y-84731133D01*
X260596753Y-84618883D01*
X260596752Y-84618882D01*
X260422288Y-84541206D01*
X260235487Y-84501500D01*
X260044513Y-84501500D01*
X259919979Y-84527970D01*
X259857711Y-84541206D01*
X259683246Y-84618883D01*
X259528747Y-84731133D01*
X259400958Y-84873057D01*
X259305472Y-85038443D01*
X259246458Y-85220070D01*
X259226496Y-85409999D01*
X206974947Y-85409999D01*
X207120576Y-85331189D01*
X207298240Y-85192906D01*
X207450722Y-85027268D01*
X207573860Y-84838791D01*
X207664296Y-84632616D01*
X207719564Y-84414368D01*
X207738156Y-84190000D01*
X207719564Y-83965632D01*
X207664296Y-83747384D01*
X207573860Y-83541209D01*
X207450722Y-83352732D01*
X207298240Y-83187094D01*
X207298239Y-83187093D01*
X207298237Y-83187091D01*
X207120579Y-83048813D01*
X207120577Y-83048812D01*
X207120576Y-83048811D01*
X207104293Y-83039999D01*
X210617337Y-83039999D01*
X210635960Y-83276633D01*
X210691372Y-83507440D01*
X210782208Y-83726738D01*
X210896896Y-83913891D01*
X210896897Y-83913891D01*
X211487912Y-83322876D01*
X211549680Y-83440566D01*
X211662405Y-83567806D01*
X211802305Y-83664371D01*
X211847643Y-83681565D01*
X211256107Y-84273101D01*
X211256107Y-84273102D01*
X211443261Y-84387791D01*
X211662559Y-84478627D01*
X211893366Y-84534039D01*
X212130000Y-84552662D01*
X212366633Y-84534039D01*
X212597440Y-84478627D01*
X212816738Y-84387791D01*
X213003891Y-84273102D01*
X213003892Y-84273101D01*
X212412356Y-83681565D01*
X212457695Y-83664371D01*
X212597595Y-83567806D01*
X212710320Y-83440566D01*
X212772086Y-83322877D01*
X213363102Y-83913892D01*
X213363102Y-83913891D01*
X213477791Y-83726738D01*
X213568627Y-83507440D01*
X213624039Y-83276633D01*
X213642662Y-83040000D01*
X214116835Y-83040000D01*
X214135464Y-83276711D01*
X214190895Y-83507594D01*
X214281761Y-83726966D01*
X214405823Y-83929415D01*
X214560030Y-84109969D01*
X214740584Y-84264176D01*
X214943033Y-84388238D01*
X214943035Y-84388238D01*
X214943037Y-84388240D01*
X215162406Y-84479105D01*
X215337858Y-84521227D01*
X215393288Y-84534535D01*
X215411917Y-84536001D01*
X215630000Y-84553165D01*
X215866711Y-84534535D01*
X216097594Y-84479105D01*
X216316963Y-84388240D01*
X216519416Y-84264176D01*
X216699969Y-84109969D01*
X216854176Y-83929416D01*
X216978240Y-83726963D01*
X217069105Y-83507594D01*
X217124535Y-83276711D01*
X217143165Y-83040000D01*
X217616835Y-83040000D01*
X217635464Y-83276711D01*
X217690895Y-83507594D01*
X217781761Y-83726966D01*
X217905823Y-83929415D01*
X218060030Y-84109969D01*
X218240584Y-84264176D01*
X218443033Y-84388238D01*
X218443035Y-84388238D01*
X218443037Y-84388240D01*
X218662406Y-84479105D01*
X218837858Y-84521227D01*
X218893288Y-84534535D01*
X218910558Y-84535894D01*
X219130000Y-84553165D01*
X219366711Y-84534535D01*
X219597594Y-84479105D01*
X219816963Y-84388240D01*
X220019416Y-84264176D01*
X220199969Y-84109969D01*
X220354176Y-83929416D01*
X220478240Y-83726963D01*
X220569105Y-83507594D01*
X220624535Y-83276711D01*
X220643165Y-83040000D01*
X221117337Y-83040000D01*
X221135960Y-83276633D01*
X221191372Y-83507440D01*
X221282208Y-83726738D01*
X221396896Y-83913891D01*
X221396897Y-83913891D01*
X221987912Y-83322876D01*
X222049680Y-83440566D01*
X222162405Y-83567806D01*
X222302305Y-83664371D01*
X222347643Y-83681565D01*
X221756107Y-84273101D01*
X221756107Y-84273102D01*
X221943261Y-84387791D01*
X222162559Y-84478627D01*
X222393366Y-84534039D01*
X222630000Y-84552662D01*
X222866633Y-84534039D01*
X223097440Y-84478627D01*
X223316738Y-84387791D01*
X223503891Y-84273102D01*
X223503892Y-84273101D01*
X222912356Y-83681565D01*
X222957695Y-83664371D01*
X223097595Y-83567806D01*
X223210320Y-83440566D01*
X223272086Y-83322877D01*
X223863101Y-83913892D01*
X223863102Y-83913891D01*
X223977791Y-83726738D01*
X224068627Y-83507440D01*
X224124039Y-83276633D01*
X224142662Y-83039999D01*
X224124039Y-82803366D01*
X224068627Y-82572559D01*
X223977791Y-82353261D01*
X223863102Y-82166107D01*
X223863101Y-82166107D01*
X223272086Y-82757122D01*
X223210320Y-82639434D01*
X223097595Y-82512194D01*
X222957695Y-82415629D01*
X222912355Y-82398433D01*
X223503891Y-81806897D01*
X223503891Y-81806896D01*
X223430678Y-81762031D01*
X224254622Y-81762031D01*
X224274584Y-81951960D01*
X224333598Y-82133587D01*
X224429084Y-82298973D01*
X224556873Y-82440897D01*
X224629761Y-82493853D01*
X224673115Y-82550075D01*
X224679190Y-82620811D01*
X224678219Y-82625203D01*
X224635465Y-82803288D01*
X224616835Y-83039999D01*
X224635464Y-83276711D01*
X224690895Y-83507594D01*
X224781761Y-83726966D01*
X224905823Y-83929415D01*
X225060030Y-84109969D01*
X225240584Y-84264176D01*
X225443033Y-84388238D01*
X225443035Y-84388238D01*
X225443037Y-84388240D01*
X225662406Y-84479105D01*
X225837857Y-84521227D01*
X225893288Y-84534535D01*
X225911918Y-84536001D01*
X226130000Y-84553165D01*
X226366711Y-84534535D01*
X226597594Y-84479105D01*
X226816963Y-84388240D01*
X227019416Y-84264176D01*
X227199969Y-84109969D01*
X227354176Y-83929416D01*
X227478240Y-83726963D01*
X227569105Y-83507594D01*
X227624535Y-83276711D01*
X227643165Y-83040000D01*
X227643165Y-83039999D01*
X228116835Y-83039999D01*
X228135464Y-83276711D01*
X228190895Y-83507594D01*
X228281761Y-83726966D01*
X228405823Y-83929415D01*
X228560030Y-84109969D01*
X228740584Y-84264176D01*
X228943033Y-84388238D01*
X228943035Y-84388238D01*
X228943037Y-84388240D01*
X229162406Y-84479105D01*
X229337858Y-84521227D01*
X229393288Y-84534535D01*
X229410558Y-84535894D01*
X229630000Y-84553165D01*
X229866711Y-84534535D01*
X230097594Y-84479105D01*
X230316963Y-84388240D01*
X230519416Y-84264176D01*
X230699969Y-84109969D01*
X230854176Y-83929416D01*
X230978240Y-83726963D01*
X231069105Y-83507594D01*
X231124535Y-83276711D01*
X231143165Y-83040000D01*
X231143165Y-83039999D01*
X231617337Y-83039999D01*
X231635960Y-83276633D01*
X231691372Y-83507440D01*
X231782208Y-83726738D01*
X231896896Y-83913891D01*
X231896898Y-83913891D01*
X232487912Y-83322876D01*
X232549680Y-83440566D01*
X232662405Y-83567806D01*
X232802305Y-83664371D01*
X232847643Y-83681565D01*
X232256107Y-84273101D01*
X232256107Y-84273102D01*
X232443261Y-84387791D01*
X232662559Y-84478627D01*
X232893366Y-84534039D01*
X233129999Y-84552662D01*
X233366633Y-84534039D01*
X233597440Y-84478627D01*
X233816738Y-84387791D01*
X234003891Y-84273102D01*
X234003892Y-84273101D01*
X233412356Y-83681565D01*
X233457695Y-83664371D01*
X233597595Y-83567806D01*
X233710320Y-83440566D01*
X233772086Y-83322877D01*
X234363102Y-83913892D01*
X234363102Y-83913891D01*
X234477791Y-83726738D01*
X234568627Y-83507440D01*
X234624039Y-83276633D01*
X234642662Y-83039999D01*
X235116835Y-83039999D01*
X235135464Y-83276711D01*
X235190895Y-83507594D01*
X235281761Y-83726966D01*
X235405823Y-83929415D01*
X235560030Y-84109969D01*
X235740584Y-84264176D01*
X235943033Y-84388238D01*
X235943035Y-84388238D01*
X235943037Y-84388240D01*
X236162406Y-84479105D01*
X236337857Y-84521227D01*
X236393288Y-84534535D01*
X236410558Y-84535894D01*
X236630000Y-84553165D01*
X236866711Y-84534535D01*
X237097594Y-84479105D01*
X237316963Y-84388240D01*
X237519416Y-84264176D01*
X237699969Y-84109969D01*
X237854176Y-83929416D01*
X237978240Y-83726963D01*
X238069105Y-83507594D01*
X238124535Y-83276711D01*
X238131588Y-83187094D01*
X238140441Y-83074614D01*
X238165727Y-83008272D01*
X238222865Y-82966133D01*
X238266053Y-82958500D01*
X238295489Y-82958500D01*
X238464702Y-82922532D01*
X238535492Y-82927933D01*
X238592125Y-82970750D01*
X238616511Y-83035892D01*
X238635464Y-83276711D01*
X238690895Y-83507594D01*
X238781761Y-83726966D01*
X238905823Y-83929415D01*
X239060030Y-84109969D01*
X239240584Y-84264176D01*
X239443033Y-84388238D01*
X239443035Y-84388238D01*
X239443037Y-84388240D01*
X239662406Y-84479105D01*
X239837857Y-84521227D01*
X239893288Y-84534535D01*
X239911917Y-84536001D01*
X240130000Y-84553165D01*
X240366711Y-84534535D01*
X240597594Y-84479105D01*
X240816963Y-84388240D01*
X241019416Y-84264176D01*
X241199969Y-84109969D01*
X241354176Y-83929416D01*
X241478240Y-83726963D01*
X241569105Y-83507594D01*
X241624535Y-83276711D01*
X241643165Y-83040000D01*
X241643165Y-83039999D01*
X242117337Y-83039999D01*
X242135960Y-83276633D01*
X242191372Y-83507440D01*
X242282208Y-83726738D01*
X242396896Y-83913891D01*
X242396897Y-83913891D01*
X242987912Y-83322876D01*
X243049680Y-83440566D01*
X243162405Y-83567806D01*
X243302305Y-83664371D01*
X243347642Y-83681565D01*
X242756107Y-84273100D01*
X242756107Y-84273102D01*
X242943261Y-84387791D01*
X243162559Y-84478627D01*
X243393366Y-84534039D01*
X243629999Y-84552662D01*
X243866633Y-84534039D01*
X244097440Y-84478627D01*
X244316738Y-84387791D01*
X244503891Y-84273102D01*
X244503892Y-84273102D01*
X243912355Y-83681566D01*
X243957695Y-83664371D01*
X244097595Y-83567806D01*
X244210320Y-83440566D01*
X244272087Y-83322877D01*
X244863101Y-83913892D01*
X244863102Y-83913891D01*
X244977791Y-83726738D01*
X245068627Y-83507440D01*
X245124039Y-83276633D01*
X245142662Y-83040000D01*
X245616835Y-83040000D01*
X245635464Y-83276711D01*
X245690895Y-83507594D01*
X245781761Y-83726966D01*
X245905823Y-83929415D01*
X246060030Y-84109969D01*
X246240584Y-84264176D01*
X246443033Y-84388238D01*
X246443035Y-84388238D01*
X246443037Y-84388240D01*
X246662406Y-84479105D01*
X246837858Y-84521227D01*
X246893288Y-84534535D01*
X246910558Y-84535894D01*
X247130000Y-84553165D01*
X247366711Y-84534535D01*
X247597594Y-84479105D01*
X247816963Y-84388240D01*
X248019416Y-84264176D01*
X248199969Y-84109969D01*
X248354176Y-83929416D01*
X248478240Y-83726963D01*
X248569105Y-83507594D01*
X248624535Y-83276711D01*
X248643165Y-83040000D01*
X248643165Y-83039999D01*
X249116835Y-83039999D01*
X249135464Y-83276711D01*
X249190895Y-83507594D01*
X249281761Y-83726966D01*
X249405823Y-83929415D01*
X249560030Y-84109969D01*
X249740584Y-84264176D01*
X249943033Y-84388238D01*
X249943035Y-84388238D01*
X249943037Y-84388240D01*
X250162406Y-84479105D01*
X250337857Y-84521227D01*
X250393288Y-84534535D01*
X250410558Y-84535894D01*
X250630000Y-84553165D01*
X250866711Y-84534535D01*
X251097594Y-84479105D01*
X251316963Y-84388240D01*
X251519416Y-84264176D01*
X251699969Y-84109969D01*
X251854176Y-83929416D01*
X251978240Y-83726963D01*
X252069105Y-83507594D01*
X252124535Y-83276711D01*
X252143165Y-83040000D01*
X252124535Y-82803289D01*
X252121629Y-82791186D01*
X252108656Y-82737147D01*
X252069105Y-82572406D01*
X251978240Y-82353037D01*
X251961469Y-82325670D01*
X251854176Y-82150584D01*
X251699969Y-81970030D01*
X251519415Y-81815823D01*
X251316966Y-81691761D01*
X251097594Y-81600895D01*
X250866711Y-81545464D01*
X250636378Y-81527337D01*
X250630000Y-81526835D01*
X250629999Y-81526835D01*
X250393288Y-81545464D01*
X250162405Y-81600895D01*
X249943033Y-81691761D01*
X249740584Y-81815823D01*
X249560030Y-81970030D01*
X249405823Y-82150584D01*
X249281761Y-82353033D01*
X249190895Y-82572405D01*
X249135464Y-82803288D01*
X249116835Y-83039999D01*
X248643165Y-83039999D01*
X248624535Y-82803289D01*
X248621629Y-82791186D01*
X248608656Y-82737147D01*
X248569105Y-82572406D01*
X248478240Y-82353037D01*
X248461469Y-82325670D01*
X248354176Y-82150584D01*
X248199969Y-81970030D01*
X248019415Y-81815823D01*
X247816966Y-81691761D01*
X247597594Y-81600895D01*
X247366711Y-81545464D01*
X247130000Y-81526835D01*
X246893288Y-81545464D01*
X246662405Y-81600895D01*
X246443033Y-81691761D01*
X246240584Y-81815823D01*
X246060030Y-81970030D01*
X245905823Y-82150584D01*
X245781761Y-82353033D01*
X245690895Y-82572405D01*
X245635464Y-82803288D01*
X245616835Y-83040000D01*
X245142662Y-83040000D01*
X245124039Y-82803366D01*
X245068627Y-82572559D01*
X244977792Y-82353264D01*
X244901550Y-82228850D01*
X244883011Y-82160316D01*
X244904467Y-82092639D01*
X244957738Y-82047905D01*
X244957992Y-82047792D01*
X244961752Y-82046118D01*
X245116253Y-81933866D01*
X245244040Y-81791944D01*
X245339527Y-81626556D01*
X245364516Y-81549648D01*
X245372342Y-81525564D01*
X245412416Y-81466958D01*
X245477812Y-81439321D01*
X245492175Y-81438500D01*
X245535485Y-81438500D01*
X245535487Y-81438500D01*
X245722288Y-81398794D01*
X245896752Y-81321118D01*
X246051253Y-81208866D01*
X246179040Y-81066944D01*
X246274527Y-80901556D01*
X246333542Y-80719928D01*
X246353504Y-80530000D01*
X246333542Y-80340072D01*
X246274527Y-80158444D01*
X246274527Y-80158443D01*
X246179041Y-79993057D01*
X246051252Y-79851133D01*
X245896753Y-79738883D01*
X245896752Y-79738882D01*
X245722288Y-79661206D01*
X245535487Y-79621500D01*
X245344513Y-79621500D01*
X245219978Y-79647970D01*
X245157711Y-79661206D01*
X244983246Y-79738883D01*
X244828747Y-79851133D01*
X244700958Y-79993057D01*
X244605472Y-80158444D01*
X244572658Y-80259436D01*
X244532584Y-80318042D01*
X244467188Y-80345679D01*
X244452825Y-80346500D01*
X244409513Y-80346500D01*
X244338201Y-80361658D01*
X244222711Y-80386206D01*
X244048246Y-80463883D01*
X243893747Y-80576133D01*
X243765958Y-80718057D01*
X243670472Y-80883443D01*
X243611458Y-81065070D01*
X243591496Y-81255000D01*
X243606680Y-81399474D01*
X243593907Y-81469313D01*
X243545405Y-81521159D01*
X243491256Y-81538256D01*
X243393366Y-81545960D01*
X243162559Y-81601372D01*
X242943264Y-81692207D01*
X242756107Y-81806896D01*
X242756107Y-81806897D01*
X243347644Y-82398433D01*
X243302305Y-82415629D01*
X243162405Y-82512194D01*
X243049680Y-82639434D01*
X242987913Y-82757122D01*
X242396898Y-82166107D01*
X242396896Y-82166107D01*
X242282207Y-82353264D01*
X242191372Y-82572559D01*
X242135960Y-82803366D01*
X242117337Y-83039999D01*
X241643165Y-83039999D01*
X241624535Y-82803289D01*
X241621629Y-82791186D01*
X241608656Y-82737147D01*
X241569105Y-82572406D01*
X241478240Y-82353037D01*
X241461469Y-82325670D01*
X241354176Y-82150584D01*
X241199969Y-81970030D01*
X241019415Y-81815823D01*
X240816966Y-81691761D01*
X240597594Y-81600895D01*
X240366711Y-81545464D01*
X240130000Y-81526835D01*
X239893288Y-81545464D01*
X239662405Y-81600895D01*
X239443033Y-81691761D01*
X239242246Y-81814805D01*
X239173713Y-81833344D01*
X239106036Y-81811888D01*
X239060703Y-81757249D01*
X239056578Y-81746309D01*
X239034527Y-81678443D01*
X238939041Y-81513057D01*
X238811252Y-81371133D01*
X238656753Y-81258883D01*
X238656752Y-81258882D01*
X238482288Y-81181206D01*
X238295487Y-81141500D01*
X238104513Y-81141500D01*
X238001515Y-81163393D01*
X237917711Y-81181206D01*
X237743246Y-81258883D01*
X237588747Y-81371133D01*
X237460959Y-81513055D01*
X237405155Y-81609711D01*
X237353772Y-81658704D01*
X237284058Y-81672139D01*
X237247818Y-81663119D01*
X237097595Y-81600895D01*
X236866711Y-81545464D01*
X236630000Y-81526835D01*
X236393288Y-81545464D01*
X236162405Y-81600895D01*
X235943033Y-81691761D01*
X235740584Y-81815823D01*
X235560030Y-81970030D01*
X235405823Y-82150584D01*
X235281761Y-82353033D01*
X235190895Y-82572405D01*
X235135464Y-82803288D01*
X235116835Y-83039999D01*
X234642662Y-83039999D01*
X234624039Y-82803366D01*
X234568627Y-82572559D01*
X234477791Y-82353261D01*
X234363102Y-82166107D01*
X234363100Y-82166107D01*
X233772086Y-82757120D01*
X233710320Y-82639434D01*
X233597595Y-82512194D01*
X233457695Y-82415629D01*
X233412355Y-82398433D01*
X234003891Y-81806897D01*
X234003891Y-81806896D01*
X233816738Y-81692208D01*
X233597440Y-81601372D01*
X233366633Y-81545960D01*
X233130000Y-81527337D01*
X232893366Y-81545960D01*
X232662559Y-81601372D01*
X232443264Y-81692207D01*
X232256107Y-81806896D01*
X232256107Y-81806898D01*
X232847643Y-82398434D01*
X232802305Y-82415629D01*
X232662405Y-82512194D01*
X232549680Y-82639434D01*
X232487912Y-82757122D01*
X231896897Y-82166107D01*
X231896896Y-82166107D01*
X231782207Y-82353264D01*
X231691372Y-82572559D01*
X231635960Y-82803366D01*
X231617337Y-83039999D01*
X231143165Y-83039999D01*
X231124535Y-82803289D01*
X231121629Y-82791186D01*
X231108656Y-82737147D01*
X231069105Y-82572406D01*
X230978240Y-82353037D01*
X230961469Y-82325670D01*
X230854176Y-82150584D01*
X230699969Y-81970030D01*
X230519415Y-81815823D01*
X230316966Y-81691761D01*
X230097594Y-81600895D01*
X229866711Y-81545464D01*
X229636378Y-81527337D01*
X229630000Y-81526835D01*
X229629999Y-81526835D01*
X229393288Y-81545464D01*
X229162405Y-81600895D01*
X228943033Y-81691761D01*
X228740584Y-81815823D01*
X228560030Y-81970030D01*
X228405823Y-82150584D01*
X228281761Y-82353033D01*
X228190895Y-82572405D01*
X228135464Y-82803288D01*
X228116835Y-83039999D01*
X227643165Y-83039999D01*
X227624535Y-82803289D01*
X227621629Y-82791186D01*
X227608656Y-82737147D01*
X227569105Y-82572406D01*
X227478240Y-82353037D01*
X227461469Y-82325670D01*
X227354176Y-82150584D01*
X227199969Y-81970030D01*
X227019415Y-81815823D01*
X226816966Y-81691761D01*
X226597594Y-81600895D01*
X226366711Y-81545464D01*
X226128710Y-81526733D01*
X226062368Y-81501447D01*
X226020229Y-81444309D01*
X226018763Y-81440056D01*
X226002653Y-81390475D01*
X225907167Y-81225088D01*
X225779378Y-81083164D01*
X225666577Y-81001209D01*
X225624878Y-80970913D01*
X225450414Y-80893237D01*
X225263613Y-80853531D01*
X225072639Y-80853531D01*
X224948104Y-80880001D01*
X224885837Y-80893237D01*
X224711372Y-80970914D01*
X224556873Y-81083164D01*
X224429084Y-81225088D01*
X224333598Y-81390474D01*
X224274584Y-81572101D01*
X224254622Y-81762031D01*
X223430678Y-81762031D01*
X223316738Y-81692208D01*
X223097440Y-81601372D01*
X222866633Y-81545960D01*
X222630000Y-81527337D01*
X222393366Y-81545960D01*
X222162559Y-81601372D01*
X221943264Y-81692207D01*
X221756107Y-81806896D01*
X221756107Y-81806898D01*
X222347643Y-82398434D01*
X222302305Y-82415629D01*
X222162405Y-82512194D01*
X222049680Y-82639434D01*
X221987913Y-82757121D01*
X221396898Y-82166107D01*
X221396896Y-82166107D01*
X221282207Y-82353264D01*
X221191372Y-82572559D01*
X221135960Y-82803366D01*
X221117337Y-83040000D01*
X220643165Y-83040000D01*
X220624535Y-82803289D01*
X220621629Y-82791186D01*
X220608656Y-82737147D01*
X220569105Y-82572406D01*
X220478240Y-82353037D01*
X220461469Y-82325670D01*
X220354176Y-82150584D01*
X220199969Y-81970030D01*
X220019415Y-81815823D01*
X219816966Y-81691761D01*
X219597594Y-81600895D01*
X219366711Y-81545464D01*
X219136378Y-81527337D01*
X219130000Y-81526835D01*
X219129999Y-81526835D01*
X218893288Y-81545464D01*
X218662405Y-81600895D01*
X218443033Y-81691761D01*
X218240584Y-81815823D01*
X218060030Y-81970030D01*
X217905823Y-82150584D01*
X217781761Y-82353033D01*
X217690895Y-82572405D01*
X217635464Y-82803288D01*
X217616835Y-83040000D01*
X217143165Y-83040000D01*
X217124535Y-82803289D01*
X217121629Y-82791186D01*
X217108656Y-82737147D01*
X217069105Y-82572406D01*
X216978240Y-82353037D01*
X216961469Y-82325670D01*
X216854178Y-82150587D01*
X216854177Y-82150586D01*
X216854176Y-82150584D01*
X216854118Y-82150516D01*
X216854073Y-82150415D01*
X216848995Y-82142129D01*
X216850065Y-82141472D01*
X216825086Y-82085729D01*
X216835690Y-82015528D01*
X216856292Y-81984374D01*
X216861248Y-81978869D01*
X216861253Y-81978866D01*
X216989040Y-81836944D01*
X217084527Y-81671556D01*
X217143542Y-81489928D01*
X217163504Y-81300000D01*
X217143542Y-81110072D01*
X217099436Y-80974328D01*
X217084527Y-80928443D01*
X216989041Y-80763057D01*
X216861252Y-80621133D01*
X216706753Y-80508883D01*
X216706752Y-80508882D01*
X216532288Y-80431206D01*
X216345487Y-80391500D01*
X216154513Y-80391500D01*
X216029979Y-80417970D01*
X215967711Y-80431206D01*
X215827696Y-80493544D01*
X215793408Y-80508811D01*
X215793246Y-80508883D01*
X215638747Y-80621133D01*
X215510958Y-80763057D01*
X215415472Y-80928443D01*
X215356458Y-81110070D01*
X215336496Y-81300000D01*
X215351507Y-81442828D01*
X215338734Y-81512667D01*
X215290232Y-81564513D01*
X215255613Y-81578516D01*
X215162407Y-81600893D01*
X214943033Y-81691761D01*
X214740584Y-81815823D01*
X214560030Y-81970030D01*
X214405823Y-82150584D01*
X214281761Y-82353033D01*
X214190895Y-82572405D01*
X214135464Y-82803288D01*
X214116835Y-83040000D01*
X213642662Y-83040000D01*
X213624039Y-82803366D01*
X213568627Y-82572559D01*
X213477791Y-82353261D01*
X213363102Y-82166107D01*
X213363100Y-82166107D01*
X212772086Y-82757120D01*
X212710320Y-82639434D01*
X212597595Y-82512194D01*
X212457695Y-82415629D01*
X212412355Y-82398433D01*
X213003891Y-81806897D01*
X213003891Y-81806896D01*
X212816738Y-81692208D01*
X212597440Y-81601372D01*
X212366633Y-81545960D01*
X212130000Y-81527337D01*
X211893366Y-81545960D01*
X211662559Y-81601372D01*
X211443264Y-81692207D01*
X211256107Y-81806896D01*
X211256107Y-81806898D01*
X211847643Y-82398434D01*
X211802305Y-82415629D01*
X211662405Y-82512194D01*
X211549680Y-82639434D01*
X211487913Y-82757122D01*
X210896898Y-82166107D01*
X210896896Y-82166107D01*
X210782207Y-82353264D01*
X210691372Y-82572559D01*
X210635960Y-82803366D01*
X210617337Y-83039999D01*
X207104293Y-83039999D01*
X207087317Y-83030812D01*
X207036929Y-82980801D01*
X207021576Y-82911484D01*
X207046136Y-82844871D01*
X207087316Y-82809187D01*
X207120576Y-82791189D01*
X207298240Y-82652906D01*
X207450722Y-82487268D01*
X207573860Y-82298791D01*
X207664296Y-82092616D01*
X207719564Y-81874368D01*
X207738156Y-81650000D01*
X207719564Y-81425632D01*
X207700411Y-81350000D01*
X208446496Y-81350000D01*
X208466458Y-81539929D01*
X208525472Y-81721556D01*
X208620958Y-81886942D01*
X208695771Y-81970030D01*
X208748747Y-82028866D01*
X208903248Y-82141118D01*
X209077712Y-82218794D01*
X209264513Y-82258500D01*
X209264515Y-82258500D01*
X209455485Y-82258500D01*
X209455487Y-82258500D01*
X209642288Y-82218794D01*
X209816752Y-82141118D01*
X209971253Y-82028866D01*
X210099040Y-81886944D01*
X210194527Y-81721556D01*
X210253542Y-81539928D01*
X210273504Y-81350000D01*
X210253542Y-81160072D01*
X210194527Y-80978444D01*
X210194527Y-80978443D01*
X210099041Y-80813057D01*
X209988245Y-80690006D01*
X209971253Y-80671134D01*
X209816752Y-80558882D01*
X209642288Y-80481206D01*
X209455487Y-80441500D01*
X209264513Y-80441500D01*
X209166573Y-80462318D01*
X209077711Y-80481206D01*
X208903246Y-80558883D01*
X208748747Y-80671133D01*
X208620958Y-80813057D01*
X208525472Y-80978443D01*
X208466458Y-81160070D01*
X208446496Y-81350000D01*
X207700411Y-81350000D01*
X207664296Y-81207384D01*
X207573860Y-81001209D01*
X207450722Y-80812732D01*
X207298240Y-80647094D01*
X207298239Y-80647093D01*
X207298237Y-80647091D01*
X207120578Y-80508812D01*
X206922573Y-80401657D01*
X206761904Y-80346500D01*
X206709635Y-80328556D01*
X206487569Y-80291500D01*
X206262431Y-80291500D01*
X206040365Y-80328556D01*
X206040362Y-80328556D01*
X206040362Y-80328557D01*
X205827426Y-80401657D01*
X205629421Y-80508812D01*
X205451762Y-80647091D01*
X205299278Y-80812731D01*
X205210483Y-80948643D01*
X205156479Y-80994731D01*
X205086131Y-81004306D01*
X205021774Y-80974328D01*
X204999517Y-80948643D01*
X204985982Y-80927926D01*
X204910722Y-80812732D01*
X204758240Y-80647094D01*
X204758239Y-80647093D01*
X204758237Y-80647091D01*
X204580578Y-80508812D01*
X204382573Y-80401657D01*
X204221904Y-80346500D01*
X204169635Y-80328556D01*
X203947569Y-80291500D01*
X203722431Y-80291500D01*
X203500365Y-80328556D01*
X203500362Y-80328556D01*
X203500362Y-80328557D01*
X203287426Y-80401657D01*
X203089421Y-80508812D01*
X202911762Y-80647091D01*
X202759278Y-80812731D01*
X202670483Y-80948643D01*
X202616479Y-80994731D01*
X202546131Y-81004306D01*
X202481774Y-80974328D01*
X202459517Y-80948643D01*
X202445982Y-80927926D01*
X202370722Y-80812732D01*
X202218240Y-80647094D01*
X202218239Y-80647093D01*
X202218237Y-80647091D01*
X202040578Y-80508812D01*
X201842573Y-80401657D01*
X201681904Y-80346500D01*
X201629635Y-80328556D01*
X201407569Y-80291500D01*
X201182431Y-80291500D01*
X200960365Y-80328556D01*
X200960362Y-80328556D01*
X200960362Y-80328557D01*
X200747426Y-80401657D01*
X200549421Y-80508812D01*
X200371762Y-80647091D01*
X200219278Y-80812731D01*
X200130483Y-80948643D01*
X200076479Y-80994731D01*
X200006131Y-81004306D01*
X199941774Y-80974328D01*
X199919517Y-80948643D01*
X199905982Y-80927926D01*
X199830722Y-80812732D01*
X199678240Y-80647094D01*
X199678239Y-80647093D01*
X199678237Y-80647091D01*
X199500578Y-80508812D01*
X199302573Y-80401657D01*
X199141904Y-80346500D01*
X199089635Y-80328556D01*
X198867569Y-80291500D01*
X198642431Y-80291500D01*
X198420365Y-80328556D01*
X198420362Y-80328556D01*
X198420362Y-80328557D01*
X198207426Y-80401657D01*
X198120000Y-80448969D01*
X198120000Y-78740000D01*
X246950307Y-78740000D01*
X246948747Y-78741133D01*
G37*
G04 #@! TD.AperFunction*
G04 #@! TA.AperFunction,Conductor*
G36*
X264866033Y-47482317D02*
G01*
X264884948Y-47483747D01*
X264892687Y-47484923D01*
X264902829Y-47486465D01*
X264910996Y-47487856D01*
X264989446Y-47501224D01*
X265013525Y-47507847D01*
X265049242Y-47521614D01*
X265055451Y-47524203D01*
X265112352Y-47549762D01*
X265130297Y-47559650D01*
X265165566Y-47583011D01*
X265174768Y-47589723D01*
X265220471Y-47626339D01*
X265232256Y-47637074D01*
X265262300Y-47668140D01*
X265272638Y-47680281D01*
X265307710Y-47727187D01*
X265314112Y-47736609D01*
X265336274Y-47772627D01*
X265345559Y-47790898D01*
X265369185Y-47848578D01*
X265371604Y-47854972D01*
X265384142Y-47891049D01*
X265389970Y-47915392D01*
X265401745Y-48001781D01*
X265404217Y-48022749D01*
X265405067Y-48037217D01*
X265406787Y-63144854D01*
X265386793Y-63212977D01*
X265333142Y-63259476D01*
X265262870Y-63269588D01*
X265198285Y-63240102D01*
X265169220Y-63203423D01*
X265140735Y-63149149D01*
X265130256Y-63137321D01*
X265027929Y-63021817D01*
X264887930Y-62925182D01*
X264887929Y-62925181D01*
X264728871Y-62864859D01*
X264606155Y-62849959D01*
X264606149Y-62849958D01*
X264602372Y-62849500D01*
X263917628Y-62849500D01*
X263913851Y-62849958D01*
X263913844Y-62849959D01*
X263791128Y-62864859D01*
X263632070Y-62925181D01*
X263492072Y-63021816D01*
X263492071Y-63021817D01*
X263379266Y-63149148D01*
X263300210Y-63299775D01*
X263259500Y-63464944D01*
X263259500Y-63635056D01*
X263300210Y-63800225D01*
X263379266Y-63950852D01*
X263492071Y-64078183D01*
X263632070Y-64174818D01*
X263791128Y-64235140D01*
X263917628Y-64250500D01*
X263921437Y-64250500D01*
X264598563Y-64250500D01*
X264602372Y-64250500D01*
X264728872Y-64235140D01*
X264887930Y-64174818D01*
X265027929Y-64078183D01*
X265140734Y-63950852D01*
X265169314Y-63896397D01*
X265218679Y-63845378D01*
X265287795Y-63829145D01*
X265354715Y-63852856D01*
X265398193Y-63908983D01*
X265406879Y-63954941D01*
X265407770Y-71786728D01*
X265387776Y-71854851D01*
X265334125Y-71901350D01*
X265263853Y-71911462D01*
X265199268Y-71881976D01*
X265170206Y-71845302D01*
X265140734Y-71789148D01*
X265027929Y-71661817D01*
X264887930Y-71565182D01*
X264887929Y-71565181D01*
X264728871Y-71504859D01*
X264606155Y-71489959D01*
X264606149Y-71489958D01*
X264602372Y-71489500D01*
X263917628Y-71489500D01*
X263913851Y-71489958D01*
X263913844Y-71489959D01*
X263791128Y-71504859D01*
X263632070Y-71565181D01*
X263492072Y-71661816D01*
X263492071Y-71661817D01*
X263379266Y-71789148D01*
X263300210Y-71939775D01*
X263259500Y-72104944D01*
X263259500Y-72275056D01*
X263300210Y-72440225D01*
X263379266Y-72590852D01*
X263492071Y-72718183D01*
X263632070Y-72814818D01*
X263791128Y-72875140D01*
X263917628Y-72890500D01*
X263921437Y-72890500D01*
X264598563Y-72890500D01*
X264602372Y-72890500D01*
X264728872Y-72875140D01*
X264887930Y-72814818D01*
X265027929Y-72718183D01*
X265140734Y-72590852D01*
X265170297Y-72534524D01*
X265219662Y-72483505D01*
X265288778Y-72467272D01*
X265355698Y-72490983D01*
X265399176Y-72547110D01*
X265407862Y-72593068D01*
X265409497Y-86960599D01*
X265408110Y-86979258D01*
X265405344Y-86997744D01*
X265391291Y-87081487D01*
X265384922Y-87105083D01*
X265371626Y-87140318D01*
X265369099Y-87146510D01*
X265344645Y-87202176D01*
X265335153Y-87219823D01*
X265312598Y-87254772D01*
X265306148Y-87263858D01*
X265271016Y-87308978D01*
X265260694Y-87320663D01*
X265230663Y-87350694D01*
X265218978Y-87361016D01*
X265173858Y-87396148D01*
X265164772Y-87402598D01*
X265129823Y-87425153D01*
X265112176Y-87434645D01*
X265056510Y-87459099D01*
X265050320Y-87461625D01*
X265015098Y-87474917D01*
X264991464Y-87481294D01*
X264907752Y-87495342D01*
X264905192Y-87495726D01*
X264889111Y-87498133D01*
X264870656Y-87499501D01*
X252909999Y-87501250D01*
X252909999Y-85410000D01*
X259534318Y-85410000D01*
X259554955Y-85566761D01*
X259615464Y-85712842D01*
X259711717Y-85838282D01*
X259837157Y-85934535D01*
X259837158Y-85934535D01*
X259837159Y-85934536D01*
X259983238Y-85995044D01*
X260140000Y-86015682D01*
X260296762Y-85995044D01*
X260442841Y-85934536D01*
X260568282Y-85838282D01*
X260664536Y-85712841D01*
X260725044Y-85566762D01*
X260745682Y-85410000D01*
X260725044Y-85253238D01*
X260664536Y-85107159D01*
X260664535Y-85107158D01*
X260664535Y-85107157D01*
X260568282Y-84981717D01*
X260442842Y-84885464D01*
X260296761Y-84824955D01*
X260140000Y-84804318D01*
X259983238Y-84824955D01*
X259837157Y-84885464D01*
X259711717Y-84981717D01*
X259615464Y-85107157D01*
X259554955Y-85253238D01*
X259534318Y-85410000D01*
X252909999Y-85410000D01*
X252909999Y-81749999D01*
X256234318Y-81749999D01*
X256254955Y-81906761D01*
X256315464Y-82052842D01*
X256411717Y-82178282D01*
X256537157Y-82274535D01*
X256537158Y-82274535D01*
X256537159Y-82274536D01*
X256683238Y-82335044D01*
X256840000Y-82355682D01*
X256996762Y-82335044D01*
X257142841Y-82274536D01*
X257268282Y-82178282D01*
X257364536Y-82052842D01*
X257386023Y-82000965D01*
X257425044Y-81906762D01*
X257425044Y-81906759D01*
X257429462Y-81896094D01*
X257474010Y-81840812D01*
X257541373Y-81818391D01*
X257569717Y-81820588D01*
X257724915Y-81850500D01*
X260079424Y-81850500D01*
X260082425Y-81850500D01*
X260239218Y-81835528D01*
X260440875Y-81776316D01*
X260627682Y-81680011D01*
X260792886Y-81550092D01*
X260930519Y-81391256D01*
X261035604Y-81209244D01*
X261104344Y-81010633D01*
X261134254Y-80802602D01*
X261124254Y-80592670D01*
X261074704Y-80388424D01*
X261074425Y-80387273D01*
X261077803Y-80316357D01*
X261118985Y-80258524D01*
X261184896Y-80232138D01*
X261254609Y-80245574D01*
X261273577Y-80257605D01*
X261302157Y-80279535D01*
X261302158Y-80279535D01*
X261302159Y-80279536D01*
X261448238Y-80340044D01*
X261605000Y-80360682D01*
X261761762Y-80340044D01*
X261907841Y-80279536D01*
X262033282Y-80183282D01*
X262129536Y-80057841D01*
X262190044Y-79911762D01*
X262210682Y-79755000D01*
X262190044Y-79598238D01*
X262129536Y-79452159D01*
X262129535Y-79452158D01*
X262129535Y-79452157D01*
X262033282Y-79326717D01*
X261907843Y-79230465D01*
X261763458Y-79170658D01*
X261708178Y-79126109D01*
X261685757Y-79058746D01*
X261686754Y-79037810D01*
X261695682Y-78970000D01*
X261694476Y-78960843D01*
X261705414Y-78890697D01*
X261752542Y-78837598D01*
X261820895Y-78818407D01*
X261835831Y-78819474D01*
X261845000Y-78820682D01*
X262001762Y-78800044D01*
X262147841Y-78739536D01*
X262273282Y-78643282D01*
X262369536Y-78517841D01*
X262387090Y-78475460D01*
X262431639Y-78420179D01*
X262499003Y-78397758D01*
X262567794Y-78415316D01*
X262616172Y-78467278D01*
X262629500Y-78523678D01*
X262629500Y-79102425D01*
X262638785Y-79199666D01*
X262644472Y-79259220D01*
X262664292Y-79326718D01*
X262703684Y-79460875D01*
X262799989Y-79647682D01*
X262929908Y-79812886D01*
X263088744Y-79950519D01*
X263270756Y-80055604D01*
X263469367Y-80124344D01*
X263573382Y-80139299D01*
X263677396Y-80154254D01*
X263677397Y-80154253D01*
X263677398Y-80154254D01*
X263887330Y-80144254D01*
X264091576Y-80094704D01*
X264282753Y-80007396D01*
X264453952Y-79885486D01*
X264598986Y-79733378D01*
X264712613Y-79556572D01*
X264737449Y-79494536D01*
X264790724Y-79361460D01*
X264797421Y-79326717D01*
X264830500Y-79155085D01*
X264830500Y-76797575D01*
X264815528Y-76640782D01*
X264756316Y-76439125D01*
X264660011Y-76252318D01*
X264530092Y-76087114D01*
X264371256Y-75949481D01*
X264371255Y-75949480D01*
X264189244Y-75844396D01*
X263990630Y-75775655D01*
X263782603Y-75745745D01*
X263572670Y-75755745D01*
X263368425Y-75805295D01*
X263177246Y-75892603D01*
X263006045Y-76014515D01*
X262861015Y-76166620D01*
X262747384Y-76343431D01*
X262669275Y-76538539D01*
X262629500Y-76744914D01*
X262629500Y-77906321D01*
X262609498Y-77974442D01*
X262555842Y-78020935D01*
X262485568Y-78031039D01*
X262420988Y-78001545D01*
X262387091Y-77954540D01*
X262383616Y-77946152D01*
X262369536Y-77912159D01*
X262369534Y-77912156D01*
X262273282Y-77786717D01*
X262147842Y-77690464D01*
X262001761Y-77629955D01*
X261845000Y-77609318D01*
X261688238Y-77629955D01*
X261542157Y-77690464D01*
X261416717Y-77786717D01*
X261320464Y-77912157D01*
X261259955Y-78058238D01*
X261239318Y-78215000D01*
X261240523Y-78224157D01*
X261229583Y-78294305D01*
X261182454Y-78347403D01*
X261114100Y-78366592D01*
X261099157Y-78365523D01*
X261090001Y-78364317D01*
X260933238Y-78384955D01*
X260787157Y-78445464D01*
X260661717Y-78541717D01*
X260565464Y-78667157D01*
X260504955Y-78813238D01*
X260484318Y-78970000D01*
X260504955Y-79126761D01*
X260565464Y-79272842D01*
X260661717Y-79398282D01*
X260787156Y-79494535D01*
X260825786Y-79510536D01*
X260931541Y-79554341D01*
X260986821Y-79598888D01*
X261009242Y-79666251D01*
X261008244Y-79687194D01*
X260999317Y-79755000D01*
X261012716Y-79856777D01*
X261001776Y-79926926D01*
X260954647Y-79980024D01*
X260886293Y-79999213D01*
X260818416Y-79978401D01*
X260800848Y-79964416D01*
X260713378Y-79881014D01*
X260642786Y-79835647D01*
X260536568Y-79767384D01*
X260341460Y-79689275D01*
X260135085Y-79649500D01*
X257777575Y-79649500D01*
X257710109Y-79655942D01*
X257620779Y-79664472D01*
X257469539Y-79708880D01*
X257419125Y-79723684D01*
X257246098Y-79812885D01*
X257232316Y-79819990D01*
X257067114Y-79949908D01*
X256929480Y-80108744D01*
X256824396Y-80290755D01*
X256755655Y-80489369D01*
X256725745Y-80697396D01*
X256735745Y-80907329D01*
X256762311Y-81016834D01*
X256758933Y-81087751D01*
X256717751Y-81145583D01*
X256688082Y-81162949D01*
X256537156Y-81225465D01*
X256411717Y-81321717D01*
X256315464Y-81447157D01*
X256254955Y-81593238D01*
X256234318Y-81749999D01*
X252909999Y-81749999D01*
X252909999Y-78740000D01*
X252910000Y-78740000D01*
X252910000Y-75869748D01*
X256529500Y-75869748D01*
X256541133Y-75928231D01*
X256585447Y-75994552D01*
X256615324Y-76014515D01*
X256651769Y-76038867D01*
X256710252Y-76050500D01*
X256710253Y-76050500D01*
X261149747Y-76050500D01*
X261149748Y-76050500D01*
X261208231Y-76038867D01*
X261274552Y-75994552D01*
X261318867Y-75928231D01*
X261330500Y-75869748D01*
X261330500Y-74074999D01*
X261699318Y-74074999D01*
X261719955Y-74231761D01*
X261780464Y-74377842D01*
X261876717Y-74503282D01*
X262002157Y-74599535D01*
X262002158Y-74599535D01*
X262002159Y-74599536D01*
X262148238Y-74660044D01*
X262305000Y-74680682D01*
X262461762Y-74660044D01*
X262607841Y-74599536D01*
X262733282Y-74503282D01*
X262829536Y-74377841D01*
X262890044Y-74231762D01*
X262910682Y-74075000D01*
X262890044Y-73918238D01*
X262829536Y-73772159D01*
X262829535Y-73772158D01*
X262829535Y-73772157D01*
X262733282Y-73646717D01*
X262607842Y-73550464D01*
X262461761Y-73489955D01*
X262325636Y-73472034D01*
X262305000Y-73469318D01*
X262304999Y-73469318D01*
X262148238Y-73489955D01*
X262002157Y-73550464D01*
X261876717Y-73646717D01*
X261780464Y-73772157D01*
X261719955Y-73918238D01*
X261699318Y-74074999D01*
X261330500Y-74074999D01*
X261330500Y-74030252D01*
X261318867Y-73971769D01*
X261304162Y-73949762D01*
X261274552Y-73905447D01*
X261208231Y-73861133D01*
X261208230Y-73861132D01*
X261149748Y-73849500D01*
X256710252Y-73849500D01*
X256681010Y-73855316D01*
X256651768Y-73861133D01*
X256585447Y-73905447D01*
X256541133Y-73971768D01*
X256541132Y-73971769D01*
X256541133Y-73971769D01*
X256529500Y-74030252D01*
X256529500Y-75869748D01*
X252910000Y-75869748D01*
X252910000Y-72538065D01*
X252930002Y-72469944D01*
X252969052Y-72433913D01*
X252968945Y-72433783D01*
X252971192Y-72431938D01*
X252976608Y-72426941D01*
X252978538Y-72425910D01*
X253130883Y-72300883D01*
X253255910Y-72148538D01*
X253303235Y-72059999D01*
X257724318Y-72059999D01*
X257744955Y-72216761D01*
X257805464Y-72362842D01*
X257901717Y-72488282D01*
X258027157Y-72584535D01*
X258027158Y-72584535D01*
X258027159Y-72584536D01*
X258173238Y-72645044D01*
X258330000Y-72665682D01*
X258486762Y-72645044D01*
X258632841Y-72584536D01*
X258737331Y-72504357D01*
X258803551Y-72478757D01*
X258873100Y-72493021D01*
X258923896Y-72542622D01*
X258925594Y-72545749D01*
X258949266Y-72590852D01*
X259062071Y-72718183D01*
X259202070Y-72814818D01*
X259361128Y-72875140D01*
X259487628Y-72890500D01*
X259491437Y-72890500D01*
X260668563Y-72890500D01*
X260672372Y-72890500D01*
X260798872Y-72875140D01*
X260957930Y-72814818D01*
X261097929Y-72718183D01*
X261210734Y-72590852D01*
X261289790Y-72440225D01*
X261330500Y-72275056D01*
X261330500Y-72104944D01*
X261289790Y-71939775D01*
X261210734Y-71789148D01*
X261097929Y-71661817D01*
X260957930Y-71565182D01*
X260957929Y-71565181D01*
X260843625Y-71521832D01*
X260787024Y-71478974D01*
X260762579Y-71412319D01*
X260778051Y-71343028D01*
X260828528Y-71293103D01*
X260840088Y-71287611D01*
X260900231Y-71262699D01*
X260900231Y-71262698D01*
X260900233Y-71262698D01*
X261020451Y-71170451D01*
X261112698Y-71050233D01*
X261170687Y-70910236D01*
X261190453Y-70760091D01*
X261219175Y-70695167D01*
X261278440Y-70656075D01*
X261349432Y-70655230D01*
X261363586Y-70660128D01*
X261423738Y-70685044D01*
X261580500Y-70705682D01*
X261737262Y-70685044D01*
X261883341Y-70624536D01*
X262008782Y-70528282D01*
X262061177Y-70459999D01*
X262424318Y-70459999D01*
X262444955Y-70616761D01*
X262505464Y-70762842D01*
X262601717Y-70888282D01*
X262727157Y-70984535D01*
X262727158Y-70984535D01*
X262727159Y-70984536D01*
X262873238Y-71045044D01*
X263030000Y-71065682D01*
X263186762Y-71045044D01*
X263332841Y-70984536D01*
X263458282Y-70888282D01*
X263554536Y-70762841D01*
X263615044Y-70616762D01*
X263635682Y-70460000D01*
X263615044Y-70303238D01*
X263554536Y-70157159D01*
X263554535Y-70157158D01*
X263554535Y-70157157D01*
X263458282Y-70031717D01*
X263332842Y-69935464D01*
X263186761Y-69874955D01*
X263050637Y-69857034D01*
X263030000Y-69854318D01*
X263029999Y-69854318D01*
X262873238Y-69874955D01*
X262727157Y-69935464D01*
X262601717Y-70031717D01*
X262505464Y-70157157D01*
X262444955Y-70303238D01*
X262424318Y-70459999D01*
X262061177Y-70459999D01*
X262105036Y-70402841D01*
X262165544Y-70256762D01*
X262186182Y-70100000D01*
X262165544Y-69943238D01*
X262105036Y-69797159D01*
X262105035Y-69797158D01*
X262105035Y-69797157D01*
X262008782Y-69671717D01*
X261883342Y-69575463D01*
X261846397Y-69560161D01*
X261791115Y-69515613D01*
X261768694Y-69448250D01*
X261786252Y-69379459D01*
X261817907Y-69343792D01*
X261903282Y-69278282D01*
X261999536Y-69152841D01*
X262060044Y-69006762D01*
X262080682Y-68850000D01*
X262060044Y-68693238D01*
X261999536Y-68547159D01*
X261999535Y-68547158D01*
X261999535Y-68547157D01*
X261903282Y-68421717D01*
X261777842Y-68325464D01*
X261631761Y-68264955D01*
X261475000Y-68244318D01*
X261318238Y-68264955D01*
X261172157Y-68325464D01*
X261046717Y-68421717D01*
X260950464Y-68547157D01*
X260889955Y-68693238D01*
X260869318Y-68849999D01*
X260889955Y-69006761D01*
X260950464Y-69152842D01*
X261046717Y-69278282D01*
X261172155Y-69374534D01*
X261172158Y-69374535D01*
X261172159Y-69374536D01*
X261209103Y-69389838D01*
X261264383Y-69434385D01*
X261286805Y-69501748D01*
X261269248Y-69570539D01*
X261237590Y-69606209D01*
X261152216Y-69671719D01*
X261055964Y-69797157D01*
X260995455Y-69943238D01*
X260972756Y-70115661D01*
X260944034Y-70180588D01*
X260884769Y-70219680D01*
X260813777Y-70220525D01*
X260799617Y-70215624D01*
X260760237Y-70199312D01*
X260651807Y-70185038D01*
X260651806Y-70185037D01*
X260647720Y-70184500D01*
X260572280Y-70184500D01*
X260568194Y-70185037D01*
X260568192Y-70185038D01*
X260459764Y-70199312D01*
X260319767Y-70257301D01*
X260199549Y-70349549D01*
X260107301Y-70469767D01*
X260049312Y-70609764D01*
X260030312Y-70754090D01*
X260029534Y-70760000D01*
X260029908Y-70762841D01*
X260049312Y-70910235D01*
X260107301Y-71050232D01*
X260199550Y-71170452D01*
X260320861Y-71263538D01*
X260362728Y-71320876D01*
X260366950Y-71391747D01*
X260332186Y-71453650D01*
X260269473Y-71486931D01*
X260244157Y-71489500D01*
X259487628Y-71489500D01*
X259483851Y-71489958D01*
X259483844Y-71489959D01*
X259361128Y-71504859D01*
X259202070Y-71565181D01*
X259062071Y-71661816D01*
X259012945Y-71717269D01*
X258952801Y-71754994D01*
X258881809Y-71754214D01*
X258822508Y-71715176D01*
X258818695Y-71710450D01*
X258758282Y-71631718D01*
X258758280Y-71631716D01*
X258758279Y-71631715D01*
X258632842Y-71535464D01*
X258486761Y-71474955D01*
X258330000Y-71454318D01*
X258173238Y-71474955D01*
X258027157Y-71535464D01*
X257901717Y-71631717D01*
X257805464Y-71757157D01*
X257744955Y-71903238D01*
X257724318Y-72059999D01*
X253303235Y-72059999D01*
X253348814Y-71974727D01*
X253406024Y-71786132D01*
X253425341Y-71590000D01*
X253416956Y-71504860D01*
X253406024Y-71393867D01*
X253373791Y-71287611D01*
X253348814Y-71205273D01*
X253255910Y-71031462D01*
X253156422Y-70910236D01*
X253130883Y-70879116D01*
X252978534Y-70754086D01*
X252976597Y-70753051D01*
X252973170Y-70749685D01*
X252968945Y-70746217D01*
X252969255Y-70745838D01*
X252925952Y-70703296D01*
X252910000Y-70641933D01*
X252910000Y-67250000D01*
X260169318Y-67250000D01*
X260189955Y-67406761D01*
X260250464Y-67552842D01*
X260346717Y-67678282D01*
X260472157Y-67774535D01*
X260472158Y-67774535D01*
X260472159Y-67774536D01*
X260618238Y-67835044D01*
X260775000Y-67855682D01*
X260931762Y-67835044D01*
X261077841Y-67774536D01*
X261203282Y-67678282D01*
X261299536Y-67552841D01*
X261360044Y-67406762D01*
X261380682Y-67250000D01*
X261360044Y-67093238D01*
X261299536Y-66947159D01*
X261299535Y-66947158D01*
X261299535Y-66947157D01*
X261203282Y-66821717D01*
X261077842Y-66725464D01*
X260931761Y-66664955D01*
X260775000Y-66644318D01*
X260618238Y-66664955D01*
X260472157Y-66725464D01*
X260346717Y-66821717D01*
X260250464Y-66947157D01*
X260189955Y-67093238D01*
X260169318Y-67250000D01*
X252910000Y-67250000D01*
X252910000Y-66498029D01*
X252930002Y-66429908D01*
X252983658Y-66383415D01*
X253019551Y-66373108D01*
X253156762Y-66355044D01*
X253302841Y-66294536D01*
X253428282Y-66198282D01*
X253524536Y-66072841D01*
X253585044Y-65926762D01*
X253605682Y-65770000D01*
X253585044Y-65613238D01*
X253562992Y-65560000D01*
X254984318Y-65560000D01*
X255004955Y-65716761D01*
X255065464Y-65862842D01*
X255161717Y-65988282D01*
X255287157Y-66084535D01*
X255287158Y-66084535D01*
X255287159Y-66084536D01*
X255433238Y-66145044D01*
X255590000Y-66165682D01*
X255746762Y-66145044D01*
X255892841Y-66084536D01*
X256018282Y-65988282D01*
X256114536Y-65862841D01*
X256175044Y-65716762D01*
X256195682Y-65560000D01*
X256175044Y-65403238D01*
X256114536Y-65257159D01*
X256114535Y-65257158D01*
X256114535Y-65257157D01*
X256018282Y-65131717D01*
X255892842Y-65035464D01*
X255746761Y-64974955D01*
X255590000Y-64954318D01*
X255433238Y-64974955D01*
X255287157Y-65035464D01*
X255161717Y-65131717D01*
X255065464Y-65257157D01*
X255004955Y-65403238D01*
X254984318Y-65560000D01*
X253562992Y-65560000D01*
X253524536Y-65467159D01*
X253524535Y-65467158D01*
X253524535Y-65467157D01*
X253511167Y-65449735D01*
X253485566Y-65383515D01*
X253499831Y-65313966D01*
X253511160Y-65296336D01*
X253544536Y-65252841D01*
X253605044Y-65106762D01*
X253625682Y-64950000D01*
X253605044Y-64793238D01*
X253544536Y-64647159D01*
X253544535Y-64647158D01*
X253544535Y-64647157D01*
X253448282Y-64521717D01*
X253322842Y-64425464D01*
X253176761Y-64364955D01*
X253019554Y-64344259D01*
X252954627Y-64315537D01*
X252915535Y-64256271D01*
X252910000Y-64219337D01*
X252910000Y-63640000D01*
X257684318Y-63640000D01*
X257704955Y-63796761D01*
X257765464Y-63942842D01*
X257861717Y-64068282D01*
X257987157Y-64164535D01*
X257987158Y-64164535D01*
X257987159Y-64164536D01*
X258133238Y-64225044D01*
X258290000Y-64245682D01*
X258446762Y-64225044D01*
X258592841Y-64164536D01*
X258718282Y-64068282D01*
X258780790Y-63986819D01*
X258838126Y-63944954D01*
X258908997Y-63940732D01*
X258970900Y-63975496D01*
X258975063Y-63979972D01*
X259053301Y-64068284D01*
X259062071Y-64078183D01*
X259202070Y-64174818D01*
X259361128Y-64235140D01*
X259487628Y-64250500D01*
X259491437Y-64250500D01*
X260244157Y-64250500D01*
X260312278Y-64270502D01*
X260358771Y-64324158D01*
X260368875Y-64394432D01*
X260339381Y-64459012D01*
X260320861Y-64476462D01*
X260199550Y-64569547D01*
X260107301Y-64689767D01*
X260049312Y-64829764D01*
X260029534Y-64980000D01*
X260049312Y-65130235D01*
X260107301Y-65270232D01*
X260127323Y-65296325D01*
X260199549Y-65390451D01*
X260319767Y-65482698D01*
X260459764Y-65540687D01*
X260572280Y-65555500D01*
X260576402Y-65555500D01*
X260643598Y-65555500D01*
X260647720Y-65555500D01*
X260760236Y-65540687D01*
X260900233Y-65482698D01*
X261020451Y-65390451D01*
X261112698Y-65270233D01*
X261170687Y-65130236D01*
X261183846Y-65030283D01*
X261212567Y-64965358D01*
X261271831Y-64926266D01*
X261342823Y-64925421D01*
X261356985Y-64930322D01*
X261367159Y-64934536D01*
X261513238Y-64995044D01*
X261670000Y-65015682D01*
X261826762Y-64995044D01*
X261972841Y-64934536D01*
X262098282Y-64838282D01*
X262194536Y-64712841D01*
X262255044Y-64566762D01*
X262275682Y-64410000D01*
X262255044Y-64253238D01*
X262194536Y-64107159D01*
X262194535Y-64107158D01*
X262194535Y-64107157D01*
X262098282Y-63981717D01*
X261972842Y-63885464D01*
X261826761Y-63824955D01*
X261690636Y-63807034D01*
X261670000Y-63804318D01*
X261669999Y-63804318D01*
X261513237Y-63824955D01*
X261487773Y-63835503D01*
X261417183Y-63843091D01*
X261353697Y-63811310D01*
X261317470Y-63750251D01*
X261317219Y-63688938D01*
X261330500Y-63635056D01*
X261330500Y-63635054D01*
X261330500Y-63464944D01*
X261289790Y-63299775D01*
X261210734Y-63149148D01*
X261097929Y-63021817D01*
X260957930Y-62925182D01*
X260957929Y-62925181D01*
X260798871Y-62864859D01*
X260676155Y-62849959D01*
X260676149Y-62849958D01*
X260672372Y-62849500D01*
X259487628Y-62849500D01*
X259483851Y-62849958D01*
X259483844Y-62849959D01*
X259361128Y-62864859D01*
X259202070Y-62925181D01*
X259062072Y-63021816D01*
X258949265Y-63149148D01*
X258927519Y-63190583D01*
X258878150Y-63241605D01*
X258809034Y-63257837D01*
X258742114Y-63234125D01*
X258721985Y-63214559D01*
X258592842Y-63115464D01*
X258446761Y-63054955D01*
X258310637Y-63037034D01*
X258290000Y-63034318D01*
X258289999Y-63034318D01*
X258133238Y-63054955D01*
X257987157Y-63115464D01*
X257861717Y-63211717D01*
X257765464Y-63337157D01*
X257704955Y-63483238D01*
X257684318Y-63640000D01*
X252910000Y-63640000D01*
X252910000Y-62650000D01*
X256564318Y-62650000D01*
X256584955Y-62806761D01*
X256645464Y-62952842D01*
X256741717Y-63078282D01*
X256867157Y-63174535D01*
X256867158Y-63174535D01*
X256867159Y-63174536D01*
X257013238Y-63235044D01*
X257170000Y-63255682D01*
X257326762Y-63235044D01*
X257472841Y-63174536D01*
X257598282Y-63078282D01*
X257694536Y-62952841D01*
X257755044Y-62806762D01*
X257775682Y-62650000D01*
X257755044Y-62493238D01*
X257694536Y-62347159D01*
X257694535Y-62347158D01*
X257694535Y-62347157D01*
X257598282Y-62221717D01*
X257472842Y-62125464D01*
X257326761Y-62064955D01*
X257190637Y-62047034D01*
X257170000Y-62044318D01*
X257169999Y-62044318D01*
X257013238Y-62064955D01*
X256867157Y-62125464D01*
X256741717Y-62221717D01*
X256645464Y-62347157D01*
X256584955Y-62493238D01*
X256564318Y-62650000D01*
X252910000Y-62650000D01*
X252910000Y-60394999D01*
X258731818Y-60394999D01*
X258752455Y-60551761D01*
X258812964Y-60697842D01*
X258909217Y-60823282D01*
X259034657Y-60919535D01*
X259034658Y-60919535D01*
X259034659Y-60919536D01*
X259180738Y-60980044D01*
X259337500Y-61000682D01*
X259494262Y-60980044D01*
X259640341Y-60919536D01*
X259665795Y-60900004D01*
X259732012Y-60874403D01*
X259801562Y-60888666D01*
X259819203Y-60900003D01*
X259844659Y-60919536D01*
X259990738Y-60980044D01*
X260147500Y-61000682D01*
X260304262Y-60980044D01*
X260450341Y-60919536D01*
X260575782Y-60823282D01*
X260672036Y-60697841D01*
X260732544Y-60551762D01*
X260753182Y-60395000D01*
X260732544Y-60238238D01*
X260672036Y-60092159D01*
X260672035Y-60092158D01*
X260672035Y-60092157D01*
X260575782Y-59966717D01*
X260450342Y-59870464D01*
X260304261Y-59809955D01*
X260147500Y-59789318D01*
X259990738Y-59809955D01*
X259844657Y-59870464D01*
X259819201Y-59889997D01*
X259752980Y-59915596D01*
X259683432Y-59901330D01*
X259665794Y-59889995D01*
X259640340Y-59870463D01*
X259494261Y-59809955D01*
X259337500Y-59789318D01*
X259180738Y-59809955D01*
X259034657Y-59870464D01*
X258909217Y-59966717D01*
X258812964Y-60092157D01*
X258752455Y-60238238D01*
X258731818Y-60394999D01*
X252910000Y-60394999D01*
X252910000Y-59839609D01*
X252930002Y-59771488D01*
X252983658Y-59724995D01*
X253052445Y-59714687D01*
X253060000Y-59715682D01*
X253216762Y-59695044D01*
X253362841Y-59634536D01*
X253488282Y-59538282D01*
X253584536Y-59412841D01*
X253645044Y-59266762D01*
X253665682Y-59110000D01*
X253649555Y-58987500D01*
X257809318Y-58987500D01*
X257829955Y-59144261D01*
X257890464Y-59290342D01*
X257986717Y-59415782D01*
X258112157Y-59512035D01*
X258112158Y-59512035D01*
X258112159Y-59512036D01*
X258258238Y-59572544D01*
X258415000Y-59593182D01*
X258571762Y-59572544D01*
X258717841Y-59512036D01*
X258843282Y-59415782D01*
X258939536Y-59290341D01*
X259000044Y-59144262D01*
X259020682Y-58987500D01*
X259003896Y-58859999D01*
X260544318Y-58859999D01*
X260564955Y-59016761D01*
X260625464Y-59162842D01*
X260721717Y-59288282D01*
X260847157Y-59384535D01*
X260847158Y-59384535D01*
X260847159Y-59384536D01*
X260993238Y-59445044D01*
X261150000Y-59465682D01*
X261306762Y-59445044D01*
X261452841Y-59384536D01*
X261578282Y-59288282D01*
X261674536Y-59162841D01*
X261735044Y-59016762D01*
X261755682Y-58860000D01*
X261735044Y-58703238D01*
X261674536Y-58557159D01*
X261674535Y-58557158D01*
X261674535Y-58557157D01*
X261578282Y-58431717D01*
X261452842Y-58335464D01*
X261306761Y-58274955D01*
X261150000Y-58254318D01*
X260993238Y-58274955D01*
X260847157Y-58335464D01*
X260721717Y-58431717D01*
X260625464Y-58557157D01*
X260564955Y-58703238D01*
X260544318Y-58859999D01*
X259003896Y-58859999D01*
X259000044Y-58830738D01*
X258939536Y-58684659D01*
X258939535Y-58684658D01*
X258939535Y-58684657D01*
X258843282Y-58559217D01*
X258717842Y-58462964D01*
X258571761Y-58402455D01*
X258415000Y-58381818D01*
X258258238Y-58402455D01*
X258112157Y-58462964D01*
X257986717Y-58559217D01*
X257890464Y-58684657D01*
X257829955Y-58830738D01*
X257809318Y-58987500D01*
X253649555Y-58987500D01*
X253645044Y-58953238D01*
X253584536Y-58807159D01*
X253584535Y-58807158D01*
X253584535Y-58807157D01*
X253488282Y-58681717D01*
X253362842Y-58585464D01*
X253216761Y-58524955D01*
X253080637Y-58507034D01*
X253060000Y-58504318D01*
X253059999Y-58504318D01*
X253052441Y-58505313D01*
X252982293Y-58494371D01*
X252929196Y-58447241D01*
X252909999Y-58380392D01*
X252909999Y-56149999D01*
X254769318Y-56149999D01*
X254789955Y-56306761D01*
X254850464Y-56452842D01*
X254946717Y-56578282D01*
X255072157Y-56674535D01*
X255072158Y-56674535D01*
X255072159Y-56674536D01*
X255218238Y-56735044D01*
X255375000Y-56755682D01*
X255531762Y-56735044D01*
X255677841Y-56674536D01*
X255791455Y-56587356D01*
X255857672Y-56561757D01*
X255927221Y-56576021D01*
X255978018Y-56625622D01*
X255993934Y-56694812D01*
X255984566Y-56735538D01*
X255939955Y-56843237D01*
X255919318Y-57000000D01*
X255920928Y-57012232D01*
X255909988Y-57082381D01*
X255862859Y-57135479D01*
X255794505Y-57154668D01*
X255747788Y-57145086D01*
X255626761Y-57094955D01*
X255490636Y-57077034D01*
X255470000Y-57074318D01*
X255469999Y-57074318D01*
X255313238Y-57094955D01*
X255167157Y-57155464D01*
X255041717Y-57251717D01*
X254945464Y-57377157D01*
X254884955Y-57523238D01*
X254864318Y-57680000D01*
X254884955Y-57836761D01*
X254945464Y-57982842D01*
X255041717Y-58108282D01*
X255167157Y-58204535D01*
X255167158Y-58204535D01*
X255167159Y-58204536D01*
X255313238Y-58265044D01*
X255470000Y-58285682D01*
X255626762Y-58265044D01*
X255772841Y-58204536D01*
X255898282Y-58108282D01*
X255994536Y-57982841D01*
X256055044Y-57836762D01*
X256075682Y-57680000D01*
X256074071Y-57667766D01*
X256085009Y-57597621D01*
X256132137Y-57544522D01*
X256200490Y-57525331D01*
X256247211Y-57534913D01*
X256368238Y-57585044D01*
X256525000Y-57605682D01*
X256681762Y-57585044D01*
X256827841Y-57524536D01*
X256953282Y-57428282D01*
X257049536Y-57302841D01*
X257110044Y-57156762D01*
X257130682Y-57000000D01*
X257110044Y-56843238D01*
X257049536Y-56697159D01*
X257049535Y-56697158D01*
X257049535Y-56697157D01*
X256953282Y-56571717D01*
X256827842Y-56475464D01*
X256681761Y-56414955D01*
X256525000Y-56394318D01*
X256368238Y-56414955D01*
X256222159Y-56475463D01*
X256108546Y-56562642D01*
X256042325Y-56588242D01*
X255972777Y-56573977D01*
X255921981Y-56524376D01*
X255906065Y-56455186D01*
X255915431Y-56414465D01*
X255960044Y-56306762D01*
X255980682Y-56150000D01*
X255960044Y-55993238D01*
X255899536Y-55847159D01*
X255899535Y-55847158D01*
X255899535Y-55847157D01*
X255803282Y-55721717D01*
X255677842Y-55625464D01*
X255531761Y-55564955D01*
X255375000Y-55544318D01*
X255218238Y-55564955D01*
X255072157Y-55625464D01*
X254946717Y-55721717D01*
X254850464Y-55847157D01*
X254789955Y-55993238D01*
X254769318Y-56149999D01*
X252909999Y-56149999D01*
X252909999Y-52921182D01*
X259519500Y-52921182D01*
X259558604Y-53180615D01*
X259558605Y-53180618D01*
X259635936Y-53431323D01*
X259749772Y-53667704D01*
X259897563Y-53884474D01*
X259897565Y-53884476D01*
X259897567Y-53884479D01*
X260076019Y-54076805D01*
X260281143Y-54240386D01*
X260508357Y-54371568D01*
X260752584Y-54467420D01*
X261008370Y-54525802D01*
X261204506Y-54540500D01*
X261206859Y-54540500D01*
X261333141Y-54540500D01*
X261335494Y-54540500D01*
X261531630Y-54525802D01*
X261787416Y-54467420D01*
X262031643Y-54371568D01*
X262258857Y-54240386D01*
X262463981Y-54076805D01*
X262642433Y-53884479D01*
X262790228Y-53667704D01*
X262904063Y-53431323D01*
X262981396Y-53180615D01*
X263020500Y-52921182D01*
X263020500Y-52658818D01*
X262981396Y-52399385D01*
X262904063Y-52148677D01*
X262790228Y-51912296D01*
X262642433Y-51695521D01*
X262463981Y-51503195D01*
X262258857Y-51339614D01*
X262031643Y-51208432D01*
X262031642Y-51208432D01*
X261787417Y-51112580D01*
X261531630Y-51054198D01*
X261337836Y-51039675D01*
X261337822Y-51039674D01*
X261335494Y-51039500D01*
X261204506Y-51039500D01*
X261202178Y-51039674D01*
X261202163Y-51039675D01*
X261008369Y-51054198D01*
X260752582Y-51112580D01*
X260508356Y-51208432D01*
X260281146Y-51339612D01*
X260281143Y-51339614D01*
X260076019Y-51503195D01*
X259937525Y-51652455D01*
X259897563Y-51695525D01*
X259749772Y-51912295D01*
X259635936Y-52148676D01*
X259558605Y-52399381D01*
X259558604Y-52399385D01*
X259519500Y-52658818D01*
X259519500Y-52921182D01*
X252909999Y-52921182D01*
X252909999Y-47482128D01*
X264866033Y-47482317D01*
G37*
G04 #@! TD.AperFunction*
G04 #@! TA.AperFunction,Conductor*
G36*
X247592121Y-75670002D02*
G01*
X247638614Y-75723658D01*
X247650000Y-75776000D01*
X247650000Y-78691970D01*
X247629998Y-78760091D01*
X247576342Y-78806584D01*
X247540446Y-78816892D01*
X247403238Y-78834955D01*
X247257157Y-78895464D01*
X247131717Y-78991717D01*
X247035464Y-79117157D01*
X246974955Y-79263238D01*
X246954318Y-79420000D01*
X246974955Y-79576761D01*
X247035464Y-79722842D01*
X247131717Y-79848282D01*
X247257157Y-79944535D01*
X247403238Y-80005044D01*
X247440882Y-80010000D01*
X245748753Y-80010000D01*
X245742842Y-80005464D01*
X245596761Y-79944955D01*
X245440000Y-79924318D01*
X245283238Y-79944955D01*
X245137157Y-80005464D01*
X245131246Y-80010000D01*
X237490000Y-80010000D01*
X237489999Y-75776000D01*
X237510002Y-75707879D01*
X237563658Y-75661386D01*
X237616000Y-75650000D01*
X247524000Y-75650000D01*
X247592121Y-75670002D01*
G37*
G04 #@! TD.AperFunction*
G04 #@! TA.AperFunction,Conductor*
G36*
X239542561Y-49763590D02*
G01*
X239586494Y-49781788D01*
X239743256Y-49802426D01*
X239900018Y-49781788D01*
X239943950Y-49763590D01*
X239992167Y-49754000D01*
X245026847Y-49754000D01*
X245094968Y-49774002D01*
X245126806Y-49803292D01*
X245145503Y-49827658D01*
X245146367Y-49828784D01*
X245271804Y-49925035D01*
X245271805Y-49925035D01*
X245271806Y-49925036D01*
X245417885Y-49985544D01*
X245574647Y-50006182D01*
X245731409Y-49985544D01*
X245877488Y-49925036D01*
X245880615Y-49922635D01*
X245946832Y-49897032D01*
X246016382Y-49911293D01*
X246034029Y-49922634D01*
X246037159Y-49925036D01*
X246183238Y-49985544D01*
X246340000Y-50006182D01*
X246496762Y-49985544D01*
X246642841Y-49925036D01*
X246768282Y-49828782D01*
X246787839Y-49803294D01*
X246845175Y-49761429D01*
X246887800Y-49754000D01*
X251004000Y-49754000D01*
X251072121Y-49774002D01*
X251118614Y-49827658D01*
X251130000Y-49880000D01*
X251130000Y-56952853D01*
X251109998Y-57020974D01*
X251056342Y-57067467D01*
X250987555Y-57077775D01*
X250840500Y-57058416D01*
X250683738Y-57079053D01*
X250537657Y-57139562D01*
X250412217Y-57235815D01*
X250315964Y-57361255D01*
X250255455Y-57507336D01*
X250234818Y-57664097D01*
X250255455Y-57820859D01*
X250315964Y-57966940D01*
X250412217Y-58092380D01*
X250537657Y-58188633D01*
X250537658Y-58188633D01*
X250537659Y-58188634D01*
X250683738Y-58249142D01*
X250840500Y-58269780D01*
X250987554Y-58250420D01*
X251057703Y-58261359D01*
X251110801Y-58308488D01*
X251130000Y-58375342D01*
X251130000Y-58392078D01*
X251109998Y-58460199D01*
X251103963Y-58468782D01*
X251046963Y-58543065D01*
X250980108Y-58704469D01*
X250977417Y-58703354D01*
X250958889Y-58745225D01*
X250899620Y-58784309D01*
X250846254Y-58788762D01*
X250725769Y-58772900D01*
X250569007Y-58793538D01*
X250422926Y-58854047D01*
X250297486Y-58950300D01*
X250201233Y-59075740D01*
X250140724Y-59221821D01*
X250120087Y-59378583D01*
X250140724Y-59535344D01*
X250201233Y-59681425D01*
X250297486Y-59806865D01*
X250422926Y-59903118D01*
X250422927Y-59903118D01*
X250422928Y-59903119D01*
X250569007Y-59963627D01*
X250725769Y-59984265D01*
X250882531Y-59963627D01*
X250955783Y-59933284D01*
X251026371Y-59925696D01*
X251089858Y-59957475D01*
X251126086Y-60018533D01*
X251130000Y-60049694D01*
X251130000Y-62901707D01*
X251109998Y-62969828D01*
X251056342Y-63016321D01*
X250987554Y-63026629D01*
X250970000Y-63024318D01*
X250813238Y-63044955D01*
X250667157Y-63105464D01*
X250541717Y-63201718D01*
X250534100Y-63211645D01*
X250476761Y-63253510D01*
X250405890Y-63257730D01*
X250343988Y-63222964D01*
X250317731Y-63183156D01*
X250294535Y-63127157D01*
X250198282Y-63001717D01*
X250072842Y-62905464D01*
X249926761Y-62844955D01*
X249770000Y-62824318D01*
X249613238Y-62844955D01*
X249467157Y-62905464D01*
X249341717Y-63001717D01*
X249245464Y-63127157D01*
X249184955Y-63273238D01*
X249164318Y-63429999D01*
X249184955Y-63586761D01*
X249245464Y-63732842D01*
X249341717Y-63858282D01*
X249467157Y-63954535D01*
X249467158Y-63954535D01*
X249467159Y-63954536D01*
X249613238Y-64015044D01*
X249770000Y-64035682D01*
X249926762Y-64015044D01*
X250072841Y-63954536D01*
X250198282Y-63858282D01*
X250205897Y-63848357D01*
X250263232Y-63806491D01*
X250334103Y-63802267D01*
X250396007Y-63837030D01*
X250422267Y-63876842D01*
X250445462Y-63932840D01*
X250541717Y-64058282D01*
X250667157Y-64154535D01*
X250667158Y-64154535D01*
X250667159Y-64154536D01*
X250813238Y-64215044D01*
X250970000Y-64235682D01*
X250987555Y-64233370D01*
X251057700Y-64244308D01*
X251110799Y-64291435D01*
X251130000Y-64358292D01*
X251130000Y-74154000D01*
X251109998Y-74222121D01*
X251056342Y-74268614D01*
X251004000Y-74280000D01*
X247611420Y-74280000D01*
X247543299Y-74259998D01*
X247496806Y-74206342D01*
X247486702Y-74136068D01*
X247516196Y-74071488D01*
X247534710Y-74054042D01*
X247568282Y-74028282D01*
X247664536Y-73902841D01*
X247725044Y-73756762D01*
X247745682Y-73600000D01*
X247725044Y-73443238D01*
X247664536Y-73297159D01*
X247664535Y-73297158D01*
X247664535Y-73297157D01*
X247568282Y-73171717D01*
X247442842Y-73075464D01*
X247296761Y-73014955D01*
X247140000Y-72994318D01*
X246983238Y-73014955D01*
X246837157Y-73075464D01*
X246711717Y-73171717D01*
X246615464Y-73297157D01*
X246554955Y-73443238D01*
X246534318Y-73600000D01*
X246554955Y-73756761D01*
X246615464Y-73902842D01*
X246711715Y-74028279D01*
X246711716Y-74028280D01*
X246711718Y-74028282D01*
X246745285Y-74054039D01*
X246787151Y-74111375D01*
X246791373Y-74182246D01*
X246756609Y-74244149D01*
X246693896Y-74277430D01*
X246668580Y-74280000D01*
X236897375Y-74280000D01*
X236880929Y-74278922D01*
X236869596Y-74277430D01*
X236770000Y-74264318D01*
X236769999Y-74264318D01*
X236659071Y-74278922D01*
X236642625Y-74280000D01*
X231947850Y-74280000D01*
X231902842Y-74245464D01*
X231756761Y-74184955D01*
X231620637Y-74167034D01*
X231600000Y-74164318D01*
X231599999Y-74164318D01*
X231443238Y-74184955D01*
X231297157Y-74245464D01*
X231252149Y-74280000D01*
X229870000Y-74280000D01*
X229870000Y-73120000D01*
X236134318Y-73120000D01*
X236154955Y-73276761D01*
X236215464Y-73422842D01*
X236311717Y-73548282D01*
X236437157Y-73644535D01*
X236437158Y-73644535D01*
X236437159Y-73644536D01*
X236583238Y-73705044D01*
X236740000Y-73725682D01*
X236896762Y-73705044D01*
X237042841Y-73644536D01*
X237168282Y-73548282D01*
X237264536Y-73422841D01*
X237325044Y-73276762D01*
X237345682Y-73120000D01*
X237325044Y-72963238D01*
X237265713Y-72820000D01*
X242074318Y-72820000D01*
X242094955Y-72976761D01*
X242155464Y-73122842D01*
X242251717Y-73248282D01*
X242377157Y-73344535D01*
X242377158Y-73344535D01*
X242377159Y-73344536D01*
X242523238Y-73405044D01*
X242680000Y-73425682D01*
X242836762Y-73405044D01*
X242982841Y-73344536D01*
X243108282Y-73248282D01*
X243204536Y-73122841D01*
X243265044Y-72976762D01*
X243285682Y-72820000D01*
X243265044Y-72663238D01*
X243204536Y-72517159D01*
X243204535Y-72517158D01*
X243204535Y-72517157D01*
X243108282Y-72391717D01*
X242982842Y-72295464D01*
X242836761Y-72234955D01*
X242680000Y-72214318D01*
X242523238Y-72234955D01*
X242377157Y-72295464D01*
X242251717Y-72391717D01*
X242155464Y-72517157D01*
X242094955Y-72663238D01*
X242074318Y-72820000D01*
X237265713Y-72820000D01*
X237264536Y-72817159D01*
X237264535Y-72817158D01*
X237264535Y-72817157D01*
X237168282Y-72691717D01*
X237042842Y-72595464D01*
X236896761Y-72534955D01*
X236740000Y-72514318D01*
X236583238Y-72534955D01*
X236437157Y-72595464D01*
X236311717Y-72691717D01*
X236215464Y-72817157D01*
X236154955Y-72963238D01*
X236134318Y-73120000D01*
X229870000Y-73120000D01*
X229870000Y-71145969D01*
X234563982Y-71145969D01*
X234584619Y-71302731D01*
X234645128Y-71448812D01*
X234741381Y-71574252D01*
X234866821Y-71670505D01*
X234866822Y-71670505D01*
X234866823Y-71670506D01*
X235012902Y-71731014D01*
X235169664Y-71751652D01*
X235326426Y-71731014D01*
X235472505Y-71670506D01*
X235597946Y-71574252D01*
X235694200Y-71448811D01*
X235754708Y-71302732D01*
X235768233Y-71200000D01*
X241404318Y-71200000D01*
X241424955Y-71356761D01*
X241485464Y-71502842D01*
X241581717Y-71628282D01*
X241707157Y-71724535D01*
X241707158Y-71724535D01*
X241707159Y-71724536D01*
X241853238Y-71785044D01*
X242010000Y-71805682D01*
X242166762Y-71785044D01*
X242312841Y-71724536D01*
X242438282Y-71628282D01*
X242534536Y-71502841D01*
X242583347Y-71385000D01*
X243849318Y-71385000D01*
X243852034Y-71405636D01*
X243869955Y-71541761D01*
X243930464Y-71687842D01*
X244026717Y-71813282D01*
X244152157Y-71909535D01*
X244152158Y-71909535D01*
X244152159Y-71909536D01*
X244298238Y-71970044D01*
X244455000Y-71990682D01*
X244611762Y-71970044D01*
X244757841Y-71909536D01*
X244883282Y-71813282D01*
X244979536Y-71687841D01*
X245040044Y-71541762D01*
X245060682Y-71385000D01*
X245040044Y-71228238D01*
X244979536Y-71082159D01*
X244979535Y-71082158D01*
X244979535Y-71082157D01*
X244883282Y-70956717D01*
X244757842Y-70860464D01*
X244611761Y-70799955D01*
X244455000Y-70779318D01*
X244298238Y-70799955D01*
X244152157Y-70860464D01*
X244026717Y-70956717D01*
X243930464Y-71082157D01*
X243869955Y-71228238D01*
X243849318Y-71384999D01*
X243849318Y-71385000D01*
X242583347Y-71385000D01*
X242595044Y-71356762D01*
X242615682Y-71200000D01*
X242595044Y-71043238D01*
X242534536Y-70897159D01*
X242534535Y-70897158D01*
X242534535Y-70897157D01*
X242438282Y-70771717D01*
X242312842Y-70675464D01*
X242166761Y-70614955D01*
X242010000Y-70594318D01*
X241853238Y-70614955D01*
X241707157Y-70675464D01*
X241581717Y-70771717D01*
X241485464Y-70897157D01*
X241424955Y-71043238D01*
X241404318Y-71200000D01*
X235768233Y-71200000D01*
X235775346Y-71145970D01*
X235754708Y-70989208D01*
X235694200Y-70843129D01*
X235694199Y-70843128D01*
X235694199Y-70843127D01*
X235597946Y-70717687D01*
X235472506Y-70621434D01*
X235326425Y-70560925D01*
X235169664Y-70540288D01*
X235012902Y-70560925D01*
X234866821Y-70621434D01*
X234741381Y-70717687D01*
X234645128Y-70843127D01*
X234584619Y-70989208D01*
X234563982Y-71145969D01*
X229870000Y-71145969D01*
X229870000Y-70360000D01*
X239744318Y-70360000D01*
X239764955Y-70516761D01*
X239825464Y-70662842D01*
X239921717Y-70788282D01*
X240047157Y-70884535D01*
X240047158Y-70884535D01*
X240047159Y-70884536D01*
X240193238Y-70945044D01*
X240350000Y-70965682D01*
X240506762Y-70945044D01*
X240652841Y-70884536D01*
X240778282Y-70788282D01*
X240874536Y-70662841D01*
X240935044Y-70516762D01*
X240955682Y-70360000D01*
X240935044Y-70203238D01*
X240874536Y-70057159D01*
X240874535Y-70057158D01*
X240874535Y-70057157D01*
X240778282Y-69931717D01*
X240652842Y-69835464D01*
X240506761Y-69774955D01*
X240350000Y-69754318D01*
X240193238Y-69774955D01*
X240047157Y-69835464D01*
X239921717Y-69931717D01*
X239825464Y-70057157D01*
X239764955Y-70203238D01*
X239744318Y-70360000D01*
X229870000Y-70360000D01*
X229870000Y-69709729D01*
X247539954Y-69709729D01*
X247560591Y-69866491D01*
X247621100Y-70012572D01*
X247717353Y-70138012D01*
X247842793Y-70234265D01*
X247842794Y-70234265D01*
X247842795Y-70234266D01*
X247988874Y-70294774D01*
X248145636Y-70315412D01*
X248302398Y-70294774D01*
X248448477Y-70234266D01*
X248573918Y-70138012D01*
X248670172Y-70012571D01*
X248730680Y-69866492D01*
X248751318Y-69709730D01*
X248730680Y-69552968D01*
X248704092Y-69488778D01*
X249020690Y-69488778D01*
X249041327Y-69645540D01*
X249101836Y-69791621D01*
X249198089Y-69917061D01*
X249323529Y-70013314D01*
X249323530Y-70013314D01*
X249323531Y-70013315D01*
X249469610Y-70073823D01*
X249626372Y-70094461D01*
X249783134Y-70073823D01*
X249929213Y-70013315D01*
X250054654Y-69917061D01*
X250150908Y-69791620D01*
X250211416Y-69645541D01*
X250232054Y-69488779D01*
X250211416Y-69332017D01*
X250150908Y-69185938D01*
X250150907Y-69185937D01*
X250150907Y-69185936D01*
X250054654Y-69060496D01*
X249929214Y-68964243D01*
X249783133Y-68903734D01*
X249647008Y-68885813D01*
X249626372Y-68883097D01*
X249626371Y-68883097D01*
X249469610Y-68903734D01*
X249323529Y-68964243D01*
X249198089Y-69060496D01*
X249101836Y-69185936D01*
X249041327Y-69332017D01*
X249020690Y-69488778D01*
X248704092Y-69488778D01*
X248670172Y-69406889D01*
X248670171Y-69406888D01*
X248670171Y-69406887D01*
X248573918Y-69281447D01*
X248448478Y-69185194D01*
X248302397Y-69124685D01*
X248145636Y-69104048D01*
X247988874Y-69124685D01*
X247842793Y-69185194D01*
X247717353Y-69281447D01*
X247621100Y-69406887D01*
X247560591Y-69552968D01*
X247539954Y-69709729D01*
X229870000Y-69709729D01*
X229870000Y-68910000D01*
X238874318Y-68910000D01*
X238894955Y-69066761D01*
X238955464Y-69212842D01*
X239051717Y-69338282D01*
X239177157Y-69434535D01*
X239177158Y-69434535D01*
X239177159Y-69434536D01*
X239323238Y-69495044D01*
X239480000Y-69515682D01*
X239636762Y-69495044D01*
X239782841Y-69434536D01*
X239908282Y-69338282D01*
X240004536Y-69212841D01*
X240065044Y-69066762D01*
X240085682Y-68910000D01*
X240065044Y-68753238D01*
X240004536Y-68607159D01*
X240004535Y-68607158D01*
X240004535Y-68607157D01*
X239908282Y-68481717D01*
X239782842Y-68385464D01*
X239636761Y-68324955D01*
X239480000Y-68304318D01*
X239323238Y-68324955D01*
X239177157Y-68385464D01*
X239051717Y-68481717D01*
X238955464Y-68607157D01*
X238894955Y-68753238D01*
X238874318Y-68910000D01*
X229870000Y-68910000D01*
X229870000Y-67610000D01*
X232994318Y-67610000D01*
X233014955Y-67766761D01*
X233075464Y-67912842D01*
X233171717Y-68038282D01*
X233297157Y-68134535D01*
X233297158Y-68134535D01*
X233297159Y-68134536D01*
X233443238Y-68195044D01*
X233600000Y-68215682D01*
X233756762Y-68195044D01*
X233902841Y-68134536D01*
X234028282Y-68038282D01*
X234124536Y-67912841D01*
X234185044Y-67766762D01*
X234205682Y-67610000D01*
X234185044Y-67453238D01*
X234124536Y-67307159D01*
X234124535Y-67307158D01*
X234124535Y-67307157D01*
X234028282Y-67181717D01*
X233902842Y-67085464D01*
X233756761Y-67024955D01*
X233600000Y-67004318D01*
X233443238Y-67024955D01*
X233297157Y-67085464D01*
X233171717Y-67181717D01*
X233075464Y-67307157D01*
X233014955Y-67453238D01*
X232994318Y-67610000D01*
X229870000Y-67610000D01*
X229870000Y-66997502D01*
X246755818Y-66997502D01*
X246776455Y-67154264D01*
X246836964Y-67300345D01*
X246933217Y-67425785D01*
X247058657Y-67522038D01*
X247058658Y-67522038D01*
X247058659Y-67522039D01*
X247204738Y-67582547D01*
X247361500Y-67603185D01*
X247461651Y-67590000D01*
X248784318Y-67590000D01*
X248804955Y-67746761D01*
X248865464Y-67892842D01*
X248961717Y-68018282D01*
X249087157Y-68114535D01*
X249087158Y-68114535D01*
X249087159Y-68114536D01*
X249233238Y-68175044D01*
X249390000Y-68195682D01*
X249546762Y-68175044D01*
X249692841Y-68114536D01*
X249818282Y-68018282D01*
X249914536Y-67892841D01*
X249975044Y-67746762D01*
X249995682Y-67590000D01*
X249975044Y-67433238D01*
X249914536Y-67287159D01*
X249914535Y-67287158D01*
X249914535Y-67287157D01*
X249818282Y-67161717D01*
X249692842Y-67065464D01*
X249546761Y-67004955D01*
X249410636Y-66987034D01*
X249390000Y-66984318D01*
X249389999Y-66984318D01*
X249233238Y-67004955D01*
X249087157Y-67065464D01*
X248961717Y-67161717D01*
X248865464Y-67287157D01*
X248804955Y-67433238D01*
X248784318Y-67590000D01*
X247461651Y-67590000D01*
X247518262Y-67582547D01*
X247664341Y-67522039D01*
X247789782Y-67425785D01*
X247886036Y-67300344D01*
X247946544Y-67154265D01*
X247967182Y-66997503D01*
X247946544Y-66840741D01*
X247886036Y-66694662D01*
X247886035Y-66694661D01*
X247886035Y-66694660D01*
X247789782Y-66569220D01*
X247664342Y-66472967D01*
X247518261Y-66412458D01*
X247361500Y-66391821D01*
X247204738Y-66412458D01*
X247058657Y-66472967D01*
X246933217Y-66569220D01*
X246836964Y-66694660D01*
X246776455Y-66840741D01*
X246755818Y-66997502D01*
X229870000Y-66997502D01*
X229870000Y-66442972D01*
X229890002Y-66374852D01*
X229943658Y-66328359D01*
X230013932Y-66318255D01*
X230078512Y-66347749D01*
X230112409Y-66394755D01*
X230165464Y-66522842D01*
X230261717Y-66648282D01*
X230387157Y-66744535D01*
X230387158Y-66744535D01*
X230387159Y-66744536D01*
X230533238Y-66805044D01*
X230690000Y-66825682D01*
X230846762Y-66805044D01*
X230992841Y-66744536D01*
X231118282Y-66648282D01*
X231214536Y-66522841D01*
X231275044Y-66376762D01*
X231295682Y-66220000D01*
X231275044Y-66063238D01*
X231214536Y-65917159D01*
X231214535Y-65917158D01*
X231214535Y-65917157D01*
X231118282Y-65791717D01*
X230992842Y-65695464D01*
X230907222Y-65659999D01*
X237644318Y-65659999D01*
X237664955Y-65816761D01*
X237725464Y-65962842D01*
X237821717Y-66088282D01*
X237947157Y-66184535D01*
X237947158Y-66184535D01*
X237947159Y-66184536D01*
X238093238Y-66245044D01*
X238250000Y-66265682D01*
X238406762Y-66245044D01*
X238552841Y-66184536D01*
X238678282Y-66088282D01*
X238774536Y-65962841D01*
X238785426Y-65936549D01*
X238829973Y-65881269D01*
X238897336Y-65858847D01*
X238966127Y-65876404D01*
X239001797Y-65908063D01*
X239101718Y-66038282D01*
X239227157Y-66134535D01*
X239227158Y-66134535D01*
X239227159Y-66134536D01*
X239373238Y-66195044D01*
X239530000Y-66215682D01*
X239686762Y-66195044D01*
X239832841Y-66134536D01*
X239958282Y-66038282D01*
X240054536Y-65912841D01*
X240115044Y-65766762D01*
X240135682Y-65610000D01*
X240123156Y-65514858D01*
X240469176Y-65514858D01*
X240489813Y-65671619D01*
X240550322Y-65817700D01*
X240646575Y-65943140D01*
X240772015Y-66039393D01*
X240772016Y-66039393D01*
X240772017Y-66039394D01*
X240918096Y-66099902D01*
X241074858Y-66120540D01*
X241231620Y-66099902D01*
X241377699Y-66039394D01*
X241503140Y-65943140D01*
X241526389Y-65912841D01*
X241599392Y-65817702D01*
X241599393Y-65817700D01*
X241599394Y-65817699D01*
X241615801Y-65778087D01*
X241660346Y-65722809D01*
X241727709Y-65700387D01*
X241796501Y-65717944D01*
X241832171Y-65749603D01*
X241934363Y-65882781D01*
X242059803Y-65979035D01*
X242059804Y-65979035D01*
X242059805Y-65979036D01*
X242205884Y-66039544D01*
X242362646Y-66060182D01*
X242519408Y-66039544D01*
X242665487Y-65979036D01*
X242790928Y-65882782D01*
X242887182Y-65757341D01*
X242947690Y-65611262D01*
X242968328Y-65454500D01*
X245185963Y-65454500D01*
X245206600Y-65611261D01*
X245267109Y-65757342D01*
X245363362Y-65882782D01*
X245488802Y-65979035D01*
X245488803Y-65979035D01*
X245488804Y-65979036D01*
X245634883Y-66039544D01*
X245791645Y-66060182D01*
X245948407Y-66039544D01*
X246094486Y-65979036D01*
X246219927Y-65882782D01*
X246316181Y-65757341D01*
X246376689Y-65611262D01*
X246397327Y-65454500D01*
X246376689Y-65297738D01*
X246316181Y-65151659D01*
X246316180Y-65151658D01*
X246316180Y-65151657D01*
X246219927Y-65026217D01*
X246094487Y-64929964D01*
X245948406Y-64869455D01*
X245812282Y-64851534D01*
X245791645Y-64848818D01*
X245791644Y-64848818D01*
X245634883Y-64869455D01*
X245488802Y-64929964D01*
X245363362Y-65026217D01*
X245267109Y-65151657D01*
X245206600Y-65297738D01*
X245185963Y-65454500D01*
X242968328Y-65454500D01*
X242947690Y-65297738D01*
X242887182Y-65151659D01*
X242887181Y-65151658D01*
X242887181Y-65151657D01*
X242790928Y-65026217D01*
X242665488Y-64929964D01*
X242519407Y-64869455D01*
X242362646Y-64848818D01*
X242205884Y-64869455D01*
X242059803Y-64929964D01*
X241934363Y-65026217D01*
X241838110Y-65151657D01*
X241821703Y-65191268D01*
X241777154Y-65246549D01*
X241709791Y-65268970D01*
X241641000Y-65251412D01*
X241605332Y-65219754D01*
X241503140Y-65086575D01*
X241377700Y-64990322D01*
X241231619Y-64929813D01*
X241074858Y-64909176D01*
X240918096Y-64929813D01*
X240772015Y-64990322D01*
X240646575Y-65086575D01*
X240550322Y-65212015D01*
X240489813Y-65358096D01*
X240469176Y-65514858D01*
X240123156Y-65514858D01*
X240115044Y-65453238D01*
X240054536Y-65307159D01*
X240054535Y-65307158D01*
X240054535Y-65307157D01*
X239958282Y-65181717D01*
X239832842Y-65085464D01*
X239686761Y-65024955D01*
X239550637Y-65007034D01*
X239530000Y-65004318D01*
X239529999Y-65004318D01*
X239373238Y-65024955D01*
X239227157Y-65085464D01*
X239101717Y-65181717D01*
X239005463Y-65307158D01*
X238994572Y-65333452D01*
X238950023Y-65388732D01*
X238882659Y-65411152D01*
X238813868Y-65393593D01*
X238778202Y-65361936D01*
X238678281Y-65231717D01*
X238552842Y-65135464D01*
X238406761Y-65074955D01*
X238250000Y-65054318D01*
X238093238Y-65074955D01*
X237947157Y-65135464D01*
X237821717Y-65231717D01*
X237725464Y-65357157D01*
X237664955Y-65503238D01*
X237644318Y-65659999D01*
X230907222Y-65659999D01*
X230846761Y-65634955D01*
X230710637Y-65617034D01*
X230690000Y-65614318D01*
X230689999Y-65614318D01*
X230533238Y-65634955D01*
X230387157Y-65695464D01*
X230261717Y-65791717D01*
X230165464Y-65917157D01*
X230112409Y-66045244D01*
X230067861Y-66100525D01*
X230000497Y-66122946D01*
X229931706Y-66105388D01*
X229883328Y-66053426D01*
X229870000Y-65997026D01*
X229870000Y-65178722D01*
X229890002Y-65110601D01*
X229943658Y-65064108D01*
X230013932Y-65054004D01*
X230044218Y-65062313D01*
X230048552Y-65064108D01*
X230123238Y-65095044D01*
X230280000Y-65115682D01*
X230436762Y-65095044D01*
X230582841Y-65034536D01*
X230708282Y-64938282D01*
X230804536Y-64812841D01*
X230865044Y-64666762D01*
X230885682Y-64510000D01*
X230865044Y-64353238D01*
X230804536Y-64207159D01*
X230804535Y-64207158D01*
X230804535Y-64207157D01*
X230783696Y-64179999D01*
X237164318Y-64179999D01*
X237184955Y-64336761D01*
X237245464Y-64482842D01*
X237341717Y-64608282D01*
X237467157Y-64704535D01*
X237467158Y-64704535D01*
X237467159Y-64704536D01*
X237613238Y-64765044D01*
X237770000Y-64785682D01*
X237926762Y-64765044D01*
X238072841Y-64704536D01*
X238198282Y-64608282D01*
X238294535Y-64482843D01*
X238329307Y-64398896D01*
X238373855Y-64343615D01*
X238441218Y-64321194D01*
X238510010Y-64338752D01*
X238545677Y-64370409D01*
X238551718Y-64378282D01*
X238551719Y-64378283D01*
X238677157Y-64474535D01*
X238677158Y-64474535D01*
X238677159Y-64474536D01*
X238823238Y-64535044D01*
X238980000Y-64555682D01*
X239136762Y-64535044D01*
X239282841Y-64474536D01*
X239408282Y-64378282D01*
X239504536Y-64252841D01*
X239565044Y-64106762D01*
X239585682Y-63950000D01*
X239565044Y-63793238D01*
X239504536Y-63647159D01*
X239504535Y-63647158D01*
X239504535Y-63647157D01*
X239408282Y-63521717D01*
X239282842Y-63425464D01*
X239136761Y-63364955D01*
X239088720Y-63358631D01*
X239023793Y-63329909D01*
X238984701Y-63270644D01*
X238980244Y-63217263D01*
X238980984Y-63211645D01*
X238989100Y-63149999D01*
X245419318Y-63149999D01*
X245439955Y-63306761D01*
X245500464Y-63452842D01*
X245596717Y-63578282D01*
X245722157Y-63674535D01*
X245722158Y-63674535D01*
X245722159Y-63674536D01*
X245868238Y-63735044D01*
X246025000Y-63755682D01*
X246181762Y-63735044D01*
X246327841Y-63674536D01*
X246453282Y-63578282D01*
X246549536Y-63452841D01*
X246610044Y-63306762D01*
X246630682Y-63150000D01*
X246610044Y-62993238D01*
X246549536Y-62847159D01*
X246549535Y-62847158D01*
X246549535Y-62847157D01*
X246453282Y-62721717D01*
X246327842Y-62625464D01*
X246181761Y-62564955D01*
X246045636Y-62547034D01*
X246025000Y-62544318D01*
X246024999Y-62544318D01*
X245868238Y-62564955D01*
X245722157Y-62625464D01*
X245596717Y-62721717D01*
X245500464Y-62847157D01*
X245439955Y-62993238D01*
X245419318Y-63149999D01*
X238989100Y-63149999D01*
X238995682Y-63100000D01*
X238975044Y-62943238D01*
X238914536Y-62797159D01*
X238914535Y-62797158D01*
X238914535Y-62797157D01*
X238818282Y-62671717D01*
X238692842Y-62575464D01*
X238546761Y-62514955D01*
X238390000Y-62494318D01*
X238233238Y-62514955D01*
X238087157Y-62575464D01*
X237961717Y-62671717D01*
X237865464Y-62797157D01*
X237804955Y-62943238D01*
X237784318Y-63100000D01*
X237804955Y-63256761D01*
X237865043Y-63401825D01*
X237872632Y-63472415D01*
X237840853Y-63535902D01*
X237779795Y-63572129D01*
X237765081Y-63574965D01*
X237613238Y-63594955D01*
X237467157Y-63655464D01*
X237341717Y-63751717D01*
X237245464Y-63877157D01*
X237184955Y-64023238D01*
X237164318Y-64179999D01*
X230783696Y-64179999D01*
X230708282Y-64081717D01*
X230582842Y-63985464D01*
X230436761Y-63924955D01*
X230280000Y-63904318D01*
X230123236Y-63924955D01*
X230011314Y-63971315D01*
X229940725Y-63978904D01*
X229877238Y-63947124D01*
X229874002Y-63944001D01*
X229870001Y-63940000D01*
X229870000Y-63940000D01*
X229870000Y-63317250D01*
X230010000Y-63335682D01*
X230166762Y-63315044D01*
X230312841Y-63254536D01*
X230438282Y-63158282D01*
X230534536Y-63032841D01*
X230595044Y-62886762D01*
X230615682Y-62730000D01*
X230595044Y-62573238D01*
X230534536Y-62427159D01*
X230534535Y-62427158D01*
X230534535Y-62427157D01*
X230438282Y-62301717D01*
X230312842Y-62205464D01*
X230251367Y-62180000D01*
X241544318Y-62180000D01*
X241564955Y-62336761D01*
X241625464Y-62482842D01*
X241721717Y-62608282D01*
X241847157Y-62704535D01*
X241847158Y-62704535D01*
X241847159Y-62704536D01*
X241993238Y-62765044D01*
X242150000Y-62785682D01*
X242306762Y-62765044D01*
X242452841Y-62704536D01*
X242578282Y-62608282D01*
X242674536Y-62482841D01*
X242735044Y-62336762D01*
X242755682Y-62180000D01*
X242735044Y-62023238D01*
X242674536Y-61877159D01*
X242674535Y-61877158D01*
X242674535Y-61877157D01*
X242578282Y-61751717D01*
X242452842Y-61655464D01*
X242306761Y-61594955D01*
X242170637Y-61577034D01*
X242150000Y-61574318D01*
X242149999Y-61574318D01*
X241993238Y-61594955D01*
X241847157Y-61655464D01*
X241721717Y-61751717D01*
X241625464Y-61877157D01*
X241564955Y-62023238D01*
X241544318Y-62180000D01*
X230251367Y-62180000D01*
X230166761Y-62144955D01*
X230030637Y-62127034D01*
X230010000Y-62124318D01*
X230009999Y-62124318D01*
X229870000Y-62142748D01*
X229870000Y-60740000D01*
X243204318Y-60740000D01*
X243224955Y-60896761D01*
X243285464Y-61042842D01*
X243381717Y-61168282D01*
X243507157Y-61264535D01*
X243507158Y-61264535D01*
X243507159Y-61264536D01*
X243653238Y-61325044D01*
X243810000Y-61345682D01*
X243966762Y-61325044D01*
X244112841Y-61264536D01*
X244238282Y-61168282D01*
X244334536Y-61042841D01*
X244395044Y-60896762D01*
X244407157Y-60804746D01*
X244435879Y-60739822D01*
X244495143Y-60700729D01*
X244548524Y-60696272D01*
X244620000Y-60705682D01*
X244776762Y-60685044D01*
X244922841Y-60624536D01*
X245048282Y-60528282D01*
X245144536Y-60402841D01*
X245205044Y-60256762D01*
X245225682Y-60100000D01*
X245205044Y-59943238D01*
X245144536Y-59797159D01*
X245144535Y-59797158D01*
X245144535Y-59797157D01*
X245048283Y-59671719D01*
X245048280Y-59671717D01*
X244977302Y-59617253D01*
X244935435Y-59559915D01*
X244931214Y-59489044D01*
X244965979Y-59427141D01*
X245028692Y-59393860D01*
X245070449Y-59392369D01*
X245192794Y-59408476D01*
X245349556Y-59387838D01*
X245495635Y-59327330D01*
X245621076Y-59231076D01*
X245717330Y-59105635D01*
X245777838Y-58959556D01*
X245798476Y-58802794D01*
X245777838Y-58646032D01*
X245717330Y-58499953D01*
X245717329Y-58499952D01*
X245717329Y-58499951D01*
X245621076Y-58374511D01*
X245495636Y-58278258D01*
X245349555Y-58217749D01*
X245213431Y-58199828D01*
X245192794Y-58197112D01*
X245192793Y-58197112D01*
X245036032Y-58217749D01*
X244889951Y-58278258D01*
X244764511Y-58374511D01*
X244668258Y-58499951D01*
X244607749Y-58646032D01*
X244587112Y-58802794D01*
X244607749Y-58959555D01*
X244668258Y-59105636D01*
X244764512Y-59231076D01*
X244835490Y-59285540D01*
X244877357Y-59342878D01*
X244881579Y-59413749D01*
X244846815Y-59475652D01*
X244784102Y-59508933D01*
X244742340Y-59510424D01*
X244620000Y-59494318D01*
X244463238Y-59514955D01*
X244317157Y-59575464D01*
X244191717Y-59671717D01*
X244095464Y-59797157D01*
X244034955Y-59943238D01*
X244022842Y-60035251D01*
X243994120Y-60100178D01*
X243934854Y-60139270D01*
X243881475Y-60143727D01*
X243810000Y-60134317D01*
X243653238Y-60154955D01*
X243507157Y-60215464D01*
X243381717Y-60311717D01*
X243285464Y-60437157D01*
X243224955Y-60583238D01*
X243204318Y-60740000D01*
X229870000Y-60740000D01*
X229870000Y-58700000D01*
X237184318Y-58700000D01*
X237204955Y-58856761D01*
X237265464Y-59002842D01*
X237361717Y-59128282D01*
X237487157Y-59224535D01*
X237487158Y-59224535D01*
X237487159Y-59224536D01*
X237633238Y-59285044D01*
X237790000Y-59305682D01*
X237817016Y-59302125D01*
X237887164Y-59313064D01*
X237940263Y-59360192D01*
X237959453Y-59428546D01*
X237938642Y-59496424D01*
X237933425Y-59503750D01*
X237915464Y-59527156D01*
X237854955Y-59673238D01*
X237834318Y-59829999D01*
X237854955Y-59986761D01*
X237915464Y-60132842D01*
X238011717Y-60258282D01*
X238137157Y-60354535D01*
X238137158Y-60354535D01*
X238137159Y-60354536D01*
X238283238Y-60415044D01*
X238440000Y-60435682D01*
X238596762Y-60415044D01*
X238742841Y-60354536D01*
X238868282Y-60258282D01*
X238964536Y-60132841D01*
X239025044Y-59986762D01*
X239029160Y-59955500D01*
X239283818Y-59955500D01*
X239304455Y-60112261D01*
X239364964Y-60258342D01*
X239461217Y-60383782D01*
X239586657Y-60480035D01*
X239586658Y-60480035D01*
X239586659Y-60480036D01*
X239732738Y-60540544D01*
X239889500Y-60561182D01*
X240046262Y-60540544D01*
X240192341Y-60480036D01*
X240317782Y-60383782D01*
X240340224Y-60354535D01*
X240414035Y-60258343D01*
X240431796Y-60215464D01*
X240464621Y-60136217D01*
X240509168Y-60080938D01*
X240576531Y-60058517D01*
X240597475Y-60059515D01*
X240626900Y-60063388D01*
X240766521Y-60081770D01*
X240923283Y-60061132D01*
X241069362Y-60000624D01*
X241194803Y-59904370D01*
X241291057Y-59778929D01*
X241351565Y-59632850D01*
X241372203Y-59476088D01*
X241351565Y-59319326D01*
X241291057Y-59173247D01*
X241291056Y-59173246D01*
X241291056Y-59173245D01*
X241194803Y-59047805D01*
X241069363Y-58951552D01*
X240923282Y-58891043D01*
X240787158Y-58873122D01*
X240766521Y-58870406D01*
X240766520Y-58870406D01*
X240609759Y-58891043D01*
X240463678Y-58951552D01*
X240338238Y-59047805D01*
X240241986Y-59173244D01*
X240191400Y-59295369D01*
X240146851Y-59350649D01*
X240079488Y-59373070D01*
X240058546Y-59372072D01*
X239889500Y-59349818D01*
X239732738Y-59370455D01*
X239586657Y-59430964D01*
X239461217Y-59527217D01*
X239364964Y-59652657D01*
X239304455Y-59798738D01*
X239283818Y-59955500D01*
X239029160Y-59955500D01*
X239045682Y-59830000D01*
X239025044Y-59673238D01*
X238964536Y-59527159D01*
X238964535Y-59527158D01*
X238964535Y-59527157D01*
X238868282Y-59401717D01*
X238742842Y-59305464D01*
X238596761Y-59244955D01*
X238439997Y-59224317D01*
X238412980Y-59227874D01*
X238342832Y-59216933D01*
X238289734Y-59169804D01*
X238270546Y-59101450D01*
X238291359Y-59033572D01*
X238296566Y-59026259D01*
X238314536Y-59002841D01*
X238375044Y-58856762D01*
X238395682Y-58700000D01*
X238375044Y-58543238D01*
X238314536Y-58397159D01*
X238314535Y-58397158D01*
X238314535Y-58397157D01*
X238218282Y-58271717D01*
X238092842Y-58175464D01*
X237946761Y-58114955D01*
X237810637Y-58097034D01*
X237790000Y-58094318D01*
X237789999Y-58094318D01*
X237633238Y-58114955D01*
X237487157Y-58175464D01*
X237361717Y-58271717D01*
X237265464Y-58397157D01*
X237204955Y-58543238D01*
X237184318Y-58700000D01*
X229870000Y-58700000D01*
X229870000Y-57435000D01*
X238269318Y-57435000D01*
X238289955Y-57591761D01*
X238350464Y-57737842D01*
X238446717Y-57863282D01*
X238572157Y-57959535D01*
X238572158Y-57959535D01*
X238572159Y-57959536D01*
X238718238Y-58020044D01*
X238875000Y-58040682D01*
X239031762Y-58020044D01*
X239177841Y-57959536D01*
X239303282Y-57863282D01*
X239399536Y-57737841D01*
X239404855Y-57725000D01*
X240519318Y-57725000D01*
X240539955Y-57881761D01*
X240600464Y-58027842D01*
X240696717Y-58153282D01*
X240822157Y-58249535D01*
X240822158Y-58249535D01*
X240822159Y-58249536D01*
X240968238Y-58310044D01*
X241125000Y-58330682D01*
X241281762Y-58310044D01*
X241427841Y-58249536D01*
X241553282Y-58153282D01*
X241649536Y-58027841D01*
X241710044Y-57881762D01*
X241730682Y-57725000D01*
X241710044Y-57568238D01*
X241649536Y-57422159D01*
X241649535Y-57422158D01*
X241649535Y-57422157D01*
X241553282Y-57296717D01*
X241440268Y-57209999D01*
X242444318Y-57209999D01*
X242464955Y-57366761D01*
X242525464Y-57512842D01*
X242621717Y-57638282D01*
X242747157Y-57734535D01*
X242747158Y-57734535D01*
X242747159Y-57734536D01*
X242893238Y-57795044D01*
X243050000Y-57815682D01*
X243206762Y-57795044D01*
X243352841Y-57734536D01*
X243478282Y-57638282D01*
X243574536Y-57512841D01*
X243635044Y-57366762D01*
X243638910Y-57337393D01*
X244207326Y-57337393D01*
X244227963Y-57494154D01*
X244288472Y-57640235D01*
X244384725Y-57765675D01*
X244510165Y-57861928D01*
X244510166Y-57861928D01*
X244510167Y-57861929D01*
X244656246Y-57922437D01*
X244813008Y-57943075D01*
X244969770Y-57922437D01*
X245115849Y-57861929D01*
X245241290Y-57765675D01*
X245337544Y-57640234D01*
X245398052Y-57494155D01*
X245418690Y-57337393D01*
X245398052Y-57180631D01*
X245337544Y-57034552D01*
X245337543Y-57034551D01*
X245337543Y-57034550D01*
X245241290Y-56909110D01*
X245115850Y-56812857D01*
X244969769Y-56752348D01*
X244833645Y-56734427D01*
X244813008Y-56731711D01*
X244813007Y-56731711D01*
X244656246Y-56752348D01*
X244510165Y-56812857D01*
X244384725Y-56909110D01*
X244288472Y-57034550D01*
X244227963Y-57180631D01*
X244207326Y-57337393D01*
X243638910Y-57337393D01*
X243655682Y-57210000D01*
X243635044Y-57053238D01*
X243574536Y-56907159D01*
X243574535Y-56907158D01*
X243574535Y-56907157D01*
X243478282Y-56781717D01*
X243352842Y-56685464D01*
X243206761Y-56624955D01*
X243070637Y-56607034D01*
X243050000Y-56604318D01*
X243049999Y-56604318D01*
X242893238Y-56624955D01*
X242747157Y-56685464D01*
X242621717Y-56781717D01*
X242525464Y-56907157D01*
X242464955Y-57053238D01*
X242444318Y-57209999D01*
X241440268Y-57209999D01*
X241427842Y-57200464D01*
X241281761Y-57139955D01*
X241125000Y-57119318D01*
X240968238Y-57139955D01*
X240822157Y-57200464D01*
X240696717Y-57296717D01*
X240600464Y-57422157D01*
X240539955Y-57568238D01*
X240519318Y-57725000D01*
X239404855Y-57725000D01*
X239460044Y-57591762D01*
X239480682Y-57435000D01*
X239460044Y-57278238D01*
X239399536Y-57132159D01*
X239399535Y-57132158D01*
X239399535Y-57132157D01*
X239303282Y-57006717D01*
X239177842Y-56910464D01*
X239031761Y-56849955D01*
X238875000Y-56829318D01*
X238718238Y-56849955D01*
X238572157Y-56910464D01*
X238446717Y-57006717D01*
X238350464Y-57132157D01*
X238289955Y-57278238D01*
X238269318Y-57435000D01*
X229870000Y-57435000D01*
X229870000Y-55640000D01*
X236704318Y-55640000D01*
X236724955Y-55796761D01*
X236785464Y-55942842D01*
X236881717Y-56068282D01*
X237007157Y-56164535D01*
X237007158Y-56164535D01*
X237007159Y-56164536D01*
X237153238Y-56225044D01*
X237310000Y-56245682D01*
X237466762Y-56225044D01*
X237612841Y-56164536D01*
X237738282Y-56068282D01*
X237834536Y-55942841D01*
X237895044Y-55796762D01*
X237915682Y-55640000D01*
X237895044Y-55483238D01*
X237834536Y-55337159D01*
X237834535Y-55337158D01*
X237834535Y-55337157D01*
X237738282Y-55211717D01*
X237612842Y-55115464D01*
X237466761Y-55054955D01*
X237310000Y-55034318D01*
X237153238Y-55054955D01*
X237007157Y-55115464D01*
X236881717Y-55211717D01*
X236785464Y-55337157D01*
X236724955Y-55483238D01*
X236704318Y-55640000D01*
X229870000Y-55640000D01*
X229870000Y-53780000D01*
X230634318Y-53780000D01*
X230654955Y-53936761D01*
X230715464Y-54082842D01*
X230811717Y-54208282D01*
X230937157Y-54304535D01*
X230937158Y-54304535D01*
X230937159Y-54304536D01*
X231083238Y-54365044D01*
X231240000Y-54385682D01*
X231396762Y-54365044D01*
X231542841Y-54304536D01*
X231668282Y-54208282D01*
X231716457Y-54145499D01*
X235590287Y-54145499D01*
X235610924Y-54302261D01*
X235671433Y-54448342D01*
X235767686Y-54573782D01*
X235893126Y-54670035D01*
X235893127Y-54670035D01*
X235893128Y-54670036D01*
X236039207Y-54730544D01*
X236195969Y-54751182D01*
X236352731Y-54730544D01*
X236498810Y-54670036D01*
X236624251Y-54573782D01*
X236720505Y-54448341D01*
X236781013Y-54302262D01*
X236797767Y-54174999D01*
X241394318Y-54174999D01*
X241414955Y-54331761D01*
X241475464Y-54477842D01*
X241571717Y-54603282D01*
X241697157Y-54699535D01*
X241697158Y-54699535D01*
X241697159Y-54699536D01*
X241843238Y-54760044D01*
X242000000Y-54780682D01*
X242156762Y-54760044D01*
X242302841Y-54699536D01*
X242428282Y-54603282D01*
X242524536Y-54477841D01*
X242585044Y-54331762D01*
X242605682Y-54175000D01*
X242585044Y-54018238D01*
X242524536Y-53872159D01*
X242524535Y-53872158D01*
X242524535Y-53872157D01*
X242428282Y-53746717D01*
X242302842Y-53650464D01*
X242301722Y-53650000D01*
X242954318Y-53650000D01*
X242974955Y-53806761D01*
X243035464Y-53952842D01*
X243131717Y-54078282D01*
X243257157Y-54174535D01*
X243257158Y-54174535D01*
X243257159Y-54174536D01*
X243403238Y-54235044D01*
X243560000Y-54255682D01*
X243716762Y-54235044D01*
X243862841Y-54174536D01*
X243988282Y-54078282D01*
X244084536Y-53952841D01*
X244145044Y-53806762D01*
X244165682Y-53650000D01*
X244145044Y-53493238D01*
X244084536Y-53347159D01*
X244084535Y-53347158D01*
X244084535Y-53347157D01*
X243988282Y-53221717D01*
X243862842Y-53125464D01*
X243716761Y-53064955D01*
X243560000Y-53044318D01*
X243403238Y-53064955D01*
X243257157Y-53125464D01*
X243131717Y-53221717D01*
X243035464Y-53347157D01*
X242974955Y-53493238D01*
X242954318Y-53650000D01*
X242301722Y-53650000D01*
X242156761Y-53589955D01*
X242000000Y-53569318D01*
X241843238Y-53589955D01*
X241697157Y-53650464D01*
X241571717Y-53746717D01*
X241475464Y-53872157D01*
X241414955Y-54018238D01*
X241394318Y-54174999D01*
X236797767Y-54174999D01*
X236801651Y-54145500D01*
X236781013Y-53988738D01*
X236720505Y-53842659D01*
X236720504Y-53842658D01*
X236720504Y-53842657D01*
X236624251Y-53717217D01*
X236498811Y-53620964D01*
X236352730Y-53560455D01*
X236195969Y-53539818D01*
X236039207Y-53560455D01*
X235893126Y-53620964D01*
X235767686Y-53717217D01*
X235671433Y-53842657D01*
X235610924Y-53988738D01*
X235590287Y-54145499D01*
X231716457Y-54145499D01*
X231764536Y-54082841D01*
X231825044Y-53936762D01*
X231845682Y-53780000D01*
X231825044Y-53623238D01*
X231764536Y-53477159D01*
X231764535Y-53477158D01*
X231764535Y-53477157D01*
X231678091Y-53364500D01*
X238100058Y-53364500D01*
X238120695Y-53521261D01*
X238181204Y-53667342D01*
X238277457Y-53792782D01*
X238402897Y-53889035D01*
X238402898Y-53889035D01*
X238402899Y-53889036D01*
X238548978Y-53949544D01*
X238705740Y-53970182D01*
X238862502Y-53949544D01*
X239008581Y-53889036D01*
X239134022Y-53792782D01*
X239230276Y-53667341D01*
X239290784Y-53521262D01*
X239311422Y-53364500D01*
X239290784Y-53207738D01*
X239230276Y-53061659D01*
X239230275Y-53061658D01*
X239230275Y-53061657D01*
X239134022Y-52936217D01*
X239008582Y-52839964D01*
X238862501Y-52779455D01*
X238705740Y-52758818D01*
X238548978Y-52779455D01*
X238402897Y-52839964D01*
X238277457Y-52936217D01*
X238181204Y-53061657D01*
X238120695Y-53207738D01*
X238100058Y-53364500D01*
X231678091Y-53364500D01*
X231668282Y-53351717D01*
X231542842Y-53255464D01*
X231396761Y-53194955D01*
X231240000Y-53174318D01*
X231083238Y-53194955D01*
X230937157Y-53255464D01*
X230811717Y-53351717D01*
X230715464Y-53477157D01*
X230654955Y-53623238D01*
X230634318Y-53780000D01*
X229870000Y-53780000D01*
X229870000Y-52974343D01*
X229890002Y-52906222D01*
X229943658Y-52859729D01*
X230012445Y-52849421D01*
X230060000Y-52855682D01*
X230216762Y-52835044D01*
X230362841Y-52774536D01*
X230488282Y-52678282D01*
X230584536Y-52552841D01*
X230635419Y-52429999D01*
X248874318Y-52429999D01*
X248894955Y-52586761D01*
X248955464Y-52732842D01*
X249051717Y-52858282D01*
X249177157Y-52954535D01*
X249177158Y-52954535D01*
X249177159Y-52954536D01*
X249323238Y-53015044D01*
X249480000Y-53035682D01*
X249636762Y-53015044D01*
X249782841Y-52954536D01*
X249908282Y-52858282D01*
X249970770Y-52776844D01*
X250028107Y-52734978D01*
X250087175Y-52728627D01*
X250136961Y-52735182D01*
X250293723Y-52714544D01*
X250439802Y-52654036D01*
X250565243Y-52557782D01*
X250661497Y-52432341D01*
X250722005Y-52286262D01*
X250742643Y-52129500D01*
X250722005Y-51972738D01*
X250661497Y-51826659D01*
X250661496Y-51826658D01*
X250661496Y-51826657D01*
X250565243Y-51701217D01*
X250439803Y-51604964D01*
X250293722Y-51544455D01*
X250136961Y-51523818D01*
X249980199Y-51544455D01*
X249834118Y-51604964D01*
X249708680Y-51701216D01*
X249646190Y-51782654D01*
X249588851Y-51824521D01*
X249529784Y-51830871D01*
X249480001Y-51824317D01*
X249323238Y-51844955D01*
X249177157Y-51905464D01*
X249051717Y-52001717D01*
X248955464Y-52127157D01*
X248894955Y-52273238D01*
X248874318Y-52429999D01*
X230635419Y-52429999D01*
X230645044Y-52406762D01*
X230665682Y-52250000D01*
X230645044Y-52093238D01*
X230584536Y-51947159D01*
X230584535Y-51947158D01*
X230584535Y-51947157D01*
X230488282Y-51821717D01*
X230362842Y-51725464D01*
X230216761Y-51664955D01*
X230059998Y-51644317D01*
X230012445Y-51650578D01*
X229942296Y-51639638D01*
X229889198Y-51592509D01*
X229870000Y-51525656D01*
X229870000Y-51300000D01*
X233614318Y-51300000D01*
X233634955Y-51456761D01*
X233695464Y-51602842D01*
X233791717Y-51728282D01*
X233917157Y-51824535D01*
X233917158Y-51824535D01*
X233917159Y-51824536D01*
X234063238Y-51885044D01*
X234220000Y-51905682D01*
X234376762Y-51885044D01*
X234522841Y-51824536D01*
X234648282Y-51728282D01*
X234744536Y-51602841D01*
X234805044Y-51456762D01*
X234825682Y-51300000D01*
X234805044Y-51143238D01*
X234744536Y-50997159D01*
X234744535Y-50997158D01*
X234744535Y-50997157D01*
X234648282Y-50871717D01*
X234522842Y-50775464D01*
X234376761Y-50714955D01*
X234240637Y-50697034D01*
X234220000Y-50694318D01*
X234219999Y-50694318D01*
X234063238Y-50714955D01*
X233917157Y-50775464D01*
X233791717Y-50871717D01*
X233695464Y-50997157D01*
X233634955Y-51143238D01*
X233614318Y-51300000D01*
X229870000Y-51300000D01*
X229870000Y-49880000D01*
X229890002Y-49811879D01*
X229943658Y-49765386D01*
X229996000Y-49754000D01*
X239494345Y-49754000D01*
X239542561Y-49763590D01*
G37*
G04 #@! TD.AperFunction*
G04 #@! TA.AperFunction,Conductor*
G36*
X264866033Y-47482317D02*
G01*
X264884948Y-47483747D01*
X264892687Y-47484923D01*
X264902829Y-47486465D01*
X264910996Y-47487856D01*
X264989446Y-47501224D01*
X265013525Y-47507847D01*
X265049242Y-47521614D01*
X265055451Y-47524203D01*
X265112352Y-47549762D01*
X265130297Y-47559650D01*
X265165566Y-47583011D01*
X265174768Y-47589723D01*
X265220471Y-47626339D01*
X265232256Y-47637074D01*
X265262300Y-47668140D01*
X265272638Y-47680281D01*
X265307710Y-47727187D01*
X265314112Y-47736609D01*
X265336274Y-47772627D01*
X265345559Y-47790898D01*
X265369185Y-47848578D01*
X265371604Y-47854972D01*
X265384142Y-47891049D01*
X265389970Y-47915392D01*
X265401745Y-48001781D01*
X265404217Y-48022749D01*
X265405067Y-48037217D01*
X265406227Y-58220000D01*
X262580000Y-58220000D01*
X262580000Y-53951765D01*
X262642433Y-53884479D01*
X262790228Y-53667704D01*
X262904063Y-53431323D01*
X262981396Y-53180615D01*
X263020500Y-52921182D01*
X263020500Y-52658818D01*
X262981396Y-52399385D01*
X262904063Y-52148677D01*
X262790228Y-51912296D01*
X262642433Y-51695521D01*
X262579999Y-51628234D01*
X262580000Y-47482281D01*
X264866033Y-47482317D01*
G37*
G04 #@! TD.AperFunction*
G04 #@! TA.AperFunction,Conductor*
G36*
X264866033Y-47482317D02*
G01*
X264884948Y-47483747D01*
X264892687Y-47484923D01*
X264902829Y-47486465D01*
X264910996Y-47487856D01*
X264989446Y-47501224D01*
X265013525Y-47507847D01*
X265049242Y-47521614D01*
X265055451Y-47524203D01*
X265112352Y-47549762D01*
X265130297Y-47559650D01*
X265165566Y-47583011D01*
X265174768Y-47589723D01*
X265220471Y-47626339D01*
X265232256Y-47637074D01*
X265262300Y-47668140D01*
X265272638Y-47680281D01*
X265307710Y-47727187D01*
X265314112Y-47736609D01*
X265336274Y-47772627D01*
X265345559Y-47790898D01*
X265369185Y-47848578D01*
X265371604Y-47854972D01*
X265384142Y-47891049D01*
X265389970Y-47915392D01*
X265401745Y-48001781D01*
X265404217Y-48022749D01*
X265405067Y-48037217D01*
X265405200Y-49200000D01*
X247321651Y-49200000D01*
X247253530Y-49179998D01*
X247207037Y-49126342D01*
X247201818Y-49112936D01*
X247174527Y-49028943D01*
X247079041Y-48863557D01*
X247015146Y-48792594D01*
X246951253Y-48721634D01*
X246796752Y-48609382D01*
X246622288Y-48531706D01*
X246435487Y-48492000D01*
X246244513Y-48492000D01*
X246122772Y-48517877D01*
X246057711Y-48531706D01*
X246008570Y-48553585D01*
X245938203Y-48563018D01*
X245906076Y-48553584D01*
X245856939Y-48531707D01*
X245856935Y-48531706D01*
X245670134Y-48492000D01*
X245479160Y-48492000D01*
X245357419Y-48517877D01*
X245292358Y-48531706D01*
X245117893Y-48609383D01*
X244963394Y-48721633D01*
X244835605Y-48863557D01*
X244740119Y-49028943D01*
X244712829Y-49112936D01*
X244672756Y-49171542D01*
X244607359Y-49199179D01*
X244592996Y-49200000D01*
X240770553Y-49200000D01*
X240702432Y-49179998D01*
X240655939Y-49126342D01*
X240645243Y-49087174D01*
X240636798Y-49006816D01*
X240577783Y-48825188D01*
X240577783Y-48825187D01*
X240482297Y-48659801D01*
X240354508Y-48517877D01*
X240200009Y-48405627D01*
X240200008Y-48405626D01*
X240025544Y-48327950D01*
X239838743Y-48288244D01*
X239647769Y-48288244D01*
X239523235Y-48314714D01*
X239460967Y-48327950D01*
X239286502Y-48405627D01*
X239132003Y-48517877D01*
X239004214Y-48659801D01*
X238908728Y-48825187D01*
X238849714Y-49006814D01*
X238849713Y-49006816D01*
X238849714Y-49006816D01*
X238841268Y-49087172D01*
X238814256Y-49152828D01*
X238756034Y-49193457D01*
X238715959Y-49200000D01*
X228434500Y-49200000D01*
X228434500Y-49139362D01*
X228427989Y-49078799D01*
X228376889Y-48941796D01*
X228376888Y-48941794D01*
X228289261Y-48824738D01*
X228172205Y-48737111D01*
X228103702Y-48711561D01*
X228035201Y-48686011D01*
X227974638Y-48679500D01*
X227390000Y-48679500D01*
X227390000Y-47607721D01*
X227410001Y-47539605D01*
X227463656Y-47493111D01*
X227516000Y-47481725D01*
X264866033Y-47482317D01*
G37*
G04 #@! TD.AperFunction*
G04 #@! TA.AperFunction,Conductor*
G36*
X223990000Y-59200091D02*
G01*
X223902919Y-59181582D01*
X223855487Y-59171500D01*
X223664513Y-59171500D01*
X223539978Y-59197970D01*
X223477711Y-59211206D01*
X223303246Y-59288883D01*
X223148747Y-59401133D01*
X223020958Y-59543057D01*
X222925472Y-59708443D01*
X222866458Y-59890070D01*
X222846496Y-60079999D01*
X222866458Y-60269929D01*
X222925472Y-60451556D01*
X223020958Y-60616942D01*
X223020960Y-60616944D01*
X223148747Y-60758866D01*
X223303248Y-60871118D01*
X223477712Y-60948794D01*
X223664513Y-60988500D01*
X223664515Y-60988500D01*
X223855485Y-60988500D01*
X223855487Y-60988500D01*
X223990000Y-60959908D01*
X223990000Y-61390000D01*
X222070000Y-61390000D01*
X222070000Y-59150000D01*
X223990000Y-59150000D01*
X223990000Y-59200091D01*
G37*
G04 #@! TD.AperFunction*
G04 #@! TA.AperFunction,Conductor*
G36*
X228921000Y-49200000D02*
G01*
X228921000Y-56134000D01*
X228900998Y-56202121D01*
X228847342Y-56248614D01*
X228795000Y-56260000D01*
X228158447Y-56260000D01*
X228090326Y-56239998D01*
X228043833Y-56186342D01*
X228033729Y-56116068D01*
X228063223Y-56051488D01*
X228065746Y-56048663D01*
X228103906Y-56007209D01*
X228151722Y-55955268D01*
X228274860Y-55766791D01*
X228365296Y-55560616D01*
X228420564Y-55342368D01*
X228439156Y-55118000D01*
X228420564Y-54893632D01*
X228365296Y-54675384D01*
X228274860Y-54469209D01*
X228151722Y-54280732D01*
X227999240Y-54115094D01*
X227999239Y-54115093D01*
X227999237Y-54115091D01*
X227892641Y-54032124D01*
X227821576Y-53976811D01*
X227787792Y-53958528D01*
X227737402Y-53908516D01*
X227722050Y-53839199D01*
X227746611Y-53772586D01*
X227787793Y-53736901D01*
X227821300Y-53718768D01*
X227998903Y-53580533D01*
X228151321Y-53414962D01*
X228274419Y-53226548D01*
X228364822Y-53020451D01*
X228412544Y-52832000D01*
X227507116Y-52832000D01*
X227535493Y-52787844D01*
X227576000Y-52649889D01*
X227576000Y-52506111D01*
X227535493Y-52368156D01*
X227507116Y-52324000D01*
X228412544Y-52324000D01*
X228412544Y-52323999D01*
X228364822Y-52135548D01*
X228274419Y-51929451D01*
X228151321Y-51741037D01*
X228008018Y-51585367D01*
X227976597Y-51521702D01*
X227984584Y-51451156D01*
X228029443Y-51396127D01*
X228056679Y-51381977D01*
X228172204Y-51338889D01*
X228289261Y-51251261D01*
X228376889Y-51134204D01*
X228427989Y-50997201D01*
X228434500Y-50936638D01*
X228434500Y-49139362D01*
X228427989Y-49078799D01*
X228376889Y-48941796D01*
X228376888Y-48941794D01*
X228289261Y-48824738D01*
X228172205Y-48737111D01*
X228103702Y-48711561D01*
X228035201Y-48686011D01*
X227974638Y-48679500D01*
X226177362Y-48679500D01*
X226174013Y-48679859D01*
X226174013Y-48679860D01*
X226116799Y-48686011D01*
X225979794Y-48737111D01*
X225862738Y-48824738D01*
X225775111Y-48941794D01*
X225733446Y-49053504D01*
X225724011Y-49078799D01*
X225717500Y-49139362D01*
X225717499Y-49142711D01*
X225717499Y-49142730D01*
X225717499Y-50933269D01*
X225717499Y-50933287D01*
X225717500Y-50936638D01*
X225717860Y-50939986D01*
X225724011Y-50997200D01*
X225775111Y-51134205D01*
X225862738Y-51251261D01*
X225979794Y-51338888D01*
X225979795Y-51338888D01*
X225979796Y-51338889D01*
X226095313Y-51381975D01*
X226152148Y-51424521D01*
X226176959Y-51491041D01*
X226161868Y-51560415D01*
X226143982Y-51585367D01*
X226000676Y-51741040D01*
X225877580Y-51929451D01*
X225787177Y-52135548D01*
X225739455Y-52323999D01*
X225739456Y-52324000D01*
X226644884Y-52324000D01*
X226616507Y-52368156D01*
X226576000Y-52506111D01*
X226576000Y-52649889D01*
X226616507Y-52787844D01*
X226644884Y-52832000D01*
X225739455Y-52832000D01*
X225787177Y-53020451D01*
X225877580Y-53226548D01*
X226000678Y-53414962D01*
X226153096Y-53580533D01*
X226330702Y-53718769D01*
X226364207Y-53736902D01*
X226414597Y-53786915D01*
X226429949Y-53856232D01*
X226405388Y-53922845D01*
X226364207Y-53958528D01*
X226330423Y-53976811D01*
X226152762Y-54115091D01*
X226000278Y-54280731D01*
X225877139Y-54469209D01*
X225786702Y-54675388D01*
X225731437Y-54893627D01*
X225731436Y-54893632D01*
X225712844Y-55118000D01*
X225731436Y-55342368D01*
X225731436Y-55342371D01*
X225731437Y-55342372D01*
X225786702Y-55560611D01*
X225786703Y-55560614D01*
X225786704Y-55560616D01*
X225809856Y-55613398D01*
X225877139Y-55766790D01*
X225877140Y-55766791D01*
X226000278Y-55955268D01*
X226000281Y-55955271D01*
X226086254Y-56048663D01*
X226117675Y-56112328D01*
X226109688Y-56182874D01*
X226064829Y-56237902D01*
X225997340Y-56259943D01*
X225993553Y-56260000D01*
X225240239Y-56260000D01*
X225172118Y-56239998D01*
X225125625Y-56186342D01*
X225118533Y-56166615D01*
X225114283Y-56150755D01*
X225017523Y-55943251D01*
X224886195Y-55755696D01*
X224724303Y-55593804D01*
X224536750Y-55462477D01*
X224329243Y-55365715D01*
X224108087Y-55306457D01*
X223880000Y-55286502D01*
X223651912Y-55306457D01*
X223430756Y-55365715D01*
X223223249Y-55462477D01*
X223035696Y-55593804D01*
X222873804Y-55755696D01*
X222742476Y-55943251D01*
X222645716Y-56150755D01*
X222641467Y-56166615D01*
X222604514Y-56227236D01*
X222540652Y-56258256D01*
X222519761Y-56260000D01*
X201658077Y-56260000D01*
X201659576Y-56259189D01*
X201837240Y-56120906D01*
X201989722Y-55955268D01*
X202112860Y-55766791D01*
X202203296Y-55560616D01*
X202258564Y-55342368D01*
X202277156Y-55118000D01*
X202258564Y-54893632D01*
X202203296Y-54675384D01*
X202112860Y-54469209D01*
X201989722Y-54280732D01*
X201837240Y-54115094D01*
X201837239Y-54115093D01*
X201837237Y-54115091D01*
X201730641Y-54032124D01*
X201659576Y-53976811D01*
X201625792Y-53958528D01*
X201575402Y-53908516D01*
X201560050Y-53839199D01*
X201584611Y-53772586D01*
X201625793Y-53736901D01*
X201659300Y-53718768D01*
X201836903Y-53580533D01*
X201848517Y-53567917D01*
X208606496Y-53567917D01*
X208626458Y-53757847D01*
X208685472Y-53939474D01*
X208780958Y-54104860D01*
X208780960Y-54104862D01*
X208908747Y-54246784D01*
X209063248Y-54359036D01*
X209237712Y-54436712D01*
X209424513Y-54476418D01*
X209424515Y-54476418D01*
X209615485Y-54476418D01*
X209615487Y-54476418D01*
X209802288Y-54436712D01*
X209865139Y-54408728D01*
X209935505Y-54399294D01*
X209990449Y-54421899D01*
X210113248Y-54511118D01*
X210287712Y-54588794D01*
X210474513Y-54628500D01*
X210474515Y-54628500D01*
X210665485Y-54628500D01*
X210665487Y-54628500D01*
X210852288Y-54588794D01*
X211026752Y-54511118D01*
X211181253Y-54398866D01*
X211309040Y-54256944D01*
X211404527Y-54091556D01*
X211463542Y-53909928D01*
X211483504Y-53720000D01*
X211463542Y-53530072D01*
X211404527Y-53348444D01*
X211404527Y-53348443D01*
X211309041Y-53183057D01*
X211181252Y-53041133D01*
X211097108Y-52979999D01*
X212686496Y-52979999D01*
X212706458Y-53169929D01*
X212765472Y-53351556D01*
X212860958Y-53516942D01*
X212860960Y-53516944D01*
X212988747Y-53658866D01*
X213143248Y-53771118D01*
X213317712Y-53848794D01*
X213504513Y-53888500D01*
X213504515Y-53888500D01*
X213695485Y-53888500D01*
X213695487Y-53888500D01*
X213882288Y-53848794D01*
X214056752Y-53771118D01*
X214211253Y-53658866D01*
X214339040Y-53516944D01*
X214434527Y-53351556D01*
X214493542Y-53169928D01*
X214513504Y-52980000D01*
X214493542Y-52790072D01*
X214451090Y-52659418D01*
X214434527Y-52608443D01*
X214339041Y-52443057D01*
X214211252Y-52301133D01*
X214056753Y-52188883D01*
X214056752Y-52188882D01*
X213882288Y-52111206D01*
X213695487Y-52071500D01*
X213504513Y-52071500D01*
X213401859Y-52093320D01*
X213317711Y-52111206D01*
X213143246Y-52188883D01*
X212988747Y-52301133D01*
X212860958Y-52443057D01*
X212765472Y-52608443D01*
X212706458Y-52790070D01*
X212686496Y-52979999D01*
X211097108Y-52979999D01*
X211026753Y-52928883D01*
X211026752Y-52928882D01*
X210852288Y-52851206D01*
X210665487Y-52811500D01*
X210474513Y-52811500D01*
X210378069Y-52832000D01*
X210287707Y-52851207D01*
X210224858Y-52879189D01*
X210154491Y-52888623D01*
X210099550Y-52866018D01*
X209995019Y-52790072D01*
X209976752Y-52776800D01*
X209802288Y-52699124D01*
X209615487Y-52659418D01*
X209424513Y-52659418D01*
X209299979Y-52685888D01*
X209237711Y-52699124D01*
X209063246Y-52776801D01*
X208908747Y-52889051D01*
X208780958Y-53030975D01*
X208685472Y-53196361D01*
X208626458Y-53377988D01*
X208606496Y-53567917D01*
X201848517Y-53567917D01*
X201989321Y-53414962D01*
X202112419Y-53226548D01*
X202202822Y-53020451D01*
X202250544Y-52832000D01*
X201345116Y-52832000D01*
X201373493Y-52787844D01*
X201414000Y-52649889D01*
X201414000Y-52506111D01*
X201373493Y-52368156D01*
X201345116Y-52324000D01*
X202250544Y-52324000D01*
X202250544Y-52323999D01*
X202202822Y-52135548D01*
X202112419Y-51929451D01*
X201989321Y-51741037D01*
X201846018Y-51585367D01*
X201814597Y-51521702D01*
X201822584Y-51451156D01*
X201867443Y-51396127D01*
X201894679Y-51381977D01*
X202010204Y-51338889D01*
X202127261Y-51251261D01*
X202214889Y-51134204D01*
X202265989Y-50997201D01*
X202272500Y-50936638D01*
X202272500Y-50457499D01*
X205983996Y-50457499D01*
X206003958Y-50647429D01*
X206062972Y-50829056D01*
X206158458Y-50994442D01*
X206160942Y-50997201D01*
X206286247Y-51136366D01*
X206440748Y-51248618D01*
X206615212Y-51326294D01*
X206802013Y-51366000D01*
X206802015Y-51366000D01*
X206992985Y-51366000D01*
X206992987Y-51366000D01*
X207179788Y-51326294D01*
X207354252Y-51248618D01*
X207508753Y-51136366D01*
X207636540Y-50994444D01*
X207732027Y-50829056D01*
X207791042Y-50647428D01*
X207811004Y-50457500D01*
X207791042Y-50267572D01*
X207732027Y-50085944D01*
X207732027Y-50085943D01*
X207636541Y-49920557D01*
X207568169Y-49844622D01*
X220341874Y-49844622D01*
X220361836Y-50034551D01*
X220420850Y-50216178D01*
X220516336Y-50381564D01*
X220516338Y-50381566D01*
X220644125Y-50523488D01*
X220798626Y-50635740D01*
X220973090Y-50713416D01*
X221159891Y-50753122D01*
X221159893Y-50753122D01*
X221350863Y-50753122D01*
X221350865Y-50753122D01*
X221537666Y-50713416D01*
X221712130Y-50635740D01*
X221747558Y-50610000D01*
X222566496Y-50610000D01*
X222586458Y-50799929D01*
X222645472Y-50981556D01*
X222740958Y-51146942D01*
X222740960Y-51146944D01*
X222868747Y-51288866D01*
X223023248Y-51401118D01*
X223197712Y-51478794D01*
X223384513Y-51518500D01*
X223384515Y-51518500D01*
X223575485Y-51518500D01*
X223575487Y-51518500D01*
X223762288Y-51478794D01*
X223936752Y-51401118D01*
X224091253Y-51288866D01*
X224219040Y-51146944D01*
X224314527Y-50981556D01*
X224373542Y-50799928D01*
X224393504Y-50610000D01*
X224373542Y-50420072D01*
X224342931Y-50325862D01*
X224314527Y-50238443D01*
X224219041Y-50073057D01*
X224091252Y-49931133D01*
X223936753Y-49818883D01*
X223936752Y-49818882D01*
X223762288Y-49741206D01*
X223575487Y-49701500D01*
X223384513Y-49701500D01*
X223259979Y-49727970D01*
X223197711Y-49741206D01*
X223023246Y-49818883D01*
X222868747Y-49931133D01*
X222740958Y-50073057D01*
X222645472Y-50238443D01*
X222586458Y-50420070D01*
X222566496Y-50610000D01*
X221747558Y-50610000D01*
X221866631Y-50523488D01*
X221994418Y-50381566D01*
X222089905Y-50216178D01*
X222148920Y-50034550D01*
X222168882Y-49844622D01*
X222148920Y-49654694D01*
X222089905Y-49473066D01*
X222089905Y-49473065D01*
X221994419Y-49307679D01*
X221866630Y-49165755D01*
X221712131Y-49053505D01*
X221712130Y-49053504D01*
X221537666Y-48975828D01*
X221350865Y-48936122D01*
X221159891Y-48936122D01*
X221035357Y-48962592D01*
X220973089Y-48975828D01*
X220798624Y-49053505D01*
X220644125Y-49165755D01*
X220516336Y-49307679D01*
X220420850Y-49473065D01*
X220361836Y-49654692D01*
X220341874Y-49844622D01*
X207568169Y-49844622D01*
X207508752Y-49778633D01*
X207431502Y-49722508D01*
X207354252Y-49666382D01*
X207179788Y-49588706D01*
X206992987Y-49549000D01*
X206802013Y-49549000D01*
X206677478Y-49575470D01*
X206615211Y-49588706D01*
X206440746Y-49666383D01*
X206286247Y-49778633D01*
X206158458Y-49920557D01*
X206062972Y-50085943D01*
X206003958Y-50267570D01*
X205983996Y-50457499D01*
X202272500Y-50457499D01*
X202272500Y-49139362D01*
X202265989Y-49078799D01*
X202214889Y-48941796D01*
X202214888Y-48941794D01*
X202127261Y-48824738D01*
X202010205Y-48737111D01*
X201941702Y-48711561D01*
X201873201Y-48686011D01*
X201812638Y-48679500D01*
X200015362Y-48679500D01*
X200012013Y-48679859D01*
X200012013Y-48679860D01*
X199954799Y-48686011D01*
X199817794Y-48737111D01*
X199700738Y-48824738D01*
X199613111Y-48941794D01*
X199571446Y-49053504D01*
X199562011Y-49078799D01*
X199555500Y-49139362D01*
X199555500Y-50936638D01*
X199555860Y-50939986D01*
X199562011Y-50997200D01*
X199613111Y-51134205D01*
X199700738Y-51251261D01*
X199817794Y-51338888D01*
X199817795Y-51338888D01*
X199817796Y-51338889D01*
X199933313Y-51381975D01*
X199990148Y-51424521D01*
X200014959Y-51491041D01*
X199999868Y-51560415D01*
X199981982Y-51585367D01*
X199838676Y-51741040D01*
X199715580Y-51929451D01*
X199625177Y-52135548D01*
X199577455Y-52323999D01*
X199577456Y-52324000D01*
X200482884Y-52324000D01*
X200454507Y-52368156D01*
X200414000Y-52506111D01*
X200414000Y-52649889D01*
X200454507Y-52787844D01*
X200482884Y-52832000D01*
X199577455Y-52832000D01*
X199625177Y-53020451D01*
X199715580Y-53226548D01*
X199838678Y-53414962D01*
X199991096Y-53580533D01*
X200168702Y-53718769D01*
X200202207Y-53736902D01*
X200252597Y-53786915D01*
X200267949Y-53856232D01*
X200243388Y-53922845D01*
X200202207Y-53958528D01*
X200168423Y-53976811D01*
X199990762Y-54115091D01*
X199838278Y-54280731D01*
X199715139Y-54469209D01*
X199624702Y-54675388D01*
X199569437Y-54893627D01*
X199569436Y-54893632D01*
X199550844Y-55118000D01*
X199569436Y-55342368D01*
X199569436Y-55342371D01*
X199569437Y-55342372D01*
X199624702Y-55560611D01*
X199624703Y-55560614D01*
X199624704Y-55560616D01*
X199647856Y-55613398D01*
X199715139Y-55766790D01*
X199838278Y-55955268D01*
X199990762Y-56120908D01*
X200168418Y-56259185D01*
X200168420Y-56259186D01*
X200168424Y-56259189D01*
X200169923Y-56260000D01*
X198120000Y-56260000D01*
X198120000Y-47958000D01*
X228921000Y-47958000D01*
X228921000Y-49200000D01*
G37*
G04 #@! TD.AperFunction*
G04 #@! TA.AperFunction,Conductor*
G36*
X203685868Y-47481347D02*
G01*
X203753988Y-47501350D01*
X203800480Y-47555007D01*
X203811864Y-47606559D01*
X203814062Y-47958000D01*
X203954755Y-70468814D01*
X203962855Y-71764975D01*
X203956690Y-71804698D01*
X203896458Y-71990070D01*
X203876496Y-72179999D01*
X203896458Y-72369929D01*
X203959565Y-72564151D01*
X203956880Y-72565023D01*
X203968114Y-72606428D01*
X203984809Y-75277611D01*
X204016217Y-80302955D01*
X203975426Y-80296148D01*
X203947569Y-80291500D01*
X203722431Y-80291500D01*
X203500365Y-80328556D01*
X203500362Y-80328556D01*
X203500362Y-80328557D01*
X203287426Y-80401657D01*
X203089421Y-80508812D01*
X202911762Y-80647091D01*
X202759278Y-80812731D01*
X202670483Y-80948643D01*
X202616479Y-80994731D01*
X202546131Y-81004306D01*
X202481774Y-80974328D01*
X202459517Y-80948643D01*
X202370721Y-80812731D01*
X202218237Y-80647091D01*
X202040578Y-80508812D01*
X201842573Y-80401657D01*
X201698427Y-80352172D01*
X201629635Y-80328556D01*
X201407569Y-80291500D01*
X201182431Y-80291500D01*
X200960365Y-80328556D01*
X200960362Y-80328556D01*
X200960362Y-80328557D01*
X200747426Y-80401657D01*
X200549421Y-80508812D01*
X200371762Y-80647091D01*
X200219278Y-80812731D01*
X200130483Y-80948643D01*
X200076479Y-80994731D01*
X200006131Y-81004306D01*
X199941774Y-80974328D01*
X199919517Y-80948643D01*
X199830721Y-80812731D01*
X199678237Y-80647091D01*
X199500578Y-80508812D01*
X199302573Y-80401657D01*
X199158427Y-80352172D01*
X199089635Y-80328556D01*
X198867569Y-80291500D01*
X198642431Y-80291500D01*
X198420365Y-80328556D01*
X198420362Y-80328556D01*
X198420362Y-80328557D01*
X198207426Y-80401657D01*
X198009421Y-80508812D01*
X197831762Y-80647091D01*
X197679278Y-80812731D01*
X197556139Y-81001209D01*
X197465702Y-81207388D01*
X197410437Y-81425627D01*
X197410436Y-81425632D01*
X197391844Y-81650000D01*
X197410436Y-81874368D01*
X197410436Y-81874371D01*
X197410437Y-81874372D01*
X197465702Y-82092611D01*
X197556139Y-82298790D01*
X197679278Y-82487268D01*
X197822475Y-82642820D01*
X197853896Y-82706485D01*
X197845909Y-82777031D01*
X197801050Y-82832060D01*
X197773809Y-82846212D01*
X197747972Y-82855849D01*
X197658793Y-82889111D01*
X197541738Y-82976738D01*
X197454111Y-83093794D01*
X197419313Y-83187091D01*
X197403011Y-83230799D01*
X197396500Y-83291362D01*
X197396500Y-85088638D01*
X197403011Y-85149201D01*
X197419312Y-85192906D01*
X197454111Y-85286205D01*
X197541738Y-85403261D01*
X197658794Y-85490888D01*
X197658795Y-85490888D01*
X197658796Y-85490889D01*
X197795799Y-85541989D01*
X197856362Y-85548500D01*
X197859731Y-85548500D01*
X199650269Y-85548500D01*
X199653638Y-85548500D01*
X199714201Y-85541989D01*
X199851204Y-85490889D01*
X199968261Y-85403261D01*
X200055889Y-85286204D01*
X200099999Y-85167941D01*
X200142545Y-85111107D01*
X200209065Y-85086296D01*
X200278439Y-85101387D01*
X200310753Y-85126635D01*
X200348780Y-85167943D01*
X200371762Y-85192908D01*
X200491629Y-85286205D01*
X200549424Y-85331189D01*
X200747426Y-85438342D01*
X200960365Y-85511444D01*
X201182431Y-85548500D01*
X201182434Y-85548500D01*
X201407566Y-85548500D01*
X201407569Y-85548500D01*
X201629635Y-85511444D01*
X201842574Y-85438342D01*
X202040576Y-85331189D01*
X202218240Y-85192906D01*
X202370722Y-85027268D01*
X202459518Y-84891354D01*
X202513521Y-84845268D01*
X202583869Y-84835693D01*
X202648226Y-84865670D01*
X202670480Y-84891353D01*
X202759278Y-85027268D01*
X202871525Y-85149200D01*
X202911762Y-85192908D01*
X203031629Y-85286205D01*
X203089424Y-85331189D01*
X203287426Y-85438342D01*
X203500365Y-85511444D01*
X203722431Y-85548500D01*
X203722434Y-85548500D01*
X203947566Y-85548500D01*
X203947569Y-85548500D01*
X204048896Y-85531591D01*
X204061251Y-87508397D01*
X195737356Y-87509616D01*
X195735007Y-87508926D01*
X195692101Y-87509526D01*
X195678252Y-87508957D01*
X195669477Y-87508111D01*
X195658174Y-87507021D01*
X195579763Y-87498006D01*
X195554591Y-87492449D01*
X195521276Y-87481413D01*
X195514660Y-87479014D01*
X195463035Y-87458643D01*
X195444109Y-87449272D01*
X195411055Y-87429294D01*
X195401299Y-87422758D01*
X195359277Y-87391674D01*
X195346731Y-87381061D01*
X195318373Y-87353706D01*
X195307317Y-87341552D01*
X195274728Y-87300659D01*
X195267857Y-87291160D01*
X195246696Y-87258836D01*
X195236656Y-87240268D01*
X195214441Y-87189408D01*
X195211809Y-87182892D01*
X195199567Y-87149959D01*
X195193104Y-87124991D01*
X195181521Y-87048745D01*
X195178749Y-87027887D01*
X195177672Y-87011591D01*
X195177425Y-74835000D01*
X195796844Y-74835000D01*
X195815436Y-75059368D01*
X195815436Y-75059371D01*
X195815437Y-75059372D01*
X195870702Y-75277611D01*
X195961139Y-75483790D01*
X196084278Y-75672268D01*
X196227475Y-75827820D01*
X196258896Y-75891485D01*
X196250909Y-75962031D01*
X196206050Y-76017060D01*
X196178809Y-76031212D01*
X196152972Y-76040849D01*
X196063793Y-76074111D01*
X195946738Y-76161738D01*
X195859111Y-76278794D01*
X195808010Y-76415799D01*
X195808011Y-76415799D01*
X195801500Y-76476362D01*
X195801500Y-78273638D01*
X195801860Y-78276986D01*
X195808011Y-78334200D01*
X195859111Y-78471205D01*
X195946738Y-78588261D01*
X196063794Y-78675888D01*
X196063795Y-78675888D01*
X196063796Y-78675889D01*
X196200799Y-78726989D01*
X196261362Y-78733500D01*
X196264731Y-78733500D01*
X198055269Y-78733500D01*
X198058638Y-78733500D01*
X198119201Y-78726989D01*
X198256204Y-78675889D01*
X198373261Y-78588261D01*
X198460889Y-78471204D01*
X198511989Y-78334201D01*
X198518500Y-78273638D01*
X198518500Y-76476362D01*
X198511989Y-76415799D01*
X198460889Y-76278796D01*
X198460888Y-76278794D01*
X198373261Y-76161738D01*
X198256205Y-76074111D01*
X198194670Y-76051159D01*
X198141192Y-76031213D01*
X198084357Y-75988667D01*
X198059546Y-75922147D01*
X198074637Y-75852773D01*
X198092520Y-75827824D01*
X198235722Y-75672268D01*
X198358860Y-75483791D01*
X198449296Y-75277616D01*
X198504564Y-75059368D01*
X198523156Y-74835000D01*
X198504564Y-74610632D01*
X198449296Y-74392384D01*
X198358860Y-74186209D01*
X198346963Y-74168000D01*
X199550844Y-74168000D01*
X199569436Y-74392368D01*
X199569436Y-74392371D01*
X199569437Y-74392372D01*
X199624702Y-74610611D01*
X199715139Y-74816790D01*
X199838278Y-75005268D01*
X199990762Y-75170908D01*
X200127853Y-75277611D01*
X200168424Y-75309189D01*
X200366426Y-75416342D01*
X200579365Y-75489444D01*
X200801431Y-75526500D01*
X200801434Y-75526500D01*
X201026566Y-75526500D01*
X201026569Y-75526500D01*
X201248635Y-75489444D01*
X201461574Y-75416342D01*
X201659576Y-75309189D01*
X201837240Y-75170906D01*
X201989722Y-75005268D01*
X202112860Y-74816791D01*
X202203296Y-74610616D01*
X202258564Y-74392368D01*
X202277156Y-74168000D01*
X202258564Y-73943632D01*
X202203296Y-73725384D01*
X202112860Y-73519209D01*
X201989722Y-73330732D01*
X201837240Y-73165094D01*
X201837239Y-73165093D01*
X201837237Y-73165091D01*
X201659579Y-73026813D01*
X201659577Y-73026812D01*
X201659576Y-73026811D01*
X201626317Y-73008812D01*
X201575929Y-72958801D01*
X201560576Y-72889484D01*
X201585136Y-72822871D01*
X201626316Y-72787187D01*
X201659576Y-72769189D01*
X201837240Y-72630906D01*
X201989722Y-72465268D01*
X202112860Y-72276791D01*
X202203296Y-72070616D01*
X202258564Y-71852368D01*
X202277156Y-71628000D01*
X202258564Y-71403632D01*
X202203296Y-71185384D01*
X202112860Y-70979209D01*
X201989722Y-70790732D01*
X201837240Y-70625094D01*
X201837239Y-70625093D01*
X201837237Y-70625091D01*
X201659579Y-70486813D01*
X201659577Y-70486812D01*
X201659576Y-70486811D01*
X201626317Y-70468812D01*
X201575929Y-70418801D01*
X201560576Y-70349484D01*
X201585136Y-70282871D01*
X201626316Y-70247187D01*
X201659576Y-70229189D01*
X201837240Y-70090906D01*
X201989722Y-69925268D01*
X202112860Y-69736791D01*
X202203296Y-69530616D01*
X202258564Y-69312368D01*
X202277156Y-69088000D01*
X202258564Y-68863632D01*
X202203296Y-68645384D01*
X202112860Y-68439209D01*
X201989722Y-68250732D01*
X201837240Y-68085094D01*
X201837239Y-68085093D01*
X201837237Y-68085091D01*
X201730641Y-68002124D01*
X201659576Y-67946811D01*
X201625792Y-67928528D01*
X201575402Y-67878516D01*
X201560050Y-67809199D01*
X201584611Y-67742586D01*
X201625793Y-67706901D01*
X201659300Y-67688768D01*
X201836903Y-67550533D01*
X201989321Y-67384962D01*
X202112419Y-67196548D01*
X202202822Y-66990451D01*
X202250544Y-66802000D01*
X201345116Y-66802000D01*
X201373493Y-66757844D01*
X201414000Y-66619889D01*
X201414000Y-66476111D01*
X201373493Y-66338156D01*
X201345116Y-66294000D01*
X202250544Y-66294000D01*
X202250544Y-66293999D01*
X202202822Y-66105548D01*
X202112419Y-65899451D01*
X201989321Y-65711037D01*
X201846018Y-65555367D01*
X201814597Y-65491702D01*
X201822584Y-65421156D01*
X201867443Y-65366127D01*
X201894679Y-65351977D01*
X202010204Y-65308889D01*
X202127261Y-65221261D01*
X202214889Y-65104204D01*
X202265989Y-64967201D01*
X202272500Y-64906638D01*
X202272500Y-63109362D01*
X202265989Y-63048799D01*
X202214889Y-62911796D01*
X202214888Y-62911794D01*
X202127261Y-62794738D01*
X202010205Y-62707111D01*
X201941702Y-62681560D01*
X201873201Y-62656011D01*
X201812638Y-62649500D01*
X200015362Y-62649500D01*
X200012013Y-62649859D01*
X200012013Y-62649860D01*
X199954799Y-62656011D01*
X199817794Y-62707111D01*
X199700738Y-62794738D01*
X199613111Y-62911794D01*
X199562011Y-63048799D01*
X199555500Y-63109362D01*
X199555500Y-64906638D01*
X199555860Y-64909986D01*
X199562011Y-64967200D01*
X199613111Y-65104205D01*
X199700738Y-65221261D01*
X199817794Y-65308888D01*
X199817795Y-65308888D01*
X199817796Y-65308889D01*
X199933313Y-65351975D01*
X199990148Y-65394521D01*
X200014959Y-65461041D01*
X199999868Y-65530415D01*
X199981982Y-65555367D01*
X199838676Y-65711040D01*
X199715580Y-65899451D01*
X199625177Y-66105548D01*
X199577455Y-66293999D01*
X199577456Y-66294000D01*
X200482884Y-66294000D01*
X200454507Y-66338156D01*
X200414000Y-66476111D01*
X200414000Y-66619889D01*
X200454507Y-66757844D01*
X200482884Y-66802000D01*
X199577455Y-66802000D01*
X199625177Y-66990451D01*
X199715580Y-67196548D01*
X199838678Y-67384962D01*
X199991096Y-67550533D01*
X200168702Y-67688769D01*
X200202207Y-67706902D01*
X200252597Y-67756915D01*
X200267949Y-67826232D01*
X200243388Y-67892845D01*
X200202207Y-67928528D01*
X200168423Y-67946811D01*
X199990762Y-68085091D01*
X199838278Y-68250731D01*
X199715139Y-68439209D01*
X199624702Y-68645388D01*
X199597681Y-68752094D01*
X199569436Y-68863632D01*
X199550844Y-69088000D01*
X199569436Y-69312368D01*
X199569436Y-69312371D01*
X199569437Y-69312372D01*
X199624702Y-69530611D01*
X199715139Y-69736790D01*
X199838278Y-69925268D01*
X199990762Y-70090908D01*
X200168418Y-70229185D01*
X200168420Y-70229186D01*
X200168424Y-70229189D01*
X200201682Y-70247187D01*
X200252071Y-70297200D01*
X200267423Y-70366517D01*
X200242862Y-70433130D01*
X200201683Y-70468812D01*
X200176794Y-70482281D01*
X200168418Y-70486814D01*
X199990762Y-70625091D01*
X199838278Y-70790731D01*
X199715139Y-70979209D01*
X199624702Y-71185388D01*
X199597681Y-71292094D01*
X199569436Y-71403632D01*
X199550844Y-71628000D01*
X199569436Y-71852368D01*
X199569436Y-71852371D01*
X199569437Y-71852372D01*
X199624702Y-72070611D01*
X199715139Y-72276790D01*
X199775989Y-72369928D01*
X199838278Y-72465268D01*
X199917712Y-72551556D01*
X199990762Y-72630908D01*
X200168418Y-72769185D01*
X200168420Y-72769186D01*
X200168424Y-72769189D01*
X200201682Y-72787187D01*
X200252071Y-72837200D01*
X200267423Y-72906517D01*
X200242862Y-72973130D01*
X200201683Y-73008812D01*
X200176794Y-73022281D01*
X200168418Y-73026814D01*
X199990762Y-73165091D01*
X199838278Y-73330731D01*
X199715139Y-73519209D01*
X199624702Y-73725388D01*
X199597681Y-73832094D01*
X199569436Y-73943632D01*
X199550844Y-74168000D01*
X198346963Y-74168000D01*
X198235722Y-73997732D01*
X198083240Y-73832094D01*
X198083239Y-73832093D01*
X198083237Y-73832091D01*
X197905579Y-73693813D01*
X197905577Y-73693812D01*
X197905576Y-73693811D01*
X197872317Y-73675812D01*
X197821929Y-73625801D01*
X197806576Y-73556484D01*
X197831136Y-73489871D01*
X197872316Y-73454187D01*
X197905576Y-73436189D01*
X198083240Y-73297906D01*
X198235722Y-73132268D01*
X198358860Y-72943791D01*
X198449296Y-72737616D01*
X198504564Y-72519368D01*
X198523156Y-72295000D01*
X198504564Y-72070632D01*
X198449296Y-71852384D01*
X198358860Y-71646209D01*
X198235722Y-71457732D01*
X198083240Y-71292094D01*
X198083239Y-71292093D01*
X198083237Y-71292091D01*
X197905579Y-71153813D01*
X197905577Y-71153812D01*
X197905576Y-71153811D01*
X197872317Y-71135812D01*
X197821929Y-71085801D01*
X197806576Y-71016484D01*
X197831136Y-70949871D01*
X197872316Y-70914187D01*
X197905576Y-70896189D01*
X198083240Y-70757906D01*
X198235722Y-70592268D01*
X198358860Y-70403791D01*
X198449296Y-70197616D01*
X198504564Y-69979368D01*
X198523156Y-69755000D01*
X198504564Y-69530632D01*
X198449296Y-69312384D01*
X198358860Y-69106209D01*
X198235722Y-68917732D01*
X198083240Y-68752094D01*
X198083239Y-68752093D01*
X198083237Y-68752091D01*
X197905578Y-68613812D01*
X197872317Y-68595812D01*
X197821927Y-68545798D01*
X197806576Y-68476481D01*
X197831138Y-68409868D01*
X197872315Y-68374188D01*
X197905576Y-68356189D01*
X198083240Y-68217906D01*
X198235722Y-68052268D01*
X198358860Y-67863791D01*
X198449296Y-67657616D01*
X198504564Y-67439368D01*
X198523156Y-67215000D01*
X198504564Y-66990632D01*
X198449296Y-66772384D01*
X198358860Y-66566209D01*
X198235722Y-66377732D01*
X198083240Y-66212094D01*
X198083239Y-66212093D01*
X198083237Y-66212091D01*
X197905578Y-66073812D01*
X197872317Y-66055812D01*
X197821927Y-66005798D01*
X197806576Y-65936481D01*
X197831138Y-65869868D01*
X197872315Y-65834188D01*
X197905576Y-65816189D01*
X198083240Y-65677906D01*
X198235722Y-65512268D01*
X198358860Y-65323791D01*
X198449296Y-65117616D01*
X198504564Y-64899368D01*
X198523156Y-64675000D01*
X198504564Y-64450632D01*
X198449296Y-64232384D01*
X198358860Y-64026209D01*
X198235722Y-63837732D01*
X198083240Y-63672094D01*
X198083239Y-63672093D01*
X198083237Y-63672091D01*
X197905579Y-63533813D01*
X197905577Y-63533812D01*
X197905576Y-63533811D01*
X197872317Y-63515812D01*
X197821929Y-63465801D01*
X197806576Y-63396484D01*
X197831136Y-63329871D01*
X197872316Y-63294187D01*
X197905576Y-63276189D01*
X198083240Y-63137906D01*
X198235722Y-62972268D01*
X198358860Y-62783791D01*
X198449296Y-62577616D01*
X198504564Y-62359368D01*
X198523156Y-62135000D01*
X198504564Y-61910632D01*
X198449296Y-61692384D01*
X198358860Y-61486209D01*
X198235722Y-61297732D01*
X198083240Y-61132094D01*
X198083239Y-61132093D01*
X198083237Y-61132091D01*
X197905579Y-60993813D01*
X197905577Y-60993812D01*
X197905576Y-60993811D01*
X197872317Y-60975812D01*
X197821929Y-60925801D01*
X197806576Y-60856484D01*
X197831136Y-60789871D01*
X197872316Y-60754187D01*
X197905576Y-60736189D01*
X198083240Y-60597906D01*
X198235722Y-60432268D01*
X198358860Y-60243791D01*
X198378946Y-60198000D01*
X199550844Y-60198000D01*
X199569436Y-60422368D01*
X199569436Y-60422371D01*
X199569437Y-60422372D01*
X199624702Y-60640611D01*
X199715139Y-60846790D01*
X199732601Y-60873517D01*
X199838278Y-61035268D01*
X199927413Y-61132094D01*
X199990762Y-61200908D01*
X200168421Y-61339187D01*
X200168424Y-61339189D01*
X200366426Y-61446342D01*
X200579365Y-61519444D01*
X200801431Y-61556500D01*
X200801434Y-61556500D01*
X201026566Y-61556500D01*
X201026569Y-61556500D01*
X201248635Y-61519444D01*
X201461574Y-61446342D01*
X201659576Y-61339189D01*
X201837240Y-61200906D01*
X201989722Y-61035268D01*
X202112860Y-60846791D01*
X202203296Y-60640616D01*
X202258564Y-60422368D01*
X202277156Y-60198000D01*
X202258564Y-59973632D01*
X202203296Y-59755384D01*
X202112860Y-59549209D01*
X201989722Y-59360732D01*
X201837240Y-59195094D01*
X201837239Y-59195093D01*
X201837237Y-59195091D01*
X201659579Y-59056813D01*
X201659577Y-59056812D01*
X201659576Y-59056811D01*
X201626317Y-59038812D01*
X201575929Y-58988801D01*
X201560576Y-58919484D01*
X201585136Y-58852871D01*
X201626316Y-58817187D01*
X201659576Y-58799189D01*
X201837240Y-58660906D01*
X201989722Y-58495268D01*
X202112860Y-58306791D01*
X202203296Y-58100616D01*
X202258564Y-57882368D01*
X202277156Y-57658000D01*
X202258564Y-57433632D01*
X202203296Y-57215384D01*
X202112860Y-57009209D01*
X201989722Y-56820732D01*
X201837240Y-56655094D01*
X201837239Y-56655093D01*
X201837237Y-56655091D01*
X201659578Y-56516812D01*
X201626317Y-56498812D01*
X201575927Y-56448798D01*
X201560576Y-56379481D01*
X201585138Y-56312868D01*
X201626315Y-56277188D01*
X201659576Y-56259189D01*
X201837240Y-56120906D01*
X201989722Y-55955268D01*
X202112860Y-55766791D01*
X202203296Y-55560616D01*
X202258564Y-55342368D01*
X202277156Y-55118000D01*
X202258564Y-54893632D01*
X202203296Y-54675384D01*
X202112860Y-54469209D01*
X201989722Y-54280732D01*
X201837240Y-54115094D01*
X201837239Y-54115093D01*
X201837237Y-54115091D01*
X201730641Y-54032124D01*
X201659576Y-53976811D01*
X201625792Y-53958528D01*
X201575402Y-53908516D01*
X201560050Y-53839199D01*
X201584611Y-53772586D01*
X201625793Y-53736901D01*
X201659300Y-53718768D01*
X201836903Y-53580533D01*
X201989321Y-53414962D01*
X202112419Y-53226548D01*
X202202822Y-53020451D01*
X202250544Y-52832000D01*
X201345116Y-52832000D01*
X201373493Y-52787844D01*
X201414000Y-52649889D01*
X201414000Y-52506111D01*
X201373493Y-52368156D01*
X201345116Y-52324000D01*
X202250544Y-52324000D01*
X202250544Y-52323999D01*
X202202822Y-52135548D01*
X202112419Y-51929451D01*
X201989321Y-51741037D01*
X201846018Y-51585367D01*
X201814597Y-51521702D01*
X201822584Y-51451156D01*
X201867443Y-51396127D01*
X201894679Y-51381977D01*
X202010204Y-51338889D01*
X202127261Y-51251261D01*
X202214889Y-51134204D01*
X202265989Y-50997201D01*
X202272500Y-50936638D01*
X202272500Y-49139362D01*
X202265989Y-49078799D01*
X202214889Y-48941796D01*
X202214888Y-48941794D01*
X202127261Y-48824738D01*
X202010205Y-48737111D01*
X201941702Y-48711561D01*
X201873201Y-48686011D01*
X201812638Y-48679500D01*
X200015362Y-48679500D01*
X200012013Y-48679859D01*
X200012013Y-48679860D01*
X199954799Y-48686011D01*
X199817794Y-48737111D01*
X199700738Y-48824738D01*
X199613111Y-48941794D01*
X199562011Y-49078798D01*
X199562011Y-49078799D01*
X199555500Y-49139362D01*
X199555500Y-50936638D01*
X199555860Y-50939986D01*
X199562011Y-50997200D01*
X199613111Y-51134205D01*
X199700738Y-51251261D01*
X199817794Y-51338888D01*
X199817795Y-51338888D01*
X199817796Y-51338889D01*
X199933313Y-51381975D01*
X199990148Y-51424521D01*
X200014959Y-51491041D01*
X199999868Y-51560415D01*
X199981982Y-51585367D01*
X199838676Y-51741040D01*
X199715580Y-51929451D01*
X199625177Y-52135548D01*
X199577455Y-52323999D01*
X199577456Y-52324000D01*
X200482884Y-52324000D01*
X200454507Y-52368156D01*
X200414000Y-52506111D01*
X200414000Y-52649889D01*
X200454507Y-52787844D01*
X200482884Y-52832000D01*
X199577455Y-52832000D01*
X199625177Y-53020451D01*
X199715580Y-53226548D01*
X199838678Y-53414962D01*
X199991096Y-53580533D01*
X200168702Y-53718769D01*
X200202207Y-53736902D01*
X200252597Y-53786915D01*
X200267949Y-53856232D01*
X200243388Y-53922845D01*
X200202207Y-53958528D01*
X200168423Y-53976811D01*
X199990762Y-54115091D01*
X199838278Y-54280731D01*
X199715139Y-54469209D01*
X199624702Y-54675388D01*
X199569437Y-54893627D01*
X199569436Y-54893632D01*
X199550844Y-55118000D01*
X199569436Y-55342368D01*
X199569436Y-55342371D01*
X199569437Y-55342372D01*
X199624702Y-55560611D01*
X199715139Y-55766790D01*
X199838278Y-55955268D01*
X199990762Y-56120908D01*
X200092611Y-56200181D01*
X200168424Y-56259189D01*
X200201682Y-56277187D01*
X200252070Y-56327197D01*
X200267423Y-56396513D01*
X200242863Y-56463127D01*
X200201683Y-56498811D01*
X200168423Y-56516810D01*
X199990762Y-56655091D01*
X199838278Y-56820731D01*
X199715139Y-57009209D01*
X199624702Y-57215388D01*
X199569437Y-57433627D01*
X199569436Y-57433632D01*
X199550844Y-57658000D01*
X199569436Y-57882368D01*
X199569436Y-57882371D01*
X199569437Y-57882372D01*
X199624702Y-58100611D01*
X199715139Y-58306790D01*
X199741186Y-58346658D01*
X199838278Y-58495268D01*
X199927413Y-58592094D01*
X199990762Y-58660908D01*
X200168418Y-58799185D01*
X200168420Y-58799186D01*
X200168424Y-58799189D01*
X200201682Y-58817187D01*
X200252071Y-58867200D01*
X200267423Y-58936517D01*
X200242862Y-59003130D01*
X200201683Y-59038812D01*
X200176794Y-59052281D01*
X200168418Y-59056814D01*
X199990762Y-59195091D01*
X199838278Y-59360731D01*
X199715139Y-59549209D01*
X199624702Y-59755388D01*
X199569437Y-59973627D01*
X199569436Y-59973632D01*
X199550844Y-60198000D01*
X198378946Y-60198000D01*
X198449296Y-60037616D01*
X198504564Y-59819368D01*
X198523156Y-59595000D01*
X198504564Y-59370632D01*
X198449296Y-59152384D01*
X198358860Y-58946209D01*
X198235722Y-58757732D01*
X198083240Y-58592094D01*
X198083239Y-58592093D01*
X198083237Y-58592091D01*
X197905578Y-58453812D01*
X197707573Y-58346657D01*
X197563427Y-58297172D01*
X197494635Y-58273556D01*
X197272569Y-58236500D01*
X197047431Y-58236500D01*
X196825365Y-58273556D01*
X196825362Y-58273556D01*
X196825362Y-58273557D01*
X196612426Y-58346657D01*
X196414421Y-58453812D01*
X196236762Y-58592091D01*
X196084278Y-58757731D01*
X195961139Y-58946209D01*
X195870702Y-59152388D01*
X195817943Y-59360731D01*
X195815436Y-59370632D01*
X195796844Y-59595000D01*
X195815436Y-59819368D01*
X195815436Y-59819371D01*
X195815437Y-59819372D01*
X195870702Y-60037611D01*
X195961139Y-60243790D01*
X196084278Y-60432268D01*
X196236762Y-60597908D01*
X196414418Y-60736185D01*
X196414420Y-60736186D01*
X196414424Y-60736189D01*
X196447682Y-60754187D01*
X196498071Y-60804200D01*
X196513423Y-60873517D01*
X196488862Y-60940130D01*
X196447683Y-60975812D01*
X196422794Y-60989281D01*
X196414418Y-60993814D01*
X196236762Y-61132091D01*
X196084278Y-61297731D01*
X195961139Y-61486209D01*
X195870702Y-61692388D01*
X195815437Y-61910627D01*
X195815436Y-61910632D01*
X195796844Y-62135000D01*
X195815436Y-62359368D01*
X195815436Y-62359371D01*
X195815437Y-62359372D01*
X195870702Y-62577611D01*
X195961139Y-62783790D01*
X196044768Y-62911794D01*
X196084278Y-62972268D01*
X196154730Y-63048799D01*
X196236762Y-63137908D01*
X196414418Y-63276185D01*
X196414420Y-63276186D01*
X196414424Y-63276189D01*
X196447682Y-63294187D01*
X196498071Y-63344200D01*
X196513423Y-63413517D01*
X196488862Y-63480130D01*
X196447683Y-63515812D01*
X196422794Y-63529281D01*
X196414418Y-63533814D01*
X196236762Y-63672091D01*
X196084278Y-63837731D01*
X195961139Y-64026209D01*
X195870702Y-64232388D01*
X195815437Y-64450627D01*
X195815436Y-64450632D01*
X195796844Y-64675000D01*
X195815436Y-64899368D01*
X195815436Y-64899371D01*
X195815437Y-64899372D01*
X195870702Y-65117611D01*
X195961139Y-65323790D01*
X196084278Y-65512268D01*
X196236762Y-65677908D01*
X196279326Y-65711037D01*
X196414424Y-65816189D01*
X196447682Y-65834187D01*
X196498070Y-65884197D01*
X196513423Y-65953513D01*
X196488863Y-66020127D01*
X196447683Y-66055811D01*
X196414423Y-66073810D01*
X196236762Y-66212091D01*
X196084278Y-66377731D01*
X195961139Y-66566209D01*
X195870702Y-66772388D01*
X195843756Y-66878798D01*
X195815436Y-66990632D01*
X195796844Y-67215000D01*
X195815436Y-67439368D01*
X195815436Y-67439371D01*
X195815437Y-67439372D01*
X195870702Y-67657611D01*
X195870703Y-67657614D01*
X195870704Y-67657616D01*
X195884369Y-67688769D01*
X195961139Y-67863790D01*
X196084278Y-68052268D01*
X196236762Y-68217908D01*
X196414418Y-68356185D01*
X196414420Y-68356186D01*
X196414424Y-68356189D01*
X196447682Y-68374187D01*
X196498071Y-68424200D01*
X196513423Y-68493517D01*
X196488862Y-68560130D01*
X196447683Y-68595812D01*
X196422794Y-68609281D01*
X196414418Y-68613814D01*
X196236762Y-68752091D01*
X196084278Y-68917731D01*
X195961139Y-69106209D01*
X195870702Y-69312388D01*
X195815441Y-69530611D01*
X195815436Y-69530632D01*
X195796844Y-69755000D01*
X195815436Y-69979368D01*
X195815436Y-69979371D01*
X195815437Y-69979372D01*
X195870702Y-70197611D01*
X195961139Y-70403790D01*
X196084278Y-70592268D01*
X196236762Y-70757908D01*
X196414418Y-70896185D01*
X196414420Y-70896186D01*
X196414424Y-70896189D01*
X196447682Y-70914187D01*
X196498071Y-70964200D01*
X196513423Y-71033517D01*
X196488862Y-71100130D01*
X196447683Y-71135812D01*
X196422794Y-71149281D01*
X196414418Y-71153814D01*
X196236762Y-71292091D01*
X196084278Y-71457731D01*
X195961139Y-71646209D01*
X195870702Y-71852388D01*
X195815441Y-72070611D01*
X195815436Y-72070632D01*
X195796844Y-72295000D01*
X195815436Y-72519368D01*
X195815436Y-72519371D01*
X195815437Y-72519372D01*
X195870702Y-72737611D01*
X195961139Y-72943790D01*
X196084278Y-73132268D01*
X196236762Y-73297908D01*
X196414418Y-73436185D01*
X196414420Y-73436186D01*
X196414424Y-73436189D01*
X196447682Y-73454187D01*
X196498071Y-73504200D01*
X196513423Y-73573517D01*
X196488862Y-73640130D01*
X196447683Y-73675812D01*
X196422794Y-73689281D01*
X196414418Y-73693814D01*
X196236762Y-73832091D01*
X196084278Y-73997731D01*
X195961139Y-74186209D01*
X195870702Y-74392388D01*
X195815441Y-74610611D01*
X195815436Y-74610632D01*
X195796844Y-74835000D01*
X195177425Y-74835000D01*
X195176881Y-48040822D01*
X195177670Y-48038134D01*
X195176994Y-47995875D01*
X195177575Y-47981613D01*
X195179438Y-47962557D01*
X195188893Y-47881703D01*
X195194584Y-47856300D01*
X195205508Y-47823788D01*
X195207944Y-47817165D01*
X195229362Y-47763667D01*
X195238957Y-47744579D01*
X195258940Y-47712045D01*
X195265599Y-47702271D01*
X195298097Y-47659097D01*
X195308943Y-47646513D01*
X195336317Y-47618701D01*
X195348733Y-47607651D01*
X195391388Y-47574470D01*
X195401070Y-47567648D01*
X195433264Y-47547163D01*
X195452179Y-47537274D01*
X195505397Y-47514981D01*
X195511931Y-47512460D01*
X195544237Y-47501031D01*
X195569625Y-47494922D01*
X195650410Y-47484174D01*
X195669436Y-47482008D01*
X195683448Y-47481220D01*
X203685868Y-47481347D01*
G37*
G04 #@! TD.AperFunction*
G04 #@! TA.AperFunction,Conductor*
G36*
X223361105Y-57801805D02*
G01*
X223430756Y-57834284D01*
X223481494Y-57847879D01*
X223651913Y-57893543D01*
X223880000Y-57913498D01*
X224108087Y-57893543D01*
X224329243Y-57834284D01*
X224329243Y-57834283D01*
X224398895Y-57801805D01*
X224452145Y-57790000D01*
X225609976Y-57790000D01*
X225678097Y-57810002D01*
X225724590Y-57863658D01*
X225732120Y-57885069D01*
X225786702Y-58100611D01*
X225877139Y-58306790D01*
X226000278Y-58495268D01*
X226152762Y-58660908D01*
X226330418Y-58799185D01*
X226330420Y-58799186D01*
X226330424Y-58799189D01*
X226363682Y-58817187D01*
X226414071Y-58867200D01*
X226429423Y-58936517D01*
X226404862Y-59003130D01*
X226363683Y-59038812D01*
X226338794Y-59052281D01*
X226330418Y-59056814D01*
X226152762Y-59195091D01*
X226000278Y-59360731D01*
X225877139Y-59549209D01*
X225786702Y-59755388D01*
X225734696Y-59960757D01*
X225731436Y-59973632D01*
X225712844Y-60198000D01*
X225731436Y-60422368D01*
X225731436Y-60422371D01*
X225731437Y-60422372D01*
X225786702Y-60640611D01*
X225877139Y-60846790D01*
X225953100Y-60963057D01*
X226000278Y-61035268D01*
X226086052Y-61128443D01*
X226152762Y-61200908D01*
X226330421Y-61339187D01*
X226330424Y-61339189D01*
X226528426Y-61446342D01*
X226741365Y-61519444D01*
X226963431Y-61556500D01*
X226963434Y-61556500D01*
X227188566Y-61556500D01*
X227188569Y-61556500D01*
X227410635Y-61519444D01*
X227623574Y-61446342D01*
X227821576Y-61339189D01*
X227999240Y-61200906D01*
X228151722Y-61035268D01*
X228274860Y-60846791D01*
X228365296Y-60640616D01*
X228420564Y-60422368D01*
X228439156Y-60198000D01*
X228420564Y-59973632D01*
X228365296Y-59755384D01*
X228274860Y-59549209D01*
X228151722Y-59360732D01*
X227999240Y-59195094D01*
X227999239Y-59195093D01*
X227999237Y-59195091D01*
X227821579Y-59056813D01*
X227821577Y-59056812D01*
X227821576Y-59056811D01*
X227788317Y-59038812D01*
X227737929Y-58988801D01*
X227722576Y-58919484D01*
X227747136Y-58852871D01*
X227788316Y-58817187D01*
X227821576Y-58799189D01*
X227999240Y-58660906D01*
X228151722Y-58495268D01*
X228274860Y-58306791D01*
X228365296Y-58100616D01*
X228419880Y-57885068D01*
X228455992Y-57823943D01*
X228519419Y-57792044D01*
X228542024Y-57790000D01*
X229870000Y-57790000D01*
X232070000Y-57790000D01*
X232070000Y-63940000D01*
X230989276Y-63940000D01*
X230891253Y-63831134D01*
X230866369Y-63813055D01*
X230814002Y-63775007D01*
X230736752Y-63718882D01*
X230599937Y-63657968D01*
X230545842Y-63611989D01*
X230525193Y-63544061D01*
X230544545Y-63475753D01*
X230577126Y-63440926D01*
X230582483Y-63437034D01*
X230621253Y-63408866D01*
X230749040Y-63266944D01*
X230844527Y-63101556D01*
X230903542Y-62919928D01*
X230923504Y-62730000D01*
X230903542Y-62540072D01*
X230844527Y-62358444D01*
X230844527Y-62358443D01*
X230749041Y-62193057D01*
X230621252Y-62051133D01*
X230466753Y-61938883D01*
X230466752Y-61938882D01*
X230292288Y-61861206D01*
X230105487Y-61821500D01*
X229914513Y-61821500D01*
X229789979Y-61847970D01*
X229727711Y-61861206D01*
X229553246Y-61938883D01*
X229398747Y-62051133D01*
X229270958Y-62193057D01*
X229175472Y-62358443D01*
X229116458Y-62540070D01*
X229096496Y-62730000D01*
X229116458Y-62919929D01*
X229175472Y-63101556D01*
X229179958Y-63109325D01*
X229196696Y-63178321D01*
X229173475Y-63245412D01*
X229117668Y-63289299D01*
X229046993Y-63296048D01*
X229044687Y-63295581D01*
X229025487Y-63291500D01*
X228834513Y-63291500D01*
X228709979Y-63317970D01*
X228647711Y-63331206D01*
X228626748Y-63340539D01*
X228611747Y-63347218D01*
X228541382Y-63356652D01*
X228477085Y-63326545D01*
X228439271Y-63266456D01*
X228434500Y-63232111D01*
X228434500Y-63112730D01*
X228434500Y-63109362D01*
X228427989Y-63048799D01*
X228376889Y-62911796D01*
X228376888Y-62911794D01*
X228289261Y-62794738D01*
X228172205Y-62707111D01*
X228103702Y-62681561D01*
X228035201Y-62656011D01*
X227974638Y-62649500D01*
X226177362Y-62649500D01*
X226174013Y-62649859D01*
X226174013Y-62649860D01*
X226116799Y-62656011D01*
X225979794Y-62707111D01*
X225862738Y-62794738D01*
X225775111Y-62911794D01*
X225747082Y-62986944D01*
X225724011Y-63048799D01*
X225717500Y-63109362D01*
X225717500Y-63112711D01*
X225717499Y-63112730D01*
X225717499Y-63445638D01*
X225697497Y-63513759D01*
X225643841Y-63560252D01*
X225573567Y-63570355D01*
X225540254Y-63560746D01*
X225488114Y-63537532D01*
X225301313Y-63497826D01*
X225110339Y-63497826D01*
X225000684Y-63521134D01*
X224923537Y-63537532D01*
X224749072Y-63615209D01*
X224594573Y-63727459D01*
X224466784Y-63869383D01*
X224462387Y-63877000D01*
X224411004Y-63925994D01*
X224353268Y-63940000D01*
X223693585Y-63940000D01*
X223642337Y-63929107D01*
X223550426Y-63888186D01*
X223512288Y-63871206D01*
X223325487Y-63831500D01*
X223134513Y-63831500D01*
X222947712Y-63871206D01*
X222947710Y-63871206D01*
X222947709Y-63871207D01*
X222817663Y-63929107D01*
X222766415Y-63940000D01*
X206345077Y-63940000D01*
X206276956Y-63919998D01*
X206235958Y-63877000D01*
X206199040Y-63813056D01*
X206071253Y-63671134D01*
X206060135Y-63663056D01*
X206011937Y-63628037D01*
X205968584Y-63571814D01*
X205960000Y-63526102D01*
X205960000Y-62287569D01*
X205980002Y-62219448D01*
X206011940Y-62185632D01*
X206021253Y-62178866D01*
X206149040Y-62036944D01*
X206244527Y-61871556D01*
X206303542Y-61689928D01*
X206323504Y-61500000D01*
X206303542Y-61310072D01*
X206244527Y-61128444D01*
X206244527Y-61128443D01*
X206149041Y-60963057D01*
X206136198Y-60948794D01*
X206111144Y-60920968D01*
X206080428Y-60856963D01*
X206089191Y-60786509D01*
X206111142Y-60752351D01*
X206179040Y-60676944D01*
X206179039Y-60676944D01*
X206187902Y-60667102D01*
X206190046Y-60669032D01*
X206227093Y-60633701D01*
X206296805Y-60620256D01*
X206362719Y-60646635D01*
X206403908Y-60704462D01*
X206406550Y-60713075D01*
X206445716Y-60859244D01*
X206542477Y-61066750D01*
X206673804Y-61254303D01*
X206835696Y-61416195D01*
X207023249Y-61547522D01*
X207230756Y-61644284D01*
X207285237Y-61658882D01*
X207451913Y-61703543D01*
X207680000Y-61723498D01*
X207908087Y-61703543D01*
X208129243Y-61644284D01*
X208336749Y-61547523D01*
X208524300Y-61416198D01*
X208686198Y-61254300D01*
X208817523Y-61066749D01*
X208914284Y-60859243D01*
X208932838Y-60790000D01*
X211886502Y-60790000D01*
X211892560Y-60859243D01*
X211906457Y-61018087D01*
X211965715Y-61239243D01*
X212062477Y-61446750D01*
X212193804Y-61634303D01*
X212355696Y-61796195D01*
X212543249Y-61927522D01*
X212750756Y-62024284D01*
X212797997Y-62036942D01*
X212971913Y-62083543D01*
X213200000Y-62103498D01*
X213428087Y-62083543D01*
X213649243Y-62024284D01*
X213856749Y-61927523D01*
X214044300Y-61796198D01*
X214206198Y-61634300D01*
X214337523Y-61446749D01*
X214434284Y-61239243D01*
X214493543Y-61018087D01*
X214494688Y-61004999D01*
X216731502Y-61004999D01*
X216751457Y-61233087D01*
X216810715Y-61454243D01*
X216907477Y-61661750D01*
X217038804Y-61849303D01*
X217200696Y-62011195D01*
X217388249Y-62142522D01*
X217595756Y-62239284D01*
X217655015Y-62255162D01*
X217816913Y-62298543D01*
X218045000Y-62318498D01*
X218273087Y-62298543D01*
X218494243Y-62239284D01*
X218701749Y-62142523D01*
X218889300Y-62011198D01*
X219051198Y-61849300D01*
X219182523Y-61661749D01*
X219265175Y-61484499D01*
X219706496Y-61484499D01*
X219726458Y-61674429D01*
X219785472Y-61856056D01*
X219880958Y-62021442D01*
X219880960Y-62021444D01*
X220008747Y-62163366D01*
X220163248Y-62275618D01*
X220337712Y-62353294D01*
X220461557Y-62379618D01*
X220524028Y-62413345D01*
X220558350Y-62475495D01*
X220560668Y-62489693D01*
X220576458Y-62639929D01*
X220635472Y-62821556D01*
X220730958Y-62986942D01*
X220730960Y-62986944D01*
X220858747Y-63128866D01*
X221013248Y-63241118D01*
X221187712Y-63318794D01*
X221374513Y-63358500D01*
X221374515Y-63358500D01*
X221565485Y-63358500D01*
X221565487Y-63358500D01*
X221752288Y-63318794D01*
X221926752Y-63241118D01*
X222081253Y-63128866D01*
X222209040Y-62986944D01*
X222304527Y-62821556D01*
X222363542Y-62639928D01*
X222383504Y-62450000D01*
X222363542Y-62260072D01*
X222312668Y-62103498D01*
X222304527Y-62078443D01*
X222209041Y-61913057D01*
X222081252Y-61771133D01*
X221969483Y-61689928D01*
X221926752Y-61658882D01*
X221752288Y-61581206D01*
X221752284Y-61581204D01*
X221628444Y-61554881D01*
X221565970Y-61521153D01*
X221531649Y-61459003D01*
X221529333Y-61444821D01*
X221513542Y-61294572D01*
X221482931Y-61200362D01*
X221454527Y-61112943D01*
X221359041Y-60947557D01*
X221268310Y-60846790D01*
X221231253Y-60805634D01*
X221209733Y-60789999D01*
X221076753Y-60693383D01*
X221076752Y-60693382D01*
X220902288Y-60615706D01*
X220715487Y-60576000D01*
X220524513Y-60576000D01*
X220399979Y-60602470D01*
X220337711Y-60615706D01*
X220163246Y-60693383D01*
X220008747Y-60805633D01*
X219880958Y-60947557D01*
X219785472Y-61112943D01*
X219726458Y-61294570D01*
X219706496Y-61484499D01*
X219265175Y-61484499D01*
X219279284Y-61454243D01*
X219338543Y-61233087D01*
X219358498Y-61005000D01*
X219338543Y-60776913D01*
X219279284Y-60555757D01*
X219182523Y-60348251D01*
X219127680Y-60269928D01*
X219077316Y-60198000D01*
X219051198Y-60160700D01*
X219051197Y-60160699D01*
X219051195Y-60160696D01*
X218970498Y-60079999D01*
X222846496Y-60079999D01*
X222866458Y-60269929D01*
X222925472Y-60451556D01*
X223020958Y-60616942D01*
X223020960Y-60616944D01*
X223148747Y-60758866D01*
X223303248Y-60871118D01*
X223477712Y-60948794D01*
X223664513Y-60988500D01*
X223664515Y-60988500D01*
X223855485Y-60988500D01*
X223855487Y-60988500D01*
X224042288Y-60948794D01*
X224216752Y-60871118D01*
X224371253Y-60758866D01*
X224499040Y-60616944D01*
X224594527Y-60451556D01*
X224653542Y-60269928D01*
X224673504Y-60080000D01*
X224653542Y-59890072D01*
X224619013Y-59783804D01*
X224594527Y-59708443D01*
X224499041Y-59543057D01*
X224371252Y-59401133D01*
X224216753Y-59288883D01*
X224216752Y-59288882D01*
X224042288Y-59211206D01*
X223855487Y-59171500D01*
X223664513Y-59171500D01*
X223553527Y-59195091D01*
X223477711Y-59211206D01*
X223303246Y-59288883D01*
X223148747Y-59401133D01*
X223020958Y-59543057D01*
X222925472Y-59708443D01*
X222866458Y-59890070D01*
X222846496Y-60079999D01*
X218970498Y-60079999D01*
X218889303Y-59998804D01*
X218701750Y-59867477D01*
X218494243Y-59770715D01*
X218273087Y-59711457D01*
X218045000Y-59691502D01*
X217816912Y-59711457D01*
X217595756Y-59770715D01*
X217388249Y-59867477D01*
X217200696Y-59998804D01*
X217038804Y-60160696D01*
X216907477Y-60348249D01*
X216810715Y-60555756D01*
X216751457Y-60776912D01*
X216731502Y-61004999D01*
X214494688Y-61004999D01*
X214513498Y-60790000D01*
X214493543Y-60561913D01*
X214436292Y-60348251D01*
X214434284Y-60340756D01*
X214337522Y-60133249D01*
X214243382Y-59998804D01*
X214206198Y-59945700D01*
X214206197Y-59945699D01*
X214206195Y-59945696D01*
X214044303Y-59783804D01*
X213856750Y-59652477D01*
X213649243Y-59555715D01*
X213428087Y-59496457D01*
X213200000Y-59476502D01*
X212971912Y-59496457D01*
X212750756Y-59555715D01*
X212543249Y-59652477D01*
X212355696Y-59783804D01*
X212193804Y-59945696D01*
X212062477Y-60133249D01*
X211965715Y-60340756D01*
X211906457Y-60561912D01*
X211905225Y-60576000D01*
X211886502Y-60790000D01*
X208932838Y-60790000D01*
X208973543Y-60638087D01*
X208993498Y-60410000D01*
X208973543Y-60181913D01*
X208914284Y-59960757D01*
X208881323Y-59890072D01*
X208817522Y-59753249D01*
X208686195Y-59565696D01*
X208524303Y-59403804D01*
X208336750Y-59272477D01*
X208129243Y-59175715D01*
X207908087Y-59116457D01*
X207680000Y-59096502D01*
X207451912Y-59116457D01*
X207230756Y-59175715D01*
X207023249Y-59272477D01*
X206835696Y-59403804D01*
X206673804Y-59565696D01*
X206542477Y-59753250D01*
X206516835Y-59808240D01*
X206469917Y-59861525D01*
X206401640Y-59880986D01*
X206333680Y-59860444D01*
X206287615Y-59806421D01*
X206282807Y-59793926D01*
X206274527Y-59768444D01*
X206179041Y-59603057D01*
X206051252Y-59461133D01*
X206011937Y-59432568D01*
X205968584Y-59376344D01*
X205960000Y-59330633D01*
X205960000Y-57916000D01*
X205980002Y-57847879D01*
X206033658Y-57801386D01*
X206086000Y-57790000D01*
X223307855Y-57790000D01*
X223361105Y-57801805D01*
G37*
G04 #@! TD.AperFunction*
G04 #@! TA.AperFunction,Conductor*
G36*
X221679318Y-69584002D02*
G01*
X221725811Y-69637658D01*
X221735915Y-69707932D01*
X221711159Y-69766705D01*
X221695463Y-69787159D01*
X221634955Y-69933238D01*
X221614318Y-70090000D01*
X221634955Y-70246761D01*
X221695464Y-70392842D01*
X221791717Y-70518282D01*
X221917157Y-70614535D01*
X221917158Y-70614535D01*
X221917159Y-70614536D01*
X222063238Y-70675044D01*
X222220000Y-70695682D01*
X222376762Y-70675044D01*
X222522841Y-70614536D01*
X222648282Y-70518282D01*
X222744536Y-70392841D01*
X222805044Y-70246762D01*
X222825682Y-70090000D01*
X222805044Y-69933238D01*
X222744536Y-69787159D01*
X222728840Y-69766704D01*
X222703240Y-69700484D01*
X222717504Y-69630935D01*
X222767105Y-69580139D01*
X222828803Y-69564000D01*
X226063757Y-69564000D01*
X226131878Y-69584002D01*
X226174878Y-69630603D01*
X226198315Y-69674450D01*
X226225793Y-69707932D01*
X226329589Y-69834410D01*
X226450013Y-69933238D01*
X226489550Y-69965685D01*
X226672046Y-70063232D01*
X226870066Y-70123300D01*
X227034813Y-70139526D01*
X227075999Y-70143583D01*
X227075999Y-70143582D01*
X227076000Y-70143583D01*
X227281934Y-70123300D01*
X227479954Y-70063232D01*
X227662450Y-69965685D01*
X227822410Y-69834410D01*
X227953685Y-69674450D01*
X227977121Y-69630603D01*
X228026873Y-69579956D01*
X228088243Y-69564000D01*
X229870000Y-69564000D01*
X236168000Y-69564000D01*
X236168000Y-72931744D01*
X236154955Y-72963238D01*
X236134318Y-73120000D01*
X236154955Y-73276761D01*
X236168000Y-73308254D01*
X236168000Y-74280000D01*
X236168000Y-74833774D01*
X236166922Y-74850219D01*
X236164318Y-74869999D01*
X236166922Y-74889779D01*
X236168000Y-74906225D01*
X236168000Y-77344000D01*
X236147998Y-77412121D01*
X236094342Y-77458614D01*
X236042000Y-77470000D01*
X214237746Y-77470000D01*
X214169625Y-77449998D01*
X214123132Y-77396342D01*
X214113028Y-77326068D01*
X214142522Y-77261488D01*
X214145355Y-77258326D01*
X214232433Y-77164479D01*
X214380228Y-76947704D01*
X214494063Y-76711323D01*
X214571396Y-76460615D01*
X214610500Y-76201182D01*
X214610500Y-75938818D01*
X214571396Y-75679385D01*
X214494063Y-75428677D01*
X214468541Y-75375681D01*
X214385527Y-75203300D01*
X214380228Y-75192296D01*
X214232433Y-74975521D01*
X214053981Y-74783195D01*
X213848857Y-74619614D01*
X213621643Y-74488432D01*
X213502618Y-74441718D01*
X213377417Y-74392580D01*
X213121630Y-74334198D01*
X212927836Y-74319675D01*
X212927822Y-74319674D01*
X212925494Y-74319500D01*
X212794506Y-74319500D01*
X212792178Y-74319674D01*
X212792163Y-74319675D01*
X212598369Y-74334198D01*
X212342582Y-74392580D01*
X212098356Y-74488432D01*
X211871146Y-74619612D01*
X211871143Y-74619614D01*
X211666019Y-74783195D01*
X211585477Y-74869999D01*
X211487563Y-74975525D01*
X211339772Y-75192295D01*
X211225936Y-75428676D01*
X211148605Y-75679381D01*
X211148604Y-75679385D01*
X211109500Y-75938818D01*
X211109500Y-76201182D01*
X211148604Y-76460615D01*
X211148605Y-76460618D01*
X211225936Y-76711323D01*
X211339772Y-76947704D01*
X211487563Y-77164474D01*
X211487565Y-77164476D01*
X211487567Y-77164479D01*
X211574620Y-77258300D01*
X211606290Y-77321839D01*
X211598581Y-77392416D01*
X211553939Y-77447621D01*
X211486537Y-77469927D01*
X211482254Y-77470000D01*
X205612000Y-77470000D01*
X205543879Y-77449998D01*
X205497386Y-77396342D01*
X205486000Y-77344000D01*
X205486000Y-73810000D01*
X219774318Y-73810000D01*
X219794955Y-73966761D01*
X219855464Y-74112842D01*
X219951717Y-74238282D01*
X220077157Y-74334535D01*
X220077158Y-74334535D01*
X220077159Y-74334536D01*
X220223238Y-74395044D01*
X220380000Y-74415682D01*
X220536762Y-74395044D01*
X220682841Y-74334536D01*
X220808282Y-74238282D01*
X220862211Y-74168000D01*
X226020416Y-74168000D01*
X226040699Y-74373929D01*
X226040699Y-74373931D01*
X226040700Y-74373934D01*
X226100768Y-74571954D01*
X226100769Y-74571956D01*
X226198314Y-74754449D01*
X226329589Y-74914410D01*
X226404054Y-74975521D01*
X226489550Y-75045685D01*
X226672046Y-75143232D01*
X226870066Y-75203300D01*
X227076000Y-75223583D01*
X227281934Y-75203300D01*
X227479954Y-75143232D01*
X227662450Y-75045685D01*
X227822410Y-74914410D01*
X227940924Y-74770000D01*
X230994318Y-74770000D01*
X231014955Y-74926761D01*
X231075464Y-75072842D01*
X231171717Y-75198282D01*
X231297157Y-75294535D01*
X231297158Y-75294535D01*
X231297159Y-75294536D01*
X231443238Y-75355044D01*
X231600000Y-75375682D01*
X231756762Y-75355044D01*
X231902841Y-75294536D01*
X232028282Y-75198282D01*
X232124536Y-75072841D01*
X232185044Y-74926762D01*
X232205682Y-74770000D01*
X232185044Y-74613238D01*
X232124536Y-74467159D01*
X232124535Y-74467158D01*
X232124535Y-74467157D01*
X232028282Y-74341717D01*
X231902842Y-74245464D01*
X231756761Y-74184955D01*
X231620637Y-74167034D01*
X231600000Y-74164318D01*
X231599999Y-74164318D01*
X231443238Y-74184955D01*
X231297157Y-74245464D01*
X231171717Y-74341717D01*
X231075464Y-74467157D01*
X231014955Y-74613238D01*
X230994318Y-74770000D01*
X227940924Y-74770000D01*
X227953685Y-74754450D01*
X228051232Y-74571954D01*
X228111300Y-74373934D01*
X228131583Y-74168000D01*
X228111300Y-73962066D01*
X228051232Y-73764046D01*
X227953685Y-73581550D01*
X227926383Y-73548282D01*
X227822410Y-73421589D01*
X227662449Y-73290314D01*
X227479956Y-73192769D01*
X227479955Y-73192768D01*
X227479954Y-73192768D01*
X227281934Y-73132700D01*
X227281931Y-73132699D01*
X227281929Y-73132699D01*
X227076000Y-73112416D01*
X226870070Y-73132699D01*
X226870067Y-73132699D01*
X226870066Y-73132700D01*
X226672046Y-73192768D01*
X226672043Y-73192769D01*
X226489550Y-73290314D01*
X226329589Y-73421589D01*
X226198314Y-73581550D01*
X226100769Y-73764043D01*
X226040699Y-73962070D01*
X226020416Y-74168000D01*
X220862211Y-74168000D01*
X220904536Y-74112841D01*
X220965044Y-73966762D01*
X220985682Y-73810000D01*
X220965044Y-73653238D01*
X220904536Y-73507159D01*
X220904535Y-73507158D01*
X220904535Y-73507157D01*
X220808282Y-73381717D01*
X220682842Y-73285464D01*
X220536761Y-73224955D01*
X220380000Y-73204318D01*
X220223238Y-73224955D01*
X220077157Y-73285464D01*
X219951717Y-73381717D01*
X219855464Y-73507157D01*
X219794955Y-73653238D01*
X219774318Y-73810000D01*
X205486000Y-73810000D01*
X205486000Y-71060000D01*
X210094318Y-71060000D01*
X210114955Y-71216761D01*
X210175464Y-71362842D01*
X210271717Y-71488282D01*
X210397157Y-71584535D01*
X210397158Y-71584535D01*
X210397159Y-71584536D01*
X210543238Y-71645044D01*
X210700000Y-71665682D01*
X210856762Y-71645044D01*
X210897912Y-71627999D01*
X226020416Y-71627999D01*
X226040699Y-71833929D01*
X226040699Y-71833931D01*
X226040700Y-71833934D01*
X226053812Y-71877159D01*
X226100769Y-72031956D01*
X226198314Y-72214449D01*
X226329589Y-72374410D01*
X226461714Y-72482841D01*
X226489550Y-72505685D01*
X226672046Y-72603232D01*
X226870066Y-72663300D01*
X227076000Y-72683583D01*
X227281934Y-72663300D01*
X227479954Y-72603232D01*
X227662450Y-72505685D01*
X227822410Y-72374410D01*
X227953685Y-72214450D01*
X228051232Y-72031954D01*
X228111300Y-71833934D01*
X228131583Y-71628000D01*
X228111300Y-71422066D01*
X228051232Y-71224046D01*
X228009499Y-71145969D01*
X234563982Y-71145969D01*
X234584619Y-71302731D01*
X234645128Y-71448812D01*
X234741381Y-71574252D01*
X234866821Y-71670505D01*
X234866822Y-71670505D01*
X234866823Y-71670506D01*
X235012902Y-71731014D01*
X235169664Y-71751652D01*
X235326426Y-71731014D01*
X235472505Y-71670506D01*
X235597946Y-71574252D01*
X235694200Y-71448811D01*
X235754708Y-71302732D01*
X235775346Y-71145970D01*
X235754708Y-70989208D01*
X235694200Y-70843129D01*
X235694199Y-70843128D01*
X235694199Y-70843127D01*
X235597946Y-70717687D01*
X235472506Y-70621434D01*
X235326425Y-70560925D01*
X235169664Y-70540288D01*
X235012902Y-70560925D01*
X234866821Y-70621434D01*
X234741381Y-70717687D01*
X234645128Y-70843127D01*
X234584619Y-70989208D01*
X234563982Y-71145969D01*
X228009499Y-71145969D01*
X227953685Y-71041550D01*
X227953684Y-71041550D01*
X227822410Y-70881589D01*
X227662449Y-70750314D01*
X227479956Y-70652769D01*
X227479955Y-70652768D01*
X227479954Y-70652768D01*
X227281934Y-70592700D01*
X227281931Y-70592699D01*
X227281929Y-70592699D01*
X227076000Y-70572416D01*
X226870070Y-70592699D01*
X226870067Y-70592699D01*
X226870066Y-70592700D01*
X226672046Y-70652768D01*
X226672043Y-70652769D01*
X226489550Y-70750314D01*
X226329589Y-70881589D01*
X226198314Y-71041550D01*
X226100769Y-71224043D01*
X226100768Y-71224045D01*
X226100768Y-71224046D01*
X226058666Y-71362841D01*
X226040699Y-71422070D01*
X226020416Y-71627999D01*
X210897912Y-71627999D01*
X211002841Y-71584536D01*
X211128282Y-71488282D01*
X211224536Y-71362841D01*
X211285044Y-71216762D01*
X211305682Y-71060000D01*
X211285044Y-70903238D01*
X211224536Y-70757159D01*
X211224535Y-70757158D01*
X211224535Y-70757157D01*
X211128282Y-70631717D01*
X211002842Y-70535464D01*
X210856761Y-70474955D01*
X210700000Y-70454318D01*
X210543238Y-70474955D01*
X210397157Y-70535464D01*
X210271717Y-70631717D01*
X210175464Y-70757157D01*
X210114955Y-70903238D01*
X210094318Y-71060000D01*
X205486000Y-71060000D01*
X205486000Y-69690000D01*
X205506002Y-69621879D01*
X205559658Y-69575386D01*
X205612000Y-69564000D01*
X221611197Y-69564000D01*
X221679318Y-69584002D01*
G37*
G04 #@! TD.AperFunction*
G04 #@! TA.AperFunction,Conductor*
G36*
X199613111Y-65104205D02*
G01*
X199700738Y-65221261D01*
X199817794Y-65308888D01*
X199817795Y-65308888D01*
X199817796Y-65308889D01*
X199933313Y-65351975D01*
X199990148Y-65394521D01*
X200014959Y-65461041D01*
X199999868Y-65530415D01*
X199981982Y-65555367D01*
X199838676Y-65711040D01*
X199715580Y-65899451D01*
X199625177Y-66105548D01*
X199577455Y-66293999D01*
X199577456Y-66294000D01*
X200482884Y-66294000D01*
X200454507Y-66338156D01*
X200414000Y-66476111D01*
X200414000Y-66619889D01*
X200454507Y-66757844D01*
X200482884Y-66802000D01*
X199577455Y-66802000D01*
X199625177Y-66990451D01*
X199715580Y-67196548D01*
X199838678Y-67384962D01*
X199991096Y-67550533D01*
X200168702Y-67688769D01*
X200202207Y-67706902D01*
X200252597Y-67756915D01*
X200267949Y-67826232D01*
X200243388Y-67892845D01*
X200202207Y-67928528D01*
X200168423Y-67946811D01*
X199990762Y-68085091D01*
X199838278Y-68250731D01*
X199789102Y-68326000D01*
X198120000Y-68326000D01*
X198120000Y-68177974D01*
X198235722Y-68052268D01*
X198358860Y-67863791D01*
X198449296Y-67657616D01*
X198504564Y-67439368D01*
X198523156Y-67215000D01*
X198504564Y-66990632D01*
X198449296Y-66772384D01*
X198358860Y-66566209D01*
X198235722Y-66377732D01*
X198158640Y-66293999D01*
X198120000Y-66252025D01*
X198120000Y-65637974D01*
X198235722Y-65512268D01*
X198358860Y-65323791D01*
X198449296Y-65117616D01*
X198473003Y-65024000D01*
X199583196Y-65024000D01*
X199613111Y-65104205D01*
G37*
G04 #@! TD.AperFunction*
G04 #@! TA.AperFunction,Conductor*
G36*
X204869231Y-65044002D02*
G01*
X204875165Y-65048060D01*
X205003248Y-65141118D01*
X205177712Y-65218794D01*
X205364513Y-65258500D01*
X205364515Y-65258500D01*
X205555485Y-65258500D01*
X205555487Y-65258500D01*
X205742288Y-65218794D01*
X205916752Y-65141118D01*
X206044829Y-65048063D01*
X206111697Y-65024206D01*
X206118890Y-65024000D01*
X208577232Y-65024000D01*
X208645353Y-65044002D01*
X208691846Y-65097658D01*
X208701950Y-65167932D01*
X208686351Y-65213000D01*
X208625472Y-65318444D01*
X208566458Y-65500070D01*
X208546496Y-65690000D01*
X208566458Y-65879929D01*
X208625472Y-66061556D01*
X208720958Y-66226942D01*
X208781337Y-66294000D01*
X208848747Y-66368866D01*
X209003248Y-66481118D01*
X209177712Y-66558794D01*
X209364513Y-66598500D01*
X209364515Y-66598500D01*
X209555485Y-66598500D01*
X209555487Y-66598500D01*
X209742288Y-66558794D01*
X209916752Y-66481118D01*
X210071253Y-66368866D01*
X210199040Y-66226944D01*
X210294527Y-66061556D01*
X210353542Y-65879928D01*
X210373504Y-65690000D01*
X210353542Y-65500072D01*
X210294527Y-65318444D01*
X210236994Y-65218794D01*
X210233649Y-65213000D01*
X210216911Y-65144005D01*
X210240131Y-65076913D01*
X210295938Y-65033026D01*
X210342768Y-65024000D01*
X222275480Y-65024000D01*
X222343601Y-65044002D01*
X222390094Y-65097658D01*
X222395314Y-65111066D01*
X222395473Y-65111558D01*
X222490958Y-65276942D01*
X222490960Y-65276944D01*
X222618747Y-65418866D01*
X222773248Y-65531118D01*
X222947712Y-65608794D01*
X223134513Y-65648500D01*
X223134515Y-65648500D01*
X223325485Y-65648500D01*
X223325487Y-65648500D01*
X223512288Y-65608794D01*
X223686752Y-65531118D01*
X223841253Y-65418866D01*
X223969040Y-65276944D01*
X224016783Y-65194250D01*
X224064526Y-65111558D01*
X224064686Y-65111066D01*
X224065484Y-65109898D01*
X224071149Y-65100087D01*
X224071897Y-65100519D01*
X224104759Y-65052459D01*
X224170155Y-65024822D01*
X224184520Y-65024000D01*
X224483377Y-65024000D01*
X224551498Y-65044002D01*
X224577011Y-65065687D01*
X224587119Y-65076913D01*
X224594574Y-65085193D01*
X224630974Y-65111639D01*
X224749074Y-65197444D01*
X224923538Y-65275120D01*
X225110339Y-65314826D01*
X225110341Y-65314826D01*
X225301311Y-65314826D01*
X225301313Y-65314826D01*
X225488114Y-65275120D01*
X225662578Y-65197444D01*
X225680187Y-65184649D01*
X225747051Y-65160792D01*
X225816203Y-65176871D01*
X225855116Y-65211078D01*
X225862739Y-65221262D01*
X225979794Y-65308888D01*
X225979795Y-65308888D01*
X225979796Y-65308889D01*
X226095313Y-65351975D01*
X226152148Y-65394521D01*
X226176959Y-65461041D01*
X226161868Y-65530415D01*
X226143982Y-65555367D01*
X226000676Y-65711040D01*
X225877580Y-65899451D01*
X225787177Y-66105548D01*
X225739455Y-66293999D01*
X225739456Y-66294000D01*
X226644884Y-66294000D01*
X226616507Y-66338156D01*
X226576000Y-66476111D01*
X226576000Y-66619889D01*
X226616507Y-66757844D01*
X226644884Y-66802000D01*
X225739455Y-66802000D01*
X225787177Y-66990451D01*
X225877580Y-67196548D01*
X226000678Y-67384962D01*
X226153096Y-67550533D01*
X226330702Y-67688769D01*
X226364207Y-67706902D01*
X226414597Y-67756915D01*
X226429949Y-67826232D01*
X226405388Y-67892845D01*
X226364207Y-67928528D01*
X226330423Y-67946811D01*
X226152762Y-68085091D01*
X226067258Y-68177973D01*
X226000278Y-68250732D01*
X225988396Y-68268917D01*
X225934396Y-68315003D01*
X225882916Y-68326000D01*
X220255758Y-68326000D01*
X220187637Y-68305998D01*
X220162122Y-68284311D01*
X220141252Y-68261133D01*
X219986753Y-68148883D01*
X219986752Y-68148882D01*
X219812288Y-68071206D01*
X219625487Y-68031500D01*
X219434513Y-68031500D01*
X219336808Y-68052268D01*
X219247711Y-68071206D01*
X219073246Y-68148883D01*
X218918747Y-68261133D01*
X218897878Y-68284311D01*
X218837431Y-68321550D01*
X218804242Y-68326000D01*
X202038897Y-68326000D01*
X201989722Y-68250732D01*
X201837240Y-68085094D01*
X201837239Y-68085093D01*
X201837237Y-68085091D01*
X201730641Y-68002124D01*
X201659576Y-67946811D01*
X201625792Y-67928528D01*
X201575402Y-67878516D01*
X201560050Y-67809199D01*
X201584611Y-67742586D01*
X201625793Y-67706901D01*
X201659300Y-67688768D01*
X201836903Y-67550533D01*
X201989321Y-67384962D01*
X202112419Y-67196548D01*
X202202822Y-66990451D01*
X202250544Y-66802000D01*
X201345116Y-66802000D01*
X201373493Y-66757844D01*
X201414000Y-66619889D01*
X201414000Y-66476111D01*
X201373493Y-66338156D01*
X201345116Y-66294000D01*
X202250544Y-66294000D01*
X202250544Y-66293999D01*
X202202822Y-66105548D01*
X202112419Y-65899451D01*
X201989321Y-65711037D01*
X201846018Y-65555367D01*
X201814597Y-65491702D01*
X201822584Y-65421156D01*
X201867443Y-65366127D01*
X201894679Y-65351977D01*
X202010204Y-65308889D01*
X202127261Y-65221261D01*
X202214889Y-65104204D01*
X202244804Y-65024000D01*
X203920725Y-65024000D01*
X204801110Y-65024000D01*
X204869231Y-65044002D01*
G37*
G04 #@! TD.AperFunction*
M02*
