%TF.GenerationSoftware,KiCad,Pcbnew,7.0.2-0*%
%TF.CreationDate,2023-05-07T22:08:23-05:00*%
%TF.ProjectId,spudglo_driver_v4p3,73707564-676c-46f5-9f64-72697665725f,rev?*%
%TF.SameCoordinates,Original*%
%TF.FileFunction,Drillmap*%
%TF.FilePolarity,Positive*%
%FSLAX45Y45*%
G04 Gerber Fmt 4.5, Leading zero omitted, Abs format (unit mm)*
G04 Created by KiCad (PCBNEW 7.0.2-0) date 2023-05-07 22:08:23*
%MOMM*%
%LPD*%
G01*
G04 APERTURE LIST*
%ADD10C,0.050000*%
%ADD11C,0.200000*%
%ADD12C,0.040000*%
%ADD13C,0.060000*%
%ADD14C,0.080000*%
%ADD15C,0.100000*%
%ADD16C,0.120000*%
%ADD17C,0.140000*%
%ADD18C,0.160000*%
G04 APERTURE END LIST*
D10*
X26488000Y-8750000D02*
X19568517Y-8751013D01*
X19567638Y-4748072D02*
X26487557Y-4748182D01*
X26540555Y-4802982D02*
G75*
G03*
X26487557Y-4748182I-55335J-488D01*
G01*
X19567638Y-4748072D02*
G75*
G03*
X19517638Y-4798872I2J-50008D01*
G01*
X19517638Y-4798872D02*
X19517717Y-8702013D01*
X26540557Y-4802982D02*
X26541000Y-8697000D01*
X26488000Y-8750000D02*
G75*
G03*
X26541000Y-8697000I-2350J55350D01*
G01*
X19517722Y-8702012D02*
G75*
G03*
X19568517Y-8751012I50008J1012D01*
G01*
D11*
D12*
X20459000Y-7198000D02*
X20499000Y-7238000D01*
X20499000Y-7198000D02*
X20459000Y-7238000D01*
X20521000Y-6130000D02*
X20561000Y-6170000D01*
X20561000Y-6130000D02*
X20521000Y-6170000D01*
X20524000Y-5994000D02*
X20564000Y-6034000D01*
X20564000Y-5994000D02*
X20524000Y-6034000D01*
X20526000Y-6415000D02*
X20566000Y-6455000D01*
X20566000Y-6415000D02*
X20526000Y-6455000D01*
X20669750Y-5025750D02*
X20709750Y-5065750D01*
X20709750Y-5025750D02*
X20669750Y-5065750D01*
X20869000Y-7609000D02*
X20909000Y-7649000D01*
X20909000Y-7609000D02*
X20869000Y-7649000D01*
X20916000Y-8115000D02*
X20956000Y-8155000D01*
X20956000Y-8115000D02*
X20916000Y-8155000D01*
X20926000Y-6549000D02*
X20966000Y-6589000D01*
X20966000Y-6549000D02*
X20926000Y-6589000D01*
X20932000Y-5336792D02*
X20972000Y-5376792D01*
X20972000Y-5336792D02*
X20932000Y-5376792D01*
X21037000Y-5352000D02*
X21077000Y-5392000D01*
X21077000Y-5352000D02*
X21037000Y-5392000D01*
X21050000Y-7086000D02*
X21090000Y-7126000D01*
X21090000Y-7086000D02*
X21050000Y-7126000D01*
X21340000Y-5278000D02*
X21380000Y-5318000D01*
X21380000Y-5278000D02*
X21340000Y-5318000D01*
X21605000Y-8110000D02*
X21645000Y-8150000D01*
X21645000Y-8110000D02*
X21605000Y-8150000D01*
X21933000Y-6874000D02*
X21973000Y-6914000D01*
X21973000Y-6874000D02*
X21933000Y-6914000D01*
X22018000Y-7361000D02*
X22058000Y-7401000D01*
X22058000Y-7361000D02*
X22018000Y-7401000D01*
X22042000Y-6128450D02*
X22082000Y-6168450D01*
X22082000Y-6128450D02*
X22042000Y-6168450D01*
X22105538Y-4964462D02*
X22145538Y-5004462D01*
X22145538Y-4964462D02*
X22105538Y-5004462D01*
X22127000Y-6225000D02*
X22167000Y-6265000D01*
X22167000Y-6225000D02*
X22127000Y-6265000D01*
X22202000Y-6989000D02*
X22242000Y-7029000D01*
X22242000Y-6989000D02*
X22202000Y-7029000D01*
X22303000Y-6454000D02*
X22343000Y-6494000D01*
X22343000Y-6454000D02*
X22303000Y-6494000D01*
X22328000Y-5041000D02*
X22368000Y-5081000D01*
X22368000Y-5041000D02*
X22328000Y-5081000D01*
X22356000Y-5988000D02*
X22396000Y-6028000D01*
X22396000Y-5988000D02*
X22356000Y-6028000D01*
X22496813Y-8156203D02*
X22536813Y-8196203D01*
X22536813Y-8156203D02*
X22496813Y-8196203D01*
X22500583Y-6420633D02*
X22540583Y-6460633D01*
X22540583Y-6420633D02*
X22500583Y-6460633D01*
X22873000Y-6400000D02*
X22913000Y-6440000D01*
X22913000Y-6400000D02*
X22873000Y-6440000D01*
X22981000Y-6253000D02*
X23021000Y-6293000D01*
X23021000Y-6253000D02*
X22981000Y-6293000D01*
X22986000Y-5205000D02*
X23026000Y-5245000D01*
X23026000Y-5205000D02*
X22986000Y-5245000D01*
X23008000Y-6431000D02*
X23048000Y-6471000D01*
X23048000Y-6431000D02*
X23008000Y-6471000D01*
X23049000Y-6602000D02*
X23089000Y-6642000D01*
X23089000Y-6602000D02*
X23049000Y-6642000D01*
X23094000Y-5979000D02*
X23134000Y-6019000D01*
X23134000Y-5979000D02*
X23094000Y-6019000D01*
X23104000Y-5358000D02*
X23144000Y-5398000D01*
X23144000Y-5358000D02*
X23104000Y-5398000D01*
X23127000Y-7349000D02*
X23167000Y-7389000D01*
X23167000Y-7349000D02*
X23127000Y-7389000D01*
X23140000Y-7457000D02*
X23180000Y-7497000D01*
X23180000Y-7457000D02*
X23140000Y-7497000D01*
X23302500Y-6475500D02*
X23342500Y-6515500D01*
X23342500Y-6475500D02*
X23302500Y-6515500D01*
X23305303Y-5001707D02*
X23345303Y-5041707D01*
X23345303Y-5001707D02*
X23305303Y-5041707D01*
X23340000Y-6741000D02*
X23380000Y-6781000D01*
X23380000Y-6741000D02*
X23340000Y-6781000D01*
X23402000Y-5110000D02*
X23442000Y-5150000D01*
X23442000Y-5110000D02*
X23402000Y-5150000D01*
X23496966Y-7094597D02*
X23536966Y-7134597D01*
X23536966Y-7094597D02*
X23496966Y-7134597D01*
X23599597Y-5394550D02*
X23639597Y-5434550D01*
X23639597Y-5394550D02*
X23599597Y-5434550D01*
X23654000Y-7292000D02*
X23694000Y-7332000D01*
X23694000Y-7292000D02*
X23654000Y-7332000D01*
X23657000Y-7467000D02*
X23697000Y-7507000D01*
X23697000Y-7467000D02*
X23657000Y-7507000D01*
X23711000Y-5544000D02*
X23751000Y-5584000D01*
X23751000Y-5544000D02*
X23711000Y-5584000D01*
X23757000Y-6398000D02*
X23797000Y-6438000D01*
X23797000Y-6398000D02*
X23757000Y-6438000D01*
X23758000Y-7882000D02*
X23798000Y-7922000D01*
X23798000Y-7882000D02*
X23758000Y-7922000D01*
X23759000Y-5850000D02*
X23799000Y-5890000D01*
X23799000Y-5850000D02*
X23759000Y-5890000D01*
X23786000Y-7480000D02*
X23826000Y-7520000D01*
X23826000Y-7480000D02*
X23786000Y-7520000D01*
X23800000Y-8185000D02*
X23840000Y-8225000D01*
X23840000Y-8185000D02*
X23800000Y-8225000D01*
X23805000Y-6546000D02*
X23845000Y-6586000D01*
X23845000Y-6546000D02*
X23805000Y-6586000D01*
X23819000Y-6290000D02*
X23859000Y-6330000D01*
X23859000Y-6290000D02*
X23819000Y-6330000D01*
X23824000Y-5963000D02*
X23864000Y-6003000D01*
X23864000Y-5963000D02*
X23824000Y-6003000D01*
X23827000Y-5048050D02*
X23867000Y-5088050D01*
X23867000Y-5048050D02*
X23827000Y-5088050D01*
X23850574Y-5316450D02*
X23890574Y-5356450D01*
X23890574Y-5316450D02*
X23850574Y-5356450D01*
X23867500Y-5723500D02*
X23907500Y-5763500D01*
X23907500Y-5723500D02*
X23867500Y-5763500D01*
X23878000Y-6375000D02*
X23918000Y-6415000D01*
X23918000Y-6375000D02*
X23878000Y-6415000D01*
X23928000Y-6871000D02*
X23968000Y-6911000D01*
X23968000Y-6871000D02*
X23928000Y-6911000D01*
X23933000Y-6541000D02*
X23973000Y-6581000D01*
X23973000Y-6541000D02*
X23933000Y-6581000D01*
X23954326Y-4899674D02*
X23994326Y-4939674D01*
X23994326Y-4899674D02*
X23954326Y-4939674D01*
X23968950Y-5869570D02*
X24008950Y-5909570D01*
X24008950Y-5869570D02*
X23968950Y-5909570D01*
X23968950Y-5975550D02*
X24008950Y-6015550D01*
X24008950Y-5975550D02*
X23968950Y-6015550D01*
X24015000Y-7016000D02*
X24055000Y-7056000D01*
X24055000Y-7016000D02*
X24015000Y-7056000D01*
X24056652Y-5927609D02*
X24096652Y-5967609D01*
X24096652Y-5927609D02*
X24056652Y-5967609D01*
X24087486Y-6531486D02*
X24127486Y-6571486D01*
X24127486Y-6531486D02*
X24087486Y-6571486D01*
X24092500Y-5752500D02*
X24132500Y-5792500D01*
X24132500Y-5752500D02*
X24092500Y-5792500D01*
X24180000Y-5397500D02*
X24220000Y-5437500D01*
X24220000Y-5397500D02*
X24180000Y-5437500D01*
X24181000Y-7100000D02*
X24221000Y-7140000D01*
X24221000Y-7100000D02*
X24181000Y-7140000D01*
X24195000Y-6198000D02*
X24235000Y-6238000D01*
X24235000Y-6198000D02*
X24195000Y-6238000D01*
X24216265Y-6525450D02*
X24256265Y-6565450D01*
X24256265Y-6525450D02*
X24216265Y-6565450D01*
X24248000Y-7262000D02*
X24288000Y-7302000D01*
X24288000Y-7262000D02*
X24248000Y-7302000D01*
X24285000Y-5701000D02*
X24325000Y-5741000D01*
X24325000Y-5701000D02*
X24285000Y-5741000D01*
X24336000Y-5345000D02*
X24376000Y-5385000D01*
X24376000Y-5345000D02*
X24336000Y-5385000D01*
X24361000Y-6054000D02*
X24401000Y-6094000D01*
X24401000Y-6054000D02*
X24361000Y-6094000D01*
X24425500Y-7118500D02*
X24465500Y-7158500D01*
X24465500Y-7118500D02*
X24425500Y-7158500D01*
X24430500Y-8105500D02*
X24470500Y-8145500D01*
X24470500Y-8105500D02*
X24430500Y-8145500D01*
X24442000Y-5990000D02*
X24482000Y-6030000D01*
X24482000Y-5990000D02*
X24442000Y-6030000D01*
X24461301Y-5713739D02*
X24501301Y-5753739D01*
X24501301Y-5713739D02*
X24461301Y-5753739D01*
X24499279Y-5860279D02*
X24539279Y-5900279D01*
X24539279Y-5860279D02*
X24499279Y-5900279D01*
X24524000Y-8033000D02*
X24564000Y-8073000D01*
X24564000Y-8033000D02*
X24524000Y-8073000D01*
X24537465Y-4920050D02*
X24577465Y-4960050D01*
X24577465Y-4920050D02*
X24537465Y-4960050D01*
X24559164Y-6525450D02*
X24599164Y-6565450D01*
X24599164Y-6525450D02*
X24559164Y-6565450D01*
X24582500Y-6295000D02*
X24622500Y-6335000D01*
X24622500Y-6295000D02*
X24582500Y-6335000D01*
X24584500Y-5403500D02*
X24624500Y-5443500D01*
X24624500Y-5403500D02*
X24584500Y-5443500D01*
X24614000Y-4920050D02*
X24654000Y-4960050D01*
X24654000Y-4920050D02*
X24614000Y-4960050D01*
X24694000Y-7340000D02*
X24734000Y-7380000D01*
X24734000Y-7340000D02*
X24694000Y-7380000D01*
X24716150Y-6679750D02*
X24756150Y-6719750D01*
X24756150Y-6679750D02*
X24716150Y-6719750D01*
X24736000Y-7922000D02*
X24776000Y-7962000D01*
X24776000Y-7922000D02*
X24736000Y-7962000D01*
X24794564Y-6950973D02*
X24834564Y-6990973D01*
X24834564Y-6950973D02*
X24794564Y-6990973D01*
X24810000Y-7056000D02*
X24850000Y-7096000D01*
X24850000Y-7056000D02*
X24810000Y-7096000D01*
X24843000Y-7733000D02*
X24883000Y-7773000D01*
X24883000Y-7733000D02*
X24843000Y-7773000D01*
X24919000Y-6739000D02*
X24959000Y-6779000D01*
X24959000Y-6739000D02*
X24919000Y-6779000D01*
X24928000Y-5223000D02*
X24968000Y-5263000D01*
X24968000Y-5223000D02*
X24928000Y-5263000D01*
X24942637Y-6928878D02*
X24982637Y-6968878D01*
X24982637Y-6928878D02*
X24942637Y-6968878D01*
X24957000Y-6323000D02*
X24997000Y-6363000D01*
X24997000Y-6323000D02*
X24957000Y-6363000D01*
X24993696Y-5192950D02*
X25033696Y-5232950D01*
X25033696Y-5192950D02*
X24993696Y-5232950D01*
X25027603Y-6835388D02*
X25067603Y-6875388D01*
X25067603Y-6835388D02*
X25027603Y-6875388D01*
X25052577Y-5917858D02*
X25092577Y-5957858D01*
X25092577Y-5917858D02*
X25052577Y-5957858D01*
X25064000Y-5644000D02*
X25104000Y-5684000D01*
X25104000Y-5644000D02*
X25064000Y-5684000D01*
X25064050Y-5746410D02*
X25104050Y-5786410D01*
X25104050Y-5746410D02*
X25064050Y-5786410D01*
X25077000Y-6343000D02*
X25117000Y-6383000D01*
X25117000Y-6343000D02*
X25077000Y-6383000D01*
X25137150Y-5864591D02*
X25177150Y-5904591D01*
X25177150Y-5864591D02*
X25137150Y-5904591D01*
X25163000Y-7486050D02*
X25203000Y-7526050D01*
X25203000Y-7486050D02*
X25163000Y-7526050D01*
X25197000Y-6478000D02*
X25237000Y-6518000D01*
X25237000Y-6478000D02*
X25197000Y-6518000D01*
X25280000Y-6557000D02*
X25320000Y-6597000D01*
X25320000Y-6557000D02*
X25280000Y-6597000D01*
X25282000Y-6475000D02*
X25322000Y-6515000D01*
X25322000Y-6475000D02*
X25282000Y-6515000D01*
X25286000Y-5891000D02*
X25326000Y-5931000D01*
X25326000Y-5891000D02*
X25286000Y-5931000D01*
X25517500Y-5595000D02*
X25557500Y-5635000D01*
X25557500Y-5595000D02*
X25517500Y-5635000D01*
X25527000Y-5748000D02*
X25567000Y-5788000D01*
X25567000Y-5748000D02*
X25527000Y-5788000D01*
X25539000Y-6536000D02*
X25579000Y-6576000D01*
X25579000Y-6536000D02*
X25539000Y-6576000D01*
X25632500Y-5680000D02*
X25672500Y-5720000D01*
X25672500Y-5680000D02*
X25632500Y-5720000D01*
X25664000Y-8155000D02*
X25704000Y-8195000D01*
X25704000Y-8155000D02*
X25664000Y-8195000D01*
X25697000Y-6245000D02*
X25737000Y-6285000D01*
X25737000Y-6245000D02*
X25697000Y-6285000D01*
X25809000Y-6344000D02*
X25849000Y-6384000D01*
X25849000Y-6344000D02*
X25809000Y-6384000D01*
X25813000Y-7186000D02*
X25853000Y-7226000D01*
X25853000Y-7186000D02*
X25813000Y-7226000D01*
X25821500Y-5878750D02*
X25861500Y-5918750D01*
X25861500Y-5878750D02*
X25821500Y-5918750D01*
X25913750Y-6019500D02*
X25953750Y-6059500D01*
X25953750Y-6019500D02*
X25913750Y-6059500D01*
X25994000Y-8521000D02*
X26034000Y-8561000D01*
X26034000Y-8521000D02*
X25994000Y-8561000D01*
X25994750Y-6019500D02*
X26034750Y-6059500D01*
X26034750Y-6019500D02*
X25994750Y-6059500D01*
X26057500Y-6705000D02*
X26097500Y-6745000D01*
X26097500Y-6705000D02*
X26057500Y-6745000D01*
X26089000Y-7877000D02*
X26129000Y-7917000D01*
X26129000Y-7877000D02*
X26089000Y-7917000D01*
X26095000Y-5866000D02*
X26135000Y-5906000D01*
X26135000Y-5866000D02*
X26095000Y-5906000D01*
X26127500Y-6865000D02*
X26167500Y-6905000D01*
X26167500Y-6865000D02*
X26127500Y-6905000D01*
X26138050Y-6990000D02*
X26178050Y-7030000D01*
X26178050Y-6990000D02*
X26138050Y-7030000D01*
X26140500Y-7955500D02*
X26180500Y-7995500D01*
X26180500Y-7955500D02*
X26140500Y-7995500D01*
X26147000Y-6421000D02*
X26187000Y-6461000D01*
X26187000Y-6421000D02*
X26147000Y-6461000D01*
X26164500Y-7801500D02*
X26204500Y-7841500D01*
X26204500Y-7801500D02*
X26164500Y-7841500D01*
X26210500Y-7387500D02*
X26250500Y-7427500D01*
X26250500Y-7387500D02*
X26210500Y-7427500D01*
X26283000Y-7026000D02*
X26323000Y-7066000D01*
X26323000Y-7026000D02*
X26283000Y-7066000D01*
D13*
X26038000Y-6355000D02*
G75*
G03*
X26038000Y-6355000I-30000J0D01*
G01*
D11*
X25953000Y-6385000D02*
X26063000Y-6385000D01*
X26063000Y-6385000D02*
G75*
G03*
X26063000Y-6325000I0J30000D01*
G01*
X26063000Y-6325000D02*
X25953000Y-6325000D01*
X25953000Y-6325000D02*
G75*
G03*
X25953000Y-6385000I0J-30000D01*
G01*
D13*
X26038000Y-7219000D02*
G75*
G03*
X26038000Y-7219000I-30000J0D01*
G01*
D11*
X25953000Y-7249000D02*
X26063000Y-7249000D01*
X26063000Y-7249000D02*
G75*
G03*
X26063000Y-7189000I0J30000D01*
G01*
X26063000Y-7189000D02*
X25953000Y-7189000D01*
X25953000Y-7189000D02*
G75*
G03*
X25953000Y-7249000I0J-30000D01*
G01*
D13*
X26456000Y-6355000D02*
G75*
G03*
X26456000Y-6355000I-30000J0D01*
G01*
D11*
X26396000Y-6385000D02*
X26456000Y-6385000D01*
X26456000Y-6385000D02*
G75*
G03*
X26456000Y-6325000I0J30000D01*
G01*
X26456000Y-6325000D02*
X26396000Y-6325000D01*
X26396000Y-6325000D02*
G75*
G03*
X26396000Y-6385000I0J-30000D01*
G01*
D13*
X26456000Y-7219000D02*
G75*
G03*
X26456000Y-7219000I-30000J0D01*
G01*
D11*
X26396000Y-7249000D02*
X26456000Y-7249000D01*
X26456000Y-7249000D02*
G75*
G03*
X26456000Y-7189000I0J30000D01*
G01*
X26456000Y-7189000D02*
X26396000Y-7189000D01*
X26396000Y-7189000D02*
G75*
G03*
X26396000Y-7249000I0J-30000D01*
G01*
D14*
X20768000Y-6001000D02*
X20768000Y-6081000D01*
X20728000Y-6041000D02*
X20808000Y-6041000D01*
X21320000Y-6039000D02*
X21320000Y-6119000D01*
X21280000Y-6079000D02*
X21360000Y-6079000D01*
X21804500Y-6060500D02*
X21804500Y-6140500D01*
X21764500Y-6100500D02*
X21844500Y-6100500D01*
X22388000Y-5620000D02*
X22388000Y-5700000D01*
X22348000Y-5660000D02*
X22428000Y-5660000D01*
X25921284Y-7523284D02*
X25921284Y-7466715D01*
X25864715Y-7466715D01*
X25864715Y-7523284D01*
X25921284Y-7523284D01*
D11*
X25763000Y-7535000D02*
X26023000Y-7535000D01*
X26023000Y-7535000D02*
G75*
G03*
X26023000Y-7455000I0J40000D01*
G01*
X26023000Y-7455000D02*
X25763000Y-7455000D01*
X25763000Y-7455000D02*
G75*
G03*
X25763000Y-7535000I0J-40000D01*
G01*
D14*
X25921284Y-8103284D02*
X25921284Y-8046715D01*
X25864715Y-8046715D01*
X25864715Y-8103284D01*
X25921284Y-8103284D01*
D11*
X25783000Y-8115000D02*
X26003000Y-8115000D01*
X26003000Y-8115000D02*
G75*
G03*
X26003000Y-8035000I0J40000D01*
G01*
X26003000Y-8035000D02*
X25783000Y-8035000D01*
X25783000Y-8035000D02*
G75*
G03*
X25783000Y-8115000I0J-40000D01*
G01*
D14*
X26401284Y-7823284D02*
X26401284Y-7766715D01*
X26344715Y-7766715D01*
X26344715Y-7823284D01*
X26401284Y-7823284D01*
D11*
X26413000Y-7905000D02*
X26413000Y-7685000D01*
X26413000Y-7685000D02*
G75*
G03*
X26333000Y-7685000I-40000J0D01*
G01*
X26333000Y-7685000D02*
X26333000Y-7905000D01*
X26333000Y-7905000D02*
G75*
G03*
X26413000Y-7905000I40000J0D01*
G01*
D15*
X19716000Y-6009500D02*
X19766000Y-5959500D01*
X19716000Y-5909500D01*
X19666000Y-5959500D01*
X19716000Y-6009500D01*
X19716000Y-6263500D02*
X19766000Y-6213500D01*
X19716000Y-6163500D01*
X19666000Y-6213500D01*
X19716000Y-6263500D01*
X19716000Y-6517500D02*
X19766000Y-6467500D01*
X19716000Y-6417500D01*
X19666000Y-6467500D01*
X19716000Y-6517500D01*
X19716000Y-6771500D02*
X19766000Y-6721500D01*
X19716000Y-6671500D01*
X19666000Y-6721500D01*
X19716000Y-6771500D01*
X19716000Y-7025500D02*
X19766000Y-6975500D01*
X19716000Y-6925500D01*
X19666000Y-6975500D01*
X19716000Y-7025500D01*
X19716000Y-7279500D02*
X19766000Y-7229500D01*
X19716000Y-7179500D01*
X19666000Y-7229500D01*
X19716000Y-7279500D01*
X19716000Y-7533500D02*
X19766000Y-7483500D01*
X19716000Y-7433500D01*
X19666000Y-7483500D01*
X19716000Y-7533500D01*
X19716000Y-7787500D02*
X19766000Y-7737500D01*
X19716000Y-7687500D01*
X19666000Y-7737500D01*
X19716000Y-7787500D01*
X19875500Y-8215000D02*
X19925500Y-8165000D01*
X19875500Y-8115000D01*
X19825500Y-8165000D01*
X19875500Y-8215000D01*
X19875500Y-8469000D02*
X19925500Y-8419000D01*
X19875500Y-8369000D01*
X19825500Y-8419000D01*
X19875500Y-8469000D01*
X20091400Y-5053800D02*
X20141400Y-5003800D01*
X20091400Y-4953800D01*
X20041400Y-5003800D01*
X20091400Y-5053800D01*
X20091400Y-5307800D02*
X20141400Y-5257800D01*
X20091400Y-5207800D01*
X20041400Y-5257800D01*
X20091400Y-5307800D01*
X20091400Y-5561800D02*
X20141400Y-5511800D01*
X20091400Y-5461800D01*
X20041400Y-5511800D01*
X20091400Y-5561800D01*
X20091400Y-5815800D02*
X20141400Y-5765800D01*
X20091400Y-5715800D01*
X20041400Y-5765800D01*
X20091400Y-5815800D01*
X20091400Y-6069800D02*
X20141400Y-6019800D01*
X20091400Y-5969800D01*
X20041400Y-6019800D01*
X20091400Y-6069800D01*
X20091400Y-6450800D02*
X20141400Y-6400800D01*
X20091400Y-6350800D01*
X20041400Y-6400800D01*
X20091400Y-6450800D01*
X20091400Y-6704800D02*
X20141400Y-6654800D01*
X20091400Y-6604800D01*
X20041400Y-6654800D01*
X20091400Y-6704800D01*
X20091400Y-6958800D02*
X20141400Y-6908800D01*
X20091400Y-6858800D01*
X20041400Y-6908800D01*
X20091400Y-6958800D01*
X20091400Y-7212800D02*
X20141400Y-7162800D01*
X20091400Y-7112800D01*
X20041400Y-7162800D01*
X20091400Y-7212800D01*
X20091400Y-7466800D02*
X20141400Y-7416800D01*
X20091400Y-7366800D01*
X20041400Y-7416800D01*
X20091400Y-7466800D01*
X20129500Y-8215000D02*
X20179500Y-8165000D01*
X20129500Y-8115000D01*
X20079500Y-8165000D01*
X20129500Y-8215000D01*
X20129500Y-8469000D02*
X20179500Y-8419000D01*
X20129500Y-8369000D01*
X20079500Y-8419000D01*
X20129500Y-8469000D01*
X20383500Y-8215000D02*
X20433500Y-8165000D01*
X20383500Y-8115000D01*
X20333500Y-8165000D01*
X20383500Y-8215000D01*
X20383500Y-8469000D02*
X20433500Y-8419000D01*
X20383500Y-8369000D01*
X20333500Y-8419000D01*
X20383500Y-8469000D01*
X20637500Y-8215000D02*
X20687500Y-8165000D01*
X20637500Y-8115000D01*
X20587500Y-8165000D01*
X20637500Y-8215000D01*
X20637500Y-8469000D02*
X20687500Y-8419000D01*
X20637500Y-8369000D01*
X20587500Y-8419000D01*
X20637500Y-8469000D01*
X22707600Y-5053800D02*
X22757600Y-5003800D01*
X22707600Y-4953800D01*
X22657600Y-5003800D01*
X22707600Y-5053800D01*
X22707600Y-5307800D02*
X22757600Y-5257800D01*
X22707600Y-5207800D01*
X22657600Y-5257800D01*
X22707600Y-5307800D01*
X22707600Y-5561800D02*
X22757600Y-5511800D01*
X22707600Y-5461800D01*
X22657600Y-5511800D01*
X22707600Y-5561800D01*
X22707600Y-5815800D02*
X22757600Y-5765800D01*
X22707600Y-5715800D01*
X22657600Y-5765800D01*
X22707600Y-5815800D01*
X22707600Y-6069800D02*
X22757600Y-6019800D01*
X22707600Y-5969800D01*
X22657600Y-6019800D01*
X22707600Y-6069800D01*
X22707600Y-6450800D02*
X22757600Y-6400800D01*
X22707600Y-6350800D01*
X22657600Y-6400800D01*
X22707600Y-6450800D01*
X22707600Y-6704800D02*
X22757600Y-6654800D01*
X22707600Y-6604800D01*
X22657600Y-6654800D01*
X22707600Y-6704800D01*
X22707600Y-6958800D02*
X22757600Y-6908800D01*
X22707600Y-6858800D01*
X22657600Y-6908800D01*
X22707600Y-6958800D01*
X22707600Y-7212800D02*
X22757600Y-7162800D01*
X22707600Y-7112800D01*
X22657600Y-7162800D01*
X22707600Y-7212800D01*
X22707600Y-7466800D02*
X22757600Y-7416800D01*
X22707600Y-7366800D01*
X22657600Y-7416800D01*
X22707600Y-7466800D01*
D16*
X20972000Y-6159000D02*
X21092000Y-6279000D01*
X21092000Y-6159000D02*
X20972000Y-6279000D01*
X21092000Y-6219000D02*
G75*
G03*
X21092000Y-6219000I-60000J0D01*
G01*
X24887000Y-7079000D02*
X25007000Y-7199000D01*
X25007000Y-7079000D02*
X24887000Y-7199000D01*
X25007000Y-7139000D02*
G75*
G03*
X25007000Y-7139000I-60000J0D01*
G01*
X25182000Y-7099000D02*
X25302000Y-7219000D01*
X25302000Y-7099000D02*
X25182000Y-7219000D01*
X25302000Y-7159000D02*
G75*
G03*
X25302000Y-7159000I-60000J0D01*
G01*
D17*
X21143000Y-8234000D02*
X21283000Y-8374000D01*
X21283000Y-8234000D02*
X21143000Y-8374000D01*
X21213000Y-8234000D02*
X21213000Y-8374000D01*
X21143000Y-8304000D02*
X21283000Y-8304000D01*
X21493000Y-8234000D02*
X21633000Y-8374000D01*
X21633000Y-8234000D02*
X21493000Y-8374000D01*
X21563000Y-8234000D02*
X21563000Y-8374000D01*
X21493000Y-8304000D02*
X21633000Y-8304000D01*
X21843000Y-8234000D02*
X21983000Y-8374000D01*
X21983000Y-8234000D02*
X21843000Y-8374000D01*
X21913000Y-8234000D02*
X21913000Y-8374000D01*
X21843000Y-8304000D02*
X21983000Y-8304000D01*
X22193000Y-8234000D02*
X22333000Y-8374000D01*
X22333000Y-8234000D02*
X22193000Y-8374000D01*
X22263000Y-8234000D02*
X22263000Y-8374000D01*
X22193000Y-8304000D02*
X22333000Y-8304000D01*
X22543000Y-8234000D02*
X22683000Y-8374000D01*
X22683000Y-8234000D02*
X22543000Y-8374000D01*
X22613000Y-8234000D02*
X22613000Y-8374000D01*
X22543000Y-8304000D02*
X22683000Y-8304000D01*
X22893000Y-8234000D02*
X23033000Y-8374000D01*
X23033000Y-8234000D02*
X22893000Y-8374000D01*
X22963000Y-8234000D02*
X22963000Y-8374000D01*
X22893000Y-8304000D02*
X23033000Y-8304000D01*
X23243000Y-8234000D02*
X23383000Y-8374000D01*
X23383000Y-8234000D02*
X23243000Y-8374000D01*
X23313000Y-8234000D02*
X23313000Y-8374000D01*
X23243000Y-8304000D02*
X23383000Y-8304000D01*
X23593000Y-8234000D02*
X23733000Y-8374000D01*
X23733000Y-8234000D02*
X23593000Y-8374000D01*
X23663000Y-8234000D02*
X23663000Y-8374000D01*
X23593000Y-8304000D02*
X23733000Y-8304000D01*
X23943000Y-8234000D02*
X24083000Y-8374000D01*
X24083000Y-8234000D02*
X23943000Y-8374000D01*
X24013000Y-8234000D02*
X24013000Y-8374000D01*
X23943000Y-8304000D02*
X24083000Y-8304000D01*
X24293000Y-8234000D02*
X24433000Y-8374000D01*
X24433000Y-8234000D02*
X24293000Y-8374000D01*
X24363000Y-8234000D02*
X24363000Y-8374000D01*
X24293000Y-8304000D02*
X24433000Y-8304000D01*
X24643000Y-8234000D02*
X24783000Y-8374000D01*
X24783000Y-8234000D02*
X24643000Y-8374000D01*
X24713000Y-8234000D02*
X24713000Y-8374000D01*
X24643000Y-8304000D02*
X24783000Y-8304000D01*
X24993000Y-8234000D02*
X25133000Y-8374000D01*
X25133000Y-8234000D02*
X24993000Y-8374000D01*
X25063000Y-8234000D02*
X25063000Y-8374000D01*
X24993000Y-8304000D02*
X25133000Y-8304000D01*
D18*
X24086000Y-7584000D02*
X24246000Y-7744000D01*
X24246000Y-7584000D02*
X24086000Y-7744000D01*
X24222569Y-7720569D02*
X24222569Y-7607431D01*
X24109431Y-7607431D01*
X24109431Y-7720569D01*
X24222569Y-7720569D01*
X24086000Y-7796000D02*
X24246000Y-7956000D01*
X24246000Y-7796000D02*
X24086000Y-7956000D01*
X24222569Y-7932569D02*
X24222569Y-7819431D01*
X24109431Y-7819431D01*
X24109431Y-7932569D01*
X24222569Y-7932569D01*
D11*
X19762751Y-9066043D02*
X19762751Y-8866043D01*
X19762751Y-8866043D02*
X19810370Y-8866043D01*
X19810370Y-8866043D02*
X19838941Y-8875566D01*
X19838941Y-8875566D02*
X19857989Y-8894614D01*
X19857989Y-8894614D02*
X19867513Y-8913662D01*
X19867513Y-8913662D02*
X19877036Y-8951757D01*
X19877036Y-8951757D02*
X19877036Y-8980328D01*
X19877036Y-8980328D02*
X19867513Y-9018423D01*
X19867513Y-9018423D02*
X19857989Y-9037471D01*
X19857989Y-9037471D02*
X19838941Y-9056519D01*
X19838941Y-9056519D02*
X19810370Y-9066043D01*
X19810370Y-9066043D02*
X19762751Y-9066043D01*
X19962751Y-9066043D02*
X19962751Y-8932709D01*
X19962751Y-8970804D02*
X19972275Y-8951757D01*
X19972275Y-8951757D02*
X19981798Y-8942233D01*
X19981798Y-8942233D02*
X20000846Y-8932709D01*
X20000846Y-8932709D02*
X20019894Y-8932709D01*
X20086560Y-9066043D02*
X20086560Y-8932709D01*
X20086560Y-8866043D02*
X20077036Y-8875566D01*
X20077036Y-8875566D02*
X20086560Y-8885090D01*
X20086560Y-8885090D02*
X20096084Y-8875566D01*
X20096084Y-8875566D02*
X20086560Y-8866043D01*
X20086560Y-8866043D02*
X20086560Y-8885090D01*
X20210370Y-9066043D02*
X20191322Y-9056519D01*
X20191322Y-9056519D02*
X20181798Y-9037471D01*
X20181798Y-9037471D02*
X20181798Y-8866043D01*
X20315132Y-9066043D02*
X20296084Y-9056519D01*
X20296084Y-9056519D02*
X20286560Y-9037471D01*
X20286560Y-9037471D02*
X20286560Y-8866043D01*
X20543703Y-9066043D02*
X20543703Y-8866043D01*
X20543703Y-8866043D02*
X20610370Y-9008900D01*
X20610370Y-9008900D02*
X20677036Y-8866043D01*
X20677036Y-8866043D02*
X20677036Y-9066043D01*
X20857989Y-9066043D02*
X20857989Y-8961281D01*
X20857989Y-8961281D02*
X20848465Y-8942233D01*
X20848465Y-8942233D02*
X20829417Y-8932709D01*
X20829417Y-8932709D02*
X20791322Y-8932709D01*
X20791322Y-8932709D02*
X20772275Y-8942233D01*
X20857989Y-9056519D02*
X20838941Y-9066043D01*
X20838941Y-9066043D02*
X20791322Y-9066043D01*
X20791322Y-9066043D02*
X20772275Y-9056519D01*
X20772275Y-9056519D02*
X20762751Y-9037471D01*
X20762751Y-9037471D02*
X20762751Y-9018423D01*
X20762751Y-9018423D02*
X20772275Y-8999376D01*
X20772275Y-8999376D02*
X20791322Y-8989852D01*
X20791322Y-8989852D02*
X20838941Y-8989852D01*
X20838941Y-8989852D02*
X20857989Y-8980328D01*
X20953227Y-8932709D02*
X20953227Y-9132709D01*
X20953227Y-8942233D02*
X20972275Y-8932709D01*
X20972275Y-8932709D02*
X21010370Y-8932709D01*
X21010370Y-8932709D02*
X21029417Y-8942233D01*
X21029417Y-8942233D02*
X21038941Y-8951757D01*
X21038941Y-8951757D02*
X21048465Y-8970804D01*
X21048465Y-8970804D02*
X21048465Y-9027947D01*
X21048465Y-9027947D02*
X21038941Y-9046995D01*
X21038941Y-9046995D02*
X21029417Y-9056519D01*
X21029417Y-9056519D02*
X21010370Y-9066043D01*
X21010370Y-9066043D02*
X20972275Y-9066043D01*
X20972275Y-9066043D02*
X20953227Y-9056519D01*
X21134179Y-9046995D02*
X21143703Y-9056519D01*
X21143703Y-9056519D02*
X21134179Y-9066043D01*
X21134179Y-9066043D02*
X21124656Y-9056519D01*
X21124656Y-9056519D02*
X21134179Y-9046995D01*
X21134179Y-9046995D02*
X21134179Y-9066043D01*
X21134179Y-8942233D02*
X21143703Y-8951757D01*
X21143703Y-8951757D02*
X21134179Y-8961281D01*
X21134179Y-8961281D02*
X21124656Y-8951757D01*
X21124656Y-8951757D02*
X21134179Y-8942233D01*
X21134179Y-8942233D02*
X21134179Y-8961281D01*
D12*
X19475132Y-9373519D02*
X19515132Y-9413519D01*
X19515132Y-9373519D02*
X19475132Y-9413519D01*
D11*
X19800846Y-9286043D02*
X19819894Y-9286043D01*
X19819894Y-9286043D02*
X19838941Y-9295566D01*
X19838941Y-9295566D02*
X19848465Y-9305090D01*
X19848465Y-9305090D02*
X19857989Y-9324138D01*
X19857989Y-9324138D02*
X19867513Y-9362233D01*
X19867513Y-9362233D02*
X19867513Y-9409852D01*
X19867513Y-9409852D02*
X19857989Y-9447947D01*
X19857989Y-9447947D02*
X19848465Y-9466995D01*
X19848465Y-9466995D02*
X19838941Y-9476519D01*
X19838941Y-9476519D02*
X19819894Y-9486043D01*
X19819894Y-9486043D02*
X19800846Y-9486043D01*
X19800846Y-9486043D02*
X19781798Y-9476519D01*
X19781798Y-9476519D02*
X19772275Y-9466995D01*
X19772275Y-9466995D02*
X19762751Y-9447947D01*
X19762751Y-9447947D02*
X19753227Y-9409852D01*
X19753227Y-9409852D02*
X19753227Y-9362233D01*
X19753227Y-9362233D02*
X19762751Y-9324138D01*
X19762751Y-9324138D02*
X19772275Y-9305090D01*
X19772275Y-9305090D02*
X19781798Y-9295566D01*
X19781798Y-9295566D02*
X19800846Y-9286043D01*
X19953227Y-9466995D02*
X19962751Y-9476519D01*
X19962751Y-9476519D02*
X19953227Y-9486043D01*
X19953227Y-9486043D02*
X19943703Y-9476519D01*
X19943703Y-9476519D02*
X19953227Y-9466995D01*
X19953227Y-9466995D02*
X19953227Y-9486043D01*
X20134179Y-9352709D02*
X20134179Y-9486043D01*
X20086560Y-9276519D02*
X20038941Y-9419376D01*
X20038941Y-9419376D02*
X20162751Y-9419376D01*
X20277036Y-9286043D02*
X20296084Y-9286043D01*
X20296084Y-9286043D02*
X20315132Y-9295566D01*
X20315132Y-9295566D02*
X20324656Y-9305090D01*
X20324656Y-9305090D02*
X20334179Y-9324138D01*
X20334179Y-9324138D02*
X20343703Y-9362233D01*
X20343703Y-9362233D02*
X20343703Y-9409852D01*
X20343703Y-9409852D02*
X20334179Y-9447947D01*
X20334179Y-9447947D02*
X20324656Y-9466995D01*
X20324656Y-9466995D02*
X20315132Y-9476519D01*
X20315132Y-9476519D02*
X20296084Y-9486043D01*
X20296084Y-9486043D02*
X20277036Y-9486043D01*
X20277036Y-9486043D02*
X20257989Y-9476519D01*
X20257989Y-9476519D02*
X20248465Y-9466995D01*
X20248465Y-9466995D02*
X20238941Y-9447947D01*
X20238941Y-9447947D02*
X20229417Y-9409852D01*
X20229417Y-9409852D02*
X20229417Y-9362233D01*
X20229417Y-9362233D02*
X20238941Y-9324138D01*
X20238941Y-9324138D02*
X20248465Y-9305090D01*
X20248465Y-9305090D02*
X20257989Y-9295566D01*
X20257989Y-9295566D02*
X20277036Y-9286043D01*
X20467513Y-9286043D02*
X20486560Y-9286043D01*
X20486560Y-9286043D02*
X20505608Y-9295566D01*
X20505608Y-9295566D02*
X20515132Y-9305090D01*
X20515132Y-9305090D02*
X20524656Y-9324138D01*
X20524656Y-9324138D02*
X20534179Y-9362233D01*
X20534179Y-9362233D02*
X20534179Y-9409852D01*
X20534179Y-9409852D02*
X20524656Y-9447947D01*
X20524656Y-9447947D02*
X20515132Y-9466995D01*
X20515132Y-9466995D02*
X20505608Y-9476519D01*
X20505608Y-9476519D02*
X20486560Y-9486043D01*
X20486560Y-9486043D02*
X20467513Y-9486043D01*
X20467513Y-9486043D02*
X20448465Y-9476519D01*
X20448465Y-9476519D02*
X20438941Y-9466995D01*
X20438941Y-9466995D02*
X20429417Y-9447947D01*
X20429417Y-9447947D02*
X20419894Y-9409852D01*
X20419894Y-9409852D02*
X20419894Y-9362233D01*
X20419894Y-9362233D02*
X20429417Y-9324138D01*
X20429417Y-9324138D02*
X20438941Y-9305090D01*
X20438941Y-9305090D02*
X20448465Y-9295566D01*
X20448465Y-9295566D02*
X20467513Y-9286043D01*
X20619894Y-9486043D02*
X20619894Y-9352709D01*
X20619894Y-9371757D02*
X20629417Y-9362233D01*
X20629417Y-9362233D02*
X20648465Y-9352709D01*
X20648465Y-9352709D02*
X20677037Y-9352709D01*
X20677037Y-9352709D02*
X20696084Y-9362233D01*
X20696084Y-9362233D02*
X20705608Y-9381281D01*
X20705608Y-9381281D02*
X20705608Y-9486043D01*
X20705608Y-9381281D02*
X20715132Y-9362233D01*
X20715132Y-9362233D02*
X20734179Y-9352709D01*
X20734179Y-9352709D02*
X20762751Y-9352709D01*
X20762751Y-9352709D02*
X20781798Y-9362233D01*
X20781798Y-9362233D02*
X20791322Y-9381281D01*
X20791322Y-9381281D02*
X20791322Y-9486043D01*
X20886560Y-9486043D02*
X20886560Y-9352709D01*
X20886560Y-9371757D02*
X20896084Y-9362233D01*
X20896084Y-9362233D02*
X20915132Y-9352709D01*
X20915132Y-9352709D02*
X20943703Y-9352709D01*
X20943703Y-9352709D02*
X20962751Y-9362233D01*
X20962751Y-9362233D02*
X20972275Y-9381281D01*
X20972275Y-9381281D02*
X20972275Y-9486043D01*
X20972275Y-9381281D02*
X20981798Y-9362233D01*
X20981798Y-9362233D02*
X21000846Y-9352709D01*
X21000846Y-9352709D02*
X21029417Y-9352709D01*
X21029417Y-9352709D02*
X21048465Y-9362233D01*
X21048465Y-9362233D02*
X21057989Y-9381281D01*
X21057989Y-9381281D02*
X21057989Y-9486043D01*
X21448465Y-9276519D02*
X21277037Y-9533662D01*
X21705608Y-9286043D02*
X21724656Y-9286043D01*
X21724656Y-9286043D02*
X21743703Y-9295566D01*
X21743703Y-9295566D02*
X21753227Y-9305090D01*
X21753227Y-9305090D02*
X21762751Y-9324138D01*
X21762751Y-9324138D02*
X21772275Y-9362233D01*
X21772275Y-9362233D02*
X21772275Y-9409852D01*
X21772275Y-9409852D02*
X21762751Y-9447947D01*
X21762751Y-9447947D02*
X21753227Y-9466995D01*
X21753227Y-9466995D02*
X21743703Y-9476519D01*
X21743703Y-9476519D02*
X21724656Y-9486043D01*
X21724656Y-9486043D02*
X21705608Y-9486043D01*
X21705608Y-9486043D02*
X21686560Y-9476519D01*
X21686560Y-9476519D02*
X21677037Y-9466995D01*
X21677037Y-9466995D02*
X21667513Y-9447947D01*
X21667513Y-9447947D02*
X21657989Y-9409852D01*
X21657989Y-9409852D02*
X21657989Y-9362233D01*
X21657989Y-9362233D02*
X21667513Y-9324138D01*
X21667513Y-9324138D02*
X21677037Y-9305090D01*
X21677037Y-9305090D02*
X21686560Y-9295566D01*
X21686560Y-9295566D02*
X21705608Y-9286043D01*
X21857989Y-9466995D02*
X21867513Y-9476519D01*
X21867513Y-9476519D02*
X21857989Y-9486043D01*
X21857989Y-9486043D02*
X21848465Y-9476519D01*
X21848465Y-9476519D02*
X21857989Y-9466995D01*
X21857989Y-9466995D02*
X21857989Y-9486043D01*
X21991322Y-9286043D02*
X22010370Y-9286043D01*
X22010370Y-9286043D02*
X22029418Y-9295566D01*
X22029418Y-9295566D02*
X22038941Y-9305090D01*
X22038941Y-9305090D02*
X22048465Y-9324138D01*
X22048465Y-9324138D02*
X22057989Y-9362233D01*
X22057989Y-9362233D02*
X22057989Y-9409852D01*
X22057989Y-9409852D02*
X22048465Y-9447947D01*
X22048465Y-9447947D02*
X22038941Y-9466995D01*
X22038941Y-9466995D02*
X22029418Y-9476519D01*
X22029418Y-9476519D02*
X22010370Y-9486043D01*
X22010370Y-9486043D02*
X21991322Y-9486043D01*
X21991322Y-9486043D02*
X21972275Y-9476519D01*
X21972275Y-9476519D02*
X21962751Y-9466995D01*
X21962751Y-9466995D02*
X21953227Y-9447947D01*
X21953227Y-9447947D02*
X21943703Y-9409852D01*
X21943703Y-9409852D02*
X21943703Y-9362233D01*
X21943703Y-9362233D02*
X21953227Y-9324138D01*
X21953227Y-9324138D02*
X21962751Y-9305090D01*
X21962751Y-9305090D02*
X21972275Y-9295566D01*
X21972275Y-9295566D02*
X21991322Y-9286043D01*
X22248465Y-9486043D02*
X22134180Y-9486043D01*
X22191322Y-9486043D02*
X22191322Y-9286043D01*
X22191322Y-9286043D02*
X22172275Y-9314614D01*
X22172275Y-9314614D02*
X22153227Y-9333662D01*
X22153227Y-9333662D02*
X22134180Y-9343185D01*
X22429418Y-9286043D02*
X22334180Y-9286043D01*
X22334180Y-9286043D02*
X22324656Y-9381281D01*
X22324656Y-9381281D02*
X22334180Y-9371757D01*
X22334180Y-9371757D02*
X22353227Y-9362233D01*
X22353227Y-9362233D02*
X22400846Y-9362233D01*
X22400846Y-9362233D02*
X22419894Y-9371757D01*
X22419894Y-9371757D02*
X22429418Y-9381281D01*
X22429418Y-9381281D02*
X22438941Y-9400328D01*
X22438941Y-9400328D02*
X22438941Y-9447947D01*
X22438941Y-9447947D02*
X22429418Y-9466995D01*
X22429418Y-9466995D02*
X22419894Y-9476519D01*
X22419894Y-9476519D02*
X22400846Y-9486043D01*
X22400846Y-9486043D02*
X22353227Y-9486043D01*
X22353227Y-9486043D02*
X22334180Y-9476519D01*
X22334180Y-9476519D02*
X22324656Y-9466995D01*
X22505608Y-9286043D02*
X22638941Y-9286043D01*
X22638941Y-9286043D02*
X22553227Y-9486043D01*
X22705608Y-9286043D02*
X22705608Y-9324138D01*
X22781799Y-9286043D02*
X22781799Y-9324138D01*
X23077037Y-9562233D02*
X23067513Y-9552709D01*
X23067513Y-9552709D02*
X23048465Y-9524138D01*
X23048465Y-9524138D02*
X23038941Y-9505090D01*
X23038941Y-9505090D02*
X23029418Y-9476519D01*
X23029418Y-9476519D02*
X23019894Y-9428900D01*
X23019894Y-9428900D02*
X23019894Y-9390804D01*
X23019894Y-9390804D02*
X23029418Y-9343185D01*
X23029418Y-9343185D02*
X23038941Y-9314614D01*
X23038941Y-9314614D02*
X23048465Y-9295566D01*
X23048465Y-9295566D02*
X23067513Y-9266995D01*
X23067513Y-9266995D02*
X23077037Y-9257471D01*
X23257989Y-9486043D02*
X23143703Y-9486043D01*
X23200846Y-9486043D02*
X23200846Y-9286043D01*
X23200846Y-9286043D02*
X23181799Y-9314614D01*
X23181799Y-9314614D02*
X23162751Y-9333662D01*
X23162751Y-9333662D02*
X23143703Y-9343185D01*
X23334180Y-9305090D02*
X23343703Y-9295566D01*
X23343703Y-9295566D02*
X23362751Y-9286043D01*
X23362751Y-9286043D02*
X23410370Y-9286043D01*
X23410370Y-9286043D02*
X23429418Y-9295566D01*
X23429418Y-9295566D02*
X23438941Y-9305090D01*
X23438941Y-9305090D02*
X23448465Y-9324138D01*
X23448465Y-9324138D02*
X23448465Y-9343185D01*
X23448465Y-9343185D02*
X23438941Y-9371757D01*
X23438941Y-9371757D02*
X23324656Y-9486043D01*
X23324656Y-9486043D02*
X23448465Y-9486043D01*
X23619894Y-9286043D02*
X23581799Y-9286043D01*
X23581799Y-9286043D02*
X23562751Y-9295566D01*
X23562751Y-9295566D02*
X23553227Y-9305090D01*
X23553227Y-9305090D02*
X23534180Y-9333662D01*
X23534180Y-9333662D02*
X23524656Y-9371757D01*
X23524656Y-9371757D02*
X23524656Y-9447947D01*
X23524656Y-9447947D02*
X23534180Y-9466995D01*
X23534180Y-9466995D02*
X23543703Y-9476519D01*
X23543703Y-9476519D02*
X23562751Y-9486043D01*
X23562751Y-9486043D02*
X23600846Y-9486043D01*
X23600846Y-9486043D02*
X23619894Y-9476519D01*
X23619894Y-9476519D02*
X23629418Y-9466995D01*
X23629418Y-9466995D02*
X23638941Y-9447947D01*
X23638941Y-9447947D02*
X23638941Y-9400328D01*
X23638941Y-9400328D02*
X23629418Y-9381281D01*
X23629418Y-9381281D02*
X23619894Y-9371757D01*
X23619894Y-9371757D02*
X23600846Y-9362233D01*
X23600846Y-9362233D02*
X23562751Y-9362233D01*
X23562751Y-9362233D02*
X23543703Y-9371757D01*
X23543703Y-9371757D02*
X23534180Y-9381281D01*
X23534180Y-9381281D02*
X23524656Y-9400328D01*
X23877037Y-9486043D02*
X23877037Y-9286043D01*
X23962751Y-9486043D02*
X23962751Y-9381281D01*
X23962751Y-9381281D02*
X23953227Y-9362233D01*
X23953227Y-9362233D02*
X23934180Y-9352709D01*
X23934180Y-9352709D02*
X23905608Y-9352709D01*
X23905608Y-9352709D02*
X23886561Y-9362233D01*
X23886561Y-9362233D02*
X23877037Y-9371757D01*
X24086561Y-9486043D02*
X24067513Y-9476519D01*
X24067513Y-9476519D02*
X24057989Y-9466995D01*
X24057989Y-9466995D02*
X24048465Y-9447947D01*
X24048465Y-9447947D02*
X24048465Y-9390804D01*
X24048465Y-9390804D02*
X24057989Y-9371757D01*
X24057989Y-9371757D02*
X24067513Y-9362233D01*
X24067513Y-9362233D02*
X24086561Y-9352709D01*
X24086561Y-9352709D02*
X24115132Y-9352709D01*
X24115132Y-9352709D02*
X24134180Y-9362233D01*
X24134180Y-9362233D02*
X24143703Y-9371757D01*
X24143703Y-9371757D02*
X24153227Y-9390804D01*
X24153227Y-9390804D02*
X24153227Y-9447947D01*
X24153227Y-9447947D02*
X24143703Y-9466995D01*
X24143703Y-9466995D02*
X24134180Y-9476519D01*
X24134180Y-9476519D02*
X24115132Y-9486043D01*
X24115132Y-9486043D02*
X24086561Y-9486043D01*
X24267513Y-9486043D02*
X24248465Y-9476519D01*
X24248465Y-9476519D02*
X24238942Y-9457471D01*
X24238942Y-9457471D02*
X24238942Y-9286043D01*
X24419894Y-9476519D02*
X24400846Y-9486043D01*
X24400846Y-9486043D02*
X24362751Y-9486043D01*
X24362751Y-9486043D02*
X24343703Y-9476519D01*
X24343703Y-9476519D02*
X24334180Y-9457471D01*
X24334180Y-9457471D02*
X24334180Y-9381281D01*
X24334180Y-9381281D02*
X24343703Y-9362233D01*
X24343703Y-9362233D02*
X24362751Y-9352709D01*
X24362751Y-9352709D02*
X24400846Y-9352709D01*
X24400846Y-9352709D02*
X24419894Y-9362233D01*
X24419894Y-9362233D02*
X24429418Y-9381281D01*
X24429418Y-9381281D02*
X24429418Y-9400328D01*
X24429418Y-9400328D02*
X24334180Y-9419376D01*
X24505608Y-9476519D02*
X24524656Y-9486043D01*
X24524656Y-9486043D02*
X24562751Y-9486043D01*
X24562751Y-9486043D02*
X24581799Y-9476519D01*
X24581799Y-9476519D02*
X24591323Y-9457471D01*
X24591323Y-9457471D02*
X24591323Y-9447947D01*
X24591323Y-9447947D02*
X24581799Y-9428900D01*
X24581799Y-9428900D02*
X24562751Y-9419376D01*
X24562751Y-9419376D02*
X24534180Y-9419376D01*
X24534180Y-9419376D02*
X24515132Y-9409852D01*
X24515132Y-9409852D02*
X24505608Y-9390804D01*
X24505608Y-9390804D02*
X24505608Y-9381281D01*
X24505608Y-9381281D02*
X24515132Y-9362233D01*
X24515132Y-9362233D02*
X24534180Y-9352709D01*
X24534180Y-9352709D02*
X24562751Y-9352709D01*
X24562751Y-9352709D02*
X24581799Y-9362233D01*
X24657989Y-9562233D02*
X24667513Y-9552709D01*
X24667513Y-9552709D02*
X24686561Y-9524138D01*
X24686561Y-9524138D02*
X24696084Y-9505090D01*
X24696084Y-9505090D02*
X24705608Y-9476519D01*
X24705608Y-9476519D02*
X24715132Y-9428900D01*
X24715132Y-9428900D02*
X24715132Y-9390804D01*
X24715132Y-9390804D02*
X24705608Y-9343185D01*
X24705608Y-9343185D02*
X24696084Y-9314614D01*
X24696084Y-9314614D02*
X24686561Y-9295566D01*
X24686561Y-9295566D02*
X24667513Y-9266995D01*
X24667513Y-9266995D02*
X24657989Y-9257471D01*
D13*
X19515132Y-9657519D02*
G75*
G03*
X19515132Y-9657519I-30000J0D01*
G01*
D11*
X19800846Y-9550043D02*
X19819894Y-9550043D01*
X19819894Y-9550043D02*
X19838941Y-9559566D01*
X19838941Y-9559566D02*
X19848465Y-9569090D01*
X19848465Y-9569090D02*
X19857989Y-9588138D01*
X19857989Y-9588138D02*
X19867513Y-9626233D01*
X19867513Y-9626233D02*
X19867513Y-9673852D01*
X19867513Y-9673852D02*
X19857989Y-9711947D01*
X19857989Y-9711947D02*
X19848465Y-9730995D01*
X19848465Y-9730995D02*
X19838941Y-9740519D01*
X19838941Y-9740519D02*
X19819894Y-9750043D01*
X19819894Y-9750043D02*
X19800846Y-9750043D01*
X19800846Y-9750043D02*
X19781798Y-9740519D01*
X19781798Y-9740519D02*
X19772275Y-9730995D01*
X19772275Y-9730995D02*
X19762751Y-9711947D01*
X19762751Y-9711947D02*
X19753227Y-9673852D01*
X19753227Y-9673852D02*
X19753227Y-9626233D01*
X19753227Y-9626233D02*
X19762751Y-9588138D01*
X19762751Y-9588138D02*
X19772275Y-9569090D01*
X19772275Y-9569090D02*
X19781798Y-9559566D01*
X19781798Y-9559566D02*
X19800846Y-9550043D01*
X19953227Y-9730995D02*
X19962751Y-9740519D01*
X19962751Y-9740519D02*
X19953227Y-9750043D01*
X19953227Y-9750043D02*
X19943703Y-9740519D01*
X19943703Y-9740519D02*
X19953227Y-9730995D01*
X19953227Y-9730995D02*
X19953227Y-9750043D01*
X20134179Y-9550043D02*
X20096084Y-9550043D01*
X20096084Y-9550043D02*
X20077036Y-9559566D01*
X20077036Y-9559566D02*
X20067513Y-9569090D01*
X20067513Y-9569090D02*
X20048465Y-9597662D01*
X20048465Y-9597662D02*
X20038941Y-9635757D01*
X20038941Y-9635757D02*
X20038941Y-9711947D01*
X20038941Y-9711947D02*
X20048465Y-9730995D01*
X20048465Y-9730995D02*
X20057989Y-9740519D01*
X20057989Y-9740519D02*
X20077036Y-9750043D01*
X20077036Y-9750043D02*
X20115132Y-9750043D01*
X20115132Y-9750043D02*
X20134179Y-9740519D01*
X20134179Y-9740519D02*
X20143703Y-9730995D01*
X20143703Y-9730995D02*
X20153227Y-9711947D01*
X20153227Y-9711947D02*
X20153227Y-9664328D01*
X20153227Y-9664328D02*
X20143703Y-9645281D01*
X20143703Y-9645281D02*
X20134179Y-9635757D01*
X20134179Y-9635757D02*
X20115132Y-9626233D01*
X20115132Y-9626233D02*
X20077036Y-9626233D01*
X20077036Y-9626233D02*
X20057989Y-9635757D01*
X20057989Y-9635757D02*
X20048465Y-9645281D01*
X20048465Y-9645281D02*
X20038941Y-9664328D01*
X20277036Y-9550043D02*
X20296084Y-9550043D01*
X20296084Y-9550043D02*
X20315132Y-9559566D01*
X20315132Y-9559566D02*
X20324656Y-9569090D01*
X20324656Y-9569090D02*
X20334179Y-9588138D01*
X20334179Y-9588138D02*
X20343703Y-9626233D01*
X20343703Y-9626233D02*
X20343703Y-9673852D01*
X20343703Y-9673852D02*
X20334179Y-9711947D01*
X20334179Y-9711947D02*
X20324656Y-9730995D01*
X20324656Y-9730995D02*
X20315132Y-9740519D01*
X20315132Y-9740519D02*
X20296084Y-9750043D01*
X20296084Y-9750043D02*
X20277036Y-9750043D01*
X20277036Y-9750043D02*
X20257989Y-9740519D01*
X20257989Y-9740519D02*
X20248465Y-9730995D01*
X20248465Y-9730995D02*
X20238941Y-9711947D01*
X20238941Y-9711947D02*
X20229417Y-9673852D01*
X20229417Y-9673852D02*
X20229417Y-9626233D01*
X20229417Y-9626233D02*
X20238941Y-9588138D01*
X20238941Y-9588138D02*
X20248465Y-9569090D01*
X20248465Y-9569090D02*
X20257989Y-9559566D01*
X20257989Y-9559566D02*
X20277036Y-9550043D01*
X20467513Y-9550043D02*
X20486560Y-9550043D01*
X20486560Y-9550043D02*
X20505608Y-9559566D01*
X20505608Y-9559566D02*
X20515132Y-9569090D01*
X20515132Y-9569090D02*
X20524656Y-9588138D01*
X20524656Y-9588138D02*
X20534179Y-9626233D01*
X20534179Y-9626233D02*
X20534179Y-9673852D01*
X20534179Y-9673852D02*
X20524656Y-9711947D01*
X20524656Y-9711947D02*
X20515132Y-9730995D01*
X20515132Y-9730995D02*
X20505608Y-9740519D01*
X20505608Y-9740519D02*
X20486560Y-9750043D01*
X20486560Y-9750043D02*
X20467513Y-9750043D01*
X20467513Y-9750043D02*
X20448465Y-9740519D01*
X20448465Y-9740519D02*
X20438941Y-9730995D01*
X20438941Y-9730995D02*
X20429417Y-9711947D01*
X20429417Y-9711947D02*
X20419894Y-9673852D01*
X20419894Y-9673852D02*
X20419894Y-9626233D01*
X20419894Y-9626233D02*
X20429417Y-9588138D01*
X20429417Y-9588138D02*
X20438941Y-9569090D01*
X20438941Y-9569090D02*
X20448465Y-9559566D01*
X20448465Y-9559566D02*
X20467513Y-9550043D01*
X20619894Y-9750043D02*
X20619894Y-9616709D01*
X20619894Y-9635757D02*
X20629417Y-9626233D01*
X20629417Y-9626233D02*
X20648465Y-9616709D01*
X20648465Y-9616709D02*
X20677037Y-9616709D01*
X20677037Y-9616709D02*
X20696084Y-9626233D01*
X20696084Y-9626233D02*
X20705608Y-9645281D01*
X20705608Y-9645281D02*
X20705608Y-9750043D01*
X20705608Y-9645281D02*
X20715132Y-9626233D01*
X20715132Y-9626233D02*
X20734179Y-9616709D01*
X20734179Y-9616709D02*
X20762751Y-9616709D01*
X20762751Y-9616709D02*
X20781798Y-9626233D01*
X20781798Y-9626233D02*
X20791322Y-9645281D01*
X20791322Y-9645281D02*
X20791322Y-9750043D01*
X20886560Y-9750043D02*
X20886560Y-9616709D01*
X20886560Y-9635757D02*
X20896084Y-9626233D01*
X20896084Y-9626233D02*
X20915132Y-9616709D01*
X20915132Y-9616709D02*
X20943703Y-9616709D01*
X20943703Y-9616709D02*
X20962751Y-9626233D01*
X20962751Y-9626233D02*
X20972275Y-9645281D01*
X20972275Y-9645281D02*
X20972275Y-9750043D01*
X20972275Y-9645281D02*
X20981798Y-9626233D01*
X20981798Y-9626233D02*
X21000846Y-9616709D01*
X21000846Y-9616709D02*
X21029417Y-9616709D01*
X21029417Y-9616709D02*
X21048465Y-9626233D01*
X21048465Y-9626233D02*
X21057989Y-9645281D01*
X21057989Y-9645281D02*
X21057989Y-9750043D01*
X21448465Y-9540519D02*
X21277037Y-9797662D01*
X21705608Y-9550043D02*
X21724656Y-9550043D01*
X21724656Y-9550043D02*
X21743703Y-9559566D01*
X21743703Y-9559566D02*
X21753227Y-9569090D01*
X21753227Y-9569090D02*
X21762751Y-9588138D01*
X21762751Y-9588138D02*
X21772275Y-9626233D01*
X21772275Y-9626233D02*
X21772275Y-9673852D01*
X21772275Y-9673852D02*
X21762751Y-9711947D01*
X21762751Y-9711947D02*
X21753227Y-9730995D01*
X21753227Y-9730995D02*
X21743703Y-9740519D01*
X21743703Y-9740519D02*
X21724656Y-9750043D01*
X21724656Y-9750043D02*
X21705608Y-9750043D01*
X21705608Y-9750043D02*
X21686560Y-9740519D01*
X21686560Y-9740519D02*
X21677037Y-9730995D01*
X21677037Y-9730995D02*
X21667513Y-9711947D01*
X21667513Y-9711947D02*
X21657989Y-9673852D01*
X21657989Y-9673852D02*
X21657989Y-9626233D01*
X21657989Y-9626233D02*
X21667513Y-9588138D01*
X21667513Y-9588138D02*
X21677037Y-9569090D01*
X21677037Y-9569090D02*
X21686560Y-9559566D01*
X21686560Y-9559566D02*
X21705608Y-9550043D01*
X21857989Y-9730995D02*
X21867513Y-9740519D01*
X21867513Y-9740519D02*
X21857989Y-9750043D01*
X21857989Y-9750043D02*
X21848465Y-9740519D01*
X21848465Y-9740519D02*
X21857989Y-9730995D01*
X21857989Y-9730995D02*
X21857989Y-9750043D01*
X21991322Y-9550043D02*
X22010370Y-9550043D01*
X22010370Y-9550043D02*
X22029418Y-9559566D01*
X22029418Y-9559566D02*
X22038941Y-9569090D01*
X22038941Y-9569090D02*
X22048465Y-9588138D01*
X22048465Y-9588138D02*
X22057989Y-9626233D01*
X22057989Y-9626233D02*
X22057989Y-9673852D01*
X22057989Y-9673852D02*
X22048465Y-9711947D01*
X22048465Y-9711947D02*
X22038941Y-9730995D01*
X22038941Y-9730995D02*
X22029418Y-9740519D01*
X22029418Y-9740519D02*
X22010370Y-9750043D01*
X22010370Y-9750043D02*
X21991322Y-9750043D01*
X21991322Y-9750043D02*
X21972275Y-9740519D01*
X21972275Y-9740519D02*
X21962751Y-9730995D01*
X21962751Y-9730995D02*
X21953227Y-9711947D01*
X21953227Y-9711947D02*
X21943703Y-9673852D01*
X21943703Y-9673852D02*
X21943703Y-9626233D01*
X21943703Y-9626233D02*
X21953227Y-9588138D01*
X21953227Y-9588138D02*
X21962751Y-9569090D01*
X21962751Y-9569090D02*
X21972275Y-9559566D01*
X21972275Y-9559566D02*
X21991322Y-9550043D01*
X22134180Y-9569090D02*
X22143703Y-9559566D01*
X22143703Y-9559566D02*
X22162751Y-9550043D01*
X22162751Y-9550043D02*
X22210370Y-9550043D01*
X22210370Y-9550043D02*
X22229418Y-9559566D01*
X22229418Y-9559566D02*
X22238941Y-9569090D01*
X22238941Y-9569090D02*
X22248465Y-9588138D01*
X22248465Y-9588138D02*
X22248465Y-9607185D01*
X22248465Y-9607185D02*
X22238941Y-9635757D01*
X22238941Y-9635757D02*
X22124656Y-9750043D01*
X22124656Y-9750043D02*
X22248465Y-9750043D01*
X22315132Y-9550043D02*
X22438941Y-9550043D01*
X22438941Y-9550043D02*
X22372275Y-9626233D01*
X22372275Y-9626233D02*
X22400846Y-9626233D01*
X22400846Y-9626233D02*
X22419894Y-9635757D01*
X22419894Y-9635757D02*
X22429418Y-9645281D01*
X22429418Y-9645281D02*
X22438941Y-9664328D01*
X22438941Y-9664328D02*
X22438941Y-9711947D01*
X22438941Y-9711947D02*
X22429418Y-9730995D01*
X22429418Y-9730995D02*
X22419894Y-9740519D01*
X22419894Y-9740519D02*
X22400846Y-9750043D01*
X22400846Y-9750043D02*
X22343703Y-9750043D01*
X22343703Y-9750043D02*
X22324656Y-9740519D01*
X22324656Y-9740519D02*
X22315132Y-9730995D01*
X22610370Y-9550043D02*
X22572275Y-9550043D01*
X22572275Y-9550043D02*
X22553227Y-9559566D01*
X22553227Y-9559566D02*
X22543703Y-9569090D01*
X22543703Y-9569090D02*
X22524656Y-9597662D01*
X22524656Y-9597662D02*
X22515132Y-9635757D01*
X22515132Y-9635757D02*
X22515132Y-9711947D01*
X22515132Y-9711947D02*
X22524656Y-9730995D01*
X22524656Y-9730995D02*
X22534179Y-9740519D01*
X22534179Y-9740519D02*
X22553227Y-9750043D01*
X22553227Y-9750043D02*
X22591322Y-9750043D01*
X22591322Y-9750043D02*
X22610370Y-9740519D01*
X22610370Y-9740519D02*
X22619894Y-9730995D01*
X22619894Y-9730995D02*
X22629418Y-9711947D01*
X22629418Y-9711947D02*
X22629418Y-9664328D01*
X22629418Y-9664328D02*
X22619894Y-9645281D01*
X22619894Y-9645281D02*
X22610370Y-9635757D01*
X22610370Y-9635757D02*
X22591322Y-9626233D01*
X22591322Y-9626233D02*
X22553227Y-9626233D01*
X22553227Y-9626233D02*
X22534179Y-9635757D01*
X22534179Y-9635757D02*
X22524656Y-9645281D01*
X22524656Y-9645281D02*
X22515132Y-9664328D01*
X22705608Y-9550043D02*
X22705608Y-9588138D01*
X22781799Y-9550043D02*
X22781799Y-9588138D01*
X23077037Y-9826233D02*
X23067513Y-9816709D01*
X23067513Y-9816709D02*
X23048465Y-9788138D01*
X23048465Y-9788138D02*
X23038941Y-9769090D01*
X23038941Y-9769090D02*
X23029418Y-9740519D01*
X23029418Y-9740519D02*
X23019894Y-9692900D01*
X23019894Y-9692900D02*
X23019894Y-9654804D01*
X23019894Y-9654804D02*
X23029418Y-9607185D01*
X23029418Y-9607185D02*
X23038941Y-9578614D01*
X23038941Y-9578614D02*
X23048465Y-9559566D01*
X23048465Y-9559566D02*
X23067513Y-9530995D01*
X23067513Y-9530995D02*
X23077037Y-9521471D01*
X23191322Y-9550043D02*
X23210370Y-9550043D01*
X23210370Y-9550043D02*
X23229418Y-9559566D01*
X23229418Y-9559566D02*
X23238941Y-9569090D01*
X23238941Y-9569090D02*
X23248465Y-9588138D01*
X23248465Y-9588138D02*
X23257989Y-9626233D01*
X23257989Y-9626233D02*
X23257989Y-9673852D01*
X23257989Y-9673852D02*
X23248465Y-9711947D01*
X23248465Y-9711947D02*
X23238941Y-9730995D01*
X23238941Y-9730995D02*
X23229418Y-9740519D01*
X23229418Y-9740519D02*
X23210370Y-9750043D01*
X23210370Y-9750043D02*
X23191322Y-9750043D01*
X23191322Y-9750043D02*
X23172275Y-9740519D01*
X23172275Y-9740519D02*
X23162751Y-9730995D01*
X23162751Y-9730995D02*
X23153227Y-9711947D01*
X23153227Y-9711947D02*
X23143703Y-9673852D01*
X23143703Y-9673852D02*
X23143703Y-9626233D01*
X23143703Y-9626233D02*
X23153227Y-9588138D01*
X23153227Y-9588138D02*
X23162751Y-9569090D01*
X23162751Y-9569090D02*
X23172275Y-9559566D01*
X23172275Y-9559566D02*
X23191322Y-9550043D01*
X23496084Y-9750043D02*
X23496084Y-9550043D01*
X23581799Y-9750043D02*
X23581799Y-9645281D01*
X23581799Y-9645281D02*
X23572275Y-9626233D01*
X23572275Y-9626233D02*
X23553227Y-9616709D01*
X23553227Y-9616709D02*
X23524656Y-9616709D01*
X23524656Y-9616709D02*
X23505608Y-9626233D01*
X23505608Y-9626233D02*
X23496084Y-9635757D01*
X23705608Y-9750043D02*
X23686561Y-9740519D01*
X23686561Y-9740519D02*
X23677037Y-9730995D01*
X23677037Y-9730995D02*
X23667513Y-9711947D01*
X23667513Y-9711947D02*
X23667513Y-9654804D01*
X23667513Y-9654804D02*
X23677037Y-9635757D01*
X23677037Y-9635757D02*
X23686561Y-9626233D01*
X23686561Y-9626233D02*
X23705608Y-9616709D01*
X23705608Y-9616709D02*
X23734180Y-9616709D01*
X23734180Y-9616709D02*
X23753227Y-9626233D01*
X23753227Y-9626233D02*
X23762751Y-9635757D01*
X23762751Y-9635757D02*
X23772275Y-9654804D01*
X23772275Y-9654804D02*
X23772275Y-9711947D01*
X23772275Y-9711947D02*
X23762751Y-9730995D01*
X23762751Y-9730995D02*
X23753227Y-9740519D01*
X23753227Y-9740519D02*
X23734180Y-9750043D01*
X23734180Y-9750043D02*
X23705608Y-9750043D01*
X23886561Y-9750043D02*
X23867513Y-9740519D01*
X23867513Y-9740519D02*
X23857989Y-9721471D01*
X23857989Y-9721471D02*
X23857989Y-9550043D01*
X24038942Y-9740519D02*
X24019894Y-9750043D01*
X24019894Y-9750043D02*
X23981799Y-9750043D01*
X23981799Y-9750043D02*
X23962751Y-9740519D01*
X23962751Y-9740519D02*
X23953227Y-9721471D01*
X23953227Y-9721471D02*
X23953227Y-9645281D01*
X23953227Y-9645281D02*
X23962751Y-9626233D01*
X23962751Y-9626233D02*
X23981799Y-9616709D01*
X23981799Y-9616709D02*
X24019894Y-9616709D01*
X24019894Y-9616709D02*
X24038942Y-9626233D01*
X24038942Y-9626233D02*
X24048465Y-9645281D01*
X24048465Y-9645281D02*
X24048465Y-9664328D01*
X24048465Y-9664328D02*
X23953227Y-9683376D01*
X24124656Y-9740519D02*
X24143703Y-9750043D01*
X24143703Y-9750043D02*
X24181799Y-9750043D01*
X24181799Y-9750043D02*
X24200846Y-9740519D01*
X24200846Y-9740519D02*
X24210370Y-9721471D01*
X24210370Y-9721471D02*
X24210370Y-9711947D01*
X24210370Y-9711947D02*
X24200846Y-9692900D01*
X24200846Y-9692900D02*
X24181799Y-9683376D01*
X24181799Y-9683376D02*
X24153227Y-9683376D01*
X24153227Y-9683376D02*
X24134180Y-9673852D01*
X24134180Y-9673852D02*
X24124656Y-9654804D01*
X24124656Y-9654804D02*
X24124656Y-9645281D01*
X24124656Y-9645281D02*
X24134180Y-9626233D01*
X24134180Y-9626233D02*
X24153227Y-9616709D01*
X24153227Y-9616709D02*
X24181799Y-9616709D01*
X24181799Y-9616709D02*
X24200846Y-9626233D01*
X24448465Y-9673852D02*
X24600846Y-9673852D01*
X24524656Y-9750043D02*
X24524656Y-9597662D01*
X24934180Y-9616709D02*
X24934180Y-9750043D01*
X24886561Y-9540519D02*
X24838942Y-9683376D01*
X24838942Y-9683376D02*
X24962751Y-9683376D01*
X25181799Y-9740519D02*
X25200846Y-9750043D01*
X25200846Y-9750043D02*
X25238942Y-9750043D01*
X25238942Y-9750043D02*
X25257989Y-9740519D01*
X25257989Y-9740519D02*
X25267513Y-9721471D01*
X25267513Y-9721471D02*
X25267513Y-9711947D01*
X25267513Y-9711947D02*
X25257989Y-9692900D01*
X25257989Y-9692900D02*
X25238942Y-9683376D01*
X25238942Y-9683376D02*
X25210370Y-9683376D01*
X25210370Y-9683376D02*
X25191323Y-9673852D01*
X25191323Y-9673852D02*
X25181799Y-9654804D01*
X25181799Y-9654804D02*
X25181799Y-9645281D01*
X25181799Y-9645281D02*
X25191323Y-9626233D01*
X25191323Y-9626233D02*
X25210370Y-9616709D01*
X25210370Y-9616709D02*
X25238942Y-9616709D01*
X25238942Y-9616709D02*
X25257989Y-9626233D01*
X25381799Y-9750043D02*
X25362751Y-9740519D01*
X25362751Y-9740519D02*
X25353227Y-9721471D01*
X25353227Y-9721471D02*
X25353227Y-9550043D01*
X25486561Y-9750043D02*
X25467513Y-9740519D01*
X25467513Y-9740519D02*
X25457989Y-9730995D01*
X25457989Y-9730995D02*
X25448466Y-9711947D01*
X25448466Y-9711947D02*
X25448466Y-9654804D01*
X25448466Y-9654804D02*
X25457989Y-9635757D01*
X25457989Y-9635757D02*
X25467513Y-9626233D01*
X25467513Y-9626233D02*
X25486561Y-9616709D01*
X25486561Y-9616709D02*
X25515132Y-9616709D01*
X25515132Y-9616709D02*
X25534180Y-9626233D01*
X25534180Y-9626233D02*
X25543704Y-9635757D01*
X25543704Y-9635757D02*
X25553227Y-9654804D01*
X25553227Y-9654804D02*
X25553227Y-9711947D01*
X25553227Y-9711947D02*
X25543704Y-9730995D01*
X25543704Y-9730995D02*
X25534180Y-9740519D01*
X25534180Y-9740519D02*
X25515132Y-9750043D01*
X25515132Y-9750043D02*
X25486561Y-9750043D01*
X25610370Y-9616709D02*
X25686561Y-9616709D01*
X25638942Y-9550043D02*
X25638942Y-9721471D01*
X25638942Y-9721471D02*
X25648466Y-9740519D01*
X25648466Y-9740519D02*
X25667513Y-9750043D01*
X25667513Y-9750043D02*
X25686561Y-9750043D01*
X25743704Y-9740519D02*
X25762751Y-9750043D01*
X25762751Y-9750043D02*
X25800846Y-9750043D01*
X25800846Y-9750043D02*
X25819894Y-9740519D01*
X25819894Y-9740519D02*
X25829418Y-9721471D01*
X25829418Y-9721471D02*
X25829418Y-9711947D01*
X25829418Y-9711947D02*
X25819894Y-9692900D01*
X25819894Y-9692900D02*
X25800846Y-9683376D01*
X25800846Y-9683376D02*
X25772275Y-9683376D01*
X25772275Y-9683376D02*
X25753227Y-9673852D01*
X25753227Y-9673852D02*
X25743704Y-9654804D01*
X25743704Y-9654804D02*
X25743704Y-9645281D01*
X25743704Y-9645281D02*
X25753227Y-9626233D01*
X25753227Y-9626233D02*
X25772275Y-9616709D01*
X25772275Y-9616709D02*
X25800846Y-9616709D01*
X25800846Y-9616709D02*
X25819894Y-9626233D01*
X25896085Y-9826233D02*
X25905608Y-9816709D01*
X25905608Y-9816709D02*
X25924656Y-9788138D01*
X25924656Y-9788138D02*
X25934180Y-9769090D01*
X25934180Y-9769090D02*
X25943704Y-9740519D01*
X25943704Y-9740519D02*
X25953227Y-9692900D01*
X25953227Y-9692900D02*
X25953227Y-9654804D01*
X25953227Y-9654804D02*
X25943704Y-9607185D01*
X25943704Y-9607185D02*
X25934180Y-9578614D01*
X25934180Y-9578614D02*
X25924656Y-9559566D01*
X25924656Y-9559566D02*
X25905608Y-9530995D01*
X25905608Y-9530995D02*
X25896085Y-9521471D01*
D14*
X19475132Y-9881519D02*
X19475132Y-9961519D01*
X19435132Y-9921519D02*
X19515132Y-9921519D01*
D11*
X19800846Y-9814043D02*
X19819894Y-9814043D01*
X19819894Y-9814043D02*
X19838941Y-9823566D01*
X19838941Y-9823566D02*
X19848465Y-9833090D01*
X19848465Y-9833090D02*
X19857989Y-9852138D01*
X19857989Y-9852138D02*
X19867513Y-9890233D01*
X19867513Y-9890233D02*
X19867513Y-9937852D01*
X19867513Y-9937852D02*
X19857989Y-9975947D01*
X19857989Y-9975947D02*
X19848465Y-9994995D01*
X19848465Y-9994995D02*
X19838941Y-10004519D01*
X19838941Y-10004519D02*
X19819894Y-10014043D01*
X19819894Y-10014043D02*
X19800846Y-10014043D01*
X19800846Y-10014043D02*
X19781798Y-10004519D01*
X19781798Y-10004519D02*
X19772275Y-9994995D01*
X19772275Y-9994995D02*
X19762751Y-9975947D01*
X19762751Y-9975947D02*
X19753227Y-9937852D01*
X19753227Y-9937852D02*
X19753227Y-9890233D01*
X19753227Y-9890233D02*
X19762751Y-9852138D01*
X19762751Y-9852138D02*
X19772275Y-9833090D01*
X19772275Y-9833090D02*
X19781798Y-9823566D01*
X19781798Y-9823566D02*
X19800846Y-9814043D01*
X19953227Y-9994995D02*
X19962751Y-10004519D01*
X19962751Y-10004519D02*
X19953227Y-10014043D01*
X19953227Y-10014043D02*
X19943703Y-10004519D01*
X19943703Y-10004519D02*
X19953227Y-9994995D01*
X19953227Y-9994995D02*
X19953227Y-10014043D01*
X20077036Y-9899757D02*
X20057989Y-9890233D01*
X20057989Y-9890233D02*
X20048465Y-9880709D01*
X20048465Y-9880709D02*
X20038941Y-9861662D01*
X20038941Y-9861662D02*
X20038941Y-9852138D01*
X20038941Y-9852138D02*
X20048465Y-9833090D01*
X20048465Y-9833090D02*
X20057989Y-9823566D01*
X20057989Y-9823566D02*
X20077036Y-9814043D01*
X20077036Y-9814043D02*
X20115132Y-9814043D01*
X20115132Y-9814043D02*
X20134179Y-9823566D01*
X20134179Y-9823566D02*
X20143703Y-9833090D01*
X20143703Y-9833090D02*
X20153227Y-9852138D01*
X20153227Y-9852138D02*
X20153227Y-9861662D01*
X20153227Y-9861662D02*
X20143703Y-9880709D01*
X20143703Y-9880709D02*
X20134179Y-9890233D01*
X20134179Y-9890233D02*
X20115132Y-9899757D01*
X20115132Y-9899757D02*
X20077036Y-9899757D01*
X20077036Y-9899757D02*
X20057989Y-9909281D01*
X20057989Y-9909281D02*
X20048465Y-9918804D01*
X20048465Y-9918804D02*
X20038941Y-9937852D01*
X20038941Y-9937852D02*
X20038941Y-9975947D01*
X20038941Y-9975947D02*
X20048465Y-9994995D01*
X20048465Y-9994995D02*
X20057989Y-10004519D01*
X20057989Y-10004519D02*
X20077036Y-10014043D01*
X20077036Y-10014043D02*
X20115132Y-10014043D01*
X20115132Y-10014043D02*
X20134179Y-10004519D01*
X20134179Y-10004519D02*
X20143703Y-9994995D01*
X20143703Y-9994995D02*
X20153227Y-9975947D01*
X20153227Y-9975947D02*
X20153227Y-9937852D01*
X20153227Y-9937852D02*
X20143703Y-9918804D01*
X20143703Y-9918804D02*
X20134179Y-9909281D01*
X20134179Y-9909281D02*
X20115132Y-9899757D01*
X20277036Y-9814043D02*
X20296084Y-9814043D01*
X20296084Y-9814043D02*
X20315132Y-9823566D01*
X20315132Y-9823566D02*
X20324656Y-9833090D01*
X20324656Y-9833090D02*
X20334179Y-9852138D01*
X20334179Y-9852138D02*
X20343703Y-9890233D01*
X20343703Y-9890233D02*
X20343703Y-9937852D01*
X20343703Y-9937852D02*
X20334179Y-9975947D01*
X20334179Y-9975947D02*
X20324656Y-9994995D01*
X20324656Y-9994995D02*
X20315132Y-10004519D01*
X20315132Y-10004519D02*
X20296084Y-10014043D01*
X20296084Y-10014043D02*
X20277036Y-10014043D01*
X20277036Y-10014043D02*
X20257989Y-10004519D01*
X20257989Y-10004519D02*
X20248465Y-9994995D01*
X20248465Y-9994995D02*
X20238941Y-9975947D01*
X20238941Y-9975947D02*
X20229417Y-9937852D01*
X20229417Y-9937852D02*
X20229417Y-9890233D01*
X20229417Y-9890233D02*
X20238941Y-9852138D01*
X20238941Y-9852138D02*
X20248465Y-9833090D01*
X20248465Y-9833090D02*
X20257989Y-9823566D01*
X20257989Y-9823566D02*
X20277036Y-9814043D01*
X20467513Y-9814043D02*
X20486560Y-9814043D01*
X20486560Y-9814043D02*
X20505608Y-9823566D01*
X20505608Y-9823566D02*
X20515132Y-9833090D01*
X20515132Y-9833090D02*
X20524656Y-9852138D01*
X20524656Y-9852138D02*
X20534179Y-9890233D01*
X20534179Y-9890233D02*
X20534179Y-9937852D01*
X20534179Y-9937852D02*
X20524656Y-9975947D01*
X20524656Y-9975947D02*
X20515132Y-9994995D01*
X20515132Y-9994995D02*
X20505608Y-10004519D01*
X20505608Y-10004519D02*
X20486560Y-10014043D01*
X20486560Y-10014043D02*
X20467513Y-10014043D01*
X20467513Y-10014043D02*
X20448465Y-10004519D01*
X20448465Y-10004519D02*
X20438941Y-9994995D01*
X20438941Y-9994995D02*
X20429417Y-9975947D01*
X20429417Y-9975947D02*
X20419894Y-9937852D01*
X20419894Y-9937852D02*
X20419894Y-9890233D01*
X20419894Y-9890233D02*
X20429417Y-9852138D01*
X20429417Y-9852138D02*
X20438941Y-9833090D01*
X20438941Y-9833090D02*
X20448465Y-9823566D01*
X20448465Y-9823566D02*
X20467513Y-9814043D01*
X20619894Y-10014043D02*
X20619894Y-9880709D01*
X20619894Y-9899757D02*
X20629417Y-9890233D01*
X20629417Y-9890233D02*
X20648465Y-9880709D01*
X20648465Y-9880709D02*
X20677037Y-9880709D01*
X20677037Y-9880709D02*
X20696084Y-9890233D01*
X20696084Y-9890233D02*
X20705608Y-9909281D01*
X20705608Y-9909281D02*
X20705608Y-10014043D01*
X20705608Y-9909281D02*
X20715132Y-9890233D01*
X20715132Y-9890233D02*
X20734179Y-9880709D01*
X20734179Y-9880709D02*
X20762751Y-9880709D01*
X20762751Y-9880709D02*
X20781798Y-9890233D01*
X20781798Y-9890233D02*
X20791322Y-9909281D01*
X20791322Y-9909281D02*
X20791322Y-10014043D01*
X20886560Y-10014043D02*
X20886560Y-9880709D01*
X20886560Y-9899757D02*
X20896084Y-9890233D01*
X20896084Y-9890233D02*
X20915132Y-9880709D01*
X20915132Y-9880709D02*
X20943703Y-9880709D01*
X20943703Y-9880709D02*
X20962751Y-9890233D01*
X20962751Y-9890233D02*
X20972275Y-9909281D01*
X20972275Y-9909281D02*
X20972275Y-10014043D01*
X20972275Y-9909281D02*
X20981798Y-9890233D01*
X20981798Y-9890233D02*
X21000846Y-9880709D01*
X21000846Y-9880709D02*
X21029417Y-9880709D01*
X21029417Y-9880709D02*
X21048465Y-9890233D01*
X21048465Y-9890233D02*
X21057989Y-9909281D01*
X21057989Y-9909281D02*
X21057989Y-10014043D01*
X21448465Y-9804519D02*
X21277037Y-10061662D01*
X21705608Y-9814043D02*
X21724656Y-9814043D01*
X21724656Y-9814043D02*
X21743703Y-9823566D01*
X21743703Y-9823566D02*
X21753227Y-9833090D01*
X21753227Y-9833090D02*
X21762751Y-9852138D01*
X21762751Y-9852138D02*
X21772275Y-9890233D01*
X21772275Y-9890233D02*
X21772275Y-9937852D01*
X21772275Y-9937852D02*
X21762751Y-9975947D01*
X21762751Y-9975947D02*
X21753227Y-9994995D01*
X21753227Y-9994995D02*
X21743703Y-10004519D01*
X21743703Y-10004519D02*
X21724656Y-10014043D01*
X21724656Y-10014043D02*
X21705608Y-10014043D01*
X21705608Y-10014043D02*
X21686560Y-10004519D01*
X21686560Y-10004519D02*
X21677037Y-9994995D01*
X21677037Y-9994995D02*
X21667513Y-9975947D01*
X21667513Y-9975947D02*
X21657989Y-9937852D01*
X21657989Y-9937852D02*
X21657989Y-9890233D01*
X21657989Y-9890233D02*
X21667513Y-9852138D01*
X21667513Y-9852138D02*
X21677037Y-9833090D01*
X21677037Y-9833090D02*
X21686560Y-9823566D01*
X21686560Y-9823566D02*
X21705608Y-9814043D01*
X21857989Y-9994995D02*
X21867513Y-10004519D01*
X21867513Y-10004519D02*
X21857989Y-10014043D01*
X21857989Y-10014043D02*
X21848465Y-10004519D01*
X21848465Y-10004519D02*
X21857989Y-9994995D01*
X21857989Y-9994995D02*
X21857989Y-10014043D01*
X21991322Y-9814043D02*
X22010370Y-9814043D01*
X22010370Y-9814043D02*
X22029418Y-9823566D01*
X22029418Y-9823566D02*
X22038941Y-9833090D01*
X22038941Y-9833090D02*
X22048465Y-9852138D01*
X22048465Y-9852138D02*
X22057989Y-9890233D01*
X22057989Y-9890233D02*
X22057989Y-9937852D01*
X22057989Y-9937852D02*
X22048465Y-9975947D01*
X22048465Y-9975947D02*
X22038941Y-9994995D01*
X22038941Y-9994995D02*
X22029418Y-10004519D01*
X22029418Y-10004519D02*
X22010370Y-10014043D01*
X22010370Y-10014043D02*
X21991322Y-10014043D01*
X21991322Y-10014043D02*
X21972275Y-10004519D01*
X21972275Y-10004519D02*
X21962751Y-9994995D01*
X21962751Y-9994995D02*
X21953227Y-9975947D01*
X21953227Y-9975947D02*
X21943703Y-9937852D01*
X21943703Y-9937852D02*
X21943703Y-9890233D01*
X21943703Y-9890233D02*
X21953227Y-9852138D01*
X21953227Y-9852138D02*
X21962751Y-9833090D01*
X21962751Y-9833090D02*
X21972275Y-9823566D01*
X21972275Y-9823566D02*
X21991322Y-9814043D01*
X22124656Y-9814043D02*
X22248465Y-9814043D01*
X22248465Y-9814043D02*
X22181799Y-9890233D01*
X22181799Y-9890233D02*
X22210370Y-9890233D01*
X22210370Y-9890233D02*
X22229418Y-9899757D01*
X22229418Y-9899757D02*
X22238941Y-9909281D01*
X22238941Y-9909281D02*
X22248465Y-9928328D01*
X22248465Y-9928328D02*
X22248465Y-9975947D01*
X22248465Y-9975947D02*
X22238941Y-9994995D01*
X22238941Y-9994995D02*
X22229418Y-10004519D01*
X22229418Y-10004519D02*
X22210370Y-10014043D01*
X22210370Y-10014043D02*
X22153227Y-10014043D01*
X22153227Y-10014043D02*
X22134180Y-10004519D01*
X22134180Y-10004519D02*
X22124656Y-9994995D01*
X22438941Y-10014043D02*
X22324656Y-10014043D01*
X22381798Y-10014043D02*
X22381798Y-9814043D01*
X22381798Y-9814043D02*
X22362751Y-9842614D01*
X22362751Y-9842614D02*
X22343703Y-9861662D01*
X22343703Y-9861662D02*
X22324656Y-9871185D01*
X22619894Y-9814043D02*
X22524656Y-9814043D01*
X22524656Y-9814043D02*
X22515132Y-9909281D01*
X22515132Y-9909281D02*
X22524656Y-9899757D01*
X22524656Y-9899757D02*
X22543703Y-9890233D01*
X22543703Y-9890233D02*
X22591322Y-9890233D01*
X22591322Y-9890233D02*
X22610370Y-9899757D01*
X22610370Y-9899757D02*
X22619894Y-9909281D01*
X22619894Y-9909281D02*
X22629418Y-9928328D01*
X22629418Y-9928328D02*
X22629418Y-9975947D01*
X22629418Y-9975947D02*
X22619894Y-9994995D01*
X22619894Y-9994995D02*
X22610370Y-10004519D01*
X22610370Y-10004519D02*
X22591322Y-10014043D01*
X22591322Y-10014043D02*
X22543703Y-10014043D01*
X22543703Y-10014043D02*
X22524656Y-10004519D01*
X22524656Y-10004519D02*
X22515132Y-9994995D01*
X22705608Y-9814043D02*
X22705608Y-9852138D01*
X22781799Y-9814043D02*
X22781799Y-9852138D01*
X23077037Y-10090233D02*
X23067513Y-10080709D01*
X23067513Y-10080709D02*
X23048465Y-10052138D01*
X23048465Y-10052138D02*
X23038941Y-10033090D01*
X23038941Y-10033090D02*
X23029418Y-10004519D01*
X23029418Y-10004519D02*
X23019894Y-9956900D01*
X23019894Y-9956900D02*
X23019894Y-9918804D01*
X23019894Y-9918804D02*
X23029418Y-9871185D01*
X23029418Y-9871185D02*
X23038941Y-9842614D01*
X23038941Y-9842614D02*
X23048465Y-9823566D01*
X23048465Y-9823566D02*
X23067513Y-9794995D01*
X23067513Y-9794995D02*
X23077037Y-9785471D01*
X23238941Y-9880709D02*
X23238941Y-10014043D01*
X23191322Y-9804519D02*
X23143703Y-9947376D01*
X23143703Y-9947376D02*
X23267513Y-9947376D01*
X23496084Y-10014043D02*
X23496084Y-9814043D01*
X23581799Y-10014043D02*
X23581799Y-9909281D01*
X23581799Y-9909281D02*
X23572275Y-9890233D01*
X23572275Y-9890233D02*
X23553227Y-9880709D01*
X23553227Y-9880709D02*
X23524656Y-9880709D01*
X23524656Y-9880709D02*
X23505608Y-9890233D01*
X23505608Y-9890233D02*
X23496084Y-9899757D01*
X23705608Y-10014043D02*
X23686561Y-10004519D01*
X23686561Y-10004519D02*
X23677037Y-9994995D01*
X23677037Y-9994995D02*
X23667513Y-9975947D01*
X23667513Y-9975947D02*
X23667513Y-9918804D01*
X23667513Y-9918804D02*
X23677037Y-9899757D01*
X23677037Y-9899757D02*
X23686561Y-9890233D01*
X23686561Y-9890233D02*
X23705608Y-9880709D01*
X23705608Y-9880709D02*
X23734180Y-9880709D01*
X23734180Y-9880709D02*
X23753227Y-9890233D01*
X23753227Y-9890233D02*
X23762751Y-9899757D01*
X23762751Y-9899757D02*
X23772275Y-9918804D01*
X23772275Y-9918804D02*
X23772275Y-9975947D01*
X23772275Y-9975947D02*
X23762751Y-9994995D01*
X23762751Y-9994995D02*
X23753227Y-10004519D01*
X23753227Y-10004519D02*
X23734180Y-10014043D01*
X23734180Y-10014043D02*
X23705608Y-10014043D01*
X23886561Y-10014043D02*
X23867513Y-10004519D01*
X23867513Y-10004519D02*
X23857989Y-9985471D01*
X23857989Y-9985471D02*
X23857989Y-9814043D01*
X24038942Y-10004519D02*
X24019894Y-10014043D01*
X24019894Y-10014043D02*
X23981799Y-10014043D01*
X23981799Y-10014043D02*
X23962751Y-10004519D01*
X23962751Y-10004519D02*
X23953227Y-9985471D01*
X23953227Y-9985471D02*
X23953227Y-9909281D01*
X23953227Y-9909281D02*
X23962751Y-9890233D01*
X23962751Y-9890233D02*
X23981799Y-9880709D01*
X23981799Y-9880709D02*
X24019894Y-9880709D01*
X24019894Y-9880709D02*
X24038942Y-9890233D01*
X24038942Y-9890233D02*
X24048465Y-9909281D01*
X24048465Y-9909281D02*
X24048465Y-9928328D01*
X24048465Y-9928328D02*
X23953227Y-9947376D01*
X24124656Y-10004519D02*
X24143703Y-10014043D01*
X24143703Y-10014043D02*
X24181799Y-10014043D01*
X24181799Y-10014043D02*
X24200846Y-10004519D01*
X24200846Y-10004519D02*
X24210370Y-9985471D01*
X24210370Y-9985471D02*
X24210370Y-9975947D01*
X24210370Y-9975947D02*
X24200846Y-9956900D01*
X24200846Y-9956900D02*
X24181799Y-9947376D01*
X24181799Y-9947376D02*
X24153227Y-9947376D01*
X24153227Y-9947376D02*
X24134180Y-9937852D01*
X24134180Y-9937852D02*
X24124656Y-9918804D01*
X24124656Y-9918804D02*
X24124656Y-9909281D01*
X24124656Y-9909281D02*
X24134180Y-9890233D01*
X24134180Y-9890233D02*
X24153227Y-9880709D01*
X24153227Y-9880709D02*
X24181799Y-9880709D01*
X24181799Y-9880709D02*
X24200846Y-9890233D01*
X24277037Y-10090233D02*
X24286561Y-10080709D01*
X24286561Y-10080709D02*
X24305608Y-10052138D01*
X24305608Y-10052138D02*
X24315132Y-10033090D01*
X24315132Y-10033090D02*
X24324656Y-10004519D01*
X24324656Y-10004519D02*
X24334180Y-9956900D01*
X24334180Y-9956900D02*
X24334180Y-9918804D01*
X24334180Y-9918804D02*
X24324656Y-9871185D01*
X24324656Y-9871185D02*
X24315132Y-9842614D01*
X24315132Y-9842614D02*
X24305608Y-9823566D01*
X24305608Y-9823566D02*
X24286561Y-9794995D01*
X24286561Y-9794995D02*
X24277037Y-9785471D01*
D14*
X19503416Y-10213803D02*
X19503416Y-10157234D01*
X19446847Y-10157234D01*
X19446847Y-10213803D01*
X19503416Y-10213803D01*
D11*
X19800846Y-10078043D02*
X19819894Y-10078043D01*
X19819894Y-10078043D02*
X19838941Y-10087566D01*
X19838941Y-10087566D02*
X19848465Y-10097090D01*
X19848465Y-10097090D02*
X19857989Y-10116138D01*
X19857989Y-10116138D02*
X19867513Y-10154233D01*
X19867513Y-10154233D02*
X19867513Y-10201852D01*
X19867513Y-10201852D02*
X19857989Y-10239947D01*
X19857989Y-10239947D02*
X19848465Y-10258995D01*
X19848465Y-10258995D02*
X19838941Y-10268519D01*
X19838941Y-10268519D02*
X19819894Y-10278043D01*
X19819894Y-10278043D02*
X19800846Y-10278043D01*
X19800846Y-10278043D02*
X19781798Y-10268519D01*
X19781798Y-10268519D02*
X19772275Y-10258995D01*
X19772275Y-10258995D02*
X19762751Y-10239947D01*
X19762751Y-10239947D02*
X19753227Y-10201852D01*
X19753227Y-10201852D02*
X19753227Y-10154233D01*
X19753227Y-10154233D02*
X19762751Y-10116138D01*
X19762751Y-10116138D02*
X19772275Y-10097090D01*
X19772275Y-10097090D02*
X19781798Y-10087566D01*
X19781798Y-10087566D02*
X19800846Y-10078043D01*
X19953227Y-10258995D02*
X19962751Y-10268519D01*
X19962751Y-10268519D02*
X19953227Y-10278043D01*
X19953227Y-10278043D02*
X19943703Y-10268519D01*
X19943703Y-10268519D02*
X19953227Y-10258995D01*
X19953227Y-10258995D02*
X19953227Y-10278043D01*
X20077036Y-10163757D02*
X20057989Y-10154233D01*
X20057989Y-10154233D02*
X20048465Y-10144709D01*
X20048465Y-10144709D02*
X20038941Y-10125662D01*
X20038941Y-10125662D02*
X20038941Y-10116138D01*
X20038941Y-10116138D02*
X20048465Y-10097090D01*
X20048465Y-10097090D02*
X20057989Y-10087566D01*
X20057989Y-10087566D02*
X20077036Y-10078043D01*
X20077036Y-10078043D02*
X20115132Y-10078043D01*
X20115132Y-10078043D02*
X20134179Y-10087566D01*
X20134179Y-10087566D02*
X20143703Y-10097090D01*
X20143703Y-10097090D02*
X20153227Y-10116138D01*
X20153227Y-10116138D02*
X20153227Y-10125662D01*
X20153227Y-10125662D02*
X20143703Y-10144709D01*
X20143703Y-10144709D02*
X20134179Y-10154233D01*
X20134179Y-10154233D02*
X20115132Y-10163757D01*
X20115132Y-10163757D02*
X20077036Y-10163757D01*
X20077036Y-10163757D02*
X20057989Y-10173281D01*
X20057989Y-10173281D02*
X20048465Y-10182804D01*
X20048465Y-10182804D02*
X20038941Y-10201852D01*
X20038941Y-10201852D02*
X20038941Y-10239947D01*
X20038941Y-10239947D02*
X20048465Y-10258995D01*
X20048465Y-10258995D02*
X20057989Y-10268519D01*
X20057989Y-10268519D02*
X20077036Y-10278043D01*
X20077036Y-10278043D02*
X20115132Y-10278043D01*
X20115132Y-10278043D02*
X20134179Y-10268519D01*
X20134179Y-10268519D02*
X20143703Y-10258995D01*
X20143703Y-10258995D02*
X20153227Y-10239947D01*
X20153227Y-10239947D02*
X20153227Y-10201852D01*
X20153227Y-10201852D02*
X20143703Y-10182804D01*
X20143703Y-10182804D02*
X20134179Y-10173281D01*
X20134179Y-10173281D02*
X20115132Y-10163757D01*
X20277036Y-10078043D02*
X20296084Y-10078043D01*
X20296084Y-10078043D02*
X20315132Y-10087566D01*
X20315132Y-10087566D02*
X20324656Y-10097090D01*
X20324656Y-10097090D02*
X20334179Y-10116138D01*
X20334179Y-10116138D02*
X20343703Y-10154233D01*
X20343703Y-10154233D02*
X20343703Y-10201852D01*
X20343703Y-10201852D02*
X20334179Y-10239947D01*
X20334179Y-10239947D02*
X20324656Y-10258995D01*
X20324656Y-10258995D02*
X20315132Y-10268519D01*
X20315132Y-10268519D02*
X20296084Y-10278043D01*
X20296084Y-10278043D02*
X20277036Y-10278043D01*
X20277036Y-10278043D02*
X20257989Y-10268519D01*
X20257989Y-10268519D02*
X20248465Y-10258995D01*
X20248465Y-10258995D02*
X20238941Y-10239947D01*
X20238941Y-10239947D02*
X20229417Y-10201852D01*
X20229417Y-10201852D02*
X20229417Y-10154233D01*
X20229417Y-10154233D02*
X20238941Y-10116138D01*
X20238941Y-10116138D02*
X20248465Y-10097090D01*
X20248465Y-10097090D02*
X20257989Y-10087566D01*
X20257989Y-10087566D02*
X20277036Y-10078043D01*
X20467513Y-10078043D02*
X20486560Y-10078043D01*
X20486560Y-10078043D02*
X20505608Y-10087566D01*
X20505608Y-10087566D02*
X20515132Y-10097090D01*
X20515132Y-10097090D02*
X20524656Y-10116138D01*
X20524656Y-10116138D02*
X20534179Y-10154233D01*
X20534179Y-10154233D02*
X20534179Y-10201852D01*
X20534179Y-10201852D02*
X20524656Y-10239947D01*
X20524656Y-10239947D02*
X20515132Y-10258995D01*
X20515132Y-10258995D02*
X20505608Y-10268519D01*
X20505608Y-10268519D02*
X20486560Y-10278043D01*
X20486560Y-10278043D02*
X20467513Y-10278043D01*
X20467513Y-10278043D02*
X20448465Y-10268519D01*
X20448465Y-10268519D02*
X20438941Y-10258995D01*
X20438941Y-10258995D02*
X20429417Y-10239947D01*
X20429417Y-10239947D02*
X20419894Y-10201852D01*
X20419894Y-10201852D02*
X20419894Y-10154233D01*
X20419894Y-10154233D02*
X20429417Y-10116138D01*
X20429417Y-10116138D02*
X20438941Y-10097090D01*
X20438941Y-10097090D02*
X20448465Y-10087566D01*
X20448465Y-10087566D02*
X20467513Y-10078043D01*
X20619894Y-10278043D02*
X20619894Y-10144709D01*
X20619894Y-10163757D02*
X20629417Y-10154233D01*
X20629417Y-10154233D02*
X20648465Y-10144709D01*
X20648465Y-10144709D02*
X20677037Y-10144709D01*
X20677037Y-10144709D02*
X20696084Y-10154233D01*
X20696084Y-10154233D02*
X20705608Y-10173281D01*
X20705608Y-10173281D02*
X20705608Y-10278043D01*
X20705608Y-10173281D02*
X20715132Y-10154233D01*
X20715132Y-10154233D02*
X20734179Y-10144709D01*
X20734179Y-10144709D02*
X20762751Y-10144709D01*
X20762751Y-10144709D02*
X20781798Y-10154233D01*
X20781798Y-10154233D02*
X20791322Y-10173281D01*
X20791322Y-10173281D02*
X20791322Y-10278043D01*
X20886560Y-10278043D02*
X20886560Y-10144709D01*
X20886560Y-10163757D02*
X20896084Y-10154233D01*
X20896084Y-10154233D02*
X20915132Y-10144709D01*
X20915132Y-10144709D02*
X20943703Y-10144709D01*
X20943703Y-10144709D02*
X20962751Y-10154233D01*
X20962751Y-10154233D02*
X20972275Y-10173281D01*
X20972275Y-10173281D02*
X20972275Y-10278043D01*
X20972275Y-10173281D02*
X20981798Y-10154233D01*
X20981798Y-10154233D02*
X21000846Y-10144709D01*
X21000846Y-10144709D02*
X21029417Y-10144709D01*
X21029417Y-10144709D02*
X21048465Y-10154233D01*
X21048465Y-10154233D02*
X21057989Y-10173281D01*
X21057989Y-10173281D02*
X21057989Y-10278043D01*
X21448465Y-10068519D02*
X21277037Y-10325662D01*
X21705608Y-10078043D02*
X21724656Y-10078043D01*
X21724656Y-10078043D02*
X21743703Y-10087566D01*
X21743703Y-10087566D02*
X21753227Y-10097090D01*
X21753227Y-10097090D02*
X21762751Y-10116138D01*
X21762751Y-10116138D02*
X21772275Y-10154233D01*
X21772275Y-10154233D02*
X21772275Y-10201852D01*
X21772275Y-10201852D02*
X21762751Y-10239947D01*
X21762751Y-10239947D02*
X21753227Y-10258995D01*
X21753227Y-10258995D02*
X21743703Y-10268519D01*
X21743703Y-10268519D02*
X21724656Y-10278043D01*
X21724656Y-10278043D02*
X21705608Y-10278043D01*
X21705608Y-10278043D02*
X21686560Y-10268519D01*
X21686560Y-10268519D02*
X21677037Y-10258995D01*
X21677037Y-10258995D02*
X21667513Y-10239947D01*
X21667513Y-10239947D02*
X21657989Y-10201852D01*
X21657989Y-10201852D02*
X21657989Y-10154233D01*
X21657989Y-10154233D02*
X21667513Y-10116138D01*
X21667513Y-10116138D02*
X21677037Y-10097090D01*
X21677037Y-10097090D02*
X21686560Y-10087566D01*
X21686560Y-10087566D02*
X21705608Y-10078043D01*
X21857989Y-10258995D02*
X21867513Y-10268519D01*
X21867513Y-10268519D02*
X21857989Y-10278043D01*
X21857989Y-10278043D02*
X21848465Y-10268519D01*
X21848465Y-10268519D02*
X21857989Y-10258995D01*
X21857989Y-10258995D02*
X21857989Y-10278043D01*
X21991322Y-10078043D02*
X22010370Y-10078043D01*
X22010370Y-10078043D02*
X22029418Y-10087566D01*
X22029418Y-10087566D02*
X22038941Y-10097090D01*
X22038941Y-10097090D02*
X22048465Y-10116138D01*
X22048465Y-10116138D02*
X22057989Y-10154233D01*
X22057989Y-10154233D02*
X22057989Y-10201852D01*
X22057989Y-10201852D02*
X22048465Y-10239947D01*
X22048465Y-10239947D02*
X22038941Y-10258995D01*
X22038941Y-10258995D02*
X22029418Y-10268519D01*
X22029418Y-10268519D02*
X22010370Y-10278043D01*
X22010370Y-10278043D02*
X21991322Y-10278043D01*
X21991322Y-10278043D02*
X21972275Y-10268519D01*
X21972275Y-10268519D02*
X21962751Y-10258995D01*
X21962751Y-10258995D02*
X21953227Y-10239947D01*
X21953227Y-10239947D02*
X21943703Y-10201852D01*
X21943703Y-10201852D02*
X21943703Y-10154233D01*
X21943703Y-10154233D02*
X21953227Y-10116138D01*
X21953227Y-10116138D02*
X21962751Y-10097090D01*
X21962751Y-10097090D02*
X21972275Y-10087566D01*
X21972275Y-10087566D02*
X21991322Y-10078043D01*
X22124656Y-10078043D02*
X22248465Y-10078043D01*
X22248465Y-10078043D02*
X22181799Y-10154233D01*
X22181799Y-10154233D02*
X22210370Y-10154233D01*
X22210370Y-10154233D02*
X22229418Y-10163757D01*
X22229418Y-10163757D02*
X22238941Y-10173281D01*
X22238941Y-10173281D02*
X22248465Y-10192328D01*
X22248465Y-10192328D02*
X22248465Y-10239947D01*
X22248465Y-10239947D02*
X22238941Y-10258995D01*
X22238941Y-10258995D02*
X22229418Y-10268519D01*
X22229418Y-10268519D02*
X22210370Y-10278043D01*
X22210370Y-10278043D02*
X22153227Y-10278043D01*
X22153227Y-10278043D02*
X22134180Y-10268519D01*
X22134180Y-10268519D02*
X22124656Y-10258995D01*
X22438941Y-10278043D02*
X22324656Y-10278043D01*
X22381798Y-10278043D02*
X22381798Y-10078043D01*
X22381798Y-10078043D02*
X22362751Y-10106614D01*
X22362751Y-10106614D02*
X22343703Y-10125662D01*
X22343703Y-10125662D02*
X22324656Y-10135185D01*
X22619894Y-10078043D02*
X22524656Y-10078043D01*
X22524656Y-10078043D02*
X22515132Y-10173281D01*
X22515132Y-10173281D02*
X22524656Y-10163757D01*
X22524656Y-10163757D02*
X22543703Y-10154233D01*
X22543703Y-10154233D02*
X22591322Y-10154233D01*
X22591322Y-10154233D02*
X22610370Y-10163757D01*
X22610370Y-10163757D02*
X22619894Y-10173281D01*
X22619894Y-10173281D02*
X22629418Y-10192328D01*
X22629418Y-10192328D02*
X22629418Y-10239947D01*
X22629418Y-10239947D02*
X22619894Y-10258995D01*
X22619894Y-10258995D02*
X22610370Y-10268519D01*
X22610370Y-10268519D02*
X22591322Y-10278043D01*
X22591322Y-10278043D02*
X22543703Y-10278043D01*
X22543703Y-10278043D02*
X22524656Y-10268519D01*
X22524656Y-10268519D02*
X22515132Y-10258995D01*
X22705608Y-10078043D02*
X22705608Y-10116138D01*
X22781799Y-10078043D02*
X22781799Y-10116138D01*
X23077037Y-10354233D02*
X23067513Y-10344709D01*
X23067513Y-10344709D02*
X23048465Y-10316138D01*
X23048465Y-10316138D02*
X23038941Y-10297090D01*
X23038941Y-10297090D02*
X23029418Y-10268519D01*
X23029418Y-10268519D02*
X23019894Y-10220900D01*
X23019894Y-10220900D02*
X23019894Y-10182804D01*
X23019894Y-10182804D02*
X23029418Y-10135185D01*
X23029418Y-10135185D02*
X23038941Y-10106614D01*
X23038941Y-10106614D02*
X23048465Y-10087566D01*
X23048465Y-10087566D02*
X23067513Y-10058995D01*
X23067513Y-10058995D02*
X23077037Y-10049471D01*
X23191322Y-10078043D02*
X23210370Y-10078043D01*
X23210370Y-10078043D02*
X23229418Y-10087566D01*
X23229418Y-10087566D02*
X23238941Y-10097090D01*
X23238941Y-10097090D02*
X23248465Y-10116138D01*
X23248465Y-10116138D02*
X23257989Y-10154233D01*
X23257989Y-10154233D02*
X23257989Y-10201852D01*
X23257989Y-10201852D02*
X23248465Y-10239947D01*
X23248465Y-10239947D02*
X23238941Y-10258995D01*
X23238941Y-10258995D02*
X23229418Y-10268519D01*
X23229418Y-10268519D02*
X23210370Y-10278043D01*
X23210370Y-10278043D02*
X23191322Y-10278043D01*
X23191322Y-10278043D02*
X23172275Y-10268519D01*
X23172275Y-10268519D02*
X23162751Y-10258995D01*
X23162751Y-10258995D02*
X23153227Y-10239947D01*
X23153227Y-10239947D02*
X23143703Y-10201852D01*
X23143703Y-10201852D02*
X23143703Y-10154233D01*
X23143703Y-10154233D02*
X23153227Y-10116138D01*
X23153227Y-10116138D02*
X23162751Y-10097090D01*
X23162751Y-10097090D02*
X23172275Y-10087566D01*
X23172275Y-10087566D02*
X23191322Y-10078043D01*
X23496084Y-10278043D02*
X23496084Y-10078043D01*
X23581799Y-10278043D02*
X23581799Y-10173281D01*
X23581799Y-10173281D02*
X23572275Y-10154233D01*
X23572275Y-10154233D02*
X23553227Y-10144709D01*
X23553227Y-10144709D02*
X23524656Y-10144709D01*
X23524656Y-10144709D02*
X23505608Y-10154233D01*
X23505608Y-10154233D02*
X23496084Y-10163757D01*
X23705608Y-10278043D02*
X23686561Y-10268519D01*
X23686561Y-10268519D02*
X23677037Y-10258995D01*
X23677037Y-10258995D02*
X23667513Y-10239947D01*
X23667513Y-10239947D02*
X23667513Y-10182804D01*
X23667513Y-10182804D02*
X23677037Y-10163757D01*
X23677037Y-10163757D02*
X23686561Y-10154233D01*
X23686561Y-10154233D02*
X23705608Y-10144709D01*
X23705608Y-10144709D02*
X23734180Y-10144709D01*
X23734180Y-10144709D02*
X23753227Y-10154233D01*
X23753227Y-10154233D02*
X23762751Y-10163757D01*
X23762751Y-10163757D02*
X23772275Y-10182804D01*
X23772275Y-10182804D02*
X23772275Y-10239947D01*
X23772275Y-10239947D02*
X23762751Y-10258995D01*
X23762751Y-10258995D02*
X23753227Y-10268519D01*
X23753227Y-10268519D02*
X23734180Y-10278043D01*
X23734180Y-10278043D02*
X23705608Y-10278043D01*
X23886561Y-10278043D02*
X23867513Y-10268519D01*
X23867513Y-10268519D02*
X23857989Y-10249471D01*
X23857989Y-10249471D02*
X23857989Y-10078043D01*
X24038942Y-10268519D02*
X24019894Y-10278043D01*
X24019894Y-10278043D02*
X23981799Y-10278043D01*
X23981799Y-10278043D02*
X23962751Y-10268519D01*
X23962751Y-10268519D02*
X23953227Y-10249471D01*
X23953227Y-10249471D02*
X23953227Y-10173281D01*
X23953227Y-10173281D02*
X23962751Y-10154233D01*
X23962751Y-10154233D02*
X23981799Y-10144709D01*
X23981799Y-10144709D02*
X24019894Y-10144709D01*
X24019894Y-10144709D02*
X24038942Y-10154233D01*
X24038942Y-10154233D02*
X24048465Y-10173281D01*
X24048465Y-10173281D02*
X24048465Y-10192328D01*
X24048465Y-10192328D02*
X23953227Y-10211376D01*
X24124656Y-10268519D02*
X24143703Y-10278043D01*
X24143703Y-10278043D02*
X24181799Y-10278043D01*
X24181799Y-10278043D02*
X24200846Y-10268519D01*
X24200846Y-10268519D02*
X24210370Y-10249471D01*
X24210370Y-10249471D02*
X24210370Y-10239947D01*
X24210370Y-10239947D02*
X24200846Y-10220900D01*
X24200846Y-10220900D02*
X24181799Y-10211376D01*
X24181799Y-10211376D02*
X24153227Y-10211376D01*
X24153227Y-10211376D02*
X24134180Y-10201852D01*
X24134180Y-10201852D02*
X24124656Y-10182804D01*
X24124656Y-10182804D02*
X24124656Y-10173281D01*
X24124656Y-10173281D02*
X24134180Y-10154233D01*
X24134180Y-10154233D02*
X24153227Y-10144709D01*
X24153227Y-10144709D02*
X24181799Y-10144709D01*
X24181799Y-10144709D02*
X24200846Y-10154233D01*
X24448465Y-10201852D02*
X24600846Y-10201852D01*
X24524656Y-10278043D02*
X24524656Y-10125662D01*
X24829418Y-10078043D02*
X24953227Y-10078043D01*
X24953227Y-10078043D02*
X24886561Y-10154233D01*
X24886561Y-10154233D02*
X24915132Y-10154233D01*
X24915132Y-10154233D02*
X24934180Y-10163757D01*
X24934180Y-10163757D02*
X24943704Y-10173281D01*
X24943704Y-10173281D02*
X24953227Y-10192328D01*
X24953227Y-10192328D02*
X24953227Y-10239947D01*
X24953227Y-10239947D02*
X24943704Y-10258995D01*
X24943704Y-10258995D02*
X24934180Y-10268519D01*
X24934180Y-10268519D02*
X24915132Y-10278043D01*
X24915132Y-10278043D02*
X24857989Y-10278043D01*
X24857989Y-10278043D02*
X24838942Y-10268519D01*
X24838942Y-10268519D02*
X24829418Y-10258995D01*
X25181799Y-10268519D02*
X25200846Y-10278043D01*
X25200846Y-10278043D02*
X25238942Y-10278043D01*
X25238942Y-10278043D02*
X25257989Y-10268519D01*
X25257989Y-10268519D02*
X25267513Y-10249471D01*
X25267513Y-10249471D02*
X25267513Y-10239947D01*
X25267513Y-10239947D02*
X25257989Y-10220900D01*
X25257989Y-10220900D02*
X25238942Y-10211376D01*
X25238942Y-10211376D02*
X25210370Y-10211376D01*
X25210370Y-10211376D02*
X25191323Y-10201852D01*
X25191323Y-10201852D02*
X25181799Y-10182804D01*
X25181799Y-10182804D02*
X25181799Y-10173281D01*
X25181799Y-10173281D02*
X25191323Y-10154233D01*
X25191323Y-10154233D02*
X25210370Y-10144709D01*
X25210370Y-10144709D02*
X25238942Y-10144709D01*
X25238942Y-10144709D02*
X25257989Y-10154233D01*
X25381799Y-10278043D02*
X25362751Y-10268519D01*
X25362751Y-10268519D02*
X25353227Y-10249471D01*
X25353227Y-10249471D02*
X25353227Y-10078043D01*
X25486561Y-10278043D02*
X25467513Y-10268519D01*
X25467513Y-10268519D02*
X25457989Y-10258995D01*
X25457989Y-10258995D02*
X25448466Y-10239947D01*
X25448466Y-10239947D02*
X25448466Y-10182804D01*
X25448466Y-10182804D02*
X25457989Y-10163757D01*
X25457989Y-10163757D02*
X25467513Y-10154233D01*
X25467513Y-10154233D02*
X25486561Y-10144709D01*
X25486561Y-10144709D02*
X25515132Y-10144709D01*
X25515132Y-10144709D02*
X25534180Y-10154233D01*
X25534180Y-10154233D02*
X25543704Y-10163757D01*
X25543704Y-10163757D02*
X25553227Y-10182804D01*
X25553227Y-10182804D02*
X25553227Y-10239947D01*
X25553227Y-10239947D02*
X25543704Y-10258995D01*
X25543704Y-10258995D02*
X25534180Y-10268519D01*
X25534180Y-10268519D02*
X25515132Y-10278043D01*
X25515132Y-10278043D02*
X25486561Y-10278043D01*
X25610370Y-10144709D02*
X25686561Y-10144709D01*
X25638942Y-10078043D02*
X25638942Y-10249471D01*
X25638942Y-10249471D02*
X25648466Y-10268519D01*
X25648466Y-10268519D02*
X25667513Y-10278043D01*
X25667513Y-10278043D02*
X25686561Y-10278043D01*
X25743704Y-10268519D02*
X25762751Y-10278043D01*
X25762751Y-10278043D02*
X25800846Y-10278043D01*
X25800846Y-10278043D02*
X25819894Y-10268519D01*
X25819894Y-10268519D02*
X25829418Y-10249471D01*
X25829418Y-10249471D02*
X25829418Y-10239947D01*
X25829418Y-10239947D02*
X25819894Y-10220900D01*
X25819894Y-10220900D02*
X25800846Y-10211376D01*
X25800846Y-10211376D02*
X25772275Y-10211376D01*
X25772275Y-10211376D02*
X25753227Y-10201852D01*
X25753227Y-10201852D02*
X25743704Y-10182804D01*
X25743704Y-10182804D02*
X25743704Y-10173281D01*
X25743704Y-10173281D02*
X25753227Y-10154233D01*
X25753227Y-10154233D02*
X25772275Y-10144709D01*
X25772275Y-10144709D02*
X25800846Y-10144709D01*
X25800846Y-10144709D02*
X25819894Y-10154233D01*
X25896085Y-10354233D02*
X25905608Y-10344709D01*
X25905608Y-10344709D02*
X25924656Y-10316138D01*
X25924656Y-10316138D02*
X25934180Y-10297090D01*
X25934180Y-10297090D02*
X25943704Y-10268519D01*
X25943704Y-10268519D02*
X25953227Y-10220900D01*
X25953227Y-10220900D02*
X25953227Y-10182804D01*
X25953227Y-10182804D02*
X25943704Y-10135185D01*
X25943704Y-10135185D02*
X25934180Y-10106614D01*
X25934180Y-10106614D02*
X25924656Y-10087566D01*
X25924656Y-10087566D02*
X25905608Y-10058995D01*
X25905608Y-10058995D02*
X25896085Y-10049471D01*
D15*
X19465132Y-10499519D02*
X19515132Y-10449519D01*
X19465132Y-10399519D01*
X19415132Y-10449519D01*
X19465132Y-10499519D01*
D11*
X19867513Y-10542043D02*
X19753227Y-10542043D01*
X19810370Y-10542043D02*
X19810370Y-10342043D01*
X19810370Y-10342043D02*
X19791322Y-10370614D01*
X19791322Y-10370614D02*
X19772275Y-10389662D01*
X19772275Y-10389662D02*
X19753227Y-10399185D01*
X19953227Y-10522995D02*
X19962751Y-10532519D01*
X19962751Y-10532519D02*
X19953227Y-10542043D01*
X19953227Y-10542043D02*
X19943703Y-10532519D01*
X19943703Y-10532519D02*
X19953227Y-10522995D01*
X19953227Y-10522995D02*
X19953227Y-10542043D01*
X20086560Y-10342043D02*
X20105608Y-10342043D01*
X20105608Y-10342043D02*
X20124656Y-10351566D01*
X20124656Y-10351566D02*
X20134179Y-10361090D01*
X20134179Y-10361090D02*
X20143703Y-10380138D01*
X20143703Y-10380138D02*
X20153227Y-10418233D01*
X20153227Y-10418233D02*
X20153227Y-10465852D01*
X20153227Y-10465852D02*
X20143703Y-10503947D01*
X20143703Y-10503947D02*
X20134179Y-10522995D01*
X20134179Y-10522995D02*
X20124656Y-10532519D01*
X20124656Y-10532519D02*
X20105608Y-10542043D01*
X20105608Y-10542043D02*
X20086560Y-10542043D01*
X20086560Y-10542043D02*
X20067513Y-10532519D01*
X20067513Y-10532519D02*
X20057989Y-10522995D01*
X20057989Y-10522995D02*
X20048465Y-10503947D01*
X20048465Y-10503947D02*
X20038941Y-10465852D01*
X20038941Y-10465852D02*
X20038941Y-10418233D01*
X20038941Y-10418233D02*
X20048465Y-10380138D01*
X20048465Y-10380138D02*
X20057989Y-10361090D01*
X20057989Y-10361090D02*
X20067513Y-10351566D01*
X20067513Y-10351566D02*
X20086560Y-10342043D01*
X20277036Y-10342043D02*
X20296084Y-10342043D01*
X20296084Y-10342043D02*
X20315132Y-10351566D01*
X20315132Y-10351566D02*
X20324656Y-10361090D01*
X20324656Y-10361090D02*
X20334179Y-10380138D01*
X20334179Y-10380138D02*
X20343703Y-10418233D01*
X20343703Y-10418233D02*
X20343703Y-10465852D01*
X20343703Y-10465852D02*
X20334179Y-10503947D01*
X20334179Y-10503947D02*
X20324656Y-10522995D01*
X20324656Y-10522995D02*
X20315132Y-10532519D01*
X20315132Y-10532519D02*
X20296084Y-10542043D01*
X20296084Y-10542043D02*
X20277036Y-10542043D01*
X20277036Y-10542043D02*
X20257989Y-10532519D01*
X20257989Y-10532519D02*
X20248465Y-10522995D01*
X20248465Y-10522995D02*
X20238941Y-10503947D01*
X20238941Y-10503947D02*
X20229417Y-10465852D01*
X20229417Y-10465852D02*
X20229417Y-10418233D01*
X20229417Y-10418233D02*
X20238941Y-10380138D01*
X20238941Y-10380138D02*
X20248465Y-10361090D01*
X20248465Y-10361090D02*
X20257989Y-10351566D01*
X20257989Y-10351566D02*
X20277036Y-10342043D01*
X20467513Y-10342043D02*
X20486560Y-10342043D01*
X20486560Y-10342043D02*
X20505608Y-10351566D01*
X20505608Y-10351566D02*
X20515132Y-10361090D01*
X20515132Y-10361090D02*
X20524656Y-10380138D01*
X20524656Y-10380138D02*
X20534179Y-10418233D01*
X20534179Y-10418233D02*
X20534179Y-10465852D01*
X20534179Y-10465852D02*
X20524656Y-10503947D01*
X20524656Y-10503947D02*
X20515132Y-10522995D01*
X20515132Y-10522995D02*
X20505608Y-10532519D01*
X20505608Y-10532519D02*
X20486560Y-10542043D01*
X20486560Y-10542043D02*
X20467513Y-10542043D01*
X20467513Y-10542043D02*
X20448465Y-10532519D01*
X20448465Y-10532519D02*
X20438941Y-10522995D01*
X20438941Y-10522995D02*
X20429417Y-10503947D01*
X20429417Y-10503947D02*
X20419894Y-10465852D01*
X20419894Y-10465852D02*
X20419894Y-10418233D01*
X20419894Y-10418233D02*
X20429417Y-10380138D01*
X20429417Y-10380138D02*
X20438941Y-10361090D01*
X20438941Y-10361090D02*
X20448465Y-10351566D01*
X20448465Y-10351566D02*
X20467513Y-10342043D01*
X20619894Y-10542043D02*
X20619894Y-10408709D01*
X20619894Y-10427757D02*
X20629417Y-10418233D01*
X20629417Y-10418233D02*
X20648465Y-10408709D01*
X20648465Y-10408709D02*
X20677037Y-10408709D01*
X20677037Y-10408709D02*
X20696084Y-10418233D01*
X20696084Y-10418233D02*
X20705608Y-10437281D01*
X20705608Y-10437281D02*
X20705608Y-10542043D01*
X20705608Y-10437281D02*
X20715132Y-10418233D01*
X20715132Y-10418233D02*
X20734179Y-10408709D01*
X20734179Y-10408709D02*
X20762751Y-10408709D01*
X20762751Y-10408709D02*
X20781798Y-10418233D01*
X20781798Y-10418233D02*
X20791322Y-10437281D01*
X20791322Y-10437281D02*
X20791322Y-10542043D01*
X20886560Y-10542043D02*
X20886560Y-10408709D01*
X20886560Y-10427757D02*
X20896084Y-10418233D01*
X20896084Y-10418233D02*
X20915132Y-10408709D01*
X20915132Y-10408709D02*
X20943703Y-10408709D01*
X20943703Y-10408709D02*
X20962751Y-10418233D01*
X20962751Y-10418233D02*
X20972275Y-10437281D01*
X20972275Y-10437281D02*
X20972275Y-10542043D01*
X20972275Y-10437281D02*
X20981798Y-10418233D01*
X20981798Y-10418233D02*
X21000846Y-10408709D01*
X21000846Y-10408709D02*
X21029417Y-10408709D01*
X21029417Y-10408709D02*
X21048465Y-10418233D01*
X21048465Y-10418233D02*
X21057989Y-10437281D01*
X21057989Y-10437281D02*
X21057989Y-10542043D01*
X21448465Y-10332519D02*
X21277037Y-10589662D01*
X21705608Y-10342043D02*
X21724656Y-10342043D01*
X21724656Y-10342043D02*
X21743703Y-10351566D01*
X21743703Y-10351566D02*
X21753227Y-10361090D01*
X21753227Y-10361090D02*
X21762751Y-10380138D01*
X21762751Y-10380138D02*
X21772275Y-10418233D01*
X21772275Y-10418233D02*
X21772275Y-10465852D01*
X21772275Y-10465852D02*
X21762751Y-10503947D01*
X21762751Y-10503947D02*
X21753227Y-10522995D01*
X21753227Y-10522995D02*
X21743703Y-10532519D01*
X21743703Y-10532519D02*
X21724656Y-10542043D01*
X21724656Y-10542043D02*
X21705608Y-10542043D01*
X21705608Y-10542043D02*
X21686560Y-10532519D01*
X21686560Y-10532519D02*
X21677037Y-10522995D01*
X21677037Y-10522995D02*
X21667513Y-10503947D01*
X21667513Y-10503947D02*
X21657989Y-10465852D01*
X21657989Y-10465852D02*
X21657989Y-10418233D01*
X21657989Y-10418233D02*
X21667513Y-10380138D01*
X21667513Y-10380138D02*
X21677037Y-10361090D01*
X21677037Y-10361090D02*
X21686560Y-10351566D01*
X21686560Y-10351566D02*
X21705608Y-10342043D01*
X21857989Y-10522995D02*
X21867513Y-10532519D01*
X21867513Y-10532519D02*
X21857989Y-10542043D01*
X21857989Y-10542043D02*
X21848465Y-10532519D01*
X21848465Y-10532519D02*
X21857989Y-10522995D01*
X21857989Y-10522995D02*
X21857989Y-10542043D01*
X21991322Y-10342043D02*
X22010370Y-10342043D01*
X22010370Y-10342043D02*
X22029418Y-10351566D01*
X22029418Y-10351566D02*
X22038941Y-10361090D01*
X22038941Y-10361090D02*
X22048465Y-10380138D01*
X22048465Y-10380138D02*
X22057989Y-10418233D01*
X22057989Y-10418233D02*
X22057989Y-10465852D01*
X22057989Y-10465852D02*
X22048465Y-10503947D01*
X22048465Y-10503947D02*
X22038941Y-10522995D01*
X22038941Y-10522995D02*
X22029418Y-10532519D01*
X22029418Y-10532519D02*
X22010370Y-10542043D01*
X22010370Y-10542043D02*
X21991322Y-10542043D01*
X21991322Y-10542043D02*
X21972275Y-10532519D01*
X21972275Y-10532519D02*
X21962751Y-10522995D01*
X21962751Y-10522995D02*
X21953227Y-10503947D01*
X21953227Y-10503947D02*
X21943703Y-10465852D01*
X21943703Y-10465852D02*
X21943703Y-10418233D01*
X21943703Y-10418233D02*
X21953227Y-10380138D01*
X21953227Y-10380138D02*
X21962751Y-10361090D01*
X21962751Y-10361090D02*
X21972275Y-10351566D01*
X21972275Y-10351566D02*
X21991322Y-10342043D01*
X22124656Y-10342043D02*
X22248465Y-10342043D01*
X22248465Y-10342043D02*
X22181799Y-10418233D01*
X22181799Y-10418233D02*
X22210370Y-10418233D01*
X22210370Y-10418233D02*
X22229418Y-10427757D01*
X22229418Y-10427757D02*
X22238941Y-10437281D01*
X22238941Y-10437281D02*
X22248465Y-10456328D01*
X22248465Y-10456328D02*
X22248465Y-10503947D01*
X22248465Y-10503947D02*
X22238941Y-10522995D01*
X22238941Y-10522995D02*
X22229418Y-10532519D01*
X22229418Y-10532519D02*
X22210370Y-10542043D01*
X22210370Y-10542043D02*
X22153227Y-10542043D01*
X22153227Y-10542043D02*
X22134180Y-10532519D01*
X22134180Y-10532519D02*
X22124656Y-10522995D01*
X22343703Y-10542043D02*
X22381798Y-10542043D01*
X22381798Y-10542043D02*
X22400846Y-10532519D01*
X22400846Y-10532519D02*
X22410370Y-10522995D01*
X22410370Y-10522995D02*
X22429418Y-10494423D01*
X22429418Y-10494423D02*
X22438941Y-10456328D01*
X22438941Y-10456328D02*
X22438941Y-10380138D01*
X22438941Y-10380138D02*
X22429418Y-10361090D01*
X22429418Y-10361090D02*
X22419894Y-10351566D01*
X22419894Y-10351566D02*
X22400846Y-10342043D01*
X22400846Y-10342043D02*
X22362751Y-10342043D01*
X22362751Y-10342043D02*
X22343703Y-10351566D01*
X22343703Y-10351566D02*
X22334180Y-10361090D01*
X22334180Y-10361090D02*
X22324656Y-10380138D01*
X22324656Y-10380138D02*
X22324656Y-10427757D01*
X22324656Y-10427757D02*
X22334180Y-10446804D01*
X22334180Y-10446804D02*
X22343703Y-10456328D01*
X22343703Y-10456328D02*
X22362751Y-10465852D01*
X22362751Y-10465852D02*
X22400846Y-10465852D01*
X22400846Y-10465852D02*
X22419894Y-10456328D01*
X22419894Y-10456328D02*
X22429418Y-10446804D01*
X22429418Y-10446804D02*
X22438941Y-10427757D01*
X22610370Y-10408709D02*
X22610370Y-10542043D01*
X22562751Y-10332519D02*
X22515132Y-10475376D01*
X22515132Y-10475376D02*
X22638941Y-10475376D01*
X22705608Y-10342043D02*
X22705608Y-10380138D01*
X22781799Y-10342043D02*
X22781799Y-10380138D01*
X23077037Y-10618233D02*
X23067513Y-10608709D01*
X23067513Y-10608709D02*
X23048465Y-10580138D01*
X23048465Y-10580138D02*
X23038941Y-10561090D01*
X23038941Y-10561090D02*
X23029418Y-10532519D01*
X23029418Y-10532519D02*
X23019894Y-10484900D01*
X23019894Y-10484900D02*
X23019894Y-10446804D01*
X23019894Y-10446804D02*
X23029418Y-10399185D01*
X23029418Y-10399185D02*
X23038941Y-10370614D01*
X23038941Y-10370614D02*
X23048465Y-10351566D01*
X23048465Y-10351566D02*
X23067513Y-10322995D01*
X23067513Y-10322995D02*
X23077037Y-10313471D01*
X23134180Y-10342043D02*
X23257989Y-10342043D01*
X23257989Y-10342043D02*
X23191322Y-10418233D01*
X23191322Y-10418233D02*
X23219894Y-10418233D01*
X23219894Y-10418233D02*
X23238941Y-10427757D01*
X23238941Y-10427757D02*
X23248465Y-10437281D01*
X23248465Y-10437281D02*
X23257989Y-10456328D01*
X23257989Y-10456328D02*
X23257989Y-10503947D01*
X23257989Y-10503947D02*
X23248465Y-10522995D01*
X23248465Y-10522995D02*
X23238941Y-10532519D01*
X23238941Y-10532519D02*
X23219894Y-10542043D01*
X23219894Y-10542043D02*
X23162751Y-10542043D01*
X23162751Y-10542043D02*
X23143703Y-10532519D01*
X23143703Y-10532519D02*
X23134180Y-10522995D01*
X23429418Y-10342043D02*
X23391322Y-10342043D01*
X23391322Y-10342043D02*
X23372275Y-10351566D01*
X23372275Y-10351566D02*
X23362751Y-10361090D01*
X23362751Y-10361090D02*
X23343703Y-10389662D01*
X23343703Y-10389662D02*
X23334180Y-10427757D01*
X23334180Y-10427757D02*
X23334180Y-10503947D01*
X23334180Y-10503947D02*
X23343703Y-10522995D01*
X23343703Y-10522995D02*
X23353227Y-10532519D01*
X23353227Y-10532519D02*
X23372275Y-10542043D01*
X23372275Y-10542043D02*
X23410370Y-10542043D01*
X23410370Y-10542043D02*
X23429418Y-10532519D01*
X23429418Y-10532519D02*
X23438941Y-10522995D01*
X23438941Y-10522995D02*
X23448465Y-10503947D01*
X23448465Y-10503947D02*
X23448465Y-10456328D01*
X23448465Y-10456328D02*
X23438941Y-10437281D01*
X23438941Y-10437281D02*
X23429418Y-10427757D01*
X23429418Y-10427757D02*
X23410370Y-10418233D01*
X23410370Y-10418233D02*
X23372275Y-10418233D01*
X23372275Y-10418233D02*
X23353227Y-10427757D01*
X23353227Y-10427757D02*
X23343703Y-10437281D01*
X23343703Y-10437281D02*
X23334180Y-10456328D01*
X23686561Y-10542043D02*
X23686561Y-10342043D01*
X23772275Y-10542043D02*
X23772275Y-10437281D01*
X23772275Y-10437281D02*
X23762751Y-10418233D01*
X23762751Y-10418233D02*
X23743703Y-10408709D01*
X23743703Y-10408709D02*
X23715132Y-10408709D01*
X23715132Y-10408709D02*
X23696084Y-10418233D01*
X23696084Y-10418233D02*
X23686561Y-10427757D01*
X23896084Y-10542043D02*
X23877037Y-10532519D01*
X23877037Y-10532519D02*
X23867513Y-10522995D01*
X23867513Y-10522995D02*
X23857989Y-10503947D01*
X23857989Y-10503947D02*
X23857989Y-10446804D01*
X23857989Y-10446804D02*
X23867513Y-10427757D01*
X23867513Y-10427757D02*
X23877037Y-10418233D01*
X23877037Y-10418233D02*
X23896084Y-10408709D01*
X23896084Y-10408709D02*
X23924656Y-10408709D01*
X23924656Y-10408709D02*
X23943703Y-10418233D01*
X23943703Y-10418233D02*
X23953227Y-10427757D01*
X23953227Y-10427757D02*
X23962751Y-10446804D01*
X23962751Y-10446804D02*
X23962751Y-10503947D01*
X23962751Y-10503947D02*
X23953227Y-10522995D01*
X23953227Y-10522995D02*
X23943703Y-10532519D01*
X23943703Y-10532519D02*
X23924656Y-10542043D01*
X23924656Y-10542043D02*
X23896084Y-10542043D01*
X24077037Y-10542043D02*
X24057989Y-10532519D01*
X24057989Y-10532519D02*
X24048465Y-10513471D01*
X24048465Y-10513471D02*
X24048465Y-10342043D01*
X24229418Y-10532519D02*
X24210370Y-10542043D01*
X24210370Y-10542043D02*
X24172275Y-10542043D01*
X24172275Y-10542043D02*
X24153227Y-10532519D01*
X24153227Y-10532519D02*
X24143703Y-10513471D01*
X24143703Y-10513471D02*
X24143703Y-10437281D01*
X24143703Y-10437281D02*
X24153227Y-10418233D01*
X24153227Y-10418233D02*
X24172275Y-10408709D01*
X24172275Y-10408709D02*
X24210370Y-10408709D01*
X24210370Y-10408709D02*
X24229418Y-10418233D01*
X24229418Y-10418233D02*
X24238942Y-10437281D01*
X24238942Y-10437281D02*
X24238942Y-10456328D01*
X24238942Y-10456328D02*
X24143703Y-10475376D01*
X24315132Y-10532519D02*
X24334180Y-10542043D01*
X24334180Y-10542043D02*
X24372275Y-10542043D01*
X24372275Y-10542043D02*
X24391323Y-10532519D01*
X24391323Y-10532519D02*
X24400846Y-10513471D01*
X24400846Y-10513471D02*
X24400846Y-10503947D01*
X24400846Y-10503947D02*
X24391323Y-10484900D01*
X24391323Y-10484900D02*
X24372275Y-10475376D01*
X24372275Y-10475376D02*
X24343703Y-10475376D01*
X24343703Y-10475376D02*
X24324656Y-10465852D01*
X24324656Y-10465852D02*
X24315132Y-10446804D01*
X24315132Y-10446804D02*
X24315132Y-10437281D01*
X24315132Y-10437281D02*
X24324656Y-10418233D01*
X24324656Y-10418233D02*
X24343703Y-10408709D01*
X24343703Y-10408709D02*
X24372275Y-10408709D01*
X24372275Y-10408709D02*
X24391323Y-10418233D01*
X24467513Y-10618233D02*
X24477037Y-10608709D01*
X24477037Y-10608709D02*
X24496084Y-10580138D01*
X24496084Y-10580138D02*
X24505608Y-10561090D01*
X24505608Y-10561090D02*
X24515132Y-10532519D01*
X24515132Y-10532519D02*
X24524656Y-10484900D01*
X24524656Y-10484900D02*
X24524656Y-10446804D01*
X24524656Y-10446804D02*
X24515132Y-10399185D01*
X24515132Y-10399185D02*
X24505608Y-10370614D01*
X24505608Y-10370614D02*
X24496084Y-10351566D01*
X24496084Y-10351566D02*
X24477037Y-10322995D01*
X24477037Y-10322995D02*
X24467513Y-10313471D01*
D16*
X19395132Y-10653519D02*
X19515132Y-10773519D01*
X19515132Y-10653519D02*
X19395132Y-10773519D01*
X19515132Y-10713519D02*
G75*
G03*
X19515132Y-10713519I-60000J0D01*
G01*
D11*
X19867513Y-10806043D02*
X19753227Y-10806043D01*
X19810370Y-10806043D02*
X19810370Y-10606043D01*
X19810370Y-10606043D02*
X19791322Y-10634614D01*
X19791322Y-10634614D02*
X19772275Y-10653662D01*
X19772275Y-10653662D02*
X19753227Y-10663185D01*
X19953227Y-10786995D02*
X19962751Y-10796519D01*
X19962751Y-10796519D02*
X19953227Y-10806043D01*
X19953227Y-10806043D02*
X19943703Y-10796519D01*
X19943703Y-10796519D02*
X19953227Y-10786995D01*
X19953227Y-10786995D02*
X19953227Y-10806043D01*
X20038941Y-10625090D02*
X20048465Y-10615566D01*
X20048465Y-10615566D02*
X20067513Y-10606043D01*
X20067513Y-10606043D02*
X20115132Y-10606043D01*
X20115132Y-10606043D02*
X20134179Y-10615566D01*
X20134179Y-10615566D02*
X20143703Y-10625090D01*
X20143703Y-10625090D02*
X20153227Y-10644138D01*
X20153227Y-10644138D02*
X20153227Y-10663185D01*
X20153227Y-10663185D02*
X20143703Y-10691757D01*
X20143703Y-10691757D02*
X20029417Y-10806043D01*
X20029417Y-10806043D02*
X20153227Y-10806043D01*
X20277036Y-10606043D02*
X20296084Y-10606043D01*
X20296084Y-10606043D02*
X20315132Y-10615566D01*
X20315132Y-10615566D02*
X20324656Y-10625090D01*
X20324656Y-10625090D02*
X20334179Y-10644138D01*
X20334179Y-10644138D02*
X20343703Y-10682233D01*
X20343703Y-10682233D02*
X20343703Y-10729852D01*
X20343703Y-10729852D02*
X20334179Y-10767947D01*
X20334179Y-10767947D02*
X20324656Y-10786995D01*
X20324656Y-10786995D02*
X20315132Y-10796519D01*
X20315132Y-10796519D02*
X20296084Y-10806043D01*
X20296084Y-10806043D02*
X20277036Y-10806043D01*
X20277036Y-10806043D02*
X20257989Y-10796519D01*
X20257989Y-10796519D02*
X20248465Y-10786995D01*
X20248465Y-10786995D02*
X20238941Y-10767947D01*
X20238941Y-10767947D02*
X20229417Y-10729852D01*
X20229417Y-10729852D02*
X20229417Y-10682233D01*
X20229417Y-10682233D02*
X20238941Y-10644138D01*
X20238941Y-10644138D02*
X20248465Y-10625090D01*
X20248465Y-10625090D02*
X20257989Y-10615566D01*
X20257989Y-10615566D02*
X20277036Y-10606043D01*
X20467513Y-10606043D02*
X20486560Y-10606043D01*
X20486560Y-10606043D02*
X20505608Y-10615566D01*
X20505608Y-10615566D02*
X20515132Y-10625090D01*
X20515132Y-10625090D02*
X20524656Y-10644138D01*
X20524656Y-10644138D02*
X20534179Y-10682233D01*
X20534179Y-10682233D02*
X20534179Y-10729852D01*
X20534179Y-10729852D02*
X20524656Y-10767947D01*
X20524656Y-10767947D02*
X20515132Y-10786995D01*
X20515132Y-10786995D02*
X20505608Y-10796519D01*
X20505608Y-10796519D02*
X20486560Y-10806043D01*
X20486560Y-10806043D02*
X20467513Y-10806043D01*
X20467513Y-10806043D02*
X20448465Y-10796519D01*
X20448465Y-10796519D02*
X20438941Y-10786995D01*
X20438941Y-10786995D02*
X20429417Y-10767947D01*
X20429417Y-10767947D02*
X20419894Y-10729852D01*
X20419894Y-10729852D02*
X20419894Y-10682233D01*
X20419894Y-10682233D02*
X20429417Y-10644138D01*
X20429417Y-10644138D02*
X20438941Y-10625090D01*
X20438941Y-10625090D02*
X20448465Y-10615566D01*
X20448465Y-10615566D02*
X20467513Y-10606043D01*
X20619894Y-10806043D02*
X20619894Y-10672709D01*
X20619894Y-10691757D02*
X20629417Y-10682233D01*
X20629417Y-10682233D02*
X20648465Y-10672709D01*
X20648465Y-10672709D02*
X20677037Y-10672709D01*
X20677037Y-10672709D02*
X20696084Y-10682233D01*
X20696084Y-10682233D02*
X20705608Y-10701281D01*
X20705608Y-10701281D02*
X20705608Y-10806043D01*
X20705608Y-10701281D02*
X20715132Y-10682233D01*
X20715132Y-10682233D02*
X20734179Y-10672709D01*
X20734179Y-10672709D02*
X20762751Y-10672709D01*
X20762751Y-10672709D02*
X20781798Y-10682233D01*
X20781798Y-10682233D02*
X20791322Y-10701281D01*
X20791322Y-10701281D02*
X20791322Y-10806043D01*
X20886560Y-10806043D02*
X20886560Y-10672709D01*
X20886560Y-10691757D02*
X20896084Y-10682233D01*
X20896084Y-10682233D02*
X20915132Y-10672709D01*
X20915132Y-10672709D02*
X20943703Y-10672709D01*
X20943703Y-10672709D02*
X20962751Y-10682233D01*
X20962751Y-10682233D02*
X20972275Y-10701281D01*
X20972275Y-10701281D02*
X20972275Y-10806043D01*
X20972275Y-10701281D02*
X20981798Y-10682233D01*
X20981798Y-10682233D02*
X21000846Y-10672709D01*
X21000846Y-10672709D02*
X21029417Y-10672709D01*
X21029417Y-10672709D02*
X21048465Y-10682233D01*
X21048465Y-10682233D02*
X21057989Y-10701281D01*
X21057989Y-10701281D02*
X21057989Y-10806043D01*
X21448465Y-10596519D02*
X21277037Y-10853662D01*
X21705608Y-10606043D02*
X21724656Y-10606043D01*
X21724656Y-10606043D02*
X21743703Y-10615566D01*
X21743703Y-10615566D02*
X21753227Y-10625090D01*
X21753227Y-10625090D02*
X21762751Y-10644138D01*
X21762751Y-10644138D02*
X21772275Y-10682233D01*
X21772275Y-10682233D02*
X21772275Y-10729852D01*
X21772275Y-10729852D02*
X21762751Y-10767947D01*
X21762751Y-10767947D02*
X21753227Y-10786995D01*
X21753227Y-10786995D02*
X21743703Y-10796519D01*
X21743703Y-10796519D02*
X21724656Y-10806043D01*
X21724656Y-10806043D02*
X21705608Y-10806043D01*
X21705608Y-10806043D02*
X21686560Y-10796519D01*
X21686560Y-10796519D02*
X21677037Y-10786995D01*
X21677037Y-10786995D02*
X21667513Y-10767947D01*
X21667513Y-10767947D02*
X21657989Y-10729852D01*
X21657989Y-10729852D02*
X21657989Y-10682233D01*
X21657989Y-10682233D02*
X21667513Y-10644138D01*
X21667513Y-10644138D02*
X21677037Y-10625090D01*
X21677037Y-10625090D02*
X21686560Y-10615566D01*
X21686560Y-10615566D02*
X21705608Y-10606043D01*
X21857989Y-10786995D02*
X21867513Y-10796519D01*
X21867513Y-10796519D02*
X21857989Y-10806043D01*
X21857989Y-10806043D02*
X21848465Y-10796519D01*
X21848465Y-10796519D02*
X21857989Y-10786995D01*
X21857989Y-10786995D02*
X21857989Y-10806043D01*
X21991322Y-10606043D02*
X22010370Y-10606043D01*
X22010370Y-10606043D02*
X22029418Y-10615566D01*
X22029418Y-10615566D02*
X22038941Y-10625090D01*
X22038941Y-10625090D02*
X22048465Y-10644138D01*
X22048465Y-10644138D02*
X22057989Y-10682233D01*
X22057989Y-10682233D02*
X22057989Y-10729852D01*
X22057989Y-10729852D02*
X22048465Y-10767947D01*
X22048465Y-10767947D02*
X22038941Y-10786995D01*
X22038941Y-10786995D02*
X22029418Y-10796519D01*
X22029418Y-10796519D02*
X22010370Y-10806043D01*
X22010370Y-10806043D02*
X21991322Y-10806043D01*
X21991322Y-10806043D02*
X21972275Y-10796519D01*
X21972275Y-10796519D02*
X21962751Y-10786995D01*
X21962751Y-10786995D02*
X21953227Y-10767947D01*
X21953227Y-10767947D02*
X21943703Y-10729852D01*
X21943703Y-10729852D02*
X21943703Y-10682233D01*
X21943703Y-10682233D02*
X21953227Y-10644138D01*
X21953227Y-10644138D02*
X21962751Y-10625090D01*
X21962751Y-10625090D02*
X21972275Y-10615566D01*
X21972275Y-10615566D02*
X21991322Y-10606043D01*
X22229418Y-10672709D02*
X22229418Y-10806043D01*
X22181799Y-10596519D02*
X22134180Y-10739376D01*
X22134180Y-10739376D02*
X22257989Y-10739376D01*
X22315132Y-10606043D02*
X22448465Y-10606043D01*
X22448465Y-10606043D02*
X22362751Y-10806043D01*
X22515132Y-10625090D02*
X22524656Y-10615566D01*
X22524656Y-10615566D02*
X22543703Y-10606043D01*
X22543703Y-10606043D02*
X22591322Y-10606043D01*
X22591322Y-10606043D02*
X22610370Y-10615566D01*
X22610370Y-10615566D02*
X22619894Y-10625090D01*
X22619894Y-10625090D02*
X22629418Y-10644138D01*
X22629418Y-10644138D02*
X22629418Y-10663185D01*
X22629418Y-10663185D02*
X22619894Y-10691757D01*
X22619894Y-10691757D02*
X22505608Y-10806043D01*
X22505608Y-10806043D02*
X22629418Y-10806043D01*
X22705608Y-10606043D02*
X22705608Y-10644138D01*
X22781799Y-10606043D02*
X22781799Y-10644138D01*
X23077037Y-10882233D02*
X23067513Y-10872709D01*
X23067513Y-10872709D02*
X23048465Y-10844138D01*
X23048465Y-10844138D02*
X23038941Y-10825090D01*
X23038941Y-10825090D02*
X23029418Y-10796519D01*
X23029418Y-10796519D02*
X23019894Y-10748900D01*
X23019894Y-10748900D02*
X23019894Y-10710804D01*
X23019894Y-10710804D02*
X23029418Y-10663185D01*
X23029418Y-10663185D02*
X23038941Y-10634614D01*
X23038941Y-10634614D02*
X23048465Y-10615566D01*
X23048465Y-10615566D02*
X23067513Y-10586995D01*
X23067513Y-10586995D02*
X23077037Y-10577471D01*
X23134180Y-10606043D02*
X23257989Y-10606043D01*
X23257989Y-10606043D02*
X23191322Y-10682233D01*
X23191322Y-10682233D02*
X23219894Y-10682233D01*
X23219894Y-10682233D02*
X23238941Y-10691757D01*
X23238941Y-10691757D02*
X23248465Y-10701281D01*
X23248465Y-10701281D02*
X23257989Y-10720328D01*
X23257989Y-10720328D02*
X23257989Y-10767947D01*
X23257989Y-10767947D02*
X23248465Y-10786995D01*
X23248465Y-10786995D02*
X23238941Y-10796519D01*
X23238941Y-10796519D02*
X23219894Y-10806043D01*
X23219894Y-10806043D02*
X23162751Y-10806043D01*
X23162751Y-10806043D02*
X23143703Y-10796519D01*
X23143703Y-10796519D02*
X23134180Y-10786995D01*
X23496084Y-10806043D02*
X23496084Y-10606043D01*
X23581799Y-10806043D02*
X23581799Y-10701281D01*
X23581799Y-10701281D02*
X23572275Y-10682233D01*
X23572275Y-10682233D02*
X23553227Y-10672709D01*
X23553227Y-10672709D02*
X23524656Y-10672709D01*
X23524656Y-10672709D02*
X23505608Y-10682233D01*
X23505608Y-10682233D02*
X23496084Y-10691757D01*
X23705608Y-10806043D02*
X23686561Y-10796519D01*
X23686561Y-10796519D02*
X23677037Y-10786995D01*
X23677037Y-10786995D02*
X23667513Y-10767947D01*
X23667513Y-10767947D02*
X23667513Y-10710804D01*
X23667513Y-10710804D02*
X23677037Y-10691757D01*
X23677037Y-10691757D02*
X23686561Y-10682233D01*
X23686561Y-10682233D02*
X23705608Y-10672709D01*
X23705608Y-10672709D02*
X23734180Y-10672709D01*
X23734180Y-10672709D02*
X23753227Y-10682233D01*
X23753227Y-10682233D02*
X23762751Y-10691757D01*
X23762751Y-10691757D02*
X23772275Y-10710804D01*
X23772275Y-10710804D02*
X23772275Y-10767947D01*
X23772275Y-10767947D02*
X23762751Y-10786995D01*
X23762751Y-10786995D02*
X23753227Y-10796519D01*
X23753227Y-10796519D02*
X23734180Y-10806043D01*
X23734180Y-10806043D02*
X23705608Y-10806043D01*
X23886561Y-10806043D02*
X23867513Y-10796519D01*
X23867513Y-10796519D02*
X23857989Y-10777471D01*
X23857989Y-10777471D02*
X23857989Y-10606043D01*
X24038942Y-10796519D02*
X24019894Y-10806043D01*
X24019894Y-10806043D02*
X23981799Y-10806043D01*
X23981799Y-10806043D02*
X23962751Y-10796519D01*
X23962751Y-10796519D02*
X23953227Y-10777471D01*
X23953227Y-10777471D02*
X23953227Y-10701281D01*
X23953227Y-10701281D02*
X23962751Y-10682233D01*
X23962751Y-10682233D02*
X23981799Y-10672709D01*
X23981799Y-10672709D02*
X24019894Y-10672709D01*
X24019894Y-10672709D02*
X24038942Y-10682233D01*
X24038942Y-10682233D02*
X24048465Y-10701281D01*
X24048465Y-10701281D02*
X24048465Y-10720328D01*
X24048465Y-10720328D02*
X23953227Y-10739376D01*
X24124656Y-10796519D02*
X24143703Y-10806043D01*
X24143703Y-10806043D02*
X24181799Y-10806043D01*
X24181799Y-10806043D02*
X24200846Y-10796519D01*
X24200846Y-10796519D02*
X24210370Y-10777471D01*
X24210370Y-10777471D02*
X24210370Y-10767947D01*
X24210370Y-10767947D02*
X24200846Y-10748900D01*
X24200846Y-10748900D02*
X24181799Y-10739376D01*
X24181799Y-10739376D02*
X24153227Y-10739376D01*
X24153227Y-10739376D02*
X24134180Y-10729852D01*
X24134180Y-10729852D02*
X24124656Y-10710804D01*
X24124656Y-10710804D02*
X24124656Y-10701281D01*
X24124656Y-10701281D02*
X24134180Y-10682233D01*
X24134180Y-10682233D02*
X24153227Y-10672709D01*
X24153227Y-10672709D02*
X24181799Y-10672709D01*
X24181799Y-10672709D02*
X24200846Y-10682233D01*
X24277037Y-10882233D02*
X24286561Y-10872709D01*
X24286561Y-10872709D02*
X24305608Y-10844138D01*
X24305608Y-10844138D02*
X24315132Y-10825090D01*
X24315132Y-10825090D02*
X24324656Y-10796519D01*
X24324656Y-10796519D02*
X24334180Y-10748900D01*
X24334180Y-10748900D02*
X24334180Y-10710804D01*
X24334180Y-10710804D02*
X24324656Y-10663185D01*
X24324656Y-10663185D02*
X24315132Y-10634614D01*
X24315132Y-10634614D02*
X24305608Y-10615566D01*
X24305608Y-10615566D02*
X24286561Y-10586995D01*
X24286561Y-10586995D02*
X24277037Y-10577471D01*
D17*
X19375132Y-10907519D02*
X19515132Y-11047519D01*
X19515132Y-10907519D02*
X19375132Y-11047519D01*
X19445132Y-10907519D02*
X19445132Y-11047519D01*
X19375132Y-10977519D02*
X19515132Y-10977519D01*
D11*
X19867513Y-11070043D02*
X19753227Y-11070043D01*
X19810370Y-11070043D02*
X19810370Y-10870043D01*
X19810370Y-10870043D02*
X19791322Y-10898614D01*
X19791322Y-10898614D02*
X19772275Y-10917662D01*
X19772275Y-10917662D02*
X19753227Y-10927185D01*
X19953227Y-11050995D02*
X19962751Y-11060519D01*
X19962751Y-11060519D02*
X19953227Y-11070043D01*
X19953227Y-11070043D02*
X19943703Y-11060519D01*
X19943703Y-11060519D02*
X19953227Y-11050995D01*
X19953227Y-11050995D02*
X19953227Y-11070043D01*
X20134179Y-10936709D02*
X20134179Y-11070043D01*
X20086560Y-10860519D02*
X20038941Y-11003376D01*
X20038941Y-11003376D02*
X20162751Y-11003376D01*
X20277036Y-10870043D02*
X20296084Y-10870043D01*
X20296084Y-10870043D02*
X20315132Y-10879566D01*
X20315132Y-10879566D02*
X20324656Y-10889090D01*
X20324656Y-10889090D02*
X20334179Y-10908138D01*
X20334179Y-10908138D02*
X20343703Y-10946233D01*
X20343703Y-10946233D02*
X20343703Y-10993852D01*
X20343703Y-10993852D02*
X20334179Y-11031947D01*
X20334179Y-11031947D02*
X20324656Y-11050995D01*
X20324656Y-11050995D02*
X20315132Y-11060519D01*
X20315132Y-11060519D02*
X20296084Y-11070043D01*
X20296084Y-11070043D02*
X20277036Y-11070043D01*
X20277036Y-11070043D02*
X20257989Y-11060519D01*
X20257989Y-11060519D02*
X20248465Y-11050995D01*
X20248465Y-11050995D02*
X20238941Y-11031947D01*
X20238941Y-11031947D02*
X20229417Y-10993852D01*
X20229417Y-10993852D02*
X20229417Y-10946233D01*
X20229417Y-10946233D02*
X20238941Y-10908138D01*
X20238941Y-10908138D02*
X20248465Y-10889090D01*
X20248465Y-10889090D02*
X20257989Y-10879566D01*
X20257989Y-10879566D02*
X20277036Y-10870043D01*
X20467513Y-10870043D02*
X20486560Y-10870043D01*
X20486560Y-10870043D02*
X20505608Y-10879566D01*
X20505608Y-10879566D02*
X20515132Y-10889090D01*
X20515132Y-10889090D02*
X20524656Y-10908138D01*
X20524656Y-10908138D02*
X20534179Y-10946233D01*
X20534179Y-10946233D02*
X20534179Y-10993852D01*
X20534179Y-10993852D02*
X20524656Y-11031947D01*
X20524656Y-11031947D02*
X20515132Y-11050995D01*
X20515132Y-11050995D02*
X20505608Y-11060519D01*
X20505608Y-11060519D02*
X20486560Y-11070043D01*
X20486560Y-11070043D02*
X20467513Y-11070043D01*
X20467513Y-11070043D02*
X20448465Y-11060519D01*
X20448465Y-11060519D02*
X20438941Y-11050995D01*
X20438941Y-11050995D02*
X20429417Y-11031947D01*
X20429417Y-11031947D02*
X20419894Y-10993852D01*
X20419894Y-10993852D02*
X20419894Y-10946233D01*
X20419894Y-10946233D02*
X20429417Y-10908138D01*
X20429417Y-10908138D02*
X20438941Y-10889090D01*
X20438941Y-10889090D02*
X20448465Y-10879566D01*
X20448465Y-10879566D02*
X20467513Y-10870043D01*
X20619894Y-11070043D02*
X20619894Y-10936709D01*
X20619894Y-10955757D02*
X20629417Y-10946233D01*
X20629417Y-10946233D02*
X20648465Y-10936709D01*
X20648465Y-10936709D02*
X20677037Y-10936709D01*
X20677037Y-10936709D02*
X20696084Y-10946233D01*
X20696084Y-10946233D02*
X20705608Y-10965281D01*
X20705608Y-10965281D02*
X20705608Y-11070043D01*
X20705608Y-10965281D02*
X20715132Y-10946233D01*
X20715132Y-10946233D02*
X20734179Y-10936709D01*
X20734179Y-10936709D02*
X20762751Y-10936709D01*
X20762751Y-10936709D02*
X20781798Y-10946233D01*
X20781798Y-10946233D02*
X20791322Y-10965281D01*
X20791322Y-10965281D02*
X20791322Y-11070043D01*
X20886560Y-11070043D02*
X20886560Y-10936709D01*
X20886560Y-10955757D02*
X20896084Y-10946233D01*
X20896084Y-10946233D02*
X20915132Y-10936709D01*
X20915132Y-10936709D02*
X20943703Y-10936709D01*
X20943703Y-10936709D02*
X20962751Y-10946233D01*
X20962751Y-10946233D02*
X20972275Y-10965281D01*
X20972275Y-10965281D02*
X20972275Y-11070043D01*
X20972275Y-10965281D02*
X20981798Y-10946233D01*
X20981798Y-10946233D02*
X21000846Y-10936709D01*
X21000846Y-10936709D02*
X21029417Y-10936709D01*
X21029417Y-10936709D02*
X21048465Y-10946233D01*
X21048465Y-10946233D02*
X21057989Y-10965281D01*
X21057989Y-10965281D02*
X21057989Y-11070043D01*
X21448465Y-10860519D02*
X21277037Y-11117662D01*
X21705608Y-10870043D02*
X21724656Y-10870043D01*
X21724656Y-10870043D02*
X21743703Y-10879566D01*
X21743703Y-10879566D02*
X21753227Y-10889090D01*
X21753227Y-10889090D02*
X21762751Y-10908138D01*
X21762751Y-10908138D02*
X21772275Y-10946233D01*
X21772275Y-10946233D02*
X21772275Y-10993852D01*
X21772275Y-10993852D02*
X21762751Y-11031947D01*
X21762751Y-11031947D02*
X21753227Y-11050995D01*
X21753227Y-11050995D02*
X21743703Y-11060519D01*
X21743703Y-11060519D02*
X21724656Y-11070043D01*
X21724656Y-11070043D02*
X21705608Y-11070043D01*
X21705608Y-11070043D02*
X21686560Y-11060519D01*
X21686560Y-11060519D02*
X21677037Y-11050995D01*
X21677037Y-11050995D02*
X21667513Y-11031947D01*
X21667513Y-11031947D02*
X21657989Y-10993852D01*
X21657989Y-10993852D02*
X21657989Y-10946233D01*
X21657989Y-10946233D02*
X21667513Y-10908138D01*
X21667513Y-10908138D02*
X21677037Y-10889090D01*
X21677037Y-10889090D02*
X21686560Y-10879566D01*
X21686560Y-10879566D02*
X21705608Y-10870043D01*
X21857989Y-11050995D02*
X21867513Y-11060519D01*
X21867513Y-11060519D02*
X21857989Y-11070043D01*
X21857989Y-11070043D02*
X21848465Y-11060519D01*
X21848465Y-11060519D02*
X21857989Y-11050995D01*
X21857989Y-11050995D02*
X21857989Y-11070043D01*
X21991322Y-10870043D02*
X22010370Y-10870043D01*
X22010370Y-10870043D02*
X22029418Y-10879566D01*
X22029418Y-10879566D02*
X22038941Y-10889090D01*
X22038941Y-10889090D02*
X22048465Y-10908138D01*
X22048465Y-10908138D02*
X22057989Y-10946233D01*
X22057989Y-10946233D02*
X22057989Y-10993852D01*
X22057989Y-10993852D02*
X22048465Y-11031947D01*
X22048465Y-11031947D02*
X22038941Y-11050995D01*
X22038941Y-11050995D02*
X22029418Y-11060519D01*
X22029418Y-11060519D02*
X22010370Y-11070043D01*
X22010370Y-11070043D02*
X21991322Y-11070043D01*
X21991322Y-11070043D02*
X21972275Y-11060519D01*
X21972275Y-11060519D02*
X21962751Y-11050995D01*
X21962751Y-11050995D02*
X21953227Y-11031947D01*
X21953227Y-11031947D02*
X21943703Y-10993852D01*
X21943703Y-10993852D02*
X21943703Y-10946233D01*
X21943703Y-10946233D02*
X21953227Y-10908138D01*
X21953227Y-10908138D02*
X21962751Y-10889090D01*
X21962751Y-10889090D02*
X21972275Y-10879566D01*
X21972275Y-10879566D02*
X21991322Y-10870043D01*
X22238941Y-10870043D02*
X22143703Y-10870043D01*
X22143703Y-10870043D02*
X22134180Y-10965281D01*
X22134180Y-10965281D02*
X22143703Y-10955757D01*
X22143703Y-10955757D02*
X22162751Y-10946233D01*
X22162751Y-10946233D02*
X22210370Y-10946233D01*
X22210370Y-10946233D02*
X22229418Y-10955757D01*
X22229418Y-10955757D02*
X22238941Y-10965281D01*
X22238941Y-10965281D02*
X22248465Y-10984328D01*
X22248465Y-10984328D02*
X22248465Y-11031947D01*
X22248465Y-11031947D02*
X22238941Y-11050995D01*
X22238941Y-11050995D02*
X22229418Y-11060519D01*
X22229418Y-11060519D02*
X22210370Y-11070043D01*
X22210370Y-11070043D02*
X22162751Y-11070043D01*
X22162751Y-11070043D02*
X22143703Y-11060519D01*
X22143703Y-11060519D02*
X22134180Y-11050995D01*
X22429418Y-10870043D02*
X22334180Y-10870043D01*
X22334180Y-10870043D02*
X22324656Y-10965281D01*
X22324656Y-10965281D02*
X22334180Y-10955757D01*
X22334180Y-10955757D02*
X22353227Y-10946233D01*
X22353227Y-10946233D02*
X22400846Y-10946233D01*
X22400846Y-10946233D02*
X22419894Y-10955757D01*
X22419894Y-10955757D02*
X22429418Y-10965281D01*
X22429418Y-10965281D02*
X22438941Y-10984328D01*
X22438941Y-10984328D02*
X22438941Y-11031947D01*
X22438941Y-11031947D02*
X22429418Y-11050995D01*
X22429418Y-11050995D02*
X22419894Y-11060519D01*
X22419894Y-11060519D02*
X22400846Y-11070043D01*
X22400846Y-11070043D02*
X22353227Y-11070043D01*
X22353227Y-11070043D02*
X22334180Y-11060519D01*
X22334180Y-11060519D02*
X22324656Y-11050995D01*
X22629418Y-11070043D02*
X22515132Y-11070043D01*
X22572275Y-11070043D02*
X22572275Y-10870043D01*
X22572275Y-10870043D02*
X22553227Y-10898614D01*
X22553227Y-10898614D02*
X22534179Y-10917662D01*
X22534179Y-10917662D02*
X22515132Y-10927185D01*
X22705608Y-10870043D02*
X22705608Y-10908138D01*
X22781799Y-10870043D02*
X22781799Y-10908138D01*
X23077037Y-11146233D02*
X23067513Y-11136709D01*
X23067513Y-11136709D02*
X23048465Y-11108138D01*
X23048465Y-11108138D02*
X23038941Y-11089090D01*
X23038941Y-11089090D02*
X23029418Y-11060519D01*
X23029418Y-11060519D02*
X23019894Y-11012900D01*
X23019894Y-11012900D02*
X23019894Y-10974804D01*
X23019894Y-10974804D02*
X23029418Y-10927185D01*
X23029418Y-10927185D02*
X23038941Y-10898614D01*
X23038941Y-10898614D02*
X23048465Y-10879566D01*
X23048465Y-10879566D02*
X23067513Y-10850995D01*
X23067513Y-10850995D02*
X23077037Y-10841471D01*
X23257989Y-11070043D02*
X23143703Y-11070043D01*
X23200846Y-11070043D02*
X23200846Y-10870043D01*
X23200846Y-10870043D02*
X23181799Y-10898614D01*
X23181799Y-10898614D02*
X23162751Y-10917662D01*
X23162751Y-10917662D02*
X23143703Y-10927185D01*
X23334180Y-10889090D02*
X23343703Y-10879566D01*
X23343703Y-10879566D02*
X23362751Y-10870043D01*
X23362751Y-10870043D02*
X23410370Y-10870043D01*
X23410370Y-10870043D02*
X23429418Y-10879566D01*
X23429418Y-10879566D02*
X23438941Y-10889090D01*
X23438941Y-10889090D02*
X23448465Y-10908138D01*
X23448465Y-10908138D02*
X23448465Y-10927185D01*
X23448465Y-10927185D02*
X23438941Y-10955757D01*
X23438941Y-10955757D02*
X23324656Y-11070043D01*
X23324656Y-11070043D02*
X23448465Y-11070043D01*
X23686561Y-11070043D02*
X23686561Y-10870043D01*
X23772275Y-11070043D02*
X23772275Y-10965281D01*
X23772275Y-10965281D02*
X23762751Y-10946233D01*
X23762751Y-10946233D02*
X23743703Y-10936709D01*
X23743703Y-10936709D02*
X23715132Y-10936709D01*
X23715132Y-10936709D02*
X23696084Y-10946233D01*
X23696084Y-10946233D02*
X23686561Y-10955757D01*
X23896084Y-11070043D02*
X23877037Y-11060519D01*
X23877037Y-11060519D02*
X23867513Y-11050995D01*
X23867513Y-11050995D02*
X23857989Y-11031947D01*
X23857989Y-11031947D02*
X23857989Y-10974804D01*
X23857989Y-10974804D02*
X23867513Y-10955757D01*
X23867513Y-10955757D02*
X23877037Y-10946233D01*
X23877037Y-10946233D02*
X23896084Y-10936709D01*
X23896084Y-10936709D02*
X23924656Y-10936709D01*
X23924656Y-10936709D02*
X23943703Y-10946233D01*
X23943703Y-10946233D02*
X23953227Y-10955757D01*
X23953227Y-10955757D02*
X23962751Y-10974804D01*
X23962751Y-10974804D02*
X23962751Y-11031947D01*
X23962751Y-11031947D02*
X23953227Y-11050995D01*
X23953227Y-11050995D02*
X23943703Y-11060519D01*
X23943703Y-11060519D02*
X23924656Y-11070043D01*
X23924656Y-11070043D02*
X23896084Y-11070043D01*
X24077037Y-11070043D02*
X24057989Y-11060519D01*
X24057989Y-11060519D02*
X24048465Y-11041471D01*
X24048465Y-11041471D02*
X24048465Y-10870043D01*
X24229418Y-11060519D02*
X24210370Y-11070043D01*
X24210370Y-11070043D02*
X24172275Y-11070043D01*
X24172275Y-11070043D02*
X24153227Y-11060519D01*
X24153227Y-11060519D02*
X24143703Y-11041471D01*
X24143703Y-11041471D02*
X24143703Y-10965281D01*
X24143703Y-10965281D02*
X24153227Y-10946233D01*
X24153227Y-10946233D02*
X24172275Y-10936709D01*
X24172275Y-10936709D02*
X24210370Y-10936709D01*
X24210370Y-10936709D02*
X24229418Y-10946233D01*
X24229418Y-10946233D02*
X24238942Y-10965281D01*
X24238942Y-10965281D02*
X24238942Y-10984328D01*
X24238942Y-10984328D02*
X24143703Y-11003376D01*
X24315132Y-11060519D02*
X24334180Y-11070043D01*
X24334180Y-11070043D02*
X24372275Y-11070043D01*
X24372275Y-11070043D02*
X24391323Y-11060519D01*
X24391323Y-11060519D02*
X24400846Y-11041471D01*
X24400846Y-11041471D02*
X24400846Y-11031947D01*
X24400846Y-11031947D02*
X24391323Y-11012900D01*
X24391323Y-11012900D02*
X24372275Y-11003376D01*
X24372275Y-11003376D02*
X24343703Y-11003376D01*
X24343703Y-11003376D02*
X24324656Y-10993852D01*
X24324656Y-10993852D02*
X24315132Y-10974804D01*
X24315132Y-10974804D02*
X24315132Y-10965281D01*
X24315132Y-10965281D02*
X24324656Y-10946233D01*
X24324656Y-10946233D02*
X24343703Y-10936709D01*
X24343703Y-10936709D02*
X24372275Y-10936709D01*
X24372275Y-10936709D02*
X24391323Y-10946233D01*
X24467513Y-11146233D02*
X24477037Y-11136709D01*
X24477037Y-11136709D02*
X24496084Y-11108138D01*
X24496084Y-11108138D02*
X24505608Y-11089090D01*
X24505608Y-11089090D02*
X24515132Y-11060519D01*
X24515132Y-11060519D02*
X24524656Y-11012900D01*
X24524656Y-11012900D02*
X24524656Y-10974804D01*
X24524656Y-10974804D02*
X24515132Y-10927185D01*
X24515132Y-10927185D02*
X24505608Y-10898614D01*
X24505608Y-10898614D02*
X24496084Y-10879566D01*
X24496084Y-10879566D02*
X24477037Y-10850995D01*
X24477037Y-10850995D02*
X24467513Y-10841471D01*
D18*
X19355132Y-11161519D02*
X19515132Y-11321519D01*
X19515132Y-11161519D02*
X19355132Y-11321519D01*
X19491701Y-11298088D02*
X19491701Y-11184950D01*
X19378563Y-11184950D01*
X19378563Y-11298088D01*
X19491701Y-11298088D01*
D11*
X19867513Y-11334042D02*
X19753227Y-11334042D01*
X19810370Y-11334042D02*
X19810370Y-11134043D01*
X19810370Y-11134043D02*
X19791322Y-11162614D01*
X19791322Y-11162614D02*
X19772275Y-11181662D01*
X19772275Y-11181662D02*
X19753227Y-11191185D01*
X19953227Y-11314995D02*
X19962751Y-11324519D01*
X19962751Y-11324519D02*
X19953227Y-11334042D01*
X19953227Y-11334042D02*
X19943703Y-11324519D01*
X19943703Y-11324519D02*
X19953227Y-11314995D01*
X19953227Y-11314995D02*
X19953227Y-11334042D01*
X20134179Y-11134043D02*
X20096084Y-11134043D01*
X20096084Y-11134043D02*
X20077036Y-11143566D01*
X20077036Y-11143566D02*
X20067513Y-11153090D01*
X20067513Y-11153090D02*
X20048465Y-11181662D01*
X20048465Y-11181662D02*
X20038941Y-11219757D01*
X20038941Y-11219757D02*
X20038941Y-11295947D01*
X20038941Y-11295947D02*
X20048465Y-11314995D01*
X20048465Y-11314995D02*
X20057989Y-11324519D01*
X20057989Y-11324519D02*
X20077036Y-11334042D01*
X20077036Y-11334042D02*
X20115132Y-11334042D01*
X20115132Y-11334042D02*
X20134179Y-11324519D01*
X20134179Y-11324519D02*
X20143703Y-11314995D01*
X20143703Y-11314995D02*
X20153227Y-11295947D01*
X20153227Y-11295947D02*
X20153227Y-11248328D01*
X20153227Y-11248328D02*
X20143703Y-11229281D01*
X20143703Y-11229281D02*
X20134179Y-11219757D01*
X20134179Y-11219757D02*
X20115132Y-11210233D01*
X20115132Y-11210233D02*
X20077036Y-11210233D01*
X20077036Y-11210233D02*
X20057989Y-11219757D01*
X20057989Y-11219757D02*
X20048465Y-11229281D01*
X20048465Y-11229281D02*
X20038941Y-11248328D01*
X20277036Y-11134043D02*
X20296084Y-11134043D01*
X20296084Y-11134043D02*
X20315132Y-11143566D01*
X20315132Y-11143566D02*
X20324656Y-11153090D01*
X20324656Y-11153090D02*
X20334179Y-11172138D01*
X20334179Y-11172138D02*
X20343703Y-11210233D01*
X20343703Y-11210233D02*
X20343703Y-11257852D01*
X20343703Y-11257852D02*
X20334179Y-11295947D01*
X20334179Y-11295947D02*
X20324656Y-11314995D01*
X20324656Y-11314995D02*
X20315132Y-11324519D01*
X20315132Y-11324519D02*
X20296084Y-11334042D01*
X20296084Y-11334042D02*
X20277036Y-11334042D01*
X20277036Y-11334042D02*
X20257989Y-11324519D01*
X20257989Y-11324519D02*
X20248465Y-11314995D01*
X20248465Y-11314995D02*
X20238941Y-11295947D01*
X20238941Y-11295947D02*
X20229417Y-11257852D01*
X20229417Y-11257852D02*
X20229417Y-11210233D01*
X20229417Y-11210233D02*
X20238941Y-11172138D01*
X20238941Y-11172138D02*
X20248465Y-11153090D01*
X20248465Y-11153090D02*
X20257989Y-11143566D01*
X20257989Y-11143566D02*
X20277036Y-11134043D01*
X20467513Y-11134043D02*
X20486560Y-11134043D01*
X20486560Y-11134043D02*
X20505608Y-11143566D01*
X20505608Y-11143566D02*
X20515132Y-11153090D01*
X20515132Y-11153090D02*
X20524656Y-11172138D01*
X20524656Y-11172138D02*
X20534179Y-11210233D01*
X20534179Y-11210233D02*
X20534179Y-11257852D01*
X20534179Y-11257852D02*
X20524656Y-11295947D01*
X20524656Y-11295947D02*
X20515132Y-11314995D01*
X20515132Y-11314995D02*
X20505608Y-11324519D01*
X20505608Y-11324519D02*
X20486560Y-11334042D01*
X20486560Y-11334042D02*
X20467513Y-11334042D01*
X20467513Y-11334042D02*
X20448465Y-11324519D01*
X20448465Y-11324519D02*
X20438941Y-11314995D01*
X20438941Y-11314995D02*
X20429417Y-11295947D01*
X20429417Y-11295947D02*
X20419894Y-11257852D01*
X20419894Y-11257852D02*
X20419894Y-11210233D01*
X20419894Y-11210233D02*
X20429417Y-11172138D01*
X20429417Y-11172138D02*
X20438941Y-11153090D01*
X20438941Y-11153090D02*
X20448465Y-11143566D01*
X20448465Y-11143566D02*
X20467513Y-11134043D01*
X20619894Y-11334042D02*
X20619894Y-11200709D01*
X20619894Y-11219757D02*
X20629417Y-11210233D01*
X20629417Y-11210233D02*
X20648465Y-11200709D01*
X20648465Y-11200709D02*
X20677037Y-11200709D01*
X20677037Y-11200709D02*
X20696084Y-11210233D01*
X20696084Y-11210233D02*
X20705608Y-11229281D01*
X20705608Y-11229281D02*
X20705608Y-11334042D01*
X20705608Y-11229281D02*
X20715132Y-11210233D01*
X20715132Y-11210233D02*
X20734179Y-11200709D01*
X20734179Y-11200709D02*
X20762751Y-11200709D01*
X20762751Y-11200709D02*
X20781798Y-11210233D01*
X20781798Y-11210233D02*
X20791322Y-11229281D01*
X20791322Y-11229281D02*
X20791322Y-11334042D01*
X20886560Y-11334042D02*
X20886560Y-11200709D01*
X20886560Y-11219757D02*
X20896084Y-11210233D01*
X20896084Y-11210233D02*
X20915132Y-11200709D01*
X20915132Y-11200709D02*
X20943703Y-11200709D01*
X20943703Y-11200709D02*
X20962751Y-11210233D01*
X20962751Y-11210233D02*
X20972275Y-11229281D01*
X20972275Y-11229281D02*
X20972275Y-11334042D01*
X20972275Y-11229281D02*
X20981798Y-11210233D01*
X20981798Y-11210233D02*
X21000846Y-11200709D01*
X21000846Y-11200709D02*
X21029417Y-11200709D01*
X21029417Y-11200709D02*
X21048465Y-11210233D01*
X21048465Y-11210233D02*
X21057989Y-11229281D01*
X21057989Y-11229281D02*
X21057989Y-11334042D01*
X21448465Y-11124519D02*
X21277037Y-11381661D01*
X21705608Y-11134043D02*
X21724656Y-11134043D01*
X21724656Y-11134043D02*
X21743703Y-11143566D01*
X21743703Y-11143566D02*
X21753227Y-11153090D01*
X21753227Y-11153090D02*
X21762751Y-11172138D01*
X21762751Y-11172138D02*
X21772275Y-11210233D01*
X21772275Y-11210233D02*
X21772275Y-11257852D01*
X21772275Y-11257852D02*
X21762751Y-11295947D01*
X21762751Y-11295947D02*
X21753227Y-11314995D01*
X21753227Y-11314995D02*
X21743703Y-11324519D01*
X21743703Y-11324519D02*
X21724656Y-11334042D01*
X21724656Y-11334042D02*
X21705608Y-11334042D01*
X21705608Y-11334042D02*
X21686560Y-11324519D01*
X21686560Y-11324519D02*
X21677037Y-11314995D01*
X21677037Y-11314995D02*
X21667513Y-11295947D01*
X21667513Y-11295947D02*
X21657989Y-11257852D01*
X21657989Y-11257852D02*
X21657989Y-11210233D01*
X21657989Y-11210233D02*
X21667513Y-11172138D01*
X21667513Y-11172138D02*
X21677037Y-11153090D01*
X21677037Y-11153090D02*
X21686560Y-11143566D01*
X21686560Y-11143566D02*
X21705608Y-11134043D01*
X21857989Y-11314995D02*
X21867513Y-11324519D01*
X21867513Y-11324519D02*
X21857989Y-11334042D01*
X21857989Y-11334042D02*
X21848465Y-11324519D01*
X21848465Y-11324519D02*
X21857989Y-11314995D01*
X21857989Y-11314995D02*
X21857989Y-11334042D01*
X21991322Y-11134043D02*
X22010370Y-11134043D01*
X22010370Y-11134043D02*
X22029418Y-11143566D01*
X22029418Y-11143566D02*
X22038941Y-11153090D01*
X22038941Y-11153090D02*
X22048465Y-11172138D01*
X22048465Y-11172138D02*
X22057989Y-11210233D01*
X22057989Y-11210233D02*
X22057989Y-11257852D01*
X22057989Y-11257852D02*
X22048465Y-11295947D01*
X22048465Y-11295947D02*
X22038941Y-11314995D01*
X22038941Y-11314995D02*
X22029418Y-11324519D01*
X22029418Y-11324519D02*
X22010370Y-11334042D01*
X22010370Y-11334042D02*
X21991322Y-11334042D01*
X21991322Y-11334042D02*
X21972275Y-11324519D01*
X21972275Y-11324519D02*
X21962751Y-11314995D01*
X21962751Y-11314995D02*
X21953227Y-11295947D01*
X21953227Y-11295947D02*
X21943703Y-11257852D01*
X21943703Y-11257852D02*
X21943703Y-11210233D01*
X21943703Y-11210233D02*
X21953227Y-11172138D01*
X21953227Y-11172138D02*
X21962751Y-11153090D01*
X21962751Y-11153090D02*
X21972275Y-11143566D01*
X21972275Y-11143566D02*
X21991322Y-11134043D01*
X22229418Y-11134043D02*
X22191322Y-11134043D01*
X22191322Y-11134043D02*
X22172275Y-11143566D01*
X22172275Y-11143566D02*
X22162751Y-11153090D01*
X22162751Y-11153090D02*
X22143703Y-11181662D01*
X22143703Y-11181662D02*
X22134180Y-11219757D01*
X22134180Y-11219757D02*
X22134180Y-11295947D01*
X22134180Y-11295947D02*
X22143703Y-11314995D01*
X22143703Y-11314995D02*
X22153227Y-11324519D01*
X22153227Y-11324519D02*
X22172275Y-11334042D01*
X22172275Y-11334042D02*
X22210370Y-11334042D01*
X22210370Y-11334042D02*
X22229418Y-11324519D01*
X22229418Y-11324519D02*
X22238941Y-11314995D01*
X22238941Y-11314995D02*
X22248465Y-11295947D01*
X22248465Y-11295947D02*
X22248465Y-11248328D01*
X22248465Y-11248328D02*
X22238941Y-11229281D01*
X22238941Y-11229281D02*
X22229418Y-11219757D01*
X22229418Y-11219757D02*
X22210370Y-11210233D01*
X22210370Y-11210233D02*
X22172275Y-11210233D01*
X22172275Y-11210233D02*
X22153227Y-11219757D01*
X22153227Y-11219757D02*
X22143703Y-11229281D01*
X22143703Y-11229281D02*
X22134180Y-11248328D01*
X22315132Y-11134043D02*
X22438941Y-11134043D01*
X22438941Y-11134043D02*
X22372275Y-11210233D01*
X22372275Y-11210233D02*
X22400846Y-11210233D01*
X22400846Y-11210233D02*
X22419894Y-11219757D01*
X22419894Y-11219757D02*
X22429418Y-11229281D01*
X22429418Y-11229281D02*
X22438941Y-11248328D01*
X22438941Y-11248328D02*
X22438941Y-11295947D01*
X22438941Y-11295947D02*
X22429418Y-11314995D01*
X22429418Y-11314995D02*
X22419894Y-11324519D01*
X22419894Y-11324519D02*
X22400846Y-11334042D01*
X22400846Y-11334042D02*
X22343703Y-11334042D01*
X22343703Y-11334042D02*
X22324656Y-11324519D01*
X22324656Y-11324519D02*
X22315132Y-11314995D01*
X22562751Y-11134043D02*
X22581799Y-11134043D01*
X22581799Y-11134043D02*
X22600846Y-11143566D01*
X22600846Y-11143566D02*
X22610370Y-11153090D01*
X22610370Y-11153090D02*
X22619894Y-11172138D01*
X22619894Y-11172138D02*
X22629418Y-11210233D01*
X22629418Y-11210233D02*
X22629418Y-11257852D01*
X22629418Y-11257852D02*
X22619894Y-11295947D01*
X22619894Y-11295947D02*
X22610370Y-11314995D01*
X22610370Y-11314995D02*
X22600846Y-11324519D01*
X22600846Y-11324519D02*
X22581799Y-11334042D01*
X22581799Y-11334042D02*
X22562751Y-11334042D01*
X22562751Y-11334042D02*
X22543703Y-11324519D01*
X22543703Y-11324519D02*
X22534179Y-11314995D01*
X22534179Y-11314995D02*
X22524656Y-11295947D01*
X22524656Y-11295947D02*
X22515132Y-11257852D01*
X22515132Y-11257852D02*
X22515132Y-11210233D01*
X22515132Y-11210233D02*
X22524656Y-11172138D01*
X22524656Y-11172138D02*
X22534179Y-11153090D01*
X22534179Y-11153090D02*
X22543703Y-11143566D01*
X22543703Y-11143566D02*
X22562751Y-11134043D01*
X22705608Y-11134043D02*
X22705608Y-11172138D01*
X22781799Y-11134043D02*
X22781799Y-11172138D01*
X23077037Y-11410233D02*
X23067513Y-11400709D01*
X23067513Y-11400709D02*
X23048465Y-11372138D01*
X23048465Y-11372138D02*
X23038941Y-11353090D01*
X23038941Y-11353090D02*
X23029418Y-11324519D01*
X23029418Y-11324519D02*
X23019894Y-11276900D01*
X23019894Y-11276900D02*
X23019894Y-11238804D01*
X23019894Y-11238804D02*
X23029418Y-11191185D01*
X23029418Y-11191185D02*
X23038941Y-11162614D01*
X23038941Y-11162614D02*
X23048465Y-11143566D01*
X23048465Y-11143566D02*
X23067513Y-11114995D01*
X23067513Y-11114995D02*
X23077037Y-11105471D01*
X23143703Y-11153090D02*
X23153227Y-11143566D01*
X23153227Y-11143566D02*
X23172275Y-11134043D01*
X23172275Y-11134043D02*
X23219894Y-11134043D01*
X23219894Y-11134043D02*
X23238941Y-11143566D01*
X23238941Y-11143566D02*
X23248465Y-11153090D01*
X23248465Y-11153090D02*
X23257989Y-11172138D01*
X23257989Y-11172138D02*
X23257989Y-11191185D01*
X23257989Y-11191185D02*
X23248465Y-11219757D01*
X23248465Y-11219757D02*
X23134180Y-11334042D01*
X23134180Y-11334042D02*
X23257989Y-11334042D01*
X23496084Y-11334042D02*
X23496084Y-11134043D01*
X23581799Y-11334042D02*
X23581799Y-11229281D01*
X23581799Y-11229281D02*
X23572275Y-11210233D01*
X23572275Y-11210233D02*
X23553227Y-11200709D01*
X23553227Y-11200709D02*
X23524656Y-11200709D01*
X23524656Y-11200709D02*
X23505608Y-11210233D01*
X23505608Y-11210233D02*
X23496084Y-11219757D01*
X23705608Y-11334042D02*
X23686561Y-11324519D01*
X23686561Y-11324519D02*
X23677037Y-11314995D01*
X23677037Y-11314995D02*
X23667513Y-11295947D01*
X23667513Y-11295947D02*
X23667513Y-11238804D01*
X23667513Y-11238804D02*
X23677037Y-11219757D01*
X23677037Y-11219757D02*
X23686561Y-11210233D01*
X23686561Y-11210233D02*
X23705608Y-11200709D01*
X23705608Y-11200709D02*
X23734180Y-11200709D01*
X23734180Y-11200709D02*
X23753227Y-11210233D01*
X23753227Y-11210233D02*
X23762751Y-11219757D01*
X23762751Y-11219757D02*
X23772275Y-11238804D01*
X23772275Y-11238804D02*
X23772275Y-11295947D01*
X23772275Y-11295947D02*
X23762751Y-11314995D01*
X23762751Y-11314995D02*
X23753227Y-11324519D01*
X23753227Y-11324519D02*
X23734180Y-11334042D01*
X23734180Y-11334042D02*
X23705608Y-11334042D01*
X23886561Y-11334042D02*
X23867513Y-11324519D01*
X23867513Y-11324519D02*
X23857989Y-11305471D01*
X23857989Y-11305471D02*
X23857989Y-11134043D01*
X24038942Y-11324519D02*
X24019894Y-11334042D01*
X24019894Y-11334042D02*
X23981799Y-11334042D01*
X23981799Y-11334042D02*
X23962751Y-11324519D01*
X23962751Y-11324519D02*
X23953227Y-11305471D01*
X23953227Y-11305471D02*
X23953227Y-11229281D01*
X23953227Y-11229281D02*
X23962751Y-11210233D01*
X23962751Y-11210233D02*
X23981799Y-11200709D01*
X23981799Y-11200709D02*
X24019894Y-11200709D01*
X24019894Y-11200709D02*
X24038942Y-11210233D01*
X24038942Y-11210233D02*
X24048465Y-11229281D01*
X24048465Y-11229281D02*
X24048465Y-11248328D01*
X24048465Y-11248328D02*
X23953227Y-11267376D01*
X24124656Y-11324519D02*
X24143703Y-11334042D01*
X24143703Y-11334042D02*
X24181799Y-11334042D01*
X24181799Y-11334042D02*
X24200846Y-11324519D01*
X24200846Y-11324519D02*
X24210370Y-11305471D01*
X24210370Y-11305471D02*
X24210370Y-11295947D01*
X24210370Y-11295947D02*
X24200846Y-11276900D01*
X24200846Y-11276900D02*
X24181799Y-11267376D01*
X24181799Y-11267376D02*
X24153227Y-11267376D01*
X24153227Y-11267376D02*
X24134180Y-11257852D01*
X24134180Y-11257852D02*
X24124656Y-11238804D01*
X24124656Y-11238804D02*
X24124656Y-11229281D01*
X24124656Y-11229281D02*
X24134180Y-11210233D01*
X24134180Y-11210233D02*
X24153227Y-11200709D01*
X24153227Y-11200709D02*
X24181799Y-11200709D01*
X24181799Y-11200709D02*
X24200846Y-11210233D01*
X24277037Y-11410233D02*
X24286561Y-11400709D01*
X24286561Y-11400709D02*
X24305608Y-11372138D01*
X24305608Y-11372138D02*
X24315132Y-11353090D01*
X24315132Y-11353090D02*
X24324656Y-11324519D01*
X24324656Y-11324519D02*
X24334180Y-11276900D01*
X24334180Y-11276900D02*
X24334180Y-11238804D01*
X24334180Y-11238804D02*
X24324656Y-11191185D01*
X24324656Y-11191185D02*
X24315132Y-11162614D01*
X24315132Y-11162614D02*
X24305608Y-11143566D01*
X24305608Y-11143566D02*
X24286561Y-11114995D01*
X24286561Y-11114995D02*
X24277037Y-11105471D01*
M02*
