M48
; DRILL file {KiCad 7.0.2-0} date 2023 May 07, Sunday 22:08:22
; FORMAT={-:-/ absolute / metric / decimal}
; #@! TF.CreationDate,2023-05-07T22:08:22-05:00
; #@! TF.GenerationSoftware,Kicad,Pcbnew,7.0.2-0
; #@! TF.FileFunction,Plated,1,4,PTH
FMAT,2
METRIC
; #@! TA.AperFunction,Plated,PTH,ViaDrill
T1C0.400
; #@! TA.AperFunction,Plated,PTH,ComponentDrill
T2C0.600
; #@! TA.AperFunction,Plated,PTH,ViaDrill
T3C0.800
; #@! TA.AperFunction,Plated,PTH,ComponentDrill
T4C0.800
; #@! TA.AperFunction,Plated,PTH,ComponentDrill
T5C1.000
; #@! TA.AperFunction,Plated,PTH,ViaDrill
T6C1.200
; #@! TA.AperFunction,Plated,PTH,ComponentDrill
T7C1.400
; #@! TA.AperFunction,Plated,PTH,ViaDrill
T8C1.600
%
G90
G05
T1
X204.79Y-72.18
X205.41Y-61.5
X205.44Y-60.14
X205.46Y-64.35
X206.897Y-50.457
X208.89Y-76.29
X209.36Y-81.35
X209.46Y-65.69
X209.52Y-53.568
X210.57Y-53.72
X210.7Y-71.06
X213.6Y-52.98
X216.25Y-81.3
X219.53Y-68.94
X220.38Y-73.81
X220.62Y-61.484
X221.255Y-49.845
X221.47Y-62.45
X222.22Y-70.09
X223.23Y-64.74
X223.48Y-50.61
X223.76Y-60.08
X225.168Y-81.762
X225.206Y-64.406
X228.93Y-64.2
X230.01Y-62.73
X230.06Y-52.25
X230.28Y-64.51
X230.69Y-66.22
X231.14Y-59.99
X231.24Y-53.78
X231.47Y-73.69
X231.6Y-74.77
X233.225Y-64.955
X233.253Y-50.217
X233.6Y-67.61
X234.22Y-51.3
X235.17Y-71.146
X236.196Y-54.145
X236.74Y-73.12
X236.77Y-74.87
X237.31Y-55.64
X237.77Y-64.18
X237.78Y-79.02
X237.79Y-58.7
X238.06Y-75.0
X238.2Y-82.05
X238.25Y-65.66
X238.39Y-63.1
X238.44Y-59.83
X238.47Y-50.68
X238.706Y-53.364
X238.875Y-57.435
X238.98Y-63.95
X239.48Y-68.91
X239.53Y-65.61
X239.743Y-49.197
X239.889Y-58.896
X239.889Y-59.956
X240.35Y-70.36
X240.767Y-59.476
X241.075Y-65.515
X241.125Y-57.725
X242.0Y-54.175
X242.01Y-71.2
X242.15Y-62.18
X242.363Y-65.454
X242.68Y-72.82
X243.05Y-57.21
X243.56Y-53.65
X243.81Y-60.74
X244.455Y-71.385
X244.505Y-81.255
X244.62Y-60.1
X244.813Y-57.337
X245.193Y-58.803
X245.44Y-80.53
X245.575Y-49.401
X245.792Y-65.454
X246.025Y-63.15
X246.045Y-54.235
X246.34Y-49.401
X247.14Y-73.6
X247.361Y-66.998
X247.56Y-79.42
X248.146Y-69.71
X248.3Y-70.76
X248.63Y-77.53
X249.39Y-67.59
X249.48Y-52.43
X249.626Y-69.489
X249.77Y-63.43
X250.137Y-52.13
X250.476Y-68.554
X250.726Y-59.379
X250.84Y-56.64
X250.84Y-57.664
X250.97Y-63.63
X251.571Y-58.846
X251.83Y-75.06
X252.17Y-64.98
X253.0Y-65.77
X253.02Y-64.95
X253.06Y-59.11
X255.375Y-56.15
X255.47Y-57.68
X255.59Y-65.56
X256.525Y-57.0
X256.84Y-81.75
X257.17Y-62.65
X258.29Y-63.64
X258.33Y-72.06
X258.415Y-58.987
X259.337Y-60.395
X260.14Y-85.41
X260.147Y-60.395
X260.775Y-67.25
X261.09Y-78.97
X261.15Y-58.86
X261.475Y-68.85
X261.58Y-70.1
X261.605Y-79.755
X261.67Y-64.41
X261.845Y-78.215
X262.305Y-74.075
X263.03Y-70.46
T3
X207.68Y-60.41
X213.2Y-60.79
X218.045Y-61.005
X223.88Y-56.6
T5
X197.16Y-59.595
X197.16Y-62.135
X197.16Y-64.675
X197.16Y-67.215
X197.16Y-69.755
X197.16Y-72.295
X197.16Y-74.835
X197.16Y-77.375
X198.755Y-81.65
X198.755Y-84.19
X200.914Y-50.038
X200.914Y-52.578
X200.914Y-55.118
X200.914Y-57.658
X200.914Y-60.198
X200.914Y-64.008
X200.914Y-66.548
X200.914Y-69.088
X200.914Y-71.628
X200.914Y-74.168
X201.295Y-81.65
X201.295Y-84.19
X203.835Y-81.65
X203.835Y-84.19
X206.375Y-81.65
X206.375Y-84.19
X227.076Y-50.038
X227.076Y-52.578
X227.076Y-55.118
X227.076Y-57.658
X227.076Y-60.198
X227.076Y-64.008
X227.076Y-66.548
X227.076Y-69.088
X227.076Y-71.628
X227.076Y-74.168
T6
X210.32Y-62.19
X249.47Y-71.39
X252.42Y-71.59
T7
X212.13Y-83.04
X215.63Y-83.04
X219.13Y-83.04
X222.63Y-83.04
X226.13Y-83.04
X229.63Y-83.04
X233.13Y-83.04
X236.63Y-83.04
X240.13Y-83.04
X243.63Y-83.04
X247.13Y-83.04
X250.63Y-83.04
T8
X241.66Y-76.64
X241.66Y-78.76
T2
X259.53Y-63.55G85X260.63Y-63.55
G05
X259.53Y-72.19G85X260.63Y-72.19
G05
X263.96Y-63.55G85X264.56Y-63.55
G05
X263.96Y-72.19G85X264.56Y-72.19
G05
T4
X257.63Y-74.95G85X260.23Y-74.95
G05
X257.83Y-80.75G85X260.03Y-80.75
G05
X263.73Y-79.05G85X263.73Y-76.85
G05
T0
M30
