G04 #@! TF.GenerationSoftware,KiCad,Pcbnew,7.0.2-0*
G04 #@! TF.CreationDate,2023-05-07T22:08:19-05:00*
G04 #@! TF.ProjectId,spudglo_driver_v4p3,73707564-676c-46f5-9f64-72697665725f,rev?*
G04 #@! TF.SameCoordinates,Original*
G04 #@! TF.FileFunction,Copper,L2,Inr*
G04 #@! TF.FilePolarity,Positive*
%FSLAX46Y46*%
G04 Gerber Fmt 4.6, Leading zero omitted, Abs format (unit mm)*
G04 Created by KiCad (PCBNEW 7.0.2-0) date 2023-05-07 22:08:19*
%MOMM*%
%LPD*%
G01*
G04 APERTURE LIST*
%ADD10C,0.300000*%
G04 #@! TA.AperFunction,NonConductor*
%ADD11C,0.300000*%
G04 #@! TD*
G04 #@! TA.AperFunction,NonConductor*
%ADD12C,0.200000*%
G04 #@! TD*
G04 #@! TA.AperFunction,ComponentPad*
%ADD13R,1.700000X1.700000*%
G04 #@! TD*
G04 #@! TA.AperFunction,ComponentPad*
%ADD14O,1.700000X1.700000*%
G04 #@! TD*
G04 #@! TA.AperFunction,ComponentPad*
%ADD15C,2.000000*%
G04 #@! TD*
G04 #@! TA.AperFunction,ComponentPad*
%ADD16R,4.400000X1.800000*%
G04 #@! TD*
G04 #@! TA.AperFunction,ComponentPad*
%ADD17O,4.000000X1.800000*%
G04 #@! TD*
G04 #@! TA.AperFunction,ComponentPad*
%ADD18O,1.800000X4.000000*%
G04 #@! TD*
G04 #@! TA.AperFunction,ComponentPad*
%ADD19O,2.100000X1.000000*%
G04 #@! TD*
G04 #@! TA.AperFunction,ComponentPad*
%ADD20O,1.600000X1.000000*%
G04 #@! TD*
G04 #@! TA.AperFunction,ViaPad*
%ADD21C,0.800000*%
G04 #@! TD*
G04 #@! TA.AperFunction,ViaPad*
%ADD22C,2.000000*%
G04 #@! TD*
G04 #@! TA.AperFunction,ViaPad*
%ADD23C,1.600000*%
G04 #@! TD*
G04 APERTURE END LIST*
D10*
D11*
X280773928Y-73710194D02*
X281773928Y-73710194D01*
X280202500Y-74067336D02*
X281273928Y-74424479D01*
X281273928Y-74424479D02*
X281273928Y-73495908D01*
X280273928Y-72638765D02*
X280273928Y-72495908D01*
X280273928Y-72495908D02*
X280345357Y-72353051D01*
X280345357Y-72353051D02*
X280416785Y-72281623D01*
X280416785Y-72281623D02*
X280559642Y-72210194D01*
X280559642Y-72210194D02*
X280845357Y-72138765D01*
X280845357Y-72138765D02*
X281202500Y-72138765D01*
X281202500Y-72138765D02*
X281488214Y-72210194D01*
X281488214Y-72210194D02*
X281631071Y-72281623D01*
X281631071Y-72281623D02*
X281702500Y-72353051D01*
X281702500Y-72353051D02*
X281773928Y-72495908D01*
X281773928Y-72495908D02*
X281773928Y-72638765D01*
X281773928Y-72638765D02*
X281702500Y-72781623D01*
X281702500Y-72781623D02*
X281631071Y-72853051D01*
X281631071Y-72853051D02*
X281488214Y-72924480D01*
X281488214Y-72924480D02*
X281202500Y-72995908D01*
X281202500Y-72995908D02*
X280845357Y-72995908D01*
X280845357Y-72995908D02*
X280559642Y-72924480D01*
X280559642Y-72924480D02*
X280416785Y-72853051D01*
X280416785Y-72853051D02*
X280345357Y-72781623D01*
X280345357Y-72781623D02*
X280273928Y-72638765D01*
X281631071Y-71495909D02*
X281702500Y-71424480D01*
X281702500Y-71424480D02*
X281773928Y-71495909D01*
X281773928Y-71495909D02*
X281702500Y-71567337D01*
X281702500Y-71567337D02*
X281631071Y-71495909D01*
X281631071Y-71495909D02*
X281773928Y-71495909D01*
X280273928Y-70495908D02*
X280273928Y-70353051D01*
X280273928Y-70353051D02*
X280345357Y-70210194D01*
X280345357Y-70210194D02*
X280416785Y-70138766D01*
X280416785Y-70138766D02*
X280559642Y-70067337D01*
X280559642Y-70067337D02*
X280845357Y-69995908D01*
X280845357Y-69995908D02*
X281202500Y-69995908D01*
X281202500Y-69995908D02*
X281488214Y-70067337D01*
X281488214Y-70067337D02*
X281631071Y-70138766D01*
X281631071Y-70138766D02*
X281702500Y-70210194D01*
X281702500Y-70210194D02*
X281773928Y-70353051D01*
X281773928Y-70353051D02*
X281773928Y-70495908D01*
X281773928Y-70495908D02*
X281702500Y-70638766D01*
X281702500Y-70638766D02*
X281631071Y-70710194D01*
X281631071Y-70710194D02*
X281488214Y-70781623D01*
X281488214Y-70781623D02*
X281202500Y-70853051D01*
X281202500Y-70853051D02*
X280845357Y-70853051D01*
X280845357Y-70853051D02*
X280559642Y-70781623D01*
X280559642Y-70781623D02*
X280416785Y-70710194D01*
X280416785Y-70710194D02*
X280345357Y-70638766D01*
X280345357Y-70638766D02*
X280273928Y-70495908D01*
X280416785Y-69424480D02*
X280345357Y-69353052D01*
X280345357Y-69353052D02*
X280273928Y-69210195D01*
X280273928Y-69210195D02*
X280273928Y-68853052D01*
X280273928Y-68853052D02*
X280345357Y-68710195D01*
X280345357Y-68710195D02*
X280416785Y-68638766D01*
X280416785Y-68638766D02*
X280559642Y-68567337D01*
X280559642Y-68567337D02*
X280702500Y-68567337D01*
X280702500Y-68567337D02*
X280916785Y-68638766D01*
X280916785Y-68638766D02*
X281773928Y-69495909D01*
X281773928Y-69495909D02*
X281773928Y-68567337D01*
X280916785Y-67710195D02*
X280845357Y-67853052D01*
X280845357Y-67853052D02*
X280773928Y-67924481D01*
X280773928Y-67924481D02*
X280631071Y-67995909D01*
X280631071Y-67995909D02*
X280559642Y-67995909D01*
X280559642Y-67995909D02*
X280416785Y-67924481D01*
X280416785Y-67924481D02*
X280345357Y-67853052D01*
X280345357Y-67853052D02*
X280273928Y-67710195D01*
X280273928Y-67710195D02*
X280273928Y-67424481D01*
X280273928Y-67424481D02*
X280345357Y-67281624D01*
X280345357Y-67281624D02*
X280416785Y-67210195D01*
X280416785Y-67210195D02*
X280559642Y-67138766D01*
X280559642Y-67138766D02*
X280631071Y-67138766D01*
X280631071Y-67138766D02*
X280773928Y-67210195D01*
X280773928Y-67210195D02*
X280845357Y-67281624D01*
X280845357Y-67281624D02*
X280916785Y-67424481D01*
X280916785Y-67424481D02*
X280916785Y-67710195D01*
X280916785Y-67710195D02*
X280988214Y-67853052D01*
X280988214Y-67853052D02*
X281059642Y-67924481D01*
X281059642Y-67924481D02*
X281202500Y-67995909D01*
X281202500Y-67995909D02*
X281488214Y-67995909D01*
X281488214Y-67995909D02*
X281631071Y-67924481D01*
X281631071Y-67924481D02*
X281702500Y-67853052D01*
X281702500Y-67853052D02*
X281773928Y-67710195D01*
X281773928Y-67710195D02*
X281773928Y-67424481D01*
X281773928Y-67424481D02*
X281702500Y-67281624D01*
X281702500Y-67281624D02*
X281631071Y-67210195D01*
X281631071Y-67210195D02*
X281488214Y-67138766D01*
X281488214Y-67138766D02*
X281202500Y-67138766D01*
X281202500Y-67138766D02*
X281059642Y-67210195D01*
X281059642Y-67210195D02*
X280988214Y-67281624D01*
X280988214Y-67281624D02*
X280916785Y-67424481D01*
X280416785Y-66567338D02*
X280345357Y-66495910D01*
X280345357Y-66495910D02*
X280273928Y-66353053D01*
X280273928Y-66353053D02*
X280273928Y-65995910D01*
X280273928Y-65995910D02*
X280345357Y-65853053D01*
X280345357Y-65853053D02*
X280416785Y-65781624D01*
X280416785Y-65781624D02*
X280559642Y-65710195D01*
X280559642Y-65710195D02*
X280702500Y-65710195D01*
X280702500Y-65710195D02*
X280916785Y-65781624D01*
X280916785Y-65781624D02*
X281773928Y-66638767D01*
X281773928Y-66638767D02*
X281773928Y-65710195D01*
X281773928Y-63924482D02*
X280773928Y-63924482D01*
X280916785Y-63924482D02*
X280845357Y-63853053D01*
X280845357Y-63853053D02*
X280773928Y-63710196D01*
X280773928Y-63710196D02*
X280773928Y-63495910D01*
X280773928Y-63495910D02*
X280845357Y-63353053D01*
X280845357Y-63353053D02*
X280988214Y-63281625D01*
X280988214Y-63281625D02*
X281773928Y-63281625D01*
X280988214Y-63281625D02*
X280845357Y-63210196D01*
X280845357Y-63210196D02*
X280773928Y-63067339D01*
X280773928Y-63067339D02*
X280773928Y-62853053D01*
X280773928Y-62853053D02*
X280845357Y-62710196D01*
X280845357Y-62710196D02*
X280988214Y-62638767D01*
X280988214Y-62638767D02*
X281773928Y-62638767D01*
X281773928Y-61924482D02*
X280773928Y-61924482D01*
X280916785Y-61924482D02*
X280845357Y-61853053D01*
X280845357Y-61853053D02*
X280773928Y-61710196D01*
X280773928Y-61710196D02*
X280773928Y-61495910D01*
X280773928Y-61495910D02*
X280845357Y-61353053D01*
X280845357Y-61353053D02*
X280988214Y-61281625D01*
X280988214Y-61281625D02*
X281773928Y-61281625D01*
X280988214Y-61281625D02*
X280845357Y-61210196D01*
X280845357Y-61210196D02*
X280773928Y-61067339D01*
X280773928Y-61067339D02*
X280773928Y-60853053D01*
X280773928Y-60853053D02*
X280845357Y-60710196D01*
X280845357Y-60710196D02*
X280988214Y-60638767D01*
X280988214Y-60638767D02*
X281773928Y-60638767D01*
D12*
X265375567Y-47481819D02*
X283466420Y-47481819D01*
X265375567Y-87510000D02*
X283466420Y-87510000D01*
X282880000Y-47481819D02*
X282880000Y-87510000D01*
X282880000Y-47481819D02*
X282880000Y-87510000D01*
X282880000Y-47481819D02*
X283466421Y-48608323D01*
X282880000Y-47481819D02*
X282293579Y-48608323D01*
X282880000Y-87510000D02*
X282293579Y-86383496D01*
X282880000Y-87510000D02*
X283466421Y-86383496D01*
D10*
D11*
X223293588Y-93573928D02*
X224293588Y-93573928D01*
X224293588Y-93573928D02*
X223650731Y-95073928D01*
X225150731Y-93573928D02*
X225293588Y-93573928D01*
X225293588Y-93573928D02*
X225436445Y-93645357D01*
X225436445Y-93645357D02*
X225507874Y-93716785D01*
X225507874Y-93716785D02*
X225579302Y-93859642D01*
X225579302Y-93859642D02*
X225650731Y-94145357D01*
X225650731Y-94145357D02*
X225650731Y-94502500D01*
X225650731Y-94502500D02*
X225579302Y-94788214D01*
X225579302Y-94788214D02*
X225507874Y-94931071D01*
X225507874Y-94931071D02*
X225436445Y-95002500D01*
X225436445Y-95002500D02*
X225293588Y-95073928D01*
X225293588Y-95073928D02*
X225150731Y-95073928D01*
X225150731Y-95073928D02*
X225007874Y-95002500D01*
X225007874Y-95002500D02*
X224936445Y-94931071D01*
X224936445Y-94931071D02*
X224865016Y-94788214D01*
X224865016Y-94788214D02*
X224793588Y-94502500D01*
X224793588Y-94502500D02*
X224793588Y-94145357D01*
X224793588Y-94145357D02*
X224865016Y-93859642D01*
X224865016Y-93859642D02*
X224936445Y-93716785D01*
X224936445Y-93716785D02*
X225007874Y-93645357D01*
X225007874Y-93645357D02*
X225150731Y-93573928D01*
X226293587Y-94931071D02*
X226365016Y-95002500D01*
X226365016Y-95002500D02*
X226293587Y-95073928D01*
X226293587Y-95073928D02*
X226222159Y-95002500D01*
X226222159Y-95002500D02*
X226293587Y-94931071D01*
X226293587Y-94931071D02*
X226293587Y-95073928D01*
X226936445Y-93716785D02*
X227007873Y-93645357D01*
X227007873Y-93645357D02*
X227150731Y-93573928D01*
X227150731Y-93573928D02*
X227507873Y-93573928D01*
X227507873Y-93573928D02*
X227650731Y-93645357D01*
X227650731Y-93645357D02*
X227722159Y-93716785D01*
X227722159Y-93716785D02*
X227793588Y-93859642D01*
X227793588Y-93859642D02*
X227793588Y-94002500D01*
X227793588Y-94002500D02*
X227722159Y-94216785D01*
X227722159Y-94216785D02*
X226865016Y-95073928D01*
X226865016Y-95073928D02*
X227793588Y-95073928D01*
X228293587Y-93573928D02*
X229222159Y-93573928D01*
X229222159Y-93573928D02*
X228722159Y-94145357D01*
X228722159Y-94145357D02*
X228936444Y-94145357D01*
X228936444Y-94145357D02*
X229079302Y-94216785D01*
X229079302Y-94216785D02*
X229150730Y-94288214D01*
X229150730Y-94288214D02*
X229222159Y-94431071D01*
X229222159Y-94431071D02*
X229222159Y-94788214D01*
X229222159Y-94788214D02*
X229150730Y-94931071D01*
X229150730Y-94931071D02*
X229079302Y-95002500D01*
X229079302Y-95002500D02*
X228936444Y-95073928D01*
X228936444Y-95073928D02*
X228507873Y-95073928D01*
X228507873Y-95073928D02*
X228365016Y-95002500D01*
X228365016Y-95002500D02*
X228293587Y-94931071D01*
X229793587Y-93716785D02*
X229865015Y-93645357D01*
X229865015Y-93645357D02*
X230007873Y-93573928D01*
X230007873Y-93573928D02*
X230365015Y-93573928D01*
X230365015Y-93573928D02*
X230507873Y-93645357D01*
X230507873Y-93645357D02*
X230579301Y-93716785D01*
X230579301Y-93716785D02*
X230650730Y-93859642D01*
X230650730Y-93859642D02*
X230650730Y-94002500D01*
X230650730Y-94002500D02*
X230579301Y-94216785D01*
X230579301Y-94216785D02*
X229722158Y-95073928D01*
X229722158Y-95073928D02*
X230650730Y-95073928D01*
X231507872Y-94216785D02*
X231365015Y-94145357D01*
X231365015Y-94145357D02*
X231293586Y-94073928D01*
X231293586Y-94073928D02*
X231222158Y-93931071D01*
X231222158Y-93931071D02*
X231222158Y-93859642D01*
X231222158Y-93859642D02*
X231293586Y-93716785D01*
X231293586Y-93716785D02*
X231365015Y-93645357D01*
X231365015Y-93645357D02*
X231507872Y-93573928D01*
X231507872Y-93573928D02*
X231793586Y-93573928D01*
X231793586Y-93573928D02*
X231936444Y-93645357D01*
X231936444Y-93645357D02*
X232007872Y-93716785D01*
X232007872Y-93716785D02*
X232079301Y-93859642D01*
X232079301Y-93859642D02*
X232079301Y-93931071D01*
X232079301Y-93931071D02*
X232007872Y-94073928D01*
X232007872Y-94073928D02*
X231936444Y-94145357D01*
X231936444Y-94145357D02*
X231793586Y-94216785D01*
X231793586Y-94216785D02*
X231507872Y-94216785D01*
X231507872Y-94216785D02*
X231365015Y-94288214D01*
X231365015Y-94288214D02*
X231293586Y-94359642D01*
X231293586Y-94359642D02*
X231222158Y-94502500D01*
X231222158Y-94502500D02*
X231222158Y-94788214D01*
X231222158Y-94788214D02*
X231293586Y-94931071D01*
X231293586Y-94931071D02*
X231365015Y-95002500D01*
X231365015Y-95002500D02*
X231507872Y-95073928D01*
X231507872Y-95073928D02*
X231793586Y-95073928D01*
X231793586Y-95073928D02*
X231936444Y-95002500D01*
X231936444Y-95002500D02*
X232007872Y-94931071D01*
X232007872Y-94931071D02*
X232079301Y-94788214D01*
X232079301Y-94788214D02*
X232079301Y-94502500D01*
X232079301Y-94502500D02*
X232007872Y-94359642D01*
X232007872Y-94359642D02*
X231936444Y-94288214D01*
X231936444Y-94288214D02*
X231793586Y-94216785D01*
X233865014Y-95073928D02*
X233865014Y-94073928D01*
X233865014Y-94216785D02*
X233936443Y-94145357D01*
X233936443Y-94145357D02*
X234079300Y-94073928D01*
X234079300Y-94073928D02*
X234293586Y-94073928D01*
X234293586Y-94073928D02*
X234436443Y-94145357D01*
X234436443Y-94145357D02*
X234507872Y-94288214D01*
X234507872Y-94288214D02*
X234507872Y-95073928D01*
X234507872Y-94288214D02*
X234579300Y-94145357D01*
X234579300Y-94145357D02*
X234722157Y-94073928D01*
X234722157Y-94073928D02*
X234936443Y-94073928D01*
X234936443Y-94073928D02*
X235079300Y-94145357D01*
X235079300Y-94145357D02*
X235150729Y-94288214D01*
X235150729Y-94288214D02*
X235150729Y-95073928D01*
X235865014Y-95073928D02*
X235865014Y-94073928D01*
X235865014Y-94216785D02*
X235936443Y-94145357D01*
X235936443Y-94145357D02*
X236079300Y-94073928D01*
X236079300Y-94073928D02*
X236293586Y-94073928D01*
X236293586Y-94073928D02*
X236436443Y-94145357D01*
X236436443Y-94145357D02*
X236507872Y-94288214D01*
X236507872Y-94288214D02*
X236507872Y-95073928D01*
X236507872Y-94288214D02*
X236579300Y-94145357D01*
X236579300Y-94145357D02*
X236722157Y-94073928D01*
X236722157Y-94073928D02*
X236936443Y-94073928D01*
X236936443Y-94073928D02*
X237079300Y-94145357D01*
X237079300Y-94145357D02*
X237150729Y-94288214D01*
X237150729Y-94288214D02*
X237150729Y-95073928D01*
D12*
X195177173Y-87520125D02*
X195177173Y-96766420D01*
X265410000Y-87520125D02*
X265410000Y-96766420D01*
X195177173Y-96180000D02*
X265410000Y-96180000D01*
X195177173Y-96180000D02*
X265410000Y-96180000D01*
X195177173Y-96180000D02*
X196303677Y-95593579D01*
X195177173Y-96180000D02*
X196303677Y-96766421D01*
X265410000Y-96180000D02*
X264283496Y-96766421D01*
X265410000Y-96180000D02*
X264283496Y-95593579D01*
D13*
X200914000Y-64008000D03*
D14*
X200914000Y-66548000D03*
X200914000Y-69088000D03*
X200914000Y-71628000D03*
X200914000Y-74168000D03*
D13*
X197160000Y-77375000D03*
D14*
X197160000Y-74835000D03*
X197160000Y-72295000D03*
X197160000Y-69755000D03*
X197160000Y-67215000D03*
X197160000Y-64675000D03*
X197160000Y-62135000D03*
X197160000Y-59595000D03*
D13*
X227076000Y-50038000D03*
D14*
X227076000Y-52578000D03*
X227076000Y-55118000D03*
X227076000Y-57658000D03*
X227076000Y-60198000D03*
D13*
X200914000Y-50038000D03*
D14*
X200914000Y-52578000D03*
X200914000Y-55118000D03*
X200914000Y-57658000D03*
X200914000Y-60198000D03*
D15*
X212130000Y-83040000D03*
X215630000Y-83040000D03*
X219130000Y-83040000D03*
X222630000Y-83040000D03*
X226130000Y-83040000D03*
X229630000Y-83040000D03*
X233130000Y-83040000D03*
X236630000Y-83040000D03*
X240130000Y-83040000D03*
X243630000Y-83040000D03*
X247130000Y-83040000D03*
X250630000Y-83040000D03*
D13*
X198755000Y-84190000D03*
D14*
X198755000Y-81650000D03*
X201295000Y-84190000D03*
X201295000Y-81650000D03*
X203835000Y-84190000D03*
X203835000Y-81650000D03*
X206375000Y-84190000D03*
X206375000Y-81650000D03*
D16*
X258930000Y-74950000D03*
D17*
X258930000Y-80750000D03*
D18*
X263730000Y-77950000D03*
D19*
X260080000Y-72190000D03*
D20*
X264260000Y-72190000D03*
D19*
X260080000Y-63550000D03*
D20*
X264260000Y-63550000D03*
D13*
X227076000Y-64008000D03*
D14*
X227076000Y-66548000D03*
X227076000Y-69088000D03*
X227076000Y-71628000D03*
X227076000Y-74168000D03*
D21*
X255375000Y-56150000D03*
X256525000Y-57000000D03*
X242000000Y-54175000D03*
X241125000Y-57725000D03*
X249626372Y-69488779D03*
X261475000Y-68850000D03*
X262305000Y-74075000D03*
X260775000Y-67250000D03*
X235169664Y-71145970D03*
X237780000Y-79020000D03*
D22*
X241660000Y-76640000D03*
X241660000Y-78760000D03*
D23*
X207680000Y-60410000D03*
D21*
X249770000Y-63430000D03*
X258415000Y-58987500D03*
X242010000Y-71200000D03*
X259337500Y-60395000D03*
X236740000Y-73120000D03*
X206897500Y-50457500D03*
X209360000Y-81350000D03*
X250136961Y-52129500D03*
X256840000Y-81750000D03*
X255470000Y-57680000D03*
X239480000Y-68910000D03*
X221255378Y-49844622D03*
X240350000Y-70360000D03*
D23*
X213200000Y-60790000D03*
D21*
X246340000Y-49400500D03*
D23*
X218045000Y-61005000D03*
D21*
X261845000Y-78215000D03*
X216250000Y-81300000D03*
X263030000Y-70460000D03*
D23*
X223880000Y-56600000D03*
D21*
X245574647Y-49400500D03*
X253000000Y-65770000D03*
X261605000Y-79755000D03*
X237790000Y-58700000D03*
X247140000Y-73600000D03*
X253020000Y-64950000D03*
X209460000Y-65690000D03*
X246025000Y-63150000D03*
X260140000Y-85410000D03*
X250840500Y-57664098D03*
X233600000Y-67610000D03*
X210700000Y-71060000D03*
X258290000Y-63640000D03*
X234220000Y-51300000D03*
X258330000Y-72060000D03*
X220380000Y-73810000D03*
X252170000Y-64980000D03*
X222220000Y-70090000D03*
X260147500Y-60395000D03*
X261090000Y-78970000D03*
X231600000Y-74770000D03*
X251830000Y-75060498D03*
X225168126Y-81762031D03*
X249480000Y-52430000D03*
D23*
X252420000Y-71590000D03*
D21*
X240766521Y-59476088D03*
X243560000Y-53650000D03*
X238200000Y-82050000D03*
X239743256Y-49196744D03*
X237770000Y-64180000D03*
X210570000Y-53720000D03*
X225205826Y-64406326D03*
X239889500Y-58895701D03*
X231140000Y-59990000D03*
X250840000Y-56640000D03*
D23*
X249470000Y-71390000D03*
D21*
X209520000Y-53567918D03*
X248300000Y-70760000D03*
X250476027Y-68553876D03*
D23*
X210320000Y-62190000D03*
D21*
X238470000Y-50680500D03*
X231470000Y-73690000D03*
X246045000Y-54235000D03*
X233225000Y-64955000D03*
X233253028Y-50217067D03*
X213600000Y-52980000D03*
X208890000Y-76290000D03*
X242362646Y-65454500D03*
X238060000Y-75000000D03*
X242680000Y-72820000D03*
X236770000Y-74870000D03*
X241074858Y-65514858D03*
X238875000Y-57435000D03*
X251571500Y-58845906D03*
X239889500Y-59955500D03*
X230060000Y-52250000D03*
X223480000Y-50610000D03*
X244813008Y-57337393D03*
X237310000Y-55640000D03*
X238440000Y-59830000D03*
X244455000Y-71385000D03*
X245440000Y-80530000D03*
X247361500Y-66997503D03*
X248630000Y-77530000D03*
X248145636Y-69709730D03*
X247560000Y-79420000D03*
X238980000Y-63950000D03*
X238390000Y-63100000D03*
X219530000Y-68940000D03*
X223230000Y-64740000D03*
X244620000Y-60100000D03*
X250970000Y-63630000D03*
X249390000Y-67590000D03*
X243810000Y-60740000D03*
X243050000Y-57210000D03*
X245192794Y-58802794D03*
X238705740Y-53364500D03*
X250725769Y-59378583D03*
X253060000Y-59110000D03*
X238250000Y-65660000D03*
X239530000Y-65610000D03*
X242150000Y-62180000D03*
X257170000Y-62650000D03*
X261580500Y-70100000D03*
X261670000Y-64410000D03*
X255590000Y-65560000D03*
X261150000Y-58860000D03*
X205440000Y-60140000D03*
X230010000Y-62730000D03*
X223760000Y-60080000D03*
X245791645Y-65454500D03*
X244505000Y-81255000D03*
X236195969Y-54145500D03*
X204790000Y-72180000D03*
X231240000Y-53780000D03*
X230690000Y-66220000D03*
X228930000Y-64200000D03*
X221470000Y-62450000D03*
X205460000Y-64350000D03*
X230280000Y-64510000D03*
X205410000Y-61500000D03*
X220620000Y-61484500D03*
G04 #@! TA.AperFunction,Conductor*
G36*
X264866033Y-47482317D02*
G01*
X264884948Y-47483747D01*
X264892687Y-47484923D01*
X264902829Y-47486465D01*
X264910996Y-47487856D01*
X264989446Y-47501224D01*
X265013525Y-47507847D01*
X265049242Y-47521614D01*
X265055451Y-47524203D01*
X265112352Y-47549762D01*
X265130297Y-47559650D01*
X265165566Y-47583011D01*
X265174768Y-47589723D01*
X265220471Y-47626339D01*
X265232251Y-47637070D01*
X265242223Y-47647380D01*
X265262300Y-47668140D01*
X265272638Y-47680281D01*
X265307710Y-47727187D01*
X265314112Y-47736609D01*
X265336274Y-47772627D01*
X265345559Y-47790898D01*
X265369185Y-47848578D01*
X265371604Y-47854972D01*
X265384142Y-47891049D01*
X265389970Y-47915392D01*
X265401745Y-48001781D01*
X265404217Y-48022749D01*
X265405067Y-48037217D01*
X265406733Y-62673836D01*
X265386739Y-62741959D01*
X265333088Y-62788458D01*
X265262816Y-62798570D01*
X265200800Y-62771250D01*
X265123003Y-62707404D01*
X264947802Y-62613758D01*
X264757701Y-62556091D01*
X264612627Y-62541803D01*
X264612619Y-62541802D01*
X264609547Y-62541500D01*
X263910453Y-62541500D01*
X263907381Y-62541802D01*
X263907372Y-62541803D01*
X263762298Y-62556091D01*
X263572197Y-62613758D01*
X263396992Y-62707406D01*
X263243431Y-62833431D01*
X263117406Y-62986992D01*
X263023758Y-63162197D01*
X262966091Y-63352298D01*
X262946619Y-63549999D01*
X262966091Y-63747701D01*
X263023758Y-63937802D01*
X263117406Y-64113007D01*
X263243431Y-64266568D01*
X263396992Y-64392593D01*
X263422685Y-64406326D01*
X263572196Y-64486241D01*
X263613578Y-64498794D01*
X263762298Y-64543908D01*
X263783539Y-64546000D01*
X263910453Y-64558500D01*
X263913545Y-64558500D01*
X264606455Y-64558500D01*
X264609547Y-64558500D01*
X264757701Y-64543908D01*
X264947804Y-64486241D01*
X265123004Y-64392595D01*
X265200999Y-64328585D01*
X265266346Y-64300832D01*
X265336325Y-64312814D01*
X265388716Y-64360726D01*
X265406933Y-64425971D01*
X265407717Y-71314644D01*
X265387723Y-71382767D01*
X265334072Y-71429266D01*
X265263800Y-71439378D01*
X265201783Y-71412057D01*
X265123004Y-71347404D01*
X264947802Y-71253758D01*
X264757701Y-71196091D01*
X264612627Y-71181803D01*
X264612619Y-71181802D01*
X264609547Y-71181500D01*
X263910453Y-71181500D01*
X263907381Y-71181802D01*
X263907372Y-71181803D01*
X263762298Y-71196091D01*
X263572197Y-71253758D01*
X263396992Y-71347406D01*
X263243431Y-71473431D01*
X263117406Y-71626992D01*
X263023758Y-71802197D01*
X262966091Y-71992298D01*
X262946619Y-72190000D01*
X262966091Y-72387701D01*
X263023758Y-72577802D01*
X263117406Y-72753007D01*
X263243431Y-72906568D01*
X263396992Y-73032593D01*
X263396996Y-73032595D01*
X263572196Y-73126241D01*
X263660593Y-73153056D01*
X263762298Y-73183908D01*
X263784474Y-73186092D01*
X263910453Y-73198500D01*
X263913545Y-73198500D01*
X264606455Y-73198500D01*
X264609547Y-73198500D01*
X264757701Y-73183908D01*
X264947804Y-73126241D01*
X265123004Y-73032595D01*
X265201982Y-72967778D01*
X265267329Y-72940025D01*
X265337307Y-72952006D01*
X265389699Y-72999919D01*
X265407916Y-73065164D01*
X265409497Y-86960599D01*
X265408110Y-86979258D01*
X265405344Y-86997744D01*
X265391291Y-87081487D01*
X265384922Y-87105083D01*
X265371626Y-87140318D01*
X265369099Y-87146510D01*
X265344645Y-87202176D01*
X265335153Y-87219823D01*
X265312598Y-87254772D01*
X265306148Y-87263858D01*
X265271016Y-87308978D01*
X265260694Y-87320663D01*
X265230663Y-87350694D01*
X265218978Y-87361016D01*
X265173858Y-87396148D01*
X265164772Y-87402598D01*
X265129823Y-87425153D01*
X265112176Y-87434645D01*
X265056510Y-87459099D01*
X265050320Y-87461625D01*
X265015098Y-87474917D01*
X264991464Y-87481294D01*
X264907752Y-87495342D01*
X264905192Y-87495726D01*
X264889111Y-87498133D01*
X264870656Y-87499501D01*
X195737356Y-87509616D01*
X195735007Y-87508926D01*
X195692101Y-87509526D01*
X195678252Y-87508957D01*
X195669477Y-87508111D01*
X195658174Y-87507021D01*
X195579763Y-87498006D01*
X195554591Y-87492449D01*
X195521276Y-87481413D01*
X195514660Y-87479014D01*
X195463035Y-87458643D01*
X195444109Y-87449272D01*
X195411055Y-87429294D01*
X195401299Y-87422758D01*
X195359277Y-87391674D01*
X195346731Y-87381061D01*
X195318373Y-87353706D01*
X195307317Y-87341552D01*
X195274728Y-87300659D01*
X195267857Y-87291160D01*
X195246696Y-87258836D01*
X195236656Y-87240268D01*
X195232283Y-87230257D01*
X195214439Y-87189403D01*
X195211809Y-87182892D01*
X195199567Y-87149959D01*
X195193104Y-87124991D01*
X195190061Y-87104963D01*
X195181527Y-87048792D01*
X195178749Y-87027887D01*
X195177672Y-87011591D01*
X195177563Y-81650000D01*
X197391844Y-81650000D01*
X197410436Y-81874368D01*
X197410436Y-81874371D01*
X197410437Y-81874372D01*
X197465702Y-82092611D01*
X197465703Y-82092614D01*
X197465704Y-82092616D01*
X197485000Y-82136606D01*
X197556139Y-82298790D01*
X197679278Y-82487268D01*
X197822841Y-82643217D01*
X197854262Y-82706882D01*
X197846275Y-82777428D01*
X197801416Y-82832457D01*
X197774173Y-82846611D01*
X197659036Y-82889554D01*
X197542095Y-82977095D01*
X197454554Y-83094037D01*
X197403505Y-83230906D01*
X197397359Y-83288063D01*
X197397000Y-83294777D01*
X197397000Y-83936000D01*
X198323884Y-83936000D01*
X198295507Y-83980156D01*
X198255000Y-84118111D01*
X198255000Y-84261889D01*
X198295507Y-84399844D01*
X198323884Y-84444000D01*
X197397000Y-84444000D01*
X197397000Y-85085222D01*
X197397359Y-85091936D01*
X197403505Y-85149093D01*
X197454554Y-85285962D01*
X197542095Y-85402904D01*
X197659037Y-85490445D01*
X197795906Y-85541494D01*
X197853063Y-85547640D01*
X197859777Y-85548000D01*
X198501000Y-85548000D01*
X198501000Y-84623674D01*
X198612685Y-84674680D01*
X198719237Y-84690000D01*
X198790763Y-84690000D01*
X198897315Y-84674680D01*
X199008999Y-84623674D01*
X199009000Y-85548000D01*
X199650223Y-85548000D01*
X199656936Y-85547640D01*
X199714093Y-85541494D01*
X199850962Y-85490445D01*
X199967904Y-85402904D01*
X200055445Y-85285962D01*
X200099618Y-85167530D01*
X200142164Y-85110694D01*
X200208685Y-85085883D01*
X200278059Y-85100974D01*
X200310372Y-85126222D01*
X200331427Y-85149093D01*
X200371762Y-85192908D01*
X200491317Y-85285962D01*
X200549424Y-85331189D01*
X200747426Y-85438342D01*
X200960365Y-85511444D01*
X201182431Y-85548500D01*
X201182434Y-85548500D01*
X201407566Y-85548500D01*
X201407569Y-85548500D01*
X201629635Y-85511444D01*
X201842574Y-85438342D01*
X202040576Y-85331189D01*
X202218240Y-85192906D01*
X202370722Y-85027268D01*
X202459518Y-84891354D01*
X202513521Y-84845268D01*
X202583869Y-84835693D01*
X202648226Y-84865670D01*
X202670480Y-84891353D01*
X202759278Y-85027267D01*
X202759278Y-85027268D01*
X202911762Y-85192908D01*
X203031317Y-85285962D01*
X203089424Y-85331189D01*
X203287426Y-85438342D01*
X203500365Y-85511444D01*
X203722431Y-85548500D01*
X203722434Y-85548500D01*
X203947566Y-85548500D01*
X203947569Y-85548500D01*
X204169635Y-85511444D01*
X204382574Y-85438342D01*
X204580576Y-85331189D01*
X204758240Y-85192906D01*
X204910722Y-85027268D01*
X204999518Y-84891354D01*
X205053521Y-84845268D01*
X205123869Y-84835693D01*
X205188226Y-84865670D01*
X205210480Y-84891353D01*
X205299278Y-85027267D01*
X205299278Y-85027268D01*
X205451762Y-85192908D01*
X205571317Y-85285962D01*
X205629424Y-85331189D01*
X205827426Y-85438342D01*
X206040365Y-85511444D01*
X206262431Y-85548500D01*
X206262434Y-85548500D01*
X206487566Y-85548500D01*
X206487569Y-85548500D01*
X206709635Y-85511444D01*
X206922574Y-85438342D01*
X207120576Y-85331189D01*
X207298240Y-85192906D01*
X207450722Y-85027268D01*
X207573860Y-84838791D01*
X207664296Y-84632616D01*
X207719564Y-84414368D01*
X207738156Y-84190000D01*
X207719564Y-83965632D01*
X207664296Y-83747384D01*
X207573860Y-83541209D01*
X207450722Y-83352732D01*
X207298240Y-83187094D01*
X207298239Y-83187093D01*
X207298237Y-83187091D01*
X207120579Y-83048813D01*
X207120577Y-83048812D01*
X207120576Y-83048811D01*
X207104293Y-83039999D01*
X210616835Y-83039999D01*
X210635464Y-83276711D01*
X210690895Y-83507594D01*
X210781761Y-83726966D01*
X210905823Y-83929415D01*
X211060030Y-84109969D01*
X211240584Y-84264176D01*
X211443033Y-84388238D01*
X211443035Y-84388238D01*
X211443037Y-84388240D01*
X211662406Y-84479105D01*
X211836070Y-84520798D01*
X211893288Y-84534535D01*
X211910558Y-84535894D01*
X212130000Y-84553165D01*
X212366711Y-84534535D01*
X212597594Y-84479105D01*
X212816963Y-84388240D01*
X213019416Y-84264176D01*
X213199969Y-84109969D01*
X213354176Y-83929416D01*
X213478240Y-83726963D01*
X213569105Y-83507594D01*
X213624535Y-83276711D01*
X213643165Y-83040000D01*
X214116835Y-83040000D01*
X214135464Y-83276711D01*
X214190895Y-83507594D01*
X214281761Y-83726966D01*
X214405823Y-83929415D01*
X214560030Y-84109969D01*
X214740584Y-84264176D01*
X214943033Y-84388238D01*
X214943035Y-84388238D01*
X214943037Y-84388240D01*
X215162406Y-84479105D01*
X215336070Y-84520798D01*
X215393288Y-84534535D01*
X215411917Y-84536001D01*
X215630000Y-84553165D01*
X215866711Y-84534535D01*
X216097594Y-84479105D01*
X216316963Y-84388240D01*
X216519416Y-84264176D01*
X216699969Y-84109969D01*
X216854176Y-83929416D01*
X216978240Y-83726963D01*
X217069105Y-83507594D01*
X217124535Y-83276711D01*
X217143165Y-83040000D01*
X217143165Y-83039999D01*
X217617337Y-83039999D01*
X217635960Y-83276633D01*
X217691372Y-83507440D01*
X217782208Y-83726738D01*
X217896896Y-83913891D01*
X217896897Y-83913891D01*
X218487912Y-83322876D01*
X218549680Y-83440566D01*
X218662405Y-83567806D01*
X218802305Y-83664371D01*
X218847643Y-83681565D01*
X218256107Y-84273101D01*
X218256107Y-84273102D01*
X218443261Y-84387791D01*
X218662559Y-84478627D01*
X218893366Y-84534039D01*
X219129999Y-84552662D01*
X219366633Y-84534039D01*
X219597440Y-84478627D01*
X219816738Y-84387791D01*
X220003891Y-84273102D01*
X220003892Y-84273101D01*
X219412356Y-83681565D01*
X219457695Y-83664371D01*
X219597595Y-83567806D01*
X219710320Y-83440566D01*
X219772086Y-83322877D01*
X220363101Y-83913892D01*
X220363102Y-83913891D01*
X220477791Y-83726738D01*
X220568627Y-83507440D01*
X220624039Y-83276633D01*
X220642662Y-83040000D01*
X221116835Y-83040000D01*
X221135464Y-83276711D01*
X221190895Y-83507594D01*
X221281761Y-83726966D01*
X221405823Y-83929415D01*
X221560030Y-84109969D01*
X221740584Y-84264176D01*
X221943033Y-84388238D01*
X221943035Y-84388238D01*
X221943037Y-84388240D01*
X222162406Y-84479105D01*
X222336070Y-84520798D01*
X222393288Y-84534535D01*
X222410558Y-84535894D01*
X222630000Y-84553165D01*
X222866711Y-84534535D01*
X223097594Y-84479105D01*
X223316963Y-84388240D01*
X223519416Y-84264176D01*
X223699969Y-84109969D01*
X223854176Y-83929416D01*
X223978240Y-83726963D01*
X224069105Y-83507594D01*
X224124535Y-83276711D01*
X224143165Y-83040000D01*
X224143165Y-83039999D01*
X224616835Y-83039999D01*
X224635464Y-83276711D01*
X224690895Y-83507594D01*
X224781761Y-83726966D01*
X224905823Y-83929415D01*
X225060030Y-84109969D01*
X225240584Y-84264176D01*
X225443033Y-84388238D01*
X225443035Y-84388238D01*
X225443037Y-84388240D01*
X225662406Y-84479105D01*
X225836070Y-84520798D01*
X225893288Y-84534535D01*
X225911918Y-84536001D01*
X226130000Y-84553165D01*
X226366711Y-84534535D01*
X226597594Y-84479105D01*
X226816963Y-84388240D01*
X227019416Y-84264176D01*
X227199969Y-84109969D01*
X227354176Y-83929416D01*
X227478240Y-83726963D01*
X227569105Y-83507594D01*
X227624535Y-83276711D01*
X227643165Y-83040000D01*
X228117337Y-83040000D01*
X228135960Y-83276633D01*
X228191372Y-83507440D01*
X228282208Y-83726738D01*
X228396896Y-83913891D01*
X228396897Y-83913891D01*
X228987912Y-83322876D01*
X229049680Y-83440566D01*
X229162405Y-83567806D01*
X229302305Y-83664371D01*
X229347643Y-83681565D01*
X228756107Y-84273101D01*
X228756107Y-84273102D01*
X228943261Y-84387791D01*
X229162559Y-84478627D01*
X229393366Y-84534039D01*
X229630000Y-84552662D01*
X229866633Y-84534039D01*
X230097440Y-84478627D01*
X230316738Y-84387791D01*
X230503891Y-84273102D01*
X230503892Y-84273101D01*
X229912356Y-83681565D01*
X229957695Y-83664371D01*
X230097595Y-83567806D01*
X230210320Y-83440566D01*
X230272086Y-83322877D01*
X230863101Y-83913892D01*
X230863102Y-83913891D01*
X230977791Y-83726738D01*
X231068627Y-83507440D01*
X231124039Y-83276633D01*
X231142662Y-83039999D01*
X231616835Y-83039999D01*
X231635464Y-83276711D01*
X231690895Y-83507594D01*
X231781761Y-83726966D01*
X231905823Y-83929415D01*
X232060030Y-84109969D01*
X232240584Y-84264176D01*
X232443033Y-84388238D01*
X232443035Y-84388238D01*
X232443037Y-84388240D01*
X232662406Y-84479105D01*
X232836070Y-84520798D01*
X232893288Y-84534535D01*
X232911917Y-84536001D01*
X233130000Y-84553165D01*
X233366711Y-84534535D01*
X233597594Y-84479105D01*
X233816963Y-84388240D01*
X234019416Y-84264176D01*
X234199969Y-84109969D01*
X234354176Y-83929416D01*
X234478240Y-83726963D01*
X234569105Y-83507594D01*
X234624535Y-83276711D01*
X234643165Y-83040000D01*
X234643165Y-83039999D01*
X235116835Y-83039999D01*
X235135464Y-83276711D01*
X235190895Y-83507594D01*
X235281761Y-83726966D01*
X235405823Y-83929415D01*
X235560030Y-84109969D01*
X235740584Y-84264176D01*
X235943033Y-84388238D01*
X235943035Y-84388238D01*
X235943037Y-84388240D01*
X236162406Y-84479105D01*
X236336070Y-84520798D01*
X236393288Y-84534535D01*
X236410558Y-84535894D01*
X236630000Y-84553165D01*
X236866711Y-84534535D01*
X237097594Y-84479105D01*
X237316963Y-84388240D01*
X237519416Y-84264176D01*
X237699969Y-84109969D01*
X237854176Y-83929416D01*
X237978240Y-83726963D01*
X238069105Y-83507594D01*
X238124535Y-83276711D01*
X238143165Y-83040000D01*
X238143165Y-83039999D01*
X238617337Y-83039999D01*
X238635960Y-83276633D01*
X238691372Y-83507440D01*
X238782208Y-83726738D01*
X238896896Y-83913891D01*
X238896897Y-83913891D01*
X239487912Y-83322876D01*
X239549680Y-83440566D01*
X239662405Y-83567806D01*
X239802305Y-83664371D01*
X239847643Y-83681565D01*
X239256107Y-84273101D01*
X239256107Y-84273102D01*
X239443261Y-84387791D01*
X239662559Y-84478627D01*
X239893366Y-84534039D01*
X240130000Y-84552662D01*
X240366633Y-84534039D01*
X240597440Y-84478627D01*
X240816738Y-84387791D01*
X241003891Y-84273102D01*
X241003892Y-84273101D01*
X240412356Y-83681565D01*
X240457695Y-83664371D01*
X240597595Y-83567806D01*
X240710320Y-83440566D01*
X240772086Y-83322877D01*
X241363101Y-83913892D01*
X241363102Y-83913891D01*
X241477791Y-83726738D01*
X241568627Y-83507440D01*
X241624039Y-83276633D01*
X241642662Y-83040000D01*
X242116835Y-83040000D01*
X242135464Y-83276711D01*
X242190895Y-83507594D01*
X242281761Y-83726966D01*
X242405823Y-83929415D01*
X242560030Y-84109969D01*
X242740584Y-84264176D01*
X242943033Y-84388238D01*
X242943035Y-84388238D01*
X242943037Y-84388240D01*
X243162406Y-84479105D01*
X243336070Y-84520798D01*
X243393288Y-84534535D01*
X243410558Y-84535894D01*
X243630000Y-84553165D01*
X243866711Y-84534535D01*
X244097594Y-84479105D01*
X244316963Y-84388240D01*
X244519416Y-84264176D01*
X244699969Y-84109969D01*
X244854176Y-83929416D01*
X244978240Y-83726963D01*
X245069105Y-83507594D01*
X245124535Y-83276711D01*
X245143165Y-83040000D01*
X245143165Y-83039999D01*
X245617337Y-83039999D01*
X245635960Y-83276633D01*
X245691372Y-83507440D01*
X245782208Y-83726738D01*
X245896896Y-83913891D01*
X245896897Y-83913891D01*
X246487912Y-83322876D01*
X246549680Y-83440566D01*
X246662405Y-83567806D01*
X246802305Y-83664371D01*
X246847643Y-83681565D01*
X246256107Y-84273101D01*
X246256107Y-84273102D01*
X246443261Y-84387791D01*
X246662559Y-84478627D01*
X246893366Y-84534039D01*
X247130000Y-84552662D01*
X247366633Y-84534039D01*
X247597440Y-84478627D01*
X247816738Y-84387791D01*
X248003891Y-84273102D01*
X248003892Y-84273101D01*
X247412356Y-83681565D01*
X247457695Y-83664371D01*
X247597595Y-83567806D01*
X247710320Y-83440566D01*
X247772086Y-83322877D01*
X248363101Y-83913892D01*
X248363102Y-83913891D01*
X248477791Y-83726738D01*
X248568627Y-83507440D01*
X248624039Y-83276633D01*
X248642662Y-83040000D01*
X248642662Y-83039999D01*
X249117337Y-83039999D01*
X249135960Y-83276633D01*
X249191372Y-83507440D01*
X249282208Y-83726738D01*
X249396896Y-83913891D01*
X249396897Y-83913891D01*
X249987912Y-83322876D01*
X250049680Y-83440566D01*
X250162405Y-83567806D01*
X250302305Y-83664371D01*
X250347643Y-83681565D01*
X249756107Y-84273101D01*
X249756107Y-84273102D01*
X249943261Y-84387791D01*
X250162559Y-84478627D01*
X250393366Y-84534039D01*
X250629999Y-84552662D01*
X250866633Y-84534039D01*
X251097440Y-84478627D01*
X251316738Y-84387791D01*
X251503891Y-84273102D01*
X251503892Y-84273101D01*
X250912356Y-83681565D01*
X250957695Y-83664371D01*
X251097595Y-83567806D01*
X251210320Y-83440566D01*
X251272087Y-83322877D01*
X251863102Y-83913892D01*
X251863102Y-83913891D01*
X251977791Y-83726738D01*
X252068627Y-83507440D01*
X252124039Y-83276633D01*
X252142662Y-83039999D01*
X252124039Y-82803366D01*
X252068627Y-82572559D01*
X251977791Y-82353261D01*
X251863102Y-82166107D01*
X251863100Y-82166107D01*
X251272086Y-82757120D01*
X251210320Y-82639434D01*
X251097595Y-82512194D01*
X250957695Y-82415629D01*
X250912355Y-82398433D01*
X251503891Y-81806897D01*
X251503891Y-81806896D01*
X251316738Y-81692208D01*
X251097440Y-81601372D01*
X250866633Y-81545960D01*
X250629999Y-81527337D01*
X250393366Y-81545960D01*
X250162559Y-81601372D01*
X249943264Y-81692207D01*
X249756107Y-81806896D01*
X249756107Y-81806898D01*
X250347643Y-82398434D01*
X250302305Y-82415629D01*
X250162405Y-82512194D01*
X250049680Y-82639434D01*
X249987913Y-82757122D01*
X249396898Y-82166107D01*
X249396896Y-82166107D01*
X249282207Y-82353264D01*
X249191372Y-82572559D01*
X249135960Y-82803366D01*
X249117337Y-83039999D01*
X248642662Y-83039999D01*
X248624039Y-82803366D01*
X248568627Y-82572559D01*
X248477791Y-82353261D01*
X248363102Y-82166107D01*
X248363101Y-82166107D01*
X247772086Y-82757122D01*
X247710320Y-82639434D01*
X247597595Y-82512194D01*
X247457695Y-82415629D01*
X247412355Y-82398433D01*
X248003891Y-81806897D01*
X248003891Y-81806896D01*
X247816738Y-81692208D01*
X247597440Y-81601372D01*
X247366633Y-81545960D01*
X247130000Y-81527337D01*
X246893366Y-81545960D01*
X246662559Y-81601372D01*
X246443264Y-81692207D01*
X246256107Y-81806896D01*
X246256107Y-81806898D01*
X246847643Y-82398434D01*
X246802305Y-82415629D01*
X246662405Y-82512194D01*
X246549680Y-82639434D01*
X246487913Y-82757121D01*
X245896898Y-82166107D01*
X245896896Y-82166107D01*
X245782207Y-82353264D01*
X245691372Y-82572559D01*
X245635960Y-82803366D01*
X245617337Y-83039999D01*
X245143165Y-83039999D01*
X245124535Y-82803289D01*
X245121629Y-82791186D01*
X245101390Y-82706882D01*
X245069105Y-82572406D01*
X244978240Y-82353037D01*
X244961469Y-82325670D01*
X244902011Y-82228643D01*
X244883472Y-82160110D01*
X244904928Y-82092433D01*
X244958195Y-82047701D01*
X244961752Y-82046118D01*
X245116253Y-81933866D01*
X245244040Y-81791944D01*
X245339527Y-81626556D01*
X245353463Y-81583663D01*
X245372342Y-81525564D01*
X245412416Y-81466958D01*
X245477812Y-81439321D01*
X245492175Y-81438500D01*
X245535485Y-81438500D01*
X245535487Y-81438500D01*
X245722288Y-81398794D01*
X245896752Y-81321118D01*
X246051253Y-81208866D01*
X246179040Y-81066944D01*
X246274527Y-80901556D01*
X246333542Y-80719928D01*
X246353504Y-80530000D01*
X246349930Y-80496000D01*
X256443028Y-80496000D01*
X257518314Y-80496000D01*
X257502359Y-80511955D01*
X257444835Y-80624852D01*
X257425014Y-80750000D01*
X257444835Y-80875148D01*
X257502359Y-80988045D01*
X257518314Y-81004000D01*
X256444413Y-81004000D01*
X256478847Y-81163782D01*
X256568215Y-81386178D01*
X256693880Y-81590271D01*
X256852225Y-81770188D01*
X257038708Y-81920762D01*
X257247942Y-82037647D01*
X257473932Y-82117494D01*
X257710164Y-82158000D01*
X258676000Y-82158000D01*
X258676000Y-81150000D01*
X259184000Y-81150000D01*
X259184000Y-82158000D01*
X260087150Y-82158000D01*
X260092473Y-82157773D01*
X260268815Y-82142765D01*
X260500752Y-82082373D01*
X260719159Y-81983646D01*
X260917731Y-81849435D01*
X261090767Y-81683594D01*
X261233287Y-81490894D01*
X261341193Y-81276876D01*
X261411375Y-81047707D01*
X261416972Y-81004000D01*
X260341686Y-81004000D01*
X260357641Y-80988045D01*
X260415165Y-80875148D01*
X260434986Y-80750000D01*
X260415165Y-80624852D01*
X260357641Y-80511955D01*
X260341686Y-80496000D01*
X261415587Y-80496000D01*
X261381152Y-80336217D01*
X261291784Y-80113821D01*
X261166119Y-79909728D01*
X261007774Y-79729811D01*
X260821291Y-79579237D01*
X260612057Y-79462352D01*
X260386067Y-79382505D01*
X260149836Y-79342000D01*
X259184000Y-79342000D01*
X259184000Y-80350000D01*
X258676000Y-80350000D01*
X258676000Y-79342000D01*
X257772850Y-79342000D01*
X257767526Y-79342226D01*
X257591184Y-79357234D01*
X257359247Y-79417626D01*
X257140840Y-79516353D01*
X256942268Y-79650564D01*
X256769232Y-79816405D01*
X256626712Y-80009105D01*
X256518806Y-80223123D01*
X256448624Y-80452292D01*
X256443028Y-80496000D01*
X246349930Y-80496000D01*
X246333542Y-80340072D01*
X246287739Y-80199105D01*
X246274527Y-80158443D01*
X246179041Y-79993057D01*
X246051252Y-79851133D01*
X245896753Y-79738883D01*
X245896752Y-79738882D01*
X245722288Y-79661206D01*
X245535487Y-79621500D01*
X245344513Y-79621500D01*
X245219978Y-79647970D01*
X245157711Y-79661206D01*
X244983246Y-79738883D01*
X244828747Y-79851133D01*
X244700958Y-79993057D01*
X244605472Y-80158444D01*
X244572658Y-80259436D01*
X244532584Y-80318042D01*
X244467188Y-80345679D01*
X244452825Y-80346500D01*
X244409513Y-80346500D01*
X244284979Y-80372970D01*
X244222711Y-80386206D01*
X244048246Y-80463883D01*
X243893747Y-80576133D01*
X243765958Y-80718057D01*
X243670472Y-80883443D01*
X243611458Y-81065070D01*
X243591496Y-81255000D01*
X243606628Y-81398976D01*
X243593856Y-81468814D01*
X243545353Y-81520661D01*
X243491205Y-81537758D01*
X243393288Y-81545465D01*
X243162405Y-81600895D01*
X242943033Y-81691761D01*
X242740584Y-81815823D01*
X242560030Y-81970030D01*
X242405823Y-82150584D01*
X242281761Y-82353033D01*
X242190895Y-82572405D01*
X242135464Y-82803288D01*
X242116835Y-83040000D01*
X241642662Y-83040000D01*
X241624039Y-82803366D01*
X241568627Y-82572559D01*
X241477791Y-82353261D01*
X241363102Y-82166107D01*
X241363101Y-82166107D01*
X240772086Y-82757122D01*
X240710320Y-82639434D01*
X240597595Y-82512194D01*
X240457695Y-82415629D01*
X240412355Y-82398433D01*
X241003891Y-81806898D01*
X241003891Y-81806896D01*
X240816738Y-81692208D01*
X240597440Y-81601372D01*
X240366633Y-81545960D01*
X240130000Y-81527337D01*
X239893366Y-81545960D01*
X239662559Y-81601372D01*
X239443264Y-81692207D01*
X239256107Y-81806896D01*
X239256107Y-81806897D01*
X239847643Y-82398434D01*
X239802305Y-82415629D01*
X239662405Y-82512194D01*
X239549680Y-82639434D01*
X239487913Y-82757121D01*
X238896898Y-82166107D01*
X238896896Y-82166107D01*
X238782207Y-82353264D01*
X238691372Y-82572559D01*
X238635960Y-82803366D01*
X238617337Y-83039999D01*
X238143165Y-83039999D01*
X238124535Y-82803289D01*
X238121629Y-82791186D01*
X238101390Y-82706882D01*
X238069105Y-82572406D01*
X237978240Y-82353037D01*
X237961469Y-82325670D01*
X237854176Y-82150584D01*
X237699969Y-81970030D01*
X237519415Y-81815823D01*
X237316966Y-81691761D01*
X237097594Y-81600895D01*
X236866711Y-81545464D01*
X236630000Y-81526835D01*
X236393288Y-81545464D01*
X236162405Y-81600895D01*
X235943033Y-81691761D01*
X235740584Y-81815823D01*
X235560030Y-81970030D01*
X235405823Y-82150584D01*
X235281761Y-82353033D01*
X235190895Y-82572405D01*
X235135464Y-82803288D01*
X235116835Y-83039999D01*
X234643165Y-83039999D01*
X234624535Y-82803289D01*
X234621629Y-82791186D01*
X234601390Y-82706882D01*
X234569105Y-82572406D01*
X234478240Y-82353037D01*
X234461469Y-82325670D01*
X234354176Y-82150584D01*
X234199969Y-81970030D01*
X234019415Y-81815823D01*
X233816966Y-81691761D01*
X233597594Y-81600895D01*
X233366711Y-81545464D01*
X233130000Y-81526835D01*
X232893288Y-81545464D01*
X232662405Y-81600895D01*
X232443033Y-81691761D01*
X232240584Y-81815823D01*
X232060030Y-81970030D01*
X231905823Y-82150584D01*
X231781761Y-82353033D01*
X231690895Y-82572405D01*
X231635464Y-82803288D01*
X231616835Y-83039999D01*
X231142662Y-83039999D01*
X231124039Y-82803366D01*
X231068627Y-82572559D01*
X230977791Y-82353261D01*
X230863102Y-82166107D01*
X230863101Y-82166107D01*
X230272086Y-82757122D01*
X230210320Y-82639434D01*
X230097595Y-82512194D01*
X229957695Y-82415629D01*
X229912355Y-82398433D01*
X230503891Y-81806897D01*
X230503891Y-81806896D01*
X230316738Y-81692208D01*
X230097440Y-81601372D01*
X229866633Y-81545960D01*
X229630000Y-81527337D01*
X229393366Y-81545960D01*
X229162559Y-81601372D01*
X228943264Y-81692207D01*
X228756107Y-81806896D01*
X228756107Y-81806898D01*
X229347643Y-82398434D01*
X229302305Y-82415629D01*
X229162405Y-82512194D01*
X229049680Y-82639434D01*
X228987913Y-82757122D01*
X228396898Y-82166107D01*
X228396896Y-82166107D01*
X228282207Y-82353264D01*
X228191372Y-82572559D01*
X228135960Y-82803366D01*
X228117337Y-83040000D01*
X227643165Y-83040000D01*
X227624535Y-82803289D01*
X227621629Y-82791186D01*
X227601390Y-82706882D01*
X227569105Y-82572406D01*
X227478240Y-82353037D01*
X227461469Y-82325670D01*
X227354176Y-82150584D01*
X227199969Y-81970030D01*
X227019415Y-81815823D01*
X226816966Y-81691761D01*
X226597594Y-81600895D01*
X226366711Y-81545464D01*
X226130000Y-81526835D01*
X225893288Y-81545464D01*
X225662405Y-81600895D01*
X225443033Y-81691761D01*
X225240584Y-81815823D01*
X225060030Y-81970030D01*
X224905823Y-82150584D01*
X224781761Y-82353033D01*
X224690895Y-82572405D01*
X224635464Y-82803288D01*
X224616835Y-83039999D01*
X224143165Y-83039999D01*
X224124535Y-82803289D01*
X224121629Y-82791186D01*
X224101390Y-82706882D01*
X224069105Y-82572406D01*
X223978240Y-82353037D01*
X223961469Y-82325670D01*
X223854176Y-82150584D01*
X223699969Y-81970030D01*
X223519415Y-81815823D01*
X223316966Y-81691761D01*
X223097594Y-81600895D01*
X222866711Y-81545464D01*
X222630000Y-81526835D01*
X222393288Y-81545464D01*
X222162405Y-81600895D01*
X221943033Y-81691761D01*
X221740584Y-81815823D01*
X221560030Y-81970030D01*
X221405823Y-82150584D01*
X221281761Y-82353033D01*
X221190895Y-82572405D01*
X221135464Y-82803288D01*
X221116835Y-83040000D01*
X220642662Y-83040000D01*
X220642662Y-83039999D01*
X220624039Y-82803366D01*
X220568627Y-82572559D01*
X220477791Y-82353261D01*
X220363102Y-82166107D01*
X220363101Y-82166107D01*
X219772086Y-82757122D01*
X219710320Y-82639434D01*
X219597595Y-82512194D01*
X219457695Y-82415629D01*
X219412355Y-82398433D01*
X220003891Y-81806897D01*
X220003891Y-81806896D01*
X219816738Y-81692208D01*
X219597440Y-81601372D01*
X219366633Y-81545960D01*
X219129999Y-81527337D01*
X218893366Y-81545960D01*
X218662559Y-81601372D01*
X218443264Y-81692207D01*
X218256107Y-81806896D01*
X218256107Y-81806898D01*
X218847643Y-82398434D01*
X218802305Y-82415629D01*
X218662405Y-82512194D01*
X218549680Y-82639434D01*
X218487913Y-82757122D01*
X217896898Y-82166107D01*
X217896896Y-82166107D01*
X217782207Y-82353264D01*
X217691372Y-82572559D01*
X217635960Y-82803366D01*
X217617337Y-83039999D01*
X217143165Y-83039999D01*
X217124535Y-82803289D01*
X217121629Y-82791186D01*
X217101390Y-82706882D01*
X217069105Y-82572406D01*
X216978240Y-82353037D01*
X216961469Y-82325670D01*
X216854176Y-82150584D01*
X216699969Y-81970030D01*
X216519415Y-81815823D01*
X216316966Y-81691761D01*
X216097594Y-81600895D01*
X215866711Y-81545464D01*
X215630000Y-81526835D01*
X215393288Y-81545464D01*
X215162405Y-81600895D01*
X214943033Y-81691761D01*
X214740584Y-81815823D01*
X214560030Y-81970030D01*
X214405823Y-82150584D01*
X214281761Y-82353033D01*
X214190895Y-82572405D01*
X214135464Y-82803288D01*
X214116835Y-83040000D01*
X213643165Y-83040000D01*
X213624535Y-82803289D01*
X213621629Y-82791186D01*
X213601390Y-82706882D01*
X213569105Y-82572406D01*
X213478240Y-82353037D01*
X213461469Y-82325670D01*
X213354176Y-82150584D01*
X213199969Y-81970030D01*
X213019415Y-81815823D01*
X212816966Y-81691761D01*
X212597594Y-81600895D01*
X212366711Y-81545464D01*
X212147269Y-81528194D01*
X212130000Y-81526835D01*
X212129999Y-81526835D01*
X211893288Y-81545464D01*
X211662405Y-81600895D01*
X211443033Y-81691761D01*
X211240584Y-81815823D01*
X211060030Y-81970030D01*
X210905823Y-82150584D01*
X210781761Y-82353033D01*
X210690895Y-82572405D01*
X210635464Y-82803288D01*
X210616835Y-83039999D01*
X207104293Y-83039999D01*
X207087317Y-83030812D01*
X207036929Y-82980801D01*
X207021576Y-82911484D01*
X207046136Y-82844871D01*
X207087316Y-82809187D01*
X207120576Y-82791189D01*
X207298240Y-82652906D01*
X207450722Y-82487268D01*
X207573860Y-82298791D01*
X207664296Y-82092616D01*
X207719564Y-81874368D01*
X207738156Y-81650000D01*
X207719564Y-81425632D01*
X207664296Y-81207384D01*
X207573860Y-81001209D01*
X207450722Y-80812732D01*
X207298240Y-80647094D01*
X207298239Y-80647093D01*
X207298237Y-80647091D01*
X207120578Y-80508812D01*
X206922573Y-80401657D01*
X206761904Y-80346500D01*
X206709635Y-80328556D01*
X206487569Y-80291500D01*
X206262431Y-80291500D01*
X206040365Y-80328556D01*
X206040362Y-80328556D01*
X206040362Y-80328557D01*
X205827426Y-80401657D01*
X205629421Y-80508812D01*
X205451762Y-80647091D01*
X205299278Y-80812731D01*
X205210483Y-80948643D01*
X205156479Y-80994731D01*
X205086131Y-81004306D01*
X205021774Y-80974328D01*
X204999517Y-80948643D01*
X204991486Y-80936350D01*
X204910722Y-80812732D01*
X204758240Y-80647094D01*
X204758239Y-80647093D01*
X204758237Y-80647091D01*
X204580578Y-80508812D01*
X204382573Y-80401657D01*
X204221904Y-80346500D01*
X204169635Y-80328556D01*
X203947569Y-80291500D01*
X203722431Y-80291500D01*
X203500365Y-80328556D01*
X203500362Y-80328556D01*
X203500362Y-80328557D01*
X203287426Y-80401657D01*
X203089421Y-80508812D01*
X202911762Y-80647091D01*
X202759278Y-80812731D01*
X202670483Y-80948643D01*
X202616479Y-80994731D01*
X202546131Y-81004306D01*
X202481774Y-80974328D01*
X202459517Y-80948643D01*
X202451486Y-80936350D01*
X202370722Y-80812732D01*
X202218240Y-80647094D01*
X202218239Y-80647093D01*
X202218237Y-80647091D01*
X202040578Y-80508812D01*
X201842573Y-80401657D01*
X201681904Y-80346500D01*
X201629635Y-80328556D01*
X201407569Y-80291500D01*
X201182431Y-80291500D01*
X200960365Y-80328556D01*
X200960362Y-80328556D01*
X200960362Y-80328557D01*
X200747426Y-80401657D01*
X200549421Y-80508812D01*
X200371762Y-80647091D01*
X200219278Y-80812731D01*
X200130483Y-80948643D01*
X200076479Y-80994731D01*
X200006131Y-81004306D01*
X199941774Y-80974328D01*
X199919517Y-80948643D01*
X199911486Y-80936350D01*
X199830722Y-80812732D01*
X199678240Y-80647094D01*
X199678239Y-80647093D01*
X199678237Y-80647091D01*
X199500578Y-80508812D01*
X199302573Y-80401657D01*
X199141904Y-80346500D01*
X199089635Y-80328556D01*
X198867569Y-80291500D01*
X198642431Y-80291500D01*
X198420365Y-80328556D01*
X198420362Y-80328556D01*
X198420362Y-80328557D01*
X198207426Y-80401657D01*
X198009421Y-80508812D01*
X197831762Y-80647091D01*
X197679278Y-80812731D01*
X197556139Y-81001209D01*
X197465702Y-81207388D01*
X197417232Y-81398794D01*
X197410436Y-81425632D01*
X197391844Y-81650000D01*
X195177563Y-81650000D01*
X195177510Y-79020000D01*
X236866496Y-79020000D01*
X236869486Y-79048444D01*
X236886458Y-79209929D01*
X236945472Y-79391556D01*
X237040958Y-79556942D01*
X237040960Y-79556944D01*
X237168747Y-79698866D01*
X237323248Y-79811118D01*
X237497712Y-79888794D01*
X237684513Y-79928500D01*
X237684515Y-79928500D01*
X237875485Y-79928500D01*
X237875487Y-79928500D01*
X238062288Y-79888794D01*
X238236752Y-79811118D01*
X238391253Y-79698866D01*
X238519040Y-79556944D01*
X238614527Y-79391556D01*
X238673542Y-79209928D01*
X238693504Y-79020000D01*
X238673542Y-78830072D01*
X238650774Y-78760000D01*
X240146835Y-78760000D01*
X240165464Y-78996711D01*
X240220895Y-79227594D01*
X240311761Y-79446966D01*
X240435823Y-79649415D01*
X240590030Y-79829969D01*
X240770584Y-79984176D01*
X240973033Y-80108238D01*
X240973035Y-80108238D01*
X240973037Y-80108240D01*
X241192406Y-80199105D01*
X241367857Y-80241227D01*
X241423288Y-80254535D01*
X241440558Y-80255894D01*
X241660000Y-80273165D01*
X241896711Y-80254535D01*
X242127594Y-80199105D01*
X242346963Y-80108240D01*
X242549416Y-79984176D01*
X242729969Y-79829969D01*
X242884176Y-79649416D01*
X243008240Y-79446963D01*
X243019408Y-79420000D01*
X246646496Y-79420000D01*
X246666458Y-79609929D01*
X246725472Y-79791556D01*
X246820958Y-79956942D01*
X246948747Y-80098866D01*
X247103248Y-80211118D01*
X247277712Y-80288794D01*
X247464513Y-80328500D01*
X247464515Y-80328500D01*
X247655485Y-80328500D01*
X247655487Y-80328500D01*
X247842288Y-80288794D01*
X248016752Y-80211118D01*
X248171253Y-80098866D01*
X248299040Y-79956944D01*
X248394527Y-79791556D01*
X248453542Y-79609928D01*
X248473504Y-79420000D01*
X248453542Y-79230072D01*
X248422931Y-79135862D01*
X248413602Y-79107150D01*
X262322000Y-79107150D01*
X262322226Y-79112473D01*
X262337234Y-79288815D01*
X262397626Y-79520752D01*
X262496353Y-79739159D01*
X262630564Y-79937731D01*
X262796405Y-80110767D01*
X262989105Y-80253287D01*
X263203123Y-80361193D01*
X263432292Y-80431375D01*
X263476000Y-80436972D01*
X263476000Y-79361685D01*
X263491955Y-79377641D01*
X263604852Y-79435165D01*
X263730000Y-79454986D01*
X263855148Y-79435165D01*
X263968045Y-79377641D01*
X263984000Y-79361686D01*
X263984000Y-80435586D01*
X264143782Y-80401152D01*
X264366178Y-80311784D01*
X264570271Y-80186119D01*
X264750188Y-80027774D01*
X264900762Y-79841291D01*
X265017647Y-79632057D01*
X265097494Y-79406067D01*
X265138000Y-79169835D01*
X265138000Y-78204000D01*
X264130000Y-78204000D01*
X264130000Y-77696000D01*
X265138000Y-77696000D01*
X265138000Y-76792849D01*
X265137773Y-76787526D01*
X265122765Y-76611184D01*
X265062373Y-76379247D01*
X264963646Y-76160840D01*
X264829435Y-75962268D01*
X264663594Y-75789232D01*
X264470894Y-75646712D01*
X264256878Y-75538807D01*
X264027708Y-75468624D01*
X263984000Y-75463026D01*
X263984000Y-76538314D01*
X263968045Y-76522359D01*
X263855148Y-76464835D01*
X263730000Y-76445014D01*
X263604852Y-76464835D01*
X263491955Y-76522359D01*
X263476000Y-76538313D01*
X263476000Y-75464412D01*
X263316213Y-75498850D01*
X263093823Y-75588214D01*
X262889728Y-75713880D01*
X262709811Y-75872225D01*
X262559237Y-76058708D01*
X262442352Y-76267942D01*
X262362505Y-76493932D01*
X262322000Y-76730164D01*
X262322000Y-77696000D01*
X263330000Y-77696000D01*
X263330000Y-78204000D01*
X262322000Y-78204000D01*
X262322000Y-79107150D01*
X248413602Y-79107150D01*
X248394527Y-79048443D01*
X248299041Y-78883057D01*
X248171252Y-78741133D01*
X248080840Y-78675445D01*
X248016752Y-78628882D01*
X247842288Y-78551206D01*
X247655487Y-78511500D01*
X247464513Y-78511500D01*
X247339979Y-78537970D01*
X247277711Y-78551206D01*
X247103246Y-78628883D01*
X246948747Y-78741133D01*
X246820958Y-78883057D01*
X246725472Y-79048443D01*
X246666458Y-79230070D01*
X246646496Y-79420000D01*
X243019408Y-79420000D01*
X243099105Y-79227594D01*
X243154535Y-78996711D01*
X243173165Y-78760000D01*
X243154535Y-78523289D01*
X243099105Y-78292406D01*
X243008240Y-78073037D01*
X243008238Y-78073033D01*
X242884176Y-77870583D01*
X242808373Y-77781829D01*
X242779342Y-77717039D01*
X242789947Y-77646839D01*
X242808368Y-77618174D01*
X242883678Y-77529999D01*
X247716496Y-77529999D01*
X247736458Y-77719929D01*
X247795472Y-77901556D01*
X247890958Y-78066942D01*
X247896446Y-78073037D01*
X248018747Y-78208866D01*
X248173248Y-78321118D01*
X248347712Y-78398794D01*
X248534513Y-78438500D01*
X248534515Y-78438500D01*
X248725485Y-78438500D01*
X248725487Y-78438500D01*
X248912288Y-78398794D01*
X249086752Y-78321118D01*
X249241253Y-78208866D01*
X249369040Y-78066944D01*
X249464527Y-77901556D01*
X249523542Y-77719928D01*
X249543504Y-77530000D01*
X249523542Y-77340072D01*
X249466488Y-77164479D01*
X249464527Y-77158443D01*
X249369041Y-76993057D01*
X249241252Y-76851133D01*
X249086753Y-76738883D01*
X249086752Y-76738882D01*
X248912288Y-76661206D01*
X248725487Y-76621500D01*
X248534513Y-76621500D01*
X248447483Y-76639999D01*
X248347711Y-76661206D01*
X248173246Y-76738883D01*
X248018747Y-76851133D01*
X247890958Y-76993057D01*
X247795472Y-77158443D01*
X247736458Y-77340070D01*
X247716496Y-77529999D01*
X242883678Y-77529999D01*
X242884176Y-77529416D01*
X243008240Y-77326963D01*
X243099105Y-77107594D01*
X243154535Y-76876711D01*
X243173165Y-76640000D01*
X243154535Y-76403289D01*
X243143695Y-76358139D01*
X243127337Y-76290000D01*
X243099105Y-76172406D01*
X243008240Y-75953037D01*
X242987041Y-75918444D01*
X242972850Y-75895287D01*
X256221499Y-75895287D01*
X256221500Y-75898638D01*
X256228011Y-75959201D01*
X256249740Y-76017457D01*
X256279111Y-76096205D01*
X256366738Y-76213261D01*
X256483794Y-76300888D01*
X256483795Y-76300888D01*
X256483796Y-76300889D01*
X256620799Y-76351989D01*
X256681362Y-76358500D01*
X256684731Y-76358500D01*
X261175269Y-76358500D01*
X261178638Y-76358500D01*
X261239201Y-76351989D01*
X261376204Y-76300889D01*
X261493261Y-76213261D01*
X261580889Y-76096204D01*
X261631989Y-75959201D01*
X261638500Y-75898638D01*
X261638500Y-74961014D01*
X261658502Y-74892894D01*
X261712158Y-74846401D01*
X261782432Y-74836297D01*
X261838560Y-74859079D01*
X261848248Y-74866118D01*
X262022712Y-74943794D01*
X262209513Y-74983500D01*
X262209515Y-74983500D01*
X262400485Y-74983500D01*
X262400487Y-74983500D01*
X262587288Y-74943794D01*
X262761752Y-74866118D01*
X262916253Y-74753866D01*
X263044040Y-74611944D01*
X263139527Y-74446556D01*
X263198542Y-74264928D01*
X263218504Y-74075000D01*
X263198542Y-73885072D01*
X263139527Y-73703444D01*
X263139527Y-73703443D01*
X263044041Y-73538057D01*
X262916252Y-73396133D01*
X262761753Y-73283883D01*
X262761752Y-73283882D01*
X262587288Y-73206206D01*
X262400487Y-73166500D01*
X262209513Y-73166500D01*
X262084978Y-73192970D01*
X262022711Y-73206206D01*
X261848246Y-73283883D01*
X261693745Y-73396135D01*
X261565960Y-73538054D01*
X261555063Y-73556929D01*
X261503679Y-73605920D01*
X261433965Y-73619354D01*
X261393784Y-73603819D01*
X261393179Y-73605442D01*
X261312320Y-73575283D01*
X261239201Y-73548011D01*
X261178638Y-73541500D01*
X256681362Y-73541500D01*
X256678013Y-73541859D01*
X256678013Y-73541860D01*
X256620799Y-73548011D01*
X256483794Y-73599111D01*
X256366738Y-73686738D01*
X256279111Y-73803794D01*
X256248797Y-73885070D01*
X256228011Y-73940799D01*
X256221500Y-74001362D01*
X256221499Y-74004711D01*
X256221499Y-74004730D01*
X256221499Y-75895269D01*
X256221499Y-75895287D01*
X242972850Y-75895287D01*
X242884176Y-75750584D01*
X242729969Y-75570030D01*
X242549415Y-75415823D01*
X242346966Y-75291761D01*
X242127594Y-75200895D01*
X241896711Y-75145464D01*
X241660000Y-75126835D01*
X241423288Y-75145464D01*
X241192405Y-75200895D01*
X240973033Y-75291761D01*
X240770584Y-75415823D01*
X240590030Y-75570030D01*
X240435823Y-75750584D01*
X240311761Y-75953033D01*
X240220895Y-76172405D01*
X240165464Y-76403288D01*
X240146835Y-76639999D01*
X240165464Y-76876711D01*
X240220895Y-77107594D01*
X240311761Y-77326966D01*
X240330047Y-77356805D01*
X240435824Y-77529416D01*
X240483164Y-77584844D01*
X240511627Y-77618170D01*
X240540657Y-77682960D01*
X240530052Y-77753160D01*
X240511627Y-77781830D01*
X240435821Y-77870588D01*
X240311761Y-78073033D01*
X240220895Y-78292405D01*
X240165464Y-78523288D01*
X240146835Y-78760000D01*
X238650774Y-78760000D01*
X238614527Y-78648444D01*
X238614527Y-78648443D01*
X238519041Y-78483057D01*
X238391252Y-78341133D01*
X238236753Y-78228883D01*
X238236752Y-78228882D01*
X238062288Y-78151206D01*
X237875487Y-78111500D01*
X237684513Y-78111500D01*
X237559978Y-78137970D01*
X237497711Y-78151206D01*
X237323246Y-78228883D01*
X237168747Y-78341133D01*
X237040958Y-78483057D01*
X236945472Y-78648443D01*
X236886458Y-78830070D01*
X236886457Y-78830072D01*
X236886458Y-78830072D01*
X236866496Y-79020000D01*
X195177510Y-79020000D01*
X195177425Y-74835000D01*
X195796844Y-74835000D01*
X195815436Y-75059368D01*
X195815436Y-75059371D01*
X195815437Y-75059372D01*
X195870702Y-75277611D01*
X195961139Y-75483790D01*
X196044337Y-75611134D01*
X196084278Y-75672268D01*
X196193688Y-75791118D01*
X196227841Y-75828217D01*
X196259262Y-75891882D01*
X196251275Y-75962428D01*
X196206416Y-76017457D01*
X196179173Y-76031611D01*
X196064036Y-76074554D01*
X195947095Y-76162095D01*
X195859554Y-76279037D01*
X195808505Y-76415906D01*
X195802359Y-76473063D01*
X195802000Y-76479777D01*
X195802000Y-77121000D01*
X196728884Y-77121000D01*
X196700507Y-77165156D01*
X196660000Y-77303111D01*
X196660000Y-77446889D01*
X196700507Y-77584844D01*
X196728884Y-77629000D01*
X195802000Y-77629000D01*
X195802000Y-78270222D01*
X195802359Y-78276936D01*
X195808505Y-78334093D01*
X195859554Y-78470962D01*
X195947095Y-78587904D01*
X196064037Y-78675445D01*
X196200906Y-78726494D01*
X196258063Y-78732640D01*
X196264777Y-78733000D01*
X196906000Y-78733000D01*
X196906000Y-77808674D01*
X197017685Y-77859680D01*
X197124237Y-77875000D01*
X197195763Y-77875000D01*
X197302315Y-77859680D01*
X197414000Y-77808674D01*
X197414000Y-78733000D01*
X198055223Y-78733000D01*
X198061936Y-78732640D01*
X198119093Y-78726494D01*
X198255962Y-78675445D01*
X198372904Y-78587904D01*
X198460445Y-78470962D01*
X198511494Y-78334093D01*
X198517640Y-78276936D01*
X198518000Y-78270222D01*
X198518000Y-77629000D01*
X197591116Y-77629000D01*
X197619493Y-77584844D01*
X197660000Y-77446889D01*
X197660000Y-77303111D01*
X197619493Y-77165156D01*
X197591116Y-77121000D01*
X198518000Y-77121000D01*
X198518000Y-76479777D01*
X198517640Y-76473063D01*
X198511494Y-76415906D01*
X198464534Y-76290000D01*
X207976496Y-76290000D01*
X207983011Y-76351988D01*
X207996458Y-76479929D01*
X208055472Y-76661556D01*
X208150958Y-76826942D01*
X208150960Y-76826944D01*
X208278747Y-76968866D01*
X208433248Y-77081118D01*
X208607712Y-77158794D01*
X208794513Y-77198500D01*
X208794515Y-77198500D01*
X208985485Y-77198500D01*
X208985487Y-77198500D01*
X209172288Y-77158794D01*
X209346752Y-77081118D01*
X209501253Y-76968866D01*
X209629040Y-76826944D01*
X209724527Y-76661556D01*
X209783542Y-76479928D01*
X209803504Y-76290000D01*
X209794169Y-76201182D01*
X211109500Y-76201182D01*
X211148604Y-76460615D01*
X211148605Y-76460618D01*
X211225936Y-76711323D01*
X211339772Y-76947704D01*
X211487563Y-77164474D01*
X211487565Y-77164476D01*
X211487567Y-77164479D01*
X211666019Y-77356805D01*
X211871143Y-77520386D01*
X212098357Y-77651568D01*
X212342584Y-77747420D01*
X212598370Y-77805802D01*
X212794506Y-77820500D01*
X212796859Y-77820500D01*
X212923141Y-77820500D01*
X212925494Y-77820500D01*
X213121630Y-77805802D01*
X213377416Y-77747420D01*
X213621643Y-77651568D01*
X213848857Y-77520386D01*
X214053981Y-77356805D01*
X214232433Y-77164479D01*
X214380228Y-76947704D01*
X214494063Y-76711323D01*
X214571396Y-76460615D01*
X214610500Y-76201182D01*
X214610500Y-75938818D01*
X214571396Y-75679385D01*
X214512807Y-75489444D01*
X214494063Y-75428676D01*
X214421316Y-75277616D01*
X214380228Y-75192296D01*
X214232433Y-74975521D01*
X214053981Y-74783195D01*
X213848857Y-74619614D01*
X213621643Y-74488432D01*
X213514945Y-74446556D01*
X213377417Y-74392580D01*
X213121630Y-74334198D01*
X212927836Y-74319675D01*
X212927822Y-74319674D01*
X212925494Y-74319500D01*
X212794506Y-74319500D01*
X212792178Y-74319674D01*
X212792163Y-74319675D01*
X212598369Y-74334198D01*
X212342582Y-74392580D01*
X212098356Y-74488432D01*
X211871146Y-74619612D01*
X211871143Y-74619614D01*
X211666019Y-74783195D01*
X211527525Y-74932455D01*
X211487563Y-74975525D01*
X211339772Y-75192295D01*
X211225936Y-75428676D01*
X211148764Y-75678866D01*
X211148604Y-75679385D01*
X211109500Y-75938818D01*
X211109500Y-76201182D01*
X209794169Y-76201182D01*
X209783542Y-76100072D01*
X209743290Y-75976189D01*
X209724527Y-75918443D01*
X209629041Y-75753057D01*
X209540699Y-75654943D01*
X209501253Y-75611134D01*
X209469706Y-75588214D01*
X209346753Y-75498883D01*
X209346752Y-75498882D01*
X209172288Y-75421206D01*
X208985487Y-75381500D01*
X208794513Y-75381500D01*
X208674809Y-75406944D01*
X208607711Y-75421206D01*
X208433246Y-75498883D01*
X208278747Y-75611133D01*
X208150958Y-75753057D01*
X208055472Y-75918443D01*
X207996458Y-76100070D01*
X207988855Y-76172406D01*
X207976496Y-76290000D01*
X198464534Y-76290000D01*
X198460445Y-76279037D01*
X198372904Y-76162095D01*
X198255962Y-76074554D01*
X198140827Y-76031611D01*
X198083991Y-75989064D01*
X198059180Y-75922544D01*
X198074271Y-75853170D01*
X198092152Y-75828224D01*
X198235722Y-75672268D01*
X198358860Y-75483791D01*
X198449296Y-75277616D01*
X198504564Y-75059368D01*
X198523156Y-74835000D01*
X198504564Y-74610632D01*
X198449296Y-74392384D01*
X198358860Y-74186209D01*
X198346963Y-74168000D01*
X199550844Y-74168000D01*
X199569436Y-74392368D01*
X199569436Y-74392371D01*
X199569437Y-74392372D01*
X199624702Y-74610611D01*
X199715139Y-74816790D01*
X199798114Y-74943793D01*
X199838278Y-75005268D01*
X199950189Y-75126835D01*
X199990762Y-75170908D01*
X200168421Y-75309187D01*
X200168424Y-75309189D01*
X200366426Y-75416342D01*
X200579365Y-75489444D01*
X200801431Y-75526500D01*
X200801434Y-75526500D01*
X201026566Y-75526500D01*
X201026569Y-75526500D01*
X201248635Y-75489444D01*
X201461574Y-75416342D01*
X201659576Y-75309189D01*
X201837240Y-75170906D01*
X201989722Y-75005268D01*
X202112860Y-74816791D01*
X202203296Y-74610616D01*
X202258564Y-74392368D01*
X202277156Y-74168000D01*
X202258564Y-73943632D01*
X202203296Y-73725384D01*
X202112860Y-73519209D01*
X201989722Y-73330732D01*
X201837240Y-73165094D01*
X201837239Y-73165093D01*
X201837237Y-73165091D01*
X201659579Y-73026813D01*
X201659577Y-73026812D01*
X201659576Y-73026811D01*
X201626317Y-73008812D01*
X201575929Y-72958801D01*
X201560576Y-72889484D01*
X201585136Y-72822871D01*
X201626316Y-72787187D01*
X201659576Y-72769189D01*
X201837240Y-72630906D01*
X201989722Y-72465268D01*
X202112860Y-72276791D01*
X202155317Y-72179999D01*
X203876496Y-72179999D01*
X203896458Y-72369929D01*
X203955472Y-72551556D01*
X204050958Y-72716942D01*
X204109086Y-72781500D01*
X204178747Y-72858866D01*
X204333248Y-72971118D01*
X204507712Y-73048794D01*
X204694513Y-73088500D01*
X204694515Y-73088500D01*
X204885485Y-73088500D01*
X204885487Y-73088500D01*
X205072288Y-73048794D01*
X205246752Y-72971118D01*
X205401253Y-72858866D01*
X205529040Y-72716944D01*
X205624527Y-72551556D01*
X205683542Y-72369928D01*
X205703504Y-72180000D01*
X205683542Y-71990072D01*
X205652931Y-71895862D01*
X205624527Y-71808443D01*
X205529041Y-71643057D01*
X205401252Y-71501133D01*
X205324002Y-71445008D01*
X205246752Y-71388882D01*
X205072288Y-71311206D01*
X204885487Y-71271500D01*
X204694513Y-71271500D01*
X204574809Y-71296944D01*
X204507711Y-71311206D01*
X204333246Y-71388883D01*
X204178747Y-71501133D01*
X204050958Y-71643057D01*
X203955472Y-71808443D01*
X203896458Y-71990070D01*
X203876496Y-72179999D01*
X202155317Y-72179999D01*
X202203296Y-72070616D01*
X202258564Y-71852368D01*
X202277156Y-71628000D01*
X202258564Y-71403632D01*
X202203296Y-71185384D01*
X202112860Y-70979209D01*
X201989722Y-70790732D01*
X201837240Y-70625094D01*
X201837238Y-70625092D01*
X201837235Y-70625089D01*
X201659579Y-70486813D01*
X201659577Y-70486812D01*
X201659576Y-70486811D01*
X201626317Y-70468812D01*
X201575929Y-70418801D01*
X201560576Y-70349484D01*
X201585136Y-70282871D01*
X201626316Y-70247187D01*
X201659576Y-70229189D01*
X201837240Y-70090906D01*
X201989722Y-69925268D01*
X202112860Y-69736791D01*
X202203296Y-69530616D01*
X202258564Y-69312368D01*
X202277156Y-69088000D01*
X202264892Y-68940000D01*
X218616496Y-68940000D01*
X218636458Y-69129929D01*
X218695472Y-69311556D01*
X218790958Y-69476942D01*
X218868496Y-69563057D01*
X218918747Y-69618866D01*
X219073248Y-69731118D01*
X219247712Y-69808794D01*
X219434513Y-69848500D01*
X219434515Y-69848500D01*
X219625485Y-69848500D01*
X219625487Y-69848500D01*
X219812288Y-69808794D01*
X219986752Y-69731118D01*
X220141253Y-69618866D01*
X220269040Y-69476944D01*
X220364527Y-69311556D01*
X220423542Y-69129928D01*
X220443504Y-68940000D01*
X220423542Y-68750072D01*
X220373420Y-68595814D01*
X220364527Y-68568443D01*
X220269041Y-68403057D01*
X220141252Y-68261133D01*
X219999990Y-68158500D01*
X219986752Y-68148882D01*
X219812288Y-68071206D01*
X219625487Y-68031500D01*
X219434513Y-68031500D01*
X219336808Y-68052268D01*
X219247711Y-68071206D01*
X219073246Y-68148883D01*
X218918747Y-68261133D01*
X218790958Y-68403057D01*
X218695472Y-68568443D01*
X218636458Y-68750070D01*
X218616496Y-68940000D01*
X202264892Y-68940000D01*
X202258564Y-68863632D01*
X202203296Y-68645384D01*
X202112860Y-68439209D01*
X201989722Y-68250732D01*
X201837240Y-68085094D01*
X201837239Y-68085093D01*
X201837237Y-68085091D01*
X201659579Y-67946813D01*
X201659577Y-67946812D01*
X201659576Y-67946811D01*
X201626317Y-67928812D01*
X201575929Y-67878801D01*
X201560576Y-67809484D01*
X201585136Y-67742871D01*
X201626316Y-67707187D01*
X201659576Y-67689189D01*
X201837240Y-67550906D01*
X201989722Y-67385268D01*
X202112860Y-67196791D01*
X202203296Y-66990616D01*
X202258564Y-66772368D01*
X202277156Y-66548000D01*
X202258564Y-66323632D01*
X202203296Y-66105384D01*
X202112860Y-65899209D01*
X201989722Y-65710732D01*
X201846157Y-65554780D01*
X201814737Y-65491117D01*
X201822724Y-65420571D01*
X201867583Y-65365542D01*
X201894827Y-65351388D01*
X202009963Y-65308445D01*
X202126904Y-65220904D01*
X202214445Y-65103962D01*
X202265494Y-64967093D01*
X202271640Y-64909936D01*
X202272000Y-64903222D01*
X202272000Y-64350000D01*
X204546496Y-64350000D01*
X204566458Y-64539929D01*
X204625472Y-64721556D01*
X204720958Y-64886942D01*
X204732150Y-64899372D01*
X204848747Y-65028866D01*
X205003248Y-65141118D01*
X205177712Y-65218794D01*
X205364513Y-65258500D01*
X205364515Y-65258500D01*
X205555485Y-65258500D01*
X205555487Y-65258500D01*
X205742288Y-65218794D01*
X205916752Y-65141118D01*
X206071253Y-65028866D01*
X206199040Y-64886944D01*
X206283878Y-64740000D01*
X222316496Y-64740000D01*
X222336458Y-64929929D01*
X222395472Y-65111556D01*
X222490958Y-65276942D01*
X222593160Y-65390449D01*
X222618747Y-65418866D01*
X222773248Y-65531118D01*
X222947712Y-65608794D01*
X223134513Y-65648500D01*
X223134515Y-65648500D01*
X223325485Y-65648500D01*
X223325487Y-65648500D01*
X223512288Y-65608794D01*
X223686752Y-65531118D01*
X223841253Y-65418866D01*
X223969040Y-65276944D01*
X224064527Y-65111556D01*
X224123542Y-64929928D01*
X224134683Y-64823919D01*
X224161695Y-64758267D01*
X224219916Y-64717637D01*
X224290861Y-64714934D01*
X224352006Y-64751015D01*
X224369111Y-64774094D01*
X224466784Y-64943268D01*
X224538626Y-65023057D01*
X224594573Y-65085192D01*
X224749074Y-65197444D01*
X224923538Y-65275120D01*
X225110339Y-65314826D01*
X225110341Y-65314826D01*
X225301311Y-65314826D01*
X225301313Y-65314826D01*
X225488114Y-65275120D01*
X225662578Y-65197444D01*
X225680591Y-65184356D01*
X225747454Y-65160498D01*
X225816606Y-65176576D01*
X225855520Y-65210784D01*
X225863096Y-65220905D01*
X225980037Y-65308445D01*
X226095172Y-65351388D01*
X226152008Y-65393935D01*
X226176819Y-65460455D01*
X226161728Y-65529829D01*
X226143841Y-65554782D01*
X226000278Y-65710731D01*
X225877139Y-65899209D01*
X225786702Y-66105388D01*
X225731437Y-66323627D01*
X225731436Y-66323632D01*
X225712844Y-66548000D01*
X225731436Y-66772368D01*
X225731436Y-66772371D01*
X225731437Y-66772372D01*
X225786702Y-66990611D01*
X225786703Y-66990614D01*
X225786704Y-66990616D01*
X225789725Y-66997503D01*
X225877139Y-67196790D01*
X225911902Y-67249999D01*
X226000278Y-67385268D01*
X226137606Y-67534445D01*
X226152762Y-67550908D01*
X226330418Y-67689185D01*
X226330420Y-67689186D01*
X226330424Y-67689189D01*
X226363682Y-67707187D01*
X226414071Y-67757200D01*
X226429423Y-67826517D01*
X226404862Y-67893130D01*
X226363683Y-67928812D01*
X226340238Y-67941500D01*
X226330418Y-67946814D01*
X226152762Y-68085091D01*
X226000278Y-68250731D01*
X225877139Y-68439209D01*
X225786702Y-68645388D01*
X225745039Y-68809914D01*
X225731436Y-68863632D01*
X225712844Y-69088000D01*
X225731436Y-69312368D01*
X225731436Y-69312371D01*
X225731437Y-69312372D01*
X225786702Y-69530611D01*
X225786703Y-69530614D01*
X225786704Y-69530616D01*
X225799459Y-69559694D01*
X225877139Y-69736790D01*
X226000278Y-69925268D01*
X226152762Y-70090908D01*
X226330418Y-70229185D01*
X226330420Y-70229186D01*
X226330424Y-70229189D01*
X226363682Y-70247187D01*
X226414071Y-70297200D01*
X226429423Y-70366517D01*
X226404862Y-70433130D01*
X226363683Y-70468812D01*
X226338794Y-70482281D01*
X226330418Y-70486814D01*
X226152765Y-70625089D01*
X226152761Y-70625092D01*
X226152760Y-70625094D01*
X226106808Y-70675010D01*
X226000278Y-70790731D01*
X225877139Y-70979209D01*
X225786702Y-71185388D01*
X225736154Y-71385000D01*
X225731436Y-71403632D01*
X225712844Y-71628000D01*
X225731436Y-71852368D01*
X225731436Y-71852371D01*
X225731437Y-71852372D01*
X225786702Y-72070611D01*
X225877139Y-72276790D01*
X225937989Y-72369928D01*
X226000278Y-72465268D01*
X226151990Y-72630070D01*
X226152762Y-72630908D01*
X226220386Y-72683542D01*
X226330424Y-72769189D01*
X226363682Y-72787187D01*
X226414070Y-72837197D01*
X226429423Y-72906513D01*
X226404863Y-72973127D01*
X226363683Y-73008811D01*
X226330423Y-73026810D01*
X226152762Y-73165091D01*
X226000278Y-73330731D01*
X225877139Y-73519209D01*
X225786702Y-73725388D01*
X225746265Y-73885072D01*
X225731436Y-73943632D01*
X225712844Y-74168000D01*
X225731436Y-74392368D01*
X225731436Y-74392371D01*
X225731437Y-74392372D01*
X225786702Y-74610611D01*
X225877139Y-74816790D01*
X225960114Y-74943793D01*
X226000278Y-75005268D01*
X226112189Y-75126835D01*
X226152762Y-75170908D01*
X226330421Y-75309187D01*
X226330424Y-75309189D01*
X226528426Y-75416342D01*
X226741365Y-75489444D01*
X226963431Y-75526500D01*
X226963434Y-75526500D01*
X227188566Y-75526500D01*
X227188569Y-75526500D01*
X227410635Y-75489444D01*
X227623574Y-75416342D01*
X227821576Y-75309189D01*
X227999240Y-75170906D01*
X228151722Y-75005268D01*
X228240097Y-74870000D01*
X235856496Y-74870000D01*
X235876458Y-75059929D01*
X235935472Y-75241556D01*
X236030958Y-75406942D01*
X236050528Y-75428677D01*
X236158747Y-75548866D01*
X236313248Y-75661118D01*
X236487712Y-75738794D01*
X236674513Y-75778500D01*
X236674515Y-75778500D01*
X236865485Y-75778500D01*
X236865487Y-75778500D01*
X237052288Y-75738794D01*
X237226752Y-75661118D01*
X237259511Y-75637316D01*
X237326374Y-75613459D01*
X237395526Y-75629538D01*
X237427206Y-75654943D01*
X237442805Y-75672267D01*
X237448747Y-75678866D01*
X237603248Y-75791118D01*
X237777712Y-75868794D01*
X237964513Y-75908500D01*
X237964515Y-75908500D01*
X238155485Y-75908500D01*
X238155487Y-75908500D01*
X238342288Y-75868794D01*
X238516752Y-75791118D01*
X238671253Y-75678866D01*
X238799040Y-75536944D01*
X238894527Y-75371556D01*
X238953542Y-75189928D01*
X238973504Y-75000000D01*
X238953542Y-74810072D01*
X238911302Y-74680072D01*
X238894527Y-74628443D01*
X238799041Y-74463057D01*
X238683016Y-74334198D01*
X238671253Y-74321134D01*
X238641293Y-74299367D01*
X238541609Y-74226942D01*
X238516752Y-74208882D01*
X238342288Y-74131206D01*
X238155487Y-74091500D01*
X237964513Y-74091500D01*
X237839979Y-74117970D01*
X237777711Y-74131206D01*
X237603246Y-74208883D01*
X237570490Y-74232682D01*
X237503622Y-74256541D01*
X237434470Y-74240460D01*
X237402792Y-74215056D01*
X237381251Y-74191132D01*
X237226753Y-74078883D01*
X237226752Y-74078882D01*
X237052288Y-74001206D01*
X236865487Y-73961500D01*
X236674513Y-73961500D01*
X236549979Y-73987970D01*
X236487711Y-74001206D01*
X236313246Y-74078883D01*
X236158747Y-74191133D01*
X236030958Y-74333057D01*
X235935472Y-74498443D01*
X235876458Y-74680070D01*
X235856496Y-74870000D01*
X228240097Y-74870000D01*
X228274860Y-74816791D01*
X228365296Y-74610616D01*
X228420564Y-74392368D01*
X228439156Y-74168000D01*
X228420564Y-73943632D01*
X228365296Y-73725384D01*
X228349775Y-73690000D01*
X230556496Y-73690000D01*
X230576458Y-73879929D01*
X230635472Y-74061556D01*
X230730958Y-74226942D01*
X230743130Y-74240460D01*
X230858747Y-74368866D01*
X231013248Y-74481118D01*
X231187712Y-74558794D01*
X231374513Y-74598500D01*
X231374515Y-74598500D01*
X231565485Y-74598500D01*
X231565487Y-74598500D01*
X231752288Y-74558794D01*
X231926752Y-74481118D01*
X232081253Y-74368866D01*
X232209040Y-74226944D01*
X232304527Y-74061556D01*
X232363542Y-73879928D01*
X232383504Y-73690000D01*
X232363542Y-73500072D01*
X232308520Y-73330732D01*
X232304527Y-73318443D01*
X232209041Y-73153057D01*
X232115161Y-73048793D01*
X232081253Y-73011134D01*
X232079594Y-73009929D01*
X231983380Y-72940025D01*
X231926752Y-72898882D01*
X231752288Y-72821206D01*
X231746614Y-72820000D01*
X241766496Y-72820000D01*
X241768304Y-72837200D01*
X241786458Y-73009929D01*
X241845472Y-73191556D01*
X241940958Y-73356942D01*
X241940960Y-73356944D01*
X242068747Y-73498866D01*
X242223248Y-73611118D01*
X242397712Y-73688794D01*
X242584513Y-73728500D01*
X242584515Y-73728500D01*
X242775485Y-73728500D01*
X242775487Y-73728500D01*
X242962288Y-73688794D01*
X243136752Y-73611118D01*
X243291253Y-73498866D01*
X243419040Y-73356944D01*
X243514527Y-73191556D01*
X243573542Y-73009928D01*
X243593504Y-72820000D01*
X243573542Y-72630072D01*
X243537572Y-72519368D01*
X243514527Y-72448443D01*
X243419041Y-72283057D01*
X243291252Y-72141133D01*
X243161345Y-72046750D01*
X243136752Y-72028882D01*
X242962288Y-71951206D01*
X242775487Y-71911500D01*
X242584513Y-71911500D01*
X242464141Y-71937086D01*
X242397711Y-71951206D01*
X242223246Y-72028883D01*
X242068747Y-72141133D01*
X241940958Y-72283057D01*
X241845472Y-72448443D01*
X241786458Y-72630070D01*
X241786457Y-72630072D01*
X241786458Y-72630072D01*
X241766496Y-72820000D01*
X231746614Y-72820000D01*
X231565487Y-72781500D01*
X231374513Y-72781500D01*
X231249978Y-72807970D01*
X231187711Y-72821206D01*
X231013246Y-72898883D01*
X230858747Y-73011133D01*
X230730958Y-73153057D01*
X230635472Y-73318443D01*
X230576458Y-73500070D01*
X230556496Y-73690000D01*
X228349775Y-73690000D01*
X228274860Y-73519209D01*
X228151722Y-73330732D01*
X227999240Y-73165094D01*
X227999239Y-73165093D01*
X227999237Y-73165091D01*
X227821578Y-73026812D01*
X227788317Y-73008812D01*
X227737927Y-72958798D01*
X227722576Y-72889481D01*
X227747138Y-72822868D01*
X227788315Y-72787188D01*
X227821576Y-72769189D01*
X227999240Y-72630906D01*
X228151722Y-72465268D01*
X228274860Y-72276791D01*
X228365296Y-72070616D01*
X228420564Y-71852368D01*
X228439156Y-71628000D01*
X228420564Y-71403632D01*
X228365296Y-71185384D01*
X228348008Y-71145970D01*
X234256160Y-71145970D01*
X234276122Y-71335899D01*
X234335136Y-71517526D01*
X234430622Y-71682912D01*
X234430624Y-71682914D01*
X234558411Y-71824836D01*
X234712912Y-71937088D01*
X234887376Y-72014764D01*
X235074177Y-72054470D01*
X235074179Y-72054470D01*
X235265149Y-72054470D01*
X235265151Y-72054470D01*
X235451952Y-72014764D01*
X235626416Y-71937088D01*
X235780917Y-71824836D01*
X235908704Y-71682914D01*
X236004191Y-71517526D01*
X236047252Y-71385000D01*
X243541496Y-71385000D01*
X243561458Y-71574929D01*
X243620472Y-71756556D01*
X243715958Y-71921942D01*
X243799535Y-72014764D01*
X243843747Y-72063866D01*
X243998248Y-72176118D01*
X244172712Y-72253794D01*
X244359513Y-72293500D01*
X244359515Y-72293500D01*
X244550485Y-72293500D01*
X244550487Y-72293500D01*
X244737288Y-72253794D01*
X244911752Y-72176118D01*
X245066253Y-72063866D01*
X245194040Y-71921944D01*
X245289527Y-71756556D01*
X245348542Y-71574928D01*
X245368504Y-71385000D01*
X245348542Y-71195072D01*
X245289527Y-71013444D01*
X245289527Y-71013443D01*
X245194041Y-70848057D01*
X245066252Y-70706133D01*
X244989002Y-70650007D01*
X244911752Y-70593882D01*
X244737288Y-70516206D01*
X244550487Y-70476500D01*
X244359513Y-70476500D01*
X244234979Y-70502970D01*
X244172711Y-70516206D01*
X243998246Y-70593883D01*
X243843747Y-70706133D01*
X243715958Y-70848057D01*
X243620472Y-71013443D01*
X243561458Y-71195070D01*
X243541496Y-71385000D01*
X236047252Y-71385000D01*
X236063206Y-71335898D01*
X236083168Y-71145970D01*
X236063206Y-70956042D01*
X236004191Y-70774414D01*
X236004191Y-70774413D01*
X235908705Y-70609027D01*
X235780916Y-70467103D01*
X235642471Y-70366517D01*
X235626416Y-70354852D01*
X235451952Y-70277176D01*
X235265151Y-70237470D01*
X235074177Y-70237470D01*
X234949642Y-70263940D01*
X234887375Y-70277176D01*
X234712910Y-70354853D01*
X234558411Y-70467103D01*
X234430622Y-70609027D01*
X234335136Y-70774413D01*
X234276122Y-70956040D01*
X234256160Y-71145970D01*
X228348008Y-71145970D01*
X228274860Y-70979209D01*
X228151722Y-70790732D01*
X227999240Y-70625094D01*
X227999238Y-70625092D01*
X227999235Y-70625089D01*
X227821579Y-70486813D01*
X227821577Y-70486812D01*
X227821576Y-70486811D01*
X227788317Y-70468812D01*
X227737929Y-70418801D01*
X227722576Y-70349484D01*
X227747136Y-70282871D01*
X227788316Y-70247187D01*
X227821576Y-70229189D01*
X227999240Y-70090906D01*
X228151722Y-69925268D01*
X228274860Y-69736791D01*
X228286730Y-69709730D01*
X247232132Y-69709730D01*
X247252094Y-69899659D01*
X247311108Y-70081286D01*
X247406594Y-70246672D01*
X247435032Y-70278255D01*
X247465749Y-70342262D01*
X247461229Y-70401501D01*
X247423960Y-70516206D01*
X247406458Y-70570072D01*
X247389308Y-70733249D01*
X247386496Y-70760000D01*
X247406458Y-70949929D01*
X247465472Y-71131556D01*
X247560958Y-71296942D01*
X247576897Y-71314644D01*
X247688747Y-71438866D01*
X247843248Y-71551118D01*
X248017712Y-71628794D01*
X248113562Y-71649167D01*
X248176035Y-71682896D01*
X248209070Y-71739802D01*
X248235715Y-71839241D01*
X248332476Y-72046748D01*
X248463804Y-72234303D01*
X248625696Y-72396195D01*
X248813249Y-72527522D01*
X249020756Y-72624284D01*
X249080014Y-72640162D01*
X249241913Y-72683543D01*
X249470000Y-72703498D01*
X249698087Y-72683543D01*
X249919243Y-72624284D01*
X250126749Y-72527523D01*
X250314300Y-72396198D01*
X250476198Y-72234300D01*
X250507217Y-72190000D01*
X258516619Y-72190000D01*
X258536091Y-72387701D01*
X258593758Y-72577802D01*
X258687406Y-72753007D01*
X258813431Y-72906568D01*
X258966992Y-73032593D01*
X258966996Y-73032595D01*
X259142196Y-73126241D01*
X259230593Y-73153056D01*
X259332298Y-73183908D01*
X259354474Y-73186092D01*
X259480453Y-73198500D01*
X259483545Y-73198500D01*
X260676455Y-73198500D01*
X260679547Y-73198500D01*
X260827701Y-73183908D01*
X261017804Y-73126241D01*
X261193004Y-73032595D01*
X261193005Y-73032593D01*
X261193007Y-73032593D01*
X261346568Y-72906568D01*
X261472593Y-72753007D01*
X261472595Y-72753004D01*
X261566241Y-72577804D01*
X261623908Y-72387701D01*
X261643380Y-72190000D01*
X261623908Y-71992299D01*
X261623232Y-71990072D01*
X261595074Y-71897247D01*
X261566241Y-71802196D01*
X261472595Y-71626996D01*
X261472593Y-71626992D01*
X261346568Y-71473431D01*
X261193007Y-71347406D01*
X261105322Y-71300538D01*
X261054674Y-71250786D01*
X261038964Y-71181550D01*
X261063180Y-71114810D01*
X261064724Y-71112752D01*
X261112698Y-71050233D01*
X261120566Y-71031237D01*
X261165112Y-70975957D01*
X261232474Y-70953534D01*
X261288222Y-70964347D01*
X261298206Y-70968792D01*
X261298208Y-70968792D01*
X261298212Y-70968794D01*
X261485013Y-71008500D01*
X261485015Y-71008500D01*
X261675985Y-71008500D01*
X261675987Y-71008500D01*
X261862788Y-70968794D01*
X262037252Y-70891118D01*
X262191753Y-70778866D01*
X262319540Y-70636944D01*
X262415027Y-70471556D01*
X262474042Y-70289928D01*
X262494004Y-70100000D01*
X262474042Y-69910072D01*
X262423656Y-69755000D01*
X262415027Y-69728443D01*
X262319541Y-69563057D01*
X262310470Y-69552983D01*
X262254559Y-69490887D01*
X262223843Y-69426882D01*
X262232606Y-69356428D01*
X262239070Y-69343590D01*
X262309527Y-69221556D01*
X262368542Y-69039928D01*
X262388504Y-68850000D01*
X262368542Y-68660072D01*
X262331412Y-68545798D01*
X262309527Y-68478443D01*
X262214041Y-68313057D01*
X262086252Y-68171133D01*
X262009002Y-68115008D01*
X261931752Y-68058882D01*
X261757288Y-67981206D01*
X261757284Y-67981205D01*
X261610364Y-67949975D01*
X261547891Y-67916247D01*
X261513570Y-67854097D01*
X261518298Y-67783258D01*
X261527443Y-67763729D01*
X261531213Y-67757200D01*
X261609527Y-67621556D01*
X261668542Y-67439928D01*
X261688504Y-67250000D01*
X261668542Y-67060072D01*
X261620149Y-66911134D01*
X261609527Y-66878443D01*
X261514041Y-66713057D01*
X261386252Y-66571133D01*
X261244990Y-66468500D01*
X261231752Y-66458882D01*
X261057288Y-66381206D01*
X260870487Y-66341500D01*
X260679513Y-66341500D01*
X260578364Y-66363000D01*
X260492711Y-66381206D01*
X260318246Y-66458883D01*
X260163747Y-66571133D01*
X260035958Y-66713057D01*
X259940472Y-66878443D01*
X259881458Y-67060070D01*
X259861496Y-67249999D01*
X259881458Y-67439929D01*
X259940472Y-67621556D01*
X260035958Y-67786942D01*
X260035960Y-67786944D01*
X260163747Y-67928866D01*
X260318248Y-68041118D01*
X260492712Y-68118794D01*
X260639635Y-68150023D01*
X260702108Y-68183752D01*
X260736429Y-68245901D01*
X260731701Y-68316740D01*
X260722556Y-68336270D01*
X260640472Y-68478443D01*
X260581458Y-68660070D01*
X260561496Y-68850000D01*
X260581458Y-69039929D01*
X260640472Y-69221556D01*
X260735960Y-69386945D01*
X260800939Y-69459112D01*
X260831657Y-69523119D01*
X260822892Y-69593573D01*
X260816422Y-69606422D01*
X260745972Y-69728443D01*
X260686958Y-69910070D01*
X260669702Y-70074255D01*
X260642689Y-70139912D01*
X260584467Y-70180541D01*
X260560838Y-70186006D01*
X260459764Y-70199312D01*
X260319767Y-70257301D01*
X260199549Y-70349549D01*
X260107301Y-70469767D01*
X260049312Y-70609764D01*
X260029534Y-70759999D01*
X260049312Y-70910235D01*
X260089511Y-71007282D01*
X260097100Y-71077871D01*
X260065321Y-71141358D01*
X260004263Y-71177586D01*
X259973102Y-71181500D01*
X259480453Y-71181500D01*
X259477381Y-71181802D01*
X259477372Y-71181803D01*
X259332298Y-71196091D01*
X259142197Y-71253758D01*
X258966992Y-71347406D01*
X258813431Y-71473431D01*
X258687406Y-71626992D01*
X258593758Y-71802197D01*
X258536091Y-71992298D01*
X258516619Y-72190000D01*
X250507217Y-72190000D01*
X250607523Y-72046749D01*
X250704284Y-71839243D01*
X250763543Y-71618087D01*
X250783498Y-71390000D01*
X250763543Y-71161913D01*
X250706742Y-70949929D01*
X250704284Y-70940756D01*
X250607522Y-70733249D01*
X250508805Y-70592268D01*
X250476198Y-70545700D01*
X250476197Y-70545699D01*
X250476195Y-70545696D01*
X250314303Y-70383804D01*
X250264565Y-70348977D01*
X250220237Y-70293520D01*
X250212928Y-70222900D01*
X250243200Y-70161453D01*
X250365412Y-70025723D01*
X250460899Y-69860335D01*
X250519914Y-69678707D01*
X250532422Y-69559691D01*
X250559435Y-69494037D01*
X250617657Y-69453407D01*
X250631517Y-69449621D01*
X250758315Y-69422670D01*
X250932779Y-69344994D01*
X251087280Y-69232742D01*
X251215067Y-69090820D01*
X251310554Y-68925432D01*
X251369569Y-68743804D01*
X251389531Y-68553876D01*
X251369569Y-68363948D01*
X251331213Y-68245901D01*
X251310554Y-68182319D01*
X251215068Y-68016933D01*
X251087279Y-67875009D01*
X251008813Y-67818000D01*
X250932779Y-67762758D01*
X250758315Y-67685082D01*
X250571514Y-67645376D01*
X250422775Y-67645376D01*
X250354654Y-67625374D01*
X250308161Y-67571718D01*
X250297465Y-67532550D01*
X250283542Y-67400072D01*
X250224527Y-67218444D01*
X250224527Y-67218443D01*
X250129041Y-67053057D01*
X250001252Y-66911133D01*
X249846753Y-66798883D01*
X249846752Y-66798882D01*
X249672288Y-66721206D01*
X249485487Y-66681500D01*
X249294513Y-66681500D01*
X249169978Y-66707970D01*
X249107711Y-66721206D01*
X248933246Y-66798883D01*
X248778747Y-66911133D01*
X248650958Y-67053057D01*
X248555472Y-67218443D01*
X248496458Y-67400070D01*
X248476496Y-67590000D01*
X248496458Y-67779929D01*
X248555472Y-67961556D01*
X248650958Y-68126942D01*
X248650960Y-68126944D01*
X248778747Y-68268866D01*
X248933248Y-68381118D01*
X249107712Y-68458794D01*
X249133440Y-68464262D01*
X249195913Y-68497991D01*
X249230234Y-68560140D01*
X249225506Y-68630979D01*
X249183230Y-68688017D01*
X249180257Y-68689771D01*
X249180334Y-68689877D01*
X249015117Y-68809914D01*
X248887331Y-68951835D01*
X248886607Y-68953090D01*
X248883743Y-68955819D01*
X248878471Y-68961676D01*
X248878023Y-68961273D01*
X248835223Y-69002082D01*
X248765509Y-69015516D01*
X248703429Y-68992023D01*
X248661660Y-68961676D01*
X248602388Y-68918612D01*
X248427924Y-68840936D01*
X248241123Y-68801230D01*
X248050149Y-68801230D01*
X247925615Y-68827700D01*
X247863347Y-68840936D01*
X247688882Y-68918613D01*
X247534383Y-69030863D01*
X247406594Y-69172787D01*
X247311108Y-69338173D01*
X247252094Y-69519800D01*
X247232132Y-69709730D01*
X228286730Y-69709730D01*
X228365296Y-69530616D01*
X228420564Y-69312368D01*
X228439156Y-69088000D01*
X228420564Y-68863632D01*
X228365296Y-68645384D01*
X228274860Y-68439209D01*
X228151722Y-68250732D01*
X227999240Y-68085094D01*
X227999239Y-68085093D01*
X227999237Y-68085091D01*
X227821579Y-67946813D01*
X227821577Y-67946812D01*
X227821576Y-67946811D01*
X227788317Y-67928812D01*
X227737929Y-67878801D01*
X227722576Y-67809484D01*
X227747136Y-67742871D01*
X227788316Y-67707187D01*
X227821576Y-67689189D01*
X227999240Y-67550906D01*
X228151722Y-67385268D01*
X228274860Y-67196791D01*
X228365296Y-66990616D01*
X228420564Y-66772368D01*
X228439156Y-66548000D01*
X228420564Y-66323632D01*
X228365296Y-66105384D01*
X228274860Y-65899209D01*
X228151722Y-65710732D01*
X228008157Y-65554780D01*
X227976737Y-65491117D01*
X227984724Y-65420571D01*
X228029583Y-65365542D01*
X228056827Y-65351388D01*
X228171963Y-65308445D01*
X228288904Y-65220904D01*
X228376446Y-65103962D01*
X228379481Y-65095825D01*
X228422027Y-65038989D01*
X228488547Y-65014177D01*
X228548784Y-65024748D01*
X228647712Y-65068794D01*
X228834513Y-65108500D01*
X228834515Y-65108500D01*
X229025485Y-65108500D01*
X229025487Y-65108500D01*
X229212288Y-65068794D01*
X229380145Y-64994059D01*
X229450508Y-64984625D01*
X229514806Y-65014731D01*
X229540509Y-65046165D01*
X229540956Y-65046940D01*
X229629185Y-65144928D01*
X229668747Y-65188866D01*
X229823248Y-65301118D01*
X229997712Y-65378794D01*
X229997715Y-65378794D01*
X230001469Y-65380466D01*
X230055564Y-65426446D01*
X230076214Y-65494373D01*
X230056862Y-65562681D01*
X230043856Y-65579883D01*
X229950960Y-65683054D01*
X229855472Y-65848443D01*
X229796458Y-66030070D01*
X229776496Y-66220000D01*
X229796458Y-66409929D01*
X229855472Y-66591556D01*
X229950958Y-66756942D01*
X229996548Y-66807575D01*
X230078747Y-66898866D01*
X230233248Y-67011118D01*
X230407712Y-67088794D01*
X230594513Y-67128500D01*
X230594515Y-67128500D01*
X230785485Y-67128500D01*
X230785487Y-67128500D01*
X230972288Y-67088794D01*
X231146752Y-67011118D01*
X231165493Y-66997502D01*
X246447996Y-66997502D01*
X246467958Y-67187432D01*
X246526972Y-67369059D01*
X246622458Y-67534445D01*
X246656019Y-67571718D01*
X246750247Y-67676369D01*
X246904748Y-67788621D01*
X247079212Y-67866297D01*
X247266013Y-67906003D01*
X247266015Y-67906003D01*
X247456985Y-67906003D01*
X247456987Y-67906003D01*
X247643788Y-67866297D01*
X247818252Y-67788621D01*
X247972753Y-67676369D01*
X248100540Y-67534447D01*
X248196027Y-67369059D01*
X248255042Y-67187431D01*
X248275004Y-66997503D01*
X248255042Y-66807575D01*
X248224331Y-66713056D01*
X248196027Y-66625946D01*
X248100541Y-66460560D01*
X247990967Y-66338866D01*
X247972753Y-66318637D01*
X247818252Y-66206385D01*
X247643788Y-66128709D01*
X247456987Y-66089003D01*
X247266013Y-66089003D01*
X247141478Y-66115473D01*
X247079211Y-66128709D01*
X246950848Y-66185860D01*
X246925958Y-66196942D01*
X246904746Y-66206386D01*
X246750247Y-66318636D01*
X246622458Y-66460560D01*
X246526972Y-66625946D01*
X246467958Y-66807573D01*
X246447996Y-66997502D01*
X231165493Y-66997502D01*
X231301253Y-66898866D01*
X231429040Y-66756944D01*
X231524527Y-66591556D01*
X231583542Y-66409928D01*
X231603504Y-66220000D01*
X231583542Y-66030072D01*
X231525010Y-65849929D01*
X231524527Y-65848443D01*
X231429041Y-65683057D01*
X231301252Y-65541133D01*
X231146753Y-65428883D01*
X231146752Y-65428882D01*
X230972288Y-65351206D01*
X230972287Y-65351205D01*
X230968530Y-65349533D01*
X230914434Y-65303553D01*
X230893785Y-65235625D01*
X230913137Y-65167317D01*
X230926135Y-65150125D01*
X231019040Y-65046944D01*
X231072124Y-64955000D01*
X232311496Y-64955000D01*
X232331458Y-65144929D01*
X232390472Y-65326556D01*
X232485958Y-65491942D01*
X232591171Y-65608793D01*
X232613747Y-65633866D01*
X232768248Y-65746118D01*
X232942712Y-65823794D01*
X233129513Y-65863500D01*
X233129515Y-65863500D01*
X233320485Y-65863500D01*
X233320487Y-65863500D01*
X233507288Y-65823794D01*
X233681752Y-65746118D01*
X233800283Y-65660000D01*
X237336496Y-65660000D01*
X237356458Y-65849929D01*
X237415472Y-66031556D01*
X237510958Y-66196942D01*
X237524598Y-66212091D01*
X237638747Y-66338866D01*
X237793248Y-66451118D01*
X237967712Y-66528794D01*
X238154513Y-66568500D01*
X238154515Y-66568500D01*
X238345485Y-66568500D01*
X238345487Y-66568500D01*
X238532288Y-66528794D01*
X238706752Y-66451118D01*
X238850350Y-66346787D01*
X238917215Y-66322930D01*
X238986367Y-66339010D01*
X238998465Y-66346785D01*
X239073248Y-66401118D01*
X239247712Y-66478794D01*
X239434513Y-66518500D01*
X239434515Y-66518500D01*
X239625485Y-66518500D01*
X239625487Y-66518500D01*
X239812288Y-66478794D01*
X239986752Y-66401118D01*
X240141253Y-66288866D01*
X240210379Y-66212094D01*
X240251626Y-66166285D01*
X240312072Y-66129045D01*
X240383055Y-66130397D01*
X240438897Y-66166283D01*
X240463605Y-66193724D01*
X240618106Y-66305976D01*
X240792570Y-66383652D01*
X240979371Y-66423358D01*
X240979373Y-66423358D01*
X241170343Y-66423358D01*
X241170345Y-66423358D01*
X241357146Y-66383652D01*
X241531610Y-66305976D01*
X241686111Y-66193724D01*
X241686113Y-66193721D01*
X241686228Y-66193638D01*
X241753095Y-66169780D01*
X241822247Y-66185860D01*
X241834349Y-66193637D01*
X241905894Y-66245618D01*
X242080358Y-66323294D01*
X242267159Y-66363000D01*
X242267161Y-66363000D01*
X242458131Y-66363000D01*
X242458133Y-66363000D01*
X242644934Y-66323294D01*
X242819398Y-66245618D01*
X242973899Y-66133366D01*
X243101686Y-65991444D01*
X243197173Y-65826056D01*
X243256188Y-65644428D01*
X243276150Y-65454500D01*
X244878141Y-65454500D01*
X244898103Y-65644429D01*
X244957117Y-65826056D01*
X245052603Y-65991442D01*
X245174924Y-66127293D01*
X245180392Y-66133366D01*
X245334893Y-66245618D01*
X245509357Y-66323294D01*
X245696158Y-66363000D01*
X245696160Y-66363000D01*
X245887130Y-66363000D01*
X245887132Y-66363000D01*
X246073933Y-66323294D01*
X246248397Y-66245618D01*
X246402898Y-66133366D01*
X246530685Y-65991444D01*
X246626172Y-65826056D01*
X246685187Y-65644428D01*
X246694061Y-65560000D01*
X254676496Y-65560000D01*
X254696458Y-65749929D01*
X254755472Y-65931556D01*
X254850958Y-66096942D01*
X254941000Y-66196944D01*
X254978747Y-66238866D01*
X255133248Y-66351118D01*
X255307712Y-66428794D01*
X255494513Y-66468500D01*
X255494515Y-66468500D01*
X255685485Y-66468500D01*
X255685487Y-66468500D01*
X255872288Y-66428794D01*
X256046752Y-66351118D01*
X256201253Y-66238866D01*
X256329040Y-66096944D01*
X256424527Y-65931556D01*
X256483542Y-65749928D01*
X256503504Y-65560000D01*
X256483542Y-65370072D01*
X256439857Y-65235625D01*
X256424527Y-65188443D01*
X256329041Y-65023057D01*
X256221141Y-64903222D01*
X256201253Y-64881134D01*
X256198131Y-64878866D01*
X256077478Y-64791206D01*
X256046752Y-64768882D01*
X255872288Y-64691206D01*
X255685487Y-64651500D01*
X255494513Y-64651500D01*
X255383960Y-64674999D01*
X255307711Y-64691206D01*
X255173378Y-64751015D01*
X255141806Y-64765072D01*
X255133246Y-64768883D01*
X254978747Y-64881133D01*
X254850958Y-65023057D01*
X254755472Y-65188443D01*
X254696458Y-65370070D01*
X254676496Y-65560000D01*
X246694061Y-65560000D01*
X246705149Y-65454500D01*
X246685187Y-65264572D01*
X246633001Y-65103962D01*
X246626172Y-65082943D01*
X246530686Y-64917557D01*
X246446378Y-64823924D01*
X246402898Y-64775634D01*
X246400778Y-64774094D01*
X246298698Y-64699928D01*
X246248397Y-64663382D01*
X246073933Y-64585706D01*
X245887132Y-64546000D01*
X245696158Y-64546000D01*
X245575927Y-64571556D01*
X245509356Y-64585706D01*
X245334891Y-64663383D01*
X245180392Y-64775633D01*
X245052603Y-64917557D01*
X244957117Y-65082943D01*
X244898103Y-65264570D01*
X244878141Y-65454500D01*
X243276150Y-65454500D01*
X243256188Y-65264572D01*
X243204002Y-65103962D01*
X243197173Y-65082943D01*
X243101687Y-64917557D01*
X243017379Y-64823924D01*
X242973899Y-64775634D01*
X242971779Y-64774094D01*
X242869699Y-64699928D01*
X242819398Y-64663382D01*
X242644934Y-64585706D01*
X242458133Y-64546000D01*
X242267159Y-64546000D01*
X242146928Y-64571556D01*
X242080357Y-64585706D01*
X241905892Y-64663383D01*
X241751275Y-64775719D01*
X241684407Y-64799578D01*
X241615255Y-64783497D01*
X241603153Y-64775719D01*
X241553990Y-64740000D01*
X241531610Y-64723740D01*
X241357146Y-64646064D01*
X241170345Y-64606358D01*
X240979371Y-64606358D01*
X240873480Y-64628866D01*
X240792569Y-64646064D01*
X240727578Y-64675000D01*
X240623012Y-64721556D01*
X240618104Y-64723741D01*
X240463603Y-64835993D01*
X240353232Y-64958573D01*
X240292786Y-64995813D01*
X240221803Y-64994461D01*
X240165960Y-64958574D01*
X240155488Y-64946944D01*
X240141253Y-64931134D01*
X240139594Y-64929929D01*
X240010302Y-64835992D01*
X239986752Y-64818882D01*
X239812288Y-64741206D01*
X239755325Y-64729098D01*
X239692854Y-64695370D01*
X239658532Y-64633221D01*
X239663260Y-64562382D01*
X239687887Y-64521542D01*
X239719040Y-64486944D01*
X239814527Y-64321556D01*
X239873542Y-64139928D01*
X239893504Y-63950000D01*
X239873542Y-63760072D01*
X239831279Y-63630000D01*
X239831279Y-63629999D01*
X250056496Y-63629999D01*
X250076458Y-63819929D01*
X250135472Y-64001556D01*
X250230958Y-64166942D01*
X250289882Y-64232384D01*
X250358747Y-64308866D01*
X250513248Y-64421118D01*
X250687712Y-64498794D01*
X250874513Y-64538500D01*
X250874515Y-64538500D01*
X251065485Y-64538500D01*
X251065487Y-64538500D01*
X251252288Y-64498794D01*
X251426752Y-64421118D01*
X251581253Y-64308866D01*
X251709040Y-64166944D01*
X251804527Y-64001556D01*
X251863542Y-63819928D01*
X251883504Y-63630000D01*
X251863542Y-63440072D01*
X251824136Y-63318793D01*
X251804527Y-63258443D01*
X251709041Y-63093057D01*
X251581252Y-62951133D01*
X251504002Y-62895007D01*
X251426752Y-62838882D01*
X251252288Y-62761206D01*
X251065487Y-62721500D01*
X250874513Y-62721500D01*
X250778262Y-62741959D01*
X250687711Y-62761206D01*
X250513246Y-62838883D01*
X250358747Y-62951133D01*
X250230958Y-63093057D01*
X250135472Y-63258443D01*
X250076458Y-63440070D01*
X250056496Y-63629999D01*
X239831279Y-63629999D01*
X239814527Y-63578443D01*
X239719041Y-63413057D01*
X239607609Y-63289299D01*
X239591253Y-63271134D01*
X239585483Y-63266942D01*
X239488113Y-63196198D01*
X239436752Y-63158882D01*
X239436750Y-63158881D01*
X239369910Y-63129121D01*
X239315815Y-63083141D01*
X239295851Y-63027188D01*
X239283542Y-62910072D01*
X239244027Y-62788458D01*
X239224527Y-62728443D01*
X239129041Y-62563057D01*
X239001252Y-62421133D01*
X238846753Y-62308883D01*
X238846752Y-62308882D01*
X238672288Y-62231206D01*
X238485487Y-62191500D01*
X238294513Y-62191500D01*
X238169979Y-62217970D01*
X238107711Y-62231206D01*
X237933246Y-62308883D01*
X237778747Y-62421133D01*
X237650958Y-62563057D01*
X237555472Y-62728443D01*
X237496458Y-62910070D01*
X237476496Y-63100000D01*
X237496458Y-63289929D01*
X237555472Y-63471556D01*
X237650958Y-63636942D01*
X237669891Y-63657969D01*
X237778747Y-63778866D01*
X237933248Y-63891118D01*
X238000088Y-63920877D01*
X238054183Y-63966856D01*
X238074148Y-64022811D01*
X238086458Y-64139930D01*
X238145472Y-64321556D01*
X238240960Y-64486945D01*
X238289802Y-64541190D01*
X238320520Y-64605197D01*
X238311755Y-64675651D01*
X238266292Y-64730182D01*
X238198565Y-64751477D01*
X238196166Y-64751500D01*
X238154513Y-64751500D01*
X238048217Y-64774094D01*
X237967711Y-64791206D01*
X237827696Y-64853544D01*
X237816567Y-64858500D01*
X237793246Y-64868883D01*
X237638747Y-64981133D01*
X237510958Y-65123057D01*
X237415472Y-65288443D01*
X237356458Y-65470070D01*
X237336496Y-65660000D01*
X233800283Y-65660000D01*
X233836253Y-65633866D01*
X233964040Y-65491944D01*
X234059527Y-65326556D01*
X234118542Y-65144928D01*
X234138504Y-64955000D01*
X234118542Y-64765072D01*
X234074286Y-64628866D01*
X234059527Y-64583443D01*
X233964041Y-64418057D01*
X233836252Y-64276133D01*
X233737136Y-64204121D01*
X233681752Y-64163882D01*
X233507288Y-64086206D01*
X233320487Y-64046500D01*
X233129513Y-64046500D01*
X233004979Y-64072970D01*
X232942711Y-64086206D01*
X232822045Y-64139930D01*
X232776806Y-64160072D01*
X232768246Y-64163883D01*
X232613747Y-64276133D01*
X232485958Y-64418057D01*
X232390472Y-64583443D01*
X232331458Y-64765070D01*
X232311496Y-64955000D01*
X231072124Y-64955000D01*
X231114527Y-64881556D01*
X231173542Y-64699928D01*
X231193504Y-64510000D01*
X231173542Y-64320072D01*
X231130740Y-64188342D01*
X231114527Y-64138443D01*
X231019041Y-63973057D01*
X230927334Y-63871206D01*
X230891253Y-63831134D01*
X230875829Y-63819928D01*
X230793442Y-63760070D01*
X230736752Y-63718882D01*
X230599937Y-63657968D01*
X230545842Y-63611989D01*
X230525193Y-63544061D01*
X230544545Y-63475753D01*
X230577126Y-63440926D01*
X230621253Y-63408866D01*
X230749040Y-63266944D01*
X230844527Y-63101556D01*
X230903542Y-62919928D01*
X230923504Y-62730000D01*
X230903542Y-62540072D01*
X230848259Y-62369929D01*
X230844527Y-62358443D01*
X230749041Y-62193057D01*
X230737284Y-62180000D01*
X241236496Y-62180000D01*
X241256458Y-62369929D01*
X241315472Y-62551556D01*
X241410958Y-62716942D01*
X241450814Y-62761206D01*
X241538747Y-62858866D01*
X241693248Y-62971118D01*
X241867712Y-63048794D01*
X242054513Y-63088500D01*
X242054515Y-63088500D01*
X242245485Y-63088500D01*
X242245487Y-63088500D01*
X242432288Y-63048794D01*
X242606752Y-62971118D01*
X242761253Y-62858866D01*
X242889040Y-62716944D01*
X242927691Y-62649999D01*
X256256496Y-62649999D01*
X256276458Y-62839929D01*
X256335472Y-63021556D01*
X256430958Y-63186942D01*
X256527521Y-63294186D01*
X256558747Y-63328866D01*
X256713248Y-63441118D01*
X256887712Y-63518794D01*
X257074513Y-63558500D01*
X257074515Y-63558500D01*
X257265485Y-63558500D01*
X257265487Y-63558500D01*
X257305481Y-63549999D01*
X258516619Y-63549999D01*
X258536091Y-63747701D01*
X258593758Y-63937802D01*
X258687406Y-64113007D01*
X258813431Y-64266568D01*
X258966992Y-64392593D01*
X258992685Y-64406326D01*
X259142196Y-64486241D01*
X259183578Y-64498794D01*
X259332298Y-64543908D01*
X259353539Y-64546000D01*
X259480453Y-64558500D01*
X259973102Y-64558500D01*
X260041223Y-64578502D01*
X260087716Y-64632158D01*
X260097820Y-64702432D01*
X260089511Y-64732718D01*
X260049312Y-64829764D01*
X260029534Y-64980000D01*
X260049312Y-65130235D01*
X260107301Y-65270232D01*
X260113870Y-65278793D01*
X260199549Y-65390451D01*
X260319767Y-65482698D01*
X260459764Y-65540687D01*
X260572280Y-65555500D01*
X260576402Y-65555500D01*
X260643598Y-65555500D01*
X260647720Y-65555500D01*
X260760236Y-65540687D01*
X260900233Y-65482698D01*
X261020451Y-65390451D01*
X261112698Y-65270233D01*
X261112698Y-65270231D01*
X261117363Y-65264153D01*
X261174701Y-65222286D01*
X261245571Y-65218064D01*
X261268568Y-65225748D01*
X261387712Y-65278794D01*
X261574513Y-65318500D01*
X261574515Y-65318500D01*
X261765485Y-65318500D01*
X261765487Y-65318500D01*
X261952288Y-65278794D01*
X262126752Y-65201118D01*
X262281253Y-65088866D01*
X262409040Y-64946944D01*
X262504527Y-64781556D01*
X262563542Y-64599928D01*
X262583504Y-64410000D01*
X262563542Y-64220072D01*
X262520046Y-64086206D01*
X262504527Y-64038443D01*
X262409041Y-63873057D01*
X262281252Y-63731133D01*
X262151609Y-63636942D01*
X262126752Y-63618882D01*
X261952288Y-63541206D01*
X261765487Y-63501500D01*
X261765485Y-63501500D01*
X261752803Y-63501500D01*
X261684682Y-63481498D01*
X261638189Y-63427842D01*
X261627410Y-63387851D01*
X261623908Y-63352298D01*
X261573748Y-63186944D01*
X261566241Y-63162196D01*
X261472595Y-62986996D01*
X261472593Y-62986992D01*
X261346568Y-62833431D01*
X261193007Y-62707406D01*
X261017802Y-62613758D01*
X260827701Y-62556091D01*
X260682627Y-62541803D01*
X260682619Y-62541802D01*
X260679547Y-62541500D01*
X259480453Y-62541500D01*
X259477381Y-62541802D01*
X259477372Y-62541803D01*
X259332298Y-62556091D01*
X259142197Y-62613758D01*
X258966992Y-62707406D01*
X258813431Y-62833431D01*
X258687406Y-62986992D01*
X258593758Y-63162197D01*
X258536091Y-63352298D01*
X258516619Y-63549999D01*
X257305481Y-63549999D01*
X257452288Y-63518794D01*
X257626752Y-63441118D01*
X257781253Y-63328866D01*
X257909040Y-63186944D01*
X258004527Y-63021556D01*
X258063542Y-62839928D01*
X258083504Y-62650000D01*
X258063542Y-62460072D01*
X258028847Y-62353293D01*
X258004527Y-62278443D01*
X257909041Y-62113057D01*
X257781252Y-61971133D01*
X257644196Y-61871556D01*
X257626752Y-61858882D01*
X257452288Y-61781206D01*
X257265487Y-61741500D01*
X257074513Y-61741500D01*
X256949979Y-61767970D01*
X256887711Y-61781206D01*
X256747696Y-61843544D01*
X256719596Y-61856056D01*
X256713246Y-61858883D01*
X256558747Y-61971133D01*
X256430958Y-62113057D01*
X256335472Y-62278443D01*
X256276458Y-62460070D01*
X256256496Y-62649999D01*
X242927691Y-62649999D01*
X242984527Y-62551556D01*
X243043542Y-62369928D01*
X243063504Y-62180000D01*
X243043542Y-61990072D01*
X243000916Y-61858883D01*
X242984527Y-61808443D01*
X242889041Y-61643057D01*
X242761252Y-61501133D01*
X242606753Y-61388883D01*
X242606752Y-61388882D01*
X242432288Y-61311206D01*
X242245487Y-61271500D01*
X242054513Y-61271500D01*
X241931107Y-61297731D01*
X241867711Y-61311206D01*
X241693246Y-61388883D01*
X241538747Y-61501133D01*
X241410958Y-61643057D01*
X241315472Y-61808443D01*
X241256458Y-61990070D01*
X241236496Y-62180000D01*
X230737284Y-62180000D01*
X230621252Y-62051133D01*
X230511143Y-61971134D01*
X230466752Y-61938882D01*
X230292288Y-61861206D01*
X230105487Y-61821500D01*
X229914513Y-61821500D01*
X229789979Y-61847970D01*
X229727711Y-61861206D01*
X229553246Y-61938883D01*
X229398747Y-62051133D01*
X229270958Y-62193057D01*
X229175472Y-62358443D01*
X229116458Y-62540070D01*
X229096496Y-62730000D01*
X229116458Y-62919929D01*
X229175472Y-63101556D01*
X229179958Y-63109325D01*
X229196696Y-63178321D01*
X229173475Y-63245412D01*
X229117668Y-63289299D01*
X229046993Y-63296048D01*
X229044687Y-63295581D01*
X229025487Y-63291500D01*
X228834513Y-63291500D01*
X228721139Y-63315598D01*
X228647706Y-63331207D01*
X228611247Y-63347440D01*
X228540880Y-63356874D01*
X228476584Y-63326767D01*
X228438771Y-63266677D01*
X228434000Y-63232333D01*
X228434000Y-63112777D01*
X228433640Y-63106063D01*
X228427494Y-63048906D01*
X228376445Y-62912037D01*
X228288904Y-62795095D01*
X228171962Y-62707554D01*
X228035093Y-62656505D01*
X227977936Y-62650359D01*
X227971223Y-62650000D01*
X227330000Y-62650000D01*
X227330000Y-63574325D01*
X227218315Y-63523320D01*
X227111763Y-63508000D01*
X227040237Y-63508000D01*
X226933685Y-63523320D01*
X226822000Y-63574325D01*
X226822000Y-62650000D01*
X226180777Y-62650000D01*
X226174063Y-62650359D01*
X226116906Y-62656505D01*
X225980037Y-62707554D01*
X225863095Y-62795095D01*
X225775554Y-62912037D01*
X225724505Y-63048906D01*
X225718359Y-63106063D01*
X225718000Y-63112777D01*
X225718000Y-63445860D01*
X225697998Y-63513981D01*
X225644342Y-63560474D01*
X225574068Y-63570578D01*
X225540752Y-63560967D01*
X225488117Y-63537533D01*
X225488115Y-63537532D01*
X225488114Y-63537532D01*
X225301313Y-63497826D01*
X225110339Y-63497826D01*
X225000684Y-63521134D01*
X224923537Y-63537532D01*
X224749072Y-63615209D01*
X224594573Y-63727459D01*
X224466784Y-63869383D01*
X224371298Y-64034769D01*
X224312284Y-64216396D01*
X224312283Y-64216398D01*
X224312284Y-64216398D01*
X224302151Y-64312814D01*
X224301143Y-64322402D01*
X224274130Y-64388059D01*
X224215908Y-64428688D01*
X224144963Y-64431391D01*
X224083819Y-64395309D01*
X224066714Y-64372231D01*
X223969041Y-64203057D01*
X223841252Y-64061133D01*
X223720026Y-63973057D01*
X223686752Y-63948882D01*
X223512288Y-63871206D01*
X223325487Y-63831500D01*
X223134513Y-63831500D01*
X223009979Y-63857970D01*
X222947711Y-63871206D01*
X222773246Y-63948883D01*
X222618747Y-64061133D01*
X222490958Y-64203057D01*
X222395472Y-64368443D01*
X222336458Y-64550070D01*
X222316496Y-64740000D01*
X206283878Y-64740000D01*
X206294527Y-64721556D01*
X206353542Y-64539928D01*
X206373504Y-64350000D01*
X206353542Y-64160072D01*
X206294527Y-63978444D01*
X206294527Y-63978443D01*
X206199041Y-63813057D01*
X206071252Y-63671133D01*
X205971686Y-63598794D01*
X205916752Y-63558882D01*
X205742288Y-63481206D01*
X205555487Y-63441500D01*
X205364513Y-63441500D01*
X205239978Y-63467970D01*
X205177711Y-63481206D01*
X205003246Y-63558883D01*
X204848747Y-63671133D01*
X204720958Y-63813057D01*
X204625472Y-63978443D01*
X204566458Y-64160070D01*
X204546496Y-64350000D01*
X202272000Y-64350000D01*
X202272000Y-64262000D01*
X201345116Y-64262000D01*
X201373493Y-64217844D01*
X201414000Y-64079889D01*
X201414000Y-63936111D01*
X201373493Y-63798156D01*
X201345116Y-63754000D01*
X202272000Y-63754000D01*
X202272000Y-63112777D01*
X202271640Y-63106063D01*
X202265494Y-63048906D01*
X202214445Y-62912037D01*
X202126904Y-62795095D01*
X202009962Y-62707554D01*
X201873093Y-62656505D01*
X201815936Y-62650359D01*
X201809223Y-62650000D01*
X201168000Y-62650000D01*
X201168000Y-63574325D01*
X201056315Y-63523320D01*
X200949763Y-63508000D01*
X200878237Y-63508000D01*
X200771685Y-63523320D01*
X200660000Y-63574325D01*
X200660000Y-62650000D01*
X200018777Y-62650000D01*
X200012063Y-62650359D01*
X199954906Y-62656505D01*
X199818037Y-62707554D01*
X199701095Y-62795095D01*
X199613554Y-62912037D01*
X199562505Y-63048906D01*
X199556359Y-63106063D01*
X199556000Y-63112777D01*
X199556000Y-63754000D01*
X200482884Y-63754000D01*
X200454507Y-63798156D01*
X200414000Y-63936111D01*
X200414000Y-64079889D01*
X200454507Y-64217844D01*
X200482884Y-64262000D01*
X199556000Y-64262000D01*
X199556000Y-64903222D01*
X199556359Y-64909936D01*
X199562505Y-64967093D01*
X199613554Y-65103962D01*
X199701095Y-65220904D01*
X199818037Y-65308445D01*
X199933172Y-65351388D01*
X199990008Y-65393935D01*
X200014819Y-65460455D01*
X199999728Y-65529829D01*
X199981841Y-65554782D01*
X199838278Y-65710731D01*
X199715139Y-65899209D01*
X199624702Y-66105388D01*
X199569437Y-66323627D01*
X199569436Y-66323632D01*
X199550844Y-66548000D01*
X199569436Y-66772368D01*
X199569436Y-66772371D01*
X199569437Y-66772372D01*
X199624702Y-66990611D01*
X199624703Y-66990614D01*
X199624704Y-66990616D01*
X199627725Y-66997503D01*
X199715139Y-67196790D01*
X199749902Y-67249999D01*
X199838278Y-67385268D01*
X199975606Y-67534445D01*
X199990762Y-67550908D01*
X200168418Y-67689185D01*
X200168420Y-67689186D01*
X200168424Y-67689189D01*
X200201682Y-67707187D01*
X200252071Y-67757200D01*
X200267423Y-67826517D01*
X200242862Y-67893130D01*
X200201683Y-67928812D01*
X200178238Y-67941500D01*
X200168418Y-67946814D01*
X199990762Y-68085091D01*
X199838278Y-68250731D01*
X199715139Y-68439209D01*
X199624702Y-68645388D01*
X199583039Y-68809914D01*
X199569436Y-68863632D01*
X199550844Y-69088000D01*
X199569436Y-69312368D01*
X199569436Y-69312371D01*
X199569437Y-69312372D01*
X199624702Y-69530611D01*
X199624703Y-69530614D01*
X199624704Y-69530616D01*
X199637459Y-69559694D01*
X199715139Y-69736790D01*
X199838278Y-69925268D01*
X199990762Y-70090908D01*
X200168418Y-70229185D01*
X200168420Y-70229186D01*
X200168424Y-70229189D01*
X200201682Y-70247187D01*
X200252071Y-70297200D01*
X200267423Y-70366517D01*
X200242862Y-70433130D01*
X200201683Y-70468812D01*
X200176794Y-70482281D01*
X200168418Y-70486814D01*
X199990765Y-70625089D01*
X199990761Y-70625092D01*
X199990760Y-70625094D01*
X199944808Y-70675010D01*
X199838278Y-70790731D01*
X199715139Y-70979209D01*
X199624702Y-71185388D01*
X199574154Y-71385000D01*
X199569436Y-71403632D01*
X199550844Y-71628000D01*
X199569436Y-71852368D01*
X199569436Y-71852371D01*
X199569437Y-71852372D01*
X199624702Y-72070611D01*
X199715139Y-72276790D01*
X199775989Y-72369928D01*
X199838278Y-72465268D01*
X199989990Y-72630070D01*
X199990762Y-72630908D01*
X200168418Y-72769185D01*
X200168420Y-72769186D01*
X200168424Y-72769189D01*
X200201682Y-72787187D01*
X200252071Y-72837200D01*
X200267423Y-72906517D01*
X200242862Y-72973130D01*
X200201683Y-73008812D01*
X200176794Y-73022281D01*
X200168418Y-73026814D01*
X199990762Y-73165091D01*
X199838278Y-73330731D01*
X199715139Y-73519209D01*
X199624702Y-73725388D01*
X199584265Y-73885072D01*
X199569436Y-73943632D01*
X199550844Y-74168000D01*
X198346963Y-74168000D01*
X198235722Y-73997732D01*
X198083240Y-73832094D01*
X198083239Y-73832093D01*
X198083237Y-73832091D01*
X197905579Y-73693813D01*
X197905577Y-73693812D01*
X197905576Y-73693811D01*
X197872317Y-73675812D01*
X197821929Y-73625801D01*
X197806576Y-73556484D01*
X197831136Y-73489871D01*
X197872316Y-73454187D01*
X197905576Y-73436189D01*
X198083240Y-73297906D01*
X198235722Y-73132268D01*
X198358860Y-72943791D01*
X198449296Y-72737616D01*
X198504564Y-72519368D01*
X198523156Y-72295000D01*
X198504564Y-72070632D01*
X198449296Y-71852384D01*
X198358860Y-71646209D01*
X198235722Y-71457732D01*
X198083240Y-71292094D01*
X198083239Y-71292093D01*
X198083237Y-71292091D01*
X197905579Y-71153813D01*
X197905577Y-71153812D01*
X197905576Y-71153811D01*
X197872317Y-71135812D01*
X197821929Y-71085801D01*
X197806576Y-71016484D01*
X197831136Y-70949871D01*
X197872316Y-70914187D01*
X197905576Y-70896189D01*
X198083240Y-70757906D01*
X198235722Y-70592268D01*
X198358860Y-70403791D01*
X198449296Y-70197616D01*
X198504564Y-69979368D01*
X198523156Y-69755000D01*
X198504564Y-69530632D01*
X198449296Y-69312384D01*
X198358860Y-69106209D01*
X198235722Y-68917732D01*
X198083240Y-68752094D01*
X198083239Y-68752093D01*
X198083237Y-68752091D01*
X197905578Y-68613812D01*
X197872317Y-68595812D01*
X197821927Y-68545798D01*
X197806576Y-68476481D01*
X197831138Y-68409868D01*
X197872315Y-68374188D01*
X197905576Y-68356189D01*
X198083240Y-68217906D01*
X198235722Y-68052268D01*
X198358860Y-67863791D01*
X198449296Y-67657616D01*
X198504564Y-67439368D01*
X198523156Y-67215000D01*
X198504564Y-66990632D01*
X198449296Y-66772384D01*
X198358860Y-66566209D01*
X198235722Y-66377732D01*
X198083240Y-66212094D01*
X198083239Y-66212093D01*
X198083237Y-66212091D01*
X197905578Y-66073812D01*
X197872317Y-66055812D01*
X197821927Y-66005798D01*
X197806576Y-65936481D01*
X197831138Y-65869868D01*
X197872315Y-65834188D01*
X197905576Y-65816189D01*
X198083240Y-65677906D01*
X198235722Y-65512268D01*
X198358860Y-65323791D01*
X198449296Y-65117616D01*
X198504564Y-64899368D01*
X198523156Y-64675000D01*
X198504564Y-64450632D01*
X198449296Y-64232384D01*
X198358860Y-64026209D01*
X198235722Y-63837732D01*
X198083240Y-63672094D01*
X198083239Y-63672093D01*
X198083237Y-63672091D01*
X197905579Y-63533813D01*
X197905577Y-63533812D01*
X197905576Y-63533811D01*
X197872317Y-63515812D01*
X197821929Y-63465801D01*
X197806576Y-63396484D01*
X197831136Y-63329871D01*
X197872316Y-63294187D01*
X197905576Y-63276189D01*
X198083240Y-63137906D01*
X198235722Y-62972268D01*
X198358860Y-62783791D01*
X198449296Y-62577616D01*
X198504564Y-62359368D01*
X198523156Y-62135000D01*
X198504564Y-61910632D01*
X198449296Y-61692384D01*
X198358860Y-61486209D01*
X198235722Y-61297732D01*
X198083240Y-61132094D01*
X198083239Y-61132093D01*
X198083237Y-61132091D01*
X197905579Y-60993813D01*
X197905577Y-60993812D01*
X197905576Y-60993811D01*
X197872317Y-60975812D01*
X197821929Y-60925801D01*
X197806576Y-60856484D01*
X197831136Y-60789871D01*
X197872316Y-60754187D01*
X197905576Y-60736189D01*
X198083240Y-60597906D01*
X198235722Y-60432268D01*
X198358860Y-60243791D01*
X198378946Y-60198000D01*
X199550844Y-60198000D01*
X199569436Y-60422368D01*
X199569436Y-60422371D01*
X199569437Y-60422372D01*
X199624702Y-60640611D01*
X199624703Y-60640614D01*
X199624704Y-60640616D01*
X199640638Y-60676942D01*
X199715139Y-60846790D01*
X199791100Y-60963057D01*
X199838278Y-61035268D01*
X199927413Y-61132094D01*
X199990762Y-61200908D01*
X200168421Y-61339187D01*
X200168424Y-61339189D01*
X200366426Y-61446342D01*
X200579365Y-61519444D01*
X200801431Y-61556500D01*
X200801434Y-61556500D01*
X201026566Y-61556500D01*
X201026569Y-61556500D01*
X201248635Y-61519444D01*
X201305273Y-61500000D01*
X204496496Y-61500000D01*
X204516458Y-61689929D01*
X204575472Y-61871556D01*
X204670958Y-62036942D01*
X204670960Y-62036944D01*
X204798747Y-62178866D01*
X204953248Y-62291118D01*
X205127712Y-62368794D01*
X205314513Y-62408500D01*
X205314515Y-62408500D01*
X205505485Y-62408500D01*
X205505487Y-62408500D01*
X205692288Y-62368794D01*
X205866752Y-62291118D01*
X206005928Y-62190000D01*
X209006502Y-62190000D01*
X209026457Y-62418087D01*
X209085715Y-62639243D01*
X209182477Y-62846750D01*
X209313804Y-63034303D01*
X209475696Y-63196195D01*
X209663249Y-63327522D01*
X209663250Y-63327522D01*
X209663251Y-63327523D01*
X209689451Y-63339740D01*
X209870756Y-63424284D01*
X209929671Y-63440070D01*
X210091913Y-63483543D01*
X210320000Y-63503498D01*
X210548087Y-63483543D01*
X210769243Y-63424284D01*
X210976749Y-63327523D01*
X211164300Y-63196198D01*
X211326198Y-63034300D01*
X211457523Y-62846749D01*
X211554284Y-62639243D01*
X211613543Y-62418087D01*
X211633498Y-62190000D01*
X211613543Y-61961913D01*
X211554284Y-61740757D01*
X211531729Y-61692388D01*
X211457522Y-61533249D01*
X211423387Y-61484500D01*
X219706496Y-61484500D01*
X219711396Y-61531118D01*
X219726458Y-61674429D01*
X219785472Y-61856056D01*
X219880958Y-62021442D01*
X219880960Y-62021444D01*
X220008747Y-62163366D01*
X220163248Y-62275618D01*
X220337712Y-62353294D01*
X220461557Y-62379618D01*
X220524028Y-62413345D01*
X220558350Y-62475495D01*
X220560667Y-62489690D01*
X220567647Y-62556092D01*
X220576458Y-62639929D01*
X220635472Y-62821556D01*
X220730958Y-62986942D01*
X220730960Y-62986944D01*
X220858747Y-63128866D01*
X221013248Y-63241118D01*
X221187712Y-63318794D01*
X221374513Y-63358500D01*
X221374515Y-63358500D01*
X221565485Y-63358500D01*
X221565487Y-63358500D01*
X221752288Y-63318794D01*
X221926752Y-63241118D01*
X222081253Y-63128866D01*
X222209040Y-62986944D01*
X222304527Y-62821556D01*
X222363542Y-62639928D01*
X222383504Y-62450000D01*
X222363542Y-62260072D01*
X222304527Y-62078444D01*
X222304527Y-62078443D01*
X222209041Y-61913057D01*
X222081252Y-61771133D01*
X221969483Y-61689928D01*
X221926752Y-61658882D01*
X221752288Y-61581206D01*
X221752284Y-61581204D01*
X221628444Y-61554881D01*
X221565970Y-61521153D01*
X221531649Y-61459003D01*
X221529333Y-61444821D01*
X221513542Y-61294572D01*
X221477550Y-61183802D01*
X221454527Y-61112943D01*
X221359041Y-60947557D01*
X221265205Y-60843342D01*
X221231253Y-60805634D01*
X221229279Y-60804200D01*
X221140916Y-60740000D01*
X221076752Y-60693382D01*
X220902288Y-60615706D01*
X220715487Y-60576000D01*
X220524513Y-60576000D01*
X220421454Y-60597906D01*
X220337711Y-60615706D01*
X220163246Y-60693383D01*
X220008747Y-60805633D01*
X219880958Y-60947557D01*
X219785472Y-61112943D01*
X219726458Y-61294570D01*
X219709176Y-61459003D01*
X219706496Y-61484500D01*
X211423387Y-61484500D01*
X211326195Y-61345696D01*
X211164303Y-61183804D01*
X210976750Y-61052477D01*
X210769243Y-60955715D01*
X210548087Y-60896457D01*
X210320000Y-60876502D01*
X210091912Y-60896457D01*
X209870756Y-60955715D01*
X209663249Y-61052477D01*
X209475696Y-61183804D01*
X209313804Y-61345696D01*
X209182477Y-61533249D01*
X209085715Y-61740756D01*
X209026457Y-61961912D01*
X209006502Y-62190000D01*
X206005928Y-62190000D01*
X206021253Y-62178866D01*
X206149040Y-62036944D01*
X206244527Y-61871556D01*
X206303542Y-61689928D01*
X206323504Y-61500000D01*
X206303542Y-61310072D01*
X206244527Y-61128444D01*
X206244527Y-61128443D01*
X206149041Y-60963057D01*
X206136198Y-60948794D01*
X206111144Y-60920968D01*
X206080428Y-60856963D01*
X206089191Y-60786509D01*
X206111142Y-60752351D01*
X206179040Y-60676944D01*
X206274527Y-60511556D01*
X206333542Y-60329928D01*
X206353504Y-60140000D01*
X206347198Y-60079999D01*
X222846496Y-60079999D01*
X222866458Y-60269929D01*
X222925472Y-60451556D01*
X223020958Y-60616942D01*
X223020960Y-60616944D01*
X223148747Y-60758866D01*
X223303248Y-60871118D01*
X223477712Y-60948794D01*
X223664513Y-60988500D01*
X223664515Y-60988500D01*
X223855485Y-60988500D01*
X223855487Y-60988500D01*
X224042288Y-60948794D01*
X224216752Y-60871118D01*
X224371253Y-60758866D01*
X224499040Y-60616944D01*
X224594527Y-60451556D01*
X224653542Y-60269928D01*
X224661102Y-60198000D01*
X225712844Y-60198000D01*
X225731436Y-60422368D01*
X225731436Y-60422371D01*
X225731437Y-60422372D01*
X225786702Y-60640611D01*
X225786703Y-60640614D01*
X225786704Y-60640616D01*
X225802638Y-60676942D01*
X225877139Y-60846790D01*
X225953100Y-60963057D01*
X226000278Y-61035268D01*
X226089413Y-61132094D01*
X226152762Y-61200908D01*
X226330421Y-61339187D01*
X226330424Y-61339189D01*
X226528426Y-61446342D01*
X226741365Y-61519444D01*
X226963431Y-61556500D01*
X226963434Y-61556500D01*
X227188566Y-61556500D01*
X227188569Y-61556500D01*
X227410635Y-61519444D01*
X227623574Y-61446342D01*
X227821576Y-61339189D01*
X227999240Y-61200906D01*
X228151722Y-61035268D01*
X228274860Y-60846791D01*
X228365296Y-60640616D01*
X228420564Y-60422368D01*
X228439156Y-60198000D01*
X228421920Y-59990000D01*
X230226496Y-59990000D01*
X230246458Y-60179929D01*
X230305472Y-60361556D01*
X230400958Y-60526942D01*
X230500004Y-60636944D01*
X230528747Y-60668866D01*
X230683248Y-60781118D01*
X230857712Y-60858794D01*
X231044513Y-60898500D01*
X231044515Y-60898500D01*
X231235485Y-60898500D01*
X231235487Y-60898500D01*
X231422288Y-60858794D01*
X231596752Y-60781118D01*
X231751253Y-60668866D01*
X231879040Y-60526944D01*
X231974527Y-60361556D01*
X232033542Y-60179928D01*
X232053504Y-59990000D01*
X232036688Y-59830000D01*
X237526496Y-59830000D01*
X237546458Y-60019929D01*
X237605472Y-60201556D01*
X237700958Y-60366942D01*
X237759778Y-60432268D01*
X237828747Y-60508866D01*
X237983248Y-60621118D01*
X238157712Y-60698794D01*
X238344513Y-60738500D01*
X238344515Y-60738500D01*
X238535485Y-60738500D01*
X238535487Y-60738500D01*
X238722288Y-60698794D01*
X238896752Y-60621118D01*
X239028382Y-60525482D01*
X239095248Y-60501625D01*
X239164400Y-60517705D01*
X239196078Y-60543109D01*
X239266318Y-60621118D01*
X239278247Y-60634366D01*
X239432748Y-60746618D01*
X239607212Y-60824294D01*
X239794013Y-60864000D01*
X239794015Y-60864000D01*
X239984985Y-60864000D01*
X239984987Y-60864000D01*
X240171788Y-60824294D01*
X240346252Y-60746618D01*
X240500753Y-60634366D01*
X240628540Y-60492444D01*
X240724027Y-60327056D01*
X240783042Y-60145428D01*
X240803004Y-59955500D01*
X240783042Y-59765572D01*
X240724027Y-59583944D01*
X240668979Y-59488599D01*
X240652242Y-59419605D01*
X240668979Y-59362602D01*
X240724027Y-59267257D01*
X240783042Y-59085629D01*
X240803004Y-58895701D01*
X240787767Y-58750733D01*
X240800539Y-58680897D01*
X240849041Y-58629051D01*
X240917874Y-58611656D01*
X240939272Y-58614318D01*
X240984533Y-58623939D01*
X241029512Y-58633500D01*
X241029513Y-58633500D01*
X241220485Y-58633500D01*
X241220487Y-58633500D01*
X241407288Y-58593794D01*
X241581752Y-58516118D01*
X241736253Y-58403866D01*
X241864040Y-58261944D01*
X241959527Y-58096556D01*
X242018542Y-57914928D01*
X242037978Y-57729997D01*
X242064991Y-57664342D01*
X242123213Y-57623712D01*
X242194158Y-57621009D01*
X242255302Y-57657091D01*
X242272407Y-57680169D01*
X242310958Y-57746942D01*
X242350734Y-57791118D01*
X242438747Y-57888866D01*
X242593248Y-58001118D01*
X242767712Y-58078794D01*
X242954513Y-58118500D01*
X242954515Y-58118500D01*
X243145485Y-58118500D01*
X243145487Y-58118500D01*
X243332288Y-58078794D01*
X243506752Y-58001118D01*
X243661253Y-57888866D01*
X243789040Y-57746944D01*
X243789039Y-57746944D01*
X243797902Y-57737102D01*
X243800094Y-57739076D01*
X243836976Y-57703901D01*
X243906688Y-57690455D01*
X243972602Y-57716833D01*
X244003847Y-57752886D01*
X244073966Y-57874335D01*
X244132914Y-57939803D01*
X244201755Y-58016259D01*
X244356256Y-58128511D01*
X244369056Y-58134209D01*
X244423151Y-58180188D01*
X244443801Y-58248115D01*
X244426926Y-58312316D01*
X244358266Y-58431237D01*
X244299252Y-58612864D01*
X244279290Y-58802794D01*
X244299252Y-58992724D01*
X244336749Y-59108127D01*
X244338776Y-59179095D01*
X244302114Y-59239893D01*
X244268165Y-59262170D01*
X244163246Y-59308883D01*
X244008747Y-59421133D01*
X243880958Y-59563057D01*
X243785471Y-59728445D01*
X243777246Y-59753760D01*
X243737171Y-59812365D01*
X243683612Y-59838067D01*
X243527715Y-59871205D01*
X243527713Y-59871205D01*
X243527712Y-59871206D01*
X243428165Y-59915527D01*
X243353246Y-59948883D01*
X243198747Y-60061133D01*
X243070958Y-60203057D01*
X242975472Y-60368443D01*
X242916458Y-60550070D01*
X242896496Y-60739999D01*
X242916458Y-60929929D01*
X242975472Y-61111556D01*
X243070958Y-61276942D01*
X243132868Y-61345700D01*
X243198747Y-61418866D01*
X243353248Y-61531118D01*
X243527712Y-61608794D01*
X243714513Y-61648500D01*
X243714515Y-61648500D01*
X243905485Y-61648500D01*
X243905487Y-61648500D01*
X244092288Y-61608794D01*
X244266752Y-61531118D01*
X244421253Y-61418866D01*
X244549040Y-61276944D01*
X244644527Y-61111556D01*
X244652751Y-61086243D01*
X244692825Y-61027637D01*
X244746385Y-61001932D01*
X244902288Y-60968794D01*
X245076752Y-60891118D01*
X245231253Y-60778866D01*
X245359040Y-60636944D01*
X245454527Y-60471556D01*
X245513542Y-60289928D01*
X245533504Y-60100000D01*
X245513542Y-59910072D01*
X245476042Y-59794662D01*
X245474015Y-59723699D01*
X245510677Y-59662901D01*
X245544621Y-59640626D01*
X245649546Y-59593912D01*
X245804047Y-59481660D01*
X245896858Y-59378583D01*
X249812265Y-59378583D01*
X249832227Y-59568512D01*
X249891241Y-59750139D01*
X249986727Y-59915525D01*
X250017833Y-59950072D01*
X250114516Y-60057449D01*
X250269017Y-60169701D01*
X250443481Y-60247377D01*
X250630282Y-60287083D01*
X250630284Y-60287083D01*
X250821254Y-60287083D01*
X250821256Y-60287083D01*
X251008057Y-60247377D01*
X251182521Y-60169701D01*
X251337022Y-60057449D01*
X251464809Y-59915527D01*
X251521459Y-59817406D01*
X251572841Y-59768413D01*
X251630578Y-59754406D01*
X251666985Y-59754406D01*
X251666987Y-59754406D01*
X251853788Y-59714700D01*
X252028252Y-59637024D01*
X252117217Y-59572386D01*
X252184081Y-59548530D01*
X252253233Y-59564610D01*
X252300394Y-59611324D01*
X252320958Y-59646942D01*
X252352249Y-59681694D01*
X252448747Y-59788866D01*
X252603248Y-59901118D01*
X252777712Y-59978794D01*
X252964513Y-60018500D01*
X252964515Y-60018500D01*
X253155485Y-60018500D01*
X253155487Y-60018500D01*
X253342288Y-59978794D01*
X253516752Y-59901118D01*
X253671253Y-59788866D01*
X253799040Y-59646944D01*
X253894527Y-59481556D01*
X253953542Y-59299928D01*
X253973504Y-59110000D01*
X253953542Y-58920072D01*
X253934023Y-58859999D01*
X260236496Y-58859999D01*
X260256458Y-59049929D01*
X260315472Y-59231556D01*
X260410958Y-59396942D01*
X260493487Y-59488600D01*
X260538747Y-59538866D01*
X260693248Y-59651118D01*
X260867712Y-59728794D01*
X261054513Y-59768500D01*
X261054515Y-59768500D01*
X261245485Y-59768500D01*
X261245487Y-59768500D01*
X261432288Y-59728794D01*
X261606752Y-59651118D01*
X261761253Y-59538866D01*
X261889040Y-59396944D01*
X261984527Y-59231556D01*
X262043542Y-59049928D01*
X262063504Y-58860000D01*
X262043542Y-58670072D01*
X262012019Y-58573056D01*
X261984527Y-58488443D01*
X261889041Y-58323057D01*
X261761252Y-58181133D01*
X261644842Y-58096556D01*
X261606752Y-58068882D01*
X261432288Y-57991206D01*
X261245487Y-57951500D01*
X261054513Y-57951500D01*
X260934019Y-57977112D01*
X260867711Y-57991206D01*
X260693246Y-58068883D01*
X260538747Y-58181133D01*
X260410958Y-58323057D01*
X260315472Y-58488443D01*
X260256458Y-58670070D01*
X260236496Y-58859999D01*
X253934023Y-58859999D01*
X253915436Y-58802794D01*
X253894527Y-58738443D01*
X253799041Y-58573057D01*
X253671252Y-58431133D01*
X253552123Y-58344581D01*
X253516752Y-58318882D01*
X253342288Y-58241206D01*
X253155487Y-58201500D01*
X252964513Y-58201500D01*
X252848695Y-58226118D01*
X252777711Y-58241206D01*
X252603246Y-58318883D01*
X252514285Y-58383517D01*
X252447417Y-58407376D01*
X252378265Y-58391295D01*
X252331105Y-58344581D01*
X252310541Y-58308963D01*
X252182752Y-58167039D01*
X252061292Y-58078793D01*
X252028252Y-58054788D01*
X251853788Y-57977112D01*
X251666987Y-57937406D01*
X251476013Y-57937406D01*
X251369736Y-57959996D01*
X251289211Y-57977112D01*
X251114746Y-58054789D01*
X250960247Y-58167039D01*
X250832460Y-58308961D01*
X250811895Y-58344581D01*
X250777668Y-58403866D01*
X250775811Y-58407082D01*
X250724428Y-58456076D01*
X250666691Y-58470083D01*
X250630282Y-58470083D01*
X250543901Y-58488444D01*
X250443480Y-58509789D01*
X250269015Y-58587466D01*
X250114516Y-58699716D01*
X249986727Y-58841640D01*
X249891241Y-59007026D01*
X249832227Y-59188653D01*
X249812265Y-59378583D01*
X245896858Y-59378583D01*
X245931834Y-59339738D01*
X246027321Y-59174350D01*
X246086336Y-58992722D01*
X246106298Y-58802794D01*
X246086336Y-58612866D01*
X246039943Y-58470083D01*
X246027321Y-58431237D01*
X245931835Y-58265851D01*
X245813304Y-58134209D01*
X245804047Y-58123928D01*
X245741925Y-58078793D01*
X245649545Y-58011675D01*
X245636744Y-58005976D01*
X245582649Y-57959996D01*
X245562000Y-57892068D01*
X245578873Y-57827873D01*
X245647535Y-57708949D01*
X245706550Y-57527321D01*
X245726512Y-57337393D01*
X245706550Y-57147465D01*
X245661628Y-57009209D01*
X245647535Y-56965836D01*
X245552049Y-56800450D01*
X245424260Y-56658526D01*
X245398761Y-56640000D01*
X249926496Y-56640000D01*
X249928443Y-56658526D01*
X249946458Y-56829929D01*
X250005472Y-57011556D01*
X250100958Y-57176942D01*
X250130724Y-57210000D01*
X250228747Y-57318866D01*
X250383248Y-57431118D01*
X250557712Y-57508794D01*
X250744513Y-57548500D01*
X250744515Y-57548500D01*
X250935485Y-57548500D01*
X250935487Y-57548500D01*
X251122288Y-57508794D01*
X251296752Y-57431118D01*
X251451253Y-57318866D01*
X251579040Y-57176944D01*
X251674527Y-57011556D01*
X251733542Y-56829928D01*
X251753504Y-56640000D01*
X251733542Y-56450072D01*
X251690910Y-56318866D01*
X251674527Y-56268443D01*
X251606144Y-56150000D01*
X254461496Y-56150000D01*
X254481458Y-56339929D01*
X254540472Y-56521556D01*
X254635958Y-56686942D01*
X254635960Y-56686944D01*
X254763747Y-56828866D01*
X254918248Y-56941118D01*
X255092712Y-57018794D01*
X255279513Y-57058500D01*
X255279515Y-57058500D01*
X255470485Y-57058500D01*
X255470487Y-57058500D01*
X255477547Y-57056999D01*
X255548337Y-57062399D01*
X255604971Y-57105215D01*
X255629056Y-57167072D01*
X255631458Y-57189930D01*
X255690472Y-57371556D01*
X255785958Y-57536942D01*
X255785960Y-57536944D01*
X255913747Y-57678866D01*
X256068248Y-57791118D01*
X256242712Y-57868794D01*
X256429513Y-57908500D01*
X256429515Y-57908500D01*
X256620485Y-57908500D01*
X256620487Y-57908500D01*
X256807288Y-57868794D01*
X256981752Y-57791118D01*
X257136253Y-57678866D01*
X257264040Y-57536944D01*
X257359527Y-57371556D01*
X257418542Y-57189928D01*
X257438504Y-57000000D01*
X257418542Y-56810072D01*
X257374023Y-56673057D01*
X257359527Y-56628443D01*
X257264041Y-56463057D01*
X257136252Y-56321133D01*
X256981753Y-56208883D01*
X256981752Y-56208882D01*
X256807288Y-56131206D01*
X256620487Y-56091500D01*
X256429513Y-56091500D01*
X256422445Y-56093002D01*
X256351655Y-56087597D01*
X256295024Y-56044778D01*
X256270944Y-55982926D01*
X256268542Y-55960072D01*
X256209527Y-55778444D01*
X256209527Y-55778443D01*
X256114041Y-55613057D01*
X255986252Y-55471133D01*
X255831753Y-55358883D01*
X255831752Y-55358882D01*
X255657288Y-55281206D01*
X255470487Y-55241500D01*
X255279513Y-55241500D01*
X255154979Y-55267970D01*
X255092711Y-55281206D01*
X254918246Y-55358883D01*
X254763747Y-55471133D01*
X254635958Y-55613057D01*
X254540472Y-55778443D01*
X254481458Y-55960070D01*
X254461496Y-56150000D01*
X251606144Y-56150000D01*
X251579041Y-56103057D01*
X251451252Y-55961133D01*
X251296753Y-55848883D01*
X251296752Y-55848882D01*
X251122288Y-55771206D01*
X250935487Y-55731500D01*
X250744513Y-55731500D01*
X250619979Y-55757970D01*
X250557711Y-55771206D01*
X250383246Y-55848883D01*
X250228747Y-55961133D01*
X250100958Y-56103057D01*
X250005472Y-56268443D01*
X249946458Y-56450070D01*
X249926496Y-56639999D01*
X249926496Y-56640000D01*
X245398761Y-56640000D01*
X245347010Y-56602400D01*
X245269760Y-56546275D01*
X245095296Y-56468599D01*
X244908495Y-56428893D01*
X244717521Y-56428893D01*
X244592986Y-56455363D01*
X244530719Y-56468599D01*
X244356254Y-56546276D01*
X244201755Y-56658526D01*
X244065106Y-56810291D01*
X244062914Y-56808317D01*
X244026007Y-56843504D01*
X243956292Y-56856935D01*
X243890383Y-56830543D01*
X243859160Y-56794506D01*
X243789041Y-56673057D01*
X243661252Y-56531133D01*
X243549678Y-56450070D01*
X243506752Y-56418882D01*
X243332288Y-56341206D01*
X243145487Y-56301500D01*
X242954513Y-56301500D01*
X242862148Y-56321133D01*
X242767711Y-56341206D01*
X242593246Y-56418883D01*
X242438747Y-56531133D01*
X242310958Y-56673057D01*
X242215472Y-56838443D01*
X242156458Y-57020070D01*
X242137021Y-57205001D01*
X242110007Y-57270658D01*
X242051786Y-57311287D01*
X241980840Y-57313990D01*
X241919696Y-57277907D01*
X241902591Y-57254829D01*
X241879817Y-57215384D01*
X241864040Y-57188056D01*
X241736253Y-57046134D01*
X241698621Y-57018793D01*
X241591711Y-56941118D01*
X241581752Y-56933882D01*
X241407288Y-56856206D01*
X241220487Y-56816500D01*
X241029513Y-56816500D01*
X240904979Y-56842970D01*
X240842711Y-56856206D01*
X240668246Y-56933883D01*
X240513747Y-57046133D01*
X240385958Y-57188057D01*
X240290472Y-57353443D01*
X240231458Y-57535070D01*
X240211496Y-57725000D01*
X240226732Y-57869965D01*
X240213960Y-57939803D01*
X240165457Y-57991650D01*
X240096625Y-58009044D01*
X240075227Y-58006382D01*
X239984987Y-57987201D01*
X239823470Y-57987201D01*
X239755349Y-57967199D01*
X239708856Y-57913543D01*
X239698752Y-57843269D01*
X239706931Y-57819637D01*
X239705435Y-57819151D01*
X239738680Y-57716833D01*
X239768542Y-57624928D01*
X239788504Y-57435000D01*
X239768542Y-57245072D01*
X239736827Y-57147463D01*
X239709527Y-57063443D01*
X239614041Y-56898057D01*
X239486252Y-56756133D01*
X239409002Y-56700008D01*
X239331752Y-56643882D01*
X239157288Y-56566206D01*
X238970487Y-56526500D01*
X238779513Y-56526500D01*
X238686475Y-56546276D01*
X238592711Y-56566206D01*
X238452925Y-56628443D01*
X238426970Y-56639999D01*
X238418246Y-56643883D01*
X238263747Y-56756133D01*
X238135958Y-56898057D01*
X238040472Y-57063443D01*
X237981458Y-57245070D01*
X237961496Y-57435000D01*
X237981458Y-57624929D01*
X238040472Y-57806556D01*
X238135958Y-57971942D01*
X238166968Y-58006382D01*
X238263747Y-58113866D01*
X238418248Y-58226118D01*
X238592712Y-58303794D01*
X238779513Y-58343500D01*
X238779515Y-58343500D01*
X238941030Y-58343500D01*
X239009151Y-58363502D01*
X239055644Y-58417158D01*
X239065748Y-58487432D01*
X239057568Y-58511063D01*
X239059065Y-58511550D01*
X238995958Y-58705771D01*
X238976205Y-58893712D01*
X238949191Y-58959369D01*
X238890970Y-58999998D01*
X238820025Y-59002701D01*
X238799647Y-58995648D01*
X238722290Y-58961207D01*
X238722288Y-58961206D01*
X238535487Y-58921500D01*
X238344513Y-58921500D01*
X238228267Y-58946209D01*
X238157711Y-58961206D01*
X237983246Y-59038883D01*
X237828747Y-59151133D01*
X237700958Y-59293057D01*
X237605472Y-59458443D01*
X237546458Y-59640070D01*
X237526496Y-59830000D01*
X232036688Y-59830000D01*
X232033542Y-59800072D01*
X231985143Y-59651116D01*
X231974527Y-59618443D01*
X231879041Y-59453057D01*
X231751252Y-59311133D01*
X231674002Y-59255007D01*
X231596752Y-59198882D01*
X231422288Y-59121206D01*
X231235487Y-59081500D01*
X231044513Y-59081500D01*
X230919978Y-59107970D01*
X230857711Y-59121206D01*
X230683246Y-59198883D01*
X230528747Y-59311133D01*
X230400958Y-59453057D01*
X230305472Y-59618443D01*
X230246458Y-59800070D01*
X230226496Y-59990000D01*
X228421920Y-59990000D01*
X228420564Y-59973632D01*
X228365296Y-59755384D01*
X228274860Y-59549209D01*
X228151722Y-59360732D01*
X227999240Y-59195094D01*
X227999239Y-59195093D01*
X227999237Y-59195091D01*
X227821579Y-59056813D01*
X227821577Y-59056812D01*
X227821576Y-59056811D01*
X227788317Y-59038812D01*
X227737929Y-58988801D01*
X227722576Y-58919484D01*
X227747136Y-58852871D01*
X227788316Y-58817187D01*
X227821576Y-58799189D01*
X227999240Y-58660906D01*
X228151722Y-58495268D01*
X228274860Y-58306791D01*
X228365296Y-58100616D01*
X228420564Y-57882368D01*
X228439156Y-57658000D01*
X228420564Y-57433632D01*
X228365296Y-57215384D01*
X228274860Y-57009209D01*
X228151722Y-56820732D01*
X227999240Y-56655094D01*
X227999239Y-56655093D01*
X227999237Y-56655091D01*
X227821578Y-56516812D01*
X227788317Y-56498812D01*
X227737927Y-56448798D01*
X227722576Y-56379481D01*
X227747138Y-56312868D01*
X227788315Y-56277188D01*
X227821576Y-56259189D01*
X227999240Y-56120906D01*
X228151722Y-55955268D01*
X228274860Y-55766791D01*
X228365296Y-55560616D01*
X228420564Y-55342368D01*
X228439156Y-55118000D01*
X228420564Y-54893632D01*
X228365296Y-54675384D01*
X228274860Y-54469209D01*
X228151722Y-54280732D01*
X227999240Y-54115094D01*
X227999239Y-54115093D01*
X227999237Y-54115091D01*
X227821578Y-53976812D01*
X227788317Y-53958812D01*
X227737927Y-53908798D01*
X227722576Y-53839481D01*
X227747138Y-53772868D01*
X227788315Y-53737188D01*
X227821576Y-53719189D01*
X227999240Y-53580906D01*
X228151722Y-53415268D01*
X228274860Y-53226791D01*
X228365296Y-53020616D01*
X228420564Y-52802368D01*
X228439156Y-52578000D01*
X228420564Y-52353632D01*
X228394321Y-52250000D01*
X229146496Y-52250000D01*
X229166458Y-52439929D01*
X229225472Y-52621556D01*
X229320958Y-52786942D01*
X229386717Y-52859975D01*
X229448747Y-52928866D01*
X229603248Y-53041118D01*
X229777712Y-53118794D01*
X229964513Y-53158500D01*
X229964515Y-53158500D01*
X230155489Y-53158500D01*
X230302708Y-53127207D01*
X230328117Y-53121806D01*
X230398907Y-53127207D01*
X230455540Y-53170024D01*
X230480034Y-53236661D01*
X230464613Y-53305963D01*
X230463434Y-53308051D01*
X230405472Y-53408445D01*
X230346458Y-53590070D01*
X230326496Y-53780000D01*
X230346458Y-53969929D01*
X230405472Y-54151556D01*
X230500958Y-54316942D01*
X230554275Y-54376156D01*
X230628747Y-54458866D01*
X230783248Y-54571118D01*
X230957712Y-54648794D01*
X231144513Y-54688500D01*
X231144515Y-54688500D01*
X231335485Y-54688500D01*
X231335487Y-54688500D01*
X231522288Y-54648794D01*
X231696752Y-54571118D01*
X231851253Y-54458866D01*
X231979040Y-54316944D01*
X232074527Y-54151556D01*
X232076495Y-54145500D01*
X235282465Y-54145500D01*
X235302427Y-54335429D01*
X235361441Y-54517056D01*
X235456927Y-54682442D01*
X235537513Y-54771942D01*
X235584716Y-54824366D01*
X235739217Y-54936618D01*
X235913681Y-55014294D01*
X236100482Y-55054000D01*
X236100484Y-55054000D01*
X236291457Y-55054000D01*
X236365525Y-55038256D01*
X236436316Y-55043657D01*
X236492949Y-55086473D01*
X236517443Y-55153111D01*
X236502022Y-55222413D01*
X236500843Y-55224501D01*
X236475472Y-55268445D01*
X236416458Y-55450070D01*
X236396496Y-55639999D01*
X236416458Y-55829929D01*
X236475472Y-56011556D01*
X236570958Y-56176942D01*
X236570960Y-56176944D01*
X236698747Y-56318866D01*
X236853248Y-56431118D01*
X237027712Y-56508794D01*
X237214513Y-56548500D01*
X237214515Y-56548500D01*
X237405485Y-56548500D01*
X237405487Y-56548500D01*
X237592288Y-56508794D01*
X237766752Y-56431118D01*
X237921253Y-56318866D01*
X238049040Y-56176944D01*
X238144527Y-56011556D01*
X238203542Y-55829928D01*
X238223504Y-55640000D01*
X238203542Y-55450072D01*
X238148674Y-55281206D01*
X238144527Y-55268443D01*
X238049041Y-55103057D01*
X237921252Y-54961133D01*
X237766753Y-54848883D01*
X237766752Y-54848882D01*
X237592288Y-54771206D01*
X237405487Y-54731500D01*
X237214513Y-54731500D01*
X237194586Y-54735735D01*
X237140441Y-54747244D01*
X237069650Y-54741841D01*
X237013018Y-54699024D01*
X236988525Y-54632386D01*
X237003947Y-54563085D01*
X237005093Y-54561054D01*
X237030496Y-54517056D01*
X237089511Y-54335428D01*
X237109473Y-54145500D01*
X237089511Y-53955572D01*
X237054816Y-53848793D01*
X237030496Y-53773943D01*
X236935010Y-53608557D01*
X236807221Y-53466633D01*
X236666647Y-53364500D01*
X236666646Y-53364499D01*
X237792236Y-53364499D01*
X237812198Y-53554429D01*
X237871212Y-53736056D01*
X237966698Y-53901442D01*
X238034563Y-53976814D01*
X238094487Y-54043366D01*
X238248988Y-54155618D01*
X238423452Y-54233294D01*
X238610253Y-54273000D01*
X238610255Y-54273000D01*
X238801225Y-54273000D01*
X238801227Y-54273000D01*
X238988028Y-54233294D01*
X239118961Y-54174999D01*
X241086496Y-54174999D01*
X241106458Y-54364929D01*
X241165472Y-54546556D01*
X241260958Y-54711942D01*
X241260960Y-54711944D01*
X241388747Y-54853866D01*
X241543248Y-54966118D01*
X241717712Y-55043794D01*
X241904513Y-55083500D01*
X241904515Y-55083500D01*
X242095485Y-55083500D01*
X242095487Y-55083500D01*
X242282288Y-55043794D01*
X242456752Y-54966118D01*
X242611253Y-54853866D01*
X242739040Y-54711944D01*
X242834527Y-54546556D01*
X242893542Y-54364928D01*
X242907198Y-54235000D01*
X245131496Y-54235000D01*
X245151458Y-54424929D01*
X245210472Y-54606556D01*
X245305958Y-54771942D01*
X245305960Y-54771944D01*
X245433747Y-54913866D01*
X245588248Y-55026118D01*
X245762712Y-55103794D01*
X245949513Y-55143500D01*
X245949515Y-55143500D01*
X246140485Y-55143500D01*
X246140487Y-55143500D01*
X246327288Y-55103794D01*
X246501752Y-55026118D01*
X246656253Y-54913866D01*
X246784040Y-54771944D01*
X246879527Y-54606556D01*
X246938542Y-54424928D01*
X246958504Y-54235000D01*
X246938542Y-54045072D01*
X246891874Y-53901444D01*
X246879527Y-53863443D01*
X246784041Y-53698057D01*
X246656252Y-53556133D01*
X246501753Y-53443883D01*
X246501752Y-53443882D01*
X246327288Y-53366206D01*
X246140487Y-53326500D01*
X245949513Y-53326500D01*
X245824978Y-53352970D01*
X245762711Y-53366206D01*
X245588246Y-53443883D01*
X245433747Y-53556133D01*
X245305958Y-53698057D01*
X245210472Y-53863443D01*
X245151458Y-54045070D01*
X245131496Y-54235000D01*
X242907198Y-54235000D01*
X242913504Y-54175000D01*
X242893542Y-53985072D01*
X242834527Y-53803444D01*
X242834527Y-53803443D01*
X242739041Y-53638057D01*
X242611252Y-53496133D01*
X242490560Y-53408445D01*
X242456752Y-53383882D01*
X242282288Y-53306206D01*
X242095487Y-53266500D01*
X241904513Y-53266500D01*
X241779979Y-53292970D01*
X241717711Y-53306206D01*
X241543246Y-53383883D01*
X241388747Y-53496133D01*
X241260958Y-53638057D01*
X241165472Y-53803443D01*
X241106458Y-53985070D01*
X241086496Y-54174999D01*
X239118961Y-54174999D01*
X239162492Y-54155618D01*
X239316993Y-54043366D01*
X239444780Y-53901444D01*
X239540267Y-53736056D01*
X239599282Y-53554428D01*
X239619244Y-53364500D01*
X239599282Y-53174572D01*
X239540267Y-52992944D01*
X239540267Y-52992943D01*
X239498836Y-52921182D01*
X259519500Y-52921182D01*
X259558604Y-53180615D01*
X259558605Y-53180618D01*
X259635936Y-53431323D01*
X259749772Y-53667704D01*
X259897563Y-53884474D01*
X259897565Y-53884476D01*
X259897567Y-53884479D01*
X260076019Y-54076805D01*
X260281143Y-54240386D01*
X260508357Y-54371568D01*
X260752584Y-54467420D01*
X261008370Y-54525802D01*
X261204506Y-54540500D01*
X261206859Y-54540500D01*
X261333141Y-54540500D01*
X261335494Y-54540500D01*
X261531630Y-54525802D01*
X261787416Y-54467420D01*
X262031643Y-54371568D01*
X262258857Y-54240386D01*
X262463981Y-54076805D01*
X262642433Y-53884479D01*
X262790228Y-53667704D01*
X262904063Y-53431323D01*
X262981396Y-53180615D01*
X263020500Y-52921182D01*
X263020500Y-52658818D01*
X262981396Y-52399385D01*
X262904063Y-52148677D01*
X262897663Y-52135388D01*
X262849242Y-52034840D01*
X262790228Y-51912296D01*
X262710659Y-51795590D01*
X262642436Y-51695525D01*
X262642434Y-51695523D01*
X262642433Y-51695521D01*
X262463981Y-51503195D01*
X262258857Y-51339614D01*
X262031643Y-51208432D01*
X262031642Y-51208432D01*
X261787417Y-51112580D01*
X261531630Y-51054198D01*
X261337836Y-51039675D01*
X261337822Y-51039674D01*
X261335494Y-51039500D01*
X261204506Y-51039500D01*
X261202178Y-51039674D01*
X261202163Y-51039675D01*
X261008369Y-51054198D01*
X260752582Y-51112580D01*
X260508356Y-51208432D01*
X260281146Y-51339612D01*
X260281143Y-51339614D01*
X260076019Y-51503195D01*
X260009307Y-51575094D01*
X259897563Y-51695525D01*
X259749772Y-51912295D01*
X259635936Y-52148676D01*
X259558605Y-52399381D01*
X259558604Y-52399385D01*
X259519500Y-52658818D01*
X259519500Y-52921182D01*
X239498836Y-52921182D01*
X239444781Y-52827557D01*
X239316992Y-52685633D01*
X239228796Y-52621555D01*
X239162492Y-52573382D01*
X238988028Y-52495706D01*
X238801227Y-52456000D01*
X238610253Y-52456000D01*
X238485718Y-52482470D01*
X238423451Y-52495706D01*
X238248986Y-52573383D01*
X238094487Y-52685633D01*
X237966698Y-52827557D01*
X237871212Y-52992943D01*
X237812198Y-53174570D01*
X237792236Y-53364499D01*
X236666646Y-53364499D01*
X236652721Y-53354382D01*
X236478257Y-53276706D01*
X236291456Y-53237000D01*
X236100482Y-53237000D01*
X235975948Y-53263470D01*
X235913680Y-53276706D01*
X235801841Y-53326500D01*
X235745565Y-53351556D01*
X235739215Y-53354383D01*
X235584716Y-53466633D01*
X235456927Y-53608557D01*
X235361441Y-53773943D01*
X235302427Y-53955570D01*
X235282465Y-54145500D01*
X232076495Y-54145500D01*
X232133542Y-53969928D01*
X232153504Y-53780000D01*
X232133542Y-53590072D01*
X232081961Y-53431323D01*
X232074527Y-53408443D01*
X231979041Y-53243057D01*
X231851252Y-53101133D01*
X231740423Y-53020611D01*
X231696752Y-52988882D01*
X231522288Y-52911206D01*
X231335487Y-52871500D01*
X231144513Y-52871500D01*
X230971882Y-52908194D01*
X230901091Y-52902792D01*
X230844458Y-52859975D01*
X230819965Y-52793337D01*
X230835386Y-52724036D01*
X230836566Y-52721947D01*
X230872667Y-52659418D01*
X230894527Y-52621556D01*
X230953542Y-52439928D01*
X230973504Y-52250000D01*
X230953542Y-52060072D01*
X230894527Y-51878444D01*
X230894527Y-51878443D01*
X230799041Y-51713057D01*
X230671252Y-51571133D01*
X230544157Y-51478793D01*
X230516752Y-51458882D01*
X230342288Y-51381206D01*
X230155487Y-51341500D01*
X229964513Y-51341500D01*
X229880461Y-51359366D01*
X229777711Y-51381206D01*
X229603246Y-51458883D01*
X229448747Y-51571133D01*
X229320958Y-51713057D01*
X229225472Y-51878443D01*
X229166458Y-52060070D01*
X229146496Y-52250000D01*
X228394321Y-52250000D01*
X228365296Y-52135384D01*
X228274860Y-51929209D01*
X228151722Y-51740732D01*
X228008157Y-51584780D01*
X227976737Y-51521117D01*
X227984724Y-51450571D01*
X228029583Y-51395542D01*
X228056827Y-51381388D01*
X228171963Y-51338445D01*
X228288904Y-51250904D01*
X228376445Y-51133962D01*
X228427494Y-50997093D01*
X228433640Y-50939936D01*
X228434000Y-50933222D01*
X228434000Y-50292000D01*
X227507116Y-50292000D01*
X227535493Y-50247844D01*
X227544530Y-50217066D01*
X232339524Y-50217066D01*
X232359486Y-50406996D01*
X232418500Y-50588623D01*
X232513986Y-50754009D01*
X232513988Y-50754011D01*
X232641775Y-50895933D01*
X232796276Y-51008185D01*
X232970740Y-51085861D01*
X233157541Y-51125567D01*
X233157543Y-51125567D01*
X233348513Y-51125567D01*
X233348515Y-51125567D01*
X233535316Y-51085861D01*
X233709780Y-51008185D01*
X233864281Y-50895933D01*
X233992068Y-50754011D01*
X234034510Y-50680499D01*
X237556496Y-50680499D01*
X237576458Y-50870429D01*
X237635472Y-51052056D01*
X237730958Y-51217442D01*
X237831998Y-51329658D01*
X237858747Y-51359366D01*
X238013248Y-51471618D01*
X238187712Y-51549294D01*
X238374513Y-51589000D01*
X238374515Y-51589000D01*
X238565485Y-51589000D01*
X238565487Y-51589000D01*
X238752288Y-51549294D01*
X238926752Y-51471618D01*
X239081253Y-51359366D01*
X239209040Y-51217444D01*
X239304527Y-51052056D01*
X239363542Y-50870428D01*
X239383504Y-50680500D01*
X239363542Y-50490572D01*
X239304527Y-50308944D01*
X239304527Y-50308943D01*
X239209041Y-50143557D01*
X239081252Y-50001633D01*
X238926753Y-49889383D01*
X238926752Y-49889382D01*
X238752288Y-49811706D01*
X238565487Y-49772000D01*
X238374513Y-49772000D01*
X238249979Y-49798470D01*
X238187711Y-49811706D01*
X238013246Y-49889383D01*
X237858747Y-50001633D01*
X237730958Y-50143557D01*
X237635472Y-50308943D01*
X237576458Y-50490570D01*
X237556496Y-50680499D01*
X234034510Y-50680499D01*
X234087555Y-50588623D01*
X234146570Y-50406995D01*
X234166532Y-50217067D01*
X234146570Y-50027139D01*
X234087555Y-49845511D01*
X234087555Y-49845510D01*
X233992069Y-49680124D01*
X233864280Y-49538200D01*
X233709781Y-49425950D01*
X233709780Y-49425949D01*
X233535316Y-49348273D01*
X233348515Y-49308567D01*
X233157541Y-49308567D01*
X233033007Y-49335037D01*
X232970739Y-49348273D01*
X232796274Y-49425950D01*
X232641775Y-49538200D01*
X232513986Y-49680124D01*
X232418500Y-49845510D01*
X232359486Y-50027137D01*
X232339524Y-50217066D01*
X227544530Y-50217066D01*
X227576000Y-50109889D01*
X227576000Y-49966111D01*
X227535493Y-49828156D01*
X227507116Y-49784000D01*
X228434000Y-49784000D01*
X228434000Y-49142777D01*
X228433640Y-49136063D01*
X228427494Y-49078906D01*
X228376445Y-48942037D01*
X228288904Y-48825095D01*
X228171962Y-48737554D01*
X228035093Y-48686505D01*
X227977936Y-48680359D01*
X227971223Y-48680000D01*
X227330000Y-48680000D01*
X227330000Y-49604325D01*
X227218315Y-49553320D01*
X227111763Y-49538000D01*
X227040237Y-49538000D01*
X226933685Y-49553320D01*
X226822000Y-49604325D01*
X226822000Y-48680000D01*
X226180777Y-48680000D01*
X226174063Y-48680359D01*
X226116906Y-48686505D01*
X225980037Y-48737554D01*
X225863095Y-48825095D01*
X225775554Y-48942037D01*
X225724505Y-49078906D01*
X225718359Y-49136063D01*
X225718000Y-49142777D01*
X225718000Y-49784000D01*
X226644884Y-49784000D01*
X226616507Y-49828156D01*
X226576000Y-49966111D01*
X226576000Y-50109889D01*
X226616507Y-50247844D01*
X226644884Y-50292000D01*
X225718000Y-50292000D01*
X225718000Y-50933222D01*
X225718359Y-50939936D01*
X225724505Y-50997093D01*
X225775554Y-51133962D01*
X225863095Y-51250904D01*
X225980037Y-51338445D01*
X226095172Y-51381388D01*
X226152008Y-51423935D01*
X226176819Y-51490455D01*
X226161728Y-51559829D01*
X226143841Y-51584782D01*
X226000278Y-51740731D01*
X225877139Y-51929209D01*
X225786702Y-52135388D01*
X225744730Y-52301134D01*
X225731436Y-52353632D01*
X225712844Y-52578000D01*
X225731436Y-52802368D01*
X225731436Y-52802371D01*
X225731437Y-52802372D01*
X225786702Y-53020611D01*
X225786703Y-53020614D01*
X225786704Y-53020616D01*
X225791248Y-53030975D01*
X225877139Y-53226790D01*
X225979773Y-53383883D01*
X226000278Y-53415268D01*
X226093876Y-53516942D01*
X226152762Y-53580908D01*
X226330418Y-53719185D01*
X226330420Y-53719186D01*
X226330424Y-53719189D01*
X226363682Y-53737187D01*
X226414071Y-53787200D01*
X226429423Y-53856517D01*
X226404862Y-53923130D01*
X226363683Y-53958812D01*
X226343143Y-53969928D01*
X226330418Y-53976814D01*
X226152762Y-54115091D01*
X226000278Y-54280731D01*
X225877139Y-54469209D01*
X225786702Y-54675388D01*
X225742768Y-54848882D01*
X225731436Y-54893632D01*
X225712844Y-55118000D01*
X225731436Y-55342368D01*
X225731436Y-55342371D01*
X225731437Y-55342372D01*
X225786702Y-55560611D01*
X225877139Y-55766790D01*
X226000278Y-55955268D01*
X226152762Y-56120908D01*
X226224754Y-56176942D01*
X226330424Y-56259189D01*
X226363682Y-56277187D01*
X226414070Y-56327197D01*
X226429423Y-56396513D01*
X226404863Y-56463127D01*
X226363683Y-56498811D01*
X226330423Y-56516810D01*
X226152762Y-56655091D01*
X226000278Y-56820731D01*
X225877139Y-57009209D01*
X225786702Y-57215388D01*
X225731437Y-57433627D01*
X225731436Y-57433632D01*
X225712844Y-57658000D01*
X225731436Y-57882368D01*
X225731436Y-57882371D01*
X225731437Y-57882372D01*
X225786702Y-58100611D01*
X225877139Y-58306790D01*
X225995158Y-58487432D01*
X226000278Y-58495268D01*
X226090978Y-58593794D01*
X226152762Y-58660908D01*
X226330418Y-58799185D01*
X226330420Y-58799186D01*
X226330424Y-58799189D01*
X226363682Y-58817187D01*
X226414071Y-58867200D01*
X226429423Y-58936517D01*
X226404862Y-59003130D01*
X226363683Y-59038812D01*
X226343143Y-59049928D01*
X226330418Y-59056814D01*
X226152762Y-59195091D01*
X226000278Y-59360731D01*
X225877139Y-59549209D01*
X225786702Y-59755388D01*
X225731437Y-59973627D01*
X225731436Y-59973632D01*
X225712844Y-60198000D01*
X224661102Y-60198000D01*
X224673504Y-60080000D01*
X224653542Y-59890072D01*
X224601026Y-59728445D01*
X224594527Y-59708443D01*
X224499041Y-59543057D01*
X224371252Y-59401133D01*
X224244281Y-59308883D01*
X224216752Y-59288882D01*
X224042288Y-59211206D01*
X223855487Y-59171500D01*
X223664513Y-59171500D01*
X223583806Y-59188655D01*
X223477711Y-59211206D01*
X223303246Y-59288883D01*
X223148747Y-59401133D01*
X223020958Y-59543057D01*
X222925472Y-59708443D01*
X222866458Y-59890070D01*
X222846496Y-60079999D01*
X206347198Y-60079999D01*
X206333542Y-59950072D01*
X206284803Y-59800070D01*
X206274527Y-59768443D01*
X206179041Y-59603057D01*
X206051252Y-59461133D01*
X205926681Y-59370627D01*
X205896752Y-59348882D01*
X205722288Y-59271206D01*
X205535487Y-59231500D01*
X205344513Y-59231500D01*
X205219979Y-59257970D01*
X205157711Y-59271206D01*
X204983246Y-59348883D01*
X204828747Y-59461133D01*
X204700958Y-59603057D01*
X204605472Y-59768443D01*
X204546458Y-59950070D01*
X204543982Y-59973627D01*
X204526496Y-60140000D01*
X204536476Y-60234963D01*
X204546458Y-60329929D01*
X204605472Y-60511556D01*
X204700958Y-60676942D01*
X204738854Y-60719029D01*
X204769571Y-60783036D01*
X204760808Y-60853490D01*
X204738855Y-60887650D01*
X204670958Y-60963057D01*
X204575472Y-61128443D01*
X204516458Y-61310070D01*
X204496496Y-61500000D01*
X201305273Y-61500000D01*
X201461574Y-61446342D01*
X201659576Y-61339189D01*
X201837240Y-61200906D01*
X201989722Y-61035268D01*
X202112860Y-60846791D01*
X202203296Y-60640616D01*
X202258564Y-60422368D01*
X202277156Y-60198000D01*
X202258564Y-59973632D01*
X202203296Y-59755384D01*
X202112860Y-59549209D01*
X201989722Y-59360732D01*
X201837240Y-59195094D01*
X201837239Y-59195093D01*
X201837237Y-59195091D01*
X201659579Y-59056813D01*
X201659577Y-59056812D01*
X201659576Y-59056811D01*
X201626317Y-59038812D01*
X201575929Y-58988801D01*
X201560576Y-58919484D01*
X201585136Y-58852871D01*
X201626316Y-58817187D01*
X201659576Y-58799189D01*
X201837240Y-58660906D01*
X201989722Y-58495268D01*
X202112860Y-58306791D01*
X202203296Y-58100616D01*
X202258564Y-57882368D01*
X202277156Y-57658000D01*
X202258564Y-57433632D01*
X202203296Y-57215384D01*
X202112860Y-57009209D01*
X201989722Y-56820732D01*
X201837240Y-56655094D01*
X201837239Y-56655093D01*
X201837237Y-56655091D01*
X201659578Y-56516812D01*
X201626317Y-56498812D01*
X201575927Y-56448798D01*
X201560576Y-56379481D01*
X201585138Y-56312868D01*
X201626315Y-56277188D01*
X201659576Y-56259189D01*
X201837240Y-56120906D01*
X201989722Y-55955268D01*
X202112860Y-55766791D01*
X202203296Y-55560616D01*
X202258564Y-55342368D01*
X202277156Y-55118000D01*
X202258564Y-54893632D01*
X202203296Y-54675384D01*
X202112860Y-54469209D01*
X201989722Y-54280732D01*
X201837240Y-54115094D01*
X201837239Y-54115093D01*
X201837237Y-54115091D01*
X201659578Y-53976812D01*
X201626317Y-53958812D01*
X201575927Y-53908798D01*
X201560576Y-53839481D01*
X201585138Y-53772868D01*
X201626315Y-53737188D01*
X201659576Y-53719189D01*
X201837240Y-53580906D01*
X201849196Y-53567918D01*
X208606496Y-53567918D01*
X208610767Y-53608556D01*
X208626458Y-53757847D01*
X208685472Y-53939474D01*
X208780958Y-54104860D01*
X208844112Y-54175000D01*
X208908747Y-54246784D01*
X209063248Y-54359036D01*
X209237712Y-54436712D01*
X209424513Y-54476418D01*
X209424515Y-54476418D01*
X209615485Y-54476418D01*
X209615487Y-54476418D01*
X209802288Y-54436712D01*
X209865139Y-54408728D01*
X209935505Y-54399294D01*
X209990449Y-54421899D01*
X210113248Y-54511118D01*
X210287712Y-54588794D01*
X210474513Y-54628500D01*
X210474515Y-54628500D01*
X210665485Y-54628500D01*
X210665487Y-54628500D01*
X210852288Y-54588794D01*
X211026752Y-54511118D01*
X211181253Y-54398866D01*
X211309040Y-54256944D01*
X211404527Y-54091556D01*
X211463542Y-53909928D01*
X211483504Y-53720000D01*
X211463542Y-53530072D01*
X211414127Y-53377988D01*
X211404527Y-53348443D01*
X211309041Y-53183057D01*
X211181252Y-53041133D01*
X211097110Y-52980000D01*
X212686496Y-52980000D01*
X212692920Y-53041118D01*
X212706458Y-53169929D01*
X212765472Y-53351556D01*
X212860958Y-53516942D01*
X212988746Y-53658866D01*
X212988747Y-53658866D01*
X213143248Y-53771118D01*
X213317712Y-53848794D01*
X213504513Y-53888500D01*
X213504515Y-53888500D01*
X213695485Y-53888500D01*
X213695487Y-53888500D01*
X213882288Y-53848794D01*
X214056752Y-53771118D01*
X214211253Y-53658866D01*
X214339040Y-53516944D01*
X214434527Y-53351556D01*
X214493542Y-53169928D01*
X214513504Y-52980000D01*
X214493542Y-52790072D01*
X214450895Y-52658818D01*
X214434527Y-52608443D01*
X214339041Y-52443057D01*
X214211252Y-52301133D01*
X214056753Y-52188883D01*
X214056752Y-52188882D01*
X213882288Y-52111206D01*
X213695487Y-52071500D01*
X213504513Y-52071500D01*
X213379978Y-52097970D01*
X213317711Y-52111206D01*
X213143246Y-52188883D01*
X212988747Y-52301133D01*
X212860958Y-52443057D01*
X212765472Y-52608443D01*
X212706458Y-52790070D01*
X212686496Y-52979999D01*
X212686496Y-52980000D01*
X211097110Y-52980000D01*
X211026753Y-52928883D01*
X211026752Y-52928882D01*
X210852288Y-52851206D01*
X210665487Y-52811500D01*
X210474513Y-52811500D01*
X210311747Y-52846097D01*
X210287707Y-52851207D01*
X210224858Y-52879189D01*
X210154491Y-52888623D01*
X210099550Y-52866018D01*
X209995019Y-52790072D01*
X209976752Y-52776800D01*
X209802288Y-52699124D01*
X209615487Y-52659418D01*
X209424513Y-52659418D01*
X209301182Y-52685633D01*
X209237711Y-52699124D01*
X209063246Y-52776801D01*
X208908747Y-52889051D01*
X208780958Y-53030975D01*
X208685472Y-53196361D01*
X208626458Y-53377988D01*
X208606496Y-53567917D01*
X208606496Y-53567918D01*
X201849196Y-53567918D01*
X201989722Y-53415268D01*
X202112860Y-53226791D01*
X202203296Y-53020616D01*
X202258564Y-52802368D01*
X202277156Y-52578000D01*
X202258564Y-52353632D01*
X202203296Y-52135384D01*
X202112860Y-51929209D01*
X201989722Y-51740732D01*
X201846157Y-51584780D01*
X201814737Y-51521117D01*
X201822724Y-51450571D01*
X201867583Y-51395542D01*
X201894827Y-51381388D01*
X202009963Y-51338445D01*
X202126904Y-51250904D01*
X202214445Y-51133962D01*
X202265494Y-50997093D01*
X202271640Y-50939936D01*
X202272000Y-50933222D01*
X202272000Y-50610000D01*
X222566496Y-50610000D01*
X222586458Y-50799929D01*
X222645472Y-50981556D01*
X222740958Y-51146942D01*
X222740960Y-51146944D01*
X222868747Y-51288866D01*
X223023248Y-51401118D01*
X223197712Y-51478794D01*
X223384513Y-51518500D01*
X223384515Y-51518500D01*
X223575485Y-51518500D01*
X223575487Y-51518500D01*
X223762288Y-51478794D01*
X223936752Y-51401118D01*
X224091253Y-51288866D01*
X224219040Y-51146944D01*
X224314527Y-50981556D01*
X224373542Y-50799928D01*
X224393504Y-50610000D01*
X224373542Y-50420072D01*
X224331929Y-50292000D01*
X224314527Y-50238443D01*
X224219041Y-50073057D01*
X224091252Y-49931133D01*
X224014002Y-49875008D01*
X223936752Y-49818882D01*
X223762288Y-49741206D01*
X223575487Y-49701500D01*
X223384513Y-49701500D01*
X223259979Y-49727970D01*
X223197711Y-49741206D01*
X223023246Y-49818883D01*
X222868747Y-49931133D01*
X222740958Y-50073057D01*
X222645472Y-50238443D01*
X222586458Y-50420070D01*
X222566496Y-50610000D01*
X202272000Y-50610000D01*
X202272000Y-50292000D01*
X201345116Y-50292000D01*
X201373493Y-50247844D01*
X201414000Y-50109889D01*
X201414000Y-49966111D01*
X201373493Y-49828156D01*
X201345116Y-49784000D01*
X202272000Y-49784000D01*
X202272000Y-49142777D01*
X202271640Y-49136063D01*
X202265494Y-49078906D01*
X202214445Y-48942037D01*
X202126904Y-48825095D01*
X202009962Y-48737554D01*
X201873093Y-48686505D01*
X201815936Y-48680359D01*
X201809223Y-48680000D01*
X201168000Y-48680000D01*
X201168000Y-49604325D01*
X201056315Y-49553320D01*
X200949763Y-49538000D01*
X200878237Y-49538000D01*
X200771685Y-49553320D01*
X200660000Y-49604325D01*
X200660000Y-48680000D01*
X200018777Y-48680000D01*
X200012063Y-48680359D01*
X199954906Y-48686505D01*
X199818037Y-48737554D01*
X199701095Y-48825095D01*
X199613554Y-48942037D01*
X199562505Y-49078906D01*
X199556359Y-49136063D01*
X199556000Y-49142777D01*
X199556000Y-49784000D01*
X200482884Y-49784000D01*
X200454507Y-49828156D01*
X200414000Y-49966111D01*
X200414000Y-50109889D01*
X200454507Y-50247844D01*
X200482884Y-50292000D01*
X199556000Y-50292000D01*
X199556000Y-50933222D01*
X199556359Y-50939936D01*
X199562505Y-50997093D01*
X199613554Y-51133962D01*
X199701095Y-51250904D01*
X199818037Y-51338445D01*
X199933172Y-51381388D01*
X199990008Y-51423935D01*
X200014819Y-51490455D01*
X199999728Y-51559829D01*
X199981841Y-51584782D01*
X199838278Y-51740731D01*
X199715139Y-51929209D01*
X199624702Y-52135388D01*
X199582730Y-52301134D01*
X199569436Y-52353632D01*
X199550844Y-52578000D01*
X199569436Y-52802368D01*
X199569436Y-52802371D01*
X199569437Y-52802372D01*
X199624702Y-53020611D01*
X199624703Y-53020614D01*
X199624704Y-53020616D01*
X199629248Y-53030975D01*
X199715139Y-53226790D01*
X199817773Y-53383883D01*
X199838278Y-53415268D01*
X199931876Y-53516942D01*
X199990762Y-53580908D01*
X200168418Y-53719185D01*
X200168420Y-53719186D01*
X200168424Y-53719189D01*
X200201682Y-53737187D01*
X200252071Y-53787200D01*
X200267423Y-53856517D01*
X200242862Y-53923130D01*
X200201683Y-53958812D01*
X200181143Y-53969928D01*
X200168418Y-53976814D01*
X199990762Y-54115091D01*
X199838278Y-54280731D01*
X199715139Y-54469209D01*
X199624702Y-54675388D01*
X199580768Y-54848882D01*
X199569436Y-54893632D01*
X199550844Y-55118000D01*
X199569436Y-55342368D01*
X199569436Y-55342371D01*
X199569437Y-55342372D01*
X199624702Y-55560611D01*
X199715139Y-55766790D01*
X199838278Y-55955268D01*
X199990762Y-56120908D01*
X200062754Y-56176942D01*
X200168424Y-56259189D01*
X200201682Y-56277187D01*
X200252070Y-56327197D01*
X200267423Y-56396513D01*
X200242863Y-56463127D01*
X200201683Y-56498811D01*
X200168423Y-56516810D01*
X199990762Y-56655091D01*
X199838278Y-56820731D01*
X199715139Y-57009209D01*
X199624702Y-57215388D01*
X199569437Y-57433627D01*
X199569436Y-57433632D01*
X199550844Y-57658000D01*
X199569436Y-57882368D01*
X199569436Y-57882371D01*
X199569437Y-57882372D01*
X199624702Y-58100611D01*
X199715139Y-58306790D01*
X199833158Y-58487432D01*
X199838278Y-58495268D01*
X199928978Y-58593794D01*
X199990762Y-58660908D01*
X200168418Y-58799185D01*
X200168420Y-58799186D01*
X200168424Y-58799189D01*
X200201682Y-58817187D01*
X200252071Y-58867200D01*
X200267423Y-58936517D01*
X200242862Y-59003130D01*
X200201683Y-59038812D01*
X200181143Y-59049928D01*
X200168418Y-59056814D01*
X199990762Y-59195091D01*
X199838278Y-59360731D01*
X199715139Y-59549209D01*
X199624702Y-59755388D01*
X199569437Y-59973627D01*
X199569436Y-59973632D01*
X199550844Y-60198000D01*
X198378946Y-60198000D01*
X198449296Y-60037616D01*
X198504564Y-59819368D01*
X198523156Y-59595000D01*
X198504564Y-59370632D01*
X198449296Y-59152384D01*
X198358860Y-58946209D01*
X198235722Y-58757732D01*
X198083240Y-58592094D01*
X198083239Y-58592093D01*
X198083237Y-58592091D01*
X197905578Y-58453812D01*
X197707573Y-58346657D01*
X197563427Y-58297172D01*
X197494635Y-58273556D01*
X197272569Y-58236500D01*
X197047431Y-58236500D01*
X196825365Y-58273556D01*
X196825362Y-58273556D01*
X196825362Y-58273557D01*
X196612426Y-58346657D01*
X196414421Y-58453812D01*
X196236762Y-58592091D01*
X196084278Y-58757731D01*
X195961139Y-58946209D01*
X195870702Y-59152388D01*
X195817943Y-59360731D01*
X195815436Y-59370632D01*
X195796844Y-59595000D01*
X195815436Y-59819368D01*
X195815436Y-59819371D01*
X195815437Y-59819372D01*
X195870702Y-60037611D01*
X195870703Y-60037614D01*
X195870704Y-60037616D01*
X195881020Y-60061134D01*
X195961139Y-60243790D01*
X196041598Y-60366942D01*
X196084278Y-60432268D01*
X196192723Y-60550070D01*
X196236762Y-60597908D01*
X196414418Y-60736185D01*
X196414420Y-60736186D01*
X196414424Y-60736189D01*
X196447682Y-60754187D01*
X196498071Y-60804200D01*
X196513423Y-60873517D01*
X196488862Y-60940130D01*
X196447683Y-60975812D01*
X196424238Y-60988500D01*
X196414418Y-60993814D01*
X196236762Y-61132091D01*
X196084278Y-61297731D01*
X195961139Y-61486209D01*
X195870702Y-61692388D01*
X195827952Y-61861206D01*
X195815436Y-61910632D01*
X195796844Y-62135000D01*
X195815436Y-62359368D01*
X195815436Y-62359371D01*
X195815437Y-62359372D01*
X195870702Y-62577611D01*
X195961139Y-62783790D01*
X196002272Y-62846749D01*
X196084278Y-62972268D01*
X196097786Y-62986942D01*
X196236762Y-63137908D01*
X196414418Y-63276185D01*
X196414420Y-63276186D01*
X196414424Y-63276189D01*
X196447682Y-63294187D01*
X196498071Y-63344200D01*
X196513423Y-63413517D01*
X196488862Y-63480130D01*
X196447683Y-63515812D01*
X196433810Y-63523320D01*
X196414418Y-63533814D01*
X196236762Y-63672091D01*
X196084278Y-63837731D01*
X195961139Y-64026209D01*
X195870702Y-64232388D01*
X195825725Y-64410000D01*
X195815436Y-64450632D01*
X195796844Y-64675000D01*
X195815436Y-64899368D01*
X195815436Y-64899371D01*
X195815437Y-64899372D01*
X195870702Y-65117611D01*
X195870703Y-65117614D01*
X195870704Y-65117616D01*
X195884959Y-65150115D01*
X195961139Y-65323790D01*
X196084278Y-65512268D01*
X196236762Y-65677908D01*
X196278933Y-65710731D01*
X196414424Y-65816189D01*
X196447682Y-65834187D01*
X196498070Y-65884197D01*
X196513423Y-65953513D01*
X196488863Y-66020127D01*
X196447683Y-66055811D01*
X196414423Y-66073810D01*
X196236762Y-66212091D01*
X196084278Y-66377731D01*
X195961139Y-66566209D01*
X195870702Y-66772388D01*
X195815441Y-66990611D01*
X195815436Y-66990632D01*
X195796844Y-67215000D01*
X195815436Y-67439368D01*
X195815436Y-67439371D01*
X195815437Y-67439372D01*
X195870702Y-67657611D01*
X195961139Y-67863790D01*
X196070710Y-68031500D01*
X196084278Y-68052268D01*
X196204000Y-68182320D01*
X196236762Y-68217908D01*
X196414418Y-68356185D01*
X196414420Y-68356186D01*
X196414424Y-68356189D01*
X196447682Y-68374187D01*
X196498071Y-68424200D01*
X196513423Y-68493517D01*
X196488862Y-68560130D01*
X196447683Y-68595812D01*
X196422794Y-68609281D01*
X196414418Y-68613814D01*
X196236762Y-68752091D01*
X196084278Y-68917731D01*
X195961139Y-69106209D01*
X195870702Y-69312388D01*
X195815883Y-69528866D01*
X195815436Y-69530632D01*
X195796844Y-69755000D01*
X195815436Y-69979368D01*
X195815436Y-69979371D01*
X195815437Y-69979372D01*
X195870702Y-70197611D01*
X195870703Y-70197614D01*
X195870704Y-70197616D01*
X195884551Y-70229185D01*
X195961139Y-70403790D01*
X196034584Y-70516206D01*
X196084278Y-70592268D01*
X196214061Y-70733249D01*
X196236762Y-70757908D01*
X196414418Y-70896185D01*
X196414420Y-70896186D01*
X196414424Y-70896189D01*
X196447682Y-70914187D01*
X196498071Y-70964200D01*
X196513423Y-71033517D01*
X196488862Y-71100130D01*
X196447683Y-71135812D01*
X196428915Y-71145969D01*
X196414418Y-71153814D01*
X196236762Y-71292091D01*
X196084278Y-71457731D01*
X195961139Y-71646209D01*
X195870702Y-71852388D01*
X195817149Y-72063866D01*
X195815436Y-72070632D01*
X195796844Y-72295000D01*
X195815436Y-72519368D01*
X195815436Y-72519371D01*
X195815437Y-72519372D01*
X195870702Y-72737611D01*
X195961139Y-72943790D01*
X196019157Y-73032593D01*
X196084278Y-73132268D01*
X196145249Y-73198500D01*
X196236762Y-73297908D01*
X196414418Y-73436185D01*
X196414420Y-73436186D01*
X196414424Y-73436189D01*
X196447682Y-73454187D01*
X196498071Y-73504200D01*
X196513423Y-73573517D01*
X196488862Y-73640130D01*
X196447683Y-73675812D01*
X196423695Y-73688794D01*
X196414418Y-73693814D01*
X196236762Y-73832091D01*
X196084278Y-73997731D01*
X195961139Y-74186209D01*
X195870702Y-74392388D01*
X195828563Y-74558793D01*
X195815436Y-74610632D01*
X195796844Y-74835000D01*
X195177425Y-74835000D01*
X195176881Y-48040822D01*
X195177670Y-48038134D01*
X195176994Y-47995875D01*
X195177575Y-47981613D01*
X195179438Y-47962557D01*
X195188893Y-47881703D01*
X195194584Y-47856300D01*
X195205508Y-47823788D01*
X195207944Y-47817165D01*
X195229362Y-47763667D01*
X195238957Y-47744579D01*
X195258940Y-47712045D01*
X195265599Y-47702271D01*
X195298097Y-47659097D01*
X195308943Y-47646513D01*
X195336317Y-47618701D01*
X195348733Y-47607651D01*
X195391388Y-47574470D01*
X195401070Y-47567648D01*
X195433264Y-47547163D01*
X195452179Y-47537274D01*
X195505397Y-47514981D01*
X195511931Y-47512460D01*
X195544237Y-47501031D01*
X195569625Y-47494922D01*
X195650410Y-47484174D01*
X195669436Y-47482008D01*
X195683449Y-47481220D01*
X264866033Y-47482317D01*
G37*
G04 #@! TD.AperFunction*
M02*
