%TF.GenerationSoftware,KiCad,Pcbnew,(6.0.10-0)*%
%TF.CreationDate,2023-04-17T23:12:57-05:00*%
%TF.ProjectId,mn_wild_siren,6d6e5f77-696c-4645-9f73-6972656e2e6b,rev?*%
%TF.SameCoordinates,Original*%
%TF.FileFunction,Soldermask,Top*%
%TF.FilePolarity,Negative*%
%FSLAX46Y46*%
G04 Gerber Fmt 4.6, Leading zero omitted, Abs format (unit mm)*
G04 Created by KiCad (PCBNEW (6.0.10-0)) date 2023-04-17 23:12:57*
%MOMM*%
%LPD*%
G01*
G04 APERTURE LIST*
G04 Aperture macros list*
%AMRoundRect*
0 Rectangle with rounded corners*
0 $1 Rounding radius*
0 $2 $3 $4 $5 $6 $7 $8 $9 X,Y pos of 4 corners*
0 Add a 4 corners polygon primitive as box body*
4,1,4,$2,$3,$4,$5,$6,$7,$8,$9,$2,$3,0*
0 Add four circle primitives for the rounded corners*
1,1,$1+$1,$2,$3*
1,1,$1+$1,$4,$5*
1,1,$1+$1,$6,$7*
1,1,$1+$1,$8,$9*
0 Add four rect primitives between the rounded corners*
20,1,$1+$1,$2,$3,$4,$5,0*
20,1,$1+$1,$4,$5,$6,$7,0*
20,1,$1+$1,$6,$7,$8,$9,0*
20,1,$1+$1,$8,$9,$2,$3,0*%
G04 Aperture macros list end*
%ADD10RoundRect,0.150000X-0.512500X-0.150000X0.512500X-0.150000X0.512500X0.150000X-0.512500X0.150000X0*%
%ADD11RoundRect,0.147500X0.172500X-0.147500X0.172500X0.147500X-0.172500X0.147500X-0.172500X-0.147500X0*%
%ADD12R,1.700000X1.700000*%
%ADD13O,1.700000X1.700000*%
%ADD14RoundRect,0.225000X-0.225000X-0.250000X0.225000X-0.250000X0.225000X0.250000X-0.225000X0.250000X0*%
%ADD15RoundRect,0.225000X0.250000X-0.225000X0.250000X0.225000X-0.250000X0.225000X-0.250000X-0.225000X0*%
%ADD16RoundRect,0.225000X-0.250000X0.225000X-0.250000X-0.225000X0.250000X-0.225000X0.250000X0.225000X0*%
%ADD17RoundRect,0.225000X0.225000X0.250000X-0.225000X0.250000X-0.225000X-0.250000X0.225000X-0.250000X0*%
%ADD18RoundRect,0.237500X0.300000X0.237500X-0.300000X0.237500X-0.300000X-0.237500X0.300000X-0.237500X0*%
%ADD19RoundRect,0.237500X-0.300000X-0.237500X0.300000X-0.237500X0.300000X0.237500X-0.300000X0.237500X0*%
%ADD20R,1.800000X4.400000*%
%ADD21O,1.800000X4.000000*%
%ADD22O,4.000000X1.800000*%
%ADD23C,2.000000*%
%ADD24R,3.000000X4.000000*%
%ADD25RoundRect,0.237500X0.287500X0.237500X-0.287500X0.237500X-0.287500X-0.237500X0.287500X-0.237500X0*%
%ADD26RoundRect,0.147500X-0.147500X-0.172500X0.147500X-0.172500X0.147500X0.172500X-0.147500X0.172500X0*%
%ADD27RoundRect,0.218750X-0.256250X0.218750X-0.256250X-0.218750X0.256250X-0.218750X0.256250X0.218750X0*%
%ADD28C,5.000000*%
%ADD29C,3.000000*%
%ADD30C,2.500000*%
%ADD31R,0.900000X0.800000*%
%ADD32RoundRect,0.147500X-0.172500X0.147500X-0.172500X-0.147500X0.172500X-0.147500X0.172500X0.147500X0*%
%ADD33RoundRect,0.147500X0.147500X0.172500X-0.147500X0.172500X-0.147500X-0.172500X0.147500X-0.172500X0*%
%ADD34RoundRect,0.100000X-0.637500X-0.100000X0.637500X-0.100000X0.637500X0.100000X-0.637500X0.100000X0*%
%ADD35R,1.500000X1.500000*%
%ADD36C,3.200000*%
%ADD37C,1.750000*%
%ADD38RoundRect,0.135000X-0.185000X0.135000X-0.185000X-0.135000X0.185000X-0.135000X0.185000X0.135000X0*%
%ADD39RoundRect,0.150000X-0.825000X-0.150000X0.825000X-0.150000X0.825000X0.150000X-0.825000X0.150000X0*%
%ADD40RoundRect,0.135000X0.185000X-0.135000X0.185000X0.135000X-0.185000X0.135000X-0.185000X-0.135000X0*%
%ADD41R,1.600000X1.600000*%
%ADD42O,1.600000X1.600000*%
%ADD43RoundRect,0.140000X-0.140000X-0.170000X0.140000X-0.170000X0.140000X0.170000X-0.140000X0.170000X0*%
%ADD44RoundRect,0.100000X-0.100000X0.637500X-0.100000X-0.637500X0.100000X-0.637500X0.100000X0.637500X0*%
%ADD45RoundRect,0.135000X0.135000X0.185000X-0.135000X0.185000X-0.135000X-0.185000X0.135000X-0.185000X0*%
%ADD46RoundRect,0.237500X-0.250000X-0.237500X0.250000X-0.237500X0.250000X0.237500X-0.250000X0.237500X0*%
G04 APERTURE END LIST*
D10*
X218332500Y-110280000D03*
X218332500Y-111230000D03*
X218332500Y-112180000D03*
X220607500Y-112180000D03*
X220607500Y-110280000D03*
D11*
X215790000Y-73815000D03*
X215790000Y-72845000D03*
D12*
X224960000Y-104370000D03*
D13*
X224960000Y-106910000D03*
X224960000Y-109450000D03*
D12*
X242310000Y-72130000D03*
D13*
X239770000Y-72130000D03*
X237230000Y-72130000D03*
X234690000Y-72130000D03*
X232150000Y-72130000D03*
D12*
X228347501Y-72114999D03*
D13*
X225807501Y-72114999D03*
X223267501Y-72114999D03*
X220727501Y-72114999D03*
X218187501Y-72114999D03*
D14*
X191210000Y-124260000D03*
X192760000Y-124260000D03*
D15*
X188910000Y-73435000D03*
X188910000Y-71885000D03*
X187350000Y-73415000D03*
X187350000Y-71865000D03*
X190430000Y-73435000D03*
X190430000Y-71885000D03*
D16*
X189270000Y-81295000D03*
X189270000Y-82845000D03*
D15*
X191970000Y-73435000D03*
X191970000Y-71885000D03*
D16*
X192340000Y-81275000D03*
X192340000Y-82825000D03*
X190810000Y-81285000D03*
X190810000Y-82835000D03*
D14*
X191260000Y-125960000D03*
X192810000Y-125960000D03*
D17*
X241490000Y-132440000D03*
X239940000Y-132440000D03*
D16*
X217930000Y-107035000D03*
X217930000Y-108585000D03*
D17*
X241495000Y-130840000D03*
X239945000Y-130840000D03*
D18*
X227802500Y-100250000D03*
X226077500Y-100250000D03*
X227780000Y-97060000D03*
X226055000Y-97060000D03*
X227782500Y-98650000D03*
X226057500Y-98650000D03*
D19*
X234357500Y-116650000D03*
X236082500Y-116650000D03*
X234357500Y-115050000D03*
X236082500Y-115050000D03*
X234377500Y-113480000D03*
X236102500Y-113480000D03*
D20*
X230100000Y-102580000D03*
D21*
X235900000Y-102580000D03*
D22*
X233100000Y-97780000D03*
D23*
X240150000Y-121045000D03*
X240150000Y-117545000D03*
X240150000Y-114045000D03*
X197700000Y-130450000D03*
X194200000Y-130450000D03*
X190700000Y-130450000D03*
X187200000Y-130450000D03*
D24*
X229370000Y-109990000D03*
X234970000Y-109990000D03*
D25*
X219809999Y-81790000D03*
X218059999Y-81790000D03*
D26*
X212905000Y-126760000D03*
X213875000Y-126760000D03*
D27*
X222340000Y-107010000D03*
X222340000Y-108585000D03*
D28*
X169500000Y-87670000D03*
X169500000Y-82040000D03*
X169500000Y-112550000D03*
X169500000Y-101750000D03*
X169500000Y-96150000D03*
X169500000Y-122100000D03*
X171860000Y-131450000D03*
X177490000Y-131520000D03*
D12*
X186150000Y-78680000D03*
D13*
X186150000Y-76140000D03*
X188690000Y-78680000D03*
X188690000Y-76140000D03*
X191230000Y-78680000D03*
X191230000Y-76140000D03*
X193770000Y-78680000D03*
X193770000Y-76140000D03*
X196310000Y-78680000D03*
X196310000Y-76140000D03*
X198850000Y-78680000D03*
X198850000Y-76140000D03*
X201390000Y-78680000D03*
X201390000Y-76140000D03*
X203930000Y-78680000D03*
X203930000Y-76140000D03*
X206470000Y-78680000D03*
X206470000Y-76140000D03*
X209010000Y-78680000D03*
X209010000Y-76140000D03*
X211550000Y-78680000D03*
X211550000Y-76140000D03*
X214090000Y-78680000D03*
X214090000Y-76140000D03*
X216630000Y-78680000D03*
X216630000Y-76140000D03*
X219170000Y-78680000D03*
X219170000Y-76140000D03*
X221710000Y-78680000D03*
X221710000Y-76140000D03*
X224250000Y-78680000D03*
X224250000Y-76140000D03*
X226790000Y-78680000D03*
X226790000Y-76140000D03*
X229330000Y-78680000D03*
X229330000Y-76140000D03*
X231870000Y-78680000D03*
X231870000Y-76140000D03*
X234410000Y-78680000D03*
X234410000Y-76140000D03*
D12*
X209960000Y-72460000D03*
D13*
X207420000Y-72460000D03*
D12*
X220435000Y-98170000D03*
D13*
X222975000Y-98170000D03*
D12*
X221180000Y-104435000D03*
D13*
X221180000Y-101895000D03*
D29*
X180500000Y-82700000D03*
D30*
X174450000Y-84650000D03*
D29*
X174450000Y-96850000D03*
X186500000Y-96900000D03*
D30*
X186450000Y-84650000D03*
D29*
X180500000Y-104500000D03*
D30*
X174450000Y-106450000D03*
D29*
X174450000Y-118650000D03*
X186500000Y-118700000D03*
D30*
X186450000Y-106450000D03*
D31*
X191960000Y-103500000D03*
X191960000Y-101600000D03*
X189960000Y-102550000D03*
X196070000Y-119120000D03*
X196070000Y-117220000D03*
X194070000Y-118170000D03*
X214540000Y-73450000D03*
X214540000Y-71550000D03*
X212540000Y-72500000D03*
X203790000Y-73450000D03*
X203790000Y-71550000D03*
X201790000Y-72500000D03*
D26*
X191245000Y-104850000D03*
X192215000Y-104850000D03*
D32*
X197370000Y-117575000D03*
X197370000Y-118545000D03*
X192210000Y-99275000D03*
X192210000Y-100245000D03*
X238150000Y-82410000D03*
X238150000Y-83380000D03*
X196310000Y-114910000D03*
X196310000Y-115880000D03*
D11*
X196710000Y-82995000D03*
X196710000Y-82025000D03*
D32*
X210910000Y-84005000D03*
X210910000Y-84975000D03*
D26*
X211985000Y-102080000D03*
X211015000Y-102080000D03*
X212060000Y-99700000D03*
X211090000Y-99700000D03*
D33*
X238150000Y-81360000D03*
X237180000Y-81360000D03*
D11*
X234140000Y-125520000D03*
X234140000Y-124550000D03*
X205060000Y-73805000D03*
X205060000Y-72835000D03*
D34*
X207167500Y-127925000D03*
X207167500Y-128575000D03*
X207167500Y-129225000D03*
X207167500Y-129875000D03*
X207167500Y-130525000D03*
X207167500Y-131175000D03*
X207167500Y-131825000D03*
X207167500Y-132475000D03*
X207167500Y-133125000D03*
X207167500Y-133775000D03*
X212892500Y-133775000D03*
X212892500Y-133125000D03*
X212892500Y-132475000D03*
X212892500Y-131825000D03*
X212892500Y-131175000D03*
X212892500Y-130525000D03*
X212892500Y-129875000D03*
X212892500Y-129225000D03*
X212892500Y-128575000D03*
X212892500Y-127925000D03*
D35*
X234680000Y-91690000D03*
X234680000Y-89150000D03*
X234680000Y-86610000D03*
X234680000Y-84070000D03*
X225680000Y-84070000D03*
X225680000Y-86610000D03*
X225680000Y-89150000D03*
X225680000Y-91690000D03*
D36*
X181300000Y-126400000D03*
X239300000Y-77400000D03*
X181300000Y-77400000D03*
X239300000Y-126400000D03*
D37*
X194543700Y-81967100D03*
X194543700Y-84507100D03*
X194543700Y-87047100D03*
X194543700Y-89587100D03*
X194543700Y-92127100D03*
X194543700Y-94667100D03*
X194543700Y-97207100D03*
X194543700Y-99747100D03*
X194543700Y-102287100D03*
X194543700Y-104827100D03*
X194543700Y-107367100D03*
X194543700Y-109907100D03*
X194543700Y-112447100D03*
X194543700Y-114987100D03*
X214863700Y-114987100D03*
X214863700Y-112447100D03*
X214863700Y-109907100D03*
X214863700Y-107367100D03*
X214863700Y-104827100D03*
X214863700Y-102287100D03*
X214863700Y-99747100D03*
X214863700Y-97207100D03*
X214863700Y-94667100D03*
X214863700Y-92127100D03*
X214863700Y-89587100D03*
X214863700Y-87047100D03*
X214863700Y-84507100D03*
X214863700Y-81967100D03*
D26*
X212075000Y-97240000D03*
X211105000Y-97240000D03*
X217860000Y-113570000D03*
X218830000Y-113570000D03*
D28*
X171250000Y-72860000D03*
X174690000Y-126630000D03*
X177020000Y-72870000D03*
D38*
X242550000Y-82150000D03*
X242550000Y-83170000D03*
D39*
X207755000Y-83980000D03*
X207755000Y-85250000D03*
X207755000Y-86520000D03*
X207755000Y-87790000D03*
X207755000Y-89060000D03*
X207755000Y-90330000D03*
X207755000Y-91600000D03*
X202805000Y-91600000D03*
X202805000Y-90330000D03*
X202805000Y-89060000D03*
X202805000Y-87790000D03*
X202805000Y-86520000D03*
X202805000Y-85250000D03*
X202805000Y-83980000D03*
D40*
X224550000Y-125570000D03*
X224550000Y-124550000D03*
D41*
X191450000Y-84690000D03*
D42*
X191450000Y-92310000D03*
D19*
X207807500Y-82380000D03*
X209532500Y-82380000D03*
D40*
X209690000Y-88180000D03*
X209690000Y-87160000D03*
X225600000Y-125580000D03*
X225600000Y-124560000D03*
D38*
X215780000Y-70880000D03*
X215780000Y-71900000D03*
D43*
X233810000Y-123570000D03*
X234770000Y-123570000D03*
D13*
X233935000Y-127905000D03*
X233935000Y-130445000D03*
X231395000Y-127905000D03*
X231395000Y-130445000D03*
X228855000Y-127905000D03*
X228855000Y-130445000D03*
X226315000Y-127905000D03*
X226315000Y-130445000D03*
X223775000Y-127905000D03*
X223775000Y-130445000D03*
X221235000Y-127905000D03*
X221235000Y-130445000D03*
X218695000Y-127905000D03*
X218695000Y-130445000D03*
X216155000Y-127905000D03*
D12*
X216155000Y-130445000D03*
D44*
X232615000Y-124462500D03*
X231965000Y-124462500D03*
X231315000Y-124462500D03*
X230665000Y-124462500D03*
X230015000Y-124462500D03*
X229365000Y-124462500D03*
X228715000Y-124462500D03*
X228065000Y-124462500D03*
X227415000Y-124462500D03*
X226765000Y-124462500D03*
X226765000Y-118737500D03*
X227415000Y-118737500D03*
X228065000Y-118737500D03*
X228715000Y-118737500D03*
X229365000Y-118737500D03*
X230015000Y-118737500D03*
X230665000Y-118737500D03*
X231315000Y-118737500D03*
X231965000Y-118737500D03*
X232615000Y-118737500D03*
D12*
X199170000Y-72470000D03*
D13*
X196630000Y-72470000D03*
D18*
X202835000Y-82420000D03*
X201110000Y-82420000D03*
D40*
X235220000Y-125530000D03*
X235220000Y-124510000D03*
D38*
X205070000Y-70890000D03*
X205070000Y-71910000D03*
D45*
X242600000Y-81120000D03*
X241580000Y-81120000D03*
D42*
X191510000Y-114050000D03*
D41*
X191510000Y-106430000D03*
D28*
X174150000Y-77580000D03*
D46*
X208025000Y-93170000D03*
X209850000Y-93170000D03*
M02*
