%TF.GenerationSoftware,KiCad,Pcbnew,8.0.0*%
%TF.CreationDate,2024-03-08T16:01:40-06:00*%
%TF.ProjectId,led_dog_collar,6c65645f-646f-4675-9f63-6f6c6c61722e,rev?*%
%TF.SameCoordinates,Original*%
%TF.FileFunction,Copper,L3,Inr*%
%TF.FilePolarity,Positive*%
%FSLAX46Y46*%
G04 Gerber Fmt 4.6, Leading zero omitted, Abs format (unit mm)*
G04 Created by KiCad (PCBNEW 8.0.0) date 2024-03-08 16:01:40*
%MOMM*%
%LPD*%
G01*
G04 APERTURE LIST*
%TA.AperFunction,ComponentPad*%
%ADD10R,1.700000X1.700000*%
%TD*%
%TA.AperFunction,ComponentPad*%
%ADD11O,1.700000X1.700000*%
%TD*%
%TA.AperFunction,ComponentPad*%
%ADD12C,2.600000*%
%TD*%
%TA.AperFunction,ComponentPad*%
%ADD13C,1.397000*%
%TD*%
%TA.AperFunction,ViaPad*%
%ADD14C,0.600000*%
%TD*%
%TA.AperFunction,ViaPad*%
%ADD15C,0.800000*%
%TD*%
G04 APERTURE END LIST*
D10*
%TO.N,VBAT*%
%TO.C,J1*%
X200660000Y-73075800D03*
D11*
%TO.N,GND*%
X203200000Y-73075800D03*
%TD*%
D12*
%TO.N,+5V*%
%TO.C,J2*%
X207010000Y-65278000D03*
%TD*%
%TO.N,TIM1_CH1_SHIFT*%
%TO.C,J4*%
X207010000Y-69088000D03*
%TD*%
%TO.N,GND*%
%TO.C,J5*%
X207010000Y-72898000D03*
%TD*%
D10*
%TO.N,GND*%
%TO.C,J3*%
X179857400Y-73152000D03*
D11*
%TO.N,NRST*%
X179857400Y-70612000D03*
%TO.N,unconnected-(J3-Pin_3-Pad3)*%
X182397400Y-73152000D03*
%TO.N,unconnected-(J3-Pin_4-Pad4)*%
X182397400Y-70612000D03*
%TO.N,unconnected-(J3-Pin_5-Pad5)*%
X184937399Y-73152000D03*
%TO.N,/SWCLK*%
X184937400Y-70612000D03*
%TO.N,/SWDIO*%
X187477400Y-73152000D03*
%TO.N,+3V3*%
X187477400Y-70612000D03*
%TD*%
D13*
%TO.N,unconnected-(SW2-Pad1)*%
%TO.C,SW2*%
X180086000Y-58288601D03*
%TO.N,VBAT*%
X180086000Y-61288600D03*
%TO.N,VBAT_EN*%
X180086000Y-64288599D03*
%TD*%
D14*
%TO.N,GND*%
X202518800Y-58999600D03*
X200568800Y-55727600D03*
X190119702Y-69849799D03*
D15*
X198500000Y-66920000D03*
D14*
X189123000Y-68224199D03*
X186588400Y-52477799D03*
X191680000Y-69920000D03*
X201904600Y-55727600D03*
X191002600Y-69900598D03*
X200350000Y-63510000D03*
X183920000Y-65220000D03*
D15*
X192500000Y-73025000D03*
X202252100Y-72127900D03*
X202819000Y-71247000D03*
D14*
X185035400Y-62387399D03*
X204468800Y-55728800D03*
X193624600Y-66174114D03*
D15*
X198640000Y-67870000D03*
D14*
X195370801Y-69068599D03*
D15*
X201669999Y-71280195D03*
D14*
X200047500Y-54012500D03*
X187594665Y-63999061D03*
X192277702Y-66828799D03*
X196550000Y-62710000D03*
X200863200Y-59105800D03*
D15*
X183550000Y-56440000D03*
D14*
X191500000Y-55370000D03*
X203168800Y-55758800D03*
D15*
X203784200Y-62661800D03*
%TO.N,+3V3*%
X193930702Y-62583993D03*
D14*
X199825000Y-55005000D03*
X188290000Y-65720000D03*
X184986600Y-63347399D03*
X197559594Y-63160294D03*
X186669800Y-53437799D03*
X194790431Y-63644276D03*
X186437999Y-69330000D03*
X204720000Y-53130000D03*
X189505000Y-71655000D03*
D15*
X194716400Y-74320400D03*
D14*
%TO.N,NRST*%
X189615662Y-63659777D03*
X184280000Y-67020000D03*
%TO.N,/LVL_EN*%
X202490000Y-56480000D03*
X201318800Y-52970000D03*
%TO.N,/LVL_DIR*%
X198195000Y-53450168D03*
X203718800Y-53280000D03*
%TO.N,VBAT_EN*%
X190300000Y-74530000D03*
D15*
X195618819Y-72796471D03*
%TO.N,+5V*%
X194979666Y-71526400D03*
X196118799Y-69593155D03*
X190760000Y-71590000D03*
X196799200Y-66497200D03*
X205375000Y-63655000D03*
%TO.N,VBAT*%
X185610000Y-66200000D03*
%TD*%
%TA.AperFunction,Conductor*%
%TO.N,+3V3*%
G36*
X200660000Y-52513864D02*
G01*
X200593011Y-52620476D01*
X200533431Y-52790745D01*
X200533430Y-52790750D01*
X200513235Y-52969996D01*
X200513235Y-52970004D01*
X200533057Y-53145939D01*
X200521002Y-53214761D01*
X200473653Y-53266140D01*
X200406042Y-53283764D01*
X200368883Y-53276864D01*
X200226757Y-53227132D01*
X200226749Y-53227130D01*
X200047504Y-53206935D01*
X200047496Y-53206935D01*
X199868250Y-53227130D01*
X199868245Y-53227131D01*
X199697976Y-53286711D01*
X199545237Y-53382684D01*
X199417684Y-53510237D01*
X199321711Y-53662976D01*
X199262131Y-53833245D01*
X199262130Y-53833250D01*
X199241935Y-54012496D01*
X199241935Y-54012503D01*
X199262130Y-54191749D01*
X199262131Y-54191754D01*
X199321711Y-54362023D01*
X199417684Y-54514762D01*
X199545238Y-54642316D01*
X199697978Y-54738289D01*
X199868245Y-54797868D01*
X199868250Y-54797869D01*
X200047496Y-54818065D01*
X200047500Y-54818065D01*
X200047501Y-54818065D01*
X200054020Y-54817330D01*
X200073272Y-54815161D01*
X200142093Y-54827215D01*
X200193473Y-54874563D01*
X200211098Y-54942173D01*
X200189373Y-55008579D01*
X200153129Y-55043374D01*
X200066540Y-55097782D01*
X200066537Y-55097784D01*
X199938984Y-55225337D01*
X199843011Y-55378076D01*
X199783431Y-55548345D01*
X199783430Y-55548350D01*
X199763235Y-55727596D01*
X199763235Y-55727603D01*
X199783430Y-55906849D01*
X199783431Y-55906854D01*
X199843011Y-56077123D01*
X199938984Y-56229862D01*
X200066539Y-56357417D01*
X200115154Y-56387964D01*
X200161444Y-56440298D01*
X200172092Y-56509352D01*
X200171919Y-56510603D01*
X200154500Y-56631761D01*
X200154500Y-58184380D01*
X200172850Y-58319336D01*
X200172851Y-58319343D01*
X200190531Y-58383156D01*
X200238462Y-58494827D01*
X200246814Y-58564195D01*
X200229508Y-58609706D01*
X200137411Y-58756276D01*
X200077831Y-58926545D01*
X200077830Y-58926550D01*
X200057635Y-59105796D01*
X200057635Y-59105803D01*
X200077830Y-59285049D01*
X200077831Y-59285054D01*
X200137411Y-59455324D01*
X200230832Y-59604000D01*
X200249833Y-59671237D01*
X200238633Y-59721485D01*
X200194664Y-59817760D01*
X200174976Y-59884808D01*
X200154500Y-60027227D01*
X200154500Y-62642333D01*
X200134815Y-62709372D01*
X200082011Y-62755127D01*
X200071456Y-62759374D01*
X200000476Y-62784211D01*
X200000475Y-62784212D01*
X199847737Y-62880184D01*
X199720184Y-63007737D01*
X199624211Y-63160476D01*
X199564631Y-63330745D01*
X199564630Y-63330750D01*
X199557687Y-63392382D01*
X199530621Y-63456797D01*
X199473027Y-63496352D01*
X199434467Y-63502500D01*
X197188940Y-63502500D01*
X197121901Y-63482815D01*
X197076146Y-63430011D01*
X197066202Y-63360853D01*
X197095227Y-63297297D01*
X197101259Y-63290819D01*
X197179816Y-63212262D01*
X197275789Y-63059522D01*
X197335368Y-62889255D01*
X197342794Y-62823346D01*
X197355565Y-62710003D01*
X197355565Y-62709996D01*
X197335369Y-62530750D01*
X197335368Y-62530745D01*
X197275788Y-62360476D01*
X197179815Y-62207737D01*
X197052262Y-62080184D01*
X196899523Y-61984211D01*
X196729254Y-61924631D01*
X196729249Y-61924630D01*
X196550004Y-61904435D01*
X196549996Y-61904435D01*
X196370750Y-61924630D01*
X196370745Y-61924631D01*
X196200476Y-61984211D01*
X196047737Y-62080184D01*
X195920184Y-62207737D01*
X195824211Y-62360476D01*
X195764631Y-62530745D01*
X195764630Y-62530750D01*
X195744435Y-62709996D01*
X195744435Y-62710003D01*
X195764630Y-62889249D01*
X195764631Y-62889254D01*
X195824211Y-63059523D01*
X195920184Y-63212262D01*
X195998741Y-63290819D01*
X196032226Y-63352142D01*
X196027242Y-63421834D01*
X195985370Y-63477767D01*
X195919906Y-63502184D01*
X195911060Y-63502500D01*
X195704000Y-63502500D01*
X195703991Y-63502500D01*
X195703990Y-63502501D01*
X195596549Y-63514052D01*
X195596537Y-63514054D01*
X195545027Y-63525260D01*
X195442502Y-63559383D01*
X195442496Y-63559386D01*
X195321462Y-63637171D01*
X195321451Y-63637179D01*
X195268659Y-63682923D01*
X195174433Y-63791664D01*
X195174430Y-63791668D01*
X195114664Y-63922534D01*
X195094976Y-63989581D01*
X195092328Y-64008000D01*
X195072000Y-64008000D01*
X195072000Y-53450171D01*
X197389435Y-53450171D01*
X197409630Y-53629417D01*
X197409631Y-53629422D01*
X197469211Y-53799691D01*
X197490295Y-53833245D01*
X197565184Y-53952430D01*
X197692738Y-54079984D01*
X197845478Y-54175957D01*
X198015745Y-54235536D01*
X198015750Y-54235537D01*
X198194996Y-54255733D01*
X198195000Y-54255733D01*
X198195004Y-54255733D01*
X198374249Y-54235537D01*
X198374252Y-54235536D01*
X198374255Y-54235536D01*
X198544522Y-54175957D01*
X198697262Y-54079984D01*
X198824816Y-53952430D01*
X198920789Y-53799690D01*
X198980368Y-53629423D01*
X198993797Y-53510237D01*
X199000565Y-53450171D01*
X199000565Y-53450164D01*
X198980369Y-53270918D01*
X198980368Y-53270913D01*
X198965048Y-53227130D01*
X198920789Y-53100646D01*
X198824816Y-52947906D01*
X198697262Y-52820352D01*
X198650143Y-52790745D01*
X198544523Y-52724379D01*
X198374254Y-52664799D01*
X198374249Y-52664798D01*
X198195004Y-52644603D01*
X198194996Y-52644603D01*
X198015750Y-52664798D01*
X198015745Y-52664799D01*
X197845476Y-52724379D01*
X197692737Y-52820352D01*
X197565184Y-52947905D01*
X197469211Y-53100644D01*
X197409631Y-53270913D01*
X197409630Y-53270918D01*
X197389435Y-53450164D01*
X197389435Y-53450171D01*
X195072000Y-53450171D01*
X195072000Y-50962413D01*
X200660000Y-50961603D01*
X200660000Y-52513864D01*
G37*
%TD.AperFunction*%
%TD*%
%TA.AperFunction,Conductor*%
%TO.N,+3V3*%
G36*
X190624000Y-73022500D02*
G01*
X191482627Y-73022500D01*
X191549666Y-73042185D01*
X191595421Y-73094989D01*
X191605947Y-73133535D01*
X191614326Y-73213256D01*
X191614327Y-73213259D01*
X191672818Y-73393277D01*
X191672821Y-73393284D01*
X191767467Y-73557216D01*
X191891248Y-73694688D01*
X191894129Y-73697888D01*
X192047265Y-73809148D01*
X192047270Y-73809151D01*
X192220192Y-73886142D01*
X192220197Y-73886144D01*
X192405354Y-73925500D01*
X192405355Y-73925500D01*
X192594644Y-73925500D01*
X192594646Y-73925500D01*
X192779803Y-73886144D01*
X192952730Y-73809151D01*
X193105871Y-73697888D01*
X193232533Y-73557216D01*
X193327179Y-73393284D01*
X193385674Y-73213256D01*
X193394052Y-73133536D01*
X193420637Y-73068924D01*
X193477934Y-73028939D01*
X193517373Y-73022500D01*
X194655327Y-73022500D01*
X194722366Y-73042185D01*
X194768121Y-73094989D01*
X194773258Y-73108182D01*
X194791637Y-73164749D01*
X194791640Y-73164755D01*
X194886286Y-73328687D01*
X195006697Y-73462417D01*
X195012948Y-73469359D01*
X195166084Y-73580619D01*
X195166089Y-73580622D01*
X195339010Y-73657613D01*
X195339012Y-73657613D01*
X195339016Y-73657615D01*
X195357281Y-73661497D01*
X195418762Y-73694688D01*
X195452539Y-73755851D01*
X195455500Y-73782787D01*
X195455500Y-74837727D01*
X195435815Y-74904766D01*
X195383011Y-74950521D01*
X195331481Y-74961727D01*
X191171991Y-74961085D01*
X191104954Y-74941390D01*
X191059208Y-74888579D01*
X191049275Y-74819419D01*
X191054969Y-74796129D01*
X191085367Y-74709259D01*
X191085369Y-74709249D01*
X191105565Y-74530003D01*
X191105565Y-74529996D01*
X191085369Y-74350750D01*
X191085368Y-74350745D01*
X191030170Y-74192999D01*
X191025789Y-74180478D01*
X191015480Y-74164072D01*
X190929815Y-74027737D01*
X190802262Y-73900184D01*
X190649523Y-73804211D01*
X190500000Y-73751890D01*
X190500000Y-73004671D01*
X190624000Y-73022500D01*
G37*
%TD.AperFunction*%
%TD*%
%TA.AperFunction,Conductor*%
%TO.N,+3V3*%
G36*
X205683024Y-50980560D02*
G01*
X205728787Y-51033357D01*
X205740000Y-51084885D01*
X205740000Y-53470000D01*
X205720315Y-53537039D01*
X205667511Y-53582794D01*
X205616000Y-53594000D01*
X204627742Y-53594000D01*
X204560703Y-53574315D01*
X204514948Y-53521511D01*
X204504522Y-53456117D01*
X204524365Y-53280003D01*
X204524365Y-53279996D01*
X204504169Y-53100750D01*
X204504168Y-53100745D01*
X204444588Y-52930476D01*
X204348615Y-52777737D01*
X204221062Y-52650184D01*
X204068323Y-52554211D01*
X203898054Y-52494631D01*
X203898049Y-52494630D01*
X203718804Y-52474435D01*
X203718796Y-52474435D01*
X203539550Y-52494630D01*
X203539545Y-52494631D01*
X203369276Y-52554211D01*
X203216537Y-52650184D01*
X203088984Y-52777737D01*
X202993011Y-52930476D01*
X202933431Y-53100745D01*
X202933430Y-53100750D01*
X202913235Y-53279996D01*
X202913235Y-53280003D01*
X202933078Y-53456117D01*
X202921024Y-53524938D01*
X202873674Y-53576318D01*
X202809858Y-53594000D01*
X202096484Y-53594000D01*
X202029445Y-53574315D01*
X201983690Y-53521511D01*
X201973746Y-53452353D01*
X201991491Y-53404027D01*
X202044588Y-53319524D01*
X202058418Y-53280000D01*
X202104168Y-53149255D01*
X202124365Y-52970000D01*
X202104168Y-52790745D01*
X202044589Y-52620478D01*
X201948616Y-52467738D01*
X201821062Y-52340184D01*
X201668323Y-52244211D01*
X201498054Y-52184631D01*
X201498049Y-52184630D01*
X201318804Y-52164435D01*
X201318796Y-52164435D01*
X201139550Y-52184630D01*
X201139545Y-52184631D01*
X200969276Y-52244211D01*
X200816537Y-52340184D01*
X200688982Y-52467739D01*
X200660000Y-52513864D01*
X200660000Y-50961603D01*
X205615985Y-50960886D01*
X205683024Y-50980560D01*
G37*
%TD.AperFunction*%
%TD*%
%TA.AperFunction,Conductor*%
%TO.N,+3V3*%
G36*
X195072000Y-64008000D02*
G01*
X195092328Y-64008000D01*
X195074500Y-64132001D01*
X195074500Y-68089425D01*
X195054815Y-68156464D01*
X195002011Y-68202219D01*
X194932853Y-68212163D01*
X194869298Y-68183139D01*
X194859250Y-68174432D01*
X194859246Y-68174430D01*
X194728380Y-68114664D01*
X194728375Y-68114662D01*
X194728374Y-68114662D01*
X194661335Y-68094977D01*
X194661337Y-68094977D01*
X194661332Y-68094976D01*
X194599262Y-68086052D01*
X194518915Y-68074500D01*
X190624000Y-68074500D01*
X190623991Y-68074500D01*
X190623990Y-68074501D01*
X190516549Y-68086052D01*
X190516537Y-68086054D01*
X190465027Y-68097260D01*
X190362502Y-68131383D01*
X190362496Y-68131386D01*
X190241462Y-68209171D01*
X190241451Y-68209179D01*
X190188659Y-68254923D01*
X190146277Y-68303834D01*
X190087498Y-68341608D01*
X190017629Y-68341607D01*
X189958851Y-68303832D01*
X189929827Y-68240276D01*
X189928871Y-68226915D01*
X189908369Y-68044949D01*
X189908368Y-68044944D01*
X189850350Y-67879139D01*
X189848789Y-67874677D01*
X189752816Y-67721937D01*
X189625262Y-67594383D01*
X189561929Y-67554588D01*
X189472523Y-67498410D01*
X189302254Y-67438830D01*
X189302249Y-67438829D01*
X189123004Y-67418634D01*
X189122996Y-67418634D01*
X188943750Y-67438829D01*
X188943745Y-67438830D01*
X188773476Y-67498410D01*
X188620737Y-67594383D01*
X188493184Y-67721936D01*
X188397211Y-67874675D01*
X188337631Y-68044944D01*
X188337630Y-68044949D01*
X188317435Y-68224195D01*
X188317435Y-68224202D01*
X188337630Y-68403448D01*
X188337631Y-68403453D01*
X188397211Y-68573722D01*
X188451407Y-68659973D01*
X188493184Y-68726461D01*
X188620738Y-68854015D01*
X188773478Y-68949988D01*
X188933837Y-69006100D01*
X188943745Y-69009567D01*
X188943750Y-69009568D01*
X189122996Y-69029764D01*
X189123000Y-69029764D01*
X189123004Y-69029764D01*
X189302249Y-69009568D01*
X189302252Y-69009567D01*
X189302255Y-69009567D01*
X189472522Y-68949988D01*
X189625262Y-68854015D01*
X189752816Y-68726461D01*
X189765506Y-68706264D01*
X189817840Y-68659973D01*
X189886893Y-68649324D01*
X189950742Y-68677699D01*
X189989114Y-68736088D01*
X189994500Y-68772236D01*
X189994500Y-68957534D01*
X189974815Y-69024573D01*
X189922011Y-69070328D01*
X189911454Y-69074576D01*
X189770180Y-69124009D01*
X189617439Y-69219983D01*
X189489886Y-69347536D01*
X189393913Y-69500275D01*
X189334333Y-69670544D01*
X189334332Y-69670549D01*
X189314137Y-69849795D01*
X189314137Y-69849802D01*
X189334332Y-70029048D01*
X189334333Y-70029053D01*
X189393913Y-70199322D01*
X189455203Y-70296863D01*
X189489886Y-70352061D01*
X189617440Y-70479615D01*
X189770180Y-70575588D01*
X189911531Y-70625048D01*
X189968306Y-70665770D01*
X189994054Y-70730722D01*
X189994182Y-70743156D01*
X189994500Y-70743156D01*
X189994500Y-71081658D01*
X189977887Y-71143658D01*
X189932821Y-71221714D01*
X189886987Y-71362777D01*
X189874326Y-71401744D01*
X189854540Y-71590000D01*
X189874326Y-71778256D01*
X189874327Y-71778259D01*
X189932818Y-71958277D01*
X189932821Y-71958284D01*
X189965393Y-72014701D01*
X189977887Y-72036340D01*
X189994500Y-72098340D01*
X189994500Y-72393000D01*
X189994501Y-72393009D01*
X190006052Y-72500450D01*
X190006054Y-72500462D01*
X190017260Y-72551972D01*
X190051383Y-72654497D01*
X190051386Y-72654503D01*
X190129171Y-72775537D01*
X190129179Y-72775548D01*
X190174923Y-72828340D01*
X190174926Y-72828343D01*
X190174930Y-72828347D01*
X190283664Y-72922567D01*
X190283667Y-72922568D01*
X190283668Y-72922569D01*
X190363859Y-72959192D01*
X190414541Y-72982338D01*
X190481580Y-73002023D01*
X190481584Y-73002024D01*
X190500000Y-73004671D01*
X190500000Y-73751890D01*
X190479257Y-73744632D01*
X190479249Y-73744630D01*
X190300004Y-73724435D01*
X190299996Y-73724435D01*
X190120750Y-73744630D01*
X190120745Y-73744631D01*
X189950476Y-73804211D01*
X189797737Y-73900184D01*
X189670184Y-74027737D01*
X189574211Y-74180476D01*
X189514631Y-74350745D01*
X189514630Y-74350750D01*
X189494435Y-74529996D01*
X189494435Y-74530003D01*
X189514630Y-74709249D01*
X189514632Y-74709257D01*
X189544936Y-74795861D01*
X189548497Y-74865640D01*
X189513768Y-74926267D01*
X189451775Y-74958494D01*
X189427875Y-74960815D01*
X179159769Y-74959230D01*
X179159612Y-74959219D01*
X179091849Y-74959219D01*
X179079733Y-74958625D01*
X179064996Y-74957177D01*
X178948251Y-74945713D01*
X178924485Y-74941001D01*
X178803856Y-74904531D01*
X178781459Y-74895286D01*
X178670222Y-74836052D01*
X178650050Y-74822629D01*
X178552463Y-74742899D01*
X178535286Y-74725808D01*
X178455062Y-74628616D01*
X178441543Y-74608522D01*
X178381746Y-74497575D01*
X178372393Y-74475230D01*
X178357208Y-74425901D01*
X178335316Y-74354781D01*
X178330485Y-74331041D01*
X178329968Y-74326035D01*
X178328413Y-74310972D01*
X178341108Y-74242267D01*
X178388933Y-74191331D01*
X178456705Y-74174337D01*
X178522905Y-74196680D01*
X178560588Y-74238808D01*
X178563606Y-74244335D01*
X178649852Y-74359544D01*
X178649855Y-74359547D01*
X178765064Y-74445793D01*
X178765071Y-74445797D01*
X178899917Y-74496091D01*
X178899916Y-74496091D01*
X178906844Y-74496835D01*
X178959527Y-74502500D01*
X180755272Y-74502499D01*
X180814883Y-74496091D01*
X180949731Y-74445796D01*
X181064946Y-74359546D01*
X181151196Y-74244331D01*
X181200210Y-74112916D01*
X181242081Y-74056984D01*
X181307545Y-74032566D01*
X181375818Y-74047417D01*
X181404073Y-74068569D01*
X181525999Y-74190495D01*
X181622784Y-74258265D01*
X181719565Y-74326032D01*
X181719567Y-74326033D01*
X181719570Y-74326035D01*
X181933737Y-74425903D01*
X182161992Y-74487063D01*
X182338434Y-74502500D01*
X182397399Y-74507659D01*
X182397400Y-74507659D01*
X182397401Y-74507659D01*
X182456366Y-74502500D01*
X182632808Y-74487063D01*
X182861063Y-74425903D01*
X183075230Y-74326035D01*
X183268801Y-74190495D01*
X183435895Y-74023401D01*
X183565824Y-73837842D01*
X183620401Y-73794218D01*
X183689899Y-73787024D01*
X183752254Y-73818547D01*
X183768973Y-73837841D01*
X183898904Y-74023401D01*
X184065998Y-74190495D01*
X184162783Y-74258265D01*
X184259564Y-74326032D01*
X184259566Y-74326033D01*
X184259569Y-74326035D01*
X184473736Y-74425903D01*
X184701991Y-74487063D01*
X184878433Y-74502500D01*
X184937398Y-74507659D01*
X184937399Y-74507659D01*
X184937400Y-74507659D01*
X184996365Y-74502500D01*
X185172807Y-74487063D01*
X185401062Y-74425903D01*
X185615229Y-74326035D01*
X185808800Y-74190495D01*
X185975894Y-74023401D01*
X186105825Y-73837839D01*
X186160401Y-73794216D01*
X186229899Y-73787022D01*
X186292254Y-73818545D01*
X186308972Y-73837838D01*
X186438905Y-74023401D01*
X186605999Y-74190495D01*
X186702784Y-74258265D01*
X186799565Y-74326032D01*
X186799567Y-74326033D01*
X186799570Y-74326035D01*
X187013737Y-74425903D01*
X187241992Y-74487063D01*
X187418434Y-74502500D01*
X187477399Y-74507659D01*
X187477400Y-74507659D01*
X187477401Y-74507659D01*
X187536366Y-74502500D01*
X187712808Y-74487063D01*
X187941063Y-74425903D01*
X188155230Y-74326035D01*
X188348801Y-74190495D01*
X188515895Y-74023401D01*
X188651435Y-73829830D01*
X188751303Y-73615663D01*
X188812463Y-73387408D01*
X188833059Y-73152000D01*
X188812463Y-72916592D01*
X188751303Y-72688337D01*
X188651435Y-72474171D01*
X188645825Y-72466158D01*
X188515894Y-72280597D01*
X188348802Y-72113506D01*
X188348801Y-72113505D01*
X188163242Y-71983575D01*
X188162805Y-71983269D01*
X188119181Y-71928692D01*
X188111988Y-71859193D01*
X188143510Y-71796839D01*
X188162805Y-71780119D01*
X188348482Y-71650105D01*
X188515505Y-71483082D01*
X188651000Y-71289578D01*
X188750829Y-71075492D01*
X188750832Y-71075486D01*
X188808036Y-70862000D01*
X187910412Y-70862000D01*
X187943325Y-70804993D01*
X187977400Y-70677826D01*
X187977400Y-70546174D01*
X187943325Y-70419007D01*
X187910412Y-70362000D01*
X188808036Y-70362000D01*
X188808035Y-70361999D01*
X188750832Y-70148513D01*
X188750829Y-70148507D01*
X188651000Y-69934422D01*
X188650999Y-69934420D01*
X188515513Y-69740926D01*
X188515508Y-69740920D01*
X188348482Y-69573894D01*
X188154978Y-69438399D01*
X187940892Y-69338570D01*
X187940886Y-69338567D01*
X187727400Y-69281364D01*
X187727400Y-70178988D01*
X187670393Y-70146075D01*
X187543226Y-70112000D01*
X187411574Y-70112000D01*
X187284407Y-70146075D01*
X187227400Y-70178988D01*
X187227400Y-69281364D01*
X187227399Y-69281364D01*
X187013913Y-69338567D01*
X187013907Y-69338570D01*
X186799822Y-69438399D01*
X186799820Y-69438400D01*
X186606326Y-69573886D01*
X186606320Y-69573891D01*
X186439291Y-69740920D01*
X186439290Y-69740922D01*
X186309280Y-69926595D01*
X186254703Y-69970219D01*
X186185204Y-69977412D01*
X186122850Y-69945890D01*
X186106130Y-69926594D01*
X185975894Y-69740597D01*
X185808802Y-69573506D01*
X185808795Y-69573501D01*
X185615234Y-69437967D01*
X185615230Y-69437965D01*
X185615228Y-69437964D01*
X185401063Y-69338097D01*
X185401059Y-69338096D01*
X185401055Y-69338094D01*
X185172813Y-69276938D01*
X185172803Y-69276936D01*
X184937401Y-69256341D01*
X184937399Y-69256341D01*
X184701996Y-69276936D01*
X184701986Y-69276938D01*
X184473744Y-69338094D01*
X184473735Y-69338098D01*
X184259571Y-69437964D01*
X184259569Y-69437965D01*
X184065997Y-69573505D01*
X183898905Y-69740597D01*
X183768975Y-69926158D01*
X183714398Y-69969783D01*
X183644900Y-69976977D01*
X183582545Y-69945454D01*
X183565825Y-69926158D01*
X183435894Y-69740597D01*
X183268802Y-69573506D01*
X183268795Y-69573501D01*
X183075234Y-69437967D01*
X183075230Y-69437965D01*
X183075228Y-69437964D01*
X182861063Y-69338097D01*
X182861059Y-69338096D01*
X182861055Y-69338094D01*
X182632813Y-69276938D01*
X182632803Y-69276936D01*
X182397401Y-69256341D01*
X182397399Y-69256341D01*
X182161996Y-69276936D01*
X182161986Y-69276938D01*
X181933744Y-69338094D01*
X181933735Y-69338098D01*
X181719571Y-69437964D01*
X181719569Y-69437965D01*
X181525997Y-69573505D01*
X181358905Y-69740597D01*
X181228975Y-69926158D01*
X181174398Y-69969783D01*
X181104900Y-69976977D01*
X181042545Y-69945454D01*
X181025825Y-69926158D01*
X180895894Y-69740597D01*
X180728802Y-69573506D01*
X180728795Y-69573501D01*
X180535234Y-69437967D01*
X180535230Y-69437965D01*
X180535228Y-69437964D01*
X180321063Y-69338097D01*
X180321059Y-69338096D01*
X180321055Y-69338094D01*
X180092813Y-69276938D01*
X180092803Y-69276936D01*
X179857401Y-69256341D01*
X179857399Y-69256341D01*
X179621996Y-69276936D01*
X179621986Y-69276938D01*
X179393744Y-69338094D01*
X179393735Y-69338098D01*
X179179571Y-69437964D01*
X179179569Y-69437965D01*
X178985997Y-69573505D01*
X178818905Y-69740597D01*
X178683365Y-69934169D01*
X178683364Y-69934171D01*
X178583498Y-70148335D01*
X178583494Y-70148344D01*
X178560742Y-70233259D01*
X178524377Y-70292920D01*
X178461530Y-70323449D01*
X178392155Y-70315154D01*
X178338277Y-70270669D01*
X178317002Y-70204117D01*
X178316967Y-70201144D01*
X178317325Y-68141178D01*
X178337021Y-68074146D01*
X178389833Y-68028401D01*
X178458993Y-68018469D01*
X178519987Y-68045348D01*
X178524252Y-68048848D01*
X178577680Y-68084548D01*
X178631841Y-68120737D01*
X178631842Y-68120737D01*
X178631843Y-68120738D01*
X178631845Y-68120739D01*
X178718094Y-68156464D01*
X178751389Y-68170255D01*
X178751393Y-68170255D01*
X178751394Y-68170256D01*
X178878298Y-68195500D01*
X178878301Y-68195500D01*
X179007701Y-68195500D01*
X179113622Y-68174430D01*
X179134611Y-68170255D01*
X179254159Y-68120737D01*
X179345061Y-68059998D01*
X179411739Y-68039120D01*
X179413952Y-68039100D01*
X180758048Y-68039100D01*
X180825087Y-68058785D01*
X180826939Y-68059998D01*
X180865932Y-68086052D01*
X180917841Y-68120737D01*
X180917842Y-68120737D01*
X180917843Y-68120738D01*
X180917845Y-68120739D01*
X181004094Y-68156464D01*
X181037389Y-68170255D01*
X181037393Y-68170255D01*
X181037394Y-68170256D01*
X181164298Y-68195500D01*
X181164301Y-68195500D01*
X181293701Y-68195500D01*
X181399622Y-68174430D01*
X181420611Y-68170255D01*
X181540159Y-68120737D01*
X181647749Y-68048847D01*
X181739247Y-67957349D01*
X181811137Y-67849759D01*
X181860655Y-67730211D01*
X181879721Y-67634364D01*
X181885900Y-67603301D01*
X181885900Y-67473898D01*
X181860656Y-67346994D01*
X181860655Y-67346993D01*
X181860655Y-67346989D01*
X181854532Y-67332207D01*
X181811139Y-67227445D01*
X181811138Y-67227443D01*
X181792444Y-67199466D01*
X181739247Y-67119851D01*
X181739244Y-67119847D01*
X181647752Y-67028355D01*
X181647748Y-67028352D01*
X181635253Y-67020003D01*
X183474435Y-67020003D01*
X183494630Y-67199249D01*
X183494631Y-67199254D01*
X183554211Y-67369523D01*
X183610191Y-67458614D01*
X183650184Y-67522262D01*
X183777738Y-67649816D01*
X183930478Y-67745789D01*
X184065399Y-67793000D01*
X184100745Y-67805368D01*
X184100750Y-67805369D01*
X184279996Y-67825565D01*
X184280000Y-67825565D01*
X184280004Y-67825565D01*
X184459249Y-67805369D01*
X184459252Y-67805368D01*
X184459255Y-67805368D01*
X184629522Y-67745789D01*
X184782262Y-67649816D01*
X184909816Y-67522262D01*
X185005789Y-67369522D01*
X185065368Y-67199255D01*
X185066565Y-67188637D01*
X185073877Y-67123736D01*
X185100943Y-67059321D01*
X185158537Y-67019766D01*
X185228374Y-67017627D01*
X185247527Y-67024336D01*
X185330197Y-67061144D01*
X185515354Y-67100500D01*
X185515355Y-67100500D01*
X185704644Y-67100500D01*
X185704646Y-67100500D01*
X185889803Y-67061144D01*
X186062730Y-66984151D01*
X186215871Y-66872888D01*
X186255566Y-66828802D01*
X191472137Y-66828802D01*
X191492332Y-67008048D01*
X191492333Y-67008053D01*
X191551913Y-67178322D01*
X191591443Y-67241233D01*
X191647886Y-67331061D01*
X191775440Y-67458615D01*
X191838773Y-67498410D01*
X191920626Y-67549842D01*
X191928180Y-67554588D01*
X192025395Y-67588605D01*
X192098447Y-67614167D01*
X192098452Y-67614168D01*
X192277698Y-67634364D01*
X192277702Y-67634364D01*
X192277706Y-67634364D01*
X192456951Y-67614168D01*
X192456954Y-67614167D01*
X192456957Y-67614167D01*
X192627224Y-67554588D01*
X192779964Y-67458615D01*
X192907518Y-67331061D01*
X193003491Y-67178321D01*
X193063070Y-67008054D01*
X193063687Y-67002580D01*
X193066372Y-66978752D01*
X193093438Y-66914338D01*
X193151033Y-66874783D01*
X193220870Y-66872645D01*
X193255566Y-66887643D01*
X193275074Y-66899901D01*
X193275075Y-66899901D01*
X193275078Y-66899903D01*
X193436717Y-66956463D01*
X193445345Y-66959482D01*
X193445350Y-66959483D01*
X193624596Y-66979679D01*
X193624600Y-66979679D01*
X193624604Y-66979679D01*
X193803849Y-66959483D01*
X193803852Y-66959482D01*
X193803855Y-66959482D01*
X193974122Y-66899903D01*
X194126862Y-66803930D01*
X194254416Y-66676376D01*
X194350389Y-66523636D01*
X194409968Y-66353369D01*
X194409969Y-66353363D01*
X194430165Y-66174117D01*
X194430165Y-66174110D01*
X194409969Y-65994864D01*
X194409968Y-65994859D01*
X194350388Y-65824590D01*
X194254415Y-65671851D01*
X194126862Y-65544298D01*
X193974123Y-65448325D01*
X193803854Y-65388745D01*
X193803849Y-65388744D01*
X193624604Y-65368549D01*
X193624596Y-65368549D01*
X193445350Y-65388744D01*
X193445345Y-65388745D01*
X193275076Y-65448325D01*
X193122337Y-65544298D01*
X192994784Y-65671851D01*
X192898811Y-65824590D01*
X192839231Y-65994859D01*
X192839231Y-65994861D01*
X192835929Y-66024164D01*
X192808861Y-66088577D01*
X192751265Y-66128131D01*
X192681428Y-66130267D01*
X192646736Y-66115270D01*
X192627226Y-66103010D01*
X192456956Y-66043430D01*
X192456951Y-66043429D01*
X192277706Y-66023234D01*
X192277698Y-66023234D01*
X192098452Y-66043429D01*
X192098447Y-66043430D01*
X191928178Y-66103010D01*
X191775439Y-66198983D01*
X191647886Y-66326536D01*
X191551913Y-66479275D01*
X191492333Y-66649544D01*
X191492332Y-66649549D01*
X191472137Y-66828795D01*
X191472137Y-66828802D01*
X186255566Y-66828802D01*
X186342533Y-66732216D01*
X186437179Y-66568284D01*
X186495674Y-66388256D01*
X186515460Y-66200000D01*
X186495674Y-66011744D01*
X186437179Y-65831716D01*
X186342533Y-65667784D01*
X186215871Y-65527112D01*
X186161486Y-65487599D01*
X186062734Y-65415851D01*
X186062729Y-65415848D01*
X185889807Y-65338857D01*
X185889802Y-65338855D01*
X185744001Y-65307865D01*
X185704646Y-65299500D01*
X185515354Y-65299500D01*
X185482897Y-65306398D01*
X185330197Y-65338855D01*
X185330192Y-65338857D01*
X185157270Y-65415848D01*
X185157265Y-65415851D01*
X185004129Y-65527111D01*
X184877466Y-65667785D01*
X184782821Y-65831715D01*
X184782818Y-65831722D01*
X184726397Y-66005369D01*
X184724326Y-66011744D01*
X184712094Y-66128131D01*
X184708707Y-66160356D01*
X184682122Y-66224970D01*
X184624825Y-66264955D01*
X184555006Y-66267615D01*
X184544432Y-66264436D01*
X184459257Y-66234632D01*
X184459249Y-66234630D01*
X184280004Y-66214435D01*
X184279994Y-66214435D01*
X184225787Y-66220542D01*
X184156965Y-66208487D01*
X184106854Y-66162306D01*
X184090310Y-66212876D01*
X184036131Y-66256994D01*
X184029049Y-66259718D01*
X183930480Y-66294209D01*
X183777737Y-66390184D01*
X183650184Y-66517737D01*
X183554211Y-66670476D01*
X183494631Y-66840745D01*
X183494630Y-66840750D01*
X183474435Y-67019996D01*
X183474435Y-67020003D01*
X181635253Y-67020003D01*
X181540156Y-66956461D01*
X181540154Y-66956460D01*
X181420615Y-66906946D01*
X181420605Y-66906943D01*
X181293701Y-66881700D01*
X181293699Y-66881700D01*
X181164301Y-66881700D01*
X181164299Y-66881700D01*
X181037394Y-66906943D01*
X181037384Y-66906946D01*
X180917845Y-66956460D01*
X180917843Y-66956461D01*
X180826939Y-67017202D01*
X180760261Y-67038080D01*
X180758048Y-67038100D01*
X179413952Y-67038100D01*
X179346913Y-67018415D01*
X179345061Y-67017202D01*
X179254156Y-66956461D01*
X179254154Y-66956460D01*
X179134615Y-66906946D01*
X179134605Y-66906943D01*
X179007701Y-66881700D01*
X179007699Y-66881700D01*
X178878301Y-66881700D01*
X178878299Y-66881700D01*
X178751394Y-66906943D01*
X178751384Y-66906946D01*
X178631845Y-66956460D01*
X178631843Y-66956461D01*
X178524251Y-67028352D01*
X178520199Y-67031678D01*
X178455888Y-67058990D01*
X178387021Y-67047197D01*
X178335462Y-67000043D01*
X178317536Y-66935801D01*
X178317544Y-66887643D01*
X178317997Y-64288599D01*
X178881863Y-64288599D01*
X178902365Y-64509858D01*
X178902366Y-64509860D01*
X178963174Y-64723578D01*
X178963180Y-64723593D01*
X179062222Y-64922495D01*
X179196133Y-65099823D01*
X179360344Y-65249520D01*
X179360346Y-65249522D01*
X179549266Y-65366496D01*
X179549272Y-65366499D01*
X179554564Y-65368549D01*
X179756472Y-65446769D01*
X179974896Y-65487599D01*
X179974899Y-65487599D01*
X180197101Y-65487599D01*
X180197104Y-65487599D01*
X180415528Y-65446769D01*
X180622730Y-65366498D01*
X180811655Y-65249521D01*
X180844035Y-65220003D01*
X183114435Y-65220003D01*
X183134630Y-65399249D01*
X183134631Y-65399254D01*
X183194211Y-65569523D01*
X183258509Y-65671852D01*
X183290184Y-65722262D01*
X183417738Y-65849816D01*
X183570478Y-65945789D01*
X183710712Y-65994859D01*
X183740745Y-66005368D01*
X183740750Y-66005369D01*
X183919996Y-66025565D01*
X183920000Y-66025565D01*
X183920002Y-66025565D01*
X183963307Y-66020685D01*
X183974210Y-66019457D01*
X184043032Y-66031511D01*
X184093143Y-66077692D01*
X184109690Y-66027121D01*
X184163870Y-65983004D01*
X184170937Y-65980285D01*
X184269522Y-65945789D01*
X184422262Y-65849816D01*
X184549816Y-65722262D01*
X184645789Y-65569522D01*
X184705368Y-65399255D01*
X184706552Y-65388746D01*
X184725565Y-65220003D01*
X184725565Y-65219996D01*
X184705369Y-65040750D01*
X184705368Y-65040745D01*
X184645789Y-64870478D01*
X184549816Y-64717738D01*
X184422262Y-64590184D01*
X184269523Y-64494211D01*
X184099254Y-64434631D01*
X184099249Y-64434630D01*
X183920004Y-64414435D01*
X183919996Y-64414435D01*
X183740750Y-64434630D01*
X183740745Y-64434631D01*
X183570476Y-64494211D01*
X183417737Y-64590184D01*
X183290184Y-64717737D01*
X183194211Y-64870476D01*
X183134631Y-65040745D01*
X183134630Y-65040750D01*
X183114435Y-65219996D01*
X183114435Y-65220003D01*
X180844035Y-65220003D01*
X180975868Y-65099821D01*
X181109778Y-64922495D01*
X181208824Y-64723583D01*
X181269634Y-64509859D01*
X181290137Y-64288599D01*
X181269634Y-64067339D01*
X181250208Y-63999064D01*
X186789100Y-63999064D01*
X186809295Y-64178310D01*
X186809296Y-64178315D01*
X186868876Y-64348584D01*
X186960380Y-64494211D01*
X186964849Y-64501323D01*
X187092403Y-64628877D01*
X187182745Y-64685643D01*
X187243126Y-64723583D01*
X187245143Y-64724850D01*
X187415410Y-64784429D01*
X187415415Y-64784430D01*
X187594661Y-64804626D01*
X187594665Y-64804626D01*
X187594669Y-64804626D01*
X187773914Y-64784430D01*
X187773917Y-64784429D01*
X187773920Y-64784429D01*
X187944187Y-64724850D01*
X188096927Y-64628877D01*
X188224481Y-64501323D01*
X188320454Y-64348583D01*
X188380033Y-64178316D01*
X188381867Y-64162039D01*
X188400230Y-63999064D01*
X188400230Y-63999057D01*
X188380034Y-63819811D01*
X188380033Y-63819806D01*
X188332138Y-63682930D01*
X188324037Y-63659780D01*
X188810097Y-63659780D01*
X188830292Y-63839026D01*
X188830293Y-63839031D01*
X188889873Y-64009300D01*
X188926342Y-64067339D01*
X188985846Y-64162039D01*
X189113400Y-64289593D01*
X189266140Y-64385566D01*
X189348643Y-64414435D01*
X189436407Y-64445145D01*
X189436412Y-64445146D01*
X189615658Y-64465342D01*
X189615662Y-64465342D01*
X189615666Y-64465342D01*
X189794911Y-64445146D01*
X189794914Y-64445145D01*
X189794917Y-64445145D01*
X189965184Y-64385566D01*
X190117924Y-64289593D01*
X190245478Y-64162039D01*
X190341451Y-64009299D01*
X190401030Y-63839032D01*
X190403196Y-63819811D01*
X190421227Y-63659780D01*
X190421227Y-63659773D01*
X190401031Y-63480527D01*
X190401030Y-63480522D01*
X190347547Y-63327677D01*
X190341451Y-63310255D01*
X190245478Y-63157515D01*
X190117924Y-63029961D01*
X190079418Y-63005766D01*
X189965185Y-62933988D01*
X189794916Y-62874408D01*
X189794911Y-62874407D01*
X189615666Y-62854212D01*
X189615658Y-62854212D01*
X189436412Y-62874407D01*
X189436407Y-62874408D01*
X189266138Y-62933988D01*
X189113399Y-63029961D01*
X188985846Y-63157514D01*
X188889873Y-63310253D01*
X188830293Y-63480522D01*
X188830292Y-63480527D01*
X188810097Y-63659773D01*
X188810097Y-63659780D01*
X188324037Y-63659780D01*
X188320454Y-63649539D01*
X188224481Y-63496799D01*
X188096927Y-63369245D01*
X188030769Y-63327675D01*
X187944188Y-63273272D01*
X187773919Y-63213692D01*
X187773914Y-63213691D01*
X187594669Y-63193496D01*
X187594661Y-63193496D01*
X187415415Y-63213691D01*
X187415410Y-63213692D01*
X187245141Y-63273272D01*
X187092402Y-63369245D01*
X186964849Y-63496798D01*
X186868876Y-63649537D01*
X186809296Y-63819806D01*
X186809295Y-63819811D01*
X186789100Y-63999057D01*
X186789100Y-63999064D01*
X181250208Y-63999064D01*
X181208824Y-63853615D01*
X181170906Y-63777466D01*
X181153295Y-63742098D01*
X181109778Y-63654703D01*
X181025169Y-63542662D01*
X180975866Y-63477374D01*
X180811655Y-63327677D01*
X180811653Y-63327675D01*
X180622733Y-63210701D01*
X180622727Y-63210698D01*
X180515080Y-63168996D01*
X180415528Y-63130429D01*
X180197104Y-63089599D01*
X179974896Y-63089599D01*
X179756472Y-63130429D01*
X179706695Y-63149712D01*
X179549272Y-63210698D01*
X179549266Y-63210701D01*
X179360346Y-63327675D01*
X179360344Y-63327677D01*
X179196133Y-63477374D01*
X179062222Y-63654702D01*
X178963180Y-63853604D01*
X178963174Y-63853619D01*
X178902366Y-64067337D01*
X178902365Y-64067339D01*
X178881863Y-64288598D01*
X178881863Y-64288599D01*
X178317997Y-64288599D01*
X178318520Y-61288600D01*
X178881863Y-61288600D01*
X178902365Y-61509859D01*
X178902366Y-61509861D01*
X178963174Y-61723579D01*
X178963180Y-61723594D01*
X179062222Y-61922496D01*
X179196133Y-62099824D01*
X179360344Y-62249521D01*
X179360346Y-62249523D01*
X179549266Y-62366497D01*
X179549272Y-62366500D01*
X179578206Y-62377709D01*
X179756472Y-62446770D01*
X179974896Y-62487600D01*
X179974899Y-62487600D01*
X180197101Y-62487600D01*
X180197104Y-62487600D01*
X180415528Y-62446770D01*
X180568773Y-62387402D01*
X184229835Y-62387402D01*
X184250030Y-62566648D01*
X184250031Y-62566653D01*
X184309611Y-62736922D01*
X184405584Y-62889661D01*
X184533138Y-63017215D01*
X184685878Y-63113188D01*
X184856145Y-63172767D01*
X184856150Y-63172768D01*
X185035396Y-63192964D01*
X185035400Y-63192964D01*
X185035404Y-63192964D01*
X185214649Y-63172768D01*
X185214652Y-63172767D01*
X185214655Y-63172767D01*
X185384922Y-63113188D01*
X185537662Y-63017215D01*
X185665216Y-62889661D01*
X185761189Y-62736921D01*
X185820768Y-62566654D01*
X185820769Y-62566648D01*
X185840965Y-62387402D01*
X185840965Y-62387395D01*
X185820769Y-62208149D01*
X185820768Y-62208144D01*
X185761188Y-62037875D01*
X185665215Y-61885136D01*
X185537662Y-61757583D01*
X185384923Y-61661610D01*
X185214654Y-61602030D01*
X185214649Y-61602029D01*
X185035404Y-61581834D01*
X185035396Y-61581834D01*
X184856150Y-61602029D01*
X184856145Y-61602030D01*
X184685876Y-61661610D01*
X184533137Y-61757583D01*
X184405584Y-61885136D01*
X184309611Y-62037875D01*
X184250031Y-62208144D01*
X184250030Y-62208149D01*
X184229835Y-62387395D01*
X184229835Y-62387402D01*
X180568773Y-62387402D01*
X180622730Y-62366499D01*
X180811655Y-62249522D01*
X180975868Y-62099822D01*
X181109778Y-61922496D01*
X181208824Y-61723584D01*
X181269634Y-61509860D01*
X181290137Y-61288600D01*
X181269634Y-61067340D01*
X181208824Y-60853616D01*
X181109778Y-60654704D01*
X180975868Y-60477378D01*
X180975866Y-60477375D01*
X180811655Y-60327678D01*
X180811653Y-60327676D01*
X180622733Y-60210702D01*
X180622727Y-60210699D01*
X180515080Y-60168997D01*
X180415528Y-60130430D01*
X180197104Y-60089600D01*
X179974896Y-60089600D01*
X179756472Y-60130430D01*
X179706695Y-60149713D01*
X179549272Y-60210699D01*
X179549266Y-60210702D01*
X179360346Y-60327676D01*
X179360344Y-60327678D01*
X179196133Y-60477375D01*
X179062222Y-60654703D01*
X178963180Y-60853605D01*
X178963174Y-60853620D01*
X178902366Y-61067338D01*
X178902365Y-61067340D01*
X178881863Y-61288599D01*
X178881863Y-61288600D01*
X178318520Y-61288600D01*
X178319043Y-58288601D01*
X178881863Y-58288601D01*
X178902365Y-58509860D01*
X178902366Y-58509862D01*
X178963174Y-58723580D01*
X178963180Y-58723595D01*
X179062222Y-58922497D01*
X179196133Y-59099825D01*
X179360344Y-59249522D01*
X179360346Y-59249524D01*
X179549266Y-59366498D01*
X179549272Y-59366501D01*
X179578206Y-59377710D01*
X179756472Y-59446771D01*
X179974896Y-59487601D01*
X179974899Y-59487601D01*
X180197101Y-59487601D01*
X180197104Y-59487601D01*
X180415528Y-59446771D01*
X180622730Y-59366500D01*
X180811655Y-59249523D01*
X180975868Y-59099823D01*
X181109778Y-58922497D01*
X181208824Y-58723585D01*
X181269634Y-58509861D01*
X181290137Y-58288601D01*
X181269634Y-58067341D01*
X181208824Y-57853617D01*
X181109778Y-57654705D01*
X180975868Y-57477379D01*
X180975866Y-57477376D01*
X180811655Y-57327679D01*
X180811653Y-57327677D01*
X180622733Y-57210703D01*
X180622727Y-57210700D01*
X180515080Y-57168998D01*
X180415528Y-57130431D01*
X180197104Y-57089601D01*
X179974896Y-57089601D01*
X179756472Y-57130431D01*
X179706695Y-57149714D01*
X179549272Y-57210700D01*
X179549266Y-57210703D01*
X179360346Y-57327677D01*
X179360344Y-57327679D01*
X179196133Y-57477376D01*
X179062222Y-57654704D01*
X178963180Y-57853606D01*
X178963174Y-57853621D01*
X178902366Y-58067339D01*
X178902365Y-58067341D01*
X178881863Y-58288600D01*
X178881863Y-58288601D01*
X178319043Y-58288601D01*
X178319365Y-56440000D01*
X182644540Y-56440000D01*
X182664326Y-56628256D01*
X182664327Y-56628259D01*
X182722818Y-56808277D01*
X182722821Y-56808284D01*
X182817467Y-56972216D01*
X182923161Y-57089601D01*
X182944129Y-57112888D01*
X183097265Y-57224148D01*
X183097270Y-57224151D01*
X183270192Y-57301142D01*
X183270197Y-57301144D01*
X183455354Y-57340500D01*
X183455355Y-57340500D01*
X183644644Y-57340500D01*
X183644646Y-57340500D01*
X183829803Y-57301144D01*
X184002730Y-57224151D01*
X184155871Y-57112888D01*
X184282533Y-56972216D01*
X184377179Y-56808284D01*
X184435674Y-56628256D01*
X184455460Y-56440000D01*
X184435674Y-56251744D01*
X184377179Y-56071716D01*
X184282533Y-55907784D01*
X184155871Y-55767112D01*
X184135107Y-55752026D01*
X184002734Y-55655851D01*
X184002729Y-55655848D01*
X183829807Y-55578857D01*
X183829802Y-55578855D01*
X183684001Y-55547865D01*
X183644646Y-55539500D01*
X183455354Y-55539500D01*
X183427300Y-55545463D01*
X183270197Y-55578855D01*
X183270192Y-55578857D01*
X183097270Y-55655848D01*
X183097265Y-55655851D01*
X182944129Y-55767111D01*
X182817466Y-55907785D01*
X182722821Y-56071715D01*
X182722818Y-56071722D01*
X182664327Y-56251740D01*
X182664326Y-56251744D01*
X182644540Y-56440000D01*
X178319365Y-56440000D01*
X178319504Y-55642968D01*
X178339200Y-55575934D01*
X178392012Y-55530189D01*
X178461172Y-55520257D01*
X178519000Y-55545741D01*
X178519186Y-55545463D01*
X178520769Y-55546521D01*
X178522167Y-55547137D01*
X178524251Y-55548847D01*
X178631841Y-55620737D01*
X178631842Y-55620737D01*
X178631843Y-55620738D01*
X178631845Y-55620739D01*
X178716614Y-55655851D01*
X178751389Y-55670255D01*
X178751393Y-55670255D01*
X178751394Y-55670256D01*
X178878298Y-55695500D01*
X178878301Y-55695500D01*
X179007701Y-55695500D01*
X179093078Y-55678516D01*
X179134611Y-55670255D01*
X179254159Y-55620737D01*
X179322456Y-55575101D01*
X179345061Y-55559998D01*
X179411739Y-55539120D01*
X179413952Y-55539100D01*
X180758048Y-55539100D01*
X180825087Y-55558785D01*
X180826939Y-55559998D01*
X180850789Y-55575934D01*
X180917841Y-55620737D01*
X180917842Y-55620737D01*
X180917843Y-55620738D01*
X180917845Y-55620739D01*
X181002614Y-55655851D01*
X181037389Y-55670255D01*
X181037393Y-55670255D01*
X181037394Y-55670256D01*
X181164298Y-55695500D01*
X181164301Y-55695500D01*
X181293701Y-55695500D01*
X181379078Y-55678516D01*
X181420611Y-55670255D01*
X181540159Y-55620737D01*
X181647749Y-55548847D01*
X181739247Y-55457349D01*
X181797610Y-55370003D01*
X190694435Y-55370003D01*
X190714630Y-55549249D01*
X190714631Y-55549254D01*
X190774211Y-55719523D01*
X190860976Y-55857607D01*
X190870184Y-55872262D01*
X190997738Y-55999816D01*
X191057852Y-56037588D01*
X191112175Y-56071722D01*
X191150478Y-56095789D01*
X191238085Y-56126444D01*
X191320745Y-56155368D01*
X191320750Y-56155369D01*
X191499996Y-56175565D01*
X191500000Y-56175565D01*
X191500004Y-56175565D01*
X191679249Y-56155369D01*
X191679252Y-56155368D01*
X191679255Y-56155368D01*
X191849522Y-56095789D01*
X192002262Y-55999816D01*
X192129816Y-55872262D01*
X192225789Y-55719522D01*
X192285368Y-55549255D01*
X192285414Y-55548847D01*
X192305565Y-55370003D01*
X192305565Y-55369996D01*
X192285369Y-55190750D01*
X192285368Y-55190745D01*
X192254769Y-55103299D01*
X192225789Y-55020478D01*
X192129816Y-54867738D01*
X192002262Y-54740184D01*
X191981982Y-54727441D01*
X191849523Y-54644211D01*
X191679254Y-54584631D01*
X191679249Y-54584630D01*
X191500004Y-54564435D01*
X191499996Y-54564435D01*
X191320750Y-54584630D01*
X191320745Y-54584631D01*
X191150476Y-54644211D01*
X190997737Y-54740184D01*
X190870184Y-54867737D01*
X190774211Y-55020476D01*
X190714631Y-55190745D01*
X190714630Y-55190750D01*
X190694435Y-55369996D01*
X190694435Y-55370003D01*
X181797610Y-55370003D01*
X181811137Y-55349759D01*
X181860655Y-55230211D01*
X181885900Y-55103299D01*
X181885900Y-54973901D01*
X181885900Y-54973898D01*
X181860656Y-54846994D01*
X181860655Y-54846993D01*
X181860655Y-54846989D01*
X181852352Y-54826944D01*
X181811139Y-54727445D01*
X181811138Y-54727443D01*
X181739247Y-54619851D01*
X181739244Y-54619847D01*
X181647752Y-54528355D01*
X181647748Y-54528352D01*
X181540156Y-54456461D01*
X181540154Y-54456460D01*
X181420615Y-54406946D01*
X181420605Y-54406943D01*
X181293701Y-54381700D01*
X181293699Y-54381700D01*
X181164301Y-54381700D01*
X181164299Y-54381700D01*
X181037394Y-54406943D01*
X181037384Y-54406946D01*
X180917845Y-54456460D01*
X180917843Y-54456461D01*
X180826939Y-54517202D01*
X180760261Y-54538080D01*
X180758048Y-54538100D01*
X179413952Y-54538100D01*
X179346913Y-54518415D01*
X179345061Y-54517202D01*
X179254156Y-54456461D01*
X179254154Y-54456460D01*
X179134615Y-54406946D01*
X179134605Y-54406943D01*
X179007701Y-54381700D01*
X179007699Y-54381700D01*
X178878301Y-54381700D01*
X178878299Y-54381700D01*
X178751394Y-54406943D01*
X178751384Y-54406946D01*
X178631845Y-54456460D01*
X178631843Y-54456461D01*
X178524243Y-54528357D01*
X178522370Y-54529895D01*
X178521197Y-54530392D01*
X178519186Y-54531737D01*
X178518930Y-54531355D01*
X178458058Y-54557202D01*
X178389192Y-54545404D01*
X178337636Y-54498246D01*
X178319715Y-54434013D01*
X178320002Y-52788422D01*
X183019500Y-52788422D01*
X183050290Y-52982826D01*
X183111117Y-53170029D01*
X183200476Y-53345405D01*
X183316172Y-53504646D01*
X183455354Y-53643828D01*
X183614595Y-53759524D01*
X183697455Y-53801743D01*
X183789970Y-53848882D01*
X183789972Y-53848882D01*
X183789975Y-53848884D01*
X183890317Y-53881487D01*
X183977173Y-53909709D01*
X184171578Y-53940500D01*
X184171583Y-53940500D01*
X184368422Y-53940500D01*
X184562826Y-53909709D01*
X184750025Y-53848884D01*
X184925405Y-53759524D01*
X185084646Y-53643828D01*
X185223828Y-53504646D01*
X185339524Y-53345405D01*
X185428884Y-53170025D01*
X185489709Y-52982826D01*
X185490147Y-52980061D01*
X185520500Y-52788422D01*
X185520500Y-52591577D01*
X185502480Y-52477802D01*
X185782835Y-52477802D01*
X185803030Y-52657048D01*
X185803031Y-52657053D01*
X185862611Y-52827322D01*
X185958584Y-52980061D01*
X186086138Y-53107615D01*
X186238878Y-53203588D01*
X186409145Y-53263167D01*
X186409150Y-53263168D01*
X186588396Y-53283364D01*
X186588400Y-53283364D01*
X186588404Y-53283364D01*
X186767649Y-53263168D01*
X186767652Y-53263167D01*
X186767655Y-53263167D01*
X186937922Y-53203588D01*
X187090662Y-53107615D01*
X187218216Y-52980061D01*
X187314189Y-52827321D01*
X187373768Y-52657054D01*
X187381145Y-52591583D01*
X187393965Y-52477802D01*
X187393965Y-52477795D01*
X187373769Y-52298549D01*
X187373768Y-52298544D01*
X187342776Y-52209975D01*
X187314189Y-52128277D01*
X187218216Y-51975537D01*
X187090662Y-51847983D01*
X187027612Y-51808366D01*
X186937923Y-51752010D01*
X186767654Y-51692430D01*
X186767649Y-51692429D01*
X186588404Y-51672234D01*
X186588396Y-51672234D01*
X186409150Y-51692429D01*
X186409145Y-51692430D01*
X186238876Y-51752010D01*
X186086137Y-51847983D01*
X185958584Y-51975536D01*
X185862611Y-52128275D01*
X185803031Y-52298544D01*
X185803030Y-52298549D01*
X185782835Y-52477795D01*
X185782835Y-52477802D01*
X185502480Y-52477802D01*
X185489709Y-52397173D01*
X185428882Y-52209970D01*
X185339523Y-52034594D01*
X185223828Y-51875354D01*
X185084646Y-51736172D01*
X184925405Y-51620476D01*
X184900947Y-51608014D01*
X184750029Y-51531117D01*
X184562826Y-51470290D01*
X184368422Y-51439500D01*
X184368417Y-51439500D01*
X184171583Y-51439500D01*
X184171578Y-51439500D01*
X183977173Y-51470290D01*
X183789970Y-51531117D01*
X183614594Y-51620476D01*
X183523741Y-51686485D01*
X183455354Y-51736172D01*
X183455352Y-51736174D01*
X183455351Y-51736174D01*
X183316174Y-51875351D01*
X183316174Y-51875352D01*
X183316172Y-51875354D01*
X183266485Y-51943741D01*
X183200476Y-52034594D01*
X183111117Y-52209970D01*
X183050290Y-52397173D01*
X183019500Y-52591577D01*
X183019500Y-52788422D01*
X178320002Y-52788422D01*
X178320173Y-51808357D01*
X178320188Y-51808133D01*
X178320187Y-51800114D01*
X178320189Y-51800110D01*
X178320187Y-51740287D01*
X178320780Y-51728174D01*
X178324289Y-51692431D01*
X178333687Y-51596676D01*
X178338399Y-51572911D01*
X178374863Y-51452285D01*
X178384107Y-51429886D01*
X178422323Y-51358115D01*
X178443341Y-51318640D01*
X178456763Y-51298472D01*
X178536495Y-51200878D01*
X178553585Y-51183701D01*
X178635818Y-51115822D01*
X178650779Y-51103472D01*
X178670873Y-51089953D01*
X178781826Y-51030151D01*
X178804158Y-51020803D01*
X178924620Y-50983721D01*
X178948350Y-50978892D01*
X179079169Y-50965384D01*
X179091885Y-50964728D01*
X195072000Y-50962412D01*
X195072000Y-64008000D01*
G37*
%TD.AperFunction*%
%TD*%
%TA.AperFunction,Conductor*%
%TO.N,+5V*%
G36*
X208290251Y-50961092D02*
G01*
X208421747Y-50974005D01*
X208445511Y-50978717D01*
X208494631Y-50993567D01*
X208566144Y-51015188D01*
X208588527Y-51024426D01*
X208699774Y-51083667D01*
X208719941Y-51097088D01*
X208817530Y-51176821D01*
X208834704Y-51193909D01*
X208914927Y-51291101D01*
X208928447Y-51311199D01*
X208988236Y-51422134D01*
X208997593Y-51444485D01*
X209034666Y-51564929D01*
X209039497Y-51588673D01*
X209053070Y-51720135D01*
X209053726Y-51732895D01*
X209050280Y-68906315D01*
X209030582Y-68973350D01*
X208977769Y-69019095D01*
X208908608Y-69029024D01*
X208845058Y-68999987D01*
X208807296Y-68941201D01*
X208802627Y-68915556D01*
X208795383Y-68818898D01*
X208795383Y-68818897D01*
X208735334Y-68555805D01*
X208636743Y-68304602D01*
X208501815Y-68070898D01*
X208333561Y-67859915D01*
X208333560Y-67859914D01*
X208333557Y-67859910D01*
X208135741Y-67676365D01*
X208074137Y-67634364D01*
X207912775Y-67524349D01*
X207912769Y-67524346D01*
X207912768Y-67524345D01*
X207912767Y-67524344D01*
X207669643Y-67407263D01*
X207669645Y-67407263D01*
X207411773Y-67327720D01*
X207411767Y-67327718D01*
X207144936Y-67287500D01*
X207144929Y-67287500D01*
X206875071Y-67287500D01*
X206875063Y-67287500D01*
X206608232Y-67327718D01*
X206608226Y-67327720D01*
X206350358Y-67407262D01*
X206107230Y-67524346D01*
X205884258Y-67676365D01*
X205686442Y-67859910D01*
X205518185Y-68070898D01*
X205383258Y-68304599D01*
X205383256Y-68304603D01*
X205284666Y-68555804D01*
X205284664Y-68555811D01*
X205224616Y-68818898D01*
X205204451Y-69087995D01*
X205204451Y-69088004D01*
X205224616Y-69357101D01*
X205284664Y-69620188D01*
X205284666Y-69620195D01*
X205383257Y-69871398D01*
X205518185Y-70105102D01*
X205649306Y-70269522D01*
X205686442Y-70316089D01*
X205873183Y-70489358D01*
X205884259Y-70499635D01*
X206107226Y-70651651D01*
X206350359Y-70768738D01*
X206608228Y-70848280D01*
X206608229Y-70848280D01*
X206608232Y-70848281D01*
X206754882Y-70870385D01*
X206818239Y-70899841D01*
X206855613Y-70958875D01*
X206855138Y-71028743D01*
X206816965Y-71087263D01*
X206754882Y-71115615D01*
X206608232Y-71137718D01*
X206608226Y-71137720D01*
X206350358Y-71217262D01*
X206107230Y-71334346D01*
X205884258Y-71486365D01*
X205686442Y-71669910D01*
X205518185Y-71880898D01*
X205383258Y-72114599D01*
X205383256Y-72114603D01*
X205284666Y-72365804D01*
X205284664Y-72365811D01*
X205224616Y-72628898D01*
X205204451Y-72897995D01*
X205204451Y-72898004D01*
X205224616Y-73167101D01*
X205284664Y-73430188D01*
X205284666Y-73430195D01*
X205369957Y-73647512D01*
X205383257Y-73681398D01*
X205518185Y-73915102D01*
X205570565Y-73980784D01*
X205686442Y-74126089D01*
X205819810Y-74249835D01*
X205884259Y-74309635D01*
X206107226Y-74461651D01*
X206350359Y-74578738D01*
X206608228Y-74658280D01*
X206608229Y-74658280D01*
X206608232Y-74658281D01*
X206875063Y-74698499D01*
X206875068Y-74698499D01*
X206875071Y-74698500D01*
X206875072Y-74698500D01*
X207144928Y-74698500D01*
X207144929Y-74698500D01*
X207144936Y-74698499D01*
X207411767Y-74658281D01*
X207411768Y-74658280D01*
X207411772Y-74658280D01*
X207669641Y-74578738D01*
X207912775Y-74461651D01*
X208135741Y-74309635D01*
X208333561Y-74126085D01*
X208501815Y-73915102D01*
X208636743Y-73681398D01*
X208735334Y-73430195D01*
X208795383Y-73167103D01*
X208797094Y-73144264D01*
X208801787Y-73081651D01*
X208826426Y-73016270D01*
X208882501Y-72974589D01*
X208952209Y-72969841D01*
X209013418Y-73003534D01*
X209046695Y-73064970D01*
X209049440Y-73090942D01*
X209049233Y-74120481D01*
X209049219Y-74120697D01*
X209049219Y-74188150D01*
X209048625Y-74200267D01*
X209035713Y-74331748D01*
X209031001Y-74355514D01*
X208994531Y-74476143D01*
X208985286Y-74498540D01*
X208926052Y-74609777D01*
X208912629Y-74629949D01*
X208832899Y-74727536D01*
X208815808Y-74744713D01*
X208718616Y-74824937D01*
X208698514Y-74838460D01*
X208672250Y-74852616D01*
X208587580Y-74898250D01*
X208565230Y-74907606D01*
X208444786Y-74944682D01*
X208421041Y-74949514D01*
X208289758Y-74963070D01*
X208277003Y-74963726D01*
X196084981Y-74961844D01*
X196017944Y-74942149D01*
X195972198Y-74889338D01*
X195961000Y-74837844D01*
X195961000Y-73973670D01*
X199309500Y-73973670D01*
X199309501Y-73973676D01*
X199315908Y-74033283D01*
X199366202Y-74168128D01*
X199366206Y-74168135D01*
X199452452Y-74283344D01*
X199452455Y-74283347D01*
X199567664Y-74369593D01*
X199567671Y-74369597D01*
X199702517Y-74419891D01*
X199702516Y-74419891D01*
X199709444Y-74420635D01*
X199762127Y-74426300D01*
X201557872Y-74426299D01*
X201617483Y-74419891D01*
X201752331Y-74369596D01*
X201867546Y-74283346D01*
X201953796Y-74168131D01*
X202002810Y-74036716D01*
X202044681Y-73980784D01*
X202110145Y-73956366D01*
X202178418Y-73971217D01*
X202206673Y-73992369D01*
X202328599Y-74114295D01*
X202423118Y-74180478D01*
X202522165Y-74249832D01*
X202522167Y-74249833D01*
X202522170Y-74249835D01*
X202736337Y-74349703D01*
X202736343Y-74349704D01*
X202736344Y-74349705D01*
X202758024Y-74355514D01*
X202964592Y-74410863D01*
X203141034Y-74426300D01*
X203199999Y-74431459D01*
X203200000Y-74431459D01*
X203200001Y-74431459D01*
X203258966Y-74426300D01*
X203435408Y-74410863D01*
X203663663Y-74349703D01*
X203877830Y-74249835D01*
X204071401Y-74114295D01*
X204238495Y-73947201D01*
X204374035Y-73753630D01*
X204473903Y-73539463D01*
X204535063Y-73311208D01*
X204555659Y-73075800D01*
X204554711Y-73064970D01*
X204546804Y-72974589D01*
X204535063Y-72840392D01*
X204473903Y-72612137D01*
X204374035Y-72397971D01*
X204370555Y-72393000D01*
X204238494Y-72204397D01*
X204071402Y-72037306D01*
X204071395Y-72037301D01*
X203877834Y-71901767D01*
X203877830Y-71901765D01*
X203687643Y-71813079D01*
X203635204Y-71766907D01*
X203616052Y-71699713D01*
X203632662Y-71638695D01*
X203646179Y-71615284D01*
X203704674Y-71435256D01*
X203724460Y-71247000D01*
X203704674Y-71058744D01*
X203646179Y-70878716D01*
X203551533Y-70714784D01*
X203424871Y-70574112D01*
X203424870Y-70574111D01*
X203271734Y-70462851D01*
X203271729Y-70462848D01*
X203098807Y-70385857D01*
X203098802Y-70385855D01*
X202953001Y-70354865D01*
X202913646Y-70346500D01*
X202724354Y-70346500D01*
X202691897Y-70353398D01*
X202539197Y-70385855D01*
X202539192Y-70385857D01*
X202366270Y-70462848D01*
X202294538Y-70514964D01*
X202228731Y-70538443D01*
X202160677Y-70522617D01*
X202148768Y-70514962D01*
X202122734Y-70496047D01*
X202122728Y-70496043D01*
X201949806Y-70419052D01*
X201949801Y-70419050D01*
X201793626Y-70385855D01*
X201764645Y-70379695D01*
X201575353Y-70379695D01*
X201546372Y-70385855D01*
X201390196Y-70419050D01*
X201390191Y-70419052D01*
X201217269Y-70496043D01*
X201217264Y-70496046D01*
X201064128Y-70607306D01*
X200937465Y-70747980D01*
X200842820Y-70911910D01*
X200842817Y-70911917D01*
X200786203Y-71086159D01*
X200784325Y-71091939D01*
X200764539Y-71280195D01*
X200784325Y-71468451D01*
X200784326Y-71468454D01*
X200815040Y-71562982D01*
X200817035Y-71632823D01*
X200780955Y-71692656D01*
X200718254Y-71723484D01*
X200697109Y-71725300D01*
X199762129Y-71725300D01*
X199762123Y-71725301D01*
X199702516Y-71731708D01*
X199567671Y-71782002D01*
X199567664Y-71782006D01*
X199452455Y-71868252D01*
X199452452Y-71868255D01*
X199366206Y-71983464D01*
X199366202Y-71983471D01*
X199315908Y-72118317D01*
X199309501Y-72177916D01*
X199309500Y-72177935D01*
X199309500Y-73973670D01*
X195961000Y-73973670D01*
X195961000Y-73710367D01*
X195980685Y-73643328D01*
X196033489Y-73597573D01*
X196034384Y-73597168D01*
X196071549Y-73580622D01*
X196224690Y-73469359D01*
X196351352Y-73328687D01*
X196445998Y-73164755D01*
X196504493Y-72984727D01*
X196524279Y-72796471D01*
X196504493Y-72608215D01*
X196445998Y-72428187D01*
X196351352Y-72264255D01*
X196224690Y-72123583D01*
X196212325Y-72114599D01*
X196071553Y-72012322D01*
X196071548Y-72012319D01*
X195898626Y-71935328D01*
X195898621Y-71935326D01*
X195740724Y-71901765D01*
X195713465Y-71895971D01*
X195524173Y-71895971D01*
X195496914Y-71901765D01*
X195339016Y-71935326D01*
X195339011Y-71935328D01*
X195166089Y-72012319D01*
X195166084Y-72012322D01*
X195012948Y-72123582D01*
X194886285Y-72264256D01*
X194791640Y-72428186D01*
X194791637Y-72428192D01*
X194790621Y-72431322D01*
X194789541Y-72432900D01*
X194788994Y-72434130D01*
X194788769Y-72434029D01*
X194751181Y-72488996D01*
X194686822Y-72516192D01*
X194672691Y-72517000D01*
X193309545Y-72517000D01*
X193242506Y-72497315D01*
X193217395Y-72475972D01*
X193189067Y-72444511D01*
X193105871Y-72352112D01*
X193105870Y-72352111D01*
X192952734Y-72240851D01*
X192952729Y-72240848D01*
X192779807Y-72163857D01*
X192779802Y-72163855D01*
X192634001Y-72132865D01*
X192594646Y-72124500D01*
X192405354Y-72124500D01*
X192372897Y-72131398D01*
X192220197Y-72163855D01*
X192220192Y-72163857D01*
X192047270Y-72240848D01*
X192047265Y-72240851D01*
X191894129Y-72352111D01*
X191782605Y-72475972D01*
X191723118Y-72512621D01*
X191690455Y-72517000D01*
X190624000Y-72517000D01*
X190556961Y-72497315D01*
X190511206Y-72444511D01*
X190500000Y-72393000D01*
X190500000Y-70747584D01*
X190519685Y-70680545D01*
X190572489Y-70634790D01*
X190641647Y-70624846D01*
X190664955Y-70630543D01*
X190823337Y-70685964D01*
X190823343Y-70685965D01*
X190823345Y-70685966D01*
X190823346Y-70685966D01*
X190823350Y-70685967D01*
X191002596Y-70706163D01*
X191002600Y-70706163D01*
X191002604Y-70706163D01*
X191181849Y-70685967D01*
X191181850Y-70685966D01*
X191181855Y-70685966D01*
X191272621Y-70654204D01*
X191342397Y-70650642D01*
X191354529Y-70654205D01*
X191500737Y-70705366D01*
X191500743Y-70705367D01*
X191500745Y-70705368D01*
X191500746Y-70705368D01*
X191500750Y-70705369D01*
X191679996Y-70725565D01*
X191680000Y-70725565D01*
X191680004Y-70725565D01*
X191859249Y-70705369D01*
X191859252Y-70705368D01*
X191859255Y-70705368D01*
X192029522Y-70645789D01*
X192182262Y-70549816D01*
X192309816Y-70422262D01*
X192405789Y-70269522D01*
X192465368Y-70099255D01*
X192485565Y-69920000D01*
X192480089Y-69871400D01*
X192465369Y-69740750D01*
X192465368Y-69740745D01*
X192450556Y-69698414D01*
X192405789Y-69570478D01*
X192309816Y-69417738D01*
X192182262Y-69290184D01*
X192029523Y-69194211D01*
X191859254Y-69134631D01*
X191859249Y-69134630D01*
X191680004Y-69114435D01*
X191679996Y-69114435D01*
X191500746Y-69134631D01*
X191500745Y-69134631D01*
X191409976Y-69166392D01*
X191340198Y-69169953D01*
X191328068Y-69166392D01*
X191181854Y-69115229D01*
X191181849Y-69115228D01*
X191002604Y-69095033D01*
X191002596Y-69095033D01*
X190823350Y-69115228D01*
X190823345Y-69115229D01*
X190664955Y-69170653D01*
X190595176Y-69174214D01*
X190534548Y-69139485D01*
X190502321Y-69077492D01*
X190500000Y-69053611D01*
X190500000Y-68704000D01*
X190519685Y-68636961D01*
X190572489Y-68591206D01*
X190624000Y-68580000D01*
X194518915Y-68580000D01*
X194585954Y-68599685D01*
X194631709Y-68652489D01*
X194641653Y-68721647D01*
X194635957Y-68744955D01*
X194585432Y-68889344D01*
X194585431Y-68889349D01*
X194565236Y-69068595D01*
X194565236Y-69068602D01*
X194585431Y-69247848D01*
X194585432Y-69247853D01*
X194645012Y-69418122D01*
X194696634Y-69500277D01*
X194740985Y-69570861D01*
X194868539Y-69698415D01*
X195021279Y-69794388D01*
X195179635Y-69849799D01*
X195191546Y-69853967D01*
X195191551Y-69853968D01*
X195370797Y-69874164D01*
X195370801Y-69874164D01*
X195370805Y-69874164D01*
X195550050Y-69853968D01*
X195550053Y-69853967D01*
X195550056Y-69853967D01*
X195720323Y-69794388D01*
X195873063Y-69698415D01*
X196000617Y-69570861D01*
X196096590Y-69418121D01*
X196156169Y-69247854D01*
X196156170Y-69247848D01*
X196176366Y-69068602D01*
X196176366Y-69068595D01*
X196156170Y-68889349D01*
X196156169Y-68889344D01*
X196131519Y-68818898D01*
X196096590Y-68719077D01*
X196087116Y-68704000D01*
X196000616Y-68566336D01*
X195873063Y-68438783D01*
X195720325Y-68342811D01*
X195720324Y-68342810D01*
X195663044Y-68322767D01*
X195606269Y-68282045D01*
X195580522Y-68217092D01*
X195580000Y-68205726D01*
X195580000Y-66920000D01*
X197594540Y-66920000D01*
X197614326Y-67108256D01*
X197614327Y-67108259D01*
X197672818Y-67288277D01*
X197672821Y-67288284D01*
X197767466Y-67452215D01*
X197771285Y-67457471D01*
X197769369Y-67458862D01*
X197794939Y-67512152D01*
X197790489Y-67570441D01*
X197754327Y-67681738D01*
X197754327Y-67681740D01*
X197754326Y-67681744D01*
X197734540Y-67870000D01*
X197754326Y-68058256D01*
X197754327Y-68058259D01*
X197812818Y-68238277D01*
X197812821Y-68238284D01*
X197907467Y-68402216D01*
X198034129Y-68542888D01*
X198187265Y-68654148D01*
X198187270Y-68654151D01*
X198360192Y-68731142D01*
X198360197Y-68731144D01*
X198545354Y-68770500D01*
X198545355Y-68770500D01*
X198734644Y-68770500D01*
X198734646Y-68770500D01*
X198919803Y-68731144D01*
X199092730Y-68654151D01*
X199245871Y-68542888D01*
X199372533Y-68402216D01*
X199467179Y-68238284D01*
X199525674Y-68058256D01*
X199545460Y-67870000D01*
X199525674Y-67681744D01*
X199467179Y-67501716D01*
X199372533Y-67337784D01*
X199368715Y-67332529D01*
X199370630Y-67331137D01*
X199345060Y-67277854D01*
X199348832Y-67228422D01*
X200289500Y-67228422D01*
X200320290Y-67422826D01*
X200381117Y-67610029D01*
X200417655Y-67681738D01*
X200470476Y-67785405D01*
X200586172Y-67944646D01*
X200725354Y-68083828D01*
X200884595Y-68199524D01*
X200960653Y-68238277D01*
X201059970Y-68288882D01*
X201059972Y-68288882D01*
X201059975Y-68288884D01*
X201108341Y-68304599D01*
X201247173Y-68349709D01*
X201441578Y-68380500D01*
X201441583Y-68380500D01*
X201638422Y-68380500D01*
X201832826Y-68349709D01*
X202020025Y-68288884D01*
X202195405Y-68199524D01*
X202354646Y-68083828D01*
X202493828Y-67944646D01*
X202609524Y-67785405D01*
X202698884Y-67610025D01*
X202759709Y-67422826D01*
X202762174Y-67407262D01*
X202790500Y-67228422D01*
X202790500Y-67031577D01*
X202759709Y-66837173D01*
X202731487Y-66750317D01*
X202698884Y-66649975D01*
X202698882Y-66649972D01*
X202698882Y-66649970D01*
X202634511Y-66523636D01*
X202609524Y-66474595D01*
X202493828Y-66315354D01*
X202354646Y-66176172D01*
X202195405Y-66060476D01*
X202161952Y-66043431D01*
X202020029Y-65971117D01*
X201832826Y-65910290D01*
X201638422Y-65879500D01*
X201638417Y-65879500D01*
X201441583Y-65879500D01*
X201441578Y-65879500D01*
X201247173Y-65910290D01*
X201059970Y-65971117D01*
X200884594Y-66060476D01*
X200826052Y-66103010D01*
X200725354Y-66176172D01*
X200725352Y-66176174D01*
X200725351Y-66176174D01*
X200586174Y-66315351D01*
X200586174Y-66315352D01*
X200586172Y-66315354D01*
X200536485Y-66383741D01*
X200470476Y-66474594D01*
X200381117Y-66649970D01*
X200320290Y-66837173D01*
X200289500Y-67031577D01*
X200289500Y-67228422D01*
X199348832Y-67228422D01*
X199349508Y-67219558D01*
X199385674Y-67108256D01*
X199405460Y-66920000D01*
X199385674Y-66731744D01*
X199327179Y-66551716D01*
X199232533Y-66387784D01*
X199105871Y-66247112D01*
X199104579Y-66246173D01*
X198952734Y-66135851D01*
X198952729Y-66135848D01*
X198779807Y-66058857D01*
X198779802Y-66058855D01*
X198612213Y-66023234D01*
X198594646Y-66019500D01*
X198405354Y-66019500D01*
X198387787Y-66023234D01*
X198220197Y-66058855D01*
X198220192Y-66058857D01*
X198047270Y-66135848D01*
X198047265Y-66135851D01*
X197894129Y-66247111D01*
X197767466Y-66387785D01*
X197672821Y-66551715D01*
X197672818Y-66551722D01*
X197632316Y-66676376D01*
X197614326Y-66731744D01*
X197594540Y-66920000D01*
X195580000Y-66920000D01*
X195580000Y-64132000D01*
X195599685Y-64064961D01*
X195652489Y-64019206D01*
X195704000Y-64008000D01*
X199664560Y-64008000D01*
X199731599Y-64027685D01*
X199752241Y-64044319D01*
X199847738Y-64139816D01*
X200000478Y-64235789D01*
X200109942Y-64274092D01*
X200170745Y-64295368D01*
X200170750Y-64295369D01*
X200349996Y-64315565D01*
X200350000Y-64315565D01*
X200350004Y-64315565D01*
X200529249Y-64295369D01*
X200529252Y-64295368D01*
X200529255Y-64295368D01*
X200699522Y-64235789D01*
X200852262Y-64139816D01*
X200979816Y-64012262D01*
X201075789Y-63859522D01*
X201135368Y-63689255D01*
X201135369Y-63689249D01*
X201155565Y-63510003D01*
X201155565Y-63509996D01*
X201135369Y-63330750D01*
X201135368Y-63330745D01*
X201075788Y-63160476D01*
X200993857Y-63030084D01*
X200979816Y-63007738D01*
X200852262Y-62880184D01*
X200718028Y-62795839D01*
X200671737Y-62743504D01*
X200660000Y-62690845D01*
X200660000Y-62661800D01*
X202878740Y-62661800D01*
X202898526Y-62850056D01*
X202898527Y-62850059D01*
X202957018Y-63030077D01*
X202957021Y-63030084D01*
X203051667Y-63194016D01*
X203142372Y-63294754D01*
X203178329Y-63334688D01*
X203331465Y-63445948D01*
X203331470Y-63445951D01*
X203504392Y-63522942D01*
X203504397Y-63522944D01*
X203689554Y-63562300D01*
X203689555Y-63562300D01*
X203878844Y-63562300D01*
X203878846Y-63562300D01*
X204064003Y-63522944D01*
X204236930Y-63445951D01*
X204390071Y-63334688D01*
X204516733Y-63194016D01*
X204611379Y-63030084D01*
X204669874Y-62850056D01*
X204689660Y-62661800D01*
X204669874Y-62473544D01*
X204611379Y-62293516D01*
X204516733Y-62129584D01*
X204390071Y-61988912D01*
X204383601Y-61984211D01*
X204236934Y-61877651D01*
X204236929Y-61877648D01*
X204064007Y-61800657D01*
X204064002Y-61800655D01*
X203918201Y-61769665D01*
X203878846Y-61761300D01*
X203689554Y-61761300D01*
X203657097Y-61768198D01*
X203504397Y-61800655D01*
X203504392Y-61800657D01*
X203331470Y-61877648D01*
X203331465Y-61877651D01*
X203178329Y-61988911D01*
X203051666Y-62129585D01*
X202957021Y-62293515D01*
X202957018Y-62293522D01*
X202898527Y-62473540D01*
X202898526Y-62473544D01*
X202878740Y-62661800D01*
X200660000Y-62661800D01*
X200660000Y-60027226D01*
X200679685Y-59960187D01*
X200732489Y-59914432D01*
X200797884Y-59904006D01*
X200863197Y-59911365D01*
X200863200Y-59911365D01*
X200863204Y-59911365D01*
X201042449Y-59891169D01*
X201042452Y-59891168D01*
X201042455Y-59891168D01*
X201212722Y-59831589D01*
X201365462Y-59735616D01*
X201493016Y-59608062D01*
X201588989Y-59455322D01*
X201600791Y-59421594D01*
X201641512Y-59364817D01*
X201706464Y-59339069D01*
X201775026Y-59352524D01*
X201822826Y-59396574D01*
X201888982Y-59501860D01*
X201888984Y-59501862D01*
X202016538Y-59629416D01*
X202169278Y-59725389D01*
X202339545Y-59784968D01*
X202339550Y-59784969D01*
X202518796Y-59805165D01*
X202518800Y-59805165D01*
X202518804Y-59805165D01*
X202698049Y-59784969D01*
X202698052Y-59784968D01*
X202698055Y-59784968D01*
X202868322Y-59725389D01*
X203021062Y-59629416D01*
X203148616Y-59501862D01*
X203244589Y-59349122D01*
X203304168Y-59178855D01*
X203304169Y-59178849D01*
X203324365Y-58999603D01*
X203324365Y-58999596D01*
X203304169Y-58820350D01*
X203304168Y-58820345D01*
X203281750Y-58756278D01*
X203244589Y-58650078D01*
X203148616Y-58497338D01*
X203021062Y-58369784D01*
X202942519Y-58320432D01*
X202868323Y-58273811D01*
X202698054Y-58214231D01*
X202698049Y-58214230D01*
X202518804Y-58194035D01*
X202518796Y-58194035D01*
X202339550Y-58214230D01*
X202339545Y-58214231D01*
X202169276Y-58273811D01*
X202016537Y-58369784D01*
X201888984Y-58497337D01*
X201793009Y-58650079D01*
X201781207Y-58683808D01*
X201740484Y-58740584D01*
X201675531Y-58766330D01*
X201606970Y-58752873D01*
X201559173Y-58708824D01*
X201493020Y-58603543D01*
X201493015Y-58603537D01*
X201365462Y-58475984D01*
X201212723Y-58380011D01*
X201042454Y-58320431D01*
X201042449Y-58320430D01*
X200863204Y-58300235D01*
X200863203Y-58300235D01*
X200863201Y-58300235D01*
X200863200Y-58300235D01*
X200836938Y-58303193D01*
X200797882Y-58307594D01*
X200729060Y-58295538D01*
X200677681Y-58248188D01*
X200660000Y-58184373D01*
X200660000Y-56631763D01*
X200679685Y-56564724D01*
X200732489Y-56518969D01*
X200743045Y-56514721D01*
X200748055Y-56512968D01*
X200918322Y-56453389D01*
X201071062Y-56357416D01*
X201149019Y-56279459D01*
X201210342Y-56245974D01*
X201280034Y-56250958D01*
X201324381Y-56279459D01*
X201402338Y-56357416D01*
X201555078Y-56453389D01*
X201613079Y-56473684D01*
X201669855Y-56514406D01*
X201695345Y-56576842D01*
X201704630Y-56659249D01*
X201764210Y-56829521D01*
X201860184Y-56982262D01*
X201987738Y-57109816D01*
X202140478Y-57205789D01*
X202310745Y-57265368D01*
X202310750Y-57265369D01*
X202489996Y-57285565D01*
X202490000Y-57285565D01*
X202490004Y-57285565D01*
X202669249Y-57265369D01*
X202669252Y-57265368D01*
X202669255Y-57265368D01*
X202839522Y-57205789D01*
X202992262Y-57109816D01*
X203119816Y-56982262D01*
X203215789Y-56829522D01*
X203275368Y-56659255D01*
X203277159Y-56643350D01*
X203304223Y-56578938D01*
X203359426Y-56540189D01*
X203376070Y-56534365D01*
X203518322Y-56484589D01*
X203671062Y-56388616D01*
X203746119Y-56313559D01*
X203807442Y-56280074D01*
X203877134Y-56285058D01*
X203921481Y-56313559D01*
X203966538Y-56358616D01*
X204014281Y-56388615D01*
X204117366Y-56453388D01*
X204119278Y-56454589D01*
X204247392Y-56499418D01*
X204289545Y-56514168D01*
X204289550Y-56514169D01*
X204468796Y-56534365D01*
X204468800Y-56534365D01*
X204468804Y-56534365D01*
X204648049Y-56514169D01*
X204648052Y-56514168D01*
X204648055Y-56514168D01*
X204818322Y-56454589D01*
X204971062Y-56358616D01*
X205098616Y-56231062D01*
X205194589Y-56078322D01*
X205254168Y-55908055D01*
X205254169Y-55908049D01*
X205274365Y-55728803D01*
X205274365Y-55728796D01*
X205254169Y-55549550D01*
X205254165Y-55549535D01*
X205249763Y-55536952D01*
X205246202Y-55467173D01*
X205280932Y-55406547D01*
X205342926Y-55374321D01*
X205366805Y-55372000D01*
X206121000Y-55372000D01*
X206121000Y-53884938D01*
X206140685Y-53817899D01*
X206140834Y-53817699D01*
X206145564Y-53810338D01*
X206145567Y-53810336D01*
X206205338Y-53679459D01*
X206225023Y-53612420D01*
X206225024Y-53612416D01*
X206245500Y-53470000D01*
X206245500Y-51084885D01*
X206245500Y-51084776D01*
X206265185Y-51017737D01*
X206317989Y-50971982D01*
X206369478Y-50960776D01*
X208278134Y-50960499D01*
X208290251Y-50961092D01*
G37*
%TD.AperFunction*%
%TD*%
M02*
