%TF.GenerationSoftware,KiCad,Pcbnew,8.0.0*%
%TF.CreationDate,2024-03-08T14:11:46-06:00*%
%TF.ProjectId,led_dog_collar,6c65645f-646f-4675-9f63-6f6c6c61722e,rev?*%
%TF.SameCoordinates,Original*%
%TF.FileFunction,Copper,L4,Bot*%
%TF.FilePolarity,Positive*%
%FSLAX46Y46*%
G04 Gerber Fmt 4.6, Leading zero omitted, Abs format (unit mm)*
G04 Created by KiCad (PCBNEW 8.0.0) date 2024-03-08 14:11:46*
%MOMM*%
%LPD*%
G01*
G04 APERTURE LIST*
%TA.AperFunction,ComponentPad*%
%ADD10R,1.700000X1.700000*%
%TD*%
%TA.AperFunction,ComponentPad*%
%ADD11O,1.700000X1.700000*%
%TD*%
%TA.AperFunction,ComponentPad*%
%ADD12C,2.600000*%
%TD*%
%TA.AperFunction,ComponentPad*%
%ADD13C,1.397000*%
%TD*%
%TA.AperFunction,ViaPad*%
%ADD14C,0.600000*%
%TD*%
%TA.AperFunction,ViaPad*%
%ADD15C,0.800000*%
%TD*%
%TA.AperFunction,Conductor*%
%ADD16C,0.250000*%
%TD*%
%TA.AperFunction,Conductor*%
%ADD17C,0.500000*%
%TD*%
G04 APERTURE END LIST*
D10*
%TO.P,J1,1,Pin_1*%
%TO.N,VBAT*%
X200660000Y-73075800D03*
D11*
%TO.P,J1,2,Pin_2*%
%TO.N,GND*%
X203200000Y-73075800D03*
%TD*%
D12*
%TO.P,J2,1,Pin_1*%
%TO.N,+5V*%
X207010000Y-65278000D03*
%TD*%
%TO.P,J4,1,Pin_1*%
%TO.N,TIM1_CH1_SHIFT*%
X207010000Y-69088000D03*
%TD*%
%TO.P,J5,1,Pin_1*%
%TO.N,GND*%
X207010000Y-72898000D03*
%TD*%
D10*
%TO.P,J3,1,Pin_1*%
%TO.N,GND*%
X179857400Y-73152000D03*
D11*
%TO.P,J3,2,Pin_2*%
%TO.N,NRST*%
X179857400Y-70612000D03*
%TO.P,J3,3,Pin_3*%
%TO.N,unconnected-(J3-Pin_3-Pad3)*%
X182397400Y-73152000D03*
%TO.P,J3,4,Pin_4*%
%TO.N,unconnected-(J3-Pin_4-Pad4)*%
X182397400Y-70612000D03*
%TO.P,J3,5,Pin_5*%
%TO.N,unconnected-(J3-Pin_5-Pad5)*%
X184937399Y-73152000D03*
%TO.P,J3,6,Pin_6*%
%TO.N,/SWCLK*%
X184937400Y-70612000D03*
%TO.P,J3,7,Pin_7*%
%TO.N,/SWDIO*%
X187477400Y-73152000D03*
%TO.P,J3,8,Pin_8*%
%TO.N,+3V3*%
X187477400Y-70612000D03*
%TD*%
D13*
%TO.P,SW2,1,1*%
%TO.N,VBAT*%
X180086000Y-58288601D03*
%TO.P,SW2,2,2*%
%TO.N,unconnected-(SW2-Pad2)*%
X180086000Y-61288600D03*
%TO.P,SW2,3,3*%
%TO.N,VBAT_EN*%
X180086000Y-64288599D03*
%TD*%
D14*
%TO.N,GND*%
X183920000Y-65220000D03*
X196550000Y-62710000D03*
X191500000Y-55370000D03*
X202518800Y-58999600D03*
X200568800Y-55727600D03*
X190119702Y-69849799D03*
D15*
X198500000Y-66920000D03*
D14*
X189123000Y-68224199D03*
X186588400Y-52477799D03*
X191680000Y-69920000D03*
X201904600Y-55727600D03*
X191002600Y-69900598D03*
X200350000Y-63510000D03*
D15*
X192500000Y-73025000D03*
X202252100Y-72127900D03*
X202819000Y-71247000D03*
D14*
X185035400Y-62387399D03*
X204468800Y-55728800D03*
X193624600Y-66174114D03*
D15*
X198640000Y-67870000D03*
D14*
X195370801Y-69068599D03*
D15*
X201669999Y-71280195D03*
D14*
X200047500Y-54012500D03*
X187594665Y-63999061D03*
X192277702Y-66828799D03*
X200863200Y-59105800D03*
D15*
X183550000Y-56440000D03*
D14*
X203168800Y-55758800D03*
D15*
X203784200Y-62661800D03*
%TO.N,+3V3*%
X193930702Y-62583993D03*
D14*
X199825000Y-55005000D03*
X188290000Y-65720000D03*
X184986600Y-63347399D03*
X197559594Y-63160294D03*
X186669800Y-53437799D03*
X194790431Y-63644276D03*
X186437999Y-69330000D03*
X204720000Y-53130000D03*
X189505000Y-71655000D03*
D15*
X194716400Y-74320400D03*
D14*
%TO.N,NRST*%
X189615662Y-63659777D03*
X184280000Y-67020000D03*
%TO.N,/LVL_EN*%
X202490000Y-56480000D03*
X201318800Y-52970000D03*
%TO.N,/LVL_DIR*%
X198195000Y-53450168D03*
X203718800Y-53280000D03*
%TO.N,VBAT_EN*%
X190300000Y-74530000D03*
D15*
X195618819Y-72796471D03*
%TO.N,+5V*%
X194979666Y-71526400D03*
X196118799Y-69593155D03*
X190760000Y-71590000D03*
X196799200Y-66497200D03*
X205375000Y-63655000D03*
%TO.N,VBAT*%
X185610000Y-66200000D03*
%TD*%
D16*
%TO.N,NRST*%
X184280000Y-66429842D02*
X184280000Y-67020000D01*
X189329946Y-63374061D02*
X187335781Y-63374061D01*
X189615662Y-63659777D02*
X189329946Y-63374061D01*
X187335781Y-63374061D02*
X184280000Y-66429842D01*
%TO.N,/LVL_EN*%
X202543800Y-54195000D02*
X201318800Y-52970000D01*
X202543800Y-56426200D02*
X202543800Y-54195000D01*
X202490000Y-56480000D02*
X202543800Y-56426200D01*
%TO.N,/LVL_DIR*%
X199300168Y-52345000D02*
X198195000Y-53450168D01*
X201577684Y-52345000D02*
X199300168Y-52345000D01*
X202512684Y-53280000D02*
X201577684Y-52345000D01*
X203718800Y-53280000D02*
X202512684Y-53280000D01*
%TO.N,VBAT_EN*%
X190300000Y-74530000D02*
X193481495Y-74530000D01*
X193481495Y-74530000D02*
X195215024Y-72796471D01*
X195215024Y-72796471D02*
X195618819Y-72796471D01*
D17*
%TO.N,VBAT*%
X198254941Y-73075800D02*
X200660000Y-73075800D01*
X194278940Y-69099799D02*
X198254941Y-73075800D01*
X185610000Y-66200000D02*
X188509799Y-69099799D01*
X188509799Y-69099799D02*
X194278940Y-69099799D01*
%TD*%
M02*
