%TF.GenerationSoftware,KiCad,Pcbnew,8.0.0*%
%TF.CreationDate,2024-03-08T14:11:46-06:00*%
%TF.ProjectId,led_dog_collar,6c65645f-646f-4675-9f63-6f6c6c61722e,rev?*%
%TF.SameCoordinates,Original*%
%TF.FileFunction,Copper,L1,Top*%
%TF.FilePolarity,Positive*%
%FSLAX46Y46*%
G04 Gerber Fmt 4.6, Leading zero omitted, Abs format (unit mm)*
G04 Created by KiCad (PCBNEW 8.0.0) date 2024-03-08 14:11:46*
%MOMM*%
%LPD*%
G01*
G04 APERTURE LIST*
G04 Aperture macros list*
%AMRoundRect*
0 Rectangle with rounded corners*
0 $1 Rounding radius*
0 $2 $3 $4 $5 $6 $7 $8 $9 X,Y pos of 4 corners*
0 Add a 4 corners polygon primitive as box body*
4,1,4,$2,$3,$4,$5,$6,$7,$8,$9,$2,$3,0*
0 Add four circle primitives for the rounded corners*
1,1,$1+$1,$2,$3*
1,1,$1+$1,$4,$5*
1,1,$1+$1,$6,$7*
1,1,$1+$1,$8,$9*
0 Add four rect primitives between the rounded corners*
20,1,$1+$1,$2,$3,$4,$5,0*
20,1,$1+$1,$4,$5,$6,$7,0*
20,1,$1+$1,$6,$7,$8,$9,0*
20,1,$1+$1,$8,$9,$2,$3,0*%
G04 Aperture macros list end*
%TA.AperFunction,SMDPad,CuDef*%
%ADD10RoundRect,0.140000X0.170000X-0.140000X0.170000X0.140000X-0.170000X0.140000X-0.170000X-0.140000X0*%
%TD*%
%TA.AperFunction,ComponentPad*%
%ADD11R,1.700000X1.700000*%
%TD*%
%TA.AperFunction,ComponentPad*%
%ADD12O,1.700000X1.700000*%
%TD*%
%TA.AperFunction,SMDPad,CuDef*%
%ADD13RoundRect,0.140000X-0.140000X-0.170000X0.140000X-0.170000X0.140000X0.170000X-0.140000X0.170000X0*%
%TD*%
%TA.AperFunction,SMDPad,CuDef*%
%ADD14RoundRect,0.140000X0.140000X0.170000X-0.140000X0.170000X-0.140000X-0.170000X0.140000X-0.170000X0*%
%TD*%
%TA.AperFunction,ComponentPad*%
%ADD15C,2.600000*%
%TD*%
%TA.AperFunction,SMDPad,CuDef*%
%ADD16RoundRect,0.140000X-0.170000X0.140000X-0.170000X-0.140000X0.170000X-0.140000X0.170000X0.140000X0*%
%TD*%
%TA.AperFunction,SMDPad,CuDef*%
%ADD17RoundRect,0.135000X-0.185000X0.135000X-0.185000X-0.135000X0.185000X-0.135000X0.185000X0.135000X0*%
%TD*%
%TA.AperFunction,SMDPad,CuDef*%
%ADD18RoundRect,0.135000X-0.135000X-0.185000X0.135000X-0.185000X0.135000X0.185000X-0.135000X0.185000X0*%
%TD*%
%TA.AperFunction,SMDPad,CuDef*%
%ADD19RoundRect,0.075000X0.075000X-0.700000X0.075000X0.700000X-0.075000X0.700000X-0.075000X-0.700000X0*%
%TD*%
%TA.AperFunction,SMDPad,CuDef*%
%ADD20RoundRect,0.075000X0.700000X-0.075000X0.700000X0.075000X-0.700000X0.075000X-0.700000X-0.075000X0*%
%TD*%
%TA.AperFunction,SMDPad,CuDef*%
%ADD21RoundRect,0.135000X0.135000X0.185000X-0.135000X0.185000X-0.135000X-0.185000X0.135000X-0.185000X0*%
%TD*%
%TA.AperFunction,SMDPad,CuDef*%
%ADD22RoundRect,0.135000X0.185000X-0.135000X0.185000X0.135000X-0.185000X0.135000X-0.185000X-0.135000X0*%
%TD*%
%TA.AperFunction,SMDPad,CuDef*%
%ADD23R,1.200000X1.000000*%
%TD*%
%TA.AperFunction,SMDPad,CuDef*%
%ADD24R,0.575000X1.140000*%
%TD*%
%TA.AperFunction,SMDPad,CuDef*%
%ADD25RoundRect,0.150000X-0.150000X0.512500X-0.150000X-0.512500X0.150000X-0.512500X0.150000X0.512500X0*%
%TD*%
%TA.AperFunction,ComponentPad*%
%ADD26C,1.397000*%
%TD*%
%TA.AperFunction,SMDPad,CuDef*%
%ADD27O,3.606800X1.320800*%
%TD*%
%TA.AperFunction,SMDPad,CuDef*%
%ADD28R,0.350000X0.650000*%
%TD*%
%TA.AperFunction,SMDPad,CuDef*%
%ADD29R,1.600000X1.000000*%
%TD*%
%TA.AperFunction,SMDPad,CuDef*%
%ADD30RoundRect,0.100000X-0.100000X0.637500X-0.100000X-0.637500X0.100000X-0.637500X0.100000X0.637500X0*%
%TD*%
%TA.AperFunction,SMDPad,CuDef*%
%ADD31RoundRect,0.218750X0.218750X0.381250X-0.218750X0.381250X-0.218750X-0.381250X0.218750X-0.381250X0*%
%TD*%
%TA.AperFunction,ViaPad*%
%ADD32C,0.600000*%
%TD*%
%TA.AperFunction,ViaPad*%
%ADD33C,0.800000*%
%TD*%
%TA.AperFunction,Conductor*%
%ADD34C,0.250000*%
%TD*%
%TA.AperFunction,Conductor*%
%ADD35C,0.200000*%
%TD*%
%TA.AperFunction,Conductor*%
%ADD36C,0.500000*%
%TD*%
%TA.AperFunction,Conductor*%
%ADD37C,0.750000*%
%TD*%
%TA.AperFunction,Conductor*%
%ADD38C,1.000000*%
%TD*%
G04 APERTURE END LIST*
D10*
%TO.P,C19,1*%
%TO.N,+3V3*%
X187452000Y-53437799D03*
%TO.P,C19,2*%
%TO.N,GND*%
X187452000Y-52477799D03*
%TD*%
%TO.P,C15,1*%
%TO.N,+3V3*%
X199390000Y-54570000D03*
%TO.P,C15,2*%
%TO.N,GND*%
X199390000Y-53610000D03*
%TD*%
D11*
%TO.P,J1,1,Pin_1*%
%TO.N,VBAT*%
X200660000Y-73075800D03*
D12*
%TO.P,J1,2,Pin_2*%
%TO.N,GND*%
X203200000Y-73075800D03*
%TD*%
D13*
%TO.P,C6,1*%
%TO.N,+5V*%
X196820000Y-68190000D03*
%TO.P,C6,2*%
%TO.N,GND*%
X197780000Y-68190000D03*
%TD*%
D14*
%TO.P,C23,1*%
%TO.N,/OSC48_HI*%
X193220000Y-70330000D03*
%TO.P,C23,2*%
%TO.N,GND*%
X192260000Y-70330000D03*
%TD*%
D15*
%TO.P,J2,1,Pin_1*%
%TO.N,+5V*%
X207010000Y-65278000D03*
%TD*%
D16*
%TO.P,C14,1*%
%TO.N,+3V3*%
X200451399Y-61777800D03*
%TO.P,C14,2*%
%TO.N,GND*%
X200451399Y-62737800D03*
%TD*%
%TO.P,C11,1*%
%TO.N,NRST*%
X197820000Y-65000000D03*
%TO.P,C11,2*%
%TO.N,GND*%
X197820000Y-65960000D03*
%TD*%
D17*
%TO.P,R4,1*%
%TO.N,+3V3*%
X189814200Y-72593200D03*
%TO.P,R4,2*%
%TO.N,/SWDIO*%
X189814200Y-73613198D03*
%TD*%
D10*
%TO.P,C16,1*%
%TO.N,+3V3*%
X185871800Y-63347399D03*
%TO.P,C16,2*%
%TO.N,GND*%
X185871800Y-62387399D03*
%TD*%
D18*
%TO.P,R7,1*%
%TO.N,VBAT_EN*%
X185826400Y-64339599D03*
%TO.P,R7,2*%
%TO.N,GND*%
X186846400Y-64339599D03*
%TD*%
D14*
%TO.P,C17,1*%
%TO.N,+3V3*%
X195298000Y-66471800D03*
%TO.P,C17,2*%
%TO.N,GND*%
X194338000Y-66471800D03*
%TD*%
D18*
%TO.P,R2,1*%
%TO.N,+3V3*%
X205409800Y-52984400D03*
%TO.P,R2,2*%
%TO.N,/LVL_DIR*%
X206429798Y-52984400D03*
%TD*%
D16*
%TO.P,C12,1*%
%TO.N,+3V3*%
X188132401Y-66471599D03*
%TO.P,C12,2*%
%TO.N,GND*%
X188132401Y-67431599D03*
%TD*%
D19*
%TO.P,U4,1,VBAT*%
%TO.N,+3V3*%
X189402401Y-64918400D03*
%TO.P,U4,2,PC13/WKUP2*%
%TO.N,unconnected-(U4-PC13{slash}WKUP2-Pad2)*%
X189902400Y-64918400D03*
%TO.P,U4,3,PC14_OSC32_IN*%
%TO.N,/OSC32K_HI*%
X190402400Y-64918400D03*
%TO.P,U4,4,PC15_OSC32_OUT*%
%TO.N,/OSC32K_LO*%
X190902400Y-64918400D03*
%TO.P,U4,5,PH0/OSCIN*%
%TO.N,/OSC48_HI*%
X191402400Y-64918400D03*
%TO.P,U4,6,PH1/OSCOUT*%
%TO.N,/OSC48_LO*%
X191902401Y-64918400D03*
%TO.P,U4,7,NRST*%
%TO.N,NRST*%
X192402400Y-64918400D03*
%TO.P,U4,8,PC0/LPUART1_RX*%
%TO.N,unconnected-(U4-PC0{slash}LPUART1_RX-Pad8)*%
X192902400Y-64918400D03*
%TO.P,U4,9,PC1/LPUART1_TX*%
%TO.N,unconnected-(U4-PC1{slash}LPUART1_TX-Pad9)*%
X193402400Y-64918400D03*
%TO.P,U4,10,PC2/SPI2_MISO*%
%TO.N,unconnected-(U4-PC2{slash}SPI2_MISO-Pad10)*%
X193902400Y-64918400D03*
%TO.P,U4,11,PC3/SPI2_MOSI*%
%TO.N,unconnected-(U4-PC3{slash}SPI2_MOSI-Pad11)*%
X194402399Y-64918400D03*
%TO.P,U4,12,VSSA*%
%TO.N,GND*%
X194902400Y-64918400D03*
%TO.P,U4,13,VDDA*%
%TO.N,+3V3*%
X195402400Y-64918400D03*
%TO.P,U4,14,PA0_WKUP1*%
%TO.N,unconnected-(U4-PA0_WKUP1-Pad14)*%
X195902400Y-64918400D03*
%TO.P,U4,15,PA1_SPI1_SCK*%
%TO.N,unconnected-(U4-PA1_SPI1_SCK-Pad15)*%
X196402400Y-64918400D03*
%TO.P,U4,16,PA2/LPUART1_TX/TIM2_CH3/WKUP4*%
%TO.N,unconnected-(U4-PA2{slash}LPUART1_TX{slash}TIM2_CH3{slash}WKUP4-Pad16)*%
X196902399Y-64918400D03*
D20*
%TO.P,U4,17,PA3/LPUART1_RX/TIM2_CH4*%
%TO.N,unconnected-(U4-PA3{slash}LPUART1_RX{slash}TIM2_CH4-Pad17)*%
X198827400Y-62993399D03*
%TO.P,U4,18,VSS*%
%TO.N,GND*%
X198827400Y-62493400D03*
%TO.P,U4,19,VDD*%
%TO.N,+3V3*%
X198827400Y-61993400D03*
%TO.P,U4,20,PA4/SPI1_NSS/LPTIM2_OUT*%
%TO.N,unconnected-(U4-PA4{slash}SPI1_NSS{slash}LPTIM2_OUT-Pad20)*%
X198827400Y-61493400D03*
%TO.P,U4,21,PA5/SPI1_SCK/TIM2_CH1*%
%TO.N,unconnected-(U4-PA5{slash}SPI1_SCK{slash}TIM2_CH1-Pad21)*%
X198827400Y-60993400D03*
%TO.P,U4,22,PA6/TIM16_CH1*%
%TO.N,unconnected-(U4-PA6{slash}TIM16_CH1-Pad22)*%
X198827400Y-60493399D03*
%TO.P,U4,23,PA7/SPI1_MOSI*%
%TO.N,unconnected-(U4-PA7{slash}SPI1_MOSI-Pad23)*%
X198827400Y-59993400D03*
%TO.P,U4,24,PC4/USART3_TX*%
%TO.N,unconnected-(U4-PC4{slash}USART3_TX-Pad24)*%
X198827400Y-59493400D03*
%TO.P,U4,25,PC5/USART3_RX/WKUP5*%
%TO.N,unconnected-(U4-PC5{slash}USART3_RX{slash}WKUP5-Pad25)*%
X198827400Y-58993400D03*
%TO.P,U4,26,PB0*%
%TO.N,unconnected-(U4-PB0-Pad26)*%
X198827400Y-58493400D03*
%TO.P,U4,27,PB1*%
%TO.N,unconnected-(U4-PB1-Pad27)*%
X198827400Y-57993401D03*
%TO.P,U4,28,PB2*%
%TO.N,unconnected-(U4-PB2-Pad28)*%
X198827400Y-57493400D03*
%TO.P,U4,29,PB10/LPUART1_RX/SPI2_SCK/TIM2_CH3/I2C2_SCL*%
%TO.N,unconnected-(U4-PB10{slash}LPUART1_RX{slash}SPI2_SCK{slash}TIM2_CH3{slash}I2C2_SCL-Pad29)*%
X198827400Y-56993400D03*
%TO.P,U4,30,PB11/USART3_RX/LPUART1_TX/TIM2_CH4/I2C2_SDA*%
%TO.N,unconnected-(U4-PB11{slash}USART3_RX{slash}LPUART1_TX{slash}TIM2_CH4{slash}I2C2_SDA-Pad30)*%
X198827400Y-56493400D03*
%TO.P,U4,31,VSS*%
%TO.N,GND*%
X198827400Y-55993400D03*
%TO.P,U4,32,VDD*%
%TO.N,+3V3*%
X198827400Y-55493401D03*
D19*
%TO.P,U4,33,PB12*%
%TO.N,unconnected-(U4-PB12-Pad33)*%
X196902399Y-53568400D03*
%TO.P,U4,34,PB13*%
%TO.N,unconnected-(U4-PB13-Pad34)*%
X196402400Y-53568400D03*
%TO.P,U4,35,PB14/SPI2_MISO/TIM15_CH1*%
%TO.N,unconnected-(U4-PB14{slash}SPI2_MISO{slash}TIM15_CH1-Pad35)*%
X195902400Y-53568400D03*
%TO.P,U4,36,PB15/SPI2_MOSI/TIM15_CH2*%
%TO.N,unconnected-(U4-PB15{slash}SPI2_MOSI{slash}TIM15_CH2-Pad36)*%
X195402400Y-53568400D03*
%TO.P,U4,37,PC6*%
%TO.N,unconnected-(U4-PC6-Pad37)*%
X194902400Y-53568400D03*
%TO.P,U4,38,PC7*%
%TO.N,/LVL_EN*%
X194402399Y-53568400D03*
%TO.P,U4,39,PC8*%
%TO.N,/LVL_DIR*%
X193902400Y-53568400D03*
%TO.P,U4,40,PC9*%
%TO.N,unconnected-(U4-PC9-Pad40)*%
X193402400Y-53568400D03*
%TO.P,U4,41,PA8/TIM1_CH1*%
%TO.N,TIM1_CH1*%
X192902400Y-53568400D03*
%TO.P,U4,42,PA9/TIM1_CH2/USART1_TX*%
%TO.N,unconnected-(U4-PA9{slash}TIM1_CH2{slash}USART1_TX-Pad42)*%
X192402400Y-53568400D03*
%TO.P,U4,43,PA10/TIM1_CH3/USART1_RX*%
%TO.N,unconnected-(U4-PA10{slash}TIM1_CH3{slash}USART1_RX-Pad43)*%
X191902401Y-53568400D03*
%TO.P,U4,44,PA11/TIM1_CH4/SPI1_MISO*%
%TO.N,unconnected-(U4-PA11{slash}TIM1_CH4{slash}SPI1_MISO-Pad44)*%
X191402400Y-53568400D03*
%TO.P,U4,45,PA12/SPI_MOSI*%
%TO.N,unconnected-(U4-PA12{slash}SPI_MOSI-Pad45)*%
X190902400Y-53568400D03*
%TO.P,U4,46,PA13/SWDIO*%
%TO.N,/SWDIO*%
X190402400Y-53568400D03*
%TO.P,U4,47,VSS*%
%TO.N,GND*%
X189902400Y-53568400D03*
%TO.P,U4,48,VDDUSB*%
%TO.N,+3V3*%
X189402401Y-53568400D03*
D20*
%TO.P,U4,49,PA14/SWCLK*%
%TO.N,/SWCLK*%
X187477400Y-55493401D03*
%TO.P,U4,50,PA15/JTDI*%
%TO.N,unconnected-(U4-PA15{slash}JTDI-Pad50)*%
X187477400Y-55993400D03*
%TO.P,U4,51,PC10*%
%TO.N,unconnected-(U4-PC10-Pad51)*%
X187477400Y-56493400D03*
%TO.P,U4,52,PC11/SPI3_MISO/USART3_RX*%
%TO.N,unconnected-(U4-PC11{slash}SPI3_MISO{slash}USART3_RX-Pad52)*%
X187477400Y-56993400D03*
%TO.P,U4,53,PC12/SPI3_MOSI*%
%TO.N,unconnected-(U4-PC12{slash}SPI3_MOSI-Pad53)*%
X187477400Y-57493400D03*
%TO.P,U4,54,PD2*%
%TO.N,unconnected-(U4-PD2-Pad54)*%
X187477400Y-57993401D03*
%TO.P,U4,55,PB3/JTDO-TRACE-SWO*%
%TO.N,unconnected-(U4-PB3{slash}JTDO-TRACE-SWO-Pad55)*%
X187477400Y-58493400D03*
%TO.P,U4,56,PB4/NJTRST*%
%TO.N,unconnected-(U4-PB4{slash}NJTRST-Pad56)*%
X187477400Y-58993400D03*
%TO.P,U4,57,PB5/SPI1_MOSI/SPI3_MOSI*%
%TO.N,unconnected-(U4-PB5{slash}SPI1_MOSI{slash}SPI3_MOSI-Pad57)*%
X187477400Y-59493400D03*
%TO.P,U4,58,PB6/USART1_TX*%
%TO.N,unconnected-(U4-PB6{slash}USART1_TX-Pad58)*%
X187477400Y-59993400D03*
%TO.P,U4,59,PB7/USART1_RX*%
%TO.N,unconnected-(U4-PB7{slash}USART1_RX-Pad59)*%
X187477400Y-60493399D03*
%TO.P,U4,60,PH3/BOOT0*%
%TO.N,/BOOT0*%
X187477400Y-60993400D03*
%TO.P,U4,61,PB8/I2C1_SCL/TIM16_CH1*%
%TO.N,unconnected-(U4-PB8{slash}I2C1_SCL{slash}TIM16_CH1-Pad61)*%
X187477400Y-61493400D03*
%TO.P,U4,62,PB9/I2C1_SDA/SPI2_NSS*%
%TO.N,unconnected-(U4-PB9{slash}I2C1_SDA{slash}SPI2_NSS-Pad62)*%
X187477400Y-61993400D03*
%TO.P,U4,63,VSS*%
%TO.N,GND*%
X187477400Y-62493400D03*
%TO.P,U4,64,VDD*%
%TO.N,+3V3*%
X187477400Y-62993399D03*
%TD*%
D15*
%TO.P,J4,1,Pin_1*%
%TO.N,TIM1_CH1_SHIFT*%
X207010000Y-69088000D03*
%TD*%
D16*
%TO.P,C13,1*%
%TO.N,+3V3*%
X189123001Y-66476799D03*
%TO.P,C13,2*%
%TO.N,GND*%
X189123001Y-67436799D03*
%TD*%
D10*
%TO.P,C10,1*%
%TO.N,+3V3*%
X194716400Y-73507600D03*
%TO.P,C10,2*%
%TO.N,GND*%
X194716400Y-72547600D03*
%TD*%
D21*
%TO.P,R3,1*%
%TO.N,/LVL_EN*%
X205587600Y-61772800D03*
%TO.P,R3,2*%
%TO.N,GND*%
X204567602Y-61772800D03*
%TD*%
D13*
%TO.P,C7,1*%
%TO.N,+5V*%
X196820000Y-67210000D03*
%TO.P,C7,2*%
%TO.N,GND*%
X197780000Y-67210000D03*
%TD*%
D10*
%TO.P,C1,1*%
%TO.N,VBAT*%
X183820000Y-58270000D03*
%TO.P,C1,2*%
%TO.N,GND*%
X183820000Y-57310000D03*
%TD*%
D21*
%TO.P,R5,1*%
%TO.N,+3V3*%
X186437999Y-68224400D03*
%TO.P,R5,2*%
%TO.N,/SWCLK*%
X185418001Y-68224400D03*
%TD*%
D22*
%TO.P,R9,1*%
%TO.N,+3V3*%
X198830000Y-66009998D03*
%TO.P,R9,2*%
%TO.N,NRST*%
X198830000Y-64990000D03*
%TD*%
D15*
%TO.P,J5,1,Pin_1*%
%TO.N,GND*%
X207010000Y-72898000D03*
%TD*%
D14*
%TO.P,C8,1*%
%TO.N,+5V*%
X205559600Y-62788800D03*
%TO.P,C8,2*%
%TO.N,GND*%
X204599600Y-62788800D03*
%TD*%
%TO.P,C9,1*%
%TO.N,+5V*%
X195117600Y-70332600D03*
%TO.P,C9,2*%
%TO.N,GND*%
X194157600Y-70332600D03*
%TD*%
D10*
%TO.P,C5,1*%
%TO.N,VBAT*%
X198830000Y-70780000D03*
%TO.P,C5,2*%
%TO.N,GND*%
X198830000Y-69820000D03*
%TD*%
D11*
%TO.P,J3,1,Pin_1*%
%TO.N,GND*%
X179857400Y-73152000D03*
D12*
%TO.P,J3,2,Pin_2*%
%TO.N,NRST*%
X179857400Y-70612000D03*
%TO.P,J3,3,Pin_3*%
%TO.N,unconnected-(J3-Pin_3-Pad3)*%
X182397400Y-73152000D03*
%TO.P,J3,4,Pin_4*%
%TO.N,unconnected-(J3-Pin_4-Pad4)*%
X182397400Y-70612000D03*
%TO.P,J3,5,Pin_5*%
%TO.N,unconnected-(J3-Pin_5-Pad5)*%
X184937399Y-73152000D03*
%TO.P,J3,6,Pin_6*%
%TO.N,/SWCLK*%
X184937400Y-70612000D03*
%TO.P,J3,7,Pin_7*%
%TO.N,/SWDIO*%
X187477400Y-73152000D03*
%TO.P,J3,8,Pin_8*%
%TO.N,+3V3*%
X187477400Y-70612000D03*
%TD*%
D23*
%TO.P,U5,1,IN/OUT*%
%TO.N,/OSC48_LO*%
X194409800Y-67768599D03*
%TO.P,U5,2,GND*%
%TO.N,GND*%
X192709800Y-67768599D03*
%TO.P,U5,3,OUT/IN*%
%TO.N,/OSC48_HI*%
X192709800Y-69068599D03*
%TO.P,U5,4,GND*%
%TO.N,GND*%
X194409800Y-69068599D03*
%TD*%
D24*
%TO.P,U6,1,1*%
%TO.N,/OSC32K_HI*%
X190215201Y-66903399D03*
%TO.P,U6,2,2*%
%TO.N,/OSC32K_LO*%
X191040201Y-66903399D03*
%TD*%
D16*
%TO.P,C22,1*%
%TO.N,/OSC32K_LO*%
X191135701Y-68249598D03*
%TO.P,C22,2*%
%TO.N,GND*%
X191135701Y-69209598D03*
%TD*%
D17*
%TO.P,R6,1*%
%TO.N,/BOOT0*%
X185853800Y-60451400D03*
%TO.P,R6,2*%
%TO.N,GND*%
X185853800Y-61471398D03*
%TD*%
D25*
%TO.P,U3,1,IN*%
%TO.N,+5V*%
X193449999Y-71760000D03*
%TO.P,U3,2,GND*%
%TO.N,GND*%
X192500000Y-71760000D03*
%TO.P,U3,3,EN*%
%TO.N,+5V*%
X191550001Y-71760000D03*
%TO.P,U3,4,NC*%
%TO.N,unconnected-(U3-NC-Pad4)*%
X191550001Y-74035000D03*
%TO.P,U3,5,OUT*%
%TO.N,+3V3*%
X193449999Y-74035000D03*
%TD*%
D16*
%TO.P,C21,1*%
%TO.N,/OSC32K_HI*%
X190119702Y-68249599D03*
%TO.P,C21,2*%
%TO.N,GND*%
X190119702Y-69209599D03*
%TD*%
D26*
%TO.P,SW2,1,1*%
%TO.N,VBAT*%
X180086000Y-58288601D03*
%TO.P,SW2,2,2*%
%TO.N,unconnected-(SW2-Pad2)*%
X180086000Y-61288600D03*
%TO.P,SW2,3,3*%
%TO.N,VBAT_EN*%
X180086000Y-64288599D03*
D27*
%TO.P,SW2,4*%
%TO.N,N/C*%
X180086000Y-55038600D03*
%TO.P,SW2,5*%
X180086000Y-67538600D03*
%TD*%
D10*
%TO.P,C3,1*%
%TO.N,VBAT*%
X199820000Y-70780000D03*
%TO.P,C3,2*%
%TO.N,GND*%
X199820000Y-69820000D03*
%TD*%
D28*
%TO.P,U1,1,GND*%
%TO.N,GND*%
X197665700Y-70334899D03*
%TO.P,U1,2,VOUT*%
%TO.N,+5V*%
X197015700Y-70334900D03*
%TO.P,U1,3,FB*%
X196365700Y-70334899D03*
%TO.P,U1,4,EN*%
%TO.N,VBAT_EN*%
X196365700Y-72434901D03*
%TO.P,U1,5,IND*%
%TO.N,Net-(U1-IND)*%
X197015700Y-72434900D03*
%TO.P,U1,6,VIN*%
%TO.N,VBAT*%
X197665700Y-72434901D03*
D29*
%TO.P,U1,7*%
%TO.N,N/C*%
X197015700Y-71384900D03*
%TD*%
D13*
%TO.P,C4,1*%
%TO.N,+5V*%
X196810000Y-69180000D03*
%TO.P,C4,2*%
%TO.N,GND*%
X197770000Y-69180000D03*
%TD*%
D30*
%TO.P,U2,1,DIR*%
%TO.N,/LVL_DIR*%
X206418800Y-54533800D03*
%TO.P,U2,2,A1*%
%TO.N,GND*%
X205768800Y-54533800D03*
%TO.P,U2,3,A2*%
X205118800Y-54533800D03*
%TO.P,U2,4,A3*%
X204468800Y-54533800D03*
%TO.P,U2,5,A4*%
X203818800Y-54533800D03*
%TO.P,U2,6,A5*%
X203168800Y-54533800D03*
%TO.P,U2,7,A6*%
%TO.N,TIM1_CH1*%
X202518800Y-54533800D03*
%TO.P,U2,8,A7*%
%TO.N,GND*%
X201868800Y-54533800D03*
%TO.P,U2,9,A8*%
X201218800Y-54533800D03*
%TO.P,U2,10,GND*%
X200568800Y-54533800D03*
%TO.P,U2,11,B8*%
X200568800Y-60258800D03*
%TO.P,U2,12,B7*%
X201218800Y-60258800D03*
%TO.P,U2,13,B6*%
%TO.N,TIM1_CH1_SHIFT*%
X201868800Y-60258800D03*
%TO.P,U2,14,B5*%
%TO.N,GND*%
X202518800Y-60258800D03*
%TO.P,U2,15,B4*%
X203168800Y-60258800D03*
%TO.P,U2,16,B3*%
X203818800Y-60258800D03*
%TO.P,U2,17,B2*%
X204468800Y-60258800D03*
%TO.P,U2,18,B1*%
X205118800Y-60258800D03*
%TO.P,U2,19,OE_N*%
%TO.N,/LVL_EN*%
X205768800Y-60258800D03*
%TO.P,U2,20,VCC*%
%TO.N,+5V*%
X206418800Y-60258800D03*
%TD*%
D16*
%TO.P,C20,1*%
%TO.N,/OSC48_LO*%
X195803200Y-67443599D03*
%TO.P,C20,2*%
%TO.N,GND*%
X195803200Y-68403599D03*
%TD*%
D31*
%TO.P,L1,1,1*%
%TO.N,VBAT*%
X198064900Y-73990200D03*
%TO.P,L1,2,2*%
%TO.N,Net-(U1-IND)*%
X195939900Y-73990200D03*
%TD*%
D10*
%TO.P,C18,1*%
%TO.N,+3V3*%
X188440000Y-53440399D03*
%TO.P,C18,2*%
%TO.N,GND*%
X188440000Y-52480399D03*
%TD*%
%TO.P,C2,1*%
%TO.N,VBAT*%
X200819999Y-70780000D03*
%TO.P,C2,2*%
%TO.N,GND*%
X200819999Y-69820000D03*
%TD*%
D32*
%TO.N,GND*%
X183920000Y-65220000D03*
X196550000Y-62710000D03*
X191500000Y-55370000D03*
X202518800Y-58999600D03*
X200568800Y-55727600D03*
X190119702Y-69849799D03*
D33*
X198500000Y-66920000D03*
D32*
X189123000Y-68224199D03*
X186588400Y-52477799D03*
X191680000Y-69920000D03*
X201904600Y-55727600D03*
X191002600Y-69900598D03*
X200350000Y-63510000D03*
D33*
X192500000Y-73025000D03*
X202252100Y-72127900D03*
X202819000Y-71247000D03*
D32*
X185035400Y-62387399D03*
X204468800Y-55728800D03*
X193624600Y-66174114D03*
D33*
X198640000Y-67870000D03*
D32*
X195370801Y-69068599D03*
D33*
X201669999Y-71280195D03*
D32*
X200047500Y-54012500D03*
X187594665Y-63999061D03*
X192277702Y-66828799D03*
X200863200Y-59105800D03*
D33*
X183550000Y-56440000D03*
D32*
X203168800Y-55758800D03*
D33*
X203784200Y-62661800D03*
%TO.N,+3V3*%
X193930702Y-62583993D03*
D32*
X199825000Y-55005000D03*
X188290000Y-65720000D03*
X184986600Y-63347399D03*
X197559594Y-63160294D03*
X186669800Y-53437799D03*
X194790431Y-63644276D03*
X186437999Y-69330000D03*
X204720000Y-53130000D03*
X189505000Y-71655000D03*
D33*
X194716400Y-74320400D03*
D32*
%TO.N,NRST*%
X189615662Y-63659777D03*
X184280000Y-67020000D03*
%TO.N,/LVL_EN*%
X202490000Y-56480000D03*
X201318800Y-52970000D03*
%TO.N,/LVL_DIR*%
X198195000Y-53450168D03*
X203718800Y-53280000D03*
%TO.N,VBAT_EN*%
X190300000Y-74530000D03*
D33*
X195618819Y-72796471D03*
%TO.N,+5V*%
X194979666Y-71526400D03*
X196118799Y-69593155D03*
X190760000Y-71590000D03*
X196799200Y-66497200D03*
X205375000Y-63655000D03*
%TO.N,VBAT*%
X185610000Y-66200000D03*
%TD*%
D34*
%TO.N,+3V3*%
X193930702Y-62583993D02*
X194521295Y-61993400D01*
X194521295Y-61993400D02*
X198827400Y-61993400D01*
D35*
%TO.N,GND*%
X202443800Y-62407800D02*
X202443800Y-63305982D01*
X202443800Y-63305982D02*
X206528909Y-67391091D01*
D34*
X201218800Y-60258800D02*
X201293800Y-60333800D01*
X205307228Y-69683326D02*
X206050000Y-70426098D01*
X206050000Y-70426098D02*
X206050000Y-71938000D01*
X206050000Y-71938000D02*
X207010000Y-72898000D01*
X201293800Y-63746972D02*
X205307228Y-67760400D01*
X201293800Y-60333800D02*
X201293800Y-63746972D01*
X205307228Y-67760400D02*
X205307228Y-69683326D01*
D36*
%TO.N,TIM1_CH1_SHIFT*%
X201868800Y-60258800D02*
X201868800Y-63508800D01*
X201868800Y-63508800D02*
X207010000Y-68650000D01*
X207010000Y-68650000D02*
X207010000Y-69088000D01*
D34*
%TO.N,VBAT_EN*%
X185826400Y-64339599D02*
X185826400Y-64616400D01*
X185826400Y-64616400D02*
X186597401Y-65387401D01*
X184487400Y-68518605D02*
X184487400Y-69400299D01*
X183762400Y-71098701D02*
X184450699Y-71787000D01*
X186597401Y-65387401D02*
X186597401Y-66408604D01*
X186597401Y-66408604D02*
X185426605Y-67579400D01*
X185426605Y-67579400D02*
X185088721Y-67579400D01*
X185088721Y-67579400D02*
X184823001Y-67845120D01*
X184823001Y-67845120D02*
X184823001Y-68183004D01*
X184487400Y-69400299D02*
X183762400Y-70125299D01*
X183762400Y-70125299D02*
X183762400Y-71098701D01*
X184823001Y-68183004D02*
X184487400Y-68518605D01*
X184450699Y-71787000D02*
X185424101Y-71787000D01*
X185424101Y-71787000D02*
X186302400Y-72665299D01*
X186302400Y-72665299D02*
X186302400Y-73638701D01*
X187193699Y-74530000D02*
X190300000Y-74530000D01*
X186302400Y-73638701D02*
X187193699Y-74530000D01*
%TO.N,NRST*%
X184280000Y-67020000D02*
X182540000Y-67020000D01*
X182540000Y-67020000D02*
X182214400Y-67345600D01*
X182214400Y-67345600D02*
X182214400Y-67946766D01*
X182214400Y-67946766D02*
X181637166Y-68524000D01*
X181637166Y-68524000D02*
X181036000Y-68524000D01*
X181036000Y-68524000D02*
X179857400Y-69702600D01*
X179857400Y-69702600D02*
X179857400Y-70612000D01*
D36*
%TO.N,GND*%
X197780000Y-69170000D02*
X197770000Y-69180000D01*
X204567602Y-61772800D02*
X204567602Y-60357602D01*
D34*
X205118800Y-60258800D02*
X204468800Y-60258800D01*
X204468800Y-55728800D02*
X204468800Y-54533800D01*
D36*
X204599600Y-62788800D02*
X203911200Y-62788800D01*
X201669999Y-70481734D02*
X201008265Y-69820000D01*
D34*
X185853800Y-62369399D02*
X185871800Y-62387399D01*
X204468800Y-60258800D02*
X203818800Y-60258800D01*
X201868800Y-54533800D02*
X201868800Y-53637200D01*
X203168800Y-55758800D02*
X203168800Y-54533800D01*
X205768800Y-54533800D02*
X205118800Y-54533800D01*
D36*
X199390000Y-53610000D02*
X199645000Y-53610000D01*
X188437400Y-52477799D02*
X188440000Y-52480399D01*
D34*
X201713914Y-52311486D02*
X201702428Y-52300000D01*
D35*
X192709802Y-66925199D02*
X192709802Y-67768599D01*
D36*
X203911200Y-62788800D02*
X203784200Y-62661800D01*
X198640000Y-67870000D02*
X198320000Y-68190000D01*
D34*
X203093800Y-52065027D02*
X203093800Y-53822600D01*
X202518800Y-58999600D02*
X202518800Y-60258800D01*
X201943800Y-52984400D02*
X201943800Y-52541372D01*
D35*
X190119702Y-69849799D02*
X190119701Y-69209599D01*
D34*
X200863200Y-59105800D02*
X201218800Y-59461400D01*
X194902400Y-64918400D02*
X194902400Y-65895910D01*
X200350000Y-63510000D02*
X200451399Y-63408601D01*
D36*
X189123001Y-67436800D02*
X188137600Y-67436799D01*
X197770000Y-69320000D02*
X197715700Y-69374300D01*
X204567602Y-60357602D02*
X204468800Y-60258800D01*
X192500000Y-73025000D02*
X192944815Y-73025000D01*
X201669999Y-71280195D02*
X201703194Y-71247000D01*
D34*
X192842027Y-51150000D02*
X202178772Y-51150000D01*
X187594665Y-63999061D02*
X187254127Y-64339599D01*
X185853800Y-61471398D02*
X185853800Y-62369399D01*
X202178772Y-51150000D02*
X203093800Y-52065027D01*
D36*
X183820000Y-56710000D02*
X183820000Y-57310000D01*
X198641734Y-69820000D02*
X198126835Y-70334899D01*
X198830000Y-69820000D02*
X199820000Y-69820000D01*
D34*
X201868800Y-54533800D02*
X201218800Y-54533800D01*
X195370801Y-69068599D02*
X194409800Y-69068599D01*
D36*
X188137600Y-67436799D02*
X188132401Y-67431600D01*
D34*
X191680000Y-69920000D02*
X192090000Y-70330000D01*
X193513400Y-52300000D02*
X193513400Y-52468400D01*
X194338000Y-66460310D02*
X194338000Y-66471800D01*
D36*
X201008265Y-69820000D02*
X200819999Y-69820000D01*
X201669999Y-71280195D02*
X201669999Y-70481734D01*
D34*
X185035400Y-62387399D02*
X185871800Y-62387399D01*
X204468800Y-54533800D02*
X205118800Y-54533800D01*
X193624600Y-66174114D02*
X194040314Y-66174114D01*
X189902400Y-53568400D02*
X189902400Y-52725635D01*
X200206999Y-62493400D02*
X198827400Y-62493400D01*
X185977800Y-62493401D02*
X185871799Y-62387400D01*
X188518800Y-52401599D02*
X188440000Y-52480399D01*
X195370801Y-69068599D02*
X195803200Y-68636200D01*
X202443800Y-60573200D02*
X202443800Y-62407800D01*
X200568800Y-55727600D02*
X200568800Y-54533800D01*
D36*
X192500000Y-73025000D02*
X192500000Y-71760000D01*
D34*
X200303000Y-55993400D02*
X200568800Y-55727600D01*
X202518800Y-60258800D02*
X202518800Y-60498200D01*
X189578364Y-52401599D02*
X188518800Y-52401599D01*
D36*
X199820000Y-69820000D02*
X200819999Y-69820000D01*
X198830000Y-69820000D02*
X198641734Y-69820000D01*
X198320000Y-68190000D02*
X197780000Y-68190000D01*
X192944815Y-73025000D02*
X193097315Y-72872500D01*
D34*
X202518800Y-60258800D02*
X203168800Y-60258800D01*
X201868800Y-55691800D02*
X201868800Y-54533800D01*
X194040314Y-66174114D02*
X194338000Y-66471800D01*
X193573400Y-52300000D02*
X193513400Y-52300000D01*
D36*
X203200000Y-73075800D02*
X202252100Y-72127900D01*
D34*
X200451399Y-63408601D02*
X200451399Y-62737800D01*
D36*
X189123000Y-68224199D02*
X189123001Y-67436800D01*
D34*
X200568800Y-54533800D02*
X201218800Y-54533800D01*
D36*
X201703194Y-71247000D02*
X202819000Y-71247000D01*
D34*
X189902400Y-52725635D02*
X189578364Y-52401599D01*
D36*
X183550000Y-56440000D02*
X183820000Y-56710000D01*
X200047500Y-54012500D02*
X200568800Y-54533800D01*
D34*
X187254127Y-64339599D02*
X186846400Y-64339599D01*
D36*
X204599600Y-61804798D02*
X204567602Y-61772800D01*
D34*
X201702428Y-52300000D02*
X193573400Y-52300000D01*
D36*
X187452000Y-52477799D02*
X188437400Y-52477799D01*
X197967600Y-67022400D02*
X197967600Y-66107600D01*
D34*
X187477400Y-62493400D02*
X185977800Y-62493401D01*
D36*
X197770000Y-69180000D02*
X197770000Y-69320000D01*
D34*
X203168800Y-54533800D02*
X203818800Y-54533800D01*
D36*
X198210000Y-67210000D02*
X198500000Y-66920000D01*
X194157600Y-69320799D02*
X194409800Y-69068599D01*
X197967600Y-66107600D02*
X197820000Y-65960000D01*
D34*
X201904600Y-55727600D02*
X201868800Y-55691800D01*
X202518800Y-60498200D02*
X202443800Y-60573200D01*
D36*
X197780000Y-68190000D02*
X197780000Y-69170000D01*
X197780000Y-67210000D02*
X198210000Y-67210000D01*
X204599600Y-62788800D02*
X204599600Y-61804798D01*
D34*
X192090000Y-70330000D02*
X192260000Y-70330000D01*
D36*
X194177583Y-72547600D02*
X194716400Y-72547600D01*
X186588400Y-52477799D02*
X187452000Y-52477799D01*
D34*
X194902400Y-65895910D02*
X194338000Y-66460310D01*
D36*
X198126835Y-70334899D02*
X197715700Y-70334899D01*
X199645000Y-53610000D02*
X200047500Y-54012500D01*
X193097315Y-72872500D02*
X193852683Y-72872500D01*
X197715700Y-69374300D02*
X197715700Y-70334899D01*
X202819000Y-71247000D02*
X202252100Y-71813900D01*
D34*
X201218800Y-59461400D02*
X201218800Y-60258800D01*
X192363400Y-51628627D02*
X192363400Y-52468400D01*
X201868800Y-53637200D02*
X201943800Y-53562200D01*
D36*
X197780000Y-67210000D02*
X197780000Y-68190000D01*
X194157600Y-70332600D02*
X194157600Y-69320799D01*
D34*
X198827400Y-55993400D02*
X200303000Y-55993400D01*
X201943800Y-53562200D02*
X201943800Y-52984400D01*
X195803200Y-68636200D02*
X195803200Y-68403599D01*
D35*
X192576201Y-66893198D02*
X192633602Y-66950599D01*
D34*
X200451399Y-62737800D02*
X200206999Y-62493400D01*
D36*
X197780000Y-67210000D02*
X197967600Y-67022400D01*
D34*
X201218800Y-60258800D02*
X200568800Y-60258800D01*
X203818800Y-60258800D02*
X203168800Y-60258800D01*
D36*
X193852683Y-72872500D02*
X194177583Y-72547600D01*
X202252100Y-71813900D02*
X202252100Y-72127900D01*
D35*
X191135701Y-69767500D02*
X191135701Y-69209599D01*
D34*
X201943800Y-52541372D02*
X201713914Y-52311486D01*
X192842027Y-51150000D02*
X192363400Y-51628627D01*
%TO.N,/OSC48_LO*%
X192832986Y-66500199D02*
X193066800Y-66500199D01*
X194409800Y-67768599D02*
X195478200Y-67768599D01*
X191902401Y-64918400D02*
X191902401Y-65781702D01*
X195478200Y-67768599D02*
X195803200Y-67443599D01*
X192536586Y-66203799D02*
X192832986Y-66500199D01*
X193066800Y-66500199D02*
X194335200Y-67768599D01*
X192324498Y-66203799D02*
X192536586Y-66203799D01*
X194335200Y-67768599D02*
X194409800Y-67768599D01*
X191902401Y-65781702D02*
X192324498Y-66203799D01*
%TO.N,/OSC48_HI*%
X191652702Y-67795109D02*
X191770701Y-67913108D01*
X192181000Y-69068599D02*
X192709800Y-69068599D01*
X191652702Y-66168399D02*
X191652702Y-67795109D01*
X191770701Y-67913108D02*
X191770701Y-68658300D01*
X191402400Y-64918400D02*
X191402400Y-65918097D01*
X191402400Y-65918097D02*
X191652702Y-66168399D01*
X191770701Y-68658300D02*
X192181000Y-69068599D01*
X193220000Y-69578799D02*
X192709800Y-69068599D01*
X193220000Y-70330000D02*
X193220000Y-69578799D01*
D35*
%TO.N,/OSC32K_HI*%
X190402400Y-66716199D02*
X190215200Y-66903400D01*
X189925000Y-68289798D02*
X190058101Y-68156700D01*
X190119701Y-68249599D02*
X190119701Y-66998899D01*
X190119701Y-66998899D02*
X190215200Y-66903400D01*
X190402400Y-64918399D02*
X190402400Y-66716199D01*
%TO.N,/OSC32K_LO*%
X191135701Y-68249599D02*
X191135702Y-66998898D01*
X190902402Y-64918399D02*
X190902402Y-66765598D01*
X191135702Y-66998898D02*
X191040203Y-66903399D01*
X190902402Y-66765598D02*
X191040203Y-66903399D01*
D34*
%TO.N,+3V3*%
X199475000Y-64593399D02*
X199475000Y-65364998D01*
D36*
X188132401Y-66471599D02*
X188132401Y-65877599D01*
X188132400Y-66471601D02*
X189117800Y-66471601D01*
D34*
X195402400Y-64075636D02*
X195402400Y-64918400D01*
D36*
X186669800Y-53437799D02*
X187452000Y-53437799D01*
X189117800Y-66471601D02*
X189122999Y-66476800D01*
D34*
X198350000Y-63468399D02*
X199475000Y-64593399D01*
X194964555Y-63818400D02*
X195145164Y-63818400D01*
D36*
X194716400Y-73507600D02*
X194716400Y-74320400D01*
X185871800Y-63347399D02*
X187223399Y-63347400D01*
X189302400Y-53468399D02*
X189302400Y-53568400D01*
X188437400Y-53437799D02*
X188440000Y-53440399D01*
D34*
X200451399Y-61777800D02*
X200235799Y-61993400D01*
X197867699Y-63468399D02*
X198350000Y-63468399D01*
X199475000Y-65364998D02*
X198830000Y-66009998D01*
D36*
X199080001Y-54570000D02*
X198827400Y-54822601D01*
X189123000Y-65097800D02*
X189302400Y-64918400D01*
D34*
X195298000Y-66471800D02*
X195402400Y-66367400D01*
D36*
X194651500Y-73572500D02*
X194716400Y-73507600D01*
D34*
X204865600Y-52984400D02*
X204720000Y-53130000D01*
D36*
X198827400Y-54822601D02*
X198827400Y-55393400D01*
D34*
X186437999Y-69572599D02*
X187477400Y-70612000D01*
X189814200Y-71964200D02*
X189814200Y-72593200D01*
X195145164Y-63818400D02*
X195402400Y-64075636D01*
D36*
X184986600Y-63347399D02*
X185871800Y-63347399D01*
X193449999Y-74035000D02*
X193912499Y-73572500D01*
D34*
X205409800Y-52984400D02*
X204865600Y-52984400D01*
X189505000Y-71655000D02*
X189814200Y-71964200D01*
D36*
X189122999Y-66476800D02*
X189123000Y-65097800D01*
D34*
X186437999Y-68224400D02*
X186437999Y-69330000D01*
D36*
X188132401Y-65877599D02*
X188290000Y-65720000D01*
X193493392Y-73991607D02*
X193449999Y-74035000D01*
X193912499Y-73572500D02*
X194651500Y-73572500D01*
D34*
X194790431Y-63644276D02*
X194964555Y-63818400D01*
X197559594Y-63160294D02*
X197867699Y-63468399D01*
X195402400Y-66367400D02*
X195402400Y-64918400D01*
D36*
X188440000Y-53440399D02*
X189274400Y-53440399D01*
X187452000Y-53437799D02*
X188437400Y-53437799D01*
D34*
X200235799Y-61993400D02*
X198827400Y-61993400D01*
D36*
X189274400Y-53440399D02*
X189302400Y-53468399D01*
X199390000Y-54570000D02*
X199080001Y-54570000D01*
X187223399Y-63347400D02*
X187477400Y-63093399D01*
D34*
X186437999Y-69330000D02*
X186437999Y-69572599D01*
D36*
X199390000Y-54570000D02*
X199825000Y-55005000D01*
D34*
%TO.N,NRST*%
X192659636Y-63818400D02*
X192402400Y-64075636D01*
X197820000Y-65000000D02*
X197820000Y-64493237D01*
X192402400Y-64075636D02*
X192402400Y-64918400D01*
X197820000Y-64493237D02*
X197145163Y-63818400D01*
X192402400Y-64075635D02*
X192402400Y-64918400D01*
X194520724Y-63019276D02*
X193721600Y-63818400D01*
X198830000Y-64990000D02*
X197830000Y-64990000D01*
X189615662Y-63659777D02*
X191986542Y-63659777D01*
X197830000Y-64990000D02*
X197820000Y-65000000D01*
X195848439Y-63818400D02*
X195049315Y-63019276D01*
X195049315Y-63019276D02*
X194520724Y-63019276D01*
X191986542Y-63659777D02*
X192402400Y-64075635D01*
X197145163Y-63818400D02*
X195848439Y-63818400D01*
X193721600Y-63818400D02*
X192659636Y-63818400D01*
%TO.N,/BOOT0*%
X186395800Y-60993400D02*
X185853800Y-60451400D01*
X187477400Y-60993400D02*
X186395800Y-60993400D01*
%TO.N,/SWCLK*%
X187477400Y-55493401D02*
X188320165Y-55493401D01*
X188577400Y-63263600D02*
X188341000Y-63500000D01*
X187047401Y-65430209D02*
X187047401Y-66852599D01*
X184937400Y-68705001D02*
X185418001Y-68224400D01*
X186600000Y-67300000D02*
X186342401Y-67300000D01*
X187047401Y-66852599D02*
X186600000Y-67300000D01*
X188341000Y-63500000D02*
X188341000Y-64136610D01*
X188341000Y-64136610D02*
X187047401Y-65430209D01*
X184937400Y-70612000D02*
X184937400Y-68705001D01*
X188320165Y-55493401D02*
X188577400Y-55750636D01*
X186342401Y-67300000D02*
X185418001Y-68224400D01*
X188577400Y-55750636D02*
X188577400Y-63263600D01*
%TO.N,/SWDIO*%
X189027400Y-63449996D02*
X188791000Y-63686396D01*
X188791000Y-64323006D02*
X187497401Y-65616605D01*
X189353002Y-73152000D02*
X189814200Y-73613198D01*
X189027400Y-55786164D02*
X189027400Y-63449996D01*
X187477400Y-73152000D02*
X189353002Y-73152000D01*
X188791000Y-63686396D02*
X188791000Y-64323006D01*
X190402400Y-54411164D02*
X189027400Y-55786164D01*
X190402400Y-53568400D02*
X190402400Y-54411164D01*
X187497401Y-68970300D02*
X188652400Y-70125299D01*
X188652400Y-71977000D02*
X187477400Y-73152000D01*
X187497401Y-65616605D02*
X187497401Y-68970300D01*
X188652400Y-70125299D02*
X188652400Y-71977000D01*
%TO.N,/LVL_EN*%
X197570000Y-52890000D02*
X197570000Y-54243563D01*
X201318800Y-52970000D02*
X201098800Y-52750000D01*
X205768800Y-61591600D02*
X205768800Y-60258800D01*
X197145163Y-54668400D02*
X194659636Y-54668400D01*
X205768800Y-60258800D02*
X205768800Y-59398800D01*
X194659636Y-54668400D02*
X194402399Y-54411163D01*
X202850000Y-56480000D02*
X202490000Y-56480000D01*
X197570000Y-54243563D02*
X197145163Y-54668400D01*
X201098800Y-52750000D02*
X197710000Y-52750000D01*
X205587600Y-61772800D02*
X205768800Y-61591600D01*
X194402399Y-54411163D02*
X194402399Y-53568400D01*
X205768800Y-59398800D02*
X202850000Y-56480000D01*
X197710000Y-52750000D02*
X197570000Y-52890000D01*
%TO.N,/LVL_DIR*%
X206418800Y-54533800D02*
X206418800Y-52995398D01*
X198195000Y-54254959D02*
X197331559Y-55118400D01*
X205784798Y-52339400D02*
X206429798Y-52984400D01*
X203718800Y-53280000D02*
X203718800Y-53051200D01*
X203718800Y-53051200D02*
X204430600Y-52339400D01*
X198195000Y-53450168D02*
X198195000Y-54254959D01*
X204430600Y-52339400D02*
X205784798Y-52339400D01*
X194473240Y-55118400D02*
X193902400Y-54547560D01*
X197331559Y-55118400D02*
X194473240Y-55118400D01*
X206418800Y-52995398D02*
X206429798Y-52984400D01*
X193902400Y-54547560D02*
X193902400Y-53568400D01*
%TO.N,VBAT_EN*%
X195618819Y-72796471D02*
X195618819Y-72554381D01*
X195618819Y-72554381D02*
X195738299Y-72434901D01*
X185826400Y-64339599D02*
X180137000Y-64339599D01*
X180137000Y-64339599D02*
X180086000Y-64288599D01*
X195738299Y-72434901D02*
X196365700Y-72434901D01*
%TO.N,+5V*%
X191380001Y-71590000D02*
X191550001Y-71760000D01*
D36*
X196799200Y-66497200D02*
X196977000Y-66675000D01*
X205375000Y-63655000D02*
X205559600Y-63470400D01*
X196977000Y-66675000D02*
X196977000Y-67053000D01*
X196820000Y-69170000D02*
X196810000Y-69180000D01*
X196118799Y-69593155D02*
X196820000Y-68891954D01*
X193449999Y-71548201D02*
X193905600Y-71092600D01*
D37*
X195640700Y-70865366D02*
X195640700Y-70309900D01*
D36*
X196977000Y-67053000D02*
X196820000Y-67210000D01*
D37*
X195640700Y-70309900D02*
X196365700Y-70309900D01*
X194979666Y-71526400D02*
X195640700Y-70865366D01*
D36*
X195117600Y-70332600D02*
X195219900Y-70434900D01*
X205559600Y-63470400D02*
X205559600Y-62788800D01*
X205722656Y-62788800D02*
X205559600Y-62788800D01*
D37*
X194979666Y-71526400D02*
X194634254Y-71180988D01*
D36*
X197015700Y-70334900D02*
X196365701Y-70334900D01*
X194545866Y-71092600D02*
X195117600Y-70520866D01*
X196504300Y-70434900D02*
X196810000Y-70129200D01*
X196820000Y-68190000D02*
X196820000Y-69170000D01*
X206418800Y-60258800D02*
X206418800Y-62092656D01*
X196810000Y-70129200D02*
X197015700Y-70334900D01*
X193905600Y-71092600D02*
X194545866Y-71092600D01*
X196810000Y-69180000D02*
X196810000Y-70129200D01*
D34*
X190760000Y-71590000D02*
X191380001Y-71590000D01*
D36*
X196820000Y-67210000D02*
X196820000Y-68190000D01*
X193449999Y-71760000D02*
X193449999Y-71548201D01*
X195117600Y-70520866D02*
X195117600Y-70332600D01*
X196820000Y-68891954D02*
X196820000Y-68190000D01*
X196365701Y-70334900D02*
X196365700Y-70334899D01*
X195219900Y-70434900D02*
X196504300Y-70434900D01*
X206418800Y-62092656D02*
X205722656Y-62788800D01*
%TO.N,TIM1_CH1*%
X201940600Y-51725000D02*
X193080200Y-51725000D01*
X192938400Y-51866800D02*
X192938400Y-52512858D01*
D34*
X192902400Y-53568400D02*
X192902400Y-52548858D01*
X192902400Y-52548858D02*
X192938400Y-52512858D01*
D36*
X193080200Y-51725000D02*
X192938400Y-51866800D01*
X202518800Y-54533800D02*
X202518800Y-52303200D01*
X202518800Y-52303200D02*
X201940600Y-51725000D01*
D38*
%TO.N,Net-(U1-IND)*%
X195939900Y-73990200D02*
X196377399Y-73990200D01*
D36*
X197015700Y-73351899D02*
X196377399Y-73990200D01*
X197015700Y-72434900D02*
X197015700Y-73351899D01*
%TO.N,VBAT*%
X198165699Y-72434901D02*
X197715700Y-72434901D01*
X198830000Y-70780000D02*
X198830000Y-71770600D01*
X180373176Y-66200000D02*
X185610000Y-66200000D01*
D38*
X198064900Y-72834101D02*
X197965700Y-72734901D01*
D36*
X180104601Y-58270000D02*
X180086000Y-58288601D01*
X200819999Y-72915801D02*
X200660000Y-73075800D01*
D38*
X198064900Y-73990200D02*
X198064900Y-72834101D01*
D36*
X178937500Y-64764324D02*
X180373176Y-66200000D01*
X180086000Y-58288601D02*
X178937500Y-59437101D01*
X200819999Y-70780000D02*
X199820000Y-70780000D01*
X183820000Y-58270000D02*
X180104601Y-58270000D01*
X198830000Y-71770600D02*
X198165699Y-72434901D01*
X178937500Y-59437101D02*
X178937500Y-64764324D01*
X198830000Y-70780000D02*
X199820000Y-70780000D01*
X200819999Y-70780000D02*
X200819999Y-72915801D01*
%TD*%
%TA.AperFunction,Conductor*%
%TO.N,GND*%
G36*
X200644438Y-62577985D02*
G01*
X200690193Y-62630789D01*
X200701399Y-62682300D01*
X200701399Y-63516589D01*
X200722309Y-63514945D01*
X200877594Y-63469831D01*
X200877596Y-63469830D01*
X200931178Y-63438142D01*
X200998902Y-63420958D01*
X201065165Y-63443117D01*
X201108928Y-63497583D01*
X201118300Y-63544873D01*
X201118300Y-63582718D01*
X201118300Y-63582720D01*
X201118299Y-63582720D01*
X201147140Y-63727707D01*
X201147143Y-63727717D01*
X201203712Y-63864288D01*
X201203716Y-63864295D01*
X201223017Y-63893181D01*
X201223018Y-63893184D01*
X201285846Y-63987214D01*
X201285852Y-63987221D01*
X205396493Y-68097861D01*
X205429978Y-68159184D01*
X205424994Y-68228876D01*
X205416201Y-68247539D01*
X205383257Y-68304602D01*
X205383256Y-68304604D01*
X205284666Y-68555804D01*
X205284664Y-68555811D01*
X205224616Y-68818898D01*
X205204451Y-69087995D01*
X205204451Y-69088004D01*
X205224616Y-69357101D01*
X205284664Y-69620188D01*
X205284666Y-69620195D01*
X205383256Y-69871396D01*
X205383258Y-69871400D01*
X205411770Y-69920784D01*
X205518185Y-70105102D01*
X205650219Y-70270667D01*
X205686442Y-70316089D01*
X205766972Y-70390809D01*
X205884259Y-70499635D01*
X206107226Y-70651651D01*
X206107229Y-70651652D01*
X206107230Y-70651653D01*
X206137490Y-70666225D01*
X206350359Y-70768738D01*
X206608228Y-70848280D01*
X206608229Y-70848280D01*
X206608232Y-70848281D01*
X206875063Y-70888499D01*
X206875068Y-70888499D01*
X206875071Y-70888500D01*
X206875072Y-70888500D01*
X207144928Y-70888500D01*
X207144929Y-70888500D01*
X207159041Y-70886373D01*
X207411767Y-70848281D01*
X207411768Y-70848280D01*
X207411772Y-70848280D01*
X207669641Y-70768738D01*
X207861765Y-70676216D01*
X207912767Y-70651655D01*
X207912767Y-70651654D01*
X207912775Y-70651651D01*
X208135741Y-70499635D01*
X208289259Y-70357190D01*
X208333557Y-70316089D01*
X208333557Y-70316087D01*
X208333561Y-70316085D01*
X208501815Y-70105102D01*
X208636743Y-69871398D01*
X208735334Y-69620195D01*
X208795383Y-69357103D01*
X208802553Y-69261419D01*
X208827191Y-69196039D01*
X208883266Y-69154357D01*
X208952974Y-69149609D01*
X209014184Y-69183301D01*
X209047461Y-69244737D01*
X209050206Y-69270710D01*
X209049233Y-74120481D01*
X209049219Y-74120697D01*
X209049219Y-74188150D01*
X209048625Y-74200267D01*
X209035713Y-74331748D01*
X209031001Y-74355514D01*
X208994531Y-74476143D01*
X208985286Y-74498540D01*
X208926052Y-74609777D01*
X208912629Y-74629949D01*
X208832899Y-74727536D01*
X208815808Y-74744713D01*
X208718616Y-74824937D01*
X208698514Y-74838460D01*
X208648688Y-74865314D01*
X208587580Y-74898250D01*
X208565230Y-74907606D01*
X208444786Y-74944682D01*
X208421041Y-74949514D01*
X208289758Y-74963070D01*
X208277003Y-74963726D01*
X198986434Y-74962291D01*
X198919397Y-74942596D01*
X198873651Y-74889785D01*
X198863718Y-74820625D01*
X198880912Y-74773199D01*
X198939949Y-74677487D01*
X198992836Y-74517885D01*
X199002900Y-74419374D01*
X199002900Y-74364764D01*
X199012339Y-74317311D01*
X199026951Y-74282035D01*
X199045159Y-74190498D01*
X199065400Y-74088743D01*
X199065400Y-74016592D01*
X199085085Y-73949553D01*
X199137889Y-73903798D01*
X199207047Y-73893854D01*
X199270603Y-73922879D01*
X199308377Y-73981657D01*
X199312690Y-74003339D01*
X199315908Y-74033283D01*
X199366202Y-74168128D01*
X199366206Y-74168135D01*
X199452452Y-74283344D01*
X199452455Y-74283347D01*
X199567664Y-74369593D01*
X199567671Y-74369597D01*
X199702517Y-74419891D01*
X199702516Y-74419891D01*
X199709444Y-74420635D01*
X199762127Y-74426300D01*
X201557872Y-74426299D01*
X201617483Y-74419891D01*
X201752331Y-74369596D01*
X201867546Y-74283346D01*
X201953796Y-74168131D01*
X202004091Y-74033283D01*
X202010500Y-73973673D01*
X202010499Y-72177928D01*
X202004091Y-72118317D01*
X202002296Y-72113505D01*
X201953797Y-71983471D01*
X201953793Y-71983464D01*
X201867547Y-71868255D01*
X201867544Y-71868252D01*
X201752335Y-71782006D01*
X201752328Y-71782002D01*
X201651166Y-71744271D01*
X201595232Y-71702399D01*
X201570815Y-71636935D01*
X201570499Y-71628089D01*
X201570499Y-71229791D01*
X201580698Y-71180543D01*
X201582488Y-71176402D01*
X201582493Y-71176395D01*
X201626418Y-71025207D01*
X201627641Y-71020997D01*
X201627642Y-71020991D01*
X201628498Y-71010117D01*
X201630499Y-70984690D01*
X201630499Y-70575310D01*
X201627642Y-70539007D01*
X201616203Y-70499635D01*
X201582494Y-70383609D01*
X201582493Y-70383605D01*
X201570088Y-70362630D01*
X201552905Y-70294909D01*
X201570090Y-70236384D01*
X201582031Y-70216194D01*
X201624503Y-70070000D01*
X201318351Y-70070000D01*
X201255232Y-70052732D01*
X201246394Y-70047506D01*
X201246392Y-70047505D01*
X201246388Y-70047503D01*
X201090996Y-70002357D01*
X201090990Y-70002356D01*
X201054696Y-69999500D01*
X201054689Y-69999500D01*
X200585309Y-69999500D01*
X200585301Y-69999500D01*
X200549007Y-70002356D01*
X200549004Y-70002357D01*
X200490834Y-70019257D01*
X200472527Y-70024576D01*
X200437933Y-70029500D01*
X200202066Y-70029500D01*
X200167471Y-70024576D01*
X200137929Y-70015993D01*
X200090994Y-70002357D01*
X200090991Y-70002356D01*
X200054697Y-69999500D01*
X200054690Y-69999500D01*
X199585310Y-69999500D01*
X199585302Y-69999500D01*
X199549008Y-70002356D01*
X199549005Y-70002357D01*
X199490835Y-70019257D01*
X199472528Y-70024576D01*
X199437934Y-70029500D01*
X199212066Y-70029500D01*
X199177471Y-70024576D01*
X199147929Y-70015993D01*
X199100994Y-70002357D01*
X199100991Y-70002356D01*
X199064697Y-69999500D01*
X199064690Y-69999500D01*
X198704000Y-69999500D01*
X198636961Y-69979815D01*
X198591206Y-69927011D01*
X198580000Y-69875500D01*
X198580000Y-69570000D01*
X199080000Y-69570000D01*
X199570000Y-69570000D01*
X200070000Y-69570000D01*
X200569999Y-69570000D01*
X200569999Y-69041210D01*
X200569998Y-69041209D01*
X201069999Y-69041209D01*
X201069999Y-69570000D01*
X201624503Y-69570000D01*
X201582030Y-69423804D01*
X201499720Y-69284625D01*
X201499713Y-69284616D01*
X201385382Y-69170285D01*
X201385373Y-69170278D01*
X201246194Y-69087968D01*
X201246189Y-69087966D01*
X201090917Y-69042855D01*
X201090911Y-69042854D01*
X201069999Y-69041209D01*
X200569998Y-69041209D01*
X200549086Y-69042854D01*
X200549080Y-69042855D01*
X200393808Y-69087966D01*
X200393802Y-69087968D01*
X200383117Y-69094288D01*
X200315392Y-69111468D01*
X200256879Y-69094286D01*
X200246197Y-69087969D01*
X200090909Y-69042854D01*
X200090912Y-69042854D01*
X200070000Y-69041209D01*
X200070000Y-69570000D01*
X199570000Y-69570000D01*
X199570000Y-69041210D01*
X199569999Y-69041209D01*
X199549087Y-69042854D01*
X199549081Y-69042855D01*
X199393809Y-69087966D01*
X199393801Y-69087969D01*
X199388116Y-69091332D01*
X199320392Y-69108511D01*
X199261884Y-69091332D01*
X199256198Y-69087969D01*
X199256190Y-69087966D01*
X199100918Y-69042855D01*
X199100912Y-69042854D01*
X199080000Y-69041209D01*
X199080000Y-69570000D01*
X198580000Y-69570000D01*
X198580000Y-69033863D01*
X198553961Y-68990331D01*
X198549999Y-68959237D01*
X198549999Y-68945375D01*
X198549998Y-68945350D01*
X198547145Y-68909088D01*
X198502031Y-68753803D01*
X198498934Y-68746646D01*
X198500933Y-68745780D01*
X198486487Y-68688863D01*
X198503673Y-68630328D01*
X198512031Y-68616196D01*
X198557145Y-68460910D01*
X198558790Y-68440000D01*
X198030000Y-68440000D01*
X198030000Y-68981638D01*
X198020000Y-69015693D01*
X198020000Y-69909000D01*
X198000315Y-69976039D01*
X197947511Y-70021794D01*
X197896000Y-70033000D01*
X197810213Y-70033000D01*
X197743174Y-70013315D01*
X197697419Y-69960511D01*
X197686923Y-69922251D01*
X197684791Y-69902416D01*
X197634497Y-69767571D01*
X197634495Y-69767568D01*
X197632058Y-69764313D01*
X197585233Y-69701762D01*
X197560816Y-69636298D01*
X197560500Y-69627451D01*
X197560500Y-69562065D01*
X197565424Y-69527469D01*
X197566984Y-69522100D01*
X197587643Y-69450993D01*
X197590500Y-69414690D01*
X197590500Y-68945310D01*
X197587643Y-68909007D01*
X197575424Y-68866948D01*
X197570500Y-68832353D01*
X197570500Y-68572065D01*
X197575424Y-68537469D01*
X197580812Y-68518925D01*
X197597643Y-68460993D01*
X197600500Y-68424690D01*
X197600500Y-67955310D01*
X197597643Y-67919007D01*
X197575423Y-67842528D01*
X197570500Y-67807934D01*
X197570500Y-67592065D01*
X197575422Y-67557475D01*
X197595382Y-67488773D01*
X197608785Y-67460000D01*
X198030000Y-67460000D01*
X198030000Y-67940000D01*
X198558790Y-67940000D01*
X198557145Y-67919089D01*
X198512032Y-67763806D01*
X198511632Y-67763130D01*
X198511478Y-67762526D01*
X198508934Y-67756646D01*
X198509882Y-67756235D01*
X198494444Y-67695408D01*
X198509638Y-67643658D01*
X198508934Y-67643354D01*
X198511404Y-67637645D01*
X198511632Y-67636870D01*
X198512031Y-67636193D01*
X198557145Y-67480910D01*
X198558790Y-67460000D01*
X198030000Y-67460000D01*
X197608785Y-67460000D01*
X197611352Y-67454488D01*
X197642084Y-67408495D01*
X197642085Y-67408491D01*
X197642087Y-67408489D01*
X197655503Y-67376099D01*
X197676866Y-67324523D01*
X197698659Y-67271912D01*
X197707310Y-67228422D01*
X200289500Y-67228422D01*
X200320290Y-67422826D01*
X200381117Y-67610029D01*
X200458819Y-67762526D01*
X200470476Y-67785405D01*
X200586172Y-67944646D01*
X200725354Y-68083828D01*
X200884595Y-68199524D01*
X200942202Y-68228876D01*
X201059970Y-68288882D01*
X201059972Y-68288882D01*
X201059975Y-68288884D01*
X201108341Y-68304599D01*
X201247173Y-68349709D01*
X201441578Y-68380500D01*
X201441583Y-68380500D01*
X201638422Y-68380500D01*
X201832826Y-68349709D01*
X201874522Y-68336161D01*
X202020025Y-68288884D01*
X202195405Y-68199524D01*
X202354646Y-68083828D01*
X202493828Y-67944646D01*
X202609524Y-67785405D01*
X202698884Y-67610025D01*
X202759709Y-67422826D01*
X202790500Y-67228422D01*
X202790500Y-67031577D01*
X202759709Y-66837173D01*
X202711770Y-66689634D01*
X202698884Y-66649975D01*
X202698882Y-66649972D01*
X202698882Y-66649970D01*
X202609523Y-66474594D01*
X202493828Y-66315354D01*
X202354646Y-66176172D01*
X202195405Y-66060476D01*
X202150838Y-66037768D01*
X202020029Y-65971117D01*
X201832826Y-65910290D01*
X201638422Y-65879500D01*
X201638417Y-65879500D01*
X201441583Y-65879500D01*
X201441578Y-65879500D01*
X201247173Y-65910290D01*
X201059970Y-65971117D01*
X200884594Y-66060476D01*
X200795166Y-66125450D01*
X200725354Y-66176172D01*
X200725352Y-66176174D01*
X200725351Y-66176174D01*
X200586174Y-66315351D01*
X200586174Y-66315352D01*
X200586172Y-66315354D01*
X200541104Y-66377384D01*
X200470476Y-66474594D01*
X200381117Y-66649970D01*
X200320290Y-66837173D01*
X200289500Y-67031577D01*
X200289500Y-67228422D01*
X197707310Y-67228422D01*
X197725557Y-67136685D01*
X197726528Y-67131801D01*
X197727500Y-67126921D01*
X197727500Y-66601079D01*
X197703332Y-66479584D01*
X197701628Y-66468354D01*
X197684874Y-66308944D01*
X197626379Y-66128916D01*
X197624378Y-66125450D01*
X197586613Y-66060038D01*
X197570000Y-65998038D01*
X197570000Y-65904500D01*
X197589685Y-65837461D01*
X197642489Y-65791706D01*
X197694000Y-65780500D01*
X197885500Y-65780500D01*
X197952539Y-65800185D01*
X197998294Y-65852989D01*
X198009500Y-65904500D01*
X198009500Y-66209167D01*
X198009501Y-66209189D01*
X198012334Y-66245198D01*
X198012335Y-66245200D01*
X198012335Y-66245202D01*
X198050737Y-66377384D01*
X198057131Y-66399390D01*
X198059800Y-66405557D01*
X198070000Y-66454808D01*
X198070000Y-66691638D01*
X198050315Y-66758677D01*
X198033681Y-66779319D01*
X198030000Y-66783000D01*
X198030000Y-66960000D01*
X198558790Y-66960000D01*
X198557144Y-66939084D01*
X198556007Y-66932854D01*
X198557166Y-66932642D01*
X198557342Y-66869233D01*
X198595279Y-66810560D01*
X198658914Y-66781711D01*
X198676210Y-66780497D01*
X199079180Y-66780497D01*
X199115204Y-66777663D01*
X199269393Y-66732867D01*
X199407598Y-66651133D01*
X199521135Y-66537596D01*
X199602869Y-66399391D01*
X199647665Y-66245202D01*
X199650500Y-66209179D01*
X199650499Y-66125448D01*
X199670183Y-66058411D01*
X199686813Y-66037773D01*
X199873729Y-65850858D01*
X199873733Y-65850856D01*
X199960858Y-65763731D01*
X200024968Y-65667784D01*
X200029312Y-65661283D01*
X200063685Y-65578299D01*
X200076463Y-65547450D01*
X200100500Y-65426604D01*
X200100500Y-64531793D01*
X200093102Y-64494602D01*
X200093008Y-64494130D01*
X200083018Y-64443898D01*
X200083018Y-64443897D01*
X200076464Y-64410952D01*
X200076463Y-64410951D01*
X200076463Y-64410947D01*
X200029311Y-64297113D01*
X200029310Y-64297112D01*
X200029307Y-64297106D01*
X199960858Y-64194666D01*
X199960855Y-64194662D01*
X199870637Y-64104444D01*
X199870606Y-64104415D01*
X199605925Y-63839734D01*
X199572440Y-63778411D01*
X199577424Y-63708719D01*
X199619296Y-63652786D01*
X199670036Y-63632122D01*
X199669786Y-63631189D01*
X199677216Y-63629197D01*
X199677423Y-63629114D01*
X199677636Y-63629086D01*
X199817633Y-63571097D01*
X199920565Y-63492113D01*
X199985734Y-63466919D01*
X200030647Y-63471413D01*
X200180485Y-63514944D01*
X200201399Y-63516589D01*
X200201399Y-62739761D01*
X200221084Y-62672722D01*
X200273888Y-62626967D01*
X200301207Y-62618144D01*
X200306475Y-62617096D01*
X200362350Y-62605982D01*
X200362351Y-62605982D01*
X200381328Y-62602207D01*
X200418251Y-62594863D01*
X200451591Y-62581052D01*
X200478866Y-62569755D01*
X200483739Y-62567737D01*
X200531186Y-62558300D01*
X200577399Y-62558300D01*
X200644438Y-62577985D01*
G37*
%TD.AperFunction*%
%TA.AperFunction,Conductor*%
G36*
X188757638Y-67227024D02*
G01*
X188852008Y-67254442D01*
X188888311Y-67257299D01*
X188888319Y-67257299D01*
X189249001Y-67257299D01*
X189316040Y-67276984D01*
X189361795Y-67329788D01*
X189373001Y-67381299D01*
X189373001Y-67792575D01*
X189358580Y-67845294D01*
X189360307Y-67846042D01*
X189357206Y-67853207D01*
X189312059Y-68008601D01*
X189312058Y-68008607D01*
X189309202Y-68044901D01*
X189309202Y-68454296D01*
X189312058Y-68490590D01*
X189312059Y-68490596D01*
X189357206Y-68645989D01*
X189357209Y-68645996D01*
X189369612Y-68666969D01*
X189386795Y-68734693D01*
X189369614Y-68793207D01*
X189357670Y-68813403D01*
X189315198Y-68959599D01*
X189621350Y-68959599D01*
X189684468Y-68976866D01*
X189693307Y-68982093D01*
X189693310Y-68982093D01*
X189693312Y-68982095D01*
X189848704Y-69027241D01*
X189848707Y-69027241D01*
X189848709Y-69027242D01*
X189885012Y-69030099D01*
X189885020Y-69030099D01*
X190354384Y-69030099D01*
X190354392Y-69030099D01*
X190390695Y-69027242D01*
X190390697Y-69027241D01*
X190390699Y-69027241D01*
X190450530Y-69009858D01*
X190546097Y-68982093D01*
X190554932Y-68976868D01*
X190618056Y-68959598D01*
X190637349Y-68959598D01*
X190700468Y-68976865D01*
X190709306Y-68982092D01*
X190709309Y-68982092D01*
X190709311Y-68982094D01*
X190864703Y-69027240D01*
X190864706Y-69027240D01*
X190864708Y-69027241D01*
X190901011Y-69030098D01*
X191206545Y-69030098D01*
X191273584Y-69049783D01*
X191294225Y-69066416D01*
X191349381Y-69121571D01*
X191382867Y-69182894D01*
X191385701Y-69209253D01*
X191385701Y-69988388D01*
X191402424Y-70003848D01*
X191412700Y-70006007D01*
X191462456Y-70055059D01*
X191463839Y-70061208D01*
X191481210Y-70080000D01*
X192315500Y-70080000D01*
X192382539Y-70099685D01*
X192428294Y-70152489D01*
X192439500Y-70204000D01*
X192439500Y-70564697D01*
X192442356Y-70600991D01*
X192442357Y-70600997D01*
X192487504Y-70756390D01*
X192487505Y-70756393D01*
X192487506Y-70756395D01*
X192494805Y-70768737D01*
X192569881Y-70895684D01*
X192569887Y-70895692D01*
X192638079Y-70963884D01*
X192671564Y-71025207D01*
X192669475Y-71086158D01*
X192652402Y-71144927D01*
X192652400Y-71144936D01*
X192649499Y-71181798D01*
X192649499Y-72338201D01*
X192652400Y-72375067D01*
X192652401Y-72375073D01*
X192698253Y-72532893D01*
X192698254Y-72532896D01*
X192732732Y-72591195D01*
X192750000Y-72654316D01*
X192750000Y-72919796D01*
X192776247Y-72944059D01*
X192812113Y-73004020D01*
X192809868Y-73073854D01*
X192785470Y-73113514D01*
X192786701Y-73114469D01*
X192781916Y-73120637D01*
X192698254Y-73262103D01*
X192698253Y-73262106D01*
X192652401Y-73419926D01*
X192652400Y-73419932D01*
X192649499Y-73456798D01*
X192649499Y-74613201D01*
X192652400Y-74650067D01*
X192652401Y-74650073D01*
X192696746Y-74802707D01*
X192696547Y-74872576D01*
X192658605Y-74931246D01*
X192594966Y-74960090D01*
X192577651Y-74961302D01*
X192422317Y-74961278D01*
X192355280Y-74941583D01*
X192309534Y-74888772D01*
X192299601Y-74819612D01*
X192303260Y-74802682D01*
X192347599Y-74650069D01*
X192350501Y-74613194D01*
X192350501Y-73456806D01*
X192347599Y-73419931D01*
X192345881Y-73414018D01*
X192301746Y-73262106D01*
X192301745Y-73262103D01*
X192301745Y-73262102D01*
X192218082Y-73120635D01*
X192218079Y-73120632D01*
X192213299Y-73114469D01*
X192214983Y-73113162D01*
X192186758Y-73061472D01*
X192191742Y-72991780D01*
X192223753Y-72944058D01*
X192250000Y-72919795D01*
X192250000Y-72654316D01*
X192267268Y-72591195D01*
X192269828Y-72586867D01*
X192301745Y-72532898D01*
X192347599Y-72375069D01*
X192350501Y-72338194D01*
X192350501Y-71181806D01*
X192347599Y-71144931D01*
X192301745Y-70987102D01*
X192218082Y-70845635D01*
X192218080Y-70845633D01*
X192218077Y-70845629D01*
X192101870Y-70729422D01*
X192101858Y-70729413D01*
X192070878Y-70711091D01*
X192023195Y-70660022D01*
X192010000Y-70604360D01*
X192010000Y-70580000D01*
X191464147Y-70580000D01*
X191442347Y-70593039D01*
X191411257Y-70597000D01*
X191334299Y-70597000D01*
X191297433Y-70599901D01*
X191297427Y-70599902D01*
X191139603Y-70645755D01*
X191051462Y-70697880D01*
X190983738Y-70715061D01*
X190962562Y-70712437D01*
X190854650Y-70689500D01*
X190854646Y-70689500D01*
X190665354Y-70689500D01*
X190632897Y-70696398D01*
X190480197Y-70728855D01*
X190480192Y-70728857D01*
X190307270Y-70805848D01*
X190307265Y-70805851D01*
X190154135Y-70917106D01*
X190154132Y-70917108D01*
X190108710Y-70967554D01*
X190049222Y-71004201D01*
X189979365Y-71002870D01*
X189950589Y-70989574D01*
X189854523Y-70929211D01*
X189684254Y-70869631D01*
X189684249Y-70869630D01*
X189505004Y-70849435D01*
X189504995Y-70849435D01*
X189415782Y-70859486D01*
X189346961Y-70847431D01*
X189295582Y-70800082D01*
X189277900Y-70736266D01*
X189277900Y-70063694D01*
X189277900Y-70063693D01*
X189277700Y-70062690D01*
X189253863Y-69942848D01*
X189253716Y-69942494D01*
X189247303Y-69927011D01*
X189215397Y-69849982D01*
X189210072Y-69800458D01*
X189182236Y-69786475D01*
X189163760Y-69764732D01*
X189138258Y-69726566D01*
X189138255Y-69726562D01*
X189048037Y-69636344D01*
X189048006Y-69636315D01*
X188871290Y-69459599D01*
X189315198Y-69459599D01*
X189357670Y-69605794D01*
X189357670Y-69605795D01*
X189373594Y-69632720D01*
X189390613Y-69699800D01*
X189426510Y-69724724D01*
X189436691Y-69739410D01*
X189439982Y-69744976D01*
X189439987Y-69744982D01*
X189554318Y-69859313D01*
X189554327Y-69859320D01*
X189693506Y-69941630D01*
X189848791Y-69986744D01*
X189869702Y-69988388D01*
X189869702Y-69459599D01*
X190369702Y-69459599D01*
X190369702Y-69988388D01*
X190390612Y-69986744D01*
X190545897Y-69941630D01*
X190564579Y-69930582D01*
X190632302Y-69913398D01*
X190690822Y-69930580D01*
X190709506Y-69941629D01*
X190864790Y-69986743D01*
X190885701Y-69988387D01*
X190885701Y-69459599D01*
X190369702Y-69459599D01*
X189869702Y-69459599D01*
X189315198Y-69459599D01*
X188871290Y-69459599D01*
X188159220Y-68747529D01*
X188125735Y-68686206D01*
X188122901Y-68659848D01*
X188122901Y-68335598D01*
X188142586Y-68268559D01*
X188195390Y-68222804D01*
X188246901Y-68211598D01*
X188367025Y-68211598D01*
X188367050Y-68211597D01*
X188403312Y-68208744D01*
X188558596Y-68163630D01*
X188560175Y-68162697D01*
X188561576Y-68162341D01*
X188565755Y-68160533D01*
X188566046Y-68161206D01*
X188627898Y-68145509D01*
X188686423Y-68162690D01*
X188696807Y-68168831D01*
X188852090Y-68213944D01*
X188873001Y-68215588D01*
X188873001Y-67686799D01*
X188326563Y-67686799D01*
X188308854Y-67681599D01*
X188246901Y-67681599D01*
X188179862Y-67661914D01*
X188134107Y-67609110D01*
X188122901Y-67557599D01*
X188122901Y-67376099D01*
X188142586Y-67309060D01*
X188195390Y-67263305D01*
X188246901Y-67252099D01*
X188367083Y-67252099D01*
X188367091Y-67252099D01*
X188403394Y-67249242D01*
X188479865Y-67227024D01*
X188514460Y-67222101D01*
X188723044Y-67222101D01*
X188757638Y-67227024D01*
G37*
%TD.AperFunction*%
%TA.AperFunction,Conductor*%
G36*
X180107400Y-74502000D02*
G01*
X180755228Y-74502000D01*
X180755244Y-74501999D01*
X180814772Y-74495598D01*
X180814779Y-74495596D01*
X180949486Y-74445354D01*
X180949493Y-74445350D01*
X181064587Y-74359190D01*
X181064590Y-74359187D01*
X181150750Y-74244093D01*
X181150754Y-74244086D01*
X181199822Y-74112529D01*
X181241693Y-74056595D01*
X181307157Y-74032178D01*
X181375430Y-74047030D01*
X181403685Y-74068181D01*
X181525999Y-74190495D01*
X181602535Y-74244086D01*
X181719565Y-74326032D01*
X181719567Y-74326033D01*
X181719570Y-74326035D01*
X181933737Y-74425903D01*
X181933743Y-74425904D01*
X181933744Y-74425905D01*
X181988685Y-74440626D01*
X182161992Y-74487063D01*
X182332719Y-74502000D01*
X182397399Y-74507659D01*
X182397400Y-74507659D01*
X182397401Y-74507659D01*
X182462081Y-74502000D01*
X182632808Y-74487063D01*
X182861063Y-74425903D01*
X183075230Y-74326035D01*
X183268801Y-74190495D01*
X183435895Y-74023401D01*
X183565824Y-73837842D01*
X183620401Y-73794218D01*
X183689899Y-73787024D01*
X183752254Y-73818547D01*
X183768974Y-73837842D01*
X183898904Y-74023401D01*
X184065998Y-74190495D01*
X184142534Y-74244086D01*
X184259564Y-74326032D01*
X184259566Y-74326033D01*
X184259569Y-74326035D01*
X184473736Y-74425903D01*
X184473742Y-74425904D01*
X184473743Y-74425905D01*
X184528684Y-74440626D01*
X184701991Y-74487063D01*
X184872718Y-74502000D01*
X184937398Y-74507659D01*
X184937399Y-74507659D01*
X184937400Y-74507659D01*
X185002080Y-74502000D01*
X185172807Y-74487063D01*
X185401062Y-74425903D01*
X185615229Y-74326035D01*
X185808800Y-74190495D01*
X185808814Y-74190480D01*
X185809186Y-74190170D01*
X185809392Y-74190079D01*
X185813235Y-74187389D01*
X185813775Y-74188160D01*
X185873192Y-74162152D01*
X185942185Y-74173186D01*
X185976581Y-74197472D01*
X186527782Y-74748673D01*
X186561267Y-74809996D01*
X186556283Y-74879688D01*
X186514411Y-74935621D01*
X186448947Y-74960038D01*
X186440082Y-74960354D01*
X179159769Y-74959230D01*
X179159612Y-74959219D01*
X179091849Y-74959219D01*
X179079733Y-74958625D01*
X179064996Y-74957177D01*
X178948251Y-74945713D01*
X178924485Y-74941001D01*
X178803856Y-74904531D01*
X178781459Y-74895286D01*
X178670222Y-74836052D01*
X178650050Y-74822629D01*
X178552463Y-74742899D01*
X178535286Y-74725808D01*
X178455060Y-74628613D01*
X178441543Y-74608522D01*
X178381746Y-74497575D01*
X178372393Y-74475230D01*
X178355197Y-74419368D01*
X178335316Y-74354781D01*
X178330485Y-74331040D01*
X178329968Y-74326035D01*
X178328279Y-74309673D01*
X178340974Y-74240967D01*
X178388800Y-74190031D01*
X178456571Y-74173038D01*
X178522772Y-74195382D01*
X178560454Y-74237510D01*
X178564047Y-74244091D01*
X178650209Y-74359187D01*
X178650212Y-74359190D01*
X178765306Y-74445350D01*
X178765313Y-74445354D01*
X178900020Y-74495596D01*
X178900027Y-74495598D01*
X178959555Y-74501999D01*
X178959572Y-74502000D01*
X179607400Y-74502000D01*
X179607400Y-73585012D01*
X179664407Y-73617925D01*
X179791574Y-73652000D01*
X179923226Y-73652000D01*
X180050393Y-73617925D01*
X180107400Y-73585012D01*
X180107400Y-74502000D01*
G37*
%TD.AperFunction*%
%TA.AperFunction,Conductor*%
G36*
X201711339Y-54353485D02*
G01*
X201757094Y-54406289D01*
X201768300Y-54457800D01*
X201768300Y-54609800D01*
X201748615Y-54676839D01*
X201695811Y-54722594D01*
X201644300Y-54733800D01*
X201418800Y-54733800D01*
X201418800Y-55763310D01*
X201418801Y-55763311D01*
X201475422Y-55755858D01*
X201475427Y-55755856D01*
X201496345Y-55747192D01*
X201565814Y-55739723D01*
X201591252Y-55747192D01*
X201612167Y-55755855D01*
X201729475Y-55771299D01*
X201767321Y-55771299D01*
X201834361Y-55790982D01*
X201880117Y-55843785D01*
X201890062Y-55912943D01*
X201864276Y-55972606D01*
X201860185Y-55977735D01*
X201764211Y-56130476D01*
X201704631Y-56300745D01*
X201704630Y-56300750D01*
X201684435Y-56479996D01*
X201684435Y-56480003D01*
X201704630Y-56659249D01*
X201704631Y-56659254D01*
X201764211Y-56829523D01*
X201817169Y-56913804D01*
X201860184Y-56982262D01*
X201987738Y-57109816D01*
X202140478Y-57205789D01*
X202294550Y-57259701D01*
X202310745Y-57265368D01*
X202310750Y-57265369D01*
X202489996Y-57285565D01*
X202490000Y-57285565D01*
X202490004Y-57285565D01*
X202676176Y-57264589D01*
X202676327Y-57265933D01*
X202738534Y-57269734D01*
X202784088Y-57298678D01*
X204308291Y-58822881D01*
X204341776Y-58884204D01*
X204336792Y-58953896D01*
X204294920Y-59009829D01*
X204236796Y-59033501D01*
X204212171Y-59036743D01*
X204212166Y-59036744D01*
X204191249Y-59045408D01*
X204121779Y-59052875D01*
X204096348Y-59045408D01*
X204075430Y-59036743D01*
X204018800Y-59029287D01*
X204018800Y-60058800D01*
X204944300Y-60058800D01*
X205011339Y-60078485D01*
X205057094Y-60131289D01*
X205068300Y-60182799D01*
X205068301Y-60334799D01*
X205048617Y-60401839D01*
X204995813Y-60447594D01*
X204944301Y-60458800D01*
X204668800Y-60458800D01*
X204668800Y-60909800D01*
X204693602Y-60909800D01*
X204760641Y-60929485D01*
X204806396Y-60982289D01*
X204817602Y-61033800D01*
X204817602Y-61512366D01*
X204817220Y-61522094D01*
X204817100Y-61523611D01*
X204817100Y-62021969D01*
X204817101Y-62021991D01*
X204819445Y-62051777D01*
X204819935Y-62058004D01*
X204843001Y-62137399D01*
X204844676Y-62143162D01*
X204849600Y-62177757D01*
X204849600Y-62290445D01*
X204832334Y-62353563D01*
X204827107Y-62362400D01*
X204827104Y-62362408D01*
X204781957Y-62517802D01*
X204781956Y-62517808D01*
X204779100Y-62554102D01*
X204779100Y-62914800D01*
X204759415Y-62981839D01*
X204706611Y-63027594D01*
X204655100Y-63038800D01*
X203820810Y-63038800D01*
X203822454Y-63059710D01*
X203867568Y-63214995D01*
X203949878Y-63354174D01*
X203949885Y-63354183D01*
X204064216Y-63468514D01*
X204064225Y-63468521D01*
X204203403Y-63550830D01*
X204358690Y-63595945D01*
X204361391Y-63596158D01*
X204362805Y-63596696D01*
X204364924Y-63597084D01*
X204364852Y-63597477D01*
X204426680Y-63621040D01*
X204468152Y-63677270D01*
X204474985Y-63706811D01*
X204489326Y-63843256D01*
X204489327Y-63843259D01*
X204547818Y-64023277D01*
X204547821Y-64023284D01*
X204642465Y-64187213D01*
X204642465Y-64187214D01*
X204769129Y-64327888D01*
X204922265Y-64439148D01*
X204922270Y-64439151D01*
X205095192Y-64516142D01*
X205095197Y-64516144D01*
X205210179Y-64540584D01*
X205271661Y-64573776D01*
X205305437Y-64634939D01*
X205300785Y-64704654D01*
X205299827Y-64707175D01*
X205284665Y-64745806D01*
X205284664Y-64745811D01*
X205224616Y-65008898D01*
X205204451Y-65277995D01*
X205204451Y-65278004D01*
X205220392Y-65490743D01*
X205205772Y-65559066D01*
X205156535Y-65608639D01*
X205088313Y-65623722D01*
X205022766Y-65599528D01*
X205009058Y-65587690D01*
X202655619Y-63234251D01*
X202622134Y-63172928D01*
X202619300Y-63146570D01*
X202619300Y-62022800D01*
X203797671Y-62022800D01*
X203800434Y-62057922D01*
X203800435Y-62057928D01*
X203845194Y-62211988D01*
X203845197Y-62211995D01*
X203863589Y-62243095D01*
X203880772Y-62310819D01*
X203870661Y-62355455D01*
X203867568Y-62362602D01*
X203822455Y-62517881D01*
X203822454Y-62517887D01*
X203820809Y-62538799D01*
X203820810Y-62538800D01*
X204317602Y-62538800D01*
X204317602Y-62022800D01*
X203797671Y-62022800D01*
X202619300Y-62022800D01*
X202619300Y-61610155D01*
X202638985Y-61543116D01*
X202691789Y-61497361D01*
X202727116Y-61487216D01*
X202775429Y-61480856D01*
X202775431Y-61480855D01*
X202796347Y-61472192D01*
X202865817Y-61464723D01*
X202891253Y-61472192D01*
X202912168Y-61480855D01*
X202912177Y-61480858D01*
X202968798Y-61488311D01*
X202968800Y-61488310D01*
X202968800Y-60458800D01*
X203368800Y-60458800D01*
X203368800Y-61488310D01*
X203368801Y-61488311D01*
X203425422Y-61480858D01*
X203425427Y-61480856D01*
X203446345Y-61472192D01*
X203515814Y-61464723D01*
X203541252Y-61472192D01*
X203562167Y-61480855D01*
X203679476Y-61496299D01*
X203718932Y-61496299D01*
X203785972Y-61515982D01*
X203794101Y-61522800D01*
X204268800Y-61522800D01*
X204268800Y-60458800D01*
X203368800Y-60458800D01*
X202968800Y-60458800D01*
X202743300Y-60458800D01*
X202676261Y-60439115D01*
X202630506Y-60386311D01*
X202619300Y-60334800D01*
X202619300Y-60182800D01*
X202638985Y-60115761D01*
X202691789Y-60070006D01*
X202743300Y-60058800D01*
X202968800Y-60058800D01*
X203368800Y-60058800D01*
X203618800Y-60058800D01*
X203618800Y-59029287D01*
X203562170Y-59036743D01*
X203541249Y-59045409D01*
X203471780Y-59052875D01*
X203446351Y-59045409D01*
X203425429Y-59036743D01*
X203368800Y-59029287D01*
X203368800Y-60058800D01*
X202968800Y-60058800D01*
X202968800Y-59029287D01*
X202912170Y-59036743D01*
X202891249Y-59045409D01*
X202821780Y-59052875D01*
X202796351Y-59045409D01*
X202775429Y-59036743D01*
X202718800Y-59029287D01*
X202718800Y-59246997D01*
X202699115Y-59314036D01*
X202646311Y-59359791D01*
X202577153Y-59369735D01*
X202513597Y-59340710D01*
X202496424Y-59322484D01*
X202457618Y-59271911D01*
X202397082Y-59193018D01*
X202397080Y-59193017D01*
X202397080Y-59193016D01*
X202367311Y-59170173D01*
X202326110Y-59113744D01*
X202318800Y-59071799D01*
X202318800Y-59029287D01*
X202262170Y-59036743D01*
X202241903Y-59045138D01*
X202172433Y-59052604D01*
X202147003Y-59045137D01*
X202125562Y-59036256D01*
X202125560Y-59036255D01*
X202008161Y-59020800D01*
X201729436Y-59020800D01*
X201612041Y-59036254D01*
X201612039Y-59036255D01*
X201590596Y-59045137D01*
X201521127Y-59052604D01*
X201495695Y-59045137D01*
X201475431Y-59036744D01*
X201418800Y-59029287D01*
X201418800Y-59071799D01*
X201399115Y-59138838D01*
X201370289Y-59170173D01*
X201340519Y-59193016D01*
X201289339Y-59259716D01*
X201279982Y-59271911D01*
X201241176Y-59322484D01*
X201184748Y-59363686D01*
X201115002Y-59367841D01*
X201054081Y-59333629D01*
X201021329Y-59271911D01*
X201018800Y-59246997D01*
X201018800Y-59029287D01*
X200962170Y-59036743D01*
X200941249Y-59045409D01*
X200871780Y-59052875D01*
X200846351Y-59045409D01*
X200825429Y-59036743D01*
X200768800Y-59029287D01*
X200768800Y-60058800D01*
X200994300Y-60058800D01*
X201061339Y-60078485D01*
X201107094Y-60131289D01*
X201118300Y-60182800D01*
X201118300Y-60334800D01*
X201098615Y-60401839D01*
X201045811Y-60447594D01*
X200994300Y-60458800D01*
X200492800Y-60458800D01*
X200425761Y-60439115D01*
X200380006Y-60386311D01*
X200368800Y-60334800D01*
X200368800Y-59029287D01*
X200312168Y-59036744D01*
X200274350Y-59052408D01*
X200204881Y-59059875D01*
X200142402Y-59028599D01*
X200106751Y-58968509D01*
X200102900Y-58937846D01*
X200102900Y-58880686D01*
X200102900Y-58880680D01*
X200088087Y-58768164D01*
X200088086Y-58768163D01*
X200087026Y-58760105D01*
X200090089Y-58759701D01*
X200090089Y-58727098D01*
X200087026Y-58726695D01*
X200091215Y-58694875D01*
X200102900Y-58606120D01*
X200102900Y-58380680D01*
X200088087Y-58268164D01*
X200088086Y-58268163D01*
X200087026Y-58260105D01*
X200090092Y-58259701D01*
X200090100Y-58227100D01*
X200087026Y-58226696D01*
X200088087Y-58218637D01*
X200102900Y-58106121D01*
X200102900Y-57880681D01*
X200088087Y-57768165D01*
X200088086Y-57768164D01*
X200087026Y-57760108D01*
X200090073Y-57759706D01*
X200090073Y-57727096D01*
X200087026Y-57726695D01*
X200089725Y-57706194D01*
X200102900Y-57606120D01*
X200102900Y-57380680D01*
X200088087Y-57268164D01*
X200088086Y-57268163D01*
X200087026Y-57260105D01*
X200090089Y-57259701D01*
X200090089Y-57227098D01*
X200087026Y-57226695D01*
X200089131Y-57210703D01*
X200102900Y-57106120D01*
X200102900Y-56880680D01*
X200088087Y-56768164D01*
X200088086Y-56768163D01*
X200087026Y-56760105D01*
X200090089Y-56759701D01*
X200090089Y-56727098D01*
X200087026Y-56726695D01*
X200095770Y-56660278D01*
X200102900Y-56606120D01*
X200102900Y-56380680D01*
X200088087Y-56268164D01*
X200088086Y-56268163D01*
X200087026Y-56260105D01*
X200088806Y-56259870D01*
X200086596Y-56226129D01*
X200097488Y-56143400D01*
X200095598Y-56141245D01*
X200035897Y-56123715D01*
X200004561Y-56094887D01*
X199984608Y-56068883D01*
X199959416Y-56003716D01*
X199973455Y-55935271D01*
X199984605Y-55917921D01*
X200004563Y-55891910D01*
X200060990Y-55850710D01*
X200096505Y-55844520D01*
X200106683Y-55832914D01*
X200111713Y-55800660D01*
X200158091Y-55748402D01*
X200225360Y-55729515D01*
X200271340Y-55738945D01*
X200312166Y-55755855D01*
X200312172Y-55755857D01*
X200368798Y-55763311D01*
X200368800Y-55763310D01*
X200368800Y-55644640D01*
X200388485Y-55577601D01*
X200405119Y-55556959D01*
X200416476Y-55545602D01*
X200454816Y-55507262D01*
X200539806Y-55372000D01*
X200592141Y-55325710D01*
X200661194Y-55315062D01*
X200725043Y-55343437D01*
X200763415Y-55401827D01*
X200768800Y-55437973D01*
X200768800Y-55763310D01*
X200768801Y-55763311D01*
X200825422Y-55755858D01*
X200825431Y-55755855D01*
X200846347Y-55747192D01*
X200915817Y-55739723D01*
X200941253Y-55747192D01*
X200962168Y-55755855D01*
X200962177Y-55755858D01*
X201018798Y-55763311D01*
X201018800Y-55763310D01*
X201018800Y-54733800D01*
X200768799Y-54733800D01*
X200767145Y-54735454D01*
X200705822Y-54768939D01*
X200636130Y-54763953D01*
X200580197Y-54722081D01*
X200562423Y-54688726D01*
X200550788Y-54655474D01*
X200468033Y-54523772D01*
X200449032Y-54456536D01*
X200469399Y-54389701D01*
X200522667Y-54344486D01*
X200573026Y-54333800D01*
X201644300Y-54333800D01*
X201711339Y-54353485D01*
G37*
%TD.AperFunction*%
%TA.AperFunction,Conductor*%
G36*
X185248843Y-64984784D02*
G01*
X185269485Y-65001418D01*
X185298796Y-65030729D01*
X185298800Y-65030732D01*
X185298802Y-65030734D01*
X185416608Y-65100404D01*
X185464290Y-65151472D01*
X185476794Y-65220213D01*
X185450149Y-65284803D01*
X185392814Y-65324733D01*
X185379268Y-65328425D01*
X185330196Y-65338856D01*
X185330192Y-65338857D01*
X185157270Y-65415848D01*
X185157265Y-65415851D01*
X185143548Y-65425818D01*
X185077742Y-65449298D01*
X185070663Y-65449500D01*
X180912369Y-65449500D01*
X180845330Y-65429815D01*
X180799575Y-65377011D01*
X180789631Y-65307853D01*
X180818656Y-65244297D01*
X180828831Y-65233863D01*
X180975866Y-65099823D01*
X181040396Y-65014372D01*
X181096505Y-64972736D01*
X181139350Y-64965099D01*
X185181804Y-64965099D01*
X185248843Y-64984784D01*
G37*
%TD.AperFunction*%
%TA.AperFunction,Conductor*%
G36*
X208290251Y-50961092D02*
G01*
X208421747Y-50974005D01*
X208445511Y-50978717D01*
X208469813Y-50986064D01*
X208566144Y-51015188D01*
X208588527Y-51024426D01*
X208699774Y-51083667D01*
X208719941Y-51097088D01*
X208817530Y-51176821D01*
X208834704Y-51193909D01*
X208914927Y-51291101D01*
X208928447Y-51311199D01*
X208988236Y-51422134D01*
X208997593Y-51444485D01*
X209034666Y-51564929D01*
X209039497Y-51588673D01*
X209053070Y-51720135D01*
X209053726Y-51732895D01*
X209051042Y-65106491D01*
X209031344Y-65173526D01*
X208978531Y-65219271D01*
X208909370Y-65229200D01*
X208845820Y-65200163D01*
X208808058Y-65141377D01*
X208803389Y-65115732D01*
X208795383Y-65008898D01*
X208735335Y-64745811D01*
X208735334Y-64745806D01*
X208735334Y-64745805D01*
X208636743Y-64494602D01*
X208501815Y-64260898D01*
X208333561Y-64049915D01*
X208333560Y-64049914D01*
X208333557Y-64049910D01*
X208135741Y-63866365D01*
X208101846Y-63843256D01*
X207912775Y-63714349D01*
X207912771Y-63714347D01*
X207912768Y-63714345D01*
X207912767Y-63714344D01*
X207669643Y-63597263D01*
X207669645Y-63597263D01*
X207411773Y-63517720D01*
X207411767Y-63517718D01*
X207144936Y-63477500D01*
X207144929Y-63477500D01*
X206875071Y-63477500D01*
X206875063Y-63477500D01*
X206608232Y-63517718D01*
X206608222Y-63517721D01*
X206470649Y-63560156D01*
X206400786Y-63561106D01*
X206341500Y-63524134D01*
X206311613Y-63460979D01*
X206310100Y-63441665D01*
X206310100Y-63314085D01*
X206329785Y-63247046D01*
X206346419Y-63226404D01*
X207001748Y-62571075D01*
X207001751Y-62571072D01*
X207083884Y-62448151D01*
X207084457Y-62446769D01*
X207096702Y-62417203D01*
X207140458Y-62311569D01*
X207149896Y-62264118D01*
X207169300Y-62166576D01*
X207169300Y-60184879D01*
X207140459Y-60039892D01*
X207140458Y-60039891D01*
X207140458Y-60039887D01*
X207140456Y-60039882D01*
X207128738Y-60011591D01*
X207119299Y-59964139D01*
X207119299Y-59581936D01*
X207103846Y-59464546D01*
X207103844Y-59464541D01*
X207103844Y-59464538D01*
X207043336Y-59318459D01*
X206947082Y-59193018D01*
X206821641Y-59096764D01*
X206675562Y-59036256D01*
X206675560Y-59036255D01*
X206558162Y-59020800D01*
X206326754Y-59020800D01*
X206259715Y-59001115D01*
X206239073Y-58984481D01*
X203342928Y-56088338D01*
X203342925Y-56088334D01*
X203342925Y-56088335D01*
X203335858Y-56081268D01*
X203335858Y-56081267D01*
X203248733Y-55994142D01*
X203248732Y-55994141D01*
X203248731Y-55994140D01*
X203244053Y-55990301D01*
X203204718Y-55932556D01*
X203202847Y-55862711D01*
X203239034Y-55802943D01*
X203301789Y-55772226D01*
X203306533Y-55771508D01*
X203425428Y-55755856D01*
X203425431Y-55755855D01*
X203446347Y-55747192D01*
X203515817Y-55739723D01*
X203541253Y-55747192D01*
X203562168Y-55755855D01*
X203562177Y-55755858D01*
X203618798Y-55763311D01*
X203618800Y-55763310D01*
X203618800Y-54733800D01*
X204018800Y-54733800D01*
X204018800Y-55763310D01*
X204018801Y-55763311D01*
X204075422Y-55755858D01*
X204075431Y-55755855D01*
X204096347Y-55747192D01*
X204165817Y-55739723D01*
X204191253Y-55747192D01*
X204212168Y-55755855D01*
X204212177Y-55755858D01*
X204268798Y-55763311D01*
X204268800Y-55763310D01*
X204268800Y-54733800D01*
X204668800Y-54733800D01*
X204668800Y-55763310D01*
X204668801Y-55763311D01*
X204725422Y-55755858D01*
X204725431Y-55755855D01*
X204746347Y-55747192D01*
X204815817Y-55739723D01*
X204841253Y-55747192D01*
X204862168Y-55755855D01*
X204862177Y-55755858D01*
X204918798Y-55763311D01*
X204918800Y-55763310D01*
X204918800Y-54733800D01*
X204668800Y-54733800D01*
X204268800Y-54733800D01*
X204018800Y-54733800D01*
X203618800Y-54733800D01*
X203393300Y-54733800D01*
X203326261Y-54714115D01*
X203280506Y-54661311D01*
X203269300Y-54609800D01*
X203269300Y-54457800D01*
X203288985Y-54390761D01*
X203341789Y-54345006D01*
X203393300Y-54333800D01*
X205594300Y-54333800D01*
X205661339Y-54353485D01*
X205707094Y-54406289D01*
X205718300Y-54457800D01*
X205718300Y-54609800D01*
X205698615Y-54676839D01*
X205645811Y-54722594D01*
X205594300Y-54733800D01*
X205318800Y-54733800D01*
X205318800Y-55763310D01*
X205318801Y-55763311D01*
X205375422Y-55755858D01*
X205375431Y-55755855D01*
X205396347Y-55747192D01*
X205465817Y-55739723D01*
X205491253Y-55747192D01*
X205512168Y-55755855D01*
X205512177Y-55755858D01*
X205568798Y-55763311D01*
X205568800Y-55763310D01*
X205568800Y-55545602D01*
X205588485Y-55478563D01*
X205641289Y-55432808D01*
X205710447Y-55422864D01*
X205774003Y-55451889D01*
X205791176Y-55470116D01*
X205794263Y-55474139D01*
X205794264Y-55474141D01*
X205890518Y-55599582D01*
X205920285Y-55622423D01*
X205961488Y-55678848D01*
X205968800Y-55720799D01*
X205968800Y-55763310D01*
X206025431Y-55755855D01*
X206045687Y-55747465D01*
X206115156Y-55739993D01*
X206140598Y-55747463D01*
X206162038Y-55756344D01*
X206279439Y-55771800D01*
X206558160Y-55771799D01*
X206558163Y-55771799D01*
X206675553Y-55756346D01*
X206675557Y-55756344D01*
X206675562Y-55756344D01*
X206821641Y-55695836D01*
X206947082Y-55599582D01*
X207043336Y-55474141D01*
X207103844Y-55328062D01*
X207119300Y-55210661D01*
X207119299Y-53856940D01*
X207119299Y-53856939D01*
X207119299Y-53856936D01*
X207103846Y-53739546D01*
X207103844Y-53739541D01*
X207103844Y-53739538D01*
X207070749Y-53659641D01*
X207063281Y-53590173D01*
X207078579Y-53549069D01*
X207152667Y-53423793D01*
X207197463Y-53269604D01*
X207200298Y-53233581D01*
X207200297Y-52735220D01*
X207197463Y-52699196D01*
X207152667Y-52545007D01*
X207070933Y-52406802D01*
X207070931Y-52406800D01*
X207070928Y-52406796D01*
X206957401Y-52293269D01*
X206957393Y-52293263D01*
X206819191Y-52211531D01*
X206819186Y-52211529D01*
X206665006Y-52166735D01*
X206665000Y-52166734D01*
X206628986Y-52163900D01*
X206628979Y-52163900D01*
X206545250Y-52163900D01*
X206478211Y-52144215D01*
X206457569Y-52127581D01*
X206274996Y-51945008D01*
X206274976Y-51944986D01*
X206183531Y-51853541D01*
X206132307Y-51819315D01*
X206092748Y-51792882D01*
X206081084Y-51785088D01*
X206081081Y-51785086D01*
X206081078Y-51785085D01*
X206000590Y-51751747D01*
X205967250Y-51737937D01*
X205967242Y-51737935D01*
X205878333Y-51720249D01*
X205878324Y-51720249D01*
X205846405Y-51713900D01*
X205846404Y-51713900D01*
X204492207Y-51713900D01*
X204368993Y-51713900D01*
X204337072Y-51720249D01*
X204337071Y-51720248D01*
X204248155Y-51737935D01*
X204248147Y-51737937D01*
X204134316Y-51785087D01*
X204134307Y-51785092D01*
X204031868Y-51853540D01*
X204010058Y-51875351D01*
X203944742Y-51940667D01*
X203480981Y-52404428D01*
X203419658Y-52437913D01*
X203349966Y-52432929D01*
X203294033Y-52391057D01*
X203269616Y-52325593D01*
X203269300Y-52316747D01*
X203269300Y-52229279D01*
X203240459Y-52084292D01*
X203240458Y-52084291D01*
X203240458Y-52084287D01*
X203219875Y-52034594D01*
X203183887Y-51947711D01*
X203183880Y-51947698D01*
X203101752Y-51824785D01*
X203062052Y-51785085D01*
X202997216Y-51720249D01*
X202861533Y-51584566D01*
X202449981Y-51173012D01*
X202416496Y-51111689D01*
X202421480Y-51041997D01*
X202463352Y-50986064D01*
X202528816Y-50961647D01*
X202537638Y-50961331D01*
X208278134Y-50960499D01*
X208290251Y-50961092D01*
G37*
%TD.AperFunction*%
%TA.AperFunction,Conductor*%
G36*
X192548705Y-50982463D02*
G01*
X192594468Y-51035260D01*
X192604421Y-51104417D01*
X192575406Y-51167977D01*
X192569362Y-51174469D01*
X192355450Y-51388380D01*
X192355444Y-51388388D01*
X192306212Y-51462068D01*
X192306213Y-51462069D01*
X192273321Y-51511296D01*
X192273314Y-51511308D01*
X192216742Y-51647886D01*
X192216740Y-51647892D01*
X192187900Y-51792879D01*
X192187900Y-52174251D01*
X192168215Y-52241290D01*
X192115411Y-52287045D01*
X192047718Y-52297191D01*
X192015123Y-52292900D01*
X192015121Y-52292900D01*
X191789681Y-52292900D01*
X191789673Y-52292900D01*
X191702794Y-52304338D01*
X191677165Y-52307713D01*
X191677163Y-52307713D01*
X191669109Y-52308774D01*
X191668718Y-52305810D01*
X191636083Y-52305802D01*
X191635692Y-52308774D01*
X191627637Y-52307713D01*
X191627636Y-52307713D01*
X191598671Y-52303899D01*
X191515127Y-52292900D01*
X191515120Y-52292900D01*
X191289680Y-52292900D01*
X191289672Y-52292900D01*
X191202793Y-52304338D01*
X191177164Y-52307713D01*
X191177162Y-52307713D01*
X191169108Y-52308774D01*
X191168716Y-52305799D01*
X191136084Y-52305799D01*
X191135692Y-52308774D01*
X191127637Y-52307713D01*
X191127636Y-52307713D01*
X191098671Y-52303899D01*
X191015127Y-52292900D01*
X191015120Y-52292900D01*
X190789680Y-52292900D01*
X190789672Y-52292900D01*
X190702793Y-52304338D01*
X190677164Y-52307713D01*
X190677162Y-52307713D01*
X190669108Y-52308774D01*
X190668716Y-52305799D01*
X190636084Y-52305799D01*
X190635692Y-52308774D01*
X190627637Y-52307713D01*
X190627636Y-52307713D01*
X190598671Y-52303899D01*
X190515127Y-52292900D01*
X190515120Y-52292900D01*
X190289680Y-52292900D01*
X190289672Y-52292900D01*
X190194192Y-52305471D01*
X190177164Y-52307713D01*
X190177163Y-52307713D01*
X190169107Y-52308774D01*
X190168872Y-52306995D01*
X190135129Y-52309204D01*
X190052400Y-52298311D01*
X190050245Y-52300201D01*
X190032715Y-52359902D01*
X190003885Y-52391240D01*
X189977885Y-52411190D01*
X189912716Y-52436383D01*
X189844271Y-52422344D01*
X189826915Y-52411190D01*
X189808649Y-52397174D01*
X189800914Y-52391238D01*
X189759711Y-52334812D01*
X189753520Y-52299295D01*
X189752399Y-52298311D01*
X189669670Y-52309204D01*
X189635927Y-52306993D01*
X189635693Y-52308774D01*
X189627638Y-52307713D01*
X189627637Y-52307713D01*
X189598672Y-52303899D01*
X189515128Y-52292900D01*
X189515121Y-52292900D01*
X189355765Y-52292900D01*
X189288726Y-52273215D01*
X189242971Y-52220411D01*
X189236688Y-52203494D01*
X189202031Y-52084203D01*
X189119721Y-51945024D01*
X189119714Y-51945015D01*
X189005383Y-51830684D01*
X189005374Y-51830677D01*
X188866195Y-51748367D01*
X188866190Y-51748365D01*
X188710918Y-51703254D01*
X188710912Y-51703253D01*
X188690000Y-51701608D01*
X188690000Y-52535899D01*
X188670315Y-52602938D01*
X188617511Y-52648693D01*
X188566000Y-52659899D01*
X188205302Y-52659899D01*
X188169008Y-52662755D01*
X188169005Y-52662756D01*
X188116925Y-52677887D01*
X188101477Y-52682375D01*
X188066883Y-52687299D01*
X187834066Y-52687299D01*
X187799471Y-52682375D01*
X187769929Y-52673792D01*
X187722994Y-52660156D01*
X187722991Y-52660155D01*
X187686697Y-52657299D01*
X187686690Y-52657299D01*
X187217310Y-52657299D01*
X187217302Y-52657299D01*
X187181008Y-52660155D01*
X187181005Y-52660156D01*
X187122835Y-52677056D01*
X187104528Y-52682375D01*
X187069934Y-52687299D01*
X186969772Y-52687299D01*
X186928817Y-52680341D01*
X186849054Y-52652430D01*
X186849049Y-52652429D01*
X186669804Y-52632234D01*
X186669796Y-52632234D01*
X186490550Y-52652429D01*
X186490545Y-52652430D01*
X186320276Y-52712010D01*
X186167537Y-52807983D01*
X186039984Y-52935536D01*
X185944011Y-53088275D01*
X185884431Y-53258544D01*
X185884430Y-53258549D01*
X185864235Y-53437795D01*
X185864235Y-53437802D01*
X185884430Y-53617048D01*
X185884431Y-53617053D01*
X185944011Y-53787322D01*
X186020980Y-53909816D01*
X186039984Y-53940061D01*
X186167538Y-54067615D01*
X186257880Y-54124381D01*
X186303613Y-54153117D01*
X186320278Y-54163588D01*
X186468465Y-54215441D01*
X186490545Y-54223167D01*
X186490550Y-54223168D01*
X186669796Y-54243364D01*
X186669800Y-54243364D01*
X186669804Y-54243364D01*
X186849049Y-54223168D01*
X186849052Y-54223167D01*
X186849055Y-54223167D01*
X186928817Y-54195256D01*
X186969772Y-54188299D01*
X187069934Y-54188299D01*
X187104528Y-54193222D01*
X187181007Y-54215442D01*
X187217310Y-54218299D01*
X187217318Y-54218299D01*
X187686682Y-54218299D01*
X187686690Y-54218299D01*
X187722993Y-54215442D01*
X187799471Y-54193222D01*
X187834066Y-54188299D01*
X188048985Y-54188299D01*
X188083579Y-54193222D01*
X188169007Y-54218042D01*
X188205310Y-54220899D01*
X188205318Y-54220899D01*
X188631936Y-54220899D01*
X188698975Y-54240584D01*
X188744730Y-54293388D01*
X188754875Y-54328713D01*
X188760993Y-54375184D01*
X188766714Y-54418636D01*
X188824703Y-54558633D01*
X188916950Y-54678851D01*
X188993292Y-54737430D01*
X189034493Y-54793858D01*
X189038648Y-54863604D01*
X189005486Y-54923486D01*
X188963498Y-54965474D01*
X188907844Y-55021127D01*
X188846523Y-55054612D01*
X188776831Y-55049628D01*
X188732483Y-55021127D01*
X188718898Y-55007542D01*
X188655939Y-54965475D01*
X188616451Y-54939089D01*
X188616452Y-54939089D01*
X188616450Y-54939088D01*
X188576204Y-54922418D01*
X188535957Y-54905748D01*
X188502618Y-54891938D01*
X188492592Y-54889944D01*
X188442194Y-54879919D01*
X188381775Y-54867901D01*
X188381772Y-54867901D01*
X188381771Y-54867901D01*
X188376895Y-54867901D01*
X188335528Y-54859672D01*
X188335490Y-54859818D01*
X188333273Y-54859224D01*
X188329442Y-54858462D01*
X188327637Y-54857714D01*
X188215127Y-54842901D01*
X188215120Y-54842901D01*
X186739680Y-54842901D01*
X186739672Y-54842901D01*
X186627164Y-54857714D01*
X186627163Y-54857714D01*
X186487170Y-54915701D01*
X186487167Y-54915702D01*
X186487167Y-54915703D01*
X186366949Y-55007950D01*
X186300406Y-55094671D01*
X186274700Y-55128171D01*
X186216713Y-55268164D01*
X186216713Y-55268165D01*
X186201900Y-55380673D01*
X186201900Y-55606128D01*
X186217774Y-55726694D01*
X186214775Y-55727088D01*
X186214791Y-55759715D01*
X186217774Y-55760108D01*
X186216713Y-55768162D01*
X186216713Y-55768164D01*
X186216178Y-55772226D01*
X186201900Y-55880672D01*
X186201900Y-56106127D01*
X186217774Y-56226692D01*
X186214799Y-56227083D01*
X186214799Y-56259716D01*
X186217774Y-56260108D01*
X186201900Y-56380672D01*
X186201900Y-56606127D01*
X186217774Y-56726692D01*
X186214799Y-56727083D01*
X186214799Y-56759716D01*
X186217774Y-56760108D01*
X186216713Y-56768162D01*
X186216713Y-56768164D01*
X186213338Y-56793793D01*
X186201900Y-56880672D01*
X186201900Y-57106127D01*
X186212899Y-57189671D01*
X186215668Y-57210702D01*
X186217774Y-57226692D01*
X186214799Y-57227083D01*
X186214799Y-57259716D01*
X186217774Y-57260108D01*
X186216713Y-57268162D01*
X186216713Y-57268164D01*
X186214422Y-57285565D01*
X186201900Y-57380672D01*
X186201900Y-57606127D01*
X186217774Y-57726692D01*
X186214802Y-57727083D01*
X186214810Y-57759718D01*
X186217774Y-57760109D01*
X186201900Y-57880673D01*
X186201900Y-58106128D01*
X186217774Y-58226694D01*
X186214775Y-58227088D01*
X186214791Y-58259715D01*
X186217774Y-58260108D01*
X186201900Y-58380672D01*
X186201900Y-58606127D01*
X186217774Y-58726692D01*
X186214799Y-58727083D01*
X186214799Y-58759716D01*
X186217774Y-58760108D01*
X186201900Y-58880672D01*
X186201900Y-59106127D01*
X186217774Y-59226692D01*
X186214799Y-59227083D01*
X186214799Y-59259716D01*
X186217774Y-59260108D01*
X186201900Y-59380672D01*
X186201900Y-59556900D01*
X186182215Y-59623939D01*
X186129411Y-59669694D01*
X186077900Y-59680900D01*
X185604630Y-59680900D01*
X185604608Y-59680901D01*
X185568594Y-59683735D01*
X185414411Y-59728529D01*
X185414406Y-59728531D01*
X185276204Y-59810263D01*
X185276196Y-59810269D01*
X185162669Y-59923796D01*
X185162663Y-59923804D01*
X185080931Y-60062006D01*
X185080929Y-60062011D01*
X185036135Y-60216191D01*
X185036134Y-60216197D01*
X185033300Y-60252211D01*
X185033300Y-60650569D01*
X185033301Y-60650591D01*
X185036135Y-60686605D01*
X185080929Y-60840788D01*
X185080930Y-60840791D01*
X185080931Y-60840793D01*
X185088517Y-60853620D01*
X185115218Y-60898770D01*
X185132399Y-60966494D01*
X185115218Y-61025010D01*
X185081395Y-61082201D01*
X185040956Y-61221398D01*
X185593366Y-61221398D01*
X185603094Y-61221780D01*
X185604619Y-61221900D01*
X185688347Y-61221899D01*
X185755385Y-61241583D01*
X185776028Y-61258218D01*
X185906816Y-61389006D01*
X185906845Y-61389037D01*
X185997064Y-61479256D01*
X185997067Y-61479258D01*
X186042866Y-61509860D01*
X186051984Y-61515952D01*
X186070775Y-61531374D01*
X186085481Y-61546080D01*
X186118966Y-61607403D01*
X186121800Y-61633761D01*
X186121800Y-62137399D01*
X186130774Y-62146373D01*
X186167249Y-62157084D01*
X186213004Y-62209888D01*
X186214771Y-62213947D01*
X186274699Y-62358628D01*
X186274699Y-62358629D01*
X186274701Y-62358632D01*
X186274702Y-62358633D01*
X186290750Y-62379548D01*
X186315944Y-62444715D01*
X186301906Y-62513160D01*
X186253092Y-62563150D01*
X186185001Y-62578814D01*
X186157781Y-62574110D01*
X186142794Y-62569756D01*
X186142791Y-62569755D01*
X186106497Y-62566899D01*
X186106490Y-62566899D01*
X185637110Y-62566899D01*
X185637102Y-62566899D01*
X185600808Y-62569755D01*
X185600805Y-62569756D01*
X185561926Y-62581052D01*
X185524328Y-62591975D01*
X185489734Y-62596899D01*
X185286572Y-62596899D01*
X185245617Y-62589941D01*
X185165854Y-62562030D01*
X185165849Y-62562029D01*
X184986604Y-62541834D01*
X184986596Y-62541834D01*
X184807350Y-62562029D01*
X184807345Y-62562030D01*
X184637076Y-62621610D01*
X184484337Y-62717583D01*
X184356784Y-62845136D01*
X184260811Y-62997875D01*
X184201231Y-63168144D01*
X184201230Y-63168149D01*
X184181035Y-63347395D01*
X184181035Y-63347402D01*
X184201230Y-63526648D01*
X184201232Y-63526658D01*
X184209101Y-63549143D01*
X184212664Y-63618922D01*
X184177936Y-63679549D01*
X184115943Y-63711777D01*
X184092060Y-63714099D01*
X181215622Y-63714099D01*
X181148583Y-63694414D01*
X181113692Y-63658931D01*
X181113233Y-63659278D01*
X181110585Y-63655772D01*
X181110194Y-63655374D01*
X181109780Y-63654706D01*
X181092725Y-63632122D01*
X181030063Y-63549143D01*
X180975866Y-63477374D01*
X180811655Y-63327677D01*
X180811653Y-63327675D01*
X180622733Y-63210701D01*
X180622727Y-63210698D01*
X180492618Y-63160294D01*
X180415528Y-63130429D01*
X180197104Y-63089599D01*
X179974896Y-63089599D01*
X179890009Y-63105467D01*
X179834784Y-63115790D01*
X179765269Y-63108758D01*
X179710591Y-63065261D01*
X179688109Y-62999107D01*
X179688000Y-62993901D01*
X179688000Y-62583297D01*
X179707685Y-62516258D01*
X179760489Y-62470503D01*
X179829647Y-62460559D01*
X179834736Y-62461400D01*
X179974896Y-62487600D01*
X179974899Y-62487600D01*
X180197101Y-62487600D01*
X180197104Y-62487600D01*
X180415528Y-62446770D01*
X180622730Y-62366499D01*
X180811655Y-62249522D01*
X180951200Y-62122309D01*
X180975866Y-62099824D01*
X181007447Y-62058004D01*
X181109778Y-61922496D01*
X181208824Y-61723584D01*
X181209446Y-61721398D01*
X185040956Y-61721398D01*
X185081395Y-61860592D01*
X185098552Y-61889603D01*
X185115735Y-61957327D01*
X185110897Y-61987318D01*
X185067296Y-62137399D01*
X185603800Y-62137399D01*
X185603800Y-61721398D01*
X185040956Y-61721398D01*
X181209446Y-61721398D01*
X181269634Y-61509860D01*
X181290137Y-61288600D01*
X181269634Y-61067340D01*
X181208824Y-60853616D01*
X181202436Y-60840788D01*
X181141612Y-60718635D01*
X181109778Y-60654704D01*
X180975868Y-60477378D01*
X180975866Y-60477375D01*
X180811655Y-60327678D01*
X180811653Y-60327676D01*
X180622733Y-60210702D01*
X180622727Y-60210699D01*
X180515080Y-60168997D01*
X180415528Y-60130430D01*
X180197104Y-60089600D01*
X179974896Y-60089600D01*
X179872406Y-60108758D01*
X179834784Y-60115791D01*
X179765269Y-60108759D01*
X179710591Y-60065262D01*
X179688109Y-59999108D01*
X179688000Y-59993902D01*
X179688000Y-59799330D01*
X179707685Y-59732291D01*
X179724319Y-59711649D01*
X179912048Y-59523920D01*
X179973371Y-59490435D01*
X179999729Y-59487601D01*
X180197101Y-59487601D01*
X180197104Y-59487601D01*
X180415528Y-59446771D01*
X180622730Y-59366500D01*
X180811655Y-59249523D01*
X180975868Y-59099823D01*
X180998561Y-59069773D01*
X181054671Y-59028137D01*
X181097515Y-59020500D01*
X183437934Y-59020500D01*
X183472528Y-59025423D01*
X183549007Y-59047643D01*
X183585310Y-59050500D01*
X183585318Y-59050500D01*
X184054682Y-59050500D01*
X184054690Y-59050500D01*
X184090993Y-59047643D01*
X184090995Y-59047642D01*
X184090997Y-59047642D01*
X184178832Y-59022123D01*
X184246395Y-59002494D01*
X184385687Y-58920117D01*
X184500117Y-58805687D01*
X184582494Y-58666395D01*
X184627643Y-58510993D01*
X184630500Y-58474690D01*
X184630500Y-58065310D01*
X184627643Y-58029007D01*
X184582494Y-57873605D01*
X184570089Y-57852630D01*
X184552906Y-57784909D01*
X184570091Y-57726384D01*
X184582032Y-57706194D01*
X184624504Y-57560000D01*
X184318352Y-57560000D01*
X184255233Y-57542732D01*
X184246395Y-57537506D01*
X184246393Y-57537505D01*
X184246389Y-57537503D01*
X184090997Y-57492357D01*
X184090991Y-57492356D01*
X184054697Y-57489500D01*
X184054690Y-57489500D01*
X183585310Y-57489500D01*
X183585302Y-57489500D01*
X183549008Y-57492356D01*
X183549005Y-57492357D01*
X183490835Y-57509257D01*
X183472528Y-57514576D01*
X183437934Y-57519500D01*
X181069018Y-57519500D01*
X181001979Y-57499815D01*
X180977382Y-57479039D01*
X180975869Y-57477379D01*
X180811655Y-57327679D01*
X180811653Y-57327677D01*
X180622733Y-57210703D01*
X180622727Y-57210700D01*
X180515080Y-57168998D01*
X180415528Y-57130431D01*
X180197104Y-57089601D01*
X179974896Y-57089601D01*
X179756472Y-57130431D01*
X179706695Y-57149714D01*
X179549272Y-57210700D01*
X179549266Y-57210703D01*
X179360346Y-57327677D01*
X179360344Y-57327679D01*
X179196133Y-57477376D01*
X179062222Y-57654704D01*
X178963180Y-57853606D01*
X178963174Y-57853621D01*
X178902366Y-58067339D01*
X178902365Y-58067341D01*
X178881863Y-58288600D01*
X178881863Y-58288602D01*
X178888599Y-58361301D01*
X178875184Y-58429870D01*
X178852809Y-58460422D01*
X178530654Y-58782578D01*
X178469331Y-58816063D01*
X178399640Y-58811079D01*
X178343706Y-58769208D01*
X178319289Y-58703743D01*
X178318973Y-58694875D01*
X178318989Y-58606129D01*
X178319258Y-57060000D01*
X183015496Y-57060000D01*
X183570000Y-57060000D01*
X183570000Y-56531210D01*
X183569999Y-56531209D01*
X184070000Y-56531209D01*
X184070000Y-57060000D01*
X184624504Y-57060000D01*
X184582031Y-56913804D01*
X184499721Y-56774625D01*
X184499714Y-56774616D01*
X184385383Y-56660285D01*
X184385374Y-56660278D01*
X184246195Y-56577968D01*
X184246190Y-56577966D01*
X184090918Y-56532855D01*
X184090912Y-56532854D01*
X184070000Y-56531209D01*
X183569999Y-56531209D01*
X183549087Y-56532854D01*
X183549081Y-56532855D01*
X183393809Y-56577966D01*
X183393804Y-56577968D01*
X183254625Y-56660278D01*
X183254616Y-56660285D01*
X183140285Y-56774616D01*
X183140278Y-56774625D01*
X183057968Y-56913804D01*
X183015496Y-57060000D01*
X178319258Y-57060000D01*
X178319403Y-56226096D01*
X178339099Y-56159061D01*
X178391911Y-56113316D01*
X178461071Y-56103384D01*
X178492533Y-56113368D01*
X178492860Y-56112581D01*
X178497362Y-56114445D01*
X178497365Y-56114445D01*
X178497369Y-56114448D01*
X178671155Y-56170915D01*
X178738835Y-56181634D01*
X178851630Y-56199500D01*
X178851635Y-56199500D01*
X181320370Y-56199500D01*
X181420631Y-56183619D01*
X181500845Y-56170915D01*
X181674631Y-56114448D01*
X181837444Y-56031491D01*
X181985276Y-55924085D01*
X182114485Y-55794876D01*
X182221891Y-55647044D01*
X182304848Y-55484231D01*
X182361315Y-55310445D01*
X182377120Y-55210654D01*
X182389900Y-55129970D01*
X182389900Y-54947229D01*
X182367181Y-54803793D01*
X182361315Y-54766755D01*
X182304848Y-54592969D01*
X182221891Y-54430156D01*
X182114485Y-54282324D01*
X181985276Y-54153115D01*
X181837444Y-54045709D01*
X181674631Y-53962752D01*
X181500845Y-53906285D01*
X181500843Y-53906284D01*
X181500841Y-53906284D01*
X181320370Y-53877700D01*
X181320365Y-53877700D01*
X178851635Y-53877700D01*
X178851630Y-53877700D01*
X178671158Y-53906284D01*
X178497362Y-53962754D01*
X178492860Y-53964619D01*
X178492132Y-53962861D01*
X178431397Y-53974246D01*
X178366666Y-53947946D01*
X178326430Y-53890825D01*
X178319816Y-53850852D01*
X178320002Y-52788422D01*
X183019500Y-52788422D01*
X183050290Y-52982826D01*
X183111117Y-53170029D01*
X183200476Y-53345405D01*
X183316172Y-53504646D01*
X183455354Y-53643828D01*
X183614595Y-53759524D01*
X183669150Y-53787321D01*
X183789970Y-53848882D01*
X183789972Y-53848882D01*
X183789975Y-53848884D01*
X183878661Y-53877700D01*
X183977173Y-53909709D01*
X184171578Y-53940500D01*
X184171583Y-53940500D01*
X184368422Y-53940500D01*
X184562826Y-53909709D01*
X184573367Y-53906284D01*
X184750025Y-53848884D01*
X184925405Y-53759524D01*
X185084646Y-53643828D01*
X185223828Y-53504646D01*
X185339524Y-53345405D01*
X185428884Y-53170025D01*
X185489709Y-52982826D01*
X185497199Y-52935536D01*
X185520500Y-52788422D01*
X185520500Y-52591577D01*
X185489709Y-52397173D01*
X185434676Y-52227799D01*
X186647496Y-52227799D01*
X187202000Y-52227799D01*
X187202000Y-51699009D01*
X187201999Y-51699008D01*
X187702000Y-51699008D01*
X187702000Y-52227799D01*
X188190000Y-52227799D01*
X188190000Y-51701609D01*
X188189999Y-51701608D01*
X188169087Y-51703253D01*
X188169081Y-51703254D01*
X188013809Y-51748365D01*
X188013794Y-51748371D01*
X188011310Y-51749841D01*
X188009109Y-51750399D01*
X188006644Y-51751466D01*
X188006471Y-51751068D01*
X187943585Y-51767018D01*
X187885082Y-51749839D01*
X187878200Y-51745769D01*
X187878190Y-51745765D01*
X187722918Y-51700654D01*
X187722912Y-51700653D01*
X187702000Y-51699008D01*
X187201999Y-51699008D01*
X187181087Y-51700653D01*
X187181081Y-51700654D01*
X187025809Y-51745765D01*
X187025804Y-51745767D01*
X186886625Y-51828077D01*
X186886616Y-51828084D01*
X186772285Y-51942415D01*
X186772278Y-51942424D01*
X186689968Y-52081603D01*
X186647496Y-52227799D01*
X185434676Y-52227799D01*
X185432275Y-52220411D01*
X185428884Y-52209975D01*
X185428882Y-52209972D01*
X185428882Y-52209970D01*
X185364843Y-52084287D01*
X185339524Y-52034595D01*
X185223828Y-51875354D01*
X185084646Y-51736172D01*
X184925405Y-51620476D01*
X184900939Y-51608010D01*
X184750029Y-51531117D01*
X184562826Y-51470290D01*
X184368422Y-51439500D01*
X184368417Y-51439500D01*
X184171583Y-51439500D01*
X184171578Y-51439500D01*
X183977173Y-51470290D01*
X183789970Y-51531117D01*
X183614594Y-51620476D01*
X183523741Y-51686485D01*
X183455354Y-51736172D01*
X183455352Y-51736174D01*
X183455351Y-51736174D01*
X183316174Y-51875351D01*
X183316174Y-51875352D01*
X183316172Y-51875354D01*
X183268719Y-51940667D01*
X183200476Y-52034594D01*
X183111117Y-52209970D01*
X183050290Y-52397173D01*
X183019500Y-52591577D01*
X183019500Y-52788422D01*
X178320002Y-52788422D01*
X178320173Y-51808357D01*
X178320188Y-51808133D01*
X178320187Y-51800114D01*
X178320189Y-51800110D01*
X178320187Y-51740287D01*
X178320780Y-51728174D01*
X178320981Y-51726132D01*
X178333687Y-51596676D01*
X178338399Y-51572911D01*
X178371905Y-51462070D01*
X178374863Y-51452283D01*
X178384107Y-51429886D01*
X178422323Y-51358115D01*
X178443341Y-51318640D01*
X178456763Y-51298472D01*
X178536495Y-51200878D01*
X178553585Y-51183701D01*
X178635818Y-51115822D01*
X178650779Y-51103472D01*
X178670873Y-51089953D01*
X178781826Y-51030151D01*
X178804158Y-51020803D01*
X178924620Y-50983721D01*
X178948350Y-50978892D01*
X179079169Y-50965384D01*
X179091885Y-50964728D01*
X192481663Y-50962788D01*
X192548705Y-50982463D01*
G37*
%TD.AperFunction*%
%TA.AperFunction,Conductor*%
G36*
X193177163Y-54829086D02*
G01*
X193177164Y-54829087D01*
X193192454Y-54831100D01*
X193289664Y-54843898D01*
X193289680Y-54843900D01*
X193289687Y-54843900D01*
X193289776Y-54843906D01*
X193289805Y-54843916D01*
X193293704Y-54844430D01*
X193293589Y-54845302D01*
X193355386Y-54867930D01*
X193384774Y-54898750D01*
X193416540Y-54946291D01*
X193416541Y-54946292D01*
X193416542Y-54946293D01*
X193503667Y-55033418D01*
X193503668Y-55033418D01*
X193510735Y-55040485D01*
X193510734Y-55040485D01*
X193510738Y-55040488D01*
X194074503Y-55604255D01*
X194074507Y-55604258D01*
X194176950Y-55672709D01*
X194176951Y-55672709D01*
X194176955Y-55672712D01*
X194231971Y-55695500D01*
X194290788Y-55719863D01*
X194310837Y-55723851D01*
X194339312Y-55729515D01*
X194411632Y-55743901D01*
X194411634Y-55743901D01*
X194540961Y-55743901D01*
X194540981Y-55743900D01*
X197393164Y-55743900D01*
X197393166Y-55743900D01*
X197405455Y-55741455D01*
X197475044Y-55747678D01*
X197530224Y-55790538D01*
X197543197Y-55827305D01*
X197559201Y-55845554D01*
X197618902Y-55863085D01*
X197650240Y-55891915D01*
X197670190Y-55917915D01*
X197695383Y-55983084D01*
X197681344Y-56051529D01*
X197670192Y-56068883D01*
X197664579Y-56076197D01*
X197650240Y-56094884D01*
X197593816Y-56136088D01*
X197558294Y-56142279D01*
X197557311Y-56143400D01*
X197568204Y-56226129D01*
X197565995Y-56259872D01*
X197567774Y-56260107D01*
X197551900Y-56380672D01*
X197551900Y-56606127D01*
X197567774Y-56726692D01*
X197564799Y-56727083D01*
X197564799Y-56759716D01*
X197567774Y-56760108D01*
X197566713Y-56768162D01*
X197566713Y-56768164D01*
X197563338Y-56793793D01*
X197551900Y-56880672D01*
X197551900Y-57106127D01*
X197562899Y-57189671D01*
X197565668Y-57210702D01*
X197567774Y-57226692D01*
X197564799Y-57227083D01*
X197564799Y-57259716D01*
X197567774Y-57260108D01*
X197566713Y-57268162D01*
X197566713Y-57268164D01*
X197564422Y-57285565D01*
X197551900Y-57380672D01*
X197551900Y-57606127D01*
X197567774Y-57726692D01*
X197564802Y-57727083D01*
X197564810Y-57759718D01*
X197567774Y-57760109D01*
X197551900Y-57880673D01*
X197551900Y-58106128D01*
X197567774Y-58226694D01*
X197564775Y-58227088D01*
X197564791Y-58259715D01*
X197567774Y-58260108D01*
X197551900Y-58380672D01*
X197551900Y-58606127D01*
X197567774Y-58726692D01*
X197564799Y-58727083D01*
X197564799Y-58759716D01*
X197567774Y-58760108D01*
X197551900Y-58880672D01*
X197551900Y-59106127D01*
X197567774Y-59226692D01*
X197564799Y-59227083D01*
X197564799Y-59259716D01*
X197567774Y-59260108D01*
X197551900Y-59380672D01*
X197551900Y-59606127D01*
X197567774Y-59726692D01*
X197564799Y-59727083D01*
X197564799Y-59759716D01*
X197567774Y-59760108D01*
X197551900Y-59880672D01*
X197551900Y-60106127D01*
X197561995Y-60182799D01*
X197565668Y-60210702D01*
X197567774Y-60226693D01*
X197564775Y-60227087D01*
X197564791Y-60259714D01*
X197567774Y-60260107D01*
X197551900Y-60380671D01*
X197551900Y-60606126D01*
X197567774Y-60726691D01*
X197564802Y-60727082D01*
X197564810Y-60759717D01*
X197567774Y-60760108D01*
X197551900Y-60880672D01*
X197551900Y-61106127D01*
X197567774Y-61226692D01*
X197564770Y-61227087D01*
X197564779Y-61275378D01*
X197564645Y-61275880D01*
X197528337Y-61335575D01*
X197465519Y-61366164D01*
X197444840Y-61367900D01*
X194589036Y-61367900D01*
X194589016Y-61367899D01*
X194582902Y-61367899D01*
X194459689Y-61367899D01*
X194358892Y-61387948D01*
X194358887Y-61387948D01*
X194338845Y-61391936D01*
X194326674Y-61396977D01*
X194297290Y-61409149D01*
X194297289Y-61409149D01*
X194225016Y-61439084D01*
X194225003Y-61439091D01*
X194122563Y-61507540D01*
X194086988Y-61543116D01*
X193982928Y-61647175D01*
X193921608Y-61680659D01*
X193895249Y-61683493D01*
X193836056Y-61683493D01*
X193803599Y-61690391D01*
X193650899Y-61722848D01*
X193650894Y-61722850D01*
X193477972Y-61799841D01*
X193477967Y-61799844D01*
X193324831Y-61911104D01*
X193198168Y-62051778D01*
X193103523Y-62215708D01*
X193103520Y-62215715D01*
X193045029Y-62395733D01*
X193045028Y-62395737D01*
X193025242Y-62583993D01*
X193045028Y-62772249D01*
X193045029Y-62772252D01*
X193103520Y-62952270D01*
X193103523Y-62952277D01*
X193130560Y-62999107D01*
X193135060Y-63006900D01*
X193151533Y-63074800D01*
X193128680Y-63140827D01*
X193073759Y-63184018D01*
X193027673Y-63192900D01*
X192727377Y-63192900D01*
X192727357Y-63192899D01*
X192721243Y-63192899D01*
X192598030Y-63192899D01*
X192501407Y-63212117D01*
X192431816Y-63205888D01*
X192389537Y-63178180D01*
X192385277Y-63173920D01*
X192359327Y-63156581D01*
X192317280Y-63128486D01*
X192317281Y-63128486D01*
X192317279Y-63128484D01*
X192282832Y-63105467D01*
X192282823Y-63105462D01*
X192175230Y-63060897D01*
X192175228Y-63060895D01*
X192168999Y-63058315D01*
X192168994Y-63058314D01*
X192108571Y-63046295D01*
X192048152Y-63034277D01*
X192048149Y-63034277D01*
X192048148Y-63034277D01*
X190160517Y-63034277D01*
X190094545Y-63015271D01*
X189965183Y-62933987D01*
X189794911Y-62874407D01*
X189763014Y-62870813D01*
X189698600Y-62843745D01*
X189659047Y-62786149D01*
X189652900Y-62747593D01*
X189652900Y-56096616D01*
X189672585Y-56029577D01*
X189689219Y-56008935D01*
X190817936Y-54880219D01*
X190879259Y-54846734D01*
X190905617Y-54843900D01*
X191015113Y-54843900D01*
X191015120Y-54843900D01*
X191127636Y-54829087D01*
X191127636Y-54829086D01*
X191135695Y-54828026D01*
X191136098Y-54831089D01*
X191168702Y-54831089D01*
X191169105Y-54828026D01*
X191177163Y-54829086D01*
X191177164Y-54829087D01*
X191289680Y-54843900D01*
X191289687Y-54843900D01*
X191515113Y-54843900D01*
X191515120Y-54843900D01*
X191627636Y-54829087D01*
X191627636Y-54829086D01*
X191635695Y-54828026D01*
X191636096Y-54831073D01*
X191668707Y-54831073D01*
X191669108Y-54828026D01*
X191677164Y-54829086D01*
X191677165Y-54829087D01*
X191770225Y-54841338D01*
X191789665Y-54843898D01*
X191789681Y-54843900D01*
X191789688Y-54843900D01*
X192015114Y-54843900D01*
X192015121Y-54843900D01*
X192127637Y-54829087D01*
X192127637Y-54829086D01*
X192135696Y-54828026D01*
X192136100Y-54831100D01*
X192168701Y-54831092D01*
X192169105Y-54828026D01*
X192177163Y-54829086D01*
X192177164Y-54829087D01*
X192289680Y-54843900D01*
X192289687Y-54843900D01*
X192515113Y-54843900D01*
X192515120Y-54843900D01*
X192627636Y-54829087D01*
X192627636Y-54829086D01*
X192635695Y-54828026D01*
X192636098Y-54831089D01*
X192668702Y-54831089D01*
X192669105Y-54828026D01*
X192677163Y-54829086D01*
X192677164Y-54829087D01*
X192789680Y-54843900D01*
X192789687Y-54843900D01*
X193015113Y-54843900D01*
X193015120Y-54843900D01*
X193127636Y-54829087D01*
X193127636Y-54829086D01*
X193135695Y-54828026D01*
X193136098Y-54831089D01*
X193168702Y-54831089D01*
X193169105Y-54828026D01*
X193177163Y-54829086D01*
G37*
%TD.AperFunction*%
%TA.AperFunction,Conductor*%
G36*
X196797044Y-62638585D02*
G01*
X196842799Y-62691389D01*
X196852743Y-62760547D01*
X196836636Y-62804408D01*
X196836825Y-62804499D01*
X196835891Y-62806437D01*
X196834996Y-62808876D01*
X196833805Y-62810770D01*
X196774225Y-62981039D01*
X196774224Y-62981044D01*
X196762762Y-63082783D01*
X196735696Y-63147197D01*
X196678101Y-63186752D01*
X196639542Y-63192900D01*
X196158891Y-63192900D01*
X196091852Y-63173215D01*
X196071210Y-63156581D01*
X195745210Y-62830581D01*
X195711725Y-62769258D01*
X195716709Y-62699566D01*
X195758581Y-62643633D01*
X195824045Y-62619216D01*
X195832891Y-62618900D01*
X196730005Y-62618900D01*
X196797044Y-62638585D01*
G37*
%TD.AperFunction*%
%TD*%
M02*
