M48
; DRILL file {KiCad 8.0.5} date 2026-02-01T21:17:24-0600
; FORMAT={-:-/ absolute / metric / decimal}
; #@! TF.CreationDate,2026-02-01T21:17:24-06:00
; #@! TF.GenerationSoftware,Kicad,Pcbnew,8.0.5
; #@! TF.FileFunction,Plated,1,2,PTH
FMAT,2
METRIC
; #@! TA.AperFunction,Plated,PTH,ViaDrill
T1C0.400
; #@! TA.AperFunction,Plated,PTH,ComponentDrill
T2C1.000
; #@! TA.AperFunction,Plated,PTH,ComponentDrill
T3C1.295
%
G90
G05
T1
X103.98Y-55.33
X104.14Y-54.33
X104.213Y-56.302
X107.573Y-62.667
X108.28Y-63.374
X110.884Y-53.466
X111.355Y-62.65
X112.09Y-61.925
X113.639Y-61.555
X113.872Y-55.56
X113.91Y-54.56
X115.499Y-55.777
X116.05Y-63.96
X116.11Y-72.34
X120.36Y-67.65
X120.462Y-70.652
X121.39Y-66.39
X121.474Y-70.321
X121.503Y-71.883
X122.68Y-63.98
X122.725Y-61.147
X122.808Y-62.827
X123.515Y-62.12
X123.725Y-61.142
X124.674Y-68.113
X124.734Y-67.091
X125.076Y-66.047
X125.635Y-63.176
X126.21Y-66.113
X126.626Y-63.312
X127.21Y-66.11
X127.626Y-63.312
X128.209Y-66.058
X128.626Y-63.312
X128.781Y-77.264
X128.95Y-74.208
X129.722Y-67.004
X130.442Y-63.298
X136.56Y-74.215
X136.655Y-76.115
X138.104Y-58.209
X139.622Y-57.705
T2
X99.06Y-61.722
X99.06Y-56.642
X99.06Y-54.102
X99.06Y-59.182
X101.6Y-54.102
X101.6Y-56.642
X101.6Y-61.722
X101.6Y-59.182
X128.47Y-59.76
X131.01Y-59.76
X133.55Y-59.76
X136.09Y-59.76
X138.63Y-59.76
X141.17Y-59.76
X143.71Y-59.76
T3
X102.32Y-76.52
X102.32Y-66.52
X102.32Y-71.52
X105.285Y-84.336
X110.285Y-84.336
X116.158Y-84.328
X121.158Y-84.328
X126.158Y-84.328
X132.08Y-84.328
X137.08Y-84.328
X142.08Y-84.328
M30
