%TF.GenerationSoftware,KiCad,Pcbnew,7.0.2-0*%
%TF.CreationDate,2024-01-28T20:09:23-06:00*%
%TF.ProjectId,bus_bar,6275735f-6261-4722-9e6b-696361645f70,rev?*%
%TF.SameCoordinates,Original*%
%TF.FileFunction,Drillmap*%
%TF.FilePolarity,Positive*%
%FSLAX45Y45*%
G04 Gerber Fmt 4.5, Leading zero omitted, Abs format (unit mm)*
G04 Created by KiCad (PCBNEW 7.0.2-0) date 2024-01-28 20:09:23*
%MOMM*%
%LPD*%
G01*
G04 APERTURE LIST*
%ADD10C,0.100000*%
%ADD11C,0.200000*%
%ADD12C,0.130000*%
G04 APERTURE END LIST*
D10*
X28782754Y-5061764D02*
X26750754Y-1542236D01*
X3740152Y-20106704D02*
X28596813Y-5755705D01*
X1077711Y-16511222D02*
X3046211Y-19920764D01*
X26056813Y-1356295D02*
X1310138Y-15643796D01*
X26750754Y-1542236D02*
G75*
G03*
X26056813Y-1356295I-439941J-254000D01*
G01*
X28596813Y-5755705D02*
G75*
G03*
X28782754Y-5061764I-254000J439941D01*
G01*
X3046211Y-19920763D02*
G75*
G03*
X3740152Y-20106704I439941J254000D01*
G01*
X1310138Y-15643795D02*
G75*
G03*
X1077712Y-16511222I317500J-549926D01*
G01*
D11*
D12*
X25452961Y-2897976D02*
X25582961Y-3027976D01*
X25582961Y-2897976D02*
X25452961Y-3027976D01*
X25770461Y-3447902D02*
X25900461Y-3577902D01*
X25900461Y-3447902D02*
X25770461Y-3577902D01*
X26002887Y-2580476D02*
X26132887Y-2710476D01*
X26132887Y-2580476D02*
X26002887Y-2710476D01*
X26320387Y-3130402D02*
X26450387Y-3260402D01*
X26450387Y-3130402D02*
X26320387Y-3260402D01*
X26532461Y-4767725D02*
X26662461Y-4897725D01*
X26662461Y-4767725D02*
X26532461Y-4897725D01*
X26849961Y-5317651D02*
X26979961Y-5447651D01*
X26979961Y-5317651D02*
X26849961Y-5447651D01*
X27082387Y-4450225D02*
X27212387Y-4580225D01*
X27212387Y-4450225D02*
X27082387Y-4580225D01*
X27399887Y-5000151D02*
X27529887Y-5130151D01*
X27529887Y-5000151D02*
X27399887Y-5130151D01*
D11*
X1235257Y-20492287D02*
X1235257Y-20292287D01*
X1235257Y-20292287D02*
X1282876Y-20292287D01*
X1282876Y-20292287D02*
X1311447Y-20301811D01*
X1311447Y-20301811D02*
X1330495Y-20320859D01*
X1330495Y-20320859D02*
X1340018Y-20339906D01*
X1340018Y-20339906D02*
X1349542Y-20378002D01*
X1349542Y-20378002D02*
X1349542Y-20406573D01*
X1349542Y-20406573D02*
X1340018Y-20444668D01*
X1340018Y-20444668D02*
X1330495Y-20463716D01*
X1330495Y-20463716D02*
X1311447Y-20482764D01*
X1311447Y-20482764D02*
X1282876Y-20492287D01*
X1282876Y-20492287D02*
X1235257Y-20492287D01*
X1435256Y-20492287D02*
X1435256Y-20358954D01*
X1435256Y-20397049D02*
X1444780Y-20378002D01*
X1444780Y-20378002D02*
X1454304Y-20368478D01*
X1454304Y-20368478D02*
X1473352Y-20358954D01*
X1473352Y-20358954D02*
X1492399Y-20358954D01*
X1559066Y-20492287D02*
X1559066Y-20358954D01*
X1559066Y-20292287D02*
X1549542Y-20301811D01*
X1549542Y-20301811D02*
X1559066Y-20311335D01*
X1559066Y-20311335D02*
X1568590Y-20301811D01*
X1568590Y-20301811D02*
X1559066Y-20292287D01*
X1559066Y-20292287D02*
X1559066Y-20311335D01*
X1682875Y-20492287D02*
X1663828Y-20482764D01*
X1663828Y-20482764D02*
X1654304Y-20463716D01*
X1654304Y-20463716D02*
X1654304Y-20292287D01*
X1787637Y-20492287D02*
X1768590Y-20482764D01*
X1768590Y-20482764D02*
X1759066Y-20463716D01*
X1759066Y-20463716D02*
X1759066Y-20292287D01*
X2016209Y-20492287D02*
X2016209Y-20292287D01*
X2016209Y-20292287D02*
X2082876Y-20435144D01*
X2082876Y-20435144D02*
X2149542Y-20292287D01*
X2149542Y-20292287D02*
X2149542Y-20492287D01*
X2330495Y-20492287D02*
X2330495Y-20387525D01*
X2330495Y-20387525D02*
X2320971Y-20368478D01*
X2320971Y-20368478D02*
X2301923Y-20358954D01*
X2301923Y-20358954D02*
X2263828Y-20358954D01*
X2263828Y-20358954D02*
X2244780Y-20368478D01*
X2330495Y-20482764D02*
X2311447Y-20492287D01*
X2311447Y-20492287D02*
X2263828Y-20492287D01*
X2263828Y-20492287D02*
X2244780Y-20482764D01*
X2244780Y-20482764D02*
X2235257Y-20463716D01*
X2235257Y-20463716D02*
X2235257Y-20444668D01*
X2235257Y-20444668D02*
X2244780Y-20425621D01*
X2244780Y-20425621D02*
X2263828Y-20416097D01*
X2263828Y-20416097D02*
X2311447Y-20416097D01*
X2311447Y-20416097D02*
X2330495Y-20406573D01*
X2425733Y-20358954D02*
X2425733Y-20558954D01*
X2425733Y-20368478D02*
X2444780Y-20358954D01*
X2444780Y-20358954D02*
X2482876Y-20358954D01*
X2482876Y-20358954D02*
X2501923Y-20368478D01*
X2501923Y-20368478D02*
X2511447Y-20378002D01*
X2511447Y-20378002D02*
X2520971Y-20397049D01*
X2520971Y-20397049D02*
X2520971Y-20454192D01*
X2520971Y-20454192D02*
X2511447Y-20473240D01*
X2511447Y-20473240D02*
X2501923Y-20482764D01*
X2501923Y-20482764D02*
X2482876Y-20492287D01*
X2482876Y-20492287D02*
X2444780Y-20492287D01*
X2444780Y-20492287D02*
X2425733Y-20482764D01*
X2606685Y-20473240D02*
X2616209Y-20482764D01*
X2616209Y-20482764D02*
X2606685Y-20492287D01*
X2606685Y-20492287D02*
X2597161Y-20482764D01*
X2597161Y-20482764D02*
X2606685Y-20473240D01*
X2606685Y-20473240D02*
X2606685Y-20492287D01*
X2606685Y-20368478D02*
X2616209Y-20378002D01*
X2616209Y-20378002D02*
X2606685Y-20387525D01*
X2606685Y-20387525D02*
X2597161Y-20378002D01*
X2597161Y-20378002D02*
X2606685Y-20368478D01*
X2606685Y-20368478D02*
X2606685Y-20387525D01*
D12*
X857637Y-20754764D02*
X987637Y-20884764D01*
X987637Y-20754764D02*
X857637Y-20884764D01*
D11*
X1340018Y-20912287D02*
X1225733Y-20912287D01*
X1282876Y-20912287D02*
X1282876Y-20712287D01*
X1282876Y-20712287D02*
X1263828Y-20740859D01*
X1263828Y-20740859D02*
X1244780Y-20759906D01*
X1244780Y-20759906D02*
X1225733Y-20769430D01*
X1425733Y-20893240D02*
X1435256Y-20902764D01*
X1435256Y-20902764D02*
X1425733Y-20912287D01*
X1425733Y-20912287D02*
X1416209Y-20902764D01*
X1416209Y-20902764D02*
X1425733Y-20893240D01*
X1425733Y-20893240D02*
X1425733Y-20912287D01*
X1501923Y-20712287D02*
X1625733Y-20712287D01*
X1625733Y-20712287D02*
X1559066Y-20788478D01*
X1559066Y-20788478D02*
X1587637Y-20788478D01*
X1587637Y-20788478D02*
X1606685Y-20798002D01*
X1606685Y-20798002D02*
X1616209Y-20807525D01*
X1616209Y-20807525D02*
X1625733Y-20826573D01*
X1625733Y-20826573D02*
X1625733Y-20874192D01*
X1625733Y-20874192D02*
X1616209Y-20893240D01*
X1616209Y-20893240D02*
X1606685Y-20902764D01*
X1606685Y-20902764D02*
X1587637Y-20912287D01*
X1587637Y-20912287D02*
X1530495Y-20912287D01*
X1530495Y-20912287D02*
X1511447Y-20902764D01*
X1511447Y-20902764D02*
X1501923Y-20893240D01*
X1749542Y-20712287D02*
X1768590Y-20712287D01*
X1768590Y-20712287D02*
X1787637Y-20721811D01*
X1787637Y-20721811D02*
X1797161Y-20731335D01*
X1797161Y-20731335D02*
X1806685Y-20750383D01*
X1806685Y-20750383D02*
X1816209Y-20788478D01*
X1816209Y-20788478D02*
X1816209Y-20836097D01*
X1816209Y-20836097D02*
X1806685Y-20874192D01*
X1806685Y-20874192D02*
X1797161Y-20893240D01*
X1797161Y-20893240D02*
X1787637Y-20902764D01*
X1787637Y-20902764D02*
X1768590Y-20912287D01*
X1768590Y-20912287D02*
X1749542Y-20912287D01*
X1749542Y-20912287D02*
X1730495Y-20902764D01*
X1730495Y-20902764D02*
X1720971Y-20893240D01*
X1720971Y-20893240D02*
X1711447Y-20874192D01*
X1711447Y-20874192D02*
X1701923Y-20836097D01*
X1701923Y-20836097D02*
X1701923Y-20788478D01*
X1701923Y-20788478D02*
X1711447Y-20750383D01*
X1711447Y-20750383D02*
X1720971Y-20731335D01*
X1720971Y-20731335D02*
X1730495Y-20721811D01*
X1730495Y-20721811D02*
X1749542Y-20712287D01*
X1940018Y-20712287D02*
X1959066Y-20712287D01*
X1959066Y-20712287D02*
X1978114Y-20721811D01*
X1978114Y-20721811D02*
X1987637Y-20731335D01*
X1987637Y-20731335D02*
X1997161Y-20750383D01*
X1997161Y-20750383D02*
X2006685Y-20788478D01*
X2006685Y-20788478D02*
X2006685Y-20836097D01*
X2006685Y-20836097D02*
X1997161Y-20874192D01*
X1997161Y-20874192D02*
X1987637Y-20893240D01*
X1987637Y-20893240D02*
X1978114Y-20902764D01*
X1978114Y-20902764D02*
X1959066Y-20912287D01*
X1959066Y-20912287D02*
X1940018Y-20912287D01*
X1940018Y-20912287D02*
X1920971Y-20902764D01*
X1920971Y-20902764D02*
X1911447Y-20893240D01*
X1911447Y-20893240D02*
X1901923Y-20874192D01*
X1901923Y-20874192D02*
X1892399Y-20836097D01*
X1892399Y-20836097D02*
X1892399Y-20788478D01*
X1892399Y-20788478D02*
X1901923Y-20750383D01*
X1901923Y-20750383D02*
X1911447Y-20731335D01*
X1911447Y-20731335D02*
X1920971Y-20721811D01*
X1920971Y-20721811D02*
X1940018Y-20712287D01*
X2092399Y-20912287D02*
X2092399Y-20778954D01*
X2092399Y-20798002D02*
X2101923Y-20788478D01*
X2101923Y-20788478D02*
X2120971Y-20778954D01*
X2120971Y-20778954D02*
X2149542Y-20778954D01*
X2149542Y-20778954D02*
X2168590Y-20788478D01*
X2168590Y-20788478D02*
X2178114Y-20807525D01*
X2178114Y-20807525D02*
X2178114Y-20912287D01*
X2178114Y-20807525D02*
X2187638Y-20788478D01*
X2187638Y-20788478D02*
X2206685Y-20778954D01*
X2206685Y-20778954D02*
X2235257Y-20778954D01*
X2235257Y-20778954D02*
X2254304Y-20788478D01*
X2254304Y-20788478D02*
X2263828Y-20807525D01*
X2263828Y-20807525D02*
X2263828Y-20912287D01*
X2359066Y-20912287D02*
X2359066Y-20778954D01*
X2359066Y-20798002D02*
X2368590Y-20788478D01*
X2368590Y-20788478D02*
X2387638Y-20778954D01*
X2387638Y-20778954D02*
X2416209Y-20778954D01*
X2416209Y-20778954D02*
X2435257Y-20788478D01*
X2435257Y-20788478D02*
X2444780Y-20807525D01*
X2444780Y-20807525D02*
X2444780Y-20912287D01*
X2444780Y-20807525D02*
X2454304Y-20788478D01*
X2454304Y-20788478D02*
X2473352Y-20778954D01*
X2473352Y-20778954D02*
X2501923Y-20778954D01*
X2501923Y-20778954D02*
X2520971Y-20788478D01*
X2520971Y-20788478D02*
X2530495Y-20807525D01*
X2530495Y-20807525D02*
X2530495Y-20912287D01*
X2920971Y-20702764D02*
X2749542Y-20959906D01*
X3178114Y-20712287D02*
X3197161Y-20712287D01*
X3197161Y-20712287D02*
X3216209Y-20721811D01*
X3216209Y-20721811D02*
X3225733Y-20731335D01*
X3225733Y-20731335D02*
X3235257Y-20750383D01*
X3235257Y-20750383D02*
X3244780Y-20788478D01*
X3244780Y-20788478D02*
X3244780Y-20836097D01*
X3244780Y-20836097D02*
X3235257Y-20874192D01*
X3235257Y-20874192D02*
X3225733Y-20893240D01*
X3225733Y-20893240D02*
X3216209Y-20902764D01*
X3216209Y-20902764D02*
X3197161Y-20912287D01*
X3197161Y-20912287D02*
X3178114Y-20912287D01*
X3178114Y-20912287D02*
X3159066Y-20902764D01*
X3159066Y-20902764D02*
X3149542Y-20893240D01*
X3149542Y-20893240D02*
X3140019Y-20874192D01*
X3140019Y-20874192D02*
X3130495Y-20836097D01*
X3130495Y-20836097D02*
X3130495Y-20788478D01*
X3130495Y-20788478D02*
X3140019Y-20750383D01*
X3140019Y-20750383D02*
X3149542Y-20731335D01*
X3149542Y-20731335D02*
X3159066Y-20721811D01*
X3159066Y-20721811D02*
X3178114Y-20712287D01*
X3330495Y-20893240D02*
X3340019Y-20902764D01*
X3340019Y-20902764D02*
X3330495Y-20912287D01*
X3330495Y-20912287D02*
X3320971Y-20902764D01*
X3320971Y-20902764D02*
X3330495Y-20893240D01*
X3330495Y-20893240D02*
X3330495Y-20912287D01*
X3463828Y-20712287D02*
X3482876Y-20712287D01*
X3482876Y-20712287D02*
X3501923Y-20721811D01*
X3501923Y-20721811D02*
X3511447Y-20731335D01*
X3511447Y-20731335D02*
X3520971Y-20750383D01*
X3520971Y-20750383D02*
X3530495Y-20788478D01*
X3530495Y-20788478D02*
X3530495Y-20836097D01*
X3530495Y-20836097D02*
X3520971Y-20874192D01*
X3520971Y-20874192D02*
X3511447Y-20893240D01*
X3511447Y-20893240D02*
X3501923Y-20902764D01*
X3501923Y-20902764D02*
X3482876Y-20912287D01*
X3482876Y-20912287D02*
X3463828Y-20912287D01*
X3463828Y-20912287D02*
X3444780Y-20902764D01*
X3444780Y-20902764D02*
X3435257Y-20893240D01*
X3435257Y-20893240D02*
X3425733Y-20874192D01*
X3425733Y-20874192D02*
X3416209Y-20836097D01*
X3416209Y-20836097D02*
X3416209Y-20788478D01*
X3416209Y-20788478D02*
X3425733Y-20750383D01*
X3425733Y-20750383D02*
X3435257Y-20731335D01*
X3435257Y-20731335D02*
X3444780Y-20721811D01*
X3444780Y-20721811D02*
X3463828Y-20712287D01*
X3711447Y-20712287D02*
X3616209Y-20712287D01*
X3616209Y-20712287D02*
X3606685Y-20807525D01*
X3606685Y-20807525D02*
X3616209Y-20798002D01*
X3616209Y-20798002D02*
X3635257Y-20788478D01*
X3635257Y-20788478D02*
X3682876Y-20788478D01*
X3682876Y-20788478D02*
X3701923Y-20798002D01*
X3701923Y-20798002D02*
X3711447Y-20807525D01*
X3711447Y-20807525D02*
X3720971Y-20826573D01*
X3720971Y-20826573D02*
X3720971Y-20874192D01*
X3720971Y-20874192D02*
X3711447Y-20893240D01*
X3711447Y-20893240D02*
X3701923Y-20902764D01*
X3701923Y-20902764D02*
X3682876Y-20912287D01*
X3682876Y-20912287D02*
X3635257Y-20912287D01*
X3635257Y-20912287D02*
X3616209Y-20902764D01*
X3616209Y-20902764D02*
X3606685Y-20893240D01*
X3911447Y-20912287D02*
X3797161Y-20912287D01*
X3854304Y-20912287D02*
X3854304Y-20712287D01*
X3854304Y-20712287D02*
X3835257Y-20740859D01*
X3835257Y-20740859D02*
X3816209Y-20759906D01*
X3816209Y-20759906D02*
X3797161Y-20769430D01*
X3987638Y-20731335D02*
X3997161Y-20721811D01*
X3997161Y-20721811D02*
X4016209Y-20712287D01*
X4016209Y-20712287D02*
X4063828Y-20712287D01*
X4063828Y-20712287D02*
X4082876Y-20721811D01*
X4082876Y-20721811D02*
X4092400Y-20731335D01*
X4092400Y-20731335D02*
X4101923Y-20750383D01*
X4101923Y-20750383D02*
X4101923Y-20769430D01*
X4101923Y-20769430D02*
X4092400Y-20798002D01*
X4092400Y-20798002D02*
X3978114Y-20912287D01*
X3978114Y-20912287D02*
X4101923Y-20912287D01*
X4178114Y-20712287D02*
X4178114Y-20750383D01*
X4254304Y-20712287D02*
X4254304Y-20750383D01*
X4549543Y-20988478D02*
X4540019Y-20978954D01*
X4540019Y-20978954D02*
X4520971Y-20950383D01*
X4520971Y-20950383D02*
X4511447Y-20931335D01*
X4511447Y-20931335D02*
X4501924Y-20902764D01*
X4501924Y-20902764D02*
X4492400Y-20855144D01*
X4492400Y-20855144D02*
X4492400Y-20817049D01*
X4492400Y-20817049D02*
X4501924Y-20769430D01*
X4501924Y-20769430D02*
X4511447Y-20740859D01*
X4511447Y-20740859D02*
X4520971Y-20721811D01*
X4520971Y-20721811D02*
X4540019Y-20693240D01*
X4540019Y-20693240D02*
X4549543Y-20683716D01*
X4654304Y-20798002D02*
X4635257Y-20788478D01*
X4635257Y-20788478D02*
X4625733Y-20778954D01*
X4625733Y-20778954D02*
X4616209Y-20759906D01*
X4616209Y-20759906D02*
X4616209Y-20750383D01*
X4616209Y-20750383D02*
X4625733Y-20731335D01*
X4625733Y-20731335D02*
X4635257Y-20721811D01*
X4635257Y-20721811D02*
X4654304Y-20712287D01*
X4654304Y-20712287D02*
X4692400Y-20712287D01*
X4692400Y-20712287D02*
X4711447Y-20721811D01*
X4711447Y-20721811D02*
X4720971Y-20731335D01*
X4720971Y-20731335D02*
X4730495Y-20750383D01*
X4730495Y-20750383D02*
X4730495Y-20759906D01*
X4730495Y-20759906D02*
X4720971Y-20778954D01*
X4720971Y-20778954D02*
X4711447Y-20788478D01*
X4711447Y-20788478D02*
X4692400Y-20798002D01*
X4692400Y-20798002D02*
X4654304Y-20798002D01*
X4654304Y-20798002D02*
X4635257Y-20807525D01*
X4635257Y-20807525D02*
X4625733Y-20817049D01*
X4625733Y-20817049D02*
X4616209Y-20836097D01*
X4616209Y-20836097D02*
X4616209Y-20874192D01*
X4616209Y-20874192D02*
X4625733Y-20893240D01*
X4625733Y-20893240D02*
X4635257Y-20902764D01*
X4635257Y-20902764D02*
X4654304Y-20912287D01*
X4654304Y-20912287D02*
X4692400Y-20912287D01*
X4692400Y-20912287D02*
X4711447Y-20902764D01*
X4711447Y-20902764D02*
X4720971Y-20893240D01*
X4720971Y-20893240D02*
X4730495Y-20874192D01*
X4730495Y-20874192D02*
X4730495Y-20836097D01*
X4730495Y-20836097D02*
X4720971Y-20817049D01*
X4720971Y-20817049D02*
X4711447Y-20807525D01*
X4711447Y-20807525D02*
X4692400Y-20798002D01*
X4968590Y-20912287D02*
X4968590Y-20712287D01*
X5054305Y-20912287D02*
X5054305Y-20807525D01*
X5054305Y-20807525D02*
X5044781Y-20788478D01*
X5044781Y-20788478D02*
X5025733Y-20778954D01*
X5025733Y-20778954D02*
X4997162Y-20778954D01*
X4997162Y-20778954D02*
X4978114Y-20788478D01*
X4978114Y-20788478D02*
X4968590Y-20798002D01*
X5178114Y-20912287D02*
X5159066Y-20902764D01*
X5159066Y-20902764D02*
X5149543Y-20893240D01*
X5149543Y-20893240D02*
X5140019Y-20874192D01*
X5140019Y-20874192D02*
X5140019Y-20817049D01*
X5140019Y-20817049D02*
X5149543Y-20798002D01*
X5149543Y-20798002D02*
X5159066Y-20788478D01*
X5159066Y-20788478D02*
X5178114Y-20778954D01*
X5178114Y-20778954D02*
X5206686Y-20778954D01*
X5206686Y-20778954D02*
X5225733Y-20788478D01*
X5225733Y-20788478D02*
X5235257Y-20798002D01*
X5235257Y-20798002D02*
X5244781Y-20817049D01*
X5244781Y-20817049D02*
X5244781Y-20874192D01*
X5244781Y-20874192D02*
X5235257Y-20893240D01*
X5235257Y-20893240D02*
X5225733Y-20902764D01*
X5225733Y-20902764D02*
X5206686Y-20912287D01*
X5206686Y-20912287D02*
X5178114Y-20912287D01*
X5359066Y-20912287D02*
X5340019Y-20902764D01*
X5340019Y-20902764D02*
X5330495Y-20883716D01*
X5330495Y-20883716D02*
X5330495Y-20712287D01*
X5511447Y-20902764D02*
X5492400Y-20912287D01*
X5492400Y-20912287D02*
X5454305Y-20912287D01*
X5454305Y-20912287D02*
X5435257Y-20902764D01*
X5435257Y-20902764D02*
X5425733Y-20883716D01*
X5425733Y-20883716D02*
X5425733Y-20807525D01*
X5425733Y-20807525D02*
X5435257Y-20788478D01*
X5435257Y-20788478D02*
X5454305Y-20778954D01*
X5454305Y-20778954D02*
X5492400Y-20778954D01*
X5492400Y-20778954D02*
X5511447Y-20788478D01*
X5511447Y-20788478D02*
X5520971Y-20807525D01*
X5520971Y-20807525D02*
X5520971Y-20826573D01*
X5520971Y-20826573D02*
X5425733Y-20845621D01*
X5597162Y-20902764D02*
X5616209Y-20912287D01*
X5616209Y-20912287D02*
X5654304Y-20912287D01*
X5654304Y-20912287D02*
X5673352Y-20902764D01*
X5673352Y-20902764D02*
X5682876Y-20883716D01*
X5682876Y-20883716D02*
X5682876Y-20874192D01*
X5682876Y-20874192D02*
X5673352Y-20855144D01*
X5673352Y-20855144D02*
X5654304Y-20845621D01*
X5654304Y-20845621D02*
X5625733Y-20845621D01*
X5625733Y-20845621D02*
X5606685Y-20836097D01*
X5606685Y-20836097D02*
X5597162Y-20817049D01*
X5597162Y-20817049D02*
X5597162Y-20807525D01*
X5597162Y-20807525D02*
X5606685Y-20788478D01*
X5606685Y-20788478D02*
X5625733Y-20778954D01*
X5625733Y-20778954D02*
X5654304Y-20778954D01*
X5654304Y-20778954D02*
X5673352Y-20788478D01*
X5749543Y-20988478D02*
X5759066Y-20978954D01*
X5759066Y-20978954D02*
X5778114Y-20950383D01*
X5778114Y-20950383D02*
X5787638Y-20931335D01*
X5787638Y-20931335D02*
X5797162Y-20902764D01*
X5797162Y-20902764D02*
X5806685Y-20855144D01*
X5806685Y-20855144D02*
X5806685Y-20817049D01*
X5806685Y-20817049D02*
X5797162Y-20769430D01*
X5797162Y-20769430D02*
X5787638Y-20740859D01*
X5787638Y-20740859D02*
X5778114Y-20721811D01*
X5778114Y-20721811D02*
X5759066Y-20693240D01*
X5759066Y-20693240D02*
X5749543Y-20683716D01*
M02*
