%TF.GenerationSoftware,KiCad,Pcbnew,7.0.2-0*%
%TF.CreationDate,2024-01-28T20:09:23-06:00*%
%TF.ProjectId,bus_bar,6275735f-6261-4722-9e6b-696361645f70,rev?*%
%TF.SameCoordinates,Original*%
%TF.FileFunction,Drillmap*%
%TF.FilePolarity,Positive*%
%FSLAX45Y45*%
G04 Gerber Fmt 4.5, Leading zero omitted, Abs format (unit mm)*
G04 Created by KiCad (PCBNEW 7.0.2-0) date 2024-01-28 20:09:23*
%MOMM*%
%LPD*%
G01*
G04 APERTURE LIST*
%ADD10C,0.100000*%
%ADD11C,0.200000*%
G04 APERTURE END LIST*
D10*
X28782754Y-5061764D02*
X26750754Y-1542236D01*
X3740152Y-20106704D02*
X28596813Y-5755705D01*
X1077711Y-16511222D02*
X3046211Y-19920764D01*
X26056813Y-1356295D02*
X1310138Y-15643796D01*
X26750754Y-1542236D02*
G75*
G03*
X26056813Y-1356295I-439941J-254000D01*
G01*
X28596813Y-5755705D02*
G75*
G03*
X28782754Y-5061764I-254000J439941D01*
G01*
X3046211Y-19920763D02*
G75*
G03*
X3740152Y-20106704I439941J254000D01*
G01*
X1310138Y-15643795D02*
G75*
G03*
X1077712Y-16511222I317500J-549926D01*
G01*
D11*
X1235257Y-20492287D02*
X1235257Y-20292287D01*
X1235257Y-20292287D02*
X1282876Y-20292287D01*
X1282876Y-20292287D02*
X1311447Y-20301811D01*
X1311447Y-20301811D02*
X1330495Y-20320859D01*
X1330495Y-20320859D02*
X1340018Y-20339906D01*
X1340018Y-20339906D02*
X1349542Y-20378002D01*
X1349542Y-20378002D02*
X1349542Y-20406573D01*
X1349542Y-20406573D02*
X1340018Y-20444668D01*
X1340018Y-20444668D02*
X1330495Y-20463716D01*
X1330495Y-20463716D02*
X1311447Y-20482764D01*
X1311447Y-20482764D02*
X1282876Y-20492287D01*
X1282876Y-20492287D02*
X1235257Y-20492287D01*
X1435256Y-20492287D02*
X1435256Y-20358954D01*
X1435256Y-20397049D02*
X1444780Y-20378002D01*
X1444780Y-20378002D02*
X1454304Y-20368478D01*
X1454304Y-20368478D02*
X1473352Y-20358954D01*
X1473352Y-20358954D02*
X1492399Y-20358954D01*
X1559066Y-20492287D02*
X1559066Y-20358954D01*
X1559066Y-20292287D02*
X1549542Y-20301811D01*
X1549542Y-20301811D02*
X1559066Y-20311335D01*
X1559066Y-20311335D02*
X1568590Y-20301811D01*
X1568590Y-20301811D02*
X1559066Y-20292287D01*
X1559066Y-20292287D02*
X1559066Y-20311335D01*
X1682875Y-20492287D02*
X1663828Y-20482764D01*
X1663828Y-20482764D02*
X1654304Y-20463716D01*
X1654304Y-20463716D02*
X1654304Y-20292287D01*
X1787637Y-20492287D02*
X1768590Y-20482764D01*
X1768590Y-20482764D02*
X1759066Y-20463716D01*
X1759066Y-20463716D02*
X1759066Y-20292287D01*
X2016209Y-20492287D02*
X2016209Y-20292287D01*
X2016209Y-20292287D02*
X2082876Y-20435144D01*
X2082876Y-20435144D02*
X2149542Y-20292287D01*
X2149542Y-20292287D02*
X2149542Y-20492287D01*
X2330495Y-20492287D02*
X2330495Y-20387525D01*
X2330495Y-20387525D02*
X2320971Y-20368478D01*
X2320971Y-20368478D02*
X2301923Y-20358954D01*
X2301923Y-20358954D02*
X2263828Y-20358954D01*
X2263828Y-20358954D02*
X2244780Y-20368478D01*
X2330495Y-20482764D02*
X2311447Y-20492287D01*
X2311447Y-20492287D02*
X2263828Y-20492287D01*
X2263828Y-20492287D02*
X2244780Y-20482764D01*
X2244780Y-20482764D02*
X2235257Y-20463716D01*
X2235257Y-20463716D02*
X2235257Y-20444668D01*
X2235257Y-20444668D02*
X2244780Y-20425621D01*
X2244780Y-20425621D02*
X2263828Y-20416097D01*
X2263828Y-20416097D02*
X2311447Y-20416097D01*
X2311447Y-20416097D02*
X2330495Y-20406573D01*
X2425733Y-20358954D02*
X2425733Y-20558954D01*
X2425733Y-20368478D02*
X2444780Y-20358954D01*
X2444780Y-20358954D02*
X2482876Y-20358954D01*
X2482876Y-20358954D02*
X2501923Y-20368478D01*
X2501923Y-20368478D02*
X2511447Y-20378002D01*
X2511447Y-20378002D02*
X2520971Y-20397049D01*
X2520971Y-20397049D02*
X2520971Y-20454192D01*
X2520971Y-20454192D02*
X2511447Y-20473240D01*
X2511447Y-20473240D02*
X2501923Y-20482764D01*
X2501923Y-20482764D02*
X2482876Y-20492287D01*
X2482876Y-20492287D02*
X2444780Y-20492287D01*
X2444780Y-20492287D02*
X2425733Y-20482764D01*
X2606685Y-20473240D02*
X2616209Y-20482764D01*
X2616209Y-20482764D02*
X2606685Y-20492287D01*
X2606685Y-20492287D02*
X2597161Y-20482764D01*
X2597161Y-20482764D02*
X2606685Y-20473240D01*
X2606685Y-20473240D02*
X2606685Y-20492287D01*
X2606685Y-20368478D02*
X2616209Y-20378002D01*
X2616209Y-20378002D02*
X2606685Y-20387525D01*
X2606685Y-20387525D02*
X2597161Y-20378002D01*
X2597161Y-20378002D02*
X2606685Y-20368478D01*
X2606685Y-20368478D02*
X2606685Y-20387525D01*
M02*
