%TF.GenerationSoftware,KiCad,Pcbnew,(6.0.10-0)*%
%TF.CreationDate,2023-01-26T22:23:51-06:00*%
%TF.ProjectId,spudglo_driver_v4p1,73707564-676c-46f5-9f64-72697665725f,rev?*%
%TF.SameCoordinates,Original*%
%TF.FileFunction,Copper,L1,Top*%
%TF.FilePolarity,Positive*%
%FSLAX46Y46*%
G04 Gerber Fmt 4.6, Leading zero omitted, Abs format (unit mm)*
G04 Created by KiCad (PCBNEW (6.0.10-0)) date 2023-01-26 22:23:51*
%MOMM*%
%LPD*%
G01*
G04 APERTURE LIST*
G04 Aperture macros list*
%AMRoundRect*
0 Rectangle with rounded corners*
0 $1 Rounding radius*
0 $2 $3 $4 $5 $6 $7 $8 $9 X,Y pos of 4 corners*
0 Add a 4 corners polygon primitive as box body*
4,1,4,$2,$3,$4,$5,$6,$7,$8,$9,$2,$3,0*
0 Add four circle primitives for the rounded corners*
1,1,$1+$1,$2,$3*
1,1,$1+$1,$4,$5*
1,1,$1+$1,$6,$7*
1,1,$1+$1,$8,$9*
0 Add four rect primitives between the rounded corners*
20,1,$1+$1,$2,$3,$4,$5,0*
20,1,$1+$1,$4,$5,$6,$7,0*
20,1,$1+$1,$6,$7,$8,$9,0*
20,1,$1+$1,$8,$9,$2,$3,0*%
G04 Aperture macros list end*
%TA.AperFunction,SMDPad,CuDef*%
%ADD10RoundRect,0.237500X0.250000X0.237500X-0.250000X0.237500X-0.250000X-0.237500X0.250000X-0.237500X0*%
%TD*%
%TA.AperFunction,SMDPad,CuDef*%
%ADD11RoundRect,0.237500X0.287500X0.237500X-0.287500X0.237500X-0.287500X-0.237500X0.287500X-0.237500X0*%
%TD*%
%TA.AperFunction,SMDPad,CuDef*%
%ADD12RoundRect,0.237500X-0.237500X0.287500X-0.237500X-0.287500X0.237500X-0.287500X0.237500X0.287500X0*%
%TD*%
%TA.AperFunction,ComponentPad*%
%ADD13R,2.400000X1.600000*%
%TD*%
%TA.AperFunction,ComponentPad*%
%ADD14O,2.400000X1.600000*%
%TD*%
%TA.AperFunction,SMDPad,CuDef*%
%ADD15RoundRect,0.150000X0.150000X-0.825000X0.150000X0.825000X-0.150000X0.825000X-0.150000X-0.825000X0*%
%TD*%
%TA.AperFunction,ComponentPad*%
%ADD16R,1.700000X1.700000*%
%TD*%
%TA.AperFunction,ComponentPad*%
%ADD17O,1.700000X1.700000*%
%TD*%
%TA.AperFunction,SMDPad,CuDef*%
%ADD18RoundRect,0.075000X-0.700000X-0.075000X0.700000X-0.075000X0.700000X0.075000X-0.700000X0.075000X0*%
%TD*%
%TA.AperFunction,SMDPad,CuDef*%
%ADD19RoundRect,0.075000X-0.075000X-0.700000X0.075000X-0.700000X0.075000X0.700000X-0.075000X0.700000X0*%
%TD*%
%TA.AperFunction,SMDPad,CuDef*%
%ADD20RoundRect,0.237500X-0.287500X-0.237500X0.287500X-0.237500X0.287500X0.237500X-0.287500X0.237500X0*%
%TD*%
%TA.AperFunction,SMDPad,CuDef*%
%ADD21RoundRect,0.237500X0.237500X-0.287500X0.237500X0.287500X-0.237500X0.287500X-0.237500X-0.287500X0*%
%TD*%
%TA.AperFunction,SMDPad,CuDef*%
%ADD22RoundRect,0.100000X-0.637500X-0.100000X0.637500X-0.100000X0.637500X0.100000X-0.637500X0.100000X0*%
%TD*%
%TA.AperFunction,SMDPad,CuDef*%
%ADD23R,0.575000X1.140000*%
%TD*%
%TA.AperFunction,SMDPad,CuDef*%
%ADD24R,1.000000X1.200000*%
%TD*%
%TA.AperFunction,SMDPad,CuDef*%
%ADD25R,0.650000X1.060000*%
%TD*%
%TA.AperFunction,ComponentPad*%
%ADD26R,1.800000X4.400000*%
%TD*%
%TA.AperFunction,ComponentPad*%
%ADD27O,1.800000X4.000000*%
%TD*%
%TA.AperFunction,ComponentPad*%
%ADD28O,4.000000X1.800000*%
%TD*%
%TA.AperFunction,ComponentPad*%
%ADD29C,5.000000*%
%TD*%
%TA.AperFunction,ComponentPad*%
%ADD30C,2.000000*%
%TD*%
%TA.AperFunction,SMDPad,CuDef*%
%ADD31RoundRect,0.237500X0.237500X-0.300000X0.237500X0.300000X-0.237500X0.300000X-0.237500X-0.300000X0*%
%TD*%
%TA.AperFunction,ViaPad*%
%ADD32C,0.800000*%
%TD*%
%TA.AperFunction,ViaPad*%
%ADD33C,1.200000*%
%TD*%
%TA.AperFunction,Conductor*%
%ADD34C,0.250000*%
%TD*%
%TA.AperFunction,Conductor*%
%ADD35C,1.000000*%
%TD*%
%TA.AperFunction,Conductor*%
%ADD36C,0.500000*%
%TD*%
%TA.AperFunction,Conductor*%
%ADD37C,0.750000*%
%TD*%
%TA.AperFunction,Conductor*%
%ADD38C,0.200000*%
%TD*%
%TA.AperFunction,Conductor*%
%ADD39C,4.500000*%
%TD*%
G04 APERTURE END LIST*
D10*
X140402500Y-113650000D03*
X138577500Y-113650000D03*
D11*
X135828000Y-89433000D03*
X134078000Y-89433000D03*
X135838000Y-92583000D03*
X134088000Y-92583000D03*
D12*
X134050000Y-95800000D03*
X134050000Y-97550000D03*
D13*
X123952000Y-83820000D03*
D14*
X123952000Y-86360000D03*
X123952000Y-88900000D03*
X123952000Y-91440000D03*
X123952000Y-93980000D03*
X123952000Y-96520000D03*
X123952000Y-99060000D03*
X123952000Y-101600000D03*
X131572000Y-101600000D03*
X131572000Y-99060000D03*
X131572000Y-96520000D03*
X131572000Y-93980000D03*
X131572000Y-91440000D03*
X131572000Y-88900000D03*
X131572000Y-86360000D03*
X131572000Y-83820000D03*
D15*
X125349000Y-110044000D03*
X126619000Y-110044000D03*
X127889000Y-110044000D03*
X129159000Y-110044000D03*
X130429000Y-110044000D03*
X131699000Y-110044000D03*
X132969000Y-110044000D03*
X132969000Y-105094000D03*
X131699000Y-105094000D03*
X130429000Y-105094000D03*
X129159000Y-105094000D03*
X127889000Y-105094000D03*
X126619000Y-105094000D03*
X125349000Y-105094000D03*
D12*
X185940000Y-99795000D03*
X185940000Y-101545000D03*
X197940000Y-95995000D03*
X197940000Y-97745000D03*
D16*
X197745400Y-91695400D03*
D17*
X195205400Y-91695400D03*
X197745400Y-89155400D03*
X195205400Y-89155400D03*
X197745400Y-86615400D03*
X195205400Y-86615400D03*
X197745400Y-84075400D03*
X195205400Y-84075400D03*
D18*
X178727500Y-105470000D03*
X178727500Y-105970000D03*
X178727500Y-106470000D03*
X178727500Y-106970000D03*
X178727500Y-107470000D03*
X178727500Y-107970000D03*
X178727500Y-108470000D03*
X178727500Y-108970000D03*
X178727500Y-109470000D03*
X178727500Y-109970000D03*
X178727500Y-110470000D03*
X178727500Y-110970000D03*
X178727500Y-111470000D03*
X178727500Y-111970000D03*
X178727500Y-112470000D03*
X178727500Y-112970000D03*
D19*
X180652500Y-114895000D03*
X181152500Y-114895000D03*
X181652500Y-114895000D03*
X182152500Y-114895000D03*
X182652500Y-114895000D03*
X183152500Y-114895000D03*
X183652500Y-114895000D03*
X184152500Y-114895000D03*
X184652500Y-114895000D03*
X185152500Y-114895000D03*
X185652500Y-114895000D03*
X186152500Y-114895000D03*
X186652500Y-114895000D03*
X187152500Y-114895000D03*
X187652500Y-114895000D03*
X188152500Y-114895000D03*
D18*
X190077500Y-112970000D03*
X190077500Y-112470000D03*
X190077500Y-111970000D03*
X190077500Y-111470000D03*
X190077500Y-110970000D03*
X190077500Y-110470000D03*
X190077500Y-109970000D03*
X190077500Y-109470000D03*
X190077500Y-108970000D03*
X190077500Y-108470000D03*
X190077500Y-107970000D03*
X190077500Y-107470000D03*
X190077500Y-106970000D03*
X190077500Y-106470000D03*
X190077500Y-105970000D03*
X190077500Y-105470000D03*
D19*
X188152500Y-103545000D03*
X187652500Y-103545000D03*
X187152500Y-103545000D03*
X186652500Y-103545000D03*
X186152500Y-103545000D03*
X185652500Y-103545000D03*
X185152500Y-103545000D03*
X184652500Y-103545000D03*
X184152500Y-103545000D03*
X183652500Y-103545000D03*
X183152500Y-103545000D03*
X182652500Y-103545000D03*
X182152500Y-103545000D03*
X181652500Y-103545000D03*
X181152500Y-103545000D03*
X180652500Y-103545000D03*
D16*
X174570000Y-116780000D03*
D17*
X172030000Y-116780000D03*
D12*
X184370000Y-99785000D03*
X184370000Y-101535000D03*
D11*
X135823000Y-91003000D03*
X134073000Y-91003000D03*
D20*
X173809999Y-114050000D03*
X175559999Y-114050000D03*
D21*
X182620000Y-101575000D03*
X182620000Y-99825000D03*
D20*
X134088000Y-94143000D03*
X135838000Y-94143000D03*
D11*
X175560000Y-110830000D03*
X173810000Y-110830000D03*
D20*
X174260000Y-105490000D03*
X176010000Y-105490000D03*
X192052000Y-103378000D03*
X193802000Y-103378000D03*
D22*
X192463500Y-106549000D03*
X192463500Y-107199000D03*
X192463500Y-107849000D03*
X192463500Y-108499000D03*
X192463500Y-109149000D03*
X192463500Y-109799000D03*
X192463500Y-110449000D03*
X192463500Y-111099000D03*
X192463500Y-111749000D03*
X192463500Y-112399000D03*
X198188500Y-112399000D03*
X198188500Y-111749000D03*
X198188500Y-111099000D03*
X198188500Y-110449000D03*
X198188500Y-109799000D03*
X198188500Y-109149000D03*
X198188500Y-108499000D03*
X198188500Y-107849000D03*
X198188500Y-107199000D03*
X198188500Y-106549000D03*
D23*
X178076385Y-102989690D03*
X178901385Y-102989690D03*
D24*
X174280000Y-109090000D03*
X174280000Y-107390000D03*
X175580000Y-107390000D03*
X175580000Y-109090000D03*
D20*
X192038000Y-105029000D03*
X193788000Y-105029000D03*
D21*
X198247000Y-105001000D03*
X198247000Y-103251000D03*
D12*
X123571000Y-104662000D03*
X123571000Y-106412000D03*
D25*
X185160000Y-124620000D03*
X186110000Y-124620000D03*
X187060000Y-124620000D03*
X187060000Y-122420000D03*
X185160000Y-122420000D03*
D12*
X187520000Y-99795000D03*
X187520000Y-101545000D03*
X178360000Y-114265000D03*
X178360000Y-116015000D03*
X189140000Y-99775000D03*
X189140000Y-101525000D03*
D20*
X134093000Y-87833000D03*
X135843000Y-87833000D03*
D21*
X181020000Y-101600000D03*
X181020000Y-99850000D03*
D11*
X175545000Y-112460000D03*
X173795000Y-112460000D03*
D21*
X196723000Y-105001000D03*
X196723000Y-103251000D03*
X177770015Y-101193639D03*
X177770015Y-99443639D03*
D16*
X138640000Y-102870000D03*
D17*
X138640000Y-105410000D03*
X138640000Y-107950000D03*
X138640000Y-110490000D03*
D21*
X179396360Y-101193639D03*
X179396360Y-99443639D03*
D20*
X185100000Y-120750000D03*
X186850000Y-120750000D03*
D11*
X182205000Y-116920000D03*
X180455000Y-116920000D03*
D20*
X185125000Y-126370000D03*
X186875000Y-126370000D03*
D11*
X176410000Y-103730000D03*
X174660000Y-103730000D03*
X188790000Y-116780000D03*
X187040000Y-116780000D03*
X182220000Y-118490000D03*
X180470000Y-118490000D03*
D20*
X192024000Y-101727000D03*
X193774000Y-101727000D03*
D21*
X189050000Y-127490000D03*
X189050000Y-125740000D03*
D26*
X136065000Y-117570000D03*
D27*
X130265000Y-117570000D03*
D28*
X133065000Y-122370000D03*
D11*
X135846000Y-84582000D03*
X134096000Y-84582000D03*
X135815000Y-101180000D03*
X134065000Y-101180000D03*
D20*
X134100000Y-82840000D03*
X135850000Y-82840000D03*
X134090000Y-99480000D03*
X135840000Y-99480000D03*
D11*
X135818000Y-86233000D03*
X134068000Y-86233000D03*
D12*
X135740000Y-95775000D03*
X135740000Y-97525000D03*
D16*
X181140706Y-95340182D03*
D17*
X183680706Y-95340182D03*
X186220706Y-95340182D03*
X188760706Y-95340182D03*
X191300706Y-95340182D03*
D16*
X138742448Y-95402303D03*
D17*
X141282448Y-95402303D03*
X143822448Y-95402303D03*
X146362448Y-95402303D03*
X148902448Y-95402303D03*
D16*
X153001137Y-95377384D03*
D17*
X155541137Y-95377384D03*
X158081137Y-95377384D03*
X160621137Y-95377384D03*
X163161137Y-95377384D03*
D16*
X166997713Y-95354302D03*
D17*
X169537713Y-95354302D03*
X172077713Y-95354302D03*
X174617713Y-95354302D03*
X177157713Y-95354302D03*
D29*
X143610000Y-131240000D03*
X186974000Y-131358000D03*
D30*
X204010000Y-122410000D03*
X204010000Y-118910000D03*
X204010000Y-115410000D03*
X204010000Y-111910000D03*
X204010000Y-108410000D03*
X204010000Y-104910000D03*
X204010000Y-101410000D03*
X204010000Y-97910000D03*
X204010000Y-94410000D03*
X204010000Y-90910000D03*
X204010000Y-87410000D03*
X204010000Y-83910000D03*
D31*
X123571000Y-110463500D03*
X123571000Y-108738500D03*
D32*
X185160000Y-113170000D03*
X141500000Y-103300000D03*
X172800000Y-109090000D03*
X176840000Y-107170000D03*
X172480000Y-112330000D03*
X179460000Y-98174292D03*
X173310000Y-103630000D03*
X179140000Y-118420000D03*
X193790000Y-100500000D03*
X186430000Y-127380000D03*
X200100000Y-108940000D03*
X177170000Y-110600000D03*
X198240000Y-101960000D03*
X125230000Y-107510000D03*
X200110000Y-110780000D03*
X200130000Y-106090000D03*
X193960000Y-112090000D03*
X177830000Y-117210000D03*
X187130000Y-117930000D03*
D33*
X190970000Y-125540000D03*
D32*
X134580000Y-109470000D03*
X199580000Y-112940000D03*
D33*
X188400000Y-120700000D03*
D32*
X182190000Y-98460000D03*
X177960934Y-98188435D03*
X172640000Y-110770000D03*
D33*
X184960000Y-119370000D03*
X190660000Y-104020000D03*
X183090000Y-120740000D03*
X147250000Y-101270000D03*
D32*
X180210685Y-111729315D03*
X181265000Y-105005000D03*
X188930000Y-118020000D03*
X177660000Y-104210000D03*
D33*
X146900000Y-120670000D03*
X123970000Y-113390000D03*
D32*
X183550000Y-118450000D03*
X172280000Y-113780000D03*
X190460000Y-100770000D03*
X124770000Y-103420000D03*
X195550000Y-106250000D03*
X137450000Y-86530000D03*
X195660000Y-98500000D03*
X183210000Y-104930000D03*
X188370000Y-106680000D03*
X195290000Y-104310000D03*
X186620000Y-105060000D03*
X196170000Y-97220000D03*
X193810000Y-109600000D03*
X188465000Y-110445000D03*
X188680000Y-108270000D03*
X193860000Y-106510000D03*
X184360000Y-105170000D03*
X196009809Y-96093372D03*
X185140000Y-105950000D03*
X192420000Y-100170000D03*
X137770000Y-88850000D03*
X137500000Y-90990000D03*
X137235000Y-93185000D03*
X137130000Y-95960000D03*
X126100000Y-102920000D03*
X126890000Y-102070000D03*
X128150000Y-95030000D03*
X127655000Y-101335000D03*
X128760000Y-100820000D03*
X176826802Y-119193198D03*
X170660000Y-119720000D03*
X169770000Y-117930000D03*
X174040000Y-101270000D03*
D34*
X185152500Y-114895000D02*
X185152500Y-113177500D01*
X185152500Y-113177500D02*
X185160000Y-113170000D01*
X141420000Y-103300000D02*
X141500000Y-103300000D01*
X140402500Y-102282500D02*
X141420000Y-103300000D01*
X139815000Y-101695000D02*
X136620495Y-101695000D01*
X140402500Y-102282500D02*
X139815000Y-101695000D01*
X140402500Y-113650000D02*
X140402500Y-102282500D01*
X136620495Y-101695000D02*
X135895495Y-102420000D01*
X135643000Y-102420000D02*
X132969000Y-105094000D01*
X135895495Y-102420000D02*
X135643000Y-102420000D01*
X138577500Y-113650000D02*
X136575000Y-113650000D01*
X136575000Y-113650000D02*
X132969000Y-110044000D01*
D35*
X190770000Y-125740000D02*
X190970000Y-125540000D01*
D36*
X202310000Y-108940000D02*
X202560000Y-108690000D01*
X174660000Y-103730000D02*
X173410000Y-103730000D01*
X201271384Y-107271383D02*
X202040000Y-106502767D01*
X179140000Y-118420000D02*
X180400000Y-118420000D01*
D34*
X193651000Y-112399000D02*
X193960000Y-112090000D01*
D36*
X180400000Y-118420000D02*
X180470000Y-118490000D01*
X200130000Y-106090000D02*
X200640000Y-105580000D01*
X202139975Y-100769975D02*
X203549950Y-99360000D01*
X182190000Y-98680000D02*
X181020000Y-99850000D01*
X186110000Y-125605000D02*
X186875000Y-126370000D01*
D34*
X181152500Y-114895000D02*
X181152500Y-116222500D01*
D36*
X173795000Y-112460000D02*
X172610000Y-112460000D01*
X200640000Y-105580000D02*
X200640000Y-104690000D01*
X200660000Y-113695133D02*
X199904867Y-112940000D01*
D34*
X187040000Y-116780000D02*
X187652500Y-116167500D01*
D36*
X200100000Y-108940000D02*
X202310000Y-108940000D01*
D34*
X174660000Y-104140000D02*
X174660000Y-103730000D01*
D36*
X200110000Y-110650000D02*
X200261000Y-110499000D01*
D34*
X178727500Y-110970000D02*
X177540000Y-110970000D01*
X179460000Y-99380000D02*
X179460000Y-98174292D01*
D36*
X180470000Y-116935000D02*
X180455000Y-116920000D01*
D34*
X192417495Y-105970000D02*
X192938000Y-105449495D01*
D35*
X189050000Y-125740000D02*
X188300000Y-125740000D01*
D36*
X202060000Y-115970050D02*
X203589975Y-117500025D01*
D34*
X181045000Y-99825000D02*
X181020000Y-99850000D01*
X181554999Y-102445000D02*
X181820000Y-102179999D01*
X134006000Y-110044000D02*
X134580000Y-109470000D01*
D36*
X186430000Y-126815000D02*
X186430000Y-127380000D01*
D37*
X198247000Y-103251000D02*
X196723000Y-103251000D01*
D36*
X199904867Y-112940000D02*
X199580000Y-112940000D01*
X186110000Y-124620000D02*
X186110000Y-125605000D01*
X202040000Y-100869950D02*
X202139975Y-100769975D01*
X200902484Y-116792434D02*
X202610025Y-118499975D01*
D34*
X190077500Y-105970000D02*
X192417495Y-105970000D01*
X179396360Y-99443640D02*
X179460000Y-99380000D01*
X181152500Y-102704315D02*
X181411815Y-102445000D01*
X177960934Y-99252721D02*
X177960934Y-98188435D01*
D36*
X200110000Y-111165233D02*
X201742384Y-112797617D01*
X200261000Y-110499000D02*
X202080000Y-110499000D01*
X200110000Y-110780000D02*
X200110000Y-111165233D01*
D34*
X181152500Y-116222500D02*
X180455000Y-116920000D01*
D36*
X202060000Y-113115234D02*
X202060000Y-115240000D01*
D34*
X187040000Y-117840000D02*
X187090000Y-117890000D01*
X193774000Y-101727000D02*
X193774000Y-100516000D01*
D36*
X202040000Y-105922867D02*
X202040000Y-100869950D01*
X200110000Y-110780000D02*
X200110000Y-110650000D01*
X200640000Y-100290050D02*
X202575025Y-98355025D01*
D34*
X182620000Y-99825000D02*
X181045000Y-99825000D01*
X174280000Y-109090000D02*
X172800000Y-109090000D01*
X178360000Y-116680000D02*
X177830000Y-117210000D01*
X177540000Y-110970000D02*
X177170000Y-110600000D01*
D36*
X186875000Y-126370000D02*
X186430000Y-126815000D01*
D34*
X181820000Y-102179999D02*
X181820000Y-100650000D01*
X177770015Y-99443640D02*
X177960934Y-99252721D01*
X193802000Y-101755000D02*
X193774000Y-101727000D01*
D36*
X175580000Y-107390000D02*
X176620000Y-107390000D01*
X180470000Y-118490000D02*
X180470000Y-116935000D01*
D34*
X193802000Y-103378000D02*
X193802000Y-101755000D01*
D36*
X173810000Y-110830000D02*
X172700000Y-110830000D01*
D34*
X178360000Y-116015000D02*
X178360000Y-116680000D01*
X187040000Y-116780000D02*
X187040000Y-117840000D01*
X192463500Y-112399000D02*
X193651000Y-112399000D01*
D36*
X176620000Y-107390000D02*
X176840000Y-107170000D01*
X123571000Y-108738500D02*
X124001500Y-108738500D01*
D35*
X186850000Y-120750000D02*
X186900000Y-120700000D01*
D36*
X202080000Y-110499000D02*
X202910949Y-110499000D01*
X172700000Y-110830000D02*
X172640000Y-110770000D01*
X198247000Y-101967000D02*
X198240000Y-101960000D01*
D34*
X181411815Y-102445000D02*
X181554999Y-102445000D01*
D36*
X202610025Y-118499975D02*
X200660000Y-116549949D01*
X200100000Y-108940000D02*
X200100000Y-108442767D01*
X200100000Y-108442767D02*
X201271384Y-107271383D01*
D34*
X132969000Y-110044000D02*
X134006000Y-110044000D01*
D36*
X172610000Y-112460000D02*
X172480000Y-112330000D01*
D34*
X181820000Y-100650000D02*
X181020000Y-99850000D01*
X192938000Y-104242000D02*
X193802000Y-103378000D01*
D36*
X200640000Y-104690000D02*
X200640000Y-100290050D01*
D34*
X176010000Y-105490000D02*
X174660000Y-104140000D01*
D36*
X201742384Y-112797617D02*
X202060000Y-113115234D01*
D35*
X186900000Y-120700000D02*
X188400000Y-120700000D01*
D34*
X193774000Y-100516000D02*
X193790000Y-100500000D01*
D36*
X200660000Y-116549949D02*
X200660000Y-113695133D01*
X198247000Y-103251000D02*
X198247000Y-101967000D01*
X203549950Y-99360000D02*
X203620000Y-99360000D01*
X202060000Y-115240000D02*
X202060000Y-115970050D01*
X202910949Y-110499000D02*
X203321000Y-110088949D01*
D34*
X181152500Y-103545000D02*
X181152500Y-102704315D01*
D35*
X186945000Y-126440000D02*
X186875000Y-126370000D01*
X187600000Y-126440000D02*
X186945000Y-126440000D01*
D36*
X123571000Y-108738500D02*
X123571000Y-106412000D01*
X182190000Y-98460000D02*
X182190000Y-98680000D01*
D34*
X187652500Y-116167500D02*
X187652500Y-114895000D01*
D36*
X202560000Y-108690000D02*
X202560000Y-108650000D01*
X202040000Y-106502767D02*
X202040000Y-105922867D01*
D35*
X188300000Y-125740000D02*
X187600000Y-126440000D01*
D34*
X187090000Y-117890000D02*
X187130000Y-117930000D01*
D35*
X189050000Y-125740000D02*
X190770000Y-125740000D01*
D36*
X124001500Y-108738500D02*
X125230000Y-107510000D01*
D34*
X192938000Y-105449495D02*
X192938000Y-104242000D01*
D36*
X173410000Y-103730000D02*
X173310000Y-103630000D01*
D34*
X178858959Y-101731040D02*
X179396360Y-101193638D01*
X178727500Y-106970000D02*
X179704581Y-106970000D01*
X179704581Y-106970000D02*
X180277500Y-106397081D01*
X178901386Y-102989690D02*
X178901386Y-101872461D01*
X178901385Y-103661385D02*
X178901385Y-102989690D01*
X178858959Y-101830034D02*
X178858959Y-101731040D01*
X178901386Y-101872461D02*
X178858959Y-101830034D01*
X180277500Y-105037500D02*
X178901385Y-103661385D01*
X180277500Y-106397081D02*
X180277500Y-105037500D01*
X178076385Y-103501075D02*
X178076385Y-102989690D01*
X177770015Y-101193638D02*
X178076384Y-101500008D01*
X179827500Y-106210685D02*
X179827500Y-105229315D01*
X178076384Y-101500008D02*
X178076384Y-102989690D01*
X179827500Y-105229315D02*
X179593185Y-104995000D01*
X178727500Y-106470000D02*
X179568185Y-106470000D01*
X179568185Y-106470000D02*
X179827500Y-106210685D01*
X179593185Y-104995000D02*
X179593185Y-104989581D01*
X178488294Y-103884690D02*
X178460000Y-103884690D01*
X178460000Y-103884690D02*
X178076385Y-103501075D01*
X179593185Y-104989581D02*
X178488294Y-103884690D01*
D35*
X185100000Y-120750000D02*
X183100000Y-120750000D01*
D37*
X192052000Y-103378000D02*
X192052000Y-101755000D01*
X191822000Y-105245000D02*
X190077500Y-105245000D01*
D34*
X180652500Y-104392500D02*
X181265000Y-105005000D01*
X197940000Y-95995000D02*
X198920400Y-95014600D01*
D36*
X180552500Y-103445000D02*
X180552500Y-103545000D01*
X123990500Y-110044000D02*
X123571000Y-110463500D01*
X177050000Y-103730000D02*
X176410000Y-103730000D01*
D34*
X188127500Y-116117500D02*
X188127500Y-115120000D01*
D36*
X182220000Y-116935000D02*
X182205000Y-116920000D01*
D34*
X197258699Y-87790400D02*
X196400000Y-86931701D01*
X198920400Y-88668699D02*
X198042101Y-87790400D01*
D35*
X183100000Y-120750000D02*
X183090000Y-120740000D01*
D34*
X172295000Y-113795000D02*
X172280000Y-113780000D01*
D36*
X184370000Y-99785000D02*
X185930000Y-99785000D01*
X193000000Y-86280800D02*
X195205400Y-84075400D01*
D34*
X181652500Y-114895000D02*
X181652500Y-116367500D01*
D36*
X187540000Y-99775000D02*
X187520000Y-99795000D01*
D37*
X192038000Y-105029000D02*
X192038000Y-103392000D01*
D36*
X125349000Y-110044000D02*
X123990500Y-110044000D01*
D34*
X178727500Y-105470000D02*
X177460000Y-105470000D01*
X179827500Y-111729315D02*
X179568185Y-111470000D01*
D35*
X123970000Y-113390000D02*
X123970000Y-110862500D01*
D36*
X189140000Y-99775000D02*
X187540000Y-99775000D01*
D34*
X180652500Y-103545000D02*
X180652500Y-104392500D01*
X181652500Y-116367500D02*
X182205000Y-116920000D01*
D36*
X187520000Y-99795000D02*
X185940000Y-99795000D01*
X177530000Y-104210000D02*
X177050000Y-103730000D01*
D37*
X192038000Y-105029000D02*
X191822000Y-105245000D01*
D34*
X178360000Y-114265000D02*
X178773185Y-114265000D01*
X177430000Y-105500000D02*
X177330000Y-105400000D01*
D36*
X177660000Y-104210000D02*
X177530000Y-104210000D01*
D34*
X132969000Y-105094000D02*
X132969000Y-105470751D01*
X177330000Y-104853109D02*
X176410000Y-103933109D01*
X198920400Y-95014600D02*
X198920400Y-88668699D01*
D36*
X181020000Y-102023642D02*
X180577500Y-102466142D01*
D34*
X176410000Y-103933109D02*
X176410000Y-103730000D01*
D35*
X184960000Y-120610000D02*
X184960000Y-119370000D01*
D36*
X189465000Y-99775000D02*
X190460000Y-100770000D01*
D35*
X185160000Y-120810000D02*
X185100000Y-120750000D01*
D36*
X183550000Y-118450000D02*
X182260000Y-118450000D01*
D37*
X192038000Y-103392000D02*
X192052000Y-103378000D01*
D35*
X123970000Y-110862500D02*
X123571000Y-110463500D01*
D34*
X196400000Y-85270000D02*
X195205400Y-84075400D01*
X198042101Y-87790400D02*
X197258699Y-87790400D01*
X172550000Y-114050000D02*
X172295000Y-113795000D01*
X179827500Y-113210685D02*
X179827500Y-111729315D01*
X177460000Y-105470000D02*
X177430000Y-105500000D01*
X179568185Y-111470000D02*
X178727500Y-111470000D01*
D35*
X185160000Y-122420000D02*
X185160000Y-120810000D01*
D34*
X188790000Y-116780000D02*
X188790000Y-117880000D01*
D36*
X193000000Y-95915000D02*
X193000000Y-86280800D01*
X189140000Y-99775000D02*
X193000000Y-95915000D01*
X182220000Y-118490000D02*
X182220000Y-116935000D01*
D37*
X192052000Y-101755000D02*
X192024000Y-101727000D01*
D34*
X177330000Y-105400000D02*
X177330000Y-104853109D01*
X178773185Y-114265000D02*
X179827500Y-113210685D01*
X188790000Y-116780000D02*
X188127500Y-116117500D01*
X173809999Y-114050000D02*
X172550000Y-114050000D01*
D37*
X190660000Y-104020000D02*
X190660000Y-103091000D01*
D34*
X196400000Y-86931701D02*
X196400000Y-85270000D01*
D36*
X181020000Y-101600000D02*
X181020000Y-102023642D01*
D34*
X179827500Y-111729315D02*
X180210685Y-111729315D01*
X188790000Y-117880000D02*
X188930000Y-118020000D01*
D36*
X182260000Y-118450000D02*
X182220000Y-118490000D01*
X185930000Y-99785000D02*
X185940000Y-99795000D01*
D37*
X190660000Y-103091000D02*
X192024000Y-101727000D01*
D35*
X185100000Y-120750000D02*
X184960000Y-120610000D01*
D36*
X189140000Y-99775000D02*
X189465000Y-99775000D01*
X180552500Y-102627538D02*
X180552500Y-103445000D01*
D34*
X137073000Y-89433000D02*
X135828000Y-89433000D01*
X139550000Y-91910000D02*
X140290000Y-92650000D01*
D36*
X196600000Y-105124000D02*
X196723000Y-105001000D01*
D34*
X137287697Y-94227303D02*
X135740000Y-95775000D01*
X135838000Y-92583000D02*
X136007000Y-92583000D01*
D35*
X185125000Y-126370000D02*
X185125000Y-129509000D01*
D34*
X137153000Y-86233000D02*
X137450000Y-86530000D01*
D36*
X197339000Y-106549000D02*
X196600000Y-105810000D01*
D35*
X185125000Y-126370000D02*
X185085000Y-126330000D01*
D34*
X187060000Y-124620000D02*
X187060000Y-124065000D01*
X186760000Y-123765000D02*
X185235000Y-123765000D01*
X135818000Y-86233000D02*
X137153000Y-86233000D01*
D36*
X124770000Y-103463000D02*
X123571000Y-104662000D01*
D35*
X185125000Y-129509000D02*
X186974000Y-131358000D01*
D34*
X140290000Y-94409855D02*
X140290000Y-92650000D01*
D36*
X125349000Y-105094000D02*
X124003000Y-105094000D01*
X198188500Y-106549000D02*
X197339000Y-106549000D01*
D34*
X185085000Y-123915000D02*
X185085000Y-124620000D01*
X141282448Y-95402303D02*
X140290000Y-94409855D01*
X141282448Y-95402303D02*
X140107448Y-94227303D01*
X136680000Y-91910000D02*
X139550000Y-91910000D01*
X136007000Y-92583000D02*
X136680000Y-91910000D01*
D36*
X124770000Y-103420000D02*
X124770000Y-103463000D01*
D34*
X187060000Y-124065000D02*
X186760000Y-123765000D01*
D36*
X124003000Y-105094000D02*
X123571000Y-104662000D01*
X196723000Y-105001000D02*
X195550000Y-106174000D01*
X195550000Y-106174000D02*
X195550000Y-106250000D01*
D35*
X185085000Y-126330000D02*
X185085000Y-124620000D01*
D34*
X185235000Y-123765000D02*
X185085000Y-123915000D01*
X140290000Y-92650000D02*
X137073000Y-89433000D01*
D36*
X196600000Y-105810000D02*
X196600000Y-105124000D01*
D35*
X186974000Y-129566000D02*
X189050000Y-127490000D01*
X186974000Y-131358000D02*
X186974000Y-129566000D01*
D34*
X140107448Y-94227303D02*
X137287697Y-94227303D01*
X182652500Y-103545000D02*
X182652500Y-101607500D01*
X182652500Y-101607500D02*
X182620000Y-101575000D01*
X175559999Y-114050000D02*
X175559999Y-112474999D01*
X174570000Y-115039999D02*
X175559999Y-114050000D01*
X175559999Y-112474999D02*
X175545000Y-112460000D01*
X195660000Y-98500000D02*
X195205400Y-98045400D01*
X181380000Y-108470000D02*
X183210000Y-106640000D01*
X195205400Y-98045400D02*
X195205400Y-91695400D01*
X183210000Y-106640000D02*
X183210000Y-104930000D01*
X176410000Y-109326396D02*
X176410000Y-111595000D01*
X174570000Y-116780000D02*
X174570000Y-115039999D01*
X176410000Y-111595000D02*
X175545000Y-112460000D01*
X177266396Y-108470000D02*
X176410000Y-109326396D01*
X178727500Y-108470000D02*
X181380000Y-108470000D01*
X178727500Y-108470000D02*
X177266396Y-108470000D01*
X195290000Y-103363505D02*
X195290000Y-104310000D01*
X195290000Y-100395000D02*
X197940000Y-97745000D01*
X195290000Y-103363505D02*
X195290000Y-100395000D01*
X197745400Y-84075400D02*
X199045400Y-84075400D01*
X200940000Y-99090000D02*
X199563505Y-99090000D01*
X201970000Y-87000000D02*
X201970000Y-98060000D01*
X201970000Y-98060000D02*
X200940000Y-99090000D01*
X188580000Y-106470000D02*
X188370000Y-106680000D01*
X199045400Y-84075400D02*
X201970000Y-87000000D01*
X199563505Y-99090000D02*
X195290000Y-103363505D01*
X190077500Y-106470000D02*
X188580000Y-106470000D01*
X193580400Y-93142202D02*
X193580400Y-88240400D01*
X193580400Y-88240400D02*
X195205400Y-86615400D01*
X191185000Y-100145000D02*
X193848198Y-97481802D01*
X188152500Y-102512500D02*
X189140000Y-101525000D01*
X193848198Y-93410000D02*
X193580400Y-93142202D01*
X188152500Y-103545000D02*
X188152500Y-102512500D01*
X193848198Y-97481802D02*
X193848198Y-93410000D01*
X191185000Y-101070305D02*
X191185000Y-100145000D01*
X190730305Y-101525000D02*
X191185000Y-101070305D01*
X189140000Y-101525000D02*
X190730305Y-101525000D01*
X201420000Y-95740000D02*
X201420000Y-87840000D01*
X200195400Y-86615400D02*
X197745400Y-86615400D01*
X200265000Y-96895000D02*
X201420000Y-95740000D01*
X196170000Y-97220000D02*
X196495000Y-96895000D01*
X196495000Y-96895000D02*
X200265000Y-96895000D01*
X187652500Y-104385685D02*
X186978185Y-105060000D01*
X201420000Y-87840000D02*
X200195400Y-86615400D01*
X187652500Y-103545000D02*
X187652500Y-101677500D01*
X187652500Y-103545000D02*
X187652500Y-104385685D01*
X186978185Y-105060000D02*
X186620000Y-105060000D01*
X187652500Y-101677500D02*
X187520000Y-101545000D01*
X199251000Y-106005000D02*
X199251000Y-107075041D01*
X196211000Y-107199000D02*
X193810000Y-109600000D01*
X190077500Y-110470000D02*
X188700000Y-110470000D01*
X199127041Y-107199000D02*
X198188500Y-107199000D01*
X188700000Y-110470000D02*
X188490000Y-110470000D01*
X198188500Y-107199000D02*
X196211000Y-107199000D01*
X198247000Y-105001000D02*
X199251000Y-106005000D01*
X199251000Y-107075041D02*
X199127041Y-107199000D01*
X188490000Y-110470000D02*
X188465000Y-110445000D01*
X193788000Y-105029000D02*
X193788000Y-106438000D01*
X193821000Y-106549000D02*
X193860000Y-106510000D01*
X189186815Y-109970000D02*
X190077500Y-109970000D01*
X192463500Y-106549000D02*
X193821000Y-106549000D01*
X188680000Y-109463185D02*
X189186815Y-109970000D01*
X193788000Y-106438000D02*
X193860000Y-106510000D01*
X188680000Y-108270000D02*
X188680000Y-109463185D01*
X196380400Y-95722781D02*
X196009809Y-96093372D01*
X197745400Y-89155400D02*
X196380400Y-90520400D01*
X184652500Y-103545000D02*
X184652500Y-101817500D01*
X184652500Y-103545000D02*
X184652500Y-104877500D01*
X196380400Y-90520400D02*
X196380400Y-95722781D01*
X184652500Y-104877500D02*
X184360000Y-105170000D01*
X184652500Y-101817500D02*
X184370000Y-101535000D01*
X185152500Y-103545000D02*
X185152500Y-102332500D01*
X185140000Y-105950000D02*
X185140000Y-103557500D01*
X192420000Y-100000000D02*
X192420000Y-100170000D01*
X194298198Y-98121802D02*
X192420000Y-100000000D01*
X194030400Y-90330400D02*
X195205400Y-89155400D01*
X194298198Y-98121802D02*
X194298198Y-92449899D01*
X194298198Y-92449899D02*
X194030400Y-92182101D01*
X185140000Y-103557500D02*
X185152500Y-103545000D01*
X185152500Y-102332500D02*
X185940000Y-101545000D01*
X194030400Y-92182101D02*
X194030400Y-90330400D01*
X192342500Y-107970000D02*
X192463500Y-107849000D01*
X190077500Y-107970000D02*
X192342500Y-107970000D01*
X191095959Y-108470000D02*
X190077500Y-108470000D01*
X192463500Y-109149000D02*
X191774959Y-109149000D01*
X191774959Y-109149000D02*
X191095959Y-108470000D01*
X190077500Y-108970000D02*
X190940000Y-108970000D01*
X191774959Y-110449000D02*
X192463500Y-110449000D01*
X191401000Y-110075041D02*
X191774959Y-110449000D01*
X190940000Y-108970000D02*
X191401000Y-109431000D01*
X191401000Y-109431000D02*
X191401000Y-110075041D01*
D36*
X199053817Y-111099000D02*
X201360000Y-113405183D01*
X201360000Y-116260000D02*
X204010000Y-118910000D01*
X198188500Y-111099000D02*
X199053817Y-111099000D01*
X201360000Y-113405183D02*
X201360000Y-116260000D01*
X202621000Y-109799000D02*
X204010000Y-108410000D01*
X198188500Y-109799000D02*
X202621000Y-109799000D01*
D34*
X135843000Y-87833000D02*
X136753000Y-87833000D01*
D38*
X137487000Y-91003000D02*
X137500000Y-90990000D01*
D34*
X158081137Y-95377384D02*
X156888521Y-96570000D01*
D38*
X135823000Y-91003000D02*
X137487000Y-91003000D01*
D34*
X138343000Y-87833000D02*
X135843000Y-87833000D01*
X155870000Y-96570000D02*
X155862697Y-96577303D01*
X143335747Y-96577303D02*
X142470000Y-95711556D01*
X136753000Y-87833000D02*
X137770000Y-88850000D01*
X156888521Y-96570000D02*
X155870000Y-96570000D01*
X142470000Y-95711556D02*
X142470000Y-91960000D01*
X142470000Y-91960000D02*
X138343000Y-87833000D01*
X155862697Y-96577303D02*
X143335747Y-96577303D01*
X125077000Y-87775000D02*
X123952000Y-88900000D01*
X134093000Y-87833000D02*
X134035000Y-87775000D01*
X134035000Y-87775000D02*
X125077000Y-87775000D01*
X130205000Y-95105000D02*
X129080000Y-93980000D01*
X133126000Y-95105000D02*
X130205000Y-95105000D01*
X134088000Y-94143000D02*
X133126000Y-95105000D01*
X129080000Y-93980000D02*
X123952000Y-93980000D01*
D38*
X137532448Y-96362448D02*
X137130000Y-95960000D01*
X138067448Y-97027303D02*
X141245747Y-97027303D01*
X137592448Y-96362448D02*
X137592448Y-96552303D01*
X136796000Y-93185000D02*
X135838000Y-94143000D01*
X134050000Y-95800000D02*
X135707000Y-94143000D01*
D34*
X172077713Y-95354302D02*
X170902713Y-96529302D01*
D38*
X137592448Y-96362448D02*
X137532448Y-96362448D01*
X135707000Y-94143000D02*
X135838000Y-94143000D01*
D34*
X163142697Y-97027303D02*
X141245747Y-97027303D01*
D38*
X137592448Y-96552303D02*
X138067448Y-97027303D01*
X137235000Y-93185000D02*
X136796000Y-93185000D01*
D34*
X163640698Y-96529302D02*
X163142697Y-97027303D01*
X170902713Y-96529302D02*
X163640698Y-96529302D01*
D38*
X125052000Y-90340000D02*
X123952000Y-91440000D01*
X134073000Y-91003000D02*
X133410000Y-90340000D01*
X133410000Y-90340000D02*
X125052000Y-90340000D01*
D34*
X126619000Y-105094000D02*
X126619000Y-103439000D01*
X134616495Y-83782000D02*
X134946000Y-84111505D01*
X131572000Y-83820000D02*
X131610000Y-83782000D01*
X131610000Y-83782000D02*
X134616495Y-83782000D01*
X134946000Y-84111505D02*
X134946000Y-85355000D01*
X126619000Y-103439000D02*
X126100000Y-102920000D01*
X134946000Y-85355000D02*
X134068000Y-86233000D01*
X133545000Y-88900000D02*
X131572000Y-88900000D01*
X127889000Y-105094000D02*
X127889000Y-103069000D01*
X127889000Y-103069000D02*
X126890000Y-102070000D01*
X134078000Y-89433000D02*
X133545000Y-88900000D01*
D38*
X133980000Y-97620000D02*
X129770000Y-97620000D01*
X129770000Y-97620000D02*
X128670000Y-96520000D01*
X126660000Y-96520000D02*
X128150000Y-95030000D01*
X128670000Y-96520000D02*
X123952000Y-96520000D01*
X123952000Y-96520000D02*
X126660000Y-96520000D01*
X134050000Y-97550000D02*
X133980000Y-97620000D01*
D36*
X199053817Y-108499000D02*
X201340000Y-106212817D01*
X198188500Y-108499000D02*
X199053817Y-108499000D01*
X201340000Y-100580000D02*
X204010000Y-97910000D01*
X201340000Y-106212817D02*
X201340000Y-100580000D01*
D34*
X129159000Y-105094000D02*
X129159000Y-102839000D01*
X134088000Y-92583000D02*
X132969000Y-92583000D01*
X129159000Y-102839000D02*
X127655000Y-101335000D01*
X132969000Y-92583000D02*
X131572000Y-93980000D01*
D38*
X135846000Y-84582000D02*
X136672000Y-84582000D01*
X143140000Y-91050000D02*
X143140000Y-94719855D01*
X143140000Y-91050000D02*
X136672000Y-84582000D01*
X135850000Y-84578000D02*
X135846000Y-84582000D01*
X143140000Y-94719855D02*
X143822448Y-95402303D01*
X135850000Y-82840000D02*
X135850000Y-84578000D01*
X133758000Y-84920000D02*
X125392000Y-84920000D01*
X125392000Y-84920000D02*
X123952000Y-86360000D01*
X134096000Y-84582000D02*
X133758000Y-84920000D01*
X134065000Y-101180000D02*
X133956365Y-101180000D01*
X130072000Y-102055635D02*
X130072000Y-100462000D01*
X130072000Y-100462000D02*
X128754480Y-99144480D01*
X123952000Y-101378000D02*
X123952000Y-101600000D01*
X132436365Y-102700000D02*
X130716365Y-102700000D01*
X128754480Y-99144480D02*
X126185520Y-99144480D01*
X133956365Y-101180000D02*
X132436365Y-102700000D01*
X130716365Y-102700000D02*
X130072000Y-102055635D01*
X126185520Y-99144480D02*
X123952000Y-101378000D01*
X135840000Y-101155000D02*
X135815000Y-101180000D01*
D34*
X163910000Y-96980000D02*
X163360000Y-97530000D01*
D38*
X135840000Y-99480000D02*
X136330000Y-99480000D01*
D34*
X186220706Y-95340182D02*
X184580888Y-96980000D01*
X184580888Y-96980000D02*
X163910000Y-96980000D01*
D38*
X135840000Y-99480000D02*
X135840000Y-101155000D01*
X136330000Y-99480000D02*
X138280000Y-97530000D01*
D34*
X163360000Y-97530000D02*
X138280000Y-97530000D01*
X133955000Y-82695000D02*
X125077000Y-82695000D01*
X134100000Y-82840000D02*
X133955000Y-82695000D01*
X125077000Y-82695000D02*
X123952000Y-83820000D01*
X134090000Y-99480000D02*
X133095000Y-100475000D01*
X133095000Y-100475000D02*
X130996010Y-100475000D01*
X124842000Y-98170000D02*
X123952000Y-99060000D01*
X129370000Y-98760000D02*
X128780000Y-98170000D01*
X128780000Y-98170000D02*
X124842000Y-98170000D01*
X129370000Y-98848990D02*
X129370000Y-98760000D01*
X130996010Y-100475000D02*
X129370000Y-98848990D01*
X130429000Y-105094000D02*
X130429000Y-103069000D01*
X131572000Y-99060000D02*
X131952000Y-98680000D01*
X131952000Y-98680000D02*
X134585000Y-98680000D01*
X128760000Y-101400000D02*
X128760000Y-100820000D01*
X134585000Y-98680000D02*
X135740000Y-97525000D01*
X130429000Y-103069000D02*
X128760000Y-101400000D01*
D39*
X140510000Y-123720000D02*
X140510000Y-124080000D01*
X143610000Y-131240000D02*
X140920000Y-128550000D01*
X143610000Y-123380000D02*
X143610000Y-131240000D01*
X136065000Y-117570000D02*
X136065000Y-119275000D01*
X140920000Y-128550000D02*
X140920000Y-126610000D01*
X137800000Y-117570000D02*
X143610000Y-123380000D01*
X136065000Y-119275000D02*
X140510000Y-123720000D01*
X136065000Y-117570000D02*
X137800000Y-117570000D01*
D34*
X129159000Y-108141000D02*
X129420000Y-107880000D01*
X177490000Y-118530000D02*
X176826802Y-119193198D01*
X133940000Y-107080000D02*
X137770000Y-107080000D01*
X184652500Y-114895000D02*
X184652500Y-114054315D01*
X129420000Y-107880000D02*
X133140000Y-107880000D01*
X133140000Y-107880000D02*
X133940000Y-107080000D01*
X180411815Y-113795000D02*
X179160000Y-115046815D01*
X129159000Y-110044000D02*
X129159000Y-108141000D01*
X177540000Y-118530000D02*
X177490000Y-118530000D01*
X179160000Y-115046815D02*
X179160000Y-116910000D01*
X137770000Y-107080000D02*
X138640000Y-107950000D01*
X184393185Y-113795000D02*
X180411815Y-113795000D01*
X184652500Y-114054315D02*
X184393185Y-113795000D01*
X179160000Y-116910000D02*
X177540000Y-118530000D01*
X130429000Y-110044000D02*
X130429000Y-108761000D01*
X177050000Y-113870000D02*
X177050000Y-117276396D01*
X177050000Y-113870000D02*
X177950000Y-112970000D01*
X178727500Y-112970000D02*
X177950000Y-112970000D01*
X171720000Y-118690000D02*
X170690000Y-119720000D01*
X177050000Y-117276396D02*
X175583198Y-118743198D01*
X175583198Y-118743198D02*
X175530000Y-118690000D01*
X136480000Y-108330000D02*
X138640000Y-110490000D01*
X175530000Y-118690000D02*
X171720000Y-118690000D01*
X130429000Y-108761000D02*
X130860000Y-108330000D01*
X130860000Y-108330000D02*
X136480000Y-108330000D01*
X170690000Y-119720000D02*
X170660000Y-119720000D01*
X127696000Y-106844000D02*
X126619000Y-107921000D01*
X175450000Y-118240000D02*
X171240000Y-118240000D01*
X134300000Y-105409751D02*
X132865751Y-106844000D01*
X170970000Y-117970000D02*
X169810000Y-117970000D01*
X134300000Y-104590000D02*
X134300000Y-105409751D01*
X176550000Y-115860000D02*
X176600000Y-115910000D01*
X171240000Y-118240000D02*
X170970000Y-117970000D01*
X136020000Y-102870000D02*
X134300000Y-104590000D01*
X177280000Y-111970000D02*
X176550000Y-112700000D01*
X126619000Y-107921000D02*
X126619000Y-110044000D01*
X138640000Y-102870000D02*
X136020000Y-102870000D01*
X132865751Y-106844000D02*
X127696000Y-106844000D01*
X176600000Y-115910000D02*
X176600000Y-117090000D01*
X169810000Y-117970000D02*
X169770000Y-117930000D01*
X178727500Y-111970000D02*
X177280000Y-111970000D01*
X176550000Y-112700000D02*
X176550000Y-115860000D01*
X176600000Y-117090000D02*
X175450000Y-118240000D01*
X174900495Y-102650000D02*
X174900495Y-102130495D01*
X175510000Y-104150495D02*
X175510000Y-103259505D01*
X177263604Y-105970000D02*
X176860000Y-105566396D01*
X138640000Y-105410000D02*
X134936147Y-105410000D01*
X176860000Y-105566396D02*
X176860000Y-105019505D01*
X128106000Y-107294000D02*
X127820000Y-107580000D01*
X127820000Y-107580000D02*
X127820000Y-109975000D01*
X175510000Y-103259505D02*
X174900495Y-102650000D01*
X133052147Y-107294000D02*
X128106000Y-107294000D01*
X178727500Y-105970000D02*
X177263604Y-105970000D01*
X176860000Y-105019505D02*
X176370495Y-104530000D01*
X175889505Y-104530000D02*
X175510000Y-104150495D01*
X134936147Y-105410000D02*
X133052147Y-107294000D01*
X174900495Y-102130495D02*
X174040000Y-101270000D01*
X127820000Y-109975000D02*
X127889000Y-110044000D01*
X176370495Y-104530000D02*
X175889505Y-104530000D01*
X174775000Y-106445000D02*
X174280000Y-106940000D01*
X177140305Y-106445000D02*
X174775000Y-106445000D01*
X178727500Y-107470000D02*
X177886815Y-107470000D01*
X177565000Y-106869695D02*
X177140305Y-106445000D01*
X177565000Y-107148185D02*
X177565000Y-106869695D01*
X174280000Y-105510000D02*
X174260000Y-105490000D01*
X174280000Y-107390000D02*
X174280000Y-105510000D01*
X177886815Y-107470000D02*
X177565000Y-107148185D01*
X174280000Y-106940000D02*
X174280000Y-107390000D01*
X177130000Y-107970000D02*
X178727500Y-107970000D01*
X176000000Y-109100000D02*
X177130000Y-107970000D01*
X175560000Y-110830000D02*
X175560000Y-109110000D01*
X175560000Y-109110000D02*
X175580000Y-109090000D01*
M02*
