%FSLAX45Y45*%
G04 Gerber Fmt 4.5, Leading zero omitted, Abs format (unit mm)*
G04 Created by KiCad (PCBNEW (5.1.6-0-10_14)) date 2022-07-24 21:16:39*
%MOMM*%
%LPD*%
G01*
G04 APERTURE LIST*
%TA.AperFunction,Profile*%
%ADD10C,0.100000*%
%TD*%
%ADD11C,0.200000*%
%ADD12C,0.300000*%
G04 APERTURE END LIST*
D10*
X12938570Y-13554000D02*
X12940000Y-12640000D01*
X12185000Y-12639922D02*
X12940000Y-12640000D01*
X20038310Y-12639000D02*
X20038310Y-13554000D01*
X20038310Y-12639000D02*
X20816300Y-12639000D01*
X12936540Y-8008620D02*
X12940000Y-7094000D01*
X20055520Y-7093780D02*
X20060000Y-8010000D01*
X20060000Y-8010000D02*
X20813510Y-8008078D01*
X12185000Y-8009000D02*
X12936540Y-8008620D01*
X12185000Y-12639922D02*
X12185000Y-8009000D01*
X20038310Y-13554000D02*
X12938570Y-13554000D01*
X12940000Y-7094000D02*
X20055520Y-7093780D01*
X20813510Y-8008078D02*
X20816300Y-12639000D01*
D11*
X13342150Y-9021450D02*
X13382150Y-9061450D01*
X13382150Y-9021450D02*
X13342150Y-9061450D01*
X13770100Y-8122500D02*
X13810100Y-8162500D01*
X13810100Y-8122500D02*
X13770100Y-8162500D01*
X13861000Y-9944000D02*
X13901000Y-9984000D01*
X13901000Y-9944000D02*
X13861000Y-9984000D01*
X14256000Y-9809000D02*
X14296000Y-9849000D01*
X14296000Y-9809000D02*
X14256000Y-9849000D01*
X14421000Y-8214000D02*
X14461000Y-8254000D01*
X14461000Y-8214000D02*
X14421000Y-8254000D01*
X14493500Y-8011100D02*
X14533500Y-8051100D01*
X14533500Y-8011100D02*
X14493500Y-8051100D01*
X14819600Y-7475900D02*
X14859600Y-7515900D01*
X14859600Y-7475900D02*
X14819600Y-7515900D01*
X15090800Y-7519500D02*
X15130800Y-7559500D01*
X15130800Y-7519500D02*
X15090800Y-7559500D01*
X15342400Y-11024400D02*
X15382400Y-11064400D01*
X15382400Y-11024400D02*
X15342400Y-11064400D01*
X15473200Y-10849200D02*
X15513200Y-10889200D01*
X15513200Y-10849200D02*
X15473200Y-10889200D01*
X15624100Y-10669500D02*
X15664100Y-10709500D01*
X15664100Y-10669500D02*
X15624100Y-10709500D01*
X15727800Y-11033700D02*
X15767800Y-11073700D01*
X15767800Y-11033700D02*
X15727800Y-11073700D01*
X15881000Y-10732400D02*
X15921000Y-10772400D01*
X15921000Y-10732400D02*
X15881000Y-10772400D01*
X15922350Y-7325350D02*
X15962350Y-7365350D01*
X15962350Y-7325350D02*
X15922350Y-7365350D01*
X15927000Y-10239400D02*
X15967000Y-10279400D01*
X15967000Y-10239400D02*
X15927000Y-10279400D01*
X15950400Y-8576400D02*
X15990400Y-8616400D01*
X15990400Y-8576400D02*
X15950400Y-8616400D01*
X15991000Y-10554000D02*
X16031000Y-10594000D01*
X16031000Y-10554000D02*
X15991000Y-10594000D01*
X16099200Y-10272800D02*
X16139200Y-10312800D01*
X16139200Y-10272800D02*
X16099200Y-10312800D01*
X16102412Y-7382588D02*
X16142412Y-7422588D01*
X16142412Y-7382588D02*
X16102412Y-7422588D01*
X16115400Y-8582500D02*
X16155400Y-8622500D01*
X16155400Y-8582500D02*
X16115400Y-8622500D01*
X16251000Y-9904000D02*
X16291000Y-9944000D01*
X16291000Y-9904000D02*
X16251000Y-9944000D01*
X16356000Y-9909000D02*
X16396000Y-9949000D01*
X16396000Y-9909000D02*
X16356000Y-9949000D01*
X16376300Y-9397000D02*
X16416300Y-9437000D01*
X16416300Y-9397000D02*
X16376300Y-9437000D01*
X16440400Y-11996400D02*
X16480400Y-12036400D01*
X16480400Y-11996400D02*
X16440400Y-12036400D01*
X16448800Y-9253300D02*
X16488800Y-9293300D01*
X16488800Y-9253300D02*
X16448800Y-9293300D01*
X16541000Y-10944000D02*
X16581000Y-10984000D01*
X16581000Y-10944000D02*
X16541000Y-10984000D01*
X16546000Y-10659000D02*
X16586000Y-10699000D01*
X16586000Y-10659000D02*
X16546000Y-10699000D01*
X16574000Y-12747900D02*
X16614000Y-12787900D01*
X16614000Y-12747900D02*
X16574000Y-12787900D01*
X16633900Y-9060800D02*
X16673900Y-9100800D01*
X16673900Y-9060800D02*
X16633900Y-9100800D01*
X16651000Y-8334000D02*
X16691000Y-8374000D01*
X16691000Y-8334000D02*
X16651000Y-8374000D01*
X16652400Y-9166300D02*
X16692400Y-9206300D01*
X16692400Y-9166300D02*
X16652400Y-9206300D01*
X16694700Y-9623130D02*
X16734700Y-9663130D01*
X16734700Y-9623130D02*
X16694700Y-9663130D01*
X16697500Y-9361500D02*
X16737500Y-9401500D01*
X16737500Y-9361500D02*
X16697500Y-9401500D01*
X16701050Y-9983810D02*
X16741050Y-10023810D01*
X16741050Y-9983810D02*
X16701050Y-10023810D01*
X16803600Y-12033900D02*
X16843600Y-12073900D01*
X16843600Y-12033900D02*
X16803600Y-12073900D01*
X16835400Y-9195900D02*
X16875400Y-9235900D01*
X16875400Y-9195900D02*
X16835400Y-9235900D01*
X16842250Y-8332750D02*
X16882250Y-8372750D01*
X16882250Y-8332750D02*
X16842250Y-8372750D01*
X16901164Y-8999436D02*
X16941164Y-9039436D01*
X16941164Y-8999436D02*
X16901164Y-9039436D01*
X16918000Y-8129400D02*
X16958000Y-8169400D01*
X16958000Y-8129400D02*
X16918000Y-8169400D01*
X16941000Y-7234000D02*
X16981000Y-7274000D01*
X16981000Y-7234000D02*
X16941000Y-7274000D01*
X16952510Y-10362270D02*
X16992510Y-10402270D01*
X16992510Y-10362270D02*
X16952510Y-10402270D01*
X16976600Y-11518900D02*
X17016600Y-11558900D01*
X17016600Y-11518900D02*
X16976600Y-11558900D01*
X16992200Y-10710200D02*
X17032200Y-10750200D01*
X17032200Y-10710200D02*
X16992200Y-10750200D01*
X17029200Y-8343600D02*
X17069200Y-8383600D01*
X17069200Y-8343600D02*
X17029200Y-8383600D01*
X17084000Y-9875000D02*
X17124000Y-9915000D01*
X17124000Y-9875000D02*
X17084000Y-9915000D01*
X17092000Y-9727000D02*
X17132000Y-9767000D01*
X17132000Y-9727000D02*
X17092000Y-9767000D01*
X17110244Y-9563186D02*
X17150244Y-9603186D01*
X17150244Y-9563186D02*
X17110244Y-9603186D01*
X17116340Y-10020640D02*
X17156340Y-10060640D01*
X17156340Y-10020640D02*
X17116340Y-10060640D01*
X17134900Y-8332800D02*
X17174900Y-8372800D01*
X17174900Y-8332800D02*
X17134900Y-8372800D01*
X17136660Y-10339410D02*
X17176660Y-10379410D01*
X17176660Y-10339410D02*
X17136660Y-10379410D01*
X17233500Y-9470500D02*
X17273500Y-9510500D01*
X17273500Y-9470500D02*
X17233500Y-9510500D01*
X17251000Y-8334000D02*
X17291000Y-8374000D01*
X17291000Y-8334000D02*
X17251000Y-8374000D01*
X17347000Y-11057000D02*
X17387000Y-11097000D01*
X17387000Y-11057000D02*
X17347000Y-11097000D01*
X17369500Y-8433200D02*
X17409500Y-8473200D01*
X17409500Y-8433200D02*
X17369500Y-8473200D01*
X17393100Y-11222200D02*
X17433100Y-11262200D01*
X17433100Y-11222200D02*
X17393100Y-11262200D01*
X17402000Y-12000800D02*
X17442000Y-12040800D01*
X17442000Y-12000800D02*
X17402000Y-12040800D01*
X17407000Y-9333000D02*
X17447000Y-9373000D01*
X17447000Y-9333000D02*
X17407000Y-9373000D01*
X17412000Y-10563000D02*
X17452000Y-10603000D01*
X17452000Y-10563000D02*
X17412000Y-10603000D01*
X17418400Y-8823300D02*
X17458400Y-8863300D01*
X17458400Y-8823300D02*
X17418400Y-8863300D01*
X17421000Y-7584000D02*
X17461000Y-7624000D01*
X17461000Y-7584000D02*
X17421000Y-7624000D01*
X17461600Y-9619500D02*
X17501600Y-9659500D01*
X17501600Y-9619500D02*
X17461600Y-9659500D01*
X17465600Y-12230700D02*
X17505600Y-12270700D01*
X17505600Y-12230700D02*
X17465600Y-12270700D01*
X17516700Y-11461400D02*
X17556700Y-11501400D01*
X17556700Y-11461400D02*
X17516700Y-11501400D01*
X17521000Y-7684000D02*
X17561000Y-7724000D01*
X17561000Y-7684000D02*
X17521000Y-7724000D01*
X17544450Y-11087050D02*
X17584450Y-11127050D01*
X17584450Y-11087050D02*
X17544450Y-11127050D01*
X17549000Y-10328000D02*
X17589000Y-10368000D01*
X17589000Y-10328000D02*
X17549000Y-10368000D01*
X17590400Y-9840300D02*
X17630400Y-9880300D01*
X17630400Y-9840300D02*
X17590400Y-9880300D01*
X17593400Y-7521000D02*
X17633400Y-7561000D01*
X17633400Y-7521000D02*
X17593400Y-7561000D01*
X17610900Y-10043600D02*
X17650900Y-10083600D01*
X17650900Y-10043600D02*
X17610900Y-10083600D01*
X17661800Y-12820400D02*
X17701800Y-12860400D01*
X17701800Y-12820400D02*
X17661800Y-12860400D01*
X17663300Y-9667500D02*
X17703300Y-9707500D01*
X17703300Y-9667500D02*
X17663300Y-9707500D01*
X17668790Y-10343220D02*
X17708790Y-10383220D01*
X17708790Y-10343220D02*
X17668790Y-10383220D01*
X17672200Y-7712300D02*
X17712200Y-7752300D01*
X17712200Y-7712300D02*
X17672200Y-7752300D01*
X17697200Y-9571900D02*
X17737200Y-9611900D01*
X17737200Y-9571900D02*
X17697200Y-9611900D01*
X17702900Y-9834500D02*
X17742900Y-9874500D01*
X17742900Y-9834500D02*
X17702900Y-9874500D01*
X17774200Y-7322300D02*
X17814200Y-7362300D01*
X17814200Y-7322300D02*
X17774200Y-7362300D01*
X17793600Y-8461800D02*
X17833600Y-8501800D01*
X17833600Y-8461800D02*
X17793600Y-8501800D01*
X17834400Y-9097900D02*
X17874400Y-9137900D01*
X17874400Y-9097900D02*
X17834400Y-9137900D01*
X17846800Y-11632600D02*
X17886800Y-11672600D01*
X17886800Y-11632600D02*
X17846800Y-11672600D01*
X17847000Y-11406400D02*
X17887000Y-11446400D01*
X17887000Y-11406400D02*
X17847000Y-11446400D01*
X17872500Y-9842500D02*
X17912500Y-9882500D01*
X17912500Y-9842500D02*
X17872500Y-9882500D01*
X17879610Y-9670120D02*
X17919610Y-9710120D01*
X17919610Y-9670120D02*
X17879610Y-9710120D01*
X17932100Y-11318800D02*
X17972100Y-11358800D01*
X17972100Y-11318800D02*
X17932100Y-11358800D01*
X17940000Y-11785100D02*
X17980000Y-11825100D01*
X17980000Y-11785100D02*
X17940000Y-11825100D01*
X17944380Y-10687390D02*
X17984380Y-10727390D01*
X17984380Y-10687390D02*
X17944380Y-10727390D01*
X17952300Y-11965700D02*
X17992300Y-12005700D01*
X17992300Y-11965700D02*
X17952300Y-12005700D01*
X17955600Y-10817100D02*
X17995600Y-10857100D01*
X17995600Y-10817100D02*
X17955600Y-10857100D01*
X17973500Y-9618800D02*
X18013500Y-9658800D01*
X18013500Y-9618800D02*
X17973500Y-9658800D01*
X17977400Y-9800310D02*
X18017400Y-9840310D01*
X18017400Y-9800310D02*
X17977400Y-9840310D01*
X18001600Y-10353900D02*
X18041600Y-10393900D01*
X18041600Y-10353900D02*
X18001600Y-10393900D01*
X18094240Y-9790770D02*
X18134240Y-9830770D01*
X18134240Y-9790770D02*
X18094240Y-9830770D01*
X18121700Y-8519400D02*
X18161700Y-8559400D01*
X18161700Y-8519400D02*
X18121700Y-8559400D01*
X18184200Y-8610800D02*
X18224200Y-8650800D01*
X18224200Y-8610800D02*
X18184200Y-8650800D01*
X18192116Y-8970264D02*
X18232116Y-9010264D01*
X18232116Y-8970264D02*
X18192116Y-9010264D01*
X18197400Y-10155700D02*
X18237400Y-10195700D01*
X18237400Y-10155700D02*
X18197400Y-10195700D01*
X18202520Y-10014020D02*
X18242520Y-10054020D01*
X18242520Y-10014020D02*
X18202520Y-10054020D01*
X18204730Y-9785690D02*
X18244730Y-9825690D01*
X18244730Y-9785690D02*
X18204730Y-9825690D01*
X18219200Y-7968000D02*
X18259200Y-8008000D01*
X18259200Y-7968000D02*
X18219200Y-8008000D01*
X18249000Y-9675000D02*
X18289000Y-9715000D01*
X18289000Y-9675000D02*
X18249000Y-9715000D01*
X18278900Y-11975900D02*
X18318900Y-12015900D01*
X18318900Y-11975900D02*
X18278900Y-12015900D01*
X18286600Y-10219600D02*
X18326600Y-10259600D01*
X18326600Y-10219600D02*
X18286600Y-10259600D01*
X18291650Y-9872550D02*
X18331650Y-9912550D01*
X18331650Y-9872550D02*
X18291650Y-9912550D01*
X18311410Y-8596970D02*
X18351410Y-8636970D01*
X18351410Y-8596970D02*
X18311410Y-8636970D01*
X18316500Y-8871400D02*
X18356500Y-8911400D01*
X18356500Y-8871400D02*
X18316500Y-8911400D01*
X18338080Y-9447870D02*
X18378080Y-9487870D01*
X18378080Y-9447870D02*
X18338080Y-9487870D01*
X18356300Y-12186000D02*
X18396300Y-12226000D01*
X18396300Y-12186000D02*
X18356300Y-12226000D01*
X18357300Y-10442000D02*
X18397300Y-10482000D01*
X18397300Y-10442000D02*
X18357300Y-10482000D01*
X18427700Y-7972700D02*
X18467700Y-8012700D01*
X18467700Y-7972700D02*
X18427700Y-8012700D01*
X18446400Y-8608100D02*
X18486400Y-8648100D01*
X18486400Y-8608100D02*
X18446400Y-8648100D01*
X18464300Y-12353600D02*
X18504300Y-12393600D01*
X18504300Y-12353600D02*
X18464300Y-12393600D01*
X18473400Y-8497800D02*
X18513400Y-8537800D01*
X18513400Y-8497800D02*
X18473400Y-8537800D01*
X18500000Y-9440000D02*
X18540000Y-9480000D01*
X18540000Y-9440000D02*
X18500000Y-9480000D01*
X18506990Y-12137730D02*
X18546990Y-12177730D01*
X18546990Y-12137730D02*
X18506990Y-12177730D01*
X18531120Y-12031050D02*
X18571120Y-12071050D01*
X18571120Y-12031050D02*
X18531120Y-12071050D01*
X18585600Y-10489900D02*
X18625600Y-10529900D01*
X18625600Y-10489900D02*
X18585600Y-10529900D01*
X18586900Y-7997600D02*
X18626900Y-8037600D01*
X18626900Y-7997600D02*
X18586900Y-8037600D01*
X18586900Y-8214500D02*
X18626900Y-8254500D01*
X18626900Y-8214500D02*
X18586900Y-8254500D01*
X18612050Y-9615050D02*
X18652050Y-9655050D01*
X18652050Y-9615050D02*
X18612050Y-9655050D01*
X18636820Y-8414380D02*
X18676820Y-8454380D01*
X18676820Y-8414380D02*
X18636820Y-8454380D01*
X18695400Y-12744500D02*
X18735400Y-12784500D01*
X18735400Y-12744500D02*
X18695400Y-12784500D01*
X18696100Y-8193900D02*
X18736100Y-8233900D01*
X18736100Y-8193900D02*
X18696100Y-8233900D01*
X18708920Y-8986606D02*
X18748920Y-9026606D01*
X18748920Y-8986606D02*
X18708920Y-9026606D01*
X18812150Y-10255950D02*
X18852150Y-10295950D01*
X18852150Y-10255950D02*
X18812150Y-10295950D01*
X18829400Y-10128900D02*
X18869400Y-10168900D01*
X18869400Y-10128900D02*
X18829400Y-10168900D01*
X18836350Y-10022750D02*
X18876350Y-10062750D01*
X18876350Y-10022750D02*
X18836350Y-10062750D01*
X18877900Y-12468800D02*
X18917900Y-12508800D01*
X18917900Y-12468800D02*
X18877900Y-12508800D01*
X18883500Y-12314900D02*
X18923500Y-12354900D01*
X18923500Y-12314900D02*
X18883500Y-12354900D01*
X18972700Y-12719000D02*
X19012700Y-12759000D01*
X19012700Y-12719000D02*
X18972700Y-12759000D01*
X19018100Y-12442800D02*
X19058100Y-12482800D01*
X19058100Y-12442800D02*
X19018100Y-12482800D01*
X19076900Y-10229700D02*
X19116900Y-10269700D01*
X19116900Y-10229700D02*
X19076900Y-10269700D01*
X19091647Y-9844147D02*
X19131647Y-9884147D01*
X19131647Y-9844147D02*
X19091647Y-9884147D01*
X19093800Y-10358800D02*
X19133800Y-10398800D01*
X19133800Y-10358800D02*
X19093800Y-10398800D01*
X19097100Y-9951900D02*
X19137100Y-9991900D01*
X19137100Y-9951900D02*
X19097100Y-9991900D01*
X19163300Y-9057900D02*
X19203300Y-9097900D01*
X19203300Y-9057900D02*
X19163300Y-9097900D01*
X19183570Y-12265800D02*
X19223570Y-12305800D01*
X19223570Y-12265800D02*
X19183570Y-12305800D01*
X19209000Y-9423900D02*
X19249000Y-9463900D01*
X19249000Y-9423900D02*
X19209000Y-9463900D01*
X19579300Y-12225800D02*
X19619300Y-12265800D01*
X19619300Y-12225800D02*
X19579300Y-12265800D01*
X19582900Y-12099900D02*
X19622900Y-12139900D01*
X19622900Y-12099900D02*
X19582900Y-12139900D01*
X19732100Y-10018900D02*
X19772100Y-10058900D01*
X19772100Y-10018900D02*
X19732100Y-10058900D01*
X19768300Y-9868500D02*
X19808300Y-9908500D01*
X19808300Y-9868500D02*
X19768300Y-9908500D01*
X19792200Y-11712300D02*
X19832200Y-11752300D01*
X19832200Y-11712300D02*
X19792200Y-11752300D01*
X19795200Y-10884000D02*
X19835200Y-10924000D01*
X19835200Y-10884000D02*
X19795200Y-10924000D01*
X19823100Y-11587500D02*
X19863100Y-11627500D01*
X19863100Y-11587500D02*
X19823100Y-11627500D01*
X20385300Y-12383600D02*
X20425300Y-12423600D01*
X20425300Y-12383600D02*
X20385300Y-12423600D01*
X16193400Y-7897900D02*
G75*
G03*
X16193400Y-7897900I-40000J0D01*
G01*
X16284972Y-11676328D02*
G75*
G03*
X16284972Y-11676328I-40000J0D01*
G01*
X18178100Y-11247100D02*
G75*
G03*
X18178100Y-11247100I-40000J0D01*
G01*
X18625410Y-8870970D02*
G75*
G03*
X18625410Y-8870970I-40000J0D01*
G01*
X18990100Y-7833100D02*
G75*
G03*
X18990100Y-7833100I-40000J0D01*
G01*
X19445845Y-8473445D02*
G75*
G03*
X19445845Y-8473445I-40000J0D01*
G01*
X19470800Y-8896000D02*
G75*
G03*
X19470800Y-8896000I-40000J0D01*
G01*
X19586295Y-8332995D02*
G75*
G03*
X19586295Y-8332995I-40000J0D01*
G01*
X19661300Y-8896000D02*
G75*
G03*
X19661300Y-8896000I-40000J0D01*
G01*
X12471000Y-8384000D02*
G75*
G03*
X12471000Y-8384000I-40000J0D01*
G01*
X12471000Y-8638000D02*
G75*
G03*
X12471000Y-8638000I-40000J0D01*
G01*
X12471000Y-8892000D02*
G75*
G03*
X12471000Y-8892000I-40000J0D01*
G01*
X12471000Y-9146000D02*
G75*
G03*
X12471000Y-9146000I-40000J0D01*
G01*
X12471000Y-9400000D02*
G75*
G03*
X12471000Y-9400000I-40000J0D01*
G01*
X12471000Y-9654000D02*
G75*
G03*
X12471000Y-9654000I-40000J0D01*
G01*
X12471000Y-9908000D02*
G75*
G03*
X12471000Y-9908000I-40000J0D01*
G01*
X12471000Y-10162000D02*
G75*
G03*
X12471000Y-10162000I-40000J0D01*
G01*
X13233000Y-8384000D02*
G75*
G03*
X13233000Y-8384000I-40000J0D01*
G01*
X13233000Y-8638000D02*
G75*
G03*
X13233000Y-8638000I-40000J0D01*
G01*
X13233000Y-8892000D02*
G75*
G03*
X13233000Y-8892000I-40000J0D01*
G01*
X13233000Y-9146000D02*
G75*
G03*
X13233000Y-9146000I-40000J0D01*
G01*
X13233000Y-9400000D02*
G75*
G03*
X13233000Y-9400000I-40000J0D01*
G01*
X13233000Y-9654000D02*
G75*
G03*
X13233000Y-9654000I-40000J0D01*
G01*
X13233000Y-9908000D02*
G75*
G03*
X13233000Y-9908000I-40000J0D01*
G01*
X13233000Y-10162000D02*
G75*
G03*
X13233000Y-10162000I-40000J0D01*
G01*
X13092500Y-10902000D02*
G75*
G03*
X13092500Y-10902000I-40000J0D01*
G01*
X13022500Y-10792000D02*
X13022500Y-11012000D01*
X13082500Y-10792000D02*
X13082500Y-11012000D01*
X13022500Y-11012000D02*
G75*
G03*
X13082500Y-11012000I30000J0D01*
G01*
X13082500Y-10792000D02*
G75*
G03*
X13022500Y-10792000I-30000J0D01*
G01*
X13372500Y-11382000D02*
G75*
G03*
X13372500Y-11382000I-40000J0D01*
G01*
X13222500Y-11412000D02*
X13442500Y-11412000D01*
X13222500Y-11352000D02*
X13442500Y-11352000D01*
X13442500Y-11412000D02*
G75*
G03*
X13442500Y-11352000I0J30000D01*
G01*
X13222500Y-11352000D02*
G75*
G03*
X13222500Y-11412000I0J-30000D01*
G01*
X13672500Y-10902000D02*
G75*
G03*
X13672500Y-10902000I-40000J0D01*
G01*
X13602500Y-10772000D02*
X13602500Y-11032000D01*
X13662500Y-10772000D02*
X13662500Y-11032000D01*
X13602500Y-11032000D02*
G75*
G03*
X13662500Y-11032000I30000J0D01*
G01*
X13662500Y-10772000D02*
G75*
G03*
X13602500Y-10772000I-30000J0D01*
G01*
X17961078Y-8058970D02*
X17961078Y-8158970D01*
X17911078Y-8108970D02*
X18011078Y-8108970D01*
X17961078Y-8312970D02*
X17961078Y-8412970D01*
X17911078Y-8362970D02*
X18011078Y-8362970D01*
X20171000Y-9614000D02*
X20171000Y-9714000D01*
X20121000Y-9664000D02*
X20221000Y-9664000D01*
X20171000Y-9868000D02*
X20171000Y-9968000D01*
X20121000Y-9918000D02*
X20221000Y-9918000D01*
X20171000Y-10122000D02*
X20171000Y-10222000D01*
X20121000Y-10172000D02*
X20221000Y-10172000D01*
X20171000Y-10376000D02*
X20171000Y-10476000D01*
X20121000Y-10426000D02*
X20221000Y-10426000D01*
X17963800Y-7424300D02*
X17963800Y-7524300D01*
X17913800Y-7474300D02*
X18013800Y-7474300D01*
X17963800Y-7678300D02*
X17963800Y-7778300D01*
X17913800Y-7728300D02*
X18013800Y-7728300D01*
X18217800Y-7424300D02*
X18217800Y-7524300D01*
X18167800Y-7474300D02*
X18267800Y-7474300D01*
X18217800Y-7678300D02*
X18217800Y-7778300D01*
X18167800Y-7728300D02*
X18267800Y-7728300D01*
X18471800Y-7424300D02*
X18471800Y-7524300D01*
X18421800Y-7474300D02*
X18521800Y-7474300D01*
X18471800Y-7678300D02*
X18471800Y-7778300D01*
X18421800Y-7728300D02*
X18521800Y-7728300D01*
X18725800Y-7424300D02*
X18725800Y-7524300D01*
X18675800Y-7474300D02*
X18775800Y-7474300D01*
X18725800Y-7678300D02*
X18725800Y-7778300D01*
X18675800Y-7728300D02*
X18775800Y-7728300D01*
X19916000Y-8768900D02*
X19916000Y-8868900D01*
X19866000Y-8818900D02*
X19966000Y-8818900D01*
X20170000Y-8768900D02*
X20170000Y-8868900D01*
X20120000Y-8818900D02*
X20220000Y-8818900D01*
X16399972Y-10039100D02*
X16399972Y-10139100D01*
X16349972Y-10089100D02*
X16449972Y-10089100D01*
X16399972Y-10293100D02*
X16399972Y-10393100D01*
X16349972Y-10343100D02*
X16449972Y-10343100D01*
X16399972Y-10547100D02*
X16399972Y-10647100D01*
X16349972Y-10597100D02*
X16449972Y-10597100D01*
X16399972Y-10801100D02*
X16399972Y-10901100D01*
X16349972Y-10851100D02*
X16449972Y-10851100D01*
X16399972Y-11055100D02*
X16399972Y-11155100D01*
X16349972Y-11105100D02*
X16449972Y-11105100D01*
X14140141Y-8611654D02*
X14140141Y-8711654D01*
X14090141Y-8661654D02*
X14190141Y-8661654D01*
X14140141Y-8865654D02*
X14140141Y-8965654D01*
X14090141Y-8915654D02*
X14190141Y-8915654D01*
X14140141Y-9119654D02*
X14140141Y-9219654D01*
X14090141Y-9169654D02*
X14190141Y-9169654D01*
X14140141Y-9373654D02*
X14140141Y-9473654D01*
X14090141Y-9423654D02*
X14190141Y-9423654D01*
X14140141Y-9627654D02*
X14140141Y-9727654D01*
X14090141Y-9677654D02*
X14190141Y-9677654D01*
X20151000Y-11414000D02*
X20151000Y-11514000D01*
X20101000Y-11464000D02*
X20201000Y-11464000D01*
X20151000Y-11668000D02*
X20151000Y-11768000D01*
X20101000Y-11718000D02*
X20201000Y-11718000D01*
X20151000Y-11922000D02*
X20151000Y-12022000D01*
X20101000Y-11972000D02*
X20201000Y-11972000D01*
X20151000Y-12176000D02*
X20151000Y-12276000D01*
X20101000Y-12226000D02*
X20201000Y-12226000D01*
X16744100Y-11708400D02*
X16744100Y-11808400D01*
X16694100Y-11758400D02*
X16794100Y-11758400D01*
X16998100Y-11708400D02*
X16998100Y-11808400D01*
X16948100Y-11758400D02*
X17048100Y-11758400D01*
X17252100Y-11708400D02*
X17252100Y-11808400D01*
X17202100Y-11758400D02*
X17302100Y-11758400D01*
X17506100Y-11708400D02*
X17506100Y-11808400D01*
X17456100Y-11758400D02*
X17556100Y-11758400D01*
X17161928Y-10572770D02*
X17161928Y-10672770D01*
X17111928Y-10622770D02*
X17211928Y-10622770D01*
X17161928Y-10826770D02*
X17161928Y-10926770D01*
X17111928Y-10876770D02*
X17211928Y-10876770D01*
X17161928Y-11080770D02*
X17161928Y-11180770D01*
X17111928Y-11130770D02*
X17211928Y-11130770D01*
X17161928Y-11334770D02*
X17161928Y-11434770D01*
X17111928Y-11384770D02*
X17211928Y-11384770D01*
X16395309Y-7235088D02*
X16395309Y-7335088D01*
X16345309Y-7285088D02*
X16445309Y-7285088D01*
X16395309Y-7489088D02*
X16395309Y-7589088D01*
X16345309Y-7539088D02*
X16445309Y-7539088D01*
X16395309Y-7743088D02*
X16395309Y-7843088D01*
X16345309Y-7793088D02*
X16445309Y-7793088D01*
X16395309Y-7997088D02*
X16395309Y-8097088D01*
X16345309Y-8047088D02*
X16445309Y-8047088D01*
X16395309Y-8251088D02*
X16395309Y-8351088D01*
X16345309Y-8301088D02*
X16445309Y-8301088D01*
X16723600Y-12540900D02*
X16723600Y-12640900D01*
X16673600Y-12590900D02*
X16773600Y-12590900D01*
X16977600Y-12540900D02*
X16977600Y-12640900D01*
X16927600Y-12590900D02*
X17027600Y-12590900D01*
X17231600Y-12540900D02*
X17231600Y-12640900D01*
X17181600Y-12590900D02*
X17281600Y-12590900D01*
X17485600Y-12540900D02*
X17485600Y-12640900D01*
X17435600Y-12590900D02*
X17535600Y-12590900D01*
X14141000Y-11444000D02*
X14141000Y-11544000D01*
X14091000Y-11494000D02*
X14191000Y-11494000D01*
X14141000Y-11698000D02*
X14141000Y-11798000D01*
X14091000Y-11748000D02*
X14191000Y-11748000D01*
X14141000Y-11952000D02*
X14141000Y-12052000D01*
X14091000Y-12002000D02*
X14191000Y-12002000D01*
X14141000Y-12206000D02*
X14141000Y-12306000D01*
X14091000Y-12256000D02*
X14191000Y-12256000D01*
X14141000Y-12460000D02*
X14141000Y-12560000D01*
X14091000Y-12510000D02*
X14191000Y-12510000D01*
X17866000Y-12539100D02*
X17866000Y-12639100D01*
X17816000Y-12589100D02*
X17916000Y-12589100D01*
X18120000Y-12539100D02*
X18120000Y-12639100D01*
X18070000Y-12589100D02*
X18170000Y-12589100D01*
X18374000Y-12539100D02*
X18374000Y-12639100D01*
X18324000Y-12589100D02*
X18424000Y-12589100D01*
X18628000Y-12539100D02*
X18628000Y-12639100D01*
X18578000Y-12589100D02*
X18678000Y-12589100D01*
X19912800Y-8367600D02*
X19912800Y-8467600D01*
X19862800Y-8417600D02*
X19962800Y-8417600D01*
X20166800Y-8367600D02*
X20166800Y-8467600D01*
X20116800Y-8417600D02*
X20216800Y-8417600D01*
X18907863Y-11140210D02*
X18907863Y-11048285D01*
X18815938Y-11048285D01*
X18815938Y-11140210D01*
X18907863Y-11140210D01*
X18907863Y-10759210D02*
X18907863Y-10667285D01*
X18815938Y-10667285D01*
X18815938Y-10759210D01*
X18907863Y-10759210D01*
X18195062Y-12238662D02*
X18195062Y-12146738D01*
X18103138Y-12146738D01*
X18103138Y-12238662D01*
X18195062Y-12238662D01*
X19457328Y-9343486D02*
X19457328Y-9251561D01*
X19365403Y-9251561D01*
X19365403Y-9343486D01*
X19457328Y-9343486D01*
X19669863Y-11521210D02*
X19669863Y-11429285D01*
X19577938Y-11429285D01*
X19577938Y-11521210D01*
X19669863Y-11521210D01*
X19288863Y-11521210D02*
X19288863Y-11429286D01*
X19196938Y-11429286D01*
X19196938Y-11521210D01*
X19288863Y-11521210D01*
X19838328Y-9343486D02*
X19838328Y-9251561D01*
X19746403Y-9251561D01*
X19746403Y-9343486D01*
X19838328Y-9343486D01*
X18703762Y-11851902D02*
X18703762Y-11759978D01*
X18611838Y-11759978D01*
X18611838Y-11851902D01*
X18703762Y-11851902D01*
X19669863Y-11140210D02*
X19669863Y-11048285D01*
X19577938Y-11048285D01*
X19577938Y-11140210D01*
X19669863Y-11140210D01*
X19288863Y-10759210D02*
X19288863Y-10667285D01*
X19196938Y-10667285D01*
X19196938Y-10759210D01*
X19288863Y-10759210D01*
X18523563Y-11138810D02*
X18523563Y-11046885D01*
X18431638Y-11046885D01*
X18431638Y-11138810D01*
X18523563Y-11138810D01*
X18523563Y-10757810D02*
X18523563Y-10665885D01*
X18431638Y-10665885D01*
X18431638Y-10757810D01*
X18523563Y-10757810D01*
X19669863Y-10759210D02*
X19669863Y-10667285D01*
X19577938Y-10667285D01*
X19577938Y-10759210D01*
X19669863Y-10759210D01*
X19084762Y-11851902D02*
X19084762Y-11759978D01*
X18992838Y-11759978D01*
X18992838Y-11851902D01*
X19084762Y-11851902D01*
X19076328Y-9343486D02*
X19076328Y-9251561D01*
X18984403Y-9251561D01*
X18984403Y-9343486D01*
X19076328Y-9343486D01*
X18523563Y-11519810D02*
X18523563Y-11427885D01*
X18431638Y-11427885D01*
X18431638Y-11519810D01*
X18523563Y-11519810D01*
X19288863Y-11140210D02*
X19288863Y-11048286D01*
X19196938Y-11048286D01*
X19196938Y-11140210D01*
X19288863Y-11140210D01*
X18907863Y-11521210D02*
X18907863Y-11429285D01*
X18815938Y-11429285D01*
X18815938Y-11521210D01*
X18907863Y-11521210D01*
X17818762Y-12249962D02*
X17818762Y-12158038D01*
X17726838Y-12158038D01*
X17726838Y-12249962D01*
X17818762Y-12249962D01*
X14361000Y-13249000D02*
X14486000Y-13124000D01*
X14361000Y-12999000D01*
X14236000Y-13124000D01*
X14361000Y-13249000D01*
X12741000Y-11829000D02*
X12866000Y-11704000D01*
X12741000Y-11579000D01*
X12616000Y-11704000D01*
X12741000Y-11829000D01*
X18697400Y-13260800D02*
X18822400Y-13135800D01*
X18697400Y-13010800D01*
X18572400Y-13135800D01*
X18697400Y-13260800D01*
X12741000Y-12429000D02*
X12866000Y-12304000D01*
X12741000Y-12179000D01*
X12616000Y-12304000D01*
X12741000Y-12429000D01*
D12*
X12466428Y-14024714D02*
X12466428Y-13724714D01*
X12537857Y-13724714D01*
X12580714Y-13739000D01*
X12609286Y-13767571D01*
X12623571Y-13796143D01*
X12637857Y-13853286D01*
X12637857Y-13896143D01*
X12623571Y-13953286D01*
X12609286Y-13981857D01*
X12580714Y-14010429D01*
X12537857Y-14024714D01*
X12466428Y-14024714D01*
X12766428Y-14024714D02*
X12766428Y-13824714D01*
X12766428Y-13881857D02*
X12780714Y-13853286D01*
X12795000Y-13839000D01*
X12823571Y-13824714D01*
X12852143Y-13824714D01*
X12952143Y-14024714D02*
X12952143Y-13824714D01*
X12952143Y-13724714D02*
X12937857Y-13739000D01*
X12952143Y-13753286D01*
X12966428Y-13739000D01*
X12952143Y-13724714D01*
X12952143Y-13753286D01*
X13137857Y-14024714D02*
X13109286Y-14010429D01*
X13095000Y-13981857D01*
X13095000Y-13724714D01*
X13295000Y-14024714D02*
X13266428Y-14010429D01*
X13252143Y-13981857D01*
X13252143Y-13724714D01*
X13637857Y-14024714D02*
X13637857Y-13724714D01*
X13737857Y-13939000D01*
X13837857Y-13724714D01*
X13837857Y-14024714D01*
X14109286Y-14024714D02*
X14109286Y-13867571D01*
X14095000Y-13839000D01*
X14066428Y-13824714D01*
X14009286Y-13824714D01*
X13980714Y-13839000D01*
X14109286Y-14010429D02*
X14080714Y-14024714D01*
X14009286Y-14024714D01*
X13980714Y-14010429D01*
X13966428Y-13981857D01*
X13966428Y-13953286D01*
X13980714Y-13924714D01*
X14009286Y-13910429D01*
X14080714Y-13910429D01*
X14109286Y-13896143D01*
X14252143Y-13824714D02*
X14252143Y-14124714D01*
X14252143Y-13839000D02*
X14280714Y-13824714D01*
X14337857Y-13824714D01*
X14366428Y-13839000D01*
X14380714Y-13853286D01*
X14395000Y-13881857D01*
X14395000Y-13967571D01*
X14380714Y-13996143D01*
X14366428Y-14010429D01*
X14337857Y-14024714D01*
X14280714Y-14024714D01*
X14252143Y-14010429D01*
X14523571Y-13996143D02*
X14537857Y-14010429D01*
X14523571Y-14024714D01*
X14509286Y-14010429D01*
X14523571Y-13996143D01*
X14523571Y-14024714D01*
X14523571Y-13839000D02*
X14537857Y-13853286D01*
X14523571Y-13867571D01*
X14509286Y-13853286D01*
X14523571Y-13839000D01*
X14523571Y-13867571D01*
X12140000Y-14499000D02*
X12180000Y-14539000D01*
X12180000Y-14499000D02*
X12140000Y-14539000D01*
X12523571Y-14354714D02*
X12552143Y-14354714D01*
X12580714Y-14369000D01*
X12595000Y-14383286D01*
X12609286Y-14411857D01*
X12623571Y-14469000D01*
X12623571Y-14540429D01*
X12609286Y-14597571D01*
X12595000Y-14626143D01*
X12580714Y-14640429D01*
X12552143Y-14654714D01*
X12523571Y-14654714D01*
X12495000Y-14640429D01*
X12480714Y-14626143D01*
X12466428Y-14597571D01*
X12452143Y-14540429D01*
X12452143Y-14469000D01*
X12466428Y-14411857D01*
X12480714Y-14383286D01*
X12495000Y-14369000D01*
X12523571Y-14354714D01*
X12752143Y-14626143D02*
X12766428Y-14640429D01*
X12752143Y-14654714D01*
X12737857Y-14640429D01*
X12752143Y-14626143D01*
X12752143Y-14654714D01*
X13023571Y-14454714D02*
X13023571Y-14654714D01*
X12952143Y-14340429D02*
X12880714Y-14554714D01*
X13066428Y-14554714D01*
X13237857Y-14354714D02*
X13266428Y-14354714D01*
X13295000Y-14369000D01*
X13309286Y-14383286D01*
X13323571Y-14411857D01*
X13337857Y-14469000D01*
X13337857Y-14540429D01*
X13323571Y-14597571D01*
X13309286Y-14626143D01*
X13295000Y-14640429D01*
X13266428Y-14654714D01*
X13237857Y-14654714D01*
X13209286Y-14640429D01*
X13195000Y-14626143D01*
X13180714Y-14597571D01*
X13166428Y-14540429D01*
X13166428Y-14469000D01*
X13180714Y-14411857D01*
X13195000Y-14383286D01*
X13209286Y-14369000D01*
X13237857Y-14354714D01*
X13466428Y-14654714D02*
X13466428Y-14454714D01*
X13466428Y-14483286D02*
X13480714Y-14469000D01*
X13509286Y-14454714D01*
X13552143Y-14454714D01*
X13580714Y-14469000D01*
X13595000Y-14497571D01*
X13595000Y-14654714D01*
X13595000Y-14497571D02*
X13609286Y-14469000D01*
X13637857Y-14454714D01*
X13680714Y-14454714D01*
X13709286Y-14469000D01*
X13723571Y-14497571D01*
X13723571Y-14654714D01*
X13866428Y-14654714D02*
X13866428Y-14454714D01*
X13866428Y-14483286D02*
X13880714Y-14469000D01*
X13909286Y-14454714D01*
X13952143Y-14454714D01*
X13980714Y-14469000D01*
X13995000Y-14497571D01*
X13995000Y-14654714D01*
X13995000Y-14497571D02*
X14009286Y-14469000D01*
X14037857Y-14454714D01*
X14080714Y-14454714D01*
X14109286Y-14469000D01*
X14123571Y-14497571D01*
X14123571Y-14654714D01*
X14709286Y-14340429D02*
X14452143Y-14726143D01*
X15095000Y-14354714D02*
X15123571Y-14354714D01*
X15152143Y-14369000D01*
X15166428Y-14383286D01*
X15180714Y-14411857D01*
X15195000Y-14469000D01*
X15195000Y-14540429D01*
X15180714Y-14597571D01*
X15166428Y-14626143D01*
X15152143Y-14640429D01*
X15123571Y-14654714D01*
X15095000Y-14654714D01*
X15066428Y-14640429D01*
X15052143Y-14626143D01*
X15037857Y-14597571D01*
X15023571Y-14540429D01*
X15023571Y-14469000D01*
X15037857Y-14411857D01*
X15052143Y-14383286D01*
X15066428Y-14369000D01*
X15095000Y-14354714D01*
X15323571Y-14626143D02*
X15337857Y-14640429D01*
X15323571Y-14654714D01*
X15309286Y-14640429D01*
X15323571Y-14626143D01*
X15323571Y-14654714D01*
X15523571Y-14354714D02*
X15552143Y-14354714D01*
X15580714Y-14369000D01*
X15595000Y-14383286D01*
X15609286Y-14411857D01*
X15623571Y-14469000D01*
X15623571Y-14540429D01*
X15609286Y-14597571D01*
X15595000Y-14626143D01*
X15580714Y-14640429D01*
X15552143Y-14654714D01*
X15523571Y-14654714D01*
X15495000Y-14640429D01*
X15480714Y-14626143D01*
X15466428Y-14597571D01*
X15452143Y-14540429D01*
X15452143Y-14469000D01*
X15466428Y-14411857D01*
X15480714Y-14383286D01*
X15495000Y-14369000D01*
X15523571Y-14354714D01*
X15909286Y-14654714D02*
X15737857Y-14654714D01*
X15823571Y-14654714D02*
X15823571Y-14354714D01*
X15795000Y-14397571D01*
X15766428Y-14426143D01*
X15737857Y-14440429D01*
X16166428Y-14354714D02*
X16109286Y-14354714D01*
X16080714Y-14369000D01*
X16066428Y-14383286D01*
X16037857Y-14426143D01*
X16023571Y-14483286D01*
X16023571Y-14597571D01*
X16037857Y-14626143D01*
X16052143Y-14640429D01*
X16080714Y-14654714D01*
X16137857Y-14654714D01*
X16166428Y-14640429D01*
X16180714Y-14626143D01*
X16195000Y-14597571D01*
X16195000Y-14526143D01*
X16180714Y-14497571D01*
X16166428Y-14483286D01*
X16137857Y-14469000D01*
X16080714Y-14469000D01*
X16052143Y-14483286D01*
X16037857Y-14497571D01*
X16023571Y-14526143D01*
X16309286Y-14354714D02*
X16309286Y-14411857D01*
X16423571Y-14354714D02*
X16423571Y-14411857D01*
X16866428Y-14769000D02*
X16852143Y-14754714D01*
X16823571Y-14711857D01*
X16809286Y-14683286D01*
X16795000Y-14640429D01*
X16780714Y-14569000D01*
X16780714Y-14511857D01*
X16795000Y-14440429D01*
X16809286Y-14397571D01*
X16823571Y-14369000D01*
X16852143Y-14326143D01*
X16866428Y-14311857D01*
X17137857Y-14654714D02*
X16966428Y-14654714D01*
X17052143Y-14654714D02*
X17052143Y-14354714D01*
X17023571Y-14397571D01*
X16995000Y-14426143D01*
X16966428Y-14440429D01*
X17395000Y-14454714D02*
X17395000Y-14654714D01*
X17323571Y-14340429D02*
X17252143Y-14554714D01*
X17437857Y-14554714D01*
X17680714Y-14454714D02*
X17680714Y-14654714D01*
X17609286Y-14340429D02*
X17537857Y-14554714D01*
X17723571Y-14554714D01*
X18066428Y-14654714D02*
X18066428Y-14354714D01*
X18195000Y-14654714D02*
X18195000Y-14497571D01*
X18180714Y-14469000D01*
X18152143Y-14454714D01*
X18109286Y-14454714D01*
X18080714Y-14469000D01*
X18066428Y-14483286D01*
X18380714Y-14654714D02*
X18352143Y-14640429D01*
X18337857Y-14626143D01*
X18323571Y-14597571D01*
X18323571Y-14511857D01*
X18337857Y-14483286D01*
X18352143Y-14469000D01*
X18380714Y-14454714D01*
X18423571Y-14454714D01*
X18452143Y-14469000D01*
X18466428Y-14483286D01*
X18480714Y-14511857D01*
X18480714Y-14597571D01*
X18466428Y-14626143D01*
X18452143Y-14640429D01*
X18423571Y-14654714D01*
X18380714Y-14654714D01*
X18652143Y-14654714D02*
X18623571Y-14640429D01*
X18609286Y-14611857D01*
X18609286Y-14354714D01*
X18880714Y-14640429D02*
X18852143Y-14654714D01*
X18795000Y-14654714D01*
X18766428Y-14640429D01*
X18752143Y-14611857D01*
X18752143Y-14497571D01*
X18766428Y-14469000D01*
X18795000Y-14454714D01*
X18852143Y-14454714D01*
X18880714Y-14469000D01*
X18895000Y-14497571D01*
X18895000Y-14526143D01*
X18752143Y-14554714D01*
X19009286Y-14640429D02*
X19037857Y-14654714D01*
X19095000Y-14654714D01*
X19123571Y-14640429D01*
X19137857Y-14611857D01*
X19137857Y-14597571D01*
X19123571Y-14569000D01*
X19095000Y-14554714D01*
X19052143Y-14554714D01*
X19023571Y-14540429D01*
X19009286Y-14511857D01*
X19009286Y-14497571D01*
X19023571Y-14469000D01*
X19052143Y-14454714D01*
X19095000Y-14454714D01*
X19123571Y-14469000D01*
X19237857Y-14769000D02*
X19252143Y-14754714D01*
X19280714Y-14711857D01*
X19295000Y-14683286D01*
X19309286Y-14640429D01*
X19323571Y-14569000D01*
X19323571Y-14511857D01*
X19309286Y-14440429D01*
X19295000Y-14397571D01*
X19280714Y-14369000D01*
X19252143Y-14326143D01*
X19237857Y-14311857D01*
X12180000Y-14915000D02*
G75*
G03*
X12180000Y-14915000I-40000J0D01*
G01*
X12523571Y-14750714D02*
X12552143Y-14750714D01*
X12580714Y-14765000D01*
X12595000Y-14779286D01*
X12609286Y-14807857D01*
X12623571Y-14865000D01*
X12623571Y-14936429D01*
X12609286Y-14993571D01*
X12595000Y-15022143D01*
X12580714Y-15036429D01*
X12552143Y-15050714D01*
X12523571Y-15050714D01*
X12495000Y-15036429D01*
X12480714Y-15022143D01*
X12466428Y-14993571D01*
X12452143Y-14936429D01*
X12452143Y-14865000D01*
X12466428Y-14807857D01*
X12480714Y-14779286D01*
X12495000Y-14765000D01*
X12523571Y-14750714D01*
X12752143Y-15022143D02*
X12766428Y-15036429D01*
X12752143Y-15050714D01*
X12737857Y-15036429D01*
X12752143Y-15022143D01*
X12752143Y-15050714D01*
X12937857Y-14879286D02*
X12909286Y-14865000D01*
X12895000Y-14850714D01*
X12880714Y-14822143D01*
X12880714Y-14807857D01*
X12895000Y-14779286D01*
X12909286Y-14765000D01*
X12937857Y-14750714D01*
X12995000Y-14750714D01*
X13023571Y-14765000D01*
X13037857Y-14779286D01*
X13052143Y-14807857D01*
X13052143Y-14822143D01*
X13037857Y-14850714D01*
X13023571Y-14865000D01*
X12995000Y-14879286D01*
X12937857Y-14879286D01*
X12909286Y-14893571D01*
X12895000Y-14907857D01*
X12880714Y-14936429D01*
X12880714Y-14993571D01*
X12895000Y-15022143D01*
X12909286Y-15036429D01*
X12937857Y-15050714D01*
X12995000Y-15050714D01*
X13023571Y-15036429D01*
X13037857Y-15022143D01*
X13052143Y-14993571D01*
X13052143Y-14936429D01*
X13037857Y-14907857D01*
X13023571Y-14893571D01*
X12995000Y-14879286D01*
X13237857Y-14750714D02*
X13266428Y-14750714D01*
X13295000Y-14765000D01*
X13309286Y-14779286D01*
X13323571Y-14807857D01*
X13337857Y-14865000D01*
X13337857Y-14936429D01*
X13323571Y-14993571D01*
X13309286Y-15022143D01*
X13295000Y-15036429D01*
X13266428Y-15050714D01*
X13237857Y-15050714D01*
X13209286Y-15036429D01*
X13195000Y-15022143D01*
X13180714Y-14993571D01*
X13166428Y-14936429D01*
X13166428Y-14865000D01*
X13180714Y-14807857D01*
X13195000Y-14779286D01*
X13209286Y-14765000D01*
X13237857Y-14750714D01*
X13466428Y-15050714D02*
X13466428Y-14850714D01*
X13466428Y-14879286D02*
X13480714Y-14865000D01*
X13509286Y-14850714D01*
X13552143Y-14850714D01*
X13580714Y-14865000D01*
X13595000Y-14893571D01*
X13595000Y-15050714D01*
X13595000Y-14893571D02*
X13609286Y-14865000D01*
X13637857Y-14850714D01*
X13680714Y-14850714D01*
X13709286Y-14865000D01*
X13723571Y-14893571D01*
X13723571Y-15050714D01*
X13866428Y-15050714D02*
X13866428Y-14850714D01*
X13866428Y-14879286D02*
X13880714Y-14865000D01*
X13909286Y-14850714D01*
X13952143Y-14850714D01*
X13980714Y-14865000D01*
X13995000Y-14893571D01*
X13995000Y-15050714D01*
X13995000Y-14893571D02*
X14009286Y-14865000D01*
X14037857Y-14850714D01*
X14080714Y-14850714D01*
X14109286Y-14865000D01*
X14123571Y-14893571D01*
X14123571Y-15050714D01*
X14709286Y-14736429D02*
X14452143Y-15122143D01*
X15095000Y-14750714D02*
X15123571Y-14750714D01*
X15152143Y-14765000D01*
X15166428Y-14779286D01*
X15180714Y-14807857D01*
X15195000Y-14865000D01*
X15195000Y-14936429D01*
X15180714Y-14993571D01*
X15166428Y-15022143D01*
X15152143Y-15036429D01*
X15123571Y-15050714D01*
X15095000Y-15050714D01*
X15066428Y-15036429D01*
X15052143Y-15022143D01*
X15037857Y-14993571D01*
X15023571Y-14936429D01*
X15023571Y-14865000D01*
X15037857Y-14807857D01*
X15052143Y-14779286D01*
X15066428Y-14765000D01*
X15095000Y-14750714D01*
X15323571Y-15022143D02*
X15337857Y-15036429D01*
X15323571Y-15050714D01*
X15309286Y-15036429D01*
X15323571Y-15022143D01*
X15323571Y-15050714D01*
X15523571Y-14750714D02*
X15552143Y-14750714D01*
X15580714Y-14765000D01*
X15595000Y-14779286D01*
X15609286Y-14807857D01*
X15623571Y-14865000D01*
X15623571Y-14936429D01*
X15609286Y-14993571D01*
X15595000Y-15022143D01*
X15580714Y-15036429D01*
X15552143Y-15050714D01*
X15523571Y-15050714D01*
X15495000Y-15036429D01*
X15480714Y-15022143D01*
X15466428Y-14993571D01*
X15452143Y-14936429D01*
X15452143Y-14865000D01*
X15466428Y-14807857D01*
X15480714Y-14779286D01*
X15495000Y-14765000D01*
X15523571Y-14750714D01*
X15723571Y-14750714D02*
X15909286Y-14750714D01*
X15809286Y-14865000D01*
X15852143Y-14865000D01*
X15880714Y-14879286D01*
X15895000Y-14893571D01*
X15909286Y-14922143D01*
X15909286Y-14993571D01*
X15895000Y-15022143D01*
X15880714Y-15036429D01*
X15852143Y-15050714D01*
X15766428Y-15050714D01*
X15737857Y-15036429D01*
X15723571Y-15022143D01*
X16195000Y-15050714D02*
X16023571Y-15050714D01*
X16109286Y-15050714D02*
X16109286Y-14750714D01*
X16080714Y-14793571D01*
X16052143Y-14822143D01*
X16023571Y-14836429D01*
X16309286Y-14750714D02*
X16309286Y-14807857D01*
X16423571Y-14750714D02*
X16423571Y-14807857D01*
X16866428Y-15165000D02*
X16852143Y-15150714D01*
X16823571Y-15107857D01*
X16809286Y-15079286D01*
X16795000Y-15036429D01*
X16780714Y-14965000D01*
X16780714Y-14907857D01*
X16795000Y-14836429D01*
X16809286Y-14793571D01*
X16823571Y-14765000D01*
X16852143Y-14722143D01*
X16866428Y-14707857D01*
X16966428Y-14779286D02*
X16980714Y-14765000D01*
X17009286Y-14750714D01*
X17080714Y-14750714D01*
X17109286Y-14765000D01*
X17123571Y-14779286D01*
X17137857Y-14807857D01*
X17137857Y-14836429D01*
X17123571Y-14879286D01*
X16952143Y-15050714D01*
X17137857Y-15050714D01*
X17409286Y-14750714D02*
X17266428Y-14750714D01*
X17252143Y-14893571D01*
X17266428Y-14879286D01*
X17295000Y-14865000D01*
X17366428Y-14865000D01*
X17395000Y-14879286D01*
X17409286Y-14893571D01*
X17423571Y-14922143D01*
X17423571Y-14993571D01*
X17409286Y-15022143D01*
X17395000Y-15036429D01*
X17366428Y-15050714D01*
X17295000Y-15050714D01*
X17266428Y-15036429D01*
X17252143Y-15022143D01*
X17780714Y-15050714D02*
X17780714Y-14750714D01*
X17909286Y-15050714D02*
X17909286Y-14893571D01*
X17895000Y-14865000D01*
X17866428Y-14850714D01*
X17823571Y-14850714D01*
X17795000Y-14865000D01*
X17780714Y-14879286D01*
X18095000Y-15050714D02*
X18066428Y-15036429D01*
X18052143Y-15022143D01*
X18037857Y-14993571D01*
X18037857Y-14907857D01*
X18052143Y-14879286D01*
X18066428Y-14865000D01*
X18095000Y-14850714D01*
X18137857Y-14850714D01*
X18166428Y-14865000D01*
X18180714Y-14879286D01*
X18195000Y-14907857D01*
X18195000Y-14993571D01*
X18180714Y-15022143D01*
X18166428Y-15036429D01*
X18137857Y-15050714D01*
X18095000Y-15050714D01*
X18366428Y-15050714D02*
X18337857Y-15036429D01*
X18323571Y-15007857D01*
X18323571Y-14750714D01*
X18595000Y-15036429D02*
X18566428Y-15050714D01*
X18509286Y-15050714D01*
X18480714Y-15036429D01*
X18466428Y-15007857D01*
X18466428Y-14893571D01*
X18480714Y-14865000D01*
X18509286Y-14850714D01*
X18566428Y-14850714D01*
X18595000Y-14865000D01*
X18609286Y-14893571D01*
X18609286Y-14922143D01*
X18466428Y-14950714D01*
X18723571Y-15036429D02*
X18752143Y-15050714D01*
X18809286Y-15050714D01*
X18837857Y-15036429D01*
X18852143Y-15007857D01*
X18852143Y-14993571D01*
X18837857Y-14965000D01*
X18809286Y-14950714D01*
X18766428Y-14950714D01*
X18737857Y-14936429D01*
X18723571Y-14907857D01*
X18723571Y-14893571D01*
X18737857Y-14865000D01*
X18766428Y-14850714D01*
X18809286Y-14850714D01*
X18837857Y-14865000D01*
X19209286Y-14936429D02*
X19437857Y-14936429D01*
X19323571Y-15050714D02*
X19323571Y-14822143D01*
X19780714Y-14750714D02*
X19966428Y-14750714D01*
X19866428Y-14865000D01*
X19909286Y-14865000D01*
X19937857Y-14879286D01*
X19952143Y-14893571D01*
X19966428Y-14922143D01*
X19966428Y-14993571D01*
X19952143Y-15022143D01*
X19937857Y-15036429D01*
X19909286Y-15050714D01*
X19823571Y-15050714D01*
X19795000Y-15036429D01*
X19780714Y-15022143D01*
X20309286Y-15036429D02*
X20337857Y-15050714D01*
X20395000Y-15050714D01*
X20423571Y-15036429D01*
X20437857Y-15007857D01*
X20437857Y-14993571D01*
X20423571Y-14965000D01*
X20395000Y-14950714D01*
X20352143Y-14950714D01*
X20323571Y-14936429D01*
X20309286Y-14907857D01*
X20309286Y-14893571D01*
X20323571Y-14865000D01*
X20352143Y-14850714D01*
X20395000Y-14850714D01*
X20423571Y-14865000D01*
X20609286Y-15050714D02*
X20580714Y-15036429D01*
X20566428Y-15007857D01*
X20566428Y-14750714D01*
X20766428Y-15050714D02*
X20737857Y-15036429D01*
X20723571Y-15022143D01*
X20709286Y-14993571D01*
X20709286Y-14907857D01*
X20723571Y-14879286D01*
X20737857Y-14865000D01*
X20766428Y-14850714D01*
X20809286Y-14850714D01*
X20837857Y-14865000D01*
X20852143Y-14879286D01*
X20866428Y-14907857D01*
X20866428Y-14993571D01*
X20852143Y-15022143D01*
X20837857Y-15036429D01*
X20809286Y-15050714D01*
X20766428Y-15050714D01*
X20952143Y-14850714D02*
X21066428Y-14850714D01*
X20995000Y-14750714D02*
X20995000Y-15007857D01*
X21009286Y-15036429D01*
X21037857Y-15050714D01*
X21066428Y-15050714D01*
X21152143Y-15036429D02*
X21180714Y-15050714D01*
X21237857Y-15050714D01*
X21266428Y-15036429D01*
X21280714Y-15007857D01*
X21280714Y-14993571D01*
X21266428Y-14965000D01*
X21237857Y-14950714D01*
X21195000Y-14950714D01*
X21166428Y-14936429D01*
X21152143Y-14907857D01*
X21152143Y-14893571D01*
X21166428Y-14865000D01*
X21195000Y-14850714D01*
X21237857Y-14850714D01*
X21266428Y-14865000D01*
X21380714Y-15165000D02*
X21395000Y-15150714D01*
X21423571Y-15107857D01*
X21437857Y-15079286D01*
X21452143Y-15036429D01*
X21466428Y-14965000D01*
X21466428Y-14907857D01*
X21452143Y-14836429D01*
X21437857Y-14793571D01*
X21423571Y-14765000D01*
X21395000Y-14722143D01*
X21380714Y-14707857D01*
X12130000Y-15261000D02*
X12130000Y-15361000D01*
X12080000Y-15311000D02*
X12180000Y-15311000D01*
X12623571Y-15446714D02*
X12452143Y-15446714D01*
X12537857Y-15446714D02*
X12537857Y-15146714D01*
X12509286Y-15189571D01*
X12480714Y-15218143D01*
X12452143Y-15232429D01*
X12752143Y-15418143D02*
X12766428Y-15432429D01*
X12752143Y-15446714D01*
X12737857Y-15432429D01*
X12752143Y-15418143D01*
X12752143Y-15446714D01*
X12952143Y-15146714D02*
X12980714Y-15146714D01*
X13009286Y-15161000D01*
X13023571Y-15175286D01*
X13037857Y-15203857D01*
X13052143Y-15261000D01*
X13052143Y-15332429D01*
X13037857Y-15389571D01*
X13023571Y-15418143D01*
X13009286Y-15432429D01*
X12980714Y-15446714D01*
X12952143Y-15446714D01*
X12923571Y-15432429D01*
X12909286Y-15418143D01*
X12895000Y-15389571D01*
X12880714Y-15332429D01*
X12880714Y-15261000D01*
X12895000Y-15203857D01*
X12909286Y-15175286D01*
X12923571Y-15161000D01*
X12952143Y-15146714D01*
X13237857Y-15146714D02*
X13266428Y-15146714D01*
X13295000Y-15161000D01*
X13309286Y-15175286D01*
X13323571Y-15203857D01*
X13337857Y-15261000D01*
X13337857Y-15332429D01*
X13323571Y-15389571D01*
X13309286Y-15418143D01*
X13295000Y-15432429D01*
X13266428Y-15446714D01*
X13237857Y-15446714D01*
X13209286Y-15432429D01*
X13195000Y-15418143D01*
X13180714Y-15389571D01*
X13166428Y-15332429D01*
X13166428Y-15261000D01*
X13180714Y-15203857D01*
X13195000Y-15175286D01*
X13209286Y-15161000D01*
X13237857Y-15146714D01*
X13466428Y-15446714D02*
X13466428Y-15246714D01*
X13466428Y-15275286D02*
X13480714Y-15261000D01*
X13509286Y-15246714D01*
X13552143Y-15246714D01*
X13580714Y-15261000D01*
X13595000Y-15289571D01*
X13595000Y-15446714D01*
X13595000Y-15289571D02*
X13609286Y-15261000D01*
X13637857Y-15246714D01*
X13680714Y-15246714D01*
X13709286Y-15261000D01*
X13723571Y-15289571D01*
X13723571Y-15446714D01*
X13866428Y-15446714D02*
X13866428Y-15246714D01*
X13866428Y-15275286D02*
X13880714Y-15261000D01*
X13909286Y-15246714D01*
X13952143Y-15246714D01*
X13980714Y-15261000D01*
X13995000Y-15289571D01*
X13995000Y-15446714D01*
X13995000Y-15289571D02*
X14009286Y-15261000D01*
X14037857Y-15246714D01*
X14080714Y-15246714D01*
X14109286Y-15261000D01*
X14123571Y-15289571D01*
X14123571Y-15446714D01*
X14709286Y-15132429D02*
X14452143Y-15518143D01*
X15095000Y-15146714D02*
X15123571Y-15146714D01*
X15152143Y-15161000D01*
X15166428Y-15175286D01*
X15180714Y-15203857D01*
X15195000Y-15261000D01*
X15195000Y-15332429D01*
X15180714Y-15389571D01*
X15166428Y-15418143D01*
X15152143Y-15432429D01*
X15123571Y-15446714D01*
X15095000Y-15446714D01*
X15066428Y-15432429D01*
X15052143Y-15418143D01*
X15037857Y-15389571D01*
X15023571Y-15332429D01*
X15023571Y-15261000D01*
X15037857Y-15203857D01*
X15052143Y-15175286D01*
X15066428Y-15161000D01*
X15095000Y-15146714D01*
X15323571Y-15418143D02*
X15337857Y-15432429D01*
X15323571Y-15446714D01*
X15309286Y-15432429D01*
X15323571Y-15418143D01*
X15323571Y-15446714D01*
X15523571Y-15146714D02*
X15552143Y-15146714D01*
X15580714Y-15161000D01*
X15595000Y-15175286D01*
X15609286Y-15203857D01*
X15623571Y-15261000D01*
X15623571Y-15332429D01*
X15609286Y-15389571D01*
X15595000Y-15418143D01*
X15580714Y-15432429D01*
X15552143Y-15446714D01*
X15523571Y-15446714D01*
X15495000Y-15432429D01*
X15480714Y-15418143D01*
X15466428Y-15389571D01*
X15452143Y-15332429D01*
X15452143Y-15261000D01*
X15466428Y-15203857D01*
X15480714Y-15175286D01*
X15495000Y-15161000D01*
X15523571Y-15146714D01*
X15723571Y-15146714D02*
X15909286Y-15146714D01*
X15809286Y-15261000D01*
X15852143Y-15261000D01*
X15880714Y-15275286D01*
X15895000Y-15289571D01*
X15909286Y-15318143D01*
X15909286Y-15389571D01*
X15895000Y-15418143D01*
X15880714Y-15432429D01*
X15852143Y-15446714D01*
X15766428Y-15446714D01*
X15737857Y-15432429D01*
X15723571Y-15418143D01*
X16052143Y-15446714D02*
X16109286Y-15446714D01*
X16137857Y-15432429D01*
X16152143Y-15418143D01*
X16180714Y-15375286D01*
X16195000Y-15318143D01*
X16195000Y-15203857D01*
X16180714Y-15175286D01*
X16166428Y-15161000D01*
X16137857Y-15146714D01*
X16080714Y-15146714D01*
X16052143Y-15161000D01*
X16037857Y-15175286D01*
X16023571Y-15203857D01*
X16023571Y-15275286D01*
X16037857Y-15303857D01*
X16052143Y-15318143D01*
X16080714Y-15332429D01*
X16137857Y-15332429D01*
X16166428Y-15318143D01*
X16180714Y-15303857D01*
X16195000Y-15275286D01*
X16309286Y-15146714D02*
X16309286Y-15203857D01*
X16423571Y-15146714D02*
X16423571Y-15203857D01*
X16866428Y-15561000D02*
X16852143Y-15546714D01*
X16823571Y-15503857D01*
X16809286Y-15475286D01*
X16795000Y-15432429D01*
X16780714Y-15361000D01*
X16780714Y-15303857D01*
X16795000Y-15232429D01*
X16809286Y-15189571D01*
X16823571Y-15161000D01*
X16852143Y-15118143D01*
X16866428Y-15103857D01*
X17123571Y-15146714D02*
X16980714Y-15146714D01*
X16966428Y-15289571D01*
X16980714Y-15275286D01*
X17009286Y-15261000D01*
X17080714Y-15261000D01*
X17109286Y-15275286D01*
X17123571Y-15289571D01*
X17137857Y-15318143D01*
X17137857Y-15389571D01*
X17123571Y-15418143D01*
X17109286Y-15432429D01*
X17080714Y-15446714D01*
X17009286Y-15446714D01*
X16980714Y-15432429D01*
X16966428Y-15418143D01*
X17309286Y-15275286D02*
X17280714Y-15261000D01*
X17266428Y-15246714D01*
X17252143Y-15218143D01*
X17252143Y-15203857D01*
X17266428Y-15175286D01*
X17280714Y-15161000D01*
X17309286Y-15146714D01*
X17366428Y-15146714D01*
X17395000Y-15161000D01*
X17409286Y-15175286D01*
X17423571Y-15203857D01*
X17423571Y-15218143D01*
X17409286Y-15246714D01*
X17395000Y-15261000D01*
X17366428Y-15275286D01*
X17309286Y-15275286D01*
X17280714Y-15289571D01*
X17266428Y-15303857D01*
X17252143Y-15332429D01*
X17252143Y-15389571D01*
X17266428Y-15418143D01*
X17280714Y-15432429D01*
X17309286Y-15446714D01*
X17366428Y-15446714D01*
X17395000Y-15432429D01*
X17409286Y-15418143D01*
X17423571Y-15389571D01*
X17423571Y-15332429D01*
X17409286Y-15303857D01*
X17395000Y-15289571D01*
X17366428Y-15275286D01*
X17780714Y-15446714D02*
X17780714Y-15146714D01*
X17909286Y-15446714D02*
X17909286Y-15289571D01*
X17895000Y-15261000D01*
X17866428Y-15246714D01*
X17823571Y-15246714D01*
X17795000Y-15261000D01*
X17780714Y-15275286D01*
X18095000Y-15446714D02*
X18066428Y-15432429D01*
X18052143Y-15418143D01*
X18037857Y-15389571D01*
X18037857Y-15303857D01*
X18052143Y-15275286D01*
X18066428Y-15261000D01*
X18095000Y-15246714D01*
X18137857Y-15246714D01*
X18166428Y-15261000D01*
X18180714Y-15275286D01*
X18195000Y-15303857D01*
X18195000Y-15389571D01*
X18180714Y-15418143D01*
X18166428Y-15432429D01*
X18137857Y-15446714D01*
X18095000Y-15446714D01*
X18366428Y-15446714D02*
X18337857Y-15432429D01*
X18323571Y-15403857D01*
X18323571Y-15146714D01*
X18595000Y-15432429D02*
X18566428Y-15446714D01*
X18509286Y-15446714D01*
X18480714Y-15432429D01*
X18466428Y-15403857D01*
X18466428Y-15289571D01*
X18480714Y-15261000D01*
X18509286Y-15246714D01*
X18566428Y-15246714D01*
X18595000Y-15261000D01*
X18609286Y-15289571D01*
X18609286Y-15318143D01*
X18466428Y-15346714D01*
X18723571Y-15432429D02*
X18752143Y-15446714D01*
X18809286Y-15446714D01*
X18837857Y-15432429D01*
X18852143Y-15403857D01*
X18852143Y-15389571D01*
X18837857Y-15361000D01*
X18809286Y-15346714D01*
X18766428Y-15346714D01*
X18737857Y-15332429D01*
X18723571Y-15303857D01*
X18723571Y-15289571D01*
X18737857Y-15261000D01*
X18766428Y-15246714D01*
X18809286Y-15246714D01*
X18837857Y-15261000D01*
X18952143Y-15561000D02*
X18966428Y-15546714D01*
X18995000Y-15503857D01*
X19009286Y-15475286D01*
X19023571Y-15432429D01*
X19037857Y-15361000D01*
X19037857Y-15303857D01*
X19023571Y-15232429D01*
X19009286Y-15189571D01*
X18995000Y-15161000D01*
X18966428Y-15118143D01*
X18952143Y-15103857D01*
X12160962Y-15752962D02*
X12160962Y-15661038D01*
X12069037Y-15661038D01*
X12069037Y-15752962D01*
X12160962Y-15752962D01*
X12623571Y-15842714D02*
X12452143Y-15842714D01*
X12537857Y-15842714D02*
X12537857Y-15542714D01*
X12509286Y-15585571D01*
X12480714Y-15614143D01*
X12452143Y-15628429D01*
X12752143Y-15814143D02*
X12766428Y-15828429D01*
X12752143Y-15842714D01*
X12737857Y-15828429D01*
X12752143Y-15814143D01*
X12752143Y-15842714D01*
X12866428Y-15542714D02*
X13052143Y-15542714D01*
X12952143Y-15657000D01*
X12995000Y-15657000D01*
X13023571Y-15671286D01*
X13037857Y-15685571D01*
X13052143Y-15714143D01*
X13052143Y-15785571D01*
X13037857Y-15814143D01*
X13023571Y-15828429D01*
X12995000Y-15842714D01*
X12909286Y-15842714D01*
X12880714Y-15828429D01*
X12866428Y-15814143D01*
X13237857Y-15542714D02*
X13266428Y-15542714D01*
X13295000Y-15557000D01*
X13309286Y-15571286D01*
X13323571Y-15599857D01*
X13337857Y-15657000D01*
X13337857Y-15728429D01*
X13323571Y-15785571D01*
X13309286Y-15814143D01*
X13295000Y-15828429D01*
X13266428Y-15842714D01*
X13237857Y-15842714D01*
X13209286Y-15828429D01*
X13195000Y-15814143D01*
X13180714Y-15785571D01*
X13166428Y-15728429D01*
X13166428Y-15657000D01*
X13180714Y-15599857D01*
X13195000Y-15571286D01*
X13209286Y-15557000D01*
X13237857Y-15542714D01*
X13466428Y-15842714D02*
X13466428Y-15642714D01*
X13466428Y-15671286D02*
X13480714Y-15657000D01*
X13509286Y-15642714D01*
X13552143Y-15642714D01*
X13580714Y-15657000D01*
X13595000Y-15685571D01*
X13595000Y-15842714D01*
X13595000Y-15685571D02*
X13609286Y-15657000D01*
X13637857Y-15642714D01*
X13680714Y-15642714D01*
X13709286Y-15657000D01*
X13723571Y-15685571D01*
X13723571Y-15842714D01*
X13866428Y-15842714D02*
X13866428Y-15642714D01*
X13866428Y-15671286D02*
X13880714Y-15657000D01*
X13909286Y-15642714D01*
X13952143Y-15642714D01*
X13980714Y-15657000D01*
X13995000Y-15685571D01*
X13995000Y-15842714D01*
X13995000Y-15685571D02*
X14009286Y-15657000D01*
X14037857Y-15642714D01*
X14080714Y-15642714D01*
X14109286Y-15657000D01*
X14123571Y-15685571D01*
X14123571Y-15842714D01*
X14709286Y-15528429D02*
X14452143Y-15914143D01*
X15095000Y-15542714D02*
X15123571Y-15542714D01*
X15152143Y-15557000D01*
X15166428Y-15571286D01*
X15180714Y-15599857D01*
X15195000Y-15657000D01*
X15195000Y-15728429D01*
X15180714Y-15785571D01*
X15166428Y-15814143D01*
X15152143Y-15828429D01*
X15123571Y-15842714D01*
X15095000Y-15842714D01*
X15066428Y-15828429D01*
X15052143Y-15814143D01*
X15037857Y-15785571D01*
X15023571Y-15728429D01*
X15023571Y-15657000D01*
X15037857Y-15599857D01*
X15052143Y-15571286D01*
X15066428Y-15557000D01*
X15095000Y-15542714D01*
X15323571Y-15814143D02*
X15337857Y-15828429D01*
X15323571Y-15842714D01*
X15309286Y-15828429D01*
X15323571Y-15814143D01*
X15323571Y-15842714D01*
X15523571Y-15542714D02*
X15552143Y-15542714D01*
X15580714Y-15557000D01*
X15595000Y-15571286D01*
X15609286Y-15599857D01*
X15623571Y-15657000D01*
X15623571Y-15728429D01*
X15609286Y-15785571D01*
X15595000Y-15814143D01*
X15580714Y-15828429D01*
X15552143Y-15842714D01*
X15523571Y-15842714D01*
X15495000Y-15828429D01*
X15480714Y-15814143D01*
X15466428Y-15785571D01*
X15452143Y-15728429D01*
X15452143Y-15657000D01*
X15466428Y-15599857D01*
X15480714Y-15571286D01*
X15495000Y-15557000D01*
X15523571Y-15542714D01*
X15895000Y-15542714D02*
X15752143Y-15542714D01*
X15737857Y-15685571D01*
X15752143Y-15671286D01*
X15780714Y-15657000D01*
X15852143Y-15657000D01*
X15880714Y-15671286D01*
X15895000Y-15685571D01*
X15909286Y-15714143D01*
X15909286Y-15785571D01*
X15895000Y-15814143D01*
X15880714Y-15828429D01*
X15852143Y-15842714D01*
X15780714Y-15842714D01*
X15752143Y-15828429D01*
X15737857Y-15814143D01*
X16195000Y-15842714D02*
X16023571Y-15842714D01*
X16109286Y-15842714D02*
X16109286Y-15542714D01*
X16080714Y-15585571D01*
X16052143Y-15614143D01*
X16023571Y-15628429D01*
X16309286Y-15542714D02*
X16309286Y-15599857D01*
X16423571Y-15542714D02*
X16423571Y-15599857D01*
X16866428Y-15957000D02*
X16852143Y-15942714D01*
X16823571Y-15899857D01*
X16809286Y-15871286D01*
X16795000Y-15828429D01*
X16780714Y-15757000D01*
X16780714Y-15699857D01*
X16795000Y-15628429D01*
X16809286Y-15585571D01*
X16823571Y-15557000D01*
X16852143Y-15514143D01*
X16866428Y-15499857D01*
X17137857Y-15842714D02*
X16966428Y-15842714D01*
X17052143Y-15842714D02*
X17052143Y-15542714D01*
X17023571Y-15585571D01*
X16995000Y-15614143D01*
X16966428Y-15628429D01*
X17280714Y-15842714D02*
X17337857Y-15842714D01*
X17366428Y-15828429D01*
X17380714Y-15814143D01*
X17409286Y-15771286D01*
X17423571Y-15714143D01*
X17423571Y-15599857D01*
X17409286Y-15571286D01*
X17395000Y-15557000D01*
X17366428Y-15542714D01*
X17309286Y-15542714D01*
X17280714Y-15557000D01*
X17266428Y-15571286D01*
X17252143Y-15599857D01*
X17252143Y-15671286D01*
X17266428Y-15699857D01*
X17280714Y-15714143D01*
X17309286Y-15728429D01*
X17366428Y-15728429D01*
X17395000Y-15714143D01*
X17409286Y-15699857D01*
X17423571Y-15671286D01*
X17780714Y-15842714D02*
X17780714Y-15542714D01*
X17909286Y-15842714D02*
X17909286Y-15685571D01*
X17895000Y-15657000D01*
X17866428Y-15642714D01*
X17823571Y-15642714D01*
X17795000Y-15657000D01*
X17780714Y-15671286D01*
X18095000Y-15842714D02*
X18066428Y-15828429D01*
X18052143Y-15814143D01*
X18037857Y-15785571D01*
X18037857Y-15699857D01*
X18052143Y-15671286D01*
X18066428Y-15657000D01*
X18095000Y-15642714D01*
X18137857Y-15642714D01*
X18166428Y-15657000D01*
X18180714Y-15671286D01*
X18195000Y-15699857D01*
X18195000Y-15785571D01*
X18180714Y-15814143D01*
X18166428Y-15828429D01*
X18137857Y-15842714D01*
X18095000Y-15842714D01*
X18366428Y-15842714D02*
X18337857Y-15828429D01*
X18323571Y-15799857D01*
X18323571Y-15542714D01*
X18595000Y-15828429D02*
X18566428Y-15842714D01*
X18509286Y-15842714D01*
X18480714Y-15828429D01*
X18466428Y-15799857D01*
X18466428Y-15685571D01*
X18480714Y-15657000D01*
X18509286Y-15642714D01*
X18566428Y-15642714D01*
X18595000Y-15657000D01*
X18609286Y-15685571D01*
X18609286Y-15714143D01*
X18466428Y-15742714D01*
X18723571Y-15828429D02*
X18752143Y-15842714D01*
X18809286Y-15842714D01*
X18837857Y-15828429D01*
X18852143Y-15799857D01*
X18852143Y-15785571D01*
X18837857Y-15757000D01*
X18809286Y-15742714D01*
X18766428Y-15742714D01*
X18737857Y-15728429D01*
X18723571Y-15699857D01*
X18723571Y-15685571D01*
X18737857Y-15657000D01*
X18766428Y-15642714D01*
X18809286Y-15642714D01*
X18837857Y-15657000D01*
X18952143Y-15957000D02*
X18966428Y-15942714D01*
X18995000Y-15899857D01*
X19009286Y-15871286D01*
X19023571Y-15828429D01*
X19037857Y-15757000D01*
X19037857Y-15699857D01*
X19023571Y-15628429D01*
X19009286Y-15585571D01*
X18995000Y-15557000D01*
X18966428Y-15514143D01*
X18952143Y-15499857D01*
X12055000Y-16228000D02*
X12180000Y-16103000D01*
X12055000Y-15978000D01*
X11930000Y-16103000D01*
X12055000Y-16228000D01*
X12452143Y-15967286D02*
X12466428Y-15953000D01*
X12495000Y-15938714D01*
X12566428Y-15938714D01*
X12595000Y-15953000D01*
X12609286Y-15967286D01*
X12623571Y-15995857D01*
X12623571Y-16024429D01*
X12609286Y-16067286D01*
X12437857Y-16238714D01*
X12623571Y-16238714D01*
X12752143Y-16210143D02*
X12766428Y-16224429D01*
X12752143Y-16238714D01*
X12737857Y-16224429D01*
X12752143Y-16210143D01*
X12752143Y-16238714D01*
X13037857Y-15938714D02*
X12895000Y-15938714D01*
X12880714Y-16081571D01*
X12895000Y-16067286D01*
X12923571Y-16053000D01*
X12995000Y-16053000D01*
X13023571Y-16067286D01*
X13037857Y-16081571D01*
X13052143Y-16110143D01*
X13052143Y-16181571D01*
X13037857Y-16210143D01*
X13023571Y-16224429D01*
X12995000Y-16238714D01*
X12923571Y-16238714D01*
X12895000Y-16224429D01*
X12880714Y-16210143D01*
X13237857Y-15938714D02*
X13266428Y-15938714D01*
X13295000Y-15953000D01*
X13309286Y-15967286D01*
X13323571Y-15995857D01*
X13337857Y-16053000D01*
X13337857Y-16124429D01*
X13323571Y-16181571D01*
X13309286Y-16210143D01*
X13295000Y-16224429D01*
X13266428Y-16238714D01*
X13237857Y-16238714D01*
X13209286Y-16224429D01*
X13195000Y-16210143D01*
X13180714Y-16181571D01*
X13166428Y-16124429D01*
X13166428Y-16053000D01*
X13180714Y-15995857D01*
X13195000Y-15967286D01*
X13209286Y-15953000D01*
X13237857Y-15938714D01*
X13466428Y-16238714D02*
X13466428Y-16038714D01*
X13466428Y-16067286D02*
X13480714Y-16053000D01*
X13509286Y-16038714D01*
X13552143Y-16038714D01*
X13580714Y-16053000D01*
X13595000Y-16081571D01*
X13595000Y-16238714D01*
X13595000Y-16081571D02*
X13609286Y-16053000D01*
X13637857Y-16038714D01*
X13680714Y-16038714D01*
X13709286Y-16053000D01*
X13723571Y-16081571D01*
X13723571Y-16238714D01*
X13866428Y-16238714D02*
X13866428Y-16038714D01*
X13866428Y-16067286D02*
X13880714Y-16053000D01*
X13909286Y-16038714D01*
X13952143Y-16038714D01*
X13980714Y-16053000D01*
X13995000Y-16081571D01*
X13995000Y-16238714D01*
X13995000Y-16081571D02*
X14009286Y-16053000D01*
X14037857Y-16038714D01*
X14080714Y-16038714D01*
X14109286Y-16053000D01*
X14123571Y-16081571D01*
X14123571Y-16238714D01*
X14709286Y-15924429D02*
X14452143Y-16310143D01*
X15095000Y-15938714D02*
X15123571Y-15938714D01*
X15152143Y-15953000D01*
X15166428Y-15967286D01*
X15180714Y-15995857D01*
X15195000Y-16053000D01*
X15195000Y-16124429D01*
X15180714Y-16181571D01*
X15166428Y-16210143D01*
X15152143Y-16224429D01*
X15123571Y-16238714D01*
X15095000Y-16238714D01*
X15066428Y-16224429D01*
X15052143Y-16210143D01*
X15037857Y-16181571D01*
X15023571Y-16124429D01*
X15023571Y-16053000D01*
X15037857Y-15995857D01*
X15052143Y-15967286D01*
X15066428Y-15953000D01*
X15095000Y-15938714D01*
X15323571Y-16210143D02*
X15337857Y-16224429D01*
X15323571Y-16238714D01*
X15309286Y-16224429D01*
X15323571Y-16210143D01*
X15323571Y-16238714D01*
X15523571Y-15938714D02*
X15552143Y-15938714D01*
X15580714Y-15953000D01*
X15595000Y-15967286D01*
X15609286Y-15995857D01*
X15623571Y-16053000D01*
X15623571Y-16124429D01*
X15609286Y-16181571D01*
X15595000Y-16210143D01*
X15580714Y-16224429D01*
X15552143Y-16238714D01*
X15523571Y-16238714D01*
X15495000Y-16224429D01*
X15480714Y-16210143D01*
X15466428Y-16181571D01*
X15452143Y-16124429D01*
X15452143Y-16053000D01*
X15466428Y-15995857D01*
X15480714Y-15967286D01*
X15495000Y-15953000D01*
X15523571Y-15938714D01*
X15766428Y-16238714D02*
X15823571Y-16238714D01*
X15852143Y-16224429D01*
X15866428Y-16210143D01*
X15895000Y-16167286D01*
X15909286Y-16110143D01*
X15909286Y-15995857D01*
X15895000Y-15967286D01*
X15880714Y-15953000D01*
X15852143Y-15938714D01*
X15795000Y-15938714D01*
X15766428Y-15953000D01*
X15752143Y-15967286D01*
X15737857Y-15995857D01*
X15737857Y-16067286D01*
X15752143Y-16095857D01*
X15766428Y-16110143D01*
X15795000Y-16124429D01*
X15852143Y-16124429D01*
X15880714Y-16110143D01*
X15895000Y-16095857D01*
X15909286Y-16067286D01*
X16080714Y-16067286D02*
X16052143Y-16053000D01*
X16037857Y-16038714D01*
X16023571Y-16010143D01*
X16023571Y-15995857D01*
X16037857Y-15967286D01*
X16052143Y-15953000D01*
X16080714Y-15938714D01*
X16137857Y-15938714D01*
X16166428Y-15953000D01*
X16180714Y-15967286D01*
X16195000Y-15995857D01*
X16195000Y-16010143D01*
X16180714Y-16038714D01*
X16166428Y-16053000D01*
X16137857Y-16067286D01*
X16080714Y-16067286D01*
X16052143Y-16081571D01*
X16037857Y-16095857D01*
X16023571Y-16124429D01*
X16023571Y-16181571D01*
X16037857Y-16210143D01*
X16052143Y-16224429D01*
X16080714Y-16238714D01*
X16137857Y-16238714D01*
X16166428Y-16224429D01*
X16180714Y-16210143D01*
X16195000Y-16181571D01*
X16195000Y-16124429D01*
X16180714Y-16095857D01*
X16166428Y-16081571D01*
X16137857Y-16067286D01*
X16309286Y-15938714D02*
X16309286Y-15995857D01*
X16423571Y-15938714D02*
X16423571Y-15995857D01*
X16866428Y-16353000D02*
X16852143Y-16338714D01*
X16823571Y-16295857D01*
X16809286Y-16267286D01*
X16795000Y-16224429D01*
X16780714Y-16153000D01*
X16780714Y-16095857D01*
X16795000Y-16024429D01*
X16809286Y-15981571D01*
X16823571Y-15953000D01*
X16852143Y-15910143D01*
X16866428Y-15895857D01*
X17109286Y-16038714D02*
X17109286Y-16238714D01*
X17037857Y-15924429D02*
X16966428Y-16138714D01*
X17152143Y-16138714D01*
X17495000Y-16238714D02*
X17495000Y-15938714D01*
X17623571Y-16238714D02*
X17623571Y-16081571D01*
X17609286Y-16053000D01*
X17580714Y-16038714D01*
X17537857Y-16038714D01*
X17509286Y-16053000D01*
X17495000Y-16067286D01*
X17809286Y-16238714D02*
X17780714Y-16224429D01*
X17766428Y-16210143D01*
X17752143Y-16181571D01*
X17752143Y-16095857D01*
X17766428Y-16067286D01*
X17780714Y-16053000D01*
X17809286Y-16038714D01*
X17852143Y-16038714D01*
X17880714Y-16053000D01*
X17895000Y-16067286D01*
X17909286Y-16095857D01*
X17909286Y-16181571D01*
X17895000Y-16210143D01*
X17880714Y-16224429D01*
X17852143Y-16238714D01*
X17809286Y-16238714D01*
X18080714Y-16238714D02*
X18052143Y-16224429D01*
X18037857Y-16195857D01*
X18037857Y-15938714D01*
X18309286Y-16224429D02*
X18280714Y-16238714D01*
X18223571Y-16238714D01*
X18195000Y-16224429D01*
X18180714Y-16195857D01*
X18180714Y-16081571D01*
X18195000Y-16053000D01*
X18223571Y-16038714D01*
X18280714Y-16038714D01*
X18309286Y-16053000D01*
X18323571Y-16081571D01*
X18323571Y-16110143D01*
X18180714Y-16138714D01*
X18437857Y-16224429D02*
X18466428Y-16238714D01*
X18523571Y-16238714D01*
X18552143Y-16224429D01*
X18566428Y-16195857D01*
X18566428Y-16181571D01*
X18552143Y-16153000D01*
X18523571Y-16138714D01*
X18480714Y-16138714D01*
X18452143Y-16124429D01*
X18437857Y-16095857D01*
X18437857Y-16081571D01*
X18452143Y-16053000D01*
X18480714Y-16038714D01*
X18523571Y-16038714D01*
X18552143Y-16053000D01*
X18666428Y-16353000D02*
X18680714Y-16338714D01*
X18709286Y-16295857D01*
X18723571Y-16267286D01*
X18737857Y-16224429D01*
X18752143Y-16153000D01*
X18752143Y-16095857D01*
X18737857Y-16024429D01*
X18723571Y-15981571D01*
X18709286Y-15953000D01*
X18680714Y-15910143D01*
X18666428Y-15895857D01*
M02*
