G04 #@! TF.GenerationSoftware,KiCad,Pcbnew,7.0.2-0*
G04 #@! TF.CreationDate,2023-10-15T17:43:39-05:00*
G04 #@! TF.ProjectId,spudglo_business_card,73707564-676c-46f5-9f62-7573696e6573,rev?*
G04 #@! TF.SameCoordinates,Original*
G04 #@! TF.FileFunction,Copper,L1,Top*
G04 #@! TF.FilePolarity,Positive*
%FSLAX46Y46*%
G04 Gerber Fmt 4.6, Leading zero omitted, Abs format (unit mm)*
G04 Created by KiCad (PCBNEW 7.0.2-0) date 2023-10-15 17:43:39*
%MOMM*%
%LPD*%
G01*
G04 APERTURE LIST*
G04 Aperture macros list*
%AMRoundRect*
0 Rectangle with rounded corners*
0 $1 Rounding radius*
0 $2 $3 $4 $5 $6 $7 $8 $9 X,Y pos of 4 corners*
0 Add a 4 corners polygon primitive as box body*
4,1,4,$2,$3,$4,$5,$6,$7,$8,$9,$2,$3,0*
0 Add four circle primitives for the rounded corners*
1,1,$1+$1,$2,$3*
1,1,$1+$1,$4,$5*
1,1,$1+$1,$6,$7*
1,1,$1+$1,$8,$9*
0 Add four rect primitives between the rounded corners*
20,1,$1+$1,$2,$3,$4,$5,0*
20,1,$1+$1,$4,$5,$6,$7,0*
20,1,$1+$1,$6,$7,$8,$9,0*
20,1,$1+$1,$8,$9,$2,$3,0*%
%AMRotRect*
0 Rectangle, with rotation*
0 The origin of the aperture is its center*
0 $1 length*
0 $2 width*
0 $3 Rotation angle, in degrees counterclockwise*
0 Add horizontal line*
21,1,$1,$2,0,0,$3*%
G04 Aperture macros list end*
G04 #@! TA.AperFunction,SMDPad,CuDef*
%ADD10RotRect,0.700000X0.700000X225.000000*%
G04 #@! TD*
G04 #@! TA.AperFunction,SMDPad,CuDef*
%ADD11R,0.700000X0.700000*%
G04 #@! TD*
G04 #@! TA.AperFunction,SMDPad,CuDef*
%ADD12RotRect,0.700000X0.700000X45.000000*%
G04 #@! TD*
G04 #@! TA.AperFunction,SMDPad,CuDef*
%ADD13RotRect,0.700000X0.700000X195.000000*%
G04 #@! TD*
G04 #@! TA.AperFunction,SMDPad,CuDef*
%ADD14RotRect,0.700000X0.700000X345.000000*%
G04 #@! TD*
G04 #@! TA.AperFunction,SMDPad,CuDef*
%ADD15RotRect,0.700000X0.700000X30.000000*%
G04 #@! TD*
G04 #@! TA.AperFunction,SMDPad,CuDef*
%ADD16RotRect,0.700000X0.700000X315.000000*%
G04 #@! TD*
G04 #@! TA.AperFunction,SMDPad,CuDef*
%ADD17RotRect,0.700000X0.700000X135.000000*%
G04 #@! TD*
G04 #@! TA.AperFunction,SMDPad,CuDef*
%ADD18RotRect,0.700000X0.700000X150.000000*%
G04 #@! TD*
G04 #@! TA.AperFunction,SMDPad,CuDef*
%ADD19RotRect,0.700000X0.700000X165.000000*%
G04 #@! TD*
G04 #@! TA.AperFunction,SMDPad,CuDef*
%ADD20RotRect,0.700000X0.700000X20.000000*%
G04 #@! TD*
G04 #@! TA.AperFunction,SMDPad,CuDef*
%ADD21RotRect,0.700000X0.700000X60.000000*%
G04 #@! TD*
G04 #@! TA.AperFunction,SMDPad,CuDef*
%ADD22RotRect,0.700000X0.700000X160.000000*%
G04 #@! TD*
G04 #@! TA.AperFunction,SMDPad,CuDef*
%ADD23RoundRect,0.100000X0.100000X-0.130000X0.100000X0.130000X-0.100000X0.130000X-0.100000X-0.130000X0*%
G04 #@! TD*
G04 #@! TA.AperFunction,SMDPad,CuDef*
%ADD24RoundRect,0.100000X-0.162635X0.021213X0.021213X-0.162635X0.162635X-0.021213X-0.021213X0.162635X0*%
G04 #@! TD*
G04 #@! TA.AperFunction,SMDPad,CuDef*
%ADD25RoundRect,0.100000X-0.100000X0.130000X-0.100000X-0.130000X0.100000X-0.130000X0.100000X0.130000X0*%
G04 #@! TD*
G04 #@! TA.AperFunction,SMDPad,CuDef*
%ADD26RoundRect,0.100000X-0.021213X-0.162635X0.162635X0.021213X0.021213X0.162635X-0.162635X-0.021213X0*%
G04 #@! TD*
G04 #@! TA.AperFunction,SMDPad,CuDef*
%ADD27RoundRect,0.100000X0.021213X0.162635X-0.162635X-0.021213X-0.021213X-0.162635X0.162635X0.021213X0*%
G04 #@! TD*
G04 #@! TA.AperFunction,SMDPad,CuDef*
%ADD28RoundRect,0.100000X-0.130000X-0.100000X0.130000X-0.100000X0.130000X0.100000X-0.130000X0.100000X0*%
G04 #@! TD*
G04 #@! TA.AperFunction,SMDPad,CuDef*
%ADD29RoundRect,0.100000X0.130000X0.100000X-0.130000X0.100000X-0.130000X-0.100000X0.130000X-0.100000X0*%
G04 #@! TD*
G04 #@! TA.AperFunction,SMDPad,CuDef*
%ADD30RoundRect,0.100000X0.151603X-0.062583X0.021603X0.162583X-0.151603X0.062583X-0.021603X-0.162583X0*%
G04 #@! TD*
G04 #@! TA.AperFunction,SMDPad,CuDef*
%ADD31RoundRect,0.100000X-0.021603X0.162583X-0.151603X-0.062583X0.021603X-0.162583X0.151603X0.062583X0*%
G04 #@! TD*
G04 #@! TA.AperFunction,SMDPad,CuDef*
%ADD32RoundRect,0.100000X0.162583X0.021603X-0.062583X0.151603X-0.162583X-0.021603X0.062583X-0.151603X0*%
G04 #@! TD*
G04 #@! TA.AperFunction,SMDPad,CuDef*
%ADD33RoundRect,0.100000X0.162635X-0.021213X-0.021213X0.162635X-0.162635X0.021213X0.021213X-0.162635X0*%
G04 #@! TD*
G04 #@! TA.AperFunction,SMDPad,CuDef*
%ADD34RoundRect,0.100000X0.160082X0.035690X-0.075558X0.145571X-0.160082X-0.035690X0.075558X-0.145571X0*%
G04 #@! TD*
G04 #@! TA.AperFunction,SMDPad,CuDef*
%ADD35RoundRect,0.100000X0.130239X-0.099688X0.062946X0.151452X-0.130239X0.099688X-0.062946X-0.151452X0*%
G04 #@! TD*
G04 #@! TA.AperFunction,SMDPad,CuDef*
%ADD36RoundRect,0.100000X0.062946X-0.151452X0.130239X0.099688X-0.062946X0.151452X-0.130239X-0.099688X0*%
G04 #@! TD*
G04 #@! TA.AperFunction,SMDPad,CuDef*
%ADD37RoundRect,0.100000X-0.062946X0.151452X-0.130239X-0.099688X0.062946X-0.151452X0.130239X0.099688X0*%
G04 #@! TD*
G04 #@! TA.AperFunction,SMDPad,CuDef*
%ADD38RoundRect,0.100000X0.138432X-0.087958X0.049507X0.156362X-0.138432X0.087958X-0.049507X-0.156362X0*%
G04 #@! TD*
G04 #@! TA.AperFunction,ComponentPad*
%ADD39C,1.755000*%
G04 #@! TD*
G04 #@! TA.AperFunction,ComponentPad*
%ADD40R,1.700000X1.700000*%
G04 #@! TD*
G04 #@! TA.AperFunction,ComponentPad*
%ADD41O,1.700000X1.700000*%
G04 #@! TD*
G04 #@! TA.AperFunction,ViaPad*
%ADD42C,0.800000*%
G04 #@! TD*
G04 #@! TA.AperFunction,Conductor*
%ADD43C,0.250000*%
G04 #@! TD*
G04 APERTURE END LIST*
D10*
X243281822Y-107173812D03*
X242504005Y-106395995D03*
X241210000Y-107690000D03*
X241987817Y-108467817D03*
D11*
X184330000Y-107750000D03*
X184330000Y-108850000D03*
X186160000Y-108850000D03*
X186160000Y-107750000D03*
X236260000Y-103170000D03*
X236260000Y-104270000D03*
X238090000Y-104270000D03*
X238090000Y-103170000D03*
D12*
X221812183Y-103302183D03*
X222590000Y-104080000D03*
X223884005Y-102785995D03*
X223106188Y-102008178D03*
D13*
X200742346Y-102768880D03*
X200457645Y-101706361D03*
X198690000Y-102180000D03*
X198974701Y-103242519D03*
D11*
X215220000Y-108980000D03*
X215220000Y-107880000D03*
X213390000Y-107880000D03*
X213390000Y-108980000D03*
X192960000Y-98680000D03*
X192960000Y-99780000D03*
X194790000Y-99780000D03*
X194790000Y-98680000D03*
D14*
X240362355Y-103216361D03*
X240077654Y-104278880D03*
X241845299Y-104752519D03*
X242130000Y-103690000D03*
D11*
X244990000Y-101110000D03*
X246090000Y-101110000D03*
X246090000Y-99280000D03*
X244990000Y-99280000D03*
D12*
X233295995Y-100674005D03*
X234073812Y-101451822D03*
X235367817Y-100157817D03*
X234590000Y-99380000D03*
D11*
X197990000Y-109680000D03*
X196890000Y-109680000D03*
X196890000Y-111510000D03*
X197990000Y-111510000D03*
X244990000Y-104980001D03*
X246090000Y-104980001D03*
X246090000Y-103150001D03*
X244990000Y-103150001D03*
X240965000Y-98570000D03*
X240965000Y-99670000D03*
X242795000Y-99670000D03*
X242795000Y-98570000D03*
D15*
X204425174Y-107565000D03*
X204975174Y-108517628D03*
X206560000Y-107602628D03*
X206010000Y-106650000D03*
D11*
X188110000Y-107790000D03*
X188110000Y-108890000D03*
X189940000Y-108890000D03*
X189940000Y-107790000D03*
D10*
X257771822Y-107133812D03*
X256994005Y-106355995D03*
X255700000Y-107650000D03*
X256477817Y-108427817D03*
D11*
X239420000Y-108880000D03*
X239420000Y-107780000D03*
X237590000Y-107780000D03*
X237590000Y-108880000D03*
X227920000Y-108880000D03*
X227920000Y-107780000D03*
X226090000Y-107780000D03*
X226090000Y-108880000D03*
X236960000Y-98680000D03*
X236960000Y-99780000D03*
X238790000Y-99780000D03*
X238790000Y-98680000D03*
X208930078Y-103905892D03*
X210030078Y-103905892D03*
X210030078Y-102075892D03*
X208930078Y-102075892D03*
D16*
X256483812Y-102258178D03*
X255705995Y-103035995D03*
X257000000Y-104330000D03*
X257777817Y-103552183D03*
D11*
X206095000Y-120120000D03*
X206095000Y-119020000D03*
X204265000Y-119020000D03*
X204265000Y-120120000D03*
D17*
X249484005Y-108374005D03*
X250261822Y-107596188D03*
X248967817Y-106302183D03*
X248190000Y-107080000D03*
D18*
X205407413Y-103713814D03*
X205957413Y-102761186D03*
X204372587Y-101846186D03*
X203822587Y-102798814D03*
D11*
X206070000Y-117560000D03*
X206070000Y-116460000D03*
X204240000Y-116460000D03*
X204240000Y-117560000D03*
X198090000Y-104779999D03*
X196990000Y-104779999D03*
X196990000Y-106609999D03*
X198090000Y-106609999D03*
D17*
X222806188Y-108551822D03*
X223584005Y-107774005D03*
X222290000Y-106480000D03*
X221512183Y-107257817D03*
D19*
X193205299Y-105342519D03*
X193490000Y-104280000D03*
X191722355Y-103806361D03*
X191437654Y-104868880D03*
D11*
X231190000Y-104380000D03*
X230090000Y-104380000D03*
X230090000Y-106210000D03*
X231190000Y-106210000D03*
D17*
X210584005Y-108474005D03*
X211361822Y-107696188D03*
X210067817Y-106402183D03*
X209290000Y-107180000D03*
D11*
X244990000Y-108780000D03*
X246090000Y-108780000D03*
X246090000Y-106950000D03*
X244990000Y-106950000D03*
X252275000Y-101793109D03*
X252275000Y-102893109D03*
X254105000Y-102893109D03*
X254105000Y-101793109D03*
X231290001Y-99549999D03*
X230190001Y-99549999D03*
X230190001Y-101379999D03*
X231290001Y-101379999D03*
D17*
X235042183Y-108687817D03*
X235820000Y-107910000D03*
X234525995Y-106615995D03*
X233748178Y-107393812D03*
D11*
X202300000Y-107840000D03*
X202300000Y-108940000D03*
X200470000Y-108940000D03*
X200470000Y-107840000D03*
X206100000Y-122670000D03*
X206100000Y-121570000D03*
X204270000Y-121570000D03*
X204270000Y-122670000D03*
D20*
X192030362Y-107705896D03*
X192406584Y-108739558D03*
X194126222Y-108113662D03*
X193750000Y-107080000D03*
D21*
X184980000Y-101290000D03*
X185932628Y-101840000D03*
X186847628Y-100255174D03*
X185895000Y-99705174D03*
D11*
X188690000Y-98680000D03*
X188690000Y-99780000D03*
X190520000Y-99780000D03*
X190520000Y-98680000D03*
X253820000Y-108930000D03*
X253820000Y-107830000D03*
X251990000Y-107830000D03*
X251990000Y-108930000D03*
X226090000Y-101680000D03*
X226090000Y-102780000D03*
X227920000Y-102780000D03*
X227920000Y-101680000D03*
X233067813Y-105009998D03*
X234167813Y-105009998D03*
X234167813Y-103179998D03*
X233067813Y-103179998D03*
X219190000Y-102180000D03*
X218090000Y-102180000D03*
X218090000Y-104010000D03*
X219190000Y-104010000D03*
D12*
X248418178Y-103396188D03*
X249195995Y-104174005D03*
X250490000Y-102880000D03*
X249712183Y-102102183D03*
D10*
X219025911Y-106863812D03*
X218248094Y-106085995D03*
X216954089Y-107380000D03*
X217731906Y-108157817D03*
D22*
X187274140Y-103257766D03*
X187650362Y-102224104D03*
X189370000Y-102850000D03*
X188993778Y-103883662D03*
D23*
X228850000Y-102070000D03*
X228850000Y-101430000D03*
D24*
X255320000Y-108720000D03*
X255772548Y-109172548D03*
D23*
X255120000Y-101960000D03*
X255120000Y-101320000D03*
D25*
X236610000Y-108770000D03*
X236610000Y-109410000D03*
D23*
X191550000Y-98740000D03*
X191550000Y-98100000D03*
D26*
X258080000Y-104720000D03*
X258532548Y-104267452D03*
D23*
X203290000Y-108065000D03*
X203290000Y-107425000D03*
D25*
X225090000Y-108630000D03*
X225090000Y-109270000D03*
D26*
X208657449Y-106382545D03*
X209109997Y-105929997D03*
D27*
X221176274Y-106193726D03*
X220723726Y-106646274D03*
D28*
X219120000Y-105000000D03*
X219760000Y-105000000D03*
D29*
X245160000Y-102170000D03*
X244520000Y-102170000D03*
D30*
X206850000Y-106164256D03*
X206530000Y-105610000D03*
D24*
X240947678Y-108877678D03*
X241400226Y-109330226D03*
D31*
X203030000Y-102222872D03*
X202710000Y-102777128D03*
D32*
X187067128Y-99090000D03*
X186512872Y-98770000D03*
D33*
X235490226Y-98870226D03*
X235037678Y-98417678D03*
D27*
X247906274Y-105973726D03*
X247453726Y-106426274D03*
D28*
X197780000Y-112480000D03*
X198420000Y-112480000D03*
D33*
X250692548Y-101682548D03*
X250240000Y-101230000D03*
D23*
X239160000Y-103225000D03*
X239160000Y-102585000D03*
D29*
X244930000Y-105960000D03*
X244290000Y-105960000D03*
D34*
X186180018Y-103135238D03*
X185599982Y-102864762D03*
D23*
X203100000Y-123020000D03*
X203100000Y-122380000D03*
D35*
X198052822Y-103709096D03*
X197887178Y-103090904D03*
D25*
X195830000Y-98800000D03*
X195830000Y-99440000D03*
D23*
X203230000Y-120355000D03*
X203230000Y-119715000D03*
X190910001Y-107859998D03*
X190910001Y-107219998D03*
D28*
X231000000Y-102370000D03*
X231640000Y-102370000D03*
D23*
X203200000Y-117795000D03*
X203200000Y-117155000D03*
D24*
X216820000Y-108640000D03*
X217272548Y-109092548D03*
D33*
X224126274Y-101626274D03*
X223673726Y-101173726D03*
D29*
X233360000Y-102180000D03*
X232720000Y-102180000D03*
D23*
X212380000Y-109150000D03*
X212380000Y-108510000D03*
D36*
X242940000Y-104490000D03*
X243105644Y-103871808D03*
D27*
X233316274Y-106383726D03*
X232863726Y-106836274D03*
D23*
X187140000Y-107870000D03*
X187140000Y-107230000D03*
X239760000Y-98830000D03*
X239760000Y-98190000D03*
D37*
X190482822Y-104300904D03*
X190317178Y-104919096D03*
D28*
X230500000Y-107310000D03*
X231140000Y-107310000D03*
D29*
X245530000Y-98260000D03*
X244890000Y-98260000D03*
D38*
X194681449Y-106686508D03*
X194462557Y-106085104D03*
D29*
X209205000Y-101100000D03*
X208565000Y-101100000D03*
D25*
X250960000Y-108720000D03*
X250960000Y-109360000D03*
D23*
X243780000Y-99170000D03*
X243780000Y-98530000D03*
D28*
X197950000Y-107590000D03*
X198590000Y-107590000D03*
D39*
X258000000Y-97440000D03*
X258000000Y-111030000D03*
D40*
X196850000Y-125580000D03*
D41*
X199390000Y-125580000D03*
X196850000Y-123040000D03*
X199390000Y-123040000D03*
X196850000Y-120500000D03*
X199390000Y-120500000D03*
X196850000Y-117960000D03*
X199390000Y-117960000D03*
D42*
X202460000Y-109950000D03*
X179360000Y-124400000D03*
X209990000Y-100780000D03*
X237375000Y-102205000D03*
X188930000Y-105120000D03*
X216310000Y-109810000D03*
X195795444Y-98136371D03*
X190150000Y-106610000D03*
X251020000Y-100650000D03*
X205171786Y-119594421D03*
X212380000Y-109920000D03*
X186145000Y-106715000D03*
X208240000Y-107350000D03*
X242380000Y-97530000D03*
X249826396Y-109650000D03*
X220710000Y-108060000D03*
X193486604Y-100737598D03*
X224140000Y-109790000D03*
X192507157Y-97540048D03*
X245070000Y-85870000D03*
X199020000Y-108620000D03*
X245950000Y-97650000D03*
X205146242Y-117036209D03*
X258830000Y-106510000D03*
X245090000Y-87740000D03*
X220040000Y-106100000D03*
X243938650Y-103494892D03*
X245100000Y-86950000D03*
X245040000Y-84700000D03*
X245070000Y-83960000D03*
X204970000Y-104780000D03*
X196620000Y-112830000D03*
X244065000Y-108065000D03*
X233000000Y-108340000D03*
X231060000Y-108370000D03*
X202200000Y-106620000D03*
X229058259Y-100335283D03*
X224890000Y-100410000D03*
X235930000Y-97630000D03*
X247670000Y-108380000D03*
X253720000Y-100640000D03*
X237620000Y-109880000D03*
X195810000Y-107220000D03*
X240520000Y-109680000D03*
X255070000Y-109840000D03*
X240440000Y-97530000D03*
X200640000Y-103810000D03*
X191380000Y-106640000D03*
X240940000Y-106120000D03*
X183860927Y-102000500D03*
X210980000Y-104080000D03*
X256370000Y-109520000D03*
X203290498Y-116330000D03*
X236370000Y-105310000D03*
X184146810Y-106658008D03*
X189538942Y-97280500D03*
X243630000Y-97830000D03*
X207110000Y-102190000D03*
X217110000Y-105550000D03*
X195810000Y-108480000D03*
X203310000Y-106610000D03*
X224165000Y-106585000D03*
X199100000Y-105610000D03*
X177090000Y-85960000D03*
X232520000Y-99870000D03*
X189070000Y-109864500D03*
X211910000Y-106550000D03*
X199420000Y-100660000D03*
X187740000Y-106840000D03*
X244930000Y-90150000D03*
X183878781Y-79939772D03*
X222720000Y-101010000D03*
X237110000Y-100750000D03*
X239495000Y-106585000D03*
X240920000Y-100630000D03*
X198120000Y-124090000D03*
X211417283Y-109651335D03*
X245400000Y-89530000D03*
X232420000Y-107450000D03*
X193503767Y-97616034D03*
X223240000Y-104730000D03*
X205225000Y-109685000D03*
X228140000Y-100730000D03*
X250110000Y-105250000D03*
X180149531Y-93469531D03*
X255300000Y-100590000D03*
X217090000Y-102100000D03*
X251610000Y-109910000D03*
X245380000Y-91070000D03*
X251090000Y-106570000D03*
X252580000Y-103860000D03*
X242220000Y-109530000D03*
X225435000Y-109965000D03*
X243930000Y-101720000D03*
X228980000Y-104620000D03*
X247120000Y-102860000D03*
X258920000Y-103620000D03*
X198144146Y-113239149D03*
X229150000Y-99340000D03*
X225960000Y-103860000D03*
X220280000Y-107140000D03*
X192364500Y-100645686D03*
X253835000Y-106645000D03*
X239100000Y-97540000D03*
X200950000Y-100730000D03*
X255870000Y-105730000D03*
X215270000Y-106600000D03*
X193430000Y-109640000D03*
X187641994Y-82065514D03*
X235047391Y-105158278D03*
X243085000Y-102975000D03*
X185540000Y-119800000D03*
X206880000Y-116080000D03*
X238580000Y-102160000D03*
X235920000Y-109910000D03*
X203290000Y-103820000D03*
X181395528Y-84030016D03*
X191990000Y-106020000D03*
X183537277Y-108504225D03*
X247180000Y-107420000D03*
X227725000Y-106655000D03*
X239900000Y-105340000D03*
X234230000Y-98100000D03*
X247110000Y-101020000D03*
X249410000Y-101060000D03*
X196153841Y-103241559D03*
X263630000Y-89140000D03*
X244999509Y-88735398D03*
X255110000Y-88270000D03*
X217930000Y-109280000D03*
X204890000Y-105780000D03*
X187650704Y-101199848D03*
X192894352Y-87954057D03*
X232330000Y-98710000D03*
X242910000Y-100790000D03*
X236150000Y-102120000D03*
X247210000Y-98990000D03*
X250575000Y-104315000D03*
X244990000Y-109840000D03*
X205149449Y-115925951D03*
X251588059Y-103982714D03*
X252275000Y-100640000D03*
X220220000Y-102020000D03*
X227840000Y-103870000D03*
X211074108Y-102075892D03*
X201201364Y-106661610D03*
X185145956Y-106684726D03*
X195822701Y-109637299D03*
X188395500Y-92564500D03*
X245260000Y-82490000D03*
X245270000Y-81720000D03*
X191580000Y-82645500D03*
X193331980Y-84546692D03*
X178210000Y-87819760D03*
X186765032Y-81585991D03*
X179407839Y-92799532D03*
X181305497Y-96245497D03*
X192547422Y-83727981D03*
X188138354Y-85948067D03*
X186735903Y-87859413D03*
X190260000Y-91730000D03*
X194953267Y-97537299D03*
X184036407Y-96681399D03*
X186034500Y-92837328D03*
X185310000Y-91852518D03*
X183230456Y-96090258D03*
X185140000Y-96687118D03*
X183521262Y-89645500D03*
X193279500Y-82545022D03*
X188671875Y-85102869D03*
X252720000Y-87610000D03*
X253180000Y-88360000D03*
X252255001Y-88354999D03*
D43*
X203100000Y-123020000D02*
X203320000Y-123020000D01*
X203320000Y-123020000D02*
X203670000Y-122670000D01*
X203100000Y-122380000D02*
X202705000Y-121985000D01*
X202705000Y-121985000D02*
X202705000Y-120048959D01*
X202705000Y-120048959D02*
X203038959Y-119715000D01*
X203038959Y-119715000D02*
X203230000Y-119715000D01*
X204270000Y-122670000D02*
X203670000Y-122670000D01*
X203670000Y-122670000D02*
X203625000Y-122625000D01*
X203625000Y-122073959D02*
X203230000Y-121678959D01*
X203230000Y-121678959D02*
X203230000Y-120355000D01*
X203625000Y-122625000D02*
X203625000Y-122073959D01*
X206070000Y-117560000D02*
X205690000Y-117560000D01*
X205690000Y-117560000D02*
X205005000Y-118245000D01*
X205005000Y-118245000D02*
X204475000Y-118245000D01*
X204475000Y-118245000D02*
X204265000Y-118455000D01*
X204265000Y-118455000D02*
X204265000Y-119020000D01*
X202460000Y-109950000D02*
X202125000Y-109615000D01*
X202125000Y-109615000D02*
X201625000Y-109615000D01*
X201625000Y-109615000D02*
X201260000Y-109250000D01*
X200780000Y-109250000D02*
X200470000Y-108940000D01*
X201260000Y-109250000D02*
X200780000Y-109250000D01*
X198420000Y-112480000D02*
X198420000Y-112963295D01*
X198420000Y-112963295D02*
X198144146Y-113239149D01*
X199020000Y-108620000D02*
X198635000Y-109005000D01*
X198635000Y-109005000D02*
X198665000Y-109005000D01*
X198665000Y-109005000D02*
X198665000Y-110355000D01*
X197990000Y-110355000D02*
X197990000Y-111510000D01*
X198665000Y-110355000D02*
X197990000Y-110355000D01*
X199020000Y-108620000D02*
X198899645Y-108499645D01*
X197950000Y-107784645D02*
X197950000Y-107590000D01*
X198665000Y-108499645D02*
X197950000Y-107784645D01*
X198899645Y-108499645D02*
X198665000Y-108499645D01*
X199020000Y-108620000D02*
X199040000Y-108640000D01*
X195822701Y-109637299D02*
X195947299Y-109637299D01*
X195947299Y-109637299D02*
X196215000Y-109905000D01*
X196215000Y-109905000D02*
X196215000Y-110355000D01*
X196215000Y-110355000D02*
X196230000Y-110370000D01*
X196230000Y-110370000D02*
X196230000Y-110850000D01*
X196230000Y-110850000D02*
X196890000Y-111510000D01*
X195810000Y-108480000D02*
X195810000Y-108600000D01*
X195810000Y-108600000D02*
X196890000Y-109680000D01*
X196310000Y-106370000D02*
X196310000Y-104109999D01*
X196310000Y-106370000D02*
X196310000Y-106720000D01*
X196310000Y-106720000D02*
X195810000Y-107220000D01*
X195810000Y-107220000D02*
X195214941Y-107220000D01*
X195214941Y-107220000D02*
X194681449Y-106686508D01*
X196310000Y-104109999D02*
X196710903Y-103709096D01*
X196710903Y-103709096D02*
X198052822Y-103709096D01*
X197250000Y-112410000D02*
X197710000Y-112410000D01*
X197710000Y-112410000D02*
X197780000Y-112480000D01*
X196620000Y-112830000D02*
X196830000Y-112830000D01*
X196830000Y-112830000D02*
X197250000Y-112410000D01*
X254271891Y-101960000D02*
X254105000Y-101793109D01*
X188930000Y-105120000D02*
X189256880Y-105120000D01*
X256477817Y-108427817D02*
X256435659Y-108469975D01*
X237590000Y-109850000D02*
X237620000Y-109880000D01*
X242795000Y-98570000D02*
X242795000Y-97945000D01*
X220710000Y-108060000D02*
X220690000Y-108080000D01*
X191744645Y-98740000D02*
X191550000Y-98740000D01*
X224890000Y-100862548D02*
X224126274Y-101626274D01*
X190910001Y-107859998D02*
X190009998Y-107859998D01*
X186280000Y-107870000D02*
X186160000Y-107750000D01*
X190075976Y-104300904D02*
X189898440Y-104478440D01*
X206364256Y-106650000D02*
X206850000Y-106164256D01*
X188015000Y-98005000D02*
X189845000Y-98005000D01*
X240947678Y-108877678D02*
X240520000Y-109305356D01*
X216310000Y-109150000D02*
X216310000Y-109810000D01*
X189256880Y-105120000D02*
X189898440Y-104478440D01*
X231000000Y-101670000D02*
X231000000Y-102370000D01*
X233360000Y-102180000D02*
X233360000Y-102887811D01*
X244990000Y-103150001D02*
X244283541Y-103150001D01*
X256435659Y-108469975D02*
X255570025Y-108469975D01*
X233748178Y-107393812D02*
X233000000Y-108141990D01*
X226090000Y-108880000D02*
X225840000Y-108630000D01*
X238940000Y-98830000D02*
X238790000Y-98680000D01*
X235930000Y-97630000D02*
X235930000Y-97610000D01*
X193750000Y-107080000D02*
X194287957Y-107080000D01*
X195830000Y-98800000D02*
X194910000Y-98800000D01*
X206850000Y-106164256D02*
X207137685Y-105876571D01*
X235930000Y-98430452D02*
X235930000Y-97630000D01*
X221470025Y-107215659D02*
X221470025Y-106487477D01*
X239760000Y-98830000D02*
X239954645Y-98830000D01*
X212380000Y-109150000D02*
X213220000Y-109150000D01*
X186160000Y-107750000D02*
X186160000Y-106730000D01*
X244990000Y-106020000D02*
X244930000Y-105960000D01*
X226750000Y-100960000D02*
X227470000Y-101680000D01*
X255120000Y-101960000D02*
X254271891Y-101960000D01*
X243533545Y-104303301D02*
X243346846Y-104490000D01*
X244990000Y-106950000D02*
X244990000Y-106020000D01*
X188015000Y-98005000D02*
X187750000Y-98270000D01*
X219120000Y-105000000D02*
X219120000Y-104080000D01*
X192285000Y-98199645D02*
X191744645Y-98740000D01*
X255570025Y-108469975D02*
X255320000Y-108720000D01*
X239160000Y-103225000D02*
X238145000Y-103225000D01*
X248190000Y-107080000D02*
X248190000Y-107860000D01*
X244283541Y-103150001D02*
X243938650Y-103494892D01*
X186151218Y-99448956D02*
X185895000Y-99705174D01*
X237480000Y-108770000D02*
X237590000Y-108880000D01*
X240520000Y-109305356D02*
X240520000Y-109680000D01*
X233360000Y-102887811D02*
X233067813Y-103179998D01*
X245530000Y-98070000D02*
X245950000Y-97650000D01*
X250272913Y-102102183D02*
X250692548Y-101682548D01*
X235490226Y-98870226D02*
X235930000Y-98430452D01*
X242848913Y-104490000D02*
X242695364Y-104336451D01*
X209205000Y-101100000D02*
X209670000Y-101100000D01*
X219120000Y-105000000D02*
X219120000Y-105191041D01*
X243938650Y-103494892D02*
X243681166Y-103752376D01*
X255070000Y-108970000D02*
X255070000Y-109840000D01*
X232392813Y-105684998D02*
X232587815Y-105880000D01*
X224140000Y-109388959D02*
X224140000Y-109790000D01*
X258570000Y-105550000D02*
X258080000Y-105060000D01*
X239954645Y-98830000D02*
X240290000Y-98494645D01*
X212380000Y-109150000D02*
X212380000Y-109640000D01*
X255320000Y-108720000D02*
X255070000Y-108970000D01*
X231190000Y-106428959D02*
X230500000Y-107118959D01*
X194287957Y-107080000D02*
X194681449Y-106686508D01*
X233000000Y-108340000D02*
X233000000Y-108420000D01*
X192285000Y-97762205D02*
X192285000Y-98199645D01*
X190150000Y-106610000D02*
X189940000Y-106820000D01*
X195795444Y-98136371D02*
X195830000Y-98170927D01*
X203822587Y-102798814D02*
X203605942Y-102798814D01*
X202499483Y-102158463D02*
X202965591Y-102158463D01*
X216820000Y-108640000D02*
X216310000Y-109150000D01*
X245530000Y-98451041D02*
X245530000Y-98260000D01*
X231290001Y-101379999D02*
X231000000Y-101670000D01*
X250960000Y-108720000D02*
X250756396Y-108720000D01*
X251780000Y-108720000D02*
X251990000Y-108930000D01*
X251020000Y-101355096D02*
X251020000Y-100650000D01*
X209670000Y-101100000D02*
X209990000Y-100780000D01*
X250960000Y-108720000D02*
X251780000Y-108720000D01*
X232587815Y-105880000D02*
X232812548Y-105880000D01*
X220952856Y-105970308D02*
X220169692Y-105970308D01*
X208240000Y-106799994D02*
X208240000Y-107350000D01*
X249712183Y-102102183D02*
X250272913Y-102102183D01*
X190009998Y-107859998D02*
X189940000Y-107790000D01*
X255070000Y-109840000D02*
X255070000Y-109860000D01*
X219120000Y-104080000D02*
X219190000Y-104010000D01*
X197780000Y-111720000D02*
X197990000Y-111510000D01*
X241067886Y-108877678D02*
X241477747Y-108467817D01*
X243346846Y-104490000D02*
X242940000Y-104490000D01*
X187274140Y-103281428D02*
X188649973Y-104657261D01*
X187067128Y-98952872D02*
X188015000Y-98005000D01*
X224890000Y-100410000D02*
X224890000Y-100862548D01*
X228850000Y-102070000D02*
X228310000Y-102070000D01*
X241477747Y-108467817D02*
X241987817Y-108467817D01*
X229058259Y-100335283D02*
X230845285Y-100335283D01*
X221176274Y-106193726D02*
X220952856Y-105970308D01*
X189940000Y-106820000D02*
X189940000Y-107790000D01*
X242380000Y-97530000D02*
X242300000Y-97450000D01*
X227470000Y-101680000D02*
X227920000Y-101680000D01*
X190869678Y-104300904D02*
X190482822Y-104300904D01*
X204387451Y-117795000D02*
X203200000Y-117795000D01*
X232392813Y-103854998D02*
X232392813Y-105684998D01*
X230500000Y-107810000D02*
X231060000Y-108370000D01*
X243780000Y-99170000D02*
X243470000Y-99170000D01*
X258830000Y-106510000D02*
X258570000Y-106250000D01*
X209290000Y-107180000D02*
X209290000Y-107015096D01*
X187067128Y-99090000D02*
X187067128Y-98952872D01*
X190482822Y-104300904D02*
X190075976Y-104300904D01*
X189719619Y-104657261D02*
X189898440Y-104478440D01*
X204030000Y-120355000D02*
X203230000Y-120355000D01*
X244990000Y-103150001D02*
X245160000Y-102980001D01*
X205171786Y-119594421D02*
X204411207Y-120355000D01*
X202300000Y-106720000D02*
X202200000Y-106620000D01*
X202300000Y-107840000D02*
X202300000Y-106720000D01*
X245160000Y-102980001D02*
X245160000Y-102170000D01*
X200847946Y-103810000D02*
X202499483Y-102158463D01*
X233067813Y-103179998D02*
X232392813Y-103854998D01*
X233000000Y-108141990D02*
X233000000Y-108340000D01*
X195830000Y-98170927D02*
X195830000Y-98800000D01*
X244990000Y-106950000D02*
X244990000Y-107140000D01*
X198052822Y-103709096D02*
X198508124Y-103709096D01*
X205146242Y-117036209D02*
X204387451Y-117795000D01*
X254105000Y-101025000D02*
X253720000Y-100640000D01*
X197780000Y-112480000D02*
X197780000Y-111720000D01*
X242940000Y-104490000D02*
X242848913Y-104490000D01*
X248147842Y-107037842D02*
X248147842Y-106215294D01*
X224898959Y-108630000D02*
X224140000Y-109388959D01*
X186160000Y-106730000D02*
X186145000Y-106715000D01*
X245530000Y-98260000D02*
X245530000Y-98070000D01*
X243681166Y-103752376D02*
X243533545Y-104303301D01*
X207137685Y-105876571D02*
X207137685Y-105388503D01*
X230845285Y-100335283D02*
X231290001Y-100779999D01*
X209205000Y-101800970D02*
X209205000Y-101100000D01*
X232812548Y-105880000D02*
X233316274Y-106383726D01*
X203605942Y-102798814D02*
X203030000Y-102222872D01*
X258570000Y-106250000D02*
X258570000Y-105550000D01*
X250756396Y-108720000D02*
X249826396Y-109650000D01*
X248147842Y-106215294D02*
X247906274Y-105973726D01*
X238090000Y-102920000D02*
X237375000Y-102205000D01*
X206010000Y-106650000D02*
X206364256Y-106650000D01*
X223786528Y-101966020D02*
X224126274Y-101626274D01*
X231290001Y-100779999D02*
X231290001Y-101379999D01*
X187140000Y-107870000D02*
X186280000Y-107870000D01*
X248190000Y-107080000D02*
X248147842Y-107037842D01*
X248190000Y-107860000D02*
X247670000Y-108380000D01*
X213220000Y-109150000D02*
X213390000Y-108980000D01*
X228310000Y-102070000D02*
X227920000Y-101680000D01*
X187274140Y-103257766D02*
X187274140Y-103281428D01*
X234590000Y-99380000D02*
X234980452Y-99380000D01*
X186708172Y-99448956D02*
X186151218Y-99448956D01*
X258080000Y-105060000D02*
X258080000Y-104720000D01*
X233316274Y-106383726D02*
X233748178Y-106815630D01*
X258080000Y-104720000D02*
X257819975Y-104459975D01*
X224890000Y-100410000D02*
X225440000Y-100960000D01*
X208657449Y-106382545D02*
X208240000Y-106799994D01*
X229058259Y-100335283D02*
X229080000Y-100357024D01*
X204240000Y-117560000D02*
X204005000Y-117795000D01*
X217302183Y-108157817D02*
X216820000Y-108640000D01*
X189845000Y-98005000D02*
X190520000Y-98680000D01*
X231190000Y-106210000D02*
X231190000Y-106428959D01*
X187067128Y-99090000D02*
X186708172Y-99448956D01*
X237375000Y-102205000D02*
X237360000Y-102190000D01*
X212380000Y-109640000D02*
X212380000Y-109920000D01*
X257819975Y-104459975D02*
X257819975Y-103594341D01*
X257819975Y-103594341D02*
X257777817Y-103552183D01*
X240520000Y-109680000D02*
X240520000Y-109860000D01*
X186302546Y-103257766D02*
X186180018Y-103135238D01*
X242695364Y-104336451D02*
X242584597Y-104144597D01*
X225840000Y-108630000D02*
X225090000Y-108630000D01*
X223106188Y-102008178D02*
X223148346Y-101966020D01*
X191490000Y-98680000D02*
X191550000Y-98740000D01*
X244990000Y-99280000D02*
X244990000Y-98991041D01*
X243470000Y-99170000D02*
X242870000Y-98570000D01*
X192507157Y-97540048D02*
X192285000Y-97762205D01*
X202525000Y-108065000D02*
X202300000Y-107840000D01*
X204265000Y-120120000D02*
X204030000Y-120355000D01*
X219120000Y-105191041D02*
X220028959Y-106100000D01*
X230500000Y-107310000D02*
X230500000Y-107810000D01*
X204411207Y-120355000D02*
X203230000Y-120355000D01*
X220690000Y-108080000D02*
X220690000Y-108140000D01*
X203290000Y-108065000D02*
X202525000Y-108065000D01*
X229080000Y-100357024D02*
X229080000Y-100450000D01*
X242795000Y-97945000D02*
X242380000Y-97530000D01*
X238090000Y-103170000D02*
X238090000Y-102920000D01*
X224140000Y-109790000D02*
X224140000Y-109840000D01*
X186145000Y-106715000D02*
X186090000Y-106660000D01*
X249826396Y-109650000D02*
X249800000Y-109650000D01*
X209290000Y-107015096D02*
X208657449Y-106382545D01*
X187274140Y-103257766D02*
X186302546Y-103257766D01*
X230500000Y-107118959D02*
X230500000Y-107310000D01*
X221512183Y-107257817D02*
X220710000Y-108060000D01*
X244990000Y-107140000D02*
X244065000Y-108065000D01*
X208930078Y-102075892D02*
X209205000Y-101800970D01*
X197950000Y-107590000D02*
X197950000Y-106749999D01*
X188649973Y-104657261D02*
X189719619Y-104657261D01*
X240290000Y-97680000D02*
X240440000Y-97530000D01*
X234980452Y-99380000D02*
X235490226Y-98870226D01*
X221512183Y-107257817D02*
X221470025Y-107215659D01*
X237590000Y-108880000D02*
X237590000Y-109850000D01*
X223148346Y-101966020D02*
X223786528Y-101966020D01*
X221470025Y-106487477D02*
X221176274Y-106193726D01*
X200640000Y-103810000D02*
X200847946Y-103810000D01*
X204005000Y-117795000D02*
X203200000Y-117795000D01*
X240947678Y-108877678D02*
X241067886Y-108877678D01*
X202965591Y-102158463D02*
X203030000Y-102222872D01*
X250692548Y-101682548D02*
X251020000Y-101355096D01*
X220169692Y-105970308D02*
X220040000Y-106100000D01*
X198508124Y-103709096D02*
X198974701Y-103242519D01*
X191437654Y-104868880D02*
X190869678Y-104300904D01*
X244065000Y-108065000D02*
X244030000Y-108100000D01*
X244990000Y-98991041D02*
X245530000Y-98451041D01*
X190520000Y-98680000D02*
X191490000Y-98680000D01*
X225090000Y-108630000D02*
X224898959Y-108630000D01*
X206529182Y-104780000D02*
X204970000Y-104780000D01*
X220028959Y-106100000D02*
X220040000Y-106100000D01*
X236610000Y-108770000D02*
X237480000Y-108770000D01*
X242870000Y-98570000D02*
X242795000Y-98570000D01*
X194910000Y-98800000D02*
X194790000Y-98680000D01*
X239760000Y-98830000D02*
X238940000Y-98830000D01*
X254105000Y-101793109D02*
X254105000Y-101025000D01*
X242584597Y-104144597D02*
X242130000Y-103690000D01*
X225440000Y-100960000D02*
X226750000Y-100960000D01*
X238145000Y-103225000D02*
X238090000Y-103170000D01*
X197950000Y-106749999D02*
X198090000Y-106609999D01*
X233748178Y-106815630D02*
X233748178Y-107393812D01*
X217731906Y-108157817D02*
X217302183Y-108157817D01*
X207137685Y-105388503D02*
X206529182Y-104780000D01*
X240290000Y-98494645D02*
X240290000Y-97680000D01*
X212139002Y-108510000D02*
X212380000Y-108510000D01*
X225960000Y-103860000D02*
X225900000Y-103920000D01*
X246015000Y-104305001D02*
X246090000Y-104380001D01*
X227920000Y-107780000D02*
X227920000Y-106850000D01*
X253820000Y-106660000D02*
X253835000Y-106645000D01*
X232476020Y-99913980D02*
X232520000Y-99870000D01*
X208255078Y-102750892D02*
X208255078Y-101409922D01*
X255300000Y-100590000D02*
X255330000Y-100560000D01*
X208255078Y-103230892D02*
X209955078Y-103230892D01*
X219390000Y-102860000D02*
X218170000Y-102860000D01*
X191302437Y-100455000D02*
X189365000Y-100455000D01*
X247453726Y-106426274D02*
X247180000Y-106700000D01*
X250261822Y-107596188D02*
X251090000Y-106768010D01*
X236260000Y-105200000D02*
X236370000Y-105310000D01*
X197220001Y-105610000D02*
X199100000Y-105610000D01*
X225435000Y-109965000D02*
X225450000Y-109980000D01*
X209955078Y-103230892D02*
X210030078Y-103305892D01*
X250110000Y-105088010D02*
X249195995Y-104174005D01*
X185599982Y-102864762D02*
X185599982Y-102172646D01*
X205225000Y-109685000D02*
X205250000Y-109710000D01*
X206770000Y-119095000D02*
X206695000Y-119020000D01*
X217645995Y-106085995D02*
X217110000Y-105550000D01*
X255705995Y-103035995D02*
X255663837Y-102993837D01*
X244890000Y-98260000D02*
X244060000Y-98260000D01*
X239420000Y-107780000D02*
X239420000Y-106660000D01*
X243105644Y-102995644D02*
X243085000Y-102975000D01*
X185599982Y-102172646D02*
X185932628Y-101840000D01*
X203008959Y-117155000D02*
X203200000Y-117155000D01*
X185764336Y-98770000D02*
X186512872Y-98770000D01*
X220723726Y-106646274D02*
X220280000Y-107090000D01*
X189370000Y-102850000D02*
X189730000Y-103210000D01*
X183537277Y-108504225D02*
X183883052Y-108850000D01*
X203290498Y-116330000D02*
X203200000Y-116420498D01*
X196990000Y-104779999D02*
X196990000Y-105379999D01*
X258532548Y-104267452D02*
X258920000Y-103880000D01*
X192476016Y-103424254D02*
X192476016Y-103676016D01*
X203300000Y-119645000D02*
X203300000Y-118680000D01*
X226090000Y-103730000D02*
X225960000Y-103860000D01*
X234547678Y-98417678D02*
X234230000Y-98100000D01*
X229150000Y-99340000D02*
X229359999Y-99549999D01*
X189540000Y-97365000D02*
X189540000Y-97180000D01*
X244315000Y-104305001D02*
X246015000Y-104305001D01*
X255663837Y-102993837D02*
X255663837Y-101672796D01*
X198765000Y-107415000D02*
X198765000Y-105945000D01*
X232720000Y-101988959D02*
X232720000Y-102180000D01*
X230090000Y-104380000D02*
X229220000Y-104380000D01*
X244290000Y-104330001D02*
X244315000Y-104305001D01*
X229359999Y-99549999D02*
X230190001Y-99549999D01*
X209650892Y-102750892D02*
X208255078Y-102750892D01*
X190683993Y-105250987D02*
X191055547Y-105622541D01*
X223240000Y-104730000D02*
X223280000Y-104730000D01*
X250240000Y-101230000D02*
X249580000Y-101230000D01*
X190400000Y-97870000D02*
X190085000Y-97555000D01*
X200950000Y-101214006D02*
X200950000Y-100730000D01*
X256022548Y-109172548D02*
X256370000Y-109520000D01*
X223673726Y-101173726D02*
X222883726Y-101173726D01*
X203230000Y-119715000D02*
X203300000Y-119645000D01*
X253820000Y-107830000D02*
X253820000Y-106660000D01*
X191055547Y-105622541D02*
X191612541Y-105622541D01*
X192476016Y-103676016D02*
X193080000Y-104280000D01*
X234031654Y-101493980D02*
X233214979Y-101493980D01*
X236960000Y-100600000D02*
X237110000Y-100750000D01*
X223584005Y-107165995D02*
X224165000Y-106585000D01*
X239160000Y-102585000D02*
X239005000Y-102585000D01*
X206708803Y-116460000D02*
X206070000Y-116460000D01*
X198765000Y-105945000D02*
X199100000Y-105610000D01*
X255311041Y-101320000D02*
X255120000Y-101320000D01*
X192364500Y-100645686D02*
X192960000Y-100050186D01*
X190317178Y-104919096D02*
X190683993Y-104919096D01*
X225090000Y-109620000D02*
X225435000Y-109965000D01*
X228140000Y-100730000D02*
X228110000Y-100730000D01*
X211520000Y-109548618D02*
X211520000Y-109129002D01*
X210805892Y-103905892D02*
X210980000Y-104080000D01*
X188810000Y-108440000D02*
X188810000Y-107140000D01*
X236067488Y-108157488D02*
X236067488Y-109058529D01*
X224165000Y-106585000D02*
X224180000Y-106570000D01*
X236370000Y-105310000D02*
X236410000Y-105350000D01*
X220280000Y-107090000D02*
X220280000Y-107140000D01*
X225090000Y-109270000D02*
X225090000Y-109620000D01*
X251570000Y-109870000D02*
X251460000Y-109870000D01*
X229220000Y-104380000D02*
X228980000Y-104620000D01*
X206100000Y-121570000D02*
X206770000Y-120900000D01*
X258920000Y-103880000D02*
X258920000Y-103620000D01*
X219760000Y-105000000D02*
X219865000Y-104895000D01*
X206770000Y-120900000D02*
X206770000Y-119095000D01*
X184176891Y-101552729D02*
X184176891Y-100973109D01*
X222590000Y-104080000D02*
X223240000Y-104730000D01*
X211417283Y-109651335D02*
X211520000Y-109548618D01*
X235820000Y-107910000D02*
X236067488Y-108157488D01*
X240920000Y-100630000D02*
X240830000Y-100720000D01*
X217090000Y-102100000D02*
X217170000Y-102180000D01*
X217170000Y-102180000D02*
X218090000Y-102180000D01*
X185000000Y-99534336D02*
X185764336Y-98770000D01*
X218090000Y-102780000D02*
X218090000Y-102180000D01*
X243780000Y-97980000D02*
X243630000Y-97830000D01*
X185599982Y-102864762D02*
X185488924Y-102864762D01*
X236960000Y-99780000D02*
X236960000Y-100600000D01*
X252275000Y-102893109D02*
X252275000Y-103555000D01*
X235037678Y-98417678D02*
X234547678Y-98417678D01*
X188785000Y-107115000D02*
X187255000Y-107115000D01*
X236067488Y-109058529D02*
X236418959Y-109410000D01*
X195830000Y-100090000D02*
X195465000Y-100455000D01*
X247180000Y-106700000D02*
X247180000Y-107420000D01*
X202983959Y-118410000D02*
X202675000Y-118101041D01*
X255663837Y-101672796D02*
X255311041Y-101320000D01*
X208255078Y-105075078D02*
X208255078Y-103230892D01*
X252275000Y-103555000D02*
X252580000Y-103860000D01*
X194462557Y-106085104D02*
X194462557Y-105252557D01*
X206530000Y-105610000D02*
X205060000Y-105610000D01*
X190683993Y-104919096D02*
X190683993Y-105250987D01*
X190085000Y-97555000D02*
X189730000Y-97555000D01*
X228150000Y-100730000D02*
X228140000Y-100730000D01*
X185488924Y-102864762D02*
X184176891Y-101552729D01*
X184176891Y-100973109D02*
X185000000Y-100150000D01*
X255120000Y-100770000D02*
X255300000Y-100590000D01*
X246090000Y-104320000D02*
X247120000Y-103290000D01*
X210030078Y-103905892D02*
X210805892Y-103905892D01*
X240077654Y-105162346D02*
X239900000Y-105340000D01*
X236610000Y-109410000D02*
X236420000Y-109410000D01*
X200457645Y-101706361D02*
X200950000Y-101214006D01*
X232863726Y-107006274D02*
X232420000Y-107450000D01*
X191380000Y-106640000D02*
X190910001Y-107109999D01*
X203300000Y-118680000D02*
X203030000Y-118410000D01*
X210030078Y-103305892D02*
X210030078Y-103905892D01*
X247120000Y-103290000D02*
X247120000Y-102860000D01*
X251090000Y-106768010D02*
X251090000Y-106570000D01*
X222883726Y-101173726D02*
X222720000Y-101010000D01*
X244060000Y-98260000D02*
X243630000Y-97830000D01*
X232863726Y-106836274D02*
X232863726Y-107006274D01*
X209109997Y-105929997D02*
X208255078Y-105075078D01*
X208255078Y-101409922D02*
X208565000Y-101100000D01*
X246090000Y-101110000D02*
X247020000Y-101110000D01*
X239900000Y-105340000D02*
X239890000Y-105350000D01*
X189730000Y-97555000D02*
X189540000Y-97365000D01*
X250110000Y-105250000D02*
X250110000Y-105088010D01*
X228850000Y-101430000D02*
X228150000Y-100730000D01*
X198307893Y-101426339D02*
X200177623Y-101426339D01*
X218170000Y-102860000D02*
X218090000Y-102780000D01*
X187740000Y-106840000D02*
X187530000Y-106840000D01*
X235047391Y-105158278D02*
X234899111Y-105009998D01*
X191550000Y-98100000D02*
X191320000Y-97870000D01*
X197887178Y-101937178D02*
X197887178Y-101847054D01*
X204975174Y-109435174D02*
X205225000Y-109685000D01*
X206538814Y-102761186D02*
X207110000Y-102190000D01*
X200177623Y-101426339D02*
X200457645Y-101706361D01*
X240077654Y-104278880D02*
X240077654Y-105162346D01*
X206500000Y-116460000D02*
X206880000Y-116080000D01*
X202710000Y-102777128D02*
X202710000Y-103240000D01*
X226090000Y-102780000D02*
X226090000Y-103730000D01*
X191990000Y-106020000D02*
X191990000Y-106100000D01*
X223584005Y-107774005D02*
X223584005Y-107165995D01*
X192550000Y-100190000D02*
X191567437Y-100190000D01*
X188810000Y-107140000D02*
X188785000Y-107115000D01*
X188360000Y-108890000D02*
X188810000Y-108440000D01*
X244520000Y-102170000D02*
X244380000Y-102170000D01*
X236418959Y-109410000D02*
X236610000Y-109410000D01*
X253835000Y-106645000D02*
X253870000Y-106610000D01*
X239110000Y-97540000D02*
X239100000Y-97540000D01*
X236260000Y-104270000D02*
X236260000Y-105200000D01*
X232530000Y-102370000D02*
X232720000Y-102180000D01*
X246090000Y-108780000D02*
X246090000Y-108510000D01*
X227920000Y-106850000D02*
X227725000Y-106655000D01*
X183860927Y-101868693D02*
X184176891Y-101552729D01*
X192104462Y-103052700D02*
X192476016Y-103424254D01*
X187530000Y-106840000D02*
X187140000Y-107230000D01*
X197887178Y-101847054D02*
X198307893Y-101426339D01*
X246090000Y-104380001D02*
X246090000Y-104980001D01*
X189730000Y-103210000D02*
X191110000Y-103210000D01*
X218248094Y-106085995D02*
X217645995Y-106085995D01*
X249580000Y-101230000D02*
X249410000Y-101060000D01*
X246090000Y-104980001D02*
X246090000Y-104320000D01*
X185000000Y-100150000D02*
X185000000Y-99534336D01*
X187255000Y-107115000D02*
X187140000Y-107230000D01*
X210980000Y-104080000D02*
X209650892Y-102750892D01*
X199100000Y-105610000D02*
X199160000Y-105610000D01*
X233214979Y-101493980D02*
X232720000Y-101988959D01*
X251610000Y-109910000D02*
X251570000Y-109870000D01*
X206070000Y-116460000D02*
X206500000Y-116460000D01*
X234899111Y-105009998D02*
X234167813Y-105009998D01*
X192960000Y-100050186D02*
X192960000Y-99780000D01*
X251510000Y-109910000D02*
X251610000Y-109910000D01*
X243930000Y-101720000D02*
X243910000Y-101700000D01*
X191320000Y-97870000D02*
X190400000Y-97870000D01*
X244380000Y-102170000D02*
X243930000Y-101720000D01*
X195465000Y-100455000D02*
X194228604Y-100455000D01*
X246090000Y-108510000D02*
X247180000Y-107420000D01*
X206770000Y-116521197D02*
X206708803Y-116460000D01*
X215220000Y-107880000D02*
X215220000Y-106650000D01*
X191110000Y-103210000D02*
X191267300Y-103052700D01*
X195830000Y-99440000D02*
X195830000Y-100090000D01*
X234073812Y-101451822D02*
X234031654Y-101493980D01*
X217742548Y-109092548D02*
X217930000Y-109280000D01*
X205060000Y-105610000D02*
X204890000Y-105780000D01*
X189365000Y-100455000D02*
X188690000Y-99780000D01*
X219865000Y-104895000D02*
X219865000Y-103335000D01*
X206695000Y-119020000D02*
X206095000Y-119020000D01*
X232420000Y-107450000D02*
X231280000Y-107450000D01*
X255772548Y-109172548D02*
X256022548Y-109172548D01*
X242020226Y-109330226D02*
X242220000Y-109530000D01*
X241400226Y-109330226D02*
X242020226Y-109330226D01*
X202710000Y-103240000D02*
X203290000Y-103820000D01*
X255120000Y-101320000D02*
X255120000Y-100770000D01*
X193490000Y-104280000D02*
X193127653Y-104280000D01*
X192960000Y-99780000D02*
X192550000Y-100190000D01*
X256994005Y-106355995D02*
X256495995Y-106355995D01*
X247020000Y-101110000D02*
X247110000Y-101020000D01*
X183883052Y-108850000D02*
X184330000Y-108850000D01*
X243780000Y-98530000D02*
X243780000Y-97980000D01*
X204975174Y-108517628D02*
X204975174Y-109435174D01*
X219865000Y-103335000D02*
X219390000Y-102860000D01*
X217272548Y-109092548D02*
X217742548Y-109092548D01*
X197887178Y-103090904D02*
X197887178Y-101937178D01*
X243085000Y-102975000D02*
X242980000Y-102870000D01*
X206770000Y-119095000D02*
X206770000Y-116521197D01*
X227725000Y-106655000D02*
X227710000Y-106640000D01*
X190910001Y-107109999D02*
X190910001Y-107219998D01*
X232720000Y-102180000D02*
X232476020Y-101936020D01*
X232476020Y-101936020D02*
X232476020Y-99913980D01*
X211520000Y-109129002D02*
X212139002Y-108510000D01*
X194462557Y-105252557D02*
X193490000Y-104280000D01*
X231280000Y-107450000D02*
X231140000Y-107310000D01*
X243105644Y-103871808D02*
X243105644Y-102995644D01*
X191267300Y-103052700D02*
X192104462Y-103052700D01*
X203290000Y-106630000D02*
X203310000Y-106610000D01*
X236420000Y-109410000D02*
X235920000Y-109910000D01*
X188110000Y-108890000D02*
X188360000Y-108890000D01*
X239495000Y-106585000D02*
X239520000Y-106560000D01*
X196990000Y-105379999D02*
X197220001Y-105610000D01*
X239420000Y-106660000D02*
X239495000Y-106585000D01*
X203290000Y-107425000D02*
X203290000Y-106630000D01*
X203030000Y-118410000D02*
X202983959Y-118410000D01*
X240965000Y-99670000D02*
X240965000Y-100585000D01*
X193127653Y-104280000D02*
X191990000Y-105417653D01*
X191990000Y-106000000D02*
X191990000Y-106020000D01*
X240965000Y-100585000D02*
X240920000Y-100630000D01*
X193110000Y-99930000D02*
X192960000Y-99780000D01*
X205957413Y-102761186D02*
X206538814Y-102761186D01*
X183860927Y-102000500D02*
X183860927Y-101868693D01*
X191567437Y-100190000D02*
X191302437Y-100455000D01*
X191612541Y-105622541D02*
X191990000Y-106000000D01*
X244290000Y-105960000D02*
X244290000Y-104330001D01*
X211361822Y-107696188D02*
X211361822Y-107098178D01*
X194228604Y-100455000D02*
X193703604Y-99930000D01*
X198590000Y-107590000D02*
X198765000Y-107415000D01*
X239005000Y-102585000D02*
X238580000Y-102160000D01*
X193703604Y-99930000D02*
X193110000Y-99930000D01*
X192406584Y-108739558D02*
X193307026Y-109640000D01*
X215220000Y-106650000D02*
X215270000Y-106600000D01*
X193080000Y-104280000D02*
X193490000Y-104280000D01*
X242504005Y-106395995D02*
X241215995Y-106395995D01*
X193307026Y-109640000D02*
X193430000Y-109640000D01*
X239760000Y-98190000D02*
X239110000Y-97540000D01*
X202675000Y-118101041D02*
X202675000Y-117488959D01*
X203200000Y-116420498D02*
X203200000Y-117155000D01*
X211361822Y-107098178D02*
X211910000Y-106550000D01*
X231640000Y-102370000D02*
X232530000Y-102370000D01*
X256495995Y-106355995D02*
X255870000Y-105730000D01*
X241215995Y-106395995D02*
X240940000Y-106120000D01*
X250960000Y-109360000D02*
X251510000Y-109910000D01*
X191990000Y-105417653D02*
X191990000Y-106020000D01*
X202675000Y-117488959D02*
X203008959Y-117155000D01*
X228020000Y-108880000D02*
X227920000Y-108880000D01*
X230090000Y-106210000D02*
X230090000Y-106810000D01*
X230090000Y-106810000D02*
X228020000Y-108880000D01*
X226090000Y-107780000D02*
X224532606Y-107780000D01*
X223718626Y-108593980D02*
X222848346Y-108593980D01*
X222848346Y-108593980D02*
X222806188Y-108551822D01*
X224532606Y-107780000D02*
X223718626Y-108593980D01*
X231190000Y-104380000D02*
X231190000Y-104020000D01*
X231190000Y-104020000D02*
X230190001Y-103020001D01*
X230190001Y-103020001D02*
X230190001Y-101379999D01*
X242795000Y-99670000D02*
X242795000Y-100675000D01*
X231490001Y-99549999D02*
X232330000Y-98710000D01*
X242795000Y-100675000D02*
X242910000Y-100790000D01*
X231290001Y-99549999D02*
X231490001Y-99549999D01*
X240965000Y-98570000D02*
X240851041Y-98570000D01*
X239641041Y-99780000D02*
X238790000Y-99780000D01*
X240851041Y-98570000D02*
X239641041Y-99780000D01*
X236845634Y-98680000D02*
X235367817Y-100157817D01*
X236960000Y-98680000D02*
X236845634Y-98680000D01*
X234167813Y-103179998D02*
X234893787Y-102454024D01*
X233990000Y-100380000D02*
X233590000Y-100380000D01*
X233590000Y-100380000D02*
X233295995Y-100674005D01*
X234893787Y-102454024D02*
X234893787Y-101283787D01*
X234893787Y-101283787D02*
X233990000Y-100380000D01*
X233067813Y-105157813D02*
X234525995Y-106615995D01*
X233067813Y-105009998D02*
X233067813Y-105157813D01*
X235042183Y-108687817D02*
X234794695Y-108440329D01*
X235685379Y-107090025D02*
X236900025Y-107090025D01*
X234794695Y-107980709D02*
X235685379Y-107090025D01*
X236900025Y-107090025D02*
X237590000Y-107780000D01*
X234794695Y-108440329D02*
X234794695Y-107980709D01*
X239420000Y-108880000D02*
X240020000Y-108880000D01*
X240020000Y-108880000D02*
X241210000Y-107690000D01*
X243529310Y-106436530D02*
X241845299Y-104752519D01*
X243529310Y-106926324D02*
X243529310Y-106436530D01*
X243281822Y-107173812D02*
X243529310Y-106926324D01*
X240004405Y-103216361D02*
X238950766Y-104270000D01*
X240362355Y-103216361D02*
X240004405Y-103216361D01*
X238950766Y-104270000D02*
X238090000Y-104270000D01*
X246920000Y-99280000D02*
X247210000Y-98990000D01*
X246090000Y-99280000D02*
X246920000Y-99280000D01*
X236260000Y-103170000D02*
X236260000Y-102230000D01*
X236260000Y-102230000D02*
X236150000Y-102120000D01*
X246090000Y-102268959D02*
X244990000Y-101168959D01*
X244990000Y-101168959D02*
X244990000Y-101110000D01*
X246090000Y-103150001D02*
X246090000Y-102268959D01*
X246090000Y-106288959D02*
X246090000Y-106950000D01*
X244990000Y-105188959D02*
X246090000Y-106288959D01*
X244990000Y-104980001D02*
X244990000Y-105188959D01*
X250490000Y-104230000D02*
X250575000Y-104315000D01*
X250490000Y-102880000D02*
X250490000Y-104230000D01*
X250575000Y-104315000D02*
X250610000Y-104350000D01*
X244990000Y-108780000D02*
X244990000Y-109840000D01*
X248170690Y-103643676D02*
X248170690Y-105230690D01*
X248418178Y-103396188D02*
X248170690Y-103643676D01*
X248967817Y-106027817D02*
X248967817Y-106302183D01*
X248170690Y-105230690D02*
X248967817Y-106027817D01*
X251010000Y-107830000D02*
X251990000Y-107830000D01*
X249731493Y-108621493D02*
X250218507Y-108621493D01*
X249484005Y-108374005D02*
X249731493Y-108621493D01*
X250218507Y-108621493D02*
X251010000Y-107830000D01*
X254880000Y-107360000D02*
X255410000Y-107360000D01*
X255410000Y-107360000D02*
X255700000Y-107650000D01*
X253820000Y-108930000D02*
X254070000Y-108930000D01*
X254520000Y-108480000D02*
X254520000Y-107720000D01*
X254070000Y-108930000D02*
X254520000Y-108480000D01*
X254520000Y-107720000D02*
X254880000Y-107360000D01*
X257771822Y-107133812D02*
X258019310Y-106886324D01*
X258019310Y-106886324D02*
X258019310Y-105669310D01*
X257000000Y-104650000D02*
X257000000Y-104330000D01*
X258019310Y-105669310D02*
X257000000Y-104650000D01*
X256731300Y-102965286D02*
X255840616Y-103855970D01*
X255840616Y-103855970D02*
X255067861Y-103855970D01*
X256731300Y-102505666D02*
X256731300Y-102965286D01*
X255067861Y-103855970D02*
X254105000Y-102893109D01*
X256483812Y-102258178D02*
X256731300Y-102505666D01*
X252275000Y-100640000D02*
X252275000Y-100385000D01*
X205149449Y-115925951D02*
X204615400Y-116460000D01*
X251588059Y-103982714D02*
X251588059Y-101880050D01*
X252275000Y-100385000D02*
X252280000Y-100380000D01*
X251675000Y-101793109D02*
X252275000Y-101793109D01*
X251588059Y-101880050D02*
X251675000Y-101793109D01*
X252275000Y-101793109D02*
X252275000Y-100640000D01*
X204615400Y-116460000D02*
X204240000Y-116460000D01*
X251407286Y-103982714D02*
X251280000Y-104110000D01*
X251588059Y-103982714D02*
X251407286Y-103982714D01*
X205671512Y-120120000D02*
X206095000Y-120120000D01*
X205472091Y-120319421D02*
X205671512Y-120120000D01*
X205360579Y-120319421D02*
X205472091Y-120319421D01*
X204270000Y-121570000D02*
X204270000Y-121410000D01*
X204270000Y-121410000D02*
X205360579Y-120319421D01*
X186991041Y-108850000D02*
X186160000Y-108850000D01*
X188110000Y-107790000D02*
X188051041Y-107790000D01*
X188051041Y-107790000D02*
X186991041Y-108850000D01*
X190871041Y-108890000D02*
X189940000Y-108890000D01*
X192030362Y-107730679D02*
X190871041Y-108890000D01*
X192030362Y-107705896D02*
X192030362Y-107730679D01*
X192960000Y-98680000D02*
X192441041Y-98680000D01*
X191341041Y-99780000D02*
X190520000Y-99780000D01*
X192441041Y-98680000D02*
X191341041Y-99780000D01*
X221270000Y-105430000D02*
X221270000Y-103844366D01*
X222290000Y-106480000D02*
X222042512Y-106232512D01*
X222042512Y-106232512D02*
X222042512Y-106202512D01*
X221270000Y-103844366D02*
X221812183Y-103302183D01*
X222042512Y-106202512D02*
X221270000Y-105430000D01*
X223884005Y-102785995D02*
X224990000Y-101680000D01*
X224990000Y-101680000D02*
X226090000Y-101680000D01*
X227920000Y-103790000D02*
X227840000Y-103870000D01*
X220060000Y-102180000D02*
X220220000Y-102020000D01*
X219190000Y-102180000D02*
X220060000Y-102180000D01*
X227920000Y-102780000D02*
X227920000Y-103790000D01*
X218090000Y-104973305D02*
X218090000Y-104010000D01*
X219273399Y-106616324D02*
X219273399Y-106156704D01*
X219025911Y-106863812D02*
X219273399Y-106616324D01*
X219273399Y-106156704D02*
X218090000Y-104973305D01*
X215354089Y-108980000D02*
X215220000Y-108980000D01*
X216954089Y-107380000D02*
X215354089Y-108980000D01*
X211496443Y-108516163D02*
X210626163Y-108516163D01*
X212132606Y-107880000D02*
X211496443Y-108516163D01*
X210626163Y-108516163D02*
X210584005Y-108474005D01*
X213390000Y-107880000D02*
X212132606Y-107880000D01*
X210067817Y-105293631D02*
X208930078Y-104155892D01*
X208930078Y-104155892D02*
X208930078Y-103905892D01*
X210067817Y-106402183D02*
X210067817Y-105293631D01*
X200470000Y-107392974D02*
X200470000Y-107840000D01*
X211074108Y-102075892D02*
X211120000Y-102030000D01*
X201201364Y-106661610D02*
X200470000Y-107392974D01*
X210030078Y-102075892D02*
X211074108Y-102075892D01*
X204425174Y-107565000D02*
X204425174Y-107760867D01*
X203246041Y-108940000D02*
X202300000Y-108940000D01*
X204425174Y-107760867D02*
X203246041Y-108940000D01*
X206143814Y-103713814D02*
X205407413Y-103713814D01*
X207700000Y-105270000D02*
X206143814Y-103713814D01*
X206560000Y-107602628D02*
X207700000Y-106462628D01*
X207700000Y-106462628D02*
X207700000Y-105270000D01*
X201921258Y-101589968D02*
X200742346Y-102768880D01*
X204116369Y-101589968D02*
X201921258Y-101589968D01*
X204372587Y-101846186D02*
X204116369Y-101589968D01*
X198090000Y-104779999D02*
X198572989Y-104779999D01*
X198572989Y-104779999D02*
X199728362Y-103624626D01*
X199728362Y-102856015D02*
X199052347Y-102180000D01*
X199052347Y-102180000D02*
X198690000Y-102180000D01*
X199728362Y-103624626D02*
X199728362Y-102856015D01*
X196990000Y-106609999D02*
X196990000Y-107461041D01*
X196990000Y-107461041D02*
X197990000Y-108461041D01*
X197990000Y-108461041D02*
X197990000Y-109680000D01*
X185145956Y-106684726D02*
X184330000Y-107500682D01*
X184330000Y-107500682D02*
X184330000Y-107750000D01*
X194126222Y-108113662D02*
X193666258Y-108113662D01*
X193666258Y-108113662D02*
X192976401Y-107423805D01*
X193310000Y-106402596D02*
X193310000Y-105447220D01*
X192976401Y-107423805D02*
X192976401Y-106736195D01*
X192976401Y-106736195D02*
X193310000Y-106402596D01*
X193310000Y-105447220D02*
X193205299Y-105342519D01*
X188315061Y-85771360D02*
X188371570Y-85827869D01*
X188371570Y-85827869D02*
X190447534Y-85827869D01*
X190447534Y-85827869D02*
X192547422Y-83727981D01*
X188138354Y-85948067D02*
X188315061Y-85771360D01*
X188550000Y-89673510D02*
X188550000Y-89680000D01*
X188550000Y-89680000D02*
X190260000Y-91390000D01*
X190260000Y-91390000D02*
X190260000Y-91730000D01*
X186735903Y-87859413D02*
X188550000Y-89673510D01*
X194485566Y-98005000D02*
X194115000Y-98005000D01*
X194953267Y-97537299D02*
X194485566Y-98005000D01*
X194190000Y-99780000D02*
X194790000Y-99780000D01*
X194115000Y-98005000D02*
X194115000Y-99705000D01*
X194115000Y-99705000D02*
X194190000Y-99780000D01*
X184036407Y-96681399D02*
X184036407Y-95980502D01*
X184036407Y-95980502D02*
X186034500Y-93982409D01*
X186034500Y-93982409D02*
X186034500Y-92837328D01*
X184300000Y-95020714D02*
X184300000Y-92862518D01*
X183230456Y-96090258D02*
X184300000Y-95020714D01*
X184300000Y-92862518D02*
X185310000Y-91852518D01*
X186759500Y-95067618D02*
X185140000Y-96687118D01*
X185497827Y-91127518D02*
X185610305Y-91127518D01*
X183521262Y-89645500D02*
X184015809Y-89645500D01*
X186759500Y-92276713D02*
X186759500Y-95067618D01*
X184015809Y-89645500D02*
X185497827Y-91127518D01*
X185610305Y-91127518D02*
X186759500Y-92276713D01*
X190536137Y-85102869D02*
X188671875Y-85102869D01*
X193279500Y-82545022D02*
X192705076Y-82545022D01*
X191822422Y-83816584D02*
X190536137Y-85102869D01*
X191822422Y-83427676D02*
X191822422Y-83816584D01*
X192705076Y-82545022D02*
X191822422Y-83427676D01*
X189184069Y-103693371D02*
X191609365Y-103693371D01*
X188993778Y-103883662D02*
X189184069Y-103693371D01*
X191609365Y-103693371D02*
X191722355Y-103806361D01*
X185669899Y-101036891D02*
X186195357Y-101036891D01*
X186548466Y-101390000D02*
X186816258Y-101390000D01*
X186816258Y-101390000D02*
X187650362Y-102224104D01*
X185416790Y-101290000D02*
X185669899Y-101036891D01*
X184980000Y-101290000D02*
X185416790Y-101290000D01*
X186195357Y-101036891D02*
X186548466Y-101390000D01*
X188015000Y-100105000D02*
X187864826Y-100255174D01*
X188440000Y-98680000D02*
X188015000Y-99105000D01*
X187864826Y-100255174D02*
X186847628Y-100255174D01*
X188015000Y-99105000D02*
X188015000Y-100105000D01*
X188690000Y-98680000D02*
X188440000Y-98680000D01*
M02*
