%TF.GenerationSoftware,KiCad,Pcbnew,(5.1.6-0-10_14)*%
%TF.CreationDate,2021-08-24T22:52:38-05:00*%
%TF.ProjectId,led_lights,6c65645f-6c69-4676-9874-732e6b696361,rev?*%
%TF.SameCoordinates,Original*%
%TF.FileFunction,Legend,Top*%
%TF.FilePolarity,Positive*%
%FSLAX46Y46*%
G04 Gerber Fmt 4.6, Leading zero omitted, Abs format (unit mm)*
G04 Created by KiCad (PCBNEW (5.1.6-0-10_14)) date 2021-08-24 22:52:38*
%MOMM*%
%LPD*%
G01*
G04 APERTURE LIST*
%ADD10C,0.120000*%
%ADD11C,0.150000*%
G04 APERTURE END LIST*
D10*
%TO.C,J12*%
X215436955Y126353949D02*
X214496503Y125413497D01*
X214496503Y127294401D02*
X215436955Y126353949D01*
X213598477Y128192427D02*
X211717573Y126311523D01*
X211717573Y126311523D02*
X208083045Y129946051D01*
X213598477Y128192427D02*
X209963949Y131826955D01*
X209963949Y131826955D02*
X208083045Y129946051D01*
%TO.C,J11*%
X190186000Y136712000D02*
X190186000Y134052000D01*
X195326000Y136712000D02*
X190186000Y136712000D01*
X195326000Y134052000D02*
X190186000Y134052000D01*
X195326000Y136712000D02*
X195326000Y134052000D01*
X196596000Y136712000D02*
X197926000Y136712000D01*
X197926000Y136712000D02*
X197926000Y135382000D01*
%TO.C,J10*%
X172834994Y126455898D02*
X174715898Y124574994D01*
X176469522Y130090426D02*
X172834994Y126455898D01*
X178350426Y128209522D02*
X174715898Y124574994D01*
X176469522Y130090426D02*
X178350426Y128209522D01*
X177367548Y130988452D02*
X178308000Y131928904D01*
X178308000Y131928904D02*
X179248452Y130988452D01*
%TO.C,J7*%
X167676000Y114200000D02*
X169006000Y114200000D01*
X167676000Y112870000D02*
X167676000Y114200000D01*
X167676000Y111600000D02*
X170336000Y111600000D01*
X170336000Y111600000D02*
X170336000Y106460000D01*
X167676000Y111600000D02*
X167676000Y106460000D01*
X167676000Y106460000D02*
X170336000Y106460000D01*
%TO.C,J4*%
X178344102Y89268994D02*
X180225006Y91149898D01*
X174709574Y92903522D02*
X178344102Y89268994D01*
X176590478Y94784426D02*
X180225006Y91149898D01*
X174709574Y92903522D02*
X176590478Y94784426D01*
X173811548Y93801548D02*
X172871096Y94742000D01*
X172871096Y94742000D02*
X173811548Y95682452D01*
%TO.C,J1*%
X209940000Y89319096D02*
X208999548Y90259548D01*
X210880452Y90259548D02*
X209940000Y89319096D01*
X211778478Y91157574D02*
X209897574Y93038478D01*
X209897574Y93038478D02*
X213532102Y96673006D01*
X211778478Y91157574D02*
X215413006Y94792102D01*
X215413006Y94792102D02*
X213532102Y96673006D01*
%TO.C,J3*%
X197990000Y84268000D02*
X197990000Y86928000D01*
X192850000Y84268000D02*
X197990000Y84268000D01*
X192850000Y86928000D02*
X197990000Y86928000D01*
X192850000Y84268000D02*
X192850000Y86928000D01*
X191580000Y84268000D02*
X190250000Y84268000D01*
X190250000Y84268000D02*
X190250000Y85598000D01*
%TO.C,J8*%
X220278000Y106620000D02*
X218948000Y106620000D01*
X220278000Y107950000D02*
X220278000Y106620000D01*
X220278000Y109220000D02*
X217618000Y109220000D01*
X217618000Y109220000D02*
X217618000Y114360000D01*
X220278000Y109220000D02*
X220278000Y114360000D01*
X220278000Y114360000D02*
X217618000Y114360000D01*
%TO.C,C1*%
X187534733Y114298000D02*
X187877267Y114298000D01*
X187534733Y115318000D02*
X187877267Y115318000D01*
%TO.C,C2*%
X184462267Y114298000D02*
X184119733Y114298000D01*
X184462267Y115318000D02*
X184119733Y115318000D01*
%TO.C,C3*%
X182120000Y112971733D02*
X182120000Y113314267D01*
X181100000Y112971733D02*
X181100000Y113314267D01*
%TO.C,C4*%
X182120000Y109391267D02*
X182120000Y109048733D01*
X181100000Y109391267D02*
X181100000Y109048733D01*
%TO.C,C5*%
X186892000Y126819922D02*
X186892000Y127337078D01*
X185472000Y126819922D02*
X185472000Y127337078D01*
%TO.C,C6*%
X200608000Y132084578D02*
X200608000Y131567422D01*
X199188000Y132084578D02*
X199188000Y131567422D01*
%TO.C,J5*%
X194878000Y99374000D02*
X194878000Y98044000D01*
X193548000Y99374000D02*
X194878000Y99374000D01*
X192278000Y99374000D02*
X192278000Y96714000D01*
X192278000Y96714000D02*
X189678000Y96714000D01*
X192278000Y99374000D02*
X189678000Y99374000D01*
X189678000Y99374000D02*
X189678000Y96714000D01*
%TO.C,J6*%
X196028000Y100136000D02*
X196028000Y97476000D01*
X198628000Y100136000D02*
X196028000Y100136000D01*
X198628000Y97476000D02*
X196028000Y97476000D01*
X198628000Y100136000D02*
X198628000Y97476000D01*
X199898000Y100136000D02*
X201228000Y100136000D01*
X201228000Y100136000D02*
X201228000Y98806000D01*
%TO.C,J23*%
X187004000Y110804000D02*
X184344000Y110804000D01*
X187004000Y108204000D02*
X187004000Y110804000D01*
X184344000Y108204000D02*
X184344000Y110804000D01*
X187004000Y108204000D02*
X184344000Y108204000D01*
X187004000Y106934000D02*
X187004000Y105604000D01*
X187004000Y105604000D02*
X185674000Y105604000D01*
%TO.C,J24*%
X190052000Y104454000D02*
X190052000Y103124000D01*
X188722000Y104454000D02*
X190052000Y104454000D01*
X187452000Y104454000D02*
X187452000Y101794000D01*
X187452000Y101794000D02*
X184852000Y101794000D01*
X187452000Y104454000D02*
X184852000Y104454000D01*
X184852000Y104454000D02*
X184852000Y101794000D01*
%TO.C,Q1*%
X195070000Y101290000D02*
X195070000Y102220000D01*
X195070000Y104450000D02*
X195070000Y103520000D01*
X195070000Y104450000D02*
X192910000Y104450000D01*
X195070000Y101290000D02*
X193610000Y101290000D01*
%TO.C,Q2*%
X198626000Y101290000D02*
X197166000Y101290000D01*
X198626000Y104450000D02*
X196466000Y104450000D01*
X198626000Y104450000D02*
X198626000Y103520000D01*
X198626000Y101290000D02*
X198626000Y102220000D01*
%TO.C,R12*%
X187701422Y132132000D02*
X188218578Y132132000D01*
X187701422Y133552000D02*
X188218578Y133552000D01*
%TO.C,U1*%
X187598000Y123820000D02*
X188858000Y123820000D01*
X194418000Y123820000D02*
X193158000Y123820000D01*
X187598000Y127580000D02*
X187598000Y123820000D01*
X194418000Y129830000D02*
X194418000Y123820000D01*
%TO.C,U2*%
X196962000Y107134000D02*
X197412000Y107134000D01*
X197412000Y107134000D02*
X197412000Y107584000D01*
X190642000Y107134000D02*
X190192000Y107134000D01*
X190192000Y107134000D02*
X190192000Y107584000D01*
X196962000Y114354000D02*
X197412000Y114354000D01*
X197412000Y114354000D02*
X197412000Y113904000D01*
X190642000Y114354000D02*
X190192000Y114354000D01*
X190192000Y114354000D02*
X190192000Y113904000D01*
X190192000Y113904000D02*
X188902000Y113904000D01*
%TO.C,U3*%
X207264000Y108375000D02*
X209464000Y108375000D01*
X207264000Y108375000D02*
X205064000Y108375000D01*
X207264000Y115145000D02*
X209464000Y115145000D01*
X207264000Y115145000D02*
X203664000Y115145000D01*
%TO.C,U4*%
X198628000Y122662000D02*
X200578000Y122662000D01*
X198628000Y122662000D02*
X196678000Y122662000D01*
X198628000Y127782000D02*
X200578000Y127782000D01*
X198628000Y127782000D02*
X195178000Y127782000D01*
%TO.C,Y1*%
X186623000Y117715000D02*
X185273000Y117715000D01*
X186623000Y115965000D02*
X185273000Y115965000D01*
%TO.C,Y2*%
X180325000Y114223000D02*
X180325000Y107973000D01*
X175275000Y114223000D02*
X175275000Y107973000D01*
X175275000Y114223000D02*
G75*
G02*
X180325000Y114223000I2525000J0D01*
G01*
X175275000Y107973000D02*
G75*
G03*
X180325000Y107973000I2525000J0D01*
G01*
%TO.C,J13*%
X209042000Y97892904D02*
X207161096Y96012000D01*
X209084426Y97850478D02*
X209042000Y97892904D01*
X207203522Y95969574D02*
X207161096Y96012000D01*
X209084426Y97850478D02*
X207203522Y95969574D01*
X209982452Y96952452D02*
X210922904Y96012000D01*
X210922904Y96012000D02*
X209982452Y95071548D01*
%TO.C,J14*%
X192820000Y88026000D02*
X195480000Y88026000D01*
X192820000Y88086000D02*
X192820000Y88026000D01*
X195480000Y88086000D02*
X195480000Y88026000D01*
X192820000Y88086000D02*
X195480000Y88086000D01*
X192820000Y89356000D02*
X192820000Y90686000D01*
X192820000Y90686000D02*
X194150000Y90686000D01*
%TO.C,J15*%
X180442904Y96266000D02*
X178562000Y98146904D01*
X180400478Y96223574D02*
X180442904Y96266000D01*
X178519574Y98104478D02*
X178562000Y98146904D01*
X180400478Y96223574D02*
X178519574Y98104478D01*
X179502452Y95325548D02*
X178562000Y94385096D01*
X178562000Y94385096D02*
X177621548Y95325548D01*
%TO.C,J16*%
X178816000Y127102904D02*
X179756452Y126162452D01*
X177875548Y126162452D02*
X178816000Y127102904D01*
X176977522Y125264426D02*
X178858426Y123383522D01*
X178858426Y123383522D02*
X178816000Y123341096D01*
X176977522Y125264426D02*
X176935096Y125222000D01*
X176935096Y125222000D02*
X178816000Y123341096D01*
%TO.C,J17*%
X209340000Y127190904D02*
X207459096Y125310000D01*
X209382426Y127148478D02*
X209340000Y127190904D01*
X207501522Y125267574D02*
X207459096Y125310000D01*
X209382426Y127148478D02*
X207501522Y125267574D01*
X210280452Y126250452D02*
X211220904Y125310000D01*
X211220904Y125310000D02*
X210280452Y124369548D01*
%TO.C,J18*%
X171486000Y111406000D02*
X172816000Y111406000D01*
X171486000Y110076000D02*
X171486000Y111406000D01*
X171486000Y108806000D02*
X174146000Y108806000D01*
X174146000Y108806000D02*
X174146000Y108746000D01*
X171486000Y108806000D02*
X171486000Y108746000D01*
X171486000Y108746000D02*
X174146000Y108746000D01*
%TO.C,J19*%
X195520000Y132902000D02*
X196850000Y132902000D01*
X195520000Y131572000D02*
X195520000Y132902000D01*
X195520000Y130302000D02*
X198180000Y130302000D01*
X198180000Y130302000D02*
X198180000Y130242000D01*
X195520000Y130302000D02*
X195520000Y130242000D01*
X195520000Y130242000D02*
X198180000Y130242000D01*
%TO.C,J2*%
X186258781Y130556000D02*
G75*
G03*
X186258781Y130556000I-1600781J0D01*
G01*
%TO.C,J9*%
X183464781Y128016000D02*
G75*
G03*
X183464781Y128016000I-1600781J0D01*
G01*
%TO.C,J21*%
X199076000Y116526000D02*
X199076000Y117856000D01*
X200406000Y116526000D02*
X199076000Y116526000D01*
X199076000Y119126000D02*
X199076000Y121726000D01*
X201676000Y119126000D02*
X199076000Y119126000D01*
X201676000Y116526000D02*
X201676000Y119126000D01*
X199076000Y121726000D02*
X206816000Y121726000D01*
X201676000Y116526000D02*
X206816000Y116526000D01*
X206816000Y116526000D02*
X206816000Y121726000D01*
%TO.C,J12*%
D11*
X214243965Y124521195D02*
X214749041Y124016119D01*
X214816384Y123881432D01*
X214816384Y123746745D01*
X214749041Y123612058D01*
X214681697Y123544714D01*
X215658178Y124521195D02*
X215254117Y124117134D01*
X215456148Y124319164D02*
X214749041Y125026271D01*
X214782713Y124857912D01*
X214782713Y124723225D01*
X214749041Y124622210D01*
X215287789Y125430332D02*
X215287789Y125497676D01*
X215321461Y125598691D01*
X215489819Y125767050D01*
X215590835Y125800721D01*
X215658178Y125800721D01*
X215759193Y125767050D01*
X215826537Y125699706D01*
X215893880Y125565019D01*
X215893880Y124756897D01*
X216331613Y125194630D01*
%TO.C,J11*%
X198378380Y134572476D02*
X199092666Y134572476D01*
X199235523Y134524857D01*
X199330761Y134429619D01*
X199378380Y134286761D01*
X199378380Y134191523D01*
X199378380Y135572476D02*
X199378380Y135001047D01*
X199378380Y135286761D02*
X198378380Y135286761D01*
X198521238Y135191523D01*
X198616476Y135096285D01*
X198664095Y135001047D01*
X199378380Y136524857D02*
X199378380Y135953428D01*
X199378380Y136239142D02*
X198378380Y136239142D01*
X198521238Y136143904D01*
X198616476Y136048666D01*
X198664095Y135953428D01*
%TO.C,J10*%
X179770364Y132655203D02*
X179265288Y132150127D01*
X179130601Y132082784D01*
X178995914Y132082784D01*
X178861227Y132150127D01*
X178793883Y132217471D01*
X179770364Y131240990D02*
X179366303Y131645051D01*
X179568333Y131443020D02*
X180275440Y132150127D01*
X180107081Y132116455D01*
X179972394Y132116455D01*
X179871379Y132150127D01*
X180915203Y131510364D02*
X180982547Y131443020D01*
X181016219Y131342005D01*
X181016219Y131274662D01*
X180982547Y131173646D01*
X180881532Y131005288D01*
X180713173Y130836929D01*
X180544814Y130735914D01*
X180443799Y130702242D01*
X180376455Y130702242D01*
X180275440Y130735914D01*
X180208097Y130803257D01*
X180174425Y130904272D01*
X180174425Y130971616D01*
X180208097Y131072631D01*
X180309112Y131240990D01*
X180477471Y131409349D01*
X180645829Y131510364D01*
X180746845Y131544036D01*
X180814188Y131544036D01*
X180915203Y131510364D01*
%TO.C,J7*%
X168672666Y115747619D02*
X168672666Y115033333D01*
X168625047Y114890476D01*
X168529809Y114795238D01*
X168386952Y114747619D01*
X168291714Y114747619D01*
X169053619Y115747619D02*
X169720285Y115747619D01*
X169291714Y114747619D01*
%TO.C,J4*%
X172481513Y96541081D02*
X172986589Y96036005D01*
X173053933Y95901318D01*
X173053933Y95766631D01*
X172986589Y95631944D01*
X172919246Y95564601D01*
X173356979Y96945142D02*
X173828383Y96473738D01*
X172919246Y97046158D02*
X173255963Y96372723D01*
X173693696Y96810455D01*
%TO.C,J1*%
X208443963Y90175368D02*
X207938887Y89670292D01*
X207804200Y89602948D01*
X207669513Y89602948D01*
X207534826Y89670292D01*
X207467483Y89737635D01*
X208443963Y88761154D02*
X208039902Y89165215D01*
X208241933Y88963185D02*
X208949040Y89670292D01*
X208780681Y89636620D01*
X208645994Y89636620D01*
X208544979Y89670292D01*
%TO.C,J3*%
X188702380Y85264666D02*
X189416666Y85264666D01*
X189559523Y85217047D01*
X189654761Y85121809D01*
X189702380Y84978952D01*
X189702380Y84883714D01*
X188702380Y85645619D02*
X188702380Y86264666D01*
X189083333Y85931333D01*
X189083333Y86074190D01*
X189130952Y86169428D01*
X189178571Y86217047D01*
X189273809Y86264666D01*
X189511904Y86264666D01*
X189607142Y86217047D01*
X189654761Y86169428D01*
X189702380Y86074190D01*
X189702380Y85788476D01*
X189654761Y85693238D01*
X189607142Y85645619D01*
%TO.C,J8*%
X218614666Y106167619D02*
X218614666Y105453333D01*
X218567047Y105310476D01*
X218471809Y105215238D01*
X218328952Y105167619D01*
X218233714Y105167619D01*
X219233714Y105739047D02*
X219138476Y105786666D01*
X219090857Y105834285D01*
X219043238Y105929523D01*
X219043238Y105977142D01*
X219090857Y106072380D01*
X219138476Y106120000D01*
X219233714Y106167619D01*
X219424190Y106167619D01*
X219519428Y106120000D01*
X219567047Y106072380D01*
X219614666Y105977142D01*
X219614666Y105929523D01*
X219567047Y105834285D01*
X219519428Y105786666D01*
X219424190Y105739047D01*
X219233714Y105739047D01*
X219138476Y105691428D01*
X219090857Y105643809D01*
X219043238Y105548571D01*
X219043238Y105358095D01*
X219090857Y105262857D01*
X219138476Y105215238D01*
X219233714Y105167619D01*
X219424190Y105167619D01*
X219519428Y105215238D01*
X219567047Y105262857D01*
X219614666Y105358095D01*
X219614666Y105548571D01*
X219567047Y105643809D01*
X219519428Y105691428D01*
X219424190Y105739047D01*
%TO.C,C1*%
X187539333Y115880857D02*
X187491714Y115833238D01*
X187348857Y115785619D01*
X187253619Y115785619D01*
X187110761Y115833238D01*
X187015523Y115928476D01*
X186967904Y116023714D01*
X186920285Y116214190D01*
X186920285Y116357047D01*
X186967904Y116547523D01*
X187015523Y116642761D01*
X187110761Y116738000D01*
X187253619Y116785619D01*
X187348857Y116785619D01*
X187491714Y116738000D01*
X187539333Y116690380D01*
X188491714Y115785619D02*
X187920285Y115785619D01*
X188206000Y115785619D02*
X188206000Y116785619D01*
X188110761Y116642761D01*
X188015523Y116547523D01*
X187920285Y116499904D01*
%TO.C,C2*%
X184124333Y113020857D02*
X184076714Y112973238D01*
X183933857Y112925619D01*
X183838619Y112925619D01*
X183695761Y112973238D01*
X183600523Y113068476D01*
X183552904Y113163714D01*
X183505285Y113354190D01*
X183505285Y113497047D01*
X183552904Y113687523D01*
X183600523Y113782761D01*
X183695761Y113878000D01*
X183838619Y113925619D01*
X183933857Y113925619D01*
X184076714Y113878000D01*
X184124333Y113830380D01*
X184505285Y113830380D02*
X184552904Y113878000D01*
X184648142Y113925619D01*
X184886238Y113925619D01*
X184981476Y113878000D01*
X185029095Y113830380D01*
X185076714Y113735142D01*
X185076714Y113639904D01*
X185029095Y113497047D01*
X184457666Y112925619D01*
X185076714Y112925619D01*
%TO.C,C3*%
X180537142Y112976333D02*
X180584761Y112928714D01*
X180632380Y112785857D01*
X180632380Y112690619D01*
X180584761Y112547761D01*
X180489523Y112452523D01*
X180394285Y112404904D01*
X180203809Y112357285D01*
X180060952Y112357285D01*
X179870476Y112404904D01*
X179775238Y112452523D01*
X179680000Y112547761D01*
X179632380Y112690619D01*
X179632380Y112785857D01*
X179680000Y112928714D01*
X179727619Y112976333D01*
X179632380Y113309666D02*
X179632380Y113928714D01*
X180013333Y113595380D01*
X180013333Y113738238D01*
X180060952Y113833476D01*
X180108571Y113881095D01*
X180203809Y113928714D01*
X180441904Y113928714D01*
X180537142Y113881095D01*
X180584761Y113833476D01*
X180632380Y113738238D01*
X180632380Y113452523D01*
X180584761Y113357285D01*
X180537142Y113309666D01*
%TO.C,C4*%
X183397142Y109053333D02*
X183444761Y109005714D01*
X183492380Y108862857D01*
X183492380Y108767619D01*
X183444761Y108624761D01*
X183349523Y108529523D01*
X183254285Y108481904D01*
X183063809Y108434285D01*
X182920952Y108434285D01*
X182730476Y108481904D01*
X182635238Y108529523D01*
X182540000Y108624761D01*
X182492380Y108767619D01*
X182492380Y108862857D01*
X182540000Y109005714D01*
X182587619Y109053333D01*
X182825714Y109910476D02*
X183492380Y109910476D01*
X182444761Y109672380D02*
X183159047Y109434285D01*
X183159047Y110053333D01*
%TO.C,C5*%
X184889142Y126911833D02*
X184936761Y126864214D01*
X184984380Y126721357D01*
X184984380Y126626119D01*
X184936761Y126483261D01*
X184841523Y126388023D01*
X184746285Y126340404D01*
X184555809Y126292785D01*
X184412952Y126292785D01*
X184222476Y126340404D01*
X184127238Y126388023D01*
X184032000Y126483261D01*
X183984380Y126626119D01*
X183984380Y126721357D01*
X184032000Y126864214D01*
X184079619Y126911833D01*
X183984380Y127816595D02*
X183984380Y127340404D01*
X184460571Y127292785D01*
X184412952Y127340404D01*
X184365333Y127435642D01*
X184365333Y127673738D01*
X184412952Y127768976D01*
X184460571Y127816595D01*
X184555809Y127864214D01*
X184793904Y127864214D01*
X184889142Y127816595D01*
X184936761Y127768976D01*
X184984380Y127673738D01*
X184984380Y127435642D01*
X184936761Y127340404D01*
X184889142Y127292785D01*
%TO.C,C6*%
X201905142Y131659333D02*
X201952761Y131611714D01*
X202000380Y131468857D01*
X202000380Y131373619D01*
X201952761Y131230761D01*
X201857523Y131135523D01*
X201762285Y131087904D01*
X201571809Y131040285D01*
X201428952Y131040285D01*
X201238476Y131087904D01*
X201143238Y131135523D01*
X201048000Y131230761D01*
X201000380Y131373619D01*
X201000380Y131468857D01*
X201048000Y131611714D01*
X201095619Y131659333D01*
X201000380Y132516476D02*
X201000380Y132326000D01*
X201048000Y132230761D01*
X201095619Y132183142D01*
X201238476Y132087904D01*
X201428952Y132040285D01*
X201809904Y132040285D01*
X201905142Y132087904D01*
X201952761Y132135523D01*
X202000380Y132230761D01*
X202000380Y132421238D01*
X201952761Y132516476D01*
X201905142Y132564095D01*
X201809904Y132611714D01*
X201571809Y132611714D01*
X201476571Y132564095D01*
X201428952Y132516476D01*
X201381333Y132421238D01*
X201381333Y132230761D01*
X201428952Y132135523D01*
X201476571Y132087904D01*
X201571809Y132040285D01*
%TO.C,C7*%
X189179142Y115403333D02*
X189226761Y115355714D01*
X189274380Y115212857D01*
X189274380Y115117619D01*
X189226761Y114974761D01*
X189131523Y114879523D01*
X189036285Y114831904D01*
X188845809Y114784285D01*
X188702952Y114784285D01*
X188512476Y114831904D01*
X188417238Y114879523D01*
X188322000Y114974761D01*
X188274380Y115117619D01*
X188274380Y115212857D01*
X188322000Y115355714D01*
X188369619Y115403333D01*
X188274380Y115736666D02*
X188274380Y116403333D01*
X189274380Y115974761D01*
%TO.C,C8*%
X189179142Y117435333D02*
X189226761Y117387714D01*
X189274380Y117244857D01*
X189274380Y117149619D01*
X189226761Y117006761D01*
X189131523Y116911523D01*
X189036285Y116863904D01*
X188845809Y116816285D01*
X188702952Y116816285D01*
X188512476Y116863904D01*
X188417238Y116911523D01*
X188322000Y117006761D01*
X188274380Y117149619D01*
X188274380Y117244857D01*
X188322000Y117387714D01*
X188369619Y117435333D01*
X188702952Y118006761D02*
X188655333Y117911523D01*
X188607714Y117863904D01*
X188512476Y117816285D01*
X188464857Y117816285D01*
X188369619Y117863904D01*
X188322000Y117911523D01*
X188274380Y118006761D01*
X188274380Y118197238D01*
X188322000Y118292476D01*
X188369619Y118340095D01*
X188464857Y118387714D01*
X188512476Y118387714D01*
X188607714Y118340095D01*
X188655333Y118292476D01*
X188702952Y118197238D01*
X188702952Y118006761D01*
X188750571Y117911523D01*
X188798190Y117863904D01*
X188893428Y117816285D01*
X189083904Y117816285D01*
X189179142Y117863904D01*
X189226761Y117911523D01*
X189274380Y118006761D01*
X189274380Y118197238D01*
X189226761Y118292476D01*
X189179142Y118340095D01*
X189083904Y118387714D01*
X188893428Y118387714D01*
X188798190Y118340095D01*
X188750571Y118292476D01*
X188702952Y118197238D01*
%TO.C,C9*%
X197953333Y107238857D02*
X197905714Y107191238D01*
X197762857Y107143619D01*
X197667619Y107143619D01*
X197524761Y107191238D01*
X197429523Y107286476D01*
X197381904Y107381714D01*
X197334285Y107572190D01*
X197334285Y107715047D01*
X197381904Y107905523D01*
X197429523Y108000761D01*
X197524761Y108096000D01*
X197667619Y108143619D01*
X197762857Y108143619D01*
X197905714Y108096000D01*
X197953333Y108048380D01*
X198429523Y107143619D02*
X198620000Y107143619D01*
X198715238Y107191238D01*
X198762857Y107238857D01*
X198858095Y107381714D01*
X198905714Y107572190D01*
X198905714Y107953142D01*
X198858095Y108048380D01*
X198810476Y108096000D01*
X198715238Y108143619D01*
X198524761Y108143619D01*
X198429523Y108096000D01*
X198381904Y108048380D01*
X198334285Y107953142D01*
X198334285Y107715047D01*
X198381904Y107619809D01*
X198429523Y107572190D01*
X198524761Y107524571D01*
X198715238Y107524571D01*
X198810476Y107572190D01*
X198858095Y107619809D01*
X198905714Y107715047D01*
%TO.C,C10*%
X202811142Y126542857D02*
X202763523Y126495238D01*
X202620666Y126447619D01*
X202525428Y126447619D01*
X202382571Y126495238D01*
X202287333Y126590476D01*
X202239714Y126685714D01*
X202192095Y126876190D01*
X202192095Y127019047D01*
X202239714Y127209523D01*
X202287333Y127304761D01*
X202382571Y127400000D01*
X202525428Y127447619D01*
X202620666Y127447619D01*
X202763523Y127400000D01*
X202811142Y127352380D01*
X203763523Y126447619D02*
X203192095Y126447619D01*
X203477809Y126447619D02*
X203477809Y127447619D01*
X203382571Y127304761D01*
X203287333Y127209523D01*
X203192095Y127161904D01*
X204382571Y127447619D02*
X204477809Y127447619D01*
X204573047Y127400000D01*
X204620666Y127352380D01*
X204668285Y127257142D01*
X204715904Y127066666D01*
X204715904Y126828571D01*
X204668285Y126638095D01*
X204620666Y126542857D01*
X204573047Y126495238D01*
X204477809Y126447619D01*
X204382571Y126447619D01*
X204287333Y126495238D01*
X204239714Y126542857D01*
X204192095Y126638095D01*
X204144476Y126828571D01*
X204144476Y127066666D01*
X204192095Y127257142D01*
X204239714Y127352380D01*
X204287333Y127400000D01*
X204382571Y127447619D01*
%TO.C,C11*%
X209669142Y117652857D02*
X209621523Y117605238D01*
X209478666Y117557619D01*
X209383428Y117557619D01*
X209240571Y117605238D01*
X209145333Y117700476D01*
X209097714Y117795714D01*
X209050095Y117986190D01*
X209050095Y118129047D01*
X209097714Y118319523D01*
X209145333Y118414761D01*
X209240571Y118510000D01*
X209383428Y118557619D01*
X209478666Y118557619D01*
X209621523Y118510000D01*
X209669142Y118462380D01*
X210621523Y117557619D02*
X210050095Y117557619D01*
X210335809Y117557619D02*
X210335809Y118557619D01*
X210240571Y118414761D01*
X210145333Y118319523D01*
X210050095Y118271904D01*
X211573904Y117557619D02*
X211002476Y117557619D01*
X211288190Y117557619D02*
X211288190Y118557619D01*
X211192952Y118414761D01*
X211097714Y118319523D01*
X211002476Y118271904D01*
%TO.C,C12*%
X211701142Y115620857D02*
X211653523Y115573238D01*
X211510666Y115525619D01*
X211415428Y115525619D01*
X211272571Y115573238D01*
X211177333Y115668476D01*
X211129714Y115763714D01*
X211082095Y115954190D01*
X211082095Y116097047D01*
X211129714Y116287523D01*
X211177333Y116382761D01*
X211272571Y116478000D01*
X211415428Y116525619D01*
X211510666Y116525619D01*
X211653523Y116478000D01*
X211701142Y116430380D01*
X212653523Y115525619D02*
X212082095Y115525619D01*
X212367809Y115525619D02*
X212367809Y116525619D01*
X212272571Y116382761D01*
X212177333Y116287523D01*
X212082095Y116239904D01*
X213034476Y116430380D02*
X213082095Y116478000D01*
X213177333Y116525619D01*
X213415428Y116525619D01*
X213510666Y116478000D01*
X213558285Y116430380D01*
X213605904Y116335142D01*
X213605904Y116239904D01*
X213558285Y116097047D01*
X212986857Y115525619D01*
X213605904Y115525619D01*
%TO.C,H2*%
X204216095Y133811619D02*
X204216095Y134811619D01*
X204216095Y134335428D02*
X204787523Y134335428D01*
X204787523Y133811619D02*
X204787523Y134811619D01*
X205216095Y134716380D02*
X205263714Y134764000D01*
X205358952Y134811619D01*
X205597047Y134811619D01*
X205692285Y134764000D01*
X205739904Y134716380D01*
X205787523Y134621142D01*
X205787523Y134525904D01*
X205739904Y134383047D01*
X205168476Y133811619D01*
X205787523Y133811619D01*
%TO.C,H3*%
X205232095Y101553619D02*
X205232095Y102553619D01*
X205232095Y102077428D02*
X205803523Y102077428D01*
X205803523Y101553619D02*
X205803523Y102553619D01*
X206184476Y102553619D02*
X206803523Y102553619D01*
X206470190Y102172666D01*
X206613047Y102172666D01*
X206708285Y102125047D01*
X206755904Y102077428D01*
X206803523Y101982190D01*
X206803523Y101744095D01*
X206755904Y101648857D01*
X206708285Y101601238D01*
X206613047Y101553619D01*
X206327333Y101553619D01*
X206232095Y101601238D01*
X206184476Y101648857D01*
%TO.C,H4*%
X182118095Y101553619D02*
X182118095Y102553619D01*
X182118095Y102077428D02*
X182689523Y102077428D01*
X182689523Y101553619D02*
X182689523Y102553619D01*
X183594285Y102220285D02*
X183594285Y101553619D01*
X183356190Y102601238D02*
X183118095Y101886952D01*
X183737142Y101886952D01*
%TO.C,J5*%
X195330380Y97710666D02*
X196044666Y97710666D01*
X196187523Y97663047D01*
X196282761Y97567809D01*
X196330380Y97424952D01*
X196330380Y97329714D01*
X195330380Y98663047D02*
X195330380Y98186857D01*
X195806571Y98139238D01*
X195758952Y98186857D01*
X195711333Y98282095D01*
X195711333Y98520190D01*
X195758952Y98615428D01*
X195806571Y98663047D01*
X195901809Y98710666D01*
X196139904Y98710666D01*
X196235142Y98663047D01*
X196282761Y98615428D01*
X196330380Y98520190D01*
X196330380Y98282095D01*
X196282761Y98186857D01*
X196235142Y98139238D01*
%TO.C,J6*%
X201680380Y98472666D02*
X202394666Y98472666D01*
X202537523Y98425047D01*
X202632761Y98329809D01*
X202680380Y98186952D01*
X202680380Y98091714D01*
X201680380Y99377428D02*
X201680380Y99186952D01*
X201728000Y99091714D01*
X201775619Y99044095D01*
X201918476Y98948857D01*
X202108952Y98901238D01*
X202489904Y98901238D01*
X202585142Y98948857D01*
X202632761Y98996476D01*
X202680380Y99091714D01*
X202680380Y99282190D01*
X202632761Y99377428D01*
X202585142Y99425047D01*
X202489904Y99472666D01*
X202251809Y99472666D01*
X202156571Y99425047D01*
X202108952Y99377428D01*
X202061333Y99282190D01*
X202061333Y99091714D01*
X202108952Y98996476D01*
X202156571Y98948857D01*
X202251809Y98901238D01*
%TO.C,J23*%
X184864476Y105151619D02*
X184864476Y104437333D01*
X184816857Y104294476D01*
X184721619Y104199238D01*
X184578761Y104151619D01*
X184483523Y104151619D01*
X185293047Y105056380D02*
X185340666Y105104000D01*
X185435904Y105151619D01*
X185674000Y105151619D01*
X185769238Y105104000D01*
X185816857Y105056380D01*
X185864476Y104961142D01*
X185864476Y104865904D01*
X185816857Y104723047D01*
X185245428Y104151619D01*
X185864476Y104151619D01*
X186197809Y105151619D02*
X186816857Y105151619D01*
X186483523Y104770666D01*
X186626380Y104770666D01*
X186721619Y104723047D01*
X186769238Y104675428D01*
X186816857Y104580190D01*
X186816857Y104342095D01*
X186769238Y104246857D01*
X186721619Y104199238D01*
X186626380Y104151619D01*
X186340666Y104151619D01*
X186245428Y104199238D01*
X186197809Y104246857D01*
%TO.C,J24*%
X190504380Y102314476D02*
X191218666Y102314476D01*
X191361523Y102266857D01*
X191456761Y102171619D01*
X191504380Y102028761D01*
X191504380Y101933523D01*
X190599619Y102743047D02*
X190552000Y102790666D01*
X190504380Y102885904D01*
X190504380Y103124000D01*
X190552000Y103219238D01*
X190599619Y103266857D01*
X190694857Y103314476D01*
X190790095Y103314476D01*
X190932952Y103266857D01*
X191504380Y102695428D01*
X191504380Y103314476D01*
X190837714Y104171619D02*
X191504380Y104171619D01*
X190456761Y103933523D02*
X191171047Y103695428D01*
X191171047Y104314476D01*
%TO.C,Q1*%
X194214761Y104822380D02*
X194119523Y104870000D01*
X194024285Y104965238D01*
X193881428Y105108095D01*
X193786190Y105155714D01*
X193690952Y105155714D01*
X193738571Y104917619D02*
X193643333Y104965238D01*
X193548095Y105060476D01*
X193500476Y105250952D01*
X193500476Y105584285D01*
X193548095Y105774761D01*
X193643333Y105870000D01*
X193738571Y105917619D01*
X193929047Y105917619D01*
X194024285Y105870000D01*
X194119523Y105774761D01*
X194167142Y105584285D01*
X194167142Y105250952D01*
X194119523Y105060476D01*
X194024285Y104965238D01*
X193929047Y104917619D01*
X193738571Y104917619D01*
X195119523Y104917619D02*
X194548095Y104917619D01*
X194833809Y104917619D02*
X194833809Y105917619D01*
X194738571Y105774761D01*
X194643333Y105679523D01*
X194548095Y105631904D01*
%TO.C,Q2*%
X197770761Y104822380D02*
X197675523Y104870000D01*
X197580285Y104965238D01*
X197437428Y105108095D01*
X197342190Y105155714D01*
X197246952Y105155714D01*
X197294571Y104917619D02*
X197199333Y104965238D01*
X197104095Y105060476D01*
X197056476Y105250952D01*
X197056476Y105584285D01*
X197104095Y105774761D01*
X197199333Y105870000D01*
X197294571Y105917619D01*
X197485047Y105917619D01*
X197580285Y105870000D01*
X197675523Y105774761D01*
X197723142Y105584285D01*
X197723142Y105250952D01*
X197675523Y105060476D01*
X197580285Y104965238D01*
X197485047Y104917619D01*
X197294571Y104917619D01*
X198104095Y105822380D02*
X198151714Y105870000D01*
X198246952Y105917619D01*
X198485047Y105917619D01*
X198580285Y105870000D01*
X198627904Y105822380D01*
X198675523Y105727142D01*
X198675523Y105631904D01*
X198627904Y105489047D01*
X198056476Y104917619D01*
X198675523Y104917619D01*
%TO.C,R1*%
X187242380Y109584333D02*
X186766190Y109251000D01*
X187242380Y109012904D02*
X186242380Y109012904D01*
X186242380Y109393857D01*
X186290000Y109489095D01*
X186337619Y109536714D01*
X186432857Y109584333D01*
X186575714Y109584333D01*
X186670952Y109536714D01*
X186718571Y109489095D01*
X186766190Y109393857D01*
X186766190Y109012904D01*
X187242380Y110536714D02*
X187242380Y109965285D01*
X187242380Y110251000D02*
X186242380Y110251000D01*
X186385238Y110155761D01*
X186480476Y110060523D01*
X186528095Y109965285D01*
%TO.C,R4*%
X200704380Y130897333D02*
X200228190Y130564000D01*
X200704380Y130325904D02*
X199704380Y130325904D01*
X199704380Y130706857D01*
X199752000Y130802095D01*
X199799619Y130849714D01*
X199894857Y130897333D01*
X200037714Y130897333D01*
X200132952Y130849714D01*
X200180571Y130802095D01*
X200228190Y130706857D01*
X200228190Y130325904D01*
X200037714Y131754476D02*
X200704380Y131754476D01*
X199656761Y131516380D02*
X200371047Y131278285D01*
X200371047Y131897333D01*
%TO.C,R5*%
X193646380Y103465333D02*
X193170190Y103132000D01*
X193646380Y102893904D02*
X192646380Y102893904D01*
X192646380Y103274857D01*
X192694000Y103370095D01*
X192741619Y103417714D01*
X192836857Y103465333D01*
X192979714Y103465333D01*
X193074952Y103417714D01*
X193122571Y103370095D01*
X193170190Y103274857D01*
X193170190Y102893904D01*
X192646380Y104370095D02*
X192646380Y103893904D01*
X193122571Y103846285D01*
X193074952Y103893904D01*
X193027333Y103989142D01*
X193027333Y104227238D01*
X193074952Y104322476D01*
X193122571Y104370095D01*
X193217809Y104417714D01*
X193455904Y104417714D01*
X193551142Y104370095D01*
X193598761Y104322476D01*
X193646380Y104227238D01*
X193646380Y103989142D01*
X193598761Y103893904D01*
X193551142Y103846285D01*
%TO.C,R8*%
X193889333Y101301619D02*
X193556000Y101777809D01*
X193317904Y101301619D02*
X193317904Y102301619D01*
X193698857Y102301619D01*
X193794095Y102254000D01*
X193841714Y102206380D01*
X193889333Y102111142D01*
X193889333Y101968285D01*
X193841714Y101873047D01*
X193794095Y101825428D01*
X193698857Y101777809D01*
X193317904Y101777809D01*
X194460761Y101873047D02*
X194365523Y101920666D01*
X194317904Y101968285D01*
X194270285Y102063523D01*
X194270285Y102111142D01*
X194317904Y102206380D01*
X194365523Y102254000D01*
X194460761Y102301619D01*
X194651238Y102301619D01*
X194746476Y102254000D01*
X194794095Y102206380D01*
X194841714Y102111142D01*
X194841714Y102063523D01*
X194794095Y101968285D01*
X194746476Y101920666D01*
X194651238Y101873047D01*
X194460761Y101873047D01*
X194365523Y101825428D01*
X194317904Y101777809D01*
X194270285Y101682571D01*
X194270285Y101492095D01*
X194317904Y101396857D01*
X194365523Y101349238D01*
X194460761Y101301619D01*
X194651238Y101301619D01*
X194746476Y101349238D01*
X194794095Y101396857D01*
X194841714Y101492095D01*
X194841714Y101682571D01*
X194794095Y101777809D01*
X194746476Y101825428D01*
X194651238Y101873047D01*
%TO.C,R12*%
X187317142Y134039619D02*
X186983809Y134515809D01*
X186745714Y134039619D02*
X186745714Y135039619D01*
X187126666Y135039619D01*
X187221904Y134992000D01*
X187269523Y134944380D01*
X187317142Y134849142D01*
X187317142Y134706285D01*
X187269523Y134611047D01*
X187221904Y134563428D01*
X187126666Y134515809D01*
X186745714Y134515809D01*
X188269523Y134039619D02*
X187698095Y134039619D01*
X187983809Y134039619D02*
X187983809Y135039619D01*
X187888571Y134896761D01*
X187793333Y134801523D01*
X187698095Y134753904D01*
X188650476Y134944380D02*
X188698095Y134992000D01*
X188793333Y135039619D01*
X189031428Y135039619D01*
X189126666Y134992000D01*
X189174285Y134944380D01*
X189221904Y134849142D01*
X189221904Y134753904D01*
X189174285Y134611047D01*
X188602857Y134039619D01*
X189221904Y134039619D01*
%TO.C,R14*%
X201774380Y102989142D02*
X201298190Y102655809D01*
X201774380Y102417714D02*
X200774380Y102417714D01*
X200774380Y102798666D01*
X200822000Y102893904D01*
X200869619Y102941523D01*
X200964857Y102989142D01*
X201107714Y102989142D01*
X201202952Y102941523D01*
X201250571Y102893904D01*
X201298190Y102798666D01*
X201298190Y102417714D01*
X201774380Y103941523D02*
X201774380Y103370095D01*
X201774380Y103655809D02*
X200774380Y103655809D01*
X200917238Y103560571D01*
X201012476Y103465333D01*
X201060095Y103370095D01*
X201107714Y104798666D02*
X201774380Y104798666D01*
X200726761Y104560571D02*
X201441047Y104322476D01*
X201441047Y104941523D01*
%TO.C,R15*%
X192143142Y121367619D02*
X191809809Y121843809D01*
X191571714Y121367619D02*
X191571714Y122367619D01*
X191952666Y122367619D01*
X192047904Y122320000D01*
X192095523Y122272380D01*
X192143142Y122177142D01*
X192143142Y122034285D01*
X192095523Y121939047D01*
X192047904Y121891428D01*
X191952666Y121843809D01*
X191571714Y121843809D01*
X193095523Y121367619D02*
X192524095Y121367619D01*
X192809809Y121367619D02*
X192809809Y122367619D01*
X192714571Y122224761D01*
X192619333Y122129523D01*
X192524095Y122081904D01*
X194000285Y122367619D02*
X193524095Y122367619D01*
X193476476Y121891428D01*
X193524095Y121939047D01*
X193619333Y121986666D01*
X193857428Y121986666D01*
X193952666Y121939047D01*
X194000285Y121891428D01*
X194047904Y121796190D01*
X194047904Y121558095D01*
X194000285Y121462857D01*
X193952666Y121415238D01*
X193857428Y121367619D01*
X193619333Y121367619D01*
X193524095Y121415238D01*
X193476476Y121462857D01*
%TO.C,R16*%
X199434380Y100957142D02*
X198958190Y100623809D01*
X199434380Y100385714D02*
X198434380Y100385714D01*
X198434380Y100766666D01*
X198482000Y100861904D01*
X198529619Y100909523D01*
X198624857Y100957142D01*
X198767714Y100957142D01*
X198862952Y100909523D01*
X198910571Y100861904D01*
X198958190Y100766666D01*
X198958190Y100385714D01*
X199434380Y101909523D02*
X199434380Y101338095D01*
X199434380Y101623809D02*
X198434380Y101623809D01*
X198577238Y101528571D01*
X198672476Y101433333D01*
X198720095Y101338095D01*
X198434380Y102766666D02*
X198434380Y102576190D01*
X198482000Y102480952D01*
X198529619Y102433333D01*
X198672476Y102338095D01*
X198862952Y102290476D01*
X199243904Y102290476D01*
X199339142Y102338095D01*
X199386761Y102385714D01*
X199434380Y102480952D01*
X199434380Y102671428D01*
X199386761Y102766666D01*
X199339142Y102814285D01*
X199243904Y102861904D01*
X199005809Y102861904D01*
X198910571Y102814285D01*
X198862952Y102766666D01*
X198815333Y102671428D01*
X198815333Y102480952D01*
X198862952Y102385714D01*
X198910571Y102338095D01*
X199005809Y102290476D01*
%TO.C,R17*%
X195191142Y122637619D02*
X194857809Y123113809D01*
X194619714Y122637619D02*
X194619714Y123637619D01*
X195000666Y123637619D01*
X195095904Y123590000D01*
X195143523Y123542380D01*
X195191142Y123447142D01*
X195191142Y123304285D01*
X195143523Y123209047D01*
X195095904Y123161428D01*
X195000666Y123113809D01*
X194619714Y123113809D01*
X196143523Y122637619D02*
X195572095Y122637619D01*
X195857809Y122637619D02*
X195857809Y123637619D01*
X195762571Y123494761D01*
X195667333Y123399523D01*
X195572095Y123351904D01*
X196476857Y123637619D02*
X197143523Y123637619D01*
X196714952Y122637619D01*
%TO.C,R18*%
X202811142Y121821619D02*
X202477809Y122297809D01*
X202239714Y121821619D02*
X202239714Y122821619D01*
X202620666Y122821619D01*
X202715904Y122774000D01*
X202763523Y122726380D01*
X202811142Y122631142D01*
X202811142Y122488285D01*
X202763523Y122393047D01*
X202715904Y122345428D01*
X202620666Y122297809D01*
X202239714Y122297809D01*
X203763523Y121821619D02*
X203192095Y121821619D01*
X203477809Y121821619D02*
X203477809Y122821619D01*
X203382571Y122678761D01*
X203287333Y122583523D01*
X203192095Y122535904D01*
X204334952Y122393047D02*
X204239714Y122440666D01*
X204192095Y122488285D01*
X204144476Y122583523D01*
X204144476Y122631142D01*
X204192095Y122726380D01*
X204239714Y122774000D01*
X204334952Y122821619D01*
X204525428Y122821619D01*
X204620666Y122774000D01*
X204668285Y122726380D01*
X204715904Y122631142D01*
X204715904Y122583523D01*
X204668285Y122488285D01*
X204620666Y122440666D01*
X204525428Y122393047D01*
X204334952Y122393047D01*
X204239714Y122345428D01*
X204192095Y122297809D01*
X204144476Y122202571D01*
X204144476Y122012095D01*
X204192095Y121916857D01*
X204239714Y121869238D01*
X204334952Y121821619D01*
X204525428Y121821619D01*
X204620666Y121869238D01*
X204668285Y121916857D01*
X204715904Y122012095D01*
X204715904Y122202571D01*
X204668285Y122297809D01*
X204620666Y122345428D01*
X204525428Y122393047D01*
%TO.C,R19*%
X202811142Y122837619D02*
X202477809Y123313809D01*
X202239714Y122837619D02*
X202239714Y123837619D01*
X202620666Y123837619D01*
X202715904Y123790000D01*
X202763523Y123742380D01*
X202811142Y123647142D01*
X202811142Y123504285D01*
X202763523Y123409047D01*
X202715904Y123361428D01*
X202620666Y123313809D01*
X202239714Y123313809D01*
X203763523Y122837619D02*
X203192095Y122837619D01*
X203477809Y122837619D02*
X203477809Y123837619D01*
X203382571Y123694761D01*
X203287333Y123599523D01*
X203192095Y123551904D01*
X204239714Y122837619D02*
X204430190Y122837619D01*
X204525428Y122885238D01*
X204573047Y122932857D01*
X204668285Y123075714D01*
X204715904Y123266190D01*
X204715904Y123647142D01*
X204668285Y123742380D01*
X204620666Y123790000D01*
X204525428Y123837619D01*
X204334952Y123837619D01*
X204239714Y123790000D01*
X204192095Y123742380D01*
X204144476Y123647142D01*
X204144476Y123409047D01*
X204192095Y123313809D01*
X204239714Y123266190D01*
X204334952Y123218571D01*
X204525428Y123218571D01*
X204620666Y123266190D01*
X204668285Y123313809D01*
X204715904Y123409047D01*
%TO.C,R20*%
X196715142Y117811619D02*
X196381809Y118287809D01*
X196143714Y117811619D02*
X196143714Y118811619D01*
X196524666Y118811619D01*
X196619904Y118764000D01*
X196667523Y118716380D01*
X196715142Y118621142D01*
X196715142Y118478285D01*
X196667523Y118383047D01*
X196619904Y118335428D01*
X196524666Y118287809D01*
X196143714Y118287809D01*
X197096095Y118716380D02*
X197143714Y118764000D01*
X197238952Y118811619D01*
X197477047Y118811619D01*
X197572285Y118764000D01*
X197619904Y118716380D01*
X197667523Y118621142D01*
X197667523Y118525904D01*
X197619904Y118383047D01*
X197048476Y117811619D01*
X197667523Y117811619D01*
X198286571Y118811619D02*
X198381809Y118811619D01*
X198477047Y118764000D01*
X198524666Y118716380D01*
X198572285Y118621142D01*
X198619904Y118430666D01*
X198619904Y118192571D01*
X198572285Y118002095D01*
X198524666Y117906857D01*
X198477047Y117859238D01*
X198381809Y117811619D01*
X198286571Y117811619D01*
X198191333Y117859238D01*
X198143714Y117906857D01*
X198096095Y118002095D01*
X198048476Y118192571D01*
X198048476Y118430666D01*
X198096095Y118621142D01*
X198143714Y118716380D01*
X198191333Y118764000D01*
X198286571Y118811619D01*
%TO.C,R21*%
X200017142Y112169619D02*
X199683809Y112645809D01*
X199445714Y112169619D02*
X199445714Y113169619D01*
X199826666Y113169619D01*
X199921904Y113122000D01*
X199969523Y113074380D01*
X200017142Y112979142D01*
X200017142Y112836285D01*
X199969523Y112741047D01*
X199921904Y112693428D01*
X199826666Y112645809D01*
X199445714Y112645809D01*
X200398095Y113074380D02*
X200445714Y113122000D01*
X200540952Y113169619D01*
X200779047Y113169619D01*
X200874285Y113122000D01*
X200921904Y113074380D01*
X200969523Y112979142D01*
X200969523Y112883904D01*
X200921904Y112741047D01*
X200350476Y112169619D01*
X200969523Y112169619D01*
X201921904Y112169619D02*
X201350476Y112169619D01*
X201636190Y112169619D02*
X201636190Y113169619D01*
X201540952Y113026761D01*
X201445714Y112931523D01*
X201350476Y112883904D01*
%TO.C,R22*%
X189836380Y105783142D02*
X189360190Y105449809D01*
X189836380Y105211714D02*
X188836380Y105211714D01*
X188836380Y105592666D01*
X188884000Y105687904D01*
X188931619Y105735523D01*
X189026857Y105783142D01*
X189169714Y105783142D01*
X189264952Y105735523D01*
X189312571Y105687904D01*
X189360190Y105592666D01*
X189360190Y105211714D01*
X188931619Y106164095D02*
X188884000Y106211714D01*
X188836380Y106306952D01*
X188836380Y106545047D01*
X188884000Y106640285D01*
X188931619Y106687904D01*
X189026857Y106735523D01*
X189122095Y106735523D01*
X189264952Y106687904D01*
X189836380Y106116476D01*
X189836380Y106735523D01*
X188931619Y107116476D02*
X188884000Y107164095D01*
X188836380Y107259333D01*
X188836380Y107497428D01*
X188884000Y107592666D01*
X188931619Y107640285D01*
X189026857Y107687904D01*
X189122095Y107687904D01*
X189264952Y107640285D01*
X189836380Y107068857D01*
X189836380Y107687904D01*
%TO.C,U1*%
X194960380Y124968095D02*
X195769904Y124968095D01*
X195865142Y125015714D01*
X195912761Y125063333D01*
X195960380Y125158571D01*
X195960380Y125349047D01*
X195912761Y125444285D01*
X195865142Y125491904D01*
X195769904Y125539523D01*
X194960380Y125539523D01*
X195960380Y126539523D02*
X195960380Y125968095D01*
X195960380Y126253809D02*
X194960380Y126253809D01*
X195103238Y126158571D01*
X195198476Y126063333D01*
X195246095Y125968095D01*
%TO.C,U2*%
X193040095Y117141619D02*
X193040095Y116332095D01*
X193087714Y116236857D01*
X193135333Y116189238D01*
X193230571Y116141619D01*
X193421047Y116141619D01*
X193516285Y116189238D01*
X193563904Y116236857D01*
X193611523Y116332095D01*
X193611523Y117141619D01*
X194040095Y117046380D02*
X194087714Y117094000D01*
X194182952Y117141619D01*
X194421047Y117141619D01*
X194516285Y117094000D01*
X194563904Y117046380D01*
X194611523Y116951142D01*
X194611523Y116855904D01*
X194563904Y116713047D01*
X193992476Y116141619D01*
X194611523Y116141619D01*
%TO.C,U3*%
X206502095Y116507619D02*
X206502095Y115698095D01*
X206549714Y115602857D01*
X206597333Y115555238D01*
X206692571Y115507619D01*
X206883047Y115507619D01*
X206978285Y115555238D01*
X207025904Y115602857D01*
X207073523Y115698095D01*
X207073523Y116507619D01*
X207454476Y116507619D02*
X208073523Y116507619D01*
X207740190Y116126666D01*
X207883047Y116126666D01*
X207978285Y116079047D01*
X208025904Y116031428D01*
X208073523Y115936190D01*
X208073523Y115698095D01*
X208025904Y115602857D01*
X207978285Y115555238D01*
X207883047Y115507619D01*
X207597333Y115507619D01*
X207502095Y115555238D01*
X207454476Y115602857D01*
%TO.C,U4*%
X197866095Y129169619D02*
X197866095Y128360095D01*
X197913714Y128264857D01*
X197961333Y128217238D01*
X198056571Y128169619D01*
X198247047Y128169619D01*
X198342285Y128217238D01*
X198389904Y128264857D01*
X198437523Y128360095D01*
X198437523Y129169619D01*
X199342285Y128836285D02*
X199342285Y128169619D01*
X199104190Y129217238D02*
X198866095Y128502952D01*
X199485142Y128502952D01*
%TO.C,Y1*%
X185471809Y114863809D02*
X185471809Y114387619D01*
X185138476Y115387619D02*
X185471809Y114863809D01*
X185805142Y115387619D01*
X186662285Y114387619D02*
X186090857Y114387619D01*
X186376571Y114387619D02*
X186376571Y115387619D01*
X186281333Y115244761D01*
X186186095Y115149523D01*
X186090857Y115101904D01*
%TO.C,Y2*%
X181301190Y110621809D02*
X181777380Y110621809D01*
X180777380Y110288476D02*
X181301190Y110621809D01*
X180777380Y110955142D01*
X180872619Y111240857D02*
X180825000Y111288476D01*
X180777380Y111383714D01*
X180777380Y111621809D01*
X180825000Y111717047D01*
X180872619Y111764666D01*
X180967857Y111812285D01*
X181063095Y111812285D01*
X181205952Y111764666D01*
X181777380Y111193238D01*
X181777380Y111812285D01*
%TO.C,R2*%
X195972380Y90205333D02*
X195496190Y89872000D01*
X195972380Y89633904D02*
X194972380Y89633904D01*
X194972380Y90014857D01*
X195020000Y90110095D01*
X195067619Y90157714D01*
X195162857Y90205333D01*
X195305714Y90205333D01*
X195400952Y90157714D01*
X195448571Y90110095D01*
X195496190Y90014857D01*
X195496190Y89633904D01*
X195067619Y90586285D02*
X195020000Y90633904D01*
X194972380Y90729142D01*
X194972380Y90967238D01*
X195020000Y91062476D01*
X195067619Y91110095D01*
X195162857Y91157714D01*
X195258095Y91157714D01*
X195400952Y91110095D01*
X195972380Y90538666D01*
X195972380Y91157714D01*
%TO.C,R3*%
X209046952Y97268654D02*
X209147967Y97841074D01*
X208642891Y97672715D02*
X209349997Y98379822D01*
X209619372Y98110448D01*
X209653043Y98009433D01*
X209653043Y97942089D01*
X209619372Y97841074D01*
X209518356Y97740059D01*
X209417341Y97706387D01*
X209349997Y97706387D01*
X209248982Y97740059D01*
X208979608Y98009433D01*
X209989761Y97740059D02*
X210427494Y97302326D01*
X209922417Y97268654D01*
X210023433Y97167639D01*
X210057104Y97066623D01*
X210057104Y96999280D01*
X210023433Y96898265D01*
X209855074Y96729906D01*
X209754059Y96696234D01*
X209686715Y96696234D01*
X209585700Y96729906D01*
X209383669Y96931936D01*
X209349997Y97032952D01*
X209349997Y97100295D01*
%TO.C,R6*%
X173411333Y113333619D02*
X173078000Y113809809D01*
X172839904Y113333619D02*
X172839904Y114333619D01*
X173220857Y114333619D01*
X173316095Y114286000D01*
X173363714Y114238380D01*
X173411333Y114143142D01*
X173411333Y114000285D01*
X173363714Y113905047D01*
X173316095Y113857428D01*
X173220857Y113809809D01*
X172839904Y113809809D01*
X174268476Y114333619D02*
X174078000Y114333619D01*
X173982761Y114286000D01*
X173935142Y114238380D01*
X173839904Y114095523D01*
X173792285Y113905047D01*
X173792285Y113524095D01*
X173839904Y113428857D01*
X173887523Y113381238D01*
X173982761Y113333619D01*
X174173238Y113333619D01*
X174268476Y113381238D01*
X174316095Y113428857D01*
X174363714Y113524095D01*
X174363714Y113762190D01*
X174316095Y113857428D01*
X174268476Y113905047D01*
X174173238Y113952666D01*
X173982761Y113952666D01*
X173887523Y113905047D01*
X173839904Y113857428D01*
X173792285Y113762190D01*
%TO.C,R7*%
X190864333Y131219619D02*
X190531000Y131695809D01*
X190292904Y131219619D02*
X190292904Y132219619D01*
X190673857Y132219619D01*
X190769095Y132172000D01*
X190816714Y132124380D01*
X190864333Y132029142D01*
X190864333Y131886285D01*
X190816714Y131791047D01*
X190769095Y131743428D01*
X190673857Y131695809D01*
X190292904Y131695809D01*
X191197666Y132219619D02*
X191864333Y132219619D01*
X191435761Y131219619D01*
%TO.C,R9*%
X181026398Y92880005D02*
X180453978Y92981020D01*
X180622337Y92475944D02*
X179915230Y93183050D01*
X180184604Y93452425D01*
X180285619Y93486096D01*
X180352963Y93486096D01*
X180453978Y93452425D01*
X180554993Y93351409D01*
X180588665Y93250394D01*
X180588665Y93183050D01*
X180554993Y93082035D01*
X180285619Y92812661D01*
X181363116Y93216722D02*
X181497803Y93351409D01*
X181531474Y93452425D01*
X181531474Y93519768D01*
X181497803Y93688127D01*
X181396787Y93856486D01*
X181127413Y94125860D01*
X181026398Y94159531D01*
X180959055Y94159531D01*
X180858039Y94125860D01*
X180723352Y93991173D01*
X180689680Y93890157D01*
X180689680Y93822814D01*
X180723352Y93721799D01*
X180891711Y93553440D01*
X180992726Y93519768D01*
X181060070Y93519768D01*
X181161085Y93553440D01*
X181295772Y93688127D01*
X181329444Y93789142D01*
X181329444Y93856486D01*
X181295772Y93957501D01*
%TO.C,R10*%
X180907433Y123583011D02*
X180326168Y123583092D01*
X180579675Y123114924D02*
X179760523Y123688500D01*
X179979028Y124000558D01*
X180072661Y124051259D01*
X180138982Y124062954D01*
X180244309Y124047334D01*
X180361331Y123965395D01*
X180412033Y123871761D01*
X180423727Y123805441D01*
X180408108Y123700113D01*
X180189602Y123388055D01*
X181453696Y124363156D02*
X181125938Y123895069D01*
X181289817Y124129112D02*
X180470665Y124702689D01*
X180533060Y124542735D01*
X180556448Y124410094D01*
X180540829Y124304766D01*
X180989615Y125443826D02*
X181044241Y125521841D01*
X181137875Y125572542D01*
X181204195Y125584236D01*
X181309523Y125568617D01*
X181492865Y125498371D01*
X181687901Y125361806D01*
X181816617Y125213546D01*
X181867318Y125119912D01*
X181879012Y125053592D01*
X181863393Y124948264D01*
X181808767Y124870250D01*
X181715133Y124819548D01*
X181648813Y124807854D01*
X181543485Y124823473D01*
X181360143Y124893719D01*
X181165107Y125030285D01*
X181036391Y125178544D01*
X180985690Y125272178D01*
X180973996Y125338498D01*
X180989615Y125443826D01*
%TO.C,R11*%
X211889680Y121935287D02*
X211317261Y122036302D01*
X211485619Y121531226D02*
X210778513Y122238333D01*
X211047887Y122507707D01*
X211148902Y122541379D01*
X211216245Y122541379D01*
X211317261Y122507707D01*
X211418276Y122406692D01*
X211451948Y122305676D01*
X211451948Y122238333D01*
X211418276Y122137318D01*
X211148902Y121867944D01*
X212563116Y122608722D02*
X212159055Y122204661D01*
X212361085Y122406692D02*
X211653978Y123113799D01*
X211687650Y122945440D01*
X211687650Y122810753D01*
X211653978Y122709737D01*
X213236551Y123282157D02*
X212832490Y122878096D01*
X213034520Y123080127D02*
X212327413Y123787234D01*
X212361085Y123618875D01*
X212361085Y123484188D01*
X212327413Y123383173D01*
%TO.C,R23*%
X200017142Y110445619D02*
X199683809Y110921809D01*
X199445714Y110445619D02*
X199445714Y111445619D01*
X199826666Y111445619D01*
X199921904Y111398000D01*
X199969523Y111350380D01*
X200017142Y111255142D01*
X200017142Y111112285D01*
X199969523Y111017047D01*
X199921904Y110969428D01*
X199826666Y110921809D01*
X199445714Y110921809D01*
X200398095Y111350380D02*
X200445714Y111398000D01*
X200540952Y111445619D01*
X200779047Y111445619D01*
X200874285Y111398000D01*
X200921904Y111350380D01*
X200969523Y111255142D01*
X200969523Y111159904D01*
X200921904Y111017047D01*
X200350476Y110445619D01*
X200969523Y110445619D01*
X201302857Y111445619D02*
X201921904Y111445619D01*
X201588571Y111064666D01*
X201731428Y111064666D01*
X201826666Y111017047D01*
X201874285Y110969428D01*
X201921904Y110874190D01*
X201921904Y110636095D01*
X201874285Y110540857D01*
X201826666Y110493238D01*
X201731428Y110445619D01*
X201445714Y110445619D01*
X201350476Y110493238D01*
X201302857Y110540857D01*
%TO.C,R24*%
X200017142Y111461619D02*
X199683809Y111937809D01*
X199445714Y111461619D02*
X199445714Y112461619D01*
X199826666Y112461619D01*
X199921904Y112414000D01*
X199969523Y112366380D01*
X200017142Y112271142D01*
X200017142Y112128285D01*
X199969523Y112033047D01*
X199921904Y111985428D01*
X199826666Y111937809D01*
X199445714Y111937809D01*
X200398095Y112366380D02*
X200445714Y112414000D01*
X200540952Y112461619D01*
X200779047Y112461619D01*
X200874285Y112414000D01*
X200921904Y112366380D01*
X200969523Y112271142D01*
X200969523Y112175904D01*
X200921904Y112033047D01*
X200350476Y111461619D01*
X200969523Y111461619D01*
X201826666Y112128285D02*
X201826666Y111461619D01*
X201588571Y112509238D02*
X201350476Y111794952D01*
X201969523Y111794952D01*
%TO.C,R25*%
X195116380Y117467142D02*
X194640190Y117133809D01*
X195116380Y116895714D02*
X194116380Y116895714D01*
X194116380Y117276666D01*
X194164000Y117371904D01*
X194211619Y117419523D01*
X194306857Y117467142D01*
X194449714Y117467142D01*
X194544952Y117419523D01*
X194592571Y117371904D01*
X194640190Y117276666D01*
X194640190Y116895714D01*
X194211619Y117848095D02*
X194164000Y117895714D01*
X194116380Y117990952D01*
X194116380Y118229047D01*
X194164000Y118324285D01*
X194211619Y118371904D01*
X194306857Y118419523D01*
X194402095Y118419523D01*
X194544952Y118371904D01*
X195116380Y117800476D01*
X195116380Y118419523D01*
X194116380Y119324285D02*
X194116380Y118848095D01*
X194592571Y118800476D01*
X194544952Y118848095D01*
X194497333Y118943333D01*
X194497333Y119181428D01*
X194544952Y119276666D01*
X194592571Y119324285D01*
X194687809Y119371904D01*
X194925904Y119371904D01*
X195021142Y119324285D01*
X195068761Y119276666D01*
X195116380Y119181428D01*
X195116380Y118943333D01*
X195068761Y118848095D01*
X195021142Y118800476D01*
%TO.C,R26*%
X199994142Y112477619D02*
X199660809Y112953809D01*
X199422714Y112477619D02*
X199422714Y113477619D01*
X199803666Y113477619D01*
X199898904Y113430000D01*
X199946523Y113382380D01*
X199994142Y113287142D01*
X199994142Y113144285D01*
X199946523Y113049047D01*
X199898904Y113001428D01*
X199803666Y112953809D01*
X199422714Y112953809D01*
X200375095Y113382380D02*
X200422714Y113430000D01*
X200517952Y113477619D01*
X200756047Y113477619D01*
X200851285Y113430000D01*
X200898904Y113382380D01*
X200946523Y113287142D01*
X200946523Y113191904D01*
X200898904Y113049047D01*
X200327476Y112477619D01*
X200946523Y112477619D01*
X201803666Y113477619D02*
X201613190Y113477619D01*
X201517952Y113430000D01*
X201470333Y113382380D01*
X201375095Y113239523D01*
X201327476Y113049047D01*
X201327476Y112668095D01*
X201375095Y112572857D01*
X201422714Y112525238D01*
X201517952Y112477619D01*
X201708428Y112477619D01*
X201803666Y112525238D01*
X201851285Y112572857D01*
X201898904Y112668095D01*
X201898904Y112906190D01*
X201851285Y113001428D01*
X201803666Y113049047D01*
X201708428Y113096666D01*
X201517952Y113096666D01*
X201422714Y113049047D01*
X201375095Y113001428D01*
X201327476Y112906190D01*
%TO.C,R27*%
X191306380Y118483142D02*
X190830190Y118149809D01*
X191306380Y117911714D02*
X190306380Y117911714D01*
X190306380Y118292666D01*
X190354000Y118387904D01*
X190401619Y118435523D01*
X190496857Y118483142D01*
X190639714Y118483142D01*
X190734952Y118435523D01*
X190782571Y118387904D01*
X190830190Y118292666D01*
X190830190Y117911714D01*
X190401619Y118864095D02*
X190354000Y118911714D01*
X190306380Y119006952D01*
X190306380Y119245047D01*
X190354000Y119340285D01*
X190401619Y119387904D01*
X190496857Y119435523D01*
X190592095Y119435523D01*
X190734952Y119387904D01*
X191306380Y118816476D01*
X191306380Y119435523D01*
X190306380Y119768857D02*
X190306380Y120435523D01*
X191306380Y120006952D01*
%TO.C,R28*%
X200017142Y113493619D02*
X199683809Y113969809D01*
X199445714Y113493619D02*
X199445714Y114493619D01*
X199826666Y114493619D01*
X199921904Y114446000D01*
X199969523Y114398380D01*
X200017142Y114303142D01*
X200017142Y114160285D01*
X199969523Y114065047D01*
X199921904Y114017428D01*
X199826666Y113969809D01*
X199445714Y113969809D01*
X200398095Y114398380D02*
X200445714Y114446000D01*
X200540952Y114493619D01*
X200779047Y114493619D01*
X200874285Y114446000D01*
X200921904Y114398380D01*
X200969523Y114303142D01*
X200969523Y114207904D01*
X200921904Y114065047D01*
X200350476Y113493619D01*
X200969523Y113493619D01*
X201540952Y114065047D02*
X201445714Y114112666D01*
X201398095Y114160285D01*
X201350476Y114255523D01*
X201350476Y114303142D01*
X201398095Y114398380D01*
X201445714Y114446000D01*
X201540952Y114493619D01*
X201731428Y114493619D01*
X201826666Y114446000D01*
X201874285Y114398380D01*
X201921904Y114303142D01*
X201921904Y114255523D01*
X201874285Y114160285D01*
X201826666Y114112666D01*
X201731428Y114065047D01*
X201540952Y114065047D01*
X201445714Y114017428D01*
X201398095Y113969809D01*
X201350476Y113874571D01*
X201350476Y113684095D01*
X201398095Y113588857D01*
X201445714Y113541238D01*
X201540952Y113493619D01*
X201731428Y113493619D01*
X201826666Y113541238D01*
X201874285Y113588857D01*
X201921904Y113684095D01*
X201921904Y113874571D01*
X201874285Y113969809D01*
X201826666Y114017428D01*
X201731428Y114065047D01*
%TO.C,R29*%
X191306380Y116451142D02*
X190830190Y116117809D01*
X191306380Y115879714D02*
X190306380Y115879714D01*
X190306380Y116260666D01*
X190354000Y116355904D01*
X190401619Y116403523D01*
X190496857Y116451142D01*
X190639714Y116451142D01*
X190734952Y116403523D01*
X190782571Y116355904D01*
X190830190Y116260666D01*
X190830190Y115879714D01*
X190401619Y116832095D02*
X190354000Y116879714D01*
X190306380Y116974952D01*
X190306380Y117213047D01*
X190354000Y117308285D01*
X190401619Y117355904D01*
X190496857Y117403523D01*
X190592095Y117403523D01*
X190734952Y117355904D01*
X191306380Y116784476D01*
X191306380Y117403523D01*
X191306380Y117879714D02*
X191306380Y118070190D01*
X191258761Y118165428D01*
X191211142Y118213047D01*
X191068285Y118308285D01*
X190877809Y118355904D01*
X190496857Y118355904D01*
X190401619Y118308285D01*
X190354000Y118260666D01*
X190306380Y118165428D01*
X190306380Y117974952D01*
X190354000Y117879714D01*
X190401619Y117832095D01*
X190496857Y117784476D01*
X190734952Y117784476D01*
X190830190Y117832095D01*
X190877809Y117879714D01*
X190925428Y117974952D01*
X190925428Y118165428D01*
X190877809Y118260666D01*
X190830190Y118308285D01*
X190734952Y118355904D01*
%TO.C,R30*%
X191360380Y105275142D02*
X190884190Y104941809D01*
X191360380Y104703714D02*
X190360380Y104703714D01*
X190360380Y105084666D01*
X190408000Y105179904D01*
X190455619Y105227523D01*
X190550857Y105275142D01*
X190693714Y105275142D01*
X190788952Y105227523D01*
X190836571Y105179904D01*
X190884190Y105084666D01*
X190884190Y104703714D01*
X190360380Y105608476D02*
X190360380Y106227523D01*
X190741333Y105894190D01*
X190741333Y106037047D01*
X190788952Y106132285D01*
X190836571Y106179904D01*
X190931809Y106227523D01*
X191169904Y106227523D01*
X191265142Y106179904D01*
X191312761Y106132285D01*
X191360380Y106037047D01*
X191360380Y105751333D01*
X191312761Y105656095D01*
X191265142Y105608476D01*
X190360380Y106846571D02*
X190360380Y106941809D01*
X190408000Y107037047D01*
X190455619Y107084666D01*
X190550857Y107132285D01*
X190741333Y107179904D01*
X190979428Y107179904D01*
X191169904Y107132285D01*
X191265142Y107084666D01*
X191312761Y107037047D01*
X191360380Y106941809D01*
X191360380Y106846571D01*
X191312761Y106751333D01*
X191265142Y106703714D01*
X191169904Y106656095D01*
X190979428Y106608476D01*
X190741333Y106608476D01*
X190550857Y106656095D01*
X190455619Y106703714D01*
X190408000Y106751333D01*
X190360380Y106846571D01*
%TO.C,R31*%
X200017142Y109429619D02*
X199683809Y109905809D01*
X199445714Y109429619D02*
X199445714Y110429619D01*
X199826666Y110429619D01*
X199921904Y110382000D01*
X199969523Y110334380D01*
X200017142Y110239142D01*
X200017142Y110096285D01*
X199969523Y110001047D01*
X199921904Y109953428D01*
X199826666Y109905809D01*
X199445714Y109905809D01*
X200350476Y110429619D02*
X200969523Y110429619D01*
X200636190Y110048666D01*
X200779047Y110048666D01*
X200874285Y110001047D01*
X200921904Y109953428D01*
X200969523Y109858190D01*
X200969523Y109620095D01*
X200921904Y109524857D01*
X200874285Y109477238D01*
X200779047Y109429619D01*
X200493333Y109429619D01*
X200398095Y109477238D01*
X200350476Y109524857D01*
X201921904Y109429619D02*
X201350476Y109429619D01*
X201636190Y109429619D02*
X201636190Y110429619D01*
X201540952Y110286761D01*
X201445714Y110191523D01*
X201350476Y110143904D01*
%TO.C,R32*%
X194100380Y117467142D02*
X193624190Y117133809D01*
X194100380Y116895714D02*
X193100380Y116895714D01*
X193100380Y117276666D01*
X193148000Y117371904D01*
X193195619Y117419523D01*
X193290857Y117467142D01*
X193433714Y117467142D01*
X193528952Y117419523D01*
X193576571Y117371904D01*
X193624190Y117276666D01*
X193624190Y116895714D01*
X193100380Y117800476D02*
X193100380Y118419523D01*
X193481333Y118086190D01*
X193481333Y118229047D01*
X193528952Y118324285D01*
X193576571Y118371904D01*
X193671809Y118419523D01*
X193909904Y118419523D01*
X194005142Y118371904D01*
X194052761Y118324285D01*
X194100380Y118229047D01*
X194100380Y117943333D01*
X194052761Y117848095D01*
X194005142Y117800476D01*
X193195619Y118800476D02*
X193148000Y118848095D01*
X193100380Y118943333D01*
X193100380Y119181428D01*
X193148000Y119276666D01*
X193195619Y119324285D01*
X193290857Y119371904D01*
X193386095Y119371904D01*
X193528952Y119324285D01*
X194100380Y118752857D01*
X194100380Y119371904D01*
%TO.C,R33*%
X193138380Y100957142D02*
X192662190Y100623809D01*
X193138380Y100385714D02*
X192138380Y100385714D01*
X192138380Y100766666D01*
X192186000Y100861904D01*
X192233619Y100909523D01*
X192328857Y100957142D01*
X192471714Y100957142D01*
X192566952Y100909523D01*
X192614571Y100861904D01*
X192662190Y100766666D01*
X192662190Y100385714D01*
X192138380Y101290476D02*
X192138380Y101909523D01*
X192519333Y101576190D01*
X192519333Y101719047D01*
X192566952Y101814285D01*
X192614571Y101861904D01*
X192709809Y101909523D01*
X192947904Y101909523D01*
X193043142Y101861904D01*
X193090761Y101814285D01*
X193138380Y101719047D01*
X193138380Y101433333D01*
X193090761Y101338095D01*
X193043142Y101290476D01*
X192138380Y102242857D02*
X192138380Y102861904D01*
X192519333Y102528571D01*
X192519333Y102671428D01*
X192566952Y102766666D01*
X192614571Y102814285D01*
X192709809Y102861904D01*
X192947904Y102861904D01*
X193043142Y102814285D01*
X193090761Y102766666D01*
X193138380Y102671428D01*
X193138380Y102385714D01*
X193090761Y102290476D01*
X193043142Y102242857D01*
%TO.C,J13*%
X209729914Y94179246D02*
X210234990Y93674170D01*
X210302333Y93539483D01*
X210302333Y93404796D01*
X210234990Y93270109D01*
X210167646Y93202765D01*
X211144127Y94179246D02*
X210740066Y93775185D01*
X210942097Y93977215D02*
X210234990Y94684322D01*
X210268662Y94515963D01*
X210268662Y94381276D01*
X210234990Y94280261D01*
X210672723Y95122055D02*
X211110455Y95559788D01*
X211144127Y95054711D01*
X211245142Y95155727D01*
X211346158Y95189398D01*
X211413501Y95189398D01*
X211514516Y95155727D01*
X211682875Y94987368D01*
X211716547Y94886353D01*
X211716547Y94819009D01*
X211682875Y94717994D01*
X211480845Y94515963D01*
X211379829Y94482292D01*
X211312486Y94482292D01*
%TO.C,J14*%
X193340476Y92233619D02*
X193340476Y91519333D01*
X193292857Y91376476D01*
X193197619Y91281238D01*
X193054761Y91233619D01*
X192959523Y91233619D01*
X194340476Y91233619D02*
X193769047Y91233619D01*
X194054761Y91233619D02*
X194054761Y92233619D01*
X193959523Y92090761D01*
X193864285Y91995523D01*
X193769047Y91947904D01*
X195197619Y91900285D02*
X195197619Y91233619D01*
X194959523Y92281238D02*
X194721428Y91566952D01*
X195340476Y91566952D01*
%TO.C,J15*%
X176729246Y95578085D02*
X176224170Y95073009D01*
X176089483Y95005666D01*
X175954796Y95005666D01*
X175820109Y95073009D01*
X175752765Y95140353D01*
X176729246Y94163872D02*
X176325185Y94567933D01*
X176527215Y94365902D02*
X177234322Y95073009D01*
X177065963Y95039337D01*
X176931276Y95039337D01*
X176830261Y95073009D01*
X178076116Y94231215D02*
X177739398Y94567933D01*
X177369009Y94264887D01*
X177436353Y94264887D01*
X177537368Y94231215D01*
X177705727Y94062857D01*
X177739398Y93961841D01*
X177739398Y93894498D01*
X177705727Y93793483D01*
X177537368Y93625124D01*
X177436353Y93591452D01*
X177369009Y93591452D01*
X177267994Y93625124D01*
X177099635Y93793483D01*
X177065963Y93894498D01*
X177065963Y93961841D01*
%TO.C,J16*%
X180278364Y127829203D02*
X179773288Y127324127D01*
X179638601Y127256784D01*
X179503914Y127256784D01*
X179369227Y127324127D01*
X179301883Y127391471D01*
X180278364Y126414990D02*
X179874303Y126819051D01*
X180076333Y126617020D02*
X180783440Y127324127D01*
X180615081Y127290455D01*
X180480394Y127290455D01*
X180379379Y127324127D01*
X181591562Y126516005D02*
X181456875Y126650692D01*
X181355860Y126684364D01*
X181288516Y126684364D01*
X181120158Y126650692D01*
X180951799Y126549677D01*
X180682425Y126280303D01*
X180648753Y126179288D01*
X180648753Y126111944D01*
X180682425Y126010929D01*
X180817112Y125876242D01*
X180918127Y125842570D01*
X180985471Y125842570D01*
X181086486Y125876242D01*
X181254845Y126044601D01*
X181288516Y126145616D01*
X181288516Y126212959D01*
X181254845Y126313975D01*
X181120158Y126448662D01*
X181019142Y126482333D01*
X180951799Y126482333D01*
X180850784Y126448662D01*
%TO.C,J17*%
X210027914Y123477246D02*
X210532990Y122972170D01*
X210600333Y122837483D01*
X210600333Y122702796D01*
X210532990Y122568109D01*
X210465646Y122500765D01*
X211442127Y123477246D02*
X211038066Y123073185D01*
X211240097Y123275215D02*
X210532990Y123982322D01*
X210566662Y123813963D01*
X210566662Y123679276D01*
X210532990Y123578261D01*
X210970723Y124420055D02*
X211442127Y124891459D01*
X211846188Y123881307D01*
%TO.C,J18*%
X172006476Y112953619D02*
X172006476Y112239333D01*
X171958857Y112096476D01*
X171863619Y112001238D01*
X171720761Y111953619D01*
X171625523Y111953619D01*
X173006476Y111953619D02*
X172435047Y111953619D01*
X172720761Y111953619D02*
X172720761Y112953619D01*
X172625523Y112810761D01*
X172530285Y112715523D01*
X172435047Y112667904D01*
X173577904Y112525047D02*
X173482666Y112572666D01*
X173435047Y112620285D01*
X173387428Y112715523D01*
X173387428Y112763142D01*
X173435047Y112858380D01*
X173482666Y112906000D01*
X173577904Y112953619D01*
X173768380Y112953619D01*
X173863619Y112906000D01*
X173911238Y112858380D01*
X173958857Y112763142D01*
X173958857Y112715523D01*
X173911238Y112620285D01*
X173863619Y112572666D01*
X173768380Y112525047D01*
X173577904Y112525047D01*
X173482666Y112477428D01*
X173435047Y112429809D01*
X173387428Y112334571D01*
X173387428Y112144095D01*
X173435047Y112048857D01*
X173482666Y112001238D01*
X173577904Y111953619D01*
X173768380Y111953619D01*
X173863619Y112001238D01*
X173911238Y112048857D01*
X173958857Y112144095D01*
X173958857Y112334571D01*
X173911238Y112429809D01*
X173863619Y112477428D01*
X173768380Y112525047D01*
%TO.C,J19*%
X196040476Y134449619D02*
X196040476Y133735333D01*
X195992857Y133592476D01*
X195897619Y133497238D01*
X195754761Y133449619D01*
X195659523Y133449619D01*
X197040476Y133449619D02*
X196469047Y133449619D01*
X196754761Y133449619D02*
X196754761Y134449619D01*
X196659523Y134306761D01*
X196564285Y134211523D01*
X196469047Y134163904D01*
X197516666Y133449619D02*
X197707142Y133449619D01*
X197802380Y133497238D01*
X197850000Y133544857D01*
X197945238Y133687714D01*
X197992857Y133878190D01*
X197992857Y134259142D01*
X197945238Y134354380D01*
X197897619Y134402000D01*
X197802380Y134449619D01*
X197611904Y134449619D01*
X197516666Y134402000D01*
X197469047Y134354380D01*
X197421428Y134259142D01*
X197421428Y134021047D01*
X197469047Y133925809D01*
X197516666Y133878190D01*
X197611904Y133830571D01*
X197802380Y133830571D01*
X197897619Y133878190D01*
X197945238Y133925809D01*
X197992857Y134021047D01*
%TO.C,J2*%
X184324666Y128703619D02*
X184324666Y127989333D01*
X184277047Y127846476D01*
X184181809Y127751238D01*
X184038952Y127703619D01*
X183943714Y127703619D01*
X184753238Y128608380D02*
X184800857Y128656000D01*
X184896095Y128703619D01*
X185134190Y128703619D01*
X185229428Y128656000D01*
X185277047Y128608380D01*
X185324666Y128513142D01*
X185324666Y128417904D01*
X185277047Y128275047D01*
X184705619Y127703619D01*
X185324666Y127703619D01*
%TO.C,J9*%
X181530666Y126163619D02*
X181530666Y125449333D01*
X181483047Y125306476D01*
X181387809Y125211238D01*
X181244952Y125163619D01*
X181149714Y125163619D01*
X182054476Y125163619D02*
X182244952Y125163619D01*
X182340190Y125211238D01*
X182387809Y125258857D01*
X182483047Y125401714D01*
X182530666Y125592190D01*
X182530666Y125973142D01*
X182483047Y126068380D01*
X182435428Y126116000D01*
X182340190Y126163619D01*
X182149714Y126163619D01*
X182054476Y126116000D01*
X182006857Y126068380D01*
X181959238Y125973142D01*
X181959238Y125735047D01*
X182006857Y125639809D01*
X182054476Y125592190D01*
X182149714Y125544571D01*
X182340190Y125544571D01*
X182435428Y125592190D01*
X182483047Y125639809D01*
X182530666Y125735047D01*
%TO.C,J21*%
X197528380Y118316476D02*
X198242666Y118316476D01*
X198385523Y118268857D01*
X198480761Y118173619D01*
X198528380Y118030761D01*
X198528380Y117935523D01*
X197623619Y118745047D02*
X197576000Y118792666D01*
X197528380Y118887904D01*
X197528380Y119126000D01*
X197576000Y119221238D01*
X197623619Y119268857D01*
X197718857Y119316476D01*
X197814095Y119316476D01*
X197956952Y119268857D01*
X198528380Y118697428D01*
X198528380Y119316476D01*
X198528380Y120268857D02*
X198528380Y119697428D01*
X198528380Y119983142D02*
X197528380Y119983142D01*
X197671238Y119887904D01*
X197766476Y119792666D01*
X197814095Y119697428D01*
%TD*%
M02*
