M48
; DRILL file {KiCad 7.0.2-0} date 2023 April 27, Thursday 21:18:19
; FORMAT={-:-/ absolute / metric / decimal}
; #@! TF.CreationDate,2023-04-27T21:18:19-05:00
; #@! TF.GenerationSoftware,Kicad,Pcbnew,7.0.2-0
; #@! TF.FileFunction,Plated,1,4,PTH
FMAT,2
METRIC
; #@! TA.AperFunction,Plated,PTH,ViaDrill
T1C0.400
; #@! TA.AperFunction,Plated,PTH,ComponentDrill
T2C0.600
; #@! TA.AperFunction,Plated,PTH,ComponentDrill
T3C1.000
%
G90
G05
T1
X25.7Y-79.17
X29.49Y-60.04
X31.3Y-63.62
X31.56Y-59.05
X32.79Y-91.99
X32.94Y-93.99
X34.2Y-72.175
X34.26Y-81.64
X34.29Y-78.51
X35.35Y-79.48
X51.05Y-74.8
X53.61Y-82.75
X53.63Y-72.55
X54.35Y-79.5
X55.71Y-79.39
X57.48Y-78.84
X58.025Y-75.055
X58.34Y-80.16
T3
X26.57Y-91.57
X26.57Y-94.11
X26.65Y-59.66
X26.65Y-62.2
X28.48Y-85.54
X28.96Y-67.61
X31.02Y-85.54
X31.5Y-67.61
X39.75Y-65.62
X39.75Y-68.16
X39.75Y-70.7
X39.75Y-73.24
X39.75Y-75.78
X39.75Y-78.32
X39.75Y-80.86
X39.75Y-83.4
X39.75Y-85.94
X39.75Y-88.48
X42.29Y-65.62
X42.29Y-68.16
X42.29Y-70.7
X42.29Y-73.24
X42.29Y-75.78
X42.29Y-78.32
X42.29Y-80.86
X42.29Y-83.4
X42.29Y-85.94
X42.29Y-88.48
T2
X27.74Y-72.63G85X27.14Y-72.63
G05
X27.74Y-81.27G85X27.14Y-81.27
G05
X32.17Y-72.63G85X31.07Y-72.63
G05
X32.17Y-81.27G85X31.07Y-81.27
G05
T0
M30
