G04 #@! TF.GenerationSoftware,KiCad,Pcbnew,8.0.4*
G04 #@! TF.CreationDate,2024-09-20T11:31:12-05:00*
G04 #@! TF.ProjectId,spudglo_driver_v8p0,73707564-676c-46f5-9f64-72697665725f,rev?*
G04 #@! TF.SameCoordinates,Original*
G04 #@! TF.FileFunction,Copper,L4,Bot*
G04 #@! TF.FilePolarity,Positive*
%FSLAX46Y46*%
G04 Gerber Fmt 4.6, Leading zero omitted, Abs format (unit mm)*
G04 Created by KiCad (PCBNEW 8.0.4) date 2024-09-20 11:31:12*
%MOMM*%
%LPD*%
G01*
G04 APERTURE LIST*
G04 #@! TA.AperFunction,ComponentPad*
%ADD10R,1.700000X1.700000*%
G04 #@! TD*
G04 #@! TA.AperFunction,ComponentPad*
%ADD11O,1.700000X1.700000*%
G04 #@! TD*
G04 #@! TA.AperFunction,ComponentPad*
%ADD12R,1.350000X1.350000*%
G04 #@! TD*
G04 #@! TA.AperFunction,ComponentPad*
%ADD13O,1.350000X1.350000*%
G04 #@! TD*
G04 #@! TA.AperFunction,ComponentPad*
%ADD14C,2.500000*%
G04 #@! TD*
G04 #@! TA.AperFunction,ComponentPad*
%ADD15C,2.540000*%
G04 #@! TD*
G04 #@! TA.AperFunction,ComponentPad*
%ADD16C,3.000000*%
G04 #@! TD*
G04 #@! TA.AperFunction,ComponentPad*
%ADD17R,1.800000X4.400000*%
G04 #@! TD*
G04 #@! TA.AperFunction,ComponentPad*
%ADD18O,1.800000X4.000000*%
G04 #@! TD*
G04 #@! TA.AperFunction,ComponentPad*
%ADD19O,4.000000X1.800000*%
G04 #@! TD*
G04 #@! TA.AperFunction,ComponentPad*
%ADD20O,1.000000X2.100000*%
G04 #@! TD*
G04 #@! TA.AperFunction,ComponentPad*
%ADD21O,1.000000X1.600000*%
G04 #@! TD*
G04 #@! TA.AperFunction,ComponentPad*
%ADD22C,2.000000*%
G04 #@! TD*
G04 #@! TA.AperFunction,ViaPad*
%ADD23C,0.800000*%
G04 #@! TD*
G04 #@! TA.AperFunction,ViaPad*
%ADD24C,4.000000*%
G04 #@! TD*
G04 #@! TA.AperFunction,ViaPad*
%ADD25C,5.000000*%
G04 #@! TD*
G04 #@! TA.AperFunction,Conductor*
%ADD26C,0.250000*%
G04 #@! TD*
G04 #@! TA.AperFunction,Conductor*
%ADD27C,0.500000*%
G04 #@! TD*
G04 APERTURE END LIST*
D10*
X92660003Y-175530003D03*
D11*
X92660003Y-172990003D03*
X92660003Y-170450003D03*
X92660003Y-167910003D03*
D10*
X92685005Y-148547503D03*
D11*
X92685005Y-146007503D03*
X92685005Y-143467503D03*
X92685005Y-140927503D03*
D10*
X106107503Y-135964996D03*
D11*
X103567503Y-135964996D03*
X101027503Y-135964996D03*
X98487503Y-135964996D03*
D10*
X70529997Y-153109997D03*
D11*
X70529997Y-155649997D03*
X70529997Y-158189997D03*
X70529997Y-160729997D03*
D12*
X109550000Y-155020000D03*
D13*
X111550000Y-155020000D03*
X109550000Y-157020000D03*
X111550000Y-157020000D03*
D11*
X117075000Y-153585000D03*
X119615000Y-153585000D03*
X117075000Y-156125000D03*
X119615000Y-156125000D03*
X117075000Y-158665000D03*
X119615000Y-158665000D03*
X117075000Y-161205000D03*
D10*
X119615000Y-161205000D03*
D14*
X111294999Y-150223223D03*
D15*
X116060000Y-141970000D03*
D16*
X132960000Y-160260000D03*
D17*
X134480000Y-152980000D03*
D18*
X140280000Y-152980000D03*
D19*
X137480000Y-148180000D03*
D20*
X133840000Y-141270001D03*
D21*
X133840000Y-137090000D03*
D20*
X125200000Y-141270001D03*
D21*
X125200000Y-137090000D03*
D22*
X134930000Y-174830000D03*
X131430000Y-174830000D03*
X127930000Y-174830000D03*
X124430000Y-174830000D03*
X120930000Y-174830000D03*
X117430000Y-174830000D03*
X113930000Y-174830000D03*
X110430000Y-174830000D03*
X106930000Y-174830000D03*
X103430000Y-174830000D03*
X99930000Y-174830000D03*
X96430000Y-174830000D03*
D16*
X133220000Y-145790000D03*
D23*
X93160000Y-139350000D03*
X72650000Y-154990000D03*
X91235003Y-147925000D03*
X79761367Y-157098466D03*
X76200000Y-134620000D03*
X76200000Y-139700000D03*
X84260000Y-137640000D03*
X84260000Y-136570000D03*
X84260000Y-135590000D03*
X84280000Y-134530000D03*
X95640000Y-135095000D03*
X91370000Y-171530000D03*
X129910001Y-158987551D03*
X93500000Y-159970000D03*
X134090000Y-166250000D03*
X130590000Y-152110000D03*
X98864292Y-137050287D03*
X69190000Y-142770000D03*
X69230000Y-141640000D03*
X74200000Y-135450000D03*
X102250000Y-149410000D03*
X113030000Y-151670000D03*
X113570000Y-149760000D03*
X124495000Y-146875000D03*
X122119592Y-154520047D03*
X122140000Y-155500000D03*
X131880000Y-148190000D03*
X133270000Y-139750000D03*
X92994658Y-151945000D03*
X126070000Y-160540000D03*
X126380000Y-152782500D03*
X106660153Y-141456274D03*
X117500000Y-166900000D03*
X105123617Y-151135897D03*
X125280000Y-152155000D03*
X125220000Y-153130000D03*
X99323641Y-137938546D03*
X118675750Y-145960569D03*
X121220000Y-148780000D03*
X102850000Y-138320000D03*
X72960000Y-146710000D03*
X128072607Y-149058901D03*
X123350000Y-149700000D03*
X119686357Y-145586357D03*
X90969506Y-134995000D03*
X89733269Y-134427933D03*
X106245628Y-144286427D03*
X120989555Y-144919555D03*
X116290000Y-167120000D03*
X118380000Y-162380000D03*
X122770000Y-166370000D03*
X115800000Y-162420000D03*
X116180000Y-157400000D03*
X115606156Y-155363844D03*
X98867384Y-141140895D03*
X95190000Y-144053547D03*
X104486885Y-143913115D03*
X128351062Y-136175000D03*
X126727500Y-151087500D03*
X131399068Y-151172999D03*
X127384369Y-136625000D03*
X130926058Y-148490001D03*
X133212951Y-138751626D03*
X101419999Y-145168816D03*
X101769999Y-150659799D03*
X105630000Y-152770000D03*
X102675000Y-159228112D03*
X98525000Y-157804085D03*
X100599799Y-142236915D03*
X99574492Y-141848003D03*
X97090000Y-146434300D03*
X96639999Y-144782497D03*
X98169999Y-146265000D03*
X95142090Y-147832114D03*
X88889522Y-134964678D03*
X101419999Y-151611396D03*
X102681170Y-158228130D03*
X93185850Y-163104150D03*
X94512405Y-162765000D03*
X80587000Y-156302222D03*
X72080000Y-143900000D03*
X74320000Y-143120000D03*
X92910000Y-150495000D03*
X94892666Y-143098771D03*
X94628258Y-142134361D03*
X97719999Y-147850948D03*
X97719999Y-148850950D03*
X97550000Y-149836397D03*
X96694999Y-157079085D03*
X90820000Y-157680000D03*
X95338499Y-159063202D03*
X95811248Y-153213732D03*
X72900000Y-160520000D03*
X91860000Y-134540000D03*
X89260000Y-145590000D03*
X89217341Y-147041210D03*
X85202666Y-161105000D03*
X87178491Y-161555000D03*
X86202669Y-161105000D03*
X85656304Y-156494003D03*
X85477669Y-157477921D03*
X90400001Y-156020000D03*
X89387294Y-157818266D03*
X90594343Y-150110664D03*
X90740000Y-151100000D03*
X102224999Y-155570513D03*
X96520000Y-155900000D03*
X96570000Y-153886396D03*
X90278969Y-138728967D03*
X89955728Y-140325000D03*
X90954646Y-140690049D03*
X80998541Y-143083489D03*
X80011418Y-142923515D03*
X91270000Y-142610000D03*
X91270000Y-144930000D03*
X122830000Y-162940000D03*
X122300000Y-164360000D03*
X80920000Y-145330000D03*
X84320000Y-148730000D03*
X122740000Y-160560000D03*
X127890000Y-146710000D03*
X96590000Y-152586396D03*
X135620000Y-162980000D03*
X128045000Y-165115000D03*
X125478615Y-144814503D03*
X87840000Y-149740000D03*
D24*
X140280000Y-145584432D03*
D23*
X73841311Y-150235000D03*
X127010000Y-145880000D03*
X77580000Y-148680000D03*
X88280797Y-157842903D03*
X127931614Y-145822507D03*
D24*
X136700000Y-143430000D03*
D23*
X133672500Y-143087500D03*
X121060000Y-150580000D03*
X125893601Y-143367586D03*
X103980000Y-149190000D03*
X128045000Y-163400000D03*
X80930000Y-152010000D03*
X75868177Y-142331823D03*
X87060000Y-150420000D03*
X74922566Y-148762566D03*
X85890000Y-148710000D03*
X128228037Y-140936968D03*
X130205480Y-146770174D03*
X87352157Y-151376373D03*
X88448719Y-152835000D03*
X128909808Y-147816927D03*
X130630002Y-140860000D03*
X125976400Y-148284735D03*
X130360000Y-154249619D03*
X131211699Y-143608926D03*
X126883489Y-143509999D03*
X86882779Y-152365204D03*
X89423380Y-152611314D03*
D25*
X140076613Y-169958879D03*
X134980000Y-169850000D03*
D23*
X75852788Y-143659457D03*
X88855000Y-151788547D03*
X88310000Y-156800000D03*
X86855728Y-154391998D03*
X84946015Y-155790090D03*
X124650000Y-143370000D03*
X129856181Y-148140000D03*
X98525000Y-158804088D03*
X129340000Y-135725000D03*
X102675000Y-160228115D03*
X106932347Y-152817653D03*
X86748618Y-153356166D03*
X109490960Y-145080071D03*
X107212879Y-144711177D03*
X90812867Y-139700149D03*
D26*
X95142090Y-147832114D02*
X94109976Y-146800000D01*
X94109976Y-146800000D02*
X93554209Y-146800000D01*
X93171706Y-147182503D02*
X92198304Y-147182503D01*
X93554209Y-146800000D02*
X93171706Y-147182503D01*
X92198304Y-147182503D02*
X91815801Y-146800000D01*
X91815801Y-146800000D02*
X89458551Y-146800000D01*
X89458551Y-146800000D02*
X89217341Y-147041210D01*
X107212879Y-144711177D02*
X106718841Y-145205215D01*
X106718841Y-145205215D02*
X104234785Y-145205215D01*
X96438298Y-149750000D02*
X96010000Y-149750000D01*
X91282503Y-149722503D02*
X90945664Y-149385664D01*
X104234785Y-145205215D02*
X104200000Y-145240000D01*
X97258298Y-150570000D02*
X96438298Y-149750000D01*
X104200000Y-145240000D02*
X104200000Y-145870000D01*
X86157779Y-152765327D02*
X86748618Y-153356166D01*
X95837497Y-149722503D02*
X91282503Y-149722503D01*
X86157779Y-150296916D02*
X86157779Y-152765327D01*
X104200000Y-145870000D02*
X99500000Y-150570000D01*
X99500000Y-150570000D02*
X97258298Y-150570000D01*
X96010000Y-149750000D02*
X95910000Y-149650000D01*
X90945664Y-149385664D02*
X88619031Y-149385664D01*
X95910000Y-149650000D02*
X95837497Y-149722503D01*
X88619031Y-149385664D02*
X88565000Y-149439695D01*
X88140305Y-149015000D02*
X87439695Y-149015000D01*
X88565000Y-149439695D02*
X88140305Y-149015000D01*
X87439695Y-149015000D02*
X86157779Y-150296916D01*
X94628258Y-142134361D02*
X92230162Y-142134361D01*
X90954646Y-140858845D02*
X90954646Y-140690049D01*
X92230162Y-142134361D02*
X90954646Y-140858845D01*
X94892666Y-143098771D02*
X93348934Y-144642503D01*
X93348934Y-144642503D02*
X92192503Y-144642503D01*
X89955728Y-142405728D02*
X89955728Y-140325000D01*
X99323641Y-137938546D02*
X99211454Y-137938546D01*
X99211454Y-137938546D02*
X96080000Y-141070000D01*
X96080000Y-141070000D02*
X92827502Y-141070000D01*
X92827502Y-141070000D02*
X92775002Y-141017500D01*
X88889522Y-134964678D02*
X88889522Y-136517686D01*
X86437208Y-138000956D02*
X84573172Y-139864992D01*
X78932245Y-140580000D02*
X75852788Y-143659457D01*
X88889522Y-136517686D02*
X87406252Y-138000956D01*
X87406252Y-138000956D02*
X86437208Y-138000956D01*
X84184263Y-139864992D02*
X83469255Y-140580000D01*
X84573172Y-139864992D02*
X84184263Y-139864992D01*
X83469255Y-140580000D02*
X78932245Y-140580000D01*
X89733269Y-134427933D02*
X89733269Y-136310335D01*
X89733269Y-136310335D02*
X87592648Y-138450956D01*
X87592648Y-138450956D02*
X86623604Y-138450956D01*
X86623604Y-138450956D02*
X84759568Y-140314992D01*
X84759568Y-140314992D02*
X84370659Y-140314992D01*
X81904933Y-141030000D02*
X80011418Y-142923515D01*
X84370659Y-140314992D02*
X83655651Y-141030000D01*
X83655651Y-141030000D02*
X81904933Y-141030000D01*
X90969506Y-134995000D02*
X90969506Y-135710494D01*
X90969506Y-135710494D02*
X87779044Y-138900956D01*
X87779044Y-138900956D02*
X86810000Y-138900956D01*
X84945964Y-140764992D02*
X84557055Y-140764992D01*
X86810000Y-138900956D02*
X84945964Y-140764992D01*
X82091329Y-141480000D02*
X80998541Y-142572788D01*
X84557055Y-140764992D02*
X83842047Y-141480000D01*
X83842047Y-141480000D02*
X82091329Y-141480000D01*
X80998541Y-142572788D02*
X80998541Y-143083489D01*
X106660153Y-141456274D02*
X105918421Y-141456274D01*
X105918421Y-141456274D02*
X102380406Y-144994289D01*
X97555642Y-146990000D02*
X96994999Y-147550643D01*
X96994999Y-148151253D02*
X97694696Y-148850950D01*
X102380406Y-144994289D02*
X102380406Y-145780406D01*
X102380406Y-145780406D02*
X101170812Y-146990000D01*
X101170812Y-146990000D02*
X97555642Y-146990000D01*
X96994999Y-147550643D02*
X96994999Y-148151253D01*
X97694696Y-148850950D02*
X97719999Y-148850950D01*
X116180000Y-157400000D02*
X115606156Y-156826156D01*
X115606156Y-156826156D02*
X115606156Y-155363844D01*
X90812867Y-139700149D02*
X92243016Y-138270000D01*
X92243016Y-138270000D02*
X93711349Y-138270000D01*
X95185989Y-135549011D02*
X95640000Y-135095000D01*
X93711349Y-138270000D02*
X95185989Y-136795360D01*
X95185989Y-136795360D02*
X95185989Y-135549011D01*
X91840000Y-134560000D02*
X91860000Y-134540000D01*
X91840000Y-137167936D02*
X91840000Y-134560000D01*
X90278969Y-138728967D02*
X91840000Y-137167936D01*
X96639999Y-144782497D02*
X99574492Y-141848004D01*
X99574492Y-141848004D02*
X99574492Y-141848003D01*
X97090000Y-146434300D02*
X97311948Y-146212352D01*
X100299492Y-142148308D02*
X100511192Y-142148308D01*
X100511192Y-142148308D02*
X100599799Y-142236915D01*
X99874797Y-142573003D02*
X100299492Y-142148308D01*
X97311948Y-146212352D02*
X97311948Y-145135853D01*
X97364999Y-144693893D02*
X99485889Y-142573003D01*
X99485889Y-142573003D02*
X99874797Y-142573003D01*
X97311948Y-145135853D02*
X97364999Y-145082802D01*
X97364999Y-145082802D02*
X97364999Y-144693893D01*
X98891948Y-145543051D02*
X101045764Y-145543051D01*
X101045764Y-145543051D02*
X101419999Y-145168816D01*
X98169999Y-146265000D02*
X98891948Y-145543051D01*
X95190000Y-144053547D02*
X95190000Y-143840000D01*
X97889105Y-141140895D02*
X98867384Y-141140895D01*
X95190000Y-143840000D02*
X97889105Y-141140895D01*
X85202666Y-161105000D02*
X85477669Y-160829997D01*
X85477669Y-160829997D02*
X85477669Y-157477921D01*
X86652669Y-157876476D02*
X86652669Y-156465063D01*
X84967102Y-155769003D02*
X84946015Y-155790090D01*
X87192670Y-161540821D02*
X87192670Y-158416477D01*
X86652669Y-156465063D02*
X85956609Y-155769003D01*
X87178491Y-161555000D02*
X87192670Y-161540821D01*
X87192670Y-158416477D02*
X86652669Y-157876476D01*
X85956609Y-155769003D02*
X84967102Y-155769003D01*
X86202669Y-161105000D02*
X86202669Y-157040368D01*
X86202669Y-157040368D02*
X85656304Y-156494003D01*
X124650000Y-145494893D02*
X128072607Y-148917500D01*
X124650000Y-143370000D02*
X124650000Y-145494893D01*
X128072607Y-148917500D02*
X128072607Y-149058901D01*
X120989555Y-145304860D02*
X120989555Y-144919555D01*
X125976400Y-148284735D02*
X123969430Y-148284735D01*
X123969430Y-148284735D02*
X120989555Y-145304860D01*
X121220000Y-148780000D02*
X119524229Y-147084229D01*
X119524229Y-147084229D02*
X119524229Y-146809048D01*
X119524229Y-146809048D02*
X118675750Y-145960569D01*
D27*
X123410000Y-155500000D02*
X122140000Y-155500000D01*
X127605326Y-155500000D02*
X123410000Y-155500000D01*
X123410000Y-155500000D02*
X123099545Y-155500000D01*
X123099545Y-155500000D02*
X122119592Y-154520047D01*
D26*
X127503037Y-142890451D02*
X126883489Y-143509999D01*
X127503037Y-138831193D02*
X127503037Y-142890451D01*
X127384369Y-138712525D02*
X127503037Y-138831193D01*
X127384369Y-136625000D02*
X127384369Y-138712525D01*
X128351062Y-136175000D02*
X128953037Y-136776975D01*
X129586699Y-142816147D02*
X128586699Y-143816147D01*
X128953037Y-136776975D02*
X128953037Y-141237273D01*
X128953037Y-141237273D02*
X129586699Y-141870935D01*
X128586699Y-143816147D02*
X128586699Y-144416757D01*
X128586699Y-144416757D02*
X128909808Y-144739866D01*
X129586699Y-141870935D02*
X129586699Y-142816147D01*
X128909808Y-144739866D02*
X128909808Y-147816927D01*
X131390000Y-143220002D02*
X131390000Y-143430625D01*
X133212951Y-138751626D02*
X131355002Y-140609575D01*
X131355002Y-140609575D02*
X131355002Y-143185004D01*
X131355002Y-143185004D02*
X131390000Y-143220002D01*
X131390000Y-143430625D02*
X131211699Y-143608926D01*
X130926058Y-148490001D02*
X131399068Y-148963011D01*
X130486699Y-141237267D02*
X130369717Y-141120285D01*
X130930481Y-147070480D02*
X130930481Y-146469870D01*
X130926058Y-148490001D02*
X130926058Y-147074903D01*
X130926058Y-147074903D02*
X130930481Y-147070480D01*
X130930481Y-146469870D02*
X130486699Y-146026088D01*
X130486699Y-146026088D02*
X130486699Y-141237267D01*
X130369717Y-141120285D02*
X130630002Y-140860000D01*
X131399068Y-148963011D02*
X131399068Y-151172999D01*
X104254093Y-143913115D02*
X103300000Y-144867208D01*
X101357208Y-147440000D02*
X98130947Y-147440000D01*
X104486885Y-143913115D02*
X104254093Y-143913115D01*
X103300000Y-144867208D02*
X103300000Y-145497208D01*
X103300000Y-145497208D02*
X101357208Y-147440000D01*
X98130947Y-147440000D02*
X97719999Y-147850948D01*
X106245628Y-144286427D02*
X105776840Y-144755215D01*
X105776840Y-144755215D02*
X104048389Y-144755215D01*
X104048389Y-144755215D02*
X103750000Y-145053604D01*
X103750000Y-145053604D02*
X103750000Y-145683604D01*
X103750000Y-145683604D02*
X99597207Y-149836397D01*
X99597207Y-149836397D02*
X97550000Y-149836397D01*
X111294999Y-150223223D02*
X108076777Y-153441445D01*
X108076777Y-153441445D02*
X108076777Y-155851643D01*
X108076777Y-155851643D02*
X102975305Y-160953115D01*
X90365704Y-160953115D02*
X87102669Y-157690080D01*
X102975305Y-160953115D02*
X90365704Y-160953115D01*
X87102669Y-157690080D02*
X87102669Y-154638939D01*
X87102669Y-154638939D02*
X86855728Y-154391998D01*
X105630000Y-152770000D02*
X105310000Y-152770000D01*
X105310000Y-152770000D02*
X103199799Y-150659799D01*
X103199799Y-150659799D02*
X101769999Y-150659799D01*
X128140000Y-148991508D02*
X128140000Y-148990000D01*
X128072607Y-149058901D02*
X128140000Y-148991508D01*
X119686357Y-145586357D02*
X120634656Y-145586357D01*
X120634656Y-145586357D02*
X123480000Y-148431701D01*
X123480000Y-148431701D02*
X123480000Y-149570000D01*
X123480000Y-149570000D02*
X123370000Y-149680000D01*
X92039391Y-151782198D02*
X91547802Y-151782198D01*
X90640000Y-153056396D02*
X89550000Y-154146396D01*
X92910000Y-150495000D02*
X92464086Y-150940914D01*
X89550000Y-155169999D02*
X90400001Y-156020000D01*
X92464086Y-150940914D02*
X92464086Y-151357503D01*
X92464086Y-151357503D02*
X92039391Y-151782198D01*
X91547802Y-151782198D02*
X90640000Y-152690000D01*
X90640000Y-152690000D02*
X90640000Y-153056396D01*
X89550000Y-154146396D02*
X89550000Y-155169999D01*
X101419999Y-151611396D02*
X101268603Y-151460000D01*
X101268603Y-151460000D02*
X97451553Y-151460000D01*
X97451553Y-151460000D02*
X96836553Y-150845000D01*
X95986091Y-150845000D02*
X95811248Y-151019843D01*
X96836553Y-150845000D02*
X95986091Y-150845000D01*
X95811248Y-151019843D02*
X95811248Y-153213732D01*
X102675000Y-159228112D02*
X102655847Y-159228112D01*
X102655847Y-159228112D02*
X101231820Y-157804085D01*
X101231820Y-157804085D02*
X98525000Y-157804085D01*
X102681170Y-158228130D02*
X102592825Y-158228130D01*
X102592825Y-158228130D02*
X101443780Y-157079085D01*
X101443780Y-157079085D02*
X96694999Y-157079085D01*
X89387294Y-157818266D02*
X89281465Y-157818266D01*
X89281465Y-157818266D02*
X88310000Y-156846801D01*
X88310000Y-156846801D02*
X88310000Y-156800000D01*
X89654440Y-151788547D02*
X90112946Y-152247054D01*
X90112946Y-152247054D02*
X90190000Y-152324107D01*
X87352157Y-151376373D02*
X87664983Y-151063547D01*
X90420000Y-151420000D02*
X90740000Y-151100000D01*
X87664983Y-151063547D02*
X89565836Y-151063547D01*
X89565836Y-151063547D02*
X89922289Y-151420000D01*
X89922289Y-151420000D02*
X90420000Y-151420000D01*
X88855000Y-151788547D02*
X89654440Y-151788547D01*
X88450000Y-156660000D02*
X88310000Y-156800000D01*
X90190000Y-152324107D02*
X90190000Y-152870000D01*
X88570000Y-156660000D02*
X88450000Y-156660000D01*
X90190000Y-152870000D02*
X88570000Y-154490000D01*
X88570000Y-154490000D02*
X88570000Y-156660000D01*
X88749025Y-153560000D02*
X88077575Y-153560000D01*
X89423380Y-152611314D02*
X89423380Y-152885645D01*
X89423380Y-152885645D02*
X88749025Y-153560000D01*
X88077575Y-153560000D02*
X86882779Y-152365204D01*
X88448719Y-152835000D02*
X87352157Y-151738438D01*
X87352157Y-151738438D02*
X87352157Y-151376373D01*
X95338499Y-159063202D02*
X93955297Y-157680000D01*
X93955297Y-157680000D02*
X90820000Y-157680000D01*
D27*
X130360000Y-154249619D02*
X128855707Y-154249619D01*
X128855707Y-154249619D02*
X127605326Y-155500000D01*
D26*
X129856181Y-147446180D02*
X129856181Y-148140000D01*
X129480481Y-147070480D02*
X129856181Y-147446180D01*
X129480481Y-144972975D02*
X129480481Y-147070480D01*
X98550302Y-158804088D02*
X98525000Y-158804088D01*
X130036699Y-144416757D02*
X129480481Y-144972975D01*
X130036699Y-143816147D02*
X130036699Y-144416757D01*
X99100305Y-158254085D02*
X98550302Y-158804088D01*
X101045424Y-158254085D02*
X99100305Y-158254085D01*
X129950000Y-143729448D02*
X130036699Y-143816147D01*
X129950000Y-143089242D02*
X129950000Y-143729448D01*
X130036699Y-143002543D02*
X129950000Y-143089242D01*
X130036699Y-141423662D02*
X130036699Y-143002543D01*
X129403037Y-140790000D02*
X130036699Y-141423662D01*
X129403037Y-135788037D02*
X129403037Y-140790000D01*
X129340000Y-135725000D02*
X129403037Y-135788037D01*
X101250670Y-158459331D02*
X101045424Y-158254085D01*
X101250670Y-158829087D02*
X101250670Y-158459331D01*
X102649698Y-160228115D02*
X101250670Y-158829087D01*
X102675000Y-160228115D02*
X102649698Y-160228115D01*
X106932347Y-152817653D02*
X106720000Y-152605306D01*
X106720000Y-152605306D02*
X106720000Y-145840000D01*
X106720000Y-145840000D02*
X107123823Y-145436177D01*
X107123823Y-145436177D02*
X109134854Y-145436177D01*
X109134854Y-145436177D02*
X109490960Y-145080071D01*
X92192503Y-144642503D02*
X89955728Y-142405728D01*
G04 #@! TA.AperFunction,Conductor*
G36*
X103576413Y-173843445D02*
G01*
X103595623Y-173846488D01*
X103728939Y-173878494D01*
X103747434Y-173884504D01*
X103802168Y-173907175D01*
X103874099Y-173936970D01*
X103891433Y-173945802D01*
X104008331Y-174017437D01*
X104024064Y-174028867D01*
X104024525Y-174029261D01*
X104024527Y-174029262D01*
X104128330Y-174117918D01*
X104142077Y-174131665D01*
X104147840Y-174138413D01*
X104166930Y-174160764D01*
X104231123Y-174235924D01*
X104242561Y-174251666D01*
X104314194Y-174368561D01*
X104323027Y-174385898D01*
X104375489Y-174512554D01*
X104375490Y-174512555D01*
X104381503Y-174531061D01*
X104413509Y-174664375D01*
X104416553Y-174683592D01*
X104427311Y-174820269D01*
X104427311Y-174839729D01*
X104416553Y-174976406D01*
X104413509Y-174995623D01*
X104381504Y-175128935D01*
X104375492Y-175147439D01*
X104325750Y-175267532D01*
X104325742Y-175267550D01*
X104323022Y-175274114D01*
X104314195Y-175291435D01*
X104242561Y-175408331D01*
X104231124Y-175424073D01*
X104142083Y-175528325D01*
X104128325Y-175542083D01*
X104024073Y-175631124D01*
X104008331Y-175642561D01*
X103891439Y-175714193D01*
X103874101Y-175723027D01*
X103747440Y-175775491D01*
X103728935Y-175781504D01*
X103595623Y-175813509D01*
X103576406Y-175816553D01*
X103439729Y-175827311D01*
X103420269Y-175827311D01*
X103283592Y-175816553D01*
X103264375Y-175813509D01*
X103131060Y-175781503D01*
X103112555Y-175775490D01*
X102985901Y-175723029D01*
X102968563Y-175714195D01*
X102851668Y-175642561D01*
X102835935Y-175631131D01*
X102832731Y-175628395D01*
X102832722Y-175628388D01*
X102731673Y-175542083D01*
X102717915Y-175528325D01*
X102643103Y-175440732D01*
X102643086Y-175440713D01*
X102628874Y-175424072D01*
X102617440Y-175408335D01*
X102545805Y-175291438D01*
X102536971Y-175274101D01*
X102527040Y-175250127D01*
X102484505Y-175147436D01*
X102478496Y-175128944D01*
X102446488Y-174995619D01*
X102443445Y-174976407D01*
X102443445Y-174976406D01*
X102432687Y-174839718D01*
X102432687Y-174820279D01*
X102443445Y-174683583D01*
X102446489Y-174664375D01*
X102478497Y-174531049D01*
X102484503Y-174512564D01*
X102536972Y-174385892D01*
X102545805Y-174368559D01*
X102617437Y-174251666D01*
X102628874Y-174235924D01*
X102717918Y-174131667D01*
X102731667Y-174117918D01*
X102835928Y-174028871D01*
X102851666Y-174017437D01*
X102920199Y-173975440D01*
X102968562Y-173945803D01*
X102985892Y-173936972D01*
X103112564Y-173884503D01*
X103131049Y-173878497D01*
X103264379Y-173846487D01*
X103283583Y-173843445D01*
X103420279Y-173832687D01*
X103439719Y-173832687D01*
X103576413Y-173843445D01*
G37*
G04 #@! TD.AperFunction*
G04 #@! TA.AperFunction,Conductor*
G36*
X114076413Y-173843445D02*
G01*
X114095623Y-173846488D01*
X114228939Y-173878494D01*
X114247434Y-173884504D01*
X114302168Y-173907175D01*
X114374099Y-173936970D01*
X114391433Y-173945802D01*
X114508331Y-174017437D01*
X114524064Y-174028867D01*
X114524525Y-174029261D01*
X114524527Y-174029262D01*
X114628330Y-174117918D01*
X114642077Y-174131665D01*
X114647840Y-174138413D01*
X114666930Y-174160764D01*
X114731123Y-174235924D01*
X114742561Y-174251666D01*
X114814194Y-174368561D01*
X114823027Y-174385898D01*
X114875489Y-174512554D01*
X114875490Y-174512555D01*
X114881503Y-174531061D01*
X114913509Y-174664375D01*
X114916553Y-174683592D01*
X114927311Y-174820269D01*
X114927311Y-174839729D01*
X114916553Y-174976406D01*
X114913509Y-174995623D01*
X114881504Y-175128935D01*
X114875492Y-175147439D01*
X114825750Y-175267532D01*
X114825742Y-175267550D01*
X114823022Y-175274114D01*
X114814195Y-175291435D01*
X114742561Y-175408331D01*
X114731124Y-175424073D01*
X114642083Y-175528325D01*
X114628325Y-175542083D01*
X114524073Y-175631124D01*
X114508331Y-175642561D01*
X114391439Y-175714193D01*
X114374101Y-175723027D01*
X114247440Y-175775491D01*
X114228935Y-175781504D01*
X114095623Y-175813509D01*
X114076406Y-175816553D01*
X113939729Y-175827311D01*
X113920269Y-175827311D01*
X113783592Y-175816553D01*
X113764375Y-175813509D01*
X113631060Y-175781503D01*
X113612555Y-175775490D01*
X113485901Y-175723029D01*
X113468563Y-175714195D01*
X113351668Y-175642561D01*
X113335935Y-175631131D01*
X113332731Y-175628395D01*
X113332722Y-175628388D01*
X113231673Y-175542083D01*
X113217915Y-175528325D01*
X113143103Y-175440732D01*
X113143086Y-175440713D01*
X113128874Y-175424072D01*
X113117440Y-175408335D01*
X113045805Y-175291438D01*
X113036971Y-175274101D01*
X113027040Y-175250127D01*
X112984505Y-175147436D01*
X112978496Y-175128944D01*
X112946488Y-174995619D01*
X112943445Y-174976407D01*
X112943445Y-174976406D01*
X112932687Y-174839718D01*
X112932687Y-174820279D01*
X112943445Y-174683583D01*
X112946489Y-174664375D01*
X112978497Y-174531049D01*
X112984503Y-174512564D01*
X113036972Y-174385892D01*
X113045805Y-174368559D01*
X113117437Y-174251666D01*
X113128874Y-174235924D01*
X113217918Y-174131667D01*
X113231667Y-174117918D01*
X113335928Y-174028871D01*
X113351666Y-174017437D01*
X113420199Y-173975440D01*
X113468562Y-173945803D01*
X113485892Y-173936972D01*
X113612564Y-173884503D01*
X113631049Y-173878497D01*
X113764379Y-173846487D01*
X113783583Y-173843445D01*
X113920279Y-173832687D01*
X113939719Y-173832687D01*
X114076413Y-173843445D01*
G37*
G04 #@! TD.AperFunction*
G04 #@! TA.AperFunction,Conductor*
G36*
X124576413Y-173843445D02*
G01*
X124595623Y-173846488D01*
X124728939Y-173878494D01*
X124747434Y-173884504D01*
X124802168Y-173907175D01*
X124874099Y-173936970D01*
X124891433Y-173945802D01*
X125008331Y-174017437D01*
X125024064Y-174028867D01*
X125024525Y-174029261D01*
X125024527Y-174029262D01*
X125128330Y-174117918D01*
X125142077Y-174131665D01*
X125147840Y-174138413D01*
X125166930Y-174160764D01*
X125231123Y-174235924D01*
X125242561Y-174251666D01*
X125314194Y-174368561D01*
X125323027Y-174385898D01*
X125375489Y-174512554D01*
X125375490Y-174512555D01*
X125381503Y-174531061D01*
X125413509Y-174664375D01*
X125416553Y-174683592D01*
X125427311Y-174820269D01*
X125427311Y-174839729D01*
X125416553Y-174976406D01*
X125413509Y-174995623D01*
X125381504Y-175128935D01*
X125375492Y-175147439D01*
X125325750Y-175267532D01*
X125325742Y-175267550D01*
X125323022Y-175274114D01*
X125314195Y-175291435D01*
X125242561Y-175408331D01*
X125231124Y-175424073D01*
X125142083Y-175528325D01*
X125128325Y-175542083D01*
X125024073Y-175631124D01*
X125008331Y-175642561D01*
X124891439Y-175714193D01*
X124874101Y-175723027D01*
X124747440Y-175775491D01*
X124728935Y-175781504D01*
X124595623Y-175813509D01*
X124576406Y-175816553D01*
X124439729Y-175827311D01*
X124420269Y-175827311D01*
X124283592Y-175816553D01*
X124264375Y-175813509D01*
X124131060Y-175781503D01*
X124112555Y-175775490D01*
X123985901Y-175723029D01*
X123968563Y-175714195D01*
X123851668Y-175642561D01*
X123835935Y-175631131D01*
X123832731Y-175628395D01*
X123832722Y-175628388D01*
X123731673Y-175542083D01*
X123717915Y-175528325D01*
X123643103Y-175440732D01*
X123643086Y-175440713D01*
X123628874Y-175424072D01*
X123617440Y-175408335D01*
X123545805Y-175291438D01*
X123536971Y-175274101D01*
X123527040Y-175250127D01*
X123484505Y-175147436D01*
X123478496Y-175128944D01*
X123446488Y-174995619D01*
X123443445Y-174976407D01*
X123443445Y-174976406D01*
X123432687Y-174839718D01*
X123432687Y-174820279D01*
X123443445Y-174683583D01*
X123446489Y-174664375D01*
X123478497Y-174531049D01*
X123484503Y-174512564D01*
X123536972Y-174385892D01*
X123545805Y-174368559D01*
X123617437Y-174251666D01*
X123628874Y-174235924D01*
X123717918Y-174131667D01*
X123731667Y-174117918D01*
X123835928Y-174028871D01*
X123851666Y-174017437D01*
X123920199Y-173975440D01*
X123968562Y-173945803D01*
X123985892Y-173936972D01*
X124112564Y-173884503D01*
X124131049Y-173878497D01*
X124264379Y-173846487D01*
X124283583Y-173843445D01*
X124420279Y-173832687D01*
X124439719Y-173832687D01*
X124576413Y-173843445D01*
G37*
G04 #@! TD.AperFunction*
G04 #@! TA.AperFunction,Conductor*
G36*
X131576413Y-173843445D02*
G01*
X131595623Y-173846488D01*
X131728939Y-173878494D01*
X131747434Y-173884504D01*
X131802168Y-173907175D01*
X131874099Y-173936970D01*
X131891433Y-173945802D01*
X132008331Y-174017437D01*
X132024064Y-174028867D01*
X132024525Y-174029261D01*
X132024527Y-174029262D01*
X132128330Y-174117918D01*
X132142077Y-174131665D01*
X132147840Y-174138413D01*
X132166930Y-174160764D01*
X132231123Y-174235924D01*
X132242561Y-174251666D01*
X132314194Y-174368561D01*
X132323027Y-174385898D01*
X132375489Y-174512554D01*
X132375490Y-174512555D01*
X132381503Y-174531061D01*
X132413509Y-174664375D01*
X132416553Y-174683592D01*
X132427311Y-174820269D01*
X132427311Y-174839729D01*
X132416553Y-174976406D01*
X132413509Y-174995623D01*
X132381504Y-175128935D01*
X132375492Y-175147439D01*
X132325750Y-175267532D01*
X132325742Y-175267550D01*
X132323022Y-175274114D01*
X132314195Y-175291435D01*
X132242561Y-175408331D01*
X132231124Y-175424073D01*
X132142083Y-175528325D01*
X132128325Y-175542083D01*
X132024073Y-175631124D01*
X132008331Y-175642561D01*
X131891439Y-175714193D01*
X131874101Y-175723027D01*
X131747440Y-175775491D01*
X131728935Y-175781504D01*
X131595623Y-175813509D01*
X131576406Y-175816553D01*
X131439729Y-175827311D01*
X131420269Y-175827311D01*
X131283592Y-175816553D01*
X131264375Y-175813509D01*
X131131060Y-175781503D01*
X131112555Y-175775490D01*
X130985901Y-175723029D01*
X130968563Y-175714195D01*
X130851668Y-175642561D01*
X130835935Y-175631131D01*
X130832731Y-175628395D01*
X130832722Y-175628388D01*
X130731673Y-175542083D01*
X130717915Y-175528325D01*
X130643103Y-175440732D01*
X130643086Y-175440713D01*
X130628874Y-175424072D01*
X130617440Y-175408335D01*
X130545805Y-175291438D01*
X130536971Y-175274101D01*
X130527040Y-175250127D01*
X130484505Y-175147436D01*
X130478496Y-175128944D01*
X130446488Y-174995619D01*
X130443445Y-174976407D01*
X130443445Y-174976406D01*
X130432687Y-174839718D01*
X130432687Y-174820279D01*
X130443445Y-174683583D01*
X130446489Y-174664375D01*
X130478497Y-174531049D01*
X130484503Y-174512564D01*
X130536972Y-174385892D01*
X130545805Y-174368559D01*
X130617437Y-174251666D01*
X130628874Y-174235924D01*
X130717918Y-174131667D01*
X130731667Y-174117918D01*
X130835928Y-174028871D01*
X130851666Y-174017437D01*
X130920199Y-173975440D01*
X130968562Y-173945803D01*
X130985892Y-173936972D01*
X131112564Y-173884503D01*
X131131049Y-173878497D01*
X131264379Y-173846487D01*
X131283583Y-173843445D01*
X131420279Y-173832687D01*
X131439719Y-173832687D01*
X131576413Y-173843445D01*
G37*
G04 #@! TD.AperFunction*
G04 #@! TA.AperFunction,Conductor*
G36*
X135076413Y-173843445D02*
G01*
X135095623Y-173846488D01*
X135228939Y-173878494D01*
X135247434Y-173884504D01*
X135302168Y-173907175D01*
X135374099Y-173936970D01*
X135391433Y-173945802D01*
X135508331Y-174017437D01*
X135524064Y-174028867D01*
X135524525Y-174029261D01*
X135524527Y-174029262D01*
X135628330Y-174117918D01*
X135642077Y-174131665D01*
X135647840Y-174138413D01*
X135666930Y-174160764D01*
X135731123Y-174235924D01*
X135742561Y-174251666D01*
X135814194Y-174368561D01*
X135823027Y-174385898D01*
X135875489Y-174512554D01*
X135875490Y-174512555D01*
X135881503Y-174531061D01*
X135913509Y-174664375D01*
X135916553Y-174683592D01*
X135927311Y-174820269D01*
X135927311Y-174839729D01*
X135916553Y-174976406D01*
X135913509Y-174995623D01*
X135881504Y-175128935D01*
X135875492Y-175147439D01*
X135825750Y-175267532D01*
X135825742Y-175267550D01*
X135823022Y-175274114D01*
X135814195Y-175291435D01*
X135742561Y-175408331D01*
X135731124Y-175424073D01*
X135642083Y-175528325D01*
X135628325Y-175542083D01*
X135524073Y-175631124D01*
X135508331Y-175642561D01*
X135391439Y-175714193D01*
X135374101Y-175723027D01*
X135247440Y-175775491D01*
X135228935Y-175781504D01*
X135095623Y-175813509D01*
X135076406Y-175816553D01*
X134939729Y-175827311D01*
X134920269Y-175827311D01*
X134783592Y-175816553D01*
X134764375Y-175813509D01*
X134631060Y-175781503D01*
X134612555Y-175775490D01*
X134485901Y-175723029D01*
X134468563Y-175714195D01*
X134351668Y-175642561D01*
X134335935Y-175631131D01*
X134332731Y-175628395D01*
X134332722Y-175628388D01*
X134231673Y-175542083D01*
X134217915Y-175528325D01*
X134143103Y-175440732D01*
X134143086Y-175440713D01*
X134128874Y-175424072D01*
X134117440Y-175408335D01*
X134045805Y-175291438D01*
X134036971Y-175274101D01*
X134027040Y-175250127D01*
X133984505Y-175147436D01*
X133978496Y-175128944D01*
X133946488Y-174995619D01*
X133943445Y-174976407D01*
X133943445Y-174976406D01*
X133932687Y-174839718D01*
X133932687Y-174820279D01*
X133943445Y-174683583D01*
X133946489Y-174664375D01*
X133978497Y-174531049D01*
X133984503Y-174512564D01*
X134036972Y-174385892D01*
X134045805Y-174368559D01*
X134117437Y-174251666D01*
X134128874Y-174235924D01*
X134217918Y-174131667D01*
X134231667Y-174117918D01*
X134335928Y-174028871D01*
X134351666Y-174017437D01*
X134420199Y-173975440D01*
X134468562Y-173945803D01*
X134485892Y-173936972D01*
X134612564Y-173884503D01*
X134631049Y-173878497D01*
X134764379Y-173846487D01*
X134783583Y-173843445D01*
X134920279Y-173832687D01*
X134939719Y-173832687D01*
X135076413Y-173843445D01*
G37*
G04 #@! TD.AperFunction*
G04 #@! TA.AperFunction,Conductor*
G36*
X92768343Y-171828188D02*
G01*
X92814098Y-171880992D01*
X92817322Y-171888732D01*
X92818130Y-171890873D01*
X92818132Y-171890880D01*
X92869724Y-172027628D01*
X92869725Y-172027629D01*
X92869725Y-172027630D01*
X92957752Y-172144304D01*
X93007344Y-172193523D01*
X93007347Y-172193526D01*
X93117420Y-172275280D01*
X93119647Y-172276973D01*
X93226160Y-172359876D01*
X93241226Y-172373745D01*
X93322150Y-172461650D01*
X93334725Y-172477806D01*
X93400086Y-172577847D01*
X93409832Y-172595857D01*
X93457828Y-172705277D01*
X93464477Y-172724646D01*
X93479373Y-172783467D01*
X93479375Y-172783478D01*
X93493813Y-172840496D01*
X93497183Y-172860693D01*
X93507050Y-172979761D01*
X93507050Y-173000243D01*
X93497182Y-173119316D01*
X93493812Y-173139515D01*
X93464477Y-173255359D01*
X93457827Y-173274728D01*
X93409834Y-173384143D01*
X93400087Y-173402156D01*
X93334732Y-173502189D01*
X93322153Y-173518350D01*
X93206499Y-173643982D01*
X93166928Y-173692618D01*
X93149344Y-173717149D01*
X93149334Y-173717164D01*
X93116007Y-173770221D01*
X93116006Y-173770223D01*
X93116005Y-173770225D01*
X93094772Y-173827153D01*
X93064925Y-173907175D01*
X93050075Y-173975442D01*
X93049839Y-173977634D01*
X93049760Y-173979861D01*
X93044289Y-174056350D01*
X93019872Y-174121814D01*
X92963938Y-174163685D01*
X92920605Y-174171503D01*
X92398983Y-174171503D01*
X92331944Y-174151818D01*
X92286189Y-174099014D01*
X92275039Y-174051232D01*
X92272478Y-173966091D01*
X92227103Y-173827155D01*
X92196181Y-173764502D01*
X92113502Y-173643979D01*
X91997851Y-173518349D01*
X91985272Y-173502187D01*
X91966728Y-173473803D01*
X91966723Y-173473796D01*
X91919921Y-173402161D01*
X91910173Y-173384149D01*
X91862176Y-173274727D01*
X91855527Y-173255361D01*
X91826189Y-173139509D01*
X91822821Y-173119322D01*
X91812954Y-173000236D01*
X91812954Y-172979763D01*
X91822821Y-172860679D01*
X91826189Y-172840496D01*
X91855528Y-172724638D01*
X91862176Y-172705276D01*
X91910171Y-172595858D01*
X91919919Y-172577846D01*
X91955465Y-172523440D01*
X91985281Y-172477803D01*
X91997854Y-172461650D01*
X92078778Y-172373743D01*
X92093843Y-172359876D01*
X92195109Y-172281056D01*
X92200695Y-172276956D01*
X92287205Y-172217134D01*
X92327732Y-172182017D01*
X92403689Y-172100125D01*
X92473254Y-171971584D01*
X92497425Y-171906029D01*
X92501224Y-171895727D01*
X92503615Y-171896608D01*
X92527751Y-171848173D01*
X92587775Y-171812411D01*
X92618660Y-171808503D01*
X92701304Y-171808503D01*
X92768343Y-171828188D01*
G37*
G04 #@! TD.AperFunction*
G04 #@! TA.AperFunction,Conductor*
G36*
X142106146Y-171475413D02*
G01*
X142104213Y-171476459D01*
X142102656Y-171477452D01*
X141988256Y-171568402D01*
X141988252Y-171568405D01*
X141796647Y-171771494D01*
X141786159Y-171781389D01*
X141574579Y-171958927D01*
X141563012Y-171967539D01*
X141332259Y-172119307D01*
X141319771Y-172126516D01*
X141072969Y-172250465D01*
X141059733Y-172256175D01*
X141016769Y-172271813D01*
X140970409Y-172288687D01*
X140876800Y-172333963D01*
X140834258Y-172360159D01*
X140834257Y-172360160D01*
X140751676Y-172423378D01*
X140751670Y-172423384D01*
X140660552Y-172537642D01*
X140646332Y-172561890D01*
X140595437Y-172609760D01*
X140526741Y-172622514D01*
X140498416Y-172616201D01*
X140233319Y-172523440D01*
X140233317Y-172523439D01*
X139959512Y-172460945D01*
X139959494Y-172460942D01*
X139680431Y-172429500D01*
X139680425Y-172429500D01*
X139399575Y-172429500D01*
X139399568Y-172429500D01*
X139120498Y-172460943D01*
X139120497Y-172460943D01*
X139109690Y-172463410D01*
X139039951Y-172459134D01*
X138983595Y-172417833D01*
X138962763Y-172376194D01*
X138948039Y-172324011D01*
X138948037Y-172324008D01*
X138948037Y-172324007D01*
X138896229Y-172241488D01*
X138870325Y-172200227D01*
X138825131Y-172146942D01*
X138825130Y-172146941D01*
X138715690Y-172050066D01*
X138715685Y-172050063D01*
X138715679Y-172050058D01*
X138590200Y-171967529D01*
X138578633Y-171958918D01*
X138503325Y-171895727D01*
X138367071Y-171781395D01*
X138356583Y-171771500D01*
X138237110Y-171644866D01*
X138237102Y-171644857D01*
X138203429Y-171609166D01*
X138167039Y-171570594D01*
X138157777Y-171559556D01*
X138076216Y-171450000D01*
X142149632Y-171450000D01*
X142106146Y-171475413D01*
G37*
G04 #@! TD.AperFunction*
G04 #@! TA.AperFunction,Conductor*
G36*
X136898830Y-171450681D02*
G01*
X136889562Y-171461726D01*
X136700030Y-171662618D01*
X136689542Y-171672513D01*
X136477966Y-171850048D01*
X136466399Y-171858660D01*
X136235646Y-172010428D01*
X136223166Y-172017632D01*
X136058913Y-172100124D01*
X135976351Y-172141588D01*
X135963111Y-172147299D01*
X135703577Y-172241763D01*
X135689763Y-172245898D01*
X135659958Y-172252962D01*
X135421021Y-172309592D01*
X135406820Y-172312097D01*
X135219746Y-172333963D01*
X135132485Y-172344162D01*
X135118092Y-172345000D01*
X134841908Y-172345000D01*
X134827514Y-172344162D01*
X134740254Y-172333963D01*
X134553171Y-172312096D01*
X134538970Y-172309591D01*
X134270245Y-172245901D01*
X134256431Y-172241766D01*
X133996887Y-172147299D01*
X133983651Y-172141589D01*
X133736824Y-172017628D01*
X133724352Y-172010427D01*
X133493600Y-171858659D01*
X133482033Y-171850049D01*
X133373967Y-171759371D01*
X133373967Y-171759370D01*
X133373966Y-171759370D01*
X133270457Y-171672515D01*
X133259969Y-171662620D01*
X133209537Y-171609166D01*
X133163959Y-171560856D01*
X133163958Y-171560854D01*
X133070436Y-171461727D01*
X133061167Y-171450681D01*
X133060660Y-171450000D01*
X136899337Y-171450000D01*
X136898830Y-171450681D01*
G37*
G04 #@! TD.AperFunction*
G04 #@! TA.AperFunction,Conductor*
G36*
X135132486Y-167355837D02*
G01*
X135406835Y-167387903D01*
X135421032Y-167390407D01*
X135689751Y-167454096D01*
X135703564Y-167458231D01*
X135963112Y-167552699D01*
X135976350Y-167558410D01*
X136159963Y-167650624D01*
X136223172Y-167682368D01*
X136235646Y-167689571D01*
X136370166Y-167778047D01*
X136370167Y-167778047D01*
X136466401Y-167841340D01*
X136477965Y-167849949D01*
X136602195Y-167954191D01*
X136689544Y-168027486D01*
X136700031Y-168037380D01*
X136711523Y-168049561D01*
X136749248Y-168089547D01*
X136749251Y-168089551D01*
X136889566Y-168238275D01*
X136898835Y-168249321D01*
X137057485Y-168462425D01*
X137081286Y-168492042D01*
X137081293Y-168492050D01*
X137093307Y-168505915D01*
X137119250Y-168533705D01*
X137162689Y-168566044D01*
X137236488Y-168620985D01*
X137236492Y-168620987D01*
X137269695Y-168639003D01*
X137297898Y-168654306D01*
X137434967Y-168705018D01*
X137580779Y-168715060D01*
X137645873Y-168710231D01*
X137648095Y-168710149D01*
X137650461Y-168709892D01*
X137721827Y-168694169D01*
X137793194Y-168678447D01*
X137921288Y-168608063D01*
X137976149Y-168566767D01*
X137977063Y-168566093D01*
X137977112Y-168566043D01*
X137977115Y-168566042D01*
X138080189Y-168462419D01*
X138157779Y-168358194D01*
X138167031Y-168347167D01*
X138356597Y-168146243D01*
X138367072Y-168136361D01*
X138578647Y-167958826D01*
X138590189Y-167950232D01*
X138820990Y-167798434D01*
X138833433Y-167791250D01*
X139080276Y-167667280D01*
X139093493Y-167661579D01*
X139353052Y-167567107D01*
X139366854Y-167562976D01*
X139635590Y-167499283D01*
X139649765Y-167496784D01*
X139656434Y-167496005D01*
X139656433Y-167496004D01*
X139658609Y-167495749D01*
X139733621Y-167486988D01*
X139733640Y-167486980D01*
X139924124Y-167464716D01*
X139938519Y-167463879D01*
X140214705Y-167463879D01*
X140229099Y-167464716D01*
X140503448Y-167496782D01*
X140517645Y-167499286D01*
X140786364Y-167562975D01*
X140800177Y-167567110D01*
X141059725Y-167661578D01*
X141072963Y-167667289D01*
X141198685Y-167730429D01*
X141293499Y-167778047D01*
X141319765Y-167791238D01*
X141332248Y-167798444D01*
X141481201Y-167896411D01*
X141481202Y-167896412D01*
X141563024Y-167950227D01*
X141574584Y-167958833D01*
X141668180Y-168037370D01*
X141786157Y-168136365D01*
X141796645Y-168146260D01*
X141899967Y-168255775D01*
X141899970Y-168255779D01*
X141899971Y-168255779D01*
X141906206Y-168262388D01*
X141906207Y-168262390D01*
X141954480Y-168313556D01*
X141989588Y-168350768D01*
X142007208Y-168368530D01*
X142007670Y-168368996D01*
X142016631Y-168377589D01*
X142035645Y-168394929D01*
X142035647Y-168394930D01*
X142035649Y-168394932D01*
X142065717Y-168414269D01*
X142158575Y-168473987D01*
X142164417Y-168476657D01*
X142222123Y-168503033D01*
X142273798Y-168518223D01*
X142362342Y-168544253D01*
X142453071Y-168544282D01*
X142520102Y-168563988D01*
X142565840Y-168616807D01*
X142577029Y-168668322D01*
X142576195Y-171248782D01*
X142556489Y-171315815D01*
X142503670Y-171361553D01*
X142446963Y-171372632D01*
X142443797Y-171372498D01*
X142443796Y-171372498D01*
X142443782Y-171372498D01*
X142298393Y-171387157D01*
X142298386Y-171387159D01*
X142166241Y-171440873D01*
X142119548Y-171450000D01*
X138138491Y-171450000D01*
X138071452Y-171430315D01*
X138039027Y-171400047D01*
X138018617Y-171372632D01*
X137999131Y-171346457D01*
X137999129Y-171346455D01*
X137999119Y-171346441D01*
X137975320Y-171316828D01*
X137963307Y-171302964D01*
X137937359Y-171275169D01*
X137937354Y-171275164D01*
X137820125Y-171187893D01*
X137820114Y-171187886D01*
X137763660Y-171157254D01*
X137761906Y-171156197D01*
X137758712Y-171154569D01*
X137693457Y-171130428D01*
X137621629Y-171103855D01*
X137621627Y-171103854D01*
X137621629Y-171103854D01*
X137475821Y-171093817D01*
X137475807Y-171093817D01*
X137406135Y-171098987D01*
X137263420Y-171130428D01*
X137135320Y-171200815D01*
X137135315Y-171200818D01*
X137079526Y-171242810D01*
X137079501Y-171242829D01*
X136976420Y-171346459D01*
X136936527Y-171400047D01*
X136880704Y-171442066D01*
X136837063Y-171450000D01*
X133122935Y-171450000D01*
X133055896Y-171430315D01*
X133023472Y-171400047D01*
X132896231Y-171229132D01*
X132888307Y-171217085D01*
X132852214Y-171154569D01*
X132750220Y-170977910D01*
X132743750Y-170965028D01*
X132634353Y-170711421D01*
X132629421Y-170697869D01*
X132550204Y-170433263D01*
X132546880Y-170419236D01*
X132498924Y-170147260D01*
X132497250Y-170132938D01*
X132492213Y-170046450D01*
X132481190Y-169857190D01*
X132481190Y-169842802D01*
X132497250Y-169567056D01*
X132498924Y-169552737D01*
X132546881Y-169280753D01*
X132550205Y-169266730D01*
X132563269Y-169223096D01*
X132629423Y-169002121D01*
X132634350Y-168988583D01*
X132743754Y-168734959D01*
X132750216Y-168722094D01*
X132888312Y-168482903D01*
X132896231Y-168470865D01*
X132972416Y-168368530D01*
X133061165Y-168249318D01*
X133070422Y-168238284D01*
X133259984Y-168037363D01*
X133270459Y-168027482D01*
X133482034Y-167849947D01*
X133493576Y-167841353D01*
X133724377Y-167689555D01*
X133736820Y-167682371D01*
X133983663Y-167558401D01*
X133996880Y-167552700D01*
X134256439Y-167458228D01*
X134270241Y-167454097D01*
X134538977Y-167390404D01*
X134553152Y-167387905D01*
X134559821Y-167387126D01*
X134559820Y-167387125D01*
X134561996Y-167386870D01*
X134637008Y-167378109D01*
X134637027Y-167378101D01*
X134827511Y-167355837D01*
X134841906Y-167355000D01*
X135118092Y-167355000D01*
X135132486Y-167355837D01*
G37*
G04 #@! TD.AperFunction*
G04 #@! TA.AperFunction,Conductor*
G36*
X126394501Y-141268566D02*
G01*
X126407859Y-141276278D01*
X126407860Y-141276278D01*
X126407865Y-141276281D01*
X126554234Y-141315500D01*
X126554236Y-141315500D01*
X126705764Y-141315500D01*
X126705766Y-141315500D01*
X126713442Y-141313443D01*
X126783291Y-141315104D01*
X126841154Y-141354266D01*
X126868660Y-141418494D01*
X126869537Y-141433217D01*
X126869537Y-142483755D01*
X126849852Y-142550794D01*
X126797048Y-142596549D01*
X126771318Y-142605045D01*
X126601203Y-142641204D01*
X126513969Y-142680043D01*
X126438325Y-142713722D01*
X126426735Y-142718882D01*
X126272234Y-142831134D01*
X126144448Y-142973056D01*
X126048962Y-143138442D01*
X126048959Y-143138449D01*
X125989948Y-143320067D01*
X125989947Y-143320071D01*
X125969985Y-143509999D01*
X125989947Y-143699927D01*
X125989948Y-143699930D01*
X126048959Y-143881548D01*
X126048962Y-143881555D01*
X126144449Y-144046943D01*
X126272236Y-144188865D01*
X126426737Y-144301117D01*
X126601201Y-144378793D01*
X126788002Y-144418499D01*
X126978976Y-144418499D01*
X127165777Y-144378793D01*
X127340241Y-144301117D01*
X127494742Y-144188865D01*
X127622529Y-144046943D01*
X127718016Y-143881555D01*
X127718016Y-143881553D01*
X127721265Y-143875927D01*
X127723574Y-143877260D01*
X127761156Y-143833034D01*
X127828003Y-143812704D01*
X127895229Y-143831741D01*
X127941491Y-143884101D01*
X127953199Y-143936698D01*
X127953199Y-144479155D01*
X127977542Y-144601534D01*
X127977544Y-144601542D01*
X128025297Y-144716829D01*
X128025302Y-144716838D01*
X128094626Y-144820588D01*
X128094627Y-144820589D01*
X128094628Y-144820590D01*
X128239990Y-144965952D01*
X128273474Y-145027273D01*
X128276308Y-145053632D01*
X128276308Y-147115168D01*
X128256623Y-147182207D01*
X128244458Y-147198140D01*
X128170771Y-147279977D01*
X128170766Y-147279984D01*
X128075281Y-147445370D01*
X128075278Y-147445377D01*
X128020192Y-147614916D01*
X128016266Y-147626999D01*
X128011270Y-147674538D01*
X127984685Y-147739153D01*
X127927387Y-147779137D01*
X127857568Y-147781797D01*
X127800268Y-147749257D01*
X125319819Y-145268808D01*
X125286334Y-145207485D01*
X125283500Y-145181127D01*
X125283500Y-144071756D01*
X125303185Y-144004717D01*
X125315346Y-143988788D01*
X125389040Y-143906944D01*
X125484527Y-143741556D01*
X125543542Y-143559928D01*
X125563504Y-143370000D01*
X125543542Y-143180072D01*
X125484527Y-142998444D01*
X125459846Y-142955696D01*
X125443373Y-142887798D01*
X125466225Y-142821771D01*
X125519781Y-142779136D01*
X125593864Y-142748450D01*
X125629756Y-142733583D01*
X125677697Y-142713725D01*
X125677697Y-142713724D01*
X125677704Y-142713722D01*
X125842881Y-142603354D01*
X125983353Y-142462882D01*
X126093721Y-142297705D01*
X126169744Y-142114170D01*
X126208500Y-141919330D01*
X126208500Y-141375952D01*
X126228185Y-141308913D01*
X126280989Y-141263158D01*
X126350147Y-141253214D01*
X126394501Y-141268566D01*
G37*
G04 #@! TD.AperFunction*
G04 #@! TA.AperFunction,Conductor*
G36*
X76841021Y-133941886D02*
G01*
X76908053Y-133961578D01*
X76953801Y-134014388D01*
X76965000Y-134065885D01*
X76965000Y-140490000D01*
X77826979Y-140490000D01*
X77894018Y-140509685D01*
X77939773Y-140562489D01*
X77949717Y-140631647D01*
X77920692Y-140695203D01*
X77914660Y-140701681D01*
X75901703Y-142714638D01*
X75840380Y-142748123D01*
X75814022Y-142750957D01*
X75757301Y-142750957D01*
X75570502Y-142790662D01*
X75396031Y-142868341D01*
X75370243Y-142887078D01*
X75304437Y-142910558D01*
X75236383Y-142894732D01*
X75187688Y-142844626D01*
X75179427Y-142825078D01*
X75178753Y-142823005D01*
X75154527Y-142748444D01*
X75059040Y-142583056D01*
X74931253Y-142441134D01*
X74776752Y-142328882D01*
X74602288Y-142251206D01*
X74602286Y-142251205D01*
X74415487Y-142211500D01*
X74224513Y-142211500D01*
X74037714Y-142251205D01*
X74037712Y-142251206D01*
X73871815Y-142325068D01*
X73863246Y-142328883D01*
X73708745Y-142441135D01*
X73580959Y-142583057D01*
X73485473Y-142748443D01*
X73485470Y-142748450D01*
X73426459Y-142930068D01*
X73426458Y-142930072D01*
X73406496Y-143120000D01*
X73426458Y-143309928D01*
X73426459Y-143309931D01*
X73485470Y-143491549D01*
X73485473Y-143491556D01*
X73580960Y-143656944D01*
X73664283Y-143749484D01*
X73707223Y-143797174D01*
X73708747Y-143798866D01*
X73863248Y-143911118D01*
X74037712Y-143988794D01*
X74224513Y-144028500D01*
X74415487Y-144028500D01*
X74602288Y-143988794D01*
X74776752Y-143911118D01*
X74802543Y-143892379D01*
X74868348Y-143868899D01*
X74936403Y-143884724D01*
X74985098Y-143934829D01*
X74993360Y-143954378D01*
X75018259Y-144031009D01*
X75018261Y-144031013D01*
X75113748Y-144196401D01*
X75241535Y-144338323D01*
X75396036Y-144450575D01*
X75570500Y-144528251D01*
X75757301Y-144567957D01*
X75948275Y-144567957D01*
X76135076Y-144528251D01*
X76309540Y-144450575D01*
X76464041Y-144338323D01*
X76591828Y-144196401D01*
X76687315Y-144031013D01*
X76746330Y-143849385D01*
X76763769Y-143683454D01*
X76790352Y-143618844D01*
X76799399Y-143608748D01*
X79158330Y-141249819D01*
X79219653Y-141216334D01*
X79246011Y-141213500D01*
X80526166Y-141213500D01*
X80593205Y-141233185D01*
X80638960Y-141285989D01*
X80648904Y-141355147D01*
X80619879Y-141418703D01*
X80613847Y-141425181D01*
X80060333Y-141978696D01*
X79999010Y-142012181D01*
X79972652Y-142015015D01*
X79915931Y-142015015D01*
X79729132Y-142054720D01*
X79554664Y-142132398D01*
X79400163Y-142244650D01*
X79272377Y-142386572D01*
X79176891Y-142551958D01*
X79176888Y-142551965D01*
X79124033Y-142714638D01*
X79117876Y-142733587D01*
X79097914Y-142923515D01*
X79117876Y-143113443D01*
X79117877Y-143113446D01*
X79176888Y-143295064D01*
X79176891Y-143295071D01*
X79272378Y-143460459D01*
X79400165Y-143602381D01*
X79554666Y-143714633D01*
X79729130Y-143792309D01*
X79915931Y-143832015D01*
X80106905Y-143832015D01*
X80293706Y-143792309D01*
X80311890Y-143784212D01*
X80381138Y-143774927D01*
X80435211Y-143797174D01*
X80541784Y-143874604D01*
X80541786Y-143874605D01*
X80541789Y-143874607D01*
X80716253Y-143952283D01*
X80903054Y-143991989D01*
X81094028Y-143991989D01*
X81280829Y-143952283D01*
X81455293Y-143874607D01*
X81609794Y-143762355D01*
X81737581Y-143620433D01*
X81833068Y-143455045D01*
X81892083Y-143273417D01*
X81912045Y-143083489D01*
X81892083Y-142893561D01*
X81837476Y-142725502D01*
X81835482Y-142655664D01*
X81867725Y-142599507D01*
X82317415Y-142149819D01*
X82378738Y-142116334D01*
X82405096Y-142113500D01*
X83904442Y-142113500D01*
X83904443Y-142113499D01*
X84026832Y-142089155D01*
X84142122Y-142041400D01*
X84245880Y-141972071D01*
X84783140Y-141434811D01*
X84844463Y-141401326D01*
X84870821Y-141398492D01*
X85008359Y-141398492D01*
X85008360Y-141398491D01*
X85130749Y-141374147D01*
X85246039Y-141326392D01*
X85349797Y-141257063D01*
X87036085Y-139570775D01*
X87097408Y-139537290D01*
X87123766Y-139534456D01*
X87841439Y-139534456D01*
X87841440Y-139534455D01*
X87963829Y-139510111D01*
X88079119Y-139462356D01*
X88182877Y-139393027D01*
X89187973Y-138387931D01*
X89249296Y-138354446D01*
X89318988Y-138359430D01*
X89374921Y-138401302D01*
X89399338Y-138466766D01*
X89393585Y-138513929D01*
X89385428Y-138539033D01*
X89385427Y-138539037D01*
X89385427Y-138539039D01*
X89365465Y-138728967D01*
X89385427Y-138918895D01*
X89385428Y-138918898D01*
X89444439Y-139100516D01*
X89444442Y-139100523D01*
X89539929Y-139265911D01*
X89562645Y-139291139D01*
X89586244Y-139317350D01*
X89616473Y-139380342D01*
X89607847Y-139449677D01*
X89563105Y-139503342D01*
X89544529Y-139513600D01*
X89498976Y-139533881D01*
X89344473Y-139646135D01*
X89216687Y-139788057D01*
X89121201Y-139953443D01*
X89121198Y-139953450D01*
X89069091Y-140113821D01*
X89062186Y-140135072D01*
X89042224Y-140325000D01*
X89062186Y-140514928D01*
X89062187Y-140514931D01*
X89121198Y-140696549D01*
X89121201Y-140696556D01*
X89208128Y-140847119D01*
X89216688Y-140861944D01*
X89290377Y-140943784D01*
X89320608Y-141006775D01*
X89322228Y-141026756D01*
X89322228Y-142468126D01*
X89346571Y-142590505D01*
X89346573Y-142590513D01*
X89394326Y-142705800D01*
X89394331Y-142705809D01*
X89463656Y-142809560D01*
X89463659Y-142809564D01*
X91628229Y-144974134D01*
X91661714Y-145035457D01*
X91656730Y-145105149D01*
X91631781Y-145145794D01*
X91609280Y-145170237D01*
X91486144Y-145358712D01*
X91395708Y-145564888D01*
X91340441Y-145783131D01*
X91340439Y-145783143D01*
X91321849Y-146007497D01*
X91321849Y-146007508D01*
X91323900Y-146032260D01*
X91309819Y-146100696D01*
X91260974Y-146150655D01*
X91200324Y-146166500D01*
X90190976Y-146166500D01*
X90123937Y-146146815D01*
X90078182Y-146094011D01*
X90068238Y-146024853D01*
X90083590Y-145980499D01*
X90094525Y-145961559D01*
X90094527Y-145961556D01*
X90153542Y-145779928D01*
X90173504Y-145590000D01*
X90153542Y-145400072D01*
X90094527Y-145218444D01*
X89999040Y-145053056D01*
X89871253Y-144911134D01*
X89716752Y-144798882D01*
X89542288Y-144721206D01*
X89542286Y-144721205D01*
X89355487Y-144681500D01*
X89164513Y-144681500D01*
X88977714Y-144721205D01*
X88890480Y-144760044D01*
X88806894Y-144797259D01*
X88803246Y-144798883D01*
X88648745Y-144911135D01*
X88520959Y-145053057D01*
X88425473Y-145218443D01*
X88425470Y-145218450D01*
X88371702Y-145383933D01*
X88366458Y-145400072D01*
X88346496Y-145590000D01*
X88366458Y-145779928D01*
X88366459Y-145779931D01*
X88425470Y-145961549D01*
X88425473Y-145961556D01*
X88520960Y-146126944D01*
X88578495Y-146190843D01*
X88594793Y-146208944D01*
X88625023Y-146271936D01*
X88616398Y-146341271D01*
X88594793Y-146374888D01*
X88478300Y-146504267D01*
X88382814Y-146669653D01*
X88382811Y-146669660D01*
X88333370Y-146821825D01*
X88323799Y-146851282D01*
X88303837Y-147041210D01*
X88323799Y-147231138D01*
X88323800Y-147231141D01*
X88382811Y-147412759D01*
X88382814Y-147412766D01*
X88478301Y-147578154D01*
X88606088Y-147720076D01*
X88760589Y-147832328D01*
X88935053Y-147910004D01*
X89121854Y-147949710D01*
X89312828Y-147949710D01*
X89499629Y-147910004D01*
X89674093Y-147832328D01*
X89828594Y-147720076D01*
X89956381Y-147578154D01*
X89995075Y-147511134D01*
X90004101Y-147495501D01*
X90054667Y-147447285D01*
X90111488Y-147433500D01*
X90268776Y-147433500D01*
X90335815Y-147453185D01*
X90381570Y-147505989D01*
X90391514Y-147575147D01*
X90386707Y-147595818D01*
X90341462Y-147735068D01*
X90341461Y-147735072D01*
X90321499Y-147925000D01*
X90341461Y-148114928D01*
X90341462Y-148114931D01*
X90400473Y-148296549D01*
X90400476Y-148296556D01*
X90495963Y-148461944D01*
X90550874Y-148522929D01*
X90570920Y-148545192D01*
X90601150Y-148608183D01*
X90592525Y-148677519D01*
X90547783Y-148731184D01*
X90481131Y-148752142D01*
X90478770Y-148752164D01*
X88824735Y-148752164D01*
X88757696Y-148732479D01*
X88737054Y-148715845D01*
X88544141Y-148522931D01*
X88544137Y-148522928D01*
X88440386Y-148453603D01*
X88440377Y-148453598D01*
X88325090Y-148405845D01*
X88325082Y-148405843D01*
X88202703Y-148381500D01*
X88202699Y-148381500D01*
X87502089Y-148381500D01*
X87377301Y-148381500D01*
X87377296Y-148381500D01*
X87254917Y-148405843D01*
X87254909Y-148405845D01*
X87139622Y-148453598D01*
X87139613Y-148453603D01*
X87035862Y-148522928D01*
X87035857Y-148522932D01*
X86989202Y-148569587D01*
X86927879Y-148603071D01*
X86858187Y-148598086D01*
X86802254Y-148556214D01*
X86783591Y-148520223D01*
X86724529Y-148338450D01*
X86724528Y-148338449D01*
X86724527Y-148338444D01*
X86629040Y-148173056D01*
X86513981Y-148045270D01*
X86501254Y-148031135D01*
X86443100Y-147988883D01*
X86346752Y-147918882D01*
X86172288Y-147841206D01*
X86172286Y-147841205D01*
X85985487Y-147801500D01*
X85794513Y-147801500D01*
X85607714Y-147841205D01*
X85607712Y-147841206D01*
X85453189Y-147910004D01*
X85433246Y-147918883D01*
X85278745Y-148031135D01*
X85150959Y-148173057D01*
X85055473Y-148338443D01*
X85055470Y-148338450D01*
X85001678Y-148504006D01*
X84996458Y-148520072D01*
X84976496Y-148710000D01*
X84996458Y-148899928D01*
X84996459Y-148899931D01*
X85055470Y-149081549D01*
X85055473Y-149081556D01*
X85150960Y-149246944D01*
X85224342Y-149328443D01*
X85274981Y-149384684D01*
X85278747Y-149388866D01*
X85433248Y-149501118D01*
X85607712Y-149578794D01*
X85607714Y-149578794D01*
X85607715Y-149578795D01*
X85655841Y-149589024D01*
X85691347Y-149596571D01*
X85752829Y-149629763D01*
X85786606Y-149690926D01*
X85781954Y-149760640D01*
X85753248Y-149805542D01*
X85665710Y-149893079D01*
X85665707Y-149893083D01*
X85596382Y-149996834D01*
X85596377Y-149996843D01*
X85548624Y-150112130D01*
X85548622Y-150112138D01*
X85524279Y-150234517D01*
X85524279Y-152827725D01*
X85548622Y-152950104D01*
X85548624Y-152950112D01*
X85596377Y-153065399D01*
X85596382Y-153065408D01*
X85665707Y-153169159D01*
X85665710Y-153169163D01*
X85801997Y-153305450D01*
X85835482Y-153366773D01*
X85837636Y-153380165D01*
X85855076Y-153546094D01*
X85855077Y-153546097D01*
X85914088Y-153727715D01*
X85914091Y-153727722D01*
X86009573Y-153893103D01*
X86009849Y-153893482D01*
X86009940Y-153893738D01*
X86012827Y-153898738D01*
X86011913Y-153899265D01*
X86033334Y-153959286D01*
X86022819Y-154016806D01*
X86021201Y-154020439D01*
X85967471Y-154185804D01*
X85962186Y-154202070D01*
X85942224Y-154391998D01*
X85962186Y-154581926D01*
X85962187Y-154581929D01*
X86021198Y-154763547D01*
X86021201Y-154763554D01*
X86116687Y-154928941D01*
X86120506Y-154934197D01*
X86119416Y-154934988D01*
X86146548Y-154991522D01*
X86137923Y-155060857D01*
X86093182Y-155114523D01*
X86026529Y-155135481D01*
X86024168Y-155135503D01*
X85630975Y-155135503D01*
X85563936Y-155115818D01*
X85558089Y-155111821D01*
X85557269Y-155111225D01*
X85557268Y-155111224D01*
X85402767Y-154998972D01*
X85228303Y-154921296D01*
X85228301Y-154921295D01*
X85041502Y-154881590D01*
X84850528Y-154881590D01*
X84663729Y-154921295D01*
X84647580Y-154928485D01*
X84567691Y-154964054D01*
X84489261Y-154998973D01*
X84334760Y-155111225D01*
X84206974Y-155253147D01*
X84111488Y-155418533D01*
X84111485Y-155418540D01*
X84070961Y-155543261D01*
X84052473Y-155600162D01*
X84032511Y-155790090D01*
X84052473Y-155980018D01*
X84052474Y-155980021D01*
X84111485Y-156161639D01*
X84111488Y-156161646D01*
X84206975Y-156327034D01*
X84334762Y-156468956D01*
X84489263Y-156581208D01*
X84663727Y-156658884D01*
X84691342Y-156664753D01*
X84752821Y-156697945D01*
X84783489Y-156747722D01*
X84795612Y-156785032D01*
X84797607Y-156854872D01*
X84769833Y-156906320D01*
X84738630Y-156940975D01*
X84738626Y-156940980D01*
X84643142Y-157106364D01*
X84643139Y-157106371D01*
X84591211Y-157266190D01*
X84584127Y-157287993D01*
X84564165Y-157477921D01*
X84584127Y-157667849D01*
X84584128Y-157667852D01*
X84643139Y-157849470D01*
X84643142Y-157849477D01*
X84734068Y-158006966D01*
X84738629Y-158014865D01*
X84812318Y-158096705D01*
X84842549Y-158159696D01*
X84844169Y-158179677D01*
X84844169Y-160189609D01*
X84824484Y-160256648D01*
X84771680Y-160302403D01*
X84770607Y-160302887D01*
X84745916Y-160313880D01*
X84745914Y-160313881D01*
X84591411Y-160426135D01*
X84463625Y-160568057D01*
X84368139Y-160733443D01*
X84368136Y-160733450D01*
X84310266Y-160911556D01*
X84309124Y-160915072D01*
X84289162Y-161105000D01*
X84309124Y-161294928D01*
X84309125Y-161294931D01*
X84368136Y-161476549D01*
X84368139Y-161476556D01*
X84463626Y-161641944D01*
X84591413Y-161783866D01*
X84745914Y-161896118D01*
X84920378Y-161973794D01*
X85107179Y-162013500D01*
X85298153Y-162013500D01*
X85484954Y-161973794D01*
X85652234Y-161899316D01*
X85721480Y-161890032D01*
X85753097Y-161899315D01*
X85920381Y-161973794D01*
X86107182Y-162013500D01*
X86298158Y-162013500D01*
X86304617Y-162012821D01*
X86304821Y-162014764D01*
X86365199Y-162019366D01*
X86420937Y-162061498D01*
X86428711Y-162073343D01*
X86437461Y-162088497D01*
X86439451Y-162091944D01*
X86567238Y-162233866D01*
X86721739Y-162346118D01*
X86896203Y-162423794D01*
X87083004Y-162463500D01*
X87273978Y-162463500D01*
X87460779Y-162423794D01*
X87635243Y-162346118D01*
X87789744Y-162233866D01*
X87917531Y-162091944D01*
X88013018Y-161926556D01*
X88072033Y-161744928D01*
X88091995Y-161555000D01*
X88072033Y-161365072D01*
X88013018Y-161183444D01*
X87917531Y-161018056D01*
X87860184Y-160954365D01*
X87858020Y-160951962D01*
X87827790Y-160888970D01*
X87826170Y-160868990D01*
X87826170Y-159608847D01*
X87845855Y-159541808D01*
X87898659Y-159496053D01*
X87967817Y-159486109D01*
X88031373Y-159515134D01*
X88037851Y-159521166D01*
X89873633Y-161356948D01*
X89925479Y-161408794D01*
X89961872Y-161445187D01*
X90065622Y-161514511D01*
X90065628Y-161514514D01*
X90065629Y-161514515D01*
X90180919Y-161562270D01*
X90303305Y-161586614D01*
X90303309Y-161586615D01*
X90303310Y-161586615D01*
X103037700Y-161586615D01*
X103037701Y-161586614D01*
X103160090Y-161562270D01*
X103275380Y-161514515D01*
X103379138Y-161445186D01*
X108186802Y-156637522D01*
X108248125Y-156604037D01*
X108317817Y-156609021D01*
X108373750Y-156650893D01*
X108398167Y-156716357D01*
X108393750Y-156759135D01*
X108381667Y-156801602D01*
X108361430Y-157019999D01*
X108361430Y-157020000D01*
X108381667Y-157238396D01*
X108441691Y-157449363D01*
X108539453Y-157645695D01*
X108539458Y-157645703D01*
X108593272Y-157716964D01*
X108671636Y-157820734D01*
X108833727Y-157968499D01*
X109020209Y-158083964D01*
X109224732Y-158163197D01*
X109440333Y-158203500D01*
X109440335Y-158203500D01*
X109659665Y-158203500D01*
X109659667Y-158203500D01*
X109875268Y-158163197D01*
X110079791Y-158083964D01*
X110266273Y-157968499D01*
X110420688Y-157827732D01*
X110428362Y-157820736D01*
X110440937Y-157804085D01*
X110451046Y-157790697D01*
X110507155Y-157749062D01*
X110576867Y-157744371D01*
X110638049Y-157778113D01*
X110648954Y-157790698D01*
X110671637Y-157820736D01*
X110799113Y-157936944D01*
X110833727Y-157968499D01*
X111020209Y-158083964D01*
X111224732Y-158163197D01*
X111440333Y-158203500D01*
X111440335Y-158203500D01*
X111659665Y-158203500D01*
X111659667Y-158203500D01*
X111875268Y-158163197D01*
X112079791Y-158083964D01*
X112266273Y-157968499D01*
X112428364Y-157820734D01*
X112560543Y-157645701D01*
X112658309Y-157449361D01*
X112718332Y-157238399D01*
X112738570Y-157020000D01*
X112718332Y-156801601D01*
X112658309Y-156590639D01*
X112656504Y-156587014D01*
X112560546Y-156394304D01*
X112560541Y-156394296D01*
X112494881Y-156307349D01*
X112428364Y-156219266D01*
X112310298Y-156111635D01*
X112274019Y-156051926D01*
X112275779Y-155982079D01*
X112310298Y-155928364D01*
X112428364Y-155820734D01*
X112560543Y-155645701D01*
X112658309Y-155449361D01*
X112682640Y-155363844D01*
X114692652Y-155363844D01*
X114712614Y-155553772D01*
X114712615Y-155553775D01*
X114771626Y-155735393D01*
X114771629Y-155735400D01*
X114867030Y-155900640D01*
X114867116Y-155900788D01*
X114940805Y-155982628D01*
X114971036Y-156045619D01*
X114972656Y-156065600D01*
X114972656Y-156888554D01*
X114996999Y-157010933D01*
X114997001Y-157010941D01*
X115044754Y-157126228D01*
X115044759Y-157126237D01*
X115114084Y-157229988D01*
X115114087Y-157229992D01*
X115233378Y-157349283D01*
X115266863Y-157410606D01*
X115269018Y-157424002D01*
X115277432Y-157504054D01*
X115286458Y-157589928D01*
X115286459Y-157589931D01*
X115345470Y-157771549D01*
X115345473Y-157771556D01*
X115440960Y-157936944D01*
X115568747Y-158078866D01*
X115701946Y-158175641D01*
X115714752Y-158184945D01*
X115757417Y-158240275D01*
X115763396Y-158309889D01*
X115762072Y-158315703D01*
X115730436Y-158440628D01*
X115730434Y-158440640D01*
X115711844Y-158664994D01*
X115711844Y-158665005D01*
X115730434Y-158889359D01*
X115730436Y-158889371D01*
X115785703Y-159107614D01*
X115876140Y-159313792D01*
X115999276Y-159502265D01*
X115999284Y-159502276D01*
X116151756Y-159667902D01*
X116151761Y-159667907D01*
X116156000Y-159671206D01*
X116329424Y-159806189D01*
X116329429Y-159806191D01*
X116329431Y-159806193D01*
X116365930Y-159825946D01*
X116415520Y-159875165D01*
X116430628Y-159943382D01*
X116406457Y-160008937D01*
X116365930Y-160044054D01*
X116329431Y-160063806D01*
X116329422Y-160063812D01*
X116151761Y-160202092D01*
X116151756Y-160202097D01*
X115999284Y-160367723D01*
X115999276Y-160367734D01*
X115876140Y-160556207D01*
X115785703Y-160762385D01*
X115730436Y-160980628D01*
X115730434Y-160980640D01*
X115711844Y-161204994D01*
X115711844Y-161205005D01*
X115730434Y-161429359D01*
X115730436Y-161429371D01*
X115785703Y-161647614D01*
X115876140Y-161853792D01*
X115999276Y-162042265D01*
X115999284Y-162042276D01*
X116119513Y-162172877D01*
X116151760Y-162207906D01*
X116329424Y-162346189D01*
X116329425Y-162346189D01*
X116329427Y-162346191D01*
X116434505Y-162403056D01*
X116527426Y-162453342D01*
X116740365Y-162526444D01*
X116962431Y-162563500D01*
X117187569Y-162563500D01*
X117409635Y-162526444D01*
X117622574Y-162453342D01*
X117820576Y-162346189D01*
X117998240Y-162207906D01*
X118067908Y-162132226D01*
X118127793Y-162096237D01*
X118197631Y-162098337D01*
X118255247Y-162137860D01*
X118275318Y-162172877D01*
X118321645Y-162297086D01*
X118321649Y-162297093D01*
X118407809Y-162412187D01*
X118407812Y-162412190D01*
X118522906Y-162498350D01*
X118522913Y-162498354D01*
X118657620Y-162548596D01*
X118657627Y-162548598D01*
X118717155Y-162554999D01*
X118717172Y-162555000D01*
X119365000Y-162555000D01*
X119365000Y-161638012D01*
X119422007Y-161670925D01*
X119549174Y-161705000D01*
X119680826Y-161705000D01*
X119807993Y-161670925D01*
X119865000Y-161638012D01*
X119865000Y-162555000D01*
X120512828Y-162555000D01*
X120512844Y-162554999D01*
X120572372Y-162548598D01*
X120572379Y-162548596D01*
X120707086Y-162498354D01*
X120707093Y-162498350D01*
X120822187Y-162412190D01*
X120822190Y-162412187D01*
X120908350Y-162297093D01*
X120908354Y-162297086D01*
X120958596Y-162162379D01*
X120958598Y-162162372D01*
X120964999Y-162102844D01*
X120965000Y-162102827D01*
X120965000Y-161455000D01*
X120048012Y-161455000D01*
X120080925Y-161397993D01*
X120115000Y-161270826D01*
X120115000Y-161139174D01*
X120080925Y-161012007D01*
X120048012Y-160955000D01*
X120965000Y-160955000D01*
X120965000Y-160540000D01*
X125156496Y-160540000D01*
X125176458Y-160729928D01*
X125176459Y-160729931D01*
X125235470Y-160911549D01*
X125235473Y-160911556D01*
X125330960Y-161076944D01*
X125356222Y-161105000D01*
X125446266Y-161205005D01*
X125458747Y-161218866D01*
X125613248Y-161331118D01*
X125787712Y-161408794D01*
X125974513Y-161448500D01*
X126165487Y-161448500D01*
X126352288Y-161408794D01*
X126526752Y-161331118D01*
X126681253Y-161218866D01*
X126809040Y-161076944D01*
X126904527Y-160911556D01*
X126963542Y-160729928D01*
X126983504Y-160540000D01*
X126963542Y-160350072D01*
X126934276Y-160260000D01*
X130946807Y-160260000D01*
X130965557Y-160534130D01*
X130965558Y-160534132D01*
X131021458Y-160803141D01*
X131021463Y-160803158D01*
X131113476Y-161062056D01*
X131239889Y-161306024D01*
X131239893Y-161306030D01*
X131398340Y-161530499D01*
X131398343Y-161530502D01*
X131585889Y-161731314D01*
X131799031Y-161904718D01*
X131799033Y-161904719D01*
X131799034Y-161904720D01*
X132033801Y-162047485D01*
X132228900Y-162132228D01*
X132285823Y-162156953D01*
X132550404Y-162231085D01*
X132789720Y-162263978D01*
X132822614Y-162268500D01*
X132822615Y-162268500D01*
X133097386Y-162268500D01*
X133126733Y-162264466D01*
X133369596Y-162231085D01*
X133634177Y-162156953D01*
X133877090Y-162051441D01*
X133886198Y-162047485D01*
X133894782Y-162042265D01*
X134120969Y-161904718D01*
X134334111Y-161731314D01*
X134521657Y-161530502D01*
X134680111Y-161306023D01*
X134806523Y-161062058D01*
X134898538Y-160803153D01*
X134898539Y-160803146D01*
X134898541Y-160803141D01*
X134924491Y-160678259D01*
X134954442Y-160534130D01*
X134973193Y-160260000D01*
X134954442Y-159985870D01*
X134928522Y-159861135D01*
X134898541Y-159716858D01*
X134898536Y-159716841D01*
X134853031Y-159588803D01*
X134806523Y-159457942D01*
X134680111Y-159213977D01*
X134680110Y-159213975D01*
X134680106Y-159213969D01*
X134521659Y-158989500D01*
X134494177Y-158960074D01*
X134334111Y-158788686D01*
X134120969Y-158615282D01*
X134120967Y-158615281D01*
X134120965Y-158615279D01*
X133886198Y-158472514D01*
X133634178Y-158363047D01*
X133369602Y-158288916D01*
X133369597Y-158288915D01*
X133369596Y-158288915D01*
X133233490Y-158270207D01*
X133097386Y-158251500D01*
X133097385Y-158251500D01*
X132822615Y-158251500D01*
X132822614Y-158251500D01*
X132550404Y-158288915D01*
X132550397Y-158288916D01*
X132285821Y-158363047D01*
X132033801Y-158472514D01*
X131799034Y-158615279D01*
X131585892Y-158788683D01*
X131585889Y-158788685D01*
X131585889Y-158788686D01*
X131568381Y-158807432D01*
X131398340Y-158989500D01*
X131239893Y-159213969D01*
X131239889Y-159213975D01*
X131113476Y-159457943D01*
X131021463Y-159716841D01*
X131021458Y-159716858D01*
X130965558Y-159985867D01*
X130965557Y-159985869D01*
X130946807Y-160260000D01*
X126934276Y-160260000D01*
X126904527Y-160168444D01*
X126809040Y-160003056D01*
X126681253Y-159861134D01*
X126526752Y-159748882D01*
X126352288Y-159671206D01*
X126352286Y-159671205D01*
X126165487Y-159631500D01*
X125974513Y-159631500D01*
X125787714Y-159671205D01*
X125613246Y-159748883D01*
X125458745Y-159861135D01*
X125330959Y-160003057D01*
X125235473Y-160168443D01*
X125235470Y-160168450D01*
X125186354Y-160319615D01*
X125176458Y-160350072D01*
X125156496Y-160540000D01*
X120965000Y-160540000D01*
X120965000Y-160307172D01*
X120964999Y-160307155D01*
X120958598Y-160247627D01*
X120958596Y-160247620D01*
X120908354Y-160112913D01*
X120908350Y-160112906D01*
X120822190Y-159997812D01*
X120822187Y-159997809D01*
X120707093Y-159911649D01*
X120707088Y-159911646D01*
X120587188Y-159866926D01*
X120531255Y-159825054D01*
X120506838Y-159759590D01*
X120521690Y-159691317D01*
X120539286Y-159666769D01*
X120690722Y-159502268D01*
X120813860Y-159313791D01*
X120904296Y-159107616D01*
X120959564Y-158889368D01*
X120963755Y-158838789D01*
X120978156Y-158665005D01*
X120978156Y-158664994D01*
X120959565Y-158440640D01*
X120959563Y-158440628D01*
X120928479Y-158317879D01*
X120904296Y-158222384D01*
X120813860Y-158016209D01*
X120812981Y-158014864D01*
X120731132Y-157889584D01*
X120690722Y-157827732D01*
X120690719Y-157827729D01*
X120690715Y-157827723D01*
X120538243Y-157662097D01*
X120538238Y-157662092D01*
X120360577Y-157523812D01*
X120360578Y-157523812D01*
X120360576Y-157523811D01*
X120324070Y-157504055D01*
X120274479Y-157454836D01*
X120259371Y-157386619D01*
X120283541Y-157321064D01*
X120324070Y-157285945D01*
X120328937Y-157283311D01*
X120360576Y-157266189D01*
X120538240Y-157127906D01*
X120690722Y-156962268D01*
X120813860Y-156773791D01*
X120904296Y-156567616D01*
X120959564Y-156349368D01*
X120963755Y-156298789D01*
X120978156Y-156125005D01*
X120978156Y-156124994D01*
X120959565Y-155900640D01*
X120959563Y-155900628D01*
X120952199Y-155871549D01*
X120904296Y-155682384D01*
X120813860Y-155476209D01*
X120797706Y-155451484D01*
X120705315Y-155310068D01*
X120690722Y-155287732D01*
X120690719Y-155287729D01*
X120690715Y-155287723D01*
X120538243Y-155122097D01*
X120538238Y-155122092D01*
X120395448Y-155010953D01*
X120360576Y-154983811D01*
X120324070Y-154964055D01*
X120274479Y-154914836D01*
X120259371Y-154846619D01*
X120283541Y-154781064D01*
X120324070Y-154745945D01*
X120324084Y-154745936D01*
X120360576Y-154726189D01*
X120538240Y-154587906D01*
X120600709Y-154520047D01*
X121206088Y-154520047D01*
X121226050Y-154709975D01*
X121226051Y-154709978D01*
X121285062Y-154891596D01*
X121285067Y-154891608D01*
X121327843Y-154965698D01*
X121344316Y-155033598D01*
X121327844Y-155089695D01*
X121305474Y-155128441D01*
X121305470Y-155128450D01*
X121253716Y-155287734D01*
X121246458Y-155310072D01*
X121226496Y-155500000D01*
X121246458Y-155689928D01*
X121246459Y-155689931D01*
X121305470Y-155871549D01*
X121305473Y-155871556D01*
X121400960Y-156036944D01*
X121499054Y-156145889D01*
X121522721Y-156172174D01*
X121528747Y-156178866D01*
X121683248Y-156291118D01*
X121857712Y-156368794D01*
X122044513Y-156408500D01*
X122235487Y-156408500D01*
X122422288Y-156368794D01*
X122596752Y-156291118D01*
X122609051Y-156282181D01*
X122674858Y-156258702D01*
X122681937Y-156258500D01*
X127680034Y-156258500D01*
X127749924Y-156244597D01*
X127784871Y-156237646D01*
X127826573Y-156229351D01*
X127964610Y-156172174D01*
X128088841Y-156089166D01*
X129133569Y-155044438D01*
X129194892Y-155010953D01*
X129221250Y-155008119D01*
X129818063Y-155008119D01*
X129885102Y-155027804D01*
X129890949Y-155031801D01*
X129903249Y-155040738D01*
X129948438Y-155060857D01*
X130077712Y-155118413D01*
X130264513Y-155158119D01*
X130455487Y-155158119D01*
X130642288Y-155118413D01*
X130816752Y-155040737D01*
X130971253Y-154928485D01*
X131099040Y-154786563D01*
X131194527Y-154621175D01*
X131253542Y-154439547D01*
X131273504Y-154249619D01*
X131253542Y-154059691D01*
X131194527Y-153878063D01*
X131099040Y-153712675D01*
X130983981Y-153584889D01*
X130971254Y-153570754D01*
X130969402Y-153569408D01*
X130816752Y-153458501D01*
X130642288Y-153380825D01*
X130642286Y-153380824D01*
X130455487Y-153341119D01*
X130264513Y-153341119D01*
X130077714Y-153380824D01*
X129903249Y-153458499D01*
X129890949Y-153467437D01*
X129825142Y-153490917D01*
X129818063Y-153491119D01*
X128780999Y-153491119D01*
X128671522Y-153512896D01*
X128671521Y-153512896D01*
X128634468Y-153520266D01*
X128634456Y-153520269D01*
X128496426Y-153577442D01*
X128372189Y-153660454D01*
X128372188Y-153660455D01*
X127327464Y-154705181D01*
X127266141Y-154738666D01*
X127239783Y-154741500D01*
X123465088Y-154741500D01*
X123398049Y-154721815D01*
X123377407Y-154705181D01*
X123039377Y-154367151D01*
X123009127Y-154317788D01*
X122998081Y-154283793D01*
X122954119Y-154148491D01*
X122858632Y-153983103D01*
X122730845Y-153841181D01*
X122576344Y-153728929D01*
X122401880Y-153651253D01*
X122401878Y-153651252D01*
X122215079Y-153611547D01*
X122024105Y-153611547D01*
X121837306Y-153651252D01*
X121662838Y-153728930D01*
X121508337Y-153841182D01*
X121380551Y-153983104D01*
X121285065Y-154148490D01*
X121285062Y-154148497D01*
X121226559Y-154328553D01*
X121226050Y-154330119D01*
X121206088Y-154520047D01*
X120600709Y-154520047D01*
X120660273Y-154455344D01*
X120690715Y-154422276D01*
X120690717Y-154422273D01*
X120690722Y-154422268D01*
X120813860Y-154233791D01*
X120904296Y-154027616D01*
X120959564Y-153809368D01*
X120962363Y-153775592D01*
X120978156Y-153585005D01*
X120978156Y-153584994D01*
X120959565Y-153360640D01*
X120959563Y-153360628D01*
X120911077Y-153169163D01*
X120904296Y-153142384D01*
X120813860Y-152936209D01*
X120800712Y-152916085D01*
X120713437Y-152782500D01*
X125466496Y-152782500D01*
X125486458Y-152972428D01*
X125486459Y-152972431D01*
X125545470Y-153154049D01*
X125545473Y-153154056D01*
X125640960Y-153319444D01*
X125716791Y-153403663D01*
X125766165Y-153458499D01*
X125768747Y-153461366D01*
X125923248Y-153573618D01*
X126097712Y-153651294D01*
X126284513Y-153691000D01*
X126475487Y-153691000D01*
X126662288Y-153651294D01*
X126836752Y-153573618D01*
X126991253Y-153461366D01*
X127119040Y-153319444D01*
X127214527Y-153154056D01*
X127273542Y-152972428D01*
X127293504Y-152782500D01*
X127273542Y-152592572D01*
X127214527Y-152410944D01*
X127119040Y-152245556D01*
X126991253Y-152103634D01*
X126836752Y-151991382D01*
X126662288Y-151913706D01*
X126662286Y-151913705D01*
X126475487Y-151874000D01*
X126284513Y-151874000D01*
X126097714Y-151913705D01*
X126097712Y-151913706D01*
X125951578Y-151978769D01*
X125923246Y-151991383D01*
X125768745Y-152103635D01*
X125640959Y-152245557D01*
X125545473Y-152410943D01*
X125545470Y-152410950D01*
X125486459Y-152592568D01*
X125486458Y-152592572D01*
X125466496Y-152782500D01*
X120713437Y-152782500D01*
X120690722Y-152747732D01*
X120690719Y-152747729D01*
X120690715Y-152747723D01*
X120538243Y-152582097D01*
X120538238Y-152582092D01*
X120407315Y-152480190D01*
X120360576Y-152443811D01*
X120360575Y-152443810D01*
X120360572Y-152443808D01*
X120162580Y-152336661D01*
X120162577Y-152336659D01*
X120162574Y-152336658D01*
X120162571Y-152336657D01*
X120162569Y-152336656D01*
X119949637Y-152263556D01*
X119727569Y-152226500D01*
X119502431Y-152226500D01*
X119280362Y-152263556D01*
X119067430Y-152336656D01*
X119067419Y-152336661D01*
X118869427Y-152443808D01*
X118869422Y-152443812D01*
X118691761Y-152582092D01*
X118691756Y-152582097D01*
X118539284Y-152747723D01*
X118539276Y-152747734D01*
X118448808Y-152886206D01*
X118395662Y-152931562D01*
X118326431Y-152940986D01*
X118263095Y-152911484D01*
X118241192Y-152886206D01*
X118173437Y-152782500D01*
X118150722Y-152747732D01*
X118150719Y-152747729D01*
X118150715Y-152747723D01*
X117998243Y-152582097D01*
X117998238Y-152582092D01*
X117867315Y-152480190D01*
X117820576Y-152443811D01*
X117820575Y-152443810D01*
X117820572Y-152443808D01*
X117622580Y-152336661D01*
X117622577Y-152336659D01*
X117622574Y-152336658D01*
X117622571Y-152336657D01*
X117622569Y-152336656D01*
X117409637Y-152263556D01*
X117187569Y-152226500D01*
X116962431Y-152226500D01*
X116740362Y-152263556D01*
X116527430Y-152336656D01*
X116527419Y-152336661D01*
X116329427Y-152443808D01*
X116329422Y-152443812D01*
X116151761Y-152582092D01*
X116151756Y-152582097D01*
X115999284Y-152747723D01*
X115999276Y-152747734D01*
X115876140Y-152936207D01*
X115785703Y-153142385D01*
X115730436Y-153360628D01*
X115730434Y-153360640D01*
X115711844Y-153584994D01*
X115711844Y-153585005D01*
X115730434Y-153809359D01*
X115730436Y-153809371D01*
X115785703Y-154027614D01*
X115862231Y-154202083D01*
X115876140Y-154233791D01*
X115907995Y-154282549D01*
X115928182Y-154349438D01*
X115909002Y-154416623D01*
X115856544Y-154462774D01*
X115787462Y-154473237D01*
X115778405Y-154471660D01*
X115701643Y-154455344D01*
X115510669Y-154455344D01*
X115323870Y-154495049D01*
X115149402Y-154572727D01*
X114994901Y-154684979D01*
X114867115Y-154826901D01*
X114771629Y-154992287D01*
X114771626Y-154992294D01*
X114717185Y-155159848D01*
X114712614Y-155173916D01*
X114692652Y-155363844D01*
X112682640Y-155363844D01*
X112718332Y-155238399D01*
X112738570Y-155020000D01*
X112736828Y-155001206D01*
X112728154Y-154907595D01*
X112718332Y-154801601D01*
X112658309Y-154590639D01*
X112656949Y-154587907D01*
X112560546Y-154394304D01*
X112560541Y-154394296D01*
X112482910Y-154291497D01*
X112428364Y-154219266D01*
X112409496Y-154202066D01*
X112266274Y-154071502D01*
X112266273Y-154071501D01*
X112163459Y-154007841D01*
X112079792Y-153956036D01*
X112079790Y-153956035D01*
X112009195Y-153928687D01*
X111875268Y-153876803D01*
X111659667Y-153836500D01*
X111440333Y-153836500D01*
X111224732Y-153876803D01*
X111183966Y-153892596D01*
X111020209Y-153956035D01*
X111020207Y-153956036D01*
X110833725Y-154071502D01*
X110833724Y-154071502D01*
X110828705Y-154076078D01*
X110765899Y-154106690D01*
X110696512Y-154098487D01*
X110645907Y-154058745D01*
X110622604Y-154027616D01*
X110588261Y-153981739D01*
X110471204Y-153894111D01*
X110468520Y-153893110D01*
X110334203Y-153843011D01*
X110273654Y-153836500D01*
X110273638Y-153836500D01*
X108876988Y-153836500D01*
X108809949Y-153816815D01*
X108764194Y-153764011D01*
X108754250Y-153694853D01*
X108783275Y-153631297D01*
X108789307Y-153624819D01*
X109200394Y-153213732D01*
X110520536Y-151893588D01*
X110581857Y-151860105D01*
X110645911Y-151864685D01*
X110646312Y-151863387D01*
X110650741Y-151864753D01*
X110650745Y-151864755D01*
X110902599Y-151942441D01*
X110902600Y-151942441D01*
X110902603Y-151942442D01*
X111163210Y-151981722D01*
X111163215Y-151981722D01*
X111163218Y-151981723D01*
X111163219Y-151981723D01*
X111426779Y-151981723D01*
X111426780Y-151981723D01*
X111446379Y-151978769D01*
X111687394Y-151942442D01*
X111687395Y-151942441D01*
X111687399Y-151942441D01*
X111939253Y-151864755D01*
X112176715Y-151750399D01*
X112394480Y-151601929D01*
X112587685Y-151422661D01*
X112752014Y-151216599D01*
X112883795Y-150988347D01*
X112980086Y-150743003D01*
X113038734Y-150486049D01*
X113052011Y-150308882D01*
X113058430Y-150223227D01*
X113058430Y-150223218D01*
X113041465Y-149996841D01*
X113038734Y-149960397D01*
X112980086Y-149703443D01*
X112883795Y-149458099D01*
X112752014Y-149229847D01*
X112587685Y-149023785D01*
X112587684Y-149023784D01*
X112587681Y-149023780D01*
X112394480Y-148844517D01*
X112299851Y-148780000D01*
X112176715Y-148696047D01*
X112176711Y-148696045D01*
X112176710Y-148696044D01*
X112045757Y-148632980D01*
X111939253Y-148581691D01*
X111939247Y-148581689D01*
X111939239Y-148581686D01*
X111687404Y-148504006D01*
X111687394Y-148504003D01*
X111426787Y-148464723D01*
X111426780Y-148464723D01*
X111163218Y-148464723D01*
X111163210Y-148464723D01*
X110902603Y-148504003D01*
X110902597Y-148504005D01*
X110650744Y-148581691D01*
X110413287Y-148696045D01*
X110413283Y-148696047D01*
X110195520Y-148844515D01*
X110002316Y-149023780D01*
X109837984Y-149229847D01*
X109706203Y-149458098D01*
X109609914Y-149703437D01*
X109609909Y-149703454D01*
X109551263Y-149960399D01*
X109531568Y-150223218D01*
X109531568Y-150223227D01*
X109551263Y-150486046D01*
X109609910Y-150742996D01*
X109609913Y-150743008D01*
X109656182Y-150860898D01*
X109662351Y-150930495D01*
X109629913Y-150992378D01*
X109628435Y-150993881D01*
X108010343Y-152611973D01*
X107949020Y-152645458D01*
X107879328Y-152640474D01*
X107823395Y-152598602D01*
X107804732Y-152562613D01*
X107780341Y-152487544D01*
X107766876Y-152446102D01*
X107766873Y-152446096D01*
X107671387Y-152280709D01*
X107543600Y-152138787D01*
X107404614Y-152037807D01*
X107361949Y-151982476D01*
X107353500Y-151937489D01*
X107353500Y-146193677D01*
X107373185Y-146126638D01*
X107425989Y-146080883D01*
X107477500Y-146069677D01*
X109197249Y-146069677D01*
X109197250Y-146069676D01*
X109319639Y-146045332D01*
X109433884Y-145998010D01*
X109481337Y-145988571D01*
X109586447Y-145988571D01*
X109718185Y-145960569D01*
X117762246Y-145960569D01*
X117782208Y-146150497D01*
X117782209Y-146150500D01*
X117841220Y-146332118D01*
X117841223Y-146332125D01*
X117936710Y-146497513D01*
X118039040Y-146611163D01*
X118050804Y-146624228D01*
X118064497Y-146639435D01*
X118218998Y-146751687D01*
X118393462Y-146829363D01*
X118580263Y-146869069D01*
X118636983Y-146869069D01*
X118704022Y-146888754D01*
X118724659Y-146905383D01*
X118854411Y-147035134D01*
X118887895Y-147096455D01*
X118890729Y-147122814D01*
X118890729Y-147146627D01*
X118915072Y-147269006D01*
X118915074Y-147269014D01*
X118962827Y-147384301D01*
X118962832Y-147384310D01*
X119032157Y-147488061D01*
X119032160Y-147488065D01*
X120273378Y-148729282D01*
X120306863Y-148790605D01*
X120309018Y-148804001D01*
X120313277Y-148844517D01*
X120326458Y-148969928D01*
X120326459Y-148969931D01*
X120385470Y-149151549D01*
X120385473Y-149151556D01*
X120480960Y-149316944D01*
X120545717Y-149388864D01*
X120593047Y-149441430D01*
X120608747Y-149458866D01*
X120763248Y-149571118D01*
X120937712Y-149648794D01*
X121124513Y-149688500D01*
X121315487Y-149688500D01*
X121502288Y-149648794D01*
X121676752Y-149571118D01*
X121831253Y-149458866D01*
X121959040Y-149316944D01*
X122054527Y-149151556D01*
X122113542Y-148969928D01*
X122133504Y-148780000D01*
X122113542Y-148590072D01*
X122054527Y-148408444D01*
X121959040Y-148243056D01*
X121831253Y-148101134D01*
X121676752Y-147988882D01*
X121502288Y-147911206D01*
X121502286Y-147911205D01*
X121315487Y-147871500D01*
X121258766Y-147871500D01*
X121191727Y-147851815D01*
X121171085Y-147835181D01*
X120194048Y-146858144D01*
X120160563Y-146796821D01*
X120157729Y-146770463D01*
X120157729Y-146746653D01*
X120157728Y-146746649D01*
X120133386Y-146624270D01*
X120133383Y-146624261D01*
X120133371Y-146624231D01*
X120116223Y-146582832D01*
X120094380Y-146530099D01*
X120086912Y-146460633D01*
X120118187Y-146398153D01*
X120138406Y-146382059D01*
X120137851Y-146381295D01*
X120143109Y-146377475D01*
X120281440Y-146276970D01*
X120347243Y-146253492D01*
X120415297Y-146269317D01*
X120442004Y-146289609D01*
X122810181Y-148657786D01*
X122843666Y-148719109D01*
X122846500Y-148745467D01*
X122846500Y-148879665D01*
X122826815Y-148946704D01*
X122795386Y-148979982D01*
X122738750Y-149021131D01*
X122738746Y-149021134D01*
X122610959Y-149163057D01*
X122515473Y-149328443D01*
X122515470Y-149328450D01*
X122464573Y-149485097D01*
X122456458Y-149510072D01*
X122436496Y-149700000D01*
X122456458Y-149889928D01*
X122456459Y-149889931D01*
X122515470Y-150071549D01*
X122515473Y-150071556D01*
X122610960Y-150236944D01*
X122708055Y-150344779D01*
X122737051Y-150376983D01*
X122738747Y-150378866D01*
X122893248Y-150491118D01*
X123067712Y-150568794D01*
X123254513Y-150608500D01*
X123445487Y-150608500D01*
X123632288Y-150568794D01*
X123806752Y-150491118D01*
X123961253Y-150378866D01*
X124089040Y-150236944D01*
X124184527Y-150071556D01*
X124243542Y-149889928D01*
X124263504Y-149700000D01*
X124243542Y-149510072D01*
X124184527Y-149328444D01*
X124130111Y-149234193D01*
X124113500Y-149172195D01*
X124113500Y-149042235D01*
X124133185Y-148975196D01*
X124185989Y-148929441D01*
X124237500Y-148918235D01*
X125269091Y-148918235D01*
X125336130Y-148937920D01*
X125361240Y-148959262D01*
X125365147Y-148963601D01*
X125519648Y-149075853D01*
X125694112Y-149153529D01*
X125880913Y-149193235D01*
X126071887Y-149193235D01*
X126258688Y-149153529D01*
X126433152Y-149075853D01*
X126587653Y-148963601D01*
X126715440Y-148821679D01*
X126768402Y-148729945D01*
X126818967Y-148681732D01*
X126887574Y-148668508D01*
X126952439Y-148694476D01*
X126963469Y-148704266D01*
X127132402Y-148873199D01*
X127165887Y-148934522D01*
X127168042Y-148973840D01*
X127159114Y-149058792D01*
X127159103Y-149058901D01*
X127179065Y-149248829D01*
X127179066Y-149248832D01*
X127238077Y-149430450D01*
X127238080Y-149430457D01*
X127333567Y-149595845D01*
X127461354Y-149737767D01*
X127615855Y-149850019D01*
X127790319Y-149927695D01*
X127977120Y-149967401D01*
X128168094Y-149967401D01*
X128354895Y-149927695D01*
X128529359Y-149850019D01*
X128683860Y-149737767D01*
X128811647Y-149595845D01*
X128907134Y-149430457D01*
X128966149Y-149248829D01*
X128986111Y-149058901D01*
X128966149Y-148868973D01*
X128966147Y-148868966D01*
X128964797Y-148862612D01*
X128967283Y-148862083D01*
X128965606Y-148803634D01*
X129001679Y-148743796D01*
X129059756Y-148713850D01*
X129065793Y-148712567D01*
X129135458Y-148717885D01*
X129183719Y-148750886D01*
X129231543Y-148804001D01*
X129244928Y-148818866D01*
X129399429Y-148931118D01*
X129573893Y-149008794D01*
X129760694Y-149048500D01*
X129951668Y-149048500D01*
X130095474Y-149017933D01*
X130165141Y-149023249D01*
X130213405Y-149056251D01*
X130312744Y-149166578D01*
X130314805Y-149168867D01*
X130469306Y-149281119D01*
X130643770Y-149358795D01*
X130658756Y-149361980D01*
X130667349Y-149363807D01*
X130728831Y-149396999D01*
X130762607Y-149458162D01*
X130765568Y-149485097D01*
X130765568Y-150471240D01*
X130745883Y-150538279D01*
X130733718Y-150554212D01*
X130660031Y-150636049D01*
X130660026Y-150636056D01*
X130564541Y-150801442D01*
X130564538Y-150801449D01*
X130513851Y-150957449D01*
X130505526Y-150983071D01*
X130485564Y-151172999D01*
X130505526Y-151362927D01*
X130505527Y-151362930D01*
X130564538Y-151544548D01*
X130564541Y-151544555D01*
X130660028Y-151709943D01*
X130787815Y-151851865D01*
X130942316Y-151964117D01*
X131116780Y-152041793D01*
X131303581Y-152081499D01*
X131494555Y-152081499D01*
X131681356Y-152041793D01*
X131855820Y-151964117D01*
X132010321Y-151851865D01*
X132138108Y-151709943D01*
X132233595Y-151544555D01*
X132292610Y-151362927D01*
X132312572Y-151172999D01*
X132292610Y-150983071D01*
X132235787Y-150808188D01*
X132233597Y-150801449D01*
X132233596Y-150801448D01*
X132233595Y-150801443D01*
X132193124Y-150731345D01*
X133071500Y-150731345D01*
X133071500Y-155228654D01*
X133078011Y-155289202D01*
X133078011Y-155289204D01*
X133113988Y-155385659D01*
X133129111Y-155426204D01*
X133216739Y-155543261D01*
X133333796Y-155630889D01*
X133470799Y-155681989D01*
X133498050Y-155684918D01*
X133531345Y-155688499D01*
X133531362Y-155688500D01*
X135428638Y-155688500D01*
X135428654Y-155688499D01*
X135455692Y-155685591D01*
X135489201Y-155681989D01*
X135626204Y-155630889D01*
X135743261Y-155543261D01*
X135830889Y-155426204D01*
X135881989Y-155289201D01*
X135888474Y-155228882D01*
X135888499Y-155228654D01*
X135888500Y-155228637D01*
X135888500Y-150731362D01*
X135888499Y-150731345D01*
X135885157Y-150700270D01*
X135881989Y-150670799D01*
X135877886Y-150659799D01*
X135856954Y-150603679D01*
X135830889Y-150533796D01*
X135743261Y-150416739D01*
X135626204Y-150329111D01*
X135599120Y-150319009D01*
X135489203Y-150278011D01*
X135428654Y-150271500D01*
X135428638Y-150271500D01*
X133531362Y-150271500D01*
X133531345Y-150271500D01*
X133470797Y-150278011D01*
X133470795Y-150278011D01*
X133333795Y-150329111D01*
X133216739Y-150416739D01*
X133129111Y-150533795D01*
X133078011Y-150670795D01*
X133078011Y-150670797D01*
X133071500Y-150731345D01*
X132193124Y-150731345D01*
X132178720Y-150706397D01*
X132138109Y-150636056D01*
X132138104Y-150636049D01*
X132064418Y-150554212D01*
X132034188Y-150491220D01*
X132032568Y-150471240D01*
X132032568Y-149186779D01*
X132052253Y-149119740D01*
X132105057Y-149073985D01*
X132130779Y-149065491D01*
X132162288Y-149058794D01*
X132336752Y-148981118D01*
X132491253Y-148868866D01*
X132619040Y-148726944D01*
X132714527Y-148561556D01*
X132773542Y-148379928D01*
X132793504Y-148190000D01*
X132773542Y-148000072D01*
X132749225Y-147925235D01*
X132747231Y-147855397D01*
X132783311Y-147795564D01*
X132846011Y-147764735D01*
X132893517Y-147765753D01*
X132934641Y-147774699D01*
X133219999Y-147795109D01*
X133220001Y-147795109D01*
X133505362Y-147774699D01*
X133784895Y-147713890D01*
X134052958Y-147613908D01*
X134304047Y-147476803D01*
X134446561Y-147370116D01*
X134446562Y-147370115D01*
X133544025Y-146467578D01*
X133575258Y-146454641D01*
X133698097Y-146372563D01*
X133802563Y-146268097D01*
X133884641Y-146145258D01*
X133897578Y-146114025D01*
X134800115Y-147016562D01*
X134800116Y-147016561D01*
X134906803Y-146874047D01*
X135043908Y-146622958D01*
X135143890Y-146354895D01*
X135204699Y-146075362D01*
X135225109Y-145790001D01*
X135225109Y-145789998D01*
X135204699Y-145504637D01*
X135143890Y-145225104D01*
X135043908Y-144957041D01*
X134906808Y-144705961D01*
X134906807Y-144705960D01*
X134800115Y-144563436D01*
X133897577Y-145465973D01*
X133884641Y-145434742D01*
X133802563Y-145311903D01*
X133698097Y-145207437D01*
X133575258Y-145125359D01*
X133544024Y-145112421D01*
X134446562Y-144209883D01*
X134446561Y-144209882D01*
X134304046Y-144103196D01*
X134304038Y-144103191D01*
X134052957Y-143966091D01*
X134052958Y-143966091D01*
X133784895Y-143866109D01*
X133505362Y-143805300D01*
X133220001Y-143784891D01*
X133219999Y-143784891D01*
X132934637Y-143805300D01*
X132655104Y-143866109D01*
X132387044Y-143966090D01*
X132252136Y-144039755D01*
X132183863Y-144054606D01*
X132118399Y-144030189D01*
X132076528Y-143974255D01*
X132071544Y-143904563D01*
X132074774Y-143892618D01*
X132105241Y-143798854D01*
X132125203Y-143608926D01*
X132105241Y-143418998D01*
X132046226Y-143237370D01*
X132040112Y-143226781D01*
X132023500Y-143164781D01*
X132023500Y-143157607D01*
X132023499Y-143157603D01*
X131999157Y-143035224D01*
X131999154Y-143035215D01*
X131997940Y-143032284D01*
X131988502Y-142984834D01*
X131988502Y-141375953D01*
X132008187Y-141308914D01*
X132060991Y-141263159D01*
X132130149Y-141253215D01*
X132174504Y-141268567D01*
X132187862Y-141276280D01*
X132187864Y-141276280D01*
X132187865Y-141276281D01*
X132334234Y-141315500D01*
X132334236Y-141315500D01*
X132485764Y-141315500D01*
X132485766Y-141315500D01*
X132632135Y-141276281D01*
X132634700Y-141274800D01*
X132645499Y-141268566D01*
X132713399Y-141252092D01*
X132779426Y-141274944D01*
X132822617Y-141329864D01*
X132831500Y-141375952D01*
X132831500Y-141919334D01*
X132870254Y-142114162D01*
X132870256Y-142114170D01*
X132946277Y-142297702D01*
X132946282Y-142297711D01*
X133056646Y-142462881D01*
X133056649Y-142462885D01*
X133197115Y-142603351D01*
X133197119Y-142603354D01*
X133362289Y-142713718D01*
X133362298Y-142713723D01*
X133403874Y-142730944D01*
X133545831Y-142789745D01*
X133738439Y-142828057D01*
X133740666Y-142828500D01*
X133740670Y-142828501D01*
X133740671Y-142828501D01*
X133939330Y-142828501D01*
X133939331Y-142828500D01*
X134134169Y-142789745D01*
X134317704Y-142713722D01*
X134482881Y-142603354D01*
X134623353Y-142462882D01*
X134733721Y-142297705D01*
X134809744Y-142114170D01*
X134848500Y-141919330D01*
X134848500Y-140620672D01*
X134809744Y-140425832D01*
X134733721Y-140242297D01*
X134733720Y-140242296D01*
X134733717Y-140242290D01*
X134623353Y-140077120D01*
X134623350Y-140077116D01*
X134482884Y-139936650D01*
X134482880Y-139936647D01*
X134317710Y-139826283D01*
X134317700Y-139826278D01*
X134253934Y-139799865D01*
X134199530Y-139756023D01*
X134178066Y-139698268D01*
X134163542Y-139560072D01*
X134108495Y-139390658D01*
X134104529Y-139378450D01*
X134104528Y-139378449D01*
X134104527Y-139378444D01*
X134038109Y-139263406D01*
X134021637Y-139195507D01*
X134038109Y-139139407D01*
X134047478Y-139123182D01*
X134106493Y-138941554D01*
X134126455Y-138751626D01*
X134106493Y-138561698D01*
X134087360Y-138502815D01*
X134085365Y-138432978D01*
X134121445Y-138373145D01*
X134157840Y-138349939D01*
X134317697Y-138283724D01*
X134317697Y-138283723D01*
X134317704Y-138283721D01*
X134482881Y-138173353D01*
X134623353Y-138032881D01*
X134733721Y-137867704D01*
X134809744Y-137684169D01*
X134848500Y-137489329D01*
X134848500Y-136809568D01*
X137039500Y-136809568D01*
X137039500Y-137090431D01*
X137070942Y-137369494D01*
X137070945Y-137369512D01*
X137133439Y-137643317D01*
X137133443Y-137643329D01*
X137226200Y-137908411D01*
X137348053Y-138161442D01*
X137348055Y-138161445D01*
X137497477Y-138399248D01*
X137627025Y-138561696D01*
X137671455Y-138617410D01*
X137672584Y-138618825D01*
X137871175Y-138817416D01*
X138090752Y-138992523D01*
X138328555Y-139141945D01*
X138581592Y-139263801D01*
X138780680Y-139333465D01*
X138846670Y-139356556D01*
X138846682Y-139356560D01*
X139120491Y-139419055D01*
X139120497Y-139419055D01*
X139120505Y-139419057D01*
X139306547Y-139440018D01*
X139399569Y-139450499D01*
X139399572Y-139450500D01*
X139399575Y-139450500D01*
X139680428Y-139450500D01*
X139680429Y-139450499D01*
X139823055Y-139434429D01*
X139959494Y-139419057D01*
X139959499Y-139419056D01*
X139959509Y-139419055D01*
X140233318Y-139356560D01*
X140498408Y-139263801D01*
X140751445Y-139141945D01*
X140989248Y-138992523D01*
X141208825Y-138817416D01*
X141407416Y-138618825D01*
X141582523Y-138399248D01*
X141731945Y-138161445D01*
X141853801Y-137908408D01*
X141946560Y-137643318D01*
X142009055Y-137369509D01*
X142009287Y-137367456D01*
X142027675Y-137204248D01*
X142040500Y-137090425D01*
X142040500Y-136809575D01*
X142012437Y-136560505D01*
X142009057Y-136530505D01*
X142009054Y-136530487D01*
X141988613Y-136440931D01*
X141946560Y-136256682D01*
X141931973Y-136214996D01*
X141896617Y-136113953D01*
X141853801Y-135991592D01*
X141731945Y-135738555D01*
X141582523Y-135500752D01*
X141407416Y-135281175D01*
X141208825Y-135082584D01*
X140989248Y-134907477D01*
X140778015Y-134774750D01*
X140751442Y-134758053D01*
X140498411Y-134636200D01*
X140233329Y-134543443D01*
X140233317Y-134543439D01*
X139959512Y-134480945D01*
X139959494Y-134480942D01*
X139680431Y-134449500D01*
X139680425Y-134449500D01*
X139399575Y-134449500D01*
X139399568Y-134449500D01*
X139120505Y-134480942D01*
X139120487Y-134480945D01*
X138846682Y-134543439D01*
X138846670Y-134543443D01*
X138581588Y-134636200D01*
X138328557Y-134758053D01*
X138090753Y-134907476D01*
X137871175Y-135082583D01*
X137672583Y-135281175D01*
X137497476Y-135500753D01*
X137348053Y-135738557D01*
X137226200Y-135991588D01*
X137133443Y-136256670D01*
X137133439Y-136256682D01*
X137070945Y-136530487D01*
X137070942Y-136530505D01*
X137039500Y-136809568D01*
X134848500Y-136809568D01*
X134848500Y-136690671D01*
X134809744Y-136495831D01*
X134733721Y-136312296D01*
X134733720Y-136312295D01*
X134733717Y-136312289D01*
X134623353Y-136147119D01*
X134623350Y-136147115D01*
X134482884Y-136006649D01*
X134482880Y-136006646D01*
X134317710Y-135896282D01*
X134317701Y-135896277D01*
X134134169Y-135820256D01*
X134134161Y-135820254D01*
X133939333Y-135781500D01*
X133939329Y-135781500D01*
X133740671Y-135781500D01*
X133740666Y-135781500D01*
X133545838Y-135820254D01*
X133545830Y-135820256D01*
X133362298Y-135896277D01*
X133362289Y-135896282D01*
X133197119Y-136006646D01*
X133197115Y-136006649D01*
X133056649Y-136147115D01*
X133056646Y-136147119D01*
X132946282Y-136312289D01*
X132946277Y-136312298D01*
X132870256Y-136495830D01*
X132870254Y-136495838D01*
X132831500Y-136690666D01*
X132831500Y-137489333D01*
X132870254Y-137684161D01*
X132870256Y-137684169D01*
X132902911Y-137763005D01*
X132910380Y-137832475D01*
X132879105Y-137894954D01*
X132838786Y-137923737D01*
X132756199Y-137960507D01*
X132601696Y-138072761D01*
X132473910Y-138214683D01*
X132378424Y-138380069D01*
X132378421Y-138380076D01*
X132341828Y-138492699D01*
X132319409Y-138561698D01*
X132301970Y-138727621D01*
X132275385Y-138792235D01*
X132266330Y-138802340D01*
X131086842Y-139981829D01*
X131025519Y-140015314D01*
X130955827Y-140010330D01*
X130948727Y-140007428D01*
X130912291Y-139991206D01*
X130912288Y-139991205D01*
X130725489Y-139951500D01*
X130534515Y-139951500D01*
X130347716Y-139991205D01*
X130210972Y-140052087D01*
X130141722Y-140061371D01*
X130078445Y-140031742D01*
X130041233Y-139972607D01*
X130036537Y-139938807D01*
X130036537Y-136356747D01*
X130056222Y-136289708D01*
X130068388Y-136273774D01*
X130079040Y-136261944D01*
X130174527Y-136096556D01*
X130233542Y-135914928D01*
X130253504Y-135725000D01*
X130233542Y-135535072D01*
X130174527Y-135353444D01*
X130079040Y-135188056D01*
X129951253Y-135046134D01*
X129796752Y-134933882D01*
X129622288Y-134856206D01*
X129622286Y-134856205D01*
X129435487Y-134816500D01*
X129244513Y-134816500D01*
X129057714Y-134856205D01*
X129057712Y-134856206D01*
X128888491Y-134931548D01*
X128883246Y-134933883D01*
X128728745Y-135046135D01*
X128600958Y-135188057D01*
X128600956Y-135188060D01*
X128588785Y-135209141D01*
X128538217Y-135257355D01*
X128469610Y-135270576D01*
X128455620Y-135268428D01*
X128446550Y-135266500D01*
X128446549Y-135266500D01*
X128255575Y-135266500D01*
X128068776Y-135306205D01*
X127894308Y-135383883D01*
X127739807Y-135496135D01*
X127612021Y-135638056D01*
X127602024Y-135655372D01*
X127551457Y-135703586D01*
X127486354Y-135716132D01*
X127486354Y-135716500D01*
X127484447Y-135716500D01*
X127482849Y-135716808D01*
X127481687Y-135716692D01*
X127479859Y-135716500D01*
X127479856Y-135716500D01*
X127288882Y-135716500D01*
X127102083Y-135756205D01*
X126927615Y-135833883D01*
X126773114Y-135946135D01*
X126645328Y-136088057D01*
X126549842Y-136253443D01*
X126549839Y-136253450D01*
X126490828Y-136435068D01*
X126490827Y-136435072D01*
X126470865Y-136625000D01*
X126490827Y-136814928D01*
X126490828Y-136814931D01*
X126549839Y-136996549D01*
X126549842Y-136996556D01*
X126637007Y-137147531D01*
X126645329Y-137161944D01*
X126719018Y-137243784D01*
X126749249Y-137306775D01*
X126750869Y-137326756D01*
X126750869Y-138774923D01*
X126775212Y-138897302D01*
X126775214Y-138897310D01*
X126822967Y-139012597D01*
X126848639Y-139051017D01*
X126869517Y-139117694D01*
X126869537Y-139119908D01*
X126869537Y-140046782D01*
X126849852Y-140113821D01*
X126797048Y-140159576D01*
X126727890Y-140169520D01*
X126713449Y-140166558D01*
X126705770Y-140164500D01*
X126705766Y-140164500D01*
X126554234Y-140164500D01*
X126407863Y-140203719D01*
X126333782Y-140246491D01*
X126276635Y-140279485D01*
X126276633Y-140279486D01*
X126269597Y-140283549D01*
X126268904Y-140282349D01*
X126211783Y-140304424D01*
X126143340Y-140290377D01*
X126098408Y-140246491D01*
X126097106Y-140247362D01*
X125983353Y-140077120D01*
X125983350Y-140077116D01*
X125842884Y-139936650D01*
X125842880Y-139936647D01*
X125677710Y-139826283D01*
X125677701Y-139826278D01*
X125494169Y-139750257D01*
X125494161Y-139750255D01*
X125299333Y-139711501D01*
X125299329Y-139711501D01*
X125100671Y-139711501D01*
X125100666Y-139711501D01*
X124905838Y-139750255D01*
X124905830Y-139750257D01*
X124722298Y-139826278D01*
X124722289Y-139826283D01*
X124557119Y-139936647D01*
X124557115Y-139936650D01*
X124416649Y-140077116D01*
X124416646Y-140077120D01*
X124306282Y-140242290D01*
X124306277Y-140242299D01*
X124230256Y-140425831D01*
X124230254Y-140425839D01*
X124191500Y-140620667D01*
X124191500Y-141919334D01*
X124230254Y-142114162D01*
X124230256Y-142114170D01*
X124306277Y-142297702D01*
X124306282Y-142297711D01*
X124343424Y-142353297D01*
X124364302Y-142419974D01*
X124345818Y-142487355D01*
X124293839Y-142534045D01*
X124290758Y-142535467D01*
X124193248Y-142578881D01*
X124038745Y-142691135D01*
X123910959Y-142833057D01*
X123815473Y-142998443D01*
X123815470Y-142998450D01*
X123756459Y-143180068D01*
X123756458Y-143180072D01*
X123736496Y-143370000D01*
X123756458Y-143559928D01*
X123756459Y-143559931D01*
X123815470Y-143741549D01*
X123815473Y-143741556D01*
X123910959Y-143906943D01*
X123919070Y-143915951D01*
X123984649Y-143988784D01*
X124014880Y-144051775D01*
X124016500Y-144071756D01*
X124016500Y-145557291D01*
X124040843Y-145679670D01*
X124040845Y-145679678D01*
X124088598Y-145794965D01*
X124088603Y-145794974D01*
X124157928Y-145898725D01*
X124157931Y-145898729D01*
X125553410Y-147294207D01*
X125586895Y-147355530D01*
X125581911Y-147425222D01*
X125540039Y-147481155D01*
X125525035Y-147489963D01*
X125525271Y-147490371D01*
X125519648Y-147493616D01*
X125365145Y-147605870D01*
X125361240Y-147610208D01*
X125301754Y-147646856D01*
X125269091Y-147651235D01*
X124283197Y-147651235D01*
X124216158Y-147631550D01*
X124195516Y-147614916D01*
X123078111Y-146497511D01*
X121889492Y-145308893D01*
X121856008Y-145247571D01*
X121859242Y-145182897D01*
X121883097Y-145109483D01*
X121903059Y-144919555D01*
X121883097Y-144729627D01*
X121824082Y-144547999D01*
X121728595Y-144382611D01*
X121600808Y-144240689D01*
X121446307Y-144128437D01*
X121271843Y-144050761D01*
X121271841Y-144050760D01*
X121085042Y-144011055D01*
X120894068Y-144011055D01*
X120707269Y-144050760D01*
X120698631Y-144054606D01*
X120589496Y-144103196D01*
X120532801Y-144128438D01*
X120378300Y-144240690D01*
X120250514Y-144382612D01*
X120155028Y-144547998D01*
X120155026Y-144548002D01*
X120125714Y-144638217D01*
X120086276Y-144695892D01*
X120021917Y-144723090D01*
X119975111Y-144718396D01*
X119975002Y-144718914D01*
X119970295Y-144717913D01*
X119969472Y-144717831D01*
X119968648Y-144717563D01*
X119781844Y-144677857D01*
X119590870Y-144677857D01*
X119404071Y-144717562D01*
X119370720Y-144732411D01*
X119257113Y-144782992D01*
X119229603Y-144795240D01*
X119075104Y-144907490D01*
X118964927Y-145029855D01*
X118905440Y-145066503D01*
X118846996Y-145068171D01*
X118771237Y-145052069D01*
X118580263Y-145052069D01*
X118393464Y-145091774D01*
X118318031Y-145125359D01*
X118253599Y-145154046D01*
X118218996Y-145169452D01*
X118064495Y-145281704D01*
X117936709Y-145423626D01*
X117841223Y-145589012D01*
X117841220Y-145589019D01*
X117782209Y-145770637D01*
X117782208Y-145770641D01*
X117762246Y-145960569D01*
X109718185Y-145960569D01*
X109773248Y-145948865D01*
X109947712Y-145871189D01*
X110102213Y-145758937D01*
X110230000Y-145617015D01*
X110325487Y-145451627D01*
X110384502Y-145269999D01*
X110404464Y-145080071D01*
X110384502Y-144890143D01*
X110325487Y-144708515D01*
X110230000Y-144543127D01*
X110102213Y-144401205D01*
X109947712Y-144288953D01*
X109773248Y-144211277D01*
X109773246Y-144211276D01*
X109586447Y-144171571D01*
X109395473Y-144171571D01*
X109208674Y-144211276D01*
X109034206Y-144288954D01*
X108879705Y-144401206D01*
X108751919Y-144543128D01*
X108656433Y-144708514D01*
X108656430Y-144708522D01*
X108653676Y-144716998D01*
X108614237Y-144774672D01*
X108549878Y-144801869D01*
X108535746Y-144802677D01*
X108247650Y-144802677D01*
X108180611Y-144782992D01*
X108134856Y-144730188D01*
X108124329Y-144691639D01*
X108106421Y-144521249D01*
X108047406Y-144339621D01*
X107951919Y-144174233D01*
X107824132Y-144032311D01*
X107669631Y-143920059D01*
X107495167Y-143842383D01*
X107495165Y-143842382D01*
X107308366Y-143802677D01*
X107117392Y-143802677D01*
X107117390Y-143802677D01*
X107114648Y-143803260D01*
X107113025Y-143803136D01*
X107110934Y-143803356D01*
X107110893Y-143802973D01*
X107044981Y-143797941D01*
X106989249Y-143755802D01*
X106988532Y-143754711D01*
X106988490Y-143754743D01*
X106984669Y-143749484D01*
X106856882Y-143607562D01*
X106849749Y-143602379D01*
X106702380Y-143495309D01*
X106527916Y-143417633D01*
X106527914Y-143417632D01*
X106341115Y-143377927D01*
X106150141Y-143377927D01*
X105963342Y-143417632D01*
X105963340Y-143417633D01*
X105791655Y-143494072D01*
X105788874Y-143495310D01*
X105634372Y-143607563D01*
X105563870Y-143685863D01*
X105504383Y-143722511D01*
X105434526Y-143721180D01*
X105376478Y-143682293D01*
X105353790Y-143641208D01*
X105321414Y-143541564D01*
X105321411Y-143541558D01*
X105306697Y-143516072D01*
X105225925Y-143376171D01*
X105147600Y-143289182D01*
X105117370Y-143226190D01*
X105125995Y-143156855D01*
X105152066Y-143118532D01*
X106024149Y-142246449D01*
X106085470Y-142212966D01*
X106155162Y-142217950D01*
X106184713Y-142233814D01*
X106203401Y-142247392D01*
X106203400Y-142247392D01*
X106211967Y-142251206D01*
X106377865Y-142325068D01*
X106564666Y-142364774D01*
X106755640Y-142364774D01*
X106942441Y-142325068D01*
X107116905Y-142247392D01*
X107271406Y-142135140D01*
X107399193Y-141993218D01*
X107412601Y-141969995D01*
X114285037Y-141969995D01*
X114285037Y-141970003D01*
X114300961Y-142182512D01*
X115565883Y-141843577D01*
X115550000Y-141902857D01*
X115550000Y-142037143D01*
X115584755Y-142166853D01*
X115651898Y-142283147D01*
X115695292Y-142326541D01*
X114431406Y-142665197D01*
X114431406Y-142665198D01*
X114460815Y-142740130D01*
X114593457Y-142969871D01*
X114758863Y-143177285D01*
X114953328Y-143357721D01*
X115172525Y-143507166D01*
X115172526Y-143507167D01*
X115411530Y-143622264D01*
X115411528Y-143622264D01*
X115665025Y-143700458D01*
X115665031Y-143700459D01*
X115927351Y-143739999D01*
X115927358Y-143740000D01*
X116192643Y-143740000D01*
X116192648Y-143739999D01*
X116272235Y-143728003D01*
X116272235Y-143728002D01*
X115933577Y-142464116D01*
X115992857Y-142480000D01*
X116127143Y-142480000D01*
X116256853Y-142445245D01*
X116373147Y-142378102D01*
X116416541Y-142334707D01*
X116755476Y-143599627D01*
X116947477Y-143507165D01*
X117166671Y-143357721D01*
X117361136Y-143177285D01*
X117526542Y-142969871D01*
X117659185Y-142740128D01*
X117756103Y-142493185D01*
X117756109Y-142493166D01*
X117815138Y-142234540D01*
X117815139Y-142234535D01*
X117834963Y-141970004D01*
X117834963Y-141969996D01*
X117819037Y-141757486D01*
X117819036Y-141757486D01*
X116554117Y-142096420D01*
X116570000Y-142037143D01*
X116570000Y-141902857D01*
X116535245Y-141773147D01*
X116468102Y-141656853D01*
X116424705Y-141613456D01*
X117688593Y-141274800D01*
X117659185Y-141199871D01*
X117659186Y-141199871D01*
X117526542Y-140970128D01*
X117361136Y-140762714D01*
X117166671Y-140582278D01*
X116947475Y-140432833D01*
X116947474Y-140432832D01*
X116708469Y-140317735D01*
X116708471Y-140317735D01*
X116454974Y-140239541D01*
X116454968Y-140239540D01*
X116192648Y-140200000D01*
X115927348Y-140200000D01*
X115847763Y-140211995D01*
X116186420Y-141475883D01*
X116127143Y-141460000D01*
X115992857Y-141460000D01*
X115863147Y-141494755D01*
X115746853Y-141561898D01*
X115703456Y-141605294D01*
X115364522Y-140340372D01*
X115172523Y-140432834D01*
X114953328Y-140582278D01*
X114758863Y-140762714D01*
X114593457Y-140970128D01*
X114460814Y-141199871D01*
X114363896Y-141446814D01*
X114363890Y-141446833D01*
X114304861Y-141705459D01*
X114304860Y-141705464D01*
X114285037Y-141969995D01*
X107412601Y-141969995D01*
X107494680Y-141827830D01*
X107553695Y-141646202D01*
X107573657Y-141456274D01*
X107553695Y-141266346D01*
X107494680Y-141084718D01*
X107399193Y-140919330D01*
X107271406Y-140777408D01*
X107116905Y-140665156D01*
X106942441Y-140587480D01*
X106942439Y-140587479D01*
X106755640Y-140547774D01*
X106564666Y-140547774D01*
X106377867Y-140587479D01*
X106377865Y-140587480D01*
X106240084Y-140648824D01*
X106203399Y-140665157D01*
X106048898Y-140777409D01*
X106044993Y-140781747D01*
X105985507Y-140818395D01*
X105952844Y-140822774D01*
X105856022Y-140822774D01*
X105733643Y-140847116D01*
X105733634Y-140847119D01*
X105618345Y-140894873D01*
X105618342Y-140894874D01*
X105514588Y-140964201D01*
X105514584Y-140964204D01*
X102081574Y-144397215D01*
X102020251Y-144430700D01*
X101950559Y-144425716D01*
X101921008Y-144409852D01*
X101876755Y-144377700D01*
X101824339Y-144354363D01*
X101702287Y-144300022D01*
X101702285Y-144300021D01*
X101515486Y-144260316D01*
X101324512Y-144260316D01*
X101137713Y-144300021D01*
X100963245Y-144377699D01*
X100808744Y-144489951D01*
X100680958Y-144631873D01*
X100585472Y-144797259D01*
X100585469Y-144797265D01*
X100576826Y-144823869D01*
X100537389Y-144881544D01*
X100473030Y-144908743D01*
X100458895Y-144909551D01*
X98829549Y-144909551D01*
X98707170Y-144933894D01*
X98707162Y-144933896D01*
X98591875Y-144981649D01*
X98591866Y-144981654D01*
X98488115Y-145050979D01*
X98488111Y-145050982D01*
X98218914Y-145320181D01*
X98157591Y-145353666D01*
X98131233Y-145356500D01*
X98107562Y-145356500D01*
X98040523Y-145336815D01*
X97994768Y-145284011D01*
X97984824Y-145214853D01*
X97985945Y-145208308D01*
X97998499Y-145145198D01*
X97998499Y-145007659D01*
X98018184Y-144940620D01*
X98034818Y-144919978D01*
X99711974Y-143242822D01*
X99773297Y-143209337D01*
X99799655Y-143206503D01*
X99937192Y-143206503D01*
X99937193Y-143206502D01*
X100059582Y-143182158D01*
X100174872Y-143134403D01*
X100200823Y-143117062D01*
X100267499Y-143096184D01*
X100310903Y-143105003D01*
X100311327Y-143103700D01*
X100317511Y-143105709D01*
X100504312Y-143145415D01*
X100695286Y-143145415D01*
X100882087Y-143105709D01*
X101056551Y-143028033D01*
X101211052Y-142915781D01*
X101338839Y-142773859D01*
X101434326Y-142608471D01*
X101493341Y-142426843D01*
X101513303Y-142236915D01*
X101493341Y-142046987D01*
X101438294Y-141877573D01*
X101434328Y-141865365D01*
X101434327Y-141865364D01*
X101434326Y-141865359D01*
X101338839Y-141699971D01*
X101211052Y-141558049D01*
X101056551Y-141445797D01*
X100882087Y-141368121D01*
X100882085Y-141368120D01*
X100695286Y-141328415D01*
X100504312Y-141328415D01*
X100504310Y-141328415D01*
X100427323Y-141344779D01*
X100357656Y-141339463D01*
X100309393Y-141306462D01*
X100185744Y-141169136D01*
X100031247Y-141056887D01*
X100031246Y-141056886D01*
X100031244Y-141056885D01*
X99856780Y-140979209D01*
X99856778Y-140979208D01*
X99833696Y-140974302D01*
X99772215Y-140941108D01*
X99741549Y-140891332D01*
X99701911Y-140769339D01*
X99606424Y-140603951D01*
X99478637Y-140462029D01*
X99324136Y-140349777D01*
X99149672Y-140272101D01*
X99149670Y-140272100D01*
X98962871Y-140232395D01*
X98771897Y-140232395D01*
X98585098Y-140272100D01*
X98410630Y-140349778D01*
X98256129Y-140462030D01*
X98252224Y-140466368D01*
X98192738Y-140503016D01*
X98160075Y-140507395D01*
X97837872Y-140507395D01*
X97770833Y-140487710D01*
X97725078Y-140434906D01*
X97715134Y-140365748D01*
X97744159Y-140302192D01*
X97750191Y-140295714D01*
X99162539Y-138883365D01*
X99223862Y-138849880D01*
X99250220Y-138847046D01*
X99419128Y-138847046D01*
X99605929Y-138807340D01*
X99780393Y-138729664D01*
X99934894Y-138617412D01*
X100062681Y-138475490D01*
X100158168Y-138310102D01*
X100217183Y-138128474D01*
X100237145Y-137938546D01*
X100217183Y-137748618D01*
X100158168Y-137566990D01*
X100062681Y-137401602D01*
X99934894Y-137259680D01*
X99826411Y-137180862D01*
X99783747Y-137125533D01*
X99775978Y-137067579D01*
X99777796Y-137050287D01*
X99765098Y-136929477D01*
X99777667Y-136860751D01*
X99825399Y-136809727D01*
X99893139Y-136792609D01*
X99959381Y-136814831D01*
X99979648Y-136832536D01*
X100104259Y-136967898D01*
X100104264Y-136967903D01*
X100141068Y-136996549D01*
X100281927Y-137106185D01*
X100281928Y-137106185D01*
X100281930Y-137106187D01*
X100358328Y-137147531D01*
X100479929Y-137213338D01*
X100692868Y-137286440D01*
X100914934Y-137323496D01*
X101140072Y-137323496D01*
X101362138Y-137286440D01*
X101575077Y-137213338D01*
X101773079Y-137106185D01*
X101950743Y-136967902D01*
X102055442Y-136854170D01*
X102103218Y-136802272D01*
X102103218Y-136802271D01*
X102103225Y-136802264D01*
X102193696Y-136663786D01*
X102246841Y-136618433D01*
X102316072Y-136609009D01*
X102379408Y-136638511D01*
X102401307Y-136663783D01*
X102491781Y-136802264D01*
X102491786Y-136802269D01*
X102491787Y-136802272D01*
X102644259Y-136967898D01*
X102644264Y-136967903D01*
X102681068Y-136996549D01*
X102821927Y-137106185D01*
X102821928Y-137106185D01*
X102821930Y-137106187D01*
X102898328Y-137147531D01*
X103019929Y-137213338D01*
X103232868Y-137286440D01*
X103454934Y-137323496D01*
X103680072Y-137323496D01*
X103902138Y-137286440D01*
X104115077Y-137213338D01*
X104313079Y-137106185D01*
X104490743Y-136967902D01*
X104560411Y-136892222D01*
X104620296Y-136856233D01*
X104690134Y-136858333D01*
X104747750Y-136897856D01*
X104767821Y-136932873D01*
X104814148Y-137057082D01*
X104814152Y-137057089D01*
X104900312Y-137172183D01*
X104900315Y-137172186D01*
X105015409Y-137258346D01*
X105015416Y-137258350D01*
X105150123Y-137308592D01*
X105150130Y-137308594D01*
X105209658Y-137314995D01*
X105209675Y-137314996D01*
X105857503Y-137314996D01*
X105857503Y-136398008D01*
X105914510Y-136430921D01*
X106041677Y-136464996D01*
X106173329Y-136464996D01*
X106300496Y-136430921D01*
X106357503Y-136398008D01*
X106357503Y-137314996D01*
X107005331Y-137314996D01*
X107005347Y-137314995D01*
X107064875Y-137308594D01*
X107064882Y-137308592D01*
X107199589Y-137258350D01*
X107199596Y-137258346D01*
X107314690Y-137172186D01*
X107314693Y-137172183D01*
X107400853Y-137057089D01*
X107400857Y-137057082D01*
X107451099Y-136922375D01*
X107451101Y-136922368D01*
X107457502Y-136862840D01*
X107457503Y-136862823D01*
X107457503Y-136690666D01*
X124191500Y-136690666D01*
X124191500Y-137489333D01*
X124230254Y-137684161D01*
X124230256Y-137684169D01*
X124306277Y-137867701D01*
X124306282Y-137867710D01*
X124416646Y-138032880D01*
X124416649Y-138032884D01*
X124557115Y-138173350D01*
X124557119Y-138173353D01*
X124722289Y-138283717D01*
X124722295Y-138283720D01*
X124722296Y-138283721D01*
X124905831Y-138359744D01*
X125047537Y-138387931D01*
X125100666Y-138398499D01*
X125100670Y-138398500D01*
X125100671Y-138398500D01*
X125299330Y-138398500D01*
X125299331Y-138398499D01*
X125494169Y-138359744D01*
X125677704Y-138283721D01*
X125842881Y-138173353D01*
X125983353Y-138032881D01*
X126093721Y-137867704D01*
X126169744Y-137684169D01*
X126208500Y-137489329D01*
X126208500Y-136690671D01*
X126169744Y-136495831D01*
X126093721Y-136312296D01*
X126093720Y-136312295D01*
X126093717Y-136312289D01*
X125983353Y-136147119D01*
X125983350Y-136147115D01*
X125842884Y-136006649D01*
X125842880Y-136006646D01*
X125677710Y-135896282D01*
X125677701Y-135896277D01*
X125494169Y-135820256D01*
X125494161Y-135820254D01*
X125299333Y-135781500D01*
X125299329Y-135781500D01*
X125100671Y-135781500D01*
X125100666Y-135781500D01*
X124905838Y-135820254D01*
X124905830Y-135820256D01*
X124722298Y-135896277D01*
X124722289Y-135896282D01*
X124557119Y-136006646D01*
X124557115Y-136006649D01*
X124416649Y-136147115D01*
X124416646Y-136147119D01*
X124306282Y-136312289D01*
X124306277Y-136312298D01*
X124230256Y-136495830D01*
X124230254Y-136495838D01*
X124191500Y-136690666D01*
X107457503Y-136690666D01*
X107457503Y-136214996D01*
X106540515Y-136214996D01*
X106573428Y-136157989D01*
X106607503Y-136030822D01*
X106607503Y-135899170D01*
X106573428Y-135772003D01*
X106540515Y-135714996D01*
X107457503Y-135714996D01*
X107457503Y-135067168D01*
X107457502Y-135067151D01*
X107451101Y-135007623D01*
X107451099Y-135007616D01*
X107400857Y-134872909D01*
X107400853Y-134872902D01*
X107314693Y-134757808D01*
X107314690Y-134757805D01*
X107199596Y-134671645D01*
X107199589Y-134671641D01*
X107064882Y-134621399D01*
X107064875Y-134621397D01*
X107005347Y-134614996D01*
X106357503Y-134614996D01*
X106357503Y-135531984D01*
X106300496Y-135499071D01*
X106173329Y-135464996D01*
X106041677Y-135464996D01*
X105914510Y-135499071D01*
X105857503Y-135531984D01*
X105857503Y-134614996D01*
X105209658Y-134614996D01*
X105150130Y-134621397D01*
X105150123Y-134621399D01*
X105015416Y-134671641D01*
X105015409Y-134671645D01*
X104900315Y-134757805D01*
X104900312Y-134757808D01*
X104814152Y-134872902D01*
X104814149Y-134872907D01*
X104767821Y-134997119D01*
X104725949Y-135053052D01*
X104660485Y-135077469D01*
X104592212Y-135062617D01*
X104560413Y-135037771D01*
X104490743Y-134962090D01*
X104313079Y-134823807D01*
X104313078Y-134823806D01*
X104313075Y-134823804D01*
X104115083Y-134716657D01*
X104115080Y-134716655D01*
X104115077Y-134716654D01*
X104115074Y-134716653D01*
X104115072Y-134716652D01*
X103902140Y-134643552D01*
X103680072Y-134606496D01*
X103454934Y-134606496D01*
X103232865Y-134643552D01*
X103019933Y-134716652D01*
X103019922Y-134716657D01*
X102821930Y-134823804D01*
X102821925Y-134823808D01*
X102644264Y-134962088D01*
X102644259Y-134962093D01*
X102491787Y-135127719D01*
X102491779Y-135127730D01*
X102401311Y-135266202D01*
X102348165Y-135311558D01*
X102278934Y-135320982D01*
X102215598Y-135291480D01*
X102193695Y-135266202D01*
X102120785Y-135154606D01*
X102103225Y-135127728D01*
X102103222Y-135127725D01*
X102103218Y-135127719D01*
X101950746Y-134962093D01*
X101950741Y-134962088D01*
X101773080Y-134823808D01*
X101773075Y-134823804D01*
X101575083Y-134716657D01*
X101575080Y-134716655D01*
X101575077Y-134716654D01*
X101575074Y-134716653D01*
X101575072Y-134716652D01*
X101362140Y-134643552D01*
X101140072Y-134606496D01*
X100914934Y-134606496D01*
X100692865Y-134643552D01*
X100479933Y-134716652D01*
X100479922Y-134716657D01*
X100281930Y-134823804D01*
X100281925Y-134823808D01*
X100104264Y-134962088D01*
X100104259Y-134962093D01*
X99951787Y-135127719D01*
X99951779Y-135127730D01*
X99861311Y-135266202D01*
X99808165Y-135311558D01*
X99738934Y-135320982D01*
X99675598Y-135291480D01*
X99653695Y-135266202D01*
X99580785Y-135154606D01*
X99563225Y-135127728D01*
X99563222Y-135127725D01*
X99563218Y-135127719D01*
X99410746Y-134962093D01*
X99410741Y-134962088D01*
X99233080Y-134823808D01*
X99233075Y-134823804D01*
X99035083Y-134716657D01*
X99035080Y-134716655D01*
X99035077Y-134716654D01*
X99035074Y-134716653D01*
X99035072Y-134716652D01*
X98822140Y-134643552D01*
X98600072Y-134606496D01*
X98374934Y-134606496D01*
X98152865Y-134643552D01*
X97939933Y-134716652D01*
X97939922Y-134716657D01*
X97741930Y-134823804D01*
X97741925Y-134823808D01*
X97564264Y-134962088D01*
X97564259Y-134962093D01*
X97411787Y-135127719D01*
X97411779Y-135127730D01*
X97288643Y-135316203D01*
X97198206Y-135522381D01*
X97142939Y-135740624D01*
X97142937Y-135740636D01*
X97124347Y-135964990D01*
X97124347Y-135965001D01*
X97142937Y-136189355D01*
X97142939Y-136189367D01*
X97198206Y-136407610D01*
X97288643Y-136613788D01*
X97411779Y-136802261D01*
X97411787Y-136802272D01*
X97564259Y-136967898D01*
X97564264Y-136967903D01*
X97601068Y-136996549D01*
X97741927Y-137106185D01*
X97923134Y-137204249D01*
X97972724Y-137253467D01*
X97982047Y-137274984D01*
X98029763Y-137421839D01*
X98029765Y-137421843D01*
X98125252Y-137587231D01*
X98253039Y-137729153D01*
X98293065Y-137758234D01*
X98335731Y-137813562D01*
X98341711Y-137883175D01*
X98309105Y-137944970D01*
X98307861Y-137946232D01*
X95853915Y-140400181D01*
X95792592Y-140433666D01*
X95766234Y-140436500D01*
X94034090Y-140436500D01*
X93967051Y-140416815D01*
X93921296Y-140364011D01*
X93920534Y-140362309D01*
X93883865Y-140278712D01*
X93812526Y-140169520D01*
X93760727Y-140090235D01*
X93760724Y-140090232D01*
X93760720Y-140090226D01*
X93608248Y-139924600D01*
X93608243Y-139924595D01*
X93430582Y-139786315D01*
X93430577Y-139786311D01*
X93232585Y-139679164D01*
X93232582Y-139679162D01*
X93232579Y-139679161D01*
X93232576Y-139679160D01*
X93232574Y-139679159D01*
X93019642Y-139606059D01*
X92797574Y-139569003D01*
X92572436Y-139569003D01*
X92350367Y-139606059D01*
X92137435Y-139679159D01*
X92137424Y-139679164D01*
X91997425Y-139754927D01*
X91929096Y-139769522D01*
X91863724Y-139744859D01*
X91822064Y-139688768D01*
X91817342Y-139619058D01*
X91850725Y-139558193D01*
X92469101Y-138939819D01*
X92530424Y-138906334D01*
X92556782Y-138903500D01*
X93773744Y-138903500D01*
X93773745Y-138903499D01*
X93896134Y-138879155D01*
X94011424Y-138831400D01*
X94115182Y-138762071D01*
X95678060Y-137199193D01*
X95747389Y-137095435D01*
X95795144Y-136980145D01*
X95819489Y-136857754D01*
X95819489Y-136732966D01*
X95819489Y-136086057D01*
X95839174Y-136019018D01*
X95891978Y-135973263D01*
X95917709Y-135964767D01*
X95922288Y-135963794D01*
X96096752Y-135886118D01*
X96251253Y-135773866D01*
X96379040Y-135631944D01*
X96474527Y-135466556D01*
X96533542Y-135284928D01*
X96553504Y-135095000D01*
X96533542Y-134905072D01*
X96474527Y-134723444D01*
X96379040Y-134558056D01*
X96251253Y-134416134D01*
X96096752Y-134303882D01*
X95922288Y-134226206D01*
X95922286Y-134226205D01*
X95922287Y-134226205D01*
X95750187Y-134189624D01*
X95688706Y-134156431D01*
X95654930Y-134095268D01*
X95659582Y-134025553D01*
X95701187Y-133969421D01*
X95766535Y-133944693D01*
X95775943Y-133944335D01*
X139575000Y-133950000D01*
X139737373Y-133950806D01*
X139749683Y-133951480D01*
X140071823Y-133985275D01*
X140085591Y-133987509D01*
X140401099Y-134057174D01*
X140414530Y-134060945D01*
X140720174Y-134165671D01*
X140733107Y-134170934D01*
X141013398Y-134303883D01*
X141025008Y-134309390D01*
X141037281Y-134316083D01*
X141302771Y-134480942D01*
X141311748Y-134486516D01*
X141323185Y-134494546D01*
X141447998Y-134593121D01*
X141576715Y-134694779D01*
X141587178Y-134704046D01*
X141641383Y-134757805D01*
X141816566Y-134931548D01*
X141825920Y-134941935D01*
X142028242Y-135193805D01*
X142036368Y-135205179D01*
X142209055Y-135478221D01*
X142215849Y-135490437D01*
X142237472Y-135535068D01*
X142344608Y-135756205D01*
X142356710Y-135781183D01*
X142362085Y-135794085D01*
X142468522Y-136096556D01*
X142469324Y-136098833D01*
X142473213Y-136112256D01*
X142476691Y-136127411D01*
X142545474Y-136427152D01*
X142547827Y-136440931D01*
X142584281Y-136762792D01*
X142585057Y-136775046D01*
X142587272Y-136936539D01*
X142587284Y-136938280D01*
X142577273Y-167913312D01*
X142557567Y-167980345D01*
X142504748Y-168026083D01*
X142435586Y-168036004D01*
X142372040Y-168006959D01*
X142363079Y-167998366D01*
X142279712Y-167910003D01*
X142144670Y-167766867D01*
X142144663Y-167766861D01*
X142144661Y-167766859D01*
X141876213Y-167541603D01*
X141763374Y-167467388D01*
X141583413Y-167349026D01*
X141429144Y-167271549D01*
X141270246Y-167191747D01*
X141270240Y-167191744D01*
X140940935Y-167071887D01*
X140940914Y-167071880D01*
X140599934Y-166991065D01*
X140599919Y-166991063D01*
X140251838Y-166950379D01*
X139901388Y-166950379D01*
X139596817Y-166985977D01*
X139553306Y-166991063D01*
X139553291Y-166991065D01*
X139212311Y-167071880D01*
X139212290Y-167071887D01*
X138882985Y-167191744D01*
X138882979Y-167191747D01*
X138569816Y-167349024D01*
X138277012Y-167541603D01*
X138008564Y-167766859D01*
X138008554Y-167766869D01*
X137768063Y-168021772D01*
X137768058Y-168021778D01*
X137668298Y-168155780D01*
X137612475Y-168197799D01*
X137542797Y-168202967D01*
X137481386Y-168169645D01*
X137469372Y-168155780D01*
X137288554Y-167912899D01*
X137288549Y-167912893D01*
X137128993Y-167743775D01*
X137048057Y-167657988D01*
X137048050Y-167657982D01*
X137048048Y-167657980D01*
X136779600Y-167432724D01*
X136652340Y-167349024D01*
X136486800Y-167240147D01*
X136390422Y-167191744D01*
X136173633Y-167082868D01*
X136173627Y-167082865D01*
X135844322Y-166963008D01*
X135844301Y-166963001D01*
X135503321Y-166882186D01*
X135503306Y-166882184D01*
X135155225Y-166841500D01*
X134804775Y-166841500D01*
X134500204Y-166877098D01*
X134456693Y-166882184D01*
X134456678Y-166882186D01*
X134115698Y-166963001D01*
X134115677Y-166963008D01*
X133786372Y-167082865D01*
X133786366Y-167082868D01*
X133473203Y-167240145D01*
X133180399Y-167432724D01*
X132911951Y-167657980D01*
X132911941Y-167657990D01*
X132671450Y-167912893D01*
X132671445Y-167912899D01*
X132462175Y-168193998D01*
X132286952Y-168497494D01*
X132286946Y-168497507D01*
X132148143Y-168819286D01*
X132047632Y-169155017D01*
X132047630Y-169155024D01*
X131986779Y-169500131D01*
X131986778Y-169500142D01*
X131966401Y-169849996D01*
X131966401Y-169850003D01*
X131986778Y-170199857D01*
X131986779Y-170199868D01*
X132047630Y-170544975D01*
X132047632Y-170544982D01*
X132148143Y-170880713D01*
X132286946Y-171202492D01*
X132286952Y-171202505D01*
X132462175Y-171506001D01*
X132671445Y-171787100D01*
X132671450Y-171787106D01*
X132774171Y-171895983D01*
X132911943Y-172042012D01*
X132911949Y-172042017D01*
X132911951Y-172042019D01*
X133043896Y-172152735D01*
X133180403Y-172267278D01*
X133473200Y-172459853D01*
X133786374Y-172617135D01*
X134115690Y-172736996D01*
X134115696Y-172736997D01*
X134115698Y-172736998D01*
X134456678Y-172817813D01*
X134456685Y-172817814D01*
X134456694Y-172817816D01*
X134804775Y-172858500D01*
X134804782Y-172858500D01*
X135155218Y-172858500D01*
X135155225Y-172858500D01*
X135503306Y-172817816D01*
X135503315Y-172817813D01*
X135503321Y-172817813D01*
X135778371Y-172752623D01*
X135844310Y-172736996D01*
X136173626Y-172617135D01*
X136486800Y-172459853D01*
X136779597Y-172267278D01*
X137048057Y-172042012D01*
X137288551Y-171787104D01*
X137388315Y-171653095D01*
X137444135Y-171611079D01*
X137513813Y-171605909D01*
X137575225Y-171639231D01*
X137587240Y-171653097D01*
X137768058Y-171895979D01*
X137768063Y-171895985D01*
X137860015Y-171993447D01*
X138008556Y-172150891D01*
X138008562Y-172150896D01*
X138008564Y-172150898D01*
X138277011Y-172376154D01*
X138433519Y-172479090D01*
X138478713Y-172532375D01*
X138487924Y-172601635D01*
X138458229Y-172664880D01*
X138419182Y-172694411D01*
X138328557Y-172738053D01*
X138090753Y-172887476D01*
X137871175Y-173062583D01*
X137672583Y-173261175D01*
X137497476Y-173480753D01*
X137348053Y-173718557D01*
X137226200Y-173971588D01*
X137133443Y-174236670D01*
X137133439Y-174236682D01*
X137070945Y-174510487D01*
X137070942Y-174510505D01*
X137039500Y-174789568D01*
X137039500Y-175070431D01*
X137070942Y-175349494D01*
X137070945Y-175349512D01*
X137133439Y-175623317D01*
X137133443Y-175623329D01*
X137226200Y-175888411D01*
X137348053Y-176141442D01*
X137348055Y-176141445D01*
X137497477Y-176379248D01*
X137672584Y-176598825D01*
X137871175Y-176797416D01*
X138090752Y-176972523D01*
X138328555Y-177121945D01*
X138581592Y-177243801D01*
X138760947Y-177306560D01*
X138846670Y-177336556D01*
X138846682Y-177336560D01*
X139120491Y-177399055D01*
X139120497Y-177399055D01*
X139120505Y-177399057D01*
X139306547Y-177420018D01*
X139399569Y-177430499D01*
X139399572Y-177430500D01*
X139399575Y-177430500D01*
X139680428Y-177430500D01*
X139680429Y-177430499D01*
X139850263Y-177411364D01*
X139959494Y-177399057D01*
X139959499Y-177399056D01*
X139959509Y-177399055D01*
X140233318Y-177336560D01*
X140498408Y-177243801D01*
X140751445Y-177121945D01*
X140989248Y-176972523D01*
X141208825Y-176797416D01*
X141407416Y-176598825D01*
X141582523Y-176379248D01*
X141731945Y-176141445D01*
X141853801Y-175888408D01*
X141946560Y-175623318D01*
X142009055Y-175349509D01*
X142010464Y-175337010D01*
X142033969Y-175128388D01*
X142040500Y-175070425D01*
X142040500Y-174789575D01*
X142030018Y-174696547D01*
X142009057Y-174510505D01*
X142009054Y-174510487D01*
X141946560Y-174236682D01*
X141946556Y-174236670D01*
X141907076Y-174123844D01*
X141853801Y-173971592D01*
X141731945Y-173718555D01*
X141582523Y-173480752D01*
X141407416Y-173261175D01*
X141208825Y-173062584D01*
X141117811Y-172990003D01*
X141111143Y-172984685D01*
X141071003Y-172927497D01*
X141068153Y-172857685D01*
X141103498Y-172797415D01*
X141146044Y-172771217D01*
X141270239Y-172726014D01*
X141583413Y-172568732D01*
X141876210Y-172376157D01*
X142144670Y-172150891D01*
X142361758Y-171920791D01*
X142422079Y-171885539D01*
X142491886Y-171888494D01*
X142549014Y-171928721D01*
X142575324Y-171993447D01*
X142575950Y-172005927D01*
X142575000Y-174949698D01*
X142574998Y-174950344D01*
X142574101Y-175112400D01*
X142573427Y-175124647D01*
X142539640Y-175446815D01*
X142537400Y-175460614D01*
X142467755Y-175776074D01*
X142463977Y-175789533D01*
X142359264Y-176095162D01*
X142353995Y-176108109D01*
X142215553Y-176400002D01*
X142208860Y-176412275D01*
X142038438Y-176686738D01*
X142030406Y-176698179D01*
X141830184Y-176951705D01*
X141820916Y-176962170D01*
X141593418Y-177191562D01*
X141583030Y-177200917D01*
X141331167Y-177403238D01*
X141319793Y-177411364D01*
X141046762Y-177584049D01*
X141034546Y-177590844D01*
X140743799Y-177731708D01*
X140730895Y-177737084D01*
X140426147Y-177844326D01*
X140412734Y-177848211D01*
X140097844Y-177920473D01*
X140084068Y-177922826D01*
X139762205Y-177959281D01*
X139749951Y-177960057D01*
X139588459Y-177962272D01*
X139586720Y-177962284D01*
X71578772Y-177941195D01*
X71578135Y-177941193D01*
X71416084Y-177940311D01*
X71403823Y-177939636D01*
X71081682Y-177905846D01*
X71067884Y-177903607D01*
X70752414Y-177833956D01*
X70738956Y-177830178D01*
X70451555Y-177731708D01*
X70433321Y-177725460D01*
X70420381Y-177720193D01*
X70128491Y-177581748D01*
X70116221Y-177575057D01*
X69883415Y-177430499D01*
X69841754Y-177404629D01*
X69830315Y-177396599D01*
X69795437Y-177369054D01*
X69582541Y-177200917D01*
X69576785Y-177196371D01*
X69566321Y-177187103D01*
X69336934Y-176959609D01*
X69327579Y-176949221D01*
X69322199Y-176942523D01*
X69125253Y-176697351D01*
X69117137Y-176685991D01*
X68944442Y-176412945D01*
X68937649Y-176400731D01*
X68829853Y-176178240D01*
X68796785Y-176109987D01*
X68791417Y-176097106D01*
X68684166Y-175792337D01*
X68680279Y-175778915D01*
X68666623Y-175719410D01*
X68608018Y-175464040D01*
X68605665Y-175450261D01*
X68590853Y-175319494D01*
X68569206Y-175128388D01*
X68568431Y-175116157D01*
X68566212Y-174954495D01*
X68566201Y-174953065D01*
X68566163Y-174759568D01*
X69129500Y-174759568D01*
X69129500Y-175040431D01*
X69160942Y-175319494D01*
X69160945Y-175319512D01*
X69223439Y-175593317D01*
X69223443Y-175593329D01*
X69316200Y-175858411D01*
X69438053Y-176111442D01*
X69438055Y-176111445D01*
X69587477Y-176349248D01*
X69762584Y-176568825D01*
X69961175Y-176767416D01*
X70180752Y-176942523D01*
X70418555Y-177091945D01*
X70671592Y-177213801D01*
X70870680Y-177283465D01*
X70936670Y-177306556D01*
X70936682Y-177306560D01*
X71210491Y-177369055D01*
X71210497Y-177369055D01*
X71210505Y-177369057D01*
X71396547Y-177390018D01*
X71489569Y-177400499D01*
X71489572Y-177400500D01*
X71489575Y-177400500D01*
X71770428Y-177400500D01*
X71770429Y-177400499D01*
X71913055Y-177384429D01*
X72049494Y-177369057D01*
X72049499Y-177369056D01*
X72049509Y-177369055D01*
X72323318Y-177306560D01*
X72588408Y-177213801D01*
X72841445Y-177091945D01*
X73079248Y-176942523D01*
X73298825Y-176767416D01*
X73497416Y-176568825D01*
X73672523Y-176349248D01*
X73821945Y-176111445D01*
X73943801Y-175858408D01*
X74036560Y-175593318D01*
X74099055Y-175319509D01*
X74130500Y-175040425D01*
X74130500Y-174759575D01*
X74102437Y-174510505D01*
X74099057Y-174480505D01*
X74099054Y-174480487D01*
X74089337Y-174437916D01*
X74036560Y-174206682D01*
X73943801Y-173941592D01*
X73821945Y-173688555D01*
X73672523Y-173450752D01*
X73497416Y-173231175D01*
X73298825Y-173032584D01*
X73079248Y-172857477D01*
X72887496Y-172736991D01*
X72841442Y-172708053D01*
X72588411Y-172586200D01*
X72323329Y-172493443D01*
X72323317Y-172493439D01*
X72049512Y-172430945D01*
X72049494Y-172430942D01*
X71770431Y-172399500D01*
X71770425Y-172399500D01*
X71489575Y-172399500D01*
X71489568Y-172399500D01*
X71210505Y-172430942D01*
X71210487Y-172430945D01*
X70936682Y-172493439D01*
X70936670Y-172493443D01*
X70671588Y-172586200D01*
X70418557Y-172708053D01*
X70180753Y-172857476D01*
X69961175Y-173032583D01*
X69762583Y-173231175D01*
X69587476Y-173450753D01*
X69438053Y-173688557D01*
X69316200Y-173941588D01*
X69223443Y-174206670D01*
X69223439Y-174206682D01*
X69160945Y-174480487D01*
X69160942Y-174480505D01*
X69129500Y-174759568D01*
X68566163Y-174759568D01*
X68564830Y-167909997D01*
X91296847Y-167909997D01*
X91296847Y-167910008D01*
X91315437Y-168134362D01*
X91315439Y-168134374D01*
X91370706Y-168352617D01*
X91461143Y-168558795D01*
X91584279Y-168747268D01*
X91584287Y-168747279D01*
X91736759Y-168912905D01*
X91736763Y-168912909D01*
X91914427Y-169051192D01*
X91914432Y-169051194D01*
X91914434Y-169051196D01*
X91950933Y-169070949D01*
X92000523Y-169120168D01*
X92015631Y-169188385D01*
X91991460Y-169253940D01*
X91950933Y-169289057D01*
X91914434Y-169308809D01*
X91914425Y-169308815D01*
X91736764Y-169447095D01*
X91736759Y-169447100D01*
X91584287Y-169612726D01*
X91584279Y-169612737D01*
X91461143Y-169801210D01*
X91370706Y-170007388D01*
X91315439Y-170225631D01*
X91315437Y-170225643D01*
X91296847Y-170449997D01*
X91296847Y-170450008D01*
X91315437Y-170674362D01*
X91315439Y-170674374D01*
X91370706Y-170892617D01*
X91461143Y-171098795D01*
X91584279Y-171287268D01*
X91584287Y-171287279D01*
X91736759Y-171452905D01*
X91736763Y-171452909D01*
X91914427Y-171591192D01*
X91914432Y-171591194D01*
X91914434Y-171591196D01*
X91950933Y-171610949D01*
X92000523Y-171660168D01*
X92015631Y-171728385D01*
X91991460Y-171793940D01*
X91950933Y-171829057D01*
X91914434Y-171848809D01*
X91914425Y-171848815D01*
X91736764Y-171987095D01*
X91736759Y-171987100D01*
X91584287Y-172152726D01*
X91584279Y-172152737D01*
X91461143Y-172341210D01*
X91370706Y-172547388D01*
X91315439Y-172765631D01*
X91315437Y-172765643D01*
X91296847Y-172989997D01*
X91296847Y-172990008D01*
X91315437Y-173214362D01*
X91315439Y-173214374D01*
X91370706Y-173432617D01*
X91461143Y-173638795D01*
X91540351Y-173760031D01*
X91584281Y-173827271D01*
X91735710Y-173991765D01*
X91766632Y-174054418D01*
X91758772Y-174123844D01*
X91714625Y-174178000D01*
X91687814Y-174191929D01*
X91567915Y-174236649D01*
X91567909Y-174236652D01*
X91452815Y-174322812D01*
X91452812Y-174322815D01*
X91366652Y-174437909D01*
X91366648Y-174437916D01*
X91316406Y-174572623D01*
X91316404Y-174572630D01*
X91310003Y-174632158D01*
X91310003Y-175280003D01*
X92226991Y-175280003D01*
X92194078Y-175337010D01*
X92160003Y-175464177D01*
X92160003Y-175595829D01*
X92194078Y-175722996D01*
X92226991Y-175780003D01*
X91310003Y-175780003D01*
X91310003Y-176427847D01*
X91316404Y-176487375D01*
X91316406Y-176487382D01*
X91366648Y-176622089D01*
X91366652Y-176622096D01*
X91452812Y-176737190D01*
X91452815Y-176737193D01*
X91567909Y-176823353D01*
X91567916Y-176823357D01*
X91702623Y-176873599D01*
X91702630Y-176873601D01*
X91762158Y-176880002D01*
X91762175Y-176880003D01*
X92410003Y-176880003D01*
X92410003Y-175963015D01*
X92467010Y-175995928D01*
X92594177Y-176030003D01*
X92725829Y-176030003D01*
X92852996Y-175995928D01*
X92910003Y-175963015D01*
X92910003Y-176880003D01*
X93557831Y-176880003D01*
X93557847Y-176880002D01*
X93617375Y-176873601D01*
X93617382Y-176873599D01*
X93752089Y-176823357D01*
X93752096Y-176823353D01*
X93867190Y-176737193D01*
X93867193Y-176737190D01*
X93953353Y-176622096D01*
X93953357Y-176622089D01*
X94003599Y-176487382D01*
X94003601Y-176487375D01*
X94010002Y-176427847D01*
X94010003Y-176427830D01*
X94010003Y-175780003D01*
X93093015Y-175780003D01*
X93125928Y-175722996D01*
X93160003Y-175595829D01*
X93160003Y-175464177D01*
X93125928Y-175337010D01*
X93093015Y-175280003D01*
X94010003Y-175280003D01*
X94010003Y-174830000D01*
X98416835Y-174830000D01*
X98435465Y-175066714D01*
X98490895Y-175297595D01*
X98490895Y-175297597D01*
X98581757Y-175516959D01*
X98581759Y-175516962D01*
X98705820Y-175719410D01*
X98705821Y-175719413D01*
X98754215Y-175776074D01*
X98860031Y-175899969D01*
X98999797Y-176019340D01*
X99040586Y-176054178D01*
X99040589Y-176054179D01*
X99243037Y-176178240D01*
X99243040Y-176178242D01*
X99462403Y-176269104D01*
X99462404Y-176269104D01*
X99462406Y-176269105D01*
X99693289Y-176324535D01*
X99930000Y-176343165D01*
X100166711Y-176324535D01*
X100397594Y-176269105D01*
X100397596Y-176269104D01*
X100397597Y-176269104D01*
X100616959Y-176178242D01*
X100616960Y-176178241D01*
X100616963Y-176178240D01*
X100819416Y-176054176D01*
X100999969Y-175899969D01*
X101154176Y-175719416D01*
X101278240Y-175516963D01*
X101300162Y-175464040D01*
X101369104Y-175297597D01*
X101369104Y-175297596D01*
X101369105Y-175297594D01*
X101424535Y-175066711D01*
X101443165Y-174830000D01*
X101916835Y-174830000D01*
X101935465Y-175066714D01*
X101990895Y-175297595D01*
X101990895Y-175297597D01*
X102081757Y-175516959D01*
X102081759Y-175516962D01*
X102205820Y-175719410D01*
X102205821Y-175719413D01*
X102254215Y-175776074D01*
X102360031Y-175899969D01*
X102499797Y-176019340D01*
X102540586Y-176054178D01*
X102540589Y-176054179D01*
X102743037Y-176178240D01*
X102743040Y-176178242D01*
X102962403Y-176269104D01*
X102962404Y-176269104D01*
X102962406Y-176269105D01*
X103193289Y-176324535D01*
X103430000Y-176343165D01*
X103666711Y-176324535D01*
X103897594Y-176269105D01*
X103897596Y-176269104D01*
X103897597Y-176269104D01*
X104116959Y-176178242D01*
X104116960Y-176178241D01*
X104116963Y-176178240D01*
X104319416Y-176054176D01*
X104499969Y-175899969D01*
X104654176Y-175719416D01*
X104778240Y-175516963D01*
X104800162Y-175464040D01*
X104869104Y-175297597D01*
X104869104Y-175297596D01*
X104869105Y-175297594D01*
X104924535Y-175066711D01*
X104943165Y-174830000D01*
X108916835Y-174830000D01*
X108935465Y-175066714D01*
X108990895Y-175297595D01*
X108990895Y-175297597D01*
X109081757Y-175516959D01*
X109081759Y-175516962D01*
X109205820Y-175719410D01*
X109205821Y-175719413D01*
X109254215Y-175776074D01*
X109360031Y-175899969D01*
X109499797Y-176019340D01*
X109540586Y-176054178D01*
X109540589Y-176054179D01*
X109743037Y-176178240D01*
X109743040Y-176178242D01*
X109962403Y-176269104D01*
X109962404Y-176269104D01*
X109962406Y-176269105D01*
X110193289Y-176324535D01*
X110430000Y-176343165D01*
X110666711Y-176324535D01*
X110897594Y-176269105D01*
X110897596Y-176269104D01*
X110897597Y-176269104D01*
X111116959Y-176178242D01*
X111116960Y-176178241D01*
X111116963Y-176178240D01*
X111319416Y-176054176D01*
X111499969Y-175899969D01*
X111654176Y-175719416D01*
X111778240Y-175516963D01*
X111800162Y-175464040D01*
X111869104Y-175297597D01*
X111869104Y-175297596D01*
X111869105Y-175297594D01*
X111924535Y-175066711D01*
X111943165Y-174830000D01*
X112416835Y-174830000D01*
X112435465Y-175066714D01*
X112490895Y-175297595D01*
X112490895Y-175297597D01*
X112581757Y-175516959D01*
X112581759Y-175516962D01*
X112705820Y-175719410D01*
X112705821Y-175719413D01*
X112754215Y-175776074D01*
X112860031Y-175899969D01*
X112999797Y-176019340D01*
X113040586Y-176054178D01*
X113040589Y-176054179D01*
X113243037Y-176178240D01*
X113243040Y-176178242D01*
X113462403Y-176269104D01*
X113462404Y-176269104D01*
X113462406Y-176269105D01*
X113693289Y-176324535D01*
X113930000Y-176343165D01*
X114166711Y-176324535D01*
X114397594Y-176269105D01*
X114397596Y-176269104D01*
X114397597Y-176269104D01*
X114616959Y-176178242D01*
X114616960Y-176178241D01*
X114616963Y-176178240D01*
X114819416Y-176054176D01*
X114999969Y-175899969D01*
X115154176Y-175719416D01*
X115278240Y-175516963D01*
X115300162Y-175464040D01*
X115369104Y-175297597D01*
X115369104Y-175297596D01*
X115369105Y-175297594D01*
X115424535Y-175066711D01*
X115443165Y-174830000D01*
X119416835Y-174830000D01*
X119435465Y-175066714D01*
X119490895Y-175297595D01*
X119490895Y-175297597D01*
X119581757Y-175516959D01*
X119581759Y-175516962D01*
X119705820Y-175719410D01*
X119705821Y-175719413D01*
X119754215Y-175776074D01*
X119860031Y-175899969D01*
X119999797Y-176019340D01*
X120040586Y-176054178D01*
X120040589Y-176054179D01*
X120243037Y-176178240D01*
X120243040Y-176178242D01*
X120462403Y-176269104D01*
X120462404Y-176269104D01*
X120462406Y-176269105D01*
X120693289Y-176324535D01*
X120930000Y-176343165D01*
X121166711Y-176324535D01*
X121397594Y-176269105D01*
X121397596Y-176269104D01*
X121397597Y-176269104D01*
X121616959Y-176178242D01*
X121616960Y-176178241D01*
X121616963Y-176178240D01*
X121819416Y-176054176D01*
X121999969Y-175899969D01*
X122154176Y-175719416D01*
X122278240Y-175516963D01*
X122300162Y-175464040D01*
X122369104Y-175297597D01*
X122369104Y-175297596D01*
X122369105Y-175297594D01*
X122424535Y-175066711D01*
X122443165Y-174830000D01*
X122916835Y-174830000D01*
X122935465Y-175066714D01*
X122990895Y-175297595D01*
X122990895Y-175297597D01*
X123081757Y-175516959D01*
X123081759Y-175516962D01*
X123205820Y-175719410D01*
X123205821Y-175719413D01*
X123254215Y-175776074D01*
X123360031Y-175899969D01*
X123499797Y-176019340D01*
X123540586Y-176054178D01*
X123540589Y-176054179D01*
X123743037Y-176178240D01*
X123743040Y-176178242D01*
X123962403Y-176269104D01*
X123962404Y-176269104D01*
X123962406Y-176269105D01*
X124193289Y-176324535D01*
X124430000Y-176343165D01*
X124666711Y-176324535D01*
X124897594Y-176269105D01*
X124897596Y-176269104D01*
X124897597Y-176269104D01*
X125116959Y-176178242D01*
X125116960Y-176178241D01*
X125116963Y-176178240D01*
X125319416Y-176054176D01*
X125499969Y-175899969D01*
X125654176Y-175719416D01*
X125778240Y-175516963D01*
X125800162Y-175464040D01*
X125869104Y-175297597D01*
X125869104Y-175297596D01*
X125869105Y-175297594D01*
X125924535Y-175066711D01*
X125943165Y-174830000D01*
X129916835Y-174830000D01*
X129935465Y-175066714D01*
X129990895Y-175297595D01*
X129990895Y-175297597D01*
X130081757Y-175516959D01*
X130081759Y-175516962D01*
X130205820Y-175719410D01*
X130205821Y-175719413D01*
X130254215Y-175776074D01*
X130360031Y-175899969D01*
X130499797Y-176019340D01*
X130540586Y-176054178D01*
X130540589Y-176054179D01*
X130743037Y-176178240D01*
X130743040Y-176178242D01*
X130962403Y-176269104D01*
X130962404Y-176269104D01*
X130962406Y-176269105D01*
X131193289Y-176324535D01*
X131430000Y-176343165D01*
X131666711Y-176324535D01*
X131897594Y-176269105D01*
X131897596Y-176269104D01*
X131897597Y-176269104D01*
X132116959Y-176178242D01*
X132116960Y-176178241D01*
X132116963Y-176178240D01*
X132319416Y-176054176D01*
X132499969Y-175899969D01*
X132654176Y-175719416D01*
X132778240Y-175516963D01*
X132800162Y-175464040D01*
X132869104Y-175297597D01*
X132869104Y-175297596D01*
X132869105Y-175297594D01*
X132924535Y-175066711D01*
X132943165Y-174830000D01*
X133416835Y-174830000D01*
X133435465Y-175066714D01*
X133490895Y-175297595D01*
X133490895Y-175297597D01*
X133581757Y-175516959D01*
X133581759Y-175516962D01*
X133705820Y-175719410D01*
X133705821Y-175719413D01*
X133754215Y-175776074D01*
X133860031Y-175899969D01*
X133999797Y-176019340D01*
X134040586Y-176054178D01*
X134040589Y-176054179D01*
X134243037Y-176178240D01*
X134243040Y-176178242D01*
X134462403Y-176269104D01*
X134462404Y-176269104D01*
X134462406Y-176269105D01*
X134693289Y-176324535D01*
X134930000Y-176343165D01*
X135166711Y-176324535D01*
X135397594Y-176269105D01*
X135397596Y-176269104D01*
X135397597Y-176269104D01*
X135616959Y-176178242D01*
X135616960Y-176178241D01*
X135616963Y-176178240D01*
X135819416Y-176054176D01*
X135999969Y-175899969D01*
X136154176Y-175719416D01*
X136278240Y-175516963D01*
X136300162Y-175464040D01*
X136369104Y-175297597D01*
X136369104Y-175297596D01*
X136369105Y-175297594D01*
X136424535Y-175066711D01*
X136443165Y-174830000D01*
X136424535Y-174593289D01*
X136369105Y-174362406D01*
X136369104Y-174362403D01*
X136369104Y-174362402D01*
X136278242Y-174143040D01*
X136278240Y-174143037D01*
X136154179Y-173940589D01*
X136154178Y-173940586D01*
X136057397Y-173827271D01*
X135999969Y-173760031D01*
X135858019Y-173638794D01*
X135819413Y-173605821D01*
X135819410Y-173605820D01*
X135616962Y-173481759D01*
X135616959Y-173481757D01*
X135397596Y-173390895D01*
X135166714Y-173335465D01*
X134930000Y-173316835D01*
X134693285Y-173335465D01*
X134462404Y-173390895D01*
X134462402Y-173390895D01*
X134243040Y-173481757D01*
X134243037Y-173481759D01*
X134040589Y-173605820D01*
X134040586Y-173605821D01*
X133860031Y-173760031D01*
X133705821Y-173940586D01*
X133705820Y-173940589D01*
X133581759Y-174143037D01*
X133581757Y-174143040D01*
X133490895Y-174362402D01*
X133490895Y-174362404D01*
X133435465Y-174593285D01*
X133416835Y-174830000D01*
X132943165Y-174830000D01*
X132924535Y-174593289D01*
X132869105Y-174362406D01*
X132869104Y-174362403D01*
X132869104Y-174362402D01*
X132778242Y-174143040D01*
X132778240Y-174143037D01*
X132654179Y-173940589D01*
X132654178Y-173940586D01*
X132557397Y-173827271D01*
X132499969Y-173760031D01*
X132358019Y-173638794D01*
X132319413Y-173605821D01*
X132319410Y-173605820D01*
X132116962Y-173481759D01*
X132116959Y-173481757D01*
X131897596Y-173390895D01*
X131666714Y-173335465D01*
X131430000Y-173316835D01*
X131193285Y-173335465D01*
X130962404Y-173390895D01*
X130962402Y-173390895D01*
X130743040Y-173481757D01*
X130743037Y-173481759D01*
X130540589Y-173605820D01*
X130540586Y-173605821D01*
X130360031Y-173760031D01*
X130205821Y-173940586D01*
X130205820Y-173940589D01*
X130081759Y-174143037D01*
X130081757Y-174143040D01*
X129990895Y-174362402D01*
X129990895Y-174362404D01*
X129935465Y-174593285D01*
X129916835Y-174830000D01*
X125943165Y-174830000D01*
X125924535Y-174593289D01*
X125869105Y-174362406D01*
X125869104Y-174362403D01*
X125869104Y-174362402D01*
X125778242Y-174143040D01*
X125778240Y-174143037D01*
X125654179Y-173940589D01*
X125654178Y-173940586D01*
X125557397Y-173827271D01*
X125499969Y-173760031D01*
X125358019Y-173638794D01*
X125319413Y-173605821D01*
X125319410Y-173605820D01*
X125116962Y-173481759D01*
X125116959Y-173481757D01*
X124897596Y-173390895D01*
X124666714Y-173335465D01*
X124430000Y-173316835D01*
X124193285Y-173335465D01*
X123962404Y-173390895D01*
X123962402Y-173390895D01*
X123743040Y-173481757D01*
X123743037Y-173481759D01*
X123540589Y-173605820D01*
X123540586Y-173605821D01*
X123360031Y-173760031D01*
X123205821Y-173940586D01*
X123205820Y-173940589D01*
X123081759Y-174143037D01*
X123081757Y-174143040D01*
X122990895Y-174362402D01*
X122990895Y-174362404D01*
X122935465Y-174593285D01*
X122916835Y-174830000D01*
X122443165Y-174830000D01*
X122424535Y-174593289D01*
X122369105Y-174362406D01*
X122369104Y-174362403D01*
X122369104Y-174362402D01*
X122278242Y-174143040D01*
X122278240Y-174143037D01*
X122154179Y-173940589D01*
X122154178Y-173940586D01*
X122057397Y-173827271D01*
X121999969Y-173760031D01*
X121858019Y-173638794D01*
X121819413Y-173605821D01*
X121819410Y-173605820D01*
X121616962Y-173481759D01*
X121616959Y-173481757D01*
X121397596Y-173390895D01*
X121166714Y-173335465D01*
X120930000Y-173316835D01*
X120693285Y-173335465D01*
X120462404Y-173390895D01*
X120462402Y-173390895D01*
X120243040Y-173481757D01*
X120243037Y-173481759D01*
X120040589Y-173605820D01*
X120040586Y-173605821D01*
X119860031Y-173760031D01*
X119705821Y-173940586D01*
X119705820Y-173940589D01*
X119581759Y-174143037D01*
X119581757Y-174143040D01*
X119490895Y-174362402D01*
X119490895Y-174362404D01*
X119435465Y-174593285D01*
X119416835Y-174830000D01*
X115443165Y-174830000D01*
X115424535Y-174593289D01*
X115369105Y-174362406D01*
X115369104Y-174362403D01*
X115369104Y-174362402D01*
X115278242Y-174143040D01*
X115278240Y-174143037D01*
X115154179Y-173940589D01*
X115154178Y-173940586D01*
X115057397Y-173827271D01*
X114999969Y-173760031D01*
X114858019Y-173638794D01*
X114819413Y-173605821D01*
X114819410Y-173605820D01*
X114616962Y-173481759D01*
X114616959Y-173481757D01*
X114397596Y-173390895D01*
X114166714Y-173335465D01*
X113930000Y-173316835D01*
X113693285Y-173335465D01*
X113462404Y-173390895D01*
X113462402Y-173390895D01*
X113243040Y-173481757D01*
X113243037Y-173481759D01*
X113040589Y-173605820D01*
X113040586Y-173605821D01*
X112860031Y-173760031D01*
X112705821Y-173940586D01*
X112705820Y-173940589D01*
X112581759Y-174143037D01*
X112581757Y-174143040D01*
X112490895Y-174362402D01*
X112490895Y-174362404D01*
X112435465Y-174593285D01*
X112416835Y-174830000D01*
X111943165Y-174830000D01*
X111924535Y-174593289D01*
X111869105Y-174362406D01*
X111869104Y-174362403D01*
X111869104Y-174362402D01*
X111778242Y-174143040D01*
X111778240Y-174143037D01*
X111654179Y-173940589D01*
X111654178Y-173940586D01*
X111557397Y-173827271D01*
X111499969Y-173760031D01*
X111358019Y-173638794D01*
X111319413Y-173605821D01*
X111319410Y-173605820D01*
X111116962Y-173481759D01*
X111116959Y-173481757D01*
X110897596Y-173390895D01*
X110666714Y-173335465D01*
X110430000Y-173316835D01*
X110193285Y-173335465D01*
X109962404Y-173390895D01*
X109962402Y-173390895D01*
X109743040Y-173481757D01*
X109743037Y-173481759D01*
X109540589Y-173605820D01*
X109540586Y-173605821D01*
X109360031Y-173760031D01*
X109205821Y-173940586D01*
X109205820Y-173940589D01*
X109081759Y-174143037D01*
X109081757Y-174143040D01*
X108990895Y-174362402D01*
X108990895Y-174362404D01*
X108935465Y-174593285D01*
X108916835Y-174830000D01*
X104943165Y-174830000D01*
X104924535Y-174593289D01*
X104869105Y-174362406D01*
X104869104Y-174362403D01*
X104869104Y-174362402D01*
X104778242Y-174143040D01*
X104778240Y-174143037D01*
X104654179Y-173940589D01*
X104654178Y-173940586D01*
X104557397Y-173827271D01*
X104499969Y-173760031D01*
X104358019Y-173638794D01*
X104319413Y-173605821D01*
X104319410Y-173605820D01*
X104116962Y-173481759D01*
X104116959Y-173481757D01*
X103897596Y-173390895D01*
X103666714Y-173335465D01*
X103430000Y-173316835D01*
X103193285Y-173335465D01*
X102962404Y-173390895D01*
X102962402Y-173390895D01*
X102743040Y-173481757D01*
X102743037Y-173481759D01*
X102540589Y-173605820D01*
X102540586Y-173605821D01*
X102360031Y-173760031D01*
X102205821Y-173940586D01*
X102205820Y-173940589D01*
X102081759Y-174143037D01*
X102081757Y-174143040D01*
X101990895Y-174362402D01*
X101990895Y-174362404D01*
X101935465Y-174593285D01*
X101916835Y-174830000D01*
X101443165Y-174830000D01*
X101424535Y-174593289D01*
X101369105Y-174362406D01*
X101369104Y-174362403D01*
X101369104Y-174362402D01*
X101278242Y-174143040D01*
X101278240Y-174143037D01*
X101154179Y-173940589D01*
X101154178Y-173940586D01*
X101057397Y-173827271D01*
X100999969Y-173760031D01*
X100858019Y-173638794D01*
X100819413Y-173605821D01*
X100819410Y-173605820D01*
X100616962Y-173481759D01*
X100616959Y-173481757D01*
X100397596Y-173390895D01*
X100166714Y-173335465D01*
X99930000Y-173316835D01*
X99693285Y-173335465D01*
X99462404Y-173390895D01*
X99462402Y-173390895D01*
X99243040Y-173481757D01*
X99243037Y-173481759D01*
X99040589Y-173605820D01*
X99040586Y-173605821D01*
X98860031Y-173760031D01*
X98705821Y-173940586D01*
X98705820Y-173940589D01*
X98581759Y-174143037D01*
X98581757Y-174143040D01*
X98490895Y-174362402D01*
X98490895Y-174362404D01*
X98435465Y-174593285D01*
X98416835Y-174830000D01*
X94010003Y-174830000D01*
X94010003Y-174632175D01*
X94010002Y-174632158D01*
X94003601Y-174572630D01*
X94003599Y-174572623D01*
X93953357Y-174437916D01*
X93953353Y-174437909D01*
X93867193Y-174322815D01*
X93867190Y-174322812D01*
X93752096Y-174236652D01*
X93752091Y-174236649D01*
X93632191Y-174191929D01*
X93576258Y-174150057D01*
X93551841Y-174084593D01*
X93566693Y-174016320D01*
X93584289Y-173991772D01*
X93735725Y-173827271D01*
X93858863Y-173638794D01*
X93949299Y-173432619D01*
X94004567Y-173214371D01*
X94023159Y-172990003D01*
X94022718Y-172984685D01*
X94004568Y-172765643D01*
X94004566Y-172765631D01*
X93979052Y-172664880D01*
X93949299Y-172547387D01*
X93858863Y-172341212D01*
X93735725Y-172152735D01*
X93735722Y-172152732D01*
X93735718Y-172152726D01*
X93583246Y-171987100D01*
X93583241Y-171987095D01*
X93405580Y-171848815D01*
X93405581Y-171848815D01*
X93405579Y-171848814D01*
X93369073Y-171829058D01*
X93319482Y-171779839D01*
X93304374Y-171711622D01*
X93328544Y-171646067D01*
X93369073Y-171610948D01*
X93378384Y-171605909D01*
X93405579Y-171591192D01*
X93583243Y-171452909D01*
X93735725Y-171287271D01*
X93858863Y-171098794D01*
X93949299Y-170892619D01*
X94004567Y-170674371D01*
X94004568Y-170674362D01*
X94023159Y-170450008D01*
X94023159Y-170449997D01*
X94004568Y-170225643D01*
X94004566Y-170225631D01*
X93949299Y-170007388D01*
X93928021Y-169958879D01*
X93858863Y-169801212D01*
X93735725Y-169612735D01*
X93735722Y-169612732D01*
X93735718Y-169612726D01*
X93583246Y-169447100D01*
X93583241Y-169447095D01*
X93405580Y-169308815D01*
X93405581Y-169308815D01*
X93405579Y-169308814D01*
X93369073Y-169289058D01*
X93319482Y-169239839D01*
X93304374Y-169171622D01*
X93328544Y-169106067D01*
X93369073Y-169070948D01*
X93369087Y-169070939D01*
X93405579Y-169051192D01*
X93583243Y-168912909D01*
X93735725Y-168747271D01*
X93858863Y-168558794D01*
X93949299Y-168352619D01*
X94004567Y-168134371D01*
X94013897Y-168021775D01*
X94023159Y-167910008D01*
X94023159Y-167909997D01*
X94004568Y-167685643D01*
X94004566Y-167685631D01*
X93968093Y-167541603D01*
X93949299Y-167467387D01*
X93858863Y-167261212D01*
X93766605Y-167120000D01*
X115376496Y-167120000D01*
X115396458Y-167309928D01*
X115396459Y-167309931D01*
X115455470Y-167491549D01*
X115455473Y-167491556D01*
X115550960Y-167656944D01*
X115678747Y-167798866D01*
X115833248Y-167911118D01*
X116007712Y-167988794D01*
X116194513Y-168028500D01*
X116385487Y-168028500D01*
X116572288Y-167988794D01*
X116746752Y-167911118D01*
X116901253Y-167798866D01*
X116950857Y-167743774D01*
X117010341Y-167707125D01*
X117080198Y-167708454D01*
X117093431Y-167713461D01*
X117217712Y-167768794D01*
X117404513Y-167808500D01*
X117595487Y-167808500D01*
X117782288Y-167768794D01*
X117956752Y-167691118D01*
X118111253Y-167578866D01*
X118239040Y-167436944D01*
X118334527Y-167271556D01*
X118393542Y-167089928D01*
X118413504Y-166900000D01*
X118393542Y-166710072D01*
X118334527Y-166528444D01*
X118239040Y-166363056D01*
X118111253Y-166221134D01*
X117956752Y-166108882D01*
X117782288Y-166031206D01*
X117782286Y-166031205D01*
X117595487Y-165991500D01*
X117404513Y-165991500D01*
X117217714Y-166031205D01*
X117043246Y-166108883D01*
X116888745Y-166221135D01*
X116839140Y-166276227D01*
X116779653Y-166312875D01*
X116709796Y-166311544D01*
X116696564Y-166306537D01*
X116572288Y-166251206D01*
X116572286Y-166251205D01*
X116385487Y-166211500D01*
X116194513Y-166211500D01*
X116007714Y-166251205D01*
X116007712Y-166251206D01*
X115869201Y-166312875D01*
X115833246Y-166328883D01*
X115678745Y-166441135D01*
X115550959Y-166583057D01*
X115455473Y-166748443D01*
X115455470Y-166748450D01*
X115403923Y-166907097D01*
X115396458Y-166930072D01*
X115376496Y-167120000D01*
X93766605Y-167120000D01*
X93735725Y-167072735D01*
X93735722Y-167072732D01*
X93735718Y-167072726D01*
X93583246Y-166907100D01*
X93583241Y-166907095D01*
X93405580Y-166768815D01*
X93405575Y-166768811D01*
X93207583Y-166661664D01*
X93207580Y-166661662D01*
X93207577Y-166661661D01*
X93207574Y-166661660D01*
X93207572Y-166661659D01*
X92994640Y-166588559D01*
X92772572Y-166551503D01*
X92547434Y-166551503D01*
X92325365Y-166588559D01*
X92112433Y-166661659D01*
X92112422Y-166661664D01*
X91914430Y-166768811D01*
X91914425Y-166768815D01*
X91736764Y-166907095D01*
X91736759Y-166907100D01*
X91584287Y-167072726D01*
X91584279Y-167072737D01*
X91461143Y-167261210D01*
X91370706Y-167467388D01*
X91315439Y-167685631D01*
X91315437Y-167685643D01*
X91296847Y-167909997D01*
X68564830Y-167909997D01*
X68564139Y-164360000D01*
X121386496Y-164360000D01*
X121406458Y-164549928D01*
X121406459Y-164549931D01*
X121465470Y-164731549D01*
X121465473Y-164731556D01*
X121560960Y-164896944D01*
X121688747Y-165038866D01*
X121843248Y-165151118D01*
X122017712Y-165228794D01*
X122204513Y-165268500D01*
X122395487Y-165268500D01*
X122582288Y-165228794D01*
X122756752Y-165151118D01*
X122911253Y-165038866D01*
X123039040Y-164896944D01*
X123134527Y-164731556D01*
X123193542Y-164549928D01*
X123213504Y-164360000D01*
X123193542Y-164170072D01*
X123134527Y-163988444D01*
X123116325Y-163956917D01*
X123099852Y-163889021D01*
X123122704Y-163822993D01*
X123173274Y-163781641D01*
X123286752Y-163731118D01*
X123441253Y-163618866D01*
X123569040Y-163476944D01*
X123664527Y-163311556D01*
X123723542Y-163129928D01*
X123743504Y-162940000D01*
X123723542Y-162750072D01*
X123664527Y-162568444D01*
X123569040Y-162403056D01*
X123441253Y-162261134D01*
X123286752Y-162148882D01*
X123112288Y-162071206D01*
X123112286Y-162071205D01*
X122925487Y-162031500D01*
X122734513Y-162031500D01*
X122547714Y-162071205D01*
X122373246Y-162148883D01*
X122218745Y-162261135D01*
X122090959Y-162403057D01*
X121995473Y-162568443D01*
X121995470Y-162568450D01*
X121942137Y-162732593D01*
X121936458Y-162750072D01*
X121916496Y-162940000D01*
X121936458Y-163129928D01*
X121936459Y-163129931D01*
X121995470Y-163311549D01*
X121995474Y-163311558D01*
X122013674Y-163343082D01*
X122030145Y-163410982D01*
X122007292Y-163477009D01*
X121956722Y-163518359D01*
X121843248Y-163568881D01*
X121688745Y-163681135D01*
X121560959Y-163823057D01*
X121465473Y-163988443D01*
X121465470Y-163988450D01*
X121406459Y-164170068D01*
X121406458Y-164170072D01*
X121386496Y-164360000D01*
X68564139Y-164360000D01*
X68563895Y-163104150D01*
X92272346Y-163104150D01*
X92292308Y-163294078D01*
X92292309Y-163294081D01*
X92351320Y-163475699D01*
X92351323Y-163475706D01*
X92446810Y-163641094D01*
X92574597Y-163783016D01*
X92729098Y-163895268D01*
X92903562Y-163972944D01*
X93090363Y-164012650D01*
X93281337Y-164012650D01*
X93468138Y-163972944D01*
X93642602Y-163895268D01*
X93797103Y-163783016D01*
X93924890Y-163641094D01*
X94020377Y-163475706D01*
X94079392Y-163294078D01*
X94099354Y-163104150D01*
X94079392Y-162914222D01*
X94020377Y-162732594D01*
X93924890Y-162567206D01*
X93797103Y-162425284D01*
X93642602Y-162313032D01*
X93468138Y-162235356D01*
X93468136Y-162235355D01*
X93281337Y-162195650D01*
X93090363Y-162195650D01*
X92903564Y-162235355D01*
X92903562Y-162235356D01*
X92764914Y-162297086D01*
X92729096Y-162313033D01*
X92574595Y-162425285D01*
X92446809Y-162567207D01*
X92351323Y-162732593D01*
X92351320Y-162732600D01*
X92292309Y-162914218D01*
X92292308Y-162914222D01*
X92272346Y-163104150D01*
X68563895Y-163104150D01*
X68562444Y-155649991D01*
X69166841Y-155649991D01*
X69166841Y-155650002D01*
X69185431Y-155874356D01*
X69185433Y-155874368D01*
X69240700Y-156092611D01*
X69331137Y-156298789D01*
X69454273Y-156487262D01*
X69454281Y-156487273D01*
X69606753Y-156652899D01*
X69606758Y-156652904D01*
X69614441Y-156658884D01*
X69784421Y-156791186D01*
X69784426Y-156791188D01*
X69784428Y-156791190D01*
X69820927Y-156810943D01*
X69870517Y-156860162D01*
X69885625Y-156928379D01*
X69861454Y-156993934D01*
X69820927Y-157029051D01*
X69784428Y-157048803D01*
X69784419Y-157048809D01*
X69606758Y-157187089D01*
X69606753Y-157187094D01*
X69454281Y-157352720D01*
X69454273Y-157352731D01*
X69331137Y-157541204D01*
X69240700Y-157747382D01*
X69185433Y-157965625D01*
X69185431Y-157965637D01*
X69166841Y-158189991D01*
X69166841Y-158190002D01*
X69185431Y-158414356D01*
X69185433Y-158414368D01*
X69240700Y-158632611D01*
X69331137Y-158838789D01*
X69454273Y-159027262D01*
X69454281Y-159027273D01*
X69606753Y-159192899D01*
X69606758Y-159192904D01*
X69649638Y-159226279D01*
X69784421Y-159331186D01*
X69784426Y-159331188D01*
X69784428Y-159331190D01*
X69820927Y-159350943D01*
X69870517Y-159400162D01*
X69885625Y-159468379D01*
X69861454Y-159533934D01*
X69820927Y-159569051D01*
X69784428Y-159588803D01*
X69784419Y-159588809D01*
X69606758Y-159727089D01*
X69606753Y-159727094D01*
X69454281Y-159892720D01*
X69454273Y-159892731D01*
X69331137Y-160081204D01*
X69240700Y-160287382D01*
X69185433Y-160505625D01*
X69185431Y-160505637D01*
X69166841Y-160729991D01*
X69166841Y-160730002D01*
X69185431Y-160954356D01*
X69185433Y-160954368D01*
X69240700Y-161172611D01*
X69331137Y-161378789D01*
X69454273Y-161567262D01*
X69454281Y-161567273D01*
X69606753Y-161732899D01*
X69606758Y-161732904D01*
X69622210Y-161744931D01*
X69784421Y-161871186D01*
X69784422Y-161871186D01*
X69784424Y-161871188D01*
X69886723Y-161926549D01*
X69982423Y-161978339D01*
X70195362Y-162051441D01*
X70417428Y-162088497D01*
X70642566Y-162088497D01*
X70864632Y-162051441D01*
X71077571Y-161978339D01*
X71275573Y-161871186D01*
X71453237Y-161732903D01*
X71605719Y-161567265D01*
X71728857Y-161378788D01*
X71819293Y-161172613D01*
X71874561Y-160954365D01*
X71874760Y-160951962D01*
X71893153Y-160730002D01*
X71893153Y-160729991D01*
X71874562Y-160505637D01*
X71874560Y-160505625D01*
X71839638Y-160367723D01*
X71819293Y-160287381D01*
X71728857Y-160081206D01*
X71717492Y-160063811D01*
X71605720Y-159892731D01*
X71605712Y-159892720D01*
X71453240Y-159727094D01*
X71453235Y-159727089D01*
X71275574Y-159588809D01*
X71275575Y-159588809D01*
X71275573Y-159588808D01*
X71239067Y-159569052D01*
X71189476Y-159519833D01*
X71174368Y-159451616D01*
X71198538Y-159386061D01*
X71239067Y-159350942D01*
X71239081Y-159350933D01*
X71275573Y-159331186D01*
X71453237Y-159192903D01*
X71572636Y-159063202D01*
X71605712Y-159027273D01*
X71605713Y-159027271D01*
X71605719Y-159027265D01*
X71728857Y-158838788D01*
X71819293Y-158632613D01*
X71874561Y-158414365D01*
X71876841Y-158386849D01*
X71893153Y-158190002D01*
X71893153Y-158189991D01*
X71874562Y-157965637D01*
X71874560Y-157965625D01*
X71837869Y-157820735D01*
X71819293Y-157747381D01*
X71728857Y-157541206D01*
X71717492Y-157523811D01*
X71638812Y-157403382D01*
X71605719Y-157352729D01*
X71605716Y-157352726D01*
X71605712Y-157352720D01*
X71453240Y-157187094D01*
X71453235Y-157187089D01*
X71339373Y-157098466D01*
X78847863Y-157098466D01*
X78867825Y-157288394D01*
X78867826Y-157288397D01*
X78926837Y-157470015D01*
X78926840Y-157470022D01*
X79022327Y-157635410D01*
X79150114Y-157777332D01*
X79304615Y-157889584D01*
X79479079Y-157967260D01*
X79665880Y-158006966D01*
X79856854Y-158006966D01*
X80043655Y-157967260D01*
X80218119Y-157889584D01*
X80372620Y-157777332D01*
X80500407Y-157635410D01*
X80595894Y-157470022D01*
X80654909Y-157288394D01*
X80674871Y-157098466D01*
X80654909Y-156908538D01*
X80595894Y-156726910D01*
X80500407Y-156561522D01*
X80372620Y-156419600D01*
X80218119Y-156307348D01*
X80043655Y-156229672D01*
X80043653Y-156229671D01*
X79856854Y-156189966D01*
X79665880Y-156189966D01*
X79479081Y-156229671D01*
X79479079Y-156229672D01*
X79348144Y-156287968D01*
X79304613Y-156307349D01*
X79150112Y-156419601D01*
X79022326Y-156561523D01*
X78926840Y-156726909D01*
X78926837Y-156726916D01*
X78867826Y-156908534D01*
X78867825Y-156908538D01*
X78847863Y-157098466D01*
X71339373Y-157098466D01*
X71275574Y-157048809D01*
X71275575Y-157048809D01*
X71275573Y-157048808D01*
X71239067Y-157029052D01*
X71189476Y-156979833D01*
X71174368Y-156911616D01*
X71198538Y-156846061D01*
X71239067Y-156810942D01*
X71239081Y-156810933D01*
X71275573Y-156791186D01*
X71453237Y-156652903D01*
X71555202Y-156542141D01*
X71605712Y-156487273D01*
X71605713Y-156487271D01*
X71605719Y-156487265D01*
X71728857Y-156298788D01*
X71819293Y-156092613D01*
X71874561Y-155874365D01*
X71874794Y-155871556D01*
X71893153Y-155650002D01*
X71893153Y-155649991D01*
X71874562Y-155425637D01*
X71874560Y-155425625D01*
X71836906Y-155276932D01*
X71819293Y-155207381D01*
X71728857Y-155001206D01*
X71727397Y-154998972D01*
X71638812Y-154863382D01*
X71605719Y-154812729D01*
X71454288Y-154648233D01*
X71423367Y-154585581D01*
X71431227Y-154516155D01*
X71475373Y-154461999D01*
X71502186Y-154448070D01*
X71622083Y-154403351D01*
X71622090Y-154403347D01*
X71737184Y-154317187D01*
X71737187Y-154317184D01*
X71823347Y-154202090D01*
X71823351Y-154202083D01*
X71873593Y-154067376D01*
X71873595Y-154067369D01*
X71879996Y-154007841D01*
X71879997Y-154007824D01*
X71879997Y-153359997D01*
X70963009Y-153359997D01*
X70995922Y-153302990D01*
X71029997Y-153175823D01*
X71029997Y-153044171D01*
X70995922Y-152917004D01*
X70963009Y-152859997D01*
X71879997Y-152859997D01*
X71879997Y-152212169D01*
X71879996Y-152212152D01*
X71873595Y-152152624D01*
X71873593Y-152152617D01*
X71823351Y-152017910D01*
X71823347Y-152017903D01*
X71737187Y-151902809D01*
X71737184Y-151902806D01*
X71622090Y-151816646D01*
X71622083Y-151816642D01*
X71487376Y-151766400D01*
X71487369Y-151766398D01*
X71427841Y-151759997D01*
X70779997Y-151759997D01*
X70779997Y-152676985D01*
X70722990Y-152644072D01*
X70595823Y-152609997D01*
X70464171Y-152609997D01*
X70337004Y-152644072D01*
X70279997Y-152676985D01*
X70279997Y-151759997D01*
X69632152Y-151759997D01*
X69572624Y-151766398D01*
X69572617Y-151766400D01*
X69437910Y-151816642D01*
X69437903Y-151816646D01*
X69322809Y-151902806D01*
X69322806Y-151902809D01*
X69236646Y-152017903D01*
X69236642Y-152017910D01*
X69186400Y-152152617D01*
X69186398Y-152152624D01*
X69179997Y-152212152D01*
X69179997Y-152859997D01*
X70096985Y-152859997D01*
X70064072Y-152917004D01*
X70029997Y-153044171D01*
X70029997Y-153175823D01*
X70064072Y-153302990D01*
X70096985Y-153359997D01*
X69179997Y-153359997D01*
X69179997Y-154007841D01*
X69186398Y-154067369D01*
X69186400Y-154067376D01*
X69236642Y-154202083D01*
X69236646Y-154202090D01*
X69322806Y-154317184D01*
X69322809Y-154317187D01*
X69437903Y-154403347D01*
X69437910Y-154403351D01*
X69557807Y-154448070D01*
X69613741Y-154489941D01*
X69638158Y-154555406D01*
X69623306Y-154623679D01*
X69605703Y-154648235D01*
X69454281Y-154812720D01*
X69454273Y-154812731D01*
X69331137Y-155001204D01*
X69240700Y-155207382D01*
X69185433Y-155425625D01*
X69185431Y-155425637D01*
X69166841Y-155649991D01*
X68562444Y-155649991D01*
X68561103Y-148762566D01*
X74009062Y-148762566D01*
X74029024Y-148952494D01*
X74029025Y-148952497D01*
X74088036Y-149134115D01*
X74088039Y-149134122D01*
X74183526Y-149299510D01*
X74311313Y-149441432D01*
X74465814Y-149553684D01*
X74640278Y-149631360D01*
X74827079Y-149671066D01*
X75018053Y-149671066D01*
X75204854Y-149631360D01*
X75379318Y-149553684D01*
X75533819Y-149441432D01*
X75661606Y-149299510D01*
X75757093Y-149134122D01*
X75816108Y-148952494D01*
X75836070Y-148762566D01*
X75816108Y-148572638D01*
X75757093Y-148391010D01*
X75661606Y-148225622D01*
X75533819Y-148083700D01*
X75379318Y-147971448D01*
X75204854Y-147893772D01*
X75204852Y-147893771D01*
X75018053Y-147854066D01*
X74827079Y-147854066D01*
X74640280Y-147893771D01*
X74465812Y-147971449D01*
X74311311Y-148083701D01*
X74183525Y-148225623D01*
X74088039Y-148391009D01*
X74088036Y-148391016D01*
X74030015Y-148569587D01*
X74029024Y-148572638D01*
X74009062Y-148762566D01*
X68561103Y-148762566D01*
X68558805Y-136953783D01*
X68558807Y-136953107D01*
X68558868Y-136941851D01*
X68559423Y-136839568D01*
X69119500Y-136839568D01*
X69119500Y-137120431D01*
X69150942Y-137399494D01*
X69150945Y-137399512D01*
X69213439Y-137673317D01*
X69213443Y-137673329D01*
X69306200Y-137938411D01*
X69428053Y-138191442D01*
X69428055Y-138191445D01*
X69577477Y-138429248D01*
X69690557Y-138571046D01*
X69750656Y-138646408D01*
X69752584Y-138648825D01*
X69951175Y-138847416D01*
X70170752Y-139022523D01*
X70408555Y-139171945D01*
X70408557Y-139171946D01*
X70457482Y-139195507D01*
X70661592Y-139293801D01*
X70840947Y-139356560D01*
X70926670Y-139386556D01*
X70926682Y-139386560D01*
X71200491Y-139449055D01*
X71200497Y-139449055D01*
X71200505Y-139449057D01*
X71386547Y-139470018D01*
X71479569Y-139480499D01*
X71479572Y-139480500D01*
X71479575Y-139480500D01*
X71760428Y-139480500D01*
X71760429Y-139480499D01*
X71921494Y-139462352D01*
X72039494Y-139449057D01*
X72039499Y-139449056D01*
X72039509Y-139449055D01*
X72313318Y-139386560D01*
X72578408Y-139293801D01*
X72831445Y-139171945D01*
X73069248Y-139022523D01*
X73288825Y-138847416D01*
X73487416Y-138648825D01*
X73662523Y-138429248D01*
X73811945Y-138191445D01*
X73933801Y-137938408D01*
X74026560Y-137673318D01*
X74089055Y-137399509D01*
X74089924Y-137391801D01*
X74111625Y-137199192D01*
X74120500Y-137120425D01*
X74120500Y-136839575D01*
X74103722Y-136690666D01*
X74089057Y-136560505D01*
X74089054Y-136560487D01*
X74026560Y-136286682D01*
X74026556Y-136286670D01*
X73977723Y-136147115D01*
X73933801Y-136021592D01*
X73814502Y-135773864D01*
X73811946Y-135768557D01*
X73811945Y-135768555D01*
X73662523Y-135530752D01*
X73487416Y-135311175D01*
X73288825Y-135112584D01*
X73266775Y-135095000D01*
X73157199Y-135007616D01*
X73069248Y-134937477D01*
X72831445Y-134788055D01*
X72831442Y-134788053D01*
X72578411Y-134666200D01*
X72313329Y-134573443D01*
X72313317Y-134573439D01*
X72039512Y-134510945D01*
X72039494Y-134510942D01*
X71760431Y-134479500D01*
X71760425Y-134479500D01*
X71479575Y-134479500D01*
X71479568Y-134479500D01*
X71200505Y-134510942D01*
X71200487Y-134510945D01*
X70926682Y-134573439D01*
X70926670Y-134573443D01*
X70661588Y-134666200D01*
X70408557Y-134788053D01*
X70170753Y-134937476D01*
X69951175Y-135112583D01*
X69752583Y-135311175D01*
X69577476Y-135530753D01*
X69428053Y-135768557D01*
X69306200Y-136021588D01*
X69213443Y-136286670D01*
X69213439Y-136286682D01*
X69150945Y-136560487D01*
X69150942Y-136560505D01*
X69119500Y-136839568D01*
X68559423Y-136839568D01*
X68559686Y-136791079D01*
X68560359Y-136778845D01*
X68594149Y-136456660D01*
X68596385Y-136442883D01*
X68666035Y-136127405D01*
X68669812Y-136113953D01*
X68670392Y-136112260D01*
X68774530Y-135808313D01*
X68779788Y-135795391D01*
X68918244Y-135503473D01*
X68924933Y-135491210D01*
X68932998Y-135478221D01*
X69095360Y-135216740D01*
X69103377Y-135205319D01*
X69303624Y-134951764D01*
X69312875Y-134941319D01*
X69540388Y-134711913D01*
X69550756Y-134702576D01*
X69802638Y-134500240D01*
X69813999Y-134492124D01*
X69915805Y-134427735D01*
X70087051Y-134319426D01*
X70099245Y-134312644D01*
X70390010Y-134171773D01*
X70402890Y-134166406D01*
X70707654Y-134059159D01*
X70721067Y-134055273D01*
X71035978Y-133983007D01*
X71049728Y-133980660D01*
X71371614Y-133944202D01*
X71383838Y-133943428D01*
X71545372Y-133941213D01*
X71547056Y-133941202D01*
X76841021Y-133941886D01*
G37*
G04 #@! TD.AperFunction*
G04 #@! TA.AperFunction,Conductor*
G36*
X95346861Y-150375688D02*
G01*
X95392616Y-150428492D01*
X95402560Y-150497650D01*
X95373535Y-150561206D01*
X95367502Y-150567685D01*
X95319179Y-150616006D01*
X95319176Y-150616010D01*
X95249851Y-150719761D01*
X95249846Y-150719770D01*
X95202093Y-150835057D01*
X95202091Y-150835065D01*
X95177748Y-150957444D01*
X95177748Y-152511973D01*
X95158063Y-152579012D01*
X95145898Y-152594945D01*
X95072211Y-152676782D01*
X95072206Y-152676789D01*
X94976721Y-152842175D01*
X94976718Y-152842182D01*
X94917707Y-153023800D01*
X94917706Y-153023804D01*
X94897744Y-153213732D01*
X94917706Y-153403660D01*
X94917707Y-153403663D01*
X94976718Y-153585281D01*
X94976721Y-153585288D01*
X95072208Y-153750676D01*
X95199995Y-153892598D01*
X95354496Y-154004850D01*
X95528960Y-154082526D01*
X95715761Y-154122232D01*
X95906735Y-154122232D01*
X96093536Y-154082526D01*
X96268000Y-154004850D01*
X96422501Y-153892598D01*
X96550288Y-153750676D01*
X96645775Y-153585288D01*
X96704790Y-153403660D01*
X96724752Y-153213732D01*
X96704790Y-153023804D01*
X96645775Y-152842176D01*
X96550288Y-152676788D01*
X96550284Y-152676782D01*
X96476598Y-152594945D01*
X96446368Y-152531953D01*
X96444748Y-152511973D01*
X96444748Y-151648461D01*
X96464433Y-151581422D01*
X96517237Y-151535667D01*
X96586395Y-151525723D01*
X96649951Y-151554748D01*
X96656429Y-151560780D01*
X97047716Y-151952068D01*
X97047720Y-151952071D01*
X97151471Y-152021396D01*
X97151477Y-152021399D01*
X97151478Y-152021400D01*
X97266768Y-152069155D01*
X97389154Y-152093499D01*
X97389158Y-152093500D01*
X97389159Y-152093500D01*
X97513946Y-152093500D01*
X100577934Y-152093500D01*
X100644973Y-152113185D01*
X100678250Y-152144611D01*
X100680956Y-152148336D01*
X100680959Y-152148340D01*
X100738416Y-152212152D01*
X100751334Y-152226500D01*
X100808746Y-152290262D01*
X100963247Y-152402514D01*
X101137711Y-152480190D01*
X101324512Y-152519896D01*
X101515486Y-152519896D01*
X101702287Y-152480190D01*
X101876751Y-152402514D01*
X102031252Y-152290262D01*
X102159039Y-152148340D01*
X102254526Y-151982952D01*
X102313541Y-151801324D01*
X102333503Y-151611396D01*
X102317742Y-151461438D01*
X102330310Y-151392714D01*
X102368177Y-151348164D01*
X102381252Y-151338665D01*
X102385159Y-151334326D01*
X102444645Y-151297678D01*
X102477308Y-151293299D01*
X102886033Y-151293299D01*
X102953072Y-151312984D01*
X102973714Y-151329618D01*
X104797344Y-153153248D01*
X104817050Y-153178929D01*
X104890097Y-153305450D01*
X104890959Y-153306942D01*
X104890958Y-153306942D01*
X104957483Y-153380825D01*
X105018747Y-153448866D01*
X105173248Y-153561118D01*
X105347712Y-153638794D01*
X105534513Y-153678500D01*
X105725487Y-153678500D01*
X105912288Y-153638794D01*
X106086752Y-153561118D01*
X106175495Y-153496641D01*
X106241298Y-153473162D01*
X106309353Y-153488987D01*
X106321250Y-153496632D01*
X106475595Y-153608771D01*
X106650059Y-153686447D01*
X106836860Y-153726153D01*
X107027834Y-153726153D01*
X107214630Y-153686448D01*
X107214629Y-153686448D01*
X107214635Y-153686447D01*
X107268844Y-153662311D01*
X107338091Y-153653028D01*
X107401368Y-153682656D01*
X107438581Y-153741791D01*
X107443277Y-153775592D01*
X107443277Y-155537876D01*
X107423592Y-155604915D01*
X107406958Y-155625557D01*
X103792864Y-159239650D01*
X103731541Y-159273135D01*
X103661849Y-159268151D01*
X103605916Y-159226279D01*
X103581863Y-159164934D01*
X103568542Y-159038184D01*
X103520189Y-158889371D01*
X103509528Y-158856558D01*
X103499269Y-158838789D01*
X103474254Y-158795462D01*
X103457782Y-158727565D01*
X103474256Y-158671463D01*
X103515697Y-158599686D01*
X103519332Y-158588500D01*
X103574712Y-158418058D01*
X103594674Y-158228130D01*
X103574712Y-158038202D01*
X103515697Y-157856574D01*
X103420210Y-157691186D01*
X103292423Y-157549264D01*
X103137922Y-157437012D01*
X102963458Y-157359336D01*
X102963456Y-157359335D01*
X102776657Y-157319630D01*
X102631591Y-157319630D01*
X102564552Y-157299945D01*
X102543910Y-157283311D01*
X101847616Y-156587016D01*
X101847612Y-156587013D01*
X101743861Y-156517688D01*
X101743852Y-156517683D01*
X101628565Y-156469930D01*
X101628557Y-156469928D01*
X101506178Y-156445585D01*
X101506174Y-156445585D01*
X97402308Y-156445585D01*
X97335269Y-156425900D01*
X97310159Y-156404558D01*
X97306253Y-156400220D01*
X97298111Y-156394304D01*
X97151751Y-156287967D01*
X96977287Y-156210291D01*
X96977285Y-156210290D01*
X96790486Y-156170585D01*
X96599512Y-156170585D01*
X96412713Y-156210290D01*
X96369180Y-156229672D01*
X96251241Y-156282182D01*
X96238245Y-156287968D01*
X96083744Y-156400220D01*
X95955958Y-156542142D01*
X95860472Y-156707528D01*
X95860469Y-156707535D01*
X95813166Y-156853120D01*
X95801457Y-156889157D01*
X95781495Y-157079085D01*
X95801457Y-157269013D01*
X95801458Y-157269016D01*
X95860469Y-157450634D01*
X95860472Y-157450641D01*
X95955959Y-157616029D01*
X96039220Y-157708500D01*
X96071518Y-157744371D01*
X96083746Y-157757951D01*
X96238247Y-157870203D01*
X96412711Y-157947879D01*
X96599512Y-157987585D01*
X96790486Y-157987585D01*
X96977287Y-157947879D01*
X97151751Y-157870203D01*
X97306252Y-157757951D01*
X97310159Y-157753612D01*
X97369645Y-157716964D01*
X97402308Y-157712585D01*
X97490229Y-157712585D01*
X97557268Y-157732270D01*
X97603023Y-157785074D01*
X97613549Y-157823620D01*
X97631458Y-157994013D01*
X97631459Y-157994016D01*
X97690470Y-158175634D01*
X97690473Y-158175641D01*
X97728835Y-158242086D01*
X97745308Y-158309987D01*
X97728836Y-158366085D01*
X97690472Y-158432534D01*
X97690470Y-158432538D01*
X97636161Y-158599686D01*
X97631458Y-158614160D01*
X97611496Y-158804088D01*
X97631458Y-158994016D01*
X97631459Y-158994019D01*
X97690470Y-159175637D01*
X97690473Y-159175644D01*
X97785960Y-159341032D01*
X97913747Y-159482954D01*
X98068248Y-159595206D01*
X98242712Y-159672882D01*
X98429513Y-159712588D01*
X98620487Y-159712588D01*
X98807288Y-159672882D01*
X98981752Y-159595206D01*
X99136253Y-159482954D01*
X99264040Y-159341032D01*
X99359527Y-159175644D01*
X99418542Y-158994016D01*
X99418542Y-158994008D01*
X99419892Y-158987663D01*
X99422351Y-158988185D01*
X99444643Y-158934007D01*
X99501941Y-158894023D01*
X99541378Y-158887585D01*
X100514631Y-158887585D01*
X100581670Y-158907270D01*
X100627425Y-158960074D01*
X100636247Y-158987390D01*
X100637566Y-158994017D01*
X100641515Y-159013872D01*
X100689268Y-159129159D01*
X100689273Y-159129168D01*
X100758598Y-159232919D01*
X100758601Y-159232923D01*
X101633613Y-160107934D01*
X101667098Y-160169257D01*
X101662114Y-160238948D01*
X101620242Y-160294882D01*
X101554778Y-160319299D01*
X101545932Y-160319615D01*
X90679470Y-160319615D01*
X90612431Y-160299930D01*
X90591789Y-160283296D01*
X89246940Y-158938447D01*
X89213455Y-158877124D01*
X89218439Y-158807432D01*
X89260311Y-158751499D01*
X89325775Y-158727082D01*
X89334621Y-158726766D01*
X89482781Y-158726766D01*
X89669582Y-158687060D01*
X89844046Y-158609384D01*
X89998547Y-158497132D01*
X90082228Y-158404193D01*
X90141713Y-158367546D01*
X90211570Y-158368876D01*
X90247260Y-158386847D01*
X90363248Y-158471118D01*
X90537712Y-158548794D01*
X90724513Y-158588500D01*
X90915487Y-158588500D01*
X91102288Y-158548794D01*
X91276752Y-158471118D01*
X91431253Y-158358866D01*
X91435160Y-158354527D01*
X91494646Y-158317879D01*
X91527309Y-158313500D01*
X93641531Y-158313500D01*
X93708570Y-158333185D01*
X93729212Y-158349819D01*
X94391877Y-159012484D01*
X94425362Y-159073807D01*
X94427517Y-159087203D01*
X94435491Y-159163070D01*
X94444957Y-159253130D01*
X94444958Y-159253133D01*
X94503969Y-159434751D01*
X94503972Y-159434758D01*
X94599459Y-159600146D01*
X94727246Y-159742068D01*
X94881747Y-159854320D01*
X95056211Y-159931996D01*
X95243012Y-159971702D01*
X95433986Y-159971702D01*
X95620787Y-159931996D01*
X95795251Y-159854320D01*
X95949752Y-159742068D01*
X96077539Y-159600146D01*
X96173026Y-159434758D01*
X96232041Y-159253130D01*
X96252003Y-159063202D01*
X96232041Y-158873274D01*
X96173026Y-158691646D01*
X96077539Y-158526258D01*
X95949752Y-158384336D01*
X95795251Y-158272084D01*
X95620787Y-158194408D01*
X95620785Y-158194407D01*
X95433986Y-158154702D01*
X95377265Y-158154702D01*
X95310226Y-158135017D01*
X95289584Y-158118383D01*
X94359133Y-157187931D01*
X94359129Y-157187928D01*
X94255378Y-157118603D01*
X94255369Y-157118598D01*
X94140082Y-157070845D01*
X94140074Y-157070843D01*
X94017695Y-157046500D01*
X94017691Y-157046500D01*
X91527309Y-157046500D01*
X91460270Y-157026815D01*
X91435160Y-157005473D01*
X91431254Y-157001135D01*
X91401935Y-156979833D01*
X91276752Y-156888882D01*
X91121014Y-156819543D01*
X91067777Y-156774293D01*
X91047456Y-156707444D01*
X91066501Y-156640221D01*
X91079295Y-156623297D01*
X91139041Y-156556944D01*
X91234528Y-156391556D01*
X91293543Y-156209928D01*
X91313505Y-156020000D01*
X91293543Y-155830072D01*
X91234528Y-155648444D01*
X91139041Y-155483056D01*
X91011254Y-155341134D01*
X90856753Y-155228882D01*
X90682289Y-155151206D01*
X90682287Y-155151205D01*
X90495488Y-155111500D01*
X90438767Y-155111500D01*
X90371728Y-155091815D01*
X90351086Y-155075181D01*
X90219819Y-154943914D01*
X90186334Y-154882591D01*
X90183500Y-154856233D01*
X90183500Y-154460162D01*
X90203185Y-154393123D01*
X90219819Y-154372481D01*
X91132069Y-153460232D01*
X91132069Y-153460231D01*
X91132072Y-153460229D01*
X91201401Y-153356471D01*
X91249155Y-153241181D01*
X91262156Y-153175823D01*
X91273499Y-153118794D01*
X91273500Y-153118791D01*
X91273500Y-153003766D01*
X91293185Y-152936727D01*
X91309819Y-152916085D01*
X91773887Y-152452017D01*
X91835210Y-152418532D01*
X91861568Y-152415698D01*
X92101783Y-152415698D01*
X92101785Y-152415698D01*
X92118313Y-152412410D01*
X92187902Y-152418636D01*
X92243081Y-152461497D01*
X92249892Y-152472027D01*
X92255616Y-152481942D01*
X92372697Y-152611973D01*
X92383405Y-152623866D01*
X92537906Y-152736118D01*
X92712370Y-152813794D01*
X92899171Y-152853500D01*
X93090145Y-152853500D01*
X93276946Y-152813794D01*
X93451410Y-152736118D01*
X93605911Y-152623866D01*
X93733698Y-152481944D01*
X93829185Y-152316556D01*
X93888200Y-152134928D01*
X93908162Y-151945000D01*
X93888200Y-151755072D01*
X93829185Y-151573444D01*
X93733698Y-151408056D01*
X93648095Y-151312984D01*
X93605916Y-151266139D01*
X93605913Y-151266136D01*
X93605911Y-151266134D01*
X93605908Y-151266131D01*
X93605432Y-151265703D01*
X93605232Y-151265379D01*
X93601563Y-151261304D01*
X93602308Y-151260633D01*
X93568780Y-151206218D01*
X93570105Y-151136361D01*
X93596248Y-151090575D01*
X93649040Y-151031944D01*
X93744527Y-150866556D01*
X93803542Y-150684928D01*
X93821830Y-150510926D01*
X93823504Y-150495002D01*
X93823504Y-150494995D01*
X93823291Y-150492970D01*
X93823504Y-150491804D01*
X93823504Y-150488496D01*
X93824109Y-150488496D01*
X93835857Y-150424239D01*
X93883587Y-150373214D01*
X93946611Y-150356003D01*
X95279822Y-150356003D01*
X95346861Y-150375688D01*
G37*
G04 #@! TD.AperFunction*
G04 #@! TA.AperFunction,Conductor*
G36*
X106029539Y-145858400D02*
G01*
X106075294Y-145911204D01*
X106086500Y-145962715D01*
X106086500Y-150525413D01*
X106066815Y-150592452D01*
X106014011Y-150638207D01*
X105944853Y-150648151D01*
X105881297Y-150619126D01*
X105867118Y-150603679D01*
X105867005Y-150603782D01*
X105734871Y-150457032D01*
X105731238Y-150454392D01*
X105580369Y-150344779D01*
X105405905Y-150267103D01*
X105405903Y-150267102D01*
X105219104Y-150227397D01*
X105028130Y-150227397D01*
X104841331Y-150267102D01*
X104666863Y-150344780D01*
X104512362Y-150457032D01*
X104384577Y-150598952D01*
X104337370Y-150680717D01*
X104286802Y-150728932D01*
X104218195Y-150742154D01*
X104153331Y-150716186D01*
X104142302Y-150706397D01*
X103603635Y-150167730D01*
X103603631Y-150167727D01*
X103499880Y-150098402D01*
X103499871Y-150098397D01*
X103384584Y-150050644D01*
X103384576Y-150050642D01*
X103262197Y-150026299D01*
X103262193Y-150026299D01*
X102477308Y-150026299D01*
X102410269Y-150006614D01*
X102385159Y-149985272D01*
X102381253Y-149980934D01*
X102362627Y-149967401D01*
X102226751Y-149868681D01*
X102052287Y-149791005D01*
X102052285Y-149791004D01*
X101865486Y-149751299D01*
X101674512Y-149751299D01*
X101499929Y-149788407D01*
X101430261Y-149783091D01*
X101374528Y-149740954D01*
X101350423Y-149675374D01*
X101365600Y-149607172D01*
X101386463Y-149579441D01*
X104692072Y-146273833D01*
X104761401Y-146170075D01*
X104809155Y-146054784D01*
X104811036Y-146045332D01*
X104832281Y-145938524D01*
X104864666Y-145876613D01*
X104925381Y-145842039D01*
X104953898Y-145838715D01*
X105962500Y-145838715D01*
X106029539Y-145858400D01*
G37*
G04 #@! TD.AperFunction*
G04 #@! TA.AperFunction,Conductor*
G36*
X88034797Y-149805445D02*
G01*
X88036908Y-149807507D01*
X88072929Y-149843528D01*
X88118689Y-149889288D01*
X88161168Y-149931767D01*
X88264918Y-150001091D01*
X88264924Y-150001094D01*
X88264925Y-150001095D01*
X88380215Y-150048850D01*
X88494331Y-150071549D01*
X88502601Y-150073194D01*
X88502605Y-150073195D01*
X88502606Y-150073195D01*
X88627395Y-150073195D01*
X88627396Y-150073194D01*
X88749785Y-150048850D01*
X88798665Y-150028602D01*
X88846118Y-150019164D01*
X90350592Y-150019164D01*
X90417631Y-150038849D01*
X90463386Y-150091653D01*
X90473330Y-150160811D01*
X90444305Y-150224367D01*
X90401028Y-150256443D01*
X90283248Y-150308882D01*
X90283246Y-150308883D01*
X90128744Y-150421136D01*
X90056280Y-150501615D01*
X89996793Y-150538263D01*
X89926936Y-150536932D01*
X89895239Y-150521743D01*
X89865919Y-150502151D01*
X89865908Y-150502145D01*
X89750621Y-150454392D01*
X89750613Y-150454390D01*
X89628234Y-150430047D01*
X89628230Y-150430047D01*
X88086210Y-150430047D01*
X88019171Y-150410362D01*
X87973416Y-150357558D01*
X87962889Y-150319012D01*
X87953542Y-150230072D01*
X87894527Y-150048444D01*
X87841839Y-149957187D01*
X87825367Y-149889288D01*
X87848220Y-149823261D01*
X87903141Y-149780070D01*
X87972694Y-149773429D01*
X88034797Y-149805445D01*
G37*
G04 #@! TD.AperFunction*
G04 #@! TA.AperFunction,Conductor*
G36*
X94416560Y-144573292D02*
G01*
X94465375Y-144606500D01*
X94493933Y-144638217D01*
X94576743Y-144730188D01*
X94578747Y-144732413D01*
X94733248Y-144844665D01*
X94907712Y-144922341D01*
X95094513Y-144962047D01*
X95285487Y-144962047D01*
X95472288Y-144922341D01*
X95573257Y-144877386D01*
X95642505Y-144868102D01*
X95705782Y-144897730D01*
X95742995Y-144956865D01*
X95744785Y-144966140D01*
X95745107Y-144966072D01*
X95746457Y-144972426D01*
X95805469Y-145154046D01*
X95805472Y-145154053D01*
X95900959Y-145319441D01*
X96028746Y-145461363D01*
X96183247Y-145573615D01*
X96355134Y-145650143D01*
X96408368Y-145695391D01*
X96428690Y-145762240D01*
X96409645Y-145829464D01*
X96396847Y-145846392D01*
X96350959Y-145897357D01*
X96255473Y-146062743D01*
X96255470Y-146062750D01*
X96207969Y-146208944D01*
X96196458Y-146244372D01*
X96176496Y-146434300D01*
X96196458Y-146624228D01*
X96196459Y-146624231D01*
X96255470Y-146805849D01*
X96255473Y-146805856D01*
X96350960Y-146971244D01*
X96408485Y-147035132D01*
X96440997Y-147071240D01*
X96471227Y-147134231D01*
X96462602Y-147203567D01*
X96451950Y-147223101D01*
X96433604Y-147250558D01*
X96433597Y-147250570D01*
X96385844Y-147365857D01*
X96385842Y-147365865D01*
X96361499Y-147488244D01*
X96361499Y-148213651D01*
X96385842Y-148336030D01*
X96385844Y-148336038D01*
X96433597Y-148451325D01*
X96433602Y-148451334D01*
X96502927Y-148555085D01*
X96502930Y-148555089D01*
X96776349Y-148828507D01*
X96809834Y-148889830D01*
X96811988Y-148903224D01*
X96824660Y-149023785D01*
X96824913Y-149026186D01*
X96812344Y-149094916D01*
X96764612Y-149145940D01*
X96696872Y-149163058D01*
X96654139Y-149153709D01*
X96653704Y-149153529D01*
X96623083Y-149140845D01*
X96623075Y-149140843D01*
X96500696Y-149116500D01*
X96500692Y-149116500D01*
X96289446Y-149116500D01*
X96222407Y-149096815D01*
X96220617Y-149095643D01*
X96210075Y-149088599D01*
X96210071Y-149088597D01*
X96210067Y-149088595D01*
X96094786Y-149040845D01*
X96094777Y-149040842D01*
X95972398Y-149016500D01*
X95972394Y-149016500D01*
X95847606Y-149016500D01*
X95847601Y-149016500D01*
X95725222Y-149040843D01*
X95725214Y-149040845D01*
X95699731Y-149051401D01*
X95699730Y-149051401D01*
X95631737Y-149079564D01*
X95584285Y-149089003D01*
X94159005Y-149089003D01*
X94091966Y-149069318D01*
X94046211Y-149016514D01*
X94035005Y-148965003D01*
X94035005Y-148797503D01*
X93118017Y-148797503D01*
X93150930Y-148740496D01*
X93185005Y-148613329D01*
X93185005Y-148481677D01*
X93150930Y-148354510D01*
X93118017Y-148297503D01*
X94035005Y-148297503D01*
X94035005Y-148147729D01*
X94054690Y-148080690D01*
X94107494Y-148034935D01*
X94176652Y-148024991D01*
X94240208Y-148054016D01*
X94276936Y-148109411D01*
X94307560Y-148203663D01*
X94307563Y-148203670D01*
X94403050Y-148369058D01*
X94477126Y-148451328D01*
X94524557Y-148504006D01*
X94530837Y-148510980D01*
X94685338Y-148623232D01*
X94859802Y-148700908D01*
X95046603Y-148740614D01*
X95237577Y-148740614D01*
X95424378Y-148700908D01*
X95598842Y-148623232D01*
X95753343Y-148510980D01*
X95881130Y-148369058D01*
X95976617Y-148203670D01*
X96035632Y-148022042D01*
X96055594Y-147832114D01*
X96035632Y-147642186D01*
X95976617Y-147460558D01*
X95881130Y-147295170D01*
X95753343Y-147153248D01*
X95598842Y-147040996D01*
X95424378Y-146963320D01*
X95424376Y-146963319D01*
X95237577Y-146923614D01*
X95180857Y-146923614D01*
X95113818Y-146903929D01*
X95093176Y-146887295D01*
X94513812Y-146307931D01*
X94513808Y-146307928D01*
X94410057Y-146238603D01*
X94410048Y-146238598D01*
X94294761Y-146190845D01*
X94294753Y-146190843D01*
X94172374Y-146166500D01*
X94172370Y-146166500D01*
X94169686Y-146166500D01*
X94168331Y-146166102D01*
X94166309Y-146165903D01*
X94166346Y-146165519D01*
X94102647Y-146146815D01*
X94056892Y-146094011D01*
X94046110Y-146032260D01*
X94048161Y-146007508D01*
X94048161Y-146007497D01*
X94029570Y-145783143D01*
X94029568Y-145783131D01*
X94012601Y-145716131D01*
X93974301Y-145564887D01*
X93883865Y-145358712D01*
X93880568Y-145353666D01*
X93833553Y-145281704D01*
X93798564Y-145228149D01*
X93778377Y-145161261D01*
X93797556Y-145094076D01*
X93814688Y-145072652D01*
X94285548Y-144601791D01*
X94346869Y-144568308D01*
X94416560Y-144573292D01*
G37*
G04 #@! TD.AperFunction*
G04 #@! TA.AperFunction,Conductor*
G36*
X90738987Y-141573005D02*
G01*
X90746140Y-141574525D01*
X90807618Y-141607722D01*
X90808029Y-141608132D01*
X91631010Y-142431113D01*
X91664495Y-142492436D01*
X91659511Y-142562128D01*
X91634560Y-142602775D01*
X91609284Y-142630232D01*
X91609282Y-142630234D01*
X91483340Y-142823005D01*
X91481770Y-142821979D01*
X91438276Y-142865796D01*
X91370058Y-142880899D01*
X91304505Y-142856723D01*
X91290768Y-142844864D01*
X90999646Y-142553742D01*
X90625547Y-142179642D01*
X90592062Y-142118319D01*
X90589228Y-142091961D01*
X90589228Y-141694299D01*
X90608913Y-141627260D01*
X90661717Y-141581505D01*
X90730875Y-141571561D01*
X90738987Y-141573005D01*
G37*
G04 #@! TD.AperFunction*
G04 #@! TA.AperFunction,Conductor*
G36*
X88368702Y-133943377D02*
G01*
X88435737Y-133963070D01*
X88481485Y-134015880D01*
X88491420Y-134085040D01*
X88462386Y-134148592D01*
X88437556Y-134169090D01*
X88438028Y-134169740D01*
X88278267Y-134285813D01*
X88150481Y-134427735D01*
X88054995Y-134593121D01*
X88054992Y-134593128D01*
X87995981Y-134774746D01*
X87995980Y-134774750D01*
X87976018Y-134964678D01*
X87995980Y-135154606D01*
X87995981Y-135154609D01*
X88054992Y-135336227D01*
X88054995Y-135336234D01*
X88149979Y-135500752D01*
X88150482Y-135501622D01*
X88224171Y-135583462D01*
X88254402Y-135646453D01*
X88256022Y-135666434D01*
X88256022Y-136203919D01*
X88236337Y-136270958D01*
X88219703Y-136291600D01*
X87180167Y-137331137D01*
X87118844Y-137364622D01*
X87092486Y-137367456D01*
X86374809Y-137367456D01*
X86252430Y-137391799D01*
X86252422Y-137391801D01*
X86137135Y-137439554D01*
X86137126Y-137439559D01*
X86033375Y-137508884D01*
X86033371Y-137508887D01*
X84347087Y-139195173D01*
X84285764Y-139228658D01*
X84259406Y-139231492D01*
X84121864Y-139231492D01*
X83999485Y-139255835D01*
X83999477Y-139255837D01*
X83884190Y-139303590D01*
X83884181Y-139303595D01*
X83780430Y-139372920D01*
X83780426Y-139372923D01*
X83766681Y-139386669D01*
X83705358Y-139420154D01*
X83635666Y-139415170D01*
X83579733Y-139373298D01*
X83555316Y-139307834D01*
X83555000Y-139298988D01*
X83555000Y-134066771D01*
X83574685Y-133999732D01*
X83627489Y-133953977D01*
X83679015Y-133942771D01*
X88368702Y-133943377D01*
G37*
G04 #@! TD.AperFunction*
M02*
