%FSLAX45Y45*%
G04 Gerber Fmt 4.5, Leading zero omitted, Abs format (unit mm)*
G04 Created by KiCad (PCBNEW (5.1.6-0-10_14)) date 2022-05-06 10:42:54*
%MOMM*%
%LPD*%
G01*
G04 APERTURE LIST*
%TA.AperFunction,Profile*%
%ADD10C,0.100000*%
%TD*%
%ADD11C,0.200000*%
%ADD12C,0.300000*%
G04 APERTURE END LIST*
D10*
X12573000Y-7747000D02*
X12573000Y-12319000D01*
X8255000Y-7747000D02*
X12573000Y-7747000D01*
X8255000Y-12319000D02*
X8255000Y-7747000D01*
X12573000Y-12319000D02*
X8255000Y-12319000D01*
D11*
X12213000Y-7904000D02*
X12413000Y-8104000D01*
X12413000Y-7904000D02*
X12213000Y-8104000D01*
X8409000Y-11965000D02*
X8609000Y-12165000D01*
X8609000Y-11965000D02*
X8409000Y-12165000D01*
X8421000Y-7901000D02*
X8621000Y-8101000D01*
X8621000Y-7901000D02*
X8421000Y-8101000D01*
D12*
X8536428Y-12789714D02*
X8536428Y-12489714D01*
X8607857Y-12489714D01*
X8650714Y-12504000D01*
X8679286Y-12532571D01*
X8693571Y-12561143D01*
X8707857Y-12618286D01*
X8707857Y-12661143D01*
X8693571Y-12718286D01*
X8679286Y-12746857D01*
X8650714Y-12775429D01*
X8607857Y-12789714D01*
X8536428Y-12789714D01*
X8836428Y-12789714D02*
X8836428Y-12589714D01*
X8836428Y-12646857D02*
X8850714Y-12618286D01*
X8865000Y-12604000D01*
X8893571Y-12589714D01*
X8922143Y-12589714D01*
X9022143Y-12789714D02*
X9022143Y-12589714D01*
X9022143Y-12489714D02*
X9007857Y-12504000D01*
X9022143Y-12518286D01*
X9036428Y-12504000D01*
X9022143Y-12489714D01*
X9022143Y-12518286D01*
X9207857Y-12789714D02*
X9179286Y-12775429D01*
X9165000Y-12746857D01*
X9165000Y-12489714D01*
X9365000Y-12789714D02*
X9336428Y-12775429D01*
X9322143Y-12746857D01*
X9322143Y-12489714D01*
X9707857Y-12789714D02*
X9707857Y-12489714D01*
X9807857Y-12704000D01*
X9907857Y-12489714D01*
X9907857Y-12789714D01*
X10179286Y-12789714D02*
X10179286Y-12632571D01*
X10165000Y-12604000D01*
X10136428Y-12589714D01*
X10079286Y-12589714D01*
X10050714Y-12604000D01*
X10179286Y-12775429D02*
X10150714Y-12789714D01*
X10079286Y-12789714D01*
X10050714Y-12775429D01*
X10036428Y-12746857D01*
X10036428Y-12718286D01*
X10050714Y-12689714D01*
X10079286Y-12675429D01*
X10150714Y-12675429D01*
X10179286Y-12661143D01*
X10322143Y-12589714D02*
X10322143Y-12889714D01*
X10322143Y-12604000D02*
X10350714Y-12589714D01*
X10407857Y-12589714D01*
X10436428Y-12604000D01*
X10450714Y-12618286D01*
X10465000Y-12646857D01*
X10465000Y-12732571D01*
X10450714Y-12761143D01*
X10436428Y-12775429D01*
X10407857Y-12789714D01*
X10350714Y-12789714D01*
X10322143Y-12775429D01*
X10593571Y-12761143D02*
X10607857Y-12775429D01*
X10593571Y-12789714D01*
X10579286Y-12775429D01*
X10593571Y-12761143D01*
X10593571Y-12789714D01*
X10593571Y-12604000D02*
X10607857Y-12618286D01*
X10593571Y-12632571D01*
X10579286Y-12618286D01*
X10593571Y-12604000D01*
X10593571Y-12632571D01*
X8050000Y-13184000D02*
X8250000Y-13384000D01*
X8250000Y-13184000D02*
X8050000Y-13384000D01*
X8522143Y-13148286D02*
X8536428Y-13134000D01*
X8565000Y-13119714D01*
X8636428Y-13119714D01*
X8665000Y-13134000D01*
X8679286Y-13148286D01*
X8693571Y-13176857D01*
X8693571Y-13205429D01*
X8679286Y-13248286D01*
X8507857Y-13419714D01*
X8693571Y-13419714D01*
X8822143Y-13391143D02*
X8836428Y-13405429D01*
X8822143Y-13419714D01*
X8807857Y-13405429D01*
X8822143Y-13391143D01*
X8822143Y-13419714D01*
X9022143Y-13119714D02*
X9050714Y-13119714D01*
X9079286Y-13134000D01*
X9093571Y-13148286D01*
X9107857Y-13176857D01*
X9122143Y-13234000D01*
X9122143Y-13305429D01*
X9107857Y-13362571D01*
X9093571Y-13391143D01*
X9079286Y-13405429D01*
X9050714Y-13419714D01*
X9022143Y-13419714D01*
X8993571Y-13405429D01*
X8979286Y-13391143D01*
X8965000Y-13362571D01*
X8950714Y-13305429D01*
X8950714Y-13234000D01*
X8965000Y-13176857D01*
X8979286Y-13148286D01*
X8993571Y-13134000D01*
X9022143Y-13119714D01*
X9307857Y-13119714D02*
X9336428Y-13119714D01*
X9365000Y-13134000D01*
X9379286Y-13148286D01*
X9393571Y-13176857D01*
X9407857Y-13234000D01*
X9407857Y-13305429D01*
X9393571Y-13362571D01*
X9379286Y-13391143D01*
X9365000Y-13405429D01*
X9336428Y-13419714D01*
X9307857Y-13419714D01*
X9279286Y-13405429D01*
X9265000Y-13391143D01*
X9250714Y-13362571D01*
X9236428Y-13305429D01*
X9236428Y-13234000D01*
X9250714Y-13176857D01*
X9265000Y-13148286D01*
X9279286Y-13134000D01*
X9307857Y-13119714D01*
X9536428Y-13419714D02*
X9536428Y-13219714D01*
X9536428Y-13248286D02*
X9550714Y-13234000D01*
X9579286Y-13219714D01*
X9622143Y-13219714D01*
X9650714Y-13234000D01*
X9665000Y-13262571D01*
X9665000Y-13419714D01*
X9665000Y-13262571D02*
X9679286Y-13234000D01*
X9707857Y-13219714D01*
X9750714Y-13219714D01*
X9779286Y-13234000D01*
X9793571Y-13262571D01*
X9793571Y-13419714D01*
X9936428Y-13419714D02*
X9936428Y-13219714D01*
X9936428Y-13248286D02*
X9950714Y-13234000D01*
X9979286Y-13219714D01*
X10022143Y-13219714D01*
X10050714Y-13234000D01*
X10065000Y-13262571D01*
X10065000Y-13419714D01*
X10065000Y-13262571D02*
X10079286Y-13234000D01*
X10107857Y-13219714D01*
X10150714Y-13219714D01*
X10179286Y-13234000D01*
X10193571Y-13262571D01*
X10193571Y-13419714D01*
X10779286Y-13105429D02*
X10522143Y-13491143D01*
X11165000Y-13119714D02*
X11193571Y-13119714D01*
X11222143Y-13134000D01*
X11236428Y-13148286D01*
X11250714Y-13176857D01*
X11265000Y-13234000D01*
X11265000Y-13305429D01*
X11250714Y-13362571D01*
X11236428Y-13391143D01*
X11222143Y-13405429D01*
X11193571Y-13419714D01*
X11165000Y-13419714D01*
X11136428Y-13405429D01*
X11122143Y-13391143D01*
X11107857Y-13362571D01*
X11093571Y-13305429D01*
X11093571Y-13234000D01*
X11107857Y-13176857D01*
X11122143Y-13148286D01*
X11136428Y-13134000D01*
X11165000Y-13119714D01*
X11393571Y-13391143D02*
X11407857Y-13405429D01*
X11393571Y-13419714D01*
X11379286Y-13405429D01*
X11393571Y-13391143D01*
X11393571Y-13419714D01*
X11593571Y-13119714D02*
X11622143Y-13119714D01*
X11650714Y-13134000D01*
X11665000Y-13148286D01*
X11679286Y-13176857D01*
X11693571Y-13234000D01*
X11693571Y-13305429D01*
X11679286Y-13362571D01*
X11665000Y-13391143D01*
X11650714Y-13405429D01*
X11622143Y-13419714D01*
X11593571Y-13419714D01*
X11565000Y-13405429D01*
X11550714Y-13391143D01*
X11536428Y-13362571D01*
X11522143Y-13305429D01*
X11522143Y-13234000D01*
X11536428Y-13176857D01*
X11550714Y-13148286D01*
X11565000Y-13134000D01*
X11593571Y-13119714D01*
X11793571Y-13119714D02*
X11993571Y-13119714D01*
X11865000Y-13419714D01*
X12122143Y-13419714D02*
X12179286Y-13419714D01*
X12207857Y-13405429D01*
X12222143Y-13391143D01*
X12250714Y-13348286D01*
X12265000Y-13291143D01*
X12265000Y-13176857D01*
X12250714Y-13148286D01*
X12236428Y-13134000D01*
X12207857Y-13119714D01*
X12150714Y-13119714D01*
X12122143Y-13134000D01*
X12107857Y-13148286D01*
X12093571Y-13176857D01*
X12093571Y-13248286D01*
X12107857Y-13276857D01*
X12122143Y-13291143D01*
X12150714Y-13305429D01*
X12207857Y-13305429D01*
X12236428Y-13291143D01*
X12250714Y-13276857D01*
X12265000Y-13248286D01*
X12379286Y-13119714D02*
X12379286Y-13176857D01*
X12493571Y-13119714D02*
X12493571Y-13176857D01*
X12936428Y-13534000D02*
X12922143Y-13519714D01*
X12893571Y-13476857D01*
X12879286Y-13448286D01*
X12865000Y-13405429D01*
X12850714Y-13334000D01*
X12850714Y-13276857D01*
X12865000Y-13205429D01*
X12879286Y-13162571D01*
X12893571Y-13134000D01*
X12922143Y-13091143D01*
X12936428Y-13076857D01*
X13022143Y-13119714D02*
X13207857Y-13119714D01*
X13107857Y-13234000D01*
X13150714Y-13234000D01*
X13179286Y-13248286D01*
X13193571Y-13262571D01*
X13207857Y-13291143D01*
X13207857Y-13362571D01*
X13193571Y-13391143D01*
X13179286Y-13405429D01*
X13150714Y-13419714D01*
X13065000Y-13419714D01*
X13036428Y-13405429D01*
X13022143Y-13391143D01*
X13565000Y-13419714D02*
X13565000Y-13119714D01*
X13693571Y-13419714D02*
X13693571Y-13262571D01*
X13679286Y-13234000D01*
X13650714Y-13219714D01*
X13607857Y-13219714D01*
X13579286Y-13234000D01*
X13565000Y-13248286D01*
X13879286Y-13419714D02*
X13850714Y-13405429D01*
X13836428Y-13391143D01*
X13822143Y-13362571D01*
X13822143Y-13276857D01*
X13836428Y-13248286D01*
X13850714Y-13234000D01*
X13879286Y-13219714D01*
X13922143Y-13219714D01*
X13950714Y-13234000D01*
X13965000Y-13248286D01*
X13979286Y-13276857D01*
X13979286Y-13362571D01*
X13965000Y-13391143D01*
X13950714Y-13405429D01*
X13922143Y-13419714D01*
X13879286Y-13419714D01*
X14150714Y-13419714D02*
X14122143Y-13405429D01*
X14107857Y-13376857D01*
X14107857Y-13119714D01*
X14379286Y-13405429D02*
X14350714Y-13419714D01*
X14293571Y-13419714D01*
X14265000Y-13405429D01*
X14250714Y-13376857D01*
X14250714Y-13262571D01*
X14265000Y-13234000D01*
X14293571Y-13219714D01*
X14350714Y-13219714D01*
X14379286Y-13234000D01*
X14393571Y-13262571D01*
X14393571Y-13291143D01*
X14250714Y-13319714D01*
X14507857Y-13405429D02*
X14536428Y-13419714D01*
X14593571Y-13419714D01*
X14622143Y-13405429D01*
X14636428Y-13376857D01*
X14636428Y-13362571D01*
X14622143Y-13334000D01*
X14593571Y-13319714D01*
X14550714Y-13319714D01*
X14522143Y-13305429D01*
X14507857Y-13276857D01*
X14507857Y-13262571D01*
X14522143Y-13234000D01*
X14550714Y-13219714D01*
X14593571Y-13219714D01*
X14622143Y-13234000D01*
X14736428Y-13534000D02*
X14750714Y-13519714D01*
X14779286Y-13476857D01*
X14793571Y-13448286D01*
X14807857Y-13405429D01*
X14822143Y-13334000D01*
X14822143Y-13276857D01*
X14807857Y-13205429D01*
X14793571Y-13162571D01*
X14779286Y-13134000D01*
X14750714Y-13091143D01*
X14736428Y-13076857D01*
X15279286Y-13534000D02*
X15265000Y-13519714D01*
X15236428Y-13476857D01*
X15222143Y-13448286D01*
X15207857Y-13405429D01*
X15193571Y-13334000D01*
X15193571Y-13276857D01*
X15207857Y-13205429D01*
X15222143Y-13162571D01*
X15236428Y-13134000D01*
X15265000Y-13091143D01*
X15279286Y-13076857D01*
X15393571Y-13219714D02*
X15393571Y-13419714D01*
X15393571Y-13248286D02*
X15407857Y-13234000D01*
X15436428Y-13219714D01*
X15479286Y-13219714D01*
X15507857Y-13234000D01*
X15522143Y-13262571D01*
X15522143Y-13419714D01*
X15707857Y-13419714D02*
X15679286Y-13405429D01*
X15665000Y-13391143D01*
X15650714Y-13362571D01*
X15650714Y-13276857D01*
X15665000Y-13248286D01*
X15679286Y-13234000D01*
X15707857Y-13219714D01*
X15750714Y-13219714D01*
X15779286Y-13234000D01*
X15793571Y-13248286D01*
X15807857Y-13276857D01*
X15807857Y-13362571D01*
X15793571Y-13391143D01*
X15779286Y-13405429D01*
X15750714Y-13419714D01*
X15707857Y-13419714D01*
X15893571Y-13219714D02*
X16007857Y-13219714D01*
X15936428Y-13119714D02*
X15936428Y-13376857D01*
X15950714Y-13405429D01*
X15979286Y-13419714D01*
X16007857Y-13419714D01*
X16336428Y-13219714D02*
X16336428Y-13519714D01*
X16336428Y-13234000D02*
X16365000Y-13219714D01*
X16422143Y-13219714D01*
X16450714Y-13234000D01*
X16465000Y-13248286D01*
X16479286Y-13276857D01*
X16479286Y-13362571D01*
X16465000Y-13391143D01*
X16450714Y-13405429D01*
X16422143Y-13419714D01*
X16365000Y-13419714D01*
X16336428Y-13405429D01*
X16650714Y-13419714D02*
X16622143Y-13405429D01*
X16607857Y-13376857D01*
X16607857Y-13119714D01*
X16893571Y-13419714D02*
X16893571Y-13262571D01*
X16879286Y-13234000D01*
X16850714Y-13219714D01*
X16793571Y-13219714D01*
X16765000Y-13234000D01*
X16893571Y-13405429D02*
X16865000Y-13419714D01*
X16793571Y-13419714D01*
X16765000Y-13405429D01*
X16750714Y-13376857D01*
X16750714Y-13348286D01*
X16765000Y-13319714D01*
X16793571Y-13305429D01*
X16865000Y-13305429D01*
X16893571Y-13291143D01*
X16993571Y-13219714D02*
X17107857Y-13219714D01*
X17036428Y-13119714D02*
X17036428Y-13376857D01*
X17050714Y-13405429D01*
X17079286Y-13419714D01*
X17107857Y-13419714D01*
X17322143Y-13405429D02*
X17293571Y-13419714D01*
X17236428Y-13419714D01*
X17207857Y-13405429D01*
X17193571Y-13376857D01*
X17193571Y-13262571D01*
X17207857Y-13234000D01*
X17236428Y-13219714D01*
X17293571Y-13219714D01*
X17322143Y-13234000D01*
X17336428Y-13262571D01*
X17336428Y-13291143D01*
X17193571Y-13319714D01*
X17593571Y-13419714D02*
X17593571Y-13119714D01*
X17593571Y-13405429D02*
X17565000Y-13419714D01*
X17507857Y-13419714D01*
X17479286Y-13405429D01*
X17465000Y-13391143D01*
X17450714Y-13362571D01*
X17450714Y-13276857D01*
X17465000Y-13248286D01*
X17479286Y-13234000D01*
X17507857Y-13219714D01*
X17565000Y-13219714D01*
X17593571Y-13234000D01*
X17707857Y-13534000D02*
X17722143Y-13519714D01*
X17750714Y-13476857D01*
X17765000Y-13448286D01*
X17779286Y-13405429D01*
X17793571Y-13334000D01*
X17793571Y-13276857D01*
X17779286Y-13205429D01*
X17765000Y-13162571D01*
X17750714Y-13134000D01*
X17722143Y-13091143D01*
X17707857Y-13076857D01*
M02*
