%TF.GenerationSoftware,KiCad,Pcbnew,(5.1.6-0-10_14)*%
%TF.CreationDate,2022-05-06T10:42:22-05:00*%
%TF.ProjectId,small_led_driver,736d616c-6c5f-46c6-9564-5f6472697665,rev?*%
%TF.SameCoordinates,Original*%
%TF.FileFunction,Soldermask,Bot*%
%TF.FilePolarity,Negative*%
%FSLAX46Y46*%
G04 Gerber Fmt 4.6, Leading zero omitted, Abs format (unit mm)*
G04 Created by KiCad (PCBNEW (5.1.6-0-10_14)) date 2022-05-06 10:42:22*
%MOMM*%
%LPD*%
G01*
G04 APERTURE LIST*
%ADD10R,1.800000X1.800000*%
%ADD11O,1.800000X1.800000*%
%ADD12C,2.700000*%
%ADD13C,5.100000*%
%ADD14C,2.100000*%
G04 APERTURE END LIST*
D10*
%TO.C,J1*%
X118110000Y-95770000D03*
D11*
X118110000Y-98310000D03*
X118110000Y-100850000D03*
X118110000Y-103390000D03*
%TD*%
%TO.C,J2*%
X121970000Y-95810000D03*
X121970000Y-98350000D03*
X121970000Y-100890000D03*
D10*
X121970000Y-103430000D03*
%TD*%
D11*
%TO.C,J3*%
X97309280Y-105287704D03*
X97309280Y-107827704D03*
X97309280Y-110367704D03*
D10*
X97309280Y-112907704D03*
%TD*%
D11*
%TO.C,J4*%
X97340000Y-83240000D03*
X94800000Y-83240000D03*
X92260000Y-83240000D03*
D10*
X89720000Y-83240000D03*
%TD*%
D12*
%TO.C,J5*%
X123190000Y-113030000D03*
%TD*%
%TO.C,J6*%
X123190000Y-109220000D03*
%TD*%
%TO.C,J7*%
X123190000Y-116840000D03*
%TD*%
%TO.C,J8*%
X123190000Y-120650000D03*
%TD*%
%TO.C,J9*%
X119380000Y-113030000D03*
%TD*%
%TO.C,J10*%
X119380000Y-109220000D03*
%TD*%
%TO.C,J11*%
X119380000Y-120650000D03*
%TD*%
%TO.C,J12*%
X119380000Y-116840000D03*
%TD*%
D10*
%TO.C,J13*%
X90170000Y-116840000D03*
D11*
X92710000Y-116840000D03*
X95250000Y-116840000D03*
X97790000Y-116840000D03*
%TD*%
D10*
%TO.C,J15*%
X102382351Y-117684631D03*
D11*
X104922351Y-117684631D03*
X107462351Y-117684631D03*
X110002351Y-117684631D03*
%TD*%
D13*
%TO.C,J20*%
X122490000Y-85310000D03*
%TD*%
%TO.C,J21*%
X122510000Y-91070000D03*
%TD*%
D10*
%TO.C,SW1*%
X93130000Y-90120000D03*
D11*
X93130000Y-87580000D03*
%TD*%
D12*
%TO.C,J17*%
X115570000Y-113030000D03*
%TD*%
D10*
%TO.C,J18*%
X106900000Y-80280000D03*
D11*
X109440000Y-80280000D03*
X106900000Y-82820000D03*
X109440000Y-82820000D03*
X106900000Y-85360000D03*
X109440000Y-85360000D03*
X106900000Y-87900000D03*
X109440000Y-87900000D03*
%TD*%
D12*
%TO.C,J19*%
X115570000Y-116840000D03*
%TD*%
%TO.C,J22*%
X115570000Y-109220000D03*
%TD*%
%TO.C,J23*%
X115570000Y-120650000D03*
%TD*%
D11*
%TO.C,J14*%
X86960000Y-90990000D03*
D10*
X86960000Y-93530000D03*
%TD*%
%TO.C,J16*%
X85507846Y-104830192D03*
D11*
X85507846Y-107370192D03*
%TD*%
D14*
%TO.C,H1*%
X123130000Y-80040000D03*
%TD*%
%TO.C,H2*%
X85090000Y-120650000D03*
%TD*%
%TO.C,H3*%
X85210000Y-80010000D03*
%TD*%
M02*
