M48
; DRILL file {KiCad (5.1.6-0-10_14)} date Friday, May 06, 2022 at 10:42:42 AM
; FORMAT={-:-/ absolute / metric / decimal}
; #@! TF.CreationDate,2022-05-06T10:42:42-05:00
; #@! TF.GenerationSoftware,Kicad,Pcbnew,(5.1.6-0-10_14)
; #@! TF.FileFunction,Plated,1,4,PTH
FMAT,2
METRIC
T1C0.400
T2C1.000
T3C1.300
T4C2.500
%
G90
G05
T1
X85.015Y-96.305
X86.635Y-112.085
X88.43Y-108.54
X88.47Y-111.87
X88.76Y-103.81
X88.83Y-105.47
X88.84Y-107.08
X88.85Y-110.26
X89.21Y-94.89
X92.55Y-94.91
X92.865Y-92.875
X92.915Y-98.105
X94.19Y-99.6
X94.31Y-101.6
X95.94Y-89.3
X96.73Y-98.01
X96.81Y-96.53
X96.88Y-93.72
X96.93Y-99.1
X97.125Y-102.545
X97.69Y-87.3
X98.225Y-93.965
X98.38Y-86.23
X99.28Y-87.31
X99.36Y-109.83
X99.88Y-111.53
X99.96Y-92.59
X100.01Y-104.89
X100.6Y-110.75
X100.73Y-99.37
X100.88Y-87.35
X100.94Y-100.6
X100.99Y-97.98
X101.03Y-96.74
X101.34Y-109.92
X101.38Y-94.73
X101.38Y-102.54
X101.39Y-115.76
X102.24Y-101.79
X102.57Y-112.56
X102.67Y-100.39
X102.76Y-94.86
X103.08Y-99.25
X103.78Y-90.5
X104.2Y-101.16
X104.43Y-111.32
X104.81Y-87.64
X104.9Y-95.1
X105.63Y-106.1
X106.21Y-100.65
X106.63Y-106.79
X106.67Y-110.97
X106.93Y-101.36
X106.971Y-94.78
X107.22Y-98.46
X107.63Y-106.92
X107.73Y-110.74
X107.95Y-100.63
X107.99Y-102.52
X108.38Y-96.01
X109.68Y-93.81
X110.89Y-93.66
X110.9Y-107.99
X112.16Y-88.75
X112.375Y-113.045
X112.88Y-101.65
X113.02Y-99.17
X117.72Y-106.49
X119.18Y-80.67
T2
X90.17Y-116.84
X92.71Y-116.84
X95.25Y-116.84
X97.79Y-116.84
X102.382Y-117.685
X104.922Y-117.685
X107.462Y-117.685
X110.002Y-117.685
X121.97Y-95.81
X121.97Y-98.35
X121.97Y-100.89
X121.97Y-103.43
X85.508Y-104.83
X85.508Y-107.37
X97.309Y-105.288
X97.309Y-107.828
X97.309Y-110.368
X97.309Y-112.908
X106.9Y-80.28
X106.9Y-82.82
X106.9Y-85.36
X106.9Y-87.9
X109.44Y-80.28
X109.44Y-82.82
X109.44Y-85.36
X109.44Y-87.9
X86.96Y-90.99
X86.96Y-93.53
X89.72Y-83.24
X92.26Y-83.24
X94.8Y-83.24
X97.34Y-83.24
X118.11Y-95.77
X118.11Y-98.31
X118.11Y-100.85
X118.11Y-103.39
X93.13Y-87.58
X93.13Y-90.12
T3
X115.57Y-109.22
X123.19Y-109.22
X119.38Y-113.03
X115.57Y-113.03
X119.38Y-116.84
X115.57Y-120.65
X123.19Y-116.84
X119.38Y-109.22
X115.57Y-116.84
X123.19Y-113.03
X123.19Y-120.65
X119.38Y-120.65
T4
X122.49Y-85.31
X122.51Y-91.07
T0
M30
