%TF.GenerationSoftware,KiCad,Pcbnew,(5.1.6-0-10_14)*%
%TF.CreationDate,2022-07-06T22:32:54-05:00*%
%TF.ProjectId,small_led_driver_v2,736d616c-6c5f-46c6-9564-5f6472697665,rev?*%
%TF.SameCoordinates,Original*%
%TF.FileFunction,Copper,L2,Inr*%
%TF.FilePolarity,Positive*%
%FSLAX46Y46*%
G04 Gerber Fmt 4.6, Leading zero omitted, Abs format (unit mm)*
G04 Created by KiCad (PCBNEW (5.1.6-0-10_14)) date 2022-07-06 22:32:54*
%MOMM*%
%LPD*%
G01*
G04 APERTURE LIST*
%TA.AperFunction,ViaPad*%
%ADD10C,2.600000*%
%TD*%
%TA.AperFunction,ViaPad*%
%ADD11O,1.700000X1.700000*%
%TD*%
%TA.AperFunction,ViaPad*%
%ADD12R,1.700000X1.700000*%
%TD*%
%TA.AperFunction,ViaPad*%
%ADD13C,5.000000*%
%TD*%
%TA.AperFunction,ViaPad*%
%ADD14C,0.800000*%
%TD*%
%TA.AperFunction,Conductor*%
%ADD15C,0.254000*%
%TD*%
G04 APERTURE END LIST*
D10*
%TO.N,/TIM1_CH1_SHIFT*%
%TO.C,J13*%
X119806900Y-99585200D03*
%TD*%
%TO.N,/TIM1_CH2_SHIFT*%
%TO.C,J17*%
X119806900Y-107205200D03*
%TD*%
%TO.N,/TIM1_CH3_SHIFT*%
%TO.C,J19*%
X119806900Y-103395200D03*
%TD*%
%TO.N,/TIM15_CH1_SHIFT*%
%TO.C,J22*%
X119806900Y-95775200D03*
%TD*%
%TO.N,/TIM16_CH1_SHIFT*%
%TO.C,J23*%
X119806900Y-91965200D03*
%TD*%
D11*
%TO.N,/WKUP2*%
%TO.C,J3*%
X97309280Y-105287704D03*
%TO.N,/WKUP1*%
X97309280Y-107827704D03*
%TO.N,/WKUP4*%
X97309280Y-110367704D03*
D12*
%TO.N,/WKUP3*%
X97309280Y-112907704D03*
%TD*%
D13*
%TO.N,+5V*%
%TO.C,J20*%
X122555000Y-80987900D03*
%TD*%
%TO.N,GND1*%
%TO.C,J21*%
X122491500Y-86702900D03*
%TD*%
D12*
%TO.N,/NRST*%
%TO.C,SW1*%
X105300780Y-80149700D03*
D11*
%TO.N,GND1*%
X105300780Y-82689700D03*
%TD*%
D12*
%TO.N,GND1*%
%TO.C,J18*%
X109004100Y-80149700D03*
D11*
%TO.N,/NRST*%
X111544100Y-80149700D03*
%TO.N,/NJTRST*%
X109004100Y-82689700D03*
%TO.N,/JTDO*%
X111544100Y-82689700D03*
%TO.N,/JTDI*%
X109004100Y-85229700D03*
%TO.N,/SWCLK*%
X111544100Y-85229700D03*
%TO.N,/SWDIO*%
X109004100Y-87769700D03*
%TO.N,+3V3*%
X111544100Y-87769700D03*
%TD*%
%TO.N,+5V*%
%TO.C,J14*%
X97840800Y-79908400D03*
D12*
%TO.N,Net-(J14-Pad1)*%
X97840800Y-82448400D03*
%TD*%
%TO.N,Net-(J16-Pad1)*%
%TO.C,J16*%
X94157800Y-82448400D03*
D11*
%TO.N,+5V*%
X94157800Y-79908400D03*
%TD*%
D10*
%TO.N,+3V3*%
%TO.C,J1*%
X89865200Y-108343700D03*
%TD*%
%TO.N,GND1*%
%TO.C,J2*%
X89674700Y-103479600D03*
%TD*%
%TO.N,GND1*%
%TO.C,J4*%
X123616900Y-91965200D03*
%TD*%
%TO.N,+5V*%
%TO.C,J5*%
X115996900Y-95775200D03*
%TD*%
%TO.N,+5V*%
%TO.C,J6*%
X115996900Y-107205200D03*
%TD*%
%TO.N,+5V*%
%TO.C,J7*%
X115996900Y-99585200D03*
%TD*%
%TO.N,+5V*%
%TO.C,J8*%
X115996900Y-91965200D03*
%TD*%
%TO.N,GND1*%
%TO.C,J9*%
X123616900Y-103395200D03*
%TD*%
%TO.N,GND1*%
%TO.C,J10*%
X123616900Y-95775200D03*
%TD*%
%TO.N,GND1*%
%TO.C,J11*%
X123616900Y-107205200D03*
%TD*%
%TO.N,GND1*%
%TO.C,J12*%
X123616900Y-99585200D03*
%TD*%
%TO.N,+5V*%
%TO.C,J15*%
X115996900Y-103395200D03*
%TD*%
D14*
%TO.N,GND1*%
X108380000Y-96010000D03*
X96810000Y-96530000D03*
X92865000Y-92875000D03*
X101380000Y-102540000D03*
X95415100Y-102882700D03*
X99360000Y-109830000D03*
X102679500Y-94551500D03*
X105630000Y-106100000D03*
X110890000Y-93660000D03*
X100880000Y-114220000D03*
X107990000Y-102520000D03*
X119180000Y-80670000D03*
X110680000Y-104800000D03*
X103974900Y-78689200D03*
X94468950Y-89477850D03*
X92900500Y-99098100D03*
X113284000Y-112903000D03*
X93116400Y-112941100D03*
%TO.N,+3V3*%
X98225000Y-93965000D03*
X103780000Y-90500000D03*
X100010000Y-104890000D03*
X99960000Y-92590000D03*
X107218480Y-110004860D03*
X105483660Y-84409280D03*
X93543210Y-111853890D03*
%TO.N,/NRST*%
X96730000Y-98010000D03*
X96992440Y-94891860D03*
%TO.N,+5V*%
X111721900Y-112661700D03*
X118122700Y-114579400D03*
%TO.N,/WKUP2*%
X100505999Y-95455001D03*
X92837000Y-95491300D03*
X90855800Y-99529900D03*
%TO.N,/LED_OUT_2*%
X101013298Y-99453700D03*
X100825300Y-87058500D03*
%TO.N,/LED_OUT_1*%
X94208600Y-91287600D03*
X97053400Y-99466400D03*
%TO.N,/TIM15_CH1_SHIFT*%
X120512840Y-111236760D03*
%TO.N,/TIM1_CH1_SHIFT*%
X118201440Y-110131860D03*
%TO.N,/JTDI*%
X109270800Y-93738700D03*
%TO.N,/SWDIO*%
X107937300Y-97116900D03*
%TO.N,/JTDO*%
X112979200Y-89126060D03*
X112280700Y-93675200D03*
%TO.N,/NJTRST*%
X104900000Y-95100000D03*
%TO.N,/TIM16_CH1*%
X104200000Y-101160000D03*
X107630000Y-106920000D03*
%TO.N,/TIM15_CH1*%
X106019600Y-110375700D03*
X112153700Y-101574600D03*
%TO.N,/TIM1_CH1*%
X103720900Y-112318800D03*
X107950000Y-100630000D03*
%TO.N,/TIM1_CH2*%
X102773183Y-111683800D03*
X106654600Y-101231700D03*
%TO.N,/TIM1_CH3*%
X102565200Y-110490000D03*
X105727500Y-102260400D03*
%TO.N,/LVL_EN*%
X101340000Y-109920000D03*
X111969900Y-99955000D03*
%TD*%
D15*
%TO.N,+5V*%
G36*
X125045000Y-79153892D02*
G01*
X124758148Y-78964357D01*
X122734605Y-80987900D01*
X124758148Y-83011443D01*
X125045000Y-82821908D01*
X125045000Y-84881632D01*
X124926614Y-84704454D01*
X124489946Y-84267786D01*
X123976479Y-83924699D01*
X123827346Y-83862926D01*
X124302373Y-83609018D01*
X124578543Y-83191048D01*
X122555000Y-81167505D01*
X120531457Y-83191048D01*
X120807627Y-83609018D01*
X121227808Y-83833039D01*
X121006521Y-83924699D01*
X120493054Y-84267786D01*
X120056386Y-84704454D01*
X119713299Y-85217921D01*
X119476976Y-85788454D01*
X119356500Y-86394129D01*
X119356500Y-87011671D01*
X119476976Y-87617346D01*
X119713299Y-88187879D01*
X120056386Y-88701346D01*
X120493054Y-89138014D01*
X121006521Y-89481101D01*
X121577054Y-89717424D01*
X122182729Y-89837900D01*
X122800271Y-89837900D01*
X123405946Y-89717424D01*
X123976479Y-89481101D01*
X124489946Y-89138014D01*
X124926614Y-88701346D01*
X125045000Y-88524168D01*
X125045000Y-90656796D01*
X124850391Y-90462187D01*
X124533466Y-90250425D01*
X124181319Y-90104561D01*
X123807481Y-90030200D01*
X123426319Y-90030200D01*
X123052481Y-90104561D01*
X122700334Y-90250425D01*
X122383409Y-90462187D01*
X122113887Y-90731709D01*
X121902125Y-91048634D01*
X121756261Y-91400781D01*
X121711900Y-91623799D01*
X121667539Y-91400781D01*
X121521675Y-91048634D01*
X121309913Y-90731709D01*
X121040391Y-90462187D01*
X120723466Y-90250425D01*
X120371319Y-90104561D01*
X119997481Y-90030200D01*
X119616319Y-90030200D01*
X119242481Y-90104561D01*
X118890334Y-90250425D01*
X118573409Y-90462187D01*
X118303887Y-90731709D01*
X118092125Y-91048634D01*
X117946261Y-91400781D01*
X117903370Y-91616409D01*
X117893357Y-91536249D01*
X117773233Y-91174510D01*
X117641212Y-90927517D01*
X117346124Y-90795581D01*
X116176505Y-91965200D01*
X117346124Y-93134819D01*
X117641212Y-93002883D01*
X117812059Y-92662155D01*
X117905241Y-92323397D01*
X117946261Y-92529619D01*
X118092125Y-92881766D01*
X118303887Y-93198691D01*
X118573409Y-93468213D01*
X118890334Y-93679975D01*
X119242481Y-93825839D01*
X119465499Y-93870200D01*
X119242481Y-93914561D01*
X118890334Y-94060425D01*
X118573409Y-94272187D01*
X118303887Y-94541709D01*
X118092125Y-94858634D01*
X117946261Y-95210781D01*
X117903370Y-95426409D01*
X117893357Y-95346249D01*
X117773233Y-94984510D01*
X117641212Y-94737517D01*
X117346124Y-94605581D01*
X116176505Y-95775200D01*
X117346124Y-96944819D01*
X117641212Y-96812883D01*
X117812059Y-96472155D01*
X117905241Y-96133397D01*
X117946261Y-96339619D01*
X118092125Y-96691766D01*
X118303887Y-97008691D01*
X118573409Y-97278213D01*
X118890334Y-97489975D01*
X119242481Y-97635839D01*
X119465499Y-97680200D01*
X119242481Y-97724561D01*
X118890334Y-97870425D01*
X118573409Y-98082187D01*
X118303887Y-98351709D01*
X118092125Y-98668634D01*
X117946261Y-99020781D01*
X117903370Y-99236409D01*
X117893357Y-99156249D01*
X117773233Y-98794510D01*
X117641212Y-98547517D01*
X117346124Y-98415581D01*
X116176505Y-99585200D01*
X117346124Y-100754819D01*
X117641212Y-100622883D01*
X117812059Y-100282155D01*
X117905241Y-99943397D01*
X117946261Y-100149619D01*
X118092125Y-100501766D01*
X118303887Y-100818691D01*
X118573409Y-101088213D01*
X118890334Y-101299975D01*
X119242481Y-101445839D01*
X119465499Y-101490200D01*
X119242481Y-101534561D01*
X118890334Y-101680425D01*
X118573409Y-101892187D01*
X118303887Y-102161709D01*
X118092125Y-102478634D01*
X117946261Y-102830781D01*
X117903370Y-103046409D01*
X117893357Y-102966249D01*
X117773233Y-102604510D01*
X117641212Y-102357517D01*
X117346124Y-102225581D01*
X116176505Y-103395200D01*
X117346124Y-104564819D01*
X117641212Y-104432883D01*
X117812059Y-104092155D01*
X117905241Y-103753397D01*
X117946261Y-103959619D01*
X118092125Y-104311766D01*
X118303887Y-104628691D01*
X118573409Y-104898213D01*
X118890334Y-105109975D01*
X119242481Y-105255839D01*
X119465499Y-105300200D01*
X119242481Y-105344561D01*
X118890334Y-105490425D01*
X118573409Y-105702187D01*
X118303887Y-105971709D01*
X118092125Y-106288634D01*
X117946261Y-106640781D01*
X117903370Y-106856409D01*
X117893357Y-106776249D01*
X117773233Y-106414510D01*
X117641212Y-106167517D01*
X117346124Y-106035581D01*
X116176505Y-107205200D01*
X117346124Y-108374819D01*
X117641212Y-108242883D01*
X117812059Y-107902155D01*
X117905241Y-107563397D01*
X117946261Y-107769619D01*
X118092125Y-108121766D01*
X118303887Y-108438691D01*
X118573409Y-108708213D01*
X118890334Y-108919975D01*
X119242481Y-109065839D01*
X119616319Y-109140200D01*
X119997481Y-109140200D01*
X120371319Y-109065839D01*
X120723466Y-108919975D01*
X121040391Y-108708213D01*
X121309913Y-108438691D01*
X121521675Y-108121766D01*
X121667539Y-107769619D01*
X121711900Y-107546601D01*
X121756261Y-107769619D01*
X121902125Y-108121766D01*
X122113887Y-108438691D01*
X122383409Y-108708213D01*
X122700334Y-108919975D01*
X123052481Y-109065839D01*
X123426319Y-109140200D01*
X123807481Y-109140200D01*
X124181319Y-109065839D01*
X124533466Y-108919975D01*
X124850391Y-108708213D01*
X125045001Y-108513603D01*
X125045001Y-114885000D01*
X115697000Y-114885000D01*
X115697000Y-112970567D01*
X121656600Y-112970567D01*
X121656600Y-113292633D01*
X121719432Y-113608512D01*
X121842682Y-113906063D01*
X122021613Y-114173852D01*
X122249348Y-114401587D01*
X122517137Y-114580518D01*
X122814688Y-114703768D01*
X123130567Y-114766600D01*
X123452633Y-114766600D01*
X123768512Y-114703768D01*
X124066063Y-114580518D01*
X124333852Y-114401587D01*
X124561587Y-114173852D01*
X124740518Y-113906063D01*
X124863768Y-113608512D01*
X124926600Y-113292633D01*
X124926600Y-112970567D01*
X124863768Y-112654688D01*
X124740518Y-112357137D01*
X124561587Y-112089348D01*
X124333852Y-111861613D01*
X124066063Y-111682682D01*
X123768512Y-111559432D01*
X123452633Y-111496600D01*
X123130567Y-111496600D01*
X122814688Y-111559432D01*
X122517137Y-111682682D01*
X122249348Y-111861613D01*
X122021613Y-112089348D01*
X121842682Y-112357137D01*
X121719432Y-112654688D01*
X121656600Y-112970567D01*
X115697000Y-112970567D01*
X115697000Y-110029921D01*
X117166440Y-110029921D01*
X117166440Y-110233799D01*
X117206214Y-110433758D01*
X117284235Y-110622116D01*
X117397503Y-110791634D01*
X117541666Y-110935797D01*
X117711184Y-111049065D01*
X117899542Y-111127086D01*
X118099501Y-111166860D01*
X118303379Y-111166860D01*
X118464451Y-111134821D01*
X119477840Y-111134821D01*
X119477840Y-111338699D01*
X119517614Y-111538658D01*
X119595635Y-111727016D01*
X119708903Y-111896534D01*
X119853066Y-112040697D01*
X120022584Y-112153965D01*
X120210942Y-112231986D01*
X120410901Y-112271760D01*
X120614779Y-112271760D01*
X120814738Y-112231986D01*
X121003096Y-112153965D01*
X121172614Y-112040697D01*
X121316777Y-111896534D01*
X121430045Y-111727016D01*
X121508066Y-111538658D01*
X121547840Y-111338699D01*
X121547840Y-111134821D01*
X121508066Y-110934862D01*
X121430045Y-110746504D01*
X121316777Y-110576986D01*
X121172614Y-110432823D01*
X121003096Y-110319555D01*
X120814738Y-110241534D01*
X120614779Y-110201760D01*
X120410901Y-110201760D01*
X120210942Y-110241534D01*
X120022584Y-110319555D01*
X119853066Y-110432823D01*
X119708903Y-110576986D01*
X119595635Y-110746504D01*
X119517614Y-110934862D01*
X119477840Y-111134821D01*
X118464451Y-111134821D01*
X118503338Y-111127086D01*
X118691696Y-111049065D01*
X118861214Y-110935797D01*
X119005377Y-110791634D01*
X119118645Y-110622116D01*
X119196666Y-110433758D01*
X119236440Y-110233799D01*
X119236440Y-110029921D01*
X119196666Y-109829962D01*
X119118645Y-109641604D01*
X119005377Y-109472086D01*
X118861214Y-109327923D01*
X118691696Y-109214655D01*
X118503338Y-109136634D01*
X118303379Y-109096860D01*
X118099501Y-109096860D01*
X117899542Y-109136634D01*
X117711184Y-109214655D01*
X117541666Y-109327923D01*
X117397503Y-109472086D01*
X117284235Y-109641604D01*
X117206214Y-109829962D01*
X117166440Y-110029921D01*
X115697000Y-110029921D01*
X115697000Y-109123583D01*
X116047629Y-109148901D01*
X116425851Y-109101657D01*
X116787590Y-108981533D01*
X117034583Y-108849512D01*
X117166519Y-108554424D01*
X115996900Y-107384805D01*
X115982758Y-107398948D01*
X115803153Y-107219343D01*
X115817295Y-107205200D01*
X115803153Y-107191058D01*
X115982758Y-107011453D01*
X115996900Y-107025595D01*
X117166519Y-105855976D01*
X117034583Y-105560888D01*
X116693855Y-105390041D01*
X116364187Y-105299360D01*
X116425851Y-105291657D01*
X116787590Y-105171533D01*
X117034583Y-105039512D01*
X117166519Y-104744424D01*
X115996900Y-103574805D01*
X115982758Y-103588948D01*
X115803153Y-103409343D01*
X115817295Y-103395200D01*
X115803153Y-103381058D01*
X115982758Y-103201453D01*
X115996900Y-103215595D01*
X117166519Y-102045976D01*
X117034583Y-101750888D01*
X116693855Y-101580041D01*
X116364187Y-101489360D01*
X116425851Y-101481657D01*
X116787590Y-101361533D01*
X117034583Y-101229512D01*
X117166519Y-100934424D01*
X115996900Y-99764805D01*
X115982758Y-99778948D01*
X115803153Y-99599343D01*
X115817295Y-99585200D01*
X115803153Y-99571058D01*
X115982758Y-99391453D01*
X115996900Y-99405595D01*
X117166519Y-98235976D01*
X117034583Y-97940888D01*
X116693855Y-97770041D01*
X116364187Y-97679360D01*
X116425851Y-97671657D01*
X116787590Y-97551533D01*
X117034583Y-97419512D01*
X117166519Y-97124424D01*
X115996900Y-95954805D01*
X115982758Y-95968948D01*
X115803153Y-95789343D01*
X115817295Y-95775200D01*
X115803153Y-95761058D01*
X115982758Y-95581453D01*
X115996900Y-95595595D01*
X117166519Y-94425976D01*
X117034583Y-94130888D01*
X116693855Y-93960041D01*
X116364187Y-93869360D01*
X116425851Y-93861657D01*
X116787590Y-93741533D01*
X117034583Y-93609512D01*
X117166519Y-93314424D01*
X115996900Y-92144805D01*
X115982758Y-92158948D01*
X115803153Y-91979343D01*
X115817295Y-91965200D01*
X115803153Y-91951058D01*
X115982758Y-91771453D01*
X115996900Y-91785595D01*
X117166519Y-90615976D01*
X117034583Y-90320888D01*
X116693855Y-90150041D01*
X116326343Y-90048950D01*
X115946171Y-90021499D01*
X115697000Y-90052623D01*
X115697000Y-80568061D01*
X118145000Y-80568061D01*
X118145000Y-80771939D01*
X118184774Y-80971898D01*
X118262795Y-81160256D01*
X118376063Y-81329774D01*
X118520226Y-81473937D01*
X118689744Y-81587205D01*
X118878102Y-81665226D01*
X119078061Y-81705000D01*
X119281939Y-81705000D01*
X119481898Y-81665226D01*
X119483877Y-81664406D01*
X119645897Y-82196492D01*
X119933882Y-82735273D01*
X120351852Y-83011443D01*
X122375395Y-80987900D01*
X120351852Y-78964357D01*
X119933882Y-79240527D01*
X119662482Y-79749575D01*
X119481898Y-79674774D01*
X119281939Y-79635000D01*
X119078061Y-79635000D01*
X118878102Y-79674774D01*
X118689744Y-79752795D01*
X118520226Y-79866063D01*
X118376063Y-80010226D01*
X118262795Y-80179744D01*
X118184774Y-80368102D01*
X118145000Y-80568061D01*
X115697000Y-80568061D01*
X115697000Y-78145641D01*
X121224797Y-78143800D01*
X120807627Y-78366782D01*
X120531457Y-78784752D01*
X122555000Y-80808295D01*
X124578543Y-78784752D01*
X124302373Y-78366782D01*
X123882479Y-78142915D01*
X125045000Y-78142527D01*
X125045000Y-79153892D01*
G37*
X125045000Y-79153892D02*
X124758148Y-78964357D01*
X122734605Y-80987900D01*
X124758148Y-83011443D01*
X125045000Y-82821908D01*
X125045000Y-84881632D01*
X124926614Y-84704454D01*
X124489946Y-84267786D01*
X123976479Y-83924699D01*
X123827346Y-83862926D01*
X124302373Y-83609018D01*
X124578543Y-83191048D01*
X122555000Y-81167505D01*
X120531457Y-83191048D01*
X120807627Y-83609018D01*
X121227808Y-83833039D01*
X121006521Y-83924699D01*
X120493054Y-84267786D01*
X120056386Y-84704454D01*
X119713299Y-85217921D01*
X119476976Y-85788454D01*
X119356500Y-86394129D01*
X119356500Y-87011671D01*
X119476976Y-87617346D01*
X119713299Y-88187879D01*
X120056386Y-88701346D01*
X120493054Y-89138014D01*
X121006521Y-89481101D01*
X121577054Y-89717424D01*
X122182729Y-89837900D01*
X122800271Y-89837900D01*
X123405946Y-89717424D01*
X123976479Y-89481101D01*
X124489946Y-89138014D01*
X124926614Y-88701346D01*
X125045000Y-88524168D01*
X125045000Y-90656796D01*
X124850391Y-90462187D01*
X124533466Y-90250425D01*
X124181319Y-90104561D01*
X123807481Y-90030200D01*
X123426319Y-90030200D01*
X123052481Y-90104561D01*
X122700334Y-90250425D01*
X122383409Y-90462187D01*
X122113887Y-90731709D01*
X121902125Y-91048634D01*
X121756261Y-91400781D01*
X121711900Y-91623799D01*
X121667539Y-91400781D01*
X121521675Y-91048634D01*
X121309913Y-90731709D01*
X121040391Y-90462187D01*
X120723466Y-90250425D01*
X120371319Y-90104561D01*
X119997481Y-90030200D01*
X119616319Y-90030200D01*
X119242481Y-90104561D01*
X118890334Y-90250425D01*
X118573409Y-90462187D01*
X118303887Y-90731709D01*
X118092125Y-91048634D01*
X117946261Y-91400781D01*
X117903370Y-91616409D01*
X117893357Y-91536249D01*
X117773233Y-91174510D01*
X117641212Y-90927517D01*
X117346124Y-90795581D01*
X116176505Y-91965200D01*
X117346124Y-93134819D01*
X117641212Y-93002883D01*
X117812059Y-92662155D01*
X117905241Y-92323397D01*
X117946261Y-92529619D01*
X118092125Y-92881766D01*
X118303887Y-93198691D01*
X118573409Y-93468213D01*
X118890334Y-93679975D01*
X119242481Y-93825839D01*
X119465499Y-93870200D01*
X119242481Y-93914561D01*
X118890334Y-94060425D01*
X118573409Y-94272187D01*
X118303887Y-94541709D01*
X118092125Y-94858634D01*
X117946261Y-95210781D01*
X117903370Y-95426409D01*
X117893357Y-95346249D01*
X117773233Y-94984510D01*
X117641212Y-94737517D01*
X117346124Y-94605581D01*
X116176505Y-95775200D01*
X117346124Y-96944819D01*
X117641212Y-96812883D01*
X117812059Y-96472155D01*
X117905241Y-96133397D01*
X117946261Y-96339619D01*
X118092125Y-96691766D01*
X118303887Y-97008691D01*
X118573409Y-97278213D01*
X118890334Y-97489975D01*
X119242481Y-97635839D01*
X119465499Y-97680200D01*
X119242481Y-97724561D01*
X118890334Y-97870425D01*
X118573409Y-98082187D01*
X118303887Y-98351709D01*
X118092125Y-98668634D01*
X117946261Y-99020781D01*
X117903370Y-99236409D01*
X117893357Y-99156249D01*
X117773233Y-98794510D01*
X117641212Y-98547517D01*
X117346124Y-98415581D01*
X116176505Y-99585200D01*
X117346124Y-100754819D01*
X117641212Y-100622883D01*
X117812059Y-100282155D01*
X117905241Y-99943397D01*
X117946261Y-100149619D01*
X118092125Y-100501766D01*
X118303887Y-100818691D01*
X118573409Y-101088213D01*
X118890334Y-101299975D01*
X119242481Y-101445839D01*
X119465499Y-101490200D01*
X119242481Y-101534561D01*
X118890334Y-101680425D01*
X118573409Y-101892187D01*
X118303887Y-102161709D01*
X118092125Y-102478634D01*
X117946261Y-102830781D01*
X117903370Y-103046409D01*
X117893357Y-102966249D01*
X117773233Y-102604510D01*
X117641212Y-102357517D01*
X117346124Y-102225581D01*
X116176505Y-103395200D01*
X117346124Y-104564819D01*
X117641212Y-104432883D01*
X117812059Y-104092155D01*
X117905241Y-103753397D01*
X117946261Y-103959619D01*
X118092125Y-104311766D01*
X118303887Y-104628691D01*
X118573409Y-104898213D01*
X118890334Y-105109975D01*
X119242481Y-105255839D01*
X119465499Y-105300200D01*
X119242481Y-105344561D01*
X118890334Y-105490425D01*
X118573409Y-105702187D01*
X118303887Y-105971709D01*
X118092125Y-106288634D01*
X117946261Y-106640781D01*
X117903370Y-106856409D01*
X117893357Y-106776249D01*
X117773233Y-106414510D01*
X117641212Y-106167517D01*
X117346124Y-106035581D01*
X116176505Y-107205200D01*
X117346124Y-108374819D01*
X117641212Y-108242883D01*
X117812059Y-107902155D01*
X117905241Y-107563397D01*
X117946261Y-107769619D01*
X118092125Y-108121766D01*
X118303887Y-108438691D01*
X118573409Y-108708213D01*
X118890334Y-108919975D01*
X119242481Y-109065839D01*
X119616319Y-109140200D01*
X119997481Y-109140200D01*
X120371319Y-109065839D01*
X120723466Y-108919975D01*
X121040391Y-108708213D01*
X121309913Y-108438691D01*
X121521675Y-108121766D01*
X121667539Y-107769619D01*
X121711900Y-107546601D01*
X121756261Y-107769619D01*
X121902125Y-108121766D01*
X122113887Y-108438691D01*
X122383409Y-108708213D01*
X122700334Y-108919975D01*
X123052481Y-109065839D01*
X123426319Y-109140200D01*
X123807481Y-109140200D01*
X124181319Y-109065839D01*
X124533466Y-108919975D01*
X124850391Y-108708213D01*
X125045001Y-108513603D01*
X125045001Y-114885000D01*
X115697000Y-114885000D01*
X115697000Y-112970567D01*
X121656600Y-112970567D01*
X121656600Y-113292633D01*
X121719432Y-113608512D01*
X121842682Y-113906063D01*
X122021613Y-114173852D01*
X122249348Y-114401587D01*
X122517137Y-114580518D01*
X122814688Y-114703768D01*
X123130567Y-114766600D01*
X123452633Y-114766600D01*
X123768512Y-114703768D01*
X124066063Y-114580518D01*
X124333852Y-114401587D01*
X124561587Y-114173852D01*
X124740518Y-113906063D01*
X124863768Y-113608512D01*
X124926600Y-113292633D01*
X124926600Y-112970567D01*
X124863768Y-112654688D01*
X124740518Y-112357137D01*
X124561587Y-112089348D01*
X124333852Y-111861613D01*
X124066063Y-111682682D01*
X123768512Y-111559432D01*
X123452633Y-111496600D01*
X123130567Y-111496600D01*
X122814688Y-111559432D01*
X122517137Y-111682682D01*
X122249348Y-111861613D01*
X122021613Y-112089348D01*
X121842682Y-112357137D01*
X121719432Y-112654688D01*
X121656600Y-112970567D01*
X115697000Y-112970567D01*
X115697000Y-110029921D01*
X117166440Y-110029921D01*
X117166440Y-110233799D01*
X117206214Y-110433758D01*
X117284235Y-110622116D01*
X117397503Y-110791634D01*
X117541666Y-110935797D01*
X117711184Y-111049065D01*
X117899542Y-111127086D01*
X118099501Y-111166860D01*
X118303379Y-111166860D01*
X118464451Y-111134821D01*
X119477840Y-111134821D01*
X119477840Y-111338699D01*
X119517614Y-111538658D01*
X119595635Y-111727016D01*
X119708903Y-111896534D01*
X119853066Y-112040697D01*
X120022584Y-112153965D01*
X120210942Y-112231986D01*
X120410901Y-112271760D01*
X120614779Y-112271760D01*
X120814738Y-112231986D01*
X121003096Y-112153965D01*
X121172614Y-112040697D01*
X121316777Y-111896534D01*
X121430045Y-111727016D01*
X121508066Y-111538658D01*
X121547840Y-111338699D01*
X121547840Y-111134821D01*
X121508066Y-110934862D01*
X121430045Y-110746504D01*
X121316777Y-110576986D01*
X121172614Y-110432823D01*
X121003096Y-110319555D01*
X120814738Y-110241534D01*
X120614779Y-110201760D01*
X120410901Y-110201760D01*
X120210942Y-110241534D01*
X120022584Y-110319555D01*
X119853066Y-110432823D01*
X119708903Y-110576986D01*
X119595635Y-110746504D01*
X119517614Y-110934862D01*
X119477840Y-111134821D01*
X118464451Y-111134821D01*
X118503338Y-111127086D01*
X118691696Y-111049065D01*
X118861214Y-110935797D01*
X119005377Y-110791634D01*
X119118645Y-110622116D01*
X119196666Y-110433758D01*
X119236440Y-110233799D01*
X119236440Y-110029921D01*
X119196666Y-109829962D01*
X119118645Y-109641604D01*
X119005377Y-109472086D01*
X118861214Y-109327923D01*
X118691696Y-109214655D01*
X118503338Y-109136634D01*
X118303379Y-109096860D01*
X118099501Y-109096860D01*
X117899542Y-109136634D01*
X117711184Y-109214655D01*
X117541666Y-109327923D01*
X117397503Y-109472086D01*
X117284235Y-109641604D01*
X117206214Y-109829962D01*
X117166440Y-110029921D01*
X115697000Y-110029921D01*
X115697000Y-109123583D01*
X116047629Y-109148901D01*
X116425851Y-109101657D01*
X116787590Y-108981533D01*
X117034583Y-108849512D01*
X117166519Y-108554424D01*
X115996900Y-107384805D01*
X115982758Y-107398948D01*
X115803153Y-107219343D01*
X115817295Y-107205200D01*
X115803153Y-107191058D01*
X115982758Y-107011453D01*
X115996900Y-107025595D01*
X117166519Y-105855976D01*
X117034583Y-105560888D01*
X116693855Y-105390041D01*
X116364187Y-105299360D01*
X116425851Y-105291657D01*
X116787590Y-105171533D01*
X117034583Y-105039512D01*
X117166519Y-104744424D01*
X115996900Y-103574805D01*
X115982758Y-103588948D01*
X115803153Y-103409343D01*
X115817295Y-103395200D01*
X115803153Y-103381058D01*
X115982758Y-103201453D01*
X115996900Y-103215595D01*
X117166519Y-102045976D01*
X117034583Y-101750888D01*
X116693855Y-101580041D01*
X116364187Y-101489360D01*
X116425851Y-101481657D01*
X116787590Y-101361533D01*
X117034583Y-101229512D01*
X117166519Y-100934424D01*
X115996900Y-99764805D01*
X115982758Y-99778948D01*
X115803153Y-99599343D01*
X115817295Y-99585200D01*
X115803153Y-99571058D01*
X115982758Y-99391453D01*
X115996900Y-99405595D01*
X117166519Y-98235976D01*
X117034583Y-97940888D01*
X116693855Y-97770041D01*
X116364187Y-97679360D01*
X116425851Y-97671657D01*
X116787590Y-97551533D01*
X117034583Y-97419512D01*
X117166519Y-97124424D01*
X115996900Y-95954805D01*
X115982758Y-95968948D01*
X115803153Y-95789343D01*
X115817295Y-95775200D01*
X115803153Y-95761058D01*
X115982758Y-95581453D01*
X115996900Y-95595595D01*
X117166519Y-94425976D01*
X117034583Y-94130888D01*
X116693855Y-93960041D01*
X116364187Y-93869360D01*
X116425851Y-93861657D01*
X116787590Y-93741533D01*
X117034583Y-93609512D01*
X117166519Y-93314424D01*
X115996900Y-92144805D01*
X115982758Y-92158948D01*
X115803153Y-91979343D01*
X115817295Y-91965200D01*
X115803153Y-91951058D01*
X115982758Y-91771453D01*
X115996900Y-91785595D01*
X117166519Y-90615976D01*
X117034583Y-90320888D01*
X116693855Y-90150041D01*
X116326343Y-90048950D01*
X115946171Y-90021499D01*
X115697000Y-90052623D01*
X115697000Y-80568061D01*
X118145000Y-80568061D01*
X118145000Y-80771939D01*
X118184774Y-80971898D01*
X118262795Y-81160256D01*
X118376063Y-81329774D01*
X118520226Y-81473937D01*
X118689744Y-81587205D01*
X118878102Y-81665226D01*
X119078061Y-81705000D01*
X119281939Y-81705000D01*
X119481898Y-81665226D01*
X119483877Y-81664406D01*
X119645897Y-82196492D01*
X119933882Y-82735273D01*
X120351852Y-83011443D01*
X122375395Y-80987900D01*
X120351852Y-78964357D01*
X119933882Y-79240527D01*
X119662482Y-79749575D01*
X119481898Y-79674774D01*
X119281939Y-79635000D01*
X119078061Y-79635000D01*
X118878102Y-79674774D01*
X118689744Y-79752795D01*
X118520226Y-79866063D01*
X118376063Y-80010226D01*
X118262795Y-80179744D01*
X118184774Y-80368102D01*
X118145000Y-80568061D01*
X115697000Y-80568061D01*
X115697000Y-78145641D01*
X121224797Y-78143800D01*
X120807627Y-78366782D01*
X120531457Y-78784752D01*
X122555000Y-80808295D01*
X124578543Y-78784752D01*
X124302373Y-78366782D01*
X123882479Y-78142915D01*
X125045000Y-78142527D01*
X125045000Y-79153892D01*
%TO.N,+3V3*%
G36*
X112903000Y-79549883D02*
G01*
X112860090Y-79446289D01*
X112697575Y-79203068D01*
X112490732Y-78996225D01*
X112247511Y-78833710D01*
X111977258Y-78721768D01*
X111690360Y-78664700D01*
X111397840Y-78664700D01*
X111110942Y-78721768D01*
X110840689Y-78833710D01*
X110597468Y-78996225D01*
X110465613Y-79128080D01*
X110443602Y-79055520D01*
X110384637Y-78945206D01*
X110305285Y-78848515D01*
X110208594Y-78769163D01*
X110098280Y-78710198D01*
X109978582Y-78673888D01*
X109854100Y-78661628D01*
X108154100Y-78661628D01*
X108029618Y-78673888D01*
X107909920Y-78710198D01*
X107799606Y-78769163D01*
X107702915Y-78848515D01*
X107623563Y-78945206D01*
X107564598Y-79055520D01*
X107528288Y-79175218D01*
X107516028Y-79299700D01*
X107516028Y-80999700D01*
X107528288Y-81124182D01*
X107564598Y-81243880D01*
X107623563Y-81354194D01*
X107702915Y-81450885D01*
X107799606Y-81530237D01*
X107909920Y-81589202D01*
X107982480Y-81611213D01*
X107850625Y-81743068D01*
X107688110Y-81986289D01*
X107576168Y-82256542D01*
X107519100Y-82543440D01*
X107519100Y-82835960D01*
X107576168Y-83122858D01*
X107688110Y-83393111D01*
X107850625Y-83636332D01*
X108057468Y-83843175D01*
X108231860Y-83959700D01*
X108057468Y-84076225D01*
X107850625Y-84283068D01*
X107688110Y-84526289D01*
X107576168Y-84796542D01*
X107519100Y-85083440D01*
X107519100Y-85375960D01*
X107576168Y-85662858D01*
X107688110Y-85933111D01*
X107850625Y-86176332D01*
X108057468Y-86383175D01*
X108231860Y-86499700D01*
X108057468Y-86616225D01*
X107850625Y-86823068D01*
X107688110Y-87066289D01*
X107576168Y-87336542D01*
X107519100Y-87623440D01*
X107519100Y-87915960D01*
X107576168Y-88202858D01*
X107688110Y-88473111D01*
X107850625Y-88716332D01*
X108057468Y-88923175D01*
X108300689Y-89085690D01*
X108570942Y-89197632D01*
X108857840Y-89254700D01*
X109150360Y-89254700D01*
X109437258Y-89197632D01*
X109707511Y-89085690D01*
X109950732Y-88923175D01*
X110157575Y-88716332D01*
X110275200Y-88540294D01*
X110446512Y-88769969D01*
X110662745Y-88964878D01*
X110912848Y-89113857D01*
X111187209Y-89211181D01*
X111417100Y-89090514D01*
X111417100Y-87896700D01*
X111397100Y-87896700D01*
X111397100Y-87642700D01*
X111417100Y-87642700D01*
X111417100Y-87622700D01*
X111671100Y-87622700D01*
X111671100Y-87642700D01*
X111691100Y-87642700D01*
X111691100Y-87896700D01*
X111671100Y-87896700D01*
X111671100Y-89090514D01*
X111900991Y-89211181D01*
X111944200Y-89195853D01*
X111944200Y-89227999D01*
X111983974Y-89427958D01*
X112061995Y-89616316D01*
X112175263Y-89785834D01*
X112319426Y-89929997D01*
X112488944Y-90043265D01*
X112677302Y-90121286D01*
X112877261Y-90161060D01*
X112903000Y-90161060D01*
X112903000Y-92846224D01*
X112770956Y-92757995D01*
X112582598Y-92679974D01*
X112382639Y-92640200D01*
X112178761Y-92640200D01*
X111978802Y-92679974D01*
X111790444Y-92757995D01*
X111620926Y-92871263D01*
X111592950Y-92899239D01*
X111549774Y-92856063D01*
X111380256Y-92742795D01*
X111191898Y-92664774D01*
X110991939Y-92625000D01*
X110788061Y-92625000D01*
X110588102Y-92664774D01*
X110399744Y-92742795D01*
X110230226Y-92856063D01*
X110086063Y-93000226D01*
X110050004Y-93054193D01*
X109930574Y-92934763D01*
X109761056Y-92821495D01*
X109572698Y-92743474D01*
X109372739Y-92703700D01*
X109168861Y-92703700D01*
X108968902Y-92743474D01*
X108780544Y-92821495D01*
X108611026Y-92934763D01*
X108466863Y-93078926D01*
X108353595Y-93248444D01*
X108275574Y-93436802D01*
X108235800Y-93636761D01*
X108235800Y-93840639D01*
X108275574Y-94040598D01*
X108353595Y-94228956D01*
X108466863Y-94398474D01*
X108611026Y-94542637D01*
X108780544Y-94655905D01*
X108968902Y-94733926D01*
X109168861Y-94773700D01*
X109372739Y-94773700D01*
X109572698Y-94733926D01*
X109761056Y-94655905D01*
X109930574Y-94542637D01*
X110074737Y-94398474D01*
X110110796Y-94344507D01*
X110230226Y-94463937D01*
X110399744Y-94577205D01*
X110588102Y-94655226D01*
X110788061Y-94695000D01*
X110991939Y-94695000D01*
X111191898Y-94655226D01*
X111380256Y-94577205D01*
X111549774Y-94463937D01*
X111577750Y-94435961D01*
X111620926Y-94479137D01*
X111790444Y-94592405D01*
X111978802Y-94670426D01*
X112178761Y-94710200D01*
X112382639Y-94710200D01*
X112582598Y-94670426D01*
X112770956Y-94592405D01*
X112903000Y-94504176D01*
X112903000Y-99503118D01*
X112887105Y-99464744D01*
X112773837Y-99295226D01*
X112629674Y-99151063D01*
X112460156Y-99037795D01*
X112271798Y-98959774D01*
X112071839Y-98920000D01*
X111867961Y-98920000D01*
X111668002Y-98959774D01*
X111479644Y-99037795D01*
X111310126Y-99151063D01*
X111165963Y-99295226D01*
X111052695Y-99464744D01*
X110974674Y-99653102D01*
X110934900Y-99853061D01*
X110934900Y-100056939D01*
X110974674Y-100256898D01*
X111052695Y-100445256D01*
X111165963Y-100614774D01*
X111310126Y-100758937D01*
X111427335Y-100837254D01*
X111349763Y-100914826D01*
X111236495Y-101084344D01*
X111158474Y-101272702D01*
X111118700Y-101472661D01*
X111118700Y-101676539D01*
X111158474Y-101876498D01*
X111236495Y-102064856D01*
X111349763Y-102234374D01*
X111493926Y-102378537D01*
X111663444Y-102491805D01*
X111851802Y-102569826D01*
X112051761Y-102609600D01*
X112255639Y-102609600D01*
X112455598Y-102569826D01*
X112643956Y-102491805D01*
X112813474Y-102378537D01*
X112903000Y-102289011D01*
X112903000Y-111940539D01*
X112793744Y-111985795D01*
X112624226Y-112099063D01*
X112604154Y-112119135D01*
X112525837Y-112001926D01*
X112381674Y-111857763D01*
X112212156Y-111744495D01*
X112023798Y-111666474D01*
X111823839Y-111626700D01*
X111619961Y-111626700D01*
X111420002Y-111666474D01*
X111231644Y-111744495D01*
X111062126Y-111857763D01*
X110917963Y-112001926D01*
X110804695Y-112171444D01*
X110726674Y-112359802D01*
X110686900Y-112559761D01*
X110686900Y-112763639D01*
X110726674Y-112963598D01*
X110804695Y-113151956D01*
X110917963Y-113321474D01*
X111062126Y-113465637D01*
X111231644Y-113578905D01*
X111420002Y-113656926D01*
X111619961Y-113696700D01*
X111823839Y-113696700D01*
X112023798Y-113656926D01*
X112212156Y-113578905D01*
X112381674Y-113465637D01*
X112401746Y-113445565D01*
X112480063Y-113562774D01*
X112624226Y-113706937D01*
X112793744Y-113820205D01*
X112903000Y-113865461D01*
X112903000Y-114885000D01*
X101678711Y-114885000D01*
X101683937Y-114879774D01*
X101797205Y-114710256D01*
X101875226Y-114521898D01*
X101915000Y-114321939D01*
X101915000Y-114118061D01*
X101875226Y-113918102D01*
X101797205Y-113729744D01*
X101683937Y-113560226D01*
X101539774Y-113416063D01*
X101370256Y-113302795D01*
X101181898Y-113224774D01*
X100981939Y-113185000D01*
X100778061Y-113185000D01*
X100578102Y-113224774D01*
X100389744Y-113302795D01*
X100220226Y-113416063D01*
X100076063Y-113560226D01*
X99962795Y-113729744D01*
X99884774Y-113918102D01*
X99845000Y-114118061D01*
X99845000Y-114321939D01*
X99884774Y-114521898D01*
X99962795Y-114710256D01*
X100076063Y-114879774D01*
X100081289Y-114885000D01*
X88276900Y-114885000D01*
X88276900Y-112970567D01*
X88458800Y-112970567D01*
X88458800Y-113292633D01*
X88521632Y-113608512D01*
X88644882Y-113906063D01*
X88823813Y-114173852D01*
X89051548Y-114401587D01*
X89319337Y-114580518D01*
X89616888Y-114703768D01*
X89932767Y-114766600D01*
X90254833Y-114766600D01*
X90570712Y-114703768D01*
X90868263Y-114580518D01*
X91136052Y-114401587D01*
X91363787Y-114173852D01*
X91542718Y-113906063D01*
X91665968Y-113608512D01*
X91728800Y-113292633D01*
X91728800Y-112970567D01*
X91702662Y-112839161D01*
X92081400Y-112839161D01*
X92081400Y-113043039D01*
X92121174Y-113242998D01*
X92199195Y-113431356D01*
X92312463Y-113600874D01*
X92456626Y-113745037D01*
X92626144Y-113858305D01*
X92814502Y-113936326D01*
X93014461Y-113976100D01*
X93218339Y-113976100D01*
X93418298Y-113936326D01*
X93606656Y-113858305D01*
X93776174Y-113745037D01*
X93920337Y-113600874D01*
X94033605Y-113431356D01*
X94111626Y-113242998D01*
X94151400Y-113043039D01*
X94151400Y-112839161D01*
X94111626Y-112639202D01*
X94033605Y-112450844D01*
X93920337Y-112281326D01*
X93776174Y-112137163D01*
X93657255Y-112057704D01*
X95821208Y-112057704D01*
X95821208Y-113757704D01*
X95833468Y-113882186D01*
X95869778Y-114001884D01*
X95928743Y-114112198D01*
X96008095Y-114208889D01*
X96104786Y-114288241D01*
X96215100Y-114347206D01*
X96334798Y-114383516D01*
X96459280Y-114395776D01*
X98159280Y-114395776D01*
X98283762Y-114383516D01*
X98403460Y-114347206D01*
X98513774Y-114288241D01*
X98610465Y-114208889D01*
X98689817Y-114112198D01*
X98748782Y-114001884D01*
X98785092Y-113882186D01*
X98797352Y-113757704D01*
X98797352Y-112057704D01*
X98785092Y-111933222D01*
X98748782Y-111813524D01*
X98689817Y-111703210D01*
X98610465Y-111606519D01*
X98513774Y-111527167D01*
X98403460Y-111468202D01*
X98330900Y-111446191D01*
X98462755Y-111314336D01*
X98625270Y-111071115D01*
X98737212Y-110800862D01*
X98762181Y-110675334D01*
X98869744Y-110747205D01*
X99058102Y-110825226D01*
X99258061Y-110865000D01*
X99461939Y-110865000D01*
X99661898Y-110825226D01*
X99850256Y-110747205D01*
X100019774Y-110633937D01*
X100163937Y-110489774D01*
X100277205Y-110320256D01*
X100336071Y-110178143D01*
X100344774Y-110221898D01*
X100422795Y-110410256D01*
X100536063Y-110579774D01*
X100680226Y-110723937D01*
X100849744Y-110837205D01*
X101038102Y-110915226D01*
X101238061Y-110955000D01*
X101441939Y-110955000D01*
X101622645Y-110919056D01*
X101647995Y-110980256D01*
X101761263Y-111149774D01*
X101841056Y-111229567D01*
X101777957Y-111381902D01*
X101738183Y-111581861D01*
X101738183Y-111785739D01*
X101777957Y-111985698D01*
X101855978Y-112174056D01*
X101969246Y-112343574D01*
X102113409Y-112487737D01*
X102282927Y-112601005D01*
X102471285Y-112679026D01*
X102671244Y-112718800D01*
X102766309Y-112718800D01*
X102803695Y-112809056D01*
X102916963Y-112978574D01*
X103061126Y-113122737D01*
X103230644Y-113236005D01*
X103419002Y-113314026D01*
X103618961Y-113353800D01*
X103822839Y-113353800D01*
X104022798Y-113314026D01*
X104211156Y-113236005D01*
X104380674Y-113122737D01*
X104524837Y-112978574D01*
X104638105Y-112809056D01*
X104716126Y-112620698D01*
X104755900Y-112420739D01*
X104755900Y-112216861D01*
X104716126Y-112016902D01*
X104638105Y-111828544D01*
X104524837Y-111659026D01*
X104380674Y-111514863D01*
X104211156Y-111401595D01*
X104022798Y-111323574D01*
X103822839Y-111283800D01*
X103727774Y-111283800D01*
X103690388Y-111193544D01*
X103577120Y-111024026D01*
X103497327Y-110944233D01*
X103560426Y-110791898D01*
X103600200Y-110591939D01*
X103600200Y-110388061D01*
X103577465Y-110273761D01*
X104984600Y-110273761D01*
X104984600Y-110477639D01*
X105024374Y-110677598D01*
X105102395Y-110865956D01*
X105215663Y-111035474D01*
X105359826Y-111179637D01*
X105529344Y-111292905D01*
X105717702Y-111370926D01*
X105917661Y-111410700D01*
X106121539Y-111410700D01*
X106321498Y-111370926D01*
X106509856Y-111292905D01*
X106679374Y-111179637D01*
X106823537Y-111035474D01*
X106936805Y-110865956D01*
X107014826Y-110677598D01*
X107054600Y-110477639D01*
X107054600Y-110273761D01*
X107014826Y-110073802D01*
X106936805Y-109885444D01*
X106823537Y-109715926D01*
X106679374Y-109571763D01*
X106509856Y-109458495D01*
X106321498Y-109380474D01*
X106121539Y-109340700D01*
X105917661Y-109340700D01*
X105717702Y-109380474D01*
X105529344Y-109458495D01*
X105359826Y-109571763D01*
X105215663Y-109715926D01*
X105102395Y-109885444D01*
X105024374Y-110073802D01*
X104984600Y-110273761D01*
X103577465Y-110273761D01*
X103560426Y-110188102D01*
X103482405Y-109999744D01*
X103369137Y-109830226D01*
X103224974Y-109686063D01*
X103055456Y-109572795D01*
X102867098Y-109494774D01*
X102667139Y-109455000D01*
X102463261Y-109455000D01*
X102282555Y-109490944D01*
X102257205Y-109429744D01*
X102143937Y-109260226D01*
X101999774Y-109116063D01*
X101830256Y-109002795D01*
X101641898Y-108924774D01*
X101441939Y-108885000D01*
X101238061Y-108885000D01*
X101038102Y-108924774D01*
X100849744Y-109002795D01*
X100680226Y-109116063D01*
X100536063Y-109260226D01*
X100422795Y-109429744D01*
X100363929Y-109571857D01*
X100355226Y-109528102D01*
X100277205Y-109339744D01*
X100163937Y-109170226D01*
X100019774Y-109026063D01*
X99850256Y-108912795D01*
X99661898Y-108834774D01*
X99461939Y-108795000D01*
X99258061Y-108795000D01*
X99058102Y-108834774D01*
X98869744Y-108912795D01*
X98700226Y-109026063D01*
X98556063Y-109170226D01*
X98442795Y-109339744D01*
X98424821Y-109383138D01*
X98255912Y-109214229D01*
X98081520Y-109097704D01*
X98255912Y-108981179D01*
X98462755Y-108774336D01*
X98625270Y-108531115D01*
X98737212Y-108260862D01*
X98794280Y-107973964D01*
X98794280Y-107681444D01*
X98737212Y-107394546D01*
X98625270Y-107124293D01*
X98462755Y-106881072D01*
X98255912Y-106674229D01*
X98081520Y-106557704D01*
X98255912Y-106441179D01*
X98462755Y-106234336D01*
X98620628Y-105998061D01*
X104595000Y-105998061D01*
X104595000Y-106201939D01*
X104634774Y-106401898D01*
X104712795Y-106590256D01*
X104826063Y-106759774D01*
X104970226Y-106903937D01*
X105139744Y-107017205D01*
X105328102Y-107095226D01*
X105528061Y-107135000D01*
X105731939Y-107135000D01*
X105931898Y-107095226D01*
X106120256Y-107017205D01*
X106289774Y-106903937D01*
X106375650Y-106818061D01*
X106595000Y-106818061D01*
X106595000Y-107021939D01*
X106634774Y-107221898D01*
X106712795Y-107410256D01*
X106826063Y-107579774D01*
X106970226Y-107723937D01*
X107139744Y-107837205D01*
X107328102Y-107915226D01*
X107528061Y-107955000D01*
X107731939Y-107955000D01*
X107931898Y-107915226D01*
X108120256Y-107837205D01*
X108289774Y-107723937D01*
X108433937Y-107579774D01*
X108547205Y-107410256D01*
X108625226Y-107221898D01*
X108665000Y-107021939D01*
X108665000Y-106818061D01*
X108625226Y-106618102D01*
X108547205Y-106429744D01*
X108433937Y-106260226D01*
X108289774Y-106116063D01*
X108120256Y-106002795D01*
X107931898Y-105924774D01*
X107731939Y-105885000D01*
X107528061Y-105885000D01*
X107328102Y-105924774D01*
X107139744Y-106002795D01*
X106970226Y-106116063D01*
X106826063Y-106260226D01*
X106712795Y-106429744D01*
X106634774Y-106618102D01*
X106595000Y-106818061D01*
X106375650Y-106818061D01*
X106433937Y-106759774D01*
X106547205Y-106590256D01*
X106625226Y-106401898D01*
X106665000Y-106201939D01*
X106665000Y-105998061D01*
X106625226Y-105798102D01*
X106547205Y-105609744D01*
X106433937Y-105440226D01*
X106289774Y-105296063D01*
X106120256Y-105182795D01*
X105931898Y-105104774D01*
X105731939Y-105065000D01*
X105528061Y-105065000D01*
X105328102Y-105104774D01*
X105139744Y-105182795D01*
X104970226Y-105296063D01*
X104826063Y-105440226D01*
X104712795Y-105609744D01*
X104634774Y-105798102D01*
X104595000Y-105998061D01*
X98620628Y-105998061D01*
X98625270Y-105991115D01*
X98737212Y-105720862D01*
X98794280Y-105433964D01*
X98794280Y-105141444D01*
X98737212Y-104854546D01*
X98672395Y-104698061D01*
X109645000Y-104698061D01*
X109645000Y-104901939D01*
X109684774Y-105101898D01*
X109762795Y-105290256D01*
X109876063Y-105459774D01*
X110020226Y-105603937D01*
X110189744Y-105717205D01*
X110378102Y-105795226D01*
X110578061Y-105835000D01*
X110781939Y-105835000D01*
X110981898Y-105795226D01*
X111170256Y-105717205D01*
X111339774Y-105603937D01*
X111483937Y-105459774D01*
X111597205Y-105290256D01*
X111675226Y-105101898D01*
X111715000Y-104901939D01*
X111715000Y-104698061D01*
X111675226Y-104498102D01*
X111597205Y-104309744D01*
X111483937Y-104140226D01*
X111339774Y-103996063D01*
X111170256Y-103882795D01*
X110981898Y-103804774D01*
X110781939Y-103765000D01*
X110578061Y-103765000D01*
X110378102Y-103804774D01*
X110189744Y-103882795D01*
X110020226Y-103996063D01*
X109876063Y-104140226D01*
X109762795Y-104309744D01*
X109684774Y-104498102D01*
X109645000Y-104698061D01*
X98672395Y-104698061D01*
X98625270Y-104584293D01*
X98462755Y-104341072D01*
X98255912Y-104134229D01*
X98012691Y-103971714D01*
X97742438Y-103859772D01*
X97455540Y-103802704D01*
X97163020Y-103802704D01*
X96876122Y-103859772D01*
X96605869Y-103971714D01*
X96362648Y-104134229D01*
X96155805Y-104341072D01*
X95993290Y-104584293D01*
X95881348Y-104854546D01*
X95824280Y-105141444D01*
X95824280Y-105433964D01*
X95881348Y-105720862D01*
X95993290Y-105991115D01*
X96155805Y-106234336D01*
X96362648Y-106441179D01*
X96537040Y-106557704D01*
X96362648Y-106674229D01*
X96155805Y-106881072D01*
X95993290Y-107124293D01*
X95881348Y-107394546D01*
X95824280Y-107681444D01*
X95824280Y-107973964D01*
X95881348Y-108260862D01*
X95993290Y-108531115D01*
X96155805Y-108774336D01*
X96362648Y-108981179D01*
X96537040Y-109097704D01*
X96362648Y-109214229D01*
X96155805Y-109421072D01*
X95993290Y-109664293D01*
X95881348Y-109934546D01*
X95824280Y-110221444D01*
X95824280Y-110513964D01*
X95881348Y-110800862D01*
X95993290Y-111071115D01*
X96155805Y-111314336D01*
X96287660Y-111446191D01*
X96215100Y-111468202D01*
X96104786Y-111527167D01*
X96008095Y-111606519D01*
X95928743Y-111703210D01*
X95869778Y-111813524D01*
X95833468Y-111933222D01*
X95821208Y-112057704D01*
X93657255Y-112057704D01*
X93606656Y-112023895D01*
X93418298Y-111945874D01*
X93218339Y-111906100D01*
X93014461Y-111906100D01*
X92814502Y-111945874D01*
X92626144Y-112023895D01*
X92456626Y-112137163D01*
X92312463Y-112281326D01*
X92199195Y-112450844D01*
X92121174Y-112639202D01*
X92081400Y-112839161D01*
X91702662Y-112839161D01*
X91665968Y-112654688D01*
X91542718Y-112357137D01*
X91363787Y-112089348D01*
X91136052Y-111861613D01*
X90868263Y-111682682D01*
X90570712Y-111559432D01*
X90254833Y-111496600D01*
X89932767Y-111496600D01*
X89616888Y-111559432D01*
X89319337Y-111682682D01*
X89051548Y-111861613D01*
X88823813Y-112089348D01*
X88644882Y-112357137D01*
X88521632Y-112654688D01*
X88458800Y-112970567D01*
X88276900Y-112970567D01*
X88276900Y-109692924D01*
X88695581Y-109692924D01*
X88827517Y-109988012D01*
X89168245Y-110158859D01*
X89535757Y-110259950D01*
X89915929Y-110287401D01*
X90294151Y-110240157D01*
X90655890Y-110120033D01*
X90902883Y-109988012D01*
X91034819Y-109692924D01*
X89865200Y-108523305D01*
X88695581Y-109692924D01*
X88276900Y-109692924D01*
X88276900Y-109406426D01*
X88515976Y-109513319D01*
X89685595Y-108343700D01*
X90044805Y-108343700D01*
X91214424Y-109513319D01*
X91509512Y-109381383D01*
X91680359Y-109040655D01*
X91781450Y-108673143D01*
X91808901Y-108292971D01*
X91761657Y-107914749D01*
X91641533Y-107553010D01*
X91509512Y-107306017D01*
X91214424Y-107174081D01*
X90044805Y-108343700D01*
X89685595Y-108343700D01*
X88515976Y-107174081D01*
X88276900Y-107280974D01*
X88276900Y-106994476D01*
X88695581Y-106994476D01*
X89865200Y-108164095D01*
X91034819Y-106994476D01*
X90902883Y-106699388D01*
X90562155Y-106528541D01*
X90194643Y-106427450D01*
X89814471Y-106399999D01*
X89436249Y-106447243D01*
X89074510Y-106567367D01*
X88827517Y-106699388D01*
X88695581Y-106994476D01*
X88276900Y-106994476D01*
X88276900Y-104818304D01*
X88441209Y-104982613D01*
X88758134Y-105194375D01*
X89110281Y-105340239D01*
X89484119Y-105414600D01*
X89865281Y-105414600D01*
X90239119Y-105340239D01*
X90591266Y-105194375D01*
X90908191Y-104982613D01*
X91177713Y-104713091D01*
X91389475Y-104396166D01*
X91535339Y-104044019D01*
X91609700Y-103670181D01*
X91609700Y-103289019D01*
X91535339Y-102915181D01*
X91479661Y-102780761D01*
X94380100Y-102780761D01*
X94380100Y-102984639D01*
X94419874Y-103184598D01*
X94497895Y-103372956D01*
X94611163Y-103542474D01*
X94755326Y-103686637D01*
X94924844Y-103799905D01*
X95113202Y-103877926D01*
X95313161Y-103917700D01*
X95517039Y-103917700D01*
X95716998Y-103877926D01*
X95905356Y-103799905D01*
X96074874Y-103686637D01*
X96219037Y-103542474D01*
X96332305Y-103372956D01*
X96410326Y-103184598D01*
X96450100Y-102984639D01*
X96450100Y-102780761D01*
X96410326Y-102580802D01*
X96351201Y-102438061D01*
X100345000Y-102438061D01*
X100345000Y-102641939D01*
X100384774Y-102841898D01*
X100462795Y-103030256D01*
X100576063Y-103199774D01*
X100720226Y-103343937D01*
X100889744Y-103457205D01*
X101078102Y-103535226D01*
X101278061Y-103575000D01*
X101481939Y-103575000D01*
X101681898Y-103535226D01*
X101870256Y-103457205D01*
X102039774Y-103343937D01*
X102183937Y-103199774D01*
X102297205Y-103030256D01*
X102375226Y-102841898D01*
X102415000Y-102641939D01*
X102415000Y-102438061D01*
X102375226Y-102238102D01*
X102297205Y-102049744D01*
X102183937Y-101880226D01*
X102039774Y-101736063D01*
X101870256Y-101622795D01*
X101681898Y-101544774D01*
X101481939Y-101505000D01*
X101278061Y-101505000D01*
X101078102Y-101544774D01*
X100889744Y-101622795D01*
X100720226Y-101736063D01*
X100576063Y-101880226D01*
X100462795Y-102049744D01*
X100384774Y-102238102D01*
X100345000Y-102438061D01*
X96351201Y-102438061D01*
X96332305Y-102392444D01*
X96219037Y-102222926D01*
X96074874Y-102078763D01*
X95905356Y-101965495D01*
X95716998Y-101887474D01*
X95517039Y-101847700D01*
X95313161Y-101847700D01*
X95113202Y-101887474D01*
X94924844Y-101965495D01*
X94755326Y-102078763D01*
X94611163Y-102222926D01*
X94497895Y-102392444D01*
X94419874Y-102580802D01*
X94380100Y-102780761D01*
X91479661Y-102780761D01*
X91389475Y-102563034D01*
X91177713Y-102246109D01*
X90908191Y-101976587D01*
X90591266Y-101764825D01*
X90239119Y-101618961D01*
X89865281Y-101544600D01*
X89484119Y-101544600D01*
X89110281Y-101618961D01*
X88758134Y-101764825D01*
X88441209Y-101976587D01*
X88276900Y-102140896D01*
X88276900Y-101058061D01*
X103165000Y-101058061D01*
X103165000Y-101261939D01*
X103204774Y-101461898D01*
X103282795Y-101650256D01*
X103396063Y-101819774D01*
X103540226Y-101963937D01*
X103709744Y-102077205D01*
X103898102Y-102155226D01*
X104098061Y-102195000D01*
X104301939Y-102195000D01*
X104501898Y-102155226D01*
X104690256Y-102077205D01*
X104711484Y-102063021D01*
X104692500Y-102158461D01*
X104692500Y-102362339D01*
X104732274Y-102562298D01*
X104810295Y-102750656D01*
X104923563Y-102920174D01*
X105067726Y-103064337D01*
X105237244Y-103177605D01*
X105425602Y-103255626D01*
X105625561Y-103295400D01*
X105829439Y-103295400D01*
X106029398Y-103255626D01*
X106217756Y-103177605D01*
X106387274Y-103064337D01*
X106531437Y-102920174D01*
X106644705Y-102750656D01*
X106722726Y-102562298D01*
X106762500Y-102362339D01*
X106762500Y-102265514D01*
X106956498Y-102226926D01*
X106998289Y-102209615D01*
X106994774Y-102218102D01*
X106955000Y-102418061D01*
X106955000Y-102621939D01*
X106994774Y-102821898D01*
X107072795Y-103010256D01*
X107186063Y-103179774D01*
X107330226Y-103323937D01*
X107499744Y-103437205D01*
X107688102Y-103515226D01*
X107888061Y-103555000D01*
X108091939Y-103555000D01*
X108291898Y-103515226D01*
X108480256Y-103437205D01*
X108649774Y-103323937D01*
X108793937Y-103179774D01*
X108907205Y-103010256D01*
X108985226Y-102821898D01*
X109025000Y-102621939D01*
X109025000Y-102418061D01*
X108985226Y-102218102D01*
X108907205Y-102029744D01*
X108793937Y-101860226D01*
X108649774Y-101716063D01*
X108480256Y-101602795D01*
X108393153Y-101566716D01*
X108440256Y-101547205D01*
X108609774Y-101433937D01*
X108753937Y-101289774D01*
X108867205Y-101120256D01*
X108945226Y-100931898D01*
X108985000Y-100731939D01*
X108985000Y-100528061D01*
X108945226Y-100328102D01*
X108867205Y-100139744D01*
X108753937Y-99970226D01*
X108609774Y-99826063D01*
X108440256Y-99712795D01*
X108251898Y-99634774D01*
X108051939Y-99595000D01*
X107848061Y-99595000D01*
X107648102Y-99634774D01*
X107459744Y-99712795D01*
X107290226Y-99826063D01*
X107146063Y-99970226D01*
X107032795Y-100139744D01*
X106987422Y-100249283D01*
X106956498Y-100236474D01*
X106756539Y-100196700D01*
X106552661Y-100196700D01*
X106352702Y-100236474D01*
X106164344Y-100314495D01*
X105994826Y-100427763D01*
X105850663Y-100571926D01*
X105737395Y-100741444D01*
X105659374Y-100929802D01*
X105619600Y-101129761D01*
X105619600Y-101226586D01*
X105425602Y-101265174D01*
X105237244Y-101343195D01*
X105216016Y-101357379D01*
X105235000Y-101261939D01*
X105235000Y-101058061D01*
X105195226Y-100858102D01*
X105117205Y-100669744D01*
X105003937Y-100500226D01*
X104859774Y-100356063D01*
X104690256Y-100242795D01*
X104501898Y-100164774D01*
X104301939Y-100125000D01*
X104098061Y-100125000D01*
X103898102Y-100164774D01*
X103709744Y-100242795D01*
X103540226Y-100356063D01*
X103396063Y-100500226D01*
X103282795Y-100669744D01*
X103204774Y-100858102D01*
X103165000Y-101058061D01*
X88276900Y-101058061D01*
X88276900Y-99427961D01*
X89820800Y-99427961D01*
X89820800Y-99631839D01*
X89860574Y-99831798D01*
X89938595Y-100020156D01*
X90051863Y-100189674D01*
X90196026Y-100333837D01*
X90365544Y-100447105D01*
X90553902Y-100525126D01*
X90753861Y-100564900D01*
X90957739Y-100564900D01*
X91157698Y-100525126D01*
X91346056Y-100447105D01*
X91515574Y-100333837D01*
X91659737Y-100189674D01*
X91773005Y-100020156D01*
X91851026Y-99831798D01*
X91890800Y-99631839D01*
X91890800Y-99427961D01*
X91851026Y-99228002D01*
X91773005Y-99039644D01*
X91743951Y-98996161D01*
X91865500Y-98996161D01*
X91865500Y-99200039D01*
X91905274Y-99399998D01*
X91983295Y-99588356D01*
X92096563Y-99757874D01*
X92240726Y-99902037D01*
X92410244Y-100015305D01*
X92598602Y-100093326D01*
X92798561Y-100133100D01*
X93002439Y-100133100D01*
X93202398Y-100093326D01*
X93390756Y-100015305D01*
X93560274Y-99902037D01*
X93704437Y-99757874D01*
X93817705Y-99588356D01*
X93895726Y-99399998D01*
X93935500Y-99200039D01*
X93935500Y-98996161D01*
X93895726Y-98796202D01*
X93817705Y-98607844D01*
X93704437Y-98438326D01*
X93560274Y-98294163D01*
X93390756Y-98180895D01*
X93202398Y-98102874D01*
X93002439Y-98063100D01*
X92798561Y-98063100D01*
X92598602Y-98102874D01*
X92410244Y-98180895D01*
X92240726Y-98294163D01*
X92096563Y-98438326D01*
X91983295Y-98607844D01*
X91905274Y-98796202D01*
X91865500Y-98996161D01*
X91743951Y-98996161D01*
X91659737Y-98870126D01*
X91515574Y-98725963D01*
X91346056Y-98612695D01*
X91157698Y-98534674D01*
X90957739Y-98494900D01*
X90753861Y-98494900D01*
X90553902Y-98534674D01*
X90365544Y-98612695D01*
X90196026Y-98725963D01*
X90051863Y-98870126D01*
X89938595Y-99039644D01*
X89860574Y-99228002D01*
X89820800Y-99427961D01*
X88276900Y-99427961D01*
X88276900Y-97908061D01*
X95695000Y-97908061D01*
X95695000Y-98111939D01*
X95734774Y-98311898D01*
X95812795Y-98500256D01*
X95926063Y-98669774D01*
X96070226Y-98813937D01*
X96190763Y-98894477D01*
X96136195Y-98976144D01*
X96058174Y-99164502D01*
X96018400Y-99364461D01*
X96018400Y-99568339D01*
X96058174Y-99768298D01*
X96136195Y-99956656D01*
X96249463Y-100126174D01*
X96393626Y-100270337D01*
X96563144Y-100383605D01*
X96751502Y-100461626D01*
X96951461Y-100501400D01*
X97155339Y-100501400D01*
X97355298Y-100461626D01*
X97543656Y-100383605D01*
X97713174Y-100270337D01*
X97857337Y-100126174D01*
X97970605Y-99956656D01*
X98048626Y-99768298D01*
X98088400Y-99568339D01*
X98088400Y-99364461D01*
X98085874Y-99351761D01*
X99978298Y-99351761D01*
X99978298Y-99555639D01*
X100018072Y-99755598D01*
X100096093Y-99943956D01*
X100209361Y-100113474D01*
X100353524Y-100257637D01*
X100523042Y-100370905D01*
X100711400Y-100448926D01*
X100911359Y-100488700D01*
X101115237Y-100488700D01*
X101315196Y-100448926D01*
X101503554Y-100370905D01*
X101673072Y-100257637D01*
X101817235Y-100113474D01*
X101930503Y-99943956D01*
X102008524Y-99755598D01*
X102048298Y-99555639D01*
X102048298Y-99351761D01*
X102008524Y-99151802D01*
X101930503Y-98963444D01*
X101817235Y-98793926D01*
X101673072Y-98649763D01*
X101503554Y-98536495D01*
X101315196Y-98458474D01*
X101115237Y-98418700D01*
X100911359Y-98418700D01*
X100711400Y-98458474D01*
X100523042Y-98536495D01*
X100353524Y-98649763D01*
X100209361Y-98793926D01*
X100096093Y-98963444D01*
X100018072Y-99151802D01*
X99978298Y-99351761D01*
X98085874Y-99351761D01*
X98048626Y-99164502D01*
X97970605Y-98976144D01*
X97857337Y-98806626D01*
X97713174Y-98662463D01*
X97592637Y-98581923D01*
X97647205Y-98500256D01*
X97725226Y-98311898D01*
X97765000Y-98111939D01*
X97765000Y-97908061D01*
X97725226Y-97708102D01*
X97647205Y-97519744D01*
X97533937Y-97350226D01*
X97493711Y-97310000D01*
X97613937Y-97189774D01*
X97727205Y-97020256D01*
X97729398Y-97014961D01*
X106902300Y-97014961D01*
X106902300Y-97218839D01*
X106942074Y-97418798D01*
X107020095Y-97607156D01*
X107133363Y-97776674D01*
X107277526Y-97920837D01*
X107447044Y-98034105D01*
X107635402Y-98112126D01*
X107835361Y-98151900D01*
X108039239Y-98151900D01*
X108239198Y-98112126D01*
X108427556Y-98034105D01*
X108597074Y-97920837D01*
X108741237Y-97776674D01*
X108854505Y-97607156D01*
X108932526Y-97418798D01*
X108972300Y-97218839D01*
X108972300Y-97014961D01*
X108944921Y-96877316D01*
X109039774Y-96813937D01*
X109183937Y-96669774D01*
X109297205Y-96500256D01*
X109375226Y-96311898D01*
X109415000Y-96111939D01*
X109415000Y-95908061D01*
X109375226Y-95708102D01*
X109297205Y-95519744D01*
X109183937Y-95350226D01*
X109039774Y-95206063D01*
X108870256Y-95092795D01*
X108681898Y-95014774D01*
X108481939Y-94975000D01*
X108278061Y-94975000D01*
X108078102Y-95014774D01*
X107889744Y-95092795D01*
X107720226Y-95206063D01*
X107576063Y-95350226D01*
X107462795Y-95519744D01*
X107384774Y-95708102D01*
X107345000Y-95908061D01*
X107345000Y-96111939D01*
X107372379Y-96249584D01*
X107277526Y-96312963D01*
X107133363Y-96457126D01*
X107020095Y-96626644D01*
X106942074Y-96815002D01*
X106902300Y-97014961D01*
X97729398Y-97014961D01*
X97805226Y-96831898D01*
X97845000Y-96631939D01*
X97845000Y-96428061D01*
X97805226Y-96228102D01*
X97727205Y-96039744D01*
X97613937Y-95870226D01*
X97524706Y-95780995D01*
X97652214Y-95695797D01*
X97796377Y-95551634D01*
X97909645Y-95382116D01*
X97921679Y-95353062D01*
X99470999Y-95353062D01*
X99470999Y-95556940D01*
X99510773Y-95756899D01*
X99588794Y-95945257D01*
X99702062Y-96114775D01*
X99846225Y-96258938D01*
X100015743Y-96372206D01*
X100204101Y-96450227D01*
X100404060Y-96490001D01*
X100607938Y-96490001D01*
X100807897Y-96450227D01*
X100996255Y-96372206D01*
X101165773Y-96258938D01*
X101309936Y-96114775D01*
X101423204Y-95945257D01*
X101501225Y-95756899D01*
X101540999Y-95556940D01*
X101540999Y-95353062D01*
X101501225Y-95153103D01*
X101423204Y-94964745D01*
X101309936Y-94795227D01*
X101165773Y-94651064D01*
X100996255Y-94537796D01*
X100807897Y-94459775D01*
X100756548Y-94449561D01*
X101644500Y-94449561D01*
X101644500Y-94653439D01*
X101684274Y-94853398D01*
X101762295Y-95041756D01*
X101875563Y-95211274D01*
X102019726Y-95355437D01*
X102189244Y-95468705D01*
X102377602Y-95546726D01*
X102577561Y-95586500D01*
X102781439Y-95586500D01*
X102981398Y-95546726D01*
X103169756Y-95468705D01*
X103339274Y-95355437D01*
X103483437Y-95211274D01*
X103596705Y-95041756D01*
X103614804Y-94998061D01*
X103865000Y-94998061D01*
X103865000Y-95201939D01*
X103904774Y-95401898D01*
X103982795Y-95590256D01*
X104096063Y-95759774D01*
X104240226Y-95903937D01*
X104409744Y-96017205D01*
X104598102Y-96095226D01*
X104798061Y-96135000D01*
X105001939Y-96135000D01*
X105201898Y-96095226D01*
X105390256Y-96017205D01*
X105559774Y-95903937D01*
X105703937Y-95759774D01*
X105817205Y-95590256D01*
X105895226Y-95401898D01*
X105935000Y-95201939D01*
X105935000Y-94998061D01*
X105895226Y-94798102D01*
X105817205Y-94609744D01*
X105703937Y-94440226D01*
X105559774Y-94296063D01*
X105390256Y-94182795D01*
X105201898Y-94104774D01*
X105001939Y-94065000D01*
X104798061Y-94065000D01*
X104598102Y-94104774D01*
X104409744Y-94182795D01*
X104240226Y-94296063D01*
X104096063Y-94440226D01*
X103982795Y-94609744D01*
X103904774Y-94798102D01*
X103865000Y-94998061D01*
X103614804Y-94998061D01*
X103674726Y-94853398D01*
X103714500Y-94653439D01*
X103714500Y-94449561D01*
X103674726Y-94249602D01*
X103596705Y-94061244D01*
X103483437Y-93891726D01*
X103339274Y-93747563D01*
X103169756Y-93634295D01*
X102981398Y-93556274D01*
X102781439Y-93516500D01*
X102577561Y-93516500D01*
X102377602Y-93556274D01*
X102189244Y-93634295D01*
X102019726Y-93747563D01*
X101875563Y-93891726D01*
X101762295Y-94061244D01*
X101684274Y-94249602D01*
X101644500Y-94449561D01*
X100756548Y-94449561D01*
X100607938Y-94420001D01*
X100404060Y-94420001D01*
X100204101Y-94459775D01*
X100015743Y-94537796D01*
X99846225Y-94651064D01*
X99702062Y-94795227D01*
X99588794Y-94964745D01*
X99510773Y-95153103D01*
X99470999Y-95353062D01*
X97921679Y-95353062D01*
X97987666Y-95193758D01*
X98027440Y-94993799D01*
X98027440Y-94789921D01*
X97987666Y-94589962D01*
X97909645Y-94401604D01*
X97796377Y-94232086D01*
X97652214Y-94087923D01*
X97482696Y-93974655D01*
X97294338Y-93896634D01*
X97094379Y-93856860D01*
X96890501Y-93856860D01*
X96690542Y-93896634D01*
X96502184Y-93974655D01*
X96332666Y-94087923D01*
X96188503Y-94232086D01*
X96075235Y-94401604D01*
X95997214Y-94589962D01*
X95957440Y-94789921D01*
X95957440Y-94993799D01*
X95997214Y-95193758D01*
X96075235Y-95382116D01*
X96188503Y-95551634D01*
X96277734Y-95640865D01*
X96150226Y-95726063D01*
X96006063Y-95870226D01*
X95892795Y-96039744D01*
X95814774Y-96228102D01*
X95775000Y-96428061D01*
X95775000Y-96631939D01*
X95814774Y-96831898D01*
X95892795Y-97020256D01*
X96006063Y-97189774D01*
X96046289Y-97230000D01*
X95926063Y-97350226D01*
X95812795Y-97519744D01*
X95734774Y-97708102D01*
X95695000Y-97908061D01*
X88276900Y-97908061D01*
X88276900Y-95389361D01*
X91802000Y-95389361D01*
X91802000Y-95593239D01*
X91841774Y-95793198D01*
X91919795Y-95981556D01*
X92033063Y-96151074D01*
X92177226Y-96295237D01*
X92346744Y-96408505D01*
X92535102Y-96486526D01*
X92735061Y-96526300D01*
X92938939Y-96526300D01*
X93138898Y-96486526D01*
X93327256Y-96408505D01*
X93496774Y-96295237D01*
X93640937Y-96151074D01*
X93754205Y-95981556D01*
X93832226Y-95793198D01*
X93872000Y-95593239D01*
X93872000Y-95389361D01*
X93832226Y-95189402D01*
X93754205Y-95001044D01*
X93640937Y-94831526D01*
X93496774Y-94687363D01*
X93327256Y-94574095D01*
X93138898Y-94496074D01*
X92938939Y-94456300D01*
X92735061Y-94456300D01*
X92535102Y-94496074D01*
X92346744Y-94574095D01*
X92177226Y-94687363D01*
X92033063Y-94831526D01*
X91919795Y-95001044D01*
X91841774Y-95189402D01*
X91802000Y-95389361D01*
X88276900Y-95389361D01*
X88276900Y-92773061D01*
X91830000Y-92773061D01*
X91830000Y-92976939D01*
X91869774Y-93176898D01*
X91947795Y-93365256D01*
X92061063Y-93534774D01*
X92205226Y-93678937D01*
X92374744Y-93792205D01*
X92563102Y-93870226D01*
X92763061Y-93910000D01*
X92966939Y-93910000D01*
X93166898Y-93870226D01*
X93355256Y-93792205D01*
X93524774Y-93678937D01*
X93668937Y-93534774D01*
X93782205Y-93365256D01*
X93860226Y-93176898D01*
X93900000Y-92976939D01*
X93900000Y-92773061D01*
X93860226Y-92573102D01*
X93782205Y-92384744D01*
X93668937Y-92215226D01*
X93524774Y-92071063D01*
X93355256Y-91957795D01*
X93166898Y-91879774D01*
X92966939Y-91840000D01*
X92763061Y-91840000D01*
X92563102Y-91879774D01*
X92374744Y-91957795D01*
X92205226Y-92071063D01*
X92061063Y-92215226D01*
X91947795Y-92384744D01*
X91869774Y-92573102D01*
X91830000Y-92773061D01*
X88276900Y-92773061D01*
X88276900Y-91185661D01*
X93173600Y-91185661D01*
X93173600Y-91389539D01*
X93213374Y-91589498D01*
X93291395Y-91777856D01*
X93404663Y-91947374D01*
X93548826Y-92091537D01*
X93718344Y-92204805D01*
X93906702Y-92282826D01*
X94106661Y-92322600D01*
X94310539Y-92322600D01*
X94510498Y-92282826D01*
X94698856Y-92204805D01*
X94868374Y-92091537D01*
X95012537Y-91947374D01*
X95125805Y-91777856D01*
X95203826Y-91589498D01*
X95243600Y-91389539D01*
X95243600Y-91185661D01*
X95203826Y-90985702D01*
X95125805Y-90797344D01*
X95012537Y-90627826D01*
X94868374Y-90483663D01*
X94821271Y-90452190D01*
X94959206Y-90395055D01*
X95128724Y-90281787D01*
X95272887Y-90137624D01*
X95386155Y-89968106D01*
X95464176Y-89779748D01*
X95503950Y-89579789D01*
X95503950Y-89375911D01*
X95464176Y-89175952D01*
X95386155Y-88987594D01*
X95272887Y-88818076D01*
X95128724Y-88673913D01*
X94959206Y-88560645D01*
X94770848Y-88482624D01*
X94570889Y-88442850D01*
X94367011Y-88442850D01*
X94167052Y-88482624D01*
X93978694Y-88560645D01*
X93809176Y-88673913D01*
X93665013Y-88818076D01*
X93551745Y-88987594D01*
X93473724Y-89175952D01*
X93433950Y-89375911D01*
X93433950Y-89579789D01*
X93473724Y-89779748D01*
X93551745Y-89968106D01*
X93665013Y-90137624D01*
X93809176Y-90281787D01*
X93856279Y-90313260D01*
X93718344Y-90370395D01*
X93548826Y-90483663D01*
X93404663Y-90627826D01*
X93291395Y-90797344D01*
X93213374Y-90985702D01*
X93173600Y-91185661D01*
X88276900Y-91185661D01*
X88276900Y-86956561D01*
X99790300Y-86956561D01*
X99790300Y-87160439D01*
X99830074Y-87360398D01*
X99908095Y-87548756D01*
X100021363Y-87718274D01*
X100165526Y-87862437D01*
X100335044Y-87975705D01*
X100523402Y-88053726D01*
X100723361Y-88093500D01*
X100927239Y-88093500D01*
X101127198Y-88053726D01*
X101315556Y-87975705D01*
X101485074Y-87862437D01*
X101629237Y-87718274D01*
X101742505Y-87548756D01*
X101820526Y-87360398D01*
X101860300Y-87160439D01*
X101860300Y-86956561D01*
X101820526Y-86756602D01*
X101742505Y-86568244D01*
X101629237Y-86398726D01*
X101485074Y-86254563D01*
X101315556Y-86141295D01*
X101127198Y-86063274D01*
X100927239Y-86023500D01*
X100723361Y-86023500D01*
X100523402Y-86063274D01*
X100335044Y-86141295D01*
X100165526Y-86254563D01*
X100021363Y-86398726D01*
X99908095Y-86568244D01*
X99830074Y-86756602D01*
X99790300Y-86956561D01*
X88276900Y-86956561D01*
X88276900Y-81598400D01*
X92669728Y-81598400D01*
X92669728Y-83298400D01*
X92681988Y-83422882D01*
X92718298Y-83542580D01*
X92777263Y-83652894D01*
X92856615Y-83749585D01*
X92953306Y-83828937D01*
X93063620Y-83887902D01*
X93183318Y-83924212D01*
X93307800Y-83936472D01*
X95007800Y-83936472D01*
X95132282Y-83924212D01*
X95251980Y-83887902D01*
X95362294Y-83828937D01*
X95458985Y-83749585D01*
X95538337Y-83652894D01*
X95597302Y-83542580D01*
X95633612Y-83422882D01*
X95645872Y-83298400D01*
X95645872Y-81598400D01*
X96352728Y-81598400D01*
X96352728Y-83298400D01*
X96364988Y-83422882D01*
X96401298Y-83542580D01*
X96460263Y-83652894D01*
X96539615Y-83749585D01*
X96636306Y-83828937D01*
X96746620Y-83887902D01*
X96866318Y-83924212D01*
X96990800Y-83936472D01*
X98690800Y-83936472D01*
X98815282Y-83924212D01*
X98934980Y-83887902D01*
X99045294Y-83828937D01*
X99141985Y-83749585D01*
X99221337Y-83652894D01*
X99280302Y-83542580D01*
X99316612Y-83422882D01*
X99328872Y-83298400D01*
X99328872Y-81598400D01*
X99316612Y-81473918D01*
X99280302Y-81354220D01*
X99221337Y-81243906D01*
X99141985Y-81147215D01*
X99045294Y-81067863D01*
X98934980Y-81008898D01*
X98862420Y-80986887D01*
X98994275Y-80855032D01*
X99156790Y-80611811D01*
X99268732Y-80341558D01*
X99325800Y-80054660D01*
X99325800Y-79762140D01*
X99268732Y-79475242D01*
X99156790Y-79204989D01*
X98994275Y-78961768D01*
X98787432Y-78754925D01*
X98544211Y-78592410D01*
X98273958Y-78480468D01*
X97987060Y-78423400D01*
X97694540Y-78423400D01*
X97407642Y-78480468D01*
X97137389Y-78592410D01*
X96894168Y-78754925D01*
X96687325Y-78961768D01*
X96524810Y-79204989D01*
X96412868Y-79475242D01*
X96355800Y-79762140D01*
X96355800Y-80054660D01*
X96412868Y-80341558D01*
X96524810Y-80611811D01*
X96687325Y-80855032D01*
X96819180Y-80986887D01*
X96746620Y-81008898D01*
X96636306Y-81067863D01*
X96539615Y-81147215D01*
X96460263Y-81243906D01*
X96401298Y-81354220D01*
X96364988Y-81473918D01*
X96352728Y-81598400D01*
X95645872Y-81598400D01*
X95633612Y-81473918D01*
X95597302Y-81354220D01*
X95538337Y-81243906D01*
X95458985Y-81147215D01*
X95362294Y-81067863D01*
X95251980Y-81008898D01*
X95179420Y-80986887D01*
X95311275Y-80855032D01*
X95473790Y-80611811D01*
X95585732Y-80341558D01*
X95642800Y-80054660D01*
X95642800Y-79762140D01*
X95585732Y-79475242D01*
X95473790Y-79204989D01*
X95311275Y-78961768D01*
X95104432Y-78754925D01*
X94861211Y-78592410D01*
X94590958Y-78480468D01*
X94304060Y-78423400D01*
X94011540Y-78423400D01*
X93724642Y-78480468D01*
X93454389Y-78592410D01*
X93211168Y-78754925D01*
X93004325Y-78961768D01*
X92841810Y-79204989D01*
X92729868Y-79475242D01*
X92672800Y-79762140D01*
X92672800Y-80054660D01*
X92729868Y-80341558D01*
X92841810Y-80611811D01*
X93004325Y-80855032D01*
X93136180Y-80986887D01*
X93063620Y-81008898D01*
X92953306Y-81067863D01*
X92856615Y-81147215D01*
X92777263Y-81243906D01*
X92718298Y-81354220D01*
X92681988Y-81473918D01*
X92669728Y-81598400D01*
X88276900Y-81598400D01*
X88276900Y-79734667D01*
X88382600Y-79734667D01*
X88382600Y-80056733D01*
X88445432Y-80372612D01*
X88568682Y-80670163D01*
X88747613Y-80937952D01*
X88975348Y-81165687D01*
X89243137Y-81344618D01*
X89540688Y-81467868D01*
X89856567Y-81530700D01*
X90178633Y-81530700D01*
X90494512Y-81467868D01*
X90792063Y-81344618D01*
X91059852Y-81165687D01*
X91287587Y-80937952D01*
X91466518Y-80670163D01*
X91589768Y-80372612D01*
X91652600Y-80056733D01*
X91652600Y-79734667D01*
X91589768Y-79418788D01*
X91466518Y-79121237D01*
X91287587Y-78853448D01*
X91059852Y-78625713D01*
X90792063Y-78446782D01*
X90494512Y-78323532D01*
X90178633Y-78260700D01*
X89856567Y-78260700D01*
X89540688Y-78323532D01*
X89243137Y-78446782D01*
X88975348Y-78625713D01*
X88747613Y-78853448D01*
X88568682Y-79121237D01*
X88445432Y-79418788D01*
X88382600Y-79734667D01*
X88276900Y-79734667D01*
X88276900Y-78154772D01*
X103090506Y-78149839D01*
X103057695Y-78198944D01*
X102979674Y-78387302D01*
X102939900Y-78587261D01*
X102939900Y-78791139D01*
X102979674Y-78991098D01*
X103057695Y-79179456D01*
X103170963Y-79348974D01*
X103315126Y-79493137D01*
X103484644Y-79606405D01*
X103673002Y-79684426D01*
X103812708Y-79712215D01*
X103812708Y-80999700D01*
X103824968Y-81124182D01*
X103861278Y-81243880D01*
X103920243Y-81354194D01*
X103999595Y-81450885D01*
X104096286Y-81530237D01*
X104206600Y-81589202D01*
X104279160Y-81611213D01*
X104147305Y-81743068D01*
X103984790Y-81986289D01*
X103872848Y-82256542D01*
X103815780Y-82543440D01*
X103815780Y-82835960D01*
X103872848Y-83122858D01*
X103984790Y-83393111D01*
X104147305Y-83636332D01*
X104354148Y-83843175D01*
X104597369Y-84005690D01*
X104867622Y-84117632D01*
X105154520Y-84174700D01*
X105447040Y-84174700D01*
X105733938Y-84117632D01*
X106004191Y-84005690D01*
X106247412Y-83843175D01*
X106454255Y-83636332D01*
X106616770Y-83393111D01*
X106728712Y-83122858D01*
X106785780Y-82835960D01*
X106785780Y-82543440D01*
X106728712Y-82256542D01*
X106616770Y-81986289D01*
X106454255Y-81743068D01*
X106322400Y-81611213D01*
X106394960Y-81589202D01*
X106505274Y-81530237D01*
X106601965Y-81450885D01*
X106681317Y-81354194D01*
X106740282Y-81243880D01*
X106776592Y-81124182D01*
X106788852Y-80999700D01*
X106788852Y-79299700D01*
X106776592Y-79175218D01*
X106740282Y-79055520D01*
X106681317Y-78945206D01*
X106601965Y-78848515D01*
X106505274Y-78769163D01*
X106394960Y-78710198D01*
X106275262Y-78673888D01*
X106150780Y-78661628D01*
X105009900Y-78661628D01*
X105009900Y-78587261D01*
X104970126Y-78387302D01*
X104892105Y-78198944D01*
X104858900Y-78149250D01*
X112903000Y-78146571D01*
X112903000Y-79549883D01*
G37*
X112903000Y-79549883D02*
X112860090Y-79446289D01*
X112697575Y-79203068D01*
X112490732Y-78996225D01*
X112247511Y-78833710D01*
X111977258Y-78721768D01*
X111690360Y-78664700D01*
X111397840Y-78664700D01*
X111110942Y-78721768D01*
X110840689Y-78833710D01*
X110597468Y-78996225D01*
X110465613Y-79128080D01*
X110443602Y-79055520D01*
X110384637Y-78945206D01*
X110305285Y-78848515D01*
X110208594Y-78769163D01*
X110098280Y-78710198D01*
X109978582Y-78673888D01*
X109854100Y-78661628D01*
X108154100Y-78661628D01*
X108029618Y-78673888D01*
X107909920Y-78710198D01*
X107799606Y-78769163D01*
X107702915Y-78848515D01*
X107623563Y-78945206D01*
X107564598Y-79055520D01*
X107528288Y-79175218D01*
X107516028Y-79299700D01*
X107516028Y-80999700D01*
X107528288Y-81124182D01*
X107564598Y-81243880D01*
X107623563Y-81354194D01*
X107702915Y-81450885D01*
X107799606Y-81530237D01*
X107909920Y-81589202D01*
X107982480Y-81611213D01*
X107850625Y-81743068D01*
X107688110Y-81986289D01*
X107576168Y-82256542D01*
X107519100Y-82543440D01*
X107519100Y-82835960D01*
X107576168Y-83122858D01*
X107688110Y-83393111D01*
X107850625Y-83636332D01*
X108057468Y-83843175D01*
X108231860Y-83959700D01*
X108057468Y-84076225D01*
X107850625Y-84283068D01*
X107688110Y-84526289D01*
X107576168Y-84796542D01*
X107519100Y-85083440D01*
X107519100Y-85375960D01*
X107576168Y-85662858D01*
X107688110Y-85933111D01*
X107850625Y-86176332D01*
X108057468Y-86383175D01*
X108231860Y-86499700D01*
X108057468Y-86616225D01*
X107850625Y-86823068D01*
X107688110Y-87066289D01*
X107576168Y-87336542D01*
X107519100Y-87623440D01*
X107519100Y-87915960D01*
X107576168Y-88202858D01*
X107688110Y-88473111D01*
X107850625Y-88716332D01*
X108057468Y-88923175D01*
X108300689Y-89085690D01*
X108570942Y-89197632D01*
X108857840Y-89254700D01*
X109150360Y-89254700D01*
X109437258Y-89197632D01*
X109707511Y-89085690D01*
X109950732Y-88923175D01*
X110157575Y-88716332D01*
X110275200Y-88540294D01*
X110446512Y-88769969D01*
X110662745Y-88964878D01*
X110912848Y-89113857D01*
X111187209Y-89211181D01*
X111417100Y-89090514D01*
X111417100Y-87896700D01*
X111397100Y-87896700D01*
X111397100Y-87642700D01*
X111417100Y-87642700D01*
X111417100Y-87622700D01*
X111671100Y-87622700D01*
X111671100Y-87642700D01*
X111691100Y-87642700D01*
X111691100Y-87896700D01*
X111671100Y-87896700D01*
X111671100Y-89090514D01*
X111900991Y-89211181D01*
X111944200Y-89195853D01*
X111944200Y-89227999D01*
X111983974Y-89427958D01*
X112061995Y-89616316D01*
X112175263Y-89785834D01*
X112319426Y-89929997D01*
X112488944Y-90043265D01*
X112677302Y-90121286D01*
X112877261Y-90161060D01*
X112903000Y-90161060D01*
X112903000Y-92846224D01*
X112770956Y-92757995D01*
X112582598Y-92679974D01*
X112382639Y-92640200D01*
X112178761Y-92640200D01*
X111978802Y-92679974D01*
X111790444Y-92757995D01*
X111620926Y-92871263D01*
X111592950Y-92899239D01*
X111549774Y-92856063D01*
X111380256Y-92742795D01*
X111191898Y-92664774D01*
X110991939Y-92625000D01*
X110788061Y-92625000D01*
X110588102Y-92664774D01*
X110399744Y-92742795D01*
X110230226Y-92856063D01*
X110086063Y-93000226D01*
X110050004Y-93054193D01*
X109930574Y-92934763D01*
X109761056Y-92821495D01*
X109572698Y-92743474D01*
X109372739Y-92703700D01*
X109168861Y-92703700D01*
X108968902Y-92743474D01*
X108780544Y-92821495D01*
X108611026Y-92934763D01*
X108466863Y-93078926D01*
X108353595Y-93248444D01*
X108275574Y-93436802D01*
X108235800Y-93636761D01*
X108235800Y-93840639D01*
X108275574Y-94040598D01*
X108353595Y-94228956D01*
X108466863Y-94398474D01*
X108611026Y-94542637D01*
X108780544Y-94655905D01*
X108968902Y-94733926D01*
X109168861Y-94773700D01*
X109372739Y-94773700D01*
X109572698Y-94733926D01*
X109761056Y-94655905D01*
X109930574Y-94542637D01*
X110074737Y-94398474D01*
X110110796Y-94344507D01*
X110230226Y-94463937D01*
X110399744Y-94577205D01*
X110588102Y-94655226D01*
X110788061Y-94695000D01*
X110991939Y-94695000D01*
X111191898Y-94655226D01*
X111380256Y-94577205D01*
X111549774Y-94463937D01*
X111577750Y-94435961D01*
X111620926Y-94479137D01*
X111790444Y-94592405D01*
X111978802Y-94670426D01*
X112178761Y-94710200D01*
X112382639Y-94710200D01*
X112582598Y-94670426D01*
X112770956Y-94592405D01*
X112903000Y-94504176D01*
X112903000Y-99503118D01*
X112887105Y-99464744D01*
X112773837Y-99295226D01*
X112629674Y-99151063D01*
X112460156Y-99037795D01*
X112271798Y-98959774D01*
X112071839Y-98920000D01*
X111867961Y-98920000D01*
X111668002Y-98959774D01*
X111479644Y-99037795D01*
X111310126Y-99151063D01*
X111165963Y-99295226D01*
X111052695Y-99464744D01*
X110974674Y-99653102D01*
X110934900Y-99853061D01*
X110934900Y-100056939D01*
X110974674Y-100256898D01*
X111052695Y-100445256D01*
X111165963Y-100614774D01*
X111310126Y-100758937D01*
X111427335Y-100837254D01*
X111349763Y-100914826D01*
X111236495Y-101084344D01*
X111158474Y-101272702D01*
X111118700Y-101472661D01*
X111118700Y-101676539D01*
X111158474Y-101876498D01*
X111236495Y-102064856D01*
X111349763Y-102234374D01*
X111493926Y-102378537D01*
X111663444Y-102491805D01*
X111851802Y-102569826D01*
X112051761Y-102609600D01*
X112255639Y-102609600D01*
X112455598Y-102569826D01*
X112643956Y-102491805D01*
X112813474Y-102378537D01*
X112903000Y-102289011D01*
X112903000Y-111940539D01*
X112793744Y-111985795D01*
X112624226Y-112099063D01*
X112604154Y-112119135D01*
X112525837Y-112001926D01*
X112381674Y-111857763D01*
X112212156Y-111744495D01*
X112023798Y-111666474D01*
X111823839Y-111626700D01*
X111619961Y-111626700D01*
X111420002Y-111666474D01*
X111231644Y-111744495D01*
X111062126Y-111857763D01*
X110917963Y-112001926D01*
X110804695Y-112171444D01*
X110726674Y-112359802D01*
X110686900Y-112559761D01*
X110686900Y-112763639D01*
X110726674Y-112963598D01*
X110804695Y-113151956D01*
X110917963Y-113321474D01*
X111062126Y-113465637D01*
X111231644Y-113578905D01*
X111420002Y-113656926D01*
X111619961Y-113696700D01*
X111823839Y-113696700D01*
X112023798Y-113656926D01*
X112212156Y-113578905D01*
X112381674Y-113465637D01*
X112401746Y-113445565D01*
X112480063Y-113562774D01*
X112624226Y-113706937D01*
X112793744Y-113820205D01*
X112903000Y-113865461D01*
X112903000Y-114885000D01*
X101678711Y-114885000D01*
X101683937Y-114879774D01*
X101797205Y-114710256D01*
X101875226Y-114521898D01*
X101915000Y-114321939D01*
X101915000Y-114118061D01*
X101875226Y-113918102D01*
X101797205Y-113729744D01*
X101683937Y-113560226D01*
X101539774Y-113416063D01*
X101370256Y-113302795D01*
X101181898Y-113224774D01*
X100981939Y-113185000D01*
X100778061Y-113185000D01*
X100578102Y-113224774D01*
X100389744Y-113302795D01*
X100220226Y-113416063D01*
X100076063Y-113560226D01*
X99962795Y-113729744D01*
X99884774Y-113918102D01*
X99845000Y-114118061D01*
X99845000Y-114321939D01*
X99884774Y-114521898D01*
X99962795Y-114710256D01*
X100076063Y-114879774D01*
X100081289Y-114885000D01*
X88276900Y-114885000D01*
X88276900Y-112970567D01*
X88458800Y-112970567D01*
X88458800Y-113292633D01*
X88521632Y-113608512D01*
X88644882Y-113906063D01*
X88823813Y-114173852D01*
X89051548Y-114401587D01*
X89319337Y-114580518D01*
X89616888Y-114703768D01*
X89932767Y-114766600D01*
X90254833Y-114766600D01*
X90570712Y-114703768D01*
X90868263Y-114580518D01*
X91136052Y-114401587D01*
X91363787Y-114173852D01*
X91542718Y-113906063D01*
X91665968Y-113608512D01*
X91728800Y-113292633D01*
X91728800Y-112970567D01*
X91702662Y-112839161D01*
X92081400Y-112839161D01*
X92081400Y-113043039D01*
X92121174Y-113242998D01*
X92199195Y-113431356D01*
X92312463Y-113600874D01*
X92456626Y-113745037D01*
X92626144Y-113858305D01*
X92814502Y-113936326D01*
X93014461Y-113976100D01*
X93218339Y-113976100D01*
X93418298Y-113936326D01*
X93606656Y-113858305D01*
X93776174Y-113745037D01*
X93920337Y-113600874D01*
X94033605Y-113431356D01*
X94111626Y-113242998D01*
X94151400Y-113043039D01*
X94151400Y-112839161D01*
X94111626Y-112639202D01*
X94033605Y-112450844D01*
X93920337Y-112281326D01*
X93776174Y-112137163D01*
X93657255Y-112057704D01*
X95821208Y-112057704D01*
X95821208Y-113757704D01*
X95833468Y-113882186D01*
X95869778Y-114001884D01*
X95928743Y-114112198D01*
X96008095Y-114208889D01*
X96104786Y-114288241D01*
X96215100Y-114347206D01*
X96334798Y-114383516D01*
X96459280Y-114395776D01*
X98159280Y-114395776D01*
X98283762Y-114383516D01*
X98403460Y-114347206D01*
X98513774Y-114288241D01*
X98610465Y-114208889D01*
X98689817Y-114112198D01*
X98748782Y-114001884D01*
X98785092Y-113882186D01*
X98797352Y-113757704D01*
X98797352Y-112057704D01*
X98785092Y-111933222D01*
X98748782Y-111813524D01*
X98689817Y-111703210D01*
X98610465Y-111606519D01*
X98513774Y-111527167D01*
X98403460Y-111468202D01*
X98330900Y-111446191D01*
X98462755Y-111314336D01*
X98625270Y-111071115D01*
X98737212Y-110800862D01*
X98762181Y-110675334D01*
X98869744Y-110747205D01*
X99058102Y-110825226D01*
X99258061Y-110865000D01*
X99461939Y-110865000D01*
X99661898Y-110825226D01*
X99850256Y-110747205D01*
X100019774Y-110633937D01*
X100163937Y-110489774D01*
X100277205Y-110320256D01*
X100336071Y-110178143D01*
X100344774Y-110221898D01*
X100422795Y-110410256D01*
X100536063Y-110579774D01*
X100680226Y-110723937D01*
X100849744Y-110837205D01*
X101038102Y-110915226D01*
X101238061Y-110955000D01*
X101441939Y-110955000D01*
X101622645Y-110919056D01*
X101647995Y-110980256D01*
X101761263Y-111149774D01*
X101841056Y-111229567D01*
X101777957Y-111381902D01*
X101738183Y-111581861D01*
X101738183Y-111785739D01*
X101777957Y-111985698D01*
X101855978Y-112174056D01*
X101969246Y-112343574D01*
X102113409Y-112487737D01*
X102282927Y-112601005D01*
X102471285Y-112679026D01*
X102671244Y-112718800D01*
X102766309Y-112718800D01*
X102803695Y-112809056D01*
X102916963Y-112978574D01*
X103061126Y-113122737D01*
X103230644Y-113236005D01*
X103419002Y-113314026D01*
X103618961Y-113353800D01*
X103822839Y-113353800D01*
X104022798Y-113314026D01*
X104211156Y-113236005D01*
X104380674Y-113122737D01*
X104524837Y-112978574D01*
X104638105Y-112809056D01*
X104716126Y-112620698D01*
X104755900Y-112420739D01*
X104755900Y-112216861D01*
X104716126Y-112016902D01*
X104638105Y-111828544D01*
X104524837Y-111659026D01*
X104380674Y-111514863D01*
X104211156Y-111401595D01*
X104022798Y-111323574D01*
X103822839Y-111283800D01*
X103727774Y-111283800D01*
X103690388Y-111193544D01*
X103577120Y-111024026D01*
X103497327Y-110944233D01*
X103560426Y-110791898D01*
X103600200Y-110591939D01*
X103600200Y-110388061D01*
X103577465Y-110273761D01*
X104984600Y-110273761D01*
X104984600Y-110477639D01*
X105024374Y-110677598D01*
X105102395Y-110865956D01*
X105215663Y-111035474D01*
X105359826Y-111179637D01*
X105529344Y-111292905D01*
X105717702Y-111370926D01*
X105917661Y-111410700D01*
X106121539Y-111410700D01*
X106321498Y-111370926D01*
X106509856Y-111292905D01*
X106679374Y-111179637D01*
X106823537Y-111035474D01*
X106936805Y-110865956D01*
X107014826Y-110677598D01*
X107054600Y-110477639D01*
X107054600Y-110273761D01*
X107014826Y-110073802D01*
X106936805Y-109885444D01*
X106823537Y-109715926D01*
X106679374Y-109571763D01*
X106509856Y-109458495D01*
X106321498Y-109380474D01*
X106121539Y-109340700D01*
X105917661Y-109340700D01*
X105717702Y-109380474D01*
X105529344Y-109458495D01*
X105359826Y-109571763D01*
X105215663Y-109715926D01*
X105102395Y-109885444D01*
X105024374Y-110073802D01*
X104984600Y-110273761D01*
X103577465Y-110273761D01*
X103560426Y-110188102D01*
X103482405Y-109999744D01*
X103369137Y-109830226D01*
X103224974Y-109686063D01*
X103055456Y-109572795D01*
X102867098Y-109494774D01*
X102667139Y-109455000D01*
X102463261Y-109455000D01*
X102282555Y-109490944D01*
X102257205Y-109429744D01*
X102143937Y-109260226D01*
X101999774Y-109116063D01*
X101830256Y-109002795D01*
X101641898Y-108924774D01*
X101441939Y-108885000D01*
X101238061Y-108885000D01*
X101038102Y-108924774D01*
X100849744Y-109002795D01*
X100680226Y-109116063D01*
X100536063Y-109260226D01*
X100422795Y-109429744D01*
X100363929Y-109571857D01*
X100355226Y-109528102D01*
X100277205Y-109339744D01*
X100163937Y-109170226D01*
X100019774Y-109026063D01*
X99850256Y-108912795D01*
X99661898Y-108834774D01*
X99461939Y-108795000D01*
X99258061Y-108795000D01*
X99058102Y-108834774D01*
X98869744Y-108912795D01*
X98700226Y-109026063D01*
X98556063Y-109170226D01*
X98442795Y-109339744D01*
X98424821Y-109383138D01*
X98255912Y-109214229D01*
X98081520Y-109097704D01*
X98255912Y-108981179D01*
X98462755Y-108774336D01*
X98625270Y-108531115D01*
X98737212Y-108260862D01*
X98794280Y-107973964D01*
X98794280Y-107681444D01*
X98737212Y-107394546D01*
X98625270Y-107124293D01*
X98462755Y-106881072D01*
X98255912Y-106674229D01*
X98081520Y-106557704D01*
X98255912Y-106441179D01*
X98462755Y-106234336D01*
X98620628Y-105998061D01*
X104595000Y-105998061D01*
X104595000Y-106201939D01*
X104634774Y-106401898D01*
X104712795Y-106590256D01*
X104826063Y-106759774D01*
X104970226Y-106903937D01*
X105139744Y-107017205D01*
X105328102Y-107095226D01*
X105528061Y-107135000D01*
X105731939Y-107135000D01*
X105931898Y-107095226D01*
X106120256Y-107017205D01*
X106289774Y-106903937D01*
X106375650Y-106818061D01*
X106595000Y-106818061D01*
X106595000Y-107021939D01*
X106634774Y-107221898D01*
X106712795Y-107410256D01*
X106826063Y-107579774D01*
X106970226Y-107723937D01*
X107139744Y-107837205D01*
X107328102Y-107915226D01*
X107528061Y-107955000D01*
X107731939Y-107955000D01*
X107931898Y-107915226D01*
X108120256Y-107837205D01*
X108289774Y-107723937D01*
X108433937Y-107579774D01*
X108547205Y-107410256D01*
X108625226Y-107221898D01*
X108665000Y-107021939D01*
X108665000Y-106818061D01*
X108625226Y-106618102D01*
X108547205Y-106429744D01*
X108433937Y-106260226D01*
X108289774Y-106116063D01*
X108120256Y-106002795D01*
X107931898Y-105924774D01*
X107731939Y-105885000D01*
X107528061Y-105885000D01*
X107328102Y-105924774D01*
X107139744Y-106002795D01*
X106970226Y-106116063D01*
X106826063Y-106260226D01*
X106712795Y-106429744D01*
X106634774Y-106618102D01*
X106595000Y-106818061D01*
X106375650Y-106818061D01*
X106433937Y-106759774D01*
X106547205Y-106590256D01*
X106625226Y-106401898D01*
X106665000Y-106201939D01*
X106665000Y-105998061D01*
X106625226Y-105798102D01*
X106547205Y-105609744D01*
X106433937Y-105440226D01*
X106289774Y-105296063D01*
X106120256Y-105182795D01*
X105931898Y-105104774D01*
X105731939Y-105065000D01*
X105528061Y-105065000D01*
X105328102Y-105104774D01*
X105139744Y-105182795D01*
X104970226Y-105296063D01*
X104826063Y-105440226D01*
X104712795Y-105609744D01*
X104634774Y-105798102D01*
X104595000Y-105998061D01*
X98620628Y-105998061D01*
X98625270Y-105991115D01*
X98737212Y-105720862D01*
X98794280Y-105433964D01*
X98794280Y-105141444D01*
X98737212Y-104854546D01*
X98672395Y-104698061D01*
X109645000Y-104698061D01*
X109645000Y-104901939D01*
X109684774Y-105101898D01*
X109762795Y-105290256D01*
X109876063Y-105459774D01*
X110020226Y-105603937D01*
X110189744Y-105717205D01*
X110378102Y-105795226D01*
X110578061Y-105835000D01*
X110781939Y-105835000D01*
X110981898Y-105795226D01*
X111170256Y-105717205D01*
X111339774Y-105603937D01*
X111483937Y-105459774D01*
X111597205Y-105290256D01*
X111675226Y-105101898D01*
X111715000Y-104901939D01*
X111715000Y-104698061D01*
X111675226Y-104498102D01*
X111597205Y-104309744D01*
X111483937Y-104140226D01*
X111339774Y-103996063D01*
X111170256Y-103882795D01*
X110981898Y-103804774D01*
X110781939Y-103765000D01*
X110578061Y-103765000D01*
X110378102Y-103804774D01*
X110189744Y-103882795D01*
X110020226Y-103996063D01*
X109876063Y-104140226D01*
X109762795Y-104309744D01*
X109684774Y-104498102D01*
X109645000Y-104698061D01*
X98672395Y-104698061D01*
X98625270Y-104584293D01*
X98462755Y-104341072D01*
X98255912Y-104134229D01*
X98012691Y-103971714D01*
X97742438Y-103859772D01*
X97455540Y-103802704D01*
X97163020Y-103802704D01*
X96876122Y-103859772D01*
X96605869Y-103971714D01*
X96362648Y-104134229D01*
X96155805Y-104341072D01*
X95993290Y-104584293D01*
X95881348Y-104854546D01*
X95824280Y-105141444D01*
X95824280Y-105433964D01*
X95881348Y-105720862D01*
X95993290Y-105991115D01*
X96155805Y-106234336D01*
X96362648Y-106441179D01*
X96537040Y-106557704D01*
X96362648Y-106674229D01*
X96155805Y-106881072D01*
X95993290Y-107124293D01*
X95881348Y-107394546D01*
X95824280Y-107681444D01*
X95824280Y-107973964D01*
X95881348Y-108260862D01*
X95993290Y-108531115D01*
X96155805Y-108774336D01*
X96362648Y-108981179D01*
X96537040Y-109097704D01*
X96362648Y-109214229D01*
X96155805Y-109421072D01*
X95993290Y-109664293D01*
X95881348Y-109934546D01*
X95824280Y-110221444D01*
X95824280Y-110513964D01*
X95881348Y-110800862D01*
X95993290Y-111071115D01*
X96155805Y-111314336D01*
X96287660Y-111446191D01*
X96215100Y-111468202D01*
X96104786Y-111527167D01*
X96008095Y-111606519D01*
X95928743Y-111703210D01*
X95869778Y-111813524D01*
X95833468Y-111933222D01*
X95821208Y-112057704D01*
X93657255Y-112057704D01*
X93606656Y-112023895D01*
X93418298Y-111945874D01*
X93218339Y-111906100D01*
X93014461Y-111906100D01*
X92814502Y-111945874D01*
X92626144Y-112023895D01*
X92456626Y-112137163D01*
X92312463Y-112281326D01*
X92199195Y-112450844D01*
X92121174Y-112639202D01*
X92081400Y-112839161D01*
X91702662Y-112839161D01*
X91665968Y-112654688D01*
X91542718Y-112357137D01*
X91363787Y-112089348D01*
X91136052Y-111861613D01*
X90868263Y-111682682D01*
X90570712Y-111559432D01*
X90254833Y-111496600D01*
X89932767Y-111496600D01*
X89616888Y-111559432D01*
X89319337Y-111682682D01*
X89051548Y-111861613D01*
X88823813Y-112089348D01*
X88644882Y-112357137D01*
X88521632Y-112654688D01*
X88458800Y-112970567D01*
X88276900Y-112970567D01*
X88276900Y-109692924D01*
X88695581Y-109692924D01*
X88827517Y-109988012D01*
X89168245Y-110158859D01*
X89535757Y-110259950D01*
X89915929Y-110287401D01*
X90294151Y-110240157D01*
X90655890Y-110120033D01*
X90902883Y-109988012D01*
X91034819Y-109692924D01*
X89865200Y-108523305D01*
X88695581Y-109692924D01*
X88276900Y-109692924D01*
X88276900Y-109406426D01*
X88515976Y-109513319D01*
X89685595Y-108343700D01*
X90044805Y-108343700D01*
X91214424Y-109513319D01*
X91509512Y-109381383D01*
X91680359Y-109040655D01*
X91781450Y-108673143D01*
X91808901Y-108292971D01*
X91761657Y-107914749D01*
X91641533Y-107553010D01*
X91509512Y-107306017D01*
X91214424Y-107174081D01*
X90044805Y-108343700D01*
X89685595Y-108343700D01*
X88515976Y-107174081D01*
X88276900Y-107280974D01*
X88276900Y-106994476D01*
X88695581Y-106994476D01*
X89865200Y-108164095D01*
X91034819Y-106994476D01*
X90902883Y-106699388D01*
X90562155Y-106528541D01*
X90194643Y-106427450D01*
X89814471Y-106399999D01*
X89436249Y-106447243D01*
X89074510Y-106567367D01*
X88827517Y-106699388D01*
X88695581Y-106994476D01*
X88276900Y-106994476D01*
X88276900Y-104818304D01*
X88441209Y-104982613D01*
X88758134Y-105194375D01*
X89110281Y-105340239D01*
X89484119Y-105414600D01*
X89865281Y-105414600D01*
X90239119Y-105340239D01*
X90591266Y-105194375D01*
X90908191Y-104982613D01*
X91177713Y-104713091D01*
X91389475Y-104396166D01*
X91535339Y-104044019D01*
X91609700Y-103670181D01*
X91609700Y-103289019D01*
X91535339Y-102915181D01*
X91479661Y-102780761D01*
X94380100Y-102780761D01*
X94380100Y-102984639D01*
X94419874Y-103184598D01*
X94497895Y-103372956D01*
X94611163Y-103542474D01*
X94755326Y-103686637D01*
X94924844Y-103799905D01*
X95113202Y-103877926D01*
X95313161Y-103917700D01*
X95517039Y-103917700D01*
X95716998Y-103877926D01*
X95905356Y-103799905D01*
X96074874Y-103686637D01*
X96219037Y-103542474D01*
X96332305Y-103372956D01*
X96410326Y-103184598D01*
X96450100Y-102984639D01*
X96450100Y-102780761D01*
X96410326Y-102580802D01*
X96351201Y-102438061D01*
X100345000Y-102438061D01*
X100345000Y-102641939D01*
X100384774Y-102841898D01*
X100462795Y-103030256D01*
X100576063Y-103199774D01*
X100720226Y-103343937D01*
X100889744Y-103457205D01*
X101078102Y-103535226D01*
X101278061Y-103575000D01*
X101481939Y-103575000D01*
X101681898Y-103535226D01*
X101870256Y-103457205D01*
X102039774Y-103343937D01*
X102183937Y-103199774D01*
X102297205Y-103030256D01*
X102375226Y-102841898D01*
X102415000Y-102641939D01*
X102415000Y-102438061D01*
X102375226Y-102238102D01*
X102297205Y-102049744D01*
X102183937Y-101880226D01*
X102039774Y-101736063D01*
X101870256Y-101622795D01*
X101681898Y-101544774D01*
X101481939Y-101505000D01*
X101278061Y-101505000D01*
X101078102Y-101544774D01*
X100889744Y-101622795D01*
X100720226Y-101736063D01*
X100576063Y-101880226D01*
X100462795Y-102049744D01*
X100384774Y-102238102D01*
X100345000Y-102438061D01*
X96351201Y-102438061D01*
X96332305Y-102392444D01*
X96219037Y-102222926D01*
X96074874Y-102078763D01*
X95905356Y-101965495D01*
X95716998Y-101887474D01*
X95517039Y-101847700D01*
X95313161Y-101847700D01*
X95113202Y-101887474D01*
X94924844Y-101965495D01*
X94755326Y-102078763D01*
X94611163Y-102222926D01*
X94497895Y-102392444D01*
X94419874Y-102580802D01*
X94380100Y-102780761D01*
X91479661Y-102780761D01*
X91389475Y-102563034D01*
X91177713Y-102246109D01*
X90908191Y-101976587D01*
X90591266Y-101764825D01*
X90239119Y-101618961D01*
X89865281Y-101544600D01*
X89484119Y-101544600D01*
X89110281Y-101618961D01*
X88758134Y-101764825D01*
X88441209Y-101976587D01*
X88276900Y-102140896D01*
X88276900Y-101058061D01*
X103165000Y-101058061D01*
X103165000Y-101261939D01*
X103204774Y-101461898D01*
X103282795Y-101650256D01*
X103396063Y-101819774D01*
X103540226Y-101963937D01*
X103709744Y-102077205D01*
X103898102Y-102155226D01*
X104098061Y-102195000D01*
X104301939Y-102195000D01*
X104501898Y-102155226D01*
X104690256Y-102077205D01*
X104711484Y-102063021D01*
X104692500Y-102158461D01*
X104692500Y-102362339D01*
X104732274Y-102562298D01*
X104810295Y-102750656D01*
X104923563Y-102920174D01*
X105067726Y-103064337D01*
X105237244Y-103177605D01*
X105425602Y-103255626D01*
X105625561Y-103295400D01*
X105829439Y-103295400D01*
X106029398Y-103255626D01*
X106217756Y-103177605D01*
X106387274Y-103064337D01*
X106531437Y-102920174D01*
X106644705Y-102750656D01*
X106722726Y-102562298D01*
X106762500Y-102362339D01*
X106762500Y-102265514D01*
X106956498Y-102226926D01*
X106998289Y-102209615D01*
X106994774Y-102218102D01*
X106955000Y-102418061D01*
X106955000Y-102621939D01*
X106994774Y-102821898D01*
X107072795Y-103010256D01*
X107186063Y-103179774D01*
X107330226Y-103323937D01*
X107499744Y-103437205D01*
X107688102Y-103515226D01*
X107888061Y-103555000D01*
X108091939Y-103555000D01*
X108291898Y-103515226D01*
X108480256Y-103437205D01*
X108649774Y-103323937D01*
X108793937Y-103179774D01*
X108907205Y-103010256D01*
X108985226Y-102821898D01*
X109025000Y-102621939D01*
X109025000Y-102418061D01*
X108985226Y-102218102D01*
X108907205Y-102029744D01*
X108793937Y-101860226D01*
X108649774Y-101716063D01*
X108480256Y-101602795D01*
X108393153Y-101566716D01*
X108440256Y-101547205D01*
X108609774Y-101433937D01*
X108753937Y-101289774D01*
X108867205Y-101120256D01*
X108945226Y-100931898D01*
X108985000Y-100731939D01*
X108985000Y-100528061D01*
X108945226Y-100328102D01*
X108867205Y-100139744D01*
X108753937Y-99970226D01*
X108609774Y-99826063D01*
X108440256Y-99712795D01*
X108251898Y-99634774D01*
X108051939Y-99595000D01*
X107848061Y-99595000D01*
X107648102Y-99634774D01*
X107459744Y-99712795D01*
X107290226Y-99826063D01*
X107146063Y-99970226D01*
X107032795Y-100139744D01*
X106987422Y-100249283D01*
X106956498Y-100236474D01*
X106756539Y-100196700D01*
X106552661Y-100196700D01*
X106352702Y-100236474D01*
X106164344Y-100314495D01*
X105994826Y-100427763D01*
X105850663Y-100571926D01*
X105737395Y-100741444D01*
X105659374Y-100929802D01*
X105619600Y-101129761D01*
X105619600Y-101226586D01*
X105425602Y-101265174D01*
X105237244Y-101343195D01*
X105216016Y-101357379D01*
X105235000Y-101261939D01*
X105235000Y-101058061D01*
X105195226Y-100858102D01*
X105117205Y-100669744D01*
X105003937Y-100500226D01*
X104859774Y-100356063D01*
X104690256Y-100242795D01*
X104501898Y-100164774D01*
X104301939Y-100125000D01*
X104098061Y-100125000D01*
X103898102Y-100164774D01*
X103709744Y-100242795D01*
X103540226Y-100356063D01*
X103396063Y-100500226D01*
X103282795Y-100669744D01*
X103204774Y-100858102D01*
X103165000Y-101058061D01*
X88276900Y-101058061D01*
X88276900Y-99427961D01*
X89820800Y-99427961D01*
X89820800Y-99631839D01*
X89860574Y-99831798D01*
X89938595Y-100020156D01*
X90051863Y-100189674D01*
X90196026Y-100333837D01*
X90365544Y-100447105D01*
X90553902Y-100525126D01*
X90753861Y-100564900D01*
X90957739Y-100564900D01*
X91157698Y-100525126D01*
X91346056Y-100447105D01*
X91515574Y-100333837D01*
X91659737Y-100189674D01*
X91773005Y-100020156D01*
X91851026Y-99831798D01*
X91890800Y-99631839D01*
X91890800Y-99427961D01*
X91851026Y-99228002D01*
X91773005Y-99039644D01*
X91743951Y-98996161D01*
X91865500Y-98996161D01*
X91865500Y-99200039D01*
X91905274Y-99399998D01*
X91983295Y-99588356D01*
X92096563Y-99757874D01*
X92240726Y-99902037D01*
X92410244Y-100015305D01*
X92598602Y-100093326D01*
X92798561Y-100133100D01*
X93002439Y-100133100D01*
X93202398Y-100093326D01*
X93390756Y-100015305D01*
X93560274Y-99902037D01*
X93704437Y-99757874D01*
X93817705Y-99588356D01*
X93895726Y-99399998D01*
X93935500Y-99200039D01*
X93935500Y-98996161D01*
X93895726Y-98796202D01*
X93817705Y-98607844D01*
X93704437Y-98438326D01*
X93560274Y-98294163D01*
X93390756Y-98180895D01*
X93202398Y-98102874D01*
X93002439Y-98063100D01*
X92798561Y-98063100D01*
X92598602Y-98102874D01*
X92410244Y-98180895D01*
X92240726Y-98294163D01*
X92096563Y-98438326D01*
X91983295Y-98607844D01*
X91905274Y-98796202D01*
X91865500Y-98996161D01*
X91743951Y-98996161D01*
X91659737Y-98870126D01*
X91515574Y-98725963D01*
X91346056Y-98612695D01*
X91157698Y-98534674D01*
X90957739Y-98494900D01*
X90753861Y-98494900D01*
X90553902Y-98534674D01*
X90365544Y-98612695D01*
X90196026Y-98725963D01*
X90051863Y-98870126D01*
X89938595Y-99039644D01*
X89860574Y-99228002D01*
X89820800Y-99427961D01*
X88276900Y-99427961D01*
X88276900Y-97908061D01*
X95695000Y-97908061D01*
X95695000Y-98111939D01*
X95734774Y-98311898D01*
X95812795Y-98500256D01*
X95926063Y-98669774D01*
X96070226Y-98813937D01*
X96190763Y-98894477D01*
X96136195Y-98976144D01*
X96058174Y-99164502D01*
X96018400Y-99364461D01*
X96018400Y-99568339D01*
X96058174Y-99768298D01*
X96136195Y-99956656D01*
X96249463Y-100126174D01*
X96393626Y-100270337D01*
X96563144Y-100383605D01*
X96751502Y-100461626D01*
X96951461Y-100501400D01*
X97155339Y-100501400D01*
X97355298Y-100461626D01*
X97543656Y-100383605D01*
X97713174Y-100270337D01*
X97857337Y-100126174D01*
X97970605Y-99956656D01*
X98048626Y-99768298D01*
X98088400Y-99568339D01*
X98088400Y-99364461D01*
X98085874Y-99351761D01*
X99978298Y-99351761D01*
X99978298Y-99555639D01*
X100018072Y-99755598D01*
X100096093Y-99943956D01*
X100209361Y-100113474D01*
X100353524Y-100257637D01*
X100523042Y-100370905D01*
X100711400Y-100448926D01*
X100911359Y-100488700D01*
X101115237Y-100488700D01*
X101315196Y-100448926D01*
X101503554Y-100370905D01*
X101673072Y-100257637D01*
X101817235Y-100113474D01*
X101930503Y-99943956D01*
X102008524Y-99755598D01*
X102048298Y-99555639D01*
X102048298Y-99351761D01*
X102008524Y-99151802D01*
X101930503Y-98963444D01*
X101817235Y-98793926D01*
X101673072Y-98649763D01*
X101503554Y-98536495D01*
X101315196Y-98458474D01*
X101115237Y-98418700D01*
X100911359Y-98418700D01*
X100711400Y-98458474D01*
X100523042Y-98536495D01*
X100353524Y-98649763D01*
X100209361Y-98793926D01*
X100096093Y-98963444D01*
X100018072Y-99151802D01*
X99978298Y-99351761D01*
X98085874Y-99351761D01*
X98048626Y-99164502D01*
X97970605Y-98976144D01*
X97857337Y-98806626D01*
X97713174Y-98662463D01*
X97592637Y-98581923D01*
X97647205Y-98500256D01*
X97725226Y-98311898D01*
X97765000Y-98111939D01*
X97765000Y-97908061D01*
X97725226Y-97708102D01*
X97647205Y-97519744D01*
X97533937Y-97350226D01*
X97493711Y-97310000D01*
X97613937Y-97189774D01*
X97727205Y-97020256D01*
X97729398Y-97014961D01*
X106902300Y-97014961D01*
X106902300Y-97218839D01*
X106942074Y-97418798D01*
X107020095Y-97607156D01*
X107133363Y-97776674D01*
X107277526Y-97920837D01*
X107447044Y-98034105D01*
X107635402Y-98112126D01*
X107835361Y-98151900D01*
X108039239Y-98151900D01*
X108239198Y-98112126D01*
X108427556Y-98034105D01*
X108597074Y-97920837D01*
X108741237Y-97776674D01*
X108854505Y-97607156D01*
X108932526Y-97418798D01*
X108972300Y-97218839D01*
X108972300Y-97014961D01*
X108944921Y-96877316D01*
X109039774Y-96813937D01*
X109183937Y-96669774D01*
X109297205Y-96500256D01*
X109375226Y-96311898D01*
X109415000Y-96111939D01*
X109415000Y-95908061D01*
X109375226Y-95708102D01*
X109297205Y-95519744D01*
X109183937Y-95350226D01*
X109039774Y-95206063D01*
X108870256Y-95092795D01*
X108681898Y-95014774D01*
X108481939Y-94975000D01*
X108278061Y-94975000D01*
X108078102Y-95014774D01*
X107889744Y-95092795D01*
X107720226Y-95206063D01*
X107576063Y-95350226D01*
X107462795Y-95519744D01*
X107384774Y-95708102D01*
X107345000Y-95908061D01*
X107345000Y-96111939D01*
X107372379Y-96249584D01*
X107277526Y-96312963D01*
X107133363Y-96457126D01*
X107020095Y-96626644D01*
X106942074Y-96815002D01*
X106902300Y-97014961D01*
X97729398Y-97014961D01*
X97805226Y-96831898D01*
X97845000Y-96631939D01*
X97845000Y-96428061D01*
X97805226Y-96228102D01*
X97727205Y-96039744D01*
X97613937Y-95870226D01*
X97524706Y-95780995D01*
X97652214Y-95695797D01*
X97796377Y-95551634D01*
X97909645Y-95382116D01*
X97921679Y-95353062D01*
X99470999Y-95353062D01*
X99470999Y-95556940D01*
X99510773Y-95756899D01*
X99588794Y-95945257D01*
X99702062Y-96114775D01*
X99846225Y-96258938D01*
X100015743Y-96372206D01*
X100204101Y-96450227D01*
X100404060Y-96490001D01*
X100607938Y-96490001D01*
X100807897Y-96450227D01*
X100996255Y-96372206D01*
X101165773Y-96258938D01*
X101309936Y-96114775D01*
X101423204Y-95945257D01*
X101501225Y-95756899D01*
X101540999Y-95556940D01*
X101540999Y-95353062D01*
X101501225Y-95153103D01*
X101423204Y-94964745D01*
X101309936Y-94795227D01*
X101165773Y-94651064D01*
X100996255Y-94537796D01*
X100807897Y-94459775D01*
X100756548Y-94449561D01*
X101644500Y-94449561D01*
X101644500Y-94653439D01*
X101684274Y-94853398D01*
X101762295Y-95041756D01*
X101875563Y-95211274D01*
X102019726Y-95355437D01*
X102189244Y-95468705D01*
X102377602Y-95546726D01*
X102577561Y-95586500D01*
X102781439Y-95586500D01*
X102981398Y-95546726D01*
X103169756Y-95468705D01*
X103339274Y-95355437D01*
X103483437Y-95211274D01*
X103596705Y-95041756D01*
X103614804Y-94998061D01*
X103865000Y-94998061D01*
X103865000Y-95201939D01*
X103904774Y-95401898D01*
X103982795Y-95590256D01*
X104096063Y-95759774D01*
X104240226Y-95903937D01*
X104409744Y-96017205D01*
X104598102Y-96095226D01*
X104798061Y-96135000D01*
X105001939Y-96135000D01*
X105201898Y-96095226D01*
X105390256Y-96017205D01*
X105559774Y-95903937D01*
X105703937Y-95759774D01*
X105817205Y-95590256D01*
X105895226Y-95401898D01*
X105935000Y-95201939D01*
X105935000Y-94998061D01*
X105895226Y-94798102D01*
X105817205Y-94609744D01*
X105703937Y-94440226D01*
X105559774Y-94296063D01*
X105390256Y-94182795D01*
X105201898Y-94104774D01*
X105001939Y-94065000D01*
X104798061Y-94065000D01*
X104598102Y-94104774D01*
X104409744Y-94182795D01*
X104240226Y-94296063D01*
X104096063Y-94440226D01*
X103982795Y-94609744D01*
X103904774Y-94798102D01*
X103865000Y-94998061D01*
X103614804Y-94998061D01*
X103674726Y-94853398D01*
X103714500Y-94653439D01*
X103714500Y-94449561D01*
X103674726Y-94249602D01*
X103596705Y-94061244D01*
X103483437Y-93891726D01*
X103339274Y-93747563D01*
X103169756Y-93634295D01*
X102981398Y-93556274D01*
X102781439Y-93516500D01*
X102577561Y-93516500D01*
X102377602Y-93556274D01*
X102189244Y-93634295D01*
X102019726Y-93747563D01*
X101875563Y-93891726D01*
X101762295Y-94061244D01*
X101684274Y-94249602D01*
X101644500Y-94449561D01*
X100756548Y-94449561D01*
X100607938Y-94420001D01*
X100404060Y-94420001D01*
X100204101Y-94459775D01*
X100015743Y-94537796D01*
X99846225Y-94651064D01*
X99702062Y-94795227D01*
X99588794Y-94964745D01*
X99510773Y-95153103D01*
X99470999Y-95353062D01*
X97921679Y-95353062D01*
X97987666Y-95193758D01*
X98027440Y-94993799D01*
X98027440Y-94789921D01*
X97987666Y-94589962D01*
X97909645Y-94401604D01*
X97796377Y-94232086D01*
X97652214Y-94087923D01*
X97482696Y-93974655D01*
X97294338Y-93896634D01*
X97094379Y-93856860D01*
X96890501Y-93856860D01*
X96690542Y-93896634D01*
X96502184Y-93974655D01*
X96332666Y-94087923D01*
X96188503Y-94232086D01*
X96075235Y-94401604D01*
X95997214Y-94589962D01*
X95957440Y-94789921D01*
X95957440Y-94993799D01*
X95997214Y-95193758D01*
X96075235Y-95382116D01*
X96188503Y-95551634D01*
X96277734Y-95640865D01*
X96150226Y-95726063D01*
X96006063Y-95870226D01*
X95892795Y-96039744D01*
X95814774Y-96228102D01*
X95775000Y-96428061D01*
X95775000Y-96631939D01*
X95814774Y-96831898D01*
X95892795Y-97020256D01*
X96006063Y-97189774D01*
X96046289Y-97230000D01*
X95926063Y-97350226D01*
X95812795Y-97519744D01*
X95734774Y-97708102D01*
X95695000Y-97908061D01*
X88276900Y-97908061D01*
X88276900Y-95389361D01*
X91802000Y-95389361D01*
X91802000Y-95593239D01*
X91841774Y-95793198D01*
X91919795Y-95981556D01*
X92033063Y-96151074D01*
X92177226Y-96295237D01*
X92346744Y-96408505D01*
X92535102Y-96486526D01*
X92735061Y-96526300D01*
X92938939Y-96526300D01*
X93138898Y-96486526D01*
X93327256Y-96408505D01*
X93496774Y-96295237D01*
X93640937Y-96151074D01*
X93754205Y-95981556D01*
X93832226Y-95793198D01*
X93872000Y-95593239D01*
X93872000Y-95389361D01*
X93832226Y-95189402D01*
X93754205Y-95001044D01*
X93640937Y-94831526D01*
X93496774Y-94687363D01*
X93327256Y-94574095D01*
X93138898Y-94496074D01*
X92938939Y-94456300D01*
X92735061Y-94456300D01*
X92535102Y-94496074D01*
X92346744Y-94574095D01*
X92177226Y-94687363D01*
X92033063Y-94831526D01*
X91919795Y-95001044D01*
X91841774Y-95189402D01*
X91802000Y-95389361D01*
X88276900Y-95389361D01*
X88276900Y-92773061D01*
X91830000Y-92773061D01*
X91830000Y-92976939D01*
X91869774Y-93176898D01*
X91947795Y-93365256D01*
X92061063Y-93534774D01*
X92205226Y-93678937D01*
X92374744Y-93792205D01*
X92563102Y-93870226D01*
X92763061Y-93910000D01*
X92966939Y-93910000D01*
X93166898Y-93870226D01*
X93355256Y-93792205D01*
X93524774Y-93678937D01*
X93668937Y-93534774D01*
X93782205Y-93365256D01*
X93860226Y-93176898D01*
X93900000Y-92976939D01*
X93900000Y-92773061D01*
X93860226Y-92573102D01*
X93782205Y-92384744D01*
X93668937Y-92215226D01*
X93524774Y-92071063D01*
X93355256Y-91957795D01*
X93166898Y-91879774D01*
X92966939Y-91840000D01*
X92763061Y-91840000D01*
X92563102Y-91879774D01*
X92374744Y-91957795D01*
X92205226Y-92071063D01*
X92061063Y-92215226D01*
X91947795Y-92384744D01*
X91869774Y-92573102D01*
X91830000Y-92773061D01*
X88276900Y-92773061D01*
X88276900Y-91185661D01*
X93173600Y-91185661D01*
X93173600Y-91389539D01*
X93213374Y-91589498D01*
X93291395Y-91777856D01*
X93404663Y-91947374D01*
X93548826Y-92091537D01*
X93718344Y-92204805D01*
X93906702Y-92282826D01*
X94106661Y-92322600D01*
X94310539Y-92322600D01*
X94510498Y-92282826D01*
X94698856Y-92204805D01*
X94868374Y-92091537D01*
X95012537Y-91947374D01*
X95125805Y-91777856D01*
X95203826Y-91589498D01*
X95243600Y-91389539D01*
X95243600Y-91185661D01*
X95203826Y-90985702D01*
X95125805Y-90797344D01*
X95012537Y-90627826D01*
X94868374Y-90483663D01*
X94821271Y-90452190D01*
X94959206Y-90395055D01*
X95128724Y-90281787D01*
X95272887Y-90137624D01*
X95386155Y-89968106D01*
X95464176Y-89779748D01*
X95503950Y-89579789D01*
X95503950Y-89375911D01*
X95464176Y-89175952D01*
X95386155Y-88987594D01*
X95272887Y-88818076D01*
X95128724Y-88673913D01*
X94959206Y-88560645D01*
X94770848Y-88482624D01*
X94570889Y-88442850D01*
X94367011Y-88442850D01*
X94167052Y-88482624D01*
X93978694Y-88560645D01*
X93809176Y-88673913D01*
X93665013Y-88818076D01*
X93551745Y-88987594D01*
X93473724Y-89175952D01*
X93433950Y-89375911D01*
X93433950Y-89579789D01*
X93473724Y-89779748D01*
X93551745Y-89968106D01*
X93665013Y-90137624D01*
X93809176Y-90281787D01*
X93856279Y-90313260D01*
X93718344Y-90370395D01*
X93548826Y-90483663D01*
X93404663Y-90627826D01*
X93291395Y-90797344D01*
X93213374Y-90985702D01*
X93173600Y-91185661D01*
X88276900Y-91185661D01*
X88276900Y-86956561D01*
X99790300Y-86956561D01*
X99790300Y-87160439D01*
X99830074Y-87360398D01*
X99908095Y-87548756D01*
X100021363Y-87718274D01*
X100165526Y-87862437D01*
X100335044Y-87975705D01*
X100523402Y-88053726D01*
X100723361Y-88093500D01*
X100927239Y-88093500D01*
X101127198Y-88053726D01*
X101315556Y-87975705D01*
X101485074Y-87862437D01*
X101629237Y-87718274D01*
X101742505Y-87548756D01*
X101820526Y-87360398D01*
X101860300Y-87160439D01*
X101860300Y-86956561D01*
X101820526Y-86756602D01*
X101742505Y-86568244D01*
X101629237Y-86398726D01*
X101485074Y-86254563D01*
X101315556Y-86141295D01*
X101127198Y-86063274D01*
X100927239Y-86023500D01*
X100723361Y-86023500D01*
X100523402Y-86063274D01*
X100335044Y-86141295D01*
X100165526Y-86254563D01*
X100021363Y-86398726D01*
X99908095Y-86568244D01*
X99830074Y-86756602D01*
X99790300Y-86956561D01*
X88276900Y-86956561D01*
X88276900Y-81598400D01*
X92669728Y-81598400D01*
X92669728Y-83298400D01*
X92681988Y-83422882D01*
X92718298Y-83542580D01*
X92777263Y-83652894D01*
X92856615Y-83749585D01*
X92953306Y-83828937D01*
X93063620Y-83887902D01*
X93183318Y-83924212D01*
X93307800Y-83936472D01*
X95007800Y-83936472D01*
X95132282Y-83924212D01*
X95251980Y-83887902D01*
X95362294Y-83828937D01*
X95458985Y-83749585D01*
X95538337Y-83652894D01*
X95597302Y-83542580D01*
X95633612Y-83422882D01*
X95645872Y-83298400D01*
X95645872Y-81598400D01*
X96352728Y-81598400D01*
X96352728Y-83298400D01*
X96364988Y-83422882D01*
X96401298Y-83542580D01*
X96460263Y-83652894D01*
X96539615Y-83749585D01*
X96636306Y-83828937D01*
X96746620Y-83887902D01*
X96866318Y-83924212D01*
X96990800Y-83936472D01*
X98690800Y-83936472D01*
X98815282Y-83924212D01*
X98934980Y-83887902D01*
X99045294Y-83828937D01*
X99141985Y-83749585D01*
X99221337Y-83652894D01*
X99280302Y-83542580D01*
X99316612Y-83422882D01*
X99328872Y-83298400D01*
X99328872Y-81598400D01*
X99316612Y-81473918D01*
X99280302Y-81354220D01*
X99221337Y-81243906D01*
X99141985Y-81147215D01*
X99045294Y-81067863D01*
X98934980Y-81008898D01*
X98862420Y-80986887D01*
X98994275Y-80855032D01*
X99156790Y-80611811D01*
X99268732Y-80341558D01*
X99325800Y-80054660D01*
X99325800Y-79762140D01*
X99268732Y-79475242D01*
X99156790Y-79204989D01*
X98994275Y-78961768D01*
X98787432Y-78754925D01*
X98544211Y-78592410D01*
X98273958Y-78480468D01*
X97987060Y-78423400D01*
X97694540Y-78423400D01*
X97407642Y-78480468D01*
X97137389Y-78592410D01*
X96894168Y-78754925D01*
X96687325Y-78961768D01*
X96524810Y-79204989D01*
X96412868Y-79475242D01*
X96355800Y-79762140D01*
X96355800Y-80054660D01*
X96412868Y-80341558D01*
X96524810Y-80611811D01*
X96687325Y-80855032D01*
X96819180Y-80986887D01*
X96746620Y-81008898D01*
X96636306Y-81067863D01*
X96539615Y-81147215D01*
X96460263Y-81243906D01*
X96401298Y-81354220D01*
X96364988Y-81473918D01*
X96352728Y-81598400D01*
X95645872Y-81598400D01*
X95633612Y-81473918D01*
X95597302Y-81354220D01*
X95538337Y-81243906D01*
X95458985Y-81147215D01*
X95362294Y-81067863D01*
X95251980Y-81008898D01*
X95179420Y-80986887D01*
X95311275Y-80855032D01*
X95473790Y-80611811D01*
X95585732Y-80341558D01*
X95642800Y-80054660D01*
X95642800Y-79762140D01*
X95585732Y-79475242D01*
X95473790Y-79204989D01*
X95311275Y-78961768D01*
X95104432Y-78754925D01*
X94861211Y-78592410D01*
X94590958Y-78480468D01*
X94304060Y-78423400D01*
X94011540Y-78423400D01*
X93724642Y-78480468D01*
X93454389Y-78592410D01*
X93211168Y-78754925D01*
X93004325Y-78961768D01*
X92841810Y-79204989D01*
X92729868Y-79475242D01*
X92672800Y-79762140D01*
X92672800Y-80054660D01*
X92729868Y-80341558D01*
X92841810Y-80611811D01*
X93004325Y-80855032D01*
X93136180Y-80986887D01*
X93063620Y-81008898D01*
X92953306Y-81067863D01*
X92856615Y-81147215D01*
X92777263Y-81243906D01*
X92718298Y-81354220D01*
X92681988Y-81473918D01*
X92669728Y-81598400D01*
X88276900Y-81598400D01*
X88276900Y-79734667D01*
X88382600Y-79734667D01*
X88382600Y-80056733D01*
X88445432Y-80372612D01*
X88568682Y-80670163D01*
X88747613Y-80937952D01*
X88975348Y-81165687D01*
X89243137Y-81344618D01*
X89540688Y-81467868D01*
X89856567Y-81530700D01*
X90178633Y-81530700D01*
X90494512Y-81467868D01*
X90792063Y-81344618D01*
X91059852Y-81165687D01*
X91287587Y-80937952D01*
X91466518Y-80670163D01*
X91589768Y-80372612D01*
X91652600Y-80056733D01*
X91652600Y-79734667D01*
X91589768Y-79418788D01*
X91466518Y-79121237D01*
X91287587Y-78853448D01*
X91059852Y-78625713D01*
X90792063Y-78446782D01*
X90494512Y-78323532D01*
X90178633Y-78260700D01*
X89856567Y-78260700D01*
X89540688Y-78323532D01*
X89243137Y-78446782D01*
X88975348Y-78625713D01*
X88747613Y-78853448D01*
X88568682Y-79121237D01*
X88445432Y-79418788D01*
X88382600Y-79734667D01*
X88276900Y-79734667D01*
X88276900Y-78154772D01*
X103090506Y-78149839D01*
X103057695Y-78198944D01*
X102979674Y-78387302D01*
X102939900Y-78587261D01*
X102939900Y-78791139D01*
X102979674Y-78991098D01*
X103057695Y-79179456D01*
X103170963Y-79348974D01*
X103315126Y-79493137D01*
X103484644Y-79606405D01*
X103673002Y-79684426D01*
X103812708Y-79712215D01*
X103812708Y-80999700D01*
X103824968Y-81124182D01*
X103861278Y-81243880D01*
X103920243Y-81354194D01*
X103999595Y-81450885D01*
X104096286Y-81530237D01*
X104206600Y-81589202D01*
X104279160Y-81611213D01*
X104147305Y-81743068D01*
X103984790Y-81986289D01*
X103872848Y-82256542D01*
X103815780Y-82543440D01*
X103815780Y-82835960D01*
X103872848Y-83122858D01*
X103984790Y-83393111D01*
X104147305Y-83636332D01*
X104354148Y-83843175D01*
X104597369Y-84005690D01*
X104867622Y-84117632D01*
X105154520Y-84174700D01*
X105447040Y-84174700D01*
X105733938Y-84117632D01*
X106004191Y-84005690D01*
X106247412Y-83843175D01*
X106454255Y-83636332D01*
X106616770Y-83393111D01*
X106728712Y-83122858D01*
X106785780Y-82835960D01*
X106785780Y-82543440D01*
X106728712Y-82256542D01*
X106616770Y-81986289D01*
X106454255Y-81743068D01*
X106322400Y-81611213D01*
X106394960Y-81589202D01*
X106505274Y-81530237D01*
X106601965Y-81450885D01*
X106681317Y-81354194D01*
X106740282Y-81243880D01*
X106776592Y-81124182D01*
X106788852Y-80999700D01*
X106788852Y-79299700D01*
X106776592Y-79175218D01*
X106740282Y-79055520D01*
X106681317Y-78945206D01*
X106601965Y-78848515D01*
X106505274Y-78769163D01*
X106394960Y-78710198D01*
X106275262Y-78673888D01*
X106150780Y-78661628D01*
X105009900Y-78661628D01*
X105009900Y-78587261D01*
X104970126Y-78387302D01*
X104892105Y-78198944D01*
X104858900Y-78149250D01*
X112903000Y-78146571D01*
X112903000Y-79549883D01*
%TD*%
M02*
