G04 #@! TF.GenerationSoftware,KiCad,Pcbnew,8.0.4*
G04 #@! TF.CreationDate,2024-09-20T11:31:15-05:00*
G04 #@! TF.ProjectId,spudglo_driver_v8p0,73707564-676c-46f5-9f64-72697665725f,rev?*
G04 #@! TF.SameCoordinates,Original*
G04 #@! TF.FileFunction,Soldermask,Top*
G04 #@! TF.FilePolarity,Negative*
%FSLAX46Y46*%
G04 Gerber Fmt 4.6, Leading zero omitted, Abs format (unit mm)*
G04 Created by KiCad (PCBNEW 8.0.4) date 2024-09-20 11:31:15*
%MOMM*%
%LPD*%
G01*
G04 APERTURE LIST*
G04 Aperture macros list*
%AMRoundRect*
0 Rectangle with rounded corners*
0 $1 Rounding radius*
0 $2 $3 $4 $5 $6 $7 $8 $9 X,Y pos of 4 corners*
0 Add a 4 corners polygon primitive as box body*
4,1,4,$2,$3,$4,$5,$6,$7,$8,$9,$2,$3,0*
0 Add four circle primitives for the rounded corners*
1,1,$1+$1,$2,$3*
1,1,$1+$1,$4,$5*
1,1,$1+$1,$6,$7*
1,1,$1+$1,$8,$9*
0 Add four rect primitives between the rounded corners*
20,1,$1+$1,$2,$3,$4,$5,0*
20,1,$1+$1,$4,$5,$6,$7,0*
20,1,$1+$1,$6,$7,$8,$9,0*
20,1,$1+$1,$8,$9,$2,$3,0*%
%AMRotRect*
0 Rectangle, with rotation*
0 The origin of the aperture is its center*
0 $1 length*
0 $2 width*
0 $3 Rotation angle, in degrees counterclockwise*
0 Add horizontal line*
21,1,$1,$2,0,0,$3*%
G04 Aperture macros list end*
%ADD10R,1.700000X1.700000*%
%ADD11O,1.700000X1.700000*%
%ADD12R,0.355600X0.711200*%
%ADD13RoundRect,0.160000X-0.044194X-0.270468X0.270468X0.044194X0.044194X0.270468X-0.270468X-0.044194X0*%
%ADD14RoundRect,0.098000X0.609000X0.294000X-0.609000X0.294000X-0.609000X-0.294000X0.609000X-0.294000X0*%
%ADD15R,1.350000X1.350000*%
%ADD16O,1.350000X1.350000*%
%ADD17RoundRect,0.155000X-0.259862X0.040659X0.040659X-0.259862X0.259862X-0.040659X-0.040659X0.259862X0*%
%ADD18RoundRect,0.155000X0.155000X-0.212500X0.155000X0.212500X-0.155000X0.212500X-0.155000X-0.212500X0*%
%ADD19RoundRect,0.155000X0.212500X0.155000X-0.212500X0.155000X-0.212500X-0.155000X0.212500X-0.155000X0*%
%ADD20RoundRect,0.155000X-0.155000X0.212500X-0.155000X-0.212500X0.155000X-0.212500X0.155000X0.212500X0*%
%ADD21RoundRect,0.160000X0.160000X-0.197500X0.160000X0.197500X-0.160000X0.197500X-0.160000X-0.197500X0*%
%ADD22RoundRect,0.062500X0.220971X0.309359X-0.309359X-0.220971X-0.220971X-0.309359X0.309359X0.220971X0*%
%ADD23RoundRect,0.062500X-0.220971X0.309359X-0.309359X0.220971X0.220971X-0.309359X0.309359X-0.220971X0*%
%ADD24RotRect,5.600000X5.600000X225.000000*%
%ADD25RoundRect,0.250001X0.928076X0.274004X0.274004X0.928076X-0.928076X-0.274004X-0.274004X-0.928076X0*%
%ADD26C,4.500000*%
%ADD27R,4.000000X3.000000*%
%ADD28RoundRect,0.160000X-0.197500X-0.160000X0.197500X-0.160000X0.197500X0.160000X-0.197500X0.160000X0*%
%ADD29RoundRect,0.160000X0.197500X0.160000X-0.197500X0.160000X-0.197500X-0.160000X0.197500X-0.160000X0*%
%ADD30RoundRect,0.237500X-0.250000X-0.237500X0.250000X-0.237500X0.250000X0.237500X-0.250000X0.237500X0*%
%ADD31RoundRect,0.155000X0.259862X-0.040659X-0.040659X0.259862X-0.259862X0.040659X0.040659X-0.259862X0*%
%ADD32R,0.203200X0.203200*%
%ADD33RoundRect,0.147500X0.172500X-0.147500X0.172500X0.147500X-0.172500X0.147500X-0.172500X-0.147500X0*%
%ADD34RoundRect,0.155000X0.040659X0.259862X-0.259862X-0.040659X-0.040659X-0.259862X0.259862X0.040659X0*%
%ADD35RoundRect,0.102000X0.310000X0.610000X-0.310000X0.610000X-0.310000X-0.610000X0.310000X-0.610000X0*%
%ADD36RoundRect,0.155000X-0.212500X-0.155000X0.212500X-0.155000X0.212500X0.155000X-0.212500X0.155000X0*%
%ADD37RoundRect,0.160000X-0.160000X0.197500X-0.160000X-0.197500X0.160000X-0.197500X0.160000X0.197500X0*%
%ADD38RoundRect,0.147500X0.147500X0.172500X-0.147500X0.172500X-0.147500X-0.172500X0.147500X-0.172500X0*%
%ADD39C,2.500000*%
%ADD40C,2.540000*%
%ADD41C,3.000000*%
%ADD42R,1.800000X4.400000*%
%ADD43O,1.800000X4.000000*%
%ADD44O,4.000000X1.800000*%
%ADD45C,0.650000*%
%ADD46R,0.600000X1.450000*%
%ADD47R,0.300000X1.450000*%
%ADD48O,1.000000X2.100000*%
%ADD49O,1.000000X1.600000*%
%ADD50RoundRect,0.155000X-0.040659X-0.259862X0.259862X0.040659X0.040659X0.259862X-0.259862X-0.040659X0*%
%ADD51R,0.470000X0.400000*%
%ADD52R,0.950000X1.700000*%
%ADD53R,0.625000X0.300000*%
%ADD54R,0.300000X0.625000*%
%ADD55RoundRect,0.250001X0.462499X0.849999X-0.462499X0.849999X-0.462499X-0.849999X0.462499X-0.849999X0*%
%ADD56RoundRect,0.160000X0.252791X-0.026517X-0.026517X0.252791X-0.252791X0.026517X0.026517X-0.252791X0*%
%ADD57RotRect,1.000000X1.200000X225.000000*%
%ADD58RoundRect,0.135000X0.226274X0.035355X0.035355X0.226274X-0.226274X-0.035355X-0.035355X-0.226274X0*%
%ADD59RoundRect,0.135000X0.185000X-0.135000X0.185000X0.135000X-0.185000X0.135000X-0.185000X-0.135000X0*%
%ADD60C,0.407200*%
%ADD61C,2.000000*%
%ADD62RoundRect,0.059250X-0.177750X0.422750X-0.177750X-0.422750X0.177750X-0.422750X0.177750X0.422750X0*%
%ADD63RoundRect,0.102000X-0.630000X0.250000X-0.630000X-0.250000X0.630000X-0.250000X0.630000X0.250000X0*%
%ADD64RoundRect,0.150000X0.512500X0.150000X-0.512500X0.150000X-0.512500X-0.150000X0.512500X-0.150000X0*%
%ADD65RoundRect,0.100000X-0.637500X-0.100000X0.637500X-0.100000X0.637500X0.100000X-0.637500X0.100000X0*%
%ADD66R,0.800000X0.500000*%
%ADD67RoundRect,0.102000X-0.400000X-1.000000X0.400000X-1.000000X0.400000X1.000000X-0.400000X1.000000X0*%
G04 APERTURE END LIST*
D10*
X92660003Y-175530003D03*
D11*
X92660003Y-172990003D03*
X92660003Y-170450003D03*
X92660003Y-167910003D03*
D10*
X92685005Y-148547503D03*
D11*
X92685005Y-146007503D03*
X92685005Y-143467503D03*
X92685005Y-140927503D03*
D10*
X106107503Y-135964996D03*
D11*
X103567503Y-135964996D03*
X101027503Y-135964996D03*
X98487503Y-135964996D03*
D10*
X70529997Y-153109997D03*
D11*
X70529997Y-155649997D03*
X70529997Y-158189997D03*
X70529997Y-160729997D03*
D12*
X96109998Y-162040000D03*
X95310000Y-162040000D03*
X95310000Y-160941602D03*
X96109998Y-160941602D03*
D13*
X75695181Y-153834819D03*
X76504819Y-153025181D03*
D14*
X129300000Y-165490000D03*
X129300000Y-164540000D03*
X129300000Y-163590000D03*
X126790000Y-163590000D03*
X126790000Y-164540000D03*
X126790000Y-165490000D03*
D15*
X109550000Y-155020000D03*
D16*
X111550000Y-155020000D03*
X109550000Y-157020000D03*
X111550000Y-157020000D03*
D17*
X79751283Y-154231283D03*
X80553849Y-155033849D03*
D18*
X125080000Y-165127500D03*
X125080000Y-163992500D03*
D19*
X96235000Y-163280000D03*
X95100000Y-163280000D03*
D20*
X86680000Y-155312500D03*
X86680000Y-156447500D03*
D21*
X134820000Y-164885000D03*
X134820000Y-163690000D03*
D22*
X85305122Y-148233813D03*
X84951569Y-147880260D03*
X84598015Y-147526706D03*
X84244462Y-147173153D03*
X83890909Y-146819600D03*
X83537355Y-146466046D03*
X83183802Y-146112493D03*
X82830248Y-145758939D03*
X82476695Y-145405386D03*
X82123141Y-145051833D03*
X81769588Y-144698279D03*
X81416035Y-144344726D03*
D23*
X80443763Y-144344726D03*
X80090210Y-144698279D03*
X79736656Y-145051833D03*
X79383103Y-145405386D03*
X79029550Y-145758939D03*
X78675996Y-146112493D03*
X78322443Y-146466046D03*
X77968889Y-146819600D03*
X77615336Y-147173153D03*
X77261783Y-147526707D03*
X76908229Y-147880260D03*
X76554676Y-148233813D03*
D22*
X76554676Y-149206085D03*
X76908229Y-149559638D03*
X77261783Y-149913192D03*
X77615336Y-150266745D03*
X77968889Y-150620298D03*
X78322443Y-150973852D03*
X78675996Y-151327405D03*
X79029550Y-151680959D03*
X79383103Y-152034512D03*
X79736657Y-152388065D03*
X80090210Y-152741619D03*
X80443763Y-153095172D03*
D23*
X81416035Y-153095172D03*
X81769588Y-152741619D03*
X82123142Y-152388065D03*
X82476695Y-152034512D03*
X82830248Y-151680959D03*
X83183802Y-151327405D03*
X83537355Y-150973852D03*
X83890909Y-150620298D03*
X84244462Y-150266745D03*
X84598015Y-149913191D03*
X84951569Y-149559638D03*
X85305122Y-149206085D03*
D24*
X80929899Y-148719949D03*
D20*
X95280000Y-144680000D03*
X95280000Y-145815000D03*
D25*
X78174024Y-156834024D03*
X76530000Y-155190000D03*
D20*
X121811250Y-165243750D03*
X121811250Y-166378750D03*
D18*
X133270000Y-164880000D03*
X133270000Y-163745000D03*
D21*
X90400000Y-143460000D03*
X90400000Y-142265000D03*
D18*
X72920000Y-153115000D03*
X72920000Y-151980000D03*
D20*
X126380000Y-153995000D03*
X126380000Y-155130000D03*
D19*
X129325001Y-157439998D03*
X128190001Y-157439998D03*
D26*
X139540000Y-174930000D03*
D27*
X139960000Y-159880000D03*
X139960000Y-165480000D03*
D28*
X131750000Y-166790000D03*
X132945000Y-166790000D03*
D18*
X87950000Y-145110000D03*
X87950000Y-143975000D03*
D29*
X129065000Y-161750000D03*
X127870000Y-161750000D03*
D30*
X122627500Y-147980000D03*
X124452500Y-147980000D03*
D28*
X100805000Y-138320000D03*
X102000000Y-138320000D03*
D31*
X75452566Y-145182566D03*
X74650000Y-144380000D03*
D29*
X121040000Y-149700000D03*
X122235000Y-149700000D03*
D19*
X104885000Y-138360000D03*
X103750000Y-138360000D03*
D32*
X72870000Y-143503001D03*
X72870000Y-144090000D03*
X72870000Y-144676999D03*
X73378000Y-144676999D03*
X73378000Y-144090000D03*
X73378000Y-143503001D03*
D33*
X73150000Y-142050000D03*
X73150000Y-141080000D03*
D31*
X74202566Y-148762566D03*
X73400000Y-147960000D03*
D34*
X73351283Y-149398717D03*
X72548717Y-150201283D03*
D35*
X129600000Y-153240000D03*
X128650000Y-153240000D03*
X127700000Y-153240000D03*
X127700000Y-155840000D03*
X128650000Y-155840000D03*
X129600000Y-155840000D03*
D36*
X122772500Y-152560000D03*
X123907500Y-152560000D03*
D21*
X123540000Y-165137500D03*
X123540000Y-163942500D03*
D29*
X125625000Y-149700000D03*
X124430000Y-149700000D03*
D37*
X90820000Y-154030000D03*
X90820000Y-155225000D03*
D18*
X123150000Y-155565000D03*
X123150000Y-154430000D03*
D37*
X90330000Y-169735000D03*
X90330000Y-170930000D03*
D38*
X75110000Y-141010000D03*
X74140000Y-141010000D03*
D19*
X129475000Y-167040000D03*
X128340000Y-167040000D03*
D18*
X90330000Y-173370000D03*
X90330000Y-172235000D03*
D11*
X117075000Y-153585000D03*
X119615000Y-153585000D03*
X117075000Y-156125000D03*
X119615000Y-156125000D03*
X117075000Y-158665000D03*
X119615000Y-158665000D03*
X117075000Y-161205000D03*
D10*
X119615000Y-161205000D03*
D37*
X92050000Y-154070000D03*
X92050000Y-155265000D03*
D39*
X111294999Y-150223223D03*
D40*
X116060000Y-141970000D03*
D38*
X75105000Y-142010000D03*
X74135000Y-142010000D03*
D26*
X139540000Y-136950000D03*
D41*
X132960000Y-160260000D03*
D36*
X123920000Y-162000000D03*
X125055000Y-162000000D03*
D29*
X92045000Y-151970000D03*
X90850000Y-151970000D03*
D20*
X124620000Y-145455000D03*
X124620000Y-144320000D03*
D21*
X90430000Y-148080000D03*
X90430000Y-146885000D03*
D42*
X134480000Y-152980000D03*
D43*
X140280000Y-152980000D03*
D44*
X137480000Y-148180000D03*
D17*
X77048717Y-151958717D03*
X77851283Y-152761283D03*
D45*
X132410000Y-140740000D03*
X126630000Y-140740000D03*
D46*
X132770000Y-142185000D03*
X131970000Y-142185000D03*
D47*
X130770000Y-142185000D03*
X129770000Y-142185000D03*
X129270000Y-142185000D03*
X128270000Y-142185000D03*
D46*
X127070000Y-142185000D03*
X126270000Y-142185000D03*
X126270000Y-142185000D03*
X127070000Y-142185000D03*
D47*
X127770001Y-142185000D03*
X128770000Y-142185000D03*
X130270000Y-142185000D03*
X131269999Y-142185000D03*
D46*
X131970000Y-142185000D03*
X132770000Y-142185000D03*
D48*
X133840000Y-141270001D03*
D49*
X133840000Y-137090000D03*
D48*
X125200000Y-141270001D03*
D49*
X125200000Y-137090000D03*
D20*
X131980000Y-149122500D03*
X131980000Y-150257500D03*
D50*
X69348717Y-147051283D03*
X70151283Y-146248717D03*
D28*
X123890000Y-160460000D03*
X125085000Y-160460000D03*
D31*
X74882566Y-148052566D03*
X74080000Y-147250000D03*
D51*
X130635000Y-150690001D03*
X130634999Y-150040001D03*
X130635000Y-149390001D03*
X128805000Y-149390001D03*
X128805000Y-150040001D03*
X128805000Y-150690001D03*
D52*
X129720000Y-150040000D03*
D37*
X89720000Y-149645000D03*
X89720000Y-150840000D03*
D53*
X126052306Y-145530000D03*
X126052306Y-146030000D03*
X126052306Y-146530000D03*
X126052306Y-147030000D03*
D54*
X126659806Y-147697500D03*
X127159806Y-147697500D03*
X127659806Y-147697500D03*
X128159806Y-147697500D03*
D53*
X128827305Y-147030000D03*
X128827305Y-146530000D03*
X128827305Y-146030000D03*
X128827306Y-145530000D03*
D54*
X128159807Y-144922500D03*
X127659806Y-144922500D03*
X127159806Y-144922500D03*
X126659805Y-144922500D03*
D10*
X127434806Y-146305000D03*
D18*
X90410000Y-145780000D03*
X90410000Y-144645000D03*
D29*
X92035000Y-152980000D03*
X90840000Y-152980000D03*
D55*
X125950000Y-158110000D03*
X123625000Y-158110000D03*
D56*
X75280000Y-146420000D03*
X74435008Y-145575008D03*
D57*
X72179239Y-148640761D03*
X70977158Y-147438680D03*
X70057919Y-148357919D03*
X71260000Y-149560000D03*
D58*
X84801248Y-156911248D03*
X84080000Y-156190000D03*
D37*
X73050000Y-158500000D03*
X73050000Y-159695000D03*
D59*
X85660000Y-154610000D03*
X85660000Y-153590002D03*
D50*
X86450000Y-149820000D03*
X87252566Y-149017434D03*
D26*
X71630000Y-174900000D03*
D18*
X115901250Y-165436250D03*
X115901250Y-164301250D03*
X89320000Y-144305000D03*
X89320000Y-143170000D03*
D60*
X121763600Y-159990000D03*
X121763600Y-159583600D03*
X122170000Y-159990000D03*
X122170000Y-159583600D03*
D29*
X129807500Y-160190000D03*
X128612500Y-160190000D03*
D37*
X72120000Y-141130000D03*
X72120000Y-142325000D03*
D61*
X134930000Y-174830000D03*
X131430000Y-174830000D03*
X127930000Y-174830000D03*
X124430000Y-174830000D03*
X120930000Y-174830000D03*
X117430000Y-174830000D03*
X113930000Y-174830000D03*
X110430000Y-174830000D03*
X106930000Y-174830000D03*
X103430000Y-174830000D03*
X99930000Y-174830000D03*
X96430000Y-174830000D03*
D59*
X84700000Y-153689998D03*
X84700000Y-152670000D03*
D62*
X131860000Y-163800000D03*
X131360000Y-163800000D03*
X130860000Y-163800000D03*
X130860000Y-165360000D03*
X131360000Y-165360000D03*
X131860000Y-165360000D03*
D63*
X131360000Y-164580000D03*
D64*
X119938750Y-165831250D03*
X119938750Y-164881250D03*
X119938750Y-163931250D03*
X117663750Y-163931250D03*
X117663750Y-165831250D03*
D65*
X97832499Y-150636396D03*
X97832499Y-151286396D03*
X97832499Y-151936396D03*
X97832499Y-152586396D03*
X97832499Y-153236396D03*
X97832499Y-153886396D03*
X97832499Y-154536396D03*
X97832499Y-155186396D03*
X97832499Y-155836396D03*
X97832499Y-156486396D03*
X103557499Y-156486396D03*
X103557499Y-155836396D03*
X103557499Y-155186396D03*
X103557499Y-154536396D03*
X103557499Y-153886396D03*
X103557499Y-153236396D03*
X103557499Y-152586396D03*
X103557499Y-151936396D03*
X103557499Y-151286396D03*
X103557499Y-150636396D03*
D66*
X88200000Y-153440000D03*
X88200000Y-154340000D03*
X88200000Y-155240000D03*
X88200000Y-156140000D03*
X89399999Y-156140000D03*
X89399999Y-155240000D03*
X89400000Y-154340000D03*
X89400000Y-153440000D03*
D67*
X79345000Y-135740000D03*
X82045000Y-135740000D03*
D26*
X71620000Y-136980000D03*
D41*
X133220000Y-145790000D03*
D20*
X127470000Y-149952500D03*
X127470000Y-151087500D03*
D18*
X124700000Y-155595000D03*
X124700000Y-154460000D03*
X105424999Y-150028896D03*
X105424999Y-148893896D03*
X130140000Y-145717500D03*
X130140000Y-144582500D03*
M02*
