M48
; DRILL file {KiCad 8.0.5} date 2024-10-05T22:07:00-0500
; FORMAT={-:-/ absolute / metric / decimal}
; #@! TF.CreationDate,2024-10-05T22:07:00-05:00
; #@! TF.GenerationSoftware,Kicad,Pcbnew,8.0.5
; #@! TF.FileFunction,Plated,1,4,PTH
FMAT,2
METRIC
; #@! TA.AperFunction,Plated,PTH,ViaDrill
T1C0.400
; #@! TA.AperFunction,Plated,PTH,ComponentDrill
T2C0.600
; #@! TA.AperFunction,Plated,PTH,ComponentDrill
T3C0.800
; #@! TA.AperFunction,Plated,PTH,ComponentDrill
T4C1.000
; #@! TA.AperFunction,Plated,PTH,ComponentDrill
T5C1.020
; #@! TA.AperFunction,Plated,PTH,ComponentDrill
T6C1.400
; #@! TA.AperFunction,Plated,PTH,ComponentDrill
T7C1.500
; #@! TA.AperFunction,Plated,PTH,ViaDrill
T8C3.000
; #@! TA.AperFunction,Plated,PTH,ViaDrill
T9C4.000
%
G90
G05
T1
X70.911Y-144.572
X71.31Y-147.61
X71.921Y-143.649
X71.99Y-139.95
X72.142Y-147.001
X72.486Y-150.853
X72.807Y-149.854
X72.9Y-160.52
X72.963Y-146.43
X73.482Y-140.802
X73.862Y-145.993
X74.304Y-135.883
X76.06Y-153.15
X76.673Y-139.084
X76.687Y-149.808
X78.018Y-154.349
X78.46Y-139.17
X78.66Y-143.1
X78.68Y-153.6
X78.693Y-151.656
X79.257Y-144.507
X79.5Y-136.71
X79.56Y-142.554
X79.81Y-140.845
X80.035Y-139.0
X80.239Y-141.748
X80.363Y-145.566
X80.447Y-144.57
X80.655Y-150.966
X81.212Y-136.451
X81.897Y-144.577
X82.022Y-143.425
X82.473Y-137.454
X82.803Y-145.035
X83.633Y-140.704
X84.34Y-141.411
X85.05Y-138.2
X85.083Y-140.73
X85.79Y-141.461
X86.366Y-147.042
X86.44Y-145.58
X86.825Y-141.401
X86.96Y-148.59
X87.515Y-140.395
X87.74Y-142.575
X88.32Y-137.96
X89.35Y-136.1
X89.397Y-141.015
X90.426Y-159.91
X90.737Y-136.799
X90.79Y-141.01
X91.33Y-166.58
X91.37Y-171.53
X91.43Y-144.81
X91.726Y-136.651
X91.935Y-160.807
X92.278Y-138.773
X92.756Y-136.333
X93.388Y-137.703
X93.848Y-136.69
X94.07Y-163.28
X94.8Y-136.383
X95.702Y-138.153
X96.436Y-138.838
X96.8Y-159.986
X96.889Y-161.436
X97.143Y-138.131
X97.78Y-137.36
X97.89Y-160.436
X97.955Y-140.875
X98.154Y-139.895
X98.836Y-138.49
X99.17Y-155.186
X99.18Y-153.886
X99.19Y-151.286
X99.22Y-152.586
X99.543Y-137.783
X101.913Y-159.71
X102.136Y-151.936
X102.19Y-154.536
X102.2Y-153.236
X102.2Y-155.836
X102.298Y-156.91
X102.882Y-137.662
X103.492Y-159.411
X103.495Y-157.411
X103.495Y-158.411
X103.495Y-160.411
X103.98Y-149.19
X105.124Y-151.136
X105.461Y-152.077
X106.265Y-152.802
X107.032Y-153.444
X107.42Y-141.05
X107.645Y-158.115
X107.65Y-156.553
X108.615Y-136.18
X110.89Y-153.86
X111.776Y-152.359
X114.285Y-153.99
X116.29Y-167.12
X116.38Y-162.74
X117.084Y-147.633
X117.5Y-166.9
X118.254Y-147.266
X118.38Y-162.38
X119.6Y-149.79
X120.011Y-147.171
X120.81Y-139.795
X121.06Y-150.58
X121.22Y-148.78
X121.678Y-138.234
X121.85Y-139.69
X121.89Y-164.23
X122.12Y-154.52
X122.14Y-155.5
X122.238Y-144.308
X122.77Y-166.37
X122.81Y-160.27
X123.5Y-150.06
X123.54Y-163.02
X123.54Y-146.985
X123.555Y-138.06
X124.65Y-142.88
X125.063Y-146.933
X125.22Y-153.13
X125.28Y-152.155
X125.479Y-144.815
X125.894Y-143.368
X126.07Y-160.54
X126.38Y-152.782
X126.727Y-151.088
X126.883Y-143.51
X127.01Y-145.88
X127.2Y-138.96
X127.89Y-146.71
X127.906Y-149.226
X127.932Y-145.823
X128.045Y-163.4
X128.045Y-165.115
X128.228Y-140.937
X128.905Y-148.084
X129.784Y-138.856
X129.904Y-148.14
X129.91Y-158.988
X130.04Y-168.56
X130.295Y-146.5
X130.36Y-154.25
X130.63Y-140.86
X130.926Y-148.49
X131.212Y-143.839
X131.399Y-151.173
X131.88Y-148.19
X133.213Y-138.752
X133.27Y-139.75
X133.672Y-143.088
X134.09Y-166.25
X135.62Y-162.98
T3
X109.74Y-160.22
X109.74Y-162.22
X109.77Y-155.09
X109.77Y-157.09
X111.74Y-160.22
X111.74Y-162.22
X111.77Y-155.09
X111.77Y-157.09
T4
X70.53Y-153.11
X70.53Y-155.65
X70.53Y-158.19
X70.53Y-160.73
X92.66Y-167.91
X92.66Y-170.45
X92.66Y-172.99
X92.66Y-175.53
X92.685Y-140.928
X92.685Y-143.468
X92.685Y-146.008
X92.685Y-148.548
X98.488Y-135.965
X101.028Y-135.965
X103.568Y-135.965
X106.108Y-135.965
X117.075Y-153.585
X117.075Y-156.125
X117.075Y-158.665
X117.075Y-161.205
X119.615Y-153.585
X119.615Y-156.125
X119.615Y-158.665
X119.615Y-161.205
T5
X111.295Y-150.223
X116.06Y-141.97
T6
X96.43Y-174.83
X99.93Y-174.83
X103.43Y-174.83
X106.93Y-174.83
X110.43Y-174.83
X113.93Y-174.83
X117.43Y-174.83
X120.93Y-174.83
X124.43Y-174.83
X127.93Y-174.83
X131.43Y-174.83
X134.93Y-174.83
T7
X132.96Y-160.26
X133.22Y-145.79
T8
X136.7Y-143.43
X140.28Y-145.584
T9
X134.98Y-169.85
X140.077Y-169.959
T2
X125.2Y-137.39G85X125.2Y-136.79
G05
X125.2Y-141.82G85X125.2Y-140.72
G05
X133.84Y-137.39G85X133.84Y-136.79
G05
X133.84Y-141.82G85X133.84Y-140.72
G05
T3
X134.48Y-154.28G85X134.48Y-151.68
G05
X138.58Y-148.18G85X136.38Y-148.18
G05
X140.28Y-154.08G85X140.28Y-151.88
G05
M30
