%TF.GenerationSoftware,KiCad,Pcbnew,7.0.2-0*%
%TF.CreationDate,2023-05-08T22:11:55-05:00*%
%TF.ProjectId,usb_programmer,7573625f-7072-46f6-9772-616d6d65722e,rev?*%
%TF.SameCoordinates,Original*%
%TF.FileFunction,Drillmap*%
%TF.FilePolarity,Positive*%
%FSLAX45Y45*%
G04 Gerber Fmt 4.5, Leading zero omitted, Abs format (unit mm)*
G04 Created by KiCad (PCBNEW 7.0.2-0) date 2023-05-08 22:11:55*
%MOMM*%
%LPD*%
G01*
G04 APERTURE LIST*
%ADD10C,0.100000*%
%ADD11C,0.200000*%
%ADD12C,0.065000*%
%ADD13C,0.300000*%
G04 APERTURE END LIST*
D10*
X2415000Y-9617500D02*
X4103500Y-9616000D01*
X5698000Y-7349500D02*
X4103500Y-5755000D01*
X2415000Y-5757500D02*
X2415000Y-9617500D01*
X4103500Y-9616000D02*
X5696750Y-8169500D01*
X4103500Y-5755000D02*
X2415000Y-5757500D01*
D11*
D12*
X3076500Y-7373500D02*
X3141500Y-7438500D01*
X3141500Y-7373500D02*
X3076500Y-7438500D01*
X3076500Y-7951500D02*
X3141500Y-8016500D01*
X3141500Y-7951500D02*
X3076500Y-8016500D01*
D13*
X3739000Y-6102000D02*
G75*
G03*
X3739000Y-6102000I-150000J0D01*
G01*
X4954000Y-8370000D02*
G75*
G03*
X4954000Y-8370000I-150000J0D01*
G01*
D11*
X2657619Y-9935024D02*
X2657619Y-9735024D01*
X2657619Y-9735024D02*
X2705238Y-9735024D01*
X2705238Y-9735024D02*
X2733810Y-9744548D01*
X2733810Y-9744548D02*
X2752857Y-9763595D01*
X2752857Y-9763595D02*
X2762381Y-9782643D01*
X2762381Y-9782643D02*
X2771905Y-9820738D01*
X2771905Y-9820738D02*
X2771905Y-9849310D01*
X2771905Y-9849310D02*
X2762381Y-9887405D01*
X2762381Y-9887405D02*
X2752857Y-9906452D01*
X2752857Y-9906452D02*
X2733810Y-9925500D01*
X2733810Y-9925500D02*
X2705238Y-9935024D01*
X2705238Y-9935024D02*
X2657619Y-9935024D01*
X2857619Y-9935024D02*
X2857619Y-9801690D01*
X2857619Y-9839786D02*
X2867143Y-9820738D01*
X2867143Y-9820738D02*
X2876667Y-9811214D01*
X2876667Y-9811214D02*
X2895714Y-9801690D01*
X2895714Y-9801690D02*
X2914762Y-9801690D01*
X2981428Y-9935024D02*
X2981428Y-9801690D01*
X2981428Y-9735024D02*
X2971905Y-9744548D01*
X2971905Y-9744548D02*
X2981428Y-9754071D01*
X2981428Y-9754071D02*
X2990952Y-9744548D01*
X2990952Y-9744548D02*
X2981428Y-9735024D01*
X2981428Y-9735024D02*
X2981428Y-9754071D01*
X3105238Y-9935024D02*
X3086190Y-9925500D01*
X3086190Y-9925500D02*
X3076667Y-9906452D01*
X3076667Y-9906452D02*
X3076667Y-9735024D01*
X3210000Y-9935024D02*
X3190952Y-9925500D01*
X3190952Y-9925500D02*
X3181428Y-9906452D01*
X3181428Y-9906452D02*
X3181428Y-9735024D01*
X3438571Y-9935024D02*
X3438571Y-9735024D01*
X3438571Y-9735024D02*
X3505238Y-9877881D01*
X3505238Y-9877881D02*
X3571905Y-9735024D01*
X3571905Y-9735024D02*
X3571905Y-9935024D01*
X3752857Y-9935024D02*
X3752857Y-9830262D01*
X3752857Y-9830262D02*
X3743333Y-9811214D01*
X3743333Y-9811214D02*
X3724286Y-9801690D01*
X3724286Y-9801690D02*
X3686190Y-9801690D01*
X3686190Y-9801690D02*
X3667143Y-9811214D01*
X3752857Y-9925500D02*
X3733809Y-9935024D01*
X3733809Y-9935024D02*
X3686190Y-9935024D01*
X3686190Y-9935024D02*
X3667143Y-9925500D01*
X3667143Y-9925500D02*
X3657619Y-9906452D01*
X3657619Y-9906452D02*
X3657619Y-9887405D01*
X3657619Y-9887405D02*
X3667143Y-9868357D01*
X3667143Y-9868357D02*
X3686190Y-9858833D01*
X3686190Y-9858833D02*
X3733809Y-9858833D01*
X3733809Y-9858833D02*
X3752857Y-9849310D01*
X3848095Y-9801690D02*
X3848095Y-10001690D01*
X3848095Y-9811214D02*
X3867143Y-9801690D01*
X3867143Y-9801690D02*
X3905238Y-9801690D01*
X3905238Y-9801690D02*
X3924286Y-9811214D01*
X3924286Y-9811214D02*
X3933809Y-9820738D01*
X3933809Y-9820738D02*
X3943333Y-9839786D01*
X3943333Y-9839786D02*
X3943333Y-9896929D01*
X3943333Y-9896929D02*
X3933809Y-9915976D01*
X3933809Y-9915976D02*
X3924286Y-9925500D01*
X3924286Y-9925500D02*
X3905238Y-9935024D01*
X3905238Y-9935024D02*
X3867143Y-9935024D01*
X3867143Y-9935024D02*
X3848095Y-9925500D01*
X4029048Y-9915976D02*
X4038571Y-9925500D01*
X4038571Y-9925500D02*
X4029048Y-9935024D01*
X4029048Y-9935024D02*
X4019524Y-9925500D01*
X4019524Y-9925500D02*
X4029048Y-9915976D01*
X4029048Y-9915976D02*
X4029048Y-9935024D01*
X4029048Y-9811214D02*
X4038571Y-9820738D01*
X4038571Y-9820738D02*
X4029048Y-9830262D01*
X4029048Y-9830262D02*
X4019524Y-9820738D01*
X4019524Y-9820738D02*
X4029048Y-9811214D01*
X4029048Y-9811214D02*
X4029048Y-9830262D01*
D12*
X2345000Y-10230000D02*
X2410000Y-10295000D01*
X2410000Y-10230000D02*
X2345000Y-10295000D01*
D11*
X2695714Y-10155024D02*
X2714762Y-10155024D01*
X2714762Y-10155024D02*
X2733810Y-10164548D01*
X2733810Y-10164548D02*
X2743333Y-10174071D01*
X2743333Y-10174071D02*
X2752857Y-10193119D01*
X2752857Y-10193119D02*
X2762381Y-10231214D01*
X2762381Y-10231214D02*
X2762381Y-10278833D01*
X2762381Y-10278833D02*
X2752857Y-10316929D01*
X2752857Y-10316929D02*
X2743333Y-10335976D01*
X2743333Y-10335976D02*
X2733810Y-10345500D01*
X2733810Y-10345500D02*
X2714762Y-10355024D01*
X2714762Y-10355024D02*
X2695714Y-10355024D01*
X2695714Y-10355024D02*
X2676667Y-10345500D01*
X2676667Y-10345500D02*
X2667143Y-10335976D01*
X2667143Y-10335976D02*
X2657619Y-10316929D01*
X2657619Y-10316929D02*
X2648095Y-10278833D01*
X2648095Y-10278833D02*
X2648095Y-10231214D01*
X2648095Y-10231214D02*
X2657619Y-10193119D01*
X2657619Y-10193119D02*
X2667143Y-10174071D01*
X2667143Y-10174071D02*
X2676667Y-10164548D01*
X2676667Y-10164548D02*
X2695714Y-10155024D01*
X2848095Y-10335976D02*
X2857619Y-10345500D01*
X2857619Y-10345500D02*
X2848095Y-10355024D01*
X2848095Y-10355024D02*
X2838571Y-10345500D01*
X2838571Y-10345500D02*
X2848095Y-10335976D01*
X2848095Y-10335976D02*
X2848095Y-10355024D01*
X3029048Y-10155024D02*
X2990952Y-10155024D01*
X2990952Y-10155024D02*
X2971905Y-10164548D01*
X2971905Y-10164548D02*
X2962381Y-10174071D01*
X2962381Y-10174071D02*
X2943333Y-10202643D01*
X2943333Y-10202643D02*
X2933809Y-10240738D01*
X2933809Y-10240738D02*
X2933809Y-10316929D01*
X2933809Y-10316929D02*
X2943333Y-10335976D01*
X2943333Y-10335976D02*
X2952857Y-10345500D01*
X2952857Y-10345500D02*
X2971905Y-10355024D01*
X2971905Y-10355024D02*
X3010000Y-10355024D01*
X3010000Y-10355024D02*
X3029048Y-10345500D01*
X3029048Y-10345500D02*
X3038571Y-10335976D01*
X3038571Y-10335976D02*
X3048095Y-10316929D01*
X3048095Y-10316929D02*
X3048095Y-10269310D01*
X3048095Y-10269310D02*
X3038571Y-10250262D01*
X3038571Y-10250262D02*
X3029048Y-10240738D01*
X3029048Y-10240738D02*
X3010000Y-10231214D01*
X3010000Y-10231214D02*
X2971905Y-10231214D01*
X2971905Y-10231214D02*
X2952857Y-10240738D01*
X2952857Y-10240738D02*
X2943333Y-10250262D01*
X2943333Y-10250262D02*
X2933809Y-10269310D01*
X3229048Y-10155024D02*
X3133809Y-10155024D01*
X3133809Y-10155024D02*
X3124286Y-10250262D01*
X3124286Y-10250262D02*
X3133809Y-10240738D01*
X3133809Y-10240738D02*
X3152857Y-10231214D01*
X3152857Y-10231214D02*
X3200476Y-10231214D01*
X3200476Y-10231214D02*
X3219524Y-10240738D01*
X3219524Y-10240738D02*
X3229048Y-10250262D01*
X3229048Y-10250262D02*
X3238571Y-10269310D01*
X3238571Y-10269310D02*
X3238571Y-10316929D01*
X3238571Y-10316929D02*
X3229048Y-10335976D01*
X3229048Y-10335976D02*
X3219524Y-10345500D01*
X3219524Y-10345500D02*
X3200476Y-10355024D01*
X3200476Y-10355024D02*
X3152857Y-10355024D01*
X3152857Y-10355024D02*
X3133809Y-10345500D01*
X3133809Y-10345500D02*
X3124286Y-10335976D01*
X3362381Y-10155024D02*
X3381429Y-10155024D01*
X3381429Y-10155024D02*
X3400476Y-10164548D01*
X3400476Y-10164548D02*
X3410000Y-10174071D01*
X3410000Y-10174071D02*
X3419524Y-10193119D01*
X3419524Y-10193119D02*
X3429048Y-10231214D01*
X3429048Y-10231214D02*
X3429048Y-10278833D01*
X3429048Y-10278833D02*
X3419524Y-10316929D01*
X3419524Y-10316929D02*
X3410000Y-10335976D01*
X3410000Y-10335976D02*
X3400476Y-10345500D01*
X3400476Y-10345500D02*
X3381429Y-10355024D01*
X3381429Y-10355024D02*
X3362381Y-10355024D01*
X3362381Y-10355024D02*
X3343333Y-10345500D01*
X3343333Y-10345500D02*
X3333809Y-10335976D01*
X3333809Y-10335976D02*
X3324286Y-10316929D01*
X3324286Y-10316929D02*
X3314762Y-10278833D01*
X3314762Y-10278833D02*
X3314762Y-10231214D01*
X3314762Y-10231214D02*
X3324286Y-10193119D01*
X3324286Y-10193119D02*
X3333809Y-10174071D01*
X3333809Y-10174071D02*
X3343333Y-10164548D01*
X3343333Y-10164548D02*
X3362381Y-10155024D01*
X3514762Y-10355024D02*
X3514762Y-10221690D01*
X3514762Y-10240738D02*
X3524286Y-10231214D01*
X3524286Y-10231214D02*
X3543333Y-10221690D01*
X3543333Y-10221690D02*
X3571905Y-10221690D01*
X3571905Y-10221690D02*
X3590952Y-10231214D01*
X3590952Y-10231214D02*
X3600476Y-10250262D01*
X3600476Y-10250262D02*
X3600476Y-10355024D01*
X3600476Y-10250262D02*
X3610000Y-10231214D01*
X3610000Y-10231214D02*
X3629048Y-10221690D01*
X3629048Y-10221690D02*
X3657619Y-10221690D01*
X3657619Y-10221690D02*
X3676667Y-10231214D01*
X3676667Y-10231214D02*
X3686190Y-10250262D01*
X3686190Y-10250262D02*
X3686190Y-10355024D01*
X3781429Y-10355024D02*
X3781429Y-10221690D01*
X3781429Y-10240738D02*
X3790952Y-10231214D01*
X3790952Y-10231214D02*
X3810000Y-10221690D01*
X3810000Y-10221690D02*
X3838571Y-10221690D01*
X3838571Y-10221690D02*
X3857619Y-10231214D01*
X3857619Y-10231214D02*
X3867143Y-10250262D01*
X3867143Y-10250262D02*
X3867143Y-10355024D01*
X3867143Y-10250262D02*
X3876667Y-10231214D01*
X3876667Y-10231214D02*
X3895714Y-10221690D01*
X3895714Y-10221690D02*
X3924286Y-10221690D01*
X3924286Y-10221690D02*
X3943333Y-10231214D01*
X3943333Y-10231214D02*
X3952857Y-10250262D01*
X3952857Y-10250262D02*
X3952857Y-10355024D01*
X4343333Y-10145500D02*
X4171905Y-10402643D01*
X4600476Y-10155024D02*
X4619524Y-10155024D01*
X4619524Y-10155024D02*
X4638572Y-10164548D01*
X4638572Y-10164548D02*
X4648095Y-10174071D01*
X4648095Y-10174071D02*
X4657619Y-10193119D01*
X4657619Y-10193119D02*
X4667143Y-10231214D01*
X4667143Y-10231214D02*
X4667143Y-10278833D01*
X4667143Y-10278833D02*
X4657619Y-10316929D01*
X4657619Y-10316929D02*
X4648095Y-10335976D01*
X4648095Y-10335976D02*
X4638572Y-10345500D01*
X4638572Y-10345500D02*
X4619524Y-10355024D01*
X4619524Y-10355024D02*
X4600476Y-10355024D01*
X4600476Y-10355024D02*
X4581429Y-10345500D01*
X4581429Y-10345500D02*
X4571905Y-10335976D01*
X4571905Y-10335976D02*
X4562381Y-10316929D01*
X4562381Y-10316929D02*
X4552857Y-10278833D01*
X4552857Y-10278833D02*
X4552857Y-10231214D01*
X4552857Y-10231214D02*
X4562381Y-10193119D01*
X4562381Y-10193119D02*
X4571905Y-10174071D01*
X4571905Y-10174071D02*
X4581429Y-10164548D01*
X4581429Y-10164548D02*
X4600476Y-10155024D01*
X4752857Y-10335976D02*
X4762381Y-10345500D01*
X4762381Y-10345500D02*
X4752857Y-10355024D01*
X4752857Y-10355024D02*
X4743334Y-10345500D01*
X4743334Y-10345500D02*
X4752857Y-10335976D01*
X4752857Y-10335976D02*
X4752857Y-10355024D01*
X4886191Y-10155024D02*
X4905238Y-10155024D01*
X4905238Y-10155024D02*
X4924286Y-10164548D01*
X4924286Y-10164548D02*
X4933810Y-10174071D01*
X4933810Y-10174071D02*
X4943334Y-10193119D01*
X4943334Y-10193119D02*
X4952857Y-10231214D01*
X4952857Y-10231214D02*
X4952857Y-10278833D01*
X4952857Y-10278833D02*
X4943334Y-10316929D01*
X4943334Y-10316929D02*
X4933810Y-10335976D01*
X4933810Y-10335976D02*
X4924286Y-10345500D01*
X4924286Y-10345500D02*
X4905238Y-10355024D01*
X4905238Y-10355024D02*
X4886191Y-10355024D01*
X4886191Y-10355024D02*
X4867143Y-10345500D01*
X4867143Y-10345500D02*
X4857619Y-10335976D01*
X4857619Y-10335976D02*
X4848095Y-10316929D01*
X4848095Y-10316929D02*
X4838572Y-10278833D01*
X4838572Y-10278833D02*
X4838572Y-10231214D01*
X4838572Y-10231214D02*
X4848095Y-10193119D01*
X4848095Y-10193119D02*
X4857619Y-10174071D01*
X4857619Y-10174071D02*
X4867143Y-10164548D01*
X4867143Y-10164548D02*
X4886191Y-10155024D01*
X5029048Y-10174071D02*
X5038572Y-10164548D01*
X5038572Y-10164548D02*
X5057619Y-10155024D01*
X5057619Y-10155024D02*
X5105238Y-10155024D01*
X5105238Y-10155024D02*
X5124286Y-10164548D01*
X5124286Y-10164548D02*
X5133810Y-10174071D01*
X5133810Y-10174071D02*
X5143334Y-10193119D01*
X5143334Y-10193119D02*
X5143334Y-10212167D01*
X5143334Y-10212167D02*
X5133810Y-10240738D01*
X5133810Y-10240738D02*
X5019524Y-10355024D01*
X5019524Y-10355024D02*
X5143334Y-10355024D01*
X5324286Y-10155024D02*
X5229048Y-10155024D01*
X5229048Y-10155024D02*
X5219524Y-10250262D01*
X5219524Y-10250262D02*
X5229048Y-10240738D01*
X5229048Y-10240738D02*
X5248095Y-10231214D01*
X5248095Y-10231214D02*
X5295715Y-10231214D01*
X5295715Y-10231214D02*
X5314762Y-10240738D01*
X5314762Y-10240738D02*
X5324286Y-10250262D01*
X5324286Y-10250262D02*
X5333810Y-10269310D01*
X5333810Y-10269310D02*
X5333810Y-10316929D01*
X5333810Y-10316929D02*
X5324286Y-10335976D01*
X5324286Y-10335976D02*
X5314762Y-10345500D01*
X5314762Y-10345500D02*
X5295715Y-10355024D01*
X5295715Y-10355024D02*
X5248095Y-10355024D01*
X5248095Y-10355024D02*
X5229048Y-10345500D01*
X5229048Y-10345500D02*
X5219524Y-10335976D01*
X5505238Y-10155024D02*
X5467143Y-10155024D01*
X5467143Y-10155024D02*
X5448095Y-10164548D01*
X5448095Y-10164548D02*
X5438572Y-10174071D01*
X5438572Y-10174071D02*
X5419524Y-10202643D01*
X5419524Y-10202643D02*
X5410000Y-10240738D01*
X5410000Y-10240738D02*
X5410000Y-10316929D01*
X5410000Y-10316929D02*
X5419524Y-10335976D01*
X5419524Y-10335976D02*
X5429048Y-10345500D01*
X5429048Y-10345500D02*
X5448095Y-10355024D01*
X5448095Y-10355024D02*
X5486191Y-10355024D01*
X5486191Y-10355024D02*
X5505238Y-10345500D01*
X5505238Y-10345500D02*
X5514762Y-10335976D01*
X5514762Y-10335976D02*
X5524286Y-10316929D01*
X5524286Y-10316929D02*
X5524286Y-10269310D01*
X5524286Y-10269310D02*
X5514762Y-10250262D01*
X5514762Y-10250262D02*
X5505238Y-10240738D01*
X5505238Y-10240738D02*
X5486191Y-10231214D01*
X5486191Y-10231214D02*
X5448095Y-10231214D01*
X5448095Y-10231214D02*
X5429048Y-10240738D01*
X5429048Y-10240738D02*
X5419524Y-10250262D01*
X5419524Y-10250262D02*
X5410000Y-10269310D01*
X5600476Y-10155024D02*
X5600476Y-10193119D01*
X5676667Y-10155024D02*
X5676667Y-10193119D01*
X5971905Y-10431214D02*
X5962381Y-10421690D01*
X5962381Y-10421690D02*
X5943334Y-10393119D01*
X5943334Y-10393119D02*
X5933810Y-10374071D01*
X5933810Y-10374071D02*
X5924286Y-10345500D01*
X5924286Y-10345500D02*
X5914762Y-10297881D01*
X5914762Y-10297881D02*
X5914762Y-10259786D01*
X5914762Y-10259786D02*
X5924286Y-10212167D01*
X5924286Y-10212167D02*
X5933810Y-10183595D01*
X5933810Y-10183595D02*
X5943334Y-10164548D01*
X5943334Y-10164548D02*
X5962381Y-10135976D01*
X5962381Y-10135976D02*
X5971905Y-10126452D01*
X6038572Y-10174071D02*
X6048095Y-10164548D01*
X6048095Y-10164548D02*
X6067143Y-10155024D01*
X6067143Y-10155024D02*
X6114762Y-10155024D01*
X6114762Y-10155024D02*
X6133810Y-10164548D01*
X6133810Y-10164548D02*
X6143334Y-10174071D01*
X6143334Y-10174071D02*
X6152857Y-10193119D01*
X6152857Y-10193119D02*
X6152857Y-10212167D01*
X6152857Y-10212167D02*
X6143334Y-10240738D01*
X6143334Y-10240738D02*
X6029048Y-10355024D01*
X6029048Y-10355024D02*
X6152857Y-10355024D01*
X6390953Y-10355024D02*
X6390953Y-10155024D01*
X6476667Y-10355024D02*
X6476667Y-10250262D01*
X6476667Y-10250262D02*
X6467143Y-10231214D01*
X6467143Y-10231214D02*
X6448096Y-10221690D01*
X6448096Y-10221690D02*
X6419524Y-10221690D01*
X6419524Y-10221690D02*
X6400476Y-10231214D01*
X6400476Y-10231214D02*
X6390953Y-10240738D01*
X6600476Y-10355024D02*
X6581429Y-10345500D01*
X6581429Y-10345500D02*
X6571905Y-10335976D01*
X6571905Y-10335976D02*
X6562381Y-10316929D01*
X6562381Y-10316929D02*
X6562381Y-10259786D01*
X6562381Y-10259786D02*
X6571905Y-10240738D01*
X6571905Y-10240738D02*
X6581429Y-10231214D01*
X6581429Y-10231214D02*
X6600476Y-10221690D01*
X6600476Y-10221690D02*
X6629048Y-10221690D01*
X6629048Y-10221690D02*
X6648096Y-10231214D01*
X6648096Y-10231214D02*
X6657619Y-10240738D01*
X6657619Y-10240738D02*
X6667143Y-10259786D01*
X6667143Y-10259786D02*
X6667143Y-10316929D01*
X6667143Y-10316929D02*
X6657619Y-10335976D01*
X6657619Y-10335976D02*
X6648096Y-10345500D01*
X6648096Y-10345500D02*
X6629048Y-10355024D01*
X6629048Y-10355024D02*
X6600476Y-10355024D01*
X6781429Y-10355024D02*
X6762381Y-10345500D01*
X6762381Y-10345500D02*
X6752857Y-10326452D01*
X6752857Y-10326452D02*
X6752857Y-10155024D01*
X6933810Y-10345500D02*
X6914762Y-10355024D01*
X6914762Y-10355024D02*
X6876667Y-10355024D01*
X6876667Y-10355024D02*
X6857619Y-10345500D01*
X6857619Y-10345500D02*
X6848096Y-10326452D01*
X6848096Y-10326452D02*
X6848096Y-10250262D01*
X6848096Y-10250262D02*
X6857619Y-10231214D01*
X6857619Y-10231214D02*
X6876667Y-10221690D01*
X6876667Y-10221690D02*
X6914762Y-10221690D01*
X6914762Y-10221690D02*
X6933810Y-10231214D01*
X6933810Y-10231214D02*
X6943334Y-10250262D01*
X6943334Y-10250262D02*
X6943334Y-10269310D01*
X6943334Y-10269310D02*
X6848096Y-10288357D01*
X7019524Y-10345500D02*
X7038572Y-10355024D01*
X7038572Y-10355024D02*
X7076667Y-10355024D01*
X7076667Y-10355024D02*
X7095715Y-10345500D01*
X7095715Y-10345500D02*
X7105238Y-10326452D01*
X7105238Y-10326452D02*
X7105238Y-10316929D01*
X7105238Y-10316929D02*
X7095715Y-10297881D01*
X7095715Y-10297881D02*
X7076667Y-10288357D01*
X7076667Y-10288357D02*
X7048096Y-10288357D01*
X7048096Y-10288357D02*
X7029048Y-10278833D01*
X7029048Y-10278833D02*
X7019524Y-10259786D01*
X7019524Y-10259786D02*
X7019524Y-10250262D01*
X7019524Y-10250262D02*
X7029048Y-10231214D01*
X7029048Y-10231214D02*
X7048096Y-10221690D01*
X7048096Y-10221690D02*
X7076667Y-10221690D01*
X7076667Y-10221690D02*
X7095715Y-10231214D01*
X7171905Y-10431214D02*
X7181429Y-10421690D01*
X7181429Y-10421690D02*
X7200477Y-10393119D01*
X7200477Y-10393119D02*
X7210000Y-10374071D01*
X7210000Y-10374071D02*
X7219524Y-10345500D01*
X7219524Y-10345500D02*
X7229048Y-10297881D01*
X7229048Y-10297881D02*
X7229048Y-10259786D01*
X7229048Y-10259786D02*
X7219524Y-10212167D01*
X7219524Y-10212167D02*
X7210000Y-10183595D01*
X7210000Y-10183595D02*
X7200477Y-10164548D01*
X7200477Y-10164548D02*
X7181429Y-10135976D01*
X7181429Y-10135976D02*
X7171905Y-10126452D01*
X7533810Y-10431214D02*
X7524286Y-10421690D01*
X7524286Y-10421690D02*
X7505238Y-10393119D01*
X7505238Y-10393119D02*
X7495715Y-10374071D01*
X7495715Y-10374071D02*
X7486191Y-10345500D01*
X7486191Y-10345500D02*
X7476667Y-10297881D01*
X7476667Y-10297881D02*
X7476667Y-10259786D01*
X7476667Y-10259786D02*
X7486191Y-10212167D01*
X7486191Y-10212167D02*
X7495715Y-10183595D01*
X7495715Y-10183595D02*
X7505238Y-10164548D01*
X7505238Y-10164548D02*
X7524286Y-10135976D01*
X7524286Y-10135976D02*
X7533810Y-10126452D01*
X7610000Y-10221690D02*
X7610000Y-10355024D01*
X7610000Y-10240738D02*
X7619524Y-10231214D01*
X7619524Y-10231214D02*
X7638572Y-10221690D01*
X7638572Y-10221690D02*
X7667143Y-10221690D01*
X7667143Y-10221690D02*
X7686191Y-10231214D01*
X7686191Y-10231214D02*
X7695715Y-10250262D01*
X7695715Y-10250262D02*
X7695715Y-10355024D01*
X7819524Y-10355024D02*
X7800477Y-10345500D01*
X7800477Y-10345500D02*
X7790953Y-10335976D01*
X7790953Y-10335976D02*
X7781429Y-10316929D01*
X7781429Y-10316929D02*
X7781429Y-10259786D01*
X7781429Y-10259786D02*
X7790953Y-10240738D01*
X7790953Y-10240738D02*
X7800477Y-10231214D01*
X7800477Y-10231214D02*
X7819524Y-10221690D01*
X7819524Y-10221690D02*
X7848096Y-10221690D01*
X7848096Y-10221690D02*
X7867143Y-10231214D01*
X7867143Y-10231214D02*
X7876667Y-10240738D01*
X7876667Y-10240738D02*
X7886191Y-10259786D01*
X7886191Y-10259786D02*
X7886191Y-10316929D01*
X7886191Y-10316929D02*
X7876667Y-10335976D01*
X7876667Y-10335976D02*
X7867143Y-10345500D01*
X7867143Y-10345500D02*
X7848096Y-10355024D01*
X7848096Y-10355024D02*
X7819524Y-10355024D01*
X7943334Y-10221690D02*
X8019524Y-10221690D01*
X7971905Y-10155024D02*
X7971905Y-10326452D01*
X7971905Y-10326452D02*
X7981429Y-10345500D01*
X7981429Y-10345500D02*
X8000477Y-10355024D01*
X8000477Y-10355024D02*
X8019524Y-10355024D01*
X8238572Y-10221690D02*
X8238572Y-10421690D01*
X8238572Y-10231214D02*
X8257619Y-10221690D01*
X8257619Y-10221690D02*
X8295715Y-10221690D01*
X8295715Y-10221690D02*
X8314762Y-10231214D01*
X8314762Y-10231214D02*
X8324286Y-10240738D01*
X8324286Y-10240738D02*
X8333810Y-10259786D01*
X8333810Y-10259786D02*
X8333810Y-10316929D01*
X8333810Y-10316929D02*
X8324286Y-10335976D01*
X8324286Y-10335976D02*
X8314762Y-10345500D01*
X8314762Y-10345500D02*
X8295715Y-10355024D01*
X8295715Y-10355024D02*
X8257619Y-10355024D01*
X8257619Y-10355024D02*
X8238572Y-10345500D01*
X8448096Y-10355024D02*
X8429048Y-10345500D01*
X8429048Y-10345500D02*
X8419524Y-10326452D01*
X8419524Y-10326452D02*
X8419524Y-10155024D01*
X8610001Y-10355024D02*
X8610001Y-10250262D01*
X8610001Y-10250262D02*
X8600477Y-10231214D01*
X8600477Y-10231214D02*
X8581429Y-10221690D01*
X8581429Y-10221690D02*
X8543334Y-10221690D01*
X8543334Y-10221690D02*
X8524286Y-10231214D01*
X8610001Y-10345500D02*
X8590953Y-10355024D01*
X8590953Y-10355024D02*
X8543334Y-10355024D01*
X8543334Y-10355024D02*
X8524286Y-10345500D01*
X8524286Y-10345500D02*
X8514762Y-10326452D01*
X8514762Y-10326452D02*
X8514762Y-10307405D01*
X8514762Y-10307405D02*
X8524286Y-10288357D01*
X8524286Y-10288357D02*
X8543334Y-10278833D01*
X8543334Y-10278833D02*
X8590953Y-10278833D01*
X8590953Y-10278833D02*
X8610001Y-10269310D01*
X8676667Y-10221690D02*
X8752858Y-10221690D01*
X8705239Y-10155024D02*
X8705239Y-10326452D01*
X8705239Y-10326452D02*
X8714762Y-10345500D01*
X8714762Y-10345500D02*
X8733810Y-10355024D01*
X8733810Y-10355024D02*
X8752858Y-10355024D01*
X8895715Y-10345500D02*
X8876667Y-10355024D01*
X8876667Y-10355024D02*
X8838572Y-10355024D01*
X8838572Y-10355024D02*
X8819524Y-10345500D01*
X8819524Y-10345500D02*
X8810001Y-10326452D01*
X8810001Y-10326452D02*
X8810001Y-10250262D01*
X8810001Y-10250262D02*
X8819524Y-10231214D01*
X8819524Y-10231214D02*
X8838572Y-10221690D01*
X8838572Y-10221690D02*
X8876667Y-10221690D01*
X8876667Y-10221690D02*
X8895715Y-10231214D01*
X8895715Y-10231214D02*
X8905239Y-10250262D01*
X8905239Y-10250262D02*
X8905239Y-10269310D01*
X8905239Y-10269310D02*
X8810001Y-10288357D01*
X9076667Y-10355024D02*
X9076667Y-10155024D01*
X9076667Y-10345500D02*
X9057620Y-10355024D01*
X9057620Y-10355024D02*
X9019524Y-10355024D01*
X9019524Y-10355024D02*
X9000477Y-10345500D01*
X9000477Y-10345500D02*
X8990953Y-10335976D01*
X8990953Y-10335976D02*
X8981429Y-10316929D01*
X8981429Y-10316929D02*
X8981429Y-10259786D01*
X8981429Y-10259786D02*
X8990953Y-10240738D01*
X8990953Y-10240738D02*
X9000477Y-10231214D01*
X9000477Y-10231214D02*
X9019524Y-10221690D01*
X9019524Y-10221690D02*
X9057620Y-10221690D01*
X9057620Y-10221690D02*
X9076667Y-10231214D01*
X9152858Y-10431214D02*
X9162382Y-10421690D01*
X9162382Y-10421690D02*
X9181429Y-10393119D01*
X9181429Y-10393119D02*
X9190953Y-10374071D01*
X9190953Y-10374071D02*
X9200477Y-10345500D01*
X9200477Y-10345500D02*
X9210001Y-10297881D01*
X9210001Y-10297881D02*
X9210001Y-10259786D01*
X9210001Y-10259786D02*
X9200477Y-10212167D01*
X9200477Y-10212167D02*
X9190953Y-10183595D01*
X9190953Y-10183595D02*
X9181429Y-10164548D01*
X9181429Y-10164548D02*
X9162382Y-10135976D01*
X9162382Y-10135976D02*
X9152858Y-10126452D01*
X2410000Y-10526500D02*
G75*
G03*
X2410000Y-10526500I-100000J0D01*
G01*
X2638571Y-10419024D02*
X2762381Y-10419024D01*
X2762381Y-10419024D02*
X2695714Y-10495214D01*
X2695714Y-10495214D02*
X2724286Y-10495214D01*
X2724286Y-10495214D02*
X2743333Y-10504738D01*
X2743333Y-10504738D02*
X2752857Y-10514262D01*
X2752857Y-10514262D02*
X2762381Y-10533310D01*
X2762381Y-10533310D02*
X2762381Y-10580929D01*
X2762381Y-10580929D02*
X2752857Y-10599976D01*
X2752857Y-10599976D02*
X2743333Y-10609500D01*
X2743333Y-10609500D02*
X2724286Y-10619024D01*
X2724286Y-10619024D02*
X2667143Y-10619024D01*
X2667143Y-10619024D02*
X2648095Y-10609500D01*
X2648095Y-10609500D02*
X2638571Y-10599976D01*
X2848095Y-10599976D02*
X2857619Y-10609500D01*
X2857619Y-10609500D02*
X2848095Y-10619024D01*
X2848095Y-10619024D02*
X2838571Y-10609500D01*
X2838571Y-10609500D02*
X2848095Y-10599976D01*
X2848095Y-10599976D02*
X2848095Y-10619024D01*
X2981428Y-10419024D02*
X3000476Y-10419024D01*
X3000476Y-10419024D02*
X3019524Y-10428548D01*
X3019524Y-10428548D02*
X3029048Y-10438071D01*
X3029048Y-10438071D02*
X3038571Y-10457119D01*
X3038571Y-10457119D02*
X3048095Y-10495214D01*
X3048095Y-10495214D02*
X3048095Y-10542833D01*
X3048095Y-10542833D02*
X3038571Y-10580929D01*
X3038571Y-10580929D02*
X3029048Y-10599976D01*
X3029048Y-10599976D02*
X3019524Y-10609500D01*
X3019524Y-10609500D02*
X3000476Y-10619024D01*
X3000476Y-10619024D02*
X2981428Y-10619024D01*
X2981428Y-10619024D02*
X2962381Y-10609500D01*
X2962381Y-10609500D02*
X2952857Y-10599976D01*
X2952857Y-10599976D02*
X2943333Y-10580929D01*
X2943333Y-10580929D02*
X2933809Y-10542833D01*
X2933809Y-10542833D02*
X2933809Y-10495214D01*
X2933809Y-10495214D02*
X2943333Y-10457119D01*
X2943333Y-10457119D02*
X2952857Y-10438071D01*
X2952857Y-10438071D02*
X2962381Y-10428548D01*
X2962381Y-10428548D02*
X2981428Y-10419024D01*
X3171905Y-10419024D02*
X3190952Y-10419024D01*
X3190952Y-10419024D02*
X3210000Y-10428548D01*
X3210000Y-10428548D02*
X3219524Y-10438071D01*
X3219524Y-10438071D02*
X3229048Y-10457119D01*
X3229048Y-10457119D02*
X3238571Y-10495214D01*
X3238571Y-10495214D02*
X3238571Y-10542833D01*
X3238571Y-10542833D02*
X3229048Y-10580929D01*
X3229048Y-10580929D02*
X3219524Y-10599976D01*
X3219524Y-10599976D02*
X3210000Y-10609500D01*
X3210000Y-10609500D02*
X3190952Y-10619024D01*
X3190952Y-10619024D02*
X3171905Y-10619024D01*
X3171905Y-10619024D02*
X3152857Y-10609500D01*
X3152857Y-10609500D02*
X3143333Y-10599976D01*
X3143333Y-10599976D02*
X3133809Y-10580929D01*
X3133809Y-10580929D02*
X3124286Y-10542833D01*
X3124286Y-10542833D02*
X3124286Y-10495214D01*
X3124286Y-10495214D02*
X3133809Y-10457119D01*
X3133809Y-10457119D02*
X3143333Y-10438071D01*
X3143333Y-10438071D02*
X3152857Y-10428548D01*
X3152857Y-10428548D02*
X3171905Y-10419024D01*
X3362381Y-10419024D02*
X3381429Y-10419024D01*
X3381429Y-10419024D02*
X3400476Y-10428548D01*
X3400476Y-10428548D02*
X3410000Y-10438071D01*
X3410000Y-10438071D02*
X3419524Y-10457119D01*
X3419524Y-10457119D02*
X3429048Y-10495214D01*
X3429048Y-10495214D02*
X3429048Y-10542833D01*
X3429048Y-10542833D02*
X3419524Y-10580929D01*
X3419524Y-10580929D02*
X3410000Y-10599976D01*
X3410000Y-10599976D02*
X3400476Y-10609500D01*
X3400476Y-10609500D02*
X3381429Y-10619024D01*
X3381429Y-10619024D02*
X3362381Y-10619024D01*
X3362381Y-10619024D02*
X3343333Y-10609500D01*
X3343333Y-10609500D02*
X3333809Y-10599976D01*
X3333809Y-10599976D02*
X3324286Y-10580929D01*
X3324286Y-10580929D02*
X3314762Y-10542833D01*
X3314762Y-10542833D02*
X3314762Y-10495214D01*
X3314762Y-10495214D02*
X3324286Y-10457119D01*
X3324286Y-10457119D02*
X3333809Y-10438071D01*
X3333809Y-10438071D02*
X3343333Y-10428548D01*
X3343333Y-10428548D02*
X3362381Y-10419024D01*
X3514762Y-10619024D02*
X3514762Y-10485690D01*
X3514762Y-10504738D02*
X3524286Y-10495214D01*
X3524286Y-10495214D02*
X3543333Y-10485690D01*
X3543333Y-10485690D02*
X3571905Y-10485690D01*
X3571905Y-10485690D02*
X3590952Y-10495214D01*
X3590952Y-10495214D02*
X3600476Y-10514262D01*
X3600476Y-10514262D02*
X3600476Y-10619024D01*
X3600476Y-10514262D02*
X3610000Y-10495214D01*
X3610000Y-10495214D02*
X3629048Y-10485690D01*
X3629048Y-10485690D02*
X3657619Y-10485690D01*
X3657619Y-10485690D02*
X3676667Y-10495214D01*
X3676667Y-10495214D02*
X3686190Y-10514262D01*
X3686190Y-10514262D02*
X3686190Y-10619024D01*
X3781429Y-10619024D02*
X3781429Y-10485690D01*
X3781429Y-10504738D02*
X3790952Y-10495214D01*
X3790952Y-10495214D02*
X3810000Y-10485690D01*
X3810000Y-10485690D02*
X3838571Y-10485690D01*
X3838571Y-10485690D02*
X3857619Y-10495214D01*
X3857619Y-10495214D02*
X3867143Y-10514262D01*
X3867143Y-10514262D02*
X3867143Y-10619024D01*
X3867143Y-10514262D02*
X3876667Y-10495214D01*
X3876667Y-10495214D02*
X3895714Y-10485690D01*
X3895714Y-10485690D02*
X3924286Y-10485690D01*
X3924286Y-10485690D02*
X3943333Y-10495214D01*
X3943333Y-10495214D02*
X3952857Y-10514262D01*
X3952857Y-10514262D02*
X3952857Y-10619024D01*
X4343333Y-10409500D02*
X4171905Y-10666643D01*
X4600476Y-10419024D02*
X4619524Y-10419024D01*
X4619524Y-10419024D02*
X4638572Y-10428548D01*
X4638572Y-10428548D02*
X4648095Y-10438071D01*
X4648095Y-10438071D02*
X4657619Y-10457119D01*
X4657619Y-10457119D02*
X4667143Y-10495214D01*
X4667143Y-10495214D02*
X4667143Y-10542833D01*
X4667143Y-10542833D02*
X4657619Y-10580929D01*
X4657619Y-10580929D02*
X4648095Y-10599976D01*
X4648095Y-10599976D02*
X4638572Y-10609500D01*
X4638572Y-10609500D02*
X4619524Y-10619024D01*
X4619524Y-10619024D02*
X4600476Y-10619024D01*
X4600476Y-10619024D02*
X4581429Y-10609500D01*
X4581429Y-10609500D02*
X4571905Y-10599976D01*
X4571905Y-10599976D02*
X4562381Y-10580929D01*
X4562381Y-10580929D02*
X4552857Y-10542833D01*
X4552857Y-10542833D02*
X4552857Y-10495214D01*
X4552857Y-10495214D02*
X4562381Y-10457119D01*
X4562381Y-10457119D02*
X4571905Y-10438071D01*
X4571905Y-10438071D02*
X4581429Y-10428548D01*
X4581429Y-10428548D02*
X4600476Y-10419024D01*
X4752857Y-10599976D02*
X4762381Y-10609500D01*
X4762381Y-10609500D02*
X4752857Y-10619024D01*
X4752857Y-10619024D02*
X4743334Y-10609500D01*
X4743334Y-10609500D02*
X4752857Y-10599976D01*
X4752857Y-10599976D02*
X4752857Y-10619024D01*
X4952857Y-10619024D02*
X4838572Y-10619024D01*
X4895714Y-10619024D02*
X4895714Y-10419024D01*
X4895714Y-10419024D02*
X4876667Y-10447595D01*
X4876667Y-10447595D02*
X4857619Y-10466643D01*
X4857619Y-10466643D02*
X4838572Y-10476167D01*
X5143334Y-10619024D02*
X5029048Y-10619024D01*
X5086191Y-10619024D02*
X5086191Y-10419024D01*
X5086191Y-10419024D02*
X5067143Y-10447595D01*
X5067143Y-10447595D02*
X5048095Y-10466643D01*
X5048095Y-10466643D02*
X5029048Y-10476167D01*
X5257619Y-10504738D02*
X5238572Y-10495214D01*
X5238572Y-10495214D02*
X5229048Y-10485690D01*
X5229048Y-10485690D02*
X5219524Y-10466643D01*
X5219524Y-10466643D02*
X5219524Y-10457119D01*
X5219524Y-10457119D02*
X5229048Y-10438071D01*
X5229048Y-10438071D02*
X5238572Y-10428548D01*
X5238572Y-10428548D02*
X5257619Y-10419024D01*
X5257619Y-10419024D02*
X5295715Y-10419024D01*
X5295715Y-10419024D02*
X5314762Y-10428548D01*
X5314762Y-10428548D02*
X5324286Y-10438071D01*
X5324286Y-10438071D02*
X5333810Y-10457119D01*
X5333810Y-10457119D02*
X5333810Y-10466643D01*
X5333810Y-10466643D02*
X5324286Y-10485690D01*
X5324286Y-10485690D02*
X5314762Y-10495214D01*
X5314762Y-10495214D02*
X5295715Y-10504738D01*
X5295715Y-10504738D02*
X5257619Y-10504738D01*
X5257619Y-10504738D02*
X5238572Y-10514262D01*
X5238572Y-10514262D02*
X5229048Y-10523786D01*
X5229048Y-10523786D02*
X5219524Y-10542833D01*
X5219524Y-10542833D02*
X5219524Y-10580929D01*
X5219524Y-10580929D02*
X5229048Y-10599976D01*
X5229048Y-10599976D02*
X5238572Y-10609500D01*
X5238572Y-10609500D02*
X5257619Y-10619024D01*
X5257619Y-10619024D02*
X5295715Y-10619024D01*
X5295715Y-10619024D02*
X5314762Y-10609500D01*
X5314762Y-10609500D02*
X5324286Y-10599976D01*
X5324286Y-10599976D02*
X5333810Y-10580929D01*
X5333810Y-10580929D02*
X5333810Y-10542833D01*
X5333810Y-10542833D02*
X5324286Y-10523786D01*
X5324286Y-10523786D02*
X5314762Y-10514262D01*
X5314762Y-10514262D02*
X5295715Y-10504738D01*
X5524286Y-10619024D02*
X5410000Y-10619024D01*
X5467143Y-10619024D02*
X5467143Y-10419024D01*
X5467143Y-10419024D02*
X5448095Y-10447595D01*
X5448095Y-10447595D02*
X5429048Y-10466643D01*
X5429048Y-10466643D02*
X5410000Y-10476167D01*
X5600476Y-10419024D02*
X5600476Y-10457119D01*
X5676667Y-10419024D02*
X5676667Y-10457119D01*
X5971905Y-10695214D02*
X5962381Y-10685690D01*
X5962381Y-10685690D02*
X5943334Y-10657119D01*
X5943334Y-10657119D02*
X5933810Y-10638071D01*
X5933810Y-10638071D02*
X5924286Y-10609500D01*
X5924286Y-10609500D02*
X5914762Y-10561881D01*
X5914762Y-10561881D02*
X5914762Y-10523786D01*
X5914762Y-10523786D02*
X5924286Y-10476167D01*
X5924286Y-10476167D02*
X5933810Y-10447595D01*
X5933810Y-10447595D02*
X5943334Y-10428548D01*
X5943334Y-10428548D02*
X5962381Y-10399976D01*
X5962381Y-10399976D02*
X5971905Y-10390452D01*
X6038572Y-10438071D02*
X6048095Y-10428548D01*
X6048095Y-10428548D02*
X6067143Y-10419024D01*
X6067143Y-10419024D02*
X6114762Y-10419024D01*
X6114762Y-10419024D02*
X6133810Y-10428548D01*
X6133810Y-10428548D02*
X6143334Y-10438071D01*
X6143334Y-10438071D02*
X6152857Y-10457119D01*
X6152857Y-10457119D02*
X6152857Y-10476167D01*
X6152857Y-10476167D02*
X6143334Y-10504738D01*
X6143334Y-10504738D02*
X6029048Y-10619024D01*
X6029048Y-10619024D02*
X6152857Y-10619024D01*
X6390953Y-10619024D02*
X6390953Y-10419024D01*
X6476667Y-10619024D02*
X6476667Y-10514262D01*
X6476667Y-10514262D02*
X6467143Y-10495214D01*
X6467143Y-10495214D02*
X6448096Y-10485690D01*
X6448096Y-10485690D02*
X6419524Y-10485690D01*
X6419524Y-10485690D02*
X6400476Y-10495214D01*
X6400476Y-10495214D02*
X6390953Y-10504738D01*
X6600476Y-10619024D02*
X6581429Y-10609500D01*
X6581429Y-10609500D02*
X6571905Y-10599976D01*
X6571905Y-10599976D02*
X6562381Y-10580929D01*
X6562381Y-10580929D02*
X6562381Y-10523786D01*
X6562381Y-10523786D02*
X6571905Y-10504738D01*
X6571905Y-10504738D02*
X6581429Y-10495214D01*
X6581429Y-10495214D02*
X6600476Y-10485690D01*
X6600476Y-10485690D02*
X6629048Y-10485690D01*
X6629048Y-10485690D02*
X6648096Y-10495214D01*
X6648096Y-10495214D02*
X6657619Y-10504738D01*
X6657619Y-10504738D02*
X6667143Y-10523786D01*
X6667143Y-10523786D02*
X6667143Y-10580929D01*
X6667143Y-10580929D02*
X6657619Y-10599976D01*
X6657619Y-10599976D02*
X6648096Y-10609500D01*
X6648096Y-10609500D02*
X6629048Y-10619024D01*
X6629048Y-10619024D02*
X6600476Y-10619024D01*
X6781429Y-10619024D02*
X6762381Y-10609500D01*
X6762381Y-10609500D02*
X6752857Y-10590452D01*
X6752857Y-10590452D02*
X6752857Y-10419024D01*
X6933810Y-10609500D02*
X6914762Y-10619024D01*
X6914762Y-10619024D02*
X6876667Y-10619024D01*
X6876667Y-10619024D02*
X6857619Y-10609500D01*
X6857619Y-10609500D02*
X6848096Y-10590452D01*
X6848096Y-10590452D02*
X6848096Y-10514262D01*
X6848096Y-10514262D02*
X6857619Y-10495214D01*
X6857619Y-10495214D02*
X6876667Y-10485690D01*
X6876667Y-10485690D02*
X6914762Y-10485690D01*
X6914762Y-10485690D02*
X6933810Y-10495214D01*
X6933810Y-10495214D02*
X6943334Y-10514262D01*
X6943334Y-10514262D02*
X6943334Y-10533310D01*
X6943334Y-10533310D02*
X6848096Y-10552357D01*
X7019524Y-10609500D02*
X7038572Y-10619024D01*
X7038572Y-10619024D02*
X7076667Y-10619024D01*
X7076667Y-10619024D02*
X7095715Y-10609500D01*
X7095715Y-10609500D02*
X7105238Y-10590452D01*
X7105238Y-10590452D02*
X7105238Y-10580929D01*
X7105238Y-10580929D02*
X7095715Y-10561881D01*
X7095715Y-10561881D02*
X7076667Y-10552357D01*
X7076667Y-10552357D02*
X7048096Y-10552357D01*
X7048096Y-10552357D02*
X7029048Y-10542833D01*
X7029048Y-10542833D02*
X7019524Y-10523786D01*
X7019524Y-10523786D02*
X7019524Y-10514262D01*
X7019524Y-10514262D02*
X7029048Y-10495214D01*
X7029048Y-10495214D02*
X7048096Y-10485690D01*
X7048096Y-10485690D02*
X7076667Y-10485690D01*
X7076667Y-10485690D02*
X7095715Y-10495214D01*
X7171905Y-10695214D02*
X7181429Y-10685690D01*
X7181429Y-10685690D02*
X7200477Y-10657119D01*
X7200477Y-10657119D02*
X7210000Y-10638071D01*
X7210000Y-10638071D02*
X7219524Y-10609500D01*
X7219524Y-10609500D02*
X7229048Y-10561881D01*
X7229048Y-10561881D02*
X7229048Y-10523786D01*
X7229048Y-10523786D02*
X7219524Y-10476167D01*
X7219524Y-10476167D02*
X7210000Y-10447595D01*
X7210000Y-10447595D02*
X7200477Y-10428548D01*
X7200477Y-10428548D02*
X7181429Y-10399976D01*
X7181429Y-10399976D02*
X7171905Y-10390452D01*
X7533810Y-10695214D02*
X7524286Y-10685690D01*
X7524286Y-10685690D02*
X7505238Y-10657119D01*
X7505238Y-10657119D02*
X7495715Y-10638071D01*
X7495715Y-10638071D02*
X7486191Y-10609500D01*
X7486191Y-10609500D02*
X7476667Y-10561881D01*
X7476667Y-10561881D02*
X7476667Y-10523786D01*
X7476667Y-10523786D02*
X7486191Y-10476167D01*
X7486191Y-10476167D02*
X7495715Y-10447595D01*
X7495715Y-10447595D02*
X7505238Y-10428548D01*
X7505238Y-10428548D02*
X7524286Y-10399976D01*
X7524286Y-10399976D02*
X7533810Y-10390452D01*
X7610000Y-10485690D02*
X7610000Y-10619024D01*
X7610000Y-10504738D02*
X7619524Y-10495214D01*
X7619524Y-10495214D02*
X7638572Y-10485690D01*
X7638572Y-10485690D02*
X7667143Y-10485690D01*
X7667143Y-10485690D02*
X7686191Y-10495214D01*
X7686191Y-10495214D02*
X7695715Y-10514262D01*
X7695715Y-10514262D02*
X7695715Y-10619024D01*
X7819524Y-10619024D02*
X7800477Y-10609500D01*
X7800477Y-10609500D02*
X7790953Y-10599976D01*
X7790953Y-10599976D02*
X7781429Y-10580929D01*
X7781429Y-10580929D02*
X7781429Y-10523786D01*
X7781429Y-10523786D02*
X7790953Y-10504738D01*
X7790953Y-10504738D02*
X7800477Y-10495214D01*
X7800477Y-10495214D02*
X7819524Y-10485690D01*
X7819524Y-10485690D02*
X7848096Y-10485690D01*
X7848096Y-10485690D02*
X7867143Y-10495214D01*
X7867143Y-10495214D02*
X7876667Y-10504738D01*
X7876667Y-10504738D02*
X7886191Y-10523786D01*
X7886191Y-10523786D02*
X7886191Y-10580929D01*
X7886191Y-10580929D02*
X7876667Y-10599976D01*
X7876667Y-10599976D02*
X7867143Y-10609500D01*
X7867143Y-10609500D02*
X7848096Y-10619024D01*
X7848096Y-10619024D02*
X7819524Y-10619024D01*
X7943334Y-10485690D02*
X8019524Y-10485690D01*
X7971905Y-10419024D02*
X7971905Y-10590452D01*
X7971905Y-10590452D02*
X7981429Y-10609500D01*
X7981429Y-10609500D02*
X8000477Y-10619024D01*
X8000477Y-10619024D02*
X8019524Y-10619024D01*
X8238572Y-10485690D02*
X8238572Y-10685690D01*
X8238572Y-10495214D02*
X8257619Y-10485690D01*
X8257619Y-10485690D02*
X8295715Y-10485690D01*
X8295715Y-10485690D02*
X8314762Y-10495214D01*
X8314762Y-10495214D02*
X8324286Y-10504738D01*
X8324286Y-10504738D02*
X8333810Y-10523786D01*
X8333810Y-10523786D02*
X8333810Y-10580929D01*
X8333810Y-10580929D02*
X8324286Y-10599976D01*
X8324286Y-10599976D02*
X8314762Y-10609500D01*
X8314762Y-10609500D02*
X8295715Y-10619024D01*
X8295715Y-10619024D02*
X8257619Y-10619024D01*
X8257619Y-10619024D02*
X8238572Y-10609500D01*
X8448096Y-10619024D02*
X8429048Y-10609500D01*
X8429048Y-10609500D02*
X8419524Y-10590452D01*
X8419524Y-10590452D02*
X8419524Y-10419024D01*
X8610001Y-10619024D02*
X8610001Y-10514262D01*
X8610001Y-10514262D02*
X8600477Y-10495214D01*
X8600477Y-10495214D02*
X8581429Y-10485690D01*
X8581429Y-10485690D02*
X8543334Y-10485690D01*
X8543334Y-10485690D02*
X8524286Y-10495214D01*
X8610001Y-10609500D02*
X8590953Y-10619024D01*
X8590953Y-10619024D02*
X8543334Y-10619024D01*
X8543334Y-10619024D02*
X8524286Y-10609500D01*
X8524286Y-10609500D02*
X8514762Y-10590452D01*
X8514762Y-10590452D02*
X8514762Y-10571405D01*
X8514762Y-10571405D02*
X8524286Y-10552357D01*
X8524286Y-10552357D02*
X8543334Y-10542833D01*
X8543334Y-10542833D02*
X8590953Y-10542833D01*
X8590953Y-10542833D02*
X8610001Y-10533310D01*
X8676667Y-10485690D02*
X8752858Y-10485690D01*
X8705239Y-10419024D02*
X8705239Y-10590452D01*
X8705239Y-10590452D02*
X8714762Y-10609500D01*
X8714762Y-10609500D02*
X8733810Y-10619024D01*
X8733810Y-10619024D02*
X8752858Y-10619024D01*
X8895715Y-10609500D02*
X8876667Y-10619024D01*
X8876667Y-10619024D02*
X8838572Y-10619024D01*
X8838572Y-10619024D02*
X8819524Y-10609500D01*
X8819524Y-10609500D02*
X8810001Y-10590452D01*
X8810001Y-10590452D02*
X8810001Y-10514262D01*
X8810001Y-10514262D02*
X8819524Y-10495214D01*
X8819524Y-10495214D02*
X8838572Y-10485690D01*
X8838572Y-10485690D02*
X8876667Y-10485690D01*
X8876667Y-10485690D02*
X8895715Y-10495214D01*
X8895715Y-10495214D02*
X8905239Y-10514262D01*
X8905239Y-10514262D02*
X8905239Y-10533310D01*
X8905239Y-10533310D02*
X8810001Y-10552357D01*
X9076667Y-10619024D02*
X9076667Y-10419024D01*
X9076667Y-10609500D02*
X9057620Y-10619024D01*
X9057620Y-10619024D02*
X9019524Y-10619024D01*
X9019524Y-10619024D02*
X9000477Y-10609500D01*
X9000477Y-10609500D02*
X8990953Y-10599976D01*
X8990953Y-10599976D02*
X8981429Y-10580929D01*
X8981429Y-10580929D02*
X8981429Y-10523786D01*
X8981429Y-10523786D02*
X8990953Y-10504738D01*
X8990953Y-10504738D02*
X9000477Y-10495214D01*
X9000477Y-10495214D02*
X9019524Y-10485690D01*
X9019524Y-10485690D02*
X9057620Y-10485690D01*
X9057620Y-10485690D02*
X9076667Y-10495214D01*
X9152858Y-10695214D02*
X9162382Y-10685690D01*
X9162382Y-10685690D02*
X9181429Y-10657119D01*
X9181429Y-10657119D02*
X9190953Y-10638071D01*
X9190953Y-10638071D02*
X9200477Y-10609500D01*
X9200477Y-10609500D02*
X9210001Y-10561881D01*
X9210001Y-10561881D02*
X9210001Y-10523786D01*
X9210001Y-10523786D02*
X9200477Y-10476167D01*
X9200477Y-10476167D02*
X9190953Y-10447595D01*
X9190953Y-10447595D02*
X9181429Y-10428548D01*
X9181429Y-10428548D02*
X9162382Y-10399976D01*
X9162382Y-10399976D02*
X9152858Y-10390452D01*
M02*
