%TF.GenerationSoftware,KiCad,Pcbnew,7.0.2-0*%
%TF.CreationDate,2023-05-08T22:11:55-05:00*%
%TF.ProjectId,usb_programmer,7573625f-7072-46f6-9772-616d6d65722e,rev?*%
%TF.SameCoordinates,Original*%
%TF.FileFunction,Drillmap*%
%TF.FilePolarity,Positive*%
%FSLAX45Y45*%
G04 Gerber Fmt 4.5, Leading zero omitted, Abs format (unit mm)*
G04 Created by KiCad (PCBNEW 7.0.2-0) date 2023-05-08 22:11:55*
%MOMM*%
%LPD*%
G01*
G04 APERTURE LIST*
%ADD10C,0.100000*%
%ADD11C,0.200000*%
%ADD12C,0.040000*%
%ADD13C,0.060000*%
G04 APERTURE END LIST*
D10*
X2415000Y-9617500D02*
X4103500Y-9616000D01*
X5698000Y-7349500D02*
X4103500Y-5755000D01*
X2415000Y-5757500D02*
X2415000Y-9617500D01*
X4103500Y-9616000D02*
X5696750Y-8169500D01*
X4103500Y-5755000D02*
X2415000Y-5757500D01*
D11*
D12*
X2550000Y-7897000D02*
X2590000Y-7937000D01*
X2590000Y-7897000D02*
X2550000Y-7937000D01*
X2929000Y-5984000D02*
X2969000Y-6024000D01*
X2969000Y-5984000D02*
X2929000Y-6024000D01*
X3110000Y-6342000D02*
X3150000Y-6382000D01*
X3150000Y-6342000D02*
X3110000Y-6382000D01*
X3136000Y-5885000D02*
X3176000Y-5925000D01*
X3176000Y-5885000D02*
X3136000Y-5925000D01*
X3259000Y-9179000D02*
X3299000Y-9219000D01*
X3299000Y-9179000D02*
X3259000Y-9219000D01*
X3274000Y-9379000D02*
X3314000Y-9419000D01*
X3314000Y-9379000D02*
X3274000Y-9419000D01*
X3400000Y-7197500D02*
X3440000Y-7237500D01*
X3440000Y-7197500D02*
X3400000Y-7237500D01*
X3406000Y-8144000D02*
X3446000Y-8184000D01*
X3446000Y-8144000D02*
X3406000Y-8184000D01*
X3409000Y-7831000D02*
X3449000Y-7871000D01*
X3449000Y-7831000D02*
X3409000Y-7871000D01*
X3515000Y-7928000D02*
X3555000Y-7968000D01*
X3555000Y-7928000D02*
X3515000Y-7968000D01*
X5085000Y-7460000D02*
X5125000Y-7500000D01*
X5125000Y-7460000D02*
X5085000Y-7500000D01*
X5341000Y-8255000D02*
X5381000Y-8295000D01*
X5381000Y-8255000D02*
X5341000Y-8295000D01*
X5343000Y-7235000D02*
X5383000Y-7275000D01*
X5383000Y-7235000D02*
X5343000Y-7275000D01*
X5415000Y-7930000D02*
X5455000Y-7970000D01*
X5455000Y-7930000D02*
X5415000Y-7970000D01*
X5551000Y-7919000D02*
X5591000Y-7959000D01*
X5591000Y-7919000D02*
X5551000Y-7959000D01*
X5728000Y-7864000D02*
X5768000Y-7904000D01*
X5768000Y-7864000D02*
X5728000Y-7904000D01*
X5782500Y-7485500D02*
X5822500Y-7525500D01*
X5822500Y-7485500D02*
X5782500Y-7525500D01*
X5814000Y-7996000D02*
X5854000Y-8036000D01*
X5854000Y-7996000D02*
X5814000Y-8036000D01*
D13*
X2774000Y-7263000D02*
G75*
G03*
X2774000Y-7263000I-30000J0D01*
G01*
D11*
X2774000Y-7233000D02*
X2714000Y-7233000D01*
X2714000Y-7233000D02*
G75*
G03*
X2714000Y-7293000I0J-30000D01*
G01*
X2714000Y-7293000D02*
X2774000Y-7293000D01*
X2774000Y-7293000D02*
G75*
G03*
X2774000Y-7233000I0J30000D01*
G01*
D13*
X2774000Y-8127000D02*
G75*
G03*
X2774000Y-8127000I-30000J0D01*
G01*
D11*
X2774000Y-8097000D02*
X2714000Y-8097000D01*
X2714000Y-8097000D02*
G75*
G03*
X2714000Y-8157000I0J-30000D01*
G01*
X2714000Y-8157000D02*
X2774000Y-8157000D01*
X2774000Y-8157000D02*
G75*
G03*
X2774000Y-8097000I0J30000D01*
G01*
D13*
X3192000Y-7263000D02*
G75*
G03*
X3192000Y-7263000I-30000J0D01*
G01*
D11*
X3217000Y-7233000D02*
X3107000Y-7233000D01*
X3107000Y-7233000D02*
G75*
G03*
X3107000Y-7293000I0J-30000D01*
G01*
X3107000Y-7293000D02*
X3217000Y-7293000D01*
X3217000Y-7293000D02*
G75*
G03*
X3217000Y-7233000I0J30000D01*
G01*
D13*
X3192000Y-8127000D02*
G75*
G03*
X3192000Y-8127000I-30000J0D01*
G01*
D11*
X3217000Y-8097000D02*
X3107000Y-8097000D01*
X3107000Y-8097000D02*
G75*
G03*
X3107000Y-8157000I0J-30000D01*
G01*
X3107000Y-8157000D02*
X3217000Y-8157000D01*
X3217000Y-8157000D02*
G75*
G03*
X3217000Y-8097000I0J30000D01*
G01*
D10*
X2657000Y-9107000D02*
X2657000Y-9207000D01*
X2607000Y-9157000D02*
X2707000Y-9157000D01*
X2657000Y-9361000D02*
X2657000Y-9461000D01*
X2607000Y-9411000D02*
X2707000Y-9411000D01*
X2665000Y-5916000D02*
X2665000Y-6016000D01*
X2615000Y-5966000D02*
X2715000Y-5966000D01*
X2665000Y-6170000D02*
X2665000Y-6270000D01*
X2615000Y-6220000D02*
X2715000Y-6220000D01*
X2848000Y-8504000D02*
X2848000Y-8604000D01*
X2798000Y-8554000D02*
X2898000Y-8554000D01*
X2896000Y-6711000D02*
X2896000Y-6811000D01*
X2846000Y-6761000D02*
X2946000Y-6761000D01*
X3102000Y-8504000D02*
X3102000Y-8604000D01*
X3052000Y-8554000D02*
X3152000Y-8554000D01*
X3150000Y-6711000D02*
X3150000Y-6811000D01*
X3100000Y-6761000D02*
X3200000Y-6761000D01*
X3975000Y-6512000D02*
X3975000Y-6612000D01*
X3925000Y-6562000D02*
X4025000Y-6562000D01*
X3975000Y-6766000D02*
X3975000Y-6866000D01*
X3925000Y-6816000D02*
X4025000Y-6816000D01*
X3975000Y-7020000D02*
X3975000Y-7120000D01*
X3925000Y-7070000D02*
X4025000Y-7070000D01*
X3975000Y-7274000D02*
X3975000Y-7374000D01*
X3925000Y-7324000D02*
X4025000Y-7324000D01*
X3975000Y-7528000D02*
X3975000Y-7628000D01*
X3925000Y-7578000D02*
X4025000Y-7578000D01*
X3975000Y-7782000D02*
X3975000Y-7882000D01*
X3925000Y-7832000D02*
X4025000Y-7832000D01*
X3975000Y-8036000D02*
X3975000Y-8136000D01*
X3925000Y-8086000D02*
X4025000Y-8086000D01*
X3975000Y-8290000D02*
X3975000Y-8390000D01*
X3925000Y-8340000D02*
X4025000Y-8340000D01*
X3975000Y-8544000D02*
X3975000Y-8644000D01*
X3925000Y-8594000D02*
X4025000Y-8594000D01*
X3975000Y-8798000D02*
X3975000Y-8898000D01*
X3925000Y-8848000D02*
X4025000Y-8848000D01*
X4229000Y-6512000D02*
X4229000Y-6612000D01*
X4179000Y-6562000D02*
X4279000Y-6562000D01*
X4229000Y-6766000D02*
X4229000Y-6866000D01*
X4179000Y-6816000D02*
X4279000Y-6816000D01*
X4229000Y-7020000D02*
X4229000Y-7120000D01*
X4179000Y-7070000D02*
X4279000Y-7070000D01*
X4229000Y-7274000D02*
X4229000Y-7374000D01*
X4179000Y-7324000D02*
X4279000Y-7324000D01*
X4229000Y-7528000D02*
X4229000Y-7628000D01*
X4179000Y-7578000D02*
X4279000Y-7578000D01*
X4229000Y-7782000D02*
X4229000Y-7882000D01*
X4179000Y-7832000D02*
X4279000Y-7832000D01*
X4229000Y-8036000D02*
X4229000Y-8136000D01*
X4179000Y-8086000D02*
X4279000Y-8086000D01*
X4229000Y-8290000D02*
X4229000Y-8390000D01*
X4179000Y-8340000D02*
X4279000Y-8340000D01*
X4229000Y-8544000D02*
X4229000Y-8644000D01*
X4179000Y-8594000D02*
X4279000Y-8594000D01*
X4229000Y-8798000D02*
X4229000Y-8898000D01*
X4179000Y-8848000D02*
X4279000Y-8848000D01*
D11*
X2657619Y-9935024D02*
X2657619Y-9735024D01*
X2657619Y-9735024D02*
X2705238Y-9735024D01*
X2705238Y-9735024D02*
X2733810Y-9744548D01*
X2733810Y-9744548D02*
X2752857Y-9763595D01*
X2752857Y-9763595D02*
X2762381Y-9782643D01*
X2762381Y-9782643D02*
X2771905Y-9820738D01*
X2771905Y-9820738D02*
X2771905Y-9849310D01*
X2771905Y-9849310D02*
X2762381Y-9887405D01*
X2762381Y-9887405D02*
X2752857Y-9906452D01*
X2752857Y-9906452D02*
X2733810Y-9925500D01*
X2733810Y-9925500D02*
X2705238Y-9935024D01*
X2705238Y-9935024D02*
X2657619Y-9935024D01*
X2857619Y-9935024D02*
X2857619Y-9801690D01*
X2857619Y-9839786D02*
X2867143Y-9820738D01*
X2867143Y-9820738D02*
X2876667Y-9811214D01*
X2876667Y-9811214D02*
X2895714Y-9801690D01*
X2895714Y-9801690D02*
X2914762Y-9801690D01*
X2981428Y-9935024D02*
X2981428Y-9801690D01*
X2981428Y-9735024D02*
X2971905Y-9744548D01*
X2971905Y-9744548D02*
X2981428Y-9754071D01*
X2981428Y-9754071D02*
X2990952Y-9744548D01*
X2990952Y-9744548D02*
X2981428Y-9735024D01*
X2981428Y-9735024D02*
X2981428Y-9754071D01*
X3105238Y-9935024D02*
X3086190Y-9925500D01*
X3086190Y-9925500D02*
X3076667Y-9906452D01*
X3076667Y-9906452D02*
X3076667Y-9735024D01*
X3210000Y-9935024D02*
X3190952Y-9925500D01*
X3190952Y-9925500D02*
X3181428Y-9906452D01*
X3181428Y-9906452D02*
X3181428Y-9735024D01*
X3438571Y-9935024D02*
X3438571Y-9735024D01*
X3438571Y-9735024D02*
X3505238Y-9877881D01*
X3505238Y-9877881D02*
X3571905Y-9735024D01*
X3571905Y-9735024D02*
X3571905Y-9935024D01*
X3752857Y-9935024D02*
X3752857Y-9830262D01*
X3752857Y-9830262D02*
X3743333Y-9811214D01*
X3743333Y-9811214D02*
X3724286Y-9801690D01*
X3724286Y-9801690D02*
X3686190Y-9801690D01*
X3686190Y-9801690D02*
X3667143Y-9811214D01*
X3752857Y-9925500D02*
X3733809Y-9935024D01*
X3733809Y-9935024D02*
X3686190Y-9935024D01*
X3686190Y-9935024D02*
X3667143Y-9925500D01*
X3667143Y-9925500D02*
X3657619Y-9906452D01*
X3657619Y-9906452D02*
X3657619Y-9887405D01*
X3657619Y-9887405D02*
X3667143Y-9868357D01*
X3667143Y-9868357D02*
X3686190Y-9858833D01*
X3686190Y-9858833D02*
X3733809Y-9858833D01*
X3733809Y-9858833D02*
X3752857Y-9849310D01*
X3848095Y-9801690D02*
X3848095Y-10001690D01*
X3848095Y-9811214D02*
X3867143Y-9801690D01*
X3867143Y-9801690D02*
X3905238Y-9801690D01*
X3905238Y-9801690D02*
X3924286Y-9811214D01*
X3924286Y-9811214D02*
X3933809Y-9820738D01*
X3933809Y-9820738D02*
X3943333Y-9839786D01*
X3943333Y-9839786D02*
X3943333Y-9896929D01*
X3943333Y-9896929D02*
X3933809Y-9915976D01*
X3933809Y-9915976D02*
X3924286Y-9925500D01*
X3924286Y-9925500D02*
X3905238Y-9935024D01*
X3905238Y-9935024D02*
X3867143Y-9935024D01*
X3867143Y-9935024D02*
X3848095Y-9925500D01*
X4029048Y-9915976D02*
X4038571Y-9925500D01*
X4038571Y-9925500D02*
X4029048Y-9935024D01*
X4029048Y-9935024D02*
X4019524Y-9925500D01*
X4019524Y-9925500D02*
X4029048Y-9915976D01*
X4029048Y-9915976D02*
X4029048Y-9935024D01*
X4029048Y-9811214D02*
X4038571Y-9820738D01*
X4038571Y-9820738D02*
X4029048Y-9830262D01*
X4029048Y-9830262D02*
X4019524Y-9820738D01*
X4019524Y-9820738D02*
X4029048Y-9811214D01*
X4029048Y-9811214D02*
X4029048Y-9830262D01*
D12*
X2370000Y-10242500D02*
X2410000Y-10282500D01*
X2410000Y-10242500D02*
X2370000Y-10282500D01*
D11*
X2695714Y-10155024D02*
X2714762Y-10155024D01*
X2714762Y-10155024D02*
X2733810Y-10164548D01*
X2733810Y-10164548D02*
X2743333Y-10174071D01*
X2743333Y-10174071D02*
X2752857Y-10193119D01*
X2752857Y-10193119D02*
X2762381Y-10231214D01*
X2762381Y-10231214D02*
X2762381Y-10278833D01*
X2762381Y-10278833D02*
X2752857Y-10316929D01*
X2752857Y-10316929D02*
X2743333Y-10335976D01*
X2743333Y-10335976D02*
X2733810Y-10345500D01*
X2733810Y-10345500D02*
X2714762Y-10355024D01*
X2714762Y-10355024D02*
X2695714Y-10355024D01*
X2695714Y-10355024D02*
X2676667Y-10345500D01*
X2676667Y-10345500D02*
X2667143Y-10335976D01*
X2667143Y-10335976D02*
X2657619Y-10316929D01*
X2657619Y-10316929D02*
X2648095Y-10278833D01*
X2648095Y-10278833D02*
X2648095Y-10231214D01*
X2648095Y-10231214D02*
X2657619Y-10193119D01*
X2657619Y-10193119D02*
X2667143Y-10174071D01*
X2667143Y-10174071D02*
X2676667Y-10164548D01*
X2676667Y-10164548D02*
X2695714Y-10155024D01*
X2848095Y-10335976D02*
X2857619Y-10345500D01*
X2857619Y-10345500D02*
X2848095Y-10355024D01*
X2848095Y-10355024D02*
X2838571Y-10345500D01*
X2838571Y-10345500D02*
X2848095Y-10335976D01*
X2848095Y-10335976D02*
X2848095Y-10355024D01*
X3029048Y-10221690D02*
X3029048Y-10355024D01*
X2981428Y-10145500D02*
X2933809Y-10288357D01*
X2933809Y-10288357D02*
X3057619Y-10288357D01*
X3171905Y-10155024D02*
X3190952Y-10155024D01*
X3190952Y-10155024D02*
X3210000Y-10164548D01*
X3210000Y-10164548D02*
X3219524Y-10174071D01*
X3219524Y-10174071D02*
X3229048Y-10193119D01*
X3229048Y-10193119D02*
X3238571Y-10231214D01*
X3238571Y-10231214D02*
X3238571Y-10278833D01*
X3238571Y-10278833D02*
X3229048Y-10316929D01*
X3229048Y-10316929D02*
X3219524Y-10335976D01*
X3219524Y-10335976D02*
X3210000Y-10345500D01*
X3210000Y-10345500D02*
X3190952Y-10355024D01*
X3190952Y-10355024D02*
X3171905Y-10355024D01*
X3171905Y-10355024D02*
X3152857Y-10345500D01*
X3152857Y-10345500D02*
X3143333Y-10335976D01*
X3143333Y-10335976D02*
X3133809Y-10316929D01*
X3133809Y-10316929D02*
X3124286Y-10278833D01*
X3124286Y-10278833D02*
X3124286Y-10231214D01*
X3124286Y-10231214D02*
X3133809Y-10193119D01*
X3133809Y-10193119D02*
X3143333Y-10174071D01*
X3143333Y-10174071D02*
X3152857Y-10164548D01*
X3152857Y-10164548D02*
X3171905Y-10155024D01*
X3362381Y-10155024D02*
X3381429Y-10155024D01*
X3381429Y-10155024D02*
X3400476Y-10164548D01*
X3400476Y-10164548D02*
X3410000Y-10174071D01*
X3410000Y-10174071D02*
X3419524Y-10193119D01*
X3419524Y-10193119D02*
X3429048Y-10231214D01*
X3429048Y-10231214D02*
X3429048Y-10278833D01*
X3429048Y-10278833D02*
X3419524Y-10316929D01*
X3419524Y-10316929D02*
X3410000Y-10335976D01*
X3410000Y-10335976D02*
X3400476Y-10345500D01*
X3400476Y-10345500D02*
X3381429Y-10355024D01*
X3381429Y-10355024D02*
X3362381Y-10355024D01*
X3362381Y-10355024D02*
X3343333Y-10345500D01*
X3343333Y-10345500D02*
X3333809Y-10335976D01*
X3333809Y-10335976D02*
X3324286Y-10316929D01*
X3324286Y-10316929D02*
X3314762Y-10278833D01*
X3314762Y-10278833D02*
X3314762Y-10231214D01*
X3314762Y-10231214D02*
X3324286Y-10193119D01*
X3324286Y-10193119D02*
X3333809Y-10174071D01*
X3333809Y-10174071D02*
X3343333Y-10164548D01*
X3343333Y-10164548D02*
X3362381Y-10155024D01*
X3514762Y-10355024D02*
X3514762Y-10221690D01*
X3514762Y-10240738D02*
X3524286Y-10231214D01*
X3524286Y-10231214D02*
X3543333Y-10221690D01*
X3543333Y-10221690D02*
X3571905Y-10221690D01*
X3571905Y-10221690D02*
X3590952Y-10231214D01*
X3590952Y-10231214D02*
X3600476Y-10250262D01*
X3600476Y-10250262D02*
X3600476Y-10355024D01*
X3600476Y-10250262D02*
X3610000Y-10231214D01*
X3610000Y-10231214D02*
X3629048Y-10221690D01*
X3629048Y-10221690D02*
X3657619Y-10221690D01*
X3657619Y-10221690D02*
X3676667Y-10231214D01*
X3676667Y-10231214D02*
X3686190Y-10250262D01*
X3686190Y-10250262D02*
X3686190Y-10355024D01*
X3781429Y-10355024D02*
X3781429Y-10221690D01*
X3781429Y-10240738D02*
X3790952Y-10231214D01*
X3790952Y-10231214D02*
X3810000Y-10221690D01*
X3810000Y-10221690D02*
X3838571Y-10221690D01*
X3838571Y-10221690D02*
X3857619Y-10231214D01*
X3857619Y-10231214D02*
X3867143Y-10250262D01*
X3867143Y-10250262D02*
X3867143Y-10355024D01*
X3867143Y-10250262D02*
X3876667Y-10231214D01*
X3876667Y-10231214D02*
X3895714Y-10221690D01*
X3895714Y-10221690D02*
X3924286Y-10221690D01*
X3924286Y-10221690D02*
X3943333Y-10231214D01*
X3943333Y-10231214D02*
X3952857Y-10250262D01*
X3952857Y-10250262D02*
X3952857Y-10355024D01*
X4343333Y-10145500D02*
X4171905Y-10402643D01*
X4600476Y-10155024D02*
X4619524Y-10155024D01*
X4619524Y-10155024D02*
X4638572Y-10164548D01*
X4638572Y-10164548D02*
X4648095Y-10174071D01*
X4648095Y-10174071D02*
X4657619Y-10193119D01*
X4657619Y-10193119D02*
X4667143Y-10231214D01*
X4667143Y-10231214D02*
X4667143Y-10278833D01*
X4667143Y-10278833D02*
X4657619Y-10316929D01*
X4657619Y-10316929D02*
X4648095Y-10335976D01*
X4648095Y-10335976D02*
X4638572Y-10345500D01*
X4638572Y-10345500D02*
X4619524Y-10355024D01*
X4619524Y-10355024D02*
X4600476Y-10355024D01*
X4600476Y-10355024D02*
X4581429Y-10345500D01*
X4581429Y-10345500D02*
X4571905Y-10335976D01*
X4571905Y-10335976D02*
X4562381Y-10316929D01*
X4562381Y-10316929D02*
X4552857Y-10278833D01*
X4552857Y-10278833D02*
X4552857Y-10231214D01*
X4552857Y-10231214D02*
X4562381Y-10193119D01*
X4562381Y-10193119D02*
X4571905Y-10174071D01*
X4571905Y-10174071D02*
X4581429Y-10164548D01*
X4581429Y-10164548D02*
X4600476Y-10155024D01*
X4752857Y-10335976D02*
X4762381Y-10345500D01*
X4762381Y-10345500D02*
X4752857Y-10355024D01*
X4752857Y-10355024D02*
X4743334Y-10345500D01*
X4743334Y-10345500D02*
X4752857Y-10335976D01*
X4752857Y-10335976D02*
X4752857Y-10355024D01*
X4886191Y-10155024D02*
X4905238Y-10155024D01*
X4905238Y-10155024D02*
X4924286Y-10164548D01*
X4924286Y-10164548D02*
X4933810Y-10174071D01*
X4933810Y-10174071D02*
X4943334Y-10193119D01*
X4943334Y-10193119D02*
X4952857Y-10231214D01*
X4952857Y-10231214D02*
X4952857Y-10278833D01*
X4952857Y-10278833D02*
X4943334Y-10316929D01*
X4943334Y-10316929D02*
X4933810Y-10335976D01*
X4933810Y-10335976D02*
X4924286Y-10345500D01*
X4924286Y-10345500D02*
X4905238Y-10355024D01*
X4905238Y-10355024D02*
X4886191Y-10355024D01*
X4886191Y-10355024D02*
X4867143Y-10345500D01*
X4867143Y-10345500D02*
X4857619Y-10335976D01*
X4857619Y-10335976D02*
X4848095Y-10316929D01*
X4848095Y-10316929D02*
X4838572Y-10278833D01*
X4838572Y-10278833D02*
X4838572Y-10231214D01*
X4838572Y-10231214D02*
X4848095Y-10193119D01*
X4848095Y-10193119D02*
X4857619Y-10174071D01*
X4857619Y-10174071D02*
X4867143Y-10164548D01*
X4867143Y-10164548D02*
X4886191Y-10155024D01*
X5143334Y-10355024D02*
X5029048Y-10355024D01*
X5086191Y-10355024D02*
X5086191Y-10155024D01*
X5086191Y-10155024D02*
X5067143Y-10183595D01*
X5067143Y-10183595D02*
X5048095Y-10202643D01*
X5048095Y-10202643D02*
X5029048Y-10212167D01*
X5324286Y-10155024D02*
X5229048Y-10155024D01*
X5229048Y-10155024D02*
X5219524Y-10250262D01*
X5219524Y-10250262D02*
X5229048Y-10240738D01*
X5229048Y-10240738D02*
X5248095Y-10231214D01*
X5248095Y-10231214D02*
X5295715Y-10231214D01*
X5295715Y-10231214D02*
X5314762Y-10240738D01*
X5314762Y-10240738D02*
X5324286Y-10250262D01*
X5324286Y-10250262D02*
X5333810Y-10269310D01*
X5333810Y-10269310D02*
X5333810Y-10316929D01*
X5333810Y-10316929D02*
X5324286Y-10335976D01*
X5324286Y-10335976D02*
X5314762Y-10345500D01*
X5314762Y-10345500D02*
X5295715Y-10355024D01*
X5295715Y-10355024D02*
X5248095Y-10355024D01*
X5248095Y-10355024D02*
X5229048Y-10345500D01*
X5229048Y-10345500D02*
X5219524Y-10335976D01*
X5400476Y-10155024D02*
X5533810Y-10155024D01*
X5533810Y-10155024D02*
X5448095Y-10355024D01*
X5600476Y-10155024D02*
X5600476Y-10193119D01*
X5676667Y-10155024D02*
X5676667Y-10193119D01*
X5971905Y-10431214D02*
X5962381Y-10421690D01*
X5962381Y-10421690D02*
X5943334Y-10393119D01*
X5943334Y-10393119D02*
X5933810Y-10374071D01*
X5933810Y-10374071D02*
X5924286Y-10345500D01*
X5924286Y-10345500D02*
X5914762Y-10297881D01*
X5914762Y-10297881D02*
X5914762Y-10259786D01*
X5914762Y-10259786D02*
X5924286Y-10212167D01*
X5924286Y-10212167D02*
X5933810Y-10183595D01*
X5933810Y-10183595D02*
X5943334Y-10164548D01*
X5943334Y-10164548D02*
X5962381Y-10135976D01*
X5962381Y-10135976D02*
X5971905Y-10126452D01*
X6152857Y-10355024D02*
X6038572Y-10355024D01*
X6095714Y-10355024D02*
X6095714Y-10155024D01*
X6095714Y-10155024D02*
X6076667Y-10183595D01*
X6076667Y-10183595D02*
X6057619Y-10202643D01*
X6057619Y-10202643D02*
X6038572Y-10212167D01*
X6267143Y-10240738D02*
X6248095Y-10231214D01*
X6248095Y-10231214D02*
X6238572Y-10221690D01*
X6238572Y-10221690D02*
X6229048Y-10202643D01*
X6229048Y-10202643D02*
X6229048Y-10193119D01*
X6229048Y-10193119D02*
X6238572Y-10174071D01*
X6238572Y-10174071D02*
X6248095Y-10164548D01*
X6248095Y-10164548D02*
X6267143Y-10155024D01*
X6267143Y-10155024D02*
X6305238Y-10155024D01*
X6305238Y-10155024D02*
X6324286Y-10164548D01*
X6324286Y-10164548D02*
X6333810Y-10174071D01*
X6333810Y-10174071D02*
X6343334Y-10193119D01*
X6343334Y-10193119D02*
X6343334Y-10202643D01*
X6343334Y-10202643D02*
X6333810Y-10221690D01*
X6333810Y-10221690D02*
X6324286Y-10231214D01*
X6324286Y-10231214D02*
X6305238Y-10240738D01*
X6305238Y-10240738D02*
X6267143Y-10240738D01*
X6267143Y-10240738D02*
X6248095Y-10250262D01*
X6248095Y-10250262D02*
X6238572Y-10259786D01*
X6238572Y-10259786D02*
X6229048Y-10278833D01*
X6229048Y-10278833D02*
X6229048Y-10316929D01*
X6229048Y-10316929D02*
X6238572Y-10335976D01*
X6238572Y-10335976D02*
X6248095Y-10345500D01*
X6248095Y-10345500D02*
X6267143Y-10355024D01*
X6267143Y-10355024D02*
X6305238Y-10355024D01*
X6305238Y-10355024D02*
X6324286Y-10345500D01*
X6324286Y-10345500D02*
X6333810Y-10335976D01*
X6333810Y-10335976D02*
X6343334Y-10316929D01*
X6343334Y-10316929D02*
X6343334Y-10278833D01*
X6343334Y-10278833D02*
X6333810Y-10259786D01*
X6333810Y-10259786D02*
X6324286Y-10250262D01*
X6324286Y-10250262D02*
X6305238Y-10240738D01*
X6581429Y-10355024D02*
X6581429Y-10155024D01*
X6667143Y-10355024D02*
X6667143Y-10250262D01*
X6667143Y-10250262D02*
X6657619Y-10231214D01*
X6657619Y-10231214D02*
X6638572Y-10221690D01*
X6638572Y-10221690D02*
X6610000Y-10221690D01*
X6610000Y-10221690D02*
X6590953Y-10231214D01*
X6590953Y-10231214D02*
X6581429Y-10240738D01*
X6790953Y-10355024D02*
X6771905Y-10345500D01*
X6771905Y-10345500D02*
X6762381Y-10335976D01*
X6762381Y-10335976D02*
X6752857Y-10316929D01*
X6752857Y-10316929D02*
X6752857Y-10259786D01*
X6752857Y-10259786D02*
X6762381Y-10240738D01*
X6762381Y-10240738D02*
X6771905Y-10231214D01*
X6771905Y-10231214D02*
X6790953Y-10221690D01*
X6790953Y-10221690D02*
X6819524Y-10221690D01*
X6819524Y-10221690D02*
X6838572Y-10231214D01*
X6838572Y-10231214D02*
X6848096Y-10240738D01*
X6848096Y-10240738D02*
X6857619Y-10259786D01*
X6857619Y-10259786D02*
X6857619Y-10316929D01*
X6857619Y-10316929D02*
X6848096Y-10335976D01*
X6848096Y-10335976D02*
X6838572Y-10345500D01*
X6838572Y-10345500D02*
X6819524Y-10355024D01*
X6819524Y-10355024D02*
X6790953Y-10355024D01*
X6971905Y-10355024D02*
X6952857Y-10345500D01*
X6952857Y-10345500D02*
X6943334Y-10326452D01*
X6943334Y-10326452D02*
X6943334Y-10155024D01*
X7124286Y-10345500D02*
X7105238Y-10355024D01*
X7105238Y-10355024D02*
X7067143Y-10355024D01*
X7067143Y-10355024D02*
X7048096Y-10345500D01*
X7048096Y-10345500D02*
X7038572Y-10326452D01*
X7038572Y-10326452D02*
X7038572Y-10250262D01*
X7038572Y-10250262D02*
X7048096Y-10231214D01*
X7048096Y-10231214D02*
X7067143Y-10221690D01*
X7067143Y-10221690D02*
X7105238Y-10221690D01*
X7105238Y-10221690D02*
X7124286Y-10231214D01*
X7124286Y-10231214D02*
X7133810Y-10250262D01*
X7133810Y-10250262D02*
X7133810Y-10269310D01*
X7133810Y-10269310D02*
X7038572Y-10288357D01*
X7210000Y-10345500D02*
X7229048Y-10355024D01*
X7229048Y-10355024D02*
X7267143Y-10355024D01*
X7267143Y-10355024D02*
X7286191Y-10345500D01*
X7286191Y-10345500D02*
X7295715Y-10326452D01*
X7295715Y-10326452D02*
X7295715Y-10316929D01*
X7295715Y-10316929D02*
X7286191Y-10297881D01*
X7286191Y-10297881D02*
X7267143Y-10288357D01*
X7267143Y-10288357D02*
X7238572Y-10288357D01*
X7238572Y-10288357D02*
X7219524Y-10278833D01*
X7219524Y-10278833D02*
X7210000Y-10259786D01*
X7210000Y-10259786D02*
X7210000Y-10250262D01*
X7210000Y-10250262D02*
X7219524Y-10231214D01*
X7219524Y-10231214D02*
X7238572Y-10221690D01*
X7238572Y-10221690D02*
X7267143Y-10221690D01*
X7267143Y-10221690D02*
X7286191Y-10231214D01*
X7362381Y-10431214D02*
X7371905Y-10421690D01*
X7371905Y-10421690D02*
X7390953Y-10393119D01*
X7390953Y-10393119D02*
X7400477Y-10374071D01*
X7400477Y-10374071D02*
X7410000Y-10345500D01*
X7410000Y-10345500D02*
X7419524Y-10297881D01*
X7419524Y-10297881D02*
X7419524Y-10259786D01*
X7419524Y-10259786D02*
X7410000Y-10212167D01*
X7410000Y-10212167D02*
X7400477Y-10183595D01*
X7400477Y-10183595D02*
X7390953Y-10164548D01*
X7390953Y-10164548D02*
X7371905Y-10135976D01*
X7371905Y-10135976D02*
X7362381Y-10126452D01*
D13*
X2410000Y-10526500D02*
G75*
G03*
X2410000Y-10526500I-30000J0D01*
G01*
D11*
X2695714Y-10419024D02*
X2714762Y-10419024D01*
X2714762Y-10419024D02*
X2733810Y-10428548D01*
X2733810Y-10428548D02*
X2743333Y-10438071D01*
X2743333Y-10438071D02*
X2752857Y-10457119D01*
X2752857Y-10457119D02*
X2762381Y-10495214D01*
X2762381Y-10495214D02*
X2762381Y-10542833D01*
X2762381Y-10542833D02*
X2752857Y-10580929D01*
X2752857Y-10580929D02*
X2743333Y-10599976D01*
X2743333Y-10599976D02*
X2733810Y-10609500D01*
X2733810Y-10609500D02*
X2714762Y-10619024D01*
X2714762Y-10619024D02*
X2695714Y-10619024D01*
X2695714Y-10619024D02*
X2676667Y-10609500D01*
X2676667Y-10609500D02*
X2667143Y-10599976D01*
X2667143Y-10599976D02*
X2657619Y-10580929D01*
X2657619Y-10580929D02*
X2648095Y-10542833D01*
X2648095Y-10542833D02*
X2648095Y-10495214D01*
X2648095Y-10495214D02*
X2657619Y-10457119D01*
X2657619Y-10457119D02*
X2667143Y-10438071D01*
X2667143Y-10438071D02*
X2676667Y-10428548D01*
X2676667Y-10428548D02*
X2695714Y-10419024D01*
X2848095Y-10599976D02*
X2857619Y-10609500D01*
X2857619Y-10609500D02*
X2848095Y-10619024D01*
X2848095Y-10619024D02*
X2838571Y-10609500D01*
X2838571Y-10609500D02*
X2848095Y-10599976D01*
X2848095Y-10599976D02*
X2848095Y-10619024D01*
X3029048Y-10419024D02*
X2990952Y-10419024D01*
X2990952Y-10419024D02*
X2971905Y-10428548D01*
X2971905Y-10428548D02*
X2962381Y-10438071D01*
X2962381Y-10438071D02*
X2943333Y-10466643D01*
X2943333Y-10466643D02*
X2933809Y-10504738D01*
X2933809Y-10504738D02*
X2933809Y-10580929D01*
X2933809Y-10580929D02*
X2943333Y-10599976D01*
X2943333Y-10599976D02*
X2952857Y-10609500D01*
X2952857Y-10609500D02*
X2971905Y-10619024D01*
X2971905Y-10619024D02*
X3010000Y-10619024D01*
X3010000Y-10619024D02*
X3029048Y-10609500D01*
X3029048Y-10609500D02*
X3038571Y-10599976D01*
X3038571Y-10599976D02*
X3048095Y-10580929D01*
X3048095Y-10580929D02*
X3048095Y-10533310D01*
X3048095Y-10533310D02*
X3038571Y-10514262D01*
X3038571Y-10514262D02*
X3029048Y-10504738D01*
X3029048Y-10504738D02*
X3010000Y-10495214D01*
X3010000Y-10495214D02*
X2971905Y-10495214D01*
X2971905Y-10495214D02*
X2952857Y-10504738D01*
X2952857Y-10504738D02*
X2943333Y-10514262D01*
X2943333Y-10514262D02*
X2933809Y-10533310D01*
X3171905Y-10419024D02*
X3190952Y-10419024D01*
X3190952Y-10419024D02*
X3210000Y-10428548D01*
X3210000Y-10428548D02*
X3219524Y-10438071D01*
X3219524Y-10438071D02*
X3229048Y-10457119D01*
X3229048Y-10457119D02*
X3238571Y-10495214D01*
X3238571Y-10495214D02*
X3238571Y-10542833D01*
X3238571Y-10542833D02*
X3229048Y-10580929D01*
X3229048Y-10580929D02*
X3219524Y-10599976D01*
X3219524Y-10599976D02*
X3210000Y-10609500D01*
X3210000Y-10609500D02*
X3190952Y-10619024D01*
X3190952Y-10619024D02*
X3171905Y-10619024D01*
X3171905Y-10619024D02*
X3152857Y-10609500D01*
X3152857Y-10609500D02*
X3143333Y-10599976D01*
X3143333Y-10599976D02*
X3133809Y-10580929D01*
X3133809Y-10580929D02*
X3124286Y-10542833D01*
X3124286Y-10542833D02*
X3124286Y-10495214D01*
X3124286Y-10495214D02*
X3133809Y-10457119D01*
X3133809Y-10457119D02*
X3143333Y-10438071D01*
X3143333Y-10438071D02*
X3152857Y-10428548D01*
X3152857Y-10428548D02*
X3171905Y-10419024D01*
X3362381Y-10419024D02*
X3381429Y-10419024D01*
X3381429Y-10419024D02*
X3400476Y-10428548D01*
X3400476Y-10428548D02*
X3410000Y-10438071D01*
X3410000Y-10438071D02*
X3419524Y-10457119D01*
X3419524Y-10457119D02*
X3429048Y-10495214D01*
X3429048Y-10495214D02*
X3429048Y-10542833D01*
X3429048Y-10542833D02*
X3419524Y-10580929D01*
X3419524Y-10580929D02*
X3410000Y-10599976D01*
X3410000Y-10599976D02*
X3400476Y-10609500D01*
X3400476Y-10609500D02*
X3381429Y-10619024D01*
X3381429Y-10619024D02*
X3362381Y-10619024D01*
X3362381Y-10619024D02*
X3343333Y-10609500D01*
X3343333Y-10609500D02*
X3333809Y-10599976D01*
X3333809Y-10599976D02*
X3324286Y-10580929D01*
X3324286Y-10580929D02*
X3314762Y-10542833D01*
X3314762Y-10542833D02*
X3314762Y-10495214D01*
X3314762Y-10495214D02*
X3324286Y-10457119D01*
X3324286Y-10457119D02*
X3333809Y-10438071D01*
X3333809Y-10438071D02*
X3343333Y-10428548D01*
X3343333Y-10428548D02*
X3362381Y-10419024D01*
X3514762Y-10619024D02*
X3514762Y-10485690D01*
X3514762Y-10504738D02*
X3524286Y-10495214D01*
X3524286Y-10495214D02*
X3543333Y-10485690D01*
X3543333Y-10485690D02*
X3571905Y-10485690D01*
X3571905Y-10485690D02*
X3590952Y-10495214D01*
X3590952Y-10495214D02*
X3600476Y-10514262D01*
X3600476Y-10514262D02*
X3600476Y-10619024D01*
X3600476Y-10514262D02*
X3610000Y-10495214D01*
X3610000Y-10495214D02*
X3629048Y-10485690D01*
X3629048Y-10485690D02*
X3657619Y-10485690D01*
X3657619Y-10485690D02*
X3676667Y-10495214D01*
X3676667Y-10495214D02*
X3686190Y-10514262D01*
X3686190Y-10514262D02*
X3686190Y-10619024D01*
X3781429Y-10619024D02*
X3781429Y-10485690D01*
X3781429Y-10504738D02*
X3790952Y-10495214D01*
X3790952Y-10495214D02*
X3810000Y-10485690D01*
X3810000Y-10485690D02*
X3838571Y-10485690D01*
X3838571Y-10485690D02*
X3857619Y-10495214D01*
X3857619Y-10495214D02*
X3867143Y-10514262D01*
X3867143Y-10514262D02*
X3867143Y-10619024D01*
X3867143Y-10514262D02*
X3876667Y-10495214D01*
X3876667Y-10495214D02*
X3895714Y-10485690D01*
X3895714Y-10485690D02*
X3924286Y-10485690D01*
X3924286Y-10485690D02*
X3943333Y-10495214D01*
X3943333Y-10495214D02*
X3952857Y-10514262D01*
X3952857Y-10514262D02*
X3952857Y-10619024D01*
X4343333Y-10409500D02*
X4171905Y-10666643D01*
X4600476Y-10419024D02*
X4619524Y-10419024D01*
X4619524Y-10419024D02*
X4638572Y-10428548D01*
X4638572Y-10428548D02*
X4648095Y-10438071D01*
X4648095Y-10438071D02*
X4657619Y-10457119D01*
X4657619Y-10457119D02*
X4667143Y-10495214D01*
X4667143Y-10495214D02*
X4667143Y-10542833D01*
X4667143Y-10542833D02*
X4657619Y-10580929D01*
X4657619Y-10580929D02*
X4648095Y-10599976D01*
X4648095Y-10599976D02*
X4638572Y-10609500D01*
X4638572Y-10609500D02*
X4619524Y-10619024D01*
X4619524Y-10619024D02*
X4600476Y-10619024D01*
X4600476Y-10619024D02*
X4581429Y-10609500D01*
X4581429Y-10609500D02*
X4571905Y-10599976D01*
X4571905Y-10599976D02*
X4562381Y-10580929D01*
X4562381Y-10580929D02*
X4552857Y-10542833D01*
X4552857Y-10542833D02*
X4552857Y-10495214D01*
X4552857Y-10495214D02*
X4562381Y-10457119D01*
X4562381Y-10457119D02*
X4571905Y-10438071D01*
X4571905Y-10438071D02*
X4581429Y-10428548D01*
X4581429Y-10428548D02*
X4600476Y-10419024D01*
X4752857Y-10599976D02*
X4762381Y-10609500D01*
X4762381Y-10609500D02*
X4752857Y-10619024D01*
X4752857Y-10619024D02*
X4743334Y-10609500D01*
X4743334Y-10609500D02*
X4752857Y-10599976D01*
X4752857Y-10599976D02*
X4752857Y-10619024D01*
X4886191Y-10419024D02*
X4905238Y-10419024D01*
X4905238Y-10419024D02*
X4924286Y-10428548D01*
X4924286Y-10428548D02*
X4933810Y-10438071D01*
X4933810Y-10438071D02*
X4943334Y-10457119D01*
X4943334Y-10457119D02*
X4952857Y-10495214D01*
X4952857Y-10495214D02*
X4952857Y-10542833D01*
X4952857Y-10542833D02*
X4943334Y-10580929D01*
X4943334Y-10580929D02*
X4933810Y-10599976D01*
X4933810Y-10599976D02*
X4924286Y-10609500D01*
X4924286Y-10609500D02*
X4905238Y-10619024D01*
X4905238Y-10619024D02*
X4886191Y-10619024D01*
X4886191Y-10619024D02*
X4867143Y-10609500D01*
X4867143Y-10609500D02*
X4857619Y-10599976D01*
X4857619Y-10599976D02*
X4848095Y-10580929D01*
X4848095Y-10580929D02*
X4838572Y-10542833D01*
X4838572Y-10542833D02*
X4838572Y-10495214D01*
X4838572Y-10495214D02*
X4848095Y-10457119D01*
X4848095Y-10457119D02*
X4857619Y-10438071D01*
X4857619Y-10438071D02*
X4867143Y-10428548D01*
X4867143Y-10428548D02*
X4886191Y-10419024D01*
X5029048Y-10438071D02*
X5038572Y-10428548D01*
X5038572Y-10428548D02*
X5057619Y-10419024D01*
X5057619Y-10419024D02*
X5105238Y-10419024D01*
X5105238Y-10419024D02*
X5124286Y-10428548D01*
X5124286Y-10428548D02*
X5133810Y-10438071D01*
X5133810Y-10438071D02*
X5143334Y-10457119D01*
X5143334Y-10457119D02*
X5143334Y-10476167D01*
X5143334Y-10476167D02*
X5133810Y-10504738D01*
X5133810Y-10504738D02*
X5019524Y-10619024D01*
X5019524Y-10619024D02*
X5143334Y-10619024D01*
X5210000Y-10419024D02*
X5333810Y-10419024D01*
X5333810Y-10419024D02*
X5267143Y-10495214D01*
X5267143Y-10495214D02*
X5295715Y-10495214D01*
X5295715Y-10495214D02*
X5314762Y-10504738D01*
X5314762Y-10504738D02*
X5324286Y-10514262D01*
X5324286Y-10514262D02*
X5333810Y-10533310D01*
X5333810Y-10533310D02*
X5333810Y-10580929D01*
X5333810Y-10580929D02*
X5324286Y-10599976D01*
X5324286Y-10599976D02*
X5314762Y-10609500D01*
X5314762Y-10609500D02*
X5295715Y-10619024D01*
X5295715Y-10619024D02*
X5238572Y-10619024D01*
X5238572Y-10619024D02*
X5219524Y-10609500D01*
X5219524Y-10609500D02*
X5210000Y-10599976D01*
X5505238Y-10419024D02*
X5467143Y-10419024D01*
X5467143Y-10419024D02*
X5448095Y-10428548D01*
X5448095Y-10428548D02*
X5438572Y-10438071D01*
X5438572Y-10438071D02*
X5419524Y-10466643D01*
X5419524Y-10466643D02*
X5410000Y-10504738D01*
X5410000Y-10504738D02*
X5410000Y-10580929D01*
X5410000Y-10580929D02*
X5419524Y-10599976D01*
X5419524Y-10599976D02*
X5429048Y-10609500D01*
X5429048Y-10609500D02*
X5448095Y-10619024D01*
X5448095Y-10619024D02*
X5486191Y-10619024D01*
X5486191Y-10619024D02*
X5505238Y-10609500D01*
X5505238Y-10609500D02*
X5514762Y-10599976D01*
X5514762Y-10599976D02*
X5524286Y-10580929D01*
X5524286Y-10580929D02*
X5524286Y-10533310D01*
X5524286Y-10533310D02*
X5514762Y-10514262D01*
X5514762Y-10514262D02*
X5505238Y-10504738D01*
X5505238Y-10504738D02*
X5486191Y-10495214D01*
X5486191Y-10495214D02*
X5448095Y-10495214D01*
X5448095Y-10495214D02*
X5429048Y-10504738D01*
X5429048Y-10504738D02*
X5419524Y-10514262D01*
X5419524Y-10514262D02*
X5410000Y-10533310D01*
X5600476Y-10419024D02*
X5600476Y-10457119D01*
X5676667Y-10419024D02*
X5676667Y-10457119D01*
X5971905Y-10695214D02*
X5962381Y-10685690D01*
X5962381Y-10685690D02*
X5943334Y-10657119D01*
X5943334Y-10657119D02*
X5933810Y-10638071D01*
X5933810Y-10638071D02*
X5924286Y-10609500D01*
X5924286Y-10609500D02*
X5914762Y-10561881D01*
X5914762Y-10561881D02*
X5914762Y-10523786D01*
X5914762Y-10523786D02*
X5924286Y-10476167D01*
X5924286Y-10476167D02*
X5933810Y-10447595D01*
X5933810Y-10447595D02*
X5943334Y-10428548D01*
X5943334Y-10428548D02*
X5962381Y-10399976D01*
X5962381Y-10399976D02*
X5971905Y-10390452D01*
X6086191Y-10419024D02*
X6105238Y-10419024D01*
X6105238Y-10419024D02*
X6124286Y-10428548D01*
X6124286Y-10428548D02*
X6133810Y-10438071D01*
X6133810Y-10438071D02*
X6143334Y-10457119D01*
X6143334Y-10457119D02*
X6152857Y-10495214D01*
X6152857Y-10495214D02*
X6152857Y-10542833D01*
X6152857Y-10542833D02*
X6143334Y-10580929D01*
X6143334Y-10580929D02*
X6133810Y-10599976D01*
X6133810Y-10599976D02*
X6124286Y-10609500D01*
X6124286Y-10609500D02*
X6105238Y-10619024D01*
X6105238Y-10619024D02*
X6086191Y-10619024D01*
X6086191Y-10619024D02*
X6067143Y-10609500D01*
X6067143Y-10609500D02*
X6057619Y-10599976D01*
X6057619Y-10599976D02*
X6048095Y-10580929D01*
X6048095Y-10580929D02*
X6038572Y-10542833D01*
X6038572Y-10542833D02*
X6038572Y-10495214D01*
X6038572Y-10495214D02*
X6048095Y-10457119D01*
X6048095Y-10457119D02*
X6057619Y-10438071D01*
X6057619Y-10438071D02*
X6067143Y-10428548D01*
X6067143Y-10428548D02*
X6086191Y-10419024D01*
X6390953Y-10619024D02*
X6390953Y-10419024D01*
X6476667Y-10619024D02*
X6476667Y-10514262D01*
X6476667Y-10514262D02*
X6467143Y-10495214D01*
X6467143Y-10495214D02*
X6448096Y-10485690D01*
X6448096Y-10485690D02*
X6419524Y-10485690D01*
X6419524Y-10485690D02*
X6400476Y-10495214D01*
X6400476Y-10495214D02*
X6390953Y-10504738D01*
X6600476Y-10619024D02*
X6581429Y-10609500D01*
X6581429Y-10609500D02*
X6571905Y-10599976D01*
X6571905Y-10599976D02*
X6562381Y-10580929D01*
X6562381Y-10580929D02*
X6562381Y-10523786D01*
X6562381Y-10523786D02*
X6571905Y-10504738D01*
X6571905Y-10504738D02*
X6581429Y-10495214D01*
X6581429Y-10495214D02*
X6600476Y-10485690D01*
X6600476Y-10485690D02*
X6629048Y-10485690D01*
X6629048Y-10485690D02*
X6648096Y-10495214D01*
X6648096Y-10495214D02*
X6657619Y-10504738D01*
X6657619Y-10504738D02*
X6667143Y-10523786D01*
X6667143Y-10523786D02*
X6667143Y-10580929D01*
X6667143Y-10580929D02*
X6657619Y-10599976D01*
X6657619Y-10599976D02*
X6648096Y-10609500D01*
X6648096Y-10609500D02*
X6629048Y-10619024D01*
X6629048Y-10619024D02*
X6600476Y-10619024D01*
X6781429Y-10619024D02*
X6762381Y-10609500D01*
X6762381Y-10609500D02*
X6752857Y-10590452D01*
X6752857Y-10590452D02*
X6752857Y-10419024D01*
X6933810Y-10609500D02*
X6914762Y-10619024D01*
X6914762Y-10619024D02*
X6876667Y-10619024D01*
X6876667Y-10619024D02*
X6857619Y-10609500D01*
X6857619Y-10609500D02*
X6848096Y-10590452D01*
X6848096Y-10590452D02*
X6848096Y-10514262D01*
X6848096Y-10514262D02*
X6857619Y-10495214D01*
X6857619Y-10495214D02*
X6876667Y-10485690D01*
X6876667Y-10485690D02*
X6914762Y-10485690D01*
X6914762Y-10485690D02*
X6933810Y-10495214D01*
X6933810Y-10495214D02*
X6943334Y-10514262D01*
X6943334Y-10514262D02*
X6943334Y-10533310D01*
X6943334Y-10533310D02*
X6848096Y-10552357D01*
X7019524Y-10609500D02*
X7038572Y-10619024D01*
X7038572Y-10619024D02*
X7076667Y-10619024D01*
X7076667Y-10619024D02*
X7095715Y-10609500D01*
X7095715Y-10609500D02*
X7105238Y-10590452D01*
X7105238Y-10590452D02*
X7105238Y-10580929D01*
X7105238Y-10580929D02*
X7095715Y-10561881D01*
X7095715Y-10561881D02*
X7076667Y-10552357D01*
X7076667Y-10552357D02*
X7048096Y-10552357D01*
X7048096Y-10552357D02*
X7029048Y-10542833D01*
X7029048Y-10542833D02*
X7019524Y-10523786D01*
X7019524Y-10523786D02*
X7019524Y-10514262D01*
X7019524Y-10514262D02*
X7029048Y-10495214D01*
X7029048Y-10495214D02*
X7048096Y-10485690D01*
X7048096Y-10485690D02*
X7076667Y-10485690D01*
X7076667Y-10485690D02*
X7095715Y-10495214D01*
X7343334Y-10542833D02*
X7495715Y-10542833D01*
X7419524Y-10619024D02*
X7419524Y-10466643D01*
X7829048Y-10485690D02*
X7829048Y-10619024D01*
X7781429Y-10409500D02*
X7733810Y-10552357D01*
X7733810Y-10552357D02*
X7857619Y-10552357D01*
X8076667Y-10609500D02*
X8095715Y-10619024D01*
X8095715Y-10619024D02*
X8133810Y-10619024D01*
X8133810Y-10619024D02*
X8152858Y-10609500D01*
X8152858Y-10609500D02*
X8162381Y-10590452D01*
X8162381Y-10590452D02*
X8162381Y-10580929D01*
X8162381Y-10580929D02*
X8152858Y-10561881D01*
X8152858Y-10561881D02*
X8133810Y-10552357D01*
X8133810Y-10552357D02*
X8105239Y-10552357D01*
X8105239Y-10552357D02*
X8086191Y-10542833D01*
X8086191Y-10542833D02*
X8076667Y-10523786D01*
X8076667Y-10523786D02*
X8076667Y-10514262D01*
X8076667Y-10514262D02*
X8086191Y-10495214D01*
X8086191Y-10495214D02*
X8105239Y-10485690D01*
X8105239Y-10485690D02*
X8133810Y-10485690D01*
X8133810Y-10485690D02*
X8152858Y-10495214D01*
X8276667Y-10619024D02*
X8257620Y-10609500D01*
X8257620Y-10609500D02*
X8248096Y-10590452D01*
X8248096Y-10590452D02*
X8248096Y-10419024D01*
X8381429Y-10619024D02*
X8362381Y-10609500D01*
X8362381Y-10609500D02*
X8352858Y-10599976D01*
X8352858Y-10599976D02*
X8343334Y-10580929D01*
X8343334Y-10580929D02*
X8343334Y-10523786D01*
X8343334Y-10523786D02*
X8352858Y-10504738D01*
X8352858Y-10504738D02*
X8362381Y-10495214D01*
X8362381Y-10495214D02*
X8381429Y-10485690D01*
X8381429Y-10485690D02*
X8410001Y-10485690D01*
X8410001Y-10485690D02*
X8429048Y-10495214D01*
X8429048Y-10495214D02*
X8438572Y-10504738D01*
X8438572Y-10504738D02*
X8448096Y-10523786D01*
X8448096Y-10523786D02*
X8448096Y-10580929D01*
X8448096Y-10580929D02*
X8438572Y-10599976D01*
X8438572Y-10599976D02*
X8429048Y-10609500D01*
X8429048Y-10609500D02*
X8410001Y-10619024D01*
X8410001Y-10619024D02*
X8381429Y-10619024D01*
X8505239Y-10485690D02*
X8581429Y-10485690D01*
X8533810Y-10419024D02*
X8533810Y-10590452D01*
X8533810Y-10590452D02*
X8543334Y-10609500D01*
X8543334Y-10609500D02*
X8562382Y-10619024D01*
X8562382Y-10619024D02*
X8581429Y-10619024D01*
X8638572Y-10609500D02*
X8657620Y-10619024D01*
X8657620Y-10619024D02*
X8695715Y-10619024D01*
X8695715Y-10619024D02*
X8714763Y-10609500D01*
X8714763Y-10609500D02*
X8724286Y-10590452D01*
X8724286Y-10590452D02*
X8724286Y-10580929D01*
X8724286Y-10580929D02*
X8714763Y-10561881D01*
X8714763Y-10561881D02*
X8695715Y-10552357D01*
X8695715Y-10552357D02*
X8667143Y-10552357D01*
X8667143Y-10552357D02*
X8648096Y-10542833D01*
X8648096Y-10542833D02*
X8638572Y-10523786D01*
X8638572Y-10523786D02*
X8638572Y-10514262D01*
X8638572Y-10514262D02*
X8648096Y-10495214D01*
X8648096Y-10495214D02*
X8667143Y-10485690D01*
X8667143Y-10485690D02*
X8695715Y-10485690D01*
X8695715Y-10485690D02*
X8714763Y-10495214D01*
X8790953Y-10695214D02*
X8800477Y-10685690D01*
X8800477Y-10685690D02*
X8819524Y-10657119D01*
X8819524Y-10657119D02*
X8829048Y-10638071D01*
X8829048Y-10638071D02*
X8838572Y-10609500D01*
X8838572Y-10609500D02*
X8848096Y-10561881D01*
X8848096Y-10561881D02*
X8848096Y-10523786D01*
X8848096Y-10523786D02*
X8838572Y-10476167D01*
X8838572Y-10476167D02*
X8829048Y-10447595D01*
X8829048Y-10447595D02*
X8819524Y-10428548D01*
X8819524Y-10428548D02*
X8800477Y-10399976D01*
X8800477Y-10399976D02*
X8790953Y-10390452D01*
D10*
X2360000Y-10740500D02*
X2360000Y-10840500D01*
X2310000Y-10790500D02*
X2410000Y-10790500D01*
D11*
X2762381Y-10883024D02*
X2648095Y-10883024D01*
X2705238Y-10883024D02*
X2705238Y-10683024D01*
X2705238Y-10683024D02*
X2686190Y-10711595D01*
X2686190Y-10711595D02*
X2667143Y-10730643D01*
X2667143Y-10730643D02*
X2648095Y-10740167D01*
X2848095Y-10863976D02*
X2857619Y-10873500D01*
X2857619Y-10873500D02*
X2848095Y-10883024D01*
X2848095Y-10883024D02*
X2838571Y-10873500D01*
X2838571Y-10873500D02*
X2848095Y-10863976D01*
X2848095Y-10863976D02*
X2848095Y-10883024D01*
X2981428Y-10683024D02*
X3000476Y-10683024D01*
X3000476Y-10683024D02*
X3019524Y-10692548D01*
X3019524Y-10692548D02*
X3029048Y-10702071D01*
X3029048Y-10702071D02*
X3038571Y-10721119D01*
X3038571Y-10721119D02*
X3048095Y-10759214D01*
X3048095Y-10759214D02*
X3048095Y-10806833D01*
X3048095Y-10806833D02*
X3038571Y-10844929D01*
X3038571Y-10844929D02*
X3029048Y-10863976D01*
X3029048Y-10863976D02*
X3019524Y-10873500D01*
X3019524Y-10873500D02*
X3000476Y-10883024D01*
X3000476Y-10883024D02*
X2981428Y-10883024D01*
X2981428Y-10883024D02*
X2962381Y-10873500D01*
X2962381Y-10873500D02*
X2952857Y-10863976D01*
X2952857Y-10863976D02*
X2943333Y-10844929D01*
X2943333Y-10844929D02*
X2933809Y-10806833D01*
X2933809Y-10806833D02*
X2933809Y-10759214D01*
X2933809Y-10759214D02*
X2943333Y-10721119D01*
X2943333Y-10721119D02*
X2952857Y-10702071D01*
X2952857Y-10702071D02*
X2962381Y-10692548D01*
X2962381Y-10692548D02*
X2981428Y-10683024D01*
X3171905Y-10683024D02*
X3190952Y-10683024D01*
X3190952Y-10683024D02*
X3210000Y-10692548D01*
X3210000Y-10692548D02*
X3219524Y-10702071D01*
X3219524Y-10702071D02*
X3229048Y-10721119D01*
X3229048Y-10721119D02*
X3238571Y-10759214D01*
X3238571Y-10759214D02*
X3238571Y-10806833D01*
X3238571Y-10806833D02*
X3229048Y-10844929D01*
X3229048Y-10844929D02*
X3219524Y-10863976D01*
X3219524Y-10863976D02*
X3210000Y-10873500D01*
X3210000Y-10873500D02*
X3190952Y-10883024D01*
X3190952Y-10883024D02*
X3171905Y-10883024D01*
X3171905Y-10883024D02*
X3152857Y-10873500D01*
X3152857Y-10873500D02*
X3143333Y-10863976D01*
X3143333Y-10863976D02*
X3133809Y-10844929D01*
X3133809Y-10844929D02*
X3124286Y-10806833D01*
X3124286Y-10806833D02*
X3124286Y-10759214D01*
X3124286Y-10759214D02*
X3133809Y-10721119D01*
X3133809Y-10721119D02*
X3143333Y-10702071D01*
X3143333Y-10702071D02*
X3152857Y-10692548D01*
X3152857Y-10692548D02*
X3171905Y-10683024D01*
X3362381Y-10683024D02*
X3381429Y-10683024D01*
X3381429Y-10683024D02*
X3400476Y-10692548D01*
X3400476Y-10692548D02*
X3410000Y-10702071D01*
X3410000Y-10702071D02*
X3419524Y-10721119D01*
X3419524Y-10721119D02*
X3429048Y-10759214D01*
X3429048Y-10759214D02*
X3429048Y-10806833D01*
X3429048Y-10806833D02*
X3419524Y-10844929D01*
X3419524Y-10844929D02*
X3410000Y-10863976D01*
X3410000Y-10863976D02*
X3400476Y-10873500D01*
X3400476Y-10873500D02*
X3381429Y-10883024D01*
X3381429Y-10883024D02*
X3362381Y-10883024D01*
X3362381Y-10883024D02*
X3343333Y-10873500D01*
X3343333Y-10873500D02*
X3333809Y-10863976D01*
X3333809Y-10863976D02*
X3324286Y-10844929D01*
X3324286Y-10844929D02*
X3314762Y-10806833D01*
X3314762Y-10806833D02*
X3314762Y-10759214D01*
X3314762Y-10759214D02*
X3324286Y-10721119D01*
X3324286Y-10721119D02*
X3333809Y-10702071D01*
X3333809Y-10702071D02*
X3343333Y-10692548D01*
X3343333Y-10692548D02*
X3362381Y-10683024D01*
X3514762Y-10883024D02*
X3514762Y-10749690D01*
X3514762Y-10768738D02*
X3524286Y-10759214D01*
X3524286Y-10759214D02*
X3543333Y-10749690D01*
X3543333Y-10749690D02*
X3571905Y-10749690D01*
X3571905Y-10749690D02*
X3590952Y-10759214D01*
X3590952Y-10759214D02*
X3600476Y-10778262D01*
X3600476Y-10778262D02*
X3600476Y-10883024D01*
X3600476Y-10778262D02*
X3610000Y-10759214D01*
X3610000Y-10759214D02*
X3629048Y-10749690D01*
X3629048Y-10749690D02*
X3657619Y-10749690D01*
X3657619Y-10749690D02*
X3676667Y-10759214D01*
X3676667Y-10759214D02*
X3686190Y-10778262D01*
X3686190Y-10778262D02*
X3686190Y-10883024D01*
X3781429Y-10883024D02*
X3781429Y-10749690D01*
X3781429Y-10768738D02*
X3790952Y-10759214D01*
X3790952Y-10759214D02*
X3810000Y-10749690D01*
X3810000Y-10749690D02*
X3838571Y-10749690D01*
X3838571Y-10749690D02*
X3857619Y-10759214D01*
X3857619Y-10759214D02*
X3867143Y-10778262D01*
X3867143Y-10778262D02*
X3867143Y-10883024D01*
X3867143Y-10778262D02*
X3876667Y-10759214D01*
X3876667Y-10759214D02*
X3895714Y-10749690D01*
X3895714Y-10749690D02*
X3924286Y-10749690D01*
X3924286Y-10749690D02*
X3943333Y-10759214D01*
X3943333Y-10759214D02*
X3952857Y-10778262D01*
X3952857Y-10778262D02*
X3952857Y-10883024D01*
X4343333Y-10673500D02*
X4171905Y-10930643D01*
X4600476Y-10683024D02*
X4619524Y-10683024D01*
X4619524Y-10683024D02*
X4638572Y-10692548D01*
X4638572Y-10692548D02*
X4648095Y-10702071D01*
X4648095Y-10702071D02*
X4657619Y-10721119D01*
X4657619Y-10721119D02*
X4667143Y-10759214D01*
X4667143Y-10759214D02*
X4667143Y-10806833D01*
X4667143Y-10806833D02*
X4657619Y-10844929D01*
X4657619Y-10844929D02*
X4648095Y-10863976D01*
X4648095Y-10863976D02*
X4638572Y-10873500D01*
X4638572Y-10873500D02*
X4619524Y-10883024D01*
X4619524Y-10883024D02*
X4600476Y-10883024D01*
X4600476Y-10883024D02*
X4581429Y-10873500D01*
X4581429Y-10873500D02*
X4571905Y-10863976D01*
X4571905Y-10863976D02*
X4562381Y-10844929D01*
X4562381Y-10844929D02*
X4552857Y-10806833D01*
X4552857Y-10806833D02*
X4552857Y-10759214D01*
X4552857Y-10759214D02*
X4562381Y-10721119D01*
X4562381Y-10721119D02*
X4571905Y-10702071D01*
X4571905Y-10702071D02*
X4581429Y-10692548D01*
X4581429Y-10692548D02*
X4600476Y-10683024D01*
X4752857Y-10863976D02*
X4762381Y-10873500D01*
X4762381Y-10873500D02*
X4752857Y-10883024D01*
X4752857Y-10883024D02*
X4743334Y-10873500D01*
X4743334Y-10873500D02*
X4752857Y-10863976D01*
X4752857Y-10863976D02*
X4752857Y-10883024D01*
X4886191Y-10683024D02*
X4905238Y-10683024D01*
X4905238Y-10683024D02*
X4924286Y-10692548D01*
X4924286Y-10692548D02*
X4933810Y-10702071D01*
X4933810Y-10702071D02*
X4943334Y-10721119D01*
X4943334Y-10721119D02*
X4952857Y-10759214D01*
X4952857Y-10759214D02*
X4952857Y-10806833D01*
X4952857Y-10806833D02*
X4943334Y-10844929D01*
X4943334Y-10844929D02*
X4933810Y-10863976D01*
X4933810Y-10863976D02*
X4924286Y-10873500D01*
X4924286Y-10873500D02*
X4905238Y-10883024D01*
X4905238Y-10883024D02*
X4886191Y-10883024D01*
X4886191Y-10883024D02*
X4867143Y-10873500D01*
X4867143Y-10873500D02*
X4857619Y-10863976D01*
X4857619Y-10863976D02*
X4848095Y-10844929D01*
X4848095Y-10844929D02*
X4838572Y-10806833D01*
X4838572Y-10806833D02*
X4838572Y-10759214D01*
X4838572Y-10759214D02*
X4848095Y-10721119D01*
X4848095Y-10721119D02*
X4857619Y-10702071D01*
X4857619Y-10702071D02*
X4867143Y-10692548D01*
X4867143Y-10692548D02*
X4886191Y-10683024D01*
X5019524Y-10683024D02*
X5143334Y-10683024D01*
X5143334Y-10683024D02*
X5076667Y-10759214D01*
X5076667Y-10759214D02*
X5105238Y-10759214D01*
X5105238Y-10759214D02*
X5124286Y-10768738D01*
X5124286Y-10768738D02*
X5133810Y-10778262D01*
X5133810Y-10778262D02*
X5143334Y-10797310D01*
X5143334Y-10797310D02*
X5143334Y-10844929D01*
X5143334Y-10844929D02*
X5133810Y-10863976D01*
X5133810Y-10863976D02*
X5124286Y-10873500D01*
X5124286Y-10873500D02*
X5105238Y-10883024D01*
X5105238Y-10883024D02*
X5048095Y-10883024D01*
X5048095Y-10883024D02*
X5029048Y-10873500D01*
X5029048Y-10873500D02*
X5019524Y-10863976D01*
X5238572Y-10883024D02*
X5276667Y-10883024D01*
X5276667Y-10883024D02*
X5295715Y-10873500D01*
X5295715Y-10873500D02*
X5305238Y-10863976D01*
X5305238Y-10863976D02*
X5324286Y-10835405D01*
X5324286Y-10835405D02*
X5333810Y-10797310D01*
X5333810Y-10797310D02*
X5333810Y-10721119D01*
X5333810Y-10721119D02*
X5324286Y-10702071D01*
X5324286Y-10702071D02*
X5314762Y-10692548D01*
X5314762Y-10692548D02*
X5295715Y-10683024D01*
X5295715Y-10683024D02*
X5257619Y-10683024D01*
X5257619Y-10683024D02*
X5238572Y-10692548D01*
X5238572Y-10692548D02*
X5229048Y-10702071D01*
X5229048Y-10702071D02*
X5219524Y-10721119D01*
X5219524Y-10721119D02*
X5219524Y-10768738D01*
X5219524Y-10768738D02*
X5229048Y-10787786D01*
X5229048Y-10787786D02*
X5238572Y-10797310D01*
X5238572Y-10797310D02*
X5257619Y-10806833D01*
X5257619Y-10806833D02*
X5295715Y-10806833D01*
X5295715Y-10806833D02*
X5314762Y-10797310D01*
X5314762Y-10797310D02*
X5324286Y-10787786D01*
X5324286Y-10787786D02*
X5333810Y-10768738D01*
X5505238Y-10749690D02*
X5505238Y-10883024D01*
X5457619Y-10673500D02*
X5410000Y-10816357D01*
X5410000Y-10816357D02*
X5533810Y-10816357D01*
X5600476Y-10683024D02*
X5600476Y-10721119D01*
X5676667Y-10683024D02*
X5676667Y-10721119D01*
X5971905Y-10959214D02*
X5962381Y-10949690D01*
X5962381Y-10949690D02*
X5943334Y-10921119D01*
X5943334Y-10921119D02*
X5933810Y-10902071D01*
X5933810Y-10902071D02*
X5924286Y-10873500D01*
X5924286Y-10873500D02*
X5914762Y-10825881D01*
X5914762Y-10825881D02*
X5914762Y-10787786D01*
X5914762Y-10787786D02*
X5924286Y-10740167D01*
X5924286Y-10740167D02*
X5933810Y-10711595D01*
X5933810Y-10711595D02*
X5943334Y-10692548D01*
X5943334Y-10692548D02*
X5962381Y-10663976D01*
X5962381Y-10663976D02*
X5971905Y-10654452D01*
X6038572Y-10702071D02*
X6048095Y-10692548D01*
X6048095Y-10692548D02*
X6067143Y-10683024D01*
X6067143Y-10683024D02*
X6114762Y-10683024D01*
X6114762Y-10683024D02*
X6133810Y-10692548D01*
X6133810Y-10692548D02*
X6143334Y-10702071D01*
X6143334Y-10702071D02*
X6152857Y-10721119D01*
X6152857Y-10721119D02*
X6152857Y-10740167D01*
X6152857Y-10740167D02*
X6143334Y-10768738D01*
X6143334Y-10768738D02*
X6029048Y-10883024D01*
X6029048Y-10883024D02*
X6152857Y-10883024D01*
X6267143Y-10768738D02*
X6248095Y-10759214D01*
X6248095Y-10759214D02*
X6238572Y-10749690D01*
X6238572Y-10749690D02*
X6229048Y-10730643D01*
X6229048Y-10730643D02*
X6229048Y-10721119D01*
X6229048Y-10721119D02*
X6238572Y-10702071D01*
X6238572Y-10702071D02*
X6248095Y-10692548D01*
X6248095Y-10692548D02*
X6267143Y-10683024D01*
X6267143Y-10683024D02*
X6305238Y-10683024D01*
X6305238Y-10683024D02*
X6324286Y-10692548D01*
X6324286Y-10692548D02*
X6333810Y-10702071D01*
X6333810Y-10702071D02*
X6343334Y-10721119D01*
X6343334Y-10721119D02*
X6343334Y-10730643D01*
X6343334Y-10730643D02*
X6333810Y-10749690D01*
X6333810Y-10749690D02*
X6324286Y-10759214D01*
X6324286Y-10759214D02*
X6305238Y-10768738D01*
X6305238Y-10768738D02*
X6267143Y-10768738D01*
X6267143Y-10768738D02*
X6248095Y-10778262D01*
X6248095Y-10778262D02*
X6238572Y-10787786D01*
X6238572Y-10787786D02*
X6229048Y-10806833D01*
X6229048Y-10806833D02*
X6229048Y-10844929D01*
X6229048Y-10844929D02*
X6238572Y-10863976D01*
X6238572Y-10863976D02*
X6248095Y-10873500D01*
X6248095Y-10873500D02*
X6267143Y-10883024D01*
X6267143Y-10883024D02*
X6305238Y-10883024D01*
X6305238Y-10883024D02*
X6324286Y-10873500D01*
X6324286Y-10873500D02*
X6333810Y-10863976D01*
X6333810Y-10863976D02*
X6343334Y-10844929D01*
X6343334Y-10844929D02*
X6343334Y-10806833D01*
X6343334Y-10806833D02*
X6333810Y-10787786D01*
X6333810Y-10787786D02*
X6324286Y-10778262D01*
X6324286Y-10778262D02*
X6305238Y-10768738D01*
X6581429Y-10883024D02*
X6581429Y-10683024D01*
X6667143Y-10883024D02*
X6667143Y-10778262D01*
X6667143Y-10778262D02*
X6657619Y-10759214D01*
X6657619Y-10759214D02*
X6638572Y-10749690D01*
X6638572Y-10749690D02*
X6610000Y-10749690D01*
X6610000Y-10749690D02*
X6590953Y-10759214D01*
X6590953Y-10759214D02*
X6581429Y-10768738D01*
X6790953Y-10883024D02*
X6771905Y-10873500D01*
X6771905Y-10873500D02*
X6762381Y-10863976D01*
X6762381Y-10863976D02*
X6752857Y-10844929D01*
X6752857Y-10844929D02*
X6752857Y-10787786D01*
X6752857Y-10787786D02*
X6762381Y-10768738D01*
X6762381Y-10768738D02*
X6771905Y-10759214D01*
X6771905Y-10759214D02*
X6790953Y-10749690D01*
X6790953Y-10749690D02*
X6819524Y-10749690D01*
X6819524Y-10749690D02*
X6838572Y-10759214D01*
X6838572Y-10759214D02*
X6848096Y-10768738D01*
X6848096Y-10768738D02*
X6857619Y-10787786D01*
X6857619Y-10787786D02*
X6857619Y-10844929D01*
X6857619Y-10844929D02*
X6848096Y-10863976D01*
X6848096Y-10863976D02*
X6838572Y-10873500D01*
X6838572Y-10873500D02*
X6819524Y-10883024D01*
X6819524Y-10883024D02*
X6790953Y-10883024D01*
X6971905Y-10883024D02*
X6952857Y-10873500D01*
X6952857Y-10873500D02*
X6943334Y-10854452D01*
X6943334Y-10854452D02*
X6943334Y-10683024D01*
X7124286Y-10873500D02*
X7105238Y-10883024D01*
X7105238Y-10883024D02*
X7067143Y-10883024D01*
X7067143Y-10883024D02*
X7048096Y-10873500D01*
X7048096Y-10873500D02*
X7038572Y-10854452D01*
X7038572Y-10854452D02*
X7038572Y-10778262D01*
X7038572Y-10778262D02*
X7048096Y-10759214D01*
X7048096Y-10759214D02*
X7067143Y-10749690D01*
X7067143Y-10749690D02*
X7105238Y-10749690D01*
X7105238Y-10749690D02*
X7124286Y-10759214D01*
X7124286Y-10759214D02*
X7133810Y-10778262D01*
X7133810Y-10778262D02*
X7133810Y-10797310D01*
X7133810Y-10797310D02*
X7038572Y-10816357D01*
X7210000Y-10873500D02*
X7229048Y-10883024D01*
X7229048Y-10883024D02*
X7267143Y-10883024D01*
X7267143Y-10883024D02*
X7286191Y-10873500D01*
X7286191Y-10873500D02*
X7295715Y-10854452D01*
X7295715Y-10854452D02*
X7295715Y-10844929D01*
X7295715Y-10844929D02*
X7286191Y-10825881D01*
X7286191Y-10825881D02*
X7267143Y-10816357D01*
X7267143Y-10816357D02*
X7238572Y-10816357D01*
X7238572Y-10816357D02*
X7219524Y-10806833D01*
X7219524Y-10806833D02*
X7210000Y-10787786D01*
X7210000Y-10787786D02*
X7210000Y-10778262D01*
X7210000Y-10778262D02*
X7219524Y-10759214D01*
X7219524Y-10759214D02*
X7238572Y-10749690D01*
X7238572Y-10749690D02*
X7267143Y-10749690D01*
X7267143Y-10749690D02*
X7286191Y-10759214D01*
X7362381Y-10959214D02*
X7371905Y-10949690D01*
X7371905Y-10949690D02*
X7390953Y-10921119D01*
X7390953Y-10921119D02*
X7400477Y-10902071D01*
X7400477Y-10902071D02*
X7410000Y-10873500D01*
X7410000Y-10873500D02*
X7419524Y-10825881D01*
X7419524Y-10825881D02*
X7419524Y-10787786D01*
X7419524Y-10787786D02*
X7410000Y-10740167D01*
X7410000Y-10740167D02*
X7400477Y-10711595D01*
X7400477Y-10711595D02*
X7390953Y-10692548D01*
X7390953Y-10692548D02*
X7371905Y-10663976D01*
X7371905Y-10663976D02*
X7362381Y-10654452D01*
M02*
