G04 #@! TF.GenerationSoftware,KiCad,Pcbnew,7.0.2-0*
G04 #@! TF.CreationDate,2023-12-31T01:39:29-06:00*
G04 #@! TF.ProjectId,usb_programmer,7573625f-7072-46f6-9772-616d6d65722e,rev?*
G04 #@! TF.SameCoordinates,Original*
G04 #@! TF.FileFunction,Copper,L2,Inr*
G04 #@! TF.FilePolarity,Positive*
%FSLAX46Y46*%
G04 Gerber Fmt 4.6, Leading zero omitted, Abs format (unit mm)*
G04 Created by KiCad (PCBNEW 7.0.2-0) date 2023-12-31 01:39:29*
%MOMM*%
%LPD*%
G01*
G04 APERTURE LIST*
G04 #@! TA.AperFunction,ComponentPad*
%ADD10R,1.700000X1.700000*%
G04 #@! TD*
G04 #@! TA.AperFunction,ComponentPad*
%ADD11O,1.700000X1.700000*%
G04 #@! TD*
G04 #@! TA.AperFunction,ComponentPad*
%ADD12O,1.600000X1.000000*%
G04 #@! TD*
G04 #@! TA.AperFunction,ComponentPad*
%ADD13O,2.100000X1.000000*%
G04 #@! TD*
G04 #@! TA.AperFunction,ViaPad*
%ADD14C,0.800000*%
G04 #@! TD*
G04 APERTURE END LIST*
D10*
X39870000Y-73110000D03*
D11*
X42410000Y-73110000D03*
X39870000Y-75650000D03*
X42410000Y-75650000D03*
X39870000Y-78190000D03*
X42410000Y-78190000D03*
X39870000Y-80730000D03*
X42410000Y-80730000D03*
D12*
X27440000Y-81270000D03*
D13*
X31620000Y-81270000D03*
D12*
X27440000Y-72630000D03*
D13*
X31620000Y-72630000D03*
D10*
X26130000Y-69610000D03*
D11*
X26130000Y-67070000D03*
D10*
X26130000Y-86905000D03*
D11*
X26130000Y-84365000D03*
D10*
X37120000Y-69350000D03*
D11*
X34580000Y-69350000D03*
D14*
X49870000Y-76660000D03*
X48160000Y-75420000D03*
X28500000Y-86150000D03*
X44660000Y-74280000D03*
X45160000Y-82670000D03*
X48395000Y-79345000D03*
X50450000Y-80100000D03*
X50127752Y-75006254D03*
X29390000Y-67165000D03*
X31200000Y-70745000D03*
X34200000Y-72175000D03*
X34260000Y-81640000D03*
X31460000Y-66175000D03*
X35350000Y-79480000D03*
X34380000Y-75600000D03*
G04 #@! TA.AperFunction,Conductor*
G36*
X34599297Y-64848145D02*
G01*
X45558978Y-71417888D01*
X48703797Y-73303039D01*
X49011825Y-73487685D01*
X49019720Y-73493800D01*
X49024337Y-73496132D01*
X49031105Y-73496633D01*
X49040383Y-73495500D01*
X52824743Y-73495500D01*
X52891782Y-73515185D01*
X52897344Y-73518976D01*
X53263101Y-73783134D01*
X53305923Y-73838341D01*
X53314500Y-73883657D01*
X53314499Y-74179045D01*
X53304011Y-74214762D01*
X53312117Y-74255512D01*
X53314500Y-74279704D01*
X53314500Y-74307735D01*
X53311384Y-74318344D01*
X53318411Y-74328859D01*
X53333240Y-74359432D01*
X53334127Y-74362160D01*
X53371458Y-74413542D01*
X53422840Y-74450873D01*
X53425564Y-74451758D01*
X53456140Y-74466589D01*
X53466017Y-74473189D01*
X53477264Y-74470500D01*
X53483244Y-74470500D01*
X53505300Y-74470500D01*
X53529492Y-74472883D01*
X53565581Y-74480061D01*
X53575075Y-74474406D01*
X53605954Y-74470500D01*
X53755243Y-74470500D01*
X53774337Y-74471979D01*
X53774416Y-74471991D01*
X53774675Y-74472032D01*
X53779655Y-74472915D01*
X53816270Y-74480198D01*
X53848345Y-74491319D01*
X53851570Y-74492962D01*
X53864159Y-74500340D01*
X53882226Y-74512412D01*
X53883673Y-74513379D01*
X53902460Y-74528798D01*
X53906200Y-74532538D01*
X53921619Y-74551325D01*
X53934654Y-74570832D01*
X53942046Y-74583445D01*
X53943677Y-74586647D01*
X53954802Y-74618735D01*
X53962071Y-74655276D01*
X53962891Y-74659845D01*
X53962937Y-74660132D01*
X53964500Y-74679756D01*
X53964500Y-76085240D01*
X53962966Y-76104686D01*
X53962919Y-76104982D01*
X53962070Y-76109730D01*
X53954802Y-76146264D01*
X53943677Y-76178351D01*
X53942046Y-76181553D01*
X53934654Y-76194166D01*
X53921619Y-76213673D01*
X53906200Y-76232460D01*
X53902460Y-76236200D01*
X53883673Y-76251619D01*
X53864166Y-76264654D01*
X53851553Y-76272046D01*
X53848351Y-76273677D01*
X53816264Y-76284802D01*
X53779730Y-76292070D01*
X53774982Y-76292919D01*
X53774686Y-76292966D01*
X53755240Y-76294500D01*
X53655953Y-76294500D01*
X53620233Y-76284011D01*
X53579487Y-76292117D01*
X53555295Y-76294500D01*
X53527262Y-76294500D01*
X53516652Y-76291384D01*
X53506136Y-76298412D01*
X53475568Y-76313239D01*
X53472843Y-76314124D01*
X53421458Y-76351458D01*
X53384124Y-76402843D01*
X53383239Y-76405568D01*
X53368412Y-76436136D01*
X53361810Y-76446015D01*
X53364500Y-76457262D01*
X53364500Y-76485294D01*
X53362117Y-76509486D01*
X53354937Y-76545579D01*
X53360593Y-76555073D01*
X53364500Y-76585953D01*
X53364500Y-77404045D01*
X53354011Y-77439764D01*
X53362117Y-77480512D01*
X53364500Y-77504704D01*
X53364500Y-77532735D01*
X53361384Y-77543344D01*
X53368411Y-77553859D01*
X53383240Y-77584432D01*
X53384127Y-77587160D01*
X53421458Y-77638542D01*
X53472840Y-77675873D01*
X53475564Y-77676758D01*
X53506140Y-77691589D01*
X53516017Y-77698189D01*
X53527264Y-77695500D01*
X53533244Y-77695500D01*
X53555300Y-77695500D01*
X53579492Y-77697883D01*
X53615581Y-77705061D01*
X53625075Y-77699406D01*
X53655954Y-77695500D01*
X53755243Y-77695500D01*
X53774337Y-77696979D01*
X53774416Y-77696991D01*
X53774675Y-77697032D01*
X53779655Y-77697915D01*
X53816270Y-77705198D01*
X53848345Y-77716319D01*
X53851570Y-77717962D01*
X53864159Y-77725340D01*
X53882226Y-77737412D01*
X53883673Y-77738379D01*
X53902460Y-77753798D01*
X53906200Y-77757538D01*
X53921619Y-77776325D01*
X53934654Y-77795832D01*
X53942046Y-77808445D01*
X53943677Y-77811647D01*
X53954802Y-77843735D01*
X53962071Y-77880276D01*
X53962891Y-77884845D01*
X53962937Y-77885132D01*
X53964500Y-77904756D01*
X53964500Y-80110240D01*
X53962966Y-80129686D01*
X53962919Y-80129982D01*
X53962070Y-80134730D01*
X53954802Y-80171264D01*
X53943677Y-80203351D01*
X53942046Y-80206553D01*
X53934654Y-80219166D01*
X53921619Y-80238673D01*
X53906200Y-80257460D01*
X53902460Y-80261200D01*
X53883673Y-80276619D01*
X53864166Y-80289654D01*
X53851553Y-80297046D01*
X53848351Y-80298677D01*
X53816264Y-80309802D01*
X53779730Y-80317070D01*
X53774982Y-80317919D01*
X53774686Y-80317966D01*
X53755240Y-80319500D01*
X53605953Y-80319500D01*
X53570233Y-80309011D01*
X53529487Y-80317117D01*
X53505295Y-80319500D01*
X53477262Y-80319500D01*
X53466652Y-80316384D01*
X53456136Y-80323412D01*
X53425568Y-80338239D01*
X53422843Y-80339124D01*
X53371458Y-80376458D01*
X53334124Y-80427843D01*
X53333239Y-80430568D01*
X53318412Y-80461136D01*
X53311810Y-80471015D01*
X53314500Y-80482262D01*
X53314500Y-80510294D01*
X53312117Y-80534486D01*
X53304937Y-80570580D01*
X53310593Y-80580074D01*
X53314499Y-80610953D01*
X53314500Y-80866185D01*
X53294816Y-80933224D01*
X53269253Y-80961966D01*
X52899141Y-81266281D01*
X52834856Y-81293653D01*
X52820388Y-81294500D01*
X50739760Y-81294500D01*
X50739554Y-81294459D01*
X50714999Y-81294459D01*
X50714900Y-81294500D01*
X50714618Y-81294615D01*
X50714615Y-81294618D01*
X50714459Y-81294999D01*
X50714476Y-81319616D01*
X50714471Y-81319616D01*
X50714499Y-81319759D01*
X50714500Y-81570500D01*
X50694816Y-81637539D01*
X50642012Y-81683294D01*
X50590500Y-81694500D01*
X49031932Y-81694500D01*
X49025035Y-81693431D01*
X49017730Y-81694053D01*
X49012531Y-81694273D01*
X49008378Y-81696176D01*
X49001089Y-81699216D01*
X48995724Y-81703066D01*
X36760644Y-87997330D01*
X34700787Y-89057011D01*
X34586578Y-89115765D01*
X34529853Y-89129500D01*
X24274551Y-89129500D01*
X24207512Y-89109815D01*
X24161757Y-89057011D01*
X24150551Y-89005449D01*
X24150919Y-88112546D01*
X24152461Y-84365000D01*
X24774340Y-84365000D01*
X24794936Y-84600407D01*
X24839709Y-84767502D01*
X24856097Y-84828663D01*
X24955965Y-85042830D01*
X25091505Y-85236401D01*
X25091508Y-85236404D01*
X25213430Y-85358326D01*
X25246915Y-85419649D01*
X25241931Y-85489341D01*
X25200059Y-85545274D01*
X25169083Y-85562189D01*
X25037669Y-85611204D01*
X24922454Y-85697454D01*
X24836204Y-85812668D01*
X24785910Y-85947515D01*
X24785909Y-85947517D01*
X24779500Y-86007127D01*
X24779500Y-86010448D01*
X24779500Y-86010449D01*
X24779500Y-87799560D01*
X24779500Y-87799578D01*
X24779501Y-87802872D01*
X24785909Y-87862483D01*
X24836204Y-87997331D01*
X24922454Y-88112546D01*
X25037669Y-88198796D01*
X25172517Y-88249091D01*
X25232127Y-88255500D01*
X27027872Y-88255499D01*
X27087483Y-88249091D01*
X27222331Y-88198796D01*
X27337546Y-88112546D01*
X27423796Y-87997331D01*
X27474091Y-87862483D01*
X27480500Y-87802873D01*
X27480499Y-86007128D01*
X27474091Y-85947517D01*
X27423796Y-85812669D01*
X27337546Y-85697454D01*
X27222331Y-85611204D01*
X27160898Y-85588291D01*
X27090916Y-85562189D01*
X27034983Y-85520317D01*
X27010566Y-85454853D01*
X27025418Y-85386580D01*
X27046563Y-85358332D01*
X27168495Y-85236401D01*
X27304035Y-85042830D01*
X27403903Y-84828663D01*
X27465063Y-84600408D01*
X27485659Y-84365000D01*
X27465063Y-84129592D01*
X27403903Y-83901337D01*
X27304035Y-83687171D01*
X27168495Y-83493599D01*
X27001401Y-83326505D01*
X26807830Y-83190965D01*
X26593663Y-83091097D01*
X26532502Y-83074709D01*
X26365407Y-83029936D01*
X26129999Y-83009340D01*
X25894592Y-83029936D01*
X25666336Y-83091097D01*
X25452170Y-83190965D01*
X25258598Y-83326505D01*
X25091505Y-83493598D01*
X24955965Y-83687170D01*
X24856097Y-83901336D01*
X24794936Y-84129592D01*
X24774340Y-84365000D01*
X24152461Y-84365000D01*
X24153714Y-81320937D01*
X26135630Y-81320937D01*
X26166443Y-81522071D01*
X26237113Y-81712886D01*
X26344745Y-81885568D01*
X26344748Y-81885571D01*
X26484941Y-82033053D01*
X26651951Y-82149295D01*
X26838942Y-82229540D01*
X27038259Y-82270500D01*
X27038261Y-82270500D01*
X27787600Y-82270500D01*
X27790742Y-82270500D01*
X27942438Y-82255074D01*
X28136588Y-82194159D01*
X28314502Y-82095409D01*
X28468895Y-81962866D01*
X28593448Y-81801958D01*
X28683060Y-81619271D01*
X28734063Y-81422285D01*
X28739203Y-81320937D01*
X30065630Y-81320937D01*
X30096443Y-81522071D01*
X30167113Y-81712886D01*
X30274745Y-81885568D01*
X30274748Y-81885571D01*
X30414941Y-82033053D01*
X30581951Y-82149295D01*
X30768942Y-82229540D01*
X30968259Y-82270500D01*
X30968261Y-82270500D01*
X32217600Y-82270500D01*
X32220742Y-82270500D01*
X32372438Y-82255074D01*
X32566588Y-82194159D01*
X32744502Y-82095409D01*
X32898895Y-81962866D01*
X33023448Y-81801958D01*
X33113060Y-81619271D01*
X33164063Y-81422285D01*
X33174369Y-81219064D01*
X33143556Y-81017929D01*
X33124104Y-80965408D01*
X33072886Y-80827113D01*
X33012356Y-80730000D01*
X38514340Y-80730000D01*
X38534936Y-80965407D01*
X38575747Y-81117715D01*
X38596097Y-81193663D01*
X38695965Y-81407830D01*
X38831505Y-81601401D01*
X38998599Y-81768495D01*
X39192170Y-81904035D01*
X39406337Y-82003903D01*
X39634591Y-82065063D01*
X39634592Y-82065063D01*
X39869999Y-82085659D01*
X39869999Y-82085658D01*
X39870000Y-82085659D01*
X40105408Y-82065063D01*
X40333663Y-82003903D01*
X40547830Y-81904035D01*
X40741401Y-81768495D01*
X40908495Y-81601401D01*
X41038426Y-81415839D01*
X41093002Y-81372216D01*
X41162500Y-81365022D01*
X41224855Y-81396545D01*
X41241571Y-81415837D01*
X41371505Y-81601401D01*
X41538599Y-81768495D01*
X41732170Y-81904035D01*
X41946337Y-82003903D01*
X42174592Y-82065063D01*
X42410000Y-82085659D01*
X42645408Y-82065063D01*
X42873663Y-82003903D01*
X43087830Y-81904035D01*
X43281401Y-81768495D01*
X43448495Y-81601401D01*
X43584035Y-81407830D01*
X43683903Y-81193663D01*
X43745063Y-80965408D01*
X43765659Y-80730000D01*
X43745063Y-80494592D01*
X43683903Y-80266337D01*
X43584035Y-80052171D01*
X43448495Y-79858599D01*
X43281401Y-79691505D01*
X43095839Y-79561573D01*
X43052216Y-79506998D01*
X43045022Y-79437500D01*
X43076545Y-79375145D01*
X43095837Y-79358428D01*
X43115016Y-79344999D01*
X47489540Y-79344999D01*
X47509326Y-79533257D01*
X47567820Y-79713284D01*
X47662466Y-79877216D01*
X47789129Y-80017889D01*
X47942269Y-80129151D01*
X48115197Y-80206144D01*
X48300352Y-80245500D01*
X48300354Y-80245500D01*
X48489648Y-80245500D01*
X48613539Y-80219166D01*
X48674803Y-80206144D01*
X48847730Y-80129151D01*
X48938153Y-80063455D01*
X49000870Y-80017889D01*
X49127533Y-79877216D01*
X49222179Y-79713284D01*
X49236809Y-79668257D01*
X49280674Y-79533256D01*
X49300460Y-79345000D01*
X49280674Y-79156744D01*
X49222179Y-78976716D01*
X49222179Y-78976715D01*
X49127533Y-78812783D01*
X49000870Y-78672110D01*
X48847730Y-78560848D01*
X48674802Y-78483855D01*
X48489648Y-78444500D01*
X48489646Y-78444500D01*
X48300354Y-78444500D01*
X48300352Y-78444500D01*
X48115197Y-78483855D01*
X47942269Y-78560848D01*
X47789129Y-78672110D01*
X47662466Y-78812783D01*
X47567820Y-78976715D01*
X47509326Y-79156742D01*
X47489540Y-79344999D01*
X43115016Y-79344999D01*
X43281401Y-79228495D01*
X43448495Y-79061401D01*
X43584035Y-78867830D01*
X43683903Y-78653663D01*
X43745063Y-78425408D01*
X43765659Y-78190000D01*
X43745063Y-77954592D01*
X43683903Y-77726337D01*
X43584035Y-77512171D01*
X43448495Y-77318599D01*
X43281401Y-77151505D01*
X43095839Y-77021573D01*
X43052216Y-76966998D01*
X43045022Y-76897500D01*
X43076545Y-76835145D01*
X43095837Y-76818428D01*
X43281401Y-76688495D01*
X43309896Y-76660000D01*
X48964540Y-76660000D01*
X48984326Y-76848257D01*
X49042820Y-77028284D01*
X49137466Y-77192216D01*
X49264129Y-77332889D01*
X49417269Y-77444151D01*
X49590197Y-77521144D01*
X49775352Y-77560500D01*
X49775354Y-77560500D01*
X49964648Y-77560500D01*
X50123400Y-77526756D01*
X50149803Y-77521144D01*
X50322730Y-77444151D01*
X50328768Y-77439764D01*
X50475870Y-77332889D01*
X50602533Y-77192216D01*
X50697179Y-77028284D01*
X50717092Y-76966998D01*
X50755674Y-76848256D01*
X50775460Y-76660000D01*
X50755674Y-76471744D01*
X50725129Y-76377737D01*
X50697179Y-76291715D01*
X50602533Y-76127783D01*
X50475870Y-75987110D01*
X50322730Y-75875848D01*
X50149802Y-75798855D01*
X49964648Y-75759500D01*
X49964646Y-75759500D01*
X49775354Y-75759500D01*
X49775352Y-75759500D01*
X49590197Y-75798855D01*
X49417269Y-75875848D01*
X49264129Y-75987110D01*
X49137466Y-76127783D01*
X49042820Y-76291715D01*
X48984326Y-76471742D01*
X48964540Y-76660000D01*
X43309896Y-76660000D01*
X43448495Y-76521401D01*
X43584035Y-76327830D01*
X43683903Y-76113663D01*
X43745063Y-75885408D01*
X43765659Y-75650000D01*
X43761284Y-75600000D01*
X43745536Y-75420000D01*
X47254540Y-75420000D01*
X47274326Y-75608257D01*
X47332820Y-75788284D01*
X47427466Y-75952216D01*
X47554129Y-76092889D01*
X47707269Y-76204151D01*
X47880197Y-76281144D01*
X48065352Y-76320500D01*
X48065354Y-76320500D01*
X48254648Y-76320500D01*
X48384184Y-76292966D01*
X48439803Y-76281144D01*
X48612730Y-76204151D01*
X48692405Y-76146264D01*
X48765870Y-76092889D01*
X48892533Y-75952216D01*
X48987179Y-75788284D01*
X48987188Y-75788256D01*
X49045674Y-75608256D01*
X49065460Y-75420000D01*
X49045674Y-75231744D01*
X48987179Y-75051716D01*
X48987179Y-75051715D01*
X48892533Y-74887783D01*
X48765870Y-74747110D01*
X48612730Y-74635848D01*
X48439802Y-74558855D01*
X48254648Y-74519500D01*
X48254646Y-74519500D01*
X48065354Y-74519500D01*
X48065352Y-74519500D01*
X47880197Y-74558855D01*
X47707269Y-74635848D01*
X47554129Y-74747110D01*
X47427466Y-74887783D01*
X47332820Y-75051715D01*
X47274326Y-75231742D01*
X47254540Y-75420000D01*
X43745536Y-75420000D01*
X43745063Y-75414592D01*
X43744299Y-75411742D01*
X43683903Y-75186337D01*
X43584035Y-74972171D01*
X43448495Y-74778599D01*
X43281401Y-74611505D01*
X43095839Y-74481573D01*
X43052216Y-74426998D01*
X43045022Y-74357500D01*
X43076545Y-74295145D01*
X43095837Y-74278428D01*
X43281401Y-74148495D01*
X43448495Y-73981401D01*
X43584035Y-73787830D01*
X43683903Y-73573663D01*
X43745063Y-73345408D01*
X43765659Y-73110000D01*
X43745063Y-72874592D01*
X43683903Y-72646337D01*
X43584035Y-72432171D01*
X43448495Y-72238599D01*
X43281401Y-72071505D01*
X43087830Y-71935965D01*
X42873663Y-71836097D01*
X42801074Y-71816647D01*
X42645407Y-71774936D01*
X42409999Y-71754340D01*
X42174592Y-71774936D01*
X41946336Y-71836097D01*
X41732170Y-71935965D01*
X41538601Y-72071503D01*
X41416285Y-72193819D01*
X41354962Y-72227303D01*
X41285270Y-72222319D01*
X41229337Y-72180447D01*
X41212422Y-72149471D01*
X41163352Y-72017911D01*
X41077188Y-71902811D01*
X40962089Y-71816647D01*
X40827371Y-71766400D01*
X40771132Y-71760354D01*
X40764518Y-71760000D01*
X40120000Y-71760000D01*
X40120000Y-72674498D01*
X40012315Y-72625320D01*
X39905763Y-72610000D01*
X39834237Y-72610000D01*
X39727685Y-72625320D01*
X39620000Y-72674498D01*
X39620000Y-71760000D01*
X38975482Y-71760000D01*
X38968867Y-71760354D01*
X38912628Y-71766400D01*
X38777910Y-71816647D01*
X38662811Y-71902811D01*
X38576647Y-72017910D01*
X38526400Y-72152628D01*
X38520354Y-72208867D01*
X38520000Y-72215481D01*
X38520000Y-72860000D01*
X39436314Y-72860000D01*
X39410507Y-72900156D01*
X39370000Y-73038111D01*
X39370000Y-73181889D01*
X39410507Y-73319844D01*
X39436314Y-73360000D01*
X38520000Y-73360000D01*
X38520000Y-74004518D01*
X38520354Y-74011132D01*
X38526400Y-74067371D01*
X38576647Y-74202089D01*
X38662811Y-74317188D01*
X38777911Y-74403352D01*
X38909471Y-74452422D01*
X38965404Y-74494294D01*
X38989821Y-74559758D01*
X38974969Y-74628031D01*
X38953819Y-74656285D01*
X38831503Y-74778601D01*
X38695965Y-74972170D01*
X38596097Y-75186336D01*
X38534936Y-75414592D01*
X38514340Y-75649999D01*
X38534936Y-75885407D01*
X38562188Y-75987112D01*
X38596097Y-76113663D01*
X38695965Y-76327830D01*
X38831505Y-76521401D01*
X38998599Y-76688495D01*
X39184160Y-76818426D01*
X39227783Y-76873002D01*
X39234976Y-76942501D01*
X39203454Y-77004855D01*
X39184159Y-77021575D01*
X38998595Y-77151508D01*
X38831505Y-77318598D01*
X38695965Y-77512170D01*
X38596097Y-77726336D01*
X38534936Y-77954592D01*
X38514340Y-78190000D01*
X38534936Y-78425407D01*
X38571228Y-78560849D01*
X38596097Y-78653663D01*
X38695965Y-78867830D01*
X38831505Y-79061401D01*
X38998599Y-79228495D01*
X39184160Y-79358426D01*
X39227783Y-79413002D01*
X39234976Y-79482501D01*
X39203454Y-79544855D01*
X39184158Y-79561575D01*
X39001086Y-79689764D01*
X38998595Y-79691508D01*
X38831505Y-79858598D01*
X38695965Y-80052170D01*
X38596097Y-80266336D01*
X38534936Y-80494592D01*
X38514340Y-80730000D01*
X33012356Y-80730000D01*
X32965254Y-80654431D01*
X32958803Y-80647644D01*
X32825059Y-80506947D01*
X32658049Y-80390705D01*
X32471058Y-80310460D01*
X32271741Y-80269500D01*
X32271739Y-80269500D01*
X31720591Y-80269500D01*
X31653552Y-80249815D01*
X31607797Y-80197011D01*
X31597853Y-80127853D01*
X31606030Y-80098047D01*
X31610281Y-80087784D01*
X31650687Y-79990236D01*
X31670466Y-79840000D01*
X31650687Y-79689764D01*
X31592698Y-79549767D01*
X31539164Y-79480000D01*
X34444540Y-79480000D01*
X34464326Y-79668257D01*
X34522820Y-79848284D01*
X34617466Y-80012216D01*
X34744129Y-80152889D01*
X34897269Y-80264151D01*
X35070197Y-80341144D01*
X35255352Y-80380500D01*
X35255354Y-80380500D01*
X35444648Y-80380500D01*
X35607705Y-80345841D01*
X35629803Y-80341144D01*
X35802730Y-80264151D01*
X35882570Y-80206144D01*
X35955870Y-80152889D01*
X35972221Y-80134730D01*
X36082533Y-80012216D01*
X36177179Y-79848284D01*
X36235674Y-79668256D01*
X36255460Y-79480000D01*
X36235674Y-79291744D01*
X36177179Y-79111716D01*
X36177179Y-79111715D01*
X36082533Y-78947783D01*
X35955870Y-78807110D01*
X35802730Y-78695848D01*
X35629802Y-78618855D01*
X35444648Y-78579500D01*
X35444646Y-78579500D01*
X35255354Y-78579500D01*
X35255352Y-78579500D01*
X35070197Y-78618855D01*
X34897269Y-78695848D01*
X34744129Y-78807110D01*
X34617466Y-78947783D01*
X34522820Y-79111715D01*
X34464326Y-79291742D01*
X34444540Y-79480000D01*
X31539164Y-79480000D01*
X31500451Y-79429549D01*
X31380233Y-79337302D01*
X31240236Y-79279313D01*
X31181356Y-79271561D01*
X31131739Y-79265029D01*
X31131737Y-79265028D01*
X31127720Y-79264500D01*
X31052280Y-79264500D01*
X31048263Y-79265028D01*
X31048260Y-79265029D01*
X30939764Y-79279313D01*
X30799768Y-79337301D01*
X30679549Y-79429549D01*
X30587301Y-79549768D01*
X30529312Y-79689764D01*
X30509533Y-79840000D01*
X30529312Y-79990235D01*
X30582856Y-80119500D01*
X30587302Y-80130233D01*
X30626755Y-80181649D01*
X30641492Y-80200854D01*
X30666686Y-80266024D01*
X30652648Y-80334468D01*
X30603834Y-80384458D01*
X30603293Y-80384760D01*
X30495500Y-80444589D01*
X30464718Y-80471015D01*
X30348740Y-80570580D01*
X30341104Y-80577135D01*
X30216551Y-80738042D01*
X30126940Y-80920727D01*
X30075937Y-81117716D01*
X30065630Y-81320937D01*
X28739203Y-81320937D01*
X28744369Y-81219064D01*
X28713556Y-81017929D01*
X28694104Y-80965408D01*
X28642886Y-80827113D01*
X28535254Y-80654431D01*
X28528803Y-80647644D01*
X28395059Y-80506947D01*
X28228049Y-80390705D01*
X28041058Y-80310460D01*
X27841741Y-80269500D01*
X27089258Y-80269500D01*
X27086147Y-80269816D01*
X27086134Y-80269817D01*
X26937559Y-80284926D01*
X26743412Y-80345841D01*
X26565500Y-80444589D01*
X26534718Y-80471015D01*
X26418740Y-80570580D01*
X26411104Y-80577135D01*
X26286551Y-80738042D01*
X26196940Y-80920727D01*
X26145937Y-81117716D01*
X26135630Y-81320937D01*
X24153714Y-81320937D01*
X24156068Y-75600000D01*
X33474540Y-75600000D01*
X33494326Y-75788257D01*
X33552820Y-75968284D01*
X33647466Y-76132216D01*
X33774129Y-76272889D01*
X33927269Y-76384151D01*
X34100197Y-76461144D01*
X34285352Y-76500500D01*
X34285354Y-76500500D01*
X34474648Y-76500500D01*
X34609943Y-76471742D01*
X34659803Y-76461144D01*
X34832730Y-76384151D01*
X34899223Y-76335841D01*
X34985870Y-76272889D01*
X35112533Y-76132216D01*
X35207179Y-75968284D01*
X35234107Y-75885408D01*
X35265674Y-75788256D01*
X35285460Y-75600000D01*
X35265674Y-75411744D01*
X35207188Y-75231744D01*
X35207179Y-75231715D01*
X35112533Y-75067783D01*
X34985870Y-74927110D01*
X34832730Y-74815848D01*
X34659802Y-74738855D01*
X34474648Y-74699500D01*
X34474646Y-74699500D01*
X34285354Y-74699500D01*
X34285352Y-74699500D01*
X34100197Y-74738855D01*
X33927269Y-74815848D01*
X33774129Y-74927110D01*
X33647466Y-75067783D01*
X33552820Y-75231715D01*
X33494326Y-75411742D01*
X33474540Y-75600000D01*
X24156068Y-75600000D01*
X24157269Y-72680937D01*
X26135630Y-72680937D01*
X26166443Y-72882071D01*
X26237113Y-73072886D01*
X26344745Y-73245568D01*
X26344748Y-73245571D01*
X26484941Y-73393053D01*
X26651951Y-73509295D01*
X26838942Y-73589540D01*
X27038259Y-73630500D01*
X27038261Y-73630500D01*
X27787600Y-73630500D01*
X27790742Y-73630500D01*
X27942438Y-73615074D01*
X28136588Y-73554159D01*
X28314502Y-73455409D01*
X28468895Y-73322866D01*
X28593448Y-73161958D01*
X28683060Y-72979271D01*
X28734063Y-72782285D01*
X28739203Y-72680937D01*
X30065630Y-72680937D01*
X30096443Y-72882071D01*
X30167113Y-73072886D01*
X30274745Y-73245568D01*
X30274748Y-73245571D01*
X30414941Y-73393053D01*
X30581951Y-73509295D01*
X30581952Y-73509295D01*
X30581953Y-73509296D01*
X30589759Y-73512646D01*
X30643604Y-73557171D01*
X30664828Y-73623739D01*
X30646694Y-73691215D01*
X30639237Y-73702083D01*
X30587302Y-73769766D01*
X30529312Y-73909764D01*
X30509533Y-74060000D01*
X30529312Y-74210235D01*
X30587301Y-74350231D01*
X30587302Y-74350233D01*
X30679549Y-74470451D01*
X30799767Y-74562698D01*
X30939764Y-74620687D01*
X31052280Y-74635500D01*
X31056333Y-74635500D01*
X31123667Y-74635500D01*
X31127720Y-74635500D01*
X31240236Y-74620687D01*
X31380233Y-74562698D01*
X31500451Y-74470451D01*
X31592698Y-74350233D01*
X31650687Y-74210236D01*
X31670466Y-74060000D01*
X31650687Y-73909764D01*
X31606030Y-73801953D01*
X31598561Y-73732483D01*
X31629836Y-73670004D01*
X31689925Y-73634352D01*
X31720591Y-73630500D01*
X32217600Y-73630500D01*
X32220742Y-73630500D01*
X32372438Y-73615074D01*
X32566588Y-73554159D01*
X32744502Y-73455409D01*
X32898895Y-73322866D01*
X33023448Y-73161958D01*
X33113060Y-72979271D01*
X33164063Y-72782285D01*
X33174369Y-72579064D01*
X33151865Y-72432170D01*
X33143556Y-72377928D01*
X33072886Y-72187113D01*
X32965254Y-72014431D01*
X32958803Y-72007644D01*
X32825059Y-71866947D01*
X32658049Y-71750705D01*
X32471058Y-71670460D01*
X32271741Y-71629500D01*
X32271739Y-71629500D01*
X31893843Y-71629500D01*
X31826804Y-71609815D01*
X31781049Y-71557011D01*
X31771105Y-71487853D01*
X31800130Y-71424297D01*
X31801693Y-71422527D01*
X31805868Y-71417890D01*
X31805871Y-71417888D01*
X31932533Y-71277216D01*
X32027179Y-71113284D01*
X32085674Y-70933256D01*
X32105460Y-70745000D01*
X32085674Y-70556744D01*
X32027179Y-70376716D01*
X32027179Y-70376715D01*
X31932533Y-70212783D01*
X31805870Y-70072110D01*
X31652730Y-69960848D01*
X31479802Y-69883855D01*
X31294648Y-69844500D01*
X31294646Y-69844500D01*
X31105354Y-69844500D01*
X31105352Y-69844500D01*
X30920197Y-69883855D01*
X30747269Y-69960848D01*
X30594129Y-70072110D01*
X30467466Y-70212783D01*
X30372820Y-70376715D01*
X30314326Y-70556742D01*
X30294540Y-70745000D01*
X30314326Y-70933257D01*
X30372820Y-71113284D01*
X30467466Y-71277216D01*
X30594129Y-71417889D01*
X30695780Y-71491742D01*
X30738446Y-71547072D01*
X30744425Y-71616685D01*
X30711820Y-71678480D01*
X30683072Y-71700479D01*
X30495500Y-71804589D01*
X30341104Y-71937135D01*
X30216551Y-72098042D01*
X30126940Y-72280727D01*
X30075937Y-72477716D01*
X30065630Y-72680937D01*
X28739203Y-72680937D01*
X28744369Y-72579064D01*
X28721865Y-72432170D01*
X28713556Y-72377928D01*
X28642886Y-72187113D01*
X28535254Y-72014431D01*
X28528803Y-72007644D01*
X28395059Y-71866947D01*
X28228049Y-71750705D01*
X28041058Y-71670460D01*
X27841741Y-71629500D01*
X27089258Y-71629500D01*
X27086147Y-71629816D01*
X27086134Y-71629817D01*
X26937559Y-71644926D01*
X26743412Y-71705841D01*
X26565500Y-71804589D01*
X26411104Y-71937135D01*
X26286551Y-72098042D01*
X26196940Y-72280727D01*
X26145937Y-72477716D01*
X26135630Y-72680937D01*
X24157269Y-72680937D01*
X24159578Y-67070000D01*
X24774340Y-67070000D01*
X24794936Y-67305407D01*
X24839709Y-67472501D01*
X24856097Y-67533663D01*
X24955965Y-67747830D01*
X25091505Y-67941401D01*
X25091508Y-67941403D01*
X25091508Y-67941404D01*
X25213430Y-68063326D01*
X25246915Y-68124649D01*
X25241931Y-68194341D01*
X25200059Y-68250274D01*
X25169083Y-68267189D01*
X25037669Y-68316204D01*
X24922454Y-68402454D01*
X24836204Y-68517668D01*
X24785910Y-68652515D01*
X24785909Y-68652517D01*
X24779500Y-68712127D01*
X24779500Y-68715448D01*
X24779500Y-68715449D01*
X24779500Y-70504560D01*
X24779500Y-70504578D01*
X24779501Y-70507872D01*
X24779853Y-70511152D01*
X24779854Y-70511159D01*
X24784841Y-70557545D01*
X24785909Y-70567483D01*
X24836204Y-70702331D01*
X24922454Y-70817546D01*
X25037669Y-70903796D01*
X25172517Y-70954091D01*
X25232127Y-70960500D01*
X27027872Y-70960499D01*
X27087483Y-70954091D01*
X27222331Y-70903796D01*
X27337546Y-70817546D01*
X27423796Y-70702331D01*
X27474091Y-70567483D01*
X27480500Y-70507873D01*
X27480499Y-69600000D01*
X33249364Y-69600000D01*
X33306569Y-69813492D01*
X33406399Y-70027576D01*
X33541893Y-70221081D01*
X33708918Y-70388106D01*
X33902423Y-70523600D01*
X34116509Y-70623430D01*
X34330000Y-70680634D01*
X34330000Y-69785501D01*
X34437685Y-69834680D01*
X34544237Y-69850000D01*
X34615763Y-69850000D01*
X34722315Y-69834680D01*
X34830000Y-69785501D01*
X34830000Y-70680633D01*
X35043490Y-70623430D01*
X35257576Y-70523600D01*
X35451077Y-70388109D01*
X35573133Y-70266053D01*
X35634456Y-70232568D01*
X35704148Y-70237552D01*
X35760082Y-70279423D01*
X35776996Y-70310399D01*
X35826204Y-70442331D01*
X35912454Y-70557546D01*
X36027669Y-70643796D01*
X36162517Y-70694091D01*
X36222127Y-70700500D01*
X38017872Y-70700499D01*
X38077483Y-70694091D01*
X38212331Y-70643796D01*
X38327546Y-70557546D01*
X38413796Y-70442331D01*
X38464091Y-70307483D01*
X38470500Y-70247873D01*
X38470499Y-68452128D01*
X38464091Y-68392517D01*
X38413796Y-68257669D01*
X38327546Y-68142454D01*
X38212331Y-68056204D01*
X38077483Y-68005909D01*
X38017873Y-67999500D01*
X38014550Y-67999500D01*
X36225439Y-67999500D01*
X36225420Y-67999500D01*
X36222128Y-67999501D01*
X36218848Y-67999853D01*
X36218840Y-67999854D01*
X36162515Y-68005909D01*
X36027669Y-68056204D01*
X35912454Y-68142454D01*
X35826204Y-68257669D01*
X35776997Y-68389599D01*
X35735125Y-68445532D01*
X35669661Y-68469949D01*
X35601388Y-68455097D01*
X35573134Y-68433946D01*
X35451081Y-68311893D01*
X35257576Y-68176399D01*
X35043492Y-68076569D01*
X34830000Y-68019364D01*
X34830000Y-68914498D01*
X34722315Y-68865320D01*
X34615763Y-68850000D01*
X34544237Y-68850000D01*
X34437685Y-68865320D01*
X34330000Y-68914498D01*
X34330000Y-68019364D01*
X34329999Y-68019364D01*
X34116507Y-68076569D01*
X33902421Y-68176400D01*
X33708921Y-68311890D01*
X33541890Y-68478921D01*
X33406400Y-68672421D01*
X33306569Y-68886507D01*
X33249364Y-69099999D01*
X33249364Y-69100000D01*
X34146314Y-69100000D01*
X34120507Y-69140156D01*
X34080000Y-69278111D01*
X34080000Y-69421889D01*
X34120507Y-69559844D01*
X34146314Y-69600000D01*
X33249364Y-69600000D01*
X27480499Y-69600000D01*
X27480499Y-68712128D01*
X27474091Y-68652517D01*
X27423796Y-68517669D01*
X27337546Y-68402454D01*
X27222331Y-68316204D01*
X27160898Y-68293291D01*
X27090916Y-68267189D01*
X27034983Y-68225317D01*
X27010566Y-68159853D01*
X27025418Y-68091580D01*
X27046563Y-68063332D01*
X27168495Y-67941401D01*
X27304035Y-67747830D01*
X27403903Y-67533663D01*
X27465063Y-67305408D01*
X27477347Y-67164999D01*
X28484540Y-67164999D01*
X28504326Y-67353257D01*
X28562820Y-67533284D01*
X28657466Y-67697216D01*
X28784129Y-67837889D01*
X28937269Y-67949151D01*
X29110197Y-68026144D01*
X29295352Y-68065500D01*
X29295354Y-68065500D01*
X29484648Y-68065500D01*
X29608083Y-68039262D01*
X29669803Y-68026144D01*
X29842730Y-67949151D01*
X29995871Y-67837888D01*
X30122533Y-67697216D01*
X30217179Y-67533284D01*
X30275674Y-67353256D01*
X30295460Y-67165000D01*
X30275674Y-66976744D01*
X30217179Y-66796716D01*
X30217179Y-66796715D01*
X30122533Y-66632783D01*
X29995870Y-66492110D01*
X29842730Y-66380848D01*
X29669802Y-66303855D01*
X29484648Y-66264500D01*
X29484646Y-66264500D01*
X29295354Y-66264500D01*
X29295352Y-66264500D01*
X29110197Y-66303855D01*
X28937269Y-66380848D01*
X28784129Y-66492110D01*
X28657466Y-66632783D01*
X28562820Y-66796715D01*
X28504326Y-66976742D01*
X28484540Y-67164999D01*
X27477347Y-67164999D01*
X27485659Y-67070000D01*
X27465063Y-66834592D01*
X27403903Y-66606337D01*
X27304035Y-66392171D01*
X27168495Y-66198599D01*
X27001401Y-66031505D01*
X26807830Y-65895965D01*
X26593663Y-65796097D01*
X26532501Y-65779709D01*
X26365407Y-65734936D01*
X26129999Y-65714340D01*
X25894592Y-65734936D01*
X25666336Y-65796097D01*
X25452170Y-65895965D01*
X25258598Y-66031505D01*
X25091505Y-66198598D01*
X24955965Y-66392170D01*
X24856097Y-66606336D01*
X24794936Y-66834592D01*
X24774340Y-67070000D01*
X24159578Y-67070000D01*
X24160448Y-64954449D01*
X24180161Y-64887418D01*
X24232984Y-64841684D01*
X24284449Y-64830500D01*
X34535543Y-64830500D01*
X34599297Y-64848145D01*
G37*
G04 #@! TD.AperFunction*
M02*
