G04 #@! TF.GenerationSoftware,KiCad,Pcbnew,7.0.2-0*
G04 #@! TF.CreationDate,2023-12-31T01:39:30-06:00*
G04 #@! TF.ProjectId,usb_programmer,7573625f-7072-46f6-9772-616d6d65722e,rev?*
G04 #@! TF.SameCoordinates,Original*
G04 #@! TF.FileFunction,Copper,L4,Bot*
G04 #@! TF.FilePolarity,Positive*
%FSLAX46Y46*%
G04 Gerber Fmt 4.6, Leading zero omitted, Abs format (unit mm)*
G04 Created by KiCad (PCBNEW 7.0.2-0) date 2023-12-31 01:39:30*
%MOMM*%
%LPD*%
G01*
G04 APERTURE LIST*
G04 #@! TA.AperFunction,ComponentPad*
%ADD10R,1.700000X1.700000*%
G04 #@! TD*
G04 #@! TA.AperFunction,ComponentPad*
%ADD11O,1.700000X1.700000*%
G04 #@! TD*
G04 #@! TA.AperFunction,ComponentPad*
%ADD12O,1.600000X1.000000*%
G04 #@! TD*
G04 #@! TA.AperFunction,ComponentPad*
%ADD13O,2.100000X1.000000*%
G04 #@! TD*
G04 #@! TA.AperFunction,SMDPad,CuDef*
%ADD14R,2.050000X0.360000*%
G04 #@! TD*
G04 #@! TA.AperFunction,SMDPad,CuDef*
%ADD15R,1.500000X0.700000*%
G04 #@! TD*
G04 #@! TA.AperFunction,SMDPad,CuDef*
%ADD16R,1.500000X0.800000*%
G04 #@! TD*
G04 #@! TA.AperFunction,SMDPad,CuDef*
%ADD17R,1.550000X0.410000*%
G04 #@! TD*
G04 #@! TA.AperFunction,SMDPad,CuDef*
%ADD18R,1.550000X0.260000*%
G04 #@! TD*
G04 #@! TA.AperFunction,ViaPad*
%ADD19C,0.800000*%
G04 #@! TD*
G04 #@! TA.AperFunction,Conductor*
%ADD20C,0.250000*%
G04 #@! TD*
G04 #@! TA.AperFunction,Conductor*
%ADD21C,0.500000*%
G04 #@! TD*
G04 APERTURE END LIST*
D10*
X39870000Y-73110000D03*
D11*
X42410000Y-73110000D03*
X39870000Y-75650000D03*
X42410000Y-75650000D03*
X39870000Y-78190000D03*
X42410000Y-78190000D03*
X39870000Y-80730000D03*
X42410000Y-80730000D03*
D12*
X27440000Y-81270000D03*
D13*
X31620000Y-81270000D03*
D12*
X27440000Y-72630000D03*
D13*
X31620000Y-72630000D03*
D10*
X26130000Y-69610000D03*
D11*
X26130000Y-67070000D03*
D14*
X51840000Y-73990000D03*
D15*
X49770000Y-74125000D03*
D14*
X51840000Y-80800000D03*
D16*
X49770000Y-81020000D03*
D17*
X52090000Y-74570000D03*
D18*
X52090000Y-75145000D03*
X52090000Y-75645000D03*
X52090000Y-76145000D03*
X52090000Y-76645000D03*
X52090000Y-77145000D03*
X52090000Y-77645000D03*
X52090000Y-78145000D03*
X52090000Y-78645000D03*
X52090000Y-79145000D03*
X52090000Y-79645000D03*
D17*
X52090000Y-80220000D03*
D10*
X26130000Y-86905000D03*
D11*
X26130000Y-84365000D03*
D10*
X37120000Y-69350000D03*
D11*
X34580000Y-69350000D03*
D19*
X49870000Y-76660000D03*
X48160000Y-75420000D03*
X28500000Y-86150000D03*
X44660000Y-74280000D03*
X45160000Y-82670000D03*
X48395000Y-79345000D03*
X50450000Y-80100000D03*
X50127752Y-75006254D03*
X29390000Y-67165000D03*
X31200000Y-70745000D03*
X34200000Y-72175000D03*
X34260000Y-81640000D03*
X31460000Y-66175000D03*
X35350000Y-79480000D03*
X34380000Y-75600000D03*
D20*
X49870000Y-76660000D02*
X49411068Y-77118932D01*
X41045000Y-79555000D02*
X39870000Y-80730000D01*
X49411068Y-77118932D02*
X43000633Y-77118932D01*
X43000633Y-77118932D02*
X42896701Y-77015000D01*
X42896701Y-77015000D02*
X41923299Y-77015000D01*
X41923299Y-77015000D02*
X41045000Y-77893299D01*
X41045000Y-77893299D02*
X41045000Y-79555000D01*
X42410000Y-73110000D02*
X42410000Y-73860000D01*
X42410000Y-73860000D02*
X45218932Y-76668932D01*
X45218932Y-76668932D02*
X47936373Y-76668932D01*
X47936373Y-76668932D02*
X48874051Y-75731254D01*
X48874051Y-75731254D02*
X50501254Y-75731254D01*
X50501254Y-75731254D02*
X50990000Y-76220000D01*
X50990000Y-76220000D02*
X50990000Y-76600000D01*
X50990000Y-76600000D02*
X51035000Y-76645000D01*
X51035000Y-76645000D02*
X52090000Y-76645000D01*
X50564006Y-74570000D02*
X52090000Y-74570000D01*
X50127752Y-75006254D02*
X49770000Y-74648502D01*
X49770000Y-74648502D02*
X49770000Y-74125000D01*
X50127752Y-75006254D02*
X50564006Y-74570000D01*
X50127752Y-75006254D02*
X51144006Y-73990000D01*
X51144006Y-73990000D02*
X51840000Y-73990000D01*
D21*
X34380000Y-75600000D02*
X34380000Y-78510000D01*
X34380000Y-78510000D02*
X35350000Y-79480000D01*
X26130000Y-67070000D02*
X24830000Y-68370000D01*
X24830000Y-68370000D02*
X24830000Y-83065000D01*
X24830000Y-83065000D02*
X26130000Y-84365000D01*
D20*
X42410000Y-73110000D02*
X38650000Y-69350000D01*
X38650000Y-69350000D02*
X37120000Y-69350000D01*
X42410000Y-78190000D02*
X52045000Y-78190000D01*
X52045000Y-78190000D02*
X52090000Y-78145000D01*
X52090000Y-80220000D02*
X50570000Y-80220000D01*
X50570000Y-80220000D02*
X50450000Y-80100000D01*
X51840000Y-80800000D02*
X51150000Y-80800000D01*
X51150000Y-80800000D02*
X50450000Y-80100000D01*
X49770000Y-81020000D02*
X49770000Y-80780000D01*
X49770000Y-80780000D02*
X50450000Y-80100000D01*
X52090000Y-76145000D02*
X53145000Y-76145000D01*
X53145000Y-76145000D02*
X53190000Y-76190000D01*
X53190000Y-76190000D02*
X53190000Y-78600000D01*
X53190000Y-78600000D02*
X53100000Y-78690000D01*
X53100000Y-78690000D02*
X49740000Y-78690000D01*
X49740000Y-78690000D02*
X49085000Y-79345000D01*
X49085000Y-79345000D02*
X48395000Y-79345000D01*
X48395000Y-79345000D02*
X48370000Y-79370000D01*
M02*
