G04 #@! TF.GenerationSoftware,KiCad,Pcbnew,7.0.2-0*
G04 #@! TF.CreationDate,2023-12-31T01:39:30-06:00*
G04 #@! TF.ProjectId,usb_programmer,7573625f-7072-46f6-9772-616d6d65722e,rev?*
G04 #@! TF.SameCoordinates,Original*
G04 #@! TF.FileFunction,Legend,Top*
G04 #@! TF.FilePolarity,Positive*
%FSLAX46Y46*%
G04 Gerber Fmt 4.6, Leading zero omitted, Abs format (unit mm)*
G04 Created by KiCad (PCBNEW 7.0.2-0) date 2023-12-31 01:39:30*
%MOMM*%
%LPD*%
G01*
G04 APERTURE LIST*
G04 Aperture macros list*
%AMRoundRect*
0 Rectangle with rounded corners*
0 $1 Rounding radius*
0 $2 $3 $4 $5 $6 $7 $8 $9 X,Y pos of 4 corners*
0 Add a 4 corners polygon primitive as box body*
4,1,4,$2,$3,$4,$5,$6,$7,$8,$9,$2,$3,0*
0 Add four circle primitives for the rounded corners*
1,1,$1+$1,$2,$3*
1,1,$1+$1,$4,$5*
1,1,$1+$1,$6,$7*
1,1,$1+$1,$8,$9*
0 Add four rect primitives between the rounded corners*
20,1,$1+$1,$2,$3,$4,$5,0*
20,1,$1+$1,$4,$5,$6,$7,0*
20,1,$1+$1,$6,$7,$8,$9,0*
20,1,$1+$1,$8,$9,$2,$3,0*%
G04 Aperture macros list end*
%ADD10C,0.100000*%
%ADD11C,0.120000*%
%ADD12R,1.700000X1.700000*%
%ADD13O,1.700000X1.700000*%
%ADD14RoundRect,0.150000X0.587500X0.150000X-0.587500X0.150000X-0.587500X-0.150000X0.587500X-0.150000X0*%
%ADD15RoundRect,0.155000X0.155000X-0.212500X0.155000X0.212500X-0.155000X0.212500X-0.155000X-0.212500X0*%
%ADD16O,1.600000X1.000000*%
%ADD17O,2.100000X1.000000*%
%ADD18R,1.450000X0.600000*%
%ADD19R,1.450000X0.300000*%
%ADD20C,0.650000*%
%ADD21RoundRect,0.135000X-0.135000X-0.185000X0.135000X-0.185000X0.135000X0.185000X-0.135000X0.185000X0*%
%ADD22RoundRect,0.155000X-0.155000X0.212500X-0.155000X-0.212500X0.155000X-0.212500X0.155000X0.212500X0*%
%ADD23RoundRect,0.150000X-0.587500X-0.150000X0.587500X-0.150000X0.587500X0.150000X-0.587500X0.150000X0*%
%ADD24R,1.550000X0.410000*%
%ADD25R,1.550000X0.260000*%
%ADD26R,1.750000X0.360000*%
%ADD27RoundRect,0.135000X-0.185000X0.135000X-0.185000X-0.135000X0.185000X-0.135000X0.185000X0.135000X0*%
G04 APERTURE END LIST*
D10*
X27859523Y-83208333D02*
X28240476Y-83208333D01*
X28049999Y-83398809D02*
X28049999Y-83017857D01*
X28099523Y-65578333D02*
X28480476Y-65578333D01*
X28289999Y-65768809D02*
X28289999Y-65387857D01*
X36539047Y-66872619D02*
X36491428Y-66848809D01*
X36491428Y-66848809D02*
X36419999Y-66848809D01*
X36419999Y-66848809D02*
X36348571Y-66872619D01*
X36348571Y-66872619D02*
X36300952Y-66920238D01*
X36300952Y-66920238D02*
X36277142Y-66967857D01*
X36277142Y-66967857D02*
X36253333Y-67063095D01*
X36253333Y-67063095D02*
X36253333Y-67134523D01*
X36253333Y-67134523D02*
X36277142Y-67229761D01*
X36277142Y-67229761D02*
X36300952Y-67277380D01*
X36300952Y-67277380D02*
X36348571Y-67325000D01*
X36348571Y-67325000D02*
X36419999Y-67348809D01*
X36419999Y-67348809D02*
X36467618Y-67348809D01*
X36467618Y-67348809D02*
X36539047Y-67325000D01*
X36539047Y-67325000D02*
X36562856Y-67301190D01*
X36562856Y-67301190D02*
X36562856Y-67134523D01*
X36562856Y-67134523D02*
X36467618Y-67134523D01*
X36777142Y-67348809D02*
X36777142Y-66848809D01*
X36777142Y-66848809D02*
X37062856Y-67348809D01*
X37062856Y-67348809D02*
X37062856Y-66848809D01*
X37300952Y-67348809D02*
X37300952Y-66848809D01*
X37300952Y-66848809D02*
X37420000Y-66848809D01*
X37420000Y-66848809D02*
X37491428Y-66872619D01*
X37491428Y-66872619D02*
X37539047Y-66920238D01*
X37539047Y-66920238D02*
X37562857Y-66967857D01*
X37562857Y-66967857D02*
X37586666Y-67063095D01*
X37586666Y-67063095D02*
X37586666Y-67134523D01*
X37586666Y-67134523D02*
X37562857Y-67229761D01*
X37562857Y-67229761D02*
X37539047Y-67277380D01*
X37539047Y-67277380D02*
X37491428Y-67325000D01*
X37491428Y-67325000D02*
X37420000Y-67348809D01*
X37420000Y-67348809D02*
X37300952Y-67348809D01*
X33578571Y-67358809D02*
X33578571Y-66858809D01*
X33578571Y-66858809D02*
X33864285Y-67358809D01*
X33864285Y-67358809D02*
X33864285Y-66858809D01*
X34388095Y-67358809D02*
X34221429Y-67120714D01*
X34102381Y-67358809D02*
X34102381Y-66858809D01*
X34102381Y-66858809D02*
X34292857Y-66858809D01*
X34292857Y-66858809D02*
X34340476Y-66882619D01*
X34340476Y-66882619D02*
X34364286Y-66906428D01*
X34364286Y-66906428D02*
X34388095Y-66954047D01*
X34388095Y-66954047D02*
X34388095Y-67025476D01*
X34388095Y-67025476D02*
X34364286Y-67073095D01*
X34364286Y-67073095D02*
X34340476Y-67096904D01*
X34340476Y-67096904D02*
X34292857Y-67120714D01*
X34292857Y-67120714D02*
X34102381Y-67120714D01*
X34578572Y-67335000D02*
X34650000Y-67358809D01*
X34650000Y-67358809D02*
X34769048Y-67358809D01*
X34769048Y-67358809D02*
X34816667Y-67335000D01*
X34816667Y-67335000D02*
X34840476Y-67311190D01*
X34840476Y-67311190D02*
X34864286Y-67263571D01*
X34864286Y-67263571D02*
X34864286Y-67215952D01*
X34864286Y-67215952D02*
X34840476Y-67168333D01*
X34840476Y-67168333D02*
X34816667Y-67144523D01*
X34816667Y-67144523D02*
X34769048Y-67120714D01*
X34769048Y-67120714D02*
X34673810Y-67096904D01*
X34673810Y-67096904D02*
X34626191Y-67073095D01*
X34626191Y-67073095D02*
X34602381Y-67049285D01*
X34602381Y-67049285D02*
X34578572Y-67001666D01*
X34578572Y-67001666D02*
X34578572Y-66954047D01*
X34578572Y-66954047D02*
X34602381Y-66906428D01*
X34602381Y-66906428D02*
X34626191Y-66882619D01*
X34626191Y-66882619D02*
X34673810Y-66858809D01*
X34673810Y-66858809D02*
X34792857Y-66858809D01*
X34792857Y-66858809D02*
X34864286Y-66882619D01*
X35007143Y-66858809D02*
X35292857Y-66858809D01*
X35150000Y-67358809D02*
X35150000Y-66858809D01*
X35920000Y-74615000D02*
X37970000Y-74615000D01*
X37970000Y-79165000D01*
X35920000Y-79165000D01*
X35920000Y-74615000D01*
G36*
X35920000Y-74615000D02*
G01*
X37970000Y-74615000D01*
X37970000Y-79165000D01*
X35920000Y-79165000D01*
X35920000Y-74615000D01*
G37*
X28690952Y-88078809D02*
X28405238Y-88078809D01*
X28548095Y-88078809D02*
X28548095Y-87578809D01*
X28548095Y-87578809D02*
X28500476Y-87650238D01*
X28500476Y-87650238D02*
X28452857Y-87697857D01*
X28452857Y-87697857D02*
X28405238Y-87721666D01*
X28881428Y-87626428D02*
X28905237Y-87602619D01*
X28905237Y-87602619D02*
X28952856Y-87578809D01*
X28952856Y-87578809D02*
X29071904Y-87578809D01*
X29071904Y-87578809D02*
X29119523Y-87602619D01*
X29119523Y-87602619D02*
X29143332Y-87626428D01*
X29143332Y-87626428D02*
X29167142Y-87674047D01*
X29167142Y-87674047D02*
X29167142Y-87721666D01*
X29167142Y-87721666D02*
X29143332Y-87793095D01*
X29143332Y-87793095D02*
X28857618Y-88078809D01*
X28857618Y-88078809D02*
X29167142Y-88078809D01*
X29738570Y-87555000D02*
X29309999Y-88197857D01*
X29857618Y-87578809D02*
X30167142Y-87578809D01*
X30167142Y-87578809D02*
X30000475Y-87769285D01*
X30000475Y-87769285D02*
X30071904Y-87769285D01*
X30071904Y-87769285D02*
X30119523Y-87793095D01*
X30119523Y-87793095D02*
X30143332Y-87816904D01*
X30143332Y-87816904D02*
X30167142Y-87864523D01*
X30167142Y-87864523D02*
X30167142Y-87983571D01*
X30167142Y-87983571D02*
X30143332Y-88031190D01*
X30143332Y-88031190D02*
X30119523Y-88055000D01*
X30119523Y-88055000D02*
X30071904Y-88078809D01*
X30071904Y-88078809D02*
X29929047Y-88078809D01*
X29929047Y-88078809D02*
X29881428Y-88055000D01*
X29881428Y-88055000D02*
X29857618Y-88031190D01*
X30476665Y-87578809D02*
X30524284Y-87578809D01*
X30524284Y-87578809D02*
X30571903Y-87602619D01*
X30571903Y-87602619D02*
X30595713Y-87626428D01*
X30595713Y-87626428D02*
X30619522Y-87674047D01*
X30619522Y-87674047D02*
X30643332Y-87769285D01*
X30643332Y-87769285D02*
X30643332Y-87888333D01*
X30643332Y-87888333D02*
X30619522Y-87983571D01*
X30619522Y-87983571D02*
X30595713Y-88031190D01*
X30595713Y-88031190D02*
X30571903Y-88055000D01*
X30571903Y-88055000D02*
X30524284Y-88078809D01*
X30524284Y-88078809D02*
X30476665Y-88078809D01*
X30476665Y-88078809D02*
X30429046Y-88055000D01*
X30429046Y-88055000D02*
X30405237Y-88031190D01*
X30405237Y-88031190D02*
X30381427Y-87983571D01*
X30381427Y-87983571D02*
X30357618Y-87888333D01*
X30357618Y-87888333D02*
X30357618Y-87769285D01*
X30357618Y-87769285D02*
X30381427Y-87674047D01*
X30381427Y-87674047D02*
X30405237Y-87626428D01*
X30405237Y-87626428D02*
X30429046Y-87602619D01*
X30429046Y-87602619D02*
X30476665Y-87578809D01*
X31214760Y-87555000D02*
X30786189Y-88197857D01*
X31357618Y-87626428D02*
X31381427Y-87602619D01*
X31381427Y-87602619D02*
X31429046Y-87578809D01*
X31429046Y-87578809D02*
X31548094Y-87578809D01*
X31548094Y-87578809D02*
X31595713Y-87602619D01*
X31595713Y-87602619D02*
X31619522Y-87626428D01*
X31619522Y-87626428D02*
X31643332Y-87674047D01*
X31643332Y-87674047D02*
X31643332Y-87721666D01*
X31643332Y-87721666D02*
X31619522Y-87793095D01*
X31619522Y-87793095D02*
X31333808Y-88078809D01*
X31333808Y-88078809D02*
X31643332Y-88078809D01*
X31952855Y-87578809D02*
X32000474Y-87578809D01*
X32000474Y-87578809D02*
X32048093Y-87602619D01*
X32048093Y-87602619D02*
X32071903Y-87626428D01*
X32071903Y-87626428D02*
X32095712Y-87674047D01*
X32095712Y-87674047D02*
X32119522Y-87769285D01*
X32119522Y-87769285D02*
X32119522Y-87888333D01*
X32119522Y-87888333D02*
X32095712Y-87983571D01*
X32095712Y-87983571D02*
X32071903Y-88031190D01*
X32071903Y-88031190D02*
X32048093Y-88055000D01*
X32048093Y-88055000D02*
X32000474Y-88078809D01*
X32000474Y-88078809D02*
X31952855Y-88078809D01*
X31952855Y-88078809D02*
X31905236Y-88055000D01*
X31905236Y-88055000D02*
X31881427Y-88031190D01*
X31881427Y-88031190D02*
X31857617Y-87983571D01*
X31857617Y-87983571D02*
X31833808Y-87888333D01*
X31833808Y-87888333D02*
X31833808Y-87769285D01*
X31833808Y-87769285D02*
X31857617Y-87674047D01*
X31857617Y-87674047D02*
X31881427Y-87626428D01*
X31881427Y-87626428D02*
X31905236Y-87602619D01*
X31905236Y-87602619D02*
X31952855Y-87578809D01*
X32309998Y-87626428D02*
X32333807Y-87602619D01*
X32333807Y-87602619D02*
X32381426Y-87578809D01*
X32381426Y-87578809D02*
X32500474Y-87578809D01*
X32500474Y-87578809D02*
X32548093Y-87602619D01*
X32548093Y-87602619D02*
X32571902Y-87626428D01*
X32571902Y-87626428D02*
X32595712Y-87674047D01*
X32595712Y-87674047D02*
X32595712Y-87721666D01*
X32595712Y-87721666D02*
X32571902Y-87793095D01*
X32571902Y-87793095D02*
X32286188Y-88078809D01*
X32286188Y-88078809D02*
X32595712Y-88078809D01*
X32762378Y-87578809D02*
X33071902Y-87578809D01*
X33071902Y-87578809D02*
X32905235Y-87769285D01*
X32905235Y-87769285D02*
X32976664Y-87769285D01*
X32976664Y-87769285D02*
X33024283Y-87793095D01*
X33024283Y-87793095D02*
X33048092Y-87816904D01*
X33048092Y-87816904D02*
X33071902Y-87864523D01*
X33071902Y-87864523D02*
X33071902Y-87983571D01*
X33071902Y-87983571D02*
X33048092Y-88031190D01*
X33048092Y-88031190D02*
X33024283Y-88055000D01*
X33024283Y-88055000D02*
X32976664Y-88078809D01*
X32976664Y-88078809D02*
X32833807Y-88078809D01*
X32833807Y-88078809D02*
X32786188Y-88055000D01*
X32786188Y-88055000D02*
X32762378Y-88031190D01*
X28405238Y-88865000D02*
X28476666Y-88888809D01*
X28476666Y-88888809D02*
X28595714Y-88888809D01*
X28595714Y-88888809D02*
X28643333Y-88865000D01*
X28643333Y-88865000D02*
X28667142Y-88841190D01*
X28667142Y-88841190D02*
X28690952Y-88793571D01*
X28690952Y-88793571D02*
X28690952Y-88745952D01*
X28690952Y-88745952D02*
X28667142Y-88698333D01*
X28667142Y-88698333D02*
X28643333Y-88674523D01*
X28643333Y-88674523D02*
X28595714Y-88650714D01*
X28595714Y-88650714D02*
X28500476Y-88626904D01*
X28500476Y-88626904D02*
X28452857Y-88603095D01*
X28452857Y-88603095D02*
X28429047Y-88579285D01*
X28429047Y-88579285D02*
X28405238Y-88531666D01*
X28405238Y-88531666D02*
X28405238Y-88484047D01*
X28405238Y-88484047D02*
X28429047Y-88436428D01*
X28429047Y-88436428D02*
X28452857Y-88412619D01*
X28452857Y-88412619D02*
X28500476Y-88388809D01*
X28500476Y-88388809D02*
X28619523Y-88388809D01*
X28619523Y-88388809D02*
X28690952Y-88412619D01*
X28905237Y-88555476D02*
X28905237Y-89055476D01*
X28905237Y-88579285D02*
X28952856Y-88555476D01*
X28952856Y-88555476D02*
X29048094Y-88555476D01*
X29048094Y-88555476D02*
X29095713Y-88579285D01*
X29095713Y-88579285D02*
X29119523Y-88603095D01*
X29119523Y-88603095D02*
X29143332Y-88650714D01*
X29143332Y-88650714D02*
X29143332Y-88793571D01*
X29143332Y-88793571D02*
X29119523Y-88841190D01*
X29119523Y-88841190D02*
X29095713Y-88865000D01*
X29095713Y-88865000D02*
X29048094Y-88888809D01*
X29048094Y-88888809D02*
X28952856Y-88888809D01*
X28952856Y-88888809D02*
X28905237Y-88865000D01*
X29548094Y-88865000D02*
X29500475Y-88888809D01*
X29500475Y-88888809D02*
X29405237Y-88888809D01*
X29405237Y-88888809D02*
X29357618Y-88865000D01*
X29357618Y-88865000D02*
X29333809Y-88817380D01*
X29333809Y-88817380D02*
X29333809Y-88626904D01*
X29333809Y-88626904D02*
X29357618Y-88579285D01*
X29357618Y-88579285D02*
X29405237Y-88555476D01*
X29405237Y-88555476D02*
X29500475Y-88555476D01*
X29500475Y-88555476D02*
X29548094Y-88579285D01*
X29548094Y-88579285D02*
X29571904Y-88626904D01*
X29571904Y-88626904D02*
X29571904Y-88674523D01*
X29571904Y-88674523D02*
X29333809Y-88722142D01*
X29786189Y-88555476D02*
X29786189Y-88888809D01*
X29786189Y-88603095D02*
X29809999Y-88579285D01*
X29809999Y-88579285D02*
X29857618Y-88555476D01*
X29857618Y-88555476D02*
X29929046Y-88555476D01*
X29929046Y-88555476D02*
X29976665Y-88579285D01*
X29976665Y-88579285D02*
X30000475Y-88626904D01*
X30000475Y-88626904D02*
X30000475Y-88888809D01*
X30452856Y-88865000D02*
X30405237Y-88888809D01*
X30405237Y-88888809D02*
X30309999Y-88888809D01*
X30309999Y-88888809D02*
X30262380Y-88865000D01*
X30262380Y-88865000D02*
X30238570Y-88841190D01*
X30238570Y-88841190D02*
X30214761Y-88793571D01*
X30214761Y-88793571D02*
X30214761Y-88650714D01*
X30214761Y-88650714D02*
X30238570Y-88603095D01*
X30238570Y-88603095D02*
X30262380Y-88579285D01*
X30262380Y-88579285D02*
X30309999Y-88555476D01*
X30309999Y-88555476D02*
X30405237Y-88555476D01*
X30405237Y-88555476D02*
X30452856Y-88579285D01*
X30857617Y-88865000D02*
X30809998Y-88888809D01*
X30809998Y-88888809D02*
X30714760Y-88888809D01*
X30714760Y-88888809D02*
X30667141Y-88865000D01*
X30667141Y-88865000D02*
X30643332Y-88817380D01*
X30643332Y-88817380D02*
X30643332Y-88626904D01*
X30643332Y-88626904D02*
X30667141Y-88579285D01*
X30667141Y-88579285D02*
X30714760Y-88555476D01*
X30714760Y-88555476D02*
X30809998Y-88555476D01*
X30809998Y-88555476D02*
X30857617Y-88579285D01*
X30857617Y-88579285D02*
X30881427Y-88626904D01*
X30881427Y-88626904D02*
X30881427Y-88674523D01*
X30881427Y-88674523D02*
X30643332Y-88722142D01*
X31095712Y-88888809D02*
X31095712Y-88555476D01*
X31095712Y-88650714D02*
X31119522Y-88603095D01*
X31119522Y-88603095D02*
X31143331Y-88579285D01*
X31143331Y-88579285D02*
X31190950Y-88555476D01*
X31190950Y-88555476D02*
X31238569Y-88555476D01*
X31738569Y-88388809D02*
X31857617Y-88888809D01*
X31857617Y-88888809D02*
X31952855Y-88531666D01*
X31952855Y-88531666D02*
X32048093Y-88888809D01*
X32048093Y-88888809D02*
X32167141Y-88388809D01*
X32357617Y-88888809D02*
X32357617Y-88555476D01*
X32357617Y-88650714D02*
X32381427Y-88603095D01*
X32381427Y-88603095D02*
X32405236Y-88579285D01*
X32405236Y-88579285D02*
X32452855Y-88555476D01*
X32452855Y-88555476D02*
X32500474Y-88555476D01*
X32667141Y-88888809D02*
X32667141Y-88555476D01*
X32667141Y-88388809D02*
X32643332Y-88412619D01*
X32643332Y-88412619D02*
X32667141Y-88436428D01*
X32667141Y-88436428D02*
X32690951Y-88412619D01*
X32690951Y-88412619D02*
X32667141Y-88388809D01*
X32667141Y-88388809D02*
X32667141Y-88436428D01*
X33119522Y-88555476D02*
X33119522Y-88960238D01*
X33119522Y-88960238D02*
X33095712Y-89007857D01*
X33095712Y-89007857D02*
X33071903Y-89031666D01*
X33071903Y-89031666D02*
X33024284Y-89055476D01*
X33024284Y-89055476D02*
X32952855Y-89055476D01*
X32952855Y-89055476D02*
X32905236Y-89031666D01*
X33119522Y-88865000D02*
X33071903Y-88888809D01*
X33071903Y-88888809D02*
X32976665Y-88888809D01*
X32976665Y-88888809D02*
X32929046Y-88865000D01*
X32929046Y-88865000D02*
X32905236Y-88841190D01*
X32905236Y-88841190D02*
X32881427Y-88793571D01*
X32881427Y-88793571D02*
X32881427Y-88650714D01*
X32881427Y-88650714D02*
X32905236Y-88603095D01*
X32905236Y-88603095D02*
X32929046Y-88579285D01*
X32929046Y-88579285D02*
X32976665Y-88555476D01*
X32976665Y-88555476D02*
X33071903Y-88555476D01*
X33071903Y-88555476D02*
X33119522Y-88579285D01*
X33357617Y-88888809D02*
X33357617Y-88388809D01*
X33571903Y-88888809D02*
X33571903Y-88626904D01*
X33571903Y-88626904D02*
X33548093Y-88579285D01*
X33548093Y-88579285D02*
X33500474Y-88555476D01*
X33500474Y-88555476D02*
X33429046Y-88555476D01*
X33429046Y-88555476D02*
X33381427Y-88579285D01*
X33381427Y-88579285D02*
X33357617Y-88603095D01*
X33738570Y-88555476D02*
X33929046Y-88555476D01*
X33809998Y-88388809D02*
X33809998Y-88817380D01*
X33809998Y-88817380D02*
X33833808Y-88865000D01*
X33833808Y-88865000D02*
X33881427Y-88888809D01*
X33881427Y-88888809D02*
X33929046Y-88888809D01*
X32103334Y-86398809D02*
X32270000Y-86898809D01*
X32270000Y-86898809D02*
X32436667Y-86398809D01*
X32770000Y-86636904D02*
X32841428Y-86660714D01*
X32841428Y-86660714D02*
X32865238Y-86684523D01*
X32865238Y-86684523D02*
X32889047Y-86732142D01*
X32889047Y-86732142D02*
X32889047Y-86803571D01*
X32889047Y-86803571D02*
X32865238Y-86851190D01*
X32865238Y-86851190D02*
X32841428Y-86875000D01*
X32841428Y-86875000D02*
X32793809Y-86898809D01*
X32793809Y-86898809D02*
X32603333Y-86898809D01*
X32603333Y-86898809D02*
X32603333Y-86398809D01*
X32603333Y-86398809D02*
X32770000Y-86398809D01*
X32770000Y-86398809D02*
X32817619Y-86422619D01*
X32817619Y-86422619D02*
X32841428Y-86446428D01*
X32841428Y-86446428D02*
X32865238Y-86494047D01*
X32865238Y-86494047D02*
X32865238Y-86541666D01*
X32865238Y-86541666D02*
X32841428Y-86589285D01*
X32841428Y-86589285D02*
X32817619Y-86613095D01*
X32817619Y-86613095D02*
X32770000Y-86636904D01*
X32770000Y-86636904D02*
X32603333Y-86636904D01*
X33103333Y-86398809D02*
X33103333Y-86803571D01*
X33103333Y-86803571D02*
X33127143Y-86851190D01*
X33127143Y-86851190D02*
X33150952Y-86875000D01*
X33150952Y-86875000D02*
X33198571Y-86898809D01*
X33198571Y-86898809D02*
X33293809Y-86898809D01*
X33293809Y-86898809D02*
X33341428Y-86875000D01*
X33341428Y-86875000D02*
X33365238Y-86851190D01*
X33365238Y-86851190D02*
X33389047Y-86803571D01*
X33389047Y-86803571D02*
X33389047Y-86398809D01*
X33603334Y-86875000D02*
X33674762Y-86898809D01*
X33674762Y-86898809D02*
X33793810Y-86898809D01*
X33793810Y-86898809D02*
X33841429Y-86875000D01*
X33841429Y-86875000D02*
X33865238Y-86851190D01*
X33865238Y-86851190D02*
X33889048Y-86803571D01*
X33889048Y-86803571D02*
X33889048Y-86755952D01*
X33889048Y-86755952D02*
X33865238Y-86708333D01*
X33865238Y-86708333D02*
X33841429Y-86684523D01*
X33841429Y-86684523D02*
X33793810Y-86660714D01*
X33793810Y-86660714D02*
X33698572Y-86636904D01*
X33698572Y-86636904D02*
X33650953Y-86613095D01*
X33650953Y-86613095D02*
X33627143Y-86589285D01*
X33627143Y-86589285D02*
X33603334Y-86541666D01*
X33603334Y-86541666D02*
X33603334Y-86494047D01*
X33603334Y-86494047D02*
X33627143Y-86446428D01*
X33627143Y-86446428D02*
X33650953Y-86422619D01*
X33650953Y-86422619D02*
X33698572Y-86398809D01*
X33698572Y-86398809D02*
X33817619Y-86398809D01*
X33817619Y-86398809D02*
X33889048Y-86422619D01*
X33171428Y-65318809D02*
X33480952Y-65318809D01*
X33480952Y-65318809D02*
X33314285Y-65509285D01*
X33314285Y-65509285D02*
X33385714Y-65509285D01*
X33385714Y-65509285D02*
X33433333Y-65533095D01*
X33433333Y-65533095D02*
X33457142Y-65556904D01*
X33457142Y-65556904D02*
X33480952Y-65604523D01*
X33480952Y-65604523D02*
X33480952Y-65723571D01*
X33480952Y-65723571D02*
X33457142Y-65771190D01*
X33457142Y-65771190D02*
X33433333Y-65795000D01*
X33433333Y-65795000D02*
X33385714Y-65818809D01*
X33385714Y-65818809D02*
X33242857Y-65818809D01*
X33242857Y-65818809D02*
X33195238Y-65795000D01*
X33195238Y-65795000D02*
X33171428Y-65771190D01*
X33695237Y-65771190D02*
X33719047Y-65795000D01*
X33719047Y-65795000D02*
X33695237Y-65818809D01*
X33695237Y-65818809D02*
X33671428Y-65795000D01*
X33671428Y-65795000D02*
X33695237Y-65771190D01*
X33695237Y-65771190D02*
X33695237Y-65818809D01*
X33885713Y-65318809D02*
X34195237Y-65318809D01*
X34195237Y-65318809D02*
X34028570Y-65509285D01*
X34028570Y-65509285D02*
X34099999Y-65509285D01*
X34099999Y-65509285D02*
X34147618Y-65533095D01*
X34147618Y-65533095D02*
X34171427Y-65556904D01*
X34171427Y-65556904D02*
X34195237Y-65604523D01*
X34195237Y-65604523D02*
X34195237Y-65723571D01*
X34195237Y-65723571D02*
X34171427Y-65771190D01*
X34171427Y-65771190D02*
X34147618Y-65795000D01*
X34147618Y-65795000D02*
X34099999Y-65818809D01*
X34099999Y-65818809D02*
X33957142Y-65818809D01*
X33957142Y-65818809D02*
X33909523Y-65795000D01*
X33909523Y-65795000D02*
X33885713Y-65771190D01*
X34338094Y-65318809D02*
X34504760Y-65818809D01*
X34504760Y-65818809D02*
X34671427Y-65318809D01*
D11*
X41140000Y-74380000D02*
X41140000Y-71780000D01*
X38540000Y-73110000D02*
X38540000Y-71780000D01*
X43740000Y-71780000D02*
X43740000Y-82060000D01*
X38540000Y-82060000D02*
X43740000Y-82060000D01*
X38540000Y-74380000D02*
X38540000Y-82060000D01*
X38540000Y-74380000D02*
X41140000Y-74380000D01*
X38540000Y-71780000D02*
X39870000Y-71780000D01*
X41140000Y-71780000D02*
X43740000Y-71780000D01*
X30352500Y-69995000D02*
X32027500Y-69995000D01*
X30352500Y-69995000D02*
X29702500Y-69995000D01*
X30352500Y-66875000D02*
X31002500Y-66875000D01*
X30352500Y-66875000D02*
X29702500Y-66875000D01*
X34040000Y-74088335D02*
X34040000Y-73856665D01*
X34760000Y-74088335D02*
X34760000Y-73856665D01*
X26490000Y-81650000D02*
X24590000Y-81650000D01*
X30390000Y-81650000D02*
X28390000Y-81650000D01*
X24590000Y-72250000D02*
X24590000Y-81650000D01*
X26490000Y-72250000D02*
X24590000Y-72250000D01*
X30390000Y-72250000D02*
X28390000Y-72250000D01*
X30896359Y-86070000D02*
X31203641Y-86070000D01*
X30896359Y-86830000D02*
X31203641Y-86830000D01*
X29236359Y-65795000D02*
X29543641Y-65795000D01*
X29236359Y-66555000D02*
X29543641Y-66555000D01*
X45880000Y-80731665D02*
X45880000Y-80963335D01*
X45160000Y-80731665D02*
X45160000Y-80963335D01*
X27460000Y-70940000D02*
X26130000Y-70940000D01*
X27460000Y-69610000D02*
X27460000Y-70940000D01*
X27460000Y-68340000D02*
X27460000Y-65740000D01*
X27460000Y-68340000D02*
X24800000Y-68340000D01*
X27460000Y-65740000D02*
X24800000Y-65740000D01*
X24800000Y-68340000D02*
X24800000Y-65740000D01*
X31147500Y-82630000D02*
X29472500Y-82630000D01*
X31147500Y-82630000D02*
X31797500Y-82630000D01*
X31147500Y-85750000D02*
X30497500Y-85750000D01*
X31147500Y-85750000D02*
X31797500Y-85750000D01*
X46860000Y-80724165D02*
X46860000Y-80955835D01*
X46140000Y-80724165D02*
X46140000Y-80955835D01*
X46141250Y-75195835D02*
X46141250Y-74964165D01*
X46861250Y-75195835D02*
X46861250Y-74964165D01*
X34700000Y-79966665D02*
X34700000Y-80198335D01*
X33980000Y-79966665D02*
X33980000Y-80198335D01*
X47840000Y-80714165D02*
X47840000Y-80945835D01*
X47120000Y-80714165D02*
X47120000Y-80945835D01*
X27460000Y-88235000D02*
X26130000Y-88235000D01*
X27460000Y-86905000D02*
X27460000Y-88235000D01*
X27460000Y-85635000D02*
X27460000Y-83035000D01*
X27460000Y-85635000D02*
X24800000Y-85635000D01*
X27460000Y-83035000D02*
X24800000Y-83035000D01*
X24800000Y-85635000D02*
X24800000Y-83035000D01*
G36*
X41829205Y-83431421D02*
G01*
X41867848Y-83446192D01*
X41890011Y-83462138D01*
X41894132Y-83466838D01*
X41899641Y-83475000D01*
X41906899Y-83487373D01*
X41916266Y-83504703D01*
X41928105Y-83527735D01*
X41942777Y-83557216D01*
X41960644Y-83593892D01*
X41982066Y-83638509D01*
X42007405Y-83691814D01*
X42037023Y-83754553D01*
X42071281Y-83827473D01*
X42110541Y-83911319D01*
X42155163Y-84006838D01*
X42191178Y-84084039D01*
X42239582Y-84187819D01*
X42282317Y-84279470D01*
X42319714Y-84359817D01*
X42352107Y-84429688D01*
X42379829Y-84489906D01*
X42403211Y-84541298D01*
X42422585Y-84584690D01*
X42438285Y-84620907D01*
X42450643Y-84650776D01*
X42459990Y-84675122D01*
X42466661Y-84694770D01*
X42470988Y-84710547D01*
X42473301Y-84723278D01*
X42473935Y-84733789D01*
X42473221Y-84742906D01*
X42471492Y-84751454D01*
X42469082Y-84760260D01*
X42466758Y-84768509D01*
X42450137Y-84804171D01*
X42422016Y-84836021D01*
X42385049Y-84862145D01*
X42341891Y-84880623D01*
X42299809Y-84889148D01*
X42266107Y-84887466D01*
X42230192Y-84877806D01*
X42197611Y-84862184D01*
X42174867Y-84843734D01*
X42168608Y-84833752D01*
X42157142Y-84812111D01*
X42140394Y-84778654D01*
X42118293Y-84733231D01*
X42090764Y-84675686D01*
X42057736Y-84605866D01*
X42019134Y-84523619D01*
X41974887Y-84428789D01*
X41924921Y-84321225D01*
X41876919Y-84217549D01*
X41596773Y-83611700D01*
X41601802Y-83576038D01*
X41611189Y-83543073D01*
X41628608Y-83509633D01*
X41631717Y-83505056D01*
X41662334Y-83472233D01*
X41700227Y-83447988D01*
X41742560Y-83432790D01*
X41786498Y-83427110D01*
X41829205Y-83431421D01*
G37*
G36*
X43293792Y-83254078D02*
G01*
X43374049Y-83267140D01*
X43448840Y-83292385D01*
X43519190Y-83330062D01*
X43581680Y-83376604D01*
X43608602Y-83401522D01*
X43636262Y-83430335D01*
X43657738Y-83455648D01*
X43679028Y-83487224D01*
X43702559Y-83528619D01*
X43726513Y-83575962D01*
X43749074Y-83625384D01*
X43768427Y-83673013D01*
X43782754Y-83714979D01*
X43787222Y-83731583D01*
X43800707Y-83816476D01*
X43801242Y-83900658D01*
X43789118Y-83982364D01*
X43764631Y-84059827D01*
X43728073Y-84131281D01*
X43718463Y-84145985D01*
X43699076Y-84171636D01*
X43672974Y-84202403D01*
X43644045Y-84233840D01*
X43623915Y-84254134D01*
X43562498Y-84313687D01*
X43274398Y-84447547D01*
X43200088Y-84481958D01*
X43137594Y-84510625D01*
X43085870Y-84533999D01*
X43043868Y-84552534D01*
X43010543Y-84566682D01*
X42984846Y-84576894D01*
X42965731Y-84583623D01*
X42952152Y-84587321D01*
X42949815Y-84587771D01*
X42853811Y-84598892D01*
X42764266Y-84597473D01*
X42680568Y-84583380D01*
X42602106Y-84556477D01*
X42528268Y-84516628D01*
X42483602Y-84484622D01*
X42441607Y-84448360D01*
X42405612Y-84409716D01*
X42372992Y-84365344D01*
X42341126Y-84311893D01*
X42326203Y-84283735D01*
X42321808Y-84274101D01*
X42289779Y-84203897D01*
X42265316Y-84128521D01*
X42252200Y-84055316D01*
X42249446Y-83998336D01*
X42251124Y-83974671D01*
X42602607Y-83974671D01*
X42603041Y-84026173D01*
X42617263Y-84081105D01*
X42637956Y-84126679D01*
X42670095Y-84176172D01*
X42707244Y-84212468D01*
X42750238Y-84236023D01*
X42799909Y-84247293D01*
X42857091Y-84246733D01*
X42857377Y-84246703D01*
X42870753Y-84245172D01*
X42883203Y-84243145D01*
X42896255Y-84239999D01*
X42911437Y-84235108D01*
X42930274Y-84227846D01*
X42954296Y-84217586D01*
X42985031Y-84203704D01*
X43024004Y-84185572D01*
X43072745Y-84162567D01*
X43132780Y-84134061D01*
X43135492Y-84132771D01*
X43196388Y-84103771D01*
X43245750Y-84080093D01*
X43284970Y-84060991D01*
X43315438Y-84045716D01*
X43338546Y-84033526D01*
X43355684Y-84023671D01*
X43368244Y-84015407D01*
X43377616Y-84007986D01*
X43385191Y-84000662D01*
X43388613Y-83996945D01*
X43421770Y-83954087D01*
X43442389Y-83912563D01*
X43451657Y-83869758D01*
X43452408Y-83855938D01*
X43452287Y-83833355D01*
X43450130Y-83814491D01*
X43444811Y-83795147D01*
X43435201Y-83771117D01*
X43421667Y-83741404D01*
X43406441Y-83709620D01*
X43394333Y-83687426D01*
X43382873Y-83671274D01*
X43369591Y-83657614D01*
X43354499Y-83644887D01*
X43312686Y-83618465D01*
X43266854Y-83604232D01*
X43214246Y-83601360D01*
X43210724Y-83601535D01*
X43198864Y-83602417D01*
X43187225Y-83604081D01*
X43174282Y-83607124D01*
X43158512Y-83612142D01*
X43138389Y-83619731D01*
X43112390Y-83630489D01*
X43078991Y-83645013D01*
X43036667Y-83663899D01*
X42983894Y-83687742D01*
X42942581Y-83706494D01*
X42880702Y-83734689D01*
X42830422Y-83757835D01*
X42790285Y-83776668D01*
X42758838Y-83791926D01*
X42734628Y-83804346D01*
X42716199Y-83814664D01*
X42702096Y-83823617D01*
X42690866Y-83831942D01*
X42684615Y-83837194D01*
X42643337Y-83880535D01*
X42616020Y-83926243D01*
X42602607Y-83974671D01*
X42251124Y-83974671D01*
X42255430Y-83913943D01*
X42272549Y-83835904D01*
X42301401Y-83763054D01*
X42342591Y-83694229D01*
X42396720Y-83628261D01*
X42464390Y-83563986D01*
X42481033Y-83550058D01*
X42493369Y-83540238D01*
X42506043Y-83531015D01*
X42520483Y-83521646D01*
X42538117Y-83511386D01*
X42560376Y-83499495D01*
X42588689Y-83485229D01*
X42624484Y-83467845D01*
X42669189Y-83446601D01*
X42724236Y-83420756D01*
X42779516Y-83394942D01*
X43032923Y-83276776D01*
X43112784Y-83263520D01*
X43207045Y-83252953D01*
X43293792Y-83254078D01*
G37*
G36*
X38726539Y-85324827D02*
G01*
X38757963Y-85331786D01*
X38784476Y-85345211D01*
X38799947Y-85356984D01*
X38806499Y-85363042D01*
X38813079Y-85370641D01*
X38820365Y-85381086D01*
X38829035Y-85395679D01*
X38839769Y-85415725D01*
X38853246Y-85442527D01*
X38870145Y-85477390D01*
X38891144Y-85521618D01*
X38916923Y-85576514D01*
X38940211Y-85626344D01*
X38970261Y-85690847D01*
X38994830Y-85743971D01*
X39014551Y-85787235D01*
X39030055Y-85822162D01*
X39041976Y-85850271D01*
X39050946Y-85873086D01*
X39057599Y-85892128D01*
X39062567Y-85908918D01*
X39066482Y-85924977D01*
X39068653Y-85935213D01*
X39080576Y-86024993D01*
X39078844Y-86110910D01*
X39063354Y-86193360D01*
X39034006Y-86272740D01*
X38990696Y-86349448D01*
X38947627Y-86407115D01*
X38929388Y-86428783D01*
X38912403Y-86447735D01*
X38895358Y-86464768D01*
X38876939Y-86480678D01*
X38855832Y-86496263D01*
X38830724Y-86512322D01*
X38800300Y-86529652D01*
X38763244Y-86549049D01*
X38718244Y-86571311D01*
X38663986Y-86597238D01*
X38599154Y-86627625D01*
X38535667Y-86657132D01*
X38466297Y-86689267D01*
X38408495Y-86715895D01*
X38360910Y-86737585D01*
X38322191Y-86754905D01*
X38290986Y-86768422D01*
X38265942Y-86778704D01*
X38245706Y-86786320D01*
X38228929Y-86791835D01*
X38214257Y-86795818D01*
X38200338Y-86798838D01*
X38196500Y-86799567D01*
X38133490Y-86808211D01*
X38075503Y-86808932D01*
X38017841Y-86801325D01*
X37955806Y-86784980D01*
X37930391Y-86776493D01*
X37852086Y-86742254D01*
X37780029Y-86696227D01*
X37713176Y-86637656D01*
X37665143Y-86584212D01*
X37653649Y-86569979D01*
X37643493Y-86556652D01*
X37633879Y-86542728D01*
X37624008Y-86526700D01*
X37613086Y-86507067D01*
X37600314Y-86482321D01*
X37584894Y-86450959D01*
X37566031Y-86411477D01*
X37542927Y-86362370D01*
X37514784Y-86302133D01*
X37508079Y-86287757D01*
X37478885Y-86225079D01*
X37455187Y-86173927D01*
X37436417Y-86132906D01*
X37422007Y-86100618D01*
X37411388Y-86075665D01*
X37403991Y-86056651D01*
X37399247Y-86042176D01*
X37396589Y-86030844D01*
X37395446Y-86021259D01*
X37395252Y-86012021D01*
X37395269Y-86010535D01*
X37402538Y-85966303D01*
X37421551Y-85926618D01*
X37450122Y-85892904D01*
X37486063Y-85866582D01*
X37527188Y-85849072D01*
X37571309Y-85841797D01*
X37616240Y-85846179D01*
X37637698Y-85852936D01*
X37652534Y-85859153D01*
X37665391Y-85866015D01*
X37677146Y-85874886D01*
X37688674Y-85887128D01*
X37700853Y-85904103D01*
X37714560Y-85927175D01*
X37730671Y-85957704D01*
X37750061Y-85997056D01*
X37773609Y-86046590D01*
X37802192Y-86107671D01*
X37803766Y-86111046D01*
X37832577Y-86172525D01*
X37856319Y-86222420D01*
X37875741Y-86262181D01*
X37891595Y-86293263D01*
X37904632Y-86317116D01*
X37915600Y-86335195D01*
X37925252Y-86348949D01*
X37929262Y-86353992D01*
X37968342Y-86395290D01*
X38008795Y-86425231D01*
X38052170Y-86445773D01*
X38069801Y-86452161D01*
X38085541Y-86456859D01*
X38100816Y-86459439D01*
X38117052Y-86459470D01*
X38135676Y-86456524D01*
X38158114Y-86450169D01*
X38185794Y-86439976D01*
X38220141Y-86425514D01*
X38262581Y-86406354D01*
X38314542Y-86382066D01*
X38377450Y-86352221D01*
X38403150Y-86339985D01*
X38647818Y-86223483D01*
X38676372Y-86189312D01*
X38702849Y-86150035D01*
X38722198Y-86105916D01*
X38732435Y-86062033D01*
X38733535Y-86043001D01*
X38733053Y-86033435D01*
X38731409Y-86023033D01*
X38728010Y-86010346D01*
X38722266Y-85993927D01*
X38713585Y-85972327D01*
X38701374Y-85944099D01*
X38685043Y-85907790D01*
X38664002Y-85861957D01*
X38637656Y-85805148D01*
X38627477Y-85783272D01*
X38596825Y-85717182D01*
X38571848Y-85662505D01*
X38552054Y-85617777D01*
X38536954Y-85581534D01*
X38526058Y-85552310D01*
X38518878Y-85528640D01*
X38514923Y-85509058D01*
X38513702Y-85492102D01*
X38514727Y-85476304D01*
X38517507Y-85460202D01*
X38518268Y-85456646D01*
X38534403Y-85414608D01*
X38562303Y-85376906D01*
X38599497Y-85346801D01*
X38603286Y-85344534D01*
X38627442Y-85332001D01*
X38649071Y-85325515D01*
X38675390Y-85323190D01*
X38685786Y-85323019D01*
X38726539Y-85324827D01*
G37*
G36*
X37183006Y-86150039D02*
G01*
X37263512Y-86175564D01*
X37337624Y-86213836D01*
X37405220Y-86264796D01*
X37466177Y-86328385D01*
X37502909Y-86377534D01*
X37522596Y-86410305D01*
X37543826Y-86451895D01*
X37564967Y-86498426D01*
X37584386Y-86546022D01*
X37600452Y-86590803D01*
X37611532Y-86628891D01*
X37614379Y-86642369D01*
X37620337Y-86698003D01*
X37620499Y-86759234D01*
X37615196Y-86820365D01*
X37604752Y-86875696D01*
X37599965Y-86892574D01*
X37570521Y-86964397D01*
X37528292Y-87035336D01*
X37474723Y-87103349D01*
X37411258Y-87166390D01*
X37398937Y-87177016D01*
X37384531Y-87186706D01*
X37359339Y-87200995D01*
X37325053Y-87219090D01*
X37283368Y-87240205D01*
X37235976Y-87263550D01*
X37184570Y-87288336D01*
X37130843Y-87313777D01*
X37076486Y-87339082D01*
X37023194Y-87363463D01*
X36972659Y-87386131D01*
X36926575Y-87406298D01*
X36886634Y-87423175D01*
X36854528Y-87435972D01*
X36831951Y-87443903D01*
X36821072Y-87446224D01*
X36779120Y-87437482D01*
X36739562Y-87416274D01*
X36705123Y-87384405D01*
X36685106Y-87356016D01*
X36664731Y-87308667D01*
X36657968Y-87261384D01*
X36664733Y-87215662D01*
X36684938Y-87172998D01*
X36696538Y-87157393D01*
X36723704Y-87124650D01*
X36939253Y-87024139D01*
X36999036Y-86996184D01*
X37047377Y-86973350D01*
X37085817Y-86954825D01*
X37115903Y-86939796D01*
X37139176Y-86927452D01*
X37157182Y-86916981D01*
X37171464Y-86907572D01*
X37183565Y-86898411D01*
X37192317Y-86891062D01*
X37231251Y-86851379D01*
X37256773Y-86810736D01*
X37269207Y-86767605D01*
X37268879Y-86720459D01*
X37256112Y-86667771D01*
X37245660Y-86640063D01*
X37217562Y-86583983D01*
X37184776Y-86541027D01*
X37146480Y-86510582D01*
X37101856Y-86492029D01*
X37050083Y-86484749D01*
X37039097Y-86484590D01*
X36989496Y-86484777D01*
X36753528Y-86592473D01*
X36685449Y-86623639D01*
X36629121Y-86649789D01*
X36583268Y-86671743D01*
X36546608Y-86690316D01*
X36517866Y-86706329D01*
X36495760Y-86720601D01*
X36479013Y-86733948D01*
X36466345Y-86747190D01*
X36456478Y-86761147D01*
X36448133Y-86776636D01*
X36440840Y-86792626D01*
X36430666Y-86821011D01*
X36423625Y-86850330D01*
X36421693Y-86866691D01*
X36421295Y-86883215D01*
X36421677Y-86898723D01*
X36423299Y-86914433D01*
X36426625Y-86931562D01*
X36432115Y-86951324D01*
X36440232Y-86974939D01*
X36451438Y-87003623D01*
X36466194Y-87038593D01*
X36484964Y-87081064D01*
X36508207Y-87132255D01*
X36536387Y-87193382D01*
X36569965Y-87265662D01*
X36587143Y-87302545D01*
X36618498Y-87370063D01*
X36649117Y-87436413D01*
X36678243Y-87499931D01*
X36705121Y-87558953D01*
X36728998Y-87611810D01*
X36749117Y-87656842D01*
X36764724Y-87692382D01*
X36775064Y-87716765D01*
X36775511Y-87717863D01*
X36789760Y-87753471D01*
X36799202Y-87779113D01*
X36804568Y-87797981D01*
X36806589Y-87813268D01*
X36805999Y-87828166D01*
X36804071Y-87842388D01*
X36790547Y-87885762D01*
X36765507Y-87923509D01*
X36731185Y-87953854D01*
X36689815Y-87975021D01*
X36643630Y-87985233D01*
X36623674Y-87985838D01*
X36576609Y-87978765D01*
X36535537Y-87960906D01*
X36505466Y-87935945D01*
X36498796Y-87926068D01*
X36487930Y-87906576D01*
X36472652Y-87877019D01*
X36452740Y-87836947D01*
X36427975Y-87785909D01*
X36398139Y-87723458D01*
X36363013Y-87649142D01*
X36322377Y-87562512D01*
X36296445Y-87506978D01*
X36255327Y-87418728D01*
X36219832Y-87342262D01*
X36189518Y-87276436D01*
X36163941Y-87220107D01*
X36142662Y-87172134D01*
X36125237Y-87131374D01*
X36111226Y-87096682D01*
X36100185Y-87066918D01*
X36091673Y-87040938D01*
X36085249Y-87017600D01*
X36080469Y-86995760D01*
X36076892Y-86974278D01*
X36074077Y-86952010D01*
X36071582Y-86927811D01*
X36071291Y-86924807D01*
X36068214Y-86869102D01*
X36070946Y-86818051D01*
X36080180Y-86766922D01*
X36096606Y-86710982D01*
X36106616Y-86682742D01*
X36122676Y-86641276D01*
X36137347Y-86609054D01*
X36153071Y-86581570D01*
X36172292Y-86554313D01*
X36184983Y-86538105D01*
X36203821Y-86514846D01*
X36220880Y-86494841D01*
X36237545Y-86477203D01*
X36255202Y-86461049D01*
X36275237Y-86445489D01*
X36299035Y-86429636D01*
X36327981Y-86412606D01*
X36363461Y-86393511D01*
X36406860Y-86371465D01*
X36459563Y-86345582D01*
X36522957Y-86314974D01*
X36565929Y-86294342D01*
X36637752Y-86259976D01*
X36698306Y-86231319D01*
X36749144Y-86207814D01*
X36791827Y-86188901D01*
X36827912Y-86174022D01*
X36858955Y-86162619D01*
X36886513Y-86154133D01*
X36912145Y-86148005D01*
X36937406Y-86143677D01*
X36963856Y-86140590D01*
X36993051Y-86138186D01*
X37003304Y-86137464D01*
X37096229Y-86137319D01*
X37183006Y-86150039D01*
G37*
G36*
X40035837Y-84276796D02*
G01*
X40074408Y-84294130D01*
X40102270Y-84318228D01*
X40109621Y-84329904D01*
X40122682Y-84354338D01*
X40141323Y-84391256D01*
X40165412Y-84440386D01*
X40194815Y-84501459D01*
X40229403Y-84574203D01*
X40269042Y-84658347D01*
X40311442Y-84748986D01*
X40351246Y-84834427D01*
X40385402Y-84908004D01*
X40414367Y-84970754D01*
X40438598Y-85023719D01*
X40458553Y-85067939D01*
X40474688Y-85104456D01*
X40487463Y-85134308D01*
X40497332Y-85158536D01*
X40504754Y-85178181D01*
X40510185Y-85194283D01*
X40514084Y-85207884D01*
X40515325Y-85212893D01*
X40531624Y-85308339D01*
X40534743Y-85400388D01*
X40524899Y-85488304D01*
X40502307Y-85571352D01*
X40467181Y-85648798D01*
X40419737Y-85719906D01*
X40360190Y-85783941D01*
X40344058Y-85798231D01*
X40333424Y-85807072D01*
X40322575Y-85815344D01*
X40310224Y-85823707D01*
X40295082Y-85832825D01*
X40275862Y-85843359D01*
X40251277Y-85855972D01*
X40220038Y-85871325D01*
X40180857Y-85890085D01*
X40132447Y-85912909D01*
X40073520Y-85940462D01*
X40010531Y-85969805D01*
X39719151Y-86105415D01*
X39642953Y-86114550D01*
X39550439Y-86120011D01*
X39464716Y-86113181D01*
X39384947Y-86093838D01*
X39310294Y-86061759D01*
X39239921Y-86016722D01*
X39222247Y-86002884D01*
X39186137Y-85972449D01*
X39157020Y-85944793D01*
X39132694Y-85916959D01*
X39110956Y-85885990D01*
X39089604Y-85848929D01*
X39066435Y-85802821D01*
X39054584Y-85777809D01*
X39030151Y-85723658D01*
X39012155Y-85678242D01*
X38999721Y-85638034D01*
X38991972Y-85599506D01*
X38988031Y-85559130D01*
X38987022Y-85513379D01*
X38987068Y-85506033D01*
X38994772Y-85421673D01*
X39016275Y-85340754D01*
X39051464Y-85263492D01*
X39100226Y-85190103D01*
X39162452Y-85120803D01*
X39206357Y-85081147D01*
X39220463Y-85069423D01*
X39233380Y-85059223D01*
X39246609Y-85049745D01*
X39261648Y-85040192D01*
X39279995Y-85029760D01*
X39303150Y-85017651D01*
X39332612Y-85003065D01*
X39369879Y-84985201D01*
X39416450Y-84963258D01*
X39473823Y-84936437D01*
X39502137Y-84923230D01*
X39564704Y-84894082D01*
X39615746Y-84870432D01*
X39656665Y-84851709D01*
X39688859Y-84837343D01*
X39713730Y-84826765D01*
X39732679Y-84819405D01*
X39747104Y-84814695D01*
X39758406Y-84812062D01*
X39767987Y-84810938D01*
X39777246Y-84810754D01*
X39778564Y-84810770D01*
X39823371Y-84818259D01*
X39864682Y-84838237D01*
X39900220Y-84868969D01*
X39927711Y-84908722D01*
X39938082Y-84932413D01*
X39949107Y-84979620D01*
X39946632Y-85024122D01*
X39930398Y-85067494D01*
X39910984Y-85097658D01*
X39905342Y-85104746D01*
X39898807Y-85111429D01*
X39890033Y-85118449D01*
X39877672Y-85126545D01*
X39860378Y-85136460D01*
X39836803Y-85148934D01*
X39805600Y-85164708D01*
X39765422Y-85184524D01*
X39714922Y-85209124D01*
X39660160Y-85235662D01*
X39599354Y-85265130D01*
X39550001Y-85289185D01*
X39510689Y-85308608D01*
X39480003Y-85324179D01*
X39456533Y-85336679D01*
X39438867Y-85346889D01*
X39425593Y-85355589D01*
X39415296Y-85363559D01*
X39406567Y-85371581D01*
X39397992Y-85380435D01*
X39397713Y-85380732D01*
X39365005Y-85424862D01*
X39345951Y-85473033D01*
X39340575Y-85525048D01*
X39348895Y-85580708D01*
X39370014Y-85637866D01*
X39384210Y-85666605D01*
X39396779Y-85686825D01*
X39411366Y-85703277D01*
X39431620Y-85720710D01*
X39436834Y-85724860D01*
X39478095Y-85751468D01*
X39520924Y-85766092D01*
X39568722Y-85769593D01*
X39601724Y-85766641D01*
X39615481Y-85764486D01*
X39629158Y-85761540D01*
X39644298Y-85757171D01*
X39662444Y-85750748D01*
X39685141Y-85741642D01*
X39713930Y-85729221D01*
X39750358Y-85712853D01*
X39795966Y-85691908D01*
X39852300Y-85665755D01*
X39879175Y-85653230D01*
X39941269Y-85624192D01*
X39991725Y-85600363D01*
X40031901Y-85581042D01*
X40063155Y-85565526D01*
X40086844Y-85553111D01*
X40104329Y-85543096D01*
X40116963Y-85534775D01*
X40126108Y-85527448D01*
X40130720Y-85522993D01*
X40152407Y-85493101D01*
X40170551Y-85454315D01*
X40183282Y-85411919D01*
X40188726Y-85371200D01*
X40188626Y-85359431D01*
X40188093Y-85350765D01*
X40187145Y-85342260D01*
X40185355Y-85332895D01*
X40182292Y-85321652D01*
X40177530Y-85307513D01*
X40170639Y-85289457D01*
X40161193Y-85266466D01*
X40148761Y-85237518D01*
X40132917Y-85201599D01*
X40113230Y-85157686D01*
X40089274Y-85104760D01*
X40060620Y-85041805D01*
X40026839Y-84967798D01*
X39991817Y-84891160D01*
X39797198Y-84465349D01*
X39801996Y-84424357D01*
X39814196Y-84378481D01*
X39832056Y-84345986D01*
X39848854Y-84323286D01*
X39865256Y-84307912D01*
X39886986Y-84295035D01*
X39899687Y-84288926D01*
X39945705Y-84273793D01*
X39992012Y-84269884D01*
X40035837Y-84276796D01*
G37*
G36*
X41456029Y-83585848D02*
G01*
X41501333Y-83598301D01*
X41539909Y-83623157D01*
X41572107Y-83660670D01*
X41582081Y-83677101D01*
X41601010Y-83717833D01*
X41608978Y-83754374D01*
X41606579Y-83790919D01*
X41601214Y-83812027D01*
X41597412Y-83825001D01*
X41594016Y-83836229D01*
X41590095Y-83846271D01*
X41584718Y-83855686D01*
X41576955Y-83865031D01*
X41565873Y-83874868D01*
X41550541Y-83885757D01*
X41530029Y-83898254D01*
X41503405Y-83912919D01*
X41469737Y-83930313D01*
X41428095Y-83950994D01*
X41377548Y-83975521D01*
X41317164Y-84004454D01*
X41246012Y-84038351D01*
X41163160Y-84077771D01*
X41141505Y-84088082D01*
X41054099Y-84129702D01*
X40978614Y-84165714D01*
X40914092Y-84196678D01*
X40859582Y-84223158D01*
X40814129Y-84245715D01*
X40776775Y-84264913D01*
X40746569Y-84281314D01*
X40722554Y-84295481D01*
X40703776Y-84307975D01*
X40689281Y-84319359D01*
X40678113Y-84330199D01*
X40669319Y-84341053D01*
X40661943Y-84352486D01*
X40655031Y-84365060D01*
X40647798Y-84379010D01*
X40633979Y-84413829D01*
X40625213Y-84452176D01*
X40623992Y-84463095D01*
X40620537Y-84508029D01*
X40852847Y-85006218D01*
X40886852Y-85034629D01*
X40932823Y-85066012D01*
X40981323Y-85086342D01*
X41029170Y-85094298D01*
X41030309Y-85094326D01*
X41039301Y-85094428D01*
X41047899Y-85093977D01*
X41057356Y-85092460D01*
X41068924Y-85089360D01*
X41083857Y-85084164D01*
X41103408Y-85076353D01*
X41128831Y-85065415D01*
X41161378Y-85050834D01*
X41202305Y-85032094D01*
X41252863Y-85008681D01*
X41314306Y-84980077D01*
X41359886Y-84958825D01*
X41428993Y-84926583D01*
X41486311Y-84899759D01*
X41533000Y-84877751D01*
X41570220Y-84859955D01*
X41599127Y-84845769D01*
X41620881Y-84834591D01*
X41636640Y-84825815D01*
X41647562Y-84818841D01*
X41654807Y-84813064D01*
X41659531Y-84807882D01*
X41662896Y-84802691D01*
X41664129Y-84800460D01*
X41672458Y-84778910D01*
X41678291Y-84752810D01*
X41679091Y-84746222D01*
X41679670Y-84726989D01*
X41676486Y-84709184D01*
X41668217Y-84687956D01*
X41657018Y-84665182D01*
X41643260Y-84639563D01*
X41632389Y-84623556D01*
X41621411Y-84613760D01*
X41607336Y-84606779D01*
X41604656Y-84605719D01*
X41582121Y-84600479D01*
X41553206Y-84598284D01*
X41533759Y-84598916D01*
X41522198Y-84600126D01*
X41510778Y-84602040D01*
X41498093Y-84605233D01*
X41482739Y-84610283D01*
X41463312Y-84617765D01*
X41438407Y-84628257D01*
X41406618Y-84642336D01*
X41366542Y-84660579D01*
X41316774Y-84683562D01*
X41255908Y-84711861D01*
X41235207Y-84721506D01*
X41171096Y-84751366D01*
X41118549Y-84775752D01*
X41076185Y-84795213D01*
X41042630Y-84810310D01*
X41016501Y-84821594D01*
X40996424Y-84829622D01*
X40981019Y-84834946D01*
X40968908Y-84838125D01*
X40958712Y-84839712D01*
X40949054Y-84840261D01*
X40940120Y-84840327D01*
X40897042Y-84833897D01*
X40859191Y-84815979D01*
X40827509Y-84788700D01*
X40802934Y-84754192D01*
X40786409Y-84714581D01*
X40778872Y-84671998D01*
X40781264Y-84628573D01*
X40794524Y-84586434D01*
X40813967Y-84554592D01*
X40818807Y-84548748D01*
X40824608Y-84543077D01*
X40832536Y-84536991D01*
X40843758Y-84529896D01*
X40859442Y-84521206D01*
X40880755Y-84510327D01*
X40908866Y-84496670D01*
X40944941Y-84479646D01*
X40990149Y-84458663D01*
X41045657Y-84433130D01*
X41112632Y-84402458D01*
X41135853Y-84391838D01*
X41206712Y-84359461D01*
X41265871Y-84332525D01*
X41314608Y-84310509D01*
X41354195Y-84292888D01*
X41385907Y-84279141D01*
X41411020Y-84268748D01*
X41430807Y-84261184D01*
X41446543Y-84255929D01*
X41459503Y-84252458D01*
X41470962Y-84250252D01*
X41482193Y-84248787D01*
X41486039Y-84248380D01*
X41565874Y-84244029D01*
X41636661Y-84248819D01*
X41700794Y-84263352D01*
X41760667Y-84288229D01*
X41818673Y-84324050D01*
X41834617Y-84335901D01*
X41868881Y-84364562D01*
X41897754Y-84394564D01*
X41923473Y-84428930D01*
X41948270Y-84470692D01*
X41974383Y-84522872D01*
X41977317Y-84529130D01*
X42007216Y-84600743D01*
X42026386Y-84665657D01*
X42035045Y-84726330D01*
X42033413Y-84785228D01*
X42021710Y-84844809D01*
X42009061Y-84884370D01*
X41984089Y-84943458D01*
X41953937Y-84994548D01*
X41915431Y-85042501D01*
X41886289Y-85072481D01*
X41841427Y-85116095D01*
X41501693Y-85274358D01*
X41161957Y-85432623D01*
X41085752Y-85441759D01*
X41033528Y-85446785D01*
X40990165Y-85447615D01*
X40950755Y-85443839D01*
X40910393Y-85435046D01*
X40873958Y-85424071D01*
X40798662Y-85392642D01*
X40724828Y-85348608D01*
X40654816Y-85293610D01*
X40590987Y-85229293D01*
X40586174Y-85223741D01*
X40576312Y-85211953D01*
X40567187Y-85200080D01*
X40558053Y-85186716D01*
X40548162Y-85170462D01*
X40536765Y-85149913D01*
X40523119Y-85123668D01*
X40506474Y-85090323D01*
X40486083Y-85048478D01*
X40461200Y-84996730D01*
X40431076Y-84933675D01*
X40426241Y-84923535D01*
X40388451Y-84843757D01*
X40356710Y-84775234D01*
X40330592Y-84716498D01*
X40309669Y-84666077D01*
X40293518Y-84622502D01*
X40281712Y-84584304D01*
X40273825Y-84550011D01*
X40269434Y-84518154D01*
X40268110Y-84487263D01*
X40269428Y-84455870D01*
X40272964Y-84422501D01*
X40275613Y-84403363D01*
X40295719Y-84314362D01*
X40329093Y-84230295D01*
X40375373Y-84151850D01*
X40434195Y-84079716D01*
X40459973Y-84053901D01*
X40506396Y-84009875D01*
X40961667Y-83795323D01*
X41416938Y-83580774D01*
X41456029Y-83585848D01*
G37*
G36*
X35601782Y-86307982D02*
G01*
X35646542Y-86316548D01*
X35687222Y-86337925D01*
X35722070Y-86370840D01*
X35749336Y-86414017D01*
X35750334Y-86416131D01*
X35765623Y-86459135D01*
X35768856Y-86498752D01*
X35760300Y-86538807D01*
X35759161Y-86542016D01*
X35754464Y-86555139D01*
X35750029Y-86566599D01*
X35744896Y-86576960D01*
X35738104Y-86586786D01*
X35728694Y-86596646D01*
X35715704Y-86607103D01*
X35698173Y-86618723D01*
X35675144Y-86632072D01*
X35645654Y-86647714D01*
X35608743Y-86666217D01*
X35563451Y-86688144D01*
X35508819Y-86714062D01*
X35443884Y-86744536D01*
X35367688Y-86780132D01*
X35305464Y-86809180D01*
X35219569Y-86849309D01*
X35145611Y-86883965D01*
X35082583Y-86913706D01*
X35029485Y-86939091D01*
X34985310Y-86960680D01*
X34949054Y-86979031D01*
X34919714Y-86994703D01*
X34896285Y-87008256D01*
X34877763Y-87020249D01*
X34863144Y-87031241D01*
X34851424Y-87041791D01*
X34841598Y-87052459D01*
X34832663Y-87063803D01*
X34823614Y-87076383D01*
X34822321Y-87078217D01*
X34805856Y-87104339D01*
X34792159Y-87131085D01*
X34782755Y-87154893D01*
X34779166Y-87172205D01*
X34779965Y-87177182D01*
X34787565Y-87177725D01*
X34808516Y-87176627D01*
X34842000Y-87173969D01*
X34887196Y-87169834D01*
X34943284Y-87164306D01*
X35009444Y-87157467D01*
X35084855Y-87149400D01*
X35168697Y-87140189D01*
X35260149Y-87129914D01*
X35349809Y-87119651D01*
X35439186Y-87109419D01*
X35525197Y-87099731D01*
X35606680Y-87090707D01*
X35682471Y-87082471D01*
X35751410Y-87075144D01*
X35812333Y-87068845D01*
X35864078Y-87063700D01*
X35905484Y-87059826D01*
X35935387Y-87057346D01*
X35952626Y-87056382D01*
X35955175Y-87056407D01*
X35999338Y-87065559D01*
X36041193Y-87087034D01*
X36075262Y-87116956D01*
X36086004Y-87131108D01*
X36096354Y-87149892D01*
X36107672Y-87176194D01*
X36121319Y-87212899D01*
X36123726Y-87219692D01*
X36147678Y-87299449D01*
X36160503Y-87373168D01*
X36162229Y-87443721D01*
X36152884Y-87513979D01*
X36132496Y-87586815D01*
X36127487Y-87600884D01*
X36112347Y-87640190D01*
X36098364Y-87670715D01*
X36082758Y-87697399D01*
X36062751Y-87725188D01*
X36045255Y-87747188D01*
X36027946Y-87768569D01*
X36012612Y-87787279D01*
X35998248Y-87803911D01*
X35983853Y-87819054D01*
X35968424Y-87833298D01*
X35950958Y-87847236D01*
X35930452Y-87861455D01*
X35905904Y-87876549D01*
X35876310Y-87893106D01*
X35840669Y-87911717D01*
X35797977Y-87932975D01*
X35747231Y-87957467D01*
X35687430Y-87985786D01*
X35617570Y-88018521D01*
X35536648Y-88056263D01*
X35458983Y-88092459D01*
X35371630Y-88133170D01*
X35296263Y-88168243D01*
X35231934Y-88198087D01*
X35177697Y-88223115D01*
X35132606Y-88243740D01*
X35095712Y-88260372D01*
X35066072Y-88273424D01*
X35042737Y-88283309D01*
X35024762Y-88290436D01*
X35011199Y-88295220D01*
X35001103Y-88298070D01*
X34993525Y-88299400D01*
X34987520Y-88299620D01*
X34983586Y-88299318D01*
X34939187Y-88287787D01*
X34900397Y-88265172D01*
X34868458Y-88233753D01*
X34844619Y-88195814D01*
X34830120Y-88153639D01*
X34826209Y-88109508D01*
X34834128Y-88065706D01*
X34843792Y-88042937D01*
X34858398Y-88019420D01*
X34875206Y-87998440D01*
X34882259Y-87991567D01*
X34893760Y-87984346D01*
X34917856Y-87971474D01*
X34954120Y-87953157D01*
X35002129Y-87929601D01*
X35061457Y-87901015D01*
X35131676Y-87867603D01*
X35212365Y-87829575D01*
X35296956Y-87789998D01*
X35383504Y-87749606D01*
X35458099Y-87714666D01*
X35521736Y-87684608D01*
X35575406Y-87658861D01*
X35620103Y-87636853D01*
X35656820Y-87618014D01*
X35686550Y-87601773D01*
X35710286Y-87587558D01*
X35729021Y-87574800D01*
X35743747Y-87562928D01*
X35755458Y-87551369D01*
X35765148Y-87539553D01*
X35773807Y-87526910D01*
X35782430Y-87512868D01*
X35784257Y-87509808D01*
X35795441Y-87487623D01*
X35804136Y-87464134D01*
X35809382Y-87443037D01*
X35810219Y-87428031D01*
X35806845Y-87422843D01*
X35799487Y-87423543D01*
X35778997Y-87425734D01*
X35746428Y-87429300D01*
X35702833Y-87434121D01*
X35649266Y-87440081D01*
X35586781Y-87447063D01*
X35516431Y-87454948D01*
X35439270Y-87463618D01*
X35356352Y-87472957D01*
X35268731Y-87482846D01*
X35220426Y-87488306D01*
X35130193Y-87498430D01*
X35043704Y-87507974D01*
X34962059Y-87516826D01*
X34886356Y-87524876D01*
X34817694Y-87532010D01*
X34757173Y-87538117D01*
X34705894Y-87543086D01*
X34664954Y-87546805D01*
X34635451Y-87549161D01*
X34618488Y-87550042D01*
X34615061Y-87549898D01*
X34596648Y-87543428D01*
X34573263Y-87531689D01*
X34559313Y-87523251D01*
X34545480Y-87513907D01*
X34534875Y-87505125D01*
X34525767Y-87494341D01*
X34516427Y-87478990D01*
X34505124Y-87456506D01*
X34490129Y-87424328D01*
X34484917Y-87412978D01*
X34467727Y-87374726D01*
X34455681Y-87345293D01*
X34447522Y-87320741D01*
X34441996Y-87297126D01*
X34437847Y-87270505D01*
X34436718Y-87261623D01*
X34431886Y-87172842D01*
X34440048Y-87089024D01*
X34461405Y-87009685D01*
X34496155Y-86934343D01*
X34544497Y-86862514D01*
X34606630Y-86793715D01*
X34643377Y-86759912D01*
X34693051Y-86716744D01*
X35132544Y-86511805D01*
X35218836Y-86471582D01*
X35293166Y-86436992D01*
X35356500Y-86407612D01*
X35409808Y-86383024D01*
X35454057Y-86362805D01*
X35490215Y-86346536D01*
X35519252Y-86333796D01*
X35542135Y-86324165D01*
X35559832Y-86317223D01*
X35573311Y-86312546D01*
X35583542Y-86309717D01*
X35591491Y-86308314D01*
X35598128Y-86307917D01*
X35601782Y-86307982D01*
G37*
X29206359Y-70275000D02*
X29513641Y-70275000D01*
X29206359Y-71035000D02*
X29513641Y-71035000D01*
G36*
X38100136Y-84090000D02*
G01*
X38100136Y-85628212D01*
X35600000Y-85628212D01*
X33099864Y-85628212D01*
X33099864Y-85350900D01*
X33147526Y-85350900D01*
X33147526Y-85465003D01*
X33147632Y-85495615D01*
X33147930Y-85523343D01*
X33148391Y-85547017D01*
X33148986Y-85565468D01*
X33149686Y-85577528D01*
X33150419Y-85581997D01*
X33154884Y-85582166D01*
X33167771Y-85582330D01*
X33188836Y-85582486D01*
X33217835Y-85582636D01*
X33254525Y-85582779D01*
X33298662Y-85582916D01*
X33350001Y-85583045D01*
X33408299Y-85583166D01*
X33473312Y-85583280D01*
X33544796Y-85583387D01*
X33622507Y-85583485D01*
X33706202Y-85583576D01*
X33795636Y-85583658D01*
X33890566Y-85583732D01*
X33990747Y-85583797D01*
X34095936Y-85583854D01*
X34205889Y-85583901D01*
X34320362Y-85583939D01*
X34439112Y-85583968D01*
X34561893Y-85583988D01*
X34688463Y-85583998D01*
X34818578Y-85583998D01*
X34951993Y-85583988D01*
X35088465Y-85583968D01*
X35227750Y-85583937D01*
X35369604Y-85583896D01*
X35513783Y-85583844D01*
X35612642Y-85583803D01*
X38071972Y-85582716D01*
X38073126Y-85466808D01*
X38074280Y-85350900D01*
X35610903Y-85350900D01*
X33147526Y-85350900D01*
X33099864Y-85350900D01*
X33099864Y-84887270D01*
X33147526Y-84887270D01*
X33147526Y-85004265D01*
X33147526Y-85121259D01*
X35609749Y-85120172D01*
X38071972Y-85119085D01*
X38073126Y-85003178D01*
X38074280Y-84887270D01*
X35610903Y-84887270D01*
X33147526Y-84887270D01*
X33099864Y-84887270D01*
X33099864Y-84427973D01*
X33147526Y-84427973D01*
X33147526Y-84542075D01*
X33147632Y-84572688D01*
X33147930Y-84600415D01*
X33148391Y-84624090D01*
X33148986Y-84642541D01*
X33149686Y-84654601D01*
X33150419Y-84659070D01*
X33154884Y-84659239D01*
X33167771Y-84659402D01*
X33188836Y-84659559D01*
X33217835Y-84659709D01*
X33254525Y-84659852D01*
X33298662Y-84659988D01*
X33350001Y-84660117D01*
X33408299Y-84660239D01*
X33473312Y-84660353D01*
X33544796Y-84660460D01*
X33622507Y-84660558D01*
X33706202Y-84660649D01*
X33795636Y-84660731D01*
X33890566Y-84660805D01*
X33990747Y-84660870D01*
X34095936Y-84660926D01*
X34205889Y-84660974D01*
X34320362Y-84661012D01*
X34439112Y-84661041D01*
X34561893Y-84661061D01*
X34688463Y-84661071D01*
X34818578Y-84661071D01*
X34951993Y-84661061D01*
X35088465Y-84661040D01*
X35227750Y-84661010D01*
X35369604Y-84660969D01*
X35513783Y-84660917D01*
X35612642Y-84660875D01*
X38071972Y-84659788D01*
X38073126Y-84543881D01*
X38074280Y-84427973D01*
X35610903Y-84427973D01*
X33147526Y-84427973D01*
X33099864Y-84427973D01*
X33099864Y-84090000D01*
X33099864Y-82582118D01*
X33147526Y-82582118D01*
X33147526Y-83393108D01*
X33147526Y-84204098D01*
X34851113Y-84201211D01*
X34980653Y-84200995D01*
X35111850Y-84200784D01*
X35244210Y-84200577D01*
X35377238Y-84200375D01*
X35510440Y-84200180D01*
X35643321Y-84199990D01*
X35775386Y-84199808D01*
X35906141Y-84199634D01*
X36035090Y-84199468D01*
X36161739Y-84199311D01*
X36285593Y-84199163D01*
X36406157Y-84199025D01*
X36522937Y-84198898D01*
X36635438Y-84198782D01*
X36743166Y-84198678D01*
X36845624Y-84198586D01*
X36942320Y-84198506D01*
X37032757Y-84198441D01*
X37116442Y-84198389D01*
X37192879Y-84198352D01*
X37261574Y-84198331D01*
X37314490Y-84198325D01*
X38074280Y-84198325D01*
X38073126Y-84082417D01*
X38071972Y-83966509D01*
X36744993Y-83965419D01*
X35418014Y-83964329D01*
X35418014Y-83851685D01*
X35418014Y-83739041D01*
X36744993Y-83737951D01*
X38071972Y-83736861D01*
X38073126Y-83620953D01*
X38074280Y-83505046D01*
X36746147Y-83505046D01*
X35418014Y-83505046D01*
X35418014Y-83390221D01*
X35418014Y-83275397D01*
X36746076Y-83275397D01*
X38074138Y-83275397D01*
X38074138Y-83160580D01*
X38074138Y-83045763D01*
X36747160Y-83044672D01*
X35420181Y-83043582D01*
X35419026Y-82929848D01*
X35417870Y-82816114D01*
X36744921Y-82815024D01*
X38071972Y-82813934D01*
X38073126Y-82698026D01*
X38074280Y-82582118D01*
X35610903Y-82582118D01*
X33147526Y-82582118D01*
X33099864Y-82582118D01*
X33099864Y-82551788D01*
X35600000Y-82551788D01*
X38100136Y-82551788D01*
X38100136Y-84090000D01*
G37*
G36*
X33529664Y-83147026D02*
G01*
X33534294Y-83156897D01*
X33538811Y-83169239D01*
X33543519Y-83183069D01*
X33547296Y-83193250D01*
X33549146Y-83197267D01*
X33554074Y-83198422D01*
X33565200Y-83199459D01*
X33579209Y-83200119D01*
X33593989Y-83200841D01*
X33604968Y-83201923D01*
X33609587Y-83203056D01*
X33607403Y-83206362D01*
X33599653Y-83213026D01*
X33588000Y-83221624D01*
X33587649Y-83221868D01*
X33575489Y-83230959D01*
X33566823Y-83238675D01*
X33563545Y-83243305D01*
X33564848Y-83249675D01*
X33568284Y-83261435D01*
X33572228Y-83273430D01*
X33576643Y-83287243D01*
X33579357Y-83297686D01*
X33579811Y-83302017D01*
X33576098Y-83301181D01*
X33567332Y-83296048D01*
X33555277Y-83287673D01*
X33552989Y-83285974D01*
X33540550Y-83276708D01*
X33531243Y-83269886D01*
X33526825Y-83266794D01*
X33526691Y-83266731D01*
X33523189Y-83269108D01*
X33514614Y-83275337D01*
X33502832Y-83284063D01*
X33490593Y-83292858D01*
X33481050Y-83299095D01*
X33476357Y-83301395D01*
X33475848Y-83297605D01*
X33477545Y-83287622D01*
X33481084Y-83273533D01*
X33481473Y-83272161D01*
X33485602Y-83257597D01*
X33488589Y-83246820D01*
X33489827Y-83242024D01*
X33489833Y-83241971D01*
X33486656Y-83239096D01*
X33478308Y-83232451D01*
X33466564Y-83223446D01*
X33466001Y-83223021D01*
X33454103Y-83213642D01*
X33445561Y-83206152D01*
X33442173Y-83202133D01*
X33442170Y-83202082D01*
X33446070Y-83200623D01*
X33456091Y-83200028D01*
X33464918Y-83200213D01*
X33483988Y-83200612D01*
X33496506Y-83198790D01*
X33504533Y-83193492D01*
X33510129Y-83183461D01*
X33514620Y-83169916D01*
X33519264Y-83156209D01*
X33523575Y-83146584D01*
X33526430Y-83143241D01*
X33529664Y-83147026D01*
G37*
G36*
X34855496Y-83304957D02*
G01*
X34859949Y-83314799D01*
X34864730Y-83328811D01*
X34864879Y-83329309D01*
X34873348Y-83357724D01*
X34905200Y-83357724D01*
X34920534Y-83358129D01*
X34931776Y-83359199D01*
X34936801Y-83360717D01*
X34936888Y-83360974D01*
X34933506Y-83364914D01*
X34924810Y-83372080D01*
X34913056Y-83380656D01*
X34901023Y-83389611D01*
X34892502Y-83397096D01*
X34889389Y-83401375D01*
X34890691Y-83407465D01*
X34894084Y-83419086D01*
X34898272Y-83432027D01*
X34902517Y-83445922D01*
X34904873Y-83456289D01*
X34904886Y-83460662D01*
X34900584Y-83459396D01*
X34891436Y-83453914D01*
X34879386Y-83445389D01*
X34878858Y-83444991D01*
X34866579Y-83436008D01*
X34857057Y-83429573D01*
X34852317Y-83427053D01*
X34852285Y-83427052D01*
X34847481Y-83429503D01*
X34838557Y-83435708D01*
X34833684Y-83439424D01*
X34822429Y-83447687D01*
X34811416Y-83454901D01*
X34802753Y-83459786D01*
X34798550Y-83461065D01*
X34798430Y-83460785D01*
X34799613Y-83456343D01*
X34802687Y-83445872D01*
X34806990Y-83431622D01*
X34807062Y-83431385D01*
X34811397Y-83416864D01*
X34814498Y-83405852D01*
X34815695Y-83400731D01*
X34815695Y-83400728D01*
X34812459Y-83397143D01*
X34803943Y-83390138D01*
X34791991Y-83381231D01*
X34791990Y-83381230D01*
X34780004Y-83372231D01*
X34771439Y-83365017D01*
X34768159Y-83361164D01*
X34772084Y-83359518D01*
X34782529Y-83358006D01*
X34797347Y-83356924D01*
X34799480Y-83356831D01*
X34830894Y-83355558D01*
X34839560Y-83328721D01*
X34844578Y-83314910D01*
X34849222Y-83305049D01*
X34852318Y-83301389D01*
X34855496Y-83304957D01*
G37*
G36*
X34667329Y-83144861D02*
G01*
X34671808Y-83154798D01*
X34676910Y-83168751D01*
X34677006Y-83169038D01*
X34682540Y-83184389D01*
X34688093Y-83193791D01*
X34695893Y-83198762D01*
X34708166Y-83200825D01*
X34724483Y-83201441D01*
X34737781Y-83201969D01*
X34746973Y-83202784D01*
X34749513Y-83203405D01*
X34746989Y-83206372D01*
X34738978Y-83212769D01*
X34727204Y-83221219D01*
X34727017Y-83221348D01*
X34714825Y-83230764D01*
X34706201Y-83239371D01*
X34703071Y-83245108D01*
X34704427Y-83252993D01*
X34707934Y-83265825D01*
X34711503Y-83276885D01*
X34715919Y-83290820D01*
X34717124Y-83298393D01*
X34715277Y-83301224D01*
X34713925Y-83301395D01*
X34707079Y-83299317D01*
X34705849Y-83298053D01*
X34701409Y-83293828D01*
X34692204Y-83286543D01*
X34684511Y-83280870D01*
X34665239Y-83267030D01*
X34642209Y-83284212D01*
X34626301Y-83295428D01*
X34616207Y-83301032D01*
X34612176Y-83300893D01*
X34612111Y-83300312D01*
X34613293Y-83295951D01*
X34616364Y-83285544D01*
X34620664Y-83271327D01*
X34620744Y-83271064D01*
X34625056Y-83256827D01*
X34628153Y-83246388D01*
X34629376Y-83241968D01*
X34629377Y-83241957D01*
X34626214Y-83239092D01*
X34617861Y-83232439D01*
X34606072Y-83223394D01*
X34605121Y-83222676D01*
X34592690Y-83212912D01*
X34586571Y-83206832D01*
X34585884Y-83203284D01*
X34588872Y-83201413D01*
X34599011Y-83199902D01*
X34609911Y-83200463D01*
X34626991Y-83200805D01*
X34639403Y-83195185D01*
X34648387Y-83182665D01*
X34653898Y-83167200D01*
X34658150Y-83153629D01*
X34662025Y-83144183D01*
X34664431Y-83141074D01*
X34667329Y-83144861D01*
G37*
G36*
X34290426Y-83144827D02*
G01*
X34293520Y-83153978D01*
X34293787Y-83155157D01*
X34297553Y-83168998D01*
X34302694Y-83184016D01*
X34303263Y-83185475D01*
X34309699Y-83201712D01*
X34337346Y-83200950D01*
X34351994Y-83200895D01*
X34362868Y-83201504D01*
X34367327Y-83202521D01*
X34365327Y-83206056D01*
X34357866Y-83213153D01*
X34346523Y-83222321D01*
X34345714Y-83222934D01*
X34333836Y-83232030D01*
X34325278Y-83238829D01*
X34321809Y-83241924D01*
X34321800Y-83241957D01*
X34322977Y-83246245D01*
X34326030Y-83256587D01*
X34330302Y-83270749D01*
X34330329Y-83270840D01*
X34334339Y-83285174D01*
X34336691Y-83295911D01*
X34336876Y-83300730D01*
X34336874Y-83300732D01*
X34332568Y-83299576D01*
X34323710Y-83294477D01*
X34317285Y-83290123D01*
X34305341Y-83281620D01*
X34295345Y-83274509D01*
X34292286Y-83272334D01*
X34287132Y-83270273D01*
X34280631Y-83271913D01*
X34270810Y-83278042D01*
X34262442Y-83284250D01*
X34246742Y-83295361D01*
X34236148Y-83300949D01*
X34231128Y-83300788D01*
X34230774Y-83299389D01*
X34232236Y-83294570D01*
X34235996Y-83284301D01*
X34239440Y-83275397D01*
X34244351Y-83261560D01*
X34247492Y-83250059D01*
X34248106Y-83245626D01*
X34244556Y-83238915D01*
X34234905Y-83229546D01*
X34223401Y-83220872D01*
X34198696Y-83203903D01*
X34217985Y-83202803D01*
X34238140Y-83201449D01*
X34251579Y-83199363D01*
X34260239Y-83195377D01*
X34266060Y-83188324D01*
X34270980Y-83177036D01*
X34273796Y-83169190D01*
X34279215Y-83155172D01*
X34284009Y-83145098D01*
X34287166Y-83141079D01*
X34287235Y-83141074D01*
X34290426Y-83144827D01*
G37*
G36*
X34852364Y-82977800D02*
G01*
X34855772Y-82982367D01*
X34860509Y-82992905D01*
X34865163Y-83005981D01*
X34873726Y-83032750D01*
X34905389Y-83032750D01*
X34920684Y-83033157D01*
X34931893Y-83034234D01*
X34936879Y-83035759D01*
X34936959Y-83035999D01*
X34933646Y-83039979D01*
X34925054Y-83047278D01*
X34913127Y-83056255D01*
X34901110Y-83065566D01*
X34892572Y-83073520D01*
X34889389Y-83078325D01*
X34890723Y-83084890D01*
X34894184Y-83096785D01*
X34898066Y-83108610D01*
X34902306Y-83122135D01*
X34904646Y-83132068D01*
X34904681Y-83135893D01*
X34900482Y-83134525D01*
X34891409Y-83128971D01*
X34879390Y-83120418D01*
X34878858Y-83120017D01*
X34866626Y-83111040D01*
X34857204Y-83104606D01*
X34852592Y-83102079D01*
X34852559Y-83102078D01*
X34848063Y-83104498D01*
X34838757Y-83110834D01*
X34827064Y-83119409D01*
X34811718Y-83130521D01*
X34802369Y-83136099D01*
X34798566Y-83136398D01*
X34798430Y-83135658D01*
X34799612Y-83131297D01*
X34802683Y-83120890D01*
X34806982Y-83106673D01*
X34807062Y-83106410D01*
X34811397Y-83091882D01*
X34814498Y-83080857D01*
X34815695Y-83075718D01*
X34815695Y-83075717D01*
X34812418Y-83072169D01*
X34803801Y-83065316D01*
X34791897Y-83056774D01*
X34779815Y-83047924D01*
X34771240Y-83040633D01*
X34768065Y-83036555D01*
X34772041Y-83034723D01*
X34782545Y-83033373D01*
X34797442Y-83032762D01*
X34800026Y-83032750D01*
X34831986Y-83032750D01*
X34840056Y-83004569D01*
X34844663Y-82990669D01*
X34849057Y-82981063D01*
X34852305Y-82977783D01*
X34852364Y-82977800D01*
G37*
G36*
X34478920Y-82980261D02*
G01*
X34483399Y-82990332D01*
X34488060Y-83004462D01*
X34488096Y-83004585D01*
X34496162Y-83032750D01*
X34528122Y-83032750D01*
X34543497Y-83033154D01*
X34554795Y-83034221D01*
X34559891Y-83035735D01*
X34559988Y-83035999D01*
X34556676Y-83039979D01*
X34548084Y-83047278D01*
X34536157Y-83056255D01*
X34524183Y-83065272D01*
X34515652Y-83072533D01*
X34512419Y-83076451D01*
X34513622Y-83081947D01*
X34516767Y-83093201D01*
X34520910Y-83106922D01*
X34524963Y-83121050D01*
X34527334Y-83131558D01*
X34527524Y-83136080D01*
X34523419Y-83134619D01*
X34514415Y-83129000D01*
X34502424Y-83120422D01*
X34501887Y-83120017D01*
X34489655Y-83111040D01*
X34480233Y-83104606D01*
X34475622Y-83102079D01*
X34475589Y-83102078D01*
X34471092Y-83104498D01*
X34461787Y-83110834D01*
X34450094Y-83119409D01*
X34435888Y-83129815D01*
X34427159Y-83135223D01*
X34422732Y-83136189D01*
X34421431Y-83133266D01*
X34421426Y-83132938D01*
X34422951Y-83126701D01*
X34426695Y-83116343D01*
X34427432Y-83114522D01*
X34434341Y-83096439D01*
X34436987Y-83083843D01*
X34434883Y-83074424D01*
X34427541Y-83065869D01*
X34415174Y-83056367D01*
X34403140Y-83047310D01*
X34394525Y-83039997D01*
X34391189Y-83036006D01*
X34391189Y-83035999D01*
X34395117Y-83034435D01*
X34405583Y-83033283D01*
X34420458Y-83032760D01*
X34423055Y-83032750D01*
X34455015Y-83032750D01*
X34463081Y-83004585D01*
X34467740Y-82990432D01*
X34472224Y-82980319D01*
X34475569Y-82976421D01*
X34475589Y-82976421D01*
X34478920Y-82980261D01*
G37*
G36*
X34475394Y-82652826D02*
G01*
X34478802Y-82657392D01*
X34483539Y-82667931D01*
X34488193Y-82681007D01*
X34496756Y-82707775D01*
X34528419Y-82707775D01*
X34543730Y-82708229D01*
X34554970Y-82709426D01*
X34559996Y-82711122D01*
X34560082Y-82711388D01*
X34556773Y-82715498D01*
X34548107Y-82722766D01*
X34536250Y-82731414D01*
X34524177Y-82740204D01*
X34515604Y-82747351D01*
X34512419Y-82751247D01*
X34513624Y-82756868D01*
X34516773Y-82768221D01*
X34520910Y-82781947D01*
X34524963Y-82796075D01*
X34527334Y-82806583D01*
X34527524Y-82811105D01*
X34523419Y-82809644D01*
X34514415Y-82804026D01*
X34502424Y-82795447D01*
X34501887Y-82795042D01*
X34489655Y-82786066D01*
X34480233Y-82779632D01*
X34475622Y-82777104D01*
X34475589Y-82777103D01*
X34471092Y-82779524D01*
X34461787Y-82785860D01*
X34450094Y-82794435D01*
X34435888Y-82804841D01*
X34427159Y-82810249D01*
X34422732Y-82811214D01*
X34421431Y-82808292D01*
X34421426Y-82807963D01*
X34422951Y-82801727D01*
X34426695Y-82791368D01*
X34427432Y-82789548D01*
X34432519Y-82775270D01*
X34436296Y-82761519D01*
X34437280Y-82753976D01*
X34435436Y-82748088D01*
X34429349Y-82741851D01*
X34417604Y-82733263D01*
X34415125Y-82731551D01*
X34402992Y-82722697D01*
X34394354Y-82715443D01*
X34391095Y-82711388D01*
X34395071Y-82709648D01*
X34405575Y-82708367D01*
X34420472Y-82707787D01*
X34423055Y-82707775D01*
X34455015Y-82707775D01*
X34463086Y-82679594D01*
X34467693Y-82665694D01*
X34472087Y-82656089D01*
X34475335Y-82652809D01*
X34475394Y-82652826D01*
G37*
G36*
X34289348Y-83469847D02*
G01*
X34293525Y-83479783D01*
X34298100Y-83493130D01*
X34306602Y-83520211D01*
X34338016Y-83521484D01*
X34353261Y-83522560D01*
X34364427Y-83524222D01*
X34369359Y-83526133D01*
X34369430Y-83526380D01*
X34366217Y-83530617D01*
X34357782Y-83538284D01*
X34345932Y-83547744D01*
X34345599Y-83547995D01*
X34333753Y-83557068D01*
X34325231Y-83563841D01*
X34321806Y-83566904D01*
X34321800Y-83566931D01*
X34322977Y-83571220D01*
X34326030Y-83581562D01*
X34330302Y-83595724D01*
X34330329Y-83595815D01*
X34334358Y-83610124D01*
X34336761Y-83620808D01*
X34337020Y-83625560D01*
X34337018Y-83625562D01*
X34332881Y-83624152D01*
X34323696Y-83618741D01*
X34311392Y-83610471D01*
X34310458Y-83609810D01*
X34285706Y-83592251D01*
X34267127Y-83605033D01*
X34256018Y-83613121D01*
X34248072Y-83619726D01*
X34245905Y-83622093D01*
X34241004Y-83625358D01*
X34234447Y-83626446D01*
X34230803Y-83624673D01*
X34230774Y-83624363D01*
X34232236Y-83619545D01*
X34235996Y-83609275D01*
X34239440Y-83600372D01*
X34244351Y-83586535D01*
X34247492Y-83575033D01*
X34248106Y-83570600D01*
X34244581Y-83563879D01*
X34235068Y-83554576D01*
X34224275Y-83546402D01*
X34212193Y-83537552D01*
X34203618Y-83530261D01*
X34200444Y-83526183D01*
X34204418Y-83524344D01*
X34214911Y-83522993D01*
X34229780Y-83522388D01*
X34232140Y-83522378D01*
X34263836Y-83522378D01*
X34273779Y-83494213D01*
X34279122Y-83480191D01*
X34283714Y-83470103D01*
X34286594Y-83466055D01*
X34286660Y-83466049D01*
X34289348Y-83469847D01*
G37*
G36*
X34102046Y-82980886D02*
G01*
X34106404Y-82990364D01*
X34111010Y-83004184D01*
X34111121Y-83004569D01*
X34119191Y-83032750D01*
X34151151Y-83032750D01*
X34166526Y-83033154D01*
X34177825Y-83034221D01*
X34182920Y-83035735D01*
X34183018Y-83035999D01*
X34179705Y-83039979D01*
X34171113Y-83047278D01*
X34159187Y-83056255D01*
X34147213Y-83065272D01*
X34138682Y-83072533D01*
X34135449Y-83076451D01*
X34136651Y-83081947D01*
X34139796Y-83093201D01*
X34143940Y-83106922D01*
X34147993Y-83121050D01*
X34150363Y-83131558D01*
X34150554Y-83136080D01*
X34146449Y-83134619D01*
X34137444Y-83129000D01*
X34125454Y-83120422D01*
X34124917Y-83120017D01*
X34112685Y-83111040D01*
X34103263Y-83104606D01*
X34098651Y-83102079D01*
X34098618Y-83102078D01*
X34094122Y-83104498D01*
X34084816Y-83110834D01*
X34073124Y-83119409D01*
X34058918Y-83129815D01*
X34050189Y-83135223D01*
X34045762Y-83136189D01*
X34044460Y-83133266D01*
X34044456Y-83132938D01*
X34045981Y-83126701D01*
X34049725Y-83116343D01*
X34050462Y-83114522D01*
X34055548Y-83100245D01*
X34059326Y-83086493D01*
X34060310Y-83078950D01*
X34058466Y-83073062D01*
X34052379Y-83066826D01*
X34040634Y-83058238D01*
X34038155Y-83056525D01*
X34026022Y-83047671D01*
X34017384Y-83040418D01*
X34014125Y-83036362D01*
X34018098Y-83034604D01*
X34028580Y-83033306D01*
X34043420Y-83032720D01*
X34045539Y-83032709D01*
X34076953Y-83032668D01*
X34085816Y-83005923D01*
X34090970Y-82991979D01*
X34095732Y-82981806D01*
X34098864Y-82977783D01*
X34102046Y-82980886D01*
G37*
G36*
X34102020Y-82655920D02*
G01*
X34106397Y-82665391D01*
X34111010Y-82679208D01*
X34111121Y-82679594D01*
X34119191Y-82707775D01*
X34151015Y-82707775D01*
X34168759Y-82708289D01*
X34178291Y-82710275D01*
X34179766Y-82714398D01*
X34173339Y-82721324D01*
X34159165Y-82731719D01*
X34156955Y-82733228D01*
X34145531Y-82741519D01*
X34137731Y-82748181D01*
X34135449Y-82751257D01*
X34136653Y-82756873D01*
X34139803Y-82768221D01*
X34143940Y-82781947D01*
X34147993Y-82796075D01*
X34150363Y-82806583D01*
X34150554Y-82811105D01*
X34146449Y-82809644D01*
X34137444Y-82804026D01*
X34125454Y-82795447D01*
X34124917Y-82795042D01*
X34112685Y-82786066D01*
X34103263Y-82779632D01*
X34098651Y-82777104D01*
X34098618Y-82777103D01*
X34094122Y-82779524D01*
X34084816Y-82785860D01*
X34073124Y-82794435D01*
X34058918Y-82804841D01*
X34050189Y-82810249D01*
X34045762Y-82811214D01*
X34044460Y-82808292D01*
X34044456Y-82807963D01*
X34045981Y-82801727D01*
X34049725Y-82791368D01*
X34050462Y-82789548D01*
X34055548Y-82775270D01*
X34059326Y-82761519D01*
X34060310Y-82753976D01*
X34058466Y-82748088D01*
X34052379Y-82741851D01*
X34040634Y-82733263D01*
X34038155Y-82731551D01*
X34026022Y-82722697D01*
X34017384Y-82715443D01*
X34014125Y-82711388D01*
X34018099Y-82709641D01*
X34028591Y-82708358D01*
X34043457Y-82707785D01*
X34045788Y-82707775D01*
X34077451Y-82707775D01*
X34086014Y-82681007D01*
X34091027Y-82667032D01*
X34095705Y-82656842D01*
X34098813Y-82652826D01*
X34102020Y-82655920D01*
G37*
G36*
X34101707Y-83304721D02*
G01*
X34106064Y-83314766D01*
X34110810Y-83328881D01*
X34110938Y-83329309D01*
X34119408Y-83357724D01*
X34151260Y-83357724D01*
X34166593Y-83358129D01*
X34177835Y-83359199D01*
X34182861Y-83360717D01*
X34182947Y-83360974D01*
X34179565Y-83364914D01*
X34170870Y-83372080D01*
X34159116Y-83380656D01*
X34147094Y-83389528D01*
X34138575Y-83396818D01*
X34135449Y-83400852D01*
X34136656Y-83406687D01*
X34139801Y-83418156D01*
X34143667Y-83431020D01*
X34147472Y-83444881D01*
X34149324Y-83455102D01*
X34148916Y-83459260D01*
X34144222Y-83457781D01*
X34134860Y-83452121D01*
X34123624Y-83444074D01*
X34111782Y-83435328D01*
X34102752Y-83429186D01*
X34098692Y-83427052D01*
X34094139Y-83429441D01*
X34084725Y-83435703D01*
X34072620Y-83444384D01*
X34058642Y-83454497D01*
X34050170Y-83459888D01*
X34045895Y-83461188D01*
X34044506Y-83459025D01*
X34044456Y-83457912D01*
X34045981Y-83451676D01*
X34049725Y-83441317D01*
X34050462Y-83439497D01*
X34055573Y-83425120D01*
X34059377Y-83411237D01*
X34060409Y-83403597D01*
X34058657Y-83397681D01*
X34052715Y-83391469D01*
X34041175Y-83382939D01*
X34038257Y-83380906D01*
X34026137Y-83372051D01*
X34017484Y-83364887D01*
X34014176Y-83360974D01*
X34018123Y-83359398D01*
X34028587Y-83358244D01*
X34043420Y-83357732D01*
X34045596Y-83357724D01*
X34077067Y-83357724D01*
X34085967Y-83329311D01*
X34090916Y-83315138D01*
X34095445Y-83304955D01*
X34098597Y-83300901D01*
X34098668Y-83300896D01*
X34101707Y-83304721D01*
G37*
G36*
X35241579Y-83957414D02*
G01*
X35245959Y-83967811D01*
X35248381Y-83975521D01*
X35253522Y-83991834D01*
X35259193Y-84001436D01*
X35267720Y-84006094D01*
X35281429Y-84007573D01*
X35290722Y-84007673D01*
X35304913Y-84008160D01*
X35314883Y-84009432D01*
X35318355Y-84011081D01*
X35315143Y-84015259D01*
X35306778Y-84022738D01*
X35296691Y-84030663D01*
X35285343Y-84039831D01*
X35277500Y-84047497D01*
X35275026Y-84051503D01*
X35276165Y-84057997D01*
X35279102Y-84069792D01*
X35281857Y-84079670D01*
X35285375Y-84093252D01*
X35287253Y-84103532D01*
X35287274Y-84107260D01*
X35283448Y-84106954D01*
X35274792Y-84102203D01*
X35263369Y-84094175D01*
X35251272Y-84085353D01*
X35241735Y-84079156D01*
X35237070Y-84077001D01*
X35231889Y-84079422D01*
X35222024Y-84085759D01*
X35210031Y-84094333D01*
X35196788Y-84104151D01*
X35189036Y-84109431D01*
X35185306Y-84110794D01*
X35184127Y-84108861D01*
X35184033Y-84105326D01*
X35185549Y-84097907D01*
X35189437Y-84085744D01*
X35192699Y-84077001D01*
X35197526Y-84064171D01*
X35200672Y-84054692D01*
X35201365Y-84051600D01*
X35198099Y-84047537D01*
X35189539Y-84040177D01*
X35177627Y-84031179D01*
X35165640Y-84022180D01*
X35157075Y-84014965D01*
X35153795Y-84011112D01*
X35157717Y-84009452D01*
X35168138Y-84007930D01*
X35182894Y-84006852D01*
X35184549Y-84006779D01*
X35215396Y-84005506D01*
X35224407Y-83978351D01*
X35229586Y-83964827D01*
X35234458Y-83955606D01*
X35237925Y-83952698D01*
X35241579Y-83957414D01*
G37*
G36*
X33717163Y-83954384D02*
G01*
X33721634Y-83965509D01*
X33726335Y-83978730D01*
X33735356Y-84005506D01*
X33766415Y-84006779D01*
X33781556Y-84007791D01*
X33792595Y-84009276D01*
X33797373Y-84010930D01*
X33797424Y-84011112D01*
X33794103Y-84014949D01*
X33785456Y-84022040D01*
X33773592Y-84030681D01*
X33761548Y-84039514D01*
X33752993Y-84046685D01*
X33749812Y-84050584D01*
X33751129Y-84056203D01*
X33754549Y-84067375D01*
X33758478Y-84079167D01*
X33763025Y-84092605D01*
X33766163Y-84102306D01*
X33767144Y-84105844D01*
X33764036Y-84107612D01*
X33755370Y-84104157D01*
X33742133Y-84095931D01*
X33735804Y-84091425D01*
X33721489Y-84082015D01*
X33712141Y-84078625D01*
X33708254Y-84079509D01*
X33701591Y-84084211D01*
X33690788Y-84092003D01*
X33682763Y-84097852D01*
X33670563Y-84105848D01*
X33664150Y-84107783D01*
X33663152Y-84106123D01*
X33664352Y-84098648D01*
X33667409Y-84086375D01*
X33669605Y-84078773D01*
X33673338Y-84065511D01*
X33675691Y-84055316D01*
X33676105Y-84052170D01*
X33672889Y-84046955D01*
X33664476Y-84038731D01*
X33654486Y-84030663D01*
X33643169Y-84021709D01*
X33635329Y-84014540D01*
X33632822Y-84011081D01*
X33636770Y-84009331D01*
X33647086Y-84008101D01*
X33660455Y-84007673D01*
X33677614Y-84006797D01*
X33689039Y-84004369D01*
X33692430Y-84002257D01*
X33695904Y-83995358D01*
X33700445Y-83983051D01*
X33704049Y-83971460D01*
X33708274Y-83958692D01*
X33712052Y-83950638D01*
X33714322Y-83949016D01*
X33717163Y-83954384D01*
G37*
G36*
X33341235Y-83626789D02*
G01*
X33345432Y-83635750D01*
X33350481Y-83649367D01*
X33351422Y-83652191D01*
X33361424Y-83682698D01*
X33393131Y-83682698D01*
X33408425Y-83683105D01*
X33419623Y-83684180D01*
X33424596Y-83685703D01*
X33424674Y-83685948D01*
X33421291Y-83689888D01*
X33412596Y-83697054D01*
X33400842Y-83705631D01*
X33388778Y-83714800D01*
X33380252Y-83722793D01*
X33377175Y-83727701D01*
X33378514Y-83734594D01*
X33381989Y-83746739D01*
X33385841Y-83758526D01*
X33390390Y-83771994D01*
X33393528Y-83781755D01*
X33394507Y-83785355D01*
X33391413Y-83785210D01*
X33383504Y-83781035D01*
X33372835Y-83774080D01*
X33361463Y-83765594D01*
X33359939Y-83764360D01*
X33350022Y-83756891D01*
X33342673Y-83752508D01*
X33341021Y-83752026D01*
X33335649Y-83754386D01*
X33325801Y-83760478D01*
X33317094Y-83766503D01*
X33302164Y-83777100D01*
X33292886Y-83783143D01*
X33288008Y-83785312D01*
X33286276Y-83784290D01*
X33286182Y-83783329D01*
X33287451Y-83777494D01*
X33290773Y-83765982D01*
X33295257Y-83751813D01*
X33304331Y-83724170D01*
X33295489Y-83717517D01*
X33286203Y-83710686D01*
X33274264Y-83702090D01*
X33271368Y-83700030D01*
X33261987Y-83692752D01*
X33256526Y-83687303D01*
X33255970Y-83686138D01*
X33259883Y-83684493D01*
X33270316Y-83682981D01*
X33285128Y-83681899D01*
X33287265Y-83681805D01*
X33318680Y-83680532D01*
X33327346Y-83653730D01*
X33332200Y-83639541D01*
X33336345Y-83628879D01*
X33338716Y-83624305D01*
X33341235Y-83626789D01*
G37*
G36*
X34852364Y-82652826D02*
G01*
X34855772Y-82657392D01*
X34860509Y-82667931D01*
X34865163Y-82681007D01*
X34873726Y-82707775D01*
X34905253Y-82707775D01*
X34922862Y-82708294D01*
X34932291Y-82710294D01*
X34933688Y-82714437D01*
X34927199Y-82721388D01*
X34912971Y-82731811D01*
X34910896Y-82733228D01*
X34899428Y-82741843D01*
X34891626Y-82749272D01*
X34889389Y-82753131D01*
X34890725Y-82759821D01*
X34894191Y-82771812D01*
X34898066Y-82783635D01*
X34902306Y-82797160D01*
X34904646Y-82807093D01*
X34904681Y-82810919D01*
X34900482Y-82809550D01*
X34891409Y-82803997D01*
X34879390Y-82795444D01*
X34878858Y-82795042D01*
X34866626Y-82786066D01*
X34857204Y-82779632D01*
X34852592Y-82777104D01*
X34852559Y-82777103D01*
X34848063Y-82779524D01*
X34838757Y-82785860D01*
X34827064Y-82794435D01*
X34811664Y-82805581D01*
X34802297Y-82811159D01*
X34798557Y-82811398D01*
X34798452Y-82810684D01*
X34799674Y-82806329D01*
X34802819Y-82795971D01*
X34807118Y-82782133D01*
X34811511Y-82767638D01*
X34814613Y-82756482D01*
X34815728Y-82751247D01*
X34812422Y-82747237D01*
X34803762Y-82740043D01*
X34791897Y-82731414D01*
X34779819Y-82722594D01*
X34771245Y-82715375D01*
X34768065Y-82711388D01*
X34772041Y-82709648D01*
X34782545Y-82708367D01*
X34797443Y-82707787D01*
X34800026Y-82707775D01*
X34831986Y-82707775D01*
X34840056Y-82679594D01*
X34844663Y-82665694D01*
X34849057Y-82656089D01*
X34852305Y-82652809D01*
X34852364Y-82652826D01*
G37*
G36*
X34478947Y-83305235D02*
G01*
X34483406Y-83315305D01*
X34488060Y-83329434D01*
X34488096Y-83329560D01*
X34496162Y-83357724D01*
X34528122Y-83357724D01*
X34543484Y-83358128D01*
X34554759Y-83359195D01*
X34559825Y-83360708D01*
X34559917Y-83360974D01*
X34556535Y-83364914D01*
X34547840Y-83372080D01*
X34536086Y-83380656D01*
X34524065Y-83389528D01*
X34515545Y-83396818D01*
X34512419Y-83400852D01*
X34513626Y-83406687D01*
X34516772Y-83418156D01*
X34520637Y-83431020D01*
X34524442Y-83444881D01*
X34526294Y-83455102D01*
X34525886Y-83459260D01*
X34521193Y-83457781D01*
X34511831Y-83452121D01*
X34500594Y-83444074D01*
X34488595Y-83435322D01*
X34479219Y-83429213D01*
X34474764Y-83427148D01*
X34469233Y-83429691D01*
X34460720Y-83435699D01*
X34460423Y-83435936D01*
X34444160Y-83448619D01*
X34433316Y-83456090D01*
X34426886Y-83458955D01*
X34423926Y-83457922D01*
X34423816Y-83451641D01*
X34426713Y-83441330D01*
X34427461Y-83439428D01*
X34434360Y-83421361D01*
X34436990Y-83408777D01*
X34434862Y-83399360D01*
X34427486Y-83390796D01*
X34415174Y-83381341D01*
X34403140Y-83372284D01*
X34394525Y-83364971D01*
X34391189Y-83360981D01*
X34391189Y-83360974D01*
X34395115Y-83359401D01*
X34405565Y-83358247D01*
X34420400Y-83357732D01*
X34422673Y-83357724D01*
X34454251Y-83357724D01*
X34462753Y-83329560D01*
X34467615Y-83315431D01*
X34472230Y-83305323D01*
X34475609Y-83301396D01*
X34475643Y-83301396D01*
X34478947Y-83305235D01*
G37*
G36*
X34101491Y-83629728D02*
G01*
X34106113Y-83639659D01*
X34111146Y-83653250D01*
X34120283Y-83680532D01*
X34151697Y-83681805D01*
X34166942Y-83682829D01*
X34178108Y-83684352D01*
X34183040Y-83686068D01*
X34183112Y-83686287D01*
X34179790Y-83690523D01*
X34171743Y-83696403D01*
X34171196Y-83696739D01*
X34159193Y-83704792D01*
X34146971Y-83714043D01*
X34146891Y-83714108D01*
X34134501Y-83724235D01*
X34143221Y-83753300D01*
X34147131Y-83767913D01*
X34149197Y-83778952D01*
X34149003Y-83784160D01*
X34148903Y-83784243D01*
X34144206Y-83782741D01*
X34134963Y-83776965D01*
X34124408Y-83769119D01*
X34112670Y-83760251D01*
X34103465Y-83754083D01*
X34099199Y-83752072D01*
X34093882Y-83754405D01*
X34084077Y-83760475D01*
X34075367Y-83766503D01*
X34060408Y-83777120D01*
X34051109Y-83783179D01*
X34046231Y-83785365D01*
X34044531Y-83784362D01*
X34044456Y-83783546D01*
X34045799Y-83777774D01*
X34049284Y-83766533D01*
X34053122Y-83755234D01*
X34057751Y-83741412D01*
X34060895Y-83730778D01*
X34061788Y-83726397D01*
X34058479Y-83721979D01*
X34049816Y-83714460D01*
X34038008Y-83705707D01*
X34025957Y-83696895D01*
X34017384Y-83689777D01*
X34014176Y-83685948D01*
X34018125Y-83684381D01*
X34028604Y-83683228D01*
X34043479Y-83682708D01*
X34045977Y-83682698D01*
X34077829Y-83682698D01*
X34086298Y-83654283D01*
X34091016Y-83640097D01*
X34095331Y-83629928D01*
X34098331Y-83625921D01*
X34098389Y-83625918D01*
X34101491Y-83629728D01*
G37*
G36*
X33529703Y-83797348D02*
G01*
X33534340Y-83806966D01*
X33539168Y-83820271D01*
X33547830Y-83847352D01*
X33579493Y-83847352D01*
X33594804Y-83847792D01*
X33606045Y-83848952D01*
X33611071Y-83850596D01*
X33611157Y-83850854D01*
X33607506Y-83855713D01*
X33596847Y-83864647D01*
X33579620Y-83877302D01*
X33570063Y-83883965D01*
X33565710Y-83887352D01*
X33563841Y-83891268D01*
X33564515Y-83897853D01*
X33567789Y-83909248D01*
X33571027Y-83919287D01*
X33575463Y-83933972D01*
X33578202Y-83945132D01*
X33578702Y-83950535D01*
X33578619Y-83950662D01*
X33574302Y-83949517D01*
X33565437Y-83944424D01*
X33559012Y-83940072D01*
X33546988Y-83931515D01*
X33536839Y-83924302D01*
X33533724Y-83922092D01*
X33528589Y-83919866D01*
X33522339Y-83921140D01*
X33512973Y-83926684D01*
X33502838Y-83934007D01*
X33486915Y-83945244D01*
X33476754Y-83950933D01*
X33472634Y-83950925D01*
X33472557Y-83950261D01*
X33473778Y-83945906D01*
X33476923Y-83935548D01*
X33481223Y-83921710D01*
X33485613Y-83907252D01*
X33488715Y-83896169D01*
X33489833Y-83891016D01*
X33486529Y-83887107D01*
X33477875Y-83879986D01*
X33466001Y-83871376D01*
X33453919Y-83862526D01*
X33445345Y-83855236D01*
X33442170Y-83851157D01*
X33446144Y-83849317D01*
X33456636Y-83847966D01*
X33471501Y-83847362D01*
X33473833Y-83847352D01*
X33505496Y-83847352D01*
X33513913Y-83821039D01*
X33518860Y-83807318D01*
X33523448Y-83797520D01*
X33526418Y-83793957D01*
X33529703Y-83797348D01*
G37*
G36*
X34852736Y-83625035D02*
G01*
X34855723Y-83629300D01*
X34860051Y-83639696D01*
X34864792Y-83653992D01*
X34864879Y-83654283D01*
X34873348Y-83682698D01*
X34905200Y-83682698D01*
X34920534Y-83683104D01*
X34931776Y-83684174D01*
X34936801Y-83685691D01*
X34936888Y-83685948D01*
X34933505Y-83689881D01*
X34924800Y-83697055D01*
X34912793Y-83705817D01*
X34900076Y-83714988D01*
X34893217Y-83721470D01*
X34890810Y-83727296D01*
X34891446Y-83734497D01*
X34891787Y-83736148D01*
X34895633Y-83750181D01*
X34900715Y-83764471D01*
X34905658Y-83777846D01*
X34906476Y-83784882D01*
X34902602Y-83785700D01*
X34893471Y-83780420D01*
X34878557Y-83769194D01*
X34866748Y-83760327D01*
X34857480Y-83754141D01*
X34853139Y-83752088D01*
X34847873Y-83754442D01*
X34838088Y-83760602D01*
X34828727Y-83767192D01*
X34816909Y-83775352D01*
X34807591Y-83780858D01*
X34803629Y-83782357D01*
X34802371Y-83778565D01*
X34803953Y-83768232D01*
X34807427Y-83755276D01*
X34811659Y-83740947D01*
X34814643Y-83730062D01*
X34815695Y-83725205D01*
X34812420Y-83721407D01*
X34803809Y-83714345D01*
X34791948Y-83705707D01*
X34779902Y-83696925D01*
X34771330Y-83689877D01*
X34768117Y-83686138D01*
X34772064Y-83684492D01*
X34782526Y-83682980D01*
X34797354Y-83681898D01*
X34799480Y-83681805D01*
X34830894Y-83680532D01*
X34839978Y-83652368D01*
X34845003Y-83638430D01*
X34849552Y-83628630D01*
X34852668Y-83625025D01*
X34852736Y-83625035D01*
G37*
G36*
X34667428Y-83469835D02*
G01*
X34671833Y-83479776D01*
X34676917Y-83493748D01*
X34677073Y-83494213D01*
X34686445Y-83522378D01*
X34716167Y-83522378D01*
X34731372Y-83522880D01*
X34742850Y-83524197D01*
X34748155Y-83526047D01*
X34748178Y-83526082D01*
X34746071Y-83530199D01*
X34738343Y-83537420D01*
X34726769Y-83546108D01*
X34713181Y-83556216D01*
X34705798Y-83564900D01*
X34703933Y-83574654D01*
X34706901Y-83587977D01*
X34711634Y-83601150D01*
X34716814Y-83616762D01*
X34717657Y-83625125D01*
X34714141Y-83626503D01*
X34709879Y-83624050D01*
X34703226Y-83619265D01*
X34692401Y-83611510D01*
X34684597Y-83605929D01*
X34665090Y-83591988D01*
X34641083Y-83609179D01*
X34625924Y-83619707D01*
X34616683Y-83625254D01*
X34612535Y-83626278D01*
X34612111Y-83625286D01*
X34613293Y-83620925D01*
X34616364Y-83610518D01*
X34620664Y-83596301D01*
X34620744Y-83596039D01*
X34625056Y-83581802D01*
X34628153Y-83571362D01*
X34629376Y-83566942D01*
X34629377Y-83566931D01*
X34626217Y-83564064D01*
X34617883Y-83557425D01*
X34606146Y-83548424D01*
X34605578Y-83547995D01*
X34593664Y-83538512D01*
X34585119Y-83530778D01*
X34581749Y-83526432D01*
X34581747Y-83526380D01*
X34585720Y-83524461D01*
X34596205Y-83522748D01*
X34611046Y-83521578D01*
X34613161Y-83521484D01*
X34644575Y-83520211D01*
X34653077Y-83493130D01*
X34657836Y-83479341D01*
X34662021Y-83469588D01*
X34664640Y-83466049D01*
X34667428Y-83469835D01*
G37*
G36*
X34667348Y-83794811D02*
G01*
X34671812Y-83804755D01*
X34676920Y-83818730D01*
X34677073Y-83819188D01*
X34686445Y-83847352D01*
X34718453Y-83847352D01*
X34736281Y-83847863D01*
X34745876Y-83849841D01*
X34747399Y-83853951D01*
X34741010Y-83860862D01*
X34726869Y-83871239D01*
X34724577Y-83872805D01*
X34713059Y-83881801D01*
X34705254Y-83890129D01*
X34703071Y-83894875D01*
X34704429Y-83902867D01*
X34707941Y-83915779D01*
X34711503Y-83926834D01*
X34715515Y-83939735D01*
X34717462Y-83948614D01*
X34717108Y-83951344D01*
X34712405Y-83949028D01*
X34702711Y-83942937D01*
X34690066Y-83934358D01*
X34689270Y-83933801D01*
X34664261Y-83916258D01*
X34641025Y-83933801D01*
X34625610Y-83944974D01*
X34616184Y-83950637D01*
X34612279Y-83951056D01*
X34612111Y-83950261D01*
X34613293Y-83945900D01*
X34616364Y-83935492D01*
X34620664Y-83921275D01*
X34620744Y-83921013D01*
X34625056Y-83906776D01*
X34628153Y-83896336D01*
X34629376Y-83891917D01*
X34629377Y-83891906D01*
X34626217Y-83889039D01*
X34617883Y-83882400D01*
X34606146Y-83873399D01*
X34605578Y-83872970D01*
X34593664Y-83863486D01*
X34585119Y-83855752D01*
X34581749Y-83851407D01*
X34581747Y-83851354D01*
X34585720Y-83849435D01*
X34596205Y-83847723D01*
X34611046Y-83846553D01*
X34613161Y-83846459D01*
X34644575Y-83845186D01*
X34652917Y-83818104D01*
X34657621Y-83804304D01*
X34661810Y-83794549D01*
X34664480Y-83791023D01*
X34667348Y-83794811D01*
G37*
G36*
X34479017Y-83955283D02*
G01*
X34483767Y-83965218D01*
X34488587Y-83978488D01*
X34497253Y-84005506D01*
X34528668Y-84006779D01*
X34543884Y-84007784D01*
X34554993Y-84009256D01*
X34559856Y-84010901D01*
X34559917Y-84011112D01*
X34556537Y-84014947D01*
X34547838Y-84022048D01*
X34535823Y-84030792D01*
X34523105Y-84039963D01*
X34516247Y-84046445D01*
X34513839Y-84052270D01*
X34514476Y-84059472D01*
X34514816Y-84061123D01*
X34518643Y-84075070D01*
X34523781Y-84089528D01*
X34523845Y-84089684D01*
X34527010Y-84100131D01*
X34527048Y-84107006D01*
X34526601Y-84107678D01*
X34521739Y-84106865D01*
X34512355Y-84101643D01*
X34501586Y-84093973D01*
X34489753Y-84085190D01*
X34480477Y-84079072D01*
X34476169Y-84077062D01*
X34470903Y-84079416D01*
X34461118Y-84085577D01*
X34451757Y-84092166D01*
X34436424Y-84102463D01*
X34426587Y-84106882D01*
X34422495Y-84105358D01*
X34423550Y-84099749D01*
X34426554Y-84091285D01*
X34430778Y-84078248D01*
X34433121Y-84070662D01*
X34439642Y-84049158D01*
X34427284Y-84039057D01*
X34415087Y-84029818D01*
X34403057Y-84021741D01*
X34403011Y-84021713D01*
X34394778Y-84015815D01*
X34391108Y-84011416D01*
X34391095Y-84011261D01*
X34395068Y-84009540D01*
X34405548Y-84007973D01*
X34420377Y-84006869D01*
X34422403Y-84006779D01*
X34453712Y-84005506D01*
X34462484Y-83978511D01*
X34467566Y-83964743D01*
X34472321Y-83955009D01*
X34475589Y-83951493D01*
X34479017Y-83955283D01*
G37*
G36*
X34098987Y-83950060D02*
G01*
X34101795Y-83954311D01*
X34106217Y-83964583D01*
X34111146Y-83978225D01*
X34120283Y-84005506D01*
X34151697Y-84006779D01*
X34166942Y-84007803D01*
X34178108Y-84009327D01*
X34183040Y-84011042D01*
X34183112Y-84011261D01*
X34179790Y-84015497D01*
X34171743Y-84021378D01*
X34171196Y-84021713D01*
X34159193Y-84029766D01*
X34146971Y-84039017D01*
X34146891Y-84039083D01*
X34134501Y-84049209D01*
X34143221Y-84078274D01*
X34147157Y-84092854D01*
X34149295Y-84103819D01*
X34149206Y-84108932D01*
X34149111Y-84109009D01*
X34144495Y-84107434D01*
X34135255Y-84101673D01*
X34124616Y-84093901D01*
X34112773Y-84085149D01*
X34103494Y-84079057D01*
X34099199Y-84077062D01*
X34093932Y-84079416D01*
X34084148Y-84085577D01*
X34074787Y-84092166D01*
X34060750Y-84101613D01*
X34050400Y-84106866D01*
X34044972Y-84107357D01*
X34044456Y-84106098D01*
X34045774Y-84101695D01*
X34049200Y-84091500D01*
X34053122Y-84080209D01*
X34057751Y-84066387D01*
X34060895Y-84055753D01*
X34061788Y-84051371D01*
X34058479Y-84046953D01*
X34049816Y-84039434D01*
X34038008Y-84030681D01*
X34025962Y-84021899D01*
X34017389Y-84014851D01*
X34014176Y-84011112D01*
X34018122Y-84009462D01*
X34028577Y-84007947D01*
X34043386Y-84006866D01*
X34045361Y-84006779D01*
X34076597Y-84005506D01*
X34086281Y-83977342D01*
X34091498Y-83963458D01*
X34096023Y-83953683D01*
X34098911Y-83950047D01*
X34098987Y-83950060D01*
G37*
G36*
X33717051Y-83305647D02*
G01*
X33721589Y-83315069D01*
X33726276Y-83328877D01*
X33726425Y-83329393D01*
X33734539Y-83357724D01*
X33766007Y-83357724D01*
X33781265Y-83358204D01*
X33792447Y-83359472D01*
X33797401Y-83361267D01*
X33797475Y-83361529D01*
X33794163Y-83365739D01*
X33785491Y-83373081D01*
X33773644Y-83381748D01*
X33761582Y-83390462D01*
X33753010Y-83397430D01*
X33749812Y-83401096D01*
X33751124Y-83406451D01*
X33754537Y-83417432D01*
X33758547Y-83429418D01*
X33762957Y-83443325D01*
X33765642Y-83453959D01*
X33766057Y-83458479D01*
X33762259Y-83457963D01*
X33753366Y-83453211D01*
X33741192Y-83445213D01*
X33739380Y-83443927D01*
X33723547Y-83433552D01*
X33713119Y-83429087D01*
X33708150Y-83429626D01*
X33701550Y-83434287D01*
X33690794Y-83442049D01*
X33682763Y-83447903D01*
X33670563Y-83455899D01*
X33664150Y-83457834D01*
X33663152Y-83456174D01*
X33664352Y-83448699D01*
X33667409Y-83436426D01*
X33669605Y-83428824D01*
X33673337Y-83415586D01*
X33675690Y-83405440D01*
X33676105Y-83402321D01*
X33672807Y-83397351D01*
X33664134Y-83389432D01*
X33652484Y-83380656D01*
X33640446Y-83371861D01*
X33631868Y-83364760D01*
X33628653Y-83360974D01*
X33632548Y-83359418D01*
X33642999Y-83358268D01*
X33657897Y-83357737D01*
X33660831Y-83357724D01*
X33693173Y-83357724D01*
X33701057Y-83330955D01*
X33705806Y-83316905D01*
X33710422Y-83306647D01*
X33713626Y-83302625D01*
X33717051Y-83305647D01*
G37*
G36*
X34852506Y-83950060D02*
G01*
X34855530Y-83954314D01*
X34860106Y-83964595D01*
X34865087Y-83978225D01*
X34874224Y-84005506D01*
X34905638Y-84006779D01*
X34920883Y-84007803D01*
X34932049Y-84009327D01*
X34936981Y-84011042D01*
X34937052Y-84011261D01*
X34933731Y-84015497D01*
X34925683Y-84021378D01*
X34925136Y-84021713D01*
X34913161Y-84029749D01*
X34900913Y-84039015D01*
X34900755Y-84039144D01*
X34888288Y-84049332D01*
X34895597Y-84072915D01*
X34900013Y-84086846D01*
X34903646Y-84097747D01*
X34905174Y-84101915D01*
X34905221Y-84106772D01*
X34899422Y-84106202D01*
X34888489Y-84100443D01*
X34876390Y-84092166D01*
X34864819Y-84084037D01*
X34856032Y-84078533D01*
X34852559Y-84077001D01*
X34847618Y-84079379D01*
X34838072Y-84085542D01*
X34828727Y-84092166D01*
X34816909Y-84100327D01*
X34807591Y-84105832D01*
X34803629Y-84107332D01*
X34802371Y-84103539D01*
X34803953Y-84093206D01*
X34807427Y-84080250D01*
X34811659Y-84065922D01*
X34814643Y-84055036D01*
X34815695Y-84050179D01*
X34812420Y-84046381D01*
X34803809Y-84039320D01*
X34791948Y-84030681D01*
X34779902Y-84021899D01*
X34771330Y-84014851D01*
X34768117Y-84011112D01*
X34772064Y-84009467D01*
X34782526Y-84007955D01*
X34797354Y-84006873D01*
X34799480Y-84006779D01*
X34830894Y-84005506D01*
X34839978Y-83977342D01*
X34844970Y-83963416D01*
X34849437Y-83953635D01*
X34852440Y-83950048D01*
X34852506Y-83950060D01*
G37*
G36*
X34479017Y-83630297D02*
G01*
X34483768Y-83640242D01*
X34488587Y-83653514D01*
X34497253Y-83680532D01*
X34528668Y-83681805D01*
X34543913Y-83682829D01*
X34555078Y-83684352D01*
X34560011Y-83686068D01*
X34560082Y-83686287D01*
X34556761Y-83690523D01*
X34548713Y-83696403D01*
X34548166Y-83696739D01*
X34536190Y-83704774D01*
X34523943Y-83714040D01*
X34523784Y-83714169D01*
X34511318Y-83724357D01*
X34518627Y-83747941D01*
X34523043Y-83761872D01*
X34526675Y-83772772D01*
X34528204Y-83776941D01*
X34528220Y-83781788D01*
X34522325Y-83781222D01*
X34511191Y-83775468D01*
X34498844Y-83767192D01*
X34487171Y-83759121D01*
X34478374Y-83753621D01*
X34474889Y-83752026D01*
X34470228Y-83754451D01*
X34460799Y-83760796D01*
X34449135Y-83769322D01*
X34437257Y-83777517D01*
X34428171Y-83782351D01*
X34423855Y-83782782D01*
X34423791Y-83776582D01*
X34426708Y-83766315D01*
X34427461Y-83764402D01*
X34432573Y-83750002D01*
X34436361Y-83736148D01*
X34437407Y-83728468D01*
X34435672Y-83722540D01*
X34429746Y-83716334D01*
X34418222Y-83707815D01*
X34415354Y-83705817D01*
X34403247Y-83697003D01*
X34394586Y-83689924D01*
X34391260Y-83686138D01*
X34395149Y-83684493D01*
X34405563Y-83682981D01*
X34420365Y-83681899D01*
X34422509Y-83681805D01*
X34453924Y-83680532D01*
X34462590Y-83653514D01*
X34467618Y-83639737D01*
X34472335Y-83630003D01*
X34475589Y-83626496D01*
X34479017Y-83630297D01*
G37*
G36*
X33341478Y-83951504D02*
G01*
X33345686Y-83960415D01*
X33350695Y-83974027D01*
X33351665Y-83976985D01*
X33361549Y-84007673D01*
X33394277Y-84007817D01*
X33409589Y-84007827D01*
X33418722Y-84008380D01*
X33421602Y-84010507D01*
X33418155Y-84015237D01*
X33408308Y-84023600D01*
X33392236Y-84036427D01*
X33375281Y-84050016D01*
X33383285Y-84075424D01*
X33387916Y-84089926D01*
X33391735Y-84101537D01*
X33393555Y-84106753D01*
X33392647Y-84109761D01*
X33386293Y-84107719D01*
X33375626Y-84101213D01*
X33361781Y-84090830D01*
X33359939Y-84089335D01*
X33350022Y-84081865D01*
X33342673Y-84077482D01*
X33341021Y-84077001D01*
X33335649Y-84079360D01*
X33325801Y-84085453D01*
X33317094Y-84091477D01*
X33302149Y-84102146D01*
X33293019Y-84108080D01*
X33288511Y-84109643D01*
X33287432Y-84107200D01*
X33288591Y-84101116D01*
X33288835Y-84100112D01*
X33292315Y-84087678D01*
X33296947Y-84073161D01*
X33297675Y-84071040D01*
X33301359Y-84059647D01*
X33303381Y-84051847D01*
X33303514Y-84050718D01*
X33300214Y-84046639D01*
X33291572Y-84039371D01*
X33279734Y-84030681D01*
X33267688Y-84021899D01*
X33259116Y-84014851D01*
X33255903Y-84011112D01*
X33259850Y-84009467D01*
X33270312Y-84007955D01*
X33285140Y-84006873D01*
X33287265Y-84006779D01*
X33318680Y-84005506D01*
X33327346Y-83978704D01*
X33332231Y-83964478D01*
X33336446Y-83953745D01*
X33338896Y-83949099D01*
X33341478Y-83951504D01*
G37*
G36*
X35047961Y-83144907D02*
G01*
X35052122Y-83154953D01*
X35056628Y-83168984D01*
X35061474Y-83184276D01*
X35066719Y-83193843D01*
X35074413Y-83199045D01*
X35086607Y-83201246D01*
X35105352Y-83201808D01*
X35106039Y-83201814D01*
X35129870Y-83202010D01*
X35118817Y-83211622D01*
X35107681Y-83220948D01*
X35095118Y-83230996D01*
X35093738Y-83232067D01*
X35079712Y-83242900D01*
X35089022Y-83270223D01*
X35093409Y-83284386D01*
X35095899Y-83295073D01*
X35095968Y-83299911D01*
X35091562Y-83298763D01*
X35082204Y-83293513D01*
X35069865Y-83285275D01*
X35069049Y-83284693D01*
X35044495Y-83267110D01*
X35021289Y-83284252D01*
X35007477Y-83294266D01*
X34999155Y-83299534D01*
X34994954Y-83300607D01*
X34993503Y-83298032D01*
X34993381Y-83295440D01*
X34994753Y-83287902D01*
X34998202Y-83276025D01*
X34999881Y-83271064D01*
X35004737Y-83255178D01*
X35005169Y-83244082D01*
X35000259Y-83235122D01*
X34989087Y-83225647D01*
X34982547Y-83221041D01*
X34970788Y-83212574D01*
X34962804Y-83206107D01*
X34960310Y-83203032D01*
X34960317Y-83203025D01*
X34965136Y-83202179D01*
X34976188Y-83201521D01*
X34990429Y-83201205D01*
X35006418Y-83200345D01*
X35018027Y-83198287D01*
X35022661Y-83195945D01*
X35025867Y-83189269D01*
X35030323Y-83177195D01*
X35033935Y-83165989D01*
X35038476Y-83152805D01*
X35042630Y-83143774D01*
X35045061Y-83141074D01*
X35047961Y-83144907D01*
G37*
G36*
X34288797Y-83795345D02*
G01*
X34293322Y-83804742D01*
X34298085Y-83818055D01*
X34306602Y-83845186D01*
X34338016Y-83846459D01*
X34353261Y-83847535D01*
X34364427Y-83849196D01*
X34369359Y-83851108D01*
X34369430Y-83851354D01*
X34366217Y-83855591D01*
X34357782Y-83863259D01*
X34345932Y-83872718D01*
X34345599Y-83872970D01*
X34333753Y-83882043D01*
X34325231Y-83888815D01*
X34321806Y-83891878D01*
X34321800Y-83891906D01*
X34322977Y-83896194D01*
X34326030Y-83906536D01*
X34330302Y-83920698D01*
X34330329Y-83920789D01*
X34334344Y-83935116D01*
X34336709Y-83945840D01*
X34336913Y-83950642D01*
X34336911Y-83950644D01*
X34332790Y-83949196D01*
X34323761Y-83943581D01*
X34311726Y-83934988D01*
X34310956Y-83934408D01*
X34286916Y-83916258D01*
X34261907Y-83933801D01*
X34246331Y-83944364D01*
X34236590Y-83949984D01*
X34231750Y-83951126D01*
X34230774Y-83949338D01*
X34232236Y-83944519D01*
X34235996Y-83934250D01*
X34239440Y-83925346D01*
X34245566Y-83908132D01*
X34247238Y-83896238D01*
X34243859Y-83887225D01*
X34234833Y-83878654D01*
X34226600Y-83872805D01*
X34211512Y-83861951D01*
X34204146Y-83854643D01*
X34204649Y-83850217D01*
X34213168Y-83848010D01*
X34229851Y-83847357D01*
X34232241Y-83847352D01*
X34263766Y-83847352D01*
X34272704Y-83820459D01*
X34277846Y-83806493D01*
X34282542Y-83796304D01*
X34285605Y-83792245D01*
X34288797Y-83795345D01*
G37*
G36*
X33909159Y-83144874D02*
G01*
X33913446Y-83154744D01*
X33917243Y-83165989D01*
X33922905Y-83183519D01*
X33928126Y-83194239D01*
X33934762Y-83199692D01*
X33944672Y-83201426D01*
X33959337Y-83201004D01*
X33973826Y-83200886D01*
X33983596Y-83202159D01*
X33986501Y-83203903D01*
X33983868Y-83208393D01*
X33975742Y-83215915D01*
X33964485Y-83224408D01*
X33941199Y-83240580D01*
X33950341Y-83268699D01*
X33954562Y-83283159D01*
X33956891Y-83294201D01*
X33956833Y-83299468D01*
X33956810Y-83299492D01*
X33952275Y-83298466D01*
X33942919Y-83293221D01*
X33930744Y-83284885D01*
X33930413Y-83284640D01*
X33906689Y-83267115D01*
X33882221Y-83284255D01*
X33868142Y-83293986D01*
X33859678Y-83299282D01*
X33855416Y-83300774D01*
X33853940Y-83299095D01*
X33853804Y-83296954D01*
X33855169Y-83290745D01*
X33858708Y-83279167D01*
X33862615Y-83267706D01*
X33871425Y-83242900D01*
X33857419Y-83232067D01*
X33845068Y-83222235D01*
X33833462Y-83212574D01*
X33832360Y-83211622D01*
X33821307Y-83202010D01*
X33836472Y-83201260D01*
X33849524Y-83200505D01*
X33860074Y-83199719D01*
X33860304Y-83199698D01*
X33872467Y-83198598D01*
X33877690Y-83198144D01*
X33883143Y-83195800D01*
X33887827Y-83188722D01*
X33892692Y-83175271D01*
X33894476Y-83169239D01*
X33899013Y-83155096D01*
X33903185Y-83144985D01*
X33906095Y-83141075D01*
X33906116Y-83141074D01*
X33909159Y-83144874D01*
G37*
G36*
X33529709Y-83472215D02*
G01*
X33534353Y-83481978D01*
X33539168Y-83495297D01*
X33547830Y-83522378D01*
X33577071Y-83522378D01*
X33592185Y-83522933D01*
X33603596Y-83524388D01*
X33608801Y-83526404D01*
X33606796Y-83530690D01*
X33599150Y-83538065D01*
X33587515Y-83546936D01*
X33587443Y-83546986D01*
X33575340Y-83556043D01*
X33566740Y-83563726D01*
X33563545Y-83568279D01*
X33564848Y-83574657D01*
X33568282Y-83586410D01*
X33572171Y-83598238D01*
X33576405Y-83611770D01*
X33578731Y-83621717D01*
X33578749Y-83625558D01*
X33574357Y-83624486D01*
X33565443Y-83619439D01*
X33559012Y-83615098D01*
X33546988Y-83606541D01*
X33536839Y-83599327D01*
X33533724Y-83597117D01*
X33528589Y-83594892D01*
X33522339Y-83596165D01*
X33512973Y-83601710D01*
X33502838Y-83609033D01*
X33487216Y-83620081D01*
X33477524Y-83625385D01*
X33473343Y-83625102D01*
X33474129Y-83619709D01*
X33479590Y-83603758D01*
X33483995Y-83587751D01*
X33486851Y-83573939D01*
X33487663Y-83564572D01*
X33486839Y-83561918D01*
X33466933Y-83547971D01*
X33453458Y-83538014D01*
X33445551Y-83531361D01*
X33442344Y-83527326D01*
X33442170Y-83526503D01*
X33446146Y-83524521D01*
X33456656Y-83523060D01*
X33471569Y-83522393D01*
X33474291Y-83522378D01*
X33506412Y-83522378D01*
X33514371Y-83495725D01*
X33519057Y-83481939D01*
X33523464Y-83472157D01*
X33526418Y-83468644D01*
X33529709Y-83472215D01*
G37*
G36*
X33340818Y-82977306D02*
G01*
X33345072Y-82986335D01*
X33350303Y-82999932D01*
X33351229Y-83002570D01*
X33361695Y-83032750D01*
X33393266Y-83032750D01*
X33408525Y-83033158D01*
X33419681Y-83034237D01*
X33424603Y-83035765D01*
X33424674Y-83035999D01*
X33421291Y-83039940D01*
X33412596Y-83047105D01*
X33400842Y-83055682D01*
X33388778Y-83064851D01*
X33380252Y-83072844D01*
X33377175Y-83077752D01*
X33378514Y-83084644D01*
X33381989Y-83096789D01*
X33385852Y-83108610D01*
X33390123Y-83122095D01*
X33392549Y-83131941D01*
X33392688Y-83135672D01*
X33388538Y-83134266D01*
X33379284Y-83128855D01*
X33366810Y-83120555D01*
X33364943Y-83119247D01*
X33339040Y-83100979D01*
X33324527Y-83111787D01*
X33311748Y-83120965D01*
X33299370Y-83129352D01*
X33297849Y-83130330D01*
X33285685Y-83138064D01*
X33288761Y-83125487D01*
X33292300Y-83112821D01*
X33296967Y-83098179D01*
X33297675Y-83096116D01*
X33301351Y-83084856D01*
X33303377Y-83077312D01*
X33303514Y-83076255D01*
X33300212Y-83072428D01*
X33291564Y-83065368D01*
X33279683Y-83056774D01*
X33267605Y-83047953D01*
X33259031Y-83040733D01*
X33255851Y-83036745D01*
X33259825Y-83034829D01*
X33270309Y-83033119D01*
X33285150Y-83031950D01*
X33287265Y-83031856D01*
X33318680Y-83030583D01*
X33327346Y-83003781D01*
X33332146Y-82989661D01*
X33336164Y-82979127D01*
X33338388Y-82974684D01*
X33340818Y-82977306D01*
G37*
G36*
X35047922Y-83469883D02*
G01*
X35052109Y-83479942D01*
X35056656Y-83494055D01*
X35056701Y-83494213D01*
X35064767Y-83522378D01*
X35096236Y-83522378D01*
X35111494Y-83522858D01*
X35122676Y-83524126D01*
X35127629Y-83525922D01*
X35127704Y-83526184D01*
X35124511Y-83530537D01*
X35116120Y-83538372D01*
X35104311Y-83548036D01*
X35103671Y-83548531D01*
X35092002Y-83558336D01*
X35084010Y-83566610D01*
X35081331Y-83571647D01*
X35081375Y-83571806D01*
X35087865Y-83590577D01*
X35092776Y-83606893D01*
X35095618Y-83618938D01*
X35095899Y-83624895D01*
X35095763Y-83625091D01*
X35091351Y-83623931D01*
X35082114Y-83618522D01*
X35070002Y-83610015D01*
X35069326Y-83609506D01*
X35045382Y-83591429D01*
X35021733Y-83608899D01*
X35007782Y-83619032D01*
X34999358Y-83624383D01*
X34995101Y-83625431D01*
X34993649Y-83622652D01*
X34993571Y-83618787D01*
X34995117Y-83610021D01*
X34998731Y-83597556D01*
X35000006Y-83593872D01*
X35004800Y-83578404D01*
X35004963Y-83567830D01*
X34999580Y-83559218D01*
X34987739Y-83549634D01*
X34985798Y-83548250D01*
X34971164Y-83537500D01*
X34963999Y-83530533D01*
X34964533Y-83526370D01*
X34972996Y-83524029D01*
X34989620Y-83522528D01*
X34991876Y-83522378D01*
X35024770Y-83520211D01*
X35033064Y-83493130D01*
X35037805Y-83479322D01*
X35042133Y-83469565D01*
X35044997Y-83466049D01*
X35047922Y-83469883D01*
G37*
G36*
X33341237Y-82651862D02*
G01*
X33345434Y-82660814D01*
X33350473Y-82674416D01*
X33351366Y-82677098D01*
X33361313Y-82707437D01*
X33394159Y-82708689D01*
X33427004Y-82709942D01*
X33402106Y-82729440D01*
X33389928Y-82739686D01*
X33381051Y-82748506D01*
X33377228Y-82754138D01*
X33377192Y-82754463D01*
X33378546Y-82761308D01*
X33382072Y-82773361D01*
X33385841Y-82784644D01*
X33390422Y-82797865D01*
X33393563Y-82807289D01*
X33394507Y-82810534D01*
X33391486Y-82811909D01*
X33382797Y-82807560D01*
X33368999Y-82797788D01*
X33364693Y-82794435D01*
X33353054Y-82785517D01*
X33344211Y-82779261D01*
X33340287Y-82777103D01*
X33335803Y-82779491D01*
X33326443Y-82785747D01*
X33314347Y-82794435D01*
X33302166Y-82803185D01*
X33292855Y-82809416D01*
X33288451Y-82811767D01*
X33287592Y-82808154D01*
X33288926Y-82799851D01*
X33292325Y-82787733D01*
X33296920Y-82773346D01*
X33297725Y-82771000D01*
X33300651Y-82760273D01*
X33300012Y-82751914D01*
X33294753Y-82744062D01*
X33283822Y-82734858D01*
X33272812Y-82727017D01*
X33262841Y-82719423D01*
X33256743Y-82713461D01*
X33255851Y-82711709D01*
X33259825Y-82709823D01*
X33270309Y-82708135D01*
X33285150Y-82706976D01*
X33287265Y-82706882D01*
X33318680Y-82705609D01*
X33327346Y-82678806D01*
X33332200Y-82664618D01*
X33336345Y-82653956D01*
X33338716Y-82649382D01*
X33341237Y-82651862D01*
G37*
G36*
X33341235Y-83301815D02*
G01*
X33345432Y-83310775D01*
X33350481Y-83324393D01*
X33351422Y-83327216D01*
X33361424Y-83357724D01*
X33393131Y-83357724D01*
X33408425Y-83358131D01*
X33419623Y-83359205D01*
X33424596Y-83360728D01*
X33424674Y-83360974D01*
X33421291Y-83364914D01*
X33412596Y-83372080D01*
X33400842Y-83380656D01*
X33388778Y-83389825D01*
X33380252Y-83397819D01*
X33377175Y-83402726D01*
X33378514Y-83409618D01*
X33381989Y-83421764D01*
X33385852Y-83433584D01*
X33390123Y-83447070D01*
X33392549Y-83456915D01*
X33392688Y-83460647D01*
X33388542Y-83459234D01*
X33379275Y-83453812D01*
X33366760Y-83445492D01*
X33364597Y-83443977D01*
X33338347Y-83425465D01*
X33322014Y-83438554D01*
X33307273Y-83449594D01*
X33295579Y-83456855D01*
X33288177Y-83459654D01*
X33286182Y-83458214D01*
X33287503Y-83452362D01*
X33290933Y-83441012D01*
X33294848Y-83429218D01*
X33299418Y-83415492D01*
X33302558Y-83405211D01*
X33303514Y-83401096D01*
X33300214Y-83397338D01*
X33291570Y-83390329D01*
X33279683Y-83381748D01*
X33267605Y-83372928D01*
X33259031Y-83365708D01*
X33255851Y-83361719D01*
X33259825Y-83359804D01*
X33270309Y-83358094D01*
X33285150Y-83356924D01*
X33287265Y-83356831D01*
X33318680Y-83355558D01*
X33327346Y-83328755D01*
X33332200Y-83314567D01*
X33336345Y-83303905D01*
X33338716Y-83299331D01*
X33341235Y-83301815D01*
G37*
G36*
X35047796Y-82819917D02*
G01*
X35052002Y-82829899D01*
X35056398Y-82843181D01*
X35061217Y-82857626D01*
X35065842Y-82868608D01*
X35069000Y-82873446D01*
X35075443Y-82875123D01*
X35087761Y-82876350D01*
X35101706Y-82876832D01*
X35129870Y-82877036D01*
X35118817Y-82886648D01*
X35107685Y-82895962D01*
X35095107Y-82906002D01*
X35093697Y-82907093D01*
X35079631Y-82917925D01*
X35088622Y-82943867D01*
X35093146Y-82958174D01*
X35095934Y-82969485D01*
X35096410Y-82974771D01*
X35092722Y-82974933D01*
X35084259Y-82970511D01*
X35073541Y-82962972D01*
X35061283Y-82954173D01*
X35051110Y-82948080D01*
X35045894Y-82946151D01*
X35039381Y-82948509D01*
X35028577Y-82954690D01*
X35018389Y-82961553D01*
X35006732Y-82969282D01*
X34997961Y-82973902D01*
X34994348Y-82974499D01*
X34994166Y-82969326D01*
X34996338Y-82958622D01*
X34999106Y-82948906D01*
X35003143Y-82935003D01*
X35005743Y-82923940D01*
X35006287Y-82919711D01*
X35002932Y-82914268D01*
X34994225Y-82905865D01*
X34982046Y-82896316D01*
X34981968Y-82896260D01*
X34957742Y-82878928D01*
X34988181Y-82877663D01*
X35004546Y-82876287D01*
X35016800Y-82873921D01*
X35022501Y-82871164D01*
X35025798Y-82864373D01*
X35030317Y-82852211D01*
X35033935Y-82841015D01*
X35038453Y-82827833D01*
X35042547Y-82818802D01*
X35044912Y-82816100D01*
X35047796Y-82819917D01*
G37*
G36*
X33529614Y-82822396D02*
G01*
X33534256Y-82831945D01*
X33538811Y-82844264D01*
X33543540Y-82858123D01*
X33547365Y-82868358D01*
X33549268Y-82872429D01*
X33554229Y-82873772D01*
X33565499Y-82875282D01*
X33580735Y-82876653D01*
X33582256Y-82876762D01*
X33613323Y-82878928D01*
X33588460Y-82896260D01*
X33576069Y-82905615D01*
X33567144Y-82913721D01*
X33563551Y-82918876D01*
X33563545Y-82918991D01*
X33564862Y-82925690D01*
X33568345Y-82937761D01*
X33572596Y-82950692D01*
X33577008Y-82964479D01*
X33579595Y-82974668D01*
X33579833Y-82978858D01*
X33575785Y-82977316D01*
X33566814Y-82971526D01*
X33554745Y-82962681D01*
X33552877Y-82961240D01*
X33540626Y-82951811D01*
X33531430Y-82944892D01*
X33527052Y-82941807D01*
X33526924Y-82941757D01*
X33523300Y-82944136D01*
X33514630Y-82950374D01*
X33502832Y-82959089D01*
X33490575Y-82967886D01*
X33480995Y-82974124D01*
X33476259Y-82976421D01*
X33475491Y-82972731D01*
X33477187Y-82963295D01*
X33479255Y-82955839D01*
X33484771Y-82937828D01*
X33487520Y-82925911D01*
X33486965Y-82917809D01*
X33482569Y-82911242D01*
X33473794Y-82903930D01*
X33465571Y-82897760D01*
X33440579Y-82878928D01*
X33472789Y-82876762D01*
X33504998Y-82874595D01*
X33513714Y-82847187D01*
X33518687Y-82833160D01*
X33523257Y-82823018D01*
X33526351Y-82819022D01*
X33529614Y-82822396D01*
G37*
G36*
X35241241Y-83632317D02*
G01*
X35245807Y-83642941D01*
X35250120Y-83655930D01*
X35258004Y-83682698D01*
X35288180Y-83682698D01*
X35303086Y-83683214D01*
X35313870Y-83684572D01*
X35318336Y-83686484D01*
X35318355Y-83686625D01*
X35315095Y-83691033D01*
X35306615Y-83698547D01*
X35296691Y-83706116D01*
X35285269Y-83715148D01*
X35277437Y-83722924D01*
X35275072Y-83727104D01*
X35276292Y-83734167D01*
X35279349Y-83746149D01*
X35281572Y-83753798D01*
X35286240Y-83770461D01*
X35287214Y-83779566D01*
X35283735Y-83781708D01*
X35275042Y-83777483D01*
X35262340Y-83768876D01*
X35236656Y-83750763D01*
X35215761Y-83765701D01*
X35200757Y-83776332D01*
X35191424Y-83782500D01*
X35186420Y-83784834D01*
X35184403Y-83783966D01*
X35184033Y-83780607D01*
X35185553Y-83773032D01*
X35189448Y-83760756D01*
X35192699Y-83752026D01*
X35197527Y-83739189D01*
X35200673Y-83729692D01*
X35201365Y-83726588D01*
X35198058Y-83722561D01*
X35189397Y-83715355D01*
X35177533Y-83706722D01*
X35165456Y-83697902D01*
X35156881Y-83690682D01*
X35153702Y-83686694D01*
X35157674Y-83684771D01*
X35168149Y-83683057D01*
X35182965Y-83681890D01*
X35184885Y-83681805D01*
X35216068Y-83680532D01*
X35224740Y-83653376D01*
X35229743Y-83639828D01*
X35234465Y-83630593D01*
X35237825Y-83627690D01*
X35241241Y-83632317D01*
G37*
G36*
X34290465Y-82819851D02*
G01*
X34293520Y-82829001D01*
X34293787Y-82830182D01*
X34297552Y-82844020D01*
X34302693Y-82859040D01*
X34303268Y-82860513D01*
X34309709Y-82876762D01*
X34340653Y-82876965D01*
X34371597Y-82877169D01*
X34356652Y-82888881D01*
X34344602Y-82898522D01*
X34333627Y-82907610D01*
X34331703Y-82909259D01*
X34321697Y-82917925D01*
X34330261Y-82945866D01*
X34334304Y-82960195D01*
X34336681Y-82970930D01*
X34336877Y-82975754D01*
X34336874Y-82975757D01*
X34332568Y-82974601D01*
X34323710Y-82969502D01*
X34317285Y-82965149D01*
X34305341Y-82956646D01*
X34295345Y-82949534D01*
X34292286Y-82947360D01*
X34287132Y-82945299D01*
X34280631Y-82946939D01*
X34270810Y-82953068D01*
X34262442Y-82959276D01*
X34246742Y-82970387D01*
X34236148Y-82975974D01*
X34231128Y-82975813D01*
X34230774Y-82974415D01*
X34232236Y-82969596D01*
X34235996Y-82959327D01*
X34239440Y-82950423D01*
X34244334Y-82936673D01*
X34247452Y-82925346D01*
X34248055Y-82921015D01*
X34244669Y-82914945D01*
X34235816Y-82906127D01*
X34223367Y-82896419D01*
X34223140Y-82896260D01*
X34198277Y-82878928D01*
X34230430Y-82876762D01*
X34262583Y-82874595D01*
X34273276Y-82845348D01*
X34278940Y-82831047D01*
X34283898Y-82820626D01*
X34287159Y-82816143D01*
X34287358Y-82816100D01*
X34290465Y-82819851D01*
G37*
G36*
X34666934Y-82819876D02*
G01*
X34671663Y-82829824D01*
X34677121Y-82843872D01*
X34677643Y-82845348D01*
X34687905Y-82874595D01*
X34720182Y-82876762D01*
X34752459Y-82878928D01*
X34727765Y-82895897D01*
X34715363Y-82905409D01*
X34706497Y-82914097D01*
X34703071Y-82920094D01*
X34703071Y-82920134D01*
X34704427Y-82927966D01*
X34707943Y-82940822D01*
X34711748Y-82952622D01*
X34716076Y-82966034D01*
X34718663Y-82975717D01*
X34718995Y-82979272D01*
X34715096Y-82977620D01*
X34706247Y-82971915D01*
X34694370Y-82963396D01*
X34681657Y-82954543D01*
X34671080Y-82948303D01*
X34665198Y-82946090D01*
X34658678Y-82948573D01*
X34648113Y-82954982D01*
X34639359Y-82961255D01*
X34625309Y-82971236D01*
X34615982Y-82976242D01*
X34612161Y-82975869D01*
X34612111Y-82975337D01*
X34613304Y-82970980D01*
X34616405Y-82960581D01*
X34620745Y-82946373D01*
X34620833Y-82946090D01*
X34629521Y-82917925D01*
X34615605Y-82907093D01*
X34603282Y-82897235D01*
X34591689Y-82887560D01*
X34590634Y-82886648D01*
X34579580Y-82877036D01*
X34610524Y-82876899D01*
X34641468Y-82876762D01*
X34647909Y-82860513D01*
X34653074Y-82845784D01*
X34657100Y-82831474D01*
X34657390Y-82830182D01*
X34660376Y-82820637D01*
X34663604Y-82816149D01*
X34663905Y-82816100D01*
X34666934Y-82819876D01*
G37*
G36*
X33909228Y-82819898D02*
G01*
X33913461Y-82829765D01*
X33917243Y-82841015D01*
X33921964Y-82855335D01*
X33926370Y-82866616D01*
X33928827Y-82871346D01*
X33935837Y-82874584D01*
X33950379Y-82876409D01*
X33963473Y-82876762D01*
X33994087Y-82876762D01*
X33967794Y-82896301D01*
X33941500Y-82915840D01*
X33950152Y-82944182D01*
X33954178Y-82958671D01*
X33956484Y-82969634D01*
X33956583Y-82974742D01*
X33956557Y-82974771D01*
X33952167Y-82973639D01*
X33942991Y-82968443D01*
X33932788Y-82961553D01*
X33920601Y-82953343D01*
X33910825Y-82947736D01*
X33906321Y-82946090D01*
X33900360Y-82948431D01*
X33889923Y-82954507D01*
X33879802Y-82961255D01*
X33866411Y-82970455D01*
X33858554Y-82975095D01*
X33854824Y-82975799D01*
X33853810Y-82973190D01*
X33853804Y-82972766D01*
X33855132Y-82967017D01*
X33858588Y-82955724D01*
X33862675Y-82943518D01*
X33871546Y-82917925D01*
X33857480Y-82907093D01*
X33845110Y-82897278D01*
X33833494Y-82887627D01*
X33832360Y-82886648D01*
X33821307Y-82877036D01*
X33849471Y-82876832D01*
X33864707Y-82876265D01*
X33876605Y-82874984D01*
X33882177Y-82873446D01*
X33885688Y-82867886D01*
X33890370Y-82856516D01*
X33894779Y-82843181D01*
X33899375Y-82829362D01*
X33903542Y-82819604D01*
X33906265Y-82816100D01*
X33909228Y-82819898D01*
G37*
G36*
X33716789Y-83630710D02*
G01*
X33721525Y-83640041D01*
X33726437Y-83653376D01*
X33735109Y-83680532D01*
X33766292Y-83681805D01*
X33781475Y-83682861D01*
X33792570Y-83684464D01*
X33797416Y-83686288D01*
X33797475Y-83686501D01*
X33794169Y-83690513D01*
X33785509Y-83697708D01*
X33773644Y-83706337D01*
X33761577Y-83715081D01*
X33753005Y-83722120D01*
X33749812Y-83725878D01*
X33751126Y-83731341D01*
X33754543Y-83742405D01*
X33758547Y-83754392D01*
X33762957Y-83768299D01*
X33765642Y-83778934D01*
X33766057Y-83783453D01*
X33762259Y-83782938D01*
X33753366Y-83778185D01*
X33741192Y-83770187D01*
X33739380Y-83768901D01*
X33723547Y-83758527D01*
X33713119Y-83754061D01*
X33708150Y-83754600D01*
X33701550Y-83759261D01*
X33690794Y-83767023D01*
X33682763Y-83772877D01*
X33672175Y-83779778D01*
X33665080Y-83782764D01*
X33663152Y-83781828D01*
X33664264Y-83775009D01*
X33667150Y-83762766D01*
X33670436Y-83750469D01*
X33677719Y-83724511D01*
X33663074Y-83713354D01*
X33650604Y-83703554D01*
X33638933Y-83693925D01*
X33637376Y-83692585D01*
X33626322Y-83682972D01*
X33659748Y-83682835D01*
X33693173Y-83682698D01*
X33701057Y-83655930D01*
X33705763Y-83641901D01*
X33710274Y-83631679D01*
X33713352Y-83627690D01*
X33716789Y-83630710D01*
G37*
G36*
X35241241Y-82657394D02*
G01*
X35245807Y-82668018D01*
X35250120Y-82681007D01*
X35258004Y-82707775D01*
X35291429Y-82707912D01*
X35324855Y-82708049D01*
X35313801Y-82717661D01*
X35302781Y-82726847D01*
X35290086Y-82736910D01*
X35288183Y-82738369D01*
X35273619Y-82749463D01*
X35281482Y-82778511D01*
X35285113Y-82793225D01*
X35287201Y-82804351D01*
X35287315Y-82809577D01*
X35287266Y-82809637D01*
X35283036Y-82808310D01*
X35273948Y-82802833D01*
X35261992Y-82794409D01*
X35249965Y-82785650D01*
X35240870Y-82779425D01*
X35236723Y-82777103D01*
X35232473Y-82779517D01*
X35223356Y-82785837D01*
X35211694Y-82794435D01*
X35197875Y-82804636D01*
X35189517Y-82810034D01*
X35185338Y-82811270D01*
X35184055Y-82808985D01*
X35184033Y-82808275D01*
X35185331Y-82802657D01*
X35188729Y-82791338D01*
X35193327Y-82777262D01*
X35198147Y-82762554D01*
X35200204Y-82753827D01*
X35199570Y-82748871D01*
X35196318Y-82745478D01*
X35194410Y-82744139D01*
X35186284Y-82738382D01*
X35174493Y-82729792D01*
X35166986Y-82724239D01*
X35147773Y-82709942D01*
X35181925Y-82707775D01*
X35216077Y-82705609D01*
X35224744Y-82678453D01*
X35229746Y-82664904D01*
X35234466Y-82655670D01*
X35237825Y-82652767D01*
X35241241Y-82657394D01*
G37*
G36*
X33716588Y-82655856D02*
G01*
X33721145Y-82665277D01*
X33725972Y-82679034D01*
X33726084Y-82679403D01*
X33734555Y-82707458D01*
X33769186Y-82708700D01*
X33803817Y-82709942D01*
X33780064Y-82726943D01*
X33767433Y-82736057D01*
X33757505Y-82743357D01*
X33752581Y-82747139D01*
X33752001Y-82752535D01*
X33754001Y-82763701D01*
X33758152Y-82778283D01*
X33758442Y-82779161D01*
X33762889Y-82793726D01*
X33765530Y-82804823D01*
X33765829Y-82810173D01*
X33765760Y-82810263D01*
X33761432Y-82809026D01*
X33752206Y-82803625D01*
X33740027Y-82795207D01*
X33739304Y-82794675D01*
X33726235Y-82785374D01*
X33716771Y-82780807D01*
X33708374Y-82781139D01*
X33698509Y-82786537D01*
X33684636Y-82797166D01*
X33683138Y-82798358D01*
X33672790Y-82806117D01*
X33665176Y-82810958D01*
X33663055Y-82811767D01*
X33662614Y-82807971D01*
X33664399Y-82797929D01*
X33668029Y-82783660D01*
X33668864Y-82780751D01*
X33677911Y-82749736D01*
X33663170Y-82738505D01*
X33650688Y-82728697D01*
X33639009Y-82719067D01*
X33637376Y-82717661D01*
X33626322Y-82708049D01*
X33659748Y-82707912D01*
X33693173Y-82707775D01*
X33701057Y-82681007D01*
X33705751Y-82666984D01*
X33710233Y-82656771D01*
X33713276Y-82652793D01*
X33716588Y-82655856D01*
G37*
G36*
X33717051Y-82980672D02*
G01*
X33721589Y-82990094D01*
X33726276Y-83003903D01*
X33726425Y-83004419D01*
X33734539Y-83032750D01*
X33766007Y-83032750D01*
X33781265Y-83033230D01*
X33792447Y-83034498D01*
X33797401Y-83036293D01*
X33797475Y-83036555D01*
X33794163Y-83040765D01*
X33785491Y-83048107D01*
X33773644Y-83056774D01*
X33761585Y-83065462D01*
X33753014Y-83072370D01*
X33749812Y-83075958D01*
X33751103Y-83081196D01*
X33754479Y-83092192D01*
X33758958Y-83105812D01*
X33763285Y-83119907D01*
X33765731Y-83130506D01*
X33765789Y-83135208D01*
X33761474Y-83133948D01*
X33752285Y-83128461D01*
X33740140Y-83119901D01*
X33739084Y-83119108D01*
X33714693Y-83100693D01*
X33688923Y-83118866D01*
X33676557Y-83126935D01*
X33667432Y-83131646D01*
X33663250Y-83132149D01*
X33663152Y-83131759D01*
X33664263Y-83125009D01*
X33667146Y-83112818D01*
X33670436Y-83100520D01*
X33677719Y-83074562D01*
X33663074Y-83063405D01*
X33650604Y-83053605D01*
X33638933Y-83043976D01*
X33637376Y-83042636D01*
X33626322Y-83033023D01*
X33659748Y-83032887D01*
X33693173Y-83032750D01*
X33701057Y-83005981D01*
X33705806Y-82991931D01*
X33710422Y-82981673D01*
X33713626Y-82977650D01*
X33717051Y-82980672D01*
G37*
G36*
X35047922Y-83794858D02*
G01*
X35052109Y-83804916D01*
X35056656Y-83819029D01*
X35056701Y-83819188D01*
X35064767Y-83847352D01*
X35099485Y-83847580D01*
X35134203Y-83847808D01*
X35117234Y-83861662D01*
X35104905Y-83871801D01*
X35093626Y-83881198D01*
X35090094Y-83884183D01*
X35079924Y-83892849D01*
X35089293Y-83920007D01*
X35093704Y-83934135D01*
X35096173Y-83944812D01*
X35096188Y-83949640D01*
X35091763Y-83948499D01*
X35082458Y-83943162D01*
X35070228Y-83934763D01*
X35069387Y-83934144D01*
X35045061Y-83916174D01*
X35024638Y-83930903D01*
X35009769Y-83941484D01*
X35000529Y-83947501D01*
X34995599Y-83949578D01*
X34993662Y-83948334D01*
X34993381Y-83945645D01*
X34994757Y-83937934D01*
X34998214Y-83925945D01*
X34999881Y-83921013D01*
X35003880Y-83908163D01*
X35006160Y-83897904D01*
X35006364Y-83895554D01*
X35003134Y-83889579D01*
X34994644Y-83880425D01*
X34982662Y-83869976D01*
X34981449Y-83869017D01*
X34956551Y-83849519D01*
X34990660Y-83847352D01*
X35024770Y-83845186D01*
X35033064Y-83818104D01*
X35037805Y-83804296D01*
X35042133Y-83794539D01*
X35044997Y-83791023D01*
X35047922Y-83794858D01*
G37*
G36*
X33909234Y-83794833D02*
G01*
X33913574Y-83804799D01*
X33918113Y-83818104D01*
X33926407Y-83845186D01*
X33960491Y-83847352D01*
X33994574Y-83849519D01*
X33967402Y-83870832D01*
X33954946Y-83881329D01*
X33946036Y-83890247D01*
X33942191Y-83896020D01*
X33942214Y-83896830D01*
X33947243Y-83910074D01*
X33951848Y-83924485D01*
X33955336Y-83937543D01*
X33957011Y-83946733D01*
X33956741Y-83949510D01*
X33952248Y-83948437D01*
X33942901Y-83943152D01*
X33930673Y-83934779D01*
X33929968Y-83934261D01*
X33905800Y-83916407D01*
X33882154Y-83933875D01*
X33868161Y-83944011D01*
X33859673Y-83949430D01*
X33855360Y-83950743D01*
X33853892Y-83948561D01*
X33853804Y-83946903D01*
X33855156Y-83940682D01*
X33858660Y-83929099D01*
X33862470Y-83917805D01*
X33867047Y-83904634D01*
X33870188Y-83895312D01*
X33871136Y-83892169D01*
X33867963Y-83889269D01*
X33859542Y-83882446D01*
X33847519Y-83873027D01*
X33844055Y-83870354D01*
X33816974Y-83849519D01*
X33851307Y-83847352D01*
X33885640Y-83845186D01*
X33894155Y-83818104D01*
X33898994Y-83804310D01*
X33903374Y-83794555D01*
X33906244Y-83791023D01*
X33909234Y-83794833D01*
G37*
G36*
X35241248Y-83307344D02*
G01*
X35245812Y-83317961D01*
X35250067Y-83330775D01*
X35257897Y-83357363D01*
X35291376Y-83358627D01*
X35324855Y-83359891D01*
X35298370Y-83380267D01*
X35271885Y-83400643D01*
X35279813Y-83423597D01*
X35285743Y-83441879D01*
X35287867Y-83452738D01*
X35285676Y-83456766D01*
X35278664Y-83454552D01*
X35266323Y-83446686D01*
X35262363Y-83443917D01*
X35236701Y-83425820D01*
X35215783Y-83440912D01*
X35200629Y-83451690D01*
X35191142Y-83457923D01*
X35186074Y-83460294D01*
X35184181Y-83459487D01*
X35184033Y-83458317D01*
X35185354Y-83452407D01*
X35188787Y-83441012D01*
X35192699Y-83429218D01*
X35197268Y-83415492D01*
X35200409Y-83405211D01*
X35201365Y-83401096D01*
X35198065Y-83397338D01*
X35189421Y-83390329D01*
X35177533Y-83381748D01*
X35165456Y-83372928D01*
X35156881Y-83365708D01*
X35153702Y-83361719D01*
X35157674Y-83359797D01*
X35168149Y-83358083D01*
X35182965Y-83356916D01*
X35184885Y-83356831D01*
X35216068Y-83355558D01*
X35224740Y-83328401D01*
X35229743Y-83314853D01*
X35234465Y-83305619D01*
X35237825Y-83302716D01*
X35241248Y-83307344D01*
G37*
G36*
X35241248Y-82982370D02*
G01*
X35245812Y-82992986D01*
X35250067Y-83005801D01*
X35257897Y-83032389D01*
X35291376Y-83033652D01*
X35324855Y-83034916D01*
X35298370Y-83055292D01*
X35271885Y-83075668D01*
X35279813Y-83098622D01*
X35284283Y-83112897D01*
X35287223Y-83124831D01*
X35287883Y-83129687D01*
X35287988Y-83133526D01*
X35287269Y-83135401D01*
X35284420Y-83134690D01*
X35278132Y-83130775D01*
X35267098Y-83123037D01*
X35253742Y-83113511D01*
X35236337Y-83101113D01*
X35215601Y-83116072D01*
X35200497Y-83126810D01*
X35191055Y-83133001D01*
X35186029Y-83135329D01*
X35184169Y-83134475D01*
X35184033Y-83133343D01*
X35185354Y-83127432D01*
X35188787Y-83116038D01*
X35192699Y-83104244D01*
X35197266Y-83090544D01*
X35200406Y-83080317D01*
X35201365Y-83076254D01*
X35198085Y-83072588D01*
X35189402Y-83065421D01*
X35177050Y-83056167D01*
X35174283Y-83054184D01*
X35147202Y-83034916D01*
X35181639Y-83032750D01*
X35216077Y-83030583D01*
X35224744Y-83003427D01*
X35229746Y-82989879D01*
X35234466Y-82980644D01*
X35237825Y-82977742D01*
X35241248Y-82982370D01*
G37*
G36*
X33909347Y-83469857D02*
G01*
X33913602Y-83479819D01*
X33918113Y-83493130D01*
X33926407Y-83520211D01*
X33960517Y-83522378D01*
X33994626Y-83524544D01*
X33968039Y-83545438D01*
X33941452Y-83566331D01*
X33950468Y-83594062D01*
X33954648Y-83608419D01*
X33956925Y-83619349D01*
X33956810Y-83624467D01*
X33952283Y-83623427D01*
X33942910Y-83618167D01*
X33930671Y-83609804D01*
X33929968Y-83609286D01*
X33905800Y-83591432D01*
X33882154Y-83608901D01*
X33868161Y-83619037D01*
X33859673Y-83624455D01*
X33855360Y-83625768D01*
X33853892Y-83623586D01*
X33853804Y-83621928D01*
X33855156Y-83615707D01*
X33858660Y-83604125D01*
X33862470Y-83592831D01*
X33867041Y-83579737D01*
X33870181Y-83570568D01*
X33871136Y-83567580D01*
X33867990Y-83564835D01*
X33859634Y-83558073D01*
X33847697Y-83548606D01*
X33844081Y-83545765D01*
X33817026Y-83524544D01*
X33851437Y-83522378D01*
X33885848Y-83520211D01*
X33894492Y-83493130D01*
X33899360Y-83479346D01*
X33903698Y-83469593D01*
X33906477Y-83466049D01*
X33909347Y-83469857D01*
G37*
X47141250Y-75190835D02*
X47141250Y-74959165D01*
X47861250Y-75190835D02*
X47861250Y-74959165D01*
X45121250Y-75193335D02*
X45121250Y-74961665D01*
X45841250Y-75193335D02*
X45841250Y-74961665D01*
X38450000Y-68020000D02*
X38450000Y-69350000D01*
X37120000Y-68020000D02*
X38450000Y-68020000D01*
X35850000Y-68020000D02*
X33250000Y-68020000D01*
X35850000Y-68020000D02*
X35850000Y-70680000D01*
X33250000Y-68020000D02*
X33250000Y-70680000D01*
X35850000Y-70680000D02*
X33250000Y-70680000D01*
X29010000Y-84176359D02*
X29010000Y-84483641D01*
X28250000Y-84176359D02*
X28250000Y-84483641D01*
%LPC*%
D12*
X39870000Y-73110000D03*
D13*
X42410000Y-73110000D03*
X39870000Y-75650000D03*
X42410000Y-75650000D03*
X39870000Y-78190000D03*
X42410000Y-78190000D03*
X39870000Y-80730000D03*
X42410000Y-80730000D03*
D14*
X31290000Y-69385000D03*
X31290000Y-67485000D03*
X29415000Y-68435000D03*
D15*
X34400000Y-74540000D03*
X34400000Y-73405000D03*
D16*
X27440000Y-81270000D03*
D17*
X31620000Y-81270000D03*
D16*
X27440000Y-72630000D03*
D17*
X31620000Y-72630000D03*
D18*
X32535000Y-73700000D03*
X32535000Y-74500000D03*
D19*
X32535000Y-75200000D03*
X32535000Y-76200000D03*
X32535000Y-77700000D03*
X32535000Y-78700000D03*
D18*
X32535000Y-79400000D03*
X32535000Y-80200000D03*
X32535000Y-80200000D03*
X32535000Y-79400000D03*
D19*
X32535000Y-78200000D03*
X32535000Y-77200000D03*
X32535000Y-76700000D03*
X32535000Y-75700000D03*
D18*
X32535000Y-74500000D03*
X32535000Y-73700000D03*
D20*
X31090000Y-79840000D03*
X31090000Y-74060000D03*
D21*
X30540000Y-86450000D03*
X31560000Y-86450000D03*
X28880000Y-66175000D03*
X29900000Y-66175000D03*
D22*
X45520000Y-80280000D03*
X45520000Y-81415000D03*
D12*
X26130000Y-69610000D03*
D13*
X26130000Y-67070000D03*
D23*
X30210000Y-83240000D03*
X30210000Y-85140000D03*
X32085000Y-84190000D03*
D24*
X52090000Y-80220000D03*
D25*
X52090000Y-79645000D03*
X52090000Y-79145000D03*
X52090000Y-78645000D03*
X52090000Y-78145000D03*
X52090000Y-77645000D03*
X52090000Y-77145000D03*
X52090000Y-76645000D03*
X52090000Y-76145000D03*
X52090000Y-75645000D03*
X52090000Y-75145000D03*
D24*
X52090000Y-74570000D03*
D26*
X51990000Y-73990000D03*
X51990000Y-80800000D03*
D22*
X46500000Y-80272500D03*
X46500000Y-81407500D03*
D15*
X46501250Y-75647500D03*
X46501250Y-74512500D03*
D22*
X34340000Y-79515000D03*
X34340000Y-80650000D03*
X47480000Y-80262500D03*
X47480000Y-81397500D03*
D12*
X26130000Y-86905000D03*
D13*
X26130000Y-84365000D03*
D21*
X28850000Y-70655000D03*
X29870000Y-70655000D03*
D15*
X47501250Y-75642500D03*
X47501250Y-74507500D03*
X45481250Y-75645000D03*
X45481250Y-74510000D03*
D12*
X37120000Y-69350000D03*
D13*
X34580000Y-69350000D03*
D27*
X28630000Y-83820000D03*
X28630000Y-84840000D03*
%LPD*%
M02*
