%TF.GenerationSoftware,KiCad,Pcbnew,(5.1.6-0-10_14)*%
%TF.CreationDate,2022-07-07T23:15:08-05:00*%
%TF.ProjectId,small_led_driver_v2,736d616c-6c5f-46c6-9564-5f6472697665,rev?*%
%TF.SameCoordinates,Original*%
%TF.FileFunction,Legend,Top*%
%TF.FilePolarity,Positive*%
%FSLAX46Y46*%
G04 Gerber Fmt 4.6, Leading zero omitted, Abs format (unit mm)*
G04 Created by KiCad (PCBNEW (5.1.6-0-10_14)) date 2022-07-07 23:15:08*
%MOMM*%
%LPD*%
G01*
G04 APERTURE LIST*
%ADD10C,0.125000*%
%ADD11C,0.120000*%
%ADD12C,0.150000*%
%ADD13C,0.200000*%
%ADD14C,2.700000*%
%ADD15O,1.800000X1.800000*%
%ADD16R,1.800000X1.800000*%
%ADD17C,5.100000*%
%ADD18R,1.000000X0.900000*%
%ADD19R,0.750000X1.160000*%
%ADD20R,0.675000X1.240000*%
%ADD21R,1.100000X1.300000*%
%ADD22C,2.100000*%
%ADD23C,2.000000*%
G04 APERTURE END LIST*
D10*
X89062495Y-94551295D02*
X89093447Y-94458438D01*
X89093447Y-94303676D01*
X89062495Y-94241771D01*
X89031542Y-94210819D01*
X88969638Y-94179866D01*
X88907733Y-94179866D01*
X88845828Y-94210819D01*
X88814876Y-94241771D01*
X88783923Y-94303676D01*
X88752971Y-94427485D01*
X88722019Y-94489390D01*
X88691066Y-94520342D01*
X88629161Y-94551295D01*
X88567257Y-94551295D01*
X88505352Y-94520342D01*
X88474400Y-94489390D01*
X88443447Y-94427485D01*
X88443447Y-94272723D01*
X88474400Y-94179866D01*
X89093447Y-93901295D02*
X88660114Y-93901295D01*
X88722019Y-93901295D02*
X88691066Y-93870342D01*
X88660114Y-93808438D01*
X88660114Y-93715580D01*
X88691066Y-93653676D01*
X88752971Y-93622723D01*
X89093447Y-93622723D01*
X88752971Y-93622723D02*
X88691066Y-93591771D01*
X88660114Y-93529866D01*
X88660114Y-93437009D01*
X88691066Y-93375104D01*
X88752971Y-93344152D01*
X89093447Y-93344152D01*
X89093447Y-92756057D02*
X88752971Y-92756057D01*
X88691066Y-92787009D01*
X88660114Y-92848914D01*
X88660114Y-92972723D01*
X88691066Y-93034628D01*
X89062495Y-92756057D02*
X89093447Y-92817961D01*
X89093447Y-92972723D01*
X89062495Y-93034628D01*
X89000590Y-93065580D01*
X88938685Y-93065580D01*
X88876780Y-93034628D01*
X88845828Y-92972723D01*
X88845828Y-92817961D01*
X88814876Y-92756057D01*
X89093447Y-92353676D02*
X89062495Y-92415580D01*
X89000590Y-92446533D01*
X88443447Y-92446533D01*
X89093447Y-92013200D02*
X89062495Y-92075104D01*
X89000590Y-92106057D01*
X88443447Y-92106057D01*
X89093447Y-90960819D02*
X89093447Y-91270342D01*
X88443447Y-91270342D01*
X88752971Y-90744152D02*
X88752971Y-90527485D01*
X89093447Y-90434628D02*
X89093447Y-90744152D01*
X88443447Y-90744152D01*
X88443447Y-90434628D01*
X89093447Y-90156057D02*
X88443447Y-90156057D01*
X88443447Y-90001295D01*
X88474400Y-89908438D01*
X88536304Y-89846533D01*
X88598209Y-89815580D01*
X88722019Y-89784628D01*
X88814876Y-89784628D01*
X88938685Y-89815580D01*
X89000590Y-89846533D01*
X89062495Y-89908438D01*
X89093447Y-90001295D01*
X89093447Y-90156057D01*
X89093447Y-88732247D02*
X88443447Y-88732247D01*
X89062495Y-88732247D02*
X89093447Y-88794152D01*
X89093447Y-88917961D01*
X89062495Y-88979866D01*
X89031542Y-89010819D01*
X88969638Y-89041771D01*
X88783923Y-89041771D01*
X88722019Y-89010819D01*
X88691066Y-88979866D01*
X88660114Y-88917961D01*
X88660114Y-88794152D01*
X88691066Y-88732247D01*
X89093447Y-88422723D02*
X88660114Y-88422723D01*
X88783923Y-88422723D02*
X88722019Y-88391771D01*
X88691066Y-88360819D01*
X88660114Y-88298914D01*
X88660114Y-88237009D01*
X89093447Y-88020342D02*
X88660114Y-88020342D01*
X88443447Y-88020342D02*
X88474400Y-88051295D01*
X88505352Y-88020342D01*
X88474400Y-87989390D01*
X88443447Y-88020342D01*
X88505352Y-88020342D01*
X88660114Y-87772723D02*
X89093447Y-87617961D01*
X88660114Y-87463200D01*
X89062495Y-86967961D02*
X89093447Y-87029866D01*
X89093447Y-87153676D01*
X89062495Y-87215580D01*
X89000590Y-87246533D01*
X88752971Y-87246533D01*
X88691066Y-87215580D01*
X88660114Y-87153676D01*
X88660114Y-87029866D01*
X88691066Y-86967961D01*
X88752971Y-86937009D01*
X88814876Y-86937009D01*
X88876780Y-87246533D01*
X89093447Y-86658438D02*
X88660114Y-86658438D01*
X88783923Y-86658438D02*
X88722019Y-86627485D01*
X88691066Y-86596533D01*
X88660114Y-86534628D01*
X88660114Y-86472723D01*
X88660114Y-85822723D02*
X89093447Y-85667961D01*
X88660114Y-85513200D01*
X88505352Y-85296533D02*
X88474400Y-85265580D01*
X88443447Y-85203676D01*
X88443447Y-85048914D01*
X88474400Y-84987009D01*
X88505352Y-84956057D01*
X88567257Y-84925104D01*
X88629161Y-84925104D01*
X88722019Y-84956057D01*
X89093447Y-85327485D01*
X89093447Y-84925104D01*
X89543447Y-92616771D02*
X89543447Y-92554866D01*
X89574400Y-92492961D01*
X89605352Y-92462009D01*
X89667257Y-92431057D01*
X89791066Y-92400104D01*
X89945828Y-92400104D01*
X90069638Y-92431057D01*
X90131542Y-92462009D01*
X90162495Y-92492961D01*
X90193447Y-92554866D01*
X90193447Y-92616771D01*
X90162495Y-92678676D01*
X90131542Y-92709628D01*
X90069638Y-92740580D01*
X89945828Y-92771533D01*
X89791066Y-92771533D01*
X89667257Y-92740580D01*
X89605352Y-92709628D01*
X89574400Y-92678676D01*
X89543447Y-92616771D01*
X89543447Y-92183438D02*
X89543447Y-91750104D01*
X90193447Y-92028676D01*
X89512495Y-91038200D02*
X90348209Y-91595342D01*
X89543447Y-90697723D02*
X89543447Y-90635819D01*
X89574400Y-90573914D01*
X89605352Y-90542961D01*
X89667257Y-90512009D01*
X89791066Y-90481057D01*
X89945828Y-90481057D01*
X90069638Y-90512009D01*
X90131542Y-90542961D01*
X90162495Y-90573914D01*
X90193447Y-90635819D01*
X90193447Y-90697723D01*
X90162495Y-90759628D01*
X90131542Y-90790580D01*
X90069638Y-90821533D01*
X89945828Y-90852485D01*
X89791066Y-90852485D01*
X89667257Y-90821533D01*
X89605352Y-90790580D01*
X89574400Y-90759628D01*
X89543447Y-90697723D01*
X89543447Y-89923914D02*
X89543447Y-90047723D01*
X89574400Y-90109628D01*
X89605352Y-90140580D01*
X89698209Y-90202485D01*
X89822019Y-90233438D01*
X90069638Y-90233438D01*
X90131542Y-90202485D01*
X90162495Y-90171533D01*
X90193447Y-90109628D01*
X90193447Y-89985819D01*
X90162495Y-89923914D01*
X90131542Y-89892961D01*
X90069638Y-89862009D01*
X89914876Y-89862009D01*
X89852971Y-89892961D01*
X89822019Y-89923914D01*
X89791066Y-89985819D01*
X89791066Y-90109628D01*
X89822019Y-90171533D01*
X89852971Y-90202485D01*
X89914876Y-90233438D01*
X89512495Y-89119152D02*
X90348209Y-89676295D01*
X89605352Y-88933438D02*
X89574400Y-88902485D01*
X89543447Y-88840580D01*
X89543447Y-88685819D01*
X89574400Y-88623914D01*
X89605352Y-88592961D01*
X89667257Y-88562009D01*
X89729161Y-88562009D01*
X89822019Y-88592961D01*
X90193447Y-88964390D01*
X90193447Y-88562009D01*
X89543447Y-88159628D02*
X89543447Y-88097723D01*
X89574400Y-88035819D01*
X89605352Y-88004866D01*
X89667257Y-87973914D01*
X89791066Y-87942961D01*
X89945828Y-87942961D01*
X90069638Y-87973914D01*
X90131542Y-88004866D01*
X90162495Y-88035819D01*
X90193447Y-88097723D01*
X90193447Y-88159628D01*
X90162495Y-88221533D01*
X90131542Y-88252485D01*
X90069638Y-88283438D01*
X89945828Y-88314390D01*
X89791066Y-88314390D01*
X89667257Y-88283438D01*
X89605352Y-88252485D01*
X89574400Y-88221533D01*
X89543447Y-88159628D01*
X89605352Y-87695342D02*
X89574400Y-87664390D01*
X89543447Y-87602485D01*
X89543447Y-87447723D01*
X89574400Y-87385819D01*
X89605352Y-87354866D01*
X89667257Y-87323914D01*
X89729161Y-87323914D01*
X89822019Y-87354866D01*
X90193447Y-87726295D01*
X90193447Y-87323914D01*
X89605352Y-87076295D02*
X89574400Y-87045342D01*
X89543447Y-86983438D01*
X89543447Y-86828676D01*
X89574400Y-86766771D01*
X89605352Y-86735819D01*
X89667257Y-86704866D01*
X89729161Y-86704866D01*
X89822019Y-86735819D01*
X90193447Y-87107247D01*
X90193447Y-86704866D01*
X91262495Y-93297723D02*
X91293447Y-93204866D01*
X91293447Y-93050104D01*
X91262495Y-92988200D01*
X91231542Y-92957247D01*
X91169638Y-92926295D01*
X91107733Y-92926295D01*
X91045828Y-92957247D01*
X91014876Y-92988200D01*
X90983923Y-93050104D01*
X90952971Y-93173914D01*
X90922019Y-93235819D01*
X90891066Y-93266771D01*
X90829161Y-93297723D01*
X90767257Y-93297723D01*
X90705352Y-93266771D01*
X90674400Y-93235819D01*
X90643447Y-93173914D01*
X90643447Y-93019152D01*
X90674400Y-92926295D01*
X90860114Y-92647723D02*
X91510114Y-92647723D01*
X90891066Y-92647723D02*
X90860114Y-92585819D01*
X90860114Y-92462009D01*
X90891066Y-92400104D01*
X90922019Y-92369152D01*
X90983923Y-92338200D01*
X91169638Y-92338200D01*
X91231542Y-92369152D01*
X91262495Y-92400104D01*
X91293447Y-92462009D01*
X91293447Y-92585819D01*
X91262495Y-92647723D01*
X91262495Y-91812009D02*
X91293447Y-91873914D01*
X91293447Y-91997723D01*
X91262495Y-92059628D01*
X91200590Y-92090580D01*
X90952971Y-92090580D01*
X90891066Y-92059628D01*
X90860114Y-91997723D01*
X90860114Y-91873914D01*
X90891066Y-91812009D01*
X90952971Y-91781057D01*
X91014876Y-91781057D01*
X91076780Y-92090580D01*
X90860114Y-91502485D02*
X91293447Y-91502485D01*
X90922019Y-91502485D02*
X90891066Y-91471533D01*
X90860114Y-91409628D01*
X90860114Y-91316771D01*
X90891066Y-91254866D01*
X90952971Y-91223914D01*
X91293447Y-91223914D01*
X91262495Y-90635819D02*
X91293447Y-90697723D01*
X91293447Y-90821533D01*
X91262495Y-90883438D01*
X91231542Y-90914390D01*
X91169638Y-90945342D01*
X90983923Y-90945342D01*
X90922019Y-90914390D01*
X90891066Y-90883438D01*
X90860114Y-90821533D01*
X90860114Y-90697723D01*
X90891066Y-90635819D01*
X91262495Y-90109628D02*
X91293447Y-90171533D01*
X91293447Y-90295342D01*
X91262495Y-90357247D01*
X91200590Y-90388200D01*
X90952971Y-90388200D01*
X90891066Y-90357247D01*
X90860114Y-90295342D01*
X90860114Y-90171533D01*
X90891066Y-90109628D01*
X90952971Y-90078676D01*
X91014876Y-90078676D01*
X91076780Y-90388200D01*
X91293447Y-89800104D02*
X90860114Y-89800104D01*
X90983923Y-89800104D02*
X90922019Y-89769152D01*
X90891066Y-89738200D01*
X90860114Y-89676295D01*
X90860114Y-89614390D01*
X90643447Y-88964390D02*
X91293447Y-88809628D01*
X90829161Y-88685819D01*
X91293447Y-88562009D01*
X90643447Y-88407247D01*
X91293447Y-88159628D02*
X90860114Y-88159628D01*
X90983923Y-88159628D02*
X90922019Y-88128676D01*
X90891066Y-88097723D01*
X90860114Y-88035819D01*
X90860114Y-87973914D01*
X91293447Y-87757247D02*
X90860114Y-87757247D01*
X90643447Y-87757247D02*
X90674400Y-87788200D01*
X90705352Y-87757247D01*
X90674400Y-87726295D01*
X90643447Y-87757247D01*
X90705352Y-87757247D01*
X90860114Y-87169152D02*
X91386304Y-87169152D01*
X91448209Y-87200104D01*
X91479161Y-87231057D01*
X91510114Y-87292961D01*
X91510114Y-87385819D01*
X91479161Y-87447723D01*
X91262495Y-87169152D02*
X91293447Y-87231057D01*
X91293447Y-87354866D01*
X91262495Y-87416771D01*
X91231542Y-87447723D01*
X91169638Y-87478676D01*
X90983923Y-87478676D01*
X90922019Y-87447723D01*
X90891066Y-87416771D01*
X90860114Y-87354866D01*
X90860114Y-87231057D01*
X90891066Y-87169152D01*
X91293447Y-86859628D02*
X90643447Y-86859628D01*
X91293447Y-86581057D02*
X90952971Y-86581057D01*
X90891066Y-86612009D01*
X90860114Y-86673914D01*
X90860114Y-86766771D01*
X90891066Y-86828676D01*
X90922019Y-86859628D01*
X90860114Y-86364390D02*
X90860114Y-86116771D01*
X90643447Y-86271533D02*
X91200590Y-86271533D01*
X91262495Y-86240580D01*
X91293447Y-86178676D01*
X91293447Y-86116771D01*
X92331542Y-92725104D02*
X92362495Y-92756057D01*
X92393447Y-92848914D01*
X92393447Y-92910819D01*
X92362495Y-93003676D01*
X92300590Y-93065580D01*
X92238685Y-93096533D01*
X92114876Y-93127485D01*
X92022019Y-93127485D01*
X91898209Y-93096533D01*
X91836304Y-93065580D01*
X91774400Y-93003676D01*
X91743447Y-92910819D01*
X91743447Y-92848914D01*
X91774400Y-92756057D01*
X91805352Y-92725104D01*
X92393447Y-92353676D02*
X92362495Y-92415580D01*
X92300590Y-92446533D01*
X91743447Y-92446533D01*
X92393447Y-91827485D02*
X92052971Y-91827485D01*
X91991066Y-91858438D01*
X91960114Y-91920342D01*
X91960114Y-92044152D01*
X91991066Y-92106057D01*
X92362495Y-91827485D02*
X92393447Y-91889390D01*
X92393447Y-92044152D01*
X92362495Y-92106057D01*
X92300590Y-92137009D01*
X92238685Y-92137009D01*
X92176780Y-92106057D01*
X92145828Y-92044152D01*
X92145828Y-91889390D01*
X92114876Y-91827485D01*
X92393447Y-91517961D02*
X91960114Y-91517961D01*
X91743447Y-91517961D02*
X91774400Y-91548914D01*
X91805352Y-91517961D01*
X91774400Y-91487009D01*
X91743447Y-91517961D01*
X91805352Y-91517961D01*
X92393447Y-91208438D02*
X91960114Y-91208438D01*
X92083923Y-91208438D02*
X92022019Y-91177485D01*
X91991066Y-91146533D01*
X91960114Y-91084628D01*
X91960114Y-91022723D01*
X92362495Y-90558438D02*
X92393447Y-90620342D01*
X92393447Y-90744152D01*
X92362495Y-90806057D01*
X92300590Y-90837009D01*
X92052971Y-90837009D01*
X91991066Y-90806057D01*
X91960114Y-90744152D01*
X91960114Y-90620342D01*
X91991066Y-90558438D01*
X92052971Y-90527485D01*
X92114876Y-90527485D01*
X92176780Y-90837009D01*
X92393447Y-89753676D02*
X91743447Y-89753676D01*
X91743447Y-89598914D01*
X91774400Y-89506057D01*
X91836304Y-89444152D01*
X91898209Y-89413200D01*
X92022019Y-89382247D01*
X92114876Y-89382247D01*
X92238685Y-89413200D01*
X92300590Y-89444152D01*
X92362495Y-89506057D01*
X92393447Y-89598914D01*
X92393447Y-89753676D01*
X92393447Y-89103676D02*
X91960114Y-89103676D01*
X92083923Y-89103676D02*
X92022019Y-89072723D01*
X91991066Y-89041771D01*
X91960114Y-88979866D01*
X91960114Y-88917961D01*
X91960114Y-88422723D02*
X92393447Y-88422723D01*
X91960114Y-88701295D02*
X92300590Y-88701295D01*
X92362495Y-88670342D01*
X92393447Y-88608438D01*
X92393447Y-88515580D01*
X92362495Y-88453676D01*
X92331542Y-88422723D01*
X92362495Y-87834628D02*
X92393447Y-87896533D01*
X92393447Y-88020342D01*
X92362495Y-88082247D01*
X92331542Y-88113200D01*
X92269638Y-88144152D01*
X92083923Y-88144152D01*
X92022019Y-88113200D01*
X91991066Y-88082247D01*
X91960114Y-88020342D01*
X91960114Y-87896533D01*
X91991066Y-87834628D01*
X92393447Y-87556057D02*
X91743447Y-87556057D01*
X92145828Y-87494152D02*
X92393447Y-87308438D01*
X91960114Y-87308438D02*
X92207733Y-87556057D01*
X92362495Y-86782247D02*
X92393447Y-86844152D01*
X92393447Y-86967961D01*
X92362495Y-87029866D01*
X92300590Y-87060819D01*
X92052971Y-87060819D01*
X91991066Y-87029866D01*
X91960114Y-86967961D01*
X91960114Y-86844152D01*
X91991066Y-86782247D01*
X92052971Y-86751295D01*
X92114876Y-86751295D01*
X92176780Y-87060819D01*
X92393447Y-86472723D02*
X91960114Y-86472723D01*
X92083923Y-86472723D02*
X92022019Y-86441771D01*
X91991066Y-86410819D01*
X91960114Y-86348914D01*
X91960114Y-86287009D01*
X119099900Y-89982096D02*
X119099900Y-89482096D01*
X119218947Y-89482096D01*
X119290376Y-89505906D01*
X119337995Y-89553525D01*
X119361804Y-89601144D01*
X119385614Y-89696382D01*
X119385614Y-89767810D01*
X119361804Y-89863048D01*
X119337995Y-89910667D01*
X119290376Y-89958286D01*
X119218947Y-89982096D01*
X119099900Y-89982096D01*
X119576090Y-89839239D02*
X119814185Y-89839239D01*
X119528471Y-89982096D02*
X119695138Y-89482096D01*
X119861804Y-89982096D01*
X119957042Y-89482096D02*
X120242757Y-89482096D01*
X120099900Y-89982096D02*
X120099900Y-89482096D01*
X120385614Y-89839239D02*
X120623709Y-89839239D01*
X120337995Y-89982096D02*
X120504661Y-89482096D01*
X120671328Y-89982096D01*
X102591110Y-87625050D02*
X102424443Y-87386955D01*
X102305396Y-87625050D02*
X102305396Y-87125050D01*
X102495872Y-87125050D01*
X102543491Y-87148860D01*
X102567300Y-87172669D01*
X102591110Y-87220288D01*
X102591110Y-87291717D01*
X102567300Y-87339336D01*
X102543491Y-87363145D01*
X102495872Y-87386955D01*
X102305396Y-87386955D01*
X102781586Y-87601240D02*
X102853015Y-87625050D01*
X102972062Y-87625050D01*
X103019681Y-87601240D01*
X103043491Y-87577431D01*
X103067300Y-87529812D01*
X103067300Y-87482193D01*
X103043491Y-87434574D01*
X103019681Y-87410764D01*
X102972062Y-87386955D01*
X102876824Y-87363145D01*
X102829205Y-87339336D01*
X102805396Y-87315526D01*
X102781586Y-87267907D01*
X102781586Y-87220288D01*
X102805396Y-87172669D01*
X102829205Y-87148860D01*
X102876824Y-87125050D01*
X102995872Y-87125050D01*
X103067300Y-87148860D01*
X103210158Y-87125050D02*
X103495872Y-87125050D01*
X103353015Y-87625050D02*
X103353015Y-87125050D01*
X123233047Y-89568000D02*
X123185428Y-89544190D01*
X123114000Y-89544190D01*
X123042571Y-89568000D01*
X122994952Y-89615619D01*
X122971142Y-89663238D01*
X122947333Y-89758476D01*
X122947333Y-89829904D01*
X122971142Y-89925142D01*
X122994952Y-89972761D01*
X123042571Y-90020380D01*
X123114000Y-90044190D01*
X123161619Y-90044190D01*
X123233047Y-90020380D01*
X123256857Y-89996571D01*
X123256857Y-89829904D01*
X123161619Y-89829904D01*
X123471142Y-90044190D02*
X123471142Y-89544190D01*
X123756857Y-90044190D01*
X123756857Y-89544190D01*
X123994952Y-90044190D02*
X123994952Y-89544190D01*
X124114000Y-89544190D01*
X124185428Y-89568000D01*
X124233047Y-89615619D01*
X124256857Y-89663238D01*
X124280666Y-89758476D01*
X124280666Y-89829904D01*
X124256857Y-89925142D01*
X124233047Y-89972761D01*
X124185428Y-90020380D01*
X124114000Y-90044190D01*
X123994952Y-90044190D01*
X115887761Y-89505190D02*
X115649666Y-89505190D01*
X115625857Y-89743285D01*
X115649666Y-89719476D01*
X115697285Y-89695666D01*
X115816333Y-89695666D01*
X115863952Y-89719476D01*
X115887761Y-89743285D01*
X115911571Y-89790904D01*
X115911571Y-89909952D01*
X115887761Y-89957571D01*
X115863952Y-89981380D01*
X115816333Y-90005190D01*
X115697285Y-90005190D01*
X115649666Y-89981380D01*
X115625857Y-89957571D01*
X116054428Y-89505190D02*
X116221095Y-90005190D01*
X116387761Y-89505190D01*
X119627661Y-78504290D02*
X119389566Y-78504290D01*
X119365757Y-78742385D01*
X119389566Y-78718576D01*
X119437185Y-78694766D01*
X119556233Y-78694766D01*
X119603852Y-78718576D01*
X119627661Y-78742385D01*
X119651471Y-78790004D01*
X119651471Y-78909052D01*
X119627661Y-78956671D01*
X119603852Y-78980480D01*
X119556233Y-79004290D01*
X119437185Y-79004290D01*
X119389566Y-78980480D01*
X119365757Y-78956671D01*
X119794328Y-78504290D02*
X119960995Y-79004290D01*
X120127661Y-78504290D01*
X89344547Y-101007100D02*
X89296928Y-100983290D01*
X89225500Y-100983290D01*
X89154071Y-101007100D01*
X89106452Y-101054719D01*
X89082642Y-101102338D01*
X89058833Y-101197576D01*
X89058833Y-101269004D01*
X89082642Y-101364242D01*
X89106452Y-101411861D01*
X89154071Y-101459480D01*
X89225500Y-101483290D01*
X89273119Y-101483290D01*
X89344547Y-101459480D01*
X89368357Y-101435671D01*
X89368357Y-101269004D01*
X89273119Y-101269004D01*
X89582642Y-101483290D02*
X89582642Y-100983290D01*
X89868357Y-101483290D01*
X89868357Y-100983290D01*
X90106452Y-101483290D02*
X90106452Y-100983290D01*
X90225500Y-100983290D01*
X90296928Y-101007100D01*
X90344547Y-101054719D01*
X90368357Y-101102338D01*
X90392166Y-101197576D01*
X90392166Y-101269004D01*
X90368357Y-101364242D01*
X90344547Y-101411861D01*
X90296928Y-101459480D01*
X90225500Y-101483290D01*
X90106452Y-101483290D01*
X89254104Y-105885490D02*
X89563628Y-105885490D01*
X89396961Y-106075966D01*
X89468390Y-106075966D01*
X89516009Y-106099776D01*
X89539819Y-106123585D01*
X89563628Y-106171204D01*
X89563628Y-106290252D01*
X89539819Y-106337871D01*
X89516009Y-106361680D01*
X89468390Y-106385490D01*
X89325533Y-106385490D01*
X89277914Y-106361680D01*
X89254104Y-106337871D01*
X89777914Y-106337871D02*
X89801723Y-106361680D01*
X89777914Y-106385490D01*
X89754104Y-106361680D01*
X89777914Y-106337871D01*
X89777914Y-106385490D01*
X89968390Y-105885490D02*
X90277914Y-105885490D01*
X90111247Y-106075966D01*
X90182676Y-106075966D01*
X90230295Y-106099776D01*
X90254104Y-106123585D01*
X90277914Y-106171204D01*
X90277914Y-106290252D01*
X90254104Y-106337871D01*
X90230295Y-106361680D01*
X90182676Y-106385490D01*
X90039819Y-106385490D01*
X89992200Y-106361680D01*
X89968390Y-106337871D01*
X90420771Y-105885490D02*
X90587438Y-106385490D01*
X90754104Y-105885490D01*
D11*
%TO.C,J13*%
X121407681Y-99585200D02*
G75*
G03*
X121407681Y-99585200I-1600781J0D01*
G01*
%TO.C,J17*%
X121407681Y-107205200D02*
G75*
G03*
X121407681Y-107205200I-1600781J0D01*
G01*
%TO.C,J19*%
X121407681Y-103395200D02*
G75*
G03*
X121407681Y-103395200I-1600781J0D01*
G01*
%TO.C,J22*%
X121407681Y-95775200D02*
G75*
G03*
X121407681Y-95775200I-1600781J0D01*
G01*
%TO.C,J23*%
X121407681Y-91965200D02*
G75*
G03*
X121407681Y-91965200I-1600781J0D01*
G01*
%TO.C,C1*%
X95020000Y-100553733D02*
X95020000Y-100896267D01*
X96040000Y-100553733D02*
X96040000Y-100896267D01*
%TO.C,C2*%
X93630000Y-93921267D02*
X93630000Y-93578733D01*
X94650000Y-93921267D02*
X94650000Y-93578733D01*
%TO.C,C3*%
X97180000Y-89706267D02*
X97180000Y-89363733D01*
X98200000Y-89706267D02*
X98200000Y-89363733D01*
%TO.C,C4*%
X99790000Y-89716267D02*
X99790000Y-89373733D01*
X98770000Y-89716267D02*
X98770000Y-89373733D01*
%TO.C,C5*%
X109960000Y-109218733D02*
X109960000Y-109561267D01*
X108940000Y-109218733D02*
X108940000Y-109561267D01*
%TO.C,C6*%
X95446120Y-90300627D02*
X95446120Y-89958093D01*
X96466120Y-90300627D02*
X96466120Y-89958093D01*
%TO.C,C7*%
X110551113Y-114533140D02*
X110893647Y-114533140D01*
X110551113Y-113513140D02*
X110893647Y-113513140D01*
%TO.C,C8*%
X100370000Y-89726267D02*
X100370000Y-89383733D01*
X101390000Y-89726267D02*
X101390000Y-89383733D01*
%TO.C,C9*%
X102953733Y-106910000D02*
X103296267Y-106910000D01*
X102953733Y-105890000D02*
X103296267Y-105890000D01*
%TO.C,C10*%
X109633733Y-105810000D02*
X109976267Y-105810000D01*
X109633733Y-106830000D02*
X109976267Y-106830000D01*
%TO.C,C11*%
X99500000Y-107013733D02*
X99500000Y-107356267D01*
X100520000Y-107013733D02*
X100520000Y-107356267D01*
%TO.C,C12*%
X102000000Y-89731267D02*
X102000000Y-89388733D01*
X103020000Y-89731267D02*
X103020000Y-89388733D01*
%TO.C,C13*%
X116698733Y-80910000D02*
X117041267Y-80910000D01*
X116698733Y-79890000D02*
X117041267Y-79890000D01*
%TO.C,C14*%
X117840000Y-86973733D02*
X117840000Y-87316267D01*
X118860000Y-86973733D02*
X118860000Y-87316267D01*
%TO.C,C15*%
X113503000Y-91377733D02*
X113503000Y-91720267D01*
X112483000Y-91377733D02*
X112483000Y-91720267D01*
%TO.C,C16*%
X110895000Y-91358733D02*
X110895000Y-91701267D01*
X111915000Y-91358733D02*
X111915000Y-91701267D01*
%TO.C,C17*%
X114850000Y-85858733D02*
X114850000Y-86201267D01*
X113830000Y-85858733D02*
X113830000Y-86201267D01*
%TO.C,J3*%
X98639280Y-114237704D02*
X97309280Y-114237704D01*
X98639280Y-112907704D02*
X98639280Y-114237704D01*
X98639280Y-111637704D02*
X95979280Y-111637704D01*
X95979280Y-111637704D02*
X95979280Y-103957704D01*
X98639280Y-111637704D02*
X98639280Y-103957704D01*
X98639280Y-103957704D02*
X95979280Y-103957704D01*
%TO.C,Q1*%
X100803740Y-78575660D02*
X102263740Y-78575660D01*
X100803740Y-81735660D02*
X102963740Y-81735660D01*
X100803740Y-81735660D02*
X100803740Y-80805660D01*
X100803740Y-78575660D02*
X100803740Y-79505660D01*
%TO.C,Q2*%
X100848340Y-84244160D02*
X100848340Y-85174160D01*
X100848340Y-87404160D02*
X100848340Y-86474160D01*
X100848340Y-87404160D02*
X103008340Y-87404160D01*
X100848340Y-84244160D02*
X102308340Y-84244160D01*
%TO.C,R1*%
X107078733Y-91170000D02*
X107421267Y-91170000D01*
X107078733Y-90150000D02*
X107421267Y-90150000D01*
%TO.C,R2*%
X110240000Y-91403733D02*
X110240000Y-91746267D01*
X109220000Y-91403733D02*
X109220000Y-91746267D01*
%TO.C,R3*%
X96265460Y-93362993D02*
X96265460Y-93705527D01*
X95245460Y-93362993D02*
X95245460Y-93705527D01*
%TO.C,R4*%
X112793000Y-96006267D02*
X112793000Y-95663733D01*
X111773000Y-96006267D02*
X111773000Y-95663733D01*
%TO.C,R5*%
X105201633Y-89472640D02*
X105544167Y-89472640D01*
X105201633Y-88452640D02*
X105544167Y-88452640D01*
%TO.C,R6*%
X91018900Y-96056633D02*
X91018900Y-96399167D01*
X92038900Y-96056633D02*
X92038900Y-96399167D01*
%TO.C,R7*%
X92877100Y-101226833D02*
X92877100Y-101569367D01*
X91857100Y-101226833D02*
X91857100Y-101569367D01*
%TO.C,R10*%
X115436267Y-88050000D02*
X115093733Y-88050000D01*
X115436267Y-89070000D02*
X115093733Y-89070000D01*
%TO.C,R11*%
X93406500Y-101238233D02*
X93406500Y-101580767D01*
X94426500Y-101238233D02*
X94426500Y-101580767D01*
%TO.C,R12*%
X93682667Y-104370600D02*
X93340133Y-104370600D01*
X93682667Y-103350600D02*
X93340133Y-103350600D01*
%TO.C,R13*%
X105216633Y-85142640D02*
X105559167Y-85142640D01*
X105216633Y-86162640D02*
X105559167Y-86162640D01*
%TO.C,R14*%
X93376933Y-106583500D02*
X93719467Y-106583500D01*
X93376933Y-107603500D02*
X93719467Y-107603500D01*
%TO.C,R15*%
X93695367Y-104950800D02*
X93352833Y-104950800D01*
X93695367Y-105970800D02*
X93352833Y-105970800D01*
%TO.C,R16*%
X93411933Y-109313500D02*
X93754467Y-109313500D01*
X93411933Y-108293500D02*
X93754467Y-108293500D01*
%TO.C,R17*%
X93739467Y-111003500D02*
X93396933Y-111003500D01*
X93739467Y-109983500D02*
X93396933Y-109983500D01*
%TO.C,R18*%
X95544100Y-86720467D02*
X95544100Y-86377933D01*
X94524100Y-86720467D02*
X94524100Y-86377933D01*
%TO.C,R19*%
X101454133Y-82281300D02*
X101796667Y-82281300D01*
X101454133Y-83301300D02*
X101796667Y-83301300D01*
%TO.C,R20*%
X97768340Y-86145427D02*
X97768340Y-85802893D01*
X96748340Y-86145427D02*
X96748340Y-85802893D01*
%TO.C,R21*%
X99408340Y-85792893D02*
X99408340Y-86135427D01*
X98388340Y-85792893D02*
X98388340Y-86135427D01*
%TO.C,SW1*%
X103970780Y-84019700D02*
X106630780Y-84019700D01*
X103970780Y-81419700D02*
X103970780Y-84019700D01*
X106630780Y-81419700D02*
X106630780Y-84019700D01*
X103970780Y-81419700D02*
X106630780Y-81419700D01*
X103970780Y-80149700D02*
X103970780Y-78819700D01*
X103970780Y-78819700D02*
X105300780Y-78819700D01*
%TO.C,U1*%
X101537352Y-111334631D02*
X101537352Y-113534631D01*
X101537352Y-111334631D02*
X101537352Y-109134631D01*
X108307352Y-111334631D02*
X108307352Y-113534631D01*
X108307352Y-111334631D02*
X108307352Y-107734631D01*
%TO.C,U2*%
X108790000Y-103815000D02*
X109740000Y-103815000D01*
X109740000Y-103815000D02*
X109740000Y-102865000D01*
X100470000Y-103815000D02*
X99520000Y-103815000D01*
X99520000Y-103815000D02*
X99520000Y-102865000D01*
X108790000Y-93595000D02*
X109740000Y-93595000D01*
X109740000Y-93595000D02*
X109740000Y-94545000D01*
X100470000Y-93595000D02*
X99520000Y-93595000D01*
X99520000Y-93595000D02*
X99520000Y-94545000D01*
X99520000Y-94545000D02*
X98180000Y-94545000D01*
%TO.C,U3*%
X118660000Y-84220000D02*
X118660000Y-82420000D01*
X115440000Y-82420000D02*
X115440000Y-84870000D01*
%TO.C,J18*%
X107674100Y-89099700D02*
X112874100Y-89099700D01*
X107674100Y-81419700D02*
X107674100Y-89099700D01*
X112874100Y-78819700D02*
X112874100Y-89099700D01*
X107674100Y-81419700D02*
X110274100Y-81419700D01*
X110274100Y-81419700D02*
X110274100Y-78819700D01*
X110274100Y-78819700D02*
X112874100Y-78819700D01*
X107674100Y-80149700D02*
X107674100Y-78819700D01*
X107674100Y-78819700D02*
X109004100Y-78819700D01*
%TO.C,R8*%
X113770000Y-81138733D02*
X113770000Y-81481267D01*
X114790000Y-81138733D02*
X114790000Y-81481267D01*
%TO.C,R9*%
X105226633Y-86772640D02*
X105569167Y-86772640D01*
X105226633Y-87792640D02*
X105569167Y-87792640D01*
D12*
%TO.C,U6*%
X97307000Y-92170000D02*
G75*
G03*
X97307000Y-92170000I-50000J0D01*
G01*
D13*
%TO.C,U4*%
X95630000Y-99290000D02*
G75*
G03*
X95630000Y-99290000I-100000J0D01*
G01*
D11*
%TO.C,J14*%
X99170800Y-78578400D02*
X96510800Y-78578400D01*
X99170800Y-81178400D02*
X99170800Y-78578400D01*
X96510800Y-81178400D02*
X96510800Y-78578400D01*
X99170800Y-81178400D02*
X96510800Y-81178400D01*
X99170800Y-82448400D02*
X99170800Y-83778400D01*
X99170800Y-83778400D02*
X97840800Y-83778400D01*
%TO.C,J16*%
X95487800Y-83778400D02*
X94157800Y-83778400D01*
X95487800Y-82448400D02*
X95487800Y-83778400D01*
X95487800Y-81178400D02*
X92827800Y-81178400D01*
X92827800Y-81178400D02*
X92827800Y-78578400D01*
X95487800Y-81178400D02*
X95487800Y-78578400D01*
X95487800Y-78578400D02*
X92827800Y-78578400D01*
%TO.C,J1*%
X91465981Y-108343700D02*
G75*
G03*
X91465981Y-108343700I-1600781J0D01*
G01*
%TO.C,J2*%
X91275481Y-103479600D02*
G75*
G03*
X91275481Y-103479600I-1600781J0D01*
G01*
%TO.C,J4*%
X125217681Y-91965200D02*
G75*
G03*
X125217681Y-91965200I-1600781J0D01*
G01*
%TO.C,J5*%
X117597681Y-95775200D02*
G75*
G03*
X117597681Y-95775200I-1600781J0D01*
G01*
%TO.C,J6*%
X117597681Y-107205200D02*
G75*
G03*
X117597681Y-107205200I-1600781J0D01*
G01*
%TO.C,J7*%
X117597681Y-99585200D02*
G75*
G03*
X117597681Y-99585200I-1600781J0D01*
G01*
%TO.C,J8*%
X117597681Y-91965200D02*
G75*
G03*
X117597681Y-91965200I-1600781J0D01*
G01*
%TO.C,J9*%
X125217681Y-103395200D02*
G75*
G03*
X125217681Y-103395200I-1600781J0D01*
G01*
%TO.C,J10*%
X125217681Y-95775200D02*
G75*
G03*
X125217681Y-95775200I-1600781J0D01*
G01*
%TO.C,J11*%
X125217681Y-107205200D02*
G75*
G03*
X125217681Y-107205200I-1600781J0D01*
G01*
%TO.C,J12*%
X125217681Y-99585200D02*
G75*
G03*
X125217681Y-99585200I-1600781J0D01*
G01*
%TO.C,J15*%
X117597681Y-103395200D02*
G75*
G03*
X117597681Y-103395200I-1600781J0D01*
G01*
%TO.C,R22*%
X115875887Y-112936560D02*
X115533353Y-112936560D01*
X115875887Y-113956560D02*
X115533353Y-113956560D01*
%TO.C,R23*%
X115958407Y-112262380D02*
X115615873Y-112262380D01*
X115958407Y-111242380D02*
X115615873Y-111242380D01*
%TO.C,R24*%
X111051880Y-108736313D02*
X111051880Y-109078847D01*
X112071880Y-108736313D02*
X112071880Y-109078847D01*
%TO.C,R25*%
X115887287Y-109621860D02*
X115544753Y-109621860D01*
X115887287Y-110641860D02*
X115544753Y-110641860D01*
%TO.C,R26*%
X113656840Y-109655793D02*
X113656840Y-109998327D01*
X112636840Y-109655793D02*
X112636840Y-109998327D01*
%TD*%
%LPC*%
D14*
%TO.C,J13*%
X119806900Y-99585200D03*
%TD*%
%TO.C,J17*%
X119806900Y-107205200D03*
%TD*%
%TO.C,J19*%
X119806900Y-103395200D03*
%TD*%
%TO.C,J22*%
X119806900Y-95775200D03*
%TD*%
%TO.C,J23*%
X119806900Y-91965200D03*
%TD*%
%TO.C,C1*%
G36*
G01*
X95267500Y-101025000D02*
X95792500Y-101025000D01*
G75*
G02*
X96055000Y-101287500I0J-262500D01*
G01*
X96055000Y-101912500D01*
G75*
G02*
X95792500Y-102175000I-262500J0D01*
G01*
X95267500Y-102175000D01*
G75*
G02*
X95005000Y-101912500I0J262500D01*
G01*
X95005000Y-101287500D01*
G75*
G02*
X95267500Y-101025000I262500J0D01*
G01*
G37*
G36*
G01*
X95267500Y-99275000D02*
X95792500Y-99275000D01*
G75*
G02*
X96055000Y-99537500I0J-262500D01*
G01*
X96055000Y-100162500D01*
G75*
G02*
X95792500Y-100425000I-262500J0D01*
G01*
X95267500Y-100425000D01*
G75*
G02*
X95005000Y-100162500I0J262500D01*
G01*
X95005000Y-99537500D01*
G75*
G02*
X95267500Y-99275000I262500J0D01*
G01*
G37*
%TD*%
%TO.C,C2*%
G36*
G01*
X94402500Y-95200000D02*
X93877500Y-95200000D01*
G75*
G02*
X93615000Y-94937500I0J262500D01*
G01*
X93615000Y-94312500D01*
G75*
G02*
X93877500Y-94050000I262500J0D01*
G01*
X94402500Y-94050000D01*
G75*
G02*
X94665000Y-94312500I0J-262500D01*
G01*
X94665000Y-94937500D01*
G75*
G02*
X94402500Y-95200000I-262500J0D01*
G01*
G37*
G36*
G01*
X94402500Y-93450000D02*
X93877500Y-93450000D01*
G75*
G02*
X93615000Y-93187500I0J262500D01*
G01*
X93615000Y-92562500D01*
G75*
G02*
X93877500Y-92300000I262500J0D01*
G01*
X94402500Y-92300000D01*
G75*
G02*
X94665000Y-92562500I0J-262500D01*
G01*
X94665000Y-93187500D01*
G75*
G02*
X94402500Y-93450000I-262500J0D01*
G01*
G37*
%TD*%
%TO.C,C3*%
G36*
G01*
X97952500Y-90985000D02*
X97427500Y-90985000D01*
G75*
G02*
X97165000Y-90722500I0J262500D01*
G01*
X97165000Y-90097500D01*
G75*
G02*
X97427500Y-89835000I262500J0D01*
G01*
X97952500Y-89835000D01*
G75*
G02*
X98215000Y-90097500I0J-262500D01*
G01*
X98215000Y-90722500D01*
G75*
G02*
X97952500Y-90985000I-262500J0D01*
G01*
G37*
G36*
G01*
X97952500Y-89235000D02*
X97427500Y-89235000D01*
G75*
G02*
X97165000Y-88972500I0J262500D01*
G01*
X97165000Y-88347500D01*
G75*
G02*
X97427500Y-88085000I262500J0D01*
G01*
X97952500Y-88085000D01*
G75*
G02*
X98215000Y-88347500I0J-262500D01*
G01*
X98215000Y-88972500D01*
G75*
G02*
X97952500Y-89235000I-262500J0D01*
G01*
G37*
%TD*%
%TO.C,C4*%
G36*
G01*
X99542500Y-89245000D02*
X99017500Y-89245000D01*
G75*
G02*
X98755000Y-88982500I0J262500D01*
G01*
X98755000Y-88357500D01*
G75*
G02*
X99017500Y-88095000I262500J0D01*
G01*
X99542500Y-88095000D01*
G75*
G02*
X99805000Y-88357500I0J-262500D01*
G01*
X99805000Y-88982500D01*
G75*
G02*
X99542500Y-89245000I-262500J0D01*
G01*
G37*
G36*
G01*
X99542500Y-90995000D02*
X99017500Y-90995000D01*
G75*
G02*
X98755000Y-90732500I0J262500D01*
G01*
X98755000Y-90107500D01*
G75*
G02*
X99017500Y-89845000I262500J0D01*
G01*
X99542500Y-89845000D01*
G75*
G02*
X99805000Y-90107500I0J-262500D01*
G01*
X99805000Y-90732500D01*
G75*
G02*
X99542500Y-90995000I-262500J0D01*
G01*
G37*
%TD*%
%TO.C,C5*%
G36*
G01*
X109187500Y-107940000D02*
X109712500Y-107940000D01*
G75*
G02*
X109975000Y-108202500I0J-262500D01*
G01*
X109975000Y-108827500D01*
G75*
G02*
X109712500Y-109090000I-262500J0D01*
G01*
X109187500Y-109090000D01*
G75*
G02*
X108925000Y-108827500I0J262500D01*
G01*
X108925000Y-108202500D01*
G75*
G02*
X109187500Y-107940000I262500J0D01*
G01*
G37*
G36*
G01*
X109187500Y-109690000D02*
X109712500Y-109690000D01*
G75*
G02*
X109975000Y-109952500I0J-262500D01*
G01*
X109975000Y-110577500D01*
G75*
G02*
X109712500Y-110840000I-262500J0D01*
G01*
X109187500Y-110840000D01*
G75*
G02*
X108925000Y-110577500I0J262500D01*
G01*
X108925000Y-109952500D01*
G75*
G02*
X109187500Y-109690000I262500J0D01*
G01*
G37*
%TD*%
%TO.C,C6*%
G36*
G01*
X96218620Y-91579360D02*
X95693620Y-91579360D01*
G75*
G02*
X95431120Y-91316860I0J262500D01*
G01*
X95431120Y-90691860D01*
G75*
G02*
X95693620Y-90429360I262500J0D01*
G01*
X96218620Y-90429360D01*
G75*
G02*
X96481120Y-90691860I0J-262500D01*
G01*
X96481120Y-91316860D01*
G75*
G02*
X96218620Y-91579360I-262500J0D01*
G01*
G37*
G36*
G01*
X96218620Y-89829360D02*
X95693620Y-89829360D01*
G75*
G02*
X95431120Y-89566860I0J262500D01*
G01*
X95431120Y-88941860D01*
G75*
G02*
X95693620Y-88679360I262500J0D01*
G01*
X96218620Y-88679360D01*
G75*
G02*
X96481120Y-88941860I0J-262500D01*
G01*
X96481120Y-89566860D01*
G75*
G02*
X96218620Y-89829360I-262500J0D01*
G01*
G37*
%TD*%
%TO.C,C7*%
G36*
G01*
X111022380Y-114285640D02*
X111022380Y-113760640D01*
G75*
G02*
X111284880Y-113498140I262500J0D01*
G01*
X111909880Y-113498140D01*
G75*
G02*
X112172380Y-113760640I0J-262500D01*
G01*
X112172380Y-114285640D01*
G75*
G02*
X111909880Y-114548140I-262500J0D01*
G01*
X111284880Y-114548140D01*
G75*
G02*
X111022380Y-114285640I0J262500D01*
G01*
G37*
G36*
G01*
X109272380Y-114285640D02*
X109272380Y-113760640D01*
G75*
G02*
X109534880Y-113498140I262500J0D01*
G01*
X110159880Y-113498140D01*
G75*
G02*
X110422380Y-113760640I0J-262500D01*
G01*
X110422380Y-114285640D01*
G75*
G02*
X110159880Y-114548140I-262500J0D01*
G01*
X109534880Y-114548140D01*
G75*
G02*
X109272380Y-114285640I0J262500D01*
G01*
G37*
%TD*%
%TO.C,C8*%
G36*
G01*
X101142500Y-91005000D02*
X100617500Y-91005000D01*
G75*
G02*
X100355000Y-90742500I0J262500D01*
G01*
X100355000Y-90117500D01*
G75*
G02*
X100617500Y-89855000I262500J0D01*
G01*
X101142500Y-89855000D01*
G75*
G02*
X101405000Y-90117500I0J-262500D01*
G01*
X101405000Y-90742500D01*
G75*
G02*
X101142500Y-91005000I-262500J0D01*
G01*
G37*
G36*
G01*
X101142500Y-89255000D02*
X100617500Y-89255000D01*
G75*
G02*
X100355000Y-88992500I0J262500D01*
G01*
X100355000Y-88367500D01*
G75*
G02*
X100617500Y-88105000I262500J0D01*
G01*
X101142500Y-88105000D01*
G75*
G02*
X101405000Y-88367500I0J-262500D01*
G01*
X101405000Y-88992500D01*
G75*
G02*
X101142500Y-89255000I-262500J0D01*
G01*
G37*
%TD*%
%TO.C,C9*%
G36*
G01*
X103425000Y-106662500D02*
X103425000Y-106137500D01*
G75*
G02*
X103687500Y-105875000I262500J0D01*
G01*
X104312500Y-105875000D01*
G75*
G02*
X104575000Y-106137500I0J-262500D01*
G01*
X104575000Y-106662500D01*
G75*
G02*
X104312500Y-106925000I-262500J0D01*
G01*
X103687500Y-106925000D01*
G75*
G02*
X103425000Y-106662500I0J262500D01*
G01*
G37*
G36*
G01*
X101675000Y-106662500D02*
X101675000Y-106137500D01*
G75*
G02*
X101937500Y-105875000I262500J0D01*
G01*
X102562500Y-105875000D01*
G75*
G02*
X102825000Y-106137500I0J-262500D01*
G01*
X102825000Y-106662500D01*
G75*
G02*
X102562500Y-106925000I-262500J0D01*
G01*
X101937500Y-106925000D01*
G75*
G02*
X101675000Y-106662500I0J262500D01*
G01*
G37*
%TD*%
%TO.C,C10*%
G36*
G01*
X108355000Y-106582500D02*
X108355000Y-106057500D01*
G75*
G02*
X108617500Y-105795000I262500J0D01*
G01*
X109242500Y-105795000D01*
G75*
G02*
X109505000Y-106057500I0J-262500D01*
G01*
X109505000Y-106582500D01*
G75*
G02*
X109242500Y-106845000I-262500J0D01*
G01*
X108617500Y-106845000D01*
G75*
G02*
X108355000Y-106582500I0J262500D01*
G01*
G37*
G36*
G01*
X110105000Y-106582500D02*
X110105000Y-106057500D01*
G75*
G02*
X110367500Y-105795000I262500J0D01*
G01*
X110992500Y-105795000D01*
G75*
G02*
X111255000Y-106057500I0J-262500D01*
G01*
X111255000Y-106582500D01*
G75*
G02*
X110992500Y-106845000I-262500J0D01*
G01*
X110367500Y-106845000D01*
G75*
G02*
X110105000Y-106582500I0J262500D01*
G01*
G37*
%TD*%
%TO.C,C11*%
G36*
G01*
X99747500Y-107485000D02*
X100272500Y-107485000D01*
G75*
G02*
X100535000Y-107747500I0J-262500D01*
G01*
X100535000Y-108372500D01*
G75*
G02*
X100272500Y-108635000I-262500J0D01*
G01*
X99747500Y-108635000D01*
G75*
G02*
X99485000Y-108372500I0J262500D01*
G01*
X99485000Y-107747500D01*
G75*
G02*
X99747500Y-107485000I262500J0D01*
G01*
G37*
G36*
G01*
X99747500Y-105735000D02*
X100272500Y-105735000D01*
G75*
G02*
X100535000Y-105997500I0J-262500D01*
G01*
X100535000Y-106622500D01*
G75*
G02*
X100272500Y-106885000I-262500J0D01*
G01*
X99747500Y-106885000D01*
G75*
G02*
X99485000Y-106622500I0J262500D01*
G01*
X99485000Y-105997500D01*
G75*
G02*
X99747500Y-105735000I262500J0D01*
G01*
G37*
%TD*%
%TO.C,C12*%
G36*
G01*
X102772500Y-91010000D02*
X102247500Y-91010000D01*
G75*
G02*
X101985000Y-90747500I0J262500D01*
G01*
X101985000Y-90122500D01*
G75*
G02*
X102247500Y-89860000I262500J0D01*
G01*
X102772500Y-89860000D01*
G75*
G02*
X103035000Y-90122500I0J-262500D01*
G01*
X103035000Y-90747500D01*
G75*
G02*
X102772500Y-91010000I-262500J0D01*
G01*
G37*
G36*
G01*
X102772500Y-89260000D02*
X102247500Y-89260000D01*
G75*
G02*
X101985000Y-88997500I0J262500D01*
G01*
X101985000Y-88372500D01*
G75*
G02*
X102247500Y-88110000I262500J0D01*
G01*
X102772500Y-88110000D01*
G75*
G02*
X103035000Y-88372500I0J-262500D01*
G01*
X103035000Y-88997500D01*
G75*
G02*
X102772500Y-89260000I-262500J0D01*
G01*
G37*
%TD*%
%TO.C,C13*%
G36*
G01*
X117170000Y-80662500D02*
X117170000Y-80137500D01*
G75*
G02*
X117432500Y-79875000I262500J0D01*
G01*
X118057500Y-79875000D01*
G75*
G02*
X118320000Y-80137500I0J-262500D01*
G01*
X118320000Y-80662500D01*
G75*
G02*
X118057500Y-80925000I-262500J0D01*
G01*
X117432500Y-80925000D01*
G75*
G02*
X117170000Y-80662500I0J262500D01*
G01*
G37*
G36*
G01*
X115420000Y-80662500D02*
X115420000Y-80137500D01*
G75*
G02*
X115682500Y-79875000I262500J0D01*
G01*
X116307500Y-79875000D01*
G75*
G02*
X116570000Y-80137500I0J-262500D01*
G01*
X116570000Y-80662500D01*
G75*
G02*
X116307500Y-80925000I-262500J0D01*
G01*
X115682500Y-80925000D01*
G75*
G02*
X115420000Y-80662500I0J262500D01*
G01*
G37*
%TD*%
%TO.C,C14*%
G36*
G01*
X118087500Y-87445000D02*
X118612500Y-87445000D01*
G75*
G02*
X118875000Y-87707500I0J-262500D01*
G01*
X118875000Y-88332500D01*
G75*
G02*
X118612500Y-88595000I-262500J0D01*
G01*
X118087500Y-88595000D01*
G75*
G02*
X117825000Y-88332500I0J262500D01*
G01*
X117825000Y-87707500D01*
G75*
G02*
X118087500Y-87445000I262500J0D01*
G01*
G37*
G36*
G01*
X118087500Y-85695000D02*
X118612500Y-85695000D01*
G75*
G02*
X118875000Y-85957500I0J-262500D01*
G01*
X118875000Y-86582500D01*
G75*
G02*
X118612500Y-86845000I-262500J0D01*
G01*
X118087500Y-86845000D01*
G75*
G02*
X117825000Y-86582500I0J262500D01*
G01*
X117825000Y-85957500D01*
G75*
G02*
X118087500Y-85695000I262500J0D01*
G01*
G37*
%TD*%
%TO.C,C15*%
G36*
G01*
X112730500Y-90099000D02*
X113255500Y-90099000D01*
G75*
G02*
X113518000Y-90361500I0J-262500D01*
G01*
X113518000Y-90986500D01*
G75*
G02*
X113255500Y-91249000I-262500J0D01*
G01*
X112730500Y-91249000D01*
G75*
G02*
X112468000Y-90986500I0J262500D01*
G01*
X112468000Y-90361500D01*
G75*
G02*
X112730500Y-90099000I262500J0D01*
G01*
G37*
G36*
G01*
X112730500Y-91849000D02*
X113255500Y-91849000D01*
G75*
G02*
X113518000Y-92111500I0J-262500D01*
G01*
X113518000Y-92736500D01*
G75*
G02*
X113255500Y-92999000I-262500J0D01*
G01*
X112730500Y-92999000D01*
G75*
G02*
X112468000Y-92736500I0J262500D01*
G01*
X112468000Y-92111500D01*
G75*
G02*
X112730500Y-91849000I262500J0D01*
G01*
G37*
%TD*%
%TO.C,C16*%
G36*
G01*
X111142500Y-91830000D02*
X111667500Y-91830000D01*
G75*
G02*
X111930000Y-92092500I0J-262500D01*
G01*
X111930000Y-92717500D01*
G75*
G02*
X111667500Y-92980000I-262500J0D01*
G01*
X111142500Y-92980000D01*
G75*
G02*
X110880000Y-92717500I0J262500D01*
G01*
X110880000Y-92092500D01*
G75*
G02*
X111142500Y-91830000I262500J0D01*
G01*
G37*
G36*
G01*
X111142500Y-90080000D02*
X111667500Y-90080000D01*
G75*
G02*
X111930000Y-90342500I0J-262500D01*
G01*
X111930000Y-90967500D01*
G75*
G02*
X111667500Y-91230000I-262500J0D01*
G01*
X111142500Y-91230000D01*
G75*
G02*
X110880000Y-90967500I0J262500D01*
G01*
X110880000Y-90342500D01*
G75*
G02*
X111142500Y-90080000I262500J0D01*
G01*
G37*
%TD*%
%TO.C,C17*%
G36*
G01*
X114077500Y-84580000D02*
X114602500Y-84580000D01*
G75*
G02*
X114865000Y-84842500I0J-262500D01*
G01*
X114865000Y-85467500D01*
G75*
G02*
X114602500Y-85730000I-262500J0D01*
G01*
X114077500Y-85730000D01*
G75*
G02*
X113815000Y-85467500I0J262500D01*
G01*
X113815000Y-84842500D01*
G75*
G02*
X114077500Y-84580000I262500J0D01*
G01*
G37*
G36*
G01*
X114077500Y-86330000D02*
X114602500Y-86330000D01*
G75*
G02*
X114865000Y-86592500I0J-262500D01*
G01*
X114865000Y-87217500D01*
G75*
G02*
X114602500Y-87480000I-262500J0D01*
G01*
X114077500Y-87480000D01*
G75*
G02*
X113815000Y-87217500I0J262500D01*
G01*
X113815000Y-86592500D01*
G75*
G02*
X114077500Y-86330000I262500J0D01*
G01*
G37*
%TD*%
D15*
%TO.C,J3*%
X97309280Y-105287704D03*
X97309280Y-107827704D03*
X97309280Y-110367704D03*
D16*
X97309280Y-112907704D03*
%TD*%
D17*
%TO.C,J20*%
X122555000Y-80987900D03*
%TD*%
%TO.C,J21*%
X122491500Y-86702900D03*
%TD*%
D18*
%TO.C,Q1*%
X100563740Y-80155660D03*
X102563740Y-79205660D03*
X102563740Y-81105660D03*
%TD*%
%TO.C,Q2*%
X102608340Y-86774160D03*
X102608340Y-84874160D03*
X100608340Y-85824160D03*
%TD*%
%TO.C,R1*%
G36*
G01*
X107550000Y-90922500D02*
X107550000Y-90397500D01*
G75*
G02*
X107812500Y-90135000I262500J0D01*
G01*
X108437500Y-90135000D01*
G75*
G02*
X108700000Y-90397500I0J-262500D01*
G01*
X108700000Y-90922500D01*
G75*
G02*
X108437500Y-91185000I-262500J0D01*
G01*
X107812500Y-91185000D01*
G75*
G02*
X107550000Y-90922500I0J262500D01*
G01*
G37*
G36*
G01*
X105800000Y-90922500D02*
X105800000Y-90397500D01*
G75*
G02*
X106062500Y-90135000I262500J0D01*
G01*
X106687500Y-90135000D01*
G75*
G02*
X106950000Y-90397500I0J-262500D01*
G01*
X106950000Y-90922500D01*
G75*
G02*
X106687500Y-91185000I-262500J0D01*
G01*
X106062500Y-91185000D01*
G75*
G02*
X105800000Y-90922500I0J262500D01*
G01*
G37*
%TD*%
%TO.C,R2*%
G36*
G01*
X109467500Y-90125000D02*
X109992500Y-90125000D01*
G75*
G02*
X110255000Y-90387500I0J-262500D01*
G01*
X110255000Y-91012500D01*
G75*
G02*
X109992500Y-91275000I-262500J0D01*
G01*
X109467500Y-91275000D01*
G75*
G02*
X109205000Y-91012500I0J262500D01*
G01*
X109205000Y-90387500D01*
G75*
G02*
X109467500Y-90125000I262500J0D01*
G01*
G37*
G36*
G01*
X109467500Y-91875000D02*
X109992500Y-91875000D01*
G75*
G02*
X110255000Y-92137500I0J-262500D01*
G01*
X110255000Y-92762500D01*
G75*
G02*
X109992500Y-93025000I-262500J0D01*
G01*
X109467500Y-93025000D01*
G75*
G02*
X109205000Y-92762500I0J262500D01*
G01*
X109205000Y-92137500D01*
G75*
G02*
X109467500Y-91875000I262500J0D01*
G01*
G37*
%TD*%
%TO.C,R3*%
G36*
G01*
X95492960Y-92084260D02*
X96017960Y-92084260D01*
G75*
G02*
X96280460Y-92346760I0J-262500D01*
G01*
X96280460Y-92971760D01*
G75*
G02*
X96017960Y-93234260I-262500J0D01*
G01*
X95492960Y-93234260D01*
G75*
G02*
X95230460Y-92971760I0J262500D01*
G01*
X95230460Y-92346760D01*
G75*
G02*
X95492960Y-92084260I262500J0D01*
G01*
G37*
G36*
G01*
X95492960Y-93834260D02*
X96017960Y-93834260D01*
G75*
G02*
X96280460Y-94096760I0J-262500D01*
G01*
X96280460Y-94721760D01*
G75*
G02*
X96017960Y-94984260I-262500J0D01*
G01*
X95492960Y-94984260D01*
G75*
G02*
X95230460Y-94721760I0J262500D01*
G01*
X95230460Y-94096760D01*
G75*
G02*
X95492960Y-93834260I262500J0D01*
G01*
G37*
%TD*%
%TO.C,R4*%
G36*
G01*
X112545500Y-95535000D02*
X112020500Y-95535000D01*
G75*
G02*
X111758000Y-95272500I0J262500D01*
G01*
X111758000Y-94647500D01*
G75*
G02*
X112020500Y-94385000I262500J0D01*
G01*
X112545500Y-94385000D01*
G75*
G02*
X112808000Y-94647500I0J-262500D01*
G01*
X112808000Y-95272500D01*
G75*
G02*
X112545500Y-95535000I-262500J0D01*
G01*
G37*
G36*
G01*
X112545500Y-97285000D02*
X112020500Y-97285000D01*
G75*
G02*
X111758000Y-97022500I0J262500D01*
G01*
X111758000Y-96397500D01*
G75*
G02*
X112020500Y-96135000I262500J0D01*
G01*
X112545500Y-96135000D01*
G75*
G02*
X112808000Y-96397500I0J-262500D01*
G01*
X112808000Y-97022500D01*
G75*
G02*
X112545500Y-97285000I-262500J0D01*
G01*
G37*
%TD*%
%TO.C,R5*%
G36*
G01*
X105672900Y-89225140D02*
X105672900Y-88700140D01*
G75*
G02*
X105935400Y-88437640I262500J0D01*
G01*
X106560400Y-88437640D01*
G75*
G02*
X106822900Y-88700140I0J-262500D01*
G01*
X106822900Y-89225140D01*
G75*
G02*
X106560400Y-89487640I-262500J0D01*
G01*
X105935400Y-89487640D01*
G75*
G02*
X105672900Y-89225140I0J262500D01*
G01*
G37*
G36*
G01*
X103922900Y-89225140D02*
X103922900Y-88700140D01*
G75*
G02*
X104185400Y-88437640I262500J0D01*
G01*
X104810400Y-88437640D01*
G75*
G02*
X105072900Y-88700140I0J-262500D01*
G01*
X105072900Y-89225140D01*
G75*
G02*
X104810400Y-89487640I-262500J0D01*
G01*
X104185400Y-89487640D01*
G75*
G02*
X103922900Y-89225140I0J262500D01*
G01*
G37*
%TD*%
%TO.C,R6*%
G36*
G01*
X91266400Y-96527900D02*
X91791400Y-96527900D01*
G75*
G02*
X92053900Y-96790400I0J-262500D01*
G01*
X92053900Y-97415400D01*
G75*
G02*
X91791400Y-97677900I-262500J0D01*
G01*
X91266400Y-97677900D01*
G75*
G02*
X91003900Y-97415400I0J262500D01*
G01*
X91003900Y-96790400D01*
G75*
G02*
X91266400Y-96527900I262500J0D01*
G01*
G37*
G36*
G01*
X91266400Y-94777900D02*
X91791400Y-94777900D01*
G75*
G02*
X92053900Y-95040400I0J-262500D01*
G01*
X92053900Y-95665400D01*
G75*
G02*
X91791400Y-95927900I-262500J0D01*
G01*
X91266400Y-95927900D01*
G75*
G02*
X91003900Y-95665400I0J262500D01*
G01*
X91003900Y-95040400D01*
G75*
G02*
X91266400Y-94777900I262500J0D01*
G01*
G37*
%TD*%
%TO.C,R7*%
G36*
G01*
X92104600Y-99948100D02*
X92629600Y-99948100D01*
G75*
G02*
X92892100Y-100210600I0J-262500D01*
G01*
X92892100Y-100835600D01*
G75*
G02*
X92629600Y-101098100I-262500J0D01*
G01*
X92104600Y-101098100D01*
G75*
G02*
X91842100Y-100835600I0J262500D01*
G01*
X91842100Y-100210600D01*
G75*
G02*
X92104600Y-99948100I262500J0D01*
G01*
G37*
G36*
G01*
X92104600Y-101698100D02*
X92629600Y-101698100D01*
G75*
G02*
X92892100Y-101960600I0J-262500D01*
G01*
X92892100Y-102585600D01*
G75*
G02*
X92629600Y-102848100I-262500J0D01*
G01*
X92104600Y-102848100D01*
G75*
G02*
X91842100Y-102585600I0J262500D01*
G01*
X91842100Y-101960600D01*
G75*
G02*
X92104600Y-101698100I262500J0D01*
G01*
G37*
%TD*%
%TO.C,R10*%
G36*
G01*
X114965000Y-88297500D02*
X114965000Y-88822500D01*
G75*
G02*
X114702500Y-89085000I-262500J0D01*
G01*
X114077500Y-89085000D01*
G75*
G02*
X113815000Y-88822500I0J262500D01*
G01*
X113815000Y-88297500D01*
G75*
G02*
X114077500Y-88035000I262500J0D01*
G01*
X114702500Y-88035000D01*
G75*
G02*
X114965000Y-88297500I0J-262500D01*
G01*
G37*
G36*
G01*
X116715000Y-88297500D02*
X116715000Y-88822500D01*
G75*
G02*
X116452500Y-89085000I-262500J0D01*
G01*
X115827500Y-89085000D01*
G75*
G02*
X115565000Y-88822500I0J262500D01*
G01*
X115565000Y-88297500D01*
G75*
G02*
X115827500Y-88035000I262500J0D01*
G01*
X116452500Y-88035000D01*
G75*
G02*
X116715000Y-88297500I0J-262500D01*
G01*
G37*
%TD*%
%TO.C,R11*%
G36*
G01*
X93654000Y-101709500D02*
X94179000Y-101709500D01*
G75*
G02*
X94441500Y-101972000I0J-262500D01*
G01*
X94441500Y-102597000D01*
G75*
G02*
X94179000Y-102859500I-262500J0D01*
G01*
X93654000Y-102859500D01*
G75*
G02*
X93391500Y-102597000I0J262500D01*
G01*
X93391500Y-101972000D01*
G75*
G02*
X93654000Y-101709500I262500J0D01*
G01*
G37*
G36*
G01*
X93654000Y-99959500D02*
X94179000Y-99959500D01*
G75*
G02*
X94441500Y-100222000I0J-262500D01*
G01*
X94441500Y-100847000D01*
G75*
G02*
X94179000Y-101109500I-262500J0D01*
G01*
X93654000Y-101109500D01*
G75*
G02*
X93391500Y-100847000I0J262500D01*
G01*
X93391500Y-100222000D01*
G75*
G02*
X93654000Y-99959500I262500J0D01*
G01*
G37*
%TD*%
%TO.C,R12*%
G36*
G01*
X94961400Y-103598100D02*
X94961400Y-104123100D01*
G75*
G02*
X94698900Y-104385600I-262500J0D01*
G01*
X94073900Y-104385600D01*
G75*
G02*
X93811400Y-104123100I0J262500D01*
G01*
X93811400Y-103598100D01*
G75*
G02*
X94073900Y-103335600I262500J0D01*
G01*
X94698900Y-103335600D01*
G75*
G02*
X94961400Y-103598100I0J-262500D01*
G01*
G37*
G36*
G01*
X93211400Y-103598100D02*
X93211400Y-104123100D01*
G75*
G02*
X92948900Y-104385600I-262500J0D01*
G01*
X92323900Y-104385600D01*
G75*
G02*
X92061400Y-104123100I0J262500D01*
G01*
X92061400Y-103598100D01*
G75*
G02*
X92323900Y-103335600I262500J0D01*
G01*
X92948900Y-103335600D01*
G75*
G02*
X93211400Y-103598100I0J-262500D01*
G01*
G37*
%TD*%
%TO.C,R13*%
G36*
G01*
X103937900Y-85915140D02*
X103937900Y-85390140D01*
G75*
G02*
X104200400Y-85127640I262500J0D01*
G01*
X104825400Y-85127640D01*
G75*
G02*
X105087900Y-85390140I0J-262500D01*
G01*
X105087900Y-85915140D01*
G75*
G02*
X104825400Y-86177640I-262500J0D01*
G01*
X104200400Y-86177640D01*
G75*
G02*
X103937900Y-85915140I0J262500D01*
G01*
G37*
G36*
G01*
X105687900Y-85915140D02*
X105687900Y-85390140D01*
G75*
G02*
X105950400Y-85127640I262500J0D01*
G01*
X106575400Y-85127640D01*
G75*
G02*
X106837900Y-85390140I0J-262500D01*
G01*
X106837900Y-85915140D01*
G75*
G02*
X106575400Y-86177640I-262500J0D01*
G01*
X105950400Y-86177640D01*
G75*
G02*
X105687900Y-85915140I0J262500D01*
G01*
G37*
%TD*%
%TO.C,R14*%
G36*
G01*
X92098200Y-107356000D02*
X92098200Y-106831000D01*
G75*
G02*
X92360700Y-106568500I262500J0D01*
G01*
X92985700Y-106568500D01*
G75*
G02*
X93248200Y-106831000I0J-262500D01*
G01*
X93248200Y-107356000D01*
G75*
G02*
X92985700Y-107618500I-262500J0D01*
G01*
X92360700Y-107618500D01*
G75*
G02*
X92098200Y-107356000I0J262500D01*
G01*
G37*
G36*
G01*
X93848200Y-107356000D02*
X93848200Y-106831000D01*
G75*
G02*
X94110700Y-106568500I262500J0D01*
G01*
X94735700Y-106568500D01*
G75*
G02*
X94998200Y-106831000I0J-262500D01*
G01*
X94998200Y-107356000D01*
G75*
G02*
X94735700Y-107618500I-262500J0D01*
G01*
X94110700Y-107618500D01*
G75*
G02*
X93848200Y-107356000I0J262500D01*
G01*
G37*
%TD*%
%TO.C,R15*%
G36*
G01*
X93224100Y-105198300D02*
X93224100Y-105723300D01*
G75*
G02*
X92961600Y-105985800I-262500J0D01*
G01*
X92336600Y-105985800D01*
G75*
G02*
X92074100Y-105723300I0J262500D01*
G01*
X92074100Y-105198300D01*
G75*
G02*
X92336600Y-104935800I262500J0D01*
G01*
X92961600Y-104935800D01*
G75*
G02*
X93224100Y-105198300I0J-262500D01*
G01*
G37*
G36*
G01*
X94974100Y-105198300D02*
X94974100Y-105723300D01*
G75*
G02*
X94711600Y-105985800I-262500J0D01*
G01*
X94086600Y-105985800D01*
G75*
G02*
X93824100Y-105723300I0J262500D01*
G01*
X93824100Y-105198300D01*
G75*
G02*
X94086600Y-104935800I262500J0D01*
G01*
X94711600Y-104935800D01*
G75*
G02*
X94974100Y-105198300I0J-262500D01*
G01*
G37*
%TD*%
%TO.C,R16*%
G36*
G01*
X93883200Y-109066000D02*
X93883200Y-108541000D01*
G75*
G02*
X94145700Y-108278500I262500J0D01*
G01*
X94770700Y-108278500D01*
G75*
G02*
X95033200Y-108541000I0J-262500D01*
G01*
X95033200Y-109066000D01*
G75*
G02*
X94770700Y-109328500I-262500J0D01*
G01*
X94145700Y-109328500D01*
G75*
G02*
X93883200Y-109066000I0J262500D01*
G01*
G37*
G36*
G01*
X92133200Y-109066000D02*
X92133200Y-108541000D01*
G75*
G02*
X92395700Y-108278500I262500J0D01*
G01*
X93020700Y-108278500D01*
G75*
G02*
X93283200Y-108541000I0J-262500D01*
G01*
X93283200Y-109066000D01*
G75*
G02*
X93020700Y-109328500I-262500J0D01*
G01*
X92395700Y-109328500D01*
G75*
G02*
X92133200Y-109066000I0J262500D01*
G01*
G37*
%TD*%
%TO.C,R17*%
G36*
G01*
X95018200Y-110231000D02*
X95018200Y-110756000D01*
G75*
G02*
X94755700Y-111018500I-262500J0D01*
G01*
X94130700Y-111018500D01*
G75*
G02*
X93868200Y-110756000I0J262500D01*
G01*
X93868200Y-110231000D01*
G75*
G02*
X94130700Y-109968500I262500J0D01*
G01*
X94755700Y-109968500D01*
G75*
G02*
X95018200Y-110231000I0J-262500D01*
G01*
G37*
G36*
G01*
X93268200Y-110231000D02*
X93268200Y-110756000D01*
G75*
G02*
X93005700Y-111018500I-262500J0D01*
G01*
X92380700Y-111018500D01*
G75*
G02*
X92118200Y-110756000I0J262500D01*
G01*
X92118200Y-110231000D01*
G75*
G02*
X92380700Y-109968500I262500J0D01*
G01*
X93005700Y-109968500D01*
G75*
G02*
X93268200Y-110231000I0J-262500D01*
G01*
G37*
%TD*%
%TO.C,R18*%
G36*
G01*
X95296600Y-86249200D02*
X94771600Y-86249200D01*
G75*
G02*
X94509100Y-85986700I0J262500D01*
G01*
X94509100Y-85361700D01*
G75*
G02*
X94771600Y-85099200I262500J0D01*
G01*
X95296600Y-85099200D01*
G75*
G02*
X95559100Y-85361700I0J-262500D01*
G01*
X95559100Y-85986700D01*
G75*
G02*
X95296600Y-86249200I-262500J0D01*
G01*
G37*
G36*
G01*
X95296600Y-87999200D02*
X94771600Y-87999200D01*
G75*
G02*
X94509100Y-87736700I0J262500D01*
G01*
X94509100Y-87111700D01*
G75*
G02*
X94771600Y-86849200I262500J0D01*
G01*
X95296600Y-86849200D01*
G75*
G02*
X95559100Y-87111700I0J-262500D01*
G01*
X95559100Y-87736700D01*
G75*
G02*
X95296600Y-87999200I-262500J0D01*
G01*
G37*
%TD*%
%TO.C,R19*%
G36*
G01*
X100175400Y-83053800D02*
X100175400Y-82528800D01*
G75*
G02*
X100437900Y-82266300I262500J0D01*
G01*
X101062900Y-82266300D01*
G75*
G02*
X101325400Y-82528800I0J-262500D01*
G01*
X101325400Y-83053800D01*
G75*
G02*
X101062900Y-83316300I-262500J0D01*
G01*
X100437900Y-83316300D01*
G75*
G02*
X100175400Y-83053800I0J262500D01*
G01*
G37*
G36*
G01*
X101925400Y-83053800D02*
X101925400Y-82528800D01*
G75*
G02*
X102187900Y-82266300I262500J0D01*
G01*
X102812900Y-82266300D01*
G75*
G02*
X103075400Y-82528800I0J-262500D01*
G01*
X103075400Y-83053800D01*
G75*
G02*
X102812900Y-83316300I-262500J0D01*
G01*
X102187900Y-83316300D01*
G75*
G02*
X101925400Y-83053800I0J262500D01*
G01*
G37*
%TD*%
%TO.C,R20*%
G36*
G01*
X97520840Y-85674160D02*
X96995840Y-85674160D01*
G75*
G02*
X96733340Y-85411660I0J262500D01*
G01*
X96733340Y-84786660D01*
G75*
G02*
X96995840Y-84524160I262500J0D01*
G01*
X97520840Y-84524160D01*
G75*
G02*
X97783340Y-84786660I0J-262500D01*
G01*
X97783340Y-85411660D01*
G75*
G02*
X97520840Y-85674160I-262500J0D01*
G01*
G37*
G36*
G01*
X97520840Y-87424160D02*
X96995840Y-87424160D01*
G75*
G02*
X96733340Y-87161660I0J262500D01*
G01*
X96733340Y-86536660D01*
G75*
G02*
X96995840Y-86274160I262500J0D01*
G01*
X97520840Y-86274160D01*
G75*
G02*
X97783340Y-86536660I0J-262500D01*
G01*
X97783340Y-87161660D01*
G75*
G02*
X97520840Y-87424160I-262500J0D01*
G01*
G37*
%TD*%
%TO.C,R21*%
G36*
G01*
X98635840Y-84514160D02*
X99160840Y-84514160D01*
G75*
G02*
X99423340Y-84776660I0J-262500D01*
G01*
X99423340Y-85401660D01*
G75*
G02*
X99160840Y-85664160I-262500J0D01*
G01*
X98635840Y-85664160D01*
G75*
G02*
X98373340Y-85401660I0J262500D01*
G01*
X98373340Y-84776660D01*
G75*
G02*
X98635840Y-84514160I262500J0D01*
G01*
G37*
G36*
G01*
X98635840Y-86264160D02*
X99160840Y-86264160D01*
G75*
G02*
X99423340Y-86526660I0J-262500D01*
G01*
X99423340Y-87151660D01*
G75*
G02*
X99160840Y-87414160I-262500J0D01*
G01*
X98635840Y-87414160D01*
G75*
G02*
X98373340Y-87151660I0J262500D01*
G01*
X98373340Y-86526660D01*
G75*
G02*
X98635840Y-86264160I262500J0D01*
G01*
G37*
%TD*%
D16*
%TO.C,SW1*%
X105300780Y-80149700D03*
D15*
X105300780Y-82689700D03*
%TD*%
%TO.C,U1*%
G36*
G01*
X107722352Y-107684631D02*
X107972352Y-107684631D01*
G75*
G02*
X108097352Y-107809631I0J-125000D01*
G01*
X108097352Y-109134631D01*
G75*
G02*
X107972352Y-109259631I-125000J0D01*
G01*
X107722352Y-109259631D01*
G75*
G02*
X107597352Y-109134631I0J125000D01*
G01*
X107597352Y-107809631D01*
G75*
G02*
X107722352Y-107684631I125000J0D01*
G01*
G37*
G36*
G01*
X107072352Y-107684631D02*
X107322352Y-107684631D01*
G75*
G02*
X107447352Y-107809631I0J-125000D01*
G01*
X107447352Y-109134631D01*
G75*
G02*
X107322352Y-109259631I-125000J0D01*
G01*
X107072352Y-109259631D01*
G75*
G02*
X106947352Y-109134631I0J125000D01*
G01*
X106947352Y-107809631D01*
G75*
G02*
X107072352Y-107684631I125000J0D01*
G01*
G37*
G36*
G01*
X106422352Y-107684631D02*
X106672352Y-107684631D01*
G75*
G02*
X106797352Y-107809631I0J-125000D01*
G01*
X106797352Y-109134631D01*
G75*
G02*
X106672352Y-109259631I-125000J0D01*
G01*
X106422352Y-109259631D01*
G75*
G02*
X106297352Y-109134631I0J125000D01*
G01*
X106297352Y-107809631D01*
G75*
G02*
X106422352Y-107684631I125000J0D01*
G01*
G37*
G36*
G01*
X105772352Y-107684631D02*
X106022352Y-107684631D01*
G75*
G02*
X106147352Y-107809631I0J-125000D01*
G01*
X106147352Y-109134631D01*
G75*
G02*
X106022352Y-109259631I-125000J0D01*
G01*
X105772352Y-109259631D01*
G75*
G02*
X105647352Y-109134631I0J125000D01*
G01*
X105647352Y-107809631D01*
G75*
G02*
X105772352Y-107684631I125000J0D01*
G01*
G37*
G36*
G01*
X105122352Y-107684631D02*
X105372352Y-107684631D01*
G75*
G02*
X105497352Y-107809631I0J-125000D01*
G01*
X105497352Y-109134631D01*
G75*
G02*
X105372352Y-109259631I-125000J0D01*
G01*
X105122352Y-109259631D01*
G75*
G02*
X104997352Y-109134631I0J125000D01*
G01*
X104997352Y-107809631D01*
G75*
G02*
X105122352Y-107684631I125000J0D01*
G01*
G37*
G36*
G01*
X104472352Y-107684631D02*
X104722352Y-107684631D01*
G75*
G02*
X104847352Y-107809631I0J-125000D01*
G01*
X104847352Y-109134631D01*
G75*
G02*
X104722352Y-109259631I-125000J0D01*
G01*
X104472352Y-109259631D01*
G75*
G02*
X104347352Y-109134631I0J125000D01*
G01*
X104347352Y-107809631D01*
G75*
G02*
X104472352Y-107684631I125000J0D01*
G01*
G37*
G36*
G01*
X103822352Y-107684631D02*
X104072352Y-107684631D01*
G75*
G02*
X104197352Y-107809631I0J-125000D01*
G01*
X104197352Y-109134631D01*
G75*
G02*
X104072352Y-109259631I-125000J0D01*
G01*
X103822352Y-109259631D01*
G75*
G02*
X103697352Y-109134631I0J125000D01*
G01*
X103697352Y-107809631D01*
G75*
G02*
X103822352Y-107684631I125000J0D01*
G01*
G37*
G36*
G01*
X103172352Y-107684631D02*
X103422352Y-107684631D01*
G75*
G02*
X103547352Y-107809631I0J-125000D01*
G01*
X103547352Y-109134631D01*
G75*
G02*
X103422352Y-109259631I-125000J0D01*
G01*
X103172352Y-109259631D01*
G75*
G02*
X103047352Y-109134631I0J125000D01*
G01*
X103047352Y-107809631D01*
G75*
G02*
X103172352Y-107684631I125000J0D01*
G01*
G37*
G36*
G01*
X102522352Y-107684631D02*
X102772352Y-107684631D01*
G75*
G02*
X102897352Y-107809631I0J-125000D01*
G01*
X102897352Y-109134631D01*
G75*
G02*
X102772352Y-109259631I-125000J0D01*
G01*
X102522352Y-109259631D01*
G75*
G02*
X102397352Y-109134631I0J125000D01*
G01*
X102397352Y-107809631D01*
G75*
G02*
X102522352Y-107684631I125000J0D01*
G01*
G37*
G36*
G01*
X101872352Y-107684631D02*
X102122352Y-107684631D01*
G75*
G02*
X102247352Y-107809631I0J-125000D01*
G01*
X102247352Y-109134631D01*
G75*
G02*
X102122352Y-109259631I-125000J0D01*
G01*
X101872352Y-109259631D01*
G75*
G02*
X101747352Y-109134631I0J125000D01*
G01*
X101747352Y-107809631D01*
G75*
G02*
X101872352Y-107684631I125000J0D01*
G01*
G37*
G36*
G01*
X101872352Y-113409631D02*
X102122352Y-113409631D01*
G75*
G02*
X102247352Y-113534631I0J-125000D01*
G01*
X102247352Y-114859631D01*
G75*
G02*
X102122352Y-114984631I-125000J0D01*
G01*
X101872352Y-114984631D01*
G75*
G02*
X101747352Y-114859631I0J125000D01*
G01*
X101747352Y-113534631D01*
G75*
G02*
X101872352Y-113409631I125000J0D01*
G01*
G37*
G36*
G01*
X102522352Y-113409631D02*
X102772352Y-113409631D01*
G75*
G02*
X102897352Y-113534631I0J-125000D01*
G01*
X102897352Y-114859631D01*
G75*
G02*
X102772352Y-114984631I-125000J0D01*
G01*
X102522352Y-114984631D01*
G75*
G02*
X102397352Y-114859631I0J125000D01*
G01*
X102397352Y-113534631D01*
G75*
G02*
X102522352Y-113409631I125000J0D01*
G01*
G37*
G36*
G01*
X103172352Y-113409631D02*
X103422352Y-113409631D01*
G75*
G02*
X103547352Y-113534631I0J-125000D01*
G01*
X103547352Y-114859631D01*
G75*
G02*
X103422352Y-114984631I-125000J0D01*
G01*
X103172352Y-114984631D01*
G75*
G02*
X103047352Y-114859631I0J125000D01*
G01*
X103047352Y-113534631D01*
G75*
G02*
X103172352Y-113409631I125000J0D01*
G01*
G37*
G36*
G01*
X103822352Y-113409631D02*
X104072352Y-113409631D01*
G75*
G02*
X104197352Y-113534631I0J-125000D01*
G01*
X104197352Y-114859631D01*
G75*
G02*
X104072352Y-114984631I-125000J0D01*
G01*
X103822352Y-114984631D01*
G75*
G02*
X103697352Y-114859631I0J125000D01*
G01*
X103697352Y-113534631D01*
G75*
G02*
X103822352Y-113409631I125000J0D01*
G01*
G37*
G36*
G01*
X104472352Y-113409631D02*
X104722352Y-113409631D01*
G75*
G02*
X104847352Y-113534631I0J-125000D01*
G01*
X104847352Y-114859631D01*
G75*
G02*
X104722352Y-114984631I-125000J0D01*
G01*
X104472352Y-114984631D01*
G75*
G02*
X104347352Y-114859631I0J125000D01*
G01*
X104347352Y-113534631D01*
G75*
G02*
X104472352Y-113409631I125000J0D01*
G01*
G37*
G36*
G01*
X105122352Y-113409631D02*
X105372352Y-113409631D01*
G75*
G02*
X105497352Y-113534631I0J-125000D01*
G01*
X105497352Y-114859631D01*
G75*
G02*
X105372352Y-114984631I-125000J0D01*
G01*
X105122352Y-114984631D01*
G75*
G02*
X104997352Y-114859631I0J125000D01*
G01*
X104997352Y-113534631D01*
G75*
G02*
X105122352Y-113409631I125000J0D01*
G01*
G37*
G36*
G01*
X105772352Y-113409631D02*
X106022352Y-113409631D01*
G75*
G02*
X106147352Y-113534631I0J-125000D01*
G01*
X106147352Y-114859631D01*
G75*
G02*
X106022352Y-114984631I-125000J0D01*
G01*
X105772352Y-114984631D01*
G75*
G02*
X105647352Y-114859631I0J125000D01*
G01*
X105647352Y-113534631D01*
G75*
G02*
X105772352Y-113409631I125000J0D01*
G01*
G37*
G36*
G01*
X106422352Y-113409631D02*
X106672352Y-113409631D01*
G75*
G02*
X106797352Y-113534631I0J-125000D01*
G01*
X106797352Y-114859631D01*
G75*
G02*
X106672352Y-114984631I-125000J0D01*
G01*
X106422352Y-114984631D01*
G75*
G02*
X106297352Y-114859631I0J125000D01*
G01*
X106297352Y-113534631D01*
G75*
G02*
X106422352Y-113409631I125000J0D01*
G01*
G37*
G36*
G01*
X107072352Y-113409631D02*
X107322352Y-113409631D01*
G75*
G02*
X107447352Y-113534631I0J-125000D01*
G01*
X107447352Y-114859631D01*
G75*
G02*
X107322352Y-114984631I-125000J0D01*
G01*
X107072352Y-114984631D01*
G75*
G02*
X106947352Y-114859631I0J125000D01*
G01*
X106947352Y-113534631D01*
G75*
G02*
X107072352Y-113409631I125000J0D01*
G01*
G37*
G36*
G01*
X107722352Y-113409631D02*
X107972352Y-113409631D01*
G75*
G02*
X108097352Y-113534631I0J-125000D01*
G01*
X108097352Y-114859631D01*
G75*
G02*
X107972352Y-114984631I-125000J0D01*
G01*
X107722352Y-114984631D01*
G75*
G02*
X107597352Y-114859631I0J125000D01*
G01*
X107597352Y-113534631D01*
G75*
G02*
X107722352Y-113409631I125000J0D01*
G01*
G37*
%TD*%
%TO.C,U2*%
G36*
G01*
X98130000Y-95055000D02*
X98130000Y-94855000D01*
G75*
G02*
X98230000Y-94755000I100000J0D01*
G01*
X99680000Y-94755000D01*
G75*
G02*
X99780000Y-94855000I0J-100000D01*
G01*
X99780000Y-95055000D01*
G75*
G02*
X99680000Y-95155000I-100000J0D01*
G01*
X98230000Y-95155000D01*
G75*
G02*
X98130000Y-95055000I0J100000D01*
G01*
G37*
G36*
G01*
X98130000Y-95555000D02*
X98130000Y-95355000D01*
G75*
G02*
X98230000Y-95255000I100000J0D01*
G01*
X99680000Y-95255000D01*
G75*
G02*
X99780000Y-95355000I0J-100000D01*
G01*
X99780000Y-95555000D01*
G75*
G02*
X99680000Y-95655000I-100000J0D01*
G01*
X98230000Y-95655000D01*
G75*
G02*
X98130000Y-95555000I0J100000D01*
G01*
G37*
G36*
G01*
X98130000Y-96055000D02*
X98130000Y-95855000D01*
G75*
G02*
X98230000Y-95755000I100000J0D01*
G01*
X99680000Y-95755000D01*
G75*
G02*
X99780000Y-95855000I0J-100000D01*
G01*
X99780000Y-96055000D01*
G75*
G02*
X99680000Y-96155000I-100000J0D01*
G01*
X98230000Y-96155000D01*
G75*
G02*
X98130000Y-96055000I0J100000D01*
G01*
G37*
G36*
G01*
X98130000Y-96555000D02*
X98130000Y-96355000D01*
G75*
G02*
X98230000Y-96255000I100000J0D01*
G01*
X99680000Y-96255000D01*
G75*
G02*
X99780000Y-96355000I0J-100000D01*
G01*
X99780000Y-96555000D01*
G75*
G02*
X99680000Y-96655000I-100000J0D01*
G01*
X98230000Y-96655000D01*
G75*
G02*
X98130000Y-96555000I0J100000D01*
G01*
G37*
G36*
G01*
X98130000Y-97055000D02*
X98130000Y-96855000D01*
G75*
G02*
X98230000Y-96755000I100000J0D01*
G01*
X99680000Y-96755000D01*
G75*
G02*
X99780000Y-96855000I0J-100000D01*
G01*
X99780000Y-97055000D01*
G75*
G02*
X99680000Y-97155000I-100000J0D01*
G01*
X98230000Y-97155000D01*
G75*
G02*
X98130000Y-97055000I0J100000D01*
G01*
G37*
G36*
G01*
X98130000Y-97555000D02*
X98130000Y-97355000D01*
G75*
G02*
X98230000Y-97255000I100000J0D01*
G01*
X99680000Y-97255000D01*
G75*
G02*
X99780000Y-97355000I0J-100000D01*
G01*
X99780000Y-97555000D01*
G75*
G02*
X99680000Y-97655000I-100000J0D01*
G01*
X98230000Y-97655000D01*
G75*
G02*
X98130000Y-97555000I0J100000D01*
G01*
G37*
G36*
G01*
X98130000Y-98055000D02*
X98130000Y-97855000D01*
G75*
G02*
X98230000Y-97755000I100000J0D01*
G01*
X99680000Y-97755000D01*
G75*
G02*
X99780000Y-97855000I0J-100000D01*
G01*
X99780000Y-98055000D01*
G75*
G02*
X99680000Y-98155000I-100000J0D01*
G01*
X98230000Y-98155000D01*
G75*
G02*
X98130000Y-98055000I0J100000D01*
G01*
G37*
G36*
G01*
X98130000Y-98555000D02*
X98130000Y-98355000D01*
G75*
G02*
X98230000Y-98255000I100000J0D01*
G01*
X99680000Y-98255000D01*
G75*
G02*
X99780000Y-98355000I0J-100000D01*
G01*
X99780000Y-98555000D01*
G75*
G02*
X99680000Y-98655000I-100000J0D01*
G01*
X98230000Y-98655000D01*
G75*
G02*
X98130000Y-98555000I0J100000D01*
G01*
G37*
G36*
G01*
X98130000Y-99055000D02*
X98130000Y-98855000D01*
G75*
G02*
X98230000Y-98755000I100000J0D01*
G01*
X99680000Y-98755000D01*
G75*
G02*
X99780000Y-98855000I0J-100000D01*
G01*
X99780000Y-99055000D01*
G75*
G02*
X99680000Y-99155000I-100000J0D01*
G01*
X98230000Y-99155000D01*
G75*
G02*
X98130000Y-99055000I0J100000D01*
G01*
G37*
G36*
G01*
X98130000Y-99555000D02*
X98130000Y-99355000D01*
G75*
G02*
X98230000Y-99255000I100000J0D01*
G01*
X99680000Y-99255000D01*
G75*
G02*
X99780000Y-99355000I0J-100000D01*
G01*
X99780000Y-99555000D01*
G75*
G02*
X99680000Y-99655000I-100000J0D01*
G01*
X98230000Y-99655000D01*
G75*
G02*
X98130000Y-99555000I0J100000D01*
G01*
G37*
G36*
G01*
X98130000Y-100055000D02*
X98130000Y-99855000D01*
G75*
G02*
X98230000Y-99755000I100000J0D01*
G01*
X99680000Y-99755000D01*
G75*
G02*
X99780000Y-99855000I0J-100000D01*
G01*
X99780000Y-100055000D01*
G75*
G02*
X99680000Y-100155000I-100000J0D01*
G01*
X98230000Y-100155000D01*
G75*
G02*
X98130000Y-100055000I0J100000D01*
G01*
G37*
G36*
G01*
X98130000Y-100555000D02*
X98130000Y-100355000D01*
G75*
G02*
X98230000Y-100255000I100000J0D01*
G01*
X99680000Y-100255000D01*
G75*
G02*
X99780000Y-100355000I0J-100000D01*
G01*
X99780000Y-100555000D01*
G75*
G02*
X99680000Y-100655000I-100000J0D01*
G01*
X98230000Y-100655000D01*
G75*
G02*
X98130000Y-100555000I0J100000D01*
G01*
G37*
G36*
G01*
X98130000Y-101055000D02*
X98130000Y-100855000D01*
G75*
G02*
X98230000Y-100755000I100000J0D01*
G01*
X99680000Y-100755000D01*
G75*
G02*
X99780000Y-100855000I0J-100000D01*
G01*
X99780000Y-101055000D01*
G75*
G02*
X99680000Y-101155000I-100000J0D01*
G01*
X98230000Y-101155000D01*
G75*
G02*
X98130000Y-101055000I0J100000D01*
G01*
G37*
G36*
G01*
X98130000Y-101555000D02*
X98130000Y-101355000D01*
G75*
G02*
X98230000Y-101255000I100000J0D01*
G01*
X99680000Y-101255000D01*
G75*
G02*
X99780000Y-101355000I0J-100000D01*
G01*
X99780000Y-101555000D01*
G75*
G02*
X99680000Y-101655000I-100000J0D01*
G01*
X98230000Y-101655000D01*
G75*
G02*
X98130000Y-101555000I0J100000D01*
G01*
G37*
G36*
G01*
X98130000Y-102055000D02*
X98130000Y-101855000D01*
G75*
G02*
X98230000Y-101755000I100000J0D01*
G01*
X99680000Y-101755000D01*
G75*
G02*
X99780000Y-101855000I0J-100000D01*
G01*
X99780000Y-102055000D01*
G75*
G02*
X99680000Y-102155000I-100000J0D01*
G01*
X98230000Y-102155000D01*
G75*
G02*
X98130000Y-102055000I0J100000D01*
G01*
G37*
G36*
G01*
X98130000Y-102555000D02*
X98130000Y-102355000D01*
G75*
G02*
X98230000Y-102255000I100000J0D01*
G01*
X99680000Y-102255000D01*
G75*
G02*
X99780000Y-102355000I0J-100000D01*
G01*
X99780000Y-102555000D01*
G75*
G02*
X99680000Y-102655000I-100000J0D01*
G01*
X98230000Y-102655000D01*
G75*
G02*
X98130000Y-102555000I0J100000D01*
G01*
G37*
G36*
G01*
X100680000Y-105105000D02*
X100680000Y-103655000D01*
G75*
G02*
X100780000Y-103555000I100000J0D01*
G01*
X100980000Y-103555000D01*
G75*
G02*
X101080000Y-103655000I0J-100000D01*
G01*
X101080000Y-105105000D01*
G75*
G02*
X100980000Y-105205000I-100000J0D01*
G01*
X100780000Y-105205000D01*
G75*
G02*
X100680000Y-105105000I0J100000D01*
G01*
G37*
G36*
G01*
X101180000Y-105105000D02*
X101180000Y-103655000D01*
G75*
G02*
X101280000Y-103555000I100000J0D01*
G01*
X101480000Y-103555000D01*
G75*
G02*
X101580000Y-103655000I0J-100000D01*
G01*
X101580000Y-105105000D01*
G75*
G02*
X101480000Y-105205000I-100000J0D01*
G01*
X101280000Y-105205000D01*
G75*
G02*
X101180000Y-105105000I0J100000D01*
G01*
G37*
G36*
G01*
X101680000Y-105105000D02*
X101680000Y-103655000D01*
G75*
G02*
X101780000Y-103555000I100000J0D01*
G01*
X101980000Y-103555000D01*
G75*
G02*
X102080000Y-103655000I0J-100000D01*
G01*
X102080000Y-105105000D01*
G75*
G02*
X101980000Y-105205000I-100000J0D01*
G01*
X101780000Y-105205000D01*
G75*
G02*
X101680000Y-105105000I0J100000D01*
G01*
G37*
G36*
G01*
X102180000Y-105105000D02*
X102180000Y-103655000D01*
G75*
G02*
X102280000Y-103555000I100000J0D01*
G01*
X102480000Y-103555000D01*
G75*
G02*
X102580000Y-103655000I0J-100000D01*
G01*
X102580000Y-105105000D01*
G75*
G02*
X102480000Y-105205000I-100000J0D01*
G01*
X102280000Y-105205000D01*
G75*
G02*
X102180000Y-105105000I0J100000D01*
G01*
G37*
G36*
G01*
X102680000Y-105105000D02*
X102680000Y-103655000D01*
G75*
G02*
X102780000Y-103555000I100000J0D01*
G01*
X102980000Y-103555000D01*
G75*
G02*
X103080000Y-103655000I0J-100000D01*
G01*
X103080000Y-105105000D01*
G75*
G02*
X102980000Y-105205000I-100000J0D01*
G01*
X102780000Y-105205000D01*
G75*
G02*
X102680000Y-105105000I0J100000D01*
G01*
G37*
G36*
G01*
X103180000Y-105105000D02*
X103180000Y-103655000D01*
G75*
G02*
X103280000Y-103555000I100000J0D01*
G01*
X103480000Y-103555000D01*
G75*
G02*
X103580000Y-103655000I0J-100000D01*
G01*
X103580000Y-105105000D01*
G75*
G02*
X103480000Y-105205000I-100000J0D01*
G01*
X103280000Y-105205000D01*
G75*
G02*
X103180000Y-105105000I0J100000D01*
G01*
G37*
G36*
G01*
X103680000Y-105105000D02*
X103680000Y-103655000D01*
G75*
G02*
X103780000Y-103555000I100000J0D01*
G01*
X103980000Y-103555000D01*
G75*
G02*
X104080000Y-103655000I0J-100000D01*
G01*
X104080000Y-105105000D01*
G75*
G02*
X103980000Y-105205000I-100000J0D01*
G01*
X103780000Y-105205000D01*
G75*
G02*
X103680000Y-105105000I0J100000D01*
G01*
G37*
G36*
G01*
X104180000Y-105105000D02*
X104180000Y-103655000D01*
G75*
G02*
X104280000Y-103555000I100000J0D01*
G01*
X104480000Y-103555000D01*
G75*
G02*
X104580000Y-103655000I0J-100000D01*
G01*
X104580000Y-105105000D01*
G75*
G02*
X104480000Y-105205000I-100000J0D01*
G01*
X104280000Y-105205000D01*
G75*
G02*
X104180000Y-105105000I0J100000D01*
G01*
G37*
G36*
G01*
X104680000Y-105105000D02*
X104680000Y-103655000D01*
G75*
G02*
X104780000Y-103555000I100000J0D01*
G01*
X104980000Y-103555000D01*
G75*
G02*
X105080000Y-103655000I0J-100000D01*
G01*
X105080000Y-105105000D01*
G75*
G02*
X104980000Y-105205000I-100000J0D01*
G01*
X104780000Y-105205000D01*
G75*
G02*
X104680000Y-105105000I0J100000D01*
G01*
G37*
G36*
G01*
X105180000Y-105105000D02*
X105180000Y-103655000D01*
G75*
G02*
X105280000Y-103555000I100000J0D01*
G01*
X105480000Y-103555000D01*
G75*
G02*
X105580000Y-103655000I0J-100000D01*
G01*
X105580000Y-105105000D01*
G75*
G02*
X105480000Y-105205000I-100000J0D01*
G01*
X105280000Y-105205000D01*
G75*
G02*
X105180000Y-105105000I0J100000D01*
G01*
G37*
G36*
G01*
X105680000Y-105105000D02*
X105680000Y-103655000D01*
G75*
G02*
X105780000Y-103555000I100000J0D01*
G01*
X105980000Y-103555000D01*
G75*
G02*
X106080000Y-103655000I0J-100000D01*
G01*
X106080000Y-105105000D01*
G75*
G02*
X105980000Y-105205000I-100000J0D01*
G01*
X105780000Y-105205000D01*
G75*
G02*
X105680000Y-105105000I0J100000D01*
G01*
G37*
G36*
G01*
X106180000Y-105105000D02*
X106180000Y-103655000D01*
G75*
G02*
X106280000Y-103555000I100000J0D01*
G01*
X106480000Y-103555000D01*
G75*
G02*
X106580000Y-103655000I0J-100000D01*
G01*
X106580000Y-105105000D01*
G75*
G02*
X106480000Y-105205000I-100000J0D01*
G01*
X106280000Y-105205000D01*
G75*
G02*
X106180000Y-105105000I0J100000D01*
G01*
G37*
G36*
G01*
X106680000Y-105105000D02*
X106680000Y-103655000D01*
G75*
G02*
X106780000Y-103555000I100000J0D01*
G01*
X106980000Y-103555000D01*
G75*
G02*
X107080000Y-103655000I0J-100000D01*
G01*
X107080000Y-105105000D01*
G75*
G02*
X106980000Y-105205000I-100000J0D01*
G01*
X106780000Y-105205000D01*
G75*
G02*
X106680000Y-105105000I0J100000D01*
G01*
G37*
G36*
G01*
X107180000Y-105105000D02*
X107180000Y-103655000D01*
G75*
G02*
X107280000Y-103555000I100000J0D01*
G01*
X107480000Y-103555000D01*
G75*
G02*
X107580000Y-103655000I0J-100000D01*
G01*
X107580000Y-105105000D01*
G75*
G02*
X107480000Y-105205000I-100000J0D01*
G01*
X107280000Y-105205000D01*
G75*
G02*
X107180000Y-105105000I0J100000D01*
G01*
G37*
G36*
G01*
X107680000Y-105105000D02*
X107680000Y-103655000D01*
G75*
G02*
X107780000Y-103555000I100000J0D01*
G01*
X107980000Y-103555000D01*
G75*
G02*
X108080000Y-103655000I0J-100000D01*
G01*
X108080000Y-105105000D01*
G75*
G02*
X107980000Y-105205000I-100000J0D01*
G01*
X107780000Y-105205000D01*
G75*
G02*
X107680000Y-105105000I0J100000D01*
G01*
G37*
G36*
G01*
X108180000Y-105105000D02*
X108180000Y-103655000D01*
G75*
G02*
X108280000Y-103555000I100000J0D01*
G01*
X108480000Y-103555000D01*
G75*
G02*
X108580000Y-103655000I0J-100000D01*
G01*
X108580000Y-105105000D01*
G75*
G02*
X108480000Y-105205000I-100000J0D01*
G01*
X108280000Y-105205000D01*
G75*
G02*
X108180000Y-105105000I0J100000D01*
G01*
G37*
G36*
G01*
X109480000Y-102555000D02*
X109480000Y-102355000D01*
G75*
G02*
X109580000Y-102255000I100000J0D01*
G01*
X111030000Y-102255000D01*
G75*
G02*
X111130000Y-102355000I0J-100000D01*
G01*
X111130000Y-102555000D01*
G75*
G02*
X111030000Y-102655000I-100000J0D01*
G01*
X109580000Y-102655000D01*
G75*
G02*
X109480000Y-102555000I0J100000D01*
G01*
G37*
G36*
G01*
X109480000Y-102055000D02*
X109480000Y-101855000D01*
G75*
G02*
X109580000Y-101755000I100000J0D01*
G01*
X111030000Y-101755000D01*
G75*
G02*
X111130000Y-101855000I0J-100000D01*
G01*
X111130000Y-102055000D01*
G75*
G02*
X111030000Y-102155000I-100000J0D01*
G01*
X109580000Y-102155000D01*
G75*
G02*
X109480000Y-102055000I0J100000D01*
G01*
G37*
G36*
G01*
X109480000Y-101555000D02*
X109480000Y-101355000D01*
G75*
G02*
X109580000Y-101255000I100000J0D01*
G01*
X111030000Y-101255000D01*
G75*
G02*
X111130000Y-101355000I0J-100000D01*
G01*
X111130000Y-101555000D01*
G75*
G02*
X111030000Y-101655000I-100000J0D01*
G01*
X109580000Y-101655000D01*
G75*
G02*
X109480000Y-101555000I0J100000D01*
G01*
G37*
G36*
G01*
X109480000Y-101055000D02*
X109480000Y-100855000D01*
G75*
G02*
X109580000Y-100755000I100000J0D01*
G01*
X111030000Y-100755000D01*
G75*
G02*
X111130000Y-100855000I0J-100000D01*
G01*
X111130000Y-101055000D01*
G75*
G02*
X111030000Y-101155000I-100000J0D01*
G01*
X109580000Y-101155000D01*
G75*
G02*
X109480000Y-101055000I0J100000D01*
G01*
G37*
G36*
G01*
X109480000Y-100555000D02*
X109480000Y-100355000D01*
G75*
G02*
X109580000Y-100255000I100000J0D01*
G01*
X111030000Y-100255000D01*
G75*
G02*
X111130000Y-100355000I0J-100000D01*
G01*
X111130000Y-100555000D01*
G75*
G02*
X111030000Y-100655000I-100000J0D01*
G01*
X109580000Y-100655000D01*
G75*
G02*
X109480000Y-100555000I0J100000D01*
G01*
G37*
G36*
G01*
X109480000Y-100055000D02*
X109480000Y-99855000D01*
G75*
G02*
X109580000Y-99755000I100000J0D01*
G01*
X111030000Y-99755000D01*
G75*
G02*
X111130000Y-99855000I0J-100000D01*
G01*
X111130000Y-100055000D01*
G75*
G02*
X111030000Y-100155000I-100000J0D01*
G01*
X109580000Y-100155000D01*
G75*
G02*
X109480000Y-100055000I0J100000D01*
G01*
G37*
G36*
G01*
X109480000Y-99555000D02*
X109480000Y-99355000D01*
G75*
G02*
X109580000Y-99255000I100000J0D01*
G01*
X111030000Y-99255000D01*
G75*
G02*
X111130000Y-99355000I0J-100000D01*
G01*
X111130000Y-99555000D01*
G75*
G02*
X111030000Y-99655000I-100000J0D01*
G01*
X109580000Y-99655000D01*
G75*
G02*
X109480000Y-99555000I0J100000D01*
G01*
G37*
G36*
G01*
X109480000Y-99055000D02*
X109480000Y-98855000D01*
G75*
G02*
X109580000Y-98755000I100000J0D01*
G01*
X111030000Y-98755000D01*
G75*
G02*
X111130000Y-98855000I0J-100000D01*
G01*
X111130000Y-99055000D01*
G75*
G02*
X111030000Y-99155000I-100000J0D01*
G01*
X109580000Y-99155000D01*
G75*
G02*
X109480000Y-99055000I0J100000D01*
G01*
G37*
G36*
G01*
X109480000Y-98555000D02*
X109480000Y-98355000D01*
G75*
G02*
X109580000Y-98255000I100000J0D01*
G01*
X111030000Y-98255000D01*
G75*
G02*
X111130000Y-98355000I0J-100000D01*
G01*
X111130000Y-98555000D01*
G75*
G02*
X111030000Y-98655000I-100000J0D01*
G01*
X109580000Y-98655000D01*
G75*
G02*
X109480000Y-98555000I0J100000D01*
G01*
G37*
G36*
G01*
X109480000Y-98055000D02*
X109480000Y-97855000D01*
G75*
G02*
X109580000Y-97755000I100000J0D01*
G01*
X111030000Y-97755000D01*
G75*
G02*
X111130000Y-97855000I0J-100000D01*
G01*
X111130000Y-98055000D01*
G75*
G02*
X111030000Y-98155000I-100000J0D01*
G01*
X109580000Y-98155000D01*
G75*
G02*
X109480000Y-98055000I0J100000D01*
G01*
G37*
G36*
G01*
X109480000Y-97555000D02*
X109480000Y-97355000D01*
G75*
G02*
X109580000Y-97255000I100000J0D01*
G01*
X111030000Y-97255000D01*
G75*
G02*
X111130000Y-97355000I0J-100000D01*
G01*
X111130000Y-97555000D01*
G75*
G02*
X111030000Y-97655000I-100000J0D01*
G01*
X109580000Y-97655000D01*
G75*
G02*
X109480000Y-97555000I0J100000D01*
G01*
G37*
G36*
G01*
X109480000Y-97055000D02*
X109480000Y-96855000D01*
G75*
G02*
X109580000Y-96755000I100000J0D01*
G01*
X111030000Y-96755000D01*
G75*
G02*
X111130000Y-96855000I0J-100000D01*
G01*
X111130000Y-97055000D01*
G75*
G02*
X111030000Y-97155000I-100000J0D01*
G01*
X109580000Y-97155000D01*
G75*
G02*
X109480000Y-97055000I0J100000D01*
G01*
G37*
G36*
G01*
X109480000Y-96555000D02*
X109480000Y-96355000D01*
G75*
G02*
X109580000Y-96255000I100000J0D01*
G01*
X111030000Y-96255000D01*
G75*
G02*
X111130000Y-96355000I0J-100000D01*
G01*
X111130000Y-96555000D01*
G75*
G02*
X111030000Y-96655000I-100000J0D01*
G01*
X109580000Y-96655000D01*
G75*
G02*
X109480000Y-96555000I0J100000D01*
G01*
G37*
G36*
G01*
X109480000Y-96055000D02*
X109480000Y-95855000D01*
G75*
G02*
X109580000Y-95755000I100000J0D01*
G01*
X111030000Y-95755000D01*
G75*
G02*
X111130000Y-95855000I0J-100000D01*
G01*
X111130000Y-96055000D01*
G75*
G02*
X111030000Y-96155000I-100000J0D01*
G01*
X109580000Y-96155000D01*
G75*
G02*
X109480000Y-96055000I0J100000D01*
G01*
G37*
G36*
G01*
X109480000Y-95555000D02*
X109480000Y-95355000D01*
G75*
G02*
X109580000Y-95255000I100000J0D01*
G01*
X111030000Y-95255000D01*
G75*
G02*
X111130000Y-95355000I0J-100000D01*
G01*
X111130000Y-95555000D01*
G75*
G02*
X111030000Y-95655000I-100000J0D01*
G01*
X109580000Y-95655000D01*
G75*
G02*
X109480000Y-95555000I0J100000D01*
G01*
G37*
G36*
G01*
X109480000Y-95055000D02*
X109480000Y-94855000D01*
G75*
G02*
X109580000Y-94755000I100000J0D01*
G01*
X111030000Y-94755000D01*
G75*
G02*
X111130000Y-94855000I0J-100000D01*
G01*
X111130000Y-95055000D01*
G75*
G02*
X111030000Y-95155000I-100000J0D01*
G01*
X109580000Y-95155000D01*
G75*
G02*
X109480000Y-95055000I0J100000D01*
G01*
G37*
G36*
G01*
X108180000Y-93755000D02*
X108180000Y-92305000D01*
G75*
G02*
X108280000Y-92205000I100000J0D01*
G01*
X108480000Y-92205000D01*
G75*
G02*
X108580000Y-92305000I0J-100000D01*
G01*
X108580000Y-93755000D01*
G75*
G02*
X108480000Y-93855000I-100000J0D01*
G01*
X108280000Y-93855000D01*
G75*
G02*
X108180000Y-93755000I0J100000D01*
G01*
G37*
G36*
G01*
X107680000Y-93755000D02*
X107680000Y-92305000D01*
G75*
G02*
X107780000Y-92205000I100000J0D01*
G01*
X107980000Y-92205000D01*
G75*
G02*
X108080000Y-92305000I0J-100000D01*
G01*
X108080000Y-93755000D01*
G75*
G02*
X107980000Y-93855000I-100000J0D01*
G01*
X107780000Y-93855000D01*
G75*
G02*
X107680000Y-93755000I0J100000D01*
G01*
G37*
G36*
G01*
X107180000Y-93755000D02*
X107180000Y-92305000D01*
G75*
G02*
X107280000Y-92205000I100000J0D01*
G01*
X107480000Y-92205000D01*
G75*
G02*
X107580000Y-92305000I0J-100000D01*
G01*
X107580000Y-93755000D01*
G75*
G02*
X107480000Y-93855000I-100000J0D01*
G01*
X107280000Y-93855000D01*
G75*
G02*
X107180000Y-93755000I0J100000D01*
G01*
G37*
G36*
G01*
X106680000Y-93755000D02*
X106680000Y-92305000D01*
G75*
G02*
X106780000Y-92205000I100000J0D01*
G01*
X106980000Y-92205000D01*
G75*
G02*
X107080000Y-92305000I0J-100000D01*
G01*
X107080000Y-93755000D01*
G75*
G02*
X106980000Y-93855000I-100000J0D01*
G01*
X106780000Y-93855000D01*
G75*
G02*
X106680000Y-93755000I0J100000D01*
G01*
G37*
G36*
G01*
X106180000Y-93755000D02*
X106180000Y-92305000D01*
G75*
G02*
X106280000Y-92205000I100000J0D01*
G01*
X106480000Y-92205000D01*
G75*
G02*
X106580000Y-92305000I0J-100000D01*
G01*
X106580000Y-93755000D01*
G75*
G02*
X106480000Y-93855000I-100000J0D01*
G01*
X106280000Y-93855000D01*
G75*
G02*
X106180000Y-93755000I0J100000D01*
G01*
G37*
G36*
G01*
X105680000Y-93755000D02*
X105680000Y-92305000D01*
G75*
G02*
X105780000Y-92205000I100000J0D01*
G01*
X105980000Y-92205000D01*
G75*
G02*
X106080000Y-92305000I0J-100000D01*
G01*
X106080000Y-93755000D01*
G75*
G02*
X105980000Y-93855000I-100000J0D01*
G01*
X105780000Y-93855000D01*
G75*
G02*
X105680000Y-93755000I0J100000D01*
G01*
G37*
G36*
G01*
X105180000Y-93755000D02*
X105180000Y-92305000D01*
G75*
G02*
X105280000Y-92205000I100000J0D01*
G01*
X105480000Y-92205000D01*
G75*
G02*
X105580000Y-92305000I0J-100000D01*
G01*
X105580000Y-93755000D01*
G75*
G02*
X105480000Y-93855000I-100000J0D01*
G01*
X105280000Y-93855000D01*
G75*
G02*
X105180000Y-93755000I0J100000D01*
G01*
G37*
G36*
G01*
X104680000Y-93755000D02*
X104680000Y-92305000D01*
G75*
G02*
X104780000Y-92205000I100000J0D01*
G01*
X104980000Y-92205000D01*
G75*
G02*
X105080000Y-92305000I0J-100000D01*
G01*
X105080000Y-93755000D01*
G75*
G02*
X104980000Y-93855000I-100000J0D01*
G01*
X104780000Y-93855000D01*
G75*
G02*
X104680000Y-93755000I0J100000D01*
G01*
G37*
G36*
G01*
X104180000Y-93755000D02*
X104180000Y-92305000D01*
G75*
G02*
X104280000Y-92205000I100000J0D01*
G01*
X104480000Y-92205000D01*
G75*
G02*
X104580000Y-92305000I0J-100000D01*
G01*
X104580000Y-93755000D01*
G75*
G02*
X104480000Y-93855000I-100000J0D01*
G01*
X104280000Y-93855000D01*
G75*
G02*
X104180000Y-93755000I0J100000D01*
G01*
G37*
G36*
G01*
X103680000Y-93755000D02*
X103680000Y-92305000D01*
G75*
G02*
X103780000Y-92205000I100000J0D01*
G01*
X103980000Y-92205000D01*
G75*
G02*
X104080000Y-92305000I0J-100000D01*
G01*
X104080000Y-93755000D01*
G75*
G02*
X103980000Y-93855000I-100000J0D01*
G01*
X103780000Y-93855000D01*
G75*
G02*
X103680000Y-93755000I0J100000D01*
G01*
G37*
G36*
G01*
X103180000Y-93755000D02*
X103180000Y-92305000D01*
G75*
G02*
X103280000Y-92205000I100000J0D01*
G01*
X103480000Y-92205000D01*
G75*
G02*
X103580000Y-92305000I0J-100000D01*
G01*
X103580000Y-93755000D01*
G75*
G02*
X103480000Y-93855000I-100000J0D01*
G01*
X103280000Y-93855000D01*
G75*
G02*
X103180000Y-93755000I0J100000D01*
G01*
G37*
G36*
G01*
X102680000Y-93755000D02*
X102680000Y-92305000D01*
G75*
G02*
X102780000Y-92205000I100000J0D01*
G01*
X102980000Y-92205000D01*
G75*
G02*
X103080000Y-92305000I0J-100000D01*
G01*
X103080000Y-93755000D01*
G75*
G02*
X102980000Y-93855000I-100000J0D01*
G01*
X102780000Y-93855000D01*
G75*
G02*
X102680000Y-93755000I0J100000D01*
G01*
G37*
G36*
G01*
X102180000Y-93755000D02*
X102180000Y-92305000D01*
G75*
G02*
X102280000Y-92205000I100000J0D01*
G01*
X102480000Y-92205000D01*
G75*
G02*
X102580000Y-92305000I0J-100000D01*
G01*
X102580000Y-93755000D01*
G75*
G02*
X102480000Y-93855000I-100000J0D01*
G01*
X102280000Y-93855000D01*
G75*
G02*
X102180000Y-93755000I0J100000D01*
G01*
G37*
G36*
G01*
X101680000Y-93755000D02*
X101680000Y-92305000D01*
G75*
G02*
X101780000Y-92205000I100000J0D01*
G01*
X101980000Y-92205000D01*
G75*
G02*
X102080000Y-92305000I0J-100000D01*
G01*
X102080000Y-93755000D01*
G75*
G02*
X101980000Y-93855000I-100000J0D01*
G01*
X101780000Y-93855000D01*
G75*
G02*
X101680000Y-93755000I0J100000D01*
G01*
G37*
G36*
G01*
X101180000Y-93755000D02*
X101180000Y-92305000D01*
G75*
G02*
X101280000Y-92205000I100000J0D01*
G01*
X101480000Y-92205000D01*
G75*
G02*
X101580000Y-92305000I0J-100000D01*
G01*
X101580000Y-93755000D01*
G75*
G02*
X101480000Y-93855000I-100000J0D01*
G01*
X101280000Y-93855000D01*
G75*
G02*
X101180000Y-93755000I0J100000D01*
G01*
G37*
G36*
G01*
X100680000Y-93755000D02*
X100680000Y-92305000D01*
G75*
G02*
X100780000Y-92205000I100000J0D01*
G01*
X100980000Y-92205000D01*
G75*
G02*
X101080000Y-92305000I0J-100000D01*
G01*
X101080000Y-93755000D01*
G75*
G02*
X100980000Y-93855000I-100000J0D01*
G01*
X100780000Y-93855000D01*
G75*
G02*
X100680000Y-93755000I0J100000D01*
G01*
G37*
%TD*%
D19*
%TO.C,U3*%
X116100000Y-84420000D03*
X117050000Y-84420000D03*
X118000000Y-84420000D03*
X118000000Y-82220000D03*
X116100000Y-82220000D03*
%TD*%
D16*
%TO.C,J18*%
X109004100Y-80149700D03*
D15*
X111544100Y-80149700D03*
X109004100Y-82689700D03*
X111544100Y-82689700D03*
X109004100Y-85229700D03*
X111544100Y-85229700D03*
X109004100Y-87769700D03*
X111544100Y-87769700D03*
%TD*%
%TO.C,R8*%
G36*
G01*
X114017500Y-81610000D02*
X114542500Y-81610000D01*
G75*
G02*
X114805000Y-81872500I0J-262500D01*
G01*
X114805000Y-82497500D01*
G75*
G02*
X114542500Y-82760000I-262500J0D01*
G01*
X114017500Y-82760000D01*
G75*
G02*
X113755000Y-82497500I0J262500D01*
G01*
X113755000Y-81872500D01*
G75*
G02*
X114017500Y-81610000I262500J0D01*
G01*
G37*
G36*
G01*
X114017500Y-79860000D02*
X114542500Y-79860000D01*
G75*
G02*
X114805000Y-80122500I0J-262500D01*
G01*
X114805000Y-80747500D01*
G75*
G02*
X114542500Y-81010000I-262500J0D01*
G01*
X114017500Y-81010000D01*
G75*
G02*
X113755000Y-80747500I0J262500D01*
G01*
X113755000Y-80122500D01*
G75*
G02*
X114017500Y-79860000I262500J0D01*
G01*
G37*
%TD*%
%TO.C,R9*%
G36*
G01*
X103947900Y-87545140D02*
X103947900Y-87020140D01*
G75*
G02*
X104210400Y-86757640I262500J0D01*
G01*
X104835400Y-86757640D01*
G75*
G02*
X105097900Y-87020140I0J-262500D01*
G01*
X105097900Y-87545140D01*
G75*
G02*
X104835400Y-87807640I-262500J0D01*
G01*
X104210400Y-87807640D01*
G75*
G02*
X103947900Y-87545140I0J262500D01*
G01*
G37*
G36*
G01*
X105697900Y-87545140D02*
X105697900Y-87020140D01*
G75*
G02*
X105960400Y-86757640I262500J0D01*
G01*
X106585400Y-86757640D01*
G75*
G02*
X106847900Y-87020140I0J-262500D01*
G01*
X106847900Y-87545140D01*
G75*
G02*
X106585400Y-87807640I-262500J0D01*
G01*
X105960400Y-87807640D01*
G75*
G02*
X105697900Y-87545140I0J262500D01*
G01*
G37*
%TD*%
D20*
%TO.C,U6*%
X98017500Y-92170000D03*
X98842500Y-92170000D03*
%TD*%
D21*
%TO.C,U4*%
X95480000Y-98090000D03*
X95480000Y-96390000D03*
X94180000Y-96390000D03*
X94180000Y-98090000D03*
%TD*%
D15*
%TO.C,J14*%
X97840800Y-79908400D03*
D16*
X97840800Y-82448400D03*
%TD*%
%TO.C,J16*%
X94157800Y-82448400D03*
D15*
X94157800Y-79908400D03*
%TD*%
D22*
%TO.C,H1*%
X90093800Y-113131600D03*
%TD*%
%TO.C,H2*%
X123291600Y-113131600D03*
%TD*%
%TO.C,H3*%
X90017600Y-79895700D03*
%TD*%
D14*
%TO.C,J1*%
X89865200Y-108343700D03*
%TD*%
%TO.C,J2*%
X89674700Y-103479600D03*
%TD*%
%TO.C,J4*%
X123616900Y-91965200D03*
%TD*%
%TO.C,J5*%
X115996900Y-95775200D03*
%TD*%
%TO.C,J6*%
X115996900Y-107205200D03*
%TD*%
%TO.C,J7*%
X115996900Y-99585200D03*
%TD*%
%TO.C,J8*%
X115996900Y-91965200D03*
%TD*%
%TO.C,J9*%
X123616900Y-103395200D03*
%TD*%
%TO.C,J10*%
X123616900Y-95775200D03*
%TD*%
%TO.C,J11*%
X123616900Y-107205200D03*
%TD*%
%TO.C,J12*%
X123616900Y-99585200D03*
%TD*%
%TO.C,J15*%
X115996900Y-103395200D03*
%TD*%
%TO.C,R22*%
G36*
G01*
X117154620Y-113184060D02*
X117154620Y-113709060D01*
G75*
G02*
X116892120Y-113971560I-262500J0D01*
G01*
X116267120Y-113971560D01*
G75*
G02*
X116004620Y-113709060I0J262500D01*
G01*
X116004620Y-113184060D01*
G75*
G02*
X116267120Y-112921560I262500J0D01*
G01*
X116892120Y-112921560D01*
G75*
G02*
X117154620Y-113184060I0J-262500D01*
G01*
G37*
G36*
G01*
X115404620Y-113184060D02*
X115404620Y-113709060D01*
G75*
G02*
X115142120Y-113971560I-262500J0D01*
G01*
X114517120Y-113971560D01*
G75*
G02*
X114254620Y-113709060I0J262500D01*
G01*
X114254620Y-113184060D01*
G75*
G02*
X114517120Y-112921560I262500J0D01*
G01*
X115142120Y-112921560D01*
G75*
G02*
X115404620Y-113184060I0J-262500D01*
G01*
G37*
%TD*%
%TO.C,R23*%
G36*
G01*
X115487140Y-111489880D02*
X115487140Y-112014880D01*
G75*
G02*
X115224640Y-112277380I-262500J0D01*
G01*
X114599640Y-112277380D01*
G75*
G02*
X114337140Y-112014880I0J262500D01*
G01*
X114337140Y-111489880D01*
G75*
G02*
X114599640Y-111227380I262500J0D01*
G01*
X115224640Y-111227380D01*
G75*
G02*
X115487140Y-111489880I0J-262500D01*
G01*
G37*
G36*
G01*
X117237140Y-111489880D02*
X117237140Y-112014880D01*
G75*
G02*
X116974640Y-112277380I-262500J0D01*
G01*
X116349640Y-112277380D01*
G75*
G02*
X116087140Y-112014880I0J262500D01*
G01*
X116087140Y-111489880D01*
G75*
G02*
X116349640Y-111227380I262500J0D01*
G01*
X116974640Y-111227380D01*
G75*
G02*
X117237140Y-111489880I0J-262500D01*
G01*
G37*
%TD*%
%TO.C,R24*%
G36*
G01*
X111299380Y-107457580D02*
X111824380Y-107457580D01*
G75*
G02*
X112086880Y-107720080I0J-262500D01*
G01*
X112086880Y-108345080D01*
G75*
G02*
X111824380Y-108607580I-262500J0D01*
G01*
X111299380Y-108607580D01*
G75*
G02*
X111036880Y-108345080I0J262500D01*
G01*
X111036880Y-107720080D01*
G75*
G02*
X111299380Y-107457580I262500J0D01*
G01*
G37*
G36*
G01*
X111299380Y-109207580D02*
X111824380Y-109207580D01*
G75*
G02*
X112086880Y-109470080I0J-262500D01*
G01*
X112086880Y-110095080D01*
G75*
G02*
X111824380Y-110357580I-262500J0D01*
G01*
X111299380Y-110357580D01*
G75*
G02*
X111036880Y-110095080I0J262500D01*
G01*
X111036880Y-109470080D01*
G75*
G02*
X111299380Y-109207580I262500J0D01*
G01*
G37*
%TD*%
%TO.C,R25*%
G36*
G01*
X117166020Y-109869360D02*
X117166020Y-110394360D01*
G75*
G02*
X116903520Y-110656860I-262500J0D01*
G01*
X116278520Y-110656860D01*
G75*
G02*
X116016020Y-110394360I0J262500D01*
G01*
X116016020Y-109869360D01*
G75*
G02*
X116278520Y-109606860I262500J0D01*
G01*
X116903520Y-109606860D01*
G75*
G02*
X117166020Y-109869360I0J-262500D01*
G01*
G37*
G36*
G01*
X115416020Y-109869360D02*
X115416020Y-110394360D01*
G75*
G02*
X115153520Y-110656860I-262500J0D01*
G01*
X114528520Y-110656860D01*
G75*
G02*
X114266020Y-110394360I0J262500D01*
G01*
X114266020Y-109869360D01*
G75*
G02*
X114528520Y-109606860I262500J0D01*
G01*
X115153520Y-109606860D01*
G75*
G02*
X115416020Y-109869360I0J-262500D01*
G01*
G37*
%TD*%
%TO.C,R26*%
G36*
G01*
X112884340Y-110127060D02*
X113409340Y-110127060D01*
G75*
G02*
X113671840Y-110389560I0J-262500D01*
G01*
X113671840Y-111014560D01*
G75*
G02*
X113409340Y-111277060I-262500J0D01*
G01*
X112884340Y-111277060D01*
G75*
G02*
X112621840Y-111014560I0J262500D01*
G01*
X112621840Y-110389560D01*
G75*
G02*
X112884340Y-110127060I262500J0D01*
G01*
G37*
G36*
G01*
X112884340Y-108377060D02*
X113409340Y-108377060D01*
G75*
G02*
X113671840Y-108639560I0J-262500D01*
G01*
X113671840Y-109264560D01*
G75*
G02*
X113409340Y-109527060I-262500J0D01*
G01*
X112884340Y-109527060D01*
G75*
G02*
X112621840Y-109264560I0J262500D01*
G01*
X112621840Y-108639560D01*
G75*
G02*
X112884340Y-108377060I262500J0D01*
G01*
G37*
%TD*%
D23*
%TO.C,FID1*%
X89484200Y-83566000D03*
%TD*%
%TO.C,FID2*%
X93840300Y-113868200D03*
%TD*%
%TO.C,FID3*%
X119621300Y-114147600D03*
%TD*%
M02*
