M48
; DRILL file {KiCad (5.1.6-0-10_14)} date Thursday, July 07, 2022 at 11:15:14 PM
; FORMAT={-:-/ absolute / metric / decimal}
; #@! TF.CreationDate,2022-07-07T23:15:14-05:00
; #@! TF.GenerationSoftware,Kicad,Pcbnew,(5.1.6-0-10_14)
; #@! TF.FileFunction,Plated,1,4,PTH
FMAT,2
METRIC
T1C0.400
T2C1.000
T3C1.300
T4C2.500
%
G90
G05
T1
X90.856Y-99.53
X91.3Y-110.439
X92.837Y-95.491
X92.865Y-92.875
X92.9Y-99.098
X93.543Y-111.854
X94.209Y-91.288
X94.469Y-89.478
X95.415Y-102.883
X96.73Y-98.01
X96.81Y-96.53
X96.992Y-94.892
X97.053Y-99.466
X98.225Y-93.965
X99.36Y-109.83
X99.96Y-92.59
X100.01Y-104.89
X100.506Y-95.455
X100.825Y-87.058
X100.88Y-114.22
X101.013Y-99.454
X101.34Y-109.92
X101.38Y-102.54
X102.565Y-110.49
X102.679Y-94.551
X102.773Y-111.684
X103.721Y-112.319
X103.78Y-90.5
X103.975Y-78.689
X104.2Y-101.16
X104.9Y-95.1
X105.484Y-84.409
X105.63Y-106.1
X105.727Y-102.26
X106.02Y-110.376
X106.655Y-101.232
X107.218Y-110.005
X107.63Y-106.92
X107.937Y-97.117
X107.95Y-100.63
X107.99Y-102.52
X108.38Y-96.01
X109.271Y-93.739
X110.68Y-104.8
X110.89Y-93.66
X111.722Y-112.662
X111.97Y-99.955
X112.154Y-101.575
X112.281Y-93.675
X112.979Y-89.126
X113.284Y-112.903
X115.964Y-114.63
X118.201Y-110.132
X119.18Y-80.67
X120.513Y-111.237
T2
X97.841Y-79.908
X97.841Y-82.448
X94.158Y-79.908
X94.158Y-82.448
X109.004Y-80.15
X109.004Y-82.69
X109.004Y-85.23
X109.004Y-87.77
X111.544Y-80.15
X111.544Y-82.69
X111.544Y-85.23
X111.544Y-87.77
X97.309Y-105.288
X97.309Y-107.828
X97.309Y-110.368
X97.309Y-112.908
X105.301Y-80.15
X105.301Y-82.69
T3
X89.675Y-103.48
X119.807Y-99.585
X115.997Y-107.205
X119.807Y-103.395
X123.617Y-103.395
X123.617Y-91.965
X115.997Y-103.395
X115.997Y-99.585
X119.807Y-95.775
X123.617Y-95.775
X123.617Y-107.205
X89.865Y-108.344
X115.997Y-95.775
X119.807Y-107.205
X115.997Y-91.965
X119.807Y-91.965
X123.617Y-99.585
T4
X122.491Y-86.703
X122.555Y-80.988
T0
M30
