%TF.GenerationSoftware,KiCad,Pcbnew,(5.1.6-0-10_14)*%
%TF.CreationDate,2022-05-06T10:42:22-05:00*%
%TF.ProjectId,small_led_driver,736d616c-6c5f-46c6-9564-5f6472697665,rev?*%
%TF.SameCoordinates,Original*%
%TF.FileFunction,Copper,L1,Top*%
%TF.FilePolarity,Positive*%
%FSLAX46Y46*%
G04 Gerber Fmt 4.6, Leading zero omitted, Abs format (unit mm)*
G04 Created by KiCad (PCBNEW (5.1.6-0-10_14)) date 2022-05-06 10:42:22*
%MOMM*%
%LPD*%
G01*
G04 APERTURE LIST*
%TA.AperFunction,ComponentPad*%
%ADD10R,1.700000X1.700000*%
%TD*%
%TA.AperFunction,ComponentPad*%
%ADD11O,1.700000X1.700000*%
%TD*%
%TA.AperFunction,ComponentPad*%
%ADD12C,2.600000*%
%TD*%
%TA.AperFunction,ComponentPad*%
%ADD13C,5.000000*%
%TD*%
%TA.AperFunction,SMDPad,CuDef*%
%ADD14R,0.900000X0.800000*%
%TD*%
%TA.AperFunction,SMDPad,CuDef*%
%ADD15R,0.650000X1.060000*%
%TD*%
%TA.AperFunction,SMDPad,CuDef*%
%ADD16R,0.575000X1.140000*%
%TD*%
%TA.AperFunction,SMDPad,CuDef*%
%ADD17R,1.000000X1.200000*%
%TD*%
%TA.AperFunction,ViaPad*%
%ADD18C,0.800000*%
%TD*%
%TA.AperFunction,Conductor*%
%ADD19C,0.750000*%
%TD*%
%TA.AperFunction,Conductor*%
%ADD20C,0.250000*%
%TD*%
%TA.AperFunction,Conductor*%
%ADD21C,1.000000*%
%TD*%
%TA.AperFunction,Conductor*%
%ADD22C,0.500000*%
%TD*%
G04 APERTURE END LIST*
%TO.P,C1,2*%
%TO.N,GND1*%
%TA.AperFunction,SMDPad,CuDef*%
G36*
G01*
X95292500Y-101075000D02*
X95767500Y-101075000D01*
G75*
G02*
X96005000Y-101312500I0J-237500D01*
G01*
X96005000Y-101887500D01*
G75*
G02*
X95767500Y-102125000I-237500J0D01*
G01*
X95292500Y-102125000D01*
G75*
G02*
X95055000Y-101887500I0J237500D01*
G01*
X95055000Y-101312500D01*
G75*
G02*
X95292500Y-101075000I237500J0D01*
G01*
G37*
%TD.AperFunction*%
%TO.P,C1,1*%
%TO.N,/OSC48_LO*%
%TA.AperFunction,SMDPad,CuDef*%
G36*
G01*
X95292500Y-99325000D02*
X95767500Y-99325000D01*
G75*
G02*
X96005000Y-99562500I0J-237500D01*
G01*
X96005000Y-100137500D01*
G75*
G02*
X95767500Y-100375000I-237500J0D01*
G01*
X95292500Y-100375000D01*
G75*
G02*
X95055000Y-100137500I0J237500D01*
G01*
X95055000Y-99562500D01*
G75*
G02*
X95292500Y-99325000I237500J0D01*
G01*
G37*
%TD.AperFunction*%
%TD*%
%TO.P,C2,1*%
%TO.N,/OSC48_HI*%
%TA.AperFunction,SMDPad,CuDef*%
G36*
G01*
X94377500Y-95150000D02*
X93902500Y-95150000D01*
G75*
G02*
X93665000Y-94912500I0J237500D01*
G01*
X93665000Y-94337500D01*
G75*
G02*
X93902500Y-94100000I237500J0D01*
G01*
X94377500Y-94100000D01*
G75*
G02*
X94615000Y-94337500I0J-237500D01*
G01*
X94615000Y-94912500D01*
G75*
G02*
X94377500Y-95150000I-237500J0D01*
G01*
G37*
%TD.AperFunction*%
%TO.P,C2,2*%
%TO.N,GND1*%
%TA.AperFunction,SMDPad,CuDef*%
G36*
G01*
X94377500Y-93400000D02*
X93902500Y-93400000D01*
G75*
G02*
X93665000Y-93162500I0J237500D01*
G01*
X93665000Y-92587500D01*
G75*
G02*
X93902500Y-92350000I237500J0D01*
G01*
X94377500Y-92350000D01*
G75*
G02*
X94615000Y-92587500I0J-237500D01*
G01*
X94615000Y-93162500D01*
G75*
G02*
X94377500Y-93400000I-237500J0D01*
G01*
G37*
%TD.AperFunction*%
%TD*%
%TO.P,C3,1*%
%TO.N,Net-(C3-Pad1)*%
%TA.AperFunction,SMDPad,CuDef*%
G36*
G01*
X97927500Y-90935000D02*
X97452500Y-90935000D01*
G75*
G02*
X97215000Y-90697500I0J237500D01*
G01*
X97215000Y-90122500D01*
G75*
G02*
X97452500Y-89885000I237500J0D01*
G01*
X97927500Y-89885000D01*
G75*
G02*
X98165000Y-90122500I0J-237500D01*
G01*
X98165000Y-90697500D01*
G75*
G02*
X97927500Y-90935000I-237500J0D01*
G01*
G37*
%TD.AperFunction*%
%TO.P,C3,2*%
%TO.N,GND1*%
%TA.AperFunction,SMDPad,CuDef*%
G36*
G01*
X97927500Y-89185000D02*
X97452500Y-89185000D01*
G75*
G02*
X97215000Y-88947500I0J237500D01*
G01*
X97215000Y-88372500D01*
G75*
G02*
X97452500Y-88135000I237500J0D01*
G01*
X97927500Y-88135000D01*
G75*
G02*
X98165000Y-88372500I0J-237500D01*
G01*
X98165000Y-88947500D01*
G75*
G02*
X97927500Y-89185000I-237500J0D01*
G01*
G37*
%TD.AperFunction*%
%TD*%
%TO.P,C4,2*%
%TO.N,GND1*%
%TA.AperFunction,SMDPad,CuDef*%
G36*
G01*
X99517500Y-89195000D02*
X99042500Y-89195000D01*
G75*
G02*
X98805000Y-88957500I0J237500D01*
G01*
X98805000Y-88382500D01*
G75*
G02*
X99042500Y-88145000I237500J0D01*
G01*
X99517500Y-88145000D01*
G75*
G02*
X99755000Y-88382500I0J-237500D01*
G01*
X99755000Y-88957500D01*
G75*
G02*
X99517500Y-89195000I-237500J0D01*
G01*
G37*
%TD.AperFunction*%
%TO.P,C4,1*%
%TO.N,Net-(C4-Pad1)*%
%TA.AperFunction,SMDPad,CuDef*%
G36*
G01*
X99517500Y-90945000D02*
X99042500Y-90945000D01*
G75*
G02*
X98805000Y-90707500I0J237500D01*
G01*
X98805000Y-90132500D01*
G75*
G02*
X99042500Y-89895000I237500J0D01*
G01*
X99517500Y-89895000D01*
G75*
G02*
X99755000Y-90132500I0J-237500D01*
G01*
X99755000Y-90707500D01*
G75*
G02*
X99517500Y-90945000I-237500J0D01*
G01*
G37*
%TD.AperFunction*%
%TD*%
%TO.P,C5,1*%
%TO.N,+3V3*%
%TA.AperFunction,SMDPad,CuDef*%
G36*
G01*
X109212500Y-107990000D02*
X109687500Y-107990000D01*
G75*
G02*
X109925000Y-108227500I0J-237500D01*
G01*
X109925000Y-108802500D01*
G75*
G02*
X109687500Y-109040000I-237500J0D01*
G01*
X109212500Y-109040000D01*
G75*
G02*
X108975000Y-108802500I0J237500D01*
G01*
X108975000Y-108227500D01*
G75*
G02*
X109212500Y-107990000I237500J0D01*
G01*
G37*
%TD.AperFunction*%
%TO.P,C5,2*%
%TO.N,GND1*%
%TA.AperFunction,SMDPad,CuDef*%
G36*
G01*
X109212500Y-109740000D02*
X109687500Y-109740000D01*
G75*
G02*
X109925000Y-109977500I0J-237500D01*
G01*
X109925000Y-110552500D01*
G75*
G02*
X109687500Y-110790000I-237500J0D01*
G01*
X109212500Y-110790000D01*
G75*
G02*
X108975000Y-110552500I0J237500D01*
G01*
X108975000Y-109977500D01*
G75*
G02*
X109212500Y-109740000I237500J0D01*
G01*
G37*
%TD.AperFunction*%
%TD*%
%TO.P,C6,1*%
%TO.N,/NRST*%
%TA.AperFunction,SMDPad,CuDef*%
G36*
G01*
X89240000Y-93077500D02*
X89240000Y-92602500D01*
G75*
G02*
X89477500Y-92365000I237500J0D01*
G01*
X90052500Y-92365000D01*
G75*
G02*
X90290000Y-92602500I0J-237500D01*
G01*
X90290000Y-93077500D01*
G75*
G02*
X90052500Y-93315000I-237500J0D01*
G01*
X89477500Y-93315000D01*
G75*
G02*
X89240000Y-93077500I0J237500D01*
G01*
G37*
%TD.AperFunction*%
%TO.P,C6,2*%
%TO.N,GND1*%
%TA.AperFunction,SMDPad,CuDef*%
G36*
G01*
X90990000Y-93077500D02*
X90990000Y-92602500D01*
G75*
G02*
X91227500Y-92365000I237500J0D01*
G01*
X91802500Y-92365000D01*
G75*
G02*
X92040000Y-92602500I0J-237500D01*
G01*
X92040000Y-93077500D01*
G75*
G02*
X91802500Y-93315000I-237500J0D01*
G01*
X91227500Y-93315000D01*
G75*
G02*
X90990000Y-93077500I0J237500D01*
G01*
G37*
%TD.AperFunction*%
%TD*%
%TO.P,C7,2*%
%TO.N,GND1*%
%TA.AperFunction,SMDPad,CuDef*%
G36*
G01*
X110595000Y-113537500D02*
X110595000Y-113062500D01*
G75*
G02*
X110832500Y-112825000I237500J0D01*
G01*
X111407500Y-112825000D01*
G75*
G02*
X111645000Y-113062500I0J-237500D01*
G01*
X111645000Y-113537500D01*
G75*
G02*
X111407500Y-113775000I-237500J0D01*
G01*
X110832500Y-113775000D01*
G75*
G02*
X110595000Y-113537500I0J237500D01*
G01*
G37*
%TD.AperFunction*%
%TO.P,C7,1*%
%TO.N,+5V*%
%TA.AperFunction,SMDPad,CuDef*%
G36*
G01*
X108845000Y-113537500D02*
X108845000Y-113062500D01*
G75*
G02*
X109082500Y-112825000I237500J0D01*
G01*
X109657500Y-112825000D01*
G75*
G02*
X109895000Y-113062500I0J-237500D01*
G01*
X109895000Y-113537500D01*
G75*
G02*
X109657500Y-113775000I-237500J0D01*
G01*
X109082500Y-113775000D01*
G75*
G02*
X108845000Y-113537500I0J237500D01*
G01*
G37*
%TD.AperFunction*%
%TD*%
%TO.P,C8,1*%
%TO.N,+3V3*%
%TA.AperFunction,SMDPad,CuDef*%
G36*
G01*
X101117500Y-90955000D02*
X100642500Y-90955000D01*
G75*
G02*
X100405000Y-90717500I0J237500D01*
G01*
X100405000Y-90142500D01*
G75*
G02*
X100642500Y-89905000I237500J0D01*
G01*
X101117500Y-89905000D01*
G75*
G02*
X101355000Y-90142500I0J-237500D01*
G01*
X101355000Y-90717500D01*
G75*
G02*
X101117500Y-90955000I-237500J0D01*
G01*
G37*
%TD.AperFunction*%
%TO.P,C8,2*%
%TO.N,GND1*%
%TA.AperFunction,SMDPad,CuDef*%
G36*
G01*
X101117500Y-89205000D02*
X100642500Y-89205000D01*
G75*
G02*
X100405000Y-88967500I0J237500D01*
G01*
X100405000Y-88392500D01*
G75*
G02*
X100642500Y-88155000I237500J0D01*
G01*
X101117500Y-88155000D01*
G75*
G02*
X101355000Y-88392500I0J-237500D01*
G01*
X101355000Y-88967500D01*
G75*
G02*
X101117500Y-89205000I-237500J0D01*
G01*
G37*
%TD.AperFunction*%
%TD*%
%TO.P,C9,2*%
%TO.N,GND1*%
%TA.AperFunction,SMDPad,CuDef*%
G36*
G01*
X103475000Y-106637500D02*
X103475000Y-106162500D01*
G75*
G02*
X103712500Y-105925000I237500J0D01*
G01*
X104287500Y-105925000D01*
G75*
G02*
X104525000Y-106162500I0J-237500D01*
G01*
X104525000Y-106637500D01*
G75*
G02*
X104287500Y-106875000I-237500J0D01*
G01*
X103712500Y-106875000D01*
G75*
G02*
X103475000Y-106637500I0J237500D01*
G01*
G37*
%TD.AperFunction*%
%TO.P,C9,1*%
%TO.N,+3V3*%
%TA.AperFunction,SMDPad,CuDef*%
G36*
G01*
X101725000Y-106637500D02*
X101725000Y-106162500D01*
G75*
G02*
X101962500Y-105925000I237500J0D01*
G01*
X102537500Y-105925000D01*
G75*
G02*
X102775000Y-106162500I0J-237500D01*
G01*
X102775000Y-106637500D01*
G75*
G02*
X102537500Y-106875000I-237500J0D01*
G01*
X101962500Y-106875000D01*
G75*
G02*
X101725000Y-106637500I0J237500D01*
G01*
G37*
%TD.AperFunction*%
%TD*%
%TO.P,C10,1*%
%TO.N,+3V3*%
%TA.AperFunction,SMDPad,CuDef*%
G36*
G01*
X108405000Y-106557500D02*
X108405000Y-106082500D01*
G75*
G02*
X108642500Y-105845000I237500J0D01*
G01*
X109217500Y-105845000D01*
G75*
G02*
X109455000Y-106082500I0J-237500D01*
G01*
X109455000Y-106557500D01*
G75*
G02*
X109217500Y-106795000I-237500J0D01*
G01*
X108642500Y-106795000D01*
G75*
G02*
X108405000Y-106557500I0J237500D01*
G01*
G37*
%TD.AperFunction*%
%TO.P,C10,2*%
%TO.N,GND1*%
%TA.AperFunction,SMDPad,CuDef*%
G36*
G01*
X110155000Y-106557500D02*
X110155000Y-106082500D01*
G75*
G02*
X110392500Y-105845000I237500J0D01*
G01*
X110967500Y-105845000D01*
G75*
G02*
X111205000Y-106082500I0J-237500D01*
G01*
X111205000Y-106557500D01*
G75*
G02*
X110967500Y-106795000I-237500J0D01*
G01*
X110392500Y-106795000D01*
G75*
G02*
X110155000Y-106557500I0J237500D01*
G01*
G37*
%TD.AperFunction*%
%TD*%
%TO.P,C11,2*%
%TO.N,GND1*%
%TA.AperFunction,SMDPad,CuDef*%
G36*
G01*
X99772500Y-107535000D02*
X100247500Y-107535000D01*
G75*
G02*
X100485000Y-107772500I0J-237500D01*
G01*
X100485000Y-108347500D01*
G75*
G02*
X100247500Y-108585000I-237500J0D01*
G01*
X99772500Y-108585000D01*
G75*
G02*
X99535000Y-108347500I0J237500D01*
G01*
X99535000Y-107772500D01*
G75*
G02*
X99772500Y-107535000I237500J0D01*
G01*
G37*
%TD.AperFunction*%
%TO.P,C11,1*%
%TO.N,+3V3*%
%TA.AperFunction,SMDPad,CuDef*%
G36*
G01*
X99772500Y-105785000D02*
X100247500Y-105785000D01*
G75*
G02*
X100485000Y-106022500I0J-237500D01*
G01*
X100485000Y-106597500D01*
G75*
G02*
X100247500Y-106835000I-237500J0D01*
G01*
X99772500Y-106835000D01*
G75*
G02*
X99535000Y-106597500I0J237500D01*
G01*
X99535000Y-106022500D01*
G75*
G02*
X99772500Y-105785000I237500J0D01*
G01*
G37*
%TD.AperFunction*%
%TD*%
%TO.P,C12,1*%
%TO.N,+3V3*%
%TA.AperFunction,SMDPad,CuDef*%
G36*
G01*
X102747500Y-90960000D02*
X102272500Y-90960000D01*
G75*
G02*
X102035000Y-90722500I0J237500D01*
G01*
X102035000Y-90147500D01*
G75*
G02*
X102272500Y-89910000I237500J0D01*
G01*
X102747500Y-89910000D01*
G75*
G02*
X102985000Y-90147500I0J-237500D01*
G01*
X102985000Y-90722500D01*
G75*
G02*
X102747500Y-90960000I-237500J0D01*
G01*
G37*
%TD.AperFunction*%
%TO.P,C12,2*%
%TO.N,GND1*%
%TA.AperFunction,SMDPad,CuDef*%
G36*
G01*
X102747500Y-89210000D02*
X102272500Y-89210000D01*
G75*
G02*
X102035000Y-88972500I0J237500D01*
G01*
X102035000Y-88397500D01*
G75*
G02*
X102272500Y-88160000I237500J0D01*
G01*
X102747500Y-88160000D01*
G75*
G02*
X102985000Y-88397500I0J-237500D01*
G01*
X102985000Y-88972500D01*
G75*
G02*
X102747500Y-89210000I-237500J0D01*
G01*
G37*
%TD.AperFunction*%
%TD*%
%TO.P,C13,2*%
%TO.N,GND1*%
%TA.AperFunction,SMDPad,CuDef*%
G36*
G01*
X117220000Y-80637500D02*
X117220000Y-80162500D01*
G75*
G02*
X117457500Y-79925000I237500J0D01*
G01*
X118032500Y-79925000D01*
G75*
G02*
X118270000Y-80162500I0J-237500D01*
G01*
X118270000Y-80637500D01*
G75*
G02*
X118032500Y-80875000I-237500J0D01*
G01*
X117457500Y-80875000D01*
G75*
G02*
X117220000Y-80637500I0J237500D01*
G01*
G37*
%TD.AperFunction*%
%TO.P,C13,1*%
%TO.N,+3V3*%
%TA.AperFunction,SMDPad,CuDef*%
G36*
G01*
X115470000Y-80637500D02*
X115470000Y-80162500D01*
G75*
G02*
X115707500Y-79925000I237500J0D01*
G01*
X116282500Y-79925000D01*
G75*
G02*
X116520000Y-80162500I0J-237500D01*
G01*
X116520000Y-80637500D01*
G75*
G02*
X116282500Y-80875000I-237500J0D01*
G01*
X115707500Y-80875000D01*
G75*
G02*
X115470000Y-80637500I0J237500D01*
G01*
G37*
%TD.AperFunction*%
%TD*%
%TO.P,C14,2*%
%TO.N,GND1*%
%TA.AperFunction,SMDPad,CuDef*%
G36*
G01*
X118112500Y-87495000D02*
X118587500Y-87495000D01*
G75*
G02*
X118825000Y-87732500I0J-237500D01*
G01*
X118825000Y-88307500D01*
G75*
G02*
X118587500Y-88545000I-237500J0D01*
G01*
X118112500Y-88545000D01*
G75*
G02*
X117875000Y-88307500I0J237500D01*
G01*
X117875000Y-87732500D01*
G75*
G02*
X118112500Y-87495000I237500J0D01*
G01*
G37*
%TD.AperFunction*%
%TO.P,C14,1*%
%TO.N,+5V*%
%TA.AperFunction,SMDPad,CuDef*%
G36*
G01*
X118112500Y-85745000D02*
X118587500Y-85745000D01*
G75*
G02*
X118825000Y-85982500I0J-237500D01*
G01*
X118825000Y-86557500D01*
G75*
G02*
X118587500Y-86795000I-237500J0D01*
G01*
X118112500Y-86795000D01*
G75*
G02*
X117875000Y-86557500I0J237500D01*
G01*
X117875000Y-85982500D01*
G75*
G02*
X118112500Y-85745000I237500J0D01*
G01*
G37*
%TD.AperFunction*%
%TD*%
%TO.P,C15,1*%
%TO.N,+3V3*%
%TA.AperFunction,SMDPad,CuDef*%
G36*
G01*
X114640000Y-93162500D02*
X114640000Y-93637500D01*
G75*
G02*
X114402500Y-93875000I-237500J0D01*
G01*
X113827500Y-93875000D01*
G75*
G02*
X113590000Y-93637500I0J237500D01*
G01*
X113590000Y-93162500D01*
G75*
G02*
X113827500Y-92925000I237500J0D01*
G01*
X114402500Y-92925000D01*
G75*
G02*
X114640000Y-93162500I0J-237500D01*
G01*
G37*
%TD.AperFunction*%
%TO.P,C15,2*%
%TO.N,GND1*%
%TA.AperFunction,SMDPad,CuDef*%
G36*
G01*
X112890000Y-93162500D02*
X112890000Y-93637500D01*
G75*
G02*
X112652500Y-93875000I-237500J0D01*
G01*
X112077500Y-93875000D01*
G75*
G02*
X111840000Y-93637500I0J237500D01*
G01*
X111840000Y-93162500D01*
G75*
G02*
X112077500Y-92925000I237500J0D01*
G01*
X112652500Y-92925000D01*
G75*
G02*
X112890000Y-93162500I0J-237500D01*
G01*
G37*
%TD.AperFunction*%
%TD*%
%TO.P,C16,2*%
%TO.N,GND1*%
%TA.AperFunction,SMDPad,CuDef*%
G36*
G01*
X112890000Y-91592500D02*
X112890000Y-92067500D01*
G75*
G02*
X112652500Y-92305000I-237500J0D01*
G01*
X112077500Y-92305000D01*
G75*
G02*
X111840000Y-92067500I0J237500D01*
G01*
X111840000Y-91592500D01*
G75*
G02*
X112077500Y-91355000I237500J0D01*
G01*
X112652500Y-91355000D01*
G75*
G02*
X112890000Y-91592500I0J-237500D01*
G01*
G37*
%TD.AperFunction*%
%TO.P,C16,1*%
%TO.N,+3V3*%
%TA.AperFunction,SMDPad,CuDef*%
G36*
G01*
X114640000Y-91592500D02*
X114640000Y-92067500D01*
G75*
G02*
X114402500Y-92305000I-237500J0D01*
G01*
X113827500Y-92305000D01*
G75*
G02*
X113590000Y-92067500I0J237500D01*
G01*
X113590000Y-91592500D01*
G75*
G02*
X113827500Y-91355000I237500J0D01*
G01*
X114402500Y-91355000D01*
G75*
G02*
X114640000Y-91592500I0J-237500D01*
G01*
G37*
%TD.AperFunction*%
%TD*%
%TO.P,C17,1*%
%TO.N,+3V3*%
%TA.AperFunction,SMDPad,CuDef*%
G36*
G01*
X114102500Y-84630000D02*
X114577500Y-84630000D01*
G75*
G02*
X114815000Y-84867500I0J-237500D01*
G01*
X114815000Y-85442500D01*
G75*
G02*
X114577500Y-85680000I-237500J0D01*
G01*
X114102500Y-85680000D01*
G75*
G02*
X113865000Y-85442500I0J237500D01*
G01*
X113865000Y-84867500D01*
G75*
G02*
X114102500Y-84630000I237500J0D01*
G01*
G37*
%TD.AperFunction*%
%TO.P,C17,2*%
%TO.N,GND1*%
%TA.AperFunction,SMDPad,CuDef*%
G36*
G01*
X114102500Y-86380000D02*
X114577500Y-86380000D01*
G75*
G02*
X114815000Y-86617500I0J-237500D01*
G01*
X114815000Y-87192500D01*
G75*
G02*
X114577500Y-87430000I-237500J0D01*
G01*
X114102500Y-87430000D01*
G75*
G02*
X113865000Y-87192500I0J237500D01*
G01*
X113865000Y-86617500D01*
G75*
G02*
X114102500Y-86380000I237500J0D01*
G01*
G37*
%TD.AperFunction*%
%TD*%
D10*
%TO.P,J1,1*%
%TO.N,/SPI1_MOSI*%
X118110000Y-95770000D03*
D11*
%TO.P,J1,2*%
%TO.N,/SPI1_MISO*%
X118110000Y-98310000D03*
%TO.P,J1,3*%
%TO.N,/SPI1_SCK*%
X118110000Y-100850000D03*
%TO.P,J1,4*%
%TO.N,/SPI1_CSN*%
X118110000Y-103390000D03*
%TD*%
%TO.P,J2,4*%
%TO.N,+5V*%
X121970000Y-95810000D03*
%TO.P,J2,3*%
%TO.N,/USART1_TX_SHIFT*%
X121970000Y-98350000D03*
%TO.P,J2,2*%
%TO.N,/USART1_RX_SHIFT*%
X121970000Y-100890000D03*
D10*
%TO.P,J2,1*%
%TO.N,GND1*%
X121970000Y-103430000D03*
%TD*%
D11*
%TO.P,J3,4*%
%TO.N,/WKUP2*%
X97309280Y-105287704D03*
%TO.P,J3,3*%
%TO.N,/WKUP1*%
X97309280Y-107827704D03*
%TO.P,J3,2*%
%TO.N,/WKUP4*%
X97309280Y-110367704D03*
D10*
%TO.P,J3,1*%
%TO.N,/WKUP3*%
X97309280Y-112907704D03*
%TD*%
D11*
%TO.P,J4,4*%
%TO.N,+3V3*%
X97340000Y-83240000D03*
%TO.P,J4,3*%
%TO.N,+5V*%
X94800000Y-83240000D03*
%TO.P,J4,2*%
%TO.N,GND1*%
X92260000Y-83240000D03*
D10*
%TO.P,J4,1*%
X89720000Y-83240000D03*
%TD*%
D12*
%TO.P,J5,1*%
%TO.N,+5V*%
X123190000Y-113030000D03*
%TD*%
%TO.P,J6,1*%
%TO.N,+5V*%
X123190000Y-109220000D03*
%TD*%
%TO.P,J7,1*%
%TO.N,+5V*%
X123190000Y-116840000D03*
%TD*%
%TO.P,J8,1*%
%TO.N,+5V*%
X123190000Y-120650000D03*
%TD*%
%TO.P,J9,1*%
%TO.N,GND1*%
X119380000Y-113030000D03*
%TD*%
%TO.P,J10,1*%
%TO.N,GND1*%
X119380000Y-109220000D03*
%TD*%
%TO.P,J11,1*%
%TO.N,GND1*%
X119380000Y-120650000D03*
%TD*%
%TO.P,J12,1*%
%TO.N,GND1*%
X119380000Y-116840000D03*
%TD*%
D10*
%TO.P,J13,1*%
%TO.N,/LED_OUT_2*%
X90170000Y-116840000D03*
D11*
%TO.P,J13,2*%
%TO.N,/LED_OUT_1*%
X92710000Y-116840000D03*
%TO.P,J13,3*%
%TO.N,/I2C2_SCL*%
X95250000Y-116840000D03*
%TO.P,J13,4*%
%TO.N,/I2C2_SDA*%
X97790000Y-116840000D03*
%TD*%
D10*
%TO.P,J15,1*%
%TO.N,/GPIO_3_SHIFT*%
X102382351Y-117684631D03*
D11*
%TO.P,J15,2*%
%TO.N,/GPIO_2_SHIFT*%
X104922351Y-117684631D03*
%TO.P,J15,3*%
%TO.N,/GPIO_1*%
X107462351Y-117684631D03*
%TO.P,J15,4*%
%TO.N,/GPIO_0*%
X110002351Y-117684631D03*
%TD*%
D13*
%TO.P,J20,1*%
%TO.N,+5V*%
X122490000Y-85310000D03*
%TD*%
%TO.P,J21,1*%
%TO.N,GND1*%
X122510000Y-91070000D03*
%TD*%
D14*
%TO.P,Q1,3*%
%TO.N,Net-(Q1-Pad3)*%
X89690000Y-97100000D03*
%TO.P,Q1,2*%
%TO.N,GND1*%
X91690000Y-96150000D03*
%TO.P,Q1,1*%
%TO.N,/LED_OUT_1*%
X91690000Y-98050000D03*
%TD*%
%TO.P,Q2,1*%
%TO.N,/LED_OUT_2*%
X93030000Y-101750000D03*
%TO.P,Q2,2*%
%TO.N,GND1*%
X93030000Y-99850000D03*
%TO.P,Q2,3*%
%TO.N,Net-(Q2-Pad3)*%
X91030000Y-100800000D03*
%TD*%
%TO.P,R1,2*%
%TO.N,/BOOT0*%
%TA.AperFunction,SMDPad,CuDef*%
G36*
G01*
X107600000Y-90897500D02*
X107600000Y-90422500D01*
G75*
G02*
X107837500Y-90185000I237500J0D01*
G01*
X108412500Y-90185000D01*
G75*
G02*
X108650000Y-90422500I0J-237500D01*
G01*
X108650000Y-90897500D01*
G75*
G02*
X108412500Y-91135000I-237500J0D01*
G01*
X107837500Y-91135000D01*
G75*
G02*
X107600000Y-90897500I0J237500D01*
G01*
G37*
%TD.AperFunction*%
%TO.P,R1,1*%
%TO.N,+3V3*%
%TA.AperFunction,SMDPad,CuDef*%
G36*
G01*
X105850000Y-90897500D02*
X105850000Y-90422500D01*
G75*
G02*
X106087500Y-90185000I237500J0D01*
G01*
X106662500Y-90185000D01*
G75*
G02*
X106900000Y-90422500I0J-237500D01*
G01*
X106900000Y-90897500D01*
G75*
G02*
X106662500Y-91135000I-237500J0D01*
G01*
X106087500Y-91135000D01*
G75*
G02*
X105850000Y-90897500I0J237500D01*
G01*
G37*
%TD.AperFunction*%
%TD*%
%TO.P,R2,1*%
%TO.N,/BOOT0*%
%TA.AperFunction,SMDPad,CuDef*%
G36*
G01*
X109492500Y-90175000D02*
X109967500Y-90175000D01*
G75*
G02*
X110205000Y-90412500I0J-237500D01*
G01*
X110205000Y-90987500D01*
G75*
G02*
X109967500Y-91225000I-237500J0D01*
G01*
X109492500Y-91225000D01*
G75*
G02*
X109255000Y-90987500I0J237500D01*
G01*
X109255000Y-90412500D01*
G75*
G02*
X109492500Y-90175000I237500J0D01*
G01*
G37*
%TD.AperFunction*%
%TO.P,R2,2*%
%TO.N,GND1*%
%TA.AperFunction,SMDPad,CuDef*%
G36*
G01*
X109492500Y-91925000D02*
X109967500Y-91925000D01*
G75*
G02*
X110205000Y-92162500I0J-237500D01*
G01*
X110205000Y-92737500D01*
G75*
G02*
X109967500Y-92975000I-237500J0D01*
G01*
X109492500Y-92975000D01*
G75*
G02*
X109255000Y-92737500I0J237500D01*
G01*
X109255000Y-92162500D01*
G75*
G02*
X109492500Y-91925000I237500J0D01*
G01*
G37*
%TD.AperFunction*%
%TD*%
%TO.P,R3,1*%
%TO.N,+3V3*%
%TA.AperFunction,SMDPad,CuDef*%
G36*
G01*
X95702500Y-90190000D02*
X96177500Y-90190000D01*
G75*
G02*
X96415000Y-90427500I0J-237500D01*
G01*
X96415000Y-91002500D01*
G75*
G02*
X96177500Y-91240000I-237500J0D01*
G01*
X95702500Y-91240000D01*
G75*
G02*
X95465000Y-91002500I0J237500D01*
G01*
X95465000Y-90427500D01*
G75*
G02*
X95702500Y-90190000I237500J0D01*
G01*
G37*
%TD.AperFunction*%
%TO.P,R3,2*%
%TO.N,/NRST*%
%TA.AperFunction,SMDPad,CuDef*%
G36*
G01*
X95702500Y-91940000D02*
X96177500Y-91940000D01*
G75*
G02*
X96415000Y-92177500I0J-237500D01*
G01*
X96415000Y-92752500D01*
G75*
G02*
X96177500Y-92990000I-237500J0D01*
G01*
X95702500Y-92990000D01*
G75*
G02*
X95465000Y-92752500I0J237500D01*
G01*
X95465000Y-92177500D01*
G75*
G02*
X95702500Y-91940000I237500J0D01*
G01*
G37*
%TD.AperFunction*%
%TD*%
%TO.P,R4,2*%
%TO.N,Net-(R4-Pad2)*%
%TA.AperFunction,SMDPad,CuDef*%
G36*
G01*
X112905000Y-94752500D02*
X112905000Y-95227500D01*
G75*
G02*
X112667500Y-95465000I-237500J0D01*
G01*
X112092500Y-95465000D01*
G75*
G02*
X111855000Y-95227500I0J237500D01*
G01*
X111855000Y-94752500D01*
G75*
G02*
X112092500Y-94515000I237500J0D01*
G01*
X112667500Y-94515000D01*
G75*
G02*
X112905000Y-94752500I0J-237500D01*
G01*
G37*
%TD.AperFunction*%
%TO.P,R4,1*%
%TO.N,+3V3*%
%TA.AperFunction,SMDPad,CuDef*%
G36*
G01*
X114655000Y-94752500D02*
X114655000Y-95227500D01*
G75*
G02*
X114417500Y-95465000I-237500J0D01*
G01*
X113842500Y-95465000D01*
G75*
G02*
X113605000Y-95227500I0J237500D01*
G01*
X113605000Y-94752500D01*
G75*
G02*
X113842500Y-94515000I237500J0D01*
G01*
X114417500Y-94515000D01*
G75*
G02*
X114655000Y-94752500I0J-237500D01*
G01*
G37*
%TD.AperFunction*%
%TD*%
%TO.P,R5,2*%
%TO.N,/SWDIO*%
%TA.AperFunction,SMDPad,CuDef*%
G36*
G01*
X101340000Y-86287500D02*
X101340000Y-85812500D01*
G75*
G02*
X101577500Y-85575000I237500J0D01*
G01*
X102152500Y-85575000D01*
G75*
G02*
X102390000Y-85812500I0J-237500D01*
G01*
X102390000Y-86287500D01*
G75*
G02*
X102152500Y-86525000I-237500J0D01*
G01*
X101577500Y-86525000D01*
G75*
G02*
X101340000Y-86287500I0J237500D01*
G01*
G37*
%TD.AperFunction*%
%TO.P,R5,1*%
%TO.N,+3V3*%
%TA.AperFunction,SMDPad,CuDef*%
G36*
G01*
X99590000Y-86287500D02*
X99590000Y-85812500D01*
G75*
G02*
X99827500Y-85575000I237500J0D01*
G01*
X100402500Y-85575000D01*
G75*
G02*
X100640000Y-85812500I0J-237500D01*
G01*
X100640000Y-86287500D01*
G75*
G02*
X100402500Y-86525000I-237500J0D01*
G01*
X99827500Y-86525000D01*
G75*
G02*
X99590000Y-86287500I0J237500D01*
G01*
G37*
%TD.AperFunction*%
%TD*%
%TO.P,R6,2*%
%TO.N,/WKUP2*%
%TA.AperFunction,SMDPad,CuDef*%
G36*
G01*
X91430000Y-104047500D02*
X91430000Y-103572500D01*
G75*
G02*
X91667500Y-103335000I237500J0D01*
G01*
X92242500Y-103335000D01*
G75*
G02*
X92480000Y-103572500I0J-237500D01*
G01*
X92480000Y-104047500D01*
G75*
G02*
X92242500Y-104285000I-237500J0D01*
G01*
X91667500Y-104285000D01*
G75*
G02*
X91430000Y-104047500I0J237500D01*
G01*
G37*
%TD.AperFunction*%
%TO.P,R6,1*%
%TO.N,+3V3*%
%TA.AperFunction,SMDPad,CuDef*%
G36*
G01*
X89680000Y-104047500D02*
X89680000Y-103572500D01*
G75*
G02*
X89917500Y-103335000I237500J0D01*
G01*
X90492500Y-103335000D01*
G75*
G02*
X90730000Y-103572500I0J-237500D01*
G01*
X90730000Y-104047500D01*
G75*
G02*
X90492500Y-104285000I-237500J0D01*
G01*
X89917500Y-104285000D01*
G75*
G02*
X89680000Y-104047500I0J237500D01*
G01*
G37*
%TD.AperFunction*%
%TD*%
%TO.P,R7,1*%
%TO.N,/WKUP2*%
%TA.AperFunction,SMDPad,CuDef*%
G36*
G01*
X92450000Y-105232500D02*
X92450000Y-105707500D01*
G75*
G02*
X92212500Y-105945000I-237500J0D01*
G01*
X91637500Y-105945000D01*
G75*
G02*
X91400000Y-105707500I0J237500D01*
G01*
X91400000Y-105232500D01*
G75*
G02*
X91637500Y-104995000I237500J0D01*
G01*
X92212500Y-104995000D01*
G75*
G02*
X92450000Y-105232500I0J-237500D01*
G01*
G37*
%TD.AperFunction*%
%TO.P,R7,2*%
%TO.N,GND1*%
%TA.AperFunction,SMDPad,CuDef*%
G36*
G01*
X90700000Y-105232500D02*
X90700000Y-105707500D01*
G75*
G02*
X90462500Y-105945000I-237500J0D01*
G01*
X89887500Y-105945000D01*
G75*
G02*
X89650000Y-105707500I0J237500D01*
G01*
X89650000Y-105232500D01*
G75*
G02*
X89887500Y-104995000I237500J0D01*
G01*
X90462500Y-104995000D01*
G75*
G02*
X90700000Y-105232500I0J-237500D01*
G01*
G37*
%TD.AperFunction*%
%TD*%
%TO.P,R10,2*%
%TO.N,/JTDO*%
%TA.AperFunction,SMDPad,CuDef*%
G36*
G01*
X114915000Y-88322500D02*
X114915000Y-88797500D01*
G75*
G02*
X114677500Y-89035000I-237500J0D01*
G01*
X114102500Y-89035000D01*
G75*
G02*
X113865000Y-88797500I0J237500D01*
G01*
X113865000Y-88322500D01*
G75*
G02*
X114102500Y-88085000I237500J0D01*
G01*
X114677500Y-88085000D01*
G75*
G02*
X114915000Y-88322500I0J-237500D01*
G01*
G37*
%TD.AperFunction*%
%TO.P,R10,1*%
%TO.N,+3V3*%
%TA.AperFunction,SMDPad,CuDef*%
G36*
G01*
X116665000Y-88322500D02*
X116665000Y-88797500D01*
G75*
G02*
X116427500Y-89035000I-237500J0D01*
G01*
X115852500Y-89035000D01*
G75*
G02*
X115615000Y-88797500I0J237500D01*
G01*
X115615000Y-88322500D01*
G75*
G02*
X115852500Y-88085000I237500J0D01*
G01*
X116427500Y-88085000D01*
G75*
G02*
X116665000Y-88322500I0J-237500D01*
G01*
G37*
%TD.AperFunction*%
%TD*%
%TO.P,R11,2*%
%TO.N,/WKUP1*%
%TA.AperFunction,SMDPad,CuDef*%
G36*
G01*
X91410000Y-107317500D02*
X91410000Y-106842500D01*
G75*
G02*
X91647500Y-106605000I237500J0D01*
G01*
X92222500Y-106605000D01*
G75*
G02*
X92460000Y-106842500I0J-237500D01*
G01*
X92460000Y-107317500D01*
G75*
G02*
X92222500Y-107555000I-237500J0D01*
G01*
X91647500Y-107555000D01*
G75*
G02*
X91410000Y-107317500I0J237500D01*
G01*
G37*
%TD.AperFunction*%
%TO.P,R11,1*%
%TO.N,+3V3*%
%TA.AperFunction,SMDPad,CuDef*%
G36*
G01*
X89660000Y-107317500D02*
X89660000Y-106842500D01*
G75*
G02*
X89897500Y-106605000I237500J0D01*
G01*
X90472500Y-106605000D01*
G75*
G02*
X90710000Y-106842500I0J-237500D01*
G01*
X90710000Y-107317500D01*
G75*
G02*
X90472500Y-107555000I-237500J0D01*
G01*
X89897500Y-107555000D01*
G75*
G02*
X89660000Y-107317500I0J237500D01*
G01*
G37*
%TD.AperFunction*%
%TD*%
%TO.P,R12,1*%
%TO.N,/WKUP1*%
%TA.AperFunction,SMDPad,CuDef*%
G36*
G01*
X92430000Y-108412500D02*
X92430000Y-108887500D01*
G75*
G02*
X92192500Y-109125000I-237500J0D01*
G01*
X91617500Y-109125000D01*
G75*
G02*
X91380000Y-108887500I0J237500D01*
G01*
X91380000Y-108412500D01*
G75*
G02*
X91617500Y-108175000I237500J0D01*
G01*
X92192500Y-108175000D01*
G75*
G02*
X92430000Y-108412500I0J-237500D01*
G01*
G37*
%TD.AperFunction*%
%TO.P,R12,2*%
%TO.N,GND1*%
%TA.AperFunction,SMDPad,CuDef*%
G36*
G01*
X90680000Y-108412500D02*
X90680000Y-108887500D01*
G75*
G02*
X90442500Y-109125000I-237500J0D01*
G01*
X89867500Y-109125000D01*
G75*
G02*
X89630000Y-108887500I0J237500D01*
G01*
X89630000Y-108412500D01*
G75*
G02*
X89867500Y-108175000I237500J0D01*
G01*
X90442500Y-108175000D01*
G75*
G02*
X90680000Y-108412500I0J-237500D01*
G01*
G37*
%TD.AperFunction*%
%TD*%
%TO.P,R13,1*%
%TO.N,+3V3*%
%TA.AperFunction,SMDPad,CuDef*%
G36*
G01*
X99605000Y-82977500D02*
X99605000Y-82502500D01*
G75*
G02*
X99842500Y-82265000I237500J0D01*
G01*
X100417500Y-82265000D01*
G75*
G02*
X100655000Y-82502500I0J-237500D01*
G01*
X100655000Y-82977500D01*
G75*
G02*
X100417500Y-83215000I-237500J0D01*
G01*
X99842500Y-83215000D01*
G75*
G02*
X99605000Y-82977500I0J237500D01*
G01*
G37*
%TD.AperFunction*%
%TO.P,R13,2*%
%TO.N,/NJTRST*%
%TA.AperFunction,SMDPad,CuDef*%
G36*
G01*
X101355000Y-82977500D02*
X101355000Y-82502500D01*
G75*
G02*
X101592500Y-82265000I237500J0D01*
G01*
X102167500Y-82265000D01*
G75*
G02*
X102405000Y-82502500I0J-237500D01*
G01*
X102405000Y-82977500D01*
G75*
G02*
X102167500Y-83215000I-237500J0D01*
G01*
X101592500Y-83215000D01*
G75*
G02*
X101355000Y-82977500I0J237500D01*
G01*
G37*
%TD.AperFunction*%
%TD*%
%TO.P,R14,1*%
%TO.N,+3V3*%
%TA.AperFunction,SMDPad,CuDef*%
G36*
G01*
X89640000Y-112107500D02*
X89640000Y-111632500D01*
G75*
G02*
X89877500Y-111395000I237500J0D01*
G01*
X90452500Y-111395000D01*
G75*
G02*
X90690000Y-111632500I0J-237500D01*
G01*
X90690000Y-112107500D01*
G75*
G02*
X90452500Y-112345000I-237500J0D01*
G01*
X89877500Y-112345000D01*
G75*
G02*
X89640000Y-112107500I0J237500D01*
G01*
G37*
%TD.AperFunction*%
%TO.P,R14,2*%
%TO.N,/WKUP4*%
%TA.AperFunction,SMDPad,CuDef*%
G36*
G01*
X91390000Y-112107500D02*
X91390000Y-111632500D01*
G75*
G02*
X91627500Y-111395000I237500J0D01*
G01*
X92202500Y-111395000D01*
G75*
G02*
X92440000Y-111632500I0J-237500D01*
G01*
X92440000Y-112107500D01*
G75*
G02*
X92202500Y-112345000I-237500J0D01*
G01*
X91627500Y-112345000D01*
G75*
G02*
X91390000Y-112107500I0J237500D01*
G01*
G37*
%TD.AperFunction*%
%TD*%
%TO.P,R15,2*%
%TO.N,GND1*%
%TA.AperFunction,SMDPad,CuDef*%
G36*
G01*
X90685000Y-110022500D02*
X90685000Y-110497500D01*
G75*
G02*
X90447500Y-110735000I-237500J0D01*
G01*
X89872500Y-110735000D01*
G75*
G02*
X89635000Y-110497500I0J237500D01*
G01*
X89635000Y-110022500D01*
G75*
G02*
X89872500Y-109785000I237500J0D01*
G01*
X90447500Y-109785000D01*
G75*
G02*
X90685000Y-110022500I0J-237500D01*
G01*
G37*
%TD.AperFunction*%
%TO.P,R15,1*%
%TO.N,/WKUP4*%
%TA.AperFunction,SMDPad,CuDef*%
G36*
G01*
X92435000Y-110022500D02*
X92435000Y-110497500D01*
G75*
G02*
X92197500Y-110735000I-237500J0D01*
G01*
X91622500Y-110735000D01*
G75*
G02*
X91385000Y-110497500I0J237500D01*
G01*
X91385000Y-110022500D01*
G75*
G02*
X91622500Y-109785000I237500J0D01*
G01*
X92197500Y-109785000D01*
G75*
G02*
X92435000Y-110022500I0J-237500D01*
G01*
G37*
%TD.AperFunction*%
%TD*%
%TO.P,R16,2*%
%TO.N,/WKUP3*%
%TA.AperFunction,SMDPad,CuDef*%
G36*
G01*
X91425000Y-113817500D02*
X91425000Y-113342500D01*
G75*
G02*
X91662500Y-113105000I237500J0D01*
G01*
X92237500Y-113105000D01*
G75*
G02*
X92475000Y-113342500I0J-237500D01*
G01*
X92475000Y-113817500D01*
G75*
G02*
X92237500Y-114055000I-237500J0D01*
G01*
X91662500Y-114055000D01*
G75*
G02*
X91425000Y-113817500I0J237500D01*
G01*
G37*
%TD.AperFunction*%
%TO.P,R16,1*%
%TO.N,+3V3*%
%TA.AperFunction,SMDPad,CuDef*%
G36*
G01*
X89675000Y-113817500D02*
X89675000Y-113342500D01*
G75*
G02*
X89912500Y-113105000I237500J0D01*
G01*
X90487500Y-113105000D01*
G75*
G02*
X90725000Y-113342500I0J-237500D01*
G01*
X90725000Y-113817500D01*
G75*
G02*
X90487500Y-114055000I-237500J0D01*
G01*
X89912500Y-114055000D01*
G75*
G02*
X89675000Y-113817500I0J237500D01*
G01*
G37*
%TD.AperFunction*%
%TD*%
%TO.P,R17,1*%
%TO.N,/WKUP3*%
%TA.AperFunction,SMDPad,CuDef*%
G36*
G01*
X89010000Y-113312500D02*
X89010000Y-113787500D01*
G75*
G02*
X88772500Y-114025000I-237500J0D01*
G01*
X88197500Y-114025000D01*
G75*
G02*
X87960000Y-113787500I0J237500D01*
G01*
X87960000Y-113312500D01*
G75*
G02*
X88197500Y-113075000I237500J0D01*
G01*
X88772500Y-113075000D01*
G75*
G02*
X89010000Y-113312500I0J-237500D01*
G01*
G37*
%TD.AperFunction*%
%TO.P,R17,2*%
%TO.N,GND1*%
%TA.AperFunction,SMDPad,CuDef*%
G36*
G01*
X87260000Y-113312500D02*
X87260000Y-113787500D01*
G75*
G02*
X87022500Y-114025000I-237500J0D01*
G01*
X86447500Y-114025000D01*
G75*
G02*
X86210000Y-113787500I0J237500D01*
G01*
X86210000Y-113312500D01*
G75*
G02*
X86447500Y-113075000I237500J0D01*
G01*
X87022500Y-113075000D01*
G75*
G02*
X87260000Y-113312500I0J-237500D01*
G01*
G37*
%TD.AperFunction*%
%TD*%
%TO.P,R18,2*%
%TO.N,GND1*%
%TA.AperFunction,SMDPad,CuDef*%
G36*
G01*
X86707500Y-96830000D02*
X86232500Y-96830000D01*
G75*
G02*
X85995000Y-96592500I0J237500D01*
G01*
X85995000Y-96017500D01*
G75*
G02*
X86232500Y-95780000I237500J0D01*
G01*
X86707500Y-95780000D01*
G75*
G02*
X86945000Y-96017500I0J-237500D01*
G01*
X86945000Y-96592500D01*
G75*
G02*
X86707500Y-96830000I-237500J0D01*
G01*
G37*
%TD.AperFunction*%
%TO.P,R18,1*%
%TO.N,/LED_OUT_1*%
%TA.AperFunction,SMDPad,CuDef*%
G36*
G01*
X86707500Y-98580000D02*
X86232500Y-98580000D01*
G75*
G02*
X85995000Y-98342500I0J237500D01*
G01*
X85995000Y-97767500D01*
G75*
G02*
X86232500Y-97530000I237500J0D01*
G01*
X86707500Y-97530000D01*
G75*
G02*
X86945000Y-97767500I0J-237500D01*
G01*
X86945000Y-98342500D01*
G75*
G02*
X86707500Y-98580000I-237500J0D01*
G01*
G37*
%TD.AperFunction*%
%TD*%
%TO.P,R19,1*%
%TO.N,Net-(J14-Pad1)*%
%TA.AperFunction,SMDPad,CuDef*%
G36*
G01*
X87872500Y-95770000D02*
X88347500Y-95770000D01*
G75*
G02*
X88585000Y-96007500I0J-237500D01*
G01*
X88585000Y-96582500D01*
G75*
G02*
X88347500Y-96820000I-237500J0D01*
G01*
X87872500Y-96820000D01*
G75*
G02*
X87635000Y-96582500I0J237500D01*
G01*
X87635000Y-96007500D01*
G75*
G02*
X87872500Y-95770000I237500J0D01*
G01*
G37*
%TD.AperFunction*%
%TO.P,R19,2*%
%TO.N,Net-(Q1-Pad3)*%
%TA.AperFunction,SMDPad,CuDef*%
G36*
G01*
X87872500Y-97520000D02*
X88347500Y-97520000D01*
G75*
G02*
X88585000Y-97757500I0J-237500D01*
G01*
X88585000Y-98332500D01*
G75*
G02*
X88347500Y-98570000I-237500J0D01*
G01*
X87872500Y-98570000D01*
G75*
G02*
X87635000Y-98332500I0J237500D01*
G01*
X87635000Y-97757500D01*
G75*
G02*
X87872500Y-97520000I237500J0D01*
G01*
G37*
%TD.AperFunction*%
%TD*%
%TO.P,R20,2*%
%TO.N,GND1*%
%TA.AperFunction,SMDPad,CuDef*%
G36*
G01*
X87917500Y-100600000D02*
X87442500Y-100600000D01*
G75*
G02*
X87205000Y-100362500I0J237500D01*
G01*
X87205000Y-99787500D01*
G75*
G02*
X87442500Y-99550000I237500J0D01*
G01*
X87917500Y-99550000D01*
G75*
G02*
X88155000Y-99787500I0J-237500D01*
G01*
X88155000Y-100362500D01*
G75*
G02*
X87917500Y-100600000I-237500J0D01*
G01*
G37*
%TD.AperFunction*%
%TO.P,R20,1*%
%TO.N,/LED_OUT_2*%
%TA.AperFunction,SMDPad,CuDef*%
G36*
G01*
X87917500Y-102350000D02*
X87442500Y-102350000D01*
G75*
G02*
X87205000Y-102112500I0J237500D01*
G01*
X87205000Y-101537500D01*
G75*
G02*
X87442500Y-101300000I237500J0D01*
G01*
X87917500Y-101300000D01*
G75*
G02*
X88155000Y-101537500I0J-237500D01*
G01*
X88155000Y-102112500D01*
G75*
G02*
X87917500Y-102350000I-237500J0D01*
G01*
G37*
%TD.AperFunction*%
%TD*%
%TO.P,R21,1*%
%TO.N,Net-(J16-Pad1)*%
%TA.AperFunction,SMDPad,CuDef*%
G36*
G01*
X89082500Y-99540000D02*
X89557500Y-99540000D01*
G75*
G02*
X89795000Y-99777500I0J-237500D01*
G01*
X89795000Y-100352500D01*
G75*
G02*
X89557500Y-100590000I-237500J0D01*
G01*
X89082500Y-100590000D01*
G75*
G02*
X88845000Y-100352500I0J237500D01*
G01*
X88845000Y-99777500D01*
G75*
G02*
X89082500Y-99540000I237500J0D01*
G01*
G37*
%TD.AperFunction*%
%TO.P,R21,2*%
%TO.N,Net-(Q2-Pad3)*%
%TA.AperFunction,SMDPad,CuDef*%
G36*
G01*
X89082500Y-101290000D02*
X89557500Y-101290000D01*
G75*
G02*
X89795000Y-101527500I0J-237500D01*
G01*
X89795000Y-102102500D01*
G75*
G02*
X89557500Y-102340000I-237500J0D01*
G01*
X89082500Y-102340000D01*
G75*
G02*
X88845000Y-102102500I0J237500D01*
G01*
X88845000Y-101527500D01*
G75*
G02*
X89082500Y-101290000I237500J0D01*
G01*
G37*
%TD.AperFunction*%
%TD*%
D10*
%TO.P,SW1,1*%
%TO.N,/NRST*%
X93130000Y-90120000D03*
D11*
%TO.P,SW1,2*%
%TO.N,GND1*%
X93130000Y-87580000D03*
%TD*%
%TO.P,U1,1*%
%TO.N,/TIM16_CH1*%
%TA.AperFunction,SMDPad,CuDef*%
G36*
G01*
X107747352Y-107734631D02*
X107947352Y-107734631D01*
G75*
G02*
X108047352Y-107834631I0J-100000D01*
G01*
X108047352Y-109109631D01*
G75*
G02*
X107947352Y-109209631I-100000J0D01*
G01*
X107747352Y-109209631D01*
G75*
G02*
X107647352Y-109109631I0J100000D01*
G01*
X107647352Y-107834631D01*
G75*
G02*
X107747352Y-107734631I100000J0D01*
G01*
G37*
%TD.AperFunction*%
%TO.P,U1,2*%
%TO.N,+3V3*%
%TA.AperFunction,SMDPad,CuDef*%
G36*
G01*
X107097352Y-107734631D02*
X107297352Y-107734631D01*
G75*
G02*
X107397352Y-107834631I0J-100000D01*
G01*
X107397352Y-109109631D01*
G75*
G02*
X107297352Y-109209631I-100000J0D01*
G01*
X107097352Y-109209631D01*
G75*
G02*
X106997352Y-109109631I0J100000D01*
G01*
X106997352Y-107834631D01*
G75*
G02*
X107097352Y-107734631I100000J0D01*
G01*
G37*
%TD.AperFunction*%
%TO.P,U1,3*%
%TO.N,/TIM15_CH1*%
%TA.AperFunction,SMDPad,CuDef*%
G36*
G01*
X106447352Y-107734631D02*
X106647352Y-107734631D01*
G75*
G02*
X106747352Y-107834631I0J-100000D01*
G01*
X106747352Y-109109631D01*
G75*
G02*
X106647352Y-109209631I-100000J0D01*
G01*
X106447352Y-109209631D01*
G75*
G02*
X106347352Y-109109631I0J100000D01*
G01*
X106347352Y-107834631D01*
G75*
G02*
X106447352Y-107734631I100000J0D01*
G01*
G37*
%TD.AperFunction*%
%TO.P,U1,4*%
%TO.N,/TIM2_CH2*%
%TA.AperFunction,SMDPad,CuDef*%
G36*
G01*
X105797352Y-107734631D02*
X105997352Y-107734631D01*
G75*
G02*
X106097352Y-107834631I0J-100000D01*
G01*
X106097352Y-109109631D01*
G75*
G02*
X105997352Y-109209631I-100000J0D01*
G01*
X105797352Y-109209631D01*
G75*
G02*
X105697352Y-109109631I0J100000D01*
G01*
X105697352Y-107834631D01*
G75*
G02*
X105797352Y-107734631I100000J0D01*
G01*
G37*
%TD.AperFunction*%
%TO.P,U1,5*%
%TO.N,/TIM1_CH1*%
%TA.AperFunction,SMDPad,CuDef*%
G36*
G01*
X105147352Y-107734631D02*
X105347352Y-107734631D01*
G75*
G02*
X105447352Y-107834631I0J-100000D01*
G01*
X105447352Y-109109631D01*
G75*
G02*
X105347352Y-109209631I-100000J0D01*
G01*
X105147352Y-109209631D01*
G75*
G02*
X105047352Y-109109631I0J100000D01*
G01*
X105047352Y-107834631D01*
G75*
G02*
X105147352Y-107734631I100000J0D01*
G01*
G37*
%TD.AperFunction*%
%TO.P,U1,6*%
%TO.N,/USART1_RX*%
%TA.AperFunction,SMDPad,CuDef*%
G36*
G01*
X104497352Y-107734631D02*
X104697352Y-107734631D01*
G75*
G02*
X104797352Y-107834631I0J-100000D01*
G01*
X104797352Y-109109631D01*
G75*
G02*
X104697352Y-109209631I-100000J0D01*
G01*
X104497352Y-109209631D01*
G75*
G02*
X104397352Y-109109631I0J100000D01*
G01*
X104397352Y-107834631D01*
G75*
G02*
X104497352Y-107734631I100000J0D01*
G01*
G37*
%TD.AperFunction*%
%TO.P,U1,7*%
%TO.N,/USART1_TX*%
%TA.AperFunction,SMDPad,CuDef*%
G36*
G01*
X103847352Y-107734631D02*
X104047352Y-107734631D01*
G75*
G02*
X104147352Y-107834631I0J-100000D01*
G01*
X104147352Y-109109631D01*
G75*
G02*
X104047352Y-109209631I-100000J0D01*
G01*
X103847352Y-109209631D01*
G75*
G02*
X103747352Y-109109631I0J100000D01*
G01*
X103747352Y-107834631D01*
G75*
G02*
X103847352Y-107734631I100000J0D01*
G01*
G37*
%TD.AperFunction*%
%TO.P,U1,8*%
%TO.N,/GPIO_2*%
%TA.AperFunction,SMDPad,CuDef*%
G36*
G01*
X103197352Y-107734631D02*
X103397352Y-107734631D01*
G75*
G02*
X103497352Y-107834631I0J-100000D01*
G01*
X103497352Y-109109631D01*
G75*
G02*
X103397352Y-109209631I-100000J0D01*
G01*
X103197352Y-109209631D01*
G75*
G02*
X103097352Y-109109631I0J100000D01*
G01*
X103097352Y-107834631D01*
G75*
G02*
X103197352Y-107734631I100000J0D01*
G01*
G37*
%TD.AperFunction*%
%TO.P,U1,9*%
%TO.N,/GPIO_3*%
%TA.AperFunction,SMDPad,CuDef*%
G36*
G01*
X102547352Y-107734631D02*
X102747352Y-107734631D01*
G75*
G02*
X102847352Y-107834631I0J-100000D01*
G01*
X102847352Y-109109631D01*
G75*
G02*
X102747352Y-109209631I-100000J0D01*
G01*
X102547352Y-109209631D01*
G75*
G02*
X102447352Y-109109631I0J100000D01*
G01*
X102447352Y-107834631D01*
G75*
G02*
X102547352Y-107734631I100000J0D01*
G01*
G37*
%TD.AperFunction*%
%TO.P,U1,10*%
%TO.N,/LEVEL_SHIFTER_EN*%
%TA.AperFunction,SMDPad,CuDef*%
G36*
G01*
X101897352Y-107734631D02*
X102097352Y-107734631D01*
G75*
G02*
X102197352Y-107834631I0J-100000D01*
G01*
X102197352Y-109109631D01*
G75*
G02*
X102097352Y-109209631I-100000J0D01*
G01*
X101897352Y-109209631D01*
G75*
G02*
X101797352Y-109109631I0J100000D01*
G01*
X101797352Y-107834631D01*
G75*
G02*
X101897352Y-107734631I100000J0D01*
G01*
G37*
%TD.AperFunction*%
%TO.P,U1,11*%
%TO.N,GND1*%
%TA.AperFunction,SMDPad,CuDef*%
G36*
G01*
X101897352Y-113459631D02*
X102097352Y-113459631D01*
G75*
G02*
X102197352Y-113559631I0J-100000D01*
G01*
X102197352Y-114834631D01*
G75*
G02*
X102097352Y-114934631I-100000J0D01*
G01*
X101897352Y-114934631D01*
G75*
G02*
X101797352Y-114834631I0J100000D01*
G01*
X101797352Y-113559631D01*
G75*
G02*
X101897352Y-113459631I100000J0D01*
G01*
G37*
%TD.AperFunction*%
%TO.P,U1,12*%
%TO.N,/GPIO_3_SHIFT*%
%TA.AperFunction,SMDPad,CuDef*%
G36*
G01*
X102547352Y-113459631D02*
X102747352Y-113459631D01*
G75*
G02*
X102847352Y-113559631I0J-100000D01*
G01*
X102847352Y-114834631D01*
G75*
G02*
X102747352Y-114934631I-100000J0D01*
G01*
X102547352Y-114934631D01*
G75*
G02*
X102447352Y-114834631I0J100000D01*
G01*
X102447352Y-113559631D01*
G75*
G02*
X102547352Y-113459631I100000J0D01*
G01*
G37*
%TD.AperFunction*%
%TO.P,U1,13*%
%TO.N,/GPIO_2_SHIFT*%
%TA.AperFunction,SMDPad,CuDef*%
G36*
G01*
X103197352Y-113459631D02*
X103397352Y-113459631D01*
G75*
G02*
X103497352Y-113559631I0J-100000D01*
G01*
X103497352Y-114834631D01*
G75*
G02*
X103397352Y-114934631I-100000J0D01*
G01*
X103197352Y-114934631D01*
G75*
G02*
X103097352Y-114834631I0J100000D01*
G01*
X103097352Y-113559631D01*
G75*
G02*
X103197352Y-113459631I100000J0D01*
G01*
G37*
%TD.AperFunction*%
%TO.P,U1,14*%
%TO.N,/USART1_TX_SHIFT*%
%TA.AperFunction,SMDPad,CuDef*%
G36*
G01*
X103847352Y-113459631D02*
X104047352Y-113459631D01*
G75*
G02*
X104147352Y-113559631I0J-100000D01*
G01*
X104147352Y-114834631D01*
G75*
G02*
X104047352Y-114934631I-100000J0D01*
G01*
X103847352Y-114934631D01*
G75*
G02*
X103747352Y-114834631I0J100000D01*
G01*
X103747352Y-113559631D01*
G75*
G02*
X103847352Y-113459631I100000J0D01*
G01*
G37*
%TD.AperFunction*%
%TO.P,U1,15*%
%TO.N,/USART1_RX_SHIFT*%
%TA.AperFunction,SMDPad,CuDef*%
G36*
G01*
X104497352Y-113459631D02*
X104697352Y-113459631D01*
G75*
G02*
X104797352Y-113559631I0J-100000D01*
G01*
X104797352Y-114834631D01*
G75*
G02*
X104697352Y-114934631I-100000J0D01*
G01*
X104497352Y-114934631D01*
G75*
G02*
X104397352Y-114834631I0J100000D01*
G01*
X104397352Y-113559631D01*
G75*
G02*
X104497352Y-113459631I100000J0D01*
G01*
G37*
%TD.AperFunction*%
%TO.P,U1,16*%
%TO.N,/TIM1_CH1_SHIFT*%
%TA.AperFunction,SMDPad,CuDef*%
G36*
G01*
X105147352Y-113459631D02*
X105347352Y-113459631D01*
G75*
G02*
X105447352Y-113559631I0J-100000D01*
G01*
X105447352Y-114834631D01*
G75*
G02*
X105347352Y-114934631I-100000J0D01*
G01*
X105147352Y-114934631D01*
G75*
G02*
X105047352Y-114834631I0J100000D01*
G01*
X105047352Y-113559631D01*
G75*
G02*
X105147352Y-113459631I100000J0D01*
G01*
G37*
%TD.AperFunction*%
%TO.P,U1,17*%
%TO.N,/TIM2_CH2_SHIFT*%
%TA.AperFunction,SMDPad,CuDef*%
G36*
G01*
X105797352Y-113459631D02*
X105997352Y-113459631D01*
G75*
G02*
X106097352Y-113559631I0J-100000D01*
G01*
X106097352Y-114834631D01*
G75*
G02*
X105997352Y-114934631I-100000J0D01*
G01*
X105797352Y-114934631D01*
G75*
G02*
X105697352Y-114834631I0J100000D01*
G01*
X105697352Y-113559631D01*
G75*
G02*
X105797352Y-113459631I100000J0D01*
G01*
G37*
%TD.AperFunction*%
%TO.P,U1,18*%
%TO.N,/TIM15_CH1_SHIFT*%
%TA.AperFunction,SMDPad,CuDef*%
G36*
G01*
X106447352Y-113459631D02*
X106647352Y-113459631D01*
G75*
G02*
X106747352Y-113559631I0J-100000D01*
G01*
X106747352Y-114834631D01*
G75*
G02*
X106647352Y-114934631I-100000J0D01*
G01*
X106447352Y-114934631D01*
G75*
G02*
X106347352Y-114834631I0J100000D01*
G01*
X106347352Y-113559631D01*
G75*
G02*
X106447352Y-113459631I100000J0D01*
G01*
G37*
%TD.AperFunction*%
%TO.P,U1,19*%
%TO.N,+5V*%
%TA.AperFunction,SMDPad,CuDef*%
G36*
G01*
X107097352Y-113459631D02*
X107297352Y-113459631D01*
G75*
G02*
X107397352Y-113559631I0J-100000D01*
G01*
X107397352Y-114834631D01*
G75*
G02*
X107297352Y-114934631I-100000J0D01*
G01*
X107097352Y-114934631D01*
G75*
G02*
X106997352Y-114834631I0J100000D01*
G01*
X106997352Y-113559631D01*
G75*
G02*
X107097352Y-113459631I100000J0D01*
G01*
G37*
%TD.AperFunction*%
%TO.P,U1,20*%
%TO.N,/TIM16_CH1_SHIFT*%
%TA.AperFunction,SMDPad,CuDef*%
G36*
G01*
X107747352Y-113459631D02*
X107947352Y-113459631D01*
G75*
G02*
X108047352Y-113559631I0J-100000D01*
G01*
X108047352Y-114834631D01*
G75*
G02*
X107947352Y-114934631I-100000J0D01*
G01*
X107747352Y-114934631D01*
G75*
G02*
X107647352Y-114834631I0J100000D01*
G01*
X107647352Y-113559631D01*
G75*
G02*
X107747352Y-113459631I100000J0D01*
G01*
G37*
%TD.AperFunction*%
%TD*%
%TO.P,U2,1*%
%TO.N,+3V3*%
%TA.AperFunction,SMDPad,CuDef*%
G36*
G01*
X98180000Y-95030000D02*
X98180000Y-94880000D01*
G75*
G02*
X98255000Y-94805000I75000J0D01*
G01*
X99655000Y-94805000D01*
G75*
G02*
X99730000Y-94880000I0J-75000D01*
G01*
X99730000Y-95030000D01*
G75*
G02*
X99655000Y-95105000I-75000J0D01*
G01*
X98255000Y-95105000D01*
G75*
G02*
X98180000Y-95030000I0J75000D01*
G01*
G37*
%TD.AperFunction*%
%TO.P,U2,2*%
%TO.N,/WKUP2*%
%TA.AperFunction,SMDPad,CuDef*%
G36*
G01*
X98180000Y-95530000D02*
X98180000Y-95380000D01*
G75*
G02*
X98255000Y-95305000I75000J0D01*
G01*
X99655000Y-95305000D01*
G75*
G02*
X99730000Y-95380000I0J-75000D01*
G01*
X99730000Y-95530000D01*
G75*
G02*
X99655000Y-95605000I-75000J0D01*
G01*
X98255000Y-95605000D01*
G75*
G02*
X98180000Y-95530000I0J75000D01*
G01*
G37*
%TD.AperFunction*%
%TO.P,U2,3*%
%TO.N,Net-(C3-Pad1)*%
%TA.AperFunction,SMDPad,CuDef*%
G36*
G01*
X98180000Y-96030000D02*
X98180000Y-95880000D01*
G75*
G02*
X98255000Y-95805000I75000J0D01*
G01*
X99655000Y-95805000D01*
G75*
G02*
X99730000Y-95880000I0J-75000D01*
G01*
X99730000Y-96030000D01*
G75*
G02*
X99655000Y-96105000I-75000J0D01*
G01*
X98255000Y-96105000D01*
G75*
G02*
X98180000Y-96030000I0J75000D01*
G01*
G37*
%TD.AperFunction*%
%TO.P,U2,4*%
%TO.N,Net-(C4-Pad1)*%
%TA.AperFunction,SMDPad,CuDef*%
G36*
G01*
X98180000Y-96530000D02*
X98180000Y-96380000D01*
G75*
G02*
X98255000Y-96305000I75000J0D01*
G01*
X99655000Y-96305000D01*
G75*
G02*
X99730000Y-96380000I0J-75000D01*
G01*
X99730000Y-96530000D01*
G75*
G02*
X99655000Y-96605000I-75000J0D01*
G01*
X98255000Y-96605000D01*
G75*
G02*
X98180000Y-96530000I0J75000D01*
G01*
G37*
%TD.AperFunction*%
%TO.P,U2,5*%
%TO.N,/OSC48_HI*%
%TA.AperFunction,SMDPad,CuDef*%
G36*
G01*
X98180000Y-97030000D02*
X98180000Y-96880000D01*
G75*
G02*
X98255000Y-96805000I75000J0D01*
G01*
X99655000Y-96805000D01*
G75*
G02*
X99730000Y-96880000I0J-75000D01*
G01*
X99730000Y-97030000D01*
G75*
G02*
X99655000Y-97105000I-75000J0D01*
G01*
X98255000Y-97105000D01*
G75*
G02*
X98180000Y-97030000I0J75000D01*
G01*
G37*
%TD.AperFunction*%
%TO.P,U2,6*%
%TO.N,/OSC48_LO*%
%TA.AperFunction,SMDPad,CuDef*%
G36*
G01*
X98180000Y-97530000D02*
X98180000Y-97380000D01*
G75*
G02*
X98255000Y-97305000I75000J0D01*
G01*
X99655000Y-97305000D01*
G75*
G02*
X99730000Y-97380000I0J-75000D01*
G01*
X99730000Y-97530000D01*
G75*
G02*
X99655000Y-97605000I-75000J0D01*
G01*
X98255000Y-97605000D01*
G75*
G02*
X98180000Y-97530000I0J75000D01*
G01*
G37*
%TD.AperFunction*%
%TO.P,U2,7*%
%TO.N,/NRST*%
%TA.AperFunction,SMDPad,CuDef*%
G36*
G01*
X98180000Y-98030000D02*
X98180000Y-97880000D01*
G75*
G02*
X98255000Y-97805000I75000J0D01*
G01*
X99655000Y-97805000D01*
G75*
G02*
X99730000Y-97880000I0J-75000D01*
G01*
X99730000Y-98030000D01*
G75*
G02*
X99655000Y-98105000I-75000J0D01*
G01*
X98255000Y-98105000D01*
G75*
G02*
X98180000Y-98030000I0J75000D01*
G01*
G37*
%TD.AperFunction*%
%TO.P,U2,8*%
%TO.N,/GPIO_2*%
%TA.AperFunction,SMDPad,CuDef*%
G36*
G01*
X98180000Y-98530000D02*
X98180000Y-98380000D01*
G75*
G02*
X98255000Y-98305000I75000J0D01*
G01*
X99655000Y-98305000D01*
G75*
G02*
X99730000Y-98380000I0J-75000D01*
G01*
X99730000Y-98530000D01*
G75*
G02*
X99655000Y-98605000I-75000J0D01*
G01*
X98255000Y-98605000D01*
G75*
G02*
X98180000Y-98530000I0J75000D01*
G01*
G37*
%TD.AperFunction*%
%TO.P,U2,9*%
%TO.N,/GPIO_3*%
%TA.AperFunction,SMDPad,CuDef*%
G36*
G01*
X98180000Y-99030000D02*
X98180000Y-98880000D01*
G75*
G02*
X98255000Y-98805000I75000J0D01*
G01*
X99655000Y-98805000D01*
G75*
G02*
X99730000Y-98880000I0J-75000D01*
G01*
X99730000Y-99030000D01*
G75*
G02*
X99655000Y-99105000I-75000J0D01*
G01*
X98255000Y-99105000D01*
G75*
G02*
X98180000Y-99030000I0J75000D01*
G01*
G37*
%TD.AperFunction*%
%TO.P,U2,10*%
%TO.N,/LED_OUT_1*%
%TA.AperFunction,SMDPad,CuDef*%
G36*
G01*
X98180000Y-99530000D02*
X98180000Y-99380000D01*
G75*
G02*
X98255000Y-99305000I75000J0D01*
G01*
X99655000Y-99305000D01*
G75*
G02*
X99730000Y-99380000I0J-75000D01*
G01*
X99730000Y-99530000D01*
G75*
G02*
X99655000Y-99605000I-75000J0D01*
G01*
X98255000Y-99605000D01*
G75*
G02*
X98180000Y-99530000I0J75000D01*
G01*
G37*
%TD.AperFunction*%
%TO.P,U2,11*%
%TO.N,/LED_OUT_2*%
%TA.AperFunction,SMDPad,CuDef*%
G36*
G01*
X98180000Y-100030000D02*
X98180000Y-99880000D01*
G75*
G02*
X98255000Y-99805000I75000J0D01*
G01*
X99655000Y-99805000D01*
G75*
G02*
X99730000Y-99880000I0J-75000D01*
G01*
X99730000Y-100030000D01*
G75*
G02*
X99655000Y-100105000I-75000J0D01*
G01*
X98255000Y-100105000D01*
G75*
G02*
X98180000Y-100030000I0J75000D01*
G01*
G37*
%TD.AperFunction*%
%TO.P,U2,12*%
%TO.N,GND1*%
%TA.AperFunction,SMDPad,CuDef*%
G36*
G01*
X98180000Y-100530000D02*
X98180000Y-100380000D01*
G75*
G02*
X98255000Y-100305000I75000J0D01*
G01*
X99655000Y-100305000D01*
G75*
G02*
X99730000Y-100380000I0J-75000D01*
G01*
X99730000Y-100530000D01*
G75*
G02*
X99655000Y-100605000I-75000J0D01*
G01*
X98255000Y-100605000D01*
G75*
G02*
X98180000Y-100530000I0J75000D01*
G01*
G37*
%TD.AperFunction*%
%TO.P,U2,13*%
%TO.N,+3V3*%
%TA.AperFunction,SMDPad,CuDef*%
G36*
G01*
X98180000Y-101030000D02*
X98180000Y-100880000D01*
G75*
G02*
X98255000Y-100805000I75000J0D01*
G01*
X99655000Y-100805000D01*
G75*
G02*
X99730000Y-100880000I0J-75000D01*
G01*
X99730000Y-101030000D01*
G75*
G02*
X99655000Y-101105000I-75000J0D01*
G01*
X98255000Y-101105000D01*
G75*
G02*
X98180000Y-101030000I0J75000D01*
G01*
G37*
%TD.AperFunction*%
%TO.P,U2,14*%
%TO.N,/WKUP1*%
%TA.AperFunction,SMDPad,CuDef*%
G36*
G01*
X98180000Y-101530000D02*
X98180000Y-101380000D01*
G75*
G02*
X98255000Y-101305000I75000J0D01*
G01*
X99655000Y-101305000D01*
G75*
G02*
X99730000Y-101380000I0J-75000D01*
G01*
X99730000Y-101530000D01*
G75*
G02*
X99655000Y-101605000I-75000J0D01*
G01*
X98255000Y-101605000D01*
G75*
G02*
X98180000Y-101530000I0J75000D01*
G01*
G37*
%TD.AperFunction*%
%TO.P,U2,15*%
%TO.N,/TIM2_CH2*%
%TA.AperFunction,SMDPad,CuDef*%
G36*
G01*
X98180000Y-102030000D02*
X98180000Y-101880000D01*
G75*
G02*
X98255000Y-101805000I75000J0D01*
G01*
X99655000Y-101805000D01*
G75*
G02*
X99730000Y-101880000I0J-75000D01*
G01*
X99730000Y-102030000D01*
G75*
G02*
X99655000Y-102105000I-75000J0D01*
G01*
X98255000Y-102105000D01*
G75*
G02*
X98180000Y-102030000I0J75000D01*
G01*
G37*
%TD.AperFunction*%
%TO.P,U2,16*%
%TO.N,/WKUP4*%
%TA.AperFunction,SMDPad,CuDef*%
G36*
G01*
X98180000Y-102530000D02*
X98180000Y-102380000D01*
G75*
G02*
X98255000Y-102305000I75000J0D01*
G01*
X99655000Y-102305000D01*
G75*
G02*
X99730000Y-102380000I0J-75000D01*
G01*
X99730000Y-102530000D01*
G75*
G02*
X99655000Y-102605000I-75000J0D01*
G01*
X98255000Y-102605000D01*
G75*
G02*
X98180000Y-102530000I0J75000D01*
G01*
G37*
%TD.AperFunction*%
%TO.P,U2,17*%
%TO.N,/TIM15_CH1*%
%TA.AperFunction,SMDPad,CuDef*%
G36*
G01*
X100730000Y-105080000D02*
X100730000Y-103680000D01*
G75*
G02*
X100805000Y-103605000I75000J0D01*
G01*
X100955000Y-103605000D01*
G75*
G02*
X101030000Y-103680000I0J-75000D01*
G01*
X101030000Y-105080000D01*
G75*
G02*
X100955000Y-105155000I-75000J0D01*
G01*
X100805000Y-105155000D01*
G75*
G02*
X100730000Y-105080000I0J75000D01*
G01*
G37*
%TD.AperFunction*%
%TO.P,U2,18*%
%TO.N,GND1*%
%TA.AperFunction,SMDPad,CuDef*%
G36*
G01*
X101230000Y-105080000D02*
X101230000Y-103680000D01*
G75*
G02*
X101305000Y-103605000I75000J0D01*
G01*
X101455000Y-103605000D01*
G75*
G02*
X101530000Y-103680000I0J-75000D01*
G01*
X101530000Y-105080000D01*
G75*
G02*
X101455000Y-105155000I-75000J0D01*
G01*
X101305000Y-105155000D01*
G75*
G02*
X101230000Y-105080000I0J75000D01*
G01*
G37*
%TD.AperFunction*%
%TO.P,U2,19*%
%TO.N,+3V3*%
%TA.AperFunction,SMDPad,CuDef*%
G36*
G01*
X101730000Y-105080000D02*
X101730000Y-103680000D01*
G75*
G02*
X101805000Y-103605000I75000J0D01*
G01*
X101955000Y-103605000D01*
G75*
G02*
X102030000Y-103680000I0J-75000D01*
G01*
X102030000Y-105080000D01*
G75*
G02*
X101955000Y-105155000I-75000J0D01*
G01*
X101805000Y-105155000D01*
G75*
G02*
X101730000Y-105080000I0J75000D01*
G01*
G37*
%TD.AperFunction*%
%TO.P,U2,20*%
%TO.N,/SPI1_CSN*%
%TA.AperFunction,SMDPad,CuDef*%
G36*
G01*
X102230000Y-105080000D02*
X102230000Y-103680000D01*
G75*
G02*
X102305000Y-103605000I75000J0D01*
G01*
X102455000Y-103605000D01*
G75*
G02*
X102530000Y-103680000I0J-75000D01*
G01*
X102530000Y-105080000D01*
G75*
G02*
X102455000Y-105155000I-75000J0D01*
G01*
X102305000Y-105155000D01*
G75*
G02*
X102230000Y-105080000I0J75000D01*
G01*
G37*
%TD.AperFunction*%
%TO.P,U2,21*%
%TO.N,/SPI1_SCK*%
%TA.AperFunction,SMDPad,CuDef*%
G36*
G01*
X102730000Y-105080000D02*
X102730000Y-103680000D01*
G75*
G02*
X102805000Y-103605000I75000J0D01*
G01*
X102955000Y-103605000D01*
G75*
G02*
X103030000Y-103680000I0J-75000D01*
G01*
X103030000Y-105080000D01*
G75*
G02*
X102955000Y-105155000I-75000J0D01*
G01*
X102805000Y-105155000D01*
G75*
G02*
X102730000Y-105080000I0J75000D01*
G01*
G37*
%TD.AperFunction*%
%TO.P,U2,22*%
%TO.N,/TIM16_CH1*%
%TA.AperFunction,SMDPad,CuDef*%
G36*
G01*
X103230000Y-105080000D02*
X103230000Y-103680000D01*
G75*
G02*
X103305000Y-103605000I75000J0D01*
G01*
X103455000Y-103605000D01*
G75*
G02*
X103530000Y-103680000I0J-75000D01*
G01*
X103530000Y-105080000D01*
G75*
G02*
X103455000Y-105155000I-75000J0D01*
G01*
X103305000Y-105155000D01*
G75*
G02*
X103230000Y-105080000I0J75000D01*
G01*
G37*
%TD.AperFunction*%
%TO.P,U2,23*%
%TO.N,Net-(U2-Pad23)*%
%TA.AperFunction,SMDPad,CuDef*%
G36*
G01*
X103730000Y-105080000D02*
X103730000Y-103680000D01*
G75*
G02*
X103805000Y-103605000I75000J0D01*
G01*
X103955000Y-103605000D01*
G75*
G02*
X104030000Y-103680000I0J-75000D01*
G01*
X104030000Y-105080000D01*
G75*
G02*
X103955000Y-105155000I-75000J0D01*
G01*
X103805000Y-105155000D01*
G75*
G02*
X103730000Y-105080000I0J75000D01*
G01*
G37*
%TD.AperFunction*%
%TO.P,U2,24*%
%TO.N,Net-(U2-Pad24)*%
%TA.AperFunction,SMDPad,CuDef*%
G36*
G01*
X104230000Y-105080000D02*
X104230000Y-103680000D01*
G75*
G02*
X104305000Y-103605000I75000J0D01*
G01*
X104455000Y-103605000D01*
G75*
G02*
X104530000Y-103680000I0J-75000D01*
G01*
X104530000Y-105080000D01*
G75*
G02*
X104455000Y-105155000I-75000J0D01*
G01*
X104305000Y-105155000D01*
G75*
G02*
X104230000Y-105080000I0J75000D01*
G01*
G37*
%TD.AperFunction*%
%TO.P,U2,25*%
%TO.N,/WKUP3*%
%TA.AperFunction,SMDPad,CuDef*%
G36*
G01*
X104730000Y-105080000D02*
X104730000Y-103680000D01*
G75*
G02*
X104805000Y-103605000I75000J0D01*
G01*
X104955000Y-103605000D01*
G75*
G02*
X105030000Y-103680000I0J-75000D01*
G01*
X105030000Y-105080000D01*
G75*
G02*
X104955000Y-105155000I-75000J0D01*
G01*
X104805000Y-105155000D01*
G75*
G02*
X104730000Y-105080000I0J75000D01*
G01*
G37*
%TD.AperFunction*%
%TO.P,U2,26*%
%TO.N,/LEVEL_SHIFTER_EN*%
%TA.AperFunction,SMDPad,CuDef*%
G36*
G01*
X105230000Y-105080000D02*
X105230000Y-103680000D01*
G75*
G02*
X105305000Y-103605000I75000J0D01*
G01*
X105455000Y-103605000D01*
G75*
G02*
X105530000Y-103680000I0J-75000D01*
G01*
X105530000Y-105080000D01*
G75*
G02*
X105455000Y-105155000I-75000J0D01*
G01*
X105305000Y-105155000D01*
G75*
G02*
X105230000Y-105080000I0J75000D01*
G01*
G37*
%TD.AperFunction*%
%TO.P,U2,27*%
%TO.N,Net-(U2-Pad27)*%
%TA.AperFunction,SMDPad,CuDef*%
G36*
G01*
X105730000Y-105080000D02*
X105730000Y-103680000D01*
G75*
G02*
X105805000Y-103605000I75000J0D01*
G01*
X105955000Y-103605000D01*
G75*
G02*
X106030000Y-103680000I0J-75000D01*
G01*
X106030000Y-105080000D01*
G75*
G02*
X105955000Y-105155000I-75000J0D01*
G01*
X105805000Y-105155000D01*
G75*
G02*
X105730000Y-105080000I0J75000D01*
G01*
G37*
%TD.AperFunction*%
%TO.P,U2,28*%
%TO.N,Net-(U2-Pad28)*%
%TA.AperFunction,SMDPad,CuDef*%
G36*
G01*
X106230000Y-105080000D02*
X106230000Y-103680000D01*
G75*
G02*
X106305000Y-103605000I75000J0D01*
G01*
X106455000Y-103605000D01*
G75*
G02*
X106530000Y-103680000I0J-75000D01*
G01*
X106530000Y-105080000D01*
G75*
G02*
X106455000Y-105155000I-75000J0D01*
G01*
X106305000Y-105155000D01*
G75*
G02*
X106230000Y-105080000I0J75000D01*
G01*
G37*
%TD.AperFunction*%
%TO.P,U2,29*%
%TO.N,/I2C2_SCL*%
%TA.AperFunction,SMDPad,CuDef*%
G36*
G01*
X106730000Y-105080000D02*
X106730000Y-103680000D01*
G75*
G02*
X106805000Y-103605000I75000J0D01*
G01*
X106955000Y-103605000D01*
G75*
G02*
X107030000Y-103680000I0J-75000D01*
G01*
X107030000Y-105080000D01*
G75*
G02*
X106955000Y-105155000I-75000J0D01*
G01*
X106805000Y-105155000D01*
G75*
G02*
X106730000Y-105080000I0J75000D01*
G01*
G37*
%TD.AperFunction*%
%TO.P,U2,30*%
%TO.N,/I2C2_SDA*%
%TA.AperFunction,SMDPad,CuDef*%
G36*
G01*
X107230000Y-105080000D02*
X107230000Y-103680000D01*
G75*
G02*
X107305000Y-103605000I75000J0D01*
G01*
X107455000Y-103605000D01*
G75*
G02*
X107530000Y-103680000I0J-75000D01*
G01*
X107530000Y-105080000D01*
G75*
G02*
X107455000Y-105155000I-75000J0D01*
G01*
X107305000Y-105155000D01*
G75*
G02*
X107230000Y-105080000I0J75000D01*
G01*
G37*
%TD.AperFunction*%
%TO.P,U2,31*%
%TO.N,GND1*%
%TA.AperFunction,SMDPad,CuDef*%
G36*
G01*
X107730000Y-105080000D02*
X107730000Y-103680000D01*
G75*
G02*
X107805000Y-103605000I75000J0D01*
G01*
X107955000Y-103605000D01*
G75*
G02*
X108030000Y-103680000I0J-75000D01*
G01*
X108030000Y-105080000D01*
G75*
G02*
X107955000Y-105155000I-75000J0D01*
G01*
X107805000Y-105155000D01*
G75*
G02*
X107730000Y-105080000I0J75000D01*
G01*
G37*
%TD.AperFunction*%
%TO.P,U2,32*%
%TO.N,+3V3*%
%TA.AperFunction,SMDPad,CuDef*%
G36*
G01*
X108230000Y-105080000D02*
X108230000Y-103680000D01*
G75*
G02*
X108305000Y-103605000I75000J0D01*
G01*
X108455000Y-103605000D01*
G75*
G02*
X108530000Y-103680000I0J-75000D01*
G01*
X108530000Y-105080000D01*
G75*
G02*
X108455000Y-105155000I-75000J0D01*
G01*
X108305000Y-105155000D01*
G75*
G02*
X108230000Y-105080000I0J75000D01*
G01*
G37*
%TD.AperFunction*%
%TO.P,U2,33*%
%TO.N,Net-(U2-Pad33)*%
%TA.AperFunction,SMDPad,CuDef*%
G36*
G01*
X109530000Y-102530000D02*
X109530000Y-102380000D01*
G75*
G02*
X109605000Y-102305000I75000J0D01*
G01*
X111005000Y-102305000D01*
G75*
G02*
X111080000Y-102380000I0J-75000D01*
G01*
X111080000Y-102530000D01*
G75*
G02*
X111005000Y-102605000I-75000J0D01*
G01*
X109605000Y-102605000D01*
G75*
G02*
X109530000Y-102530000I0J75000D01*
G01*
G37*
%TD.AperFunction*%
%TO.P,U2,34*%
%TO.N,Net-(U2-Pad34)*%
%TA.AperFunction,SMDPad,CuDef*%
G36*
G01*
X109530000Y-102030000D02*
X109530000Y-101880000D01*
G75*
G02*
X109605000Y-101805000I75000J0D01*
G01*
X111005000Y-101805000D01*
G75*
G02*
X111080000Y-101880000I0J-75000D01*
G01*
X111080000Y-102030000D01*
G75*
G02*
X111005000Y-102105000I-75000J0D01*
G01*
X109605000Y-102105000D01*
G75*
G02*
X109530000Y-102030000I0J75000D01*
G01*
G37*
%TD.AperFunction*%
%TO.P,U2,35*%
%TO.N,/GPIO_1*%
%TA.AperFunction,SMDPad,CuDef*%
G36*
G01*
X109530000Y-101530000D02*
X109530000Y-101380000D01*
G75*
G02*
X109605000Y-101305000I75000J0D01*
G01*
X111005000Y-101305000D01*
G75*
G02*
X111080000Y-101380000I0J-75000D01*
G01*
X111080000Y-101530000D01*
G75*
G02*
X111005000Y-101605000I-75000J0D01*
G01*
X109605000Y-101605000D01*
G75*
G02*
X109530000Y-101530000I0J75000D01*
G01*
G37*
%TD.AperFunction*%
%TO.P,U2,36*%
%TO.N,Net-(U2-Pad36)*%
%TA.AperFunction,SMDPad,CuDef*%
G36*
G01*
X109530000Y-101030000D02*
X109530000Y-100880000D01*
G75*
G02*
X109605000Y-100805000I75000J0D01*
G01*
X111005000Y-100805000D01*
G75*
G02*
X111080000Y-100880000I0J-75000D01*
G01*
X111080000Y-101030000D01*
G75*
G02*
X111005000Y-101105000I-75000J0D01*
G01*
X109605000Y-101105000D01*
G75*
G02*
X109530000Y-101030000I0J75000D01*
G01*
G37*
%TD.AperFunction*%
%TO.P,U2,37*%
%TO.N,Net-(U2-Pad37)*%
%TA.AperFunction,SMDPad,CuDef*%
G36*
G01*
X109530000Y-100530000D02*
X109530000Y-100380000D01*
G75*
G02*
X109605000Y-100305000I75000J0D01*
G01*
X111005000Y-100305000D01*
G75*
G02*
X111080000Y-100380000I0J-75000D01*
G01*
X111080000Y-100530000D01*
G75*
G02*
X111005000Y-100605000I-75000J0D01*
G01*
X109605000Y-100605000D01*
G75*
G02*
X109530000Y-100530000I0J75000D01*
G01*
G37*
%TD.AperFunction*%
%TO.P,U2,38*%
%TO.N,Net-(U2-Pad38)*%
%TA.AperFunction,SMDPad,CuDef*%
G36*
G01*
X109530000Y-100030000D02*
X109530000Y-99880000D01*
G75*
G02*
X109605000Y-99805000I75000J0D01*
G01*
X111005000Y-99805000D01*
G75*
G02*
X111080000Y-99880000I0J-75000D01*
G01*
X111080000Y-100030000D01*
G75*
G02*
X111005000Y-100105000I-75000J0D01*
G01*
X109605000Y-100105000D01*
G75*
G02*
X109530000Y-100030000I0J75000D01*
G01*
G37*
%TD.AperFunction*%
%TO.P,U2,39*%
%TO.N,Net-(U2-Pad39)*%
%TA.AperFunction,SMDPad,CuDef*%
G36*
G01*
X109530000Y-99530000D02*
X109530000Y-99380000D01*
G75*
G02*
X109605000Y-99305000I75000J0D01*
G01*
X111005000Y-99305000D01*
G75*
G02*
X111080000Y-99380000I0J-75000D01*
G01*
X111080000Y-99530000D01*
G75*
G02*
X111005000Y-99605000I-75000J0D01*
G01*
X109605000Y-99605000D01*
G75*
G02*
X109530000Y-99530000I0J75000D01*
G01*
G37*
%TD.AperFunction*%
%TO.P,U2,40*%
%TO.N,Net-(U2-Pad40)*%
%TA.AperFunction,SMDPad,CuDef*%
G36*
G01*
X109530000Y-99030000D02*
X109530000Y-98880000D01*
G75*
G02*
X109605000Y-98805000I75000J0D01*
G01*
X111005000Y-98805000D01*
G75*
G02*
X111080000Y-98880000I0J-75000D01*
G01*
X111080000Y-99030000D01*
G75*
G02*
X111005000Y-99105000I-75000J0D01*
G01*
X109605000Y-99105000D01*
G75*
G02*
X109530000Y-99030000I0J75000D01*
G01*
G37*
%TD.AperFunction*%
%TO.P,U2,41*%
%TO.N,/TIM1_CH1*%
%TA.AperFunction,SMDPad,CuDef*%
G36*
G01*
X109530000Y-98530000D02*
X109530000Y-98380000D01*
G75*
G02*
X109605000Y-98305000I75000J0D01*
G01*
X111005000Y-98305000D01*
G75*
G02*
X111080000Y-98380000I0J-75000D01*
G01*
X111080000Y-98530000D01*
G75*
G02*
X111005000Y-98605000I-75000J0D01*
G01*
X109605000Y-98605000D01*
G75*
G02*
X109530000Y-98530000I0J75000D01*
G01*
G37*
%TD.AperFunction*%
%TO.P,U2,42*%
%TO.N,/USART1_TX*%
%TA.AperFunction,SMDPad,CuDef*%
G36*
G01*
X109530000Y-98030000D02*
X109530000Y-97880000D01*
G75*
G02*
X109605000Y-97805000I75000J0D01*
G01*
X111005000Y-97805000D01*
G75*
G02*
X111080000Y-97880000I0J-75000D01*
G01*
X111080000Y-98030000D01*
G75*
G02*
X111005000Y-98105000I-75000J0D01*
G01*
X109605000Y-98105000D01*
G75*
G02*
X109530000Y-98030000I0J75000D01*
G01*
G37*
%TD.AperFunction*%
%TO.P,U2,43*%
%TO.N,/USART1_RX*%
%TA.AperFunction,SMDPad,CuDef*%
G36*
G01*
X109530000Y-97530000D02*
X109530000Y-97380000D01*
G75*
G02*
X109605000Y-97305000I75000J0D01*
G01*
X111005000Y-97305000D01*
G75*
G02*
X111080000Y-97380000I0J-75000D01*
G01*
X111080000Y-97530000D01*
G75*
G02*
X111005000Y-97605000I-75000J0D01*
G01*
X109605000Y-97605000D01*
G75*
G02*
X109530000Y-97530000I0J75000D01*
G01*
G37*
%TD.AperFunction*%
%TO.P,U2,44*%
%TO.N,/SPI1_MISO*%
%TA.AperFunction,SMDPad,CuDef*%
G36*
G01*
X109530000Y-97030000D02*
X109530000Y-96880000D01*
G75*
G02*
X109605000Y-96805000I75000J0D01*
G01*
X111005000Y-96805000D01*
G75*
G02*
X111080000Y-96880000I0J-75000D01*
G01*
X111080000Y-97030000D01*
G75*
G02*
X111005000Y-97105000I-75000J0D01*
G01*
X109605000Y-97105000D01*
G75*
G02*
X109530000Y-97030000I0J75000D01*
G01*
G37*
%TD.AperFunction*%
%TO.P,U2,45*%
%TO.N,/SPI1_MOSI*%
%TA.AperFunction,SMDPad,CuDef*%
G36*
G01*
X109530000Y-96530000D02*
X109530000Y-96380000D01*
G75*
G02*
X109605000Y-96305000I75000J0D01*
G01*
X111005000Y-96305000D01*
G75*
G02*
X111080000Y-96380000I0J-75000D01*
G01*
X111080000Y-96530000D01*
G75*
G02*
X111005000Y-96605000I-75000J0D01*
G01*
X109605000Y-96605000D01*
G75*
G02*
X109530000Y-96530000I0J75000D01*
G01*
G37*
%TD.AperFunction*%
%TO.P,U2,46*%
%TO.N,/SWDIO*%
%TA.AperFunction,SMDPad,CuDef*%
G36*
G01*
X109530000Y-96030000D02*
X109530000Y-95880000D01*
G75*
G02*
X109605000Y-95805000I75000J0D01*
G01*
X111005000Y-95805000D01*
G75*
G02*
X111080000Y-95880000I0J-75000D01*
G01*
X111080000Y-96030000D01*
G75*
G02*
X111005000Y-96105000I-75000J0D01*
G01*
X109605000Y-96105000D01*
G75*
G02*
X109530000Y-96030000I0J75000D01*
G01*
G37*
%TD.AperFunction*%
%TO.P,U2,47*%
%TO.N,GND1*%
%TA.AperFunction,SMDPad,CuDef*%
G36*
G01*
X109530000Y-95530000D02*
X109530000Y-95380000D01*
G75*
G02*
X109605000Y-95305000I75000J0D01*
G01*
X111005000Y-95305000D01*
G75*
G02*
X111080000Y-95380000I0J-75000D01*
G01*
X111080000Y-95530000D01*
G75*
G02*
X111005000Y-95605000I-75000J0D01*
G01*
X109605000Y-95605000D01*
G75*
G02*
X109530000Y-95530000I0J75000D01*
G01*
G37*
%TD.AperFunction*%
%TO.P,U2,48*%
%TO.N,Net-(R4-Pad2)*%
%TA.AperFunction,SMDPad,CuDef*%
G36*
G01*
X109530000Y-95030000D02*
X109530000Y-94880000D01*
G75*
G02*
X109605000Y-94805000I75000J0D01*
G01*
X111005000Y-94805000D01*
G75*
G02*
X111080000Y-94880000I0J-75000D01*
G01*
X111080000Y-95030000D01*
G75*
G02*
X111005000Y-95105000I-75000J0D01*
G01*
X109605000Y-95105000D01*
G75*
G02*
X109530000Y-95030000I0J75000D01*
G01*
G37*
%TD.AperFunction*%
%TO.P,U2,49*%
%TO.N,/SWCLK*%
%TA.AperFunction,SMDPad,CuDef*%
G36*
G01*
X108230000Y-93730000D02*
X108230000Y-92330000D01*
G75*
G02*
X108305000Y-92255000I75000J0D01*
G01*
X108455000Y-92255000D01*
G75*
G02*
X108530000Y-92330000I0J-75000D01*
G01*
X108530000Y-93730000D01*
G75*
G02*
X108455000Y-93805000I-75000J0D01*
G01*
X108305000Y-93805000D01*
G75*
G02*
X108230000Y-93730000I0J75000D01*
G01*
G37*
%TD.AperFunction*%
%TO.P,U2,50*%
%TO.N,/JTDI*%
%TA.AperFunction,SMDPad,CuDef*%
G36*
G01*
X107730000Y-93730000D02*
X107730000Y-92330000D01*
G75*
G02*
X107805000Y-92255000I75000J0D01*
G01*
X107955000Y-92255000D01*
G75*
G02*
X108030000Y-92330000I0J-75000D01*
G01*
X108030000Y-93730000D01*
G75*
G02*
X107955000Y-93805000I-75000J0D01*
G01*
X107805000Y-93805000D01*
G75*
G02*
X107730000Y-93730000I0J75000D01*
G01*
G37*
%TD.AperFunction*%
%TO.P,U2,51*%
%TO.N,Net-(U2-Pad51)*%
%TA.AperFunction,SMDPad,CuDef*%
G36*
G01*
X107230000Y-93730000D02*
X107230000Y-92330000D01*
G75*
G02*
X107305000Y-92255000I75000J0D01*
G01*
X107455000Y-92255000D01*
G75*
G02*
X107530000Y-92330000I0J-75000D01*
G01*
X107530000Y-93730000D01*
G75*
G02*
X107455000Y-93805000I-75000J0D01*
G01*
X107305000Y-93805000D01*
G75*
G02*
X107230000Y-93730000I0J75000D01*
G01*
G37*
%TD.AperFunction*%
%TO.P,U2,52*%
%TO.N,Net-(U2-Pad52)*%
%TA.AperFunction,SMDPad,CuDef*%
G36*
G01*
X106730000Y-93730000D02*
X106730000Y-92330000D01*
G75*
G02*
X106805000Y-92255000I75000J0D01*
G01*
X106955000Y-92255000D01*
G75*
G02*
X107030000Y-92330000I0J-75000D01*
G01*
X107030000Y-93730000D01*
G75*
G02*
X106955000Y-93805000I-75000J0D01*
G01*
X106805000Y-93805000D01*
G75*
G02*
X106730000Y-93730000I0J75000D01*
G01*
G37*
%TD.AperFunction*%
%TO.P,U2,53*%
%TO.N,Net-(U2-Pad53)*%
%TA.AperFunction,SMDPad,CuDef*%
G36*
G01*
X106230000Y-93730000D02*
X106230000Y-92330000D01*
G75*
G02*
X106305000Y-92255000I75000J0D01*
G01*
X106455000Y-92255000D01*
G75*
G02*
X106530000Y-92330000I0J-75000D01*
G01*
X106530000Y-93730000D01*
G75*
G02*
X106455000Y-93805000I-75000J0D01*
G01*
X106305000Y-93805000D01*
G75*
G02*
X106230000Y-93730000I0J75000D01*
G01*
G37*
%TD.AperFunction*%
%TO.P,U2,54*%
%TO.N,Net-(U2-Pad54)*%
%TA.AperFunction,SMDPad,CuDef*%
G36*
G01*
X105730000Y-93730000D02*
X105730000Y-92330000D01*
G75*
G02*
X105805000Y-92255000I75000J0D01*
G01*
X105955000Y-92255000D01*
G75*
G02*
X106030000Y-92330000I0J-75000D01*
G01*
X106030000Y-93730000D01*
G75*
G02*
X105955000Y-93805000I-75000J0D01*
G01*
X105805000Y-93805000D01*
G75*
G02*
X105730000Y-93730000I0J75000D01*
G01*
G37*
%TD.AperFunction*%
%TO.P,U2,55*%
%TO.N,/JTDO*%
%TA.AperFunction,SMDPad,CuDef*%
G36*
G01*
X105230000Y-93730000D02*
X105230000Y-92330000D01*
G75*
G02*
X105305000Y-92255000I75000J0D01*
G01*
X105455000Y-92255000D01*
G75*
G02*
X105530000Y-92330000I0J-75000D01*
G01*
X105530000Y-93730000D01*
G75*
G02*
X105455000Y-93805000I-75000J0D01*
G01*
X105305000Y-93805000D01*
G75*
G02*
X105230000Y-93730000I0J75000D01*
G01*
G37*
%TD.AperFunction*%
%TO.P,U2,56*%
%TO.N,/NJTRST*%
%TA.AperFunction,SMDPad,CuDef*%
G36*
G01*
X104730000Y-93730000D02*
X104730000Y-92330000D01*
G75*
G02*
X104805000Y-92255000I75000J0D01*
G01*
X104955000Y-92255000D01*
G75*
G02*
X105030000Y-92330000I0J-75000D01*
G01*
X105030000Y-93730000D01*
G75*
G02*
X104955000Y-93805000I-75000J0D01*
G01*
X104805000Y-93805000D01*
G75*
G02*
X104730000Y-93730000I0J75000D01*
G01*
G37*
%TD.AperFunction*%
%TO.P,U2,57*%
%TO.N,Net-(U2-Pad57)*%
%TA.AperFunction,SMDPad,CuDef*%
G36*
G01*
X104230000Y-93730000D02*
X104230000Y-92330000D01*
G75*
G02*
X104305000Y-92255000I75000J0D01*
G01*
X104455000Y-92255000D01*
G75*
G02*
X104530000Y-92330000I0J-75000D01*
G01*
X104530000Y-93730000D01*
G75*
G02*
X104455000Y-93805000I-75000J0D01*
G01*
X104305000Y-93805000D01*
G75*
G02*
X104230000Y-93730000I0J75000D01*
G01*
G37*
%TD.AperFunction*%
%TO.P,U2,58*%
%TO.N,Net-(U2-Pad58)*%
%TA.AperFunction,SMDPad,CuDef*%
G36*
G01*
X103730000Y-93730000D02*
X103730000Y-92330000D01*
G75*
G02*
X103805000Y-92255000I75000J0D01*
G01*
X103955000Y-92255000D01*
G75*
G02*
X104030000Y-92330000I0J-75000D01*
G01*
X104030000Y-93730000D01*
G75*
G02*
X103955000Y-93805000I-75000J0D01*
G01*
X103805000Y-93805000D01*
G75*
G02*
X103730000Y-93730000I0J75000D01*
G01*
G37*
%TD.AperFunction*%
%TO.P,U2,59*%
%TO.N,Net-(U2-Pad59)*%
%TA.AperFunction,SMDPad,CuDef*%
G36*
G01*
X103230000Y-93730000D02*
X103230000Y-92330000D01*
G75*
G02*
X103305000Y-92255000I75000J0D01*
G01*
X103455000Y-92255000D01*
G75*
G02*
X103530000Y-92330000I0J-75000D01*
G01*
X103530000Y-93730000D01*
G75*
G02*
X103455000Y-93805000I-75000J0D01*
G01*
X103305000Y-93805000D01*
G75*
G02*
X103230000Y-93730000I0J75000D01*
G01*
G37*
%TD.AperFunction*%
%TO.P,U2,60*%
%TO.N,/BOOT0*%
%TA.AperFunction,SMDPad,CuDef*%
G36*
G01*
X102730000Y-93730000D02*
X102730000Y-92330000D01*
G75*
G02*
X102805000Y-92255000I75000J0D01*
G01*
X102955000Y-92255000D01*
G75*
G02*
X103030000Y-92330000I0J-75000D01*
G01*
X103030000Y-93730000D01*
G75*
G02*
X102955000Y-93805000I-75000J0D01*
G01*
X102805000Y-93805000D01*
G75*
G02*
X102730000Y-93730000I0J75000D01*
G01*
G37*
%TD.AperFunction*%
%TO.P,U2,61*%
%TO.N,/GPIO_0*%
%TA.AperFunction,SMDPad,CuDef*%
G36*
G01*
X102230000Y-93730000D02*
X102230000Y-92330000D01*
G75*
G02*
X102305000Y-92255000I75000J0D01*
G01*
X102455000Y-92255000D01*
G75*
G02*
X102530000Y-92330000I0J-75000D01*
G01*
X102530000Y-93730000D01*
G75*
G02*
X102455000Y-93805000I-75000J0D01*
G01*
X102305000Y-93805000D01*
G75*
G02*
X102230000Y-93730000I0J75000D01*
G01*
G37*
%TD.AperFunction*%
%TO.P,U2,62*%
%TO.N,Net-(U2-Pad62)*%
%TA.AperFunction,SMDPad,CuDef*%
G36*
G01*
X101730000Y-93730000D02*
X101730000Y-92330000D01*
G75*
G02*
X101805000Y-92255000I75000J0D01*
G01*
X101955000Y-92255000D01*
G75*
G02*
X102030000Y-92330000I0J-75000D01*
G01*
X102030000Y-93730000D01*
G75*
G02*
X101955000Y-93805000I-75000J0D01*
G01*
X101805000Y-93805000D01*
G75*
G02*
X101730000Y-93730000I0J75000D01*
G01*
G37*
%TD.AperFunction*%
%TO.P,U2,63*%
%TO.N,GND1*%
%TA.AperFunction,SMDPad,CuDef*%
G36*
G01*
X101230000Y-93730000D02*
X101230000Y-92330000D01*
G75*
G02*
X101305000Y-92255000I75000J0D01*
G01*
X101455000Y-92255000D01*
G75*
G02*
X101530000Y-92330000I0J-75000D01*
G01*
X101530000Y-93730000D01*
G75*
G02*
X101455000Y-93805000I-75000J0D01*
G01*
X101305000Y-93805000D01*
G75*
G02*
X101230000Y-93730000I0J75000D01*
G01*
G37*
%TD.AperFunction*%
%TO.P,U2,64*%
%TO.N,+3V3*%
%TA.AperFunction,SMDPad,CuDef*%
G36*
G01*
X100730000Y-93730000D02*
X100730000Y-92330000D01*
G75*
G02*
X100805000Y-92255000I75000J0D01*
G01*
X100955000Y-92255000D01*
G75*
G02*
X101030000Y-92330000I0J-75000D01*
G01*
X101030000Y-93730000D01*
G75*
G02*
X100955000Y-93805000I-75000J0D01*
G01*
X100805000Y-93805000D01*
G75*
G02*
X100730000Y-93730000I0J75000D01*
G01*
G37*
%TD.AperFunction*%
%TD*%
D15*
%TO.P,U3,1*%
%TO.N,+5V*%
X116100000Y-84420000D03*
%TO.P,U3,2*%
%TO.N,GND1*%
X117050000Y-84420000D03*
%TO.P,U3,3*%
%TO.N,+5V*%
X118000000Y-84420000D03*
%TO.P,U3,4*%
%TO.N,Net-(U3-Pad4)*%
X118000000Y-82220000D03*
%TO.P,U3,5*%
%TO.N,+3V3*%
X116100000Y-82220000D03*
%TD*%
D12*
%TO.P,J17,1*%
%TO.N,/TIM15_CH1_SHIFT*%
X115570000Y-113030000D03*
%TD*%
D10*
%TO.P,J18,1*%
%TO.N,GND1*%
X106900000Y-80280000D03*
D11*
%TO.P,J18,2*%
%TO.N,/NRST*%
X109440000Y-80280000D03*
%TO.P,J18,3*%
%TO.N,/NJTRST*%
X106900000Y-82820000D03*
%TO.P,J18,4*%
%TO.N,/JTDO*%
X109440000Y-82820000D03*
%TO.P,J18,5*%
%TO.N,/JTDI*%
X106900000Y-85360000D03*
%TO.P,J18,6*%
%TO.N,/SWCLK*%
X109440000Y-85360000D03*
%TO.P,J18,7*%
%TO.N,/SWDIO*%
X106900000Y-87900000D03*
%TO.P,J18,8*%
%TO.N,+3V3*%
X109440000Y-87900000D03*
%TD*%
D12*
%TO.P,J19,1*%
%TO.N,/TIM2_CH2_SHIFT*%
X115570000Y-116840000D03*
%TD*%
%TO.P,J22,1*%
%TO.N,/TIM16_CH1_SHIFT*%
X115570000Y-109220000D03*
%TD*%
%TO.P,J23,1*%
%TO.N,/TIM1_CH1_SHIFT*%
X115570000Y-120650000D03*
%TD*%
%TO.P,R8,2*%
%TO.N,/SWCLK*%
%TA.AperFunction,SMDPad,CuDef*%
G36*
G01*
X114042500Y-81660000D02*
X114517500Y-81660000D01*
G75*
G02*
X114755000Y-81897500I0J-237500D01*
G01*
X114755000Y-82472500D01*
G75*
G02*
X114517500Y-82710000I-237500J0D01*
G01*
X114042500Y-82710000D01*
G75*
G02*
X113805000Y-82472500I0J237500D01*
G01*
X113805000Y-81897500D01*
G75*
G02*
X114042500Y-81660000I237500J0D01*
G01*
G37*
%TD.AperFunction*%
%TO.P,R8,1*%
%TO.N,+3V3*%
%TA.AperFunction,SMDPad,CuDef*%
G36*
G01*
X114042500Y-79910000D02*
X114517500Y-79910000D01*
G75*
G02*
X114755000Y-80147500I0J-237500D01*
G01*
X114755000Y-80722500D01*
G75*
G02*
X114517500Y-80960000I-237500J0D01*
G01*
X114042500Y-80960000D01*
G75*
G02*
X113805000Y-80722500I0J237500D01*
G01*
X113805000Y-80147500D01*
G75*
G02*
X114042500Y-79910000I237500J0D01*
G01*
G37*
%TD.AperFunction*%
%TD*%
%TO.P,R9,1*%
%TO.N,+3V3*%
%TA.AperFunction,SMDPad,CuDef*%
G36*
G01*
X99615000Y-84607500D02*
X99615000Y-84132500D01*
G75*
G02*
X99852500Y-83895000I237500J0D01*
G01*
X100427500Y-83895000D01*
G75*
G02*
X100665000Y-84132500I0J-237500D01*
G01*
X100665000Y-84607500D01*
G75*
G02*
X100427500Y-84845000I-237500J0D01*
G01*
X99852500Y-84845000D01*
G75*
G02*
X99615000Y-84607500I0J237500D01*
G01*
G37*
%TD.AperFunction*%
%TO.P,R9,2*%
%TO.N,/JTDI*%
%TA.AperFunction,SMDPad,CuDef*%
G36*
G01*
X101365000Y-84607500D02*
X101365000Y-84132500D01*
G75*
G02*
X101602500Y-83895000I237500J0D01*
G01*
X102177500Y-83895000D01*
G75*
G02*
X102415000Y-84132500I0J-237500D01*
G01*
X102415000Y-84607500D01*
G75*
G02*
X102177500Y-84845000I-237500J0D01*
G01*
X101602500Y-84845000D01*
G75*
G02*
X101365000Y-84607500I0J237500D01*
G01*
G37*
%TD.AperFunction*%
%TD*%
D16*
%TO.P,Y2,1*%
%TO.N,Net-(C3-Pad1)*%
X98017500Y-92170000D03*
%TO.P,Y2,2*%
%TO.N,Net-(C4-Pad1)*%
X98842500Y-92170000D03*
%TD*%
D17*
%TO.P,Y1,1*%
%TO.N,/OSC48_LO*%
X95480000Y-98090000D03*
%TO.P,Y1,2*%
%TO.N,GND1*%
X95480000Y-96390000D03*
%TO.P,Y1,3*%
%TO.N,/OSC48_HI*%
X94180000Y-96390000D03*
%TO.P,Y1,4*%
%TO.N,GND1*%
X94180000Y-98090000D03*
%TD*%
D11*
%TO.P,J14,2*%
%TO.N,+5V*%
X86960000Y-90990000D03*
D10*
%TO.P,J14,1*%
%TO.N,Net-(J14-Pad1)*%
X86960000Y-93530000D03*
%TD*%
%TO.P,J16,1*%
%TO.N,Net-(J16-Pad1)*%
X85507846Y-104830192D03*
D11*
%TO.P,J16,2*%
%TO.N,+5V*%
X85507846Y-107370192D03*
%TD*%
D18*
%TO.N,GND1*%
X108380000Y-96010000D03*
X92915000Y-98105000D03*
X96810000Y-96530000D03*
X97690000Y-87300000D03*
X99280000Y-87310000D03*
X92865000Y-92875000D03*
X100730000Y-99370000D03*
X101380000Y-102540000D03*
X86635000Y-112085000D03*
X88850000Y-110260000D03*
X88830000Y-105470000D03*
X94310000Y-101600000D03*
X92550000Y-94910000D03*
X85015000Y-96305000D03*
X110900000Y-107990000D03*
X99360000Y-109830000D03*
X100880000Y-87350000D03*
X101380000Y-94730000D03*
X105630000Y-106100000D03*
X110890000Y-93660000D03*
X112375000Y-113045000D03*
X101390000Y-115760000D03*
X107990000Y-102520000D03*
X119180000Y-80670000D03*
%TO.N,+3V3*%
X98225000Y-93965000D03*
X103780000Y-90500000D03*
X88470000Y-111870000D03*
X88840000Y-107080000D03*
X88760000Y-103810000D03*
X95940000Y-89300000D03*
X100010000Y-104890000D03*
X99960000Y-92590000D03*
X107730000Y-110740000D03*
X98380000Y-86230000D03*
%TO.N,/NRST*%
X96730000Y-98010000D03*
X96880000Y-93720000D03*
%TO.N,+5V*%
X117720000Y-106490000D03*
%TO.N,/SPI1_SCK*%
X103080000Y-99250000D03*
%TO.N,/SPI1_CSN*%
X102670000Y-100390000D03*
%TO.N,/WKUP2*%
X89210000Y-94890000D03*
X88430000Y-108540000D03*
%TO.N,/LED_OUT_1*%
X94190000Y-99600000D03*
X96930000Y-99100000D03*
%TO.N,/I2C2_SCL*%
X106210000Y-100650000D03*
%TO.N,/I2C2_SDA*%
X106930000Y-101360000D03*
%TO.N,/GPIO_2_SHIFT*%
X102570000Y-112560000D03*
%TO.N,/GPIO_1*%
X112880000Y-101650000D03*
%TO.N,/GPIO_0*%
X102760000Y-94860000D03*
%TO.N,/SWCLK*%
X104810000Y-87640000D03*
%TO.N,/JTDI*%
X106970702Y-94780000D03*
%TO.N,/JTDO*%
X109680000Y-93810000D03*
X112160000Y-88750000D03*
%TO.N,/NJTRST*%
X104900000Y-95100000D03*
%TO.N,/TIM16_CH1*%
X104200000Y-101160000D03*
X107630000Y-106920000D03*
%TO.N,/TIM15_CH1*%
X102240000Y-101790000D03*
X106670000Y-110970000D03*
%TO.N,/TIM2_CH2*%
X97125000Y-102545000D03*
X104430000Y-111320000D03*
%TO.N,/TIM1_CH1*%
X106630000Y-106790000D03*
X107950000Y-100630000D03*
%TO.N,/USART1_TX*%
X113020000Y-99170000D03*
X107220000Y-98460000D03*
%TO.N,/GPIO_2*%
X99880000Y-111530000D03*
X101030000Y-96740000D03*
%TO.N,/GPIO_3*%
X100600000Y-110750000D03*
X100990000Y-97980000D03*
%TO.N,/LEVEL_SHIFTER_EN*%
X101340000Y-109920000D03*
X100940000Y-100600000D03*
%TD*%
D19*
%TO.N,GND1*%
X122130000Y-90780000D02*
X122130000Y-91260000D01*
D20*
X110180010Y-95479990D02*
X108910010Y-95479990D01*
X110205000Y-95455000D02*
X110180010Y-95479990D01*
X110305000Y-95455000D02*
X110205000Y-95455000D01*
X108910010Y-95479990D02*
X108380000Y-96010000D01*
X108380000Y-96010000D02*
X108380000Y-96010000D01*
X95530000Y-101600000D02*
X94310000Y-101600000D01*
X94310000Y-101600000D02*
X94220000Y-101600000D01*
X94180000Y-98090000D02*
X93040000Y-98090000D01*
X93040000Y-98090000D02*
X92930000Y-98090000D01*
X92930000Y-98090000D02*
X92915000Y-98105000D01*
X95480000Y-96390000D02*
X96670000Y-96390000D01*
X96670000Y-96390000D02*
X96810000Y-96530000D01*
X97690000Y-88660000D02*
X97690000Y-87300000D01*
X99280000Y-88670000D02*
X99280000Y-87310000D01*
X94140000Y-92875000D02*
X92865000Y-92875000D01*
X99015000Y-100455000D02*
X99030000Y-100470000D01*
X98955000Y-100455000D02*
X99015000Y-100455000D01*
X101380000Y-104380000D02*
X101380000Y-102540000D01*
X101380000Y-102540000D02*
X101380000Y-102540000D01*
X86735000Y-113550000D02*
X86735000Y-112185000D01*
X86735000Y-112185000D02*
X86635000Y-112085000D01*
X90155000Y-110255000D02*
X90160000Y-110260000D01*
X90155000Y-108650000D02*
X90155000Y-110255000D01*
X90160000Y-110260000D02*
X88850000Y-110260000D01*
X88850000Y-110260000D02*
X88850000Y-110260000D01*
X90175000Y-105470000D02*
X88830000Y-105470000D01*
X88830000Y-105470000D02*
X88830000Y-105470000D01*
X92915000Y-97839998D02*
X92915000Y-98105000D01*
X91690000Y-96150000D02*
X91690000Y-95770000D01*
X91690000Y-95770000D02*
X92550000Y-94910000D01*
X90914999Y-96925001D02*
X91690000Y-96150000D01*
X90914999Y-98710001D02*
X90914999Y-96925001D01*
X91670009Y-99465011D02*
X90914999Y-98710001D01*
X92675011Y-99465011D02*
X91670009Y-99465011D01*
X93030000Y-99820000D02*
X92675011Y-99465011D01*
X93030000Y-99850000D02*
X93030000Y-99820000D01*
X86470000Y-96305000D02*
X85015000Y-96305000D01*
D19*
X117050000Y-86720000D02*
X118350000Y-88020000D01*
X117050000Y-84420000D02*
X117050000Y-86720000D01*
X122130000Y-91260000D02*
X121590000Y-91260000D01*
X116865000Y-86905000D02*
X117050000Y-86720000D01*
X114340000Y-86905000D02*
X116865000Y-86905000D01*
X112365000Y-93400000D02*
X112365000Y-91830000D01*
D20*
X91550000Y-92875000D02*
X91515000Y-92840000D01*
X92865000Y-92875000D02*
X91550000Y-92875000D01*
X110680000Y-106320000D02*
X110680000Y-107770000D01*
X110680000Y-107770000D02*
X110900000Y-107990000D01*
X110900000Y-107990000D02*
X110900000Y-107990000D01*
X100010000Y-108060000D02*
X100010000Y-109180000D01*
X100010000Y-109180000D02*
X99360000Y-109830000D01*
X99360000Y-109830000D02*
X99360000Y-109830000D01*
X100880000Y-88680000D02*
X100880000Y-87350000D01*
X100880000Y-87350000D02*
X100880000Y-87350000D01*
X100885000Y-88685000D02*
X100880000Y-88680000D01*
X102510000Y-88685000D02*
X100885000Y-88685000D01*
X101380000Y-93030000D02*
X101380000Y-94730000D01*
X101380000Y-94730000D02*
X101380000Y-94730000D01*
X85390010Y-96680010D02*
X85015000Y-96305000D01*
X85390010Y-98470010D02*
X85390010Y-96680010D01*
X86995000Y-100075000D02*
X85390010Y-98470010D01*
X87680000Y-100075000D02*
X86995000Y-100075000D01*
X104000000Y-106400000D02*
X105330000Y-106400000D01*
X105330000Y-106400000D02*
X105630000Y-106100000D01*
X105630000Y-106100000D02*
X105630000Y-106100000D01*
X112365000Y-93400000D02*
X111150000Y-93400000D01*
X111150000Y-93400000D02*
X110890000Y-93660000D01*
X110890000Y-93660000D02*
X110890000Y-93660000D01*
X111120000Y-113300000D02*
X112120000Y-113300000D01*
X112120000Y-113300000D02*
X112375000Y-113045000D01*
X110250010Y-109035500D02*
X110250010Y-108639990D01*
X110250010Y-108639990D02*
X110900000Y-107990000D01*
X109450000Y-109835510D02*
X110250010Y-109035500D01*
X109450000Y-110265000D02*
X109450000Y-109835510D01*
X101997352Y-114197131D02*
X101997352Y-115152648D01*
X101997352Y-115152648D02*
X101430000Y-115720000D01*
X101430000Y-115720000D02*
X101390000Y-115760000D01*
X101390000Y-115760000D02*
X101390000Y-115760000D01*
X107880000Y-104380000D02*
X107880000Y-102630000D01*
X107880000Y-102630000D02*
X107990000Y-102520000D01*
X107990000Y-102520000D02*
X107990000Y-102520000D01*
X99795702Y-100455000D02*
X100200000Y-100050702D01*
X98955000Y-100455000D02*
X99795702Y-100455000D01*
X100200000Y-99900000D02*
X100730000Y-99370000D01*
X100200000Y-100050702D02*
X100200000Y-99900000D01*
X109730000Y-92500000D02*
X110890000Y-93660000D01*
X109730000Y-92450000D02*
X109730000Y-92500000D01*
D19*
X121400000Y-91070000D02*
X118350000Y-88020000D01*
X122510000Y-91070000D02*
X121400000Y-91070000D01*
X117745000Y-80400000D02*
X118910000Y-80400000D01*
X118910000Y-80400000D02*
X119180000Y-80670000D01*
X119180000Y-80670000D02*
X119180000Y-80670000D01*
D20*
%TO.N,Net-(C3-Pad1)*%
X98017500Y-92676798D02*
X98017500Y-92170000D01*
X100055010Y-94714308D02*
X98017500Y-92676798D01*
X100055010Y-95695692D02*
X100055010Y-94714308D01*
X99795702Y-95955000D02*
X100055010Y-95695692D01*
X98955000Y-95955000D02*
X99795702Y-95955000D01*
X98017500Y-90737500D02*
X97690000Y-90410000D01*
X98017500Y-92170000D02*
X98017500Y-90737500D01*
%TO.N,Net-(C4-Pad1)*%
X98955000Y-96445000D02*
X98940010Y-96430010D01*
X98955000Y-96455000D02*
X98955000Y-96445000D01*
X100505021Y-95882090D02*
X100505019Y-94527907D01*
X99932112Y-96455000D02*
X100505021Y-95882090D01*
X98955000Y-96455000D02*
X99932112Y-96455000D01*
X98842500Y-92865388D02*
X98842500Y-92170000D01*
X100505019Y-94527907D02*
X98842500Y-92865388D01*
X98842500Y-90857500D02*
X99280000Y-90420000D01*
X98842500Y-92170000D02*
X98842500Y-90857500D01*
D21*
%TO.N,+3V3*%
X115950000Y-82370000D02*
X116100000Y-82220000D01*
D20*
X98955000Y-94955000D02*
X98955000Y-94695000D01*
X98955000Y-94695000D02*
X98225000Y-93965000D01*
X98225000Y-93965000D02*
X98200000Y-93940000D01*
X100880000Y-93030000D02*
X100880000Y-93000000D01*
X90200000Y-111905000D02*
X90165000Y-111870000D01*
X90200000Y-113580000D02*
X90200000Y-111905000D01*
X90165000Y-111870000D02*
X88470000Y-111870000D01*
X88470000Y-111870000D02*
X88470000Y-111870000D01*
X90185000Y-107080000D02*
X88840000Y-107080000D01*
X88840000Y-107080000D02*
X88840000Y-107080000D01*
X90205000Y-103810000D02*
X88760000Y-103810000D01*
X88760000Y-103810000D02*
X88760000Y-103810000D01*
D19*
X114115000Y-91830000D02*
X114115000Y-93400000D01*
X114130000Y-93415000D02*
X114115000Y-93400000D01*
X114130000Y-94990000D02*
X114130000Y-93415000D01*
D20*
X95940000Y-90715000D02*
X95940000Y-89300000D01*
X108930000Y-104930000D02*
X108380000Y-104380000D01*
X108930000Y-106320000D02*
X108930000Y-104930000D01*
X108930000Y-107995000D02*
X109450000Y-108515000D01*
X108930000Y-106320000D02*
X108930000Y-107995000D01*
X100055010Y-101214308D02*
X99795702Y-100955000D01*
X99795702Y-100955000D02*
X98955000Y-100955000D01*
X100010000Y-106310000D02*
X100055010Y-106264990D01*
X100010000Y-106310000D02*
X100010000Y-104890000D01*
X100010000Y-104890000D02*
X100010000Y-104890000D01*
X100055010Y-102695692D02*
X99460000Y-103290702D01*
X100055010Y-101214308D02*
X100055010Y-102695692D01*
X99460000Y-105760000D02*
X100010000Y-106310000D01*
X99460000Y-103290702D02*
X99460000Y-105760000D01*
X101880000Y-106030000D02*
X101880000Y-104380000D01*
X102250000Y-106400000D02*
X101880000Y-106030000D01*
X100049298Y-104890000D02*
X100010000Y-104890000D01*
X101559298Y-106400000D02*
X100049298Y-104890000D01*
X102250000Y-106400000D02*
X101559298Y-106400000D01*
X98955000Y-94955000D02*
X97985000Y-94955000D01*
X97605001Y-94575001D02*
X97605001Y-93255001D01*
X97985000Y-94955000D02*
X97605001Y-94575001D01*
X97219500Y-89559990D02*
X100009990Y-89559990D01*
X96889990Y-89889500D02*
X97219500Y-89559990D01*
X100009990Y-89559990D02*
X100880000Y-90430000D01*
X96889990Y-92539990D02*
X96889990Y-89889500D01*
X97605001Y-93255001D02*
X96889990Y-92539990D01*
X102510000Y-90435000D02*
X102510000Y-90560000D01*
X102510000Y-90435000D02*
X102510000Y-90490000D01*
X102510000Y-90490000D02*
X101620000Y-91380000D01*
X100880000Y-92052888D02*
X100880000Y-93030000D01*
X101552888Y-91380000D02*
X100880000Y-92052888D01*
X101620000Y-91380000D02*
X101552888Y-91380000D01*
X102575000Y-90500000D02*
X102510000Y-90435000D01*
X103780000Y-90500000D02*
X102575000Y-90500000D01*
X100880000Y-93030000D02*
X100400000Y-93030000D01*
X100400000Y-93030000D02*
X99960000Y-92590000D01*
X99960000Y-92590000D02*
X99960000Y-92590000D01*
X103940000Y-90660000D02*
X103780000Y-90500000D01*
X106375000Y-90660000D02*
X103940000Y-90660000D01*
X107197352Y-110424350D02*
X107395001Y-110621999D01*
X107197352Y-108472131D02*
X107197352Y-110424350D01*
X107395001Y-110621999D02*
X107611999Y-110621999D01*
X107611999Y-110621999D02*
X107730000Y-110740000D01*
X107730000Y-110740000D02*
X107730000Y-110740000D01*
X107730000Y-110235000D02*
X107730000Y-110740000D01*
X109450000Y-108515000D02*
X107730000Y-110235000D01*
D19*
X116100000Y-80505000D02*
X115995000Y-80400000D01*
X116100000Y-82220000D02*
X116100000Y-80505000D01*
X114340000Y-83980000D02*
X114340000Y-85155000D01*
X116100000Y-82220000D02*
X114340000Y-83980000D01*
X114315000Y-80400000D02*
X114280000Y-80435000D01*
X115995000Y-80400000D02*
X114315000Y-80400000D01*
D20*
X109440000Y-87900000D02*
X110160000Y-87900000D01*
X110160000Y-87900000D02*
X111810000Y-86250000D01*
X113245000Y-86250000D02*
X114340000Y-85155000D01*
X111810000Y-86250000D02*
X113245000Y-86250000D01*
X116140000Y-88560000D02*
X116300000Y-88560000D01*
X115339990Y-87759990D02*
X112559990Y-87759990D01*
X116140000Y-88560000D02*
X115339990Y-87759990D01*
X112419980Y-87900000D02*
X112559990Y-87759990D01*
X109440000Y-87900000D02*
X112419980Y-87900000D01*
X100115000Y-86050000D02*
X98560000Y-86050000D01*
X98560000Y-86050000D02*
X98380000Y-86230000D01*
X98380000Y-86230000D02*
X98380000Y-86230000D01*
X100140000Y-82750000D02*
X100130000Y-82740000D01*
X100140000Y-84370000D02*
X100140000Y-82750000D01*
X98470000Y-84370000D02*
X97340000Y-83240000D01*
X100140000Y-84370000D02*
X98470000Y-84370000D01*
X114115000Y-90585000D02*
X116140000Y-88560000D01*
X114115000Y-91830000D02*
X114115000Y-90585000D01*
%TO.N,/NRST*%
X96890000Y-98210000D02*
X96890000Y-98210000D01*
X96880000Y-93405000D02*
X95940000Y-92465000D01*
X96880000Y-93720000D02*
X96880000Y-93405000D01*
X95475000Y-92465000D02*
X93130000Y-90120000D01*
X95940000Y-92465000D02*
X95475000Y-92465000D01*
X92485000Y-90120000D02*
X93130000Y-90120000D01*
X89765000Y-92840000D02*
X92485000Y-90120000D01*
X107464001Y-86535001D02*
X106171411Y-86535001D01*
X104886400Y-85249990D02*
X98000010Y-85249990D01*
X106171411Y-86535001D02*
X104886400Y-85249990D01*
X108264999Y-85734003D02*
X107464001Y-86535001D01*
X108264999Y-81455001D02*
X108264999Y-85734003D01*
X98000010Y-85249990D02*
X93130000Y-90120000D01*
X109440000Y-80280000D02*
X108264999Y-81455001D01*
X96785000Y-97955000D02*
X98955000Y-97955000D01*
X96730000Y-98010000D02*
X96785000Y-97955000D01*
D19*
%TO.N,+5V*%
X118350000Y-84770000D02*
X118000000Y-84420000D01*
X118350000Y-86270000D02*
X118350000Y-84770000D01*
D20*
X109204621Y-113134621D02*
X109370000Y-113300000D01*
X107522362Y-113134621D02*
X109204621Y-113134621D01*
X107197352Y-113459631D02*
X107522362Y-113134621D01*
X107197352Y-114197131D02*
X107197352Y-113459631D01*
D21*
X118890000Y-85310000D02*
X118350000Y-84770000D01*
X122490000Y-85310000D02*
X118890000Y-85310000D01*
D22*
X119695532Y-78979999D02*
X99060001Y-78979999D01*
X122490000Y-81774467D02*
X119695532Y-78979999D01*
X99060001Y-78979999D02*
X94800000Y-83240000D01*
X122490000Y-85310000D02*
X122490000Y-81774467D01*
X87050000Y-90990000D02*
X86960000Y-90990000D01*
X94800000Y-83240000D02*
X87050000Y-90990000D01*
X84164999Y-93785001D02*
X86960000Y-90990000D01*
X84164999Y-106027345D02*
X84164999Y-93785001D01*
X85507846Y-107370192D02*
X84164999Y-106027345D01*
D20*
X109370000Y-112938330D02*
X114768330Y-107540000D01*
X109370000Y-113300000D02*
X109370000Y-112938330D01*
X114768330Y-107540000D02*
X116670000Y-107540000D01*
X116670000Y-107540000D02*
X117720000Y-106490000D01*
X117720000Y-106490000D02*
X117720000Y-106490000D01*
X116100000Y-83929998D02*
X116100000Y-84420000D01*
X116464999Y-83564999D02*
X116100000Y-83929998D01*
X118000000Y-83640000D02*
X117924999Y-83564999D01*
X117924999Y-83564999D02*
X116464999Y-83564999D01*
X118000000Y-84420000D02*
X118000000Y-83640000D01*
%TO.N,/SPI1_MOSI*%
X118110000Y-95770000D02*
X115150000Y-95770000D01*
X112871920Y-96455000D02*
X110305000Y-96455000D01*
X113156920Y-96170000D02*
X112871920Y-96455000D01*
X114750000Y-96170000D02*
X113156920Y-96170000D01*
X115150000Y-95770000D02*
X114750000Y-96170000D01*
%TO.N,/SPI1_MISO*%
X118110000Y-98310000D02*
X117470000Y-98310000D01*
X117470000Y-98310000D02*
X116750000Y-97590000D01*
X116750000Y-97590000D02*
X112170000Y-97590000D01*
X111220702Y-97030000D02*
X111145702Y-96955000D01*
X111145702Y-96955000D02*
X110305000Y-96955000D01*
X111610000Y-97030000D02*
X111220702Y-97030000D01*
X112170000Y-97590000D02*
X111610000Y-97030000D01*
%TO.N,/SPI1_SCK*%
X102880000Y-102859412D02*
X103415011Y-102324401D01*
X102880000Y-104380000D02*
X102880000Y-102859412D01*
X103415011Y-102324401D02*
X103415011Y-99964989D01*
X103415011Y-99585011D02*
X103080000Y-99250000D01*
X103415011Y-99964989D02*
X103415011Y-99585011D01*
%TO.N,/SPI1_CSN*%
X102965001Y-102138001D02*
X102965001Y-100685001D01*
X102380000Y-104380000D02*
X102360000Y-104380000D01*
X102360000Y-104380000D02*
X102355010Y-104375010D01*
X102355010Y-102747992D02*
X102965001Y-102138001D01*
X102965001Y-100685001D02*
X102670000Y-100390000D01*
X102355010Y-104375010D02*
X102355010Y-102747992D01*
%TO.N,/USART1_TX_SHIFT*%
X103947353Y-113508573D02*
X103947353Y-114197130D01*
X103947352Y-116920628D02*
X103947352Y-114197131D01*
X103747350Y-117120630D02*
X103947352Y-116920628D01*
X103747350Y-118248632D02*
X103747350Y-117120630D01*
X111340358Y-119330000D02*
X104828718Y-119330000D01*
X113460000Y-121449642D02*
X111340358Y-119330000D01*
X113460000Y-121581412D02*
X113460000Y-121449642D01*
X114603598Y-122725010D02*
X113460000Y-121581412D01*
X121564999Y-106120003D02*
X121564999Y-117060003D01*
X117754998Y-121506414D02*
X116536401Y-122725011D01*
X117754999Y-119315001D02*
X117754998Y-121506414D01*
X120160001Y-118465001D02*
X118604999Y-118465001D01*
X104828718Y-119330000D02*
X103747350Y-118248632D01*
X123145001Y-99525001D02*
X123145001Y-104540001D01*
X121970000Y-98350000D02*
X123145001Y-99525001D01*
X123145001Y-104540001D02*
X121564999Y-106120003D01*
X121564999Y-117060003D02*
X120160001Y-118465001D01*
X116536401Y-122725011D02*
X114603598Y-122725010D01*
X118604999Y-118465001D02*
X117754999Y-119315001D01*
%TO.N,/USART1_RX_SHIFT*%
X104722343Y-114072141D02*
X104597352Y-114197130D01*
X104722342Y-113633562D02*
X104722343Y-114072141D01*
X104597352Y-114921040D02*
X106346312Y-116670000D01*
X104597352Y-114197131D02*
X104597352Y-114921040D01*
X121005001Y-104750003D02*
X120794999Y-104540001D01*
X121005001Y-113810001D02*
X121005001Y-104750003D01*
X120794999Y-104540001D02*
X120794999Y-102065001D01*
X120160001Y-114655001D02*
X121005001Y-113810001D01*
X117754999Y-116059999D02*
X119159997Y-114655001D01*
X120794999Y-102065001D02*
X121970000Y-100890000D01*
X106287350Y-118248632D02*
X106898350Y-118859632D01*
X106287350Y-116728962D02*
X106287350Y-118248632D01*
X119159997Y-114655001D02*
X120160001Y-114655001D01*
X106346312Y-116670000D02*
X106287350Y-116728962D01*
X116350001Y-122275001D02*
X117304989Y-121320013D01*
X114789999Y-122275001D02*
X116350001Y-122275001D01*
X113944999Y-121430001D02*
X114789999Y-122275001D01*
X117304989Y-116510009D02*
X117754999Y-116059999D01*
X113944999Y-121298231D02*
X113944999Y-121430001D01*
X117304989Y-121320013D02*
X117304989Y-116510009D01*
X111506400Y-118859632D02*
X113944999Y-121298231D01*
X106898350Y-118859632D02*
X111506400Y-118859632D01*
%TO.N,/WKUP2*%
X91925000Y-105470000D02*
X92360000Y-105470000D01*
X92360000Y-105470000D02*
X92880000Y-105990000D01*
X96606984Y-105990000D02*
X97309280Y-105287704D01*
X92880000Y-105990000D02*
X96606984Y-105990000D01*
X91925000Y-103840000D02*
X91955000Y-103810000D01*
X91925000Y-105470000D02*
X91925000Y-103840000D01*
%TO.N,/WKUP1*%
X97309280Y-107827704D02*
X96687704Y-107827704D01*
X95940000Y-107080000D02*
X91935000Y-107080000D01*
X96687704Y-107827704D02*
X95940000Y-107080000D01*
X91905000Y-107110000D02*
X91935000Y-107080000D01*
X91905000Y-108650000D02*
X91905000Y-107110000D01*
X98484281Y-104723703D02*
X97750578Y-103990000D01*
X98484281Y-105851705D02*
X98484281Y-104723703D01*
X97309280Y-107026706D02*
X98484281Y-105851705D01*
X97309280Y-107827704D02*
X97309280Y-107026706D01*
X97750578Y-103990000D02*
X97060000Y-103990000D01*
X97060000Y-103990000D02*
X96330010Y-103260010D01*
X96330010Y-103260010D02*
X96330010Y-101819990D01*
X98114298Y-101455000D02*
X98955000Y-101455000D01*
X98029298Y-101370000D02*
X98114298Y-101455000D01*
X96780000Y-101370000D02*
X98029298Y-101370000D01*
X96330010Y-101819990D02*
X96780000Y-101370000D01*
%TO.N,/WKUP2*%
X95764402Y-93774990D02*
X97444412Y-95455000D01*
X97444412Y-95455000D02*
X98955000Y-95455000D01*
X93669500Y-93774990D02*
X95764402Y-93774990D01*
X93124402Y-93774990D02*
X93084401Y-93734989D01*
X93084401Y-93734989D02*
X90365011Y-93734989D01*
X93669500Y-93774990D02*
X93124402Y-93774990D01*
X90365011Y-93734989D02*
X89210000Y-94890000D01*
X89210000Y-94890000D02*
X89210000Y-94890000D01*
X88114999Y-106731999D02*
X88114999Y-108224999D01*
X88114999Y-108224999D02*
X88430000Y-108540000D01*
X88567008Y-106279990D02*
X88114999Y-106731999D01*
X90685520Y-106279990D02*
X88567008Y-106279990D01*
X91495510Y-105470000D02*
X90685520Y-106279990D01*
X91925000Y-105470000D02*
X91495510Y-105470000D01*
%TO.N,/WKUP4*%
X97309280Y-110367704D02*
X96242296Y-110367704D01*
X96242296Y-110367704D02*
X95690000Y-110920000D01*
X92570000Y-110920000D02*
X91910000Y-110260000D01*
X95690000Y-110920000D02*
X92570000Y-110920000D01*
X91915000Y-110265000D02*
X91910000Y-110260000D01*
X91915000Y-111870000D02*
X91915000Y-110265000D01*
%TO.N,/WKUP3*%
X91950000Y-113580000D02*
X95700000Y-113580000D01*
X96372296Y-112907704D02*
X97309280Y-112907704D01*
X95700000Y-113580000D02*
X96372296Y-112907704D01*
X91149990Y-114380010D02*
X91950000Y-113580000D01*
X89315010Y-114380010D02*
X91149990Y-114380010D01*
X88485000Y-113550000D02*
X89315010Y-114380010D01*
X103100010Y-106870500D02*
X102740510Y-107230000D01*
X103100010Y-105929500D02*
X103100010Y-106870500D01*
X104880000Y-105220702D02*
X104500712Y-105599990D01*
X103429520Y-105599990D02*
X103100010Y-105929500D01*
X104500712Y-105599990D02*
X103429520Y-105599990D01*
X104880000Y-104380000D02*
X104880000Y-105220702D01*
X100810010Y-109406974D02*
X97309280Y-112907704D01*
X100810010Y-107859990D02*
X100810010Y-109406974D01*
X101440000Y-107230000D02*
X100810010Y-107859990D01*
X102740510Y-107230000D02*
X101440000Y-107230000D01*
%TO.N,/WKUP4*%
X98934291Y-102475709D02*
X98955000Y-102455000D01*
X98934291Y-108742693D02*
X98934291Y-102475709D01*
X97309280Y-110367704D02*
X98934291Y-108742693D01*
%TO.N,/LED_OUT_2*%
X94030010Y-100749990D02*
X93030000Y-101750000D01*
X96000500Y-100749990D02*
X94030010Y-100749990D01*
X96795490Y-99955000D02*
X96000500Y-100749990D01*
X98955000Y-99955000D02*
X96795490Y-99955000D01*
X92114990Y-102665010D02*
X93030000Y-101750000D01*
X88520010Y-102665010D02*
X92114990Y-102665010D01*
X87680000Y-101825000D02*
X88520010Y-102665010D01*
X90170000Y-115680000D02*
X89320020Y-114830020D01*
X89320020Y-114830020D02*
X88300020Y-114830020D01*
X90170000Y-116840000D02*
X90170000Y-115680000D01*
X87585010Y-101919990D02*
X87680000Y-101825000D01*
X87585010Y-114115010D02*
X87585010Y-101919990D01*
X88300020Y-114830020D02*
X87585010Y-114115010D01*
%TO.N,/LED_OUT_1*%
X98955000Y-99455000D02*
X97285000Y-99455000D01*
X97285000Y-99455000D02*
X96930000Y-99100000D01*
X92655001Y-99015001D02*
X93605001Y-99015001D01*
X91690000Y-98050000D02*
X92655001Y-99015001D01*
X93605001Y-99015001D02*
X94190000Y-99600000D01*
X94190000Y-99600000D02*
X94190000Y-99600000D01*
X96930000Y-99100000D02*
X96930000Y-99100000D01*
X87330010Y-97194990D02*
X86470000Y-98055000D01*
X88910010Y-96815500D02*
X88530520Y-97194990D01*
X91169999Y-94184999D02*
X88910010Y-96444988D01*
X92898001Y-94184999D02*
X91169999Y-94184999D01*
X93275001Y-94561999D02*
X92898001Y-94184999D01*
X88530520Y-97194990D02*
X87330010Y-97194990D01*
X88910010Y-96444988D02*
X88910010Y-96815500D01*
X93275001Y-96464999D02*
X93275001Y-94561999D01*
X91690000Y-98050000D02*
X93275001Y-96464999D01*
%TO.N,/I2C2_SCL*%
X106880000Y-103539298D02*
X106110000Y-102769298D01*
X106880000Y-104380000D02*
X106880000Y-103539298D01*
X106110000Y-102769298D02*
X106110000Y-102050000D01*
X106110000Y-102050000D02*
X106110000Y-100750000D01*
X106110000Y-100750000D02*
X106210000Y-100650000D01*
X106210000Y-100650000D02*
X106210000Y-100650000D01*
%TO.N,/I2C2_SDA*%
X107380000Y-103402888D02*
X106830000Y-102852888D01*
X107380000Y-104380000D02*
X107380000Y-103402888D01*
X106830000Y-102852888D02*
X106830000Y-101460000D01*
X106830000Y-101460000D02*
X106930000Y-101360000D01*
X106930000Y-101360000D02*
X106930000Y-101360000D01*
%TO.N,/GPIO_3_SHIFT*%
X102647352Y-117419630D02*
X102382351Y-117684631D01*
X102647353Y-114197131D02*
X102647352Y-117419630D01*
%TO.N,/GPIO_2_SHIFT*%
X103329852Y-114197130D02*
X103422342Y-114289619D01*
X103297352Y-114197130D02*
X103329852Y-114197130D01*
X103297352Y-113287352D02*
X102570000Y-112560000D01*
X103297352Y-114197131D02*
X103297352Y-113287352D01*
%TO.N,/GPIO_1*%
X112685000Y-101455000D02*
X112880000Y-101650000D01*
X110305000Y-101455000D02*
X112685000Y-101455000D01*
%TO.N,/GPIO_0*%
X102380000Y-94480000D02*
X102760000Y-94860000D01*
X102380000Y-93030000D02*
X102380000Y-94480000D01*
%TO.N,/TIM15_CH1_SHIFT*%
X106547352Y-114934629D02*
X106547352Y-114197130D01*
X106872363Y-115259640D02*
X106547352Y-114934629D01*
X110432859Y-114647141D02*
X108735900Y-114647141D01*
X108123399Y-115259640D02*
X106872363Y-115259640D01*
X108735900Y-114647141D02*
X108123399Y-115259640D01*
X110979990Y-114100010D02*
X110432859Y-114647141D01*
X114499990Y-114100010D02*
X110979990Y-114100010D01*
X115570000Y-113030000D02*
X114499990Y-114100010D01*
%TO.N,/TIM2_CH2_SHIFT*%
X105897352Y-114921039D02*
X105897352Y-114197131D01*
X106685962Y-115709649D02*
X105897352Y-114921039D01*
X114439650Y-115709650D02*
X106685962Y-115709649D01*
X115570000Y-116840000D02*
X114439650Y-115709650D01*
%TO.N,/TIM16_CH1_SHIFT*%
X113879490Y-109220000D02*
X115570000Y-109220000D01*
X110269990Y-112829500D02*
X113879490Y-109220000D01*
X110269990Y-113720520D02*
X110269990Y-112829500D01*
X109793379Y-114197131D02*
X110269990Y-113720520D01*
X107847352Y-114197131D02*
X109793379Y-114197131D01*
%TO.N,/TIM1_CH1_SHIFT*%
X105247352Y-114934629D02*
X105247355Y-114197130D01*
X106472380Y-116159659D02*
X105247352Y-114934629D01*
X115570000Y-120650000D02*
X114240000Y-120650000D01*
X114240000Y-120650000D02*
X111850000Y-118260000D01*
X110216382Y-116159660D02*
X110200340Y-116159660D01*
X111850000Y-117793278D02*
X110216382Y-116159660D01*
X111850000Y-118260000D02*
X111850000Y-117793278D01*
X110200340Y-116159660D02*
X106472380Y-116159659D01*
%TO.N,/SWCLK*%
X109640000Y-85560000D02*
X109440000Y-85360000D01*
X109875521Y-89525011D02*
X106695011Y-89525011D01*
X108380000Y-92255000D02*
X109084990Y-91550010D01*
X110530010Y-91220500D02*
X110530010Y-90179500D01*
X110200500Y-91550010D02*
X110530010Y-91220500D01*
X110530010Y-90179500D02*
X109875521Y-89525011D01*
X109084990Y-91550010D02*
X110200500Y-91550010D01*
X108380000Y-93030000D02*
X108380000Y-92255000D01*
X106695011Y-89525011D02*
X104810000Y-87640000D01*
X104810000Y-87640000D02*
X104810000Y-87640000D01*
X114280000Y-82185000D02*
X114280000Y-82820000D01*
X109440000Y-85360000D02*
X110610000Y-85360000D01*
X110610000Y-85360000D02*
X111300000Y-84670000D01*
X111300000Y-84670000D02*
X112730000Y-84670000D01*
X113639990Y-83460010D02*
X114280000Y-82820000D01*
X113639990Y-83760010D02*
X113639990Y-83460010D01*
X112730000Y-84670000D02*
X113639990Y-83760010D01*
%TO.N,/JTDI*%
X105910000Y-84370000D02*
X106900000Y-85360000D01*
X101890000Y-84370000D02*
X105910000Y-84370000D01*
X107880000Y-93870702D02*
X106970702Y-94780000D01*
X107880000Y-93030000D02*
X107880000Y-93870702D01*
X106970702Y-94780000D02*
X106800000Y-94780000D01*
X106970702Y-94780000D02*
X106970702Y-94780000D01*
%TO.N,/SWDIO*%
X105050000Y-86050000D02*
X106900000Y-87900000D01*
X101865000Y-86050000D02*
X105050000Y-86050000D01*
X110320000Y-95970000D02*
X110305000Y-95955000D01*
X110930511Y-89075001D02*
X108075001Y-89075001D01*
X108075001Y-89075001D02*
X106900000Y-87900000D01*
X112760500Y-95930010D02*
X113230010Y-95460500D01*
X110499990Y-95930010D02*
X112760500Y-95930010D01*
X110475000Y-95955000D02*
X110499990Y-95930010D01*
X113230010Y-95460500D02*
X113230010Y-91374500D01*
X110305000Y-95955000D02*
X110475000Y-95955000D01*
X113230010Y-91374500D02*
X110930511Y-89075001D01*
%TO.N,/JTDO*%
X105404990Y-93049990D02*
X105404990Y-93895692D01*
X105385000Y-93030000D02*
X105404990Y-93049990D01*
X105380000Y-93030000D02*
X105385000Y-93030000D01*
X106622701Y-95505001D02*
X107644999Y-95505001D01*
X105404990Y-94287290D02*
X106622701Y-95505001D01*
X105404990Y-93895692D02*
X105404990Y-94287290D01*
X107644999Y-95505001D02*
X109340000Y-93810000D01*
X109340000Y-93810000D02*
X109680000Y-93810000D01*
X109680000Y-93810000D02*
X109680000Y-93810000D01*
X112350000Y-88560000D02*
X112160000Y-88750000D01*
X114390000Y-88560000D02*
X112350000Y-88560000D01*
%TO.N,/NJTRST*%
X106900000Y-82820000D02*
X105760000Y-81680000D01*
X102940000Y-81680000D02*
X101880000Y-82740000D01*
X105760000Y-81680000D02*
X102940000Y-81680000D01*
X104880000Y-95080000D02*
X104900000Y-95100000D01*
X104880000Y-93030000D02*
X104880000Y-95080000D01*
%TO.N,Net-(Q1-Pad3)*%
X88745000Y-98045000D02*
X89690000Y-97100000D01*
X88110000Y-98045000D02*
X88745000Y-98045000D01*
%TO.N,Net-(Q2-Pad3)*%
X90015000Y-101815000D02*
X91030000Y-100800000D01*
X89320000Y-101815000D02*
X90015000Y-101815000D01*
%TO.N,/BOOT0*%
X107324990Y-91460010D02*
X108125000Y-90660000D01*
X102880000Y-92189298D02*
X103609288Y-91460010D01*
X103609288Y-91460010D02*
X107324990Y-91460010D01*
X102880000Y-93030000D02*
X102880000Y-92189298D01*
X108165000Y-90700000D02*
X108125000Y-90660000D01*
X109730000Y-90700000D02*
X108165000Y-90700000D01*
%TO.N,Net-(R4-Pad2)*%
X112345000Y-94955000D02*
X110305000Y-94955000D01*
X112380000Y-94990000D02*
X112345000Y-94955000D01*
%TO.N,Net-(J14-Pad1)*%
X88110000Y-94680000D02*
X86960000Y-93530000D01*
X88110000Y-96295000D02*
X88110000Y-94680000D01*
%TO.N,Net-(J16-Pad1)*%
X88459990Y-100925010D02*
X89320000Y-100065000D01*
X87259480Y-100925010D02*
X88459990Y-100925010D01*
X85507846Y-102676644D02*
X87259480Y-100925010D01*
X85507846Y-104830192D02*
X85507846Y-102676644D01*
%TO.N,/TIM16_CH1*%
X103380000Y-102995822D02*
X103930000Y-102445822D01*
X103380000Y-104380000D02*
X103380000Y-102995822D01*
X103930000Y-102445822D02*
X103930000Y-101560000D01*
X103930000Y-101560000D02*
X103930000Y-101430000D01*
X103930000Y-101430000D02*
X104200000Y-101160000D01*
X104200000Y-101160000D02*
X104200000Y-101160000D01*
X107847352Y-108472131D02*
X107847352Y-107137352D01*
X107847352Y-107137352D02*
X107630000Y-106920000D01*
X107630000Y-106920000D02*
X107630000Y-106920000D01*
%TO.N,/TIM15_CH1*%
X100654999Y-102191999D02*
X101056998Y-101790000D01*
X100654999Y-104154999D02*
X100654999Y-102191999D01*
X100880000Y-104380000D02*
X100654999Y-104154999D01*
X101056998Y-101790000D02*
X102240000Y-101790000D01*
X102240000Y-101790000D02*
X102240000Y-101790000D01*
X106547352Y-108472131D02*
X106547352Y-110847352D01*
X106547352Y-110847352D02*
X106670000Y-110970000D01*
X106670000Y-110970000D02*
X106670000Y-110970000D01*
%TO.N,/TIM2_CH2*%
X98955000Y-101955000D02*
X97715000Y-101955000D01*
X97715000Y-101955000D02*
X97125000Y-102545000D01*
X97125000Y-102545000D02*
X97120000Y-102550000D01*
X105897352Y-109160689D02*
X104430000Y-110628041D01*
X105897352Y-108472131D02*
X105897352Y-109160689D01*
X104430000Y-110628041D02*
X104430000Y-111320000D01*
X104430000Y-111320000D02*
X104430000Y-111320000D01*
%TO.N,/TIM1_CH1*%
X105247352Y-107783573D02*
X106240925Y-106790000D01*
X105247352Y-108472131D02*
X105247352Y-107783573D01*
X106240925Y-106790000D02*
X106630000Y-106790000D01*
X106630000Y-106790000D02*
X106630000Y-106790000D01*
X107950000Y-99969298D02*
X107950000Y-100630000D01*
X109464298Y-98455000D02*
X107950000Y-99969298D01*
X110305000Y-98455000D02*
X109464298Y-98455000D01*
%TO.N,/USART1_RX*%
X110519990Y-97479990D02*
X111170692Y-97479990D01*
X110495000Y-97455000D02*
X110519990Y-97479990D01*
X110305000Y-97455000D02*
X110495000Y-97455000D01*
X111009292Y-97455000D02*
X110305000Y-97455000D01*
X111034302Y-97480010D02*
X111009292Y-97455000D01*
X111630000Y-97939298D02*
X111170712Y-97480010D01*
X111170712Y-97480010D02*
X111034302Y-97480010D01*
X111630000Y-98853002D02*
X112656998Y-99880000D01*
X111630000Y-97939298D02*
X111630000Y-98853002D01*
X112671999Y-99895001D02*
X112656998Y-99880000D01*
X115585001Y-99895001D02*
X112671999Y-99895001D01*
X116389990Y-102663600D02*
X116389990Y-100699990D01*
X116209991Y-102843599D02*
X116389990Y-102663600D01*
X116209990Y-104783600D02*
X116209991Y-102843599D01*
X111630000Y-109405510D02*
X111630000Y-109363590D01*
X109080000Y-111150000D02*
X109885510Y-111150000D01*
X104597352Y-108472131D02*
X104597352Y-109669058D01*
X106374999Y-111695001D02*
X108534999Y-111695001D01*
X116389990Y-100699990D02*
X115585001Y-99895001D01*
X111630000Y-109363590D02*
X116209990Y-104783600D01*
X105824997Y-112245003D02*
X106374999Y-111695001D01*
X109885510Y-111150000D02*
X111630000Y-109405510D01*
X104597352Y-109669058D02*
X103470010Y-110796400D01*
X103470010Y-111660010D02*
X104055003Y-112245003D01*
X103470010Y-110796400D02*
X103470010Y-111660010D01*
X108534999Y-111695001D02*
X109080000Y-111150000D01*
X104055003Y-112245003D02*
X105824997Y-112245003D01*
%TO.N,/USART1_TX*%
X113020000Y-99170000D02*
X113020000Y-99170000D01*
X107725000Y-97955000D02*
X107220000Y-98460000D01*
X110305000Y-97955000D02*
X107725000Y-97955000D01*
X103747362Y-109882638D02*
X103747362Y-109362638D01*
X103747362Y-109362638D02*
X103947352Y-109162648D01*
X103020000Y-111936998D02*
X103020000Y-110610000D01*
X106561399Y-112145011D02*
X106011398Y-112695012D01*
X113020000Y-108651920D02*
X109526909Y-112145011D01*
X103947352Y-109162648D02*
X103947352Y-108472131D01*
X106011398Y-112695012D02*
X103785012Y-112695012D01*
X109526909Y-112145011D02*
X106561399Y-112145011D01*
X113020000Y-108610000D02*
X113020000Y-108651920D01*
X103406998Y-112316998D02*
X103400000Y-112316998D01*
X116840000Y-100330000D02*
X116840000Y-102850000D01*
X116660000Y-103030000D02*
X116660000Y-104970000D01*
X103785012Y-112695012D02*
X103406998Y-112316998D01*
X115680000Y-99170000D02*
X116840000Y-100330000D01*
X103020000Y-110610000D02*
X103747362Y-109882638D01*
X103400000Y-112316998D02*
X103020000Y-111936998D01*
X116840000Y-102850000D02*
X116660000Y-103030000D01*
X116660000Y-104970000D02*
X113020000Y-108610000D01*
X113020000Y-99170000D02*
X115680000Y-99170000D01*
%TO.N,/GPIO_2*%
X103297352Y-109672060D02*
X101439412Y-111530000D01*
X103297352Y-108472131D02*
X103297352Y-109672060D01*
X101439412Y-111530000D02*
X99880000Y-111530000D01*
X99880000Y-111530000D02*
X99880000Y-111530000D01*
X99795702Y-98455000D02*
X100090000Y-98160702D01*
X98955000Y-98455000D02*
X99795702Y-98455000D01*
X100090000Y-98160702D02*
X100090000Y-97440000D01*
X100090000Y-97440000D02*
X100460000Y-97070000D01*
X100460000Y-97070000D02*
X100700000Y-97070000D01*
X100700000Y-97070000D02*
X101030000Y-96740000D01*
X101030000Y-96740000D02*
X101030000Y-96740000D01*
%TO.N,/GPIO_3*%
X102647352Y-109685650D02*
X101583002Y-110750000D01*
X102647352Y-108472131D02*
X102647352Y-109685650D01*
X101583002Y-110750000D02*
X100600000Y-110750000D01*
X100600000Y-110750000D02*
X100600000Y-110750000D01*
X99932112Y-98955000D02*
X100650000Y-98237112D01*
X98955000Y-98955000D02*
X99932112Y-98955000D01*
X100650000Y-98237112D02*
X100732888Y-98237112D01*
X100732888Y-98237112D02*
X100990000Y-97980000D01*
X100990000Y-97980000D02*
X100990000Y-97980000D01*
%TO.N,/LEVEL_SHIFTER_EN*%
X105380000Y-104380000D02*
X105380000Y-100590000D01*
X105380000Y-100590000D02*
X104450000Y-99660000D01*
X101688032Y-108781451D02*
X101688032Y-109441968D01*
X101997352Y-108472131D02*
X101688032Y-108781451D01*
X101688032Y-109441968D02*
X101688032Y-109571968D01*
X101688032Y-109571968D02*
X101340000Y-109920000D01*
X101340000Y-109920000D02*
X101300000Y-109960000D01*
X104450000Y-99660000D02*
X104450000Y-99160000D01*
X104450000Y-99160000D02*
X103740000Y-98450000D01*
X103740000Y-98450000D02*
X103740000Y-98450000D01*
X100940000Y-100600000D02*
X101560000Y-99980000D01*
X101560000Y-99980000D02*
X101560000Y-98910000D01*
X102020000Y-98450000D02*
X103740000Y-98450000D01*
X101560000Y-98910000D02*
X102020000Y-98450000D01*
%TO.N,/OSC48_HI*%
X94180000Y-96004998D02*
X94804998Y-95380000D01*
X94180000Y-96390000D02*
X94180000Y-96004998D01*
X97535001Y-96181999D02*
X96733002Y-95380000D01*
X97535001Y-96375703D02*
X97535001Y-96181999D01*
X96733002Y-95380000D02*
X94804998Y-95380000D01*
X98114298Y-96955000D02*
X97535001Y-96375703D01*
X98955000Y-96955000D02*
X98114298Y-96955000D01*
X94180000Y-94665000D02*
X94140000Y-94625000D01*
X94180000Y-96390000D02*
X94180000Y-94665000D01*
%TO.N,/OSC48_LO*%
X98845000Y-97455000D02*
X98820010Y-97479990D01*
X98955000Y-97455000D02*
X98845000Y-97455000D01*
X95530000Y-98140000D02*
X95480000Y-98090000D01*
X95530000Y-99850000D02*
X95530000Y-98140000D01*
X98670010Y-97430010D02*
X97952898Y-97430010D01*
X98695000Y-97455000D02*
X98670010Y-97430010D01*
X98955000Y-97455000D02*
X98695000Y-97455000D01*
X97777889Y-97255001D02*
X96274999Y-97255001D01*
X97952898Y-97430010D02*
X97777889Y-97255001D01*
X95480000Y-98050000D02*
X95480000Y-98090000D01*
X96274999Y-97255001D02*
X95480000Y-98050000D01*
%TD*%
M02*
