%TF.GenerationSoftware,KiCad,Pcbnew,8.0.5*%
%TF.CreationDate,2025-04-01T17:04:40-05:00*%
%TF.ProjectId,spudglo_led_cylinder_1p0,73707564-676c-46f5-9f6c-65645f63796c,rev?*%
%TF.SameCoordinates,Original*%
%TF.FileFunction,Drillmap*%
%TF.FilePolarity,Positive*%
%FSLAX45Y45*%
G04 Gerber Fmt 4.5, Leading zero omitted, Abs format (unit mm)*
G04 Created by KiCad (PCBNEW 8.0.5) date 2025-04-01 17:04:40*
%MOMM*%
%LPD*%
G01*
G04 APERTURE LIST*
%ADD10C,0.050000*%
%ADD11C,0.200000*%
%ADD12C,0.100000*%
G04 APERTURE END LIST*
D10*
X7788500Y-9493500D02*
X23138500Y-9493500D01*
X23138500Y-10533500D01*
X7788500Y-10533500D01*
X7788500Y-9493500D01*
D11*
D12*
X8320000Y-10040000D02*
X8350000Y-10070000D01*
X8350000Y-10040000D02*
X8320000Y-10070000D01*
X8385000Y-10085000D02*
X8415000Y-10115000D01*
X8415000Y-10085000D02*
X8385000Y-10115000D01*
X9685781Y-10080719D02*
X9715781Y-10110719D01*
X9715781Y-10080719D02*
X9685781Y-10110719D01*
X10969000Y-10102000D02*
X10999000Y-10132000D01*
X10999000Y-10102000D02*
X10969000Y-10132000D01*
X11048000Y-10141000D02*
X11078000Y-10171000D01*
X11078000Y-10141000D02*
X11048000Y-10171000D01*
X12315000Y-10084000D02*
X12345000Y-10114000D01*
X12345000Y-10084000D02*
X12315000Y-10114000D01*
X12380786Y-10107922D02*
X12410786Y-10137922D01*
X12410786Y-10107922D02*
X12380786Y-10137922D01*
X13643000Y-10063000D02*
X13673000Y-10093000D01*
X13673000Y-10063000D02*
X13643000Y-10093000D01*
X13710000Y-10101000D02*
X13740000Y-10131000D01*
X13740000Y-10101000D02*
X13710000Y-10131000D01*
X14997000Y-10075000D02*
X15027000Y-10105000D01*
X15027000Y-10075000D02*
X14997000Y-10105000D01*
X15075000Y-10095000D02*
X15105000Y-10125000D01*
X15105000Y-10095000D02*
X15075000Y-10125000D01*
X16343000Y-10069000D02*
X16373000Y-10099000D01*
X16373000Y-10069000D02*
X16343000Y-10099000D01*
X16415000Y-10095000D02*
X16445000Y-10125000D01*
X16445000Y-10095000D02*
X16415000Y-10125000D01*
X17677000Y-10085000D02*
X17707000Y-10115000D01*
X17707000Y-10085000D02*
X17677000Y-10115000D01*
X17755000Y-10095000D02*
X17785000Y-10125000D01*
X17785000Y-10095000D02*
X17755000Y-10125000D01*
X19007000Y-10075000D02*
X19037000Y-10105000D01*
X19037000Y-10075000D02*
X19007000Y-10105000D01*
X19095000Y-10085000D02*
X19125000Y-10115000D01*
X19125000Y-10085000D02*
X19095000Y-10115000D01*
X20331000Y-10088000D02*
X20361000Y-10118000D01*
X20361000Y-10088000D02*
X20331000Y-10118000D01*
X20397000Y-10131000D02*
X20427000Y-10161000D01*
X20427000Y-10131000D02*
X20397000Y-10161000D01*
X21701500Y-10078000D02*
X21731500Y-10108000D01*
X21731500Y-10078000D02*
X21701500Y-10108000D01*
X21767500Y-10121000D02*
X21797500Y-10151000D01*
X21797500Y-10121000D02*
X21767500Y-10151000D01*
X8820000Y-9715000D02*
G75*
G02*
X8760000Y-9715000I-30000J0D01*
G01*
X8760000Y-9715000D02*
G75*
G02*
X8820000Y-9715000I30000J0D01*
G01*
X9359269Y-10258507D02*
G75*
G02*
X9299269Y-10258507I-30000J0D01*
G01*
X9299269Y-10258507D02*
G75*
G02*
X9359269Y-10258507I30000J0D01*
G01*
X10140000Y-9710000D02*
G75*
G02*
X10080000Y-9710000I-30000J0D01*
G01*
X10080000Y-9710000D02*
G75*
G02*
X10140000Y-9710000I30000J0D01*
G01*
X10940000Y-10190000D02*
G75*
G02*
X10880000Y-10190000I-30000J0D01*
G01*
X10880000Y-10190000D02*
G75*
G02*
X10940000Y-10190000I30000J0D01*
G01*
X11470000Y-9680000D02*
G75*
G02*
X11410000Y-9680000I-30000J0D01*
G01*
X11410000Y-9680000D02*
G75*
G02*
X11470000Y-9680000I30000J0D01*
G01*
X12300000Y-10220000D02*
G75*
G02*
X12240000Y-10220000I-30000J0D01*
G01*
X12240000Y-10220000D02*
G75*
G02*
X12300000Y-10220000I30000J0D01*
G01*
X12870000Y-9700000D02*
G75*
G02*
X12810000Y-9700000I-30000J0D01*
G01*
X12810000Y-9700000D02*
G75*
G02*
X12870000Y-9700000I30000J0D01*
G01*
X13630000Y-10190000D02*
G75*
G02*
X13570000Y-10190000I-30000J0D01*
G01*
X13570000Y-10190000D02*
G75*
G02*
X13630000Y-10190000I30000J0D01*
G01*
X14210000Y-9670000D02*
G75*
G02*
X14150000Y-9670000I-30000J0D01*
G01*
X14150000Y-9670000D02*
G75*
G02*
X14210000Y-9670000I30000J0D01*
G01*
X14980000Y-10170000D02*
G75*
G02*
X14920000Y-10170000I-30000J0D01*
G01*
X14920000Y-10170000D02*
G75*
G02*
X14980000Y-10170000I30000J0D01*
G01*
X15530000Y-9690000D02*
G75*
G02*
X15470000Y-9690000I-30000J0D01*
G01*
X15470000Y-9690000D02*
G75*
G02*
X15530000Y-9690000I30000J0D01*
G01*
X16300000Y-10190000D02*
G75*
G02*
X16240000Y-10190000I-30000J0D01*
G01*
X16240000Y-10190000D02*
G75*
G02*
X16300000Y-10190000I30000J0D01*
G01*
X16850000Y-9690000D02*
G75*
G02*
X16790000Y-9690000I-30000J0D01*
G01*
X16790000Y-9690000D02*
G75*
G02*
X16850000Y-9690000I30000J0D01*
G01*
X18260000Y-9680000D02*
G75*
G02*
X18200000Y-9680000I-30000J0D01*
G01*
X18200000Y-9680000D02*
G75*
G02*
X18260000Y-9680000I30000J0D01*
G01*
X18980000Y-10200000D02*
G75*
G02*
X18920000Y-10200000I-30000J0D01*
G01*
X18920000Y-10200000D02*
G75*
G02*
X18980000Y-10200000I30000J0D01*
G01*
X19570000Y-9670000D02*
G75*
G02*
X19510000Y-9670000I-30000J0D01*
G01*
X19510000Y-9670000D02*
G75*
G02*
X19570000Y-9670000I30000J0D01*
G01*
X20290000Y-10180000D02*
G75*
G02*
X20230000Y-10180000I-30000J0D01*
G01*
X20230000Y-10180000D02*
G75*
G02*
X20290000Y-10180000I30000J0D01*
G01*
X20890000Y-9680000D02*
G75*
G02*
X20830000Y-9680000I-30000J0D01*
G01*
X20830000Y-9680000D02*
G75*
G02*
X20890000Y-9680000I30000J0D01*
G01*
X21650000Y-10240000D02*
G75*
G02*
X21590000Y-10240000I-30000J0D01*
G01*
X21590000Y-10240000D02*
G75*
G02*
X21650000Y-10240000I30000J0D01*
G01*
X22240000Y-9880000D02*
G75*
G02*
X22180000Y-9880000I-30000J0D01*
G01*
X22180000Y-9880000D02*
G75*
G02*
X22240000Y-9880000I30000J0D01*
G01*
X22760101Y-10120038D02*
G75*
G02*
X22700101Y-10120038I-30000J0D01*
G01*
X22700101Y-10120038D02*
G75*
G02*
X22760101Y-10120038I30000J0D01*
G01*
X7930000Y-9706000D02*
X7930000Y-9806000D01*
X7880000Y-9756000D02*
X7980000Y-9756000D01*
X7930000Y-9960000D02*
X7930000Y-10060000D01*
X7880000Y-10010000D02*
X7980000Y-10010000D01*
X7930000Y-10214000D02*
X7930000Y-10314000D01*
X7880000Y-10264000D02*
X7980000Y-10264000D01*
X23000000Y-9706000D02*
X23000000Y-9806000D01*
X22950000Y-9756000D02*
X23050000Y-9756000D01*
X23000000Y-9960000D02*
X23000000Y-10060000D01*
X22950000Y-10010000D02*
X23050000Y-10010000D01*
X23000000Y-10214000D02*
X23000000Y-10314000D01*
X22950000Y-10264000D02*
X23050000Y-10264000D01*
D11*
X8046776Y-10847484D02*
X8046776Y-10647484D01*
X8046776Y-10647484D02*
X8094395Y-10647484D01*
X8094395Y-10647484D02*
X8122967Y-10657007D01*
X8122967Y-10657007D02*
X8142015Y-10676055D01*
X8142015Y-10676055D02*
X8151538Y-10695103D01*
X8151538Y-10695103D02*
X8161062Y-10733198D01*
X8161062Y-10733198D02*
X8161062Y-10761769D01*
X8161062Y-10761769D02*
X8151538Y-10799864D01*
X8151538Y-10799864D02*
X8142015Y-10818912D01*
X8142015Y-10818912D02*
X8122967Y-10837960D01*
X8122967Y-10837960D02*
X8094395Y-10847484D01*
X8094395Y-10847484D02*
X8046776Y-10847484D01*
X8246776Y-10847484D02*
X8246776Y-10714150D01*
X8246776Y-10752245D02*
X8256300Y-10733198D01*
X8256300Y-10733198D02*
X8265824Y-10723674D01*
X8265824Y-10723674D02*
X8284872Y-10714150D01*
X8284872Y-10714150D02*
X8303919Y-10714150D01*
X8370586Y-10847484D02*
X8370586Y-10714150D01*
X8370586Y-10647484D02*
X8361062Y-10657007D01*
X8361062Y-10657007D02*
X8370586Y-10666531D01*
X8370586Y-10666531D02*
X8380110Y-10657007D01*
X8380110Y-10657007D02*
X8370586Y-10647484D01*
X8370586Y-10647484D02*
X8370586Y-10666531D01*
X8494396Y-10847484D02*
X8475348Y-10837960D01*
X8475348Y-10837960D02*
X8465824Y-10818912D01*
X8465824Y-10818912D02*
X8465824Y-10647484D01*
X8599157Y-10847484D02*
X8580110Y-10837960D01*
X8580110Y-10837960D02*
X8570586Y-10818912D01*
X8570586Y-10818912D02*
X8570586Y-10647484D01*
X8827729Y-10847484D02*
X8827729Y-10647484D01*
X8827729Y-10647484D02*
X8894396Y-10790341D01*
X8894396Y-10790341D02*
X8961062Y-10647484D01*
X8961062Y-10647484D02*
X8961062Y-10847484D01*
X9142015Y-10847484D02*
X9142015Y-10742722D01*
X9142015Y-10742722D02*
X9132491Y-10723674D01*
X9132491Y-10723674D02*
X9113443Y-10714150D01*
X9113443Y-10714150D02*
X9075348Y-10714150D01*
X9075348Y-10714150D02*
X9056300Y-10723674D01*
X9142015Y-10837960D02*
X9122967Y-10847484D01*
X9122967Y-10847484D02*
X9075348Y-10847484D01*
X9075348Y-10847484D02*
X9056300Y-10837960D01*
X9056300Y-10837960D02*
X9046777Y-10818912D01*
X9046777Y-10818912D02*
X9046777Y-10799864D01*
X9046777Y-10799864D02*
X9056300Y-10780817D01*
X9056300Y-10780817D02*
X9075348Y-10771293D01*
X9075348Y-10771293D02*
X9122967Y-10771293D01*
X9122967Y-10771293D02*
X9142015Y-10761769D01*
X9237253Y-10714150D02*
X9237253Y-10914150D01*
X9237253Y-10723674D02*
X9256300Y-10714150D01*
X9256300Y-10714150D02*
X9294396Y-10714150D01*
X9294396Y-10714150D02*
X9313443Y-10723674D01*
X9313443Y-10723674D02*
X9322967Y-10733198D01*
X9322967Y-10733198D02*
X9332491Y-10752245D01*
X9332491Y-10752245D02*
X9332491Y-10809388D01*
X9332491Y-10809388D02*
X9322967Y-10828436D01*
X9322967Y-10828436D02*
X9313443Y-10837960D01*
X9313443Y-10837960D02*
X9294396Y-10847484D01*
X9294396Y-10847484D02*
X9256300Y-10847484D01*
X9256300Y-10847484D02*
X9237253Y-10837960D01*
X9418205Y-10828436D02*
X9427729Y-10837960D01*
X9427729Y-10837960D02*
X9418205Y-10847484D01*
X9418205Y-10847484D02*
X9408681Y-10837960D01*
X9408681Y-10837960D02*
X9418205Y-10828436D01*
X9418205Y-10828436D02*
X9418205Y-10847484D01*
X9418205Y-10723674D02*
X9427729Y-10733198D01*
X9427729Y-10733198D02*
X9418205Y-10742722D01*
X9418205Y-10742722D02*
X9408681Y-10733198D01*
X9408681Y-10733198D02*
X9418205Y-10723674D01*
X9418205Y-10723674D02*
X9418205Y-10742722D01*
D12*
X7756000Y-11161000D02*
X7786000Y-11191000D01*
X7786000Y-11161000D02*
X7756000Y-11191000D01*
D11*
X8084872Y-11067484D02*
X8103919Y-11067484D01*
X8103919Y-11067484D02*
X8122967Y-11077007D01*
X8122967Y-11077007D02*
X8132491Y-11086531D01*
X8132491Y-11086531D02*
X8142015Y-11105579D01*
X8142015Y-11105579D02*
X8151538Y-11143674D01*
X8151538Y-11143674D02*
X8151538Y-11191293D01*
X8151538Y-11191293D02*
X8142015Y-11229388D01*
X8142015Y-11229388D02*
X8132491Y-11248436D01*
X8132491Y-11248436D02*
X8122967Y-11257960D01*
X8122967Y-11257960D02*
X8103919Y-11267483D01*
X8103919Y-11267483D02*
X8084872Y-11267483D01*
X8084872Y-11267483D02*
X8065824Y-11257960D01*
X8065824Y-11257960D02*
X8056300Y-11248436D01*
X8056300Y-11248436D02*
X8046776Y-11229388D01*
X8046776Y-11229388D02*
X8037253Y-11191293D01*
X8037253Y-11191293D02*
X8037253Y-11143674D01*
X8037253Y-11143674D02*
X8046776Y-11105579D01*
X8046776Y-11105579D02*
X8056300Y-11086531D01*
X8056300Y-11086531D02*
X8065824Y-11077007D01*
X8065824Y-11077007D02*
X8084872Y-11067484D01*
X8237253Y-11248436D02*
X8246776Y-11257960D01*
X8246776Y-11257960D02*
X8237253Y-11267483D01*
X8237253Y-11267483D02*
X8227729Y-11257960D01*
X8227729Y-11257960D02*
X8237253Y-11248436D01*
X8237253Y-11248436D02*
X8237253Y-11267483D01*
X8313443Y-11067484D02*
X8437253Y-11067484D01*
X8437253Y-11067484D02*
X8370586Y-11143674D01*
X8370586Y-11143674D02*
X8399158Y-11143674D01*
X8399158Y-11143674D02*
X8418205Y-11153198D01*
X8418205Y-11153198D02*
X8427729Y-11162722D01*
X8427729Y-11162722D02*
X8437253Y-11181769D01*
X8437253Y-11181769D02*
X8437253Y-11229388D01*
X8437253Y-11229388D02*
X8427729Y-11248436D01*
X8427729Y-11248436D02*
X8418205Y-11257960D01*
X8418205Y-11257960D02*
X8399158Y-11267483D01*
X8399158Y-11267483D02*
X8342015Y-11267483D01*
X8342015Y-11267483D02*
X8322967Y-11257960D01*
X8322967Y-11257960D02*
X8313443Y-11248436D01*
X8561062Y-11067484D02*
X8580110Y-11067484D01*
X8580110Y-11067484D02*
X8599158Y-11077007D01*
X8599158Y-11077007D02*
X8608681Y-11086531D01*
X8608681Y-11086531D02*
X8618205Y-11105579D01*
X8618205Y-11105579D02*
X8627729Y-11143674D01*
X8627729Y-11143674D02*
X8627729Y-11191293D01*
X8627729Y-11191293D02*
X8618205Y-11229388D01*
X8618205Y-11229388D02*
X8608681Y-11248436D01*
X8608681Y-11248436D02*
X8599158Y-11257960D01*
X8599158Y-11257960D02*
X8580110Y-11267483D01*
X8580110Y-11267483D02*
X8561062Y-11267483D01*
X8561062Y-11267483D02*
X8542015Y-11257960D01*
X8542015Y-11257960D02*
X8532491Y-11248436D01*
X8532491Y-11248436D02*
X8522967Y-11229388D01*
X8522967Y-11229388D02*
X8513443Y-11191293D01*
X8513443Y-11191293D02*
X8513443Y-11143674D01*
X8513443Y-11143674D02*
X8522967Y-11105579D01*
X8522967Y-11105579D02*
X8532491Y-11086531D01*
X8532491Y-11086531D02*
X8542015Y-11077007D01*
X8542015Y-11077007D02*
X8561062Y-11067484D01*
X8751538Y-11067484D02*
X8770586Y-11067484D01*
X8770586Y-11067484D02*
X8789634Y-11077007D01*
X8789634Y-11077007D02*
X8799158Y-11086531D01*
X8799158Y-11086531D02*
X8808681Y-11105579D01*
X8808681Y-11105579D02*
X8818205Y-11143674D01*
X8818205Y-11143674D02*
X8818205Y-11191293D01*
X8818205Y-11191293D02*
X8808681Y-11229388D01*
X8808681Y-11229388D02*
X8799158Y-11248436D01*
X8799158Y-11248436D02*
X8789634Y-11257960D01*
X8789634Y-11257960D02*
X8770586Y-11267483D01*
X8770586Y-11267483D02*
X8751538Y-11267483D01*
X8751538Y-11267483D02*
X8732491Y-11257960D01*
X8732491Y-11257960D02*
X8722967Y-11248436D01*
X8722967Y-11248436D02*
X8713443Y-11229388D01*
X8713443Y-11229388D02*
X8703919Y-11191293D01*
X8703919Y-11191293D02*
X8703919Y-11143674D01*
X8703919Y-11143674D02*
X8713443Y-11105579D01*
X8713443Y-11105579D02*
X8722967Y-11086531D01*
X8722967Y-11086531D02*
X8732491Y-11077007D01*
X8732491Y-11077007D02*
X8751538Y-11067484D01*
X8903919Y-11267483D02*
X8903919Y-11134150D01*
X8903919Y-11153198D02*
X8913443Y-11143674D01*
X8913443Y-11143674D02*
X8932491Y-11134150D01*
X8932491Y-11134150D02*
X8961062Y-11134150D01*
X8961062Y-11134150D02*
X8980110Y-11143674D01*
X8980110Y-11143674D02*
X8989634Y-11162722D01*
X8989634Y-11162722D02*
X8989634Y-11267483D01*
X8989634Y-11162722D02*
X8999158Y-11143674D01*
X8999158Y-11143674D02*
X9018205Y-11134150D01*
X9018205Y-11134150D02*
X9046777Y-11134150D01*
X9046777Y-11134150D02*
X9065824Y-11143674D01*
X9065824Y-11143674D02*
X9075348Y-11162722D01*
X9075348Y-11162722D02*
X9075348Y-11267483D01*
X9170586Y-11267483D02*
X9170586Y-11134150D01*
X9170586Y-11153198D02*
X9180110Y-11143674D01*
X9180110Y-11143674D02*
X9199158Y-11134150D01*
X9199158Y-11134150D02*
X9227729Y-11134150D01*
X9227729Y-11134150D02*
X9246777Y-11143674D01*
X9246777Y-11143674D02*
X9256300Y-11162722D01*
X9256300Y-11162722D02*
X9256300Y-11267483D01*
X9256300Y-11162722D02*
X9265824Y-11143674D01*
X9265824Y-11143674D02*
X9284872Y-11134150D01*
X9284872Y-11134150D02*
X9313443Y-11134150D01*
X9313443Y-11134150D02*
X9332491Y-11143674D01*
X9332491Y-11143674D02*
X9342015Y-11162722D01*
X9342015Y-11162722D02*
X9342015Y-11267483D01*
X9732491Y-11057960D02*
X9561062Y-11315102D01*
X9989634Y-11067484D02*
X10008682Y-11067484D01*
X10008682Y-11067484D02*
X10027729Y-11077007D01*
X10027729Y-11077007D02*
X10037253Y-11086531D01*
X10037253Y-11086531D02*
X10046777Y-11105579D01*
X10046777Y-11105579D02*
X10056301Y-11143674D01*
X10056301Y-11143674D02*
X10056301Y-11191293D01*
X10056301Y-11191293D02*
X10046777Y-11229388D01*
X10046777Y-11229388D02*
X10037253Y-11248436D01*
X10037253Y-11248436D02*
X10027729Y-11257960D01*
X10027729Y-11257960D02*
X10008682Y-11267483D01*
X10008682Y-11267483D02*
X9989634Y-11267483D01*
X9989634Y-11267483D02*
X9970586Y-11257960D01*
X9970586Y-11257960D02*
X9961062Y-11248436D01*
X9961062Y-11248436D02*
X9951539Y-11229388D01*
X9951539Y-11229388D02*
X9942015Y-11191293D01*
X9942015Y-11191293D02*
X9942015Y-11143674D01*
X9942015Y-11143674D02*
X9951539Y-11105579D01*
X9951539Y-11105579D02*
X9961062Y-11086531D01*
X9961062Y-11086531D02*
X9970586Y-11077007D01*
X9970586Y-11077007D02*
X9989634Y-11067484D01*
X10142015Y-11248436D02*
X10151539Y-11257960D01*
X10151539Y-11257960D02*
X10142015Y-11267483D01*
X10142015Y-11267483D02*
X10132491Y-11257960D01*
X10132491Y-11257960D02*
X10142015Y-11248436D01*
X10142015Y-11248436D02*
X10142015Y-11267483D01*
X10275348Y-11067484D02*
X10294396Y-11067484D01*
X10294396Y-11067484D02*
X10313443Y-11077007D01*
X10313443Y-11077007D02*
X10322967Y-11086531D01*
X10322967Y-11086531D02*
X10332491Y-11105579D01*
X10332491Y-11105579D02*
X10342015Y-11143674D01*
X10342015Y-11143674D02*
X10342015Y-11191293D01*
X10342015Y-11191293D02*
X10332491Y-11229388D01*
X10332491Y-11229388D02*
X10322967Y-11248436D01*
X10322967Y-11248436D02*
X10313443Y-11257960D01*
X10313443Y-11257960D02*
X10294396Y-11267483D01*
X10294396Y-11267483D02*
X10275348Y-11267483D01*
X10275348Y-11267483D02*
X10256301Y-11257960D01*
X10256301Y-11257960D02*
X10246777Y-11248436D01*
X10246777Y-11248436D02*
X10237253Y-11229388D01*
X10237253Y-11229388D02*
X10227729Y-11191293D01*
X10227729Y-11191293D02*
X10227729Y-11143674D01*
X10227729Y-11143674D02*
X10237253Y-11105579D01*
X10237253Y-11105579D02*
X10246777Y-11086531D01*
X10246777Y-11086531D02*
X10256301Y-11077007D01*
X10256301Y-11077007D02*
X10275348Y-11067484D01*
X10532491Y-11267483D02*
X10418205Y-11267483D01*
X10475348Y-11267483D02*
X10475348Y-11067484D01*
X10475348Y-11067484D02*
X10456301Y-11096055D01*
X10456301Y-11096055D02*
X10437253Y-11115103D01*
X10437253Y-11115103D02*
X10418205Y-11124626D01*
X10722967Y-11267483D02*
X10608682Y-11267483D01*
X10665824Y-11267483D02*
X10665824Y-11067484D01*
X10665824Y-11067484D02*
X10646777Y-11096055D01*
X10646777Y-11096055D02*
X10627729Y-11115103D01*
X10627729Y-11115103D02*
X10608682Y-11124626D01*
X10837253Y-11153198D02*
X10818205Y-11143674D01*
X10818205Y-11143674D02*
X10808682Y-11134150D01*
X10808682Y-11134150D02*
X10799158Y-11115103D01*
X10799158Y-11115103D02*
X10799158Y-11105579D01*
X10799158Y-11105579D02*
X10808682Y-11086531D01*
X10808682Y-11086531D02*
X10818205Y-11077007D01*
X10818205Y-11077007D02*
X10837253Y-11067484D01*
X10837253Y-11067484D02*
X10875348Y-11067484D01*
X10875348Y-11067484D02*
X10894396Y-11077007D01*
X10894396Y-11077007D02*
X10903920Y-11086531D01*
X10903920Y-11086531D02*
X10913443Y-11105579D01*
X10913443Y-11105579D02*
X10913443Y-11115103D01*
X10913443Y-11115103D02*
X10903920Y-11134150D01*
X10903920Y-11134150D02*
X10894396Y-11143674D01*
X10894396Y-11143674D02*
X10875348Y-11153198D01*
X10875348Y-11153198D02*
X10837253Y-11153198D01*
X10837253Y-11153198D02*
X10818205Y-11162722D01*
X10818205Y-11162722D02*
X10808682Y-11172245D01*
X10808682Y-11172245D02*
X10799158Y-11191293D01*
X10799158Y-11191293D02*
X10799158Y-11229388D01*
X10799158Y-11229388D02*
X10808682Y-11248436D01*
X10808682Y-11248436D02*
X10818205Y-11257960D01*
X10818205Y-11257960D02*
X10837253Y-11267483D01*
X10837253Y-11267483D02*
X10875348Y-11267483D01*
X10875348Y-11267483D02*
X10894396Y-11257960D01*
X10894396Y-11257960D02*
X10903920Y-11248436D01*
X10903920Y-11248436D02*
X10913443Y-11229388D01*
X10913443Y-11229388D02*
X10913443Y-11191293D01*
X10913443Y-11191293D02*
X10903920Y-11172245D01*
X10903920Y-11172245D02*
X10894396Y-11162722D01*
X10894396Y-11162722D02*
X10875348Y-11153198D01*
X10989634Y-11067484D02*
X10989634Y-11105579D01*
X11065824Y-11067484D02*
X11065824Y-11105579D01*
X11361063Y-11343674D02*
X11351539Y-11334150D01*
X11351539Y-11334150D02*
X11332491Y-11305579D01*
X11332491Y-11305579D02*
X11322967Y-11286531D01*
X11322967Y-11286531D02*
X11313443Y-11257960D01*
X11313443Y-11257960D02*
X11303920Y-11210341D01*
X11303920Y-11210341D02*
X11303920Y-11172245D01*
X11303920Y-11172245D02*
X11313443Y-11124626D01*
X11313443Y-11124626D02*
X11322967Y-11096055D01*
X11322967Y-11096055D02*
X11332491Y-11077007D01*
X11332491Y-11077007D02*
X11351539Y-11048436D01*
X11351539Y-11048436D02*
X11361063Y-11038912D01*
X11427729Y-11086531D02*
X11437253Y-11077007D01*
X11437253Y-11077007D02*
X11456301Y-11067484D01*
X11456301Y-11067484D02*
X11503920Y-11067484D01*
X11503920Y-11067484D02*
X11522967Y-11077007D01*
X11522967Y-11077007D02*
X11532491Y-11086531D01*
X11532491Y-11086531D02*
X11542015Y-11105579D01*
X11542015Y-11105579D02*
X11542015Y-11124626D01*
X11542015Y-11124626D02*
X11532491Y-11153198D01*
X11532491Y-11153198D02*
X11418205Y-11267483D01*
X11418205Y-11267483D02*
X11542015Y-11267483D01*
X11732491Y-11267483D02*
X11618205Y-11267483D01*
X11675348Y-11267483D02*
X11675348Y-11067484D01*
X11675348Y-11067484D02*
X11656301Y-11096055D01*
X11656301Y-11096055D02*
X11637253Y-11115103D01*
X11637253Y-11115103D02*
X11618205Y-11124626D01*
X11970586Y-11267483D02*
X11970586Y-11067484D01*
X12056301Y-11267483D02*
X12056301Y-11162722D01*
X12056301Y-11162722D02*
X12046777Y-11143674D01*
X12046777Y-11143674D02*
X12027729Y-11134150D01*
X12027729Y-11134150D02*
X11999158Y-11134150D01*
X11999158Y-11134150D02*
X11980110Y-11143674D01*
X11980110Y-11143674D02*
X11970586Y-11153198D01*
X12180110Y-11267483D02*
X12161063Y-11257960D01*
X12161063Y-11257960D02*
X12151539Y-11248436D01*
X12151539Y-11248436D02*
X12142015Y-11229388D01*
X12142015Y-11229388D02*
X12142015Y-11172245D01*
X12142015Y-11172245D02*
X12151539Y-11153198D01*
X12151539Y-11153198D02*
X12161063Y-11143674D01*
X12161063Y-11143674D02*
X12180110Y-11134150D01*
X12180110Y-11134150D02*
X12208682Y-11134150D01*
X12208682Y-11134150D02*
X12227729Y-11143674D01*
X12227729Y-11143674D02*
X12237253Y-11153198D01*
X12237253Y-11153198D02*
X12246777Y-11172245D01*
X12246777Y-11172245D02*
X12246777Y-11229388D01*
X12246777Y-11229388D02*
X12237253Y-11248436D01*
X12237253Y-11248436D02*
X12227729Y-11257960D01*
X12227729Y-11257960D02*
X12208682Y-11267483D01*
X12208682Y-11267483D02*
X12180110Y-11267483D01*
X12361063Y-11267483D02*
X12342015Y-11257960D01*
X12342015Y-11257960D02*
X12332491Y-11238912D01*
X12332491Y-11238912D02*
X12332491Y-11067484D01*
X12513444Y-11257960D02*
X12494396Y-11267483D01*
X12494396Y-11267483D02*
X12456301Y-11267483D01*
X12456301Y-11267483D02*
X12437253Y-11257960D01*
X12437253Y-11257960D02*
X12427729Y-11238912D01*
X12427729Y-11238912D02*
X12427729Y-11162722D01*
X12427729Y-11162722D02*
X12437253Y-11143674D01*
X12437253Y-11143674D02*
X12456301Y-11134150D01*
X12456301Y-11134150D02*
X12494396Y-11134150D01*
X12494396Y-11134150D02*
X12513444Y-11143674D01*
X12513444Y-11143674D02*
X12522967Y-11162722D01*
X12522967Y-11162722D02*
X12522967Y-11181769D01*
X12522967Y-11181769D02*
X12427729Y-11200817D01*
X12599158Y-11257960D02*
X12618205Y-11267483D01*
X12618205Y-11267483D02*
X12656301Y-11267483D01*
X12656301Y-11267483D02*
X12675348Y-11257960D01*
X12675348Y-11257960D02*
X12684872Y-11238912D01*
X12684872Y-11238912D02*
X12684872Y-11229388D01*
X12684872Y-11229388D02*
X12675348Y-11210341D01*
X12675348Y-11210341D02*
X12656301Y-11200817D01*
X12656301Y-11200817D02*
X12627729Y-11200817D01*
X12627729Y-11200817D02*
X12608682Y-11191293D01*
X12608682Y-11191293D02*
X12599158Y-11172245D01*
X12599158Y-11172245D02*
X12599158Y-11162722D01*
X12599158Y-11162722D02*
X12608682Y-11143674D01*
X12608682Y-11143674D02*
X12627729Y-11134150D01*
X12627729Y-11134150D02*
X12656301Y-11134150D01*
X12656301Y-11134150D02*
X12675348Y-11143674D01*
X12751539Y-11343674D02*
X12761063Y-11334150D01*
X12761063Y-11334150D02*
X12780110Y-11305579D01*
X12780110Y-11305579D02*
X12789634Y-11286531D01*
X12789634Y-11286531D02*
X12799158Y-11257960D01*
X12799158Y-11257960D02*
X12808682Y-11210341D01*
X12808682Y-11210341D02*
X12808682Y-11172245D01*
X12808682Y-11172245D02*
X12799158Y-11124626D01*
X12799158Y-11124626D02*
X12789634Y-11096055D01*
X12789634Y-11096055D02*
X12780110Y-11077007D01*
X12780110Y-11077007D02*
X12761063Y-11048436D01*
X12761063Y-11048436D02*
X12751539Y-11038912D01*
D12*
X7786000Y-11440000D02*
G75*
G02*
X7726000Y-11440000I-30000J0D01*
G01*
X7726000Y-11440000D02*
G75*
G02*
X7786000Y-11440000I30000J0D01*
G01*
D11*
X8084872Y-11331483D02*
X8103919Y-11331483D01*
X8103919Y-11331483D02*
X8122967Y-11341007D01*
X8122967Y-11341007D02*
X8132491Y-11350531D01*
X8132491Y-11350531D02*
X8142015Y-11369579D01*
X8142015Y-11369579D02*
X8151538Y-11407674D01*
X8151538Y-11407674D02*
X8151538Y-11455293D01*
X8151538Y-11455293D02*
X8142015Y-11493388D01*
X8142015Y-11493388D02*
X8132491Y-11512436D01*
X8132491Y-11512436D02*
X8122967Y-11521960D01*
X8122967Y-11521960D02*
X8103919Y-11531483D01*
X8103919Y-11531483D02*
X8084872Y-11531483D01*
X8084872Y-11531483D02*
X8065824Y-11521960D01*
X8065824Y-11521960D02*
X8056300Y-11512436D01*
X8056300Y-11512436D02*
X8046776Y-11493388D01*
X8046776Y-11493388D02*
X8037253Y-11455293D01*
X8037253Y-11455293D02*
X8037253Y-11407674D01*
X8037253Y-11407674D02*
X8046776Y-11369579D01*
X8046776Y-11369579D02*
X8056300Y-11350531D01*
X8056300Y-11350531D02*
X8065824Y-11341007D01*
X8065824Y-11341007D02*
X8084872Y-11331483D01*
X8237253Y-11512436D02*
X8246776Y-11521960D01*
X8246776Y-11521960D02*
X8237253Y-11531483D01*
X8237253Y-11531483D02*
X8227729Y-11521960D01*
X8227729Y-11521960D02*
X8237253Y-11512436D01*
X8237253Y-11512436D02*
X8237253Y-11531483D01*
X8418205Y-11331483D02*
X8380110Y-11331483D01*
X8380110Y-11331483D02*
X8361062Y-11341007D01*
X8361062Y-11341007D02*
X8351538Y-11350531D01*
X8351538Y-11350531D02*
X8332491Y-11379102D01*
X8332491Y-11379102D02*
X8322967Y-11417198D01*
X8322967Y-11417198D02*
X8322967Y-11493388D01*
X8322967Y-11493388D02*
X8332491Y-11512436D01*
X8332491Y-11512436D02*
X8342015Y-11521960D01*
X8342015Y-11521960D02*
X8361062Y-11531483D01*
X8361062Y-11531483D02*
X8399158Y-11531483D01*
X8399158Y-11531483D02*
X8418205Y-11521960D01*
X8418205Y-11521960D02*
X8427729Y-11512436D01*
X8427729Y-11512436D02*
X8437253Y-11493388D01*
X8437253Y-11493388D02*
X8437253Y-11445769D01*
X8437253Y-11445769D02*
X8427729Y-11426722D01*
X8427729Y-11426722D02*
X8418205Y-11417198D01*
X8418205Y-11417198D02*
X8399158Y-11407674D01*
X8399158Y-11407674D02*
X8361062Y-11407674D01*
X8361062Y-11407674D02*
X8342015Y-11417198D01*
X8342015Y-11417198D02*
X8332491Y-11426722D01*
X8332491Y-11426722D02*
X8322967Y-11445769D01*
X8561062Y-11331483D02*
X8580110Y-11331483D01*
X8580110Y-11331483D02*
X8599158Y-11341007D01*
X8599158Y-11341007D02*
X8608681Y-11350531D01*
X8608681Y-11350531D02*
X8618205Y-11369579D01*
X8618205Y-11369579D02*
X8627729Y-11407674D01*
X8627729Y-11407674D02*
X8627729Y-11455293D01*
X8627729Y-11455293D02*
X8618205Y-11493388D01*
X8618205Y-11493388D02*
X8608681Y-11512436D01*
X8608681Y-11512436D02*
X8599158Y-11521960D01*
X8599158Y-11521960D02*
X8580110Y-11531483D01*
X8580110Y-11531483D02*
X8561062Y-11531483D01*
X8561062Y-11531483D02*
X8542015Y-11521960D01*
X8542015Y-11521960D02*
X8532491Y-11512436D01*
X8532491Y-11512436D02*
X8522967Y-11493388D01*
X8522967Y-11493388D02*
X8513443Y-11455293D01*
X8513443Y-11455293D02*
X8513443Y-11407674D01*
X8513443Y-11407674D02*
X8522967Y-11369579D01*
X8522967Y-11369579D02*
X8532491Y-11350531D01*
X8532491Y-11350531D02*
X8542015Y-11341007D01*
X8542015Y-11341007D02*
X8561062Y-11331483D01*
X8751538Y-11331483D02*
X8770586Y-11331483D01*
X8770586Y-11331483D02*
X8789634Y-11341007D01*
X8789634Y-11341007D02*
X8799158Y-11350531D01*
X8799158Y-11350531D02*
X8808681Y-11369579D01*
X8808681Y-11369579D02*
X8818205Y-11407674D01*
X8818205Y-11407674D02*
X8818205Y-11455293D01*
X8818205Y-11455293D02*
X8808681Y-11493388D01*
X8808681Y-11493388D02*
X8799158Y-11512436D01*
X8799158Y-11512436D02*
X8789634Y-11521960D01*
X8789634Y-11521960D02*
X8770586Y-11531483D01*
X8770586Y-11531483D02*
X8751538Y-11531483D01*
X8751538Y-11531483D02*
X8732491Y-11521960D01*
X8732491Y-11521960D02*
X8722967Y-11512436D01*
X8722967Y-11512436D02*
X8713443Y-11493388D01*
X8713443Y-11493388D02*
X8703919Y-11455293D01*
X8703919Y-11455293D02*
X8703919Y-11407674D01*
X8703919Y-11407674D02*
X8713443Y-11369579D01*
X8713443Y-11369579D02*
X8722967Y-11350531D01*
X8722967Y-11350531D02*
X8732491Y-11341007D01*
X8732491Y-11341007D02*
X8751538Y-11331483D01*
X8903919Y-11531483D02*
X8903919Y-11398150D01*
X8903919Y-11417198D02*
X8913443Y-11407674D01*
X8913443Y-11407674D02*
X8932491Y-11398150D01*
X8932491Y-11398150D02*
X8961062Y-11398150D01*
X8961062Y-11398150D02*
X8980110Y-11407674D01*
X8980110Y-11407674D02*
X8989634Y-11426722D01*
X8989634Y-11426722D02*
X8989634Y-11531483D01*
X8989634Y-11426722D02*
X8999158Y-11407674D01*
X8999158Y-11407674D02*
X9018205Y-11398150D01*
X9018205Y-11398150D02*
X9046777Y-11398150D01*
X9046777Y-11398150D02*
X9065824Y-11407674D01*
X9065824Y-11407674D02*
X9075348Y-11426722D01*
X9075348Y-11426722D02*
X9075348Y-11531483D01*
X9170586Y-11531483D02*
X9170586Y-11398150D01*
X9170586Y-11417198D02*
X9180110Y-11407674D01*
X9180110Y-11407674D02*
X9199158Y-11398150D01*
X9199158Y-11398150D02*
X9227729Y-11398150D01*
X9227729Y-11398150D02*
X9246777Y-11407674D01*
X9246777Y-11407674D02*
X9256300Y-11426722D01*
X9256300Y-11426722D02*
X9256300Y-11531483D01*
X9256300Y-11426722D02*
X9265824Y-11407674D01*
X9265824Y-11407674D02*
X9284872Y-11398150D01*
X9284872Y-11398150D02*
X9313443Y-11398150D01*
X9313443Y-11398150D02*
X9332491Y-11407674D01*
X9332491Y-11407674D02*
X9342015Y-11426722D01*
X9342015Y-11426722D02*
X9342015Y-11531483D01*
X9732491Y-11321960D02*
X9561062Y-11579102D01*
X9989634Y-11331483D02*
X10008682Y-11331483D01*
X10008682Y-11331483D02*
X10027729Y-11341007D01*
X10027729Y-11341007D02*
X10037253Y-11350531D01*
X10037253Y-11350531D02*
X10046777Y-11369579D01*
X10046777Y-11369579D02*
X10056301Y-11407674D01*
X10056301Y-11407674D02*
X10056301Y-11455293D01*
X10056301Y-11455293D02*
X10046777Y-11493388D01*
X10046777Y-11493388D02*
X10037253Y-11512436D01*
X10037253Y-11512436D02*
X10027729Y-11521960D01*
X10027729Y-11521960D02*
X10008682Y-11531483D01*
X10008682Y-11531483D02*
X9989634Y-11531483D01*
X9989634Y-11531483D02*
X9970586Y-11521960D01*
X9970586Y-11521960D02*
X9961062Y-11512436D01*
X9961062Y-11512436D02*
X9951539Y-11493388D01*
X9951539Y-11493388D02*
X9942015Y-11455293D01*
X9942015Y-11455293D02*
X9942015Y-11407674D01*
X9942015Y-11407674D02*
X9951539Y-11369579D01*
X9951539Y-11369579D02*
X9961062Y-11350531D01*
X9961062Y-11350531D02*
X9970586Y-11341007D01*
X9970586Y-11341007D02*
X9989634Y-11331483D01*
X10142015Y-11512436D02*
X10151539Y-11521960D01*
X10151539Y-11521960D02*
X10142015Y-11531483D01*
X10142015Y-11531483D02*
X10132491Y-11521960D01*
X10132491Y-11521960D02*
X10142015Y-11512436D01*
X10142015Y-11512436D02*
X10142015Y-11531483D01*
X10275348Y-11331483D02*
X10294396Y-11331483D01*
X10294396Y-11331483D02*
X10313443Y-11341007D01*
X10313443Y-11341007D02*
X10322967Y-11350531D01*
X10322967Y-11350531D02*
X10332491Y-11369579D01*
X10332491Y-11369579D02*
X10342015Y-11407674D01*
X10342015Y-11407674D02*
X10342015Y-11455293D01*
X10342015Y-11455293D02*
X10332491Y-11493388D01*
X10332491Y-11493388D02*
X10322967Y-11512436D01*
X10322967Y-11512436D02*
X10313443Y-11521960D01*
X10313443Y-11521960D02*
X10294396Y-11531483D01*
X10294396Y-11531483D02*
X10275348Y-11531483D01*
X10275348Y-11531483D02*
X10256301Y-11521960D01*
X10256301Y-11521960D02*
X10246777Y-11512436D01*
X10246777Y-11512436D02*
X10237253Y-11493388D01*
X10237253Y-11493388D02*
X10227729Y-11455293D01*
X10227729Y-11455293D02*
X10227729Y-11407674D01*
X10227729Y-11407674D02*
X10237253Y-11369579D01*
X10237253Y-11369579D02*
X10246777Y-11350531D01*
X10246777Y-11350531D02*
X10256301Y-11341007D01*
X10256301Y-11341007D02*
X10275348Y-11331483D01*
X10418205Y-11350531D02*
X10427729Y-11341007D01*
X10427729Y-11341007D02*
X10446777Y-11331483D01*
X10446777Y-11331483D02*
X10494396Y-11331483D01*
X10494396Y-11331483D02*
X10513443Y-11341007D01*
X10513443Y-11341007D02*
X10522967Y-11350531D01*
X10522967Y-11350531D02*
X10532491Y-11369579D01*
X10532491Y-11369579D02*
X10532491Y-11388626D01*
X10532491Y-11388626D02*
X10522967Y-11417198D01*
X10522967Y-11417198D02*
X10408682Y-11531483D01*
X10408682Y-11531483D02*
X10532491Y-11531483D01*
X10599158Y-11331483D02*
X10722967Y-11331483D01*
X10722967Y-11331483D02*
X10656301Y-11407674D01*
X10656301Y-11407674D02*
X10684872Y-11407674D01*
X10684872Y-11407674D02*
X10703920Y-11417198D01*
X10703920Y-11417198D02*
X10713443Y-11426722D01*
X10713443Y-11426722D02*
X10722967Y-11445769D01*
X10722967Y-11445769D02*
X10722967Y-11493388D01*
X10722967Y-11493388D02*
X10713443Y-11512436D01*
X10713443Y-11512436D02*
X10703920Y-11521960D01*
X10703920Y-11521960D02*
X10684872Y-11531483D01*
X10684872Y-11531483D02*
X10627729Y-11531483D01*
X10627729Y-11531483D02*
X10608682Y-11521960D01*
X10608682Y-11521960D02*
X10599158Y-11512436D01*
X10894396Y-11331483D02*
X10856301Y-11331483D01*
X10856301Y-11331483D02*
X10837253Y-11341007D01*
X10837253Y-11341007D02*
X10827729Y-11350531D01*
X10827729Y-11350531D02*
X10808682Y-11379102D01*
X10808682Y-11379102D02*
X10799158Y-11417198D01*
X10799158Y-11417198D02*
X10799158Y-11493388D01*
X10799158Y-11493388D02*
X10808682Y-11512436D01*
X10808682Y-11512436D02*
X10818205Y-11521960D01*
X10818205Y-11521960D02*
X10837253Y-11531483D01*
X10837253Y-11531483D02*
X10875348Y-11531483D01*
X10875348Y-11531483D02*
X10894396Y-11521960D01*
X10894396Y-11521960D02*
X10903920Y-11512436D01*
X10903920Y-11512436D02*
X10913443Y-11493388D01*
X10913443Y-11493388D02*
X10913443Y-11445769D01*
X10913443Y-11445769D02*
X10903920Y-11426722D01*
X10903920Y-11426722D02*
X10894396Y-11417198D01*
X10894396Y-11417198D02*
X10875348Y-11407674D01*
X10875348Y-11407674D02*
X10837253Y-11407674D01*
X10837253Y-11407674D02*
X10818205Y-11417198D01*
X10818205Y-11417198D02*
X10808682Y-11426722D01*
X10808682Y-11426722D02*
X10799158Y-11445769D01*
X10989634Y-11331483D02*
X10989634Y-11369579D01*
X11065824Y-11331483D02*
X11065824Y-11369579D01*
X11361063Y-11607674D02*
X11351539Y-11598150D01*
X11351539Y-11598150D02*
X11332491Y-11569579D01*
X11332491Y-11569579D02*
X11322967Y-11550531D01*
X11322967Y-11550531D02*
X11313443Y-11521960D01*
X11313443Y-11521960D02*
X11303920Y-11474341D01*
X11303920Y-11474341D02*
X11303920Y-11436245D01*
X11303920Y-11436245D02*
X11313443Y-11388626D01*
X11313443Y-11388626D02*
X11322967Y-11360055D01*
X11322967Y-11360055D02*
X11332491Y-11341007D01*
X11332491Y-11341007D02*
X11351539Y-11312436D01*
X11351539Y-11312436D02*
X11361063Y-11302912D01*
X11427729Y-11350531D02*
X11437253Y-11341007D01*
X11437253Y-11341007D02*
X11456301Y-11331483D01*
X11456301Y-11331483D02*
X11503920Y-11331483D01*
X11503920Y-11331483D02*
X11522967Y-11341007D01*
X11522967Y-11341007D02*
X11532491Y-11350531D01*
X11532491Y-11350531D02*
X11542015Y-11369579D01*
X11542015Y-11369579D02*
X11542015Y-11388626D01*
X11542015Y-11388626D02*
X11532491Y-11417198D01*
X11532491Y-11417198D02*
X11418205Y-11531483D01*
X11418205Y-11531483D02*
X11542015Y-11531483D01*
X11732491Y-11531483D02*
X11618205Y-11531483D01*
X11675348Y-11531483D02*
X11675348Y-11331483D01*
X11675348Y-11331483D02*
X11656301Y-11360055D01*
X11656301Y-11360055D02*
X11637253Y-11379102D01*
X11637253Y-11379102D02*
X11618205Y-11388626D01*
X11970586Y-11531483D02*
X11970586Y-11331483D01*
X12056301Y-11531483D02*
X12056301Y-11426722D01*
X12056301Y-11426722D02*
X12046777Y-11407674D01*
X12046777Y-11407674D02*
X12027729Y-11398150D01*
X12027729Y-11398150D02*
X11999158Y-11398150D01*
X11999158Y-11398150D02*
X11980110Y-11407674D01*
X11980110Y-11407674D02*
X11970586Y-11417198D01*
X12180110Y-11531483D02*
X12161063Y-11521960D01*
X12161063Y-11521960D02*
X12151539Y-11512436D01*
X12151539Y-11512436D02*
X12142015Y-11493388D01*
X12142015Y-11493388D02*
X12142015Y-11436245D01*
X12142015Y-11436245D02*
X12151539Y-11417198D01*
X12151539Y-11417198D02*
X12161063Y-11407674D01*
X12161063Y-11407674D02*
X12180110Y-11398150D01*
X12180110Y-11398150D02*
X12208682Y-11398150D01*
X12208682Y-11398150D02*
X12227729Y-11407674D01*
X12227729Y-11407674D02*
X12237253Y-11417198D01*
X12237253Y-11417198D02*
X12246777Y-11436245D01*
X12246777Y-11436245D02*
X12246777Y-11493388D01*
X12246777Y-11493388D02*
X12237253Y-11512436D01*
X12237253Y-11512436D02*
X12227729Y-11521960D01*
X12227729Y-11521960D02*
X12208682Y-11531483D01*
X12208682Y-11531483D02*
X12180110Y-11531483D01*
X12361063Y-11531483D02*
X12342015Y-11521960D01*
X12342015Y-11521960D02*
X12332491Y-11502912D01*
X12332491Y-11502912D02*
X12332491Y-11331483D01*
X12513444Y-11521960D02*
X12494396Y-11531483D01*
X12494396Y-11531483D02*
X12456301Y-11531483D01*
X12456301Y-11531483D02*
X12437253Y-11521960D01*
X12437253Y-11521960D02*
X12427729Y-11502912D01*
X12427729Y-11502912D02*
X12427729Y-11426722D01*
X12427729Y-11426722D02*
X12437253Y-11407674D01*
X12437253Y-11407674D02*
X12456301Y-11398150D01*
X12456301Y-11398150D02*
X12494396Y-11398150D01*
X12494396Y-11398150D02*
X12513444Y-11407674D01*
X12513444Y-11407674D02*
X12522967Y-11426722D01*
X12522967Y-11426722D02*
X12522967Y-11445769D01*
X12522967Y-11445769D02*
X12427729Y-11464817D01*
X12599158Y-11521960D02*
X12618205Y-11531483D01*
X12618205Y-11531483D02*
X12656301Y-11531483D01*
X12656301Y-11531483D02*
X12675348Y-11521960D01*
X12675348Y-11521960D02*
X12684872Y-11502912D01*
X12684872Y-11502912D02*
X12684872Y-11493388D01*
X12684872Y-11493388D02*
X12675348Y-11474341D01*
X12675348Y-11474341D02*
X12656301Y-11464817D01*
X12656301Y-11464817D02*
X12627729Y-11464817D01*
X12627729Y-11464817D02*
X12608682Y-11455293D01*
X12608682Y-11455293D02*
X12599158Y-11436245D01*
X12599158Y-11436245D02*
X12599158Y-11426722D01*
X12599158Y-11426722D02*
X12608682Y-11407674D01*
X12608682Y-11407674D02*
X12627729Y-11398150D01*
X12627729Y-11398150D02*
X12656301Y-11398150D01*
X12656301Y-11398150D02*
X12675348Y-11407674D01*
X12751539Y-11607674D02*
X12761063Y-11598150D01*
X12761063Y-11598150D02*
X12780110Y-11569579D01*
X12780110Y-11569579D02*
X12789634Y-11550531D01*
X12789634Y-11550531D02*
X12799158Y-11521960D01*
X12799158Y-11521960D02*
X12808682Y-11474341D01*
X12808682Y-11474341D02*
X12808682Y-11436245D01*
X12808682Y-11436245D02*
X12799158Y-11388626D01*
X12799158Y-11388626D02*
X12789634Y-11360055D01*
X12789634Y-11360055D02*
X12780110Y-11341007D01*
X12780110Y-11341007D02*
X12761063Y-11312436D01*
X12761063Y-11312436D02*
X12751539Y-11302912D01*
D12*
X7736000Y-11654000D02*
X7736000Y-11754000D01*
X7686000Y-11704000D02*
X7786000Y-11704000D01*
D11*
X8151538Y-11795483D02*
X8037253Y-11795483D01*
X8094395Y-11795483D02*
X8094395Y-11595483D01*
X8094395Y-11595483D02*
X8075348Y-11624055D01*
X8075348Y-11624055D02*
X8056300Y-11643102D01*
X8056300Y-11643102D02*
X8037253Y-11652626D01*
X8237253Y-11776436D02*
X8246776Y-11785960D01*
X8246776Y-11785960D02*
X8237253Y-11795483D01*
X8237253Y-11795483D02*
X8227729Y-11785960D01*
X8227729Y-11785960D02*
X8237253Y-11776436D01*
X8237253Y-11776436D02*
X8237253Y-11795483D01*
X8370586Y-11595483D02*
X8389634Y-11595483D01*
X8389634Y-11595483D02*
X8408681Y-11605007D01*
X8408681Y-11605007D02*
X8418205Y-11614531D01*
X8418205Y-11614531D02*
X8427729Y-11633579D01*
X8427729Y-11633579D02*
X8437253Y-11671674D01*
X8437253Y-11671674D02*
X8437253Y-11719293D01*
X8437253Y-11719293D02*
X8427729Y-11757388D01*
X8427729Y-11757388D02*
X8418205Y-11776436D01*
X8418205Y-11776436D02*
X8408681Y-11785960D01*
X8408681Y-11785960D02*
X8389634Y-11795483D01*
X8389634Y-11795483D02*
X8370586Y-11795483D01*
X8370586Y-11795483D02*
X8351538Y-11785960D01*
X8351538Y-11785960D02*
X8342015Y-11776436D01*
X8342015Y-11776436D02*
X8332491Y-11757388D01*
X8332491Y-11757388D02*
X8322967Y-11719293D01*
X8322967Y-11719293D02*
X8322967Y-11671674D01*
X8322967Y-11671674D02*
X8332491Y-11633579D01*
X8332491Y-11633579D02*
X8342015Y-11614531D01*
X8342015Y-11614531D02*
X8351538Y-11605007D01*
X8351538Y-11605007D02*
X8370586Y-11595483D01*
X8561062Y-11595483D02*
X8580110Y-11595483D01*
X8580110Y-11595483D02*
X8599158Y-11605007D01*
X8599158Y-11605007D02*
X8608681Y-11614531D01*
X8608681Y-11614531D02*
X8618205Y-11633579D01*
X8618205Y-11633579D02*
X8627729Y-11671674D01*
X8627729Y-11671674D02*
X8627729Y-11719293D01*
X8627729Y-11719293D02*
X8618205Y-11757388D01*
X8618205Y-11757388D02*
X8608681Y-11776436D01*
X8608681Y-11776436D02*
X8599158Y-11785960D01*
X8599158Y-11785960D02*
X8580110Y-11795483D01*
X8580110Y-11795483D02*
X8561062Y-11795483D01*
X8561062Y-11795483D02*
X8542015Y-11785960D01*
X8542015Y-11785960D02*
X8532491Y-11776436D01*
X8532491Y-11776436D02*
X8522967Y-11757388D01*
X8522967Y-11757388D02*
X8513443Y-11719293D01*
X8513443Y-11719293D02*
X8513443Y-11671674D01*
X8513443Y-11671674D02*
X8522967Y-11633579D01*
X8522967Y-11633579D02*
X8532491Y-11614531D01*
X8532491Y-11614531D02*
X8542015Y-11605007D01*
X8542015Y-11605007D02*
X8561062Y-11595483D01*
X8751538Y-11595483D02*
X8770586Y-11595483D01*
X8770586Y-11595483D02*
X8789634Y-11605007D01*
X8789634Y-11605007D02*
X8799158Y-11614531D01*
X8799158Y-11614531D02*
X8808681Y-11633579D01*
X8808681Y-11633579D02*
X8818205Y-11671674D01*
X8818205Y-11671674D02*
X8818205Y-11719293D01*
X8818205Y-11719293D02*
X8808681Y-11757388D01*
X8808681Y-11757388D02*
X8799158Y-11776436D01*
X8799158Y-11776436D02*
X8789634Y-11785960D01*
X8789634Y-11785960D02*
X8770586Y-11795483D01*
X8770586Y-11795483D02*
X8751538Y-11795483D01*
X8751538Y-11795483D02*
X8732491Y-11785960D01*
X8732491Y-11785960D02*
X8722967Y-11776436D01*
X8722967Y-11776436D02*
X8713443Y-11757388D01*
X8713443Y-11757388D02*
X8703919Y-11719293D01*
X8703919Y-11719293D02*
X8703919Y-11671674D01*
X8703919Y-11671674D02*
X8713443Y-11633579D01*
X8713443Y-11633579D02*
X8722967Y-11614531D01*
X8722967Y-11614531D02*
X8732491Y-11605007D01*
X8732491Y-11605007D02*
X8751538Y-11595483D01*
X8903919Y-11795483D02*
X8903919Y-11662150D01*
X8903919Y-11681198D02*
X8913443Y-11671674D01*
X8913443Y-11671674D02*
X8932491Y-11662150D01*
X8932491Y-11662150D02*
X8961062Y-11662150D01*
X8961062Y-11662150D02*
X8980110Y-11671674D01*
X8980110Y-11671674D02*
X8989634Y-11690722D01*
X8989634Y-11690722D02*
X8989634Y-11795483D01*
X8989634Y-11690722D02*
X8999158Y-11671674D01*
X8999158Y-11671674D02*
X9018205Y-11662150D01*
X9018205Y-11662150D02*
X9046777Y-11662150D01*
X9046777Y-11662150D02*
X9065824Y-11671674D01*
X9065824Y-11671674D02*
X9075348Y-11690722D01*
X9075348Y-11690722D02*
X9075348Y-11795483D01*
X9170586Y-11795483D02*
X9170586Y-11662150D01*
X9170586Y-11681198D02*
X9180110Y-11671674D01*
X9180110Y-11671674D02*
X9199158Y-11662150D01*
X9199158Y-11662150D02*
X9227729Y-11662150D01*
X9227729Y-11662150D02*
X9246777Y-11671674D01*
X9246777Y-11671674D02*
X9256300Y-11690722D01*
X9256300Y-11690722D02*
X9256300Y-11795483D01*
X9256300Y-11690722D02*
X9265824Y-11671674D01*
X9265824Y-11671674D02*
X9284872Y-11662150D01*
X9284872Y-11662150D02*
X9313443Y-11662150D01*
X9313443Y-11662150D02*
X9332491Y-11671674D01*
X9332491Y-11671674D02*
X9342015Y-11690722D01*
X9342015Y-11690722D02*
X9342015Y-11795483D01*
X9732491Y-11585960D02*
X9561062Y-11843102D01*
X9989634Y-11595483D02*
X10008682Y-11595483D01*
X10008682Y-11595483D02*
X10027729Y-11605007D01*
X10027729Y-11605007D02*
X10037253Y-11614531D01*
X10037253Y-11614531D02*
X10046777Y-11633579D01*
X10046777Y-11633579D02*
X10056301Y-11671674D01*
X10056301Y-11671674D02*
X10056301Y-11719293D01*
X10056301Y-11719293D02*
X10046777Y-11757388D01*
X10046777Y-11757388D02*
X10037253Y-11776436D01*
X10037253Y-11776436D02*
X10027729Y-11785960D01*
X10027729Y-11785960D02*
X10008682Y-11795483D01*
X10008682Y-11795483D02*
X9989634Y-11795483D01*
X9989634Y-11795483D02*
X9970586Y-11785960D01*
X9970586Y-11785960D02*
X9961062Y-11776436D01*
X9961062Y-11776436D02*
X9951539Y-11757388D01*
X9951539Y-11757388D02*
X9942015Y-11719293D01*
X9942015Y-11719293D02*
X9942015Y-11671674D01*
X9942015Y-11671674D02*
X9951539Y-11633579D01*
X9951539Y-11633579D02*
X9961062Y-11614531D01*
X9961062Y-11614531D02*
X9970586Y-11605007D01*
X9970586Y-11605007D02*
X9989634Y-11595483D01*
X10142015Y-11776436D02*
X10151539Y-11785960D01*
X10151539Y-11785960D02*
X10142015Y-11795483D01*
X10142015Y-11795483D02*
X10132491Y-11785960D01*
X10132491Y-11785960D02*
X10142015Y-11776436D01*
X10142015Y-11776436D02*
X10142015Y-11795483D01*
X10275348Y-11595483D02*
X10294396Y-11595483D01*
X10294396Y-11595483D02*
X10313443Y-11605007D01*
X10313443Y-11605007D02*
X10322967Y-11614531D01*
X10322967Y-11614531D02*
X10332491Y-11633579D01*
X10332491Y-11633579D02*
X10342015Y-11671674D01*
X10342015Y-11671674D02*
X10342015Y-11719293D01*
X10342015Y-11719293D02*
X10332491Y-11757388D01*
X10332491Y-11757388D02*
X10322967Y-11776436D01*
X10322967Y-11776436D02*
X10313443Y-11785960D01*
X10313443Y-11785960D02*
X10294396Y-11795483D01*
X10294396Y-11795483D02*
X10275348Y-11795483D01*
X10275348Y-11795483D02*
X10256301Y-11785960D01*
X10256301Y-11785960D02*
X10246777Y-11776436D01*
X10246777Y-11776436D02*
X10237253Y-11757388D01*
X10237253Y-11757388D02*
X10227729Y-11719293D01*
X10227729Y-11719293D02*
X10227729Y-11671674D01*
X10227729Y-11671674D02*
X10237253Y-11633579D01*
X10237253Y-11633579D02*
X10246777Y-11614531D01*
X10246777Y-11614531D02*
X10256301Y-11605007D01*
X10256301Y-11605007D02*
X10275348Y-11595483D01*
X10408682Y-11595483D02*
X10532491Y-11595483D01*
X10532491Y-11595483D02*
X10465824Y-11671674D01*
X10465824Y-11671674D02*
X10494396Y-11671674D01*
X10494396Y-11671674D02*
X10513443Y-11681198D01*
X10513443Y-11681198D02*
X10522967Y-11690722D01*
X10522967Y-11690722D02*
X10532491Y-11709769D01*
X10532491Y-11709769D02*
X10532491Y-11757388D01*
X10532491Y-11757388D02*
X10522967Y-11776436D01*
X10522967Y-11776436D02*
X10513443Y-11785960D01*
X10513443Y-11785960D02*
X10494396Y-11795483D01*
X10494396Y-11795483D02*
X10437253Y-11795483D01*
X10437253Y-11795483D02*
X10418205Y-11785960D01*
X10418205Y-11785960D02*
X10408682Y-11776436D01*
X10627729Y-11795483D02*
X10665824Y-11795483D01*
X10665824Y-11795483D02*
X10684872Y-11785960D01*
X10684872Y-11785960D02*
X10694396Y-11776436D01*
X10694396Y-11776436D02*
X10713443Y-11747864D01*
X10713443Y-11747864D02*
X10722967Y-11709769D01*
X10722967Y-11709769D02*
X10722967Y-11633579D01*
X10722967Y-11633579D02*
X10713443Y-11614531D01*
X10713443Y-11614531D02*
X10703920Y-11605007D01*
X10703920Y-11605007D02*
X10684872Y-11595483D01*
X10684872Y-11595483D02*
X10646777Y-11595483D01*
X10646777Y-11595483D02*
X10627729Y-11605007D01*
X10627729Y-11605007D02*
X10618205Y-11614531D01*
X10618205Y-11614531D02*
X10608682Y-11633579D01*
X10608682Y-11633579D02*
X10608682Y-11681198D01*
X10608682Y-11681198D02*
X10618205Y-11700245D01*
X10618205Y-11700245D02*
X10627729Y-11709769D01*
X10627729Y-11709769D02*
X10646777Y-11719293D01*
X10646777Y-11719293D02*
X10684872Y-11719293D01*
X10684872Y-11719293D02*
X10703920Y-11709769D01*
X10703920Y-11709769D02*
X10713443Y-11700245D01*
X10713443Y-11700245D02*
X10722967Y-11681198D01*
X10894396Y-11662150D02*
X10894396Y-11795483D01*
X10846777Y-11585960D02*
X10799158Y-11728817D01*
X10799158Y-11728817D02*
X10922967Y-11728817D01*
X10989634Y-11595483D02*
X10989634Y-11633579D01*
X11065824Y-11595483D02*
X11065824Y-11633579D01*
X11361063Y-11871674D02*
X11351539Y-11862150D01*
X11351539Y-11862150D02*
X11332491Y-11833579D01*
X11332491Y-11833579D02*
X11322967Y-11814531D01*
X11322967Y-11814531D02*
X11313443Y-11785960D01*
X11313443Y-11785960D02*
X11303920Y-11738341D01*
X11303920Y-11738341D02*
X11303920Y-11700245D01*
X11303920Y-11700245D02*
X11313443Y-11652626D01*
X11313443Y-11652626D02*
X11322967Y-11624055D01*
X11322967Y-11624055D02*
X11332491Y-11605007D01*
X11332491Y-11605007D02*
X11351539Y-11576436D01*
X11351539Y-11576436D02*
X11361063Y-11566912D01*
X11522967Y-11595483D02*
X11484872Y-11595483D01*
X11484872Y-11595483D02*
X11465824Y-11605007D01*
X11465824Y-11605007D02*
X11456301Y-11614531D01*
X11456301Y-11614531D02*
X11437253Y-11643102D01*
X11437253Y-11643102D02*
X11427729Y-11681198D01*
X11427729Y-11681198D02*
X11427729Y-11757388D01*
X11427729Y-11757388D02*
X11437253Y-11776436D01*
X11437253Y-11776436D02*
X11446777Y-11785960D01*
X11446777Y-11785960D02*
X11465824Y-11795483D01*
X11465824Y-11795483D02*
X11503920Y-11795483D01*
X11503920Y-11795483D02*
X11522967Y-11785960D01*
X11522967Y-11785960D02*
X11532491Y-11776436D01*
X11532491Y-11776436D02*
X11542015Y-11757388D01*
X11542015Y-11757388D02*
X11542015Y-11709769D01*
X11542015Y-11709769D02*
X11532491Y-11690722D01*
X11532491Y-11690722D02*
X11522967Y-11681198D01*
X11522967Y-11681198D02*
X11503920Y-11671674D01*
X11503920Y-11671674D02*
X11465824Y-11671674D01*
X11465824Y-11671674D02*
X11446777Y-11681198D01*
X11446777Y-11681198D02*
X11437253Y-11690722D01*
X11437253Y-11690722D02*
X11427729Y-11709769D01*
X11780110Y-11795483D02*
X11780110Y-11595483D01*
X11865824Y-11795483D02*
X11865824Y-11690722D01*
X11865824Y-11690722D02*
X11856301Y-11671674D01*
X11856301Y-11671674D02*
X11837253Y-11662150D01*
X11837253Y-11662150D02*
X11808682Y-11662150D01*
X11808682Y-11662150D02*
X11789634Y-11671674D01*
X11789634Y-11671674D02*
X11780110Y-11681198D01*
X11989634Y-11795483D02*
X11970586Y-11785960D01*
X11970586Y-11785960D02*
X11961063Y-11776436D01*
X11961063Y-11776436D02*
X11951539Y-11757388D01*
X11951539Y-11757388D02*
X11951539Y-11700245D01*
X11951539Y-11700245D02*
X11961063Y-11681198D01*
X11961063Y-11681198D02*
X11970586Y-11671674D01*
X11970586Y-11671674D02*
X11989634Y-11662150D01*
X11989634Y-11662150D02*
X12018205Y-11662150D01*
X12018205Y-11662150D02*
X12037253Y-11671674D01*
X12037253Y-11671674D02*
X12046777Y-11681198D01*
X12046777Y-11681198D02*
X12056301Y-11700245D01*
X12056301Y-11700245D02*
X12056301Y-11757388D01*
X12056301Y-11757388D02*
X12046777Y-11776436D01*
X12046777Y-11776436D02*
X12037253Y-11785960D01*
X12037253Y-11785960D02*
X12018205Y-11795483D01*
X12018205Y-11795483D02*
X11989634Y-11795483D01*
X12170586Y-11795483D02*
X12151539Y-11785960D01*
X12151539Y-11785960D02*
X12142015Y-11766912D01*
X12142015Y-11766912D02*
X12142015Y-11595483D01*
X12322967Y-11785960D02*
X12303920Y-11795483D01*
X12303920Y-11795483D02*
X12265824Y-11795483D01*
X12265824Y-11795483D02*
X12246777Y-11785960D01*
X12246777Y-11785960D02*
X12237253Y-11766912D01*
X12237253Y-11766912D02*
X12237253Y-11690722D01*
X12237253Y-11690722D02*
X12246777Y-11671674D01*
X12246777Y-11671674D02*
X12265824Y-11662150D01*
X12265824Y-11662150D02*
X12303920Y-11662150D01*
X12303920Y-11662150D02*
X12322967Y-11671674D01*
X12322967Y-11671674D02*
X12332491Y-11690722D01*
X12332491Y-11690722D02*
X12332491Y-11709769D01*
X12332491Y-11709769D02*
X12237253Y-11728817D01*
X12408682Y-11785960D02*
X12427729Y-11795483D01*
X12427729Y-11795483D02*
X12465824Y-11795483D01*
X12465824Y-11795483D02*
X12484872Y-11785960D01*
X12484872Y-11785960D02*
X12494396Y-11766912D01*
X12494396Y-11766912D02*
X12494396Y-11757388D01*
X12494396Y-11757388D02*
X12484872Y-11738341D01*
X12484872Y-11738341D02*
X12465824Y-11728817D01*
X12465824Y-11728817D02*
X12437253Y-11728817D01*
X12437253Y-11728817D02*
X12418205Y-11719293D01*
X12418205Y-11719293D02*
X12408682Y-11700245D01*
X12408682Y-11700245D02*
X12408682Y-11690722D01*
X12408682Y-11690722D02*
X12418205Y-11671674D01*
X12418205Y-11671674D02*
X12437253Y-11662150D01*
X12437253Y-11662150D02*
X12465824Y-11662150D01*
X12465824Y-11662150D02*
X12484872Y-11671674D01*
X12561063Y-11871674D02*
X12570586Y-11862150D01*
X12570586Y-11862150D02*
X12589634Y-11833579D01*
X12589634Y-11833579D02*
X12599158Y-11814531D01*
X12599158Y-11814531D02*
X12608682Y-11785960D01*
X12608682Y-11785960D02*
X12618205Y-11738341D01*
X12618205Y-11738341D02*
X12618205Y-11700245D01*
X12618205Y-11700245D02*
X12608682Y-11652626D01*
X12608682Y-11652626D02*
X12599158Y-11624055D01*
X12599158Y-11624055D02*
X12589634Y-11605007D01*
X12589634Y-11605007D02*
X12570586Y-11576436D01*
X12570586Y-11576436D02*
X12561063Y-11566912D01*
M02*
